<svg baseProfile="full" height="200" version="1.1" width="600" xmlns="http://www.w3.org/2000/svg" xmlns:ev="http://www.w3.org/2001/xml-events" xmlns:xlink="http://www.w3.org/1999/xlink"><defs><style type="text/css"><![CDATA[.background path {fill: #808080; fill-opacity: 0}.background path:nth-child(odd) {fill-opacity: .1}.axes {font-size: 14px}.x-axis .tick .lab {font-weight: bold; dominant-baseline: hanging}.axes, .tree {font-size: 14px; text-anchor: middle}.axes line, .edge {stroke: black; fill: none}.y-axis .grid {stroke: #FAFAFA}.node > .sym {fill: black; stroke: none}.site > .sym {stroke: black}.mut text {fill: red; font-style: italic}.mut.extra text {fill: hotpink}.mut line {fill: none; stroke: none}.mut .sym {fill: none; stroke: red}.mut.extra .sym {stroke: hotpink}.node .mut .sym {stroke-width: 1.5px}.tree text, .tree-sequence text {dominant-baseline: central}.plotbox .lab.lft {text-anchor: end}.plotbox .lab.rgt {text-anchor: start}]]></style></defs><g class="tree-sequence"><g class="background"><path d="M20,0 l186.667,0 l0,138.2 l-85.7859,25 l0,5 l-100.881,0 l0,-5 l0,-25 l0,-138.2z" /><path d="M206.667,0 l186.667,0 l0,138.2 l47.1982,25 l0,5 l-319.651,0 l0,-5 l85.7859,-25 l0,-138.2z" /><path d="M393.333,0 l186.667,0 l0,138.2 l0,25 l0,5 l-139.469,0 l0,-5 l-47.1982,-25 l0,-138.2z" /></g><g class="axes"><g class="x-axis"><g transform="translate(300 200)"><text class="lab" text-anchor="middle" transform="translate(0 -11)">Genome position</text></g><line x1="20" x2="580" y1="163.2" y2="163.2" /><g class="ticks"><g class="tick" transform="translate(20 163.2)"><line x1="0" x2="0" y1="0" y2="5" /><g transform="translate(0 6)"><text class="lab">0.00</text></g></g><g class="tick" transform="translate(120.881 163.2)"><line x1="0" x2="0" y1="0" y2="5" /><g transform="translate(0 6)"><text class="lab">180.14</text></g></g><g class="tick" transform="translate(440.531 163.2)"><line x1="0" x2="0" y1="0" y2="5" /><g transform="translate(0 6)"><text class="lab">750.95</text></g></g><g class="tick" transform="translate(580 163.2)"><line x1="0" x2="0" y1="0" y2="5" /><g transform="translate(0 6)"><text class="lab">1000.00</text></g></g></g></g></g><g class="plotbox trees"><g class="tree t0" transform="translate(20 0)"><g class="plotbox"><g class="c2 node n24 p0 root" transform="translate(66.5208 26.8)"><g class="a24 c2 node n22 p0" transform="translate(31.8542 44.9845)"><g class="a22 c2 node n17 p0" transform="translate(23.375 29.6755)"><g class="a17 leaf node n2 p0 sample" transform="translate(-21.0833 19.94)"><path class="edge" d="M 0 0 V -19.94 H 21.0833" /><rect class="sym" height="6" width="6" x="-3" y="-3" /><text class="lab" transform="translate(0 11)">2</text></g><g class="a17 c1 node n16 p0" transform="translate(21.0833 9.71499)"><g class="a16 c2 node n15 p0" transform="translate(0.0 0.329964)"><g class="a15 leaf node n6 p0 sample" transform="translate(16.5 9.89507)"><path class="edge" d="M 0 0 V -9.89507 H -16.5" /><rect class="sym" height="6" width="6" x="-3" y="-3" /><text class="lab" transform="translate(0 11)">6</text></g><g class="a15 c2 node n14 p0" transform="translate(-16.5 5.434)"><g class="a14 leaf node n5 p0 sample" transform="translate(-11 4.46107)"><path class="edge" d="M 0 0 V -4.46107 H 11" /><rect class="sym" height="6" width="6" x="-3" y="-3" /><text class="lab" transform="translate(0 11)">5</text></g><g class="a14 c2 node n13 p0" transform="translate(11 0.442546)"><g class="a13 leaf node n8 p0 sample" transform="translate(-7.33333 4.01853)"><path class="edge" d="M 0 0 V -4.01853 H 7.33333" /><rect class="sym" height="6" width="6" x="-3" y="-3" /><text class="lab" transform="translate(0 11)">8</text></g><g class="a13 leaf node n9 p0 sample" transform="translate(7.33333 4.01853)"><path class="edge" d="M 0 0 V -4.01853 H -7.33333" /><rect class="sym" height="6" width="6" x="-3" y="-3" /><text class="lab" transform="translate(0 11)">9</text></g><path class="edge" d="M 0 0 V -0.442546 H -11" /><circle class="sym" cx="0" cy="0" r="3" /><text class="lab rgt" transform="translate(3 -7.0)">13</text></g><path class="edge" d="M 0 0 V -5.434 H 16.5" /><circle class="sym" cx="0" cy="0" r="3" /><text class="lab lft" transform="translate(-3 -7.0)">14</text></g><path class="edge" d="M 0 0 V -0.329964 H 0.0" /><circle class="sym" cx="0" cy="0" r="3" /><text class="lab lft" transform="translate(-3 -7.0)">15</text></g><path class="edge" d="M 0 0 V -9.71499 H -21.0833" /><circle class="sym" cx="0" cy="0" r="3" /><text class="lab rgt" transform="translate(3 -7.0)">16</text></g><path class="edge" d="M 0 0 V -29.6755 H -23.375" /><circle class="sym" cx="0" cy="0" r="3" /><text class="lab rgt" transform="translate(3 -7.0)">17</text></g><g class="a22 c2 node n20 p0" transform="translate(-23.375 16.2347)"><g class="a20 leaf node n3 p0 sample" transform="translate(11 33.3809)"><path class="edge" d="M 0 0 V -33.3809 H -11" /><rect class="sym" height="6" width="6" x="-3" y="-3" /><text class="lab" transform="translate(0 11)">3</text></g><g class="a20 c2 node n12 p0" transform="translate(-11 31.0762)"><g class="a12 leaf node n4 p0 sample" transform="translate(7.33333 2.30471)"><path class="edge" d="M 0 0 V -2.30471 H -7.33333" /><rect class="sym" height="6" width="6" x="-3" y="-3" /><text class="lab" transform="translate(0 11)">4</text></g><g class="a12 c1 node n10 p0" transform="translate(-7.33333 1.06498)"><g class="a10 leaf node n1 p0 sample" transform="translate(0.0 1.23973)"><path class="edge" d="M 0 0 V -1.23973 H 0.0" /><rect class="sym" height="6" width="6" x="-3" y="-3" /><text class="lab" transform="translate(0 11)">1</text></g><path class="edge" d="M 0 0 V -1.06498 H 7.33333" /><circle class="sym" cx="0" cy="0" r="3" /><text class="lab lft" transform="translate(-3 -7.0)">10</text></g><path class="edge" d="M 0 0 V -31.0762 H 11" /><circle class="sym" cx="0" cy="0" r="3" /><text class="lab lft" transform="translate(-3 -7.0)">12</text></g><path class="edge" d="M 0 0 V -16.2347 H 23.375" /><circle class="sym" cx="0" cy="0" r="3" /><text class="lab lft" transform="translate(-3 -7.0)">20</text></g><path class="edge" d="M 0 0 V -44.9845 H -31.8542" /><circle class="sym" cx="0" cy="0" r="3" /><text class="lab rgt" transform="translate(3 -7.0)">22</text></g><g class="a24 c2 node n23 p0" transform="translate(-31.8542 13.2946)"><g class="a23 c1 node n18 p0" transform="translate(-7.33333 48.0264)"><g class="a18 leaf node n0 p0 sample" transform="translate(0.0 33.279)"><path class="edge" d="M 0 0 V -33.279 H 0.0" /><rect class="sym" height="6" width="6" x="-3" y="-3" /><text class="lab" transform="translate(0 11)">0</text></g><path class="edge" d="M 0 0 V -48.0264 H 7.33333" /><circle class="sym" cx="0" cy="0" r="3" /><text class="lab lft" transform="translate(-3 -7.0)">18</text></g><g class="a23 c1 node n21 p0" transform="translate(7.33333 35.9755)"><g class="a21 leaf node n7 p0 sample" transform="translate(0.0 45.3299)"><path class="edge" d="M 0 0 V -45.3299 H 0.0" /><rect class="sym" height="6" width="6" x="-3" y="-3" /><text class="lab" transform="translate(0 11)">7</text></g><path class="edge" d="M 0 0 V -35.9755 H -7.33333" /><circle class="sym" cx="0" cy="0" r="3" /><text class="lab rgt" transform="translate(3 -7.0)">21</text></g><path class="edge" d="M 0 0 V -13.2946 H 31.8542" /><circle class="sym" cx="0" cy="0" r="3" /><text class="lab lft" transform="translate(-3 -7.0)">23</text></g><circle class="sym" cx="0" cy="0" r="3" /><text class="lab" transform="translate(0 -11)">24</text></g></g></g><g class="tree t1" transform="translate(206.667 0)"><g class="plotbox"><g class="c2 node n24 p0 root" transform="translate(66.5208 26.8)"><g class="a24 c2 node n22 p0" transform="translate(31.8542 44.9845)"><g class="a22 c2 node n17 p0" transform="translate(23.375 29.6755)"><g class="a17 leaf node n2 p0 sample" transform="translate(-21.0833 19.94)"><path class="edge" d="M 0 0 V -19.94 H 21.0833" /><rect class="sym" height="6" width="6" x="-3" y="-3" /><text class="lab" transform="translate(0 11)">2</text></g><g class="a17 c1 node n16 p0" transform="translate(21.0833 9.71499)"><g class="a16 c2 node n15 p0" transform="translate(0.0 0.329964)"><g class="a15 leaf node n6 p0 sample" transform="translate(16.5 9.89507)"><path class="edge" d="M 0 0 V -9.89507 H -16.5" /><rect class="sym" height="6" width="6" x="-3" y="-3" /><text class="lab" transform="translate(0 11)">6</text></g><g class="a15 c2 node n14 p0" transform="translate(-16.5 5.434)"><g class="a14 leaf node n5 p0 sample" transform="translate(-11 4.46107)"><path class="edge" d="M 0 0 V -4.46107 H 11" /><rect class="sym" height="6" width="6" x="-3" y="-3" /><text class="lab" transform="translate(0 11)">5</text></g><g class="a14 c2 node n13 p0" transform="translate(11 0.442546)"><g class="a13 leaf node n8 p0 sample" transform="translate(-7.33333 4.01853)"><path class="edge" d="M 0 0 V -4.01853 H 7.33333" /><rect class="sym" height="6" width="6" x="-3" y="-3" /><text class="lab" transform="translate(0 11)">8</text></g><g class="a13 leaf node n9 p0 sample" transform="translate(7.33333 4.01853)"><path class="edge" d="M 0 0 V -4.01853 H -7.33333" /><rect class="sym" height="6" width="6" x="-3" y="-3" /><text class="lab" transform="translate(0 11)">9</text></g><path class="edge" d="M 0 0 V -0.442546 H -11" /><circle class="sym" cx="0" cy="0" r="3" /><text class="lab rgt" transform="translate(3 -7.0)">13</text></g><path class="edge" d="M 0 0 V -5.434 H 16.5" /><circle class="sym" cx="0" cy="0" r="3" /><text class="lab lft" transform="translate(-3 -7.0)">14</text></g><path class="edge" d="M 0 0 V -0.329964 H 0.0" /><circle class="sym" cx="0" cy="0" r="3" /><text class="lab lft" transform="translate(-3 -7.0)">15</text></g><path class="edge" d="M 0 0 V -9.71499 H -21.0833" /><circle class="sym" cx="0" cy="0" r="3" /><text class="lab rgt" transform="translate(3 -7.0)">16</text></g><path class="edge" d="M 0 0 V -29.6755 H -23.375" /><circle class="sym" cx="0" cy="0" r="3" /><text class="lab rgt" transform="translate(3 -7.0)">17</text></g><g class="a22 c2 node n20 p0" transform="translate(-23.375 16.2347)"><g class="a20 leaf node n3 p0 sample" transform="translate(11 33.3809)"><path class="edge" d="M 0 0 V -33.3809 H -11" /><rect class="sym" height="6" width="6" x="-3" y="-3" /><text class="lab" transform="translate(0 11)">3</text></g><g class="a20 c2 node n12 p0" transform="translate(-11 31.0762)"><g class="a12 leaf node n4 p0 sample" transform="translate(7.33333 2.30471)"><path class="edge" d="M 0 0 V -2.30471 H -7.33333" /><rect class="sym" height="6" width="6" x="-3" y="-3" /><text class="lab" transform="translate(0 11)">4</text></g><g class="a12 c1 node n10 p0" transform="translate(-7.33333 1.06498)"><g class="a10 leaf node n1 p0 sample" transform="translate(0.0 1.23973)"><path class="edge" d="M 0 0 V -1.23973 H 0.0" /><rect class="sym" height="6" width="6" x="-3" y="-3" /><text class="lab" transform="translate(0 11)">1</text></g><path class="edge" d="M 0 0 V -1.06498 H 7.33333" /><circle class="sym" cx="0" cy="0" r="3" /><text class="lab lft" transform="translate(-3 -7.0)">10</text></g><path class="edge" d="M 0 0 V -31.0762 H 11" /><circle class="sym" cx="0" cy="0" r="3" /><text class="lab lft" transform="translate(-3 -7.0)">12</text></g><path class="edge" d="M 0 0 V -16.2347 H 23.375" /><circle class="sym" cx="0" cy="0" r="3" /><text class="lab lft" transform="translate(-3 -7.0)">20</text></g><path class="edge" d="M 0 0 V -44.9845 H -31.8542" /><circle class="sym" cx="0" cy="0" r="3" /><text class="lab rgt" transform="translate(3 -7.0)">22</text></g><g class="a24 c1 node n23 p0" transform="translate(-31.8542 13.2946)"><g class="a23 c2 node n21 p0" transform="translate(0.0 35.9755)"><g class="a21 leaf node n7 p0 sample" transform="translate(7.33333 45.3299)"><path class="edge" d="M 0 0 V -45.3299 H -7.33333" /><rect class="sym" height="6" width="6" x="-3" y="-3" /><text class="lab" transform="translate(0 11)">7</text></g><g class="a21 c1 node n19 p0" transform="translate(-7.33333 12.0509)"><g class="a19 leaf node n0 p0 sample" transform="translate(0.0 33.279)"><path class="edge" d="M 0 0 V -33.279 H 0.0" /><rect class="sym" height="6" width="6" x="-3" y="-3" /><text class="lab" transform="translate(0 11)">0</text></g><path class="edge" d="M 0 0 V -12.0509 H 7.33333" /><circle class="sym" cx="0" cy="0" r="3" /><text class="lab lft" transform="translate(-3 -7.0)">19</text></g><path class="edge" d="M 0 0 V -35.9755 H 0.0" /><circle class="sym" cx="0" cy="0" r="3" /><text class="lab lft" transform="translate(-3 -7.0)">21</text></g><path class="edge" d="M 0 0 V -13.2946 H 31.8542" /><circle class="sym" cx="0" cy="0" r="3" /><text class="lab lft" transform="translate(-3 -7.0)">23</text></g><circle class="sym" cx="0" cy="0" r="3" /><text class="lab" transform="translate(0 -11)">24</text></g></g></g><g class="tree t2" transform="translate(393.333 0)"><g class="plotbox"><g class="c2 node n24 p0 root" transform="translate(81.3021 26.8)"><g class="a24 c2 node n22 p0" transform="translate(46.6354 44.9845)"><g class="a22 c2 node n17 p0" transform="translate(-24.0625 29.6755)"><g class="a17 leaf node n2 p0 sample" transform="translate(26.125 19.94)"><path class="edge" d="M 0 0 V -19.94 H -26.125" /><rect class="sym" height="6" width="6" x="-3" y="-3" /><text class="lab" transform="translate(0 11)">2</text></g><g class="a17 c2 node n16 p0" transform="translate(-26.125 9.71499)"><g class="a16 c2 node n15 p0" transform="translate(21.0833 0.329964)"><g class="a15 leaf node n6 p0 sample" transform="translate(16.5 9.89507)"><path class="edge" d="M 0 0 V -9.89507 H -16.5" /><rect class="sym" height="6" width="6" x="-3" y="-3" /><text class="lab" transform="translate(0 11)">6</text></g><g class="a15 c2 node n14 p0" transform="translate(-16.5 5.434)"><g class="a14 leaf node n5 p0 sample" transform="translate(-11 4.46107)"><path class="edge" d="M 0 0 V -4.46107 H 11" /><rect class="sym" height="6" width="6" x="-3" y="-3" /><text class="lab" transform="translate(0 11)">5</text></g><g class="a14 c2 node n13 p0" transform="translate(11 0.442546)"><g class="a13 leaf node n8 p0 sample" transform="translate(-7.33333 4.01853)"><path class="edge" d="M 0 0 V -4.01853 H 7.33333" /><rect class="sym" height="6" width="6" x="-3" y="-3" /><text class="lab" transform="translate(0 11)">8</text></g><g class="a13 leaf node n9 p0 sample" transform="translate(7.33333 4.01853)"><path class="edge" d="M 0 0 V -4.01853 H -7.33333" /><rect class="sym" height="6" width="6" x="-3" y="-3" /><text class="lab" transform="translate(0 11)">9</text></g><path class="edge" d="M 0 0 V -0.442546 H -11" /><circle class="sym" cx="0" cy="0" r="3" /><text class="lab rgt" transform="translate(3 -7.0)">13</text></g><path class="edge" d="M 0 0 V -5.434 H 16.5" /><circle class="sym" cx="0" cy="0" r="3" /><text class="lab lft" transform="translate(-3 -7.0)">14</text></g><path class="edge" d="M 0 0 V -0.329964 H -21.0833" /><circle class="sym" cx="0" cy="0" r="3" /><text class="lab rgt" transform="translate(3 -7.0)">15</text></g><g class="a16 c1 node n11 p0" transform="translate(-21.0833 8.9853)"><g class="a11 leaf node n1 p0 sample" transform="translate(0.0 1.23973)"><path class="edge" d="M 0 0 V -1.23973 H 0.0" /><rect class="sym" height="6" width="6" x="-3" y="-3" /><text class="lab" transform="translate(0 11)">1</text></g><path class="edge" d="M 0 0 V -8.9853 H 21.0833" /><circle class="sym" cx="0" cy="0" r="3" /><text class="lab lft" transform="translate(-3 -7.0)">11</text></g><path class="edge" d="M 0 0 V -9.71499 H 26.125" /><circle class="sym" cx="0" cy="0" r="3" /><text class="lab lft" transform="translate(-3 -7.0)">16</text></g><path class="edge" d="M 0 0 V -29.6755 H 24.0625" /><circle class="sym" cx="0" cy="0" r="3" /><text class="lab lft" transform="translate(-3 -7.0)">17</text></g><g class="a22 c2 node n20 p0" transform="translate(24.0625 16.2347)"><g class="a20 leaf node n3 p0 sample" transform="translate(-7.33333 33.3809)"><path class="edge" d="M 0 0 V -33.3809 H 7.33333" /><rect class="sym" height="6" width="6" x="-3" y="-3" /><text class="lab" transform="translate(0 11)">3</text></g><g class="a20 c1 node n12 p0" transform="translate(7.33333 31.0762)"><g class="a12 leaf node n4 p0 sample" transform="translate(0.0 2.30471)"><path class="edge" d="M 0 0 V -2.30471 H 0.0" /><rect class="sym" height="6" width="6" x="-3" y="-3" /><text class="lab" transform="translate(0 11)">4</text></g><path class="edge" d="M 0 0 V -31.0762 H -7.33333" /><circle class="sym" cx="0" cy="0" r="3" /><text class="lab rgt" transform="translate(3 -7.0)">12</text></g><path class="edge" d="M 0 0 V -16.2347 H -24.0625" /><circle class="sym" cx="0" cy="0" r="3" /><text class="lab rgt" transform="translate(3 -7.0)">20</text></g><path class="edge" d="M 0 0 V -44.9845 H -46.6354" /><circle class="sym" cx="0" cy="0" r="3" /><text class="lab rgt" transform="translate(3 -7.0)">22</text></g><g class="a24 c1 node n23 p0" transform="translate(-46.6354 13.2946)"><g class="a23 c2 node n21 p0" transform="translate(0.0 35.9755)"><g class="a21 leaf node n7 p0 sample" transform="translate(7.33333 45.3299)"><path class="edge" d="M 0 0 V -45.3299 H -7.33333" /><rect class="sym" height="6" width="6" x="-3" y="-3" /><text class="lab" transform="translate(0 11)">7</text></g><g class="a21 c1 node n19 p0" transform="translate(-7.33333 12.0509)"><g class="a19 leaf node n0 p0 sample" transform="translate(0.0 33.279)"><path class="edge" d="M 0 0 V -33.279 H 0.0" /><rect class="sym" height="6" width="6" x="-3" y="-3" /><text class="lab" transform="translate(0 11)">0</text></g><path class="edge" d="M 0 0 V -12.0509 H 7.33333" /><circle class="sym" cx="0" cy="0" r="3" /><text class="lab lft" transform="translate(-3 -7.0)">19</text></g><path class="edge" d="M 0 0 V -35.9755 H 0.0" /><circle class="sym" cx="0" cy="0" r="3" /><text class="lab lft" transform="translate(-3 -7.0)">21</text></g><path class="edge" d="M 0 0 V -13.2946 H 46.6354" /><circle class="sym" cx="0" cy="0" r="3" /><text class="lab lft" transform="translate(-3 -7.0)">23</text></g><circle class="sym" cx="0" cy="0" r="3" /><text class="lab" transform="translate(0 -11)">24</text></g></g></g></g></g></svg>
