<svg baseProfile="full" height="200" version="1.1" width="800" xmlns="http://www.w3.org/2000/svg" xmlns:ev="http://www.w3.org/2001/xml-events" xmlns:xlink="http://www.w3.org/1999/xlink"><defs><style type="text/css"><![CDATA[.background path {fill: #808080; fill-opacity: 0}.background path:nth-child(odd) {fill-opacity: .1}.axes {font-size: 14px}.x-axis .tick .lab {font-weight: bold; dominant-baseline: hanging}.axes, .tree {font-size: 14px; text-anchor: middle}.axes line, .edge {stroke: black; fill: none}.y-axis .grid {stroke: #FAFAFA}.node > .sym {fill: black; stroke: none}.site > .sym {stroke: black}.mut text {fill: red; font-style: italic}.mut.extra text {fill: hotpink}.mut line {fill: none; stroke: none}.mut .sym {fill: none; stroke: red}.mut.extra .sym {stroke: hotpink}.node .mut .sym {stroke-width: 1.5px}.tree text, .tree-sequence text {dominant-baseline: central}.plotbox .lab.lft {text-anchor: end}.plotbox .lab.rgt {text-anchor: start}]]></style></defs><g class="tree-sequence"><g class="background"><path d="M20,0 l190,0 l0,138.2 l498.371,25 l0,5 l-688.371,0 l0,-5 l0,-25 l0,-138.2z" /><path d="M210,0 l190,0 l0,138.2 l349.003,25 l0,5 l-40.6316,0 l0,-5 l-498.371,-25 l0,-138.2z" /><path d="M400,0 l190,0 l0,138.2 l167.391,25 l0,5 l-8.38776,0 l0,-5 l-349.003,-25 l0,-138.2z" /><path d="M590,0 l190,0 l0,138.2 l0,25 l0,5 l-22.6094,0 l0,-5 l-167.391,-25 l0,-138.2z" /></g><g class="axes"><g class="x-axis"><g transform="translate(400 200)"><text class="lab" text-anchor="middle" transform="translate(0 -11)">Genome position</text></g><line x1="20" x2="780" y1="163.2" y2="163.2" /><g class="ticks"><g class="tick" transform="translate(20 163.2)"><line x1="0" x2="0" y1="0" y2="5" /><g transform="translate(0 6)"><text class="lab">0.00</text></g></g><g class="tick" transform="translate(708.371 163.2)"><line x1="0" x2="0" y1="0" y2="5" /><g transform="translate(0 6)"><text class="lab">905.75</text></g></g><g class="tick" transform="translate(749.003 163.2)"><line x1="0" x2="0" y1="0" y2="5" /><g transform="translate(0 6)"><text class="lab">959.21</text></g></g><g class="tick" transform="translate(757.391 163.2)"><line x1="0" x2="0" y1="0" y2="5" /><g transform="translate(0 6)"><text class="lab">970.25</text></g></g><g class="tick" transform="translate(780 163.2)"><line x1="0" x2="0" y1="0" y2="5" /><g transform="translate(0 6)"><text class="lab">1000.00</text></g></g></g></g></g><g class="plotbox trees"><g class="tree t0" transform="translate(20 0)"><g class="plotbox"><g class="c2 node n27 p0 root" transform="translate(119.609 26.8)"><g class="a27 c1 node n24 p0" transform="translate(42.8906 70.5923)"><g class="a24 c1 node n15 p0" transform="translate(0.0 18.2071)"><g class="a15 leaf node n5 p0 sample" transform="translate(0.0 5.80057)"><path class="edge" d="M 0 0 V -5.80057 H 0.0" /><rect class="sym" height="6" width="6" x="-3" y="-3" /><text class="lab" transform="translate(0 11)">5</text></g><path class="edge" d="M 0 0 V -18.2071 H 0.0" /><circle class="sym" cx="0" cy="0" r="3" /><text class="lab lft" transform="translate(-3 -7.0)">15</text></g><path class="edge" d="M 0 0 V -70.5923 H -42.8906" /><circle class="sym" cx="0" cy="0" r="3" /><text class="lab rgt" transform="translate(3 -7.0)">24</text></g><g class="a27 c1 node n26 p0" transform="translate(-42.8906 9.60786)"><g class="a26 c2 node n25 p0" transform="translate(0.0 49.1367)"><g class="a25 c2 node n16 p0" transform="translate(-37.9688 28.7756)"><g class="a16 leaf node n0 p0 sample" transform="translate(-11.25 7.0798)"><path class="edge" d="M 0 0 V -7.0798 H 11.25" /><rect class="sym" height="6" width="6" x="-3" y="-3" /><text class="lab" transform="translate(0 11)">0</text></g><g class="a16 c2 node n12 p0" transform="translate(11.25 4.70745)"><g class="a12 leaf node n1 p0 sample" transform="translate(-7.5 2.37235)"><path class="edge" d="M 0 0 V -2.37235 H 7.5" /><rect class="sym" height="6" width="6" x="-3" y="-3" /><text class="lab" transform="translate(0 11)">1</text></g><g class="a12 leaf node n3 p0 sample" transform="translate(7.5 2.37235)"><path class="edge" d="M 0 0 V -2.37235 H -7.5" /><rect class="sym" height="6" width="6" x="-3" y="-3" /><text class="lab" transform="translate(0 11)">3</text></g><path class="edge" d="M 0 0 V -4.70745 H -11.25" /><circle class="sym" cx="0" cy="0" r="3" /><text class="lab rgt" transform="translate(3 -7.0)">12</text></g><path class="edge" d="M 0 0 V -28.7756 H 37.9688" /><circle class="sym" cx="0" cy="0" r="3" /><text class="lab lft" transform="translate(-3 -7.0)">16</text></g><g class="a25 c2 node n21 p0" transform="translate(37.9688 16.4352)"><g class="a21 c2 node n18 p0" transform="translate(-25.3125 3.16452)"><g class="a18 leaf node n2 p0 sample" transform="translate(-16.875 16.2557)"><path class="edge" d="M 0 0 V -16.2557 H 16.875" /><rect class="sym" height="6" width="6" x="-3" y="-3" /><text class="lab" transform="translate(0 11)">2</text></g><g class="a18 c2 node n17 p0" transform="translate(16.875 1.73906)"><g class="a17 c2 node n10 p0" transform="translate(-11.25 13.9555)"><g class="a10 leaf node n4 p0 sample" transform="translate(-7.5 0.561193)"><path class="edge" d="M 0 0 V -0.561193 H 7.5" /><rect class="sym" height="6" width="6" x="-3" y="-3" /><text class="lab" transform="translate(0 11)">4</text></g><g class="a10 leaf node n7 p0 sample" transform="translate(7.5 0.561193)"><path class="edge" d="M 0 0 V -0.561193 H -7.5" /><rect class="sym" height="6" width="6" x="-3" y="-3" /><text class="lab" transform="translate(0 11)">7</text></g><path class="edge" d="M 0 0 V -13.9555 H 11.25" /><circle class="sym" cx="0" cy="0" r="3" /><text class="lab lft" transform="translate(-3 -7.0)">10</text></g><g class="a17 c1 node n13 p0" transform="translate(11.25 11.6327)"><g class="a13 leaf node n8 p0 sample" transform="translate(0.0 2.88394)"><path class="edge" d="M 0 0 V -2.88394 H 0.0" /><rect class="sym" height="6" width="6" x="-3" y="-3" /><text class="lab" transform="translate(0 11)">8</text></g><path class="edge" d="M 0 0 V -11.6327 H -11.25" /><circle class="sym" cx="0" cy="0" r="3" /><text class="lab rgt" transform="translate(3 -7.0)">13</text></g><path class="edge" d="M 0 0 V -1.73906 H -16.875" /><circle class="sym" cx="0" cy="0" r="3" /><text class="lab rgt" transform="translate(3 -7.0)">17</text></g><path class="edge" d="M 0 0 V -3.16452 H 25.3125" /><circle class="sym" cx="0" cy="0" r="3" /><text class="lab lft" transform="translate(-3 -7.0)">18</text></g><g class="a21 c1 node n19 p0" transform="translate(25.3125 1.26189)"><g class="a19 c2 node n11 p0" transform="translate(0.0 16.0662)"><g class="a11 leaf node n6 p0 sample" transform="translate(-7.5 2.09217)"><path class="edge" d="M 0 0 V -2.09217 H 7.5" /><rect class="sym" height="6" width="6" x="-3" y="-3" /><text class="lab" transform="translate(0 11)">6</text></g><g class="a11 leaf node n9 p0 sample" transform="translate(7.5 2.09217)"><path class="edge" d="M 0 0 V -2.09217 H -7.5" /><rect class="sym" height="6" width="6" x="-3" y="-3" /><text class="lab" transform="translate(0 11)">9</text></g><path class="edge" d="M 0 0 V -16.0662 H 0.0" /><circle class="sym" cx="0" cy="0" r="3" /><text class="lab lft" transform="translate(-3 -7.0)">11</text></g><path class="edge" d="M 0 0 V -1.26189 H -25.3125" /><circle class="sym" cx="0" cy="0" r="3" /><text class="lab rgt" transform="translate(3 -7.0)">19</text></g><path class="edge" d="M 0 0 V -16.4352 H -37.9688" /><circle class="sym" cx="0" cy="0" r="3" /><text class="lab rgt" transform="translate(3 -7.0)">21</text></g><path class="edge" d="M 0 0 V -49.1367 H 0.0" /><circle class="sym" cx="0" cy="0" r="3" /><text class="lab lft" transform="translate(-3 -7.0)">25</text></g><path class="edge" d="M 0 0 V -9.60786 H 42.8906" /><circle class="sym" cx="0" cy="0" r="3" /><text class="lab lft" transform="translate(-3 -7.0)">26</text></g><circle class="sym" cx="0" cy="0" r="3" /><text class="lab" transform="translate(0 -11)">27</text></g></g></g><g class="tree t1" transform="translate(210 0)"><g class="plotbox"><g class="c2 node n27 p0 root" transform="translate(103.906 26.8)"><g class="a27 c2 node n24 p0" transform="translate(39.8438 70.5923)"><g class="a24 c1 node n15 p0" transform="translate(-11.25 18.2071)"><g class="a15 leaf node n5 p0 sample" transform="translate(0.0 5.80057)"><path class="edge" d="M 0 0 V -5.80057 H 0.0" /><rect class="sym" height="6" width="6" x="-3" y="-3" /><text class="lab" transform="translate(0 11)">5</text></g><path class="edge" d="M 0 0 V -18.2071 H 11.25" /><circle class="sym" cx="0" cy="0" r="3" /><text class="lab lft" transform="translate(-3 -7.0)">15</text></g><g class="a24 c1 node n22 p0" transform="translate(11.25 1.36885)"><g class="a22 c1 node n20 p0" transform="translate(0.0 4.48047)"><g class="a20 c2 node n11 p0" transform="translate(0.0 16.0662)"><g class="a11 leaf node n6 p0 sample" transform="translate(-7.5 2.09217)"><path class="edge" d="M 0 0 V -2.09217 H 7.5" /><rect class="sym" height="6" width="6" x="-3" y="-3" /><text class="lab" transform="translate(0 11)">6</text></g><g class="a11 leaf node n9 p0 sample" transform="translate(7.5 2.09217)"><path class="edge" d="M 0 0 V -2.09217 H -7.5" /><rect class="sym" height="6" width="6" x="-3" y="-3" /><text class="lab" transform="translate(0 11)">9</text></g><path class="edge" d="M 0 0 V -16.0662 H 0.0" /><circle class="sym" cx="0" cy="0" r="3" /><text class="lab lft" transform="translate(-3 -7.0)">11</text></g><path class="edge" d="M 0 0 V -4.48047 H 0.0" /><circle class="sym" cx="0" cy="0" r="3" /><text class="lab lft" transform="translate(-3 -7.0)">20</text></g><path class="edge" d="M 0 0 V -1.36885 H -11.25" /><circle class="sym" cx="0" cy="0" r="3" /><text class="lab rgt" transform="translate(3 -7.0)">22</text></g><path class="edge" d="M 0 0 V -70.5923 H -39.8438" /><circle class="sym" cx="0" cy="0" r="3" /><text class="lab rgt" transform="translate(3 -7.0)">24</text></g><g class="a27 c1 node n26 p0" transform="translate(-39.8438 9.60786)"><g class="a26 c2 node n25 p0" transform="translate(0.0 49.1367)"><g class="a25 c2 node n16 p0" transform="translate(-25.3125 28.7756)"><g class="a16 leaf node n0 p0 sample" transform="translate(-11.25 7.0798)"><path class="edge" d="M 0 0 V -7.0798 H 11.25" /><rect class="sym" height="6" width="6" x="-3" y="-3" /><text class="lab" transform="translate(0 11)">0</text></g><g class="a16 c2 node n12 p0" transform="translate(11.25 4.70745)"><g class="a12 leaf node n1 p0 sample" transform="translate(-7.5 2.37235)"><path class="edge" d="M 0 0 V -2.37235 H 7.5" /><rect class="sym" height="6" width="6" x="-3" y="-3" /><text class="lab" transform="translate(0 11)">1</text></g><g class="a12 leaf node n3 p0 sample" transform="translate(7.5 2.37235)"><path class="edge" d="M 0 0 V -2.37235 H -7.5" /><rect class="sym" height="6" width="6" x="-3" y="-3" /><text class="lab" transform="translate(0 11)">3</text></g><path class="edge" d="M 0 0 V -4.70745 H -11.25" /><circle class="sym" cx="0" cy="0" r="3" /><text class="lab rgt" transform="translate(3 -7.0)">12</text></g><path class="edge" d="M 0 0 V -28.7756 H 25.3125" /><circle class="sym" cx="0" cy="0" r="3" /><text class="lab lft" transform="translate(-3 -7.0)">16</text></g><g class="a25 c1 node n21 p0" transform="translate(25.3125 16.4352)"><g class="a21 c2 node n18 p0" transform="translate(0.0 3.16452)"><g class="a18 leaf node n2 p0 sample" transform="translate(-16.875 16.2557)"><path class="edge" d="M 0 0 V -16.2557 H 16.875" /><rect class="sym" height="6" width="6" x="-3" y="-3" /><text class="lab" transform="translate(0 11)">2</text></g><g class="a18 c2 node n17 p0" transform="translate(16.875 1.73906)"><g class="a17 c2 node n10 p0" transform="translate(-11.25 13.9555)"><g class="a10 leaf node n4 p0 sample" transform="translate(-7.5 0.561193)"><path class="edge" d="M 0 0 V -0.561193 H 7.5" /><rect class="sym" height="6" width="6" x="-3" y="-3" /><text class="lab" transform="translate(0 11)">4</text></g><g class="a10 leaf node n7 p0 sample" transform="translate(7.5 0.561193)"><path class="edge" d="M 0 0 V -0.561193 H -7.5" /><rect class="sym" height="6" width="6" x="-3" y="-3" /><text class="lab" transform="translate(0 11)">7</text></g><path class="edge" d="M 0 0 V -13.9555 H 11.25" /><circle class="sym" cx="0" cy="0" r="3" /><text class="lab lft" transform="translate(-3 -7.0)">10</text></g><g class="a17 c1 node n13 p0" transform="translate(11.25 11.6327)"><g class="a13 leaf node n8 p0 sample" transform="translate(0.0 2.88394)"><path class="edge" d="M 0 0 V -2.88394 H 0.0" /><rect class="sym" height="6" width="6" x="-3" y="-3" /><text class="lab" transform="translate(0 11)">8</text></g><path class="edge" d="M 0 0 V -11.6327 H -11.25" /><circle class="sym" cx="0" cy="0" r="3" /><text class="lab rgt" transform="translate(3 -7.0)">13</text></g><path class="edge" d="M 0 0 V -1.73906 H -16.875" /><circle class="sym" cx="0" cy="0" r="3" /><text class="lab rgt" transform="translate(3 -7.0)">17</text></g><path class="edge" d="M 0 0 V -3.16452 H 0.0" /><circle class="sym" cx="0" cy="0" r="3" /><text class="lab lft" transform="translate(-3 -7.0)">18</text></g><path class="edge" d="M 0 0 V -16.4352 H -25.3125" /><circle class="sym" cx="0" cy="0" r="3" /><text class="lab rgt" transform="translate(3 -7.0)">21</text></g><path class="edge" d="M 0 0 V -49.1367 H 0.0" /><circle class="sym" cx="0" cy="0" r="3" /><text class="lab lft" transform="translate(-3 -7.0)">25</text></g><path class="edge" d="M 0 0 V -9.60786 H 39.8438" /><circle class="sym" cx="0" cy="0" r="3" /><text class="lab lft" transform="translate(-3 -7.0)">26</text></g><circle class="sym" cx="0" cy="0" r="3" /><text class="lab" transform="translate(0 -11)">27</text></g></g></g><g class="tree t2" transform="translate(400 0)"><g class="plotbox"><g class="c2 node n27 p0 root" transform="translate(132.266 26.8)"><g class="a27 c1 node n24 p0" transform="translate(30.2344 70.5923)"><g class="a24 c1 node n15 p0" transform="translate(0.0 18.2071)"><g class="a15 leaf node n5 p0 sample" transform="translate(0.0 5.80057)"><path class="edge" d="M 0 0 V -5.80057 H 0.0" /><rect class="sym" height="6" width="6" x="-3" y="-3" /><text class="lab" transform="translate(0 11)">5</text></g><path class="edge" d="M 0 0 V -18.2071 H 0.0" /><circle class="sym" cx="0" cy="0" r="3" /><text class="lab lft" transform="translate(-3 -7.0)">15</text></g><path class="edge" d="M 0 0 V -70.5923 H -30.2344" /><circle class="sym" cx="0" cy="0" r="3" /><text class="lab rgt" transform="translate(3 -7.0)">24</text></g><g class="a27 c2 node n26 p0" transform="translate(-30.2344 9.60786)"><g class="a26 c2 node n25 p0" transform="translate(-37.9688 49.1367)"><g class="a25 c2 node n16 p0" transform="translate(-25.3125 28.7756)"><g class="a16 leaf node n0 p0 sample" transform="translate(-11.25 7.0798)"><path class="edge" d="M 0 0 V -7.0798 H 11.25" /><rect class="sym" height="6" width="6" x="-3" y="-3" /><text class="lab" transform="translate(0 11)">0</text></g><g class="a16 c2 node n12 p0" transform="translate(11.25 4.70745)"><g class="a12 leaf node n1 p0 sample" transform="translate(-7.5 2.37235)"><path class="edge" d="M 0 0 V -2.37235 H 7.5" /><rect class="sym" height="6" width="6" x="-3" y="-3" /><text class="lab" transform="translate(0 11)">1</text></g><g class="a12 leaf node n3 p0 sample" transform="translate(7.5 2.37235)"><path class="edge" d="M 0 0 V -2.37235 H -7.5" /><rect class="sym" height="6" width="6" x="-3" y="-3" /><text class="lab" transform="translate(0 11)">3</text></g><path class="edge" d="M 0 0 V -4.70745 H -11.25" /><circle class="sym" cx="0" cy="0" r="3" /><text class="lab rgt" transform="translate(3 -7.0)">12</text></g><path class="edge" d="M 0 0 V -28.7756 H 25.3125" /><circle class="sym" cx="0" cy="0" r="3" /><text class="lab lft" transform="translate(-3 -7.0)">16</text></g><g class="a25 c1 node n21 p0" transform="translate(25.3125 16.4352)"><g class="a21 c2 node n18 p0" transform="translate(0.0 3.16452)"><g class="a18 leaf node n2 p0 sample" transform="translate(-16.875 16.2557)"><path class="edge" d="M 0 0 V -16.2557 H 16.875" /><rect class="sym" height="6" width="6" x="-3" y="-3" /><text class="lab" transform="translate(0 11)">2</text></g><g class="a18 c2 node n17 p0" transform="translate(16.875 1.73906)"><g class="a17 c2 node n10 p0" transform="translate(-11.25 13.9555)"><g class="a10 leaf node n4 p0 sample" transform="translate(-7.5 0.561193)"><path class="edge" d="M 0 0 V -0.561193 H 7.5" /><rect class="sym" height="6" width="6" x="-3" y="-3" /><text class="lab" transform="translate(0 11)">4</text></g><g class="a10 leaf node n7 p0 sample" transform="translate(7.5 0.561193)"><path class="edge" d="M 0 0 V -0.561193 H -7.5" /><rect class="sym" height="6" width="6" x="-3" y="-3" /><text class="lab" transform="translate(0 11)">7</text></g><path class="edge" d="M 0 0 V -13.9555 H 11.25" /><circle class="sym" cx="0" cy="0" r="3" /><text class="lab lft" transform="translate(-3 -7.0)">10</text></g><g class="a17 c1 node n13 p0" transform="translate(11.25 11.6327)"><g class="a13 leaf node n8 p0 sample" transform="translate(0.0 2.88394)"><path class="edge" d="M 0 0 V -2.88394 H 0.0" /><rect class="sym" height="6" width="6" x="-3" y="-3" /><text class="lab" transform="translate(0 11)">8</text></g><path class="edge" d="M 0 0 V -11.6327 H -11.25" /><circle class="sym" cx="0" cy="0" r="3" /><text class="lab rgt" transform="translate(3 -7.0)">13</text></g><path class="edge" d="M 0 0 V -1.73906 H -16.875" /><circle class="sym" cx="0" cy="0" r="3" /><text class="lab rgt" transform="translate(3 -7.0)">17</text></g><path class="edge" d="M 0 0 V -3.16452 H 0.0" /><circle class="sym" cx="0" cy="0" r="3" /><text class="lab lft" transform="translate(-3 -7.0)">18</text></g><path class="edge" d="M 0 0 V -16.4352 H -25.3125" /><circle class="sym" cx="0" cy="0" r="3" /><text class="lab rgt" transform="translate(3 -7.0)">21</text></g><path class="edge" d="M 0 0 V -49.1367 H 37.9688" /><circle class="sym" cx="0" cy="0" r="3" /><text class="lab lft" transform="translate(-3 -7.0)">25</text></g><g class="a26 c1 node n23 p0" transform="translate(37.9688 62.3533)"><g class="a23 c1 node n20 p0" transform="translate(0.0 4.48047)"><g class="a20 c2 node n11 p0" transform="translate(0.0 16.0662)"><g class="a11 leaf node n6 p0 sample" transform="translate(-7.5 2.09217)"><path class="edge" d="M 0 0 V -2.09217 H 7.5" /><rect class="sym" height="6" width="6" x="-3" y="-3" /><text class="lab" transform="translate(0 11)">6</text></g><g class="a11 leaf node n9 p0 sample" transform="translate(7.5 2.09217)"><path class="edge" d="M 0 0 V -2.09217 H -7.5" /><rect class="sym" height="6" width="6" x="-3" y="-3" /><text class="lab" transform="translate(0 11)">9</text></g><path class="edge" d="M 0 0 V -16.0662 H 0.0" /><circle class="sym" cx="0" cy="0" r="3" /><text class="lab lft" transform="translate(-3 -7.0)">11</text></g><path class="edge" d="M 0 0 V -4.48047 H 0.0" /><circle class="sym" cx="0" cy="0" r="3" /><text class="lab lft" transform="translate(-3 -7.0)">20</text></g><path class="edge" d="M 0 0 V -62.3533 H -37.9688" /><circle class="sym" cx="0" cy="0" r="3" /><text class="lab rgt" transform="translate(3 -7.0)">23</text></g><path class="edge" d="M 0 0 V -9.60786 H 30.2344" /><circle class="sym" cx="0" cy="0" r="3" /><text class="lab lft" transform="translate(-3 -7.0)">26</text></g><circle class="sym" cx="0" cy="0" r="3" /><text class="lab" transform="translate(0 -11)">27</text></g></g></g><g class="tree t3" transform="translate(590 0)"><g class="plotbox"><g class="c2 node n27 p0 root" transform="translate(124.062 26.8)"><g class="a27 c1 node n24 p0" transform="translate(30.9375 70.5923)"><g class="a24 c2 node n15 p0" transform="translate(0.0 18.2071)"><g class="a15 leaf node n5 p0 sample" transform="translate(-7.5 5.80057)"><path class="edge" d="M 0 0 V -5.80057 H 7.5" /><rect class="sym" height="6" width="6" x="-3" y="-3" /><text class="lab" transform="translate(0 11)">5</text></g><g class="a15 c1 node n14 p0" transform="translate(7.5 2.91663)"><g class="a14 leaf node n8 p0 sample" transform="translate(0.0 2.88394)"><path class="edge" d="M 0 0 V -2.88394 H 0.0" /><rect class="sym" height="6" width="6" x="-3" y="-3" /><text class="lab" transform="translate(0 11)">8</text></g><path class="edge" d="M 0 0 V -2.91663 H -7.5" /><circle class="sym" cx="0" cy="0" r="3" /><text class="lab rgt" transform="translate(3 -7.0)">14</text></g><path class="edge" d="M 0 0 V -18.2071 H 0.0" /><circle class="sym" cx="0" cy="0" r="3" /><text class="lab lft" transform="translate(-3 -7.0)">15</text></g><path class="edge" d="M 0 0 V -70.5923 H -30.9375" /><circle class="sym" cx="0" cy="0" r="3" /><text class="lab rgt" transform="translate(3 -7.0)">24</text></g><g class="a27 c2 node n26 p0" transform="translate(-30.9375 9.60786)"><g class="a26 c2 node n25 p0" transform="translate(-31.875 49.1367)"><g class="a25 c2 node n16 p0" transform="translate(-22.5 28.7756)"><g class="a16 leaf node n0 p0 sample" transform="translate(-11.25 7.0798)"><path class="edge" d="M 0 0 V -7.0798 H 11.25" /><rect class="sym" height="6" width="6" x="-3" y="-3" /><text class="lab" transform="translate(0 11)">0</text></g><g class="a16 c2 node n12 p0" transform="translate(11.25 4.70745)"><g class="a12 leaf node n1 p0 sample" transform="translate(-7.5 2.37235)"><path class="edge" d="M 0 0 V -2.37235 H 7.5" /><rect class="sym" height="6" width="6" x="-3" y="-3" /><text class="lab" transform="translate(0 11)">1</text></g><g class="a12 leaf node n3 p0 sample" transform="translate(7.5 2.37235)"><path class="edge" d="M 0 0 V -2.37235 H -7.5" /><rect class="sym" height="6" width="6" x="-3" y="-3" /><text class="lab" transform="translate(0 11)">3</text></g><path class="edge" d="M 0 0 V -4.70745 H -11.25" /><circle class="sym" cx="0" cy="0" r="3" /><text class="lab rgt" transform="translate(3 -7.0)">12</text></g><path class="edge" d="M 0 0 V -28.7756 H 22.5" /><circle class="sym" cx="0" cy="0" r="3" /><text class="lab lft" transform="translate(-3 -7.0)">16</text></g><g class="a25 c1 node n21 p0" transform="translate(22.5 16.4352)"><g class="a21 c2 node n18 p0" transform="translate(0.0 3.16452)"><g class="a18 leaf node n2 p0 sample" transform="translate(-11.25 16.2557)"><path class="edge" d="M 0 0 V -16.2557 H 11.25" /><rect class="sym" height="6" width="6" x="-3" y="-3" /><text class="lab" transform="translate(0 11)">2</text></g><g class="a18 c1 node n17 p0" transform="translate(11.25 1.73906)"><g class="a17 c2 node n10 p0" transform="translate(0.0 13.9555)"><g class="a10 leaf node n4 p0 sample" transform="translate(-7.5 0.561193)"><path class="edge" d="M 0 0 V -0.561193 H 7.5" /><rect class="sym" height="6" width="6" x="-3" y="-3" /><text class="lab" transform="translate(0 11)">4</text></g><g class="a10 leaf node n7 p0 sample" transform="translate(7.5 0.561193)"><path class="edge" d="M 0 0 V -0.561193 H -7.5" /><rect class="sym" height="6" width="6" x="-3" y="-3" /><text class="lab" transform="translate(0 11)">7</text></g><path class="edge" d="M 0 0 V -13.9555 H 0.0" /><circle class="sym" cx="0" cy="0" r="3" /><text class="lab lft" transform="translate(-3 -7.0)">10</text></g><path class="edge" d="M 0 0 V -1.73906 H -11.25" /><circle class="sym" cx="0" cy="0" r="3" /><text class="lab rgt" transform="translate(3 -7.0)">17</text></g><path class="edge" d="M 0 0 V -3.16452 H 0.0" /><circle class="sym" cx="0" cy="0" r="3" /><text class="lab lft" transform="translate(-3 -7.0)">18</text></g><path class="edge" d="M 0 0 V -16.4352 H -22.5" /><circle class="sym" cx="0" cy="0" r="3" /><text class="lab rgt" transform="translate(3 -7.0)">21</text></g><path class="edge" d="M 0 0 V -49.1367 H 31.875" /><circle class="sym" cx="0" cy="0" r="3" /><text class="lab lft" transform="translate(-3 -7.0)">25</text></g><g class="a26 c1 node n23 p0" transform="translate(31.875 62.3533)"><g class="a23 c1 node n20 p0" transform="translate(0.0 4.48047)"><g class="a20 c2 node n11 p0" transform="translate(0.0 16.0662)"><g class="a11 leaf node n6 p0 sample" transform="translate(-7.5 2.09217)"><path class="edge" d="M 0 0 V -2.09217 H 7.5" /><rect class="sym" height="6" width="6" x="-3" y="-3" /><text class="lab" transform="translate(0 11)">6</text></g><g class="a11 leaf node n9 p0 sample" transform="translate(7.5 2.09217)"><path class="edge" d="M 0 0 V -2.09217 H -7.5" /><rect class="sym" height="6" width="6" x="-3" y="-3" /><text class="lab" transform="translate(0 11)">9</text></g><path class="edge" d="M 0 0 V -16.0662 H 0.0" /><circle class="sym" cx="0" cy="0" r="3" /><text class="lab lft" transform="translate(-3 -7.0)">11</text></g><path class="edge" d="M 0 0 V -4.48047 H 0.0" /><circle class="sym" cx="0" cy="0" r="3" /><text class="lab lft" transform="translate(-3 -7.0)">20</text></g><path class="edge" d="M 0 0 V -62.3533 H -31.875" /><circle class="sym" cx="0" cy="0" r="3" /><text class="lab rgt" transform="translate(3 -7.0)">23</text></g><path class="edge" d="M 0 0 V -9.60786 H 30.9375" /><circle class="sym" cx="0" cy="0" r="3" /><text class="lab lft" transform="translate(-3 -7.0)">26</text></g><circle class="sym" cx="0" cy="0" r="3" /><text class="lab" transform="translate(0 -11)">27</text></g></g></g></g></g></svg>
