<svg baseProfile="full" height="200" version="1.1" width="600" xmlns="http://www.w3.org/2000/svg" xmlns:ev="http://www.w3.org/2001/xml-events" xmlns:xlink="http://www.w3.org/1999/xlink"><defs><style type="text/css"><![CDATA[.background path {fill: #808080; fill-opacity: 0}.background path:nth-child(odd) {fill-opacity: .1}.axes {font-size: 14px}.x-axis .tick .lab {font-weight: bold; dominant-baseline: hanging}.axes, .tree {font-size: 14px; text-anchor: middle}.axes line, .edge {stroke: black; fill: none}.y-axis .grid {stroke: #FAFAFA}.node > .sym {fill: black; stroke: none}.site > .sym {stroke: black}.mut text {fill: red; font-style: italic}.mut.extra text {fill: hotpink}.mut line {fill: none; stroke: none}.mut .sym {fill: none; stroke: red}.mut.extra .sym {stroke: hotpink}.node .mut .sym {stroke-width: 1.5px}.tree text, .tree-sequence text {dominant-baseline: central}.plotbox .lab.lft {text-anchor: end}.plotbox .lab.rgt {text-anchor: start}]]></style></defs><g class="tree-sequence"><g class="background"><path d="M20,0 l186.667,0 l0,138.2 l79.9589,25 l0,5 l-266.626,0 l0,-5 l0,-25 l0,-138.2z" /><path d="M206.667,0 l186.667,0 l0,138.2 l48.9831,25 l0,5 l-155.691,0 l0,-5 l-79.9589,-25 l0,-138.2z" /><path d="M393.333,0 l186.667,0 l0,138.2 l0,25 l0,5 l-137.684,0 l0,-5 l-48.9831,-25 l0,-138.2z" /></g><g class="axes"><g class="x-axis"><g transform="translate(300 200)"><text class="lab" text-anchor="middle" transform="translate(0 -11)">Genome position</text></g><line x1="20" x2="580" y1="163.2" y2="163.2" /><g class="ticks"><g class="tick" transform="translate(20 163.2)"><line x1="0" x2="0" y1="0" y2="5" /><g transform="translate(0 6)"><text class="lab">0.00</text></g></g><g class="tick" transform="translate(286.626 163.2)"><line x1="0" x2="0" y1="0" y2="5" /><g transform="translate(0 6)"><text class="lab">476.12</text></g></g><g class="tick" transform="translate(442.316 163.2)"><line x1="0" x2="0" y1="0" y2="5" /><g transform="translate(0 6)"><text class="lab">754.14</text></g></g><g class="tick" transform="translate(580 163.2)"><line x1="0" x2="0" y1="0" y2="5" /><g transform="translate(0 6)"><text class="lab">1000.00</text></g></g></g></g></g><g class="plotbox trees"><g class="tree t0" transform="translate(20 0)"><g class="plotbox"><g class="c2 node n24 p0 root" transform="translate(123.125 26.8)"><g class="a24 leaf node n7 p0 sample" transform="translate(36.2083 94.6)"><path class="edge" d="M 0 0 V -94.6 H -36.2083" /><rect class="sym" height="6" width="6" x="-3" y="-3" /><text class="lab" transform="translate(0 11)">7</text></g><g class="a24 c2 node n23 p0" transform="translate(-36.2083 31.6503)"><g class="a23 c2 node n20 p0" transform="translate(35.75 39.3647)"><g class="a20 c1 node n17 p0" transform="translate(-14.6667 6.9063)"><g class="a17 c1 node n15 p0" transform="translate(0.0 8.85168)"><g class="a15 c2 node n14 p0" transform="translate(0.0 2.22862)"><g class="a14 leaf node n3 p0 sample" transform="translate(-7.33333 5.5984)"><path class="edge" d="M 0 0 V -5.5984 H 7.33333" /><rect class="sym" height="6" width="6" x="-3" y="-3" /><text class="lab" transform="translate(0 11)">3</text></g><g class="a14 leaf node n4 p0 sample" transform="translate(7.33333 5.5984)"><path class="edge" d="M 0 0 V -5.5984 H -7.33333" /><rect class="sym" height="6" width="6" x="-3" y="-3" /><text class="lab" transform="translate(0 11)">4</text></g><path class="edge" d="M 0 0 V -2.22862 H 0.0" /><circle class="sym" cx="0" cy="0" r="3" /><text class="lab lft" transform="translate(-3 -7.0)">14</text></g><path class="edge" d="M 0 0 V -8.85168 H 0.0" /><circle class="sym" cx="0" cy="0" r="3" /><text class="lab lft" transform="translate(-3 -7.0)">15</text></g><path class="edge" d="M 0 0 V -6.9063 H 14.6667" /><circle class="sym" cx="0" cy="0" r="3" /><text class="lab lft" transform="translate(-3 -7.0)">17</text></g><g class="a20 c2 node n18 p0" transform="translate(14.6667 5.59765)"><g class="a18 leaf node n5 p0 sample" transform="translate(-7.33333 17.9873)"><path class="edge" d="M 0 0 V -17.9873 H 7.33333" /><rect class="sym" height="6" width="6" x="-3" y="-3" /><text class="lab" transform="translate(0 11)">5</text></g><g class="a18 leaf node n8 p0 sample" transform="translate(7.33333 17.9873)"><path class="edge" d="M 0 0 V -17.9873 H -7.33333" /><rect class="sym" height="6" width="6" x="-3" y="-3" /><text class="lab" transform="translate(0 11)">8</text></g><path class="edge" d="M 0 0 V -5.59765 H -14.6667" /><circle class="sym" cx="0" cy="0" r="3" /><text class="lab rgt" transform="translate(3 -7.0)">18</text></g><path class="edge" d="M 0 0 V -39.3647 H -35.75" /><circle class="sym" cx="0" cy="0" r="3" /><text class="lab rgt" transform="translate(3 -7.0)">20</text></g><g class="a23 c2 node n22 p0" transform="translate(-35.75 32.2739)"><g class="a22 c1 node n19 p0" transform="translate(-16.5 10.7164)"><g class="a19 c2 node n11 p0" transform="translate(0.0 16.3958)"><g class="a11 leaf node n0 p0 sample" transform="translate(-7.33333 3.56361)"><path class="edge" d="M 0 0 V -3.56361 H 7.33333" /><rect class="sym" height="6" width="6" x="-3" y="-3" /><text class="lab" transform="translate(0 11)">0</text></g><g class="a11 leaf node n9 p0 sample" transform="translate(7.33333 3.56361)"><path class="edge" d="M 0 0 V -3.56361 H -7.33333" /><rect class="sym" height="6" width="6" x="-3" y="-3" /><text class="lab" transform="translate(0 11)">9</text></g><path class="edge" d="M 0 0 V -16.3958 H 0.0" /><circle class="sym" cx="0" cy="0" r="3" /><text class="lab lft" transform="translate(-3 -7.0)">11</text></g><path class="edge" d="M 0 0 V -10.7164 H 16.5" /><circle class="sym" cx="0" cy="0" r="3" /><text class="lab lft" transform="translate(-3 -7.0)">19</text></g><g class="a22 c2 node n21 p0" transform="translate(16.5 5.40317)"><g class="a21 leaf node n1 p0 sample" transform="translate(-11 25.2726)"><path class="edge" d="M 0 0 V -25.2726 H 11" /><rect class="sym" height="6" width="6" x="-3" y="-3" /><text class="lab" transform="translate(0 11)">1</text></g><g class="a21 c1 node n12 p0" transform="translate(11 21.4986)"><g class="a12 c2 node n10 p0" transform="translate(0.0 1.9148)"><g class="a10 leaf node n2 p0 sample" transform="translate(-7.33333 1.85928)"><path class="edge" d="M 0 0 V -1.85928 H 7.33333" /><rect class="sym" height="6" width="6" x="-3" y="-3" /><text class="lab" transform="translate(0 11)">2</text></g><g class="a10 leaf node n6 p0 sample" transform="translate(7.33333 1.85928)"><path class="edge" d="M 0 0 V -1.85928 H -7.33333" /><rect class="sym" height="6" width="6" x="-3" y="-3" /><text class="lab" transform="translate(0 11)">6</text></g><path class="edge" d="M 0 0 V -1.9148 H 0.0" /><circle class="sym" cx="0" cy="0" r="3" /><text class="lab lft" transform="translate(-3 -7.0)">10</text></g><path class="edge" d="M 0 0 V -21.4986 H -11" /><circle class="sym" cx="0" cy="0" r="3" /><text class="lab rgt" transform="translate(3 -7.0)">12</text></g><path class="edge" d="M 0 0 V -5.40317 H -16.5" /><circle class="sym" cx="0" cy="0" r="3" /><text class="lab rgt" transform="translate(3 -7.0)">21</text></g><path class="edge" d="M 0 0 V -32.2739 H 35.75" /><circle class="sym" cx="0" cy="0" r="3" /><text class="lab lft" transform="translate(-3 -7.0)">22</text></g><path class="edge" d="M 0 0 V -31.6503 H 36.2083" /><circle class="sym" cx="0" cy="0" r="3" /><text class="lab lft" transform="translate(-3 -7.0)">23</text></g><circle class="sym" cx="0" cy="0" r="3" /><text class="lab" transform="translate(0 -11)">24</text></g></g></g><g class="tree t1" transform="translate(206.667 0)"><g class="plotbox"><g class="c2 node n24 p0 root" transform="translate(119.917 26.8)"><g class="a24 leaf node n7 p0 sample" transform="translate(39.4167 94.6)"><path class="edge" d="M 0 0 V -94.6 H -39.4167" /><rect class="sym" height="6" width="6" x="-3" y="-3" /><text class="lab" transform="translate(0 11)">7</text></g><g class="a24 c2 node n23 p0" transform="translate(-39.4167 31.6503)"><g class="a23 c2 node n20 p0" transform="translate(34.8333 39.3647)"><g class="a20 c2 node n17 p0" transform="translate(-22 6.9063)"><g class="a17 c1 node n15 p0" transform="translate(14.6667 8.85168)"><g class="a15 c2 node n14 p0" transform="translate(0.0 2.22862)"><g class="a14 leaf node n3 p0 sample" transform="translate(-7.33333 5.5984)"><path class="edge" d="M 0 0 V -5.5984 H 7.33333" /><rect class="sym" height="6" width="6" x="-3" y="-3" /><text class="lab" transform="translate(0 11)">3</text></g><g class="a14 leaf node n4 p0 sample" transform="translate(7.33333 5.5984)"><path class="edge" d="M 0 0 V -5.5984 H -7.33333" /><rect class="sym" height="6" width="6" x="-3" y="-3" /><text class="lab" transform="translate(0 11)">4</text></g><path class="edge" d="M 0 0 V -2.22862 H 0.0" /><circle class="sym" cx="0" cy="0" r="3" /><text class="lab lft" transform="translate(-3 -7.0)">14</text></g><path class="edge" d="M 0 0 V -8.85168 H -14.6667" /><circle class="sym" cx="0" cy="0" r="3" /><text class="lab rgt" transform="translate(3 -7.0)">15</text></g><g class="a17 c1 node n13 p0" transform="translate(-14.6667 12.9046)"><g class="a13 c2 node n10 p0" transform="translate(0.0 1.9148)"><g class="a10 leaf node n2 p0 sample" transform="translate(-7.33333 1.85928)"><path class="edge" d="M 0 0 V -1.85928 H 7.33333" /><rect class="sym" height="6" width="6" x="-3" y="-3" /><text class="lab" transform="translate(0 11)">2</text></g><g class="a10 leaf node n6 p0 sample" transform="translate(7.33333 1.85928)"><path class="edge" d="M 0 0 V -1.85928 H -7.33333" /><rect class="sym" height="6" width="6" x="-3" y="-3" /><text class="lab" transform="translate(0 11)">6</text></g><path class="edge" d="M 0 0 V -1.9148 H 0.0" /><circle class="sym" cx="0" cy="0" r="3" /><text class="lab lft" transform="translate(-3 -7.0)">10</text></g><path class="edge" d="M 0 0 V -12.9046 H 14.6667" /><circle class="sym" cx="0" cy="0" r="3" /><text class="lab lft" transform="translate(-3 -7.0)">13</text></g><path class="edge" d="M 0 0 V -6.9063 H 22" /><circle class="sym" cx="0" cy="0" r="3" /><text class="lab lft" transform="translate(-3 -7.0)">17</text></g><g class="a20 c2 node n18 p0" transform="translate(22 5.59765)"><g class="a18 leaf node n5 p0 sample" transform="translate(-7.33333 17.9873)"><path class="edge" d="M 0 0 V -17.9873 H 7.33333" /><rect class="sym" height="6" width="6" x="-3" y="-3" /><text class="lab" transform="translate(0 11)">5</text></g><g class="a18 leaf node n8 p0 sample" transform="translate(7.33333 17.9873)"><path class="edge" d="M 0 0 V -17.9873 H -7.33333" /><rect class="sym" height="6" width="6" x="-3" y="-3" /><text class="lab" transform="translate(0 11)">8</text></g><path class="edge" d="M 0 0 V -5.59765 H -22" /><circle class="sym" cx="0" cy="0" r="3" /><text class="lab rgt" transform="translate(3 -7.0)">18</text></g><path class="edge" d="M 0 0 V -39.3647 H -34.8333" /><circle class="sym" cx="0" cy="0" r="3" /><text class="lab rgt" transform="translate(3 -7.0)">20</text></g><g class="a23 c2 node n22 p0" transform="translate(-34.8333 32.2739)"><g class="a22 c1 node n19 p0" transform="translate(-11 10.7164)"><g class="a19 c2 node n11 p0" transform="translate(0.0 16.3958)"><g class="a11 leaf node n0 p0 sample" transform="translate(-7.33333 3.56361)"><path class="edge" d="M 0 0 V -3.56361 H 7.33333" /><rect class="sym" height="6" width="6" x="-3" y="-3" /><text class="lab" transform="translate(0 11)">0</text></g><g class="a11 leaf node n9 p0 sample" transform="translate(7.33333 3.56361)"><path class="edge" d="M 0 0 V -3.56361 H -7.33333" /><rect class="sym" height="6" width="6" x="-3" y="-3" /><text class="lab" transform="translate(0 11)">9</text></g><path class="edge" d="M 0 0 V -16.3958 H 0.0" /><circle class="sym" cx="0" cy="0" r="3" /><text class="lab lft" transform="translate(-3 -7.0)">11</text></g><path class="edge" d="M 0 0 V -10.7164 H 11" /><circle class="sym" cx="0" cy="0" r="3" /><text class="lab lft" transform="translate(-3 -7.0)">19</text></g><g class="a22 c1 node n21 p0" transform="translate(11 5.40317)"><g class="a21 leaf node n1 p0 sample" transform="translate(0.0 25.2726)"><path class="edge" d="M 0 0 V -25.2726 H 0.0" /><rect class="sym" height="6" width="6" x="-3" y="-3" /><text class="lab" transform="translate(0 11)">1</text></g><path class="edge" d="M 0 0 V -5.40317 H -11" /><circle class="sym" cx="0" cy="0" r="3" /><text class="lab rgt" transform="translate(3 -7.0)">21</text></g><path class="edge" d="M 0 0 V -32.2739 H 34.8333" /><circle class="sym" cx="0" cy="0" r="3" /><text class="lab lft" transform="translate(-3 -7.0)">22</text></g><path class="edge" d="M 0 0 V -31.6503 H 39.4167" /><circle class="sym" cx="0" cy="0" r="3" /><text class="lab lft" transform="translate(-3 -7.0)">23</text></g><circle class="sym" cx="0" cy="0" r="3" /><text class="lab" transform="translate(0 -11)">24</text></g></g></g><g class="tree t2" transform="translate(393.333 0)"><g class="plotbox"><g class="c2 node n24 p0 root" transform="translate(127.25 26.8)"><g class="a24 leaf node n7 p0 sample" transform="translate(32.0833 94.6)"><path class="edge" d="M 0 0 V -94.6 H -32.0833" /><rect class="sym" height="6" width="6" x="-3" y="-3" /><text class="lab" transform="translate(0 11)">7</text></g><g class="a24 c2 node n23 p0" transform="translate(-32.0833 31.6503)"><g class="a23 c2 node n20 p0" transform="translate(27.5 39.3647)"><g class="a20 c1 node n17 p0" transform="translate(-14.6667 6.9063)"><g class="a17 c1 node n13 p0" transform="translate(0.0 12.9046)"><g class="a13 c2 node n10 p0" transform="translate(0.0 1.9148)"><g class="a10 leaf node n2 p0 sample" transform="translate(-7.33333 1.85928)"><path class="edge" d="M 0 0 V -1.85928 H 7.33333" /><rect class="sym" height="6" width="6" x="-3" y="-3" /><text class="lab" transform="translate(0 11)">2</text></g><g class="a10 leaf node n6 p0 sample" transform="translate(7.33333 1.85928)"><path class="edge" d="M 0 0 V -1.85928 H -7.33333" /><rect class="sym" height="6" width="6" x="-3" y="-3" /><text class="lab" transform="translate(0 11)">6</text></g><path class="edge" d="M 0 0 V -1.9148 H 0.0" /><circle class="sym" cx="0" cy="0" r="3" /><text class="lab lft" transform="translate(-3 -7.0)">10</text></g><path class="edge" d="M 0 0 V -12.9046 H 0.0" /><circle class="sym" cx="0" cy="0" r="3" /><text class="lab lft" transform="translate(-3 -7.0)">13</text></g><path class="edge" d="M 0 0 V -6.9063 H 14.6667" /><circle class="sym" cx="0" cy="0" r="3" /><text class="lab lft" transform="translate(-3 -7.0)">17</text></g><g class="a20 c2 node n18 p0" transform="translate(14.6667 5.59765)"><g class="a18 leaf node n5 p0 sample" transform="translate(-7.33333 17.9873)"><path class="edge" d="M 0 0 V -17.9873 H 7.33333" /><rect class="sym" height="6" width="6" x="-3" y="-3" /><text class="lab" transform="translate(0 11)">5</text></g><g class="a18 leaf node n8 p0 sample" transform="translate(7.33333 17.9873)"><path class="edge" d="M 0 0 V -17.9873 H -7.33333" /><rect class="sym" height="6" width="6" x="-3" y="-3" /><text class="lab" transform="translate(0 11)">8</text></g><path class="edge" d="M 0 0 V -5.59765 H -14.6667" /><circle class="sym" cx="0" cy="0" r="3" /><text class="lab rgt" transform="translate(3 -7.0)">18</text></g><path class="edge" d="M 0 0 V -39.3647 H -27.5" /><circle class="sym" cx="0" cy="0" r="3" /><text class="lab rgt" transform="translate(3 -7.0)">20</text></g><g class="a23 c2 node n22 p0" transform="translate(-27.5 32.2739)"><g class="a22 c2 node n19 p0" transform="translate(-18.3333 10.7164)"><g class="a19 c2 node n11 p0" transform="translate(-14.6667 16.3958)"><g class="a11 leaf node n0 p0 sample" transform="translate(-7.33333 3.56361)"><path class="edge" d="M 0 0 V -3.56361 H 7.33333" /><rect class="sym" height="6" width="6" x="-3" y="-3" /><text class="lab" transform="translate(0 11)">0</text></g><g class="a11 leaf node n9 p0 sample" transform="translate(7.33333 3.56361)"><path class="edge" d="M 0 0 V -3.56361 H -7.33333" /><rect class="sym" height="6" width="6" x="-3" y="-3" /><text class="lab" transform="translate(0 11)">9</text></g><path class="edge" d="M 0 0 V -16.3958 H 14.6667" /><circle class="sym" cx="0" cy="0" r="3" /><text class="lab lft" transform="translate(-3 -7.0)">11</text></g><g class="a19 c1 node n16 p0" transform="translate(14.6667 12.1324)"><g class="a16 c2 node n14 p0" transform="translate(0.0 2.22862)"><g class="a14 leaf node n3 p0 sample" transform="translate(-7.33333 5.5984)"><path class="edge" d="M 0 0 V -5.5984 H 7.33333" /><rect class="sym" height="6" width="6" x="-3" y="-3" /><text class="lab" transform="translate(0 11)">3</text></g><g class="a14 leaf node n4 p0 sample" transform="translate(7.33333 5.5984)"><path class="edge" d="M 0 0 V -5.5984 H -7.33333" /><rect class="sym" height="6" width="6" x="-3" y="-3" /><text class="lab" transform="translate(0 11)">4</text></g><path class="edge" d="M 0 0 V -2.22862 H 0.0" /><circle class="sym" cx="0" cy="0" r="3" /><text class="lab lft" transform="translate(-3 -7.0)">14</text></g><path class="edge" d="M 0 0 V -12.1324 H -14.6667" /><circle class="sym" cx="0" cy="0" r="3" /><text class="lab rgt" transform="translate(3 -7.0)">16</text></g><path class="edge" d="M 0 0 V -10.7164 H 18.3333" /><circle class="sym" cx="0" cy="0" r="3" /><text class="lab lft" transform="translate(-3 -7.0)">19</text></g><g class="a22 c1 node n21 p0" transform="translate(18.3333 5.40317)"><g class="a21 leaf node n1 p0 sample" transform="translate(0.0 25.2726)"><path class="edge" d="M 0 0 V -25.2726 H 0.0" /><rect class="sym" height="6" width="6" x="-3" y="-3" /><text class="lab" transform="translate(0 11)">1</text></g><path class="edge" d="M 0 0 V -5.40317 H -18.3333" /><circle class="sym" cx="0" cy="0" r="3" /><text class="lab rgt" transform="translate(3 -7.0)">21</text></g><path class="edge" d="M 0 0 V -32.2739 H 27.5" /><circle class="sym" cx="0" cy="0" r="3" /><text class="lab lft" transform="translate(-3 -7.0)">22</text></g><path class="edge" d="M 0 0 V -31.6503 H 32.0833" /><circle class="sym" cx="0" cy="0" r="3" /><text class="lab lft" transform="translate(-3 -7.0)">23</text></g><circle class="sym" cx="0" cy="0" r="3" /><text class="lab" transform="translate(0 -11)">24</text></g></g></g></g></g></svg>
