<svg baseProfile="full" height="200" version="1.1" width="1000" xmlns="http://www.w3.org/2000/svg" xmlns:ev="http://www.w3.org/2001/xml-events" xmlns:xlink="http://www.w3.org/1999/xlink"><defs><style type="text/css"><![CDATA[.background path {fill: #808080; fill-opacity: 0}.background path:nth-child(odd) {fill-opacity: .1}.axes {font-size: 14px}.x-axis .tick .lab {font-weight: bold; dominant-baseline: hanging}.axes, .tree {font-size: 14px; text-anchor: middle}.axes line, .edge {stroke: black; fill: none}.y-axis .grid {stroke: #FAFAFA}.node > .sym {fill: black; stroke: none}.site > .sym {stroke: black}.mut text {fill: red; font-style: italic}.mut.extra text {fill: hotpink}.mut line {fill: none; stroke: none}.mut .sym {fill: none; stroke: red}.mut.extra .sym {stroke: hotpink}.node .mut .sym {stroke-width: 1.5px}.tree text, .tree-sequence text {dominant-baseline: central}.plotbox .lab.lft {text-anchor: end}.plotbox .lab.rgt {text-anchor: start}]]></style></defs><g class="tree-sequence"><g class="background"><path d="M20,0 l192,0 l0,138.2 l-17.6049,25 l0,5 l-174.395,0 l0,-5 l0,-25 l0,-138.2z" /><path d="M212,0 l192,0 l0,138.2 l-53.0046,25 l0,5 l-156.6,0 l0,-5 l17.6049,-25 l0,-138.2z" /><path d="M404,0 l192,0 l0,138.2 l-193.451,25 l0,5 l-51.5536,0 l0,-5 l53.0046,-25 l0,-138.2z" /><path d="M596,0 l192,0 l0,138.2 l-89.3488,25 l0,5 l-296.102,0 l0,-5 l193.451,-25 l0,-138.2z" /><path d="M788,0 l192,0 l0,138.2 l0,25 l0,5 l-281.349,0 l0,-5 l89.3488,-25 l0,-138.2z" /></g><g class="axes"><g class="x-axis"><g transform="translate(500 200)"><text class="lab" text-anchor="middle" transform="translate(0 -11)">Genome position</text></g><line x1="20" x2="980" y1="163.2" y2="163.2" /><g class="ticks"><g class="tick" transform="translate(20 163.2)"><line x1="0" x2="0" y1="0" y2="5" /><g transform="translate(0 6)"><text class="lab">0.00</text></g></g><g class="tick" transform="translate(194.395 163.2)"><line x1="0" x2="0" y1="0" y2="5" /><g transform="translate(0 6)"><text class="lab">181.66</text></g></g><g class="tick" transform="translate(350.995 163.2)"><line x1="0" x2="0" y1="0" y2="5" /><g transform="translate(0 6)"><text class="lab">344.79</text></g></g><g class="tick" transform="translate(402.549 163.2)"><line x1="0" x2="0" y1="0" y2="5" /><g transform="translate(0 6)"><text class="lab">398.49</text></g></g><g class="tick" transform="translate(698.651 163.2)"><line x1="0" x2="0" y1="0" y2="5" /><g transform="translate(0 6)"><text class="lab">706.93</text></g></g><g class="tick" transform="translate(980 163.2)"><line x1="0" x2="0" y1="0" y2="5" /><g transform="translate(0 6)"><text class="lab">1000.00</text></g></g></g></g></g><g class="plotbox trees"><g class="tree t0" transform="translate(20 0)"><g class="plotbox"><g class="c2 node n33 p0 root" transform="translate(127.35 26.8)"><g class="a33 c1 node n31 p0" transform="translate(37.05 25.8772)"><g class="a31 leaf node n5 p0 sample" transform="translate(0.0 68.7228)"><path class="edge" d="M 0 0 V -68.7228 H 0.0" /><rect class="sym" height="6" width="6" x="-3" y="-3" /><text class="lab" transform="translate(0 11)">5</text></g><path class="edge" d="M 0 0 V -25.8772 H -37.05" /><circle class="sym" cx="0" cy="0" r="3" /><text class="lab rgt" transform="translate(3 -7.0)">31</text></g><g class="a33 c2 node n32 p0" transform="translate(-37.05 16.1344)"><g class="a32 c2 node n29 p0" transform="translate(-26.6 16.2919)"><g class="a29 c2 node n23 p0" transform="translate(-17.1 24.4954)"><g class="a23 leaf node n1 p0 sample" transform="translate(11.4 37.6783)"><path class="edge" d="M 0 0 V -37.6783 H -11.4" /><rect class="sym" height="6" width="6" x="-3" y="-3" /><text class="lab" transform="translate(0 11)">1</text></g><g class="a23 c2 node n11 p0" transform="translate(-11.4 25.3814)"><g class="a11 leaf node n0 p0 sample" transform="translate(-7.6 12.2969)"><path class="edge" d="M 0 0 V -12.2969 H 7.6" /><rect class="sym" height="6" width="6" x="-3" y="-3" /><text class="lab" transform="translate(0 11)">0</text></g><g class="a11 leaf node n9 p0 sample" transform="translate(7.6 12.2969)"><path class="edge" d="M 0 0 V -12.2969 H -7.6" /><rect class="sym" height="6" width="6" x="-3" y="-3" /><text class="lab" transform="translate(0 11)">9</text></g><path class="edge" d="M 0 0 V -25.3814 H 11.4" /><circle class="sym" cx="0" cy="0" r="3" /><text class="lab lft" transform="translate(-3 -7.0)">11</text></g><path class="edge" d="M 0 0 V -24.4954 H 17.1" /><circle class="sym" cx="0" cy="0" r="3" /><text class="lab lft" transform="translate(-3 -7.0)">23</text></g><g class="a29 c2 node n25 p0" transform="translate(17.1 13.61)"><g class="a25 c1 node n22 p0" transform="translate(-7.6 11.0804)"><g class="a22 leaf node n3 p0 sample" transform="translate(0.0 37.4833)"><path class="edge" d="M 0 0 V -37.4833 H 0.0" /><rect class="sym" height="6" width="6" x="-3" y="-3" /><text class="lab" transform="translate(0 11)">3</text></g><path class="edge" d="M 0 0 V -11.0804 H 7.6" /><circle class="sym" cx="0" cy="0" r="3" /><text class="lab lft" transform="translate(-3 -7.0)">22</text></g><g class="a25 c1 node n24 p0" transform="translate(7.6 10.2365)"><g class="a24 c1 node n15 p0" transform="translate(0.0 9.50853)"><g class="a15 c1 node n14 p0" transform="translate(0.0 9.7933)"><g class="a14 leaf node n8 p0 sample" transform="translate(0.0 19.0253)"><path class="edge" d="M 0 0 V -19.0253 H 0.0" /><rect class="sym" height="6" width="6" x="-3" y="-3" /><text class="lab" transform="translate(0 11)">8</text></g><path class="edge" d="M 0 0 V -9.7933 H 0.0" /><circle class="sym" cx="0" cy="0" r="3" /><text class="lab lft" transform="translate(-3 -7.0)">14</text></g><path class="edge" d="M 0 0 V -9.50853 H 0.0" /><circle class="sym" cx="0" cy="0" r="3" /><text class="lab lft" transform="translate(-3 -7.0)">15</text></g><path class="edge" d="M 0 0 V -10.2365 H -7.6" /><circle class="sym" cx="0" cy="0" r="3" /><text class="lab rgt" transform="translate(3 -7.0)">24</text></g><path class="edge" d="M 0 0 V -13.61 H -17.1" /><circle class="sym" cx="0" cy="0" r="3" /><text class="lab rgt" transform="translate(3 -7.0)">25</text></g><path class="edge" d="M 0 0 V -16.2919 H 26.6" /><circle class="sym" cx="0" cy="0" r="3" /><text class="lab lft" transform="translate(-3 -7.0)">29</text></g><g class="a32 c2 node n30 p0" transform="translate(26.6 14.0761)"><g class="a30 leaf node n2 p0 sample" transform="translate(-13.3 64.3894)"><path class="edge" d="M 0 0 V -64.3894 H 13.3" /><rect class="sym" height="6" width="6" x="-3" y="-3" /><text class="lab" transform="translate(0 11)">2</text></g><g class="a30 c1 node n27 p0" transform="translate(13.3 5.80716)"><g class="a27 c2 node n26 p0" transform="translate(0.0 9.1013)"><g class="a26 c1 node n17 p0" transform="translate(-11.4 20.1216)"><g class="a17 leaf node n4 p0 sample" transform="translate(0.0 29.3594)"><path class="edge" d="M 0 0 V -29.3594 H 0.0" /><rect class="sym" height="6" width="6" x="-3" y="-3" /><text class="lab" transform="translate(0 11)">4</text></g><path class="edge" d="M 0 0 V -20.1216 H 11.4" /><circle class="sym" cx="0" cy="0" r="3" /><text class="lab lft" transform="translate(-3 -7.0)">17</text></g><g class="a26 c1 node n21 p0" transform="translate(11.4 15.422)"><g class="a21 c1 node n12 p0" transform="translate(0.0 16.3318)"><g class="a12 c2 node n10 p0" transform="translate(0.0 16.1135)"><g class="a10 leaf node n6 p0 sample" transform="translate(-7.6 1.61365)"><path class="edge" d="M 0 0 V -1.61365 H 7.6" /><rect class="sym" height="6" width="6" x="-3" y="-3" /><text class="lab" transform="translate(0 11)">6</text></g><g class="a10 leaf node n7 p0 sample" transform="translate(7.6 1.61365)"><path class="edge" d="M 0 0 V -1.61365 H -7.6" /><rect class="sym" height="6" width="6" x="-3" y="-3" /><text class="lab" transform="translate(0 11)">7</text></g><path class="edge" d="M 0 0 V -16.1135 H 0.0" /><circle class="sym" cx="0" cy="0" r="3" /><text class="lab lft" transform="translate(-3 -7.0)">10</text></g><path class="edge" d="M 0 0 V -16.3318 H 0.0" /><circle class="sym" cx="0" cy="0" r="3" /><text class="lab lft" transform="translate(-3 -7.0)">12</text></g><path class="edge" d="M 0 0 V -15.422 H -11.4" /><circle class="sym" cx="0" cy="0" r="3" /><text class="lab rgt" transform="translate(3 -7.0)">21</text></g><path class="edge" d="M 0 0 V -9.1013 H 0.0" /><circle class="sym" cx="0" cy="0" r="3" /><text class="lab lft" transform="translate(-3 -7.0)">26</text></g><path class="edge" d="M 0 0 V -5.80716 H -13.3" /><circle class="sym" cx="0" cy="0" r="3" /><text class="lab rgt" transform="translate(3 -7.0)">27</text></g><path class="edge" d="M 0 0 V -14.0761 H -26.6" /><circle class="sym" cx="0" cy="0" r="3" /><text class="lab rgt" transform="translate(3 -7.0)">30</text></g><path class="edge" d="M 0 0 V -16.1344 H 37.05" /><circle class="sym" cx="0" cy="0" r="3" /><text class="lab lft" transform="translate(-3 -7.0)">32</text></g><circle class="sym" cx="0" cy="0" r="3" /><text class="lab" transform="translate(0 -11)">33</text></g></g></g><g class="tree t1" transform="translate(212 0)"><g class="plotbox"><g class="c2 node n33 p0 root" transform="translate(127.35 26.8)"><g class="a33 c1 node n31 p0" transform="translate(37.05 25.8772)"><g class="a31 leaf node n5 p0 sample" transform="translate(0.0 68.7228)"><path class="edge" d="M 0 0 V -68.7228 H 0.0" /><rect class="sym" height="6" width="6" x="-3" y="-3" /><text class="lab" transform="translate(0 11)">5</text></g><path class="edge" d="M 0 0 V -25.8772 H -37.05" /><circle class="sym" cx="0" cy="0" r="3" /><text class="lab rgt" transform="translate(3 -7.0)">31</text></g><g class="a33 c2 node n32 p0" transform="translate(-37.05 16.1344)"><g class="a32 c2 node n29 p0" transform="translate(-26.6 16.2919)"><g class="a29 c2 node n23 p0" transform="translate(-17.1 24.4954)"><g class="a23 leaf node n1 p0 sample" transform="translate(11.4 37.6783)"><path class="edge" d="M 0 0 V -37.6783 H -11.4" /><rect class="sym" height="6" width="6" x="-3" y="-3" /><text class="lab" transform="translate(0 11)">1</text></g><g class="a23 c2 node n11 p0" transform="translate(-11.4 25.3814)"><g class="a11 leaf node n0 p0 sample" transform="translate(-7.6 12.2969)"><path class="edge" d="M 0 0 V -12.2969 H 7.6" /><rect class="sym" height="6" width="6" x="-3" y="-3" /><text class="lab" transform="translate(0 11)">0</text></g><g class="a11 leaf node n9 p0 sample" transform="translate(7.6 12.2969)"><path class="edge" d="M 0 0 V -12.2969 H -7.6" /><rect class="sym" height="6" width="6" x="-3" y="-3" /><text class="lab" transform="translate(0 11)">9</text></g><path class="edge" d="M 0 0 V -25.3814 H 11.4" /><circle class="sym" cx="0" cy="0" r="3" /><text class="lab lft" transform="translate(-3 -7.0)">11</text></g><path class="edge" d="M 0 0 V -24.4954 H 17.1" /><circle class="sym" cx="0" cy="0" r="3" /><text class="lab lft" transform="translate(-3 -7.0)">23</text></g><g class="a29 c1 node n25 p0" transform="translate(17.1 13.61)"><g class="a25 c2 node n22 p0" transform="translate(0.0 11.0804)"><g class="a22 leaf node n3 p0 sample" transform="translate(-7.6 37.4833)"><path class="edge" d="M 0 0 V -37.4833 H 7.6" /><rect class="sym" height="6" width="6" x="-3" y="-3" /><text class="lab" transform="translate(0 11)">3</text></g><g class="a22 c1 node n19 p0" transform="translate(7.6 3.99289)"><g class="a19 c1 node n16 p0" transform="translate(0.0 4.67171)"><g class="a16 c1 node n14 p0" transform="translate(0.0 9.7933)"><g class="a14 leaf node n8 p0 sample" transform="translate(0.0 19.0253)"><path class="edge" d="M 0 0 V -19.0253 H 0.0" /><rect class="sym" height="6" width="6" x="-3" y="-3" /><text class="lab" transform="translate(0 11)">8</text></g><path class="edge" d="M 0 0 V -9.7933 H 0.0" /><circle class="sym" cx="0" cy="0" r="3" /><text class="lab lft" transform="translate(-3 -7.0)">14</text></g><path class="edge" d="M 0 0 V -4.67171 H 0.0" /><circle class="sym" cx="0" cy="0" r="3" /><text class="lab lft" transform="translate(-3 -7.0)">16</text></g><path class="edge" d="M 0 0 V -3.99289 H -7.6" /><circle class="sym" cx="0" cy="0" r="3" /><text class="lab rgt" transform="translate(3 -7.0)">19</text></g><path class="edge" d="M 0 0 V -11.0804 H 0.0" /><circle class="sym" cx="0" cy="0" r="3" /><text class="lab lft" transform="translate(-3 -7.0)">22</text></g><path class="edge" d="M 0 0 V -13.61 H -17.1" /><circle class="sym" cx="0" cy="0" r="3" /><text class="lab rgt" transform="translate(3 -7.0)">25</text></g><path class="edge" d="M 0 0 V -16.2919 H 26.6" /><circle class="sym" cx="0" cy="0" r="3" /><text class="lab lft" transform="translate(-3 -7.0)">29</text></g><g class="a32 c2 node n30 p0" transform="translate(26.6 14.0761)"><g class="a30 leaf node n2 p0 sample" transform="translate(-13.3 64.3894)"><path class="edge" d="M 0 0 V -64.3894 H 13.3" /><rect class="sym" height="6" width="6" x="-3" y="-3" /><text class="lab" transform="translate(0 11)">2</text></g><g class="a30 c1 node n27 p0" transform="translate(13.3 5.80716)"><g class="a27 c2 node n26 p0" transform="translate(0.0 9.1013)"><g class="a26 c1 node n17 p0" transform="translate(-11.4 20.1216)"><g class="a17 leaf node n4 p0 sample" transform="translate(0.0 29.3594)"><path class="edge" d="M 0 0 V -29.3594 H 0.0" /><rect class="sym" height="6" width="6" x="-3" y="-3" /><text class="lab" transform="translate(0 11)">4</text></g><path class="edge" d="M 0 0 V -20.1216 H 11.4" /><circle class="sym" cx="0" cy="0" r="3" /><text class="lab lft" transform="translate(-3 -7.0)">17</text></g><g class="a26 c1 node n21 p0" transform="translate(11.4 15.422)"><g class="a21 c1 node n12 p0" transform="translate(0.0 16.3318)"><g class="a12 c2 node n10 p0" transform="translate(0.0 16.1135)"><g class="a10 leaf node n6 p0 sample" transform="translate(-7.6 1.61365)"><path class="edge" d="M 0 0 V -1.61365 H 7.6" /><rect class="sym" height="6" width="6" x="-3" y="-3" /><text class="lab" transform="translate(0 11)">6</text></g><g class="a10 leaf node n7 p0 sample" transform="translate(7.6 1.61365)"><path class="edge" d="M 0 0 V -1.61365 H -7.6" /><rect class="sym" height="6" width="6" x="-3" y="-3" /><text class="lab" transform="translate(0 11)">7</text></g><path class="edge" d="M 0 0 V -16.1135 H 0.0" /><circle class="sym" cx="0" cy="0" r="3" /><text class="lab lft" transform="translate(-3 -7.0)">10</text></g><path class="edge" d="M 0 0 V -16.3318 H 0.0" /><circle class="sym" cx="0" cy="0" r="3" /><text class="lab lft" transform="translate(-3 -7.0)">12</text></g><path class="edge" d="M 0 0 V -15.422 H -11.4" /><circle class="sym" cx="0" cy="0" r="3" /><text class="lab rgt" transform="translate(3 -7.0)">21</text></g><path class="edge" d="M 0 0 V -9.1013 H 0.0" /><circle class="sym" cx="0" cy="0" r="3" /><text class="lab lft" transform="translate(-3 -7.0)">26</text></g><path class="edge" d="M 0 0 V -5.80716 H -13.3" /><circle class="sym" cx="0" cy="0" r="3" /><text class="lab rgt" transform="translate(3 -7.0)">27</text></g><path class="edge" d="M 0 0 V -14.0761 H -26.6" /><circle class="sym" cx="0" cy="0" r="3" /><text class="lab rgt" transform="translate(3 -7.0)">30</text></g><path class="edge" d="M 0 0 V -16.1344 H 37.05" /><circle class="sym" cx="0" cy="0" r="3" /><text class="lab lft" transform="translate(-3 -7.0)">32</text></g><circle class="sym" cx="0" cy="0" r="3" /><text class="lab" transform="translate(0 -11)">33</text></g></g></g><g class="tree t2" transform="translate(404 0)"><g class="plotbox"><g class="c2 node n33 p0 root" transform="translate(132.1 26.8)"><g class="a33 c1 node n31 p0" transform="translate(32.3 25.8772)"><g class="a31 leaf node n5 p0 sample" transform="translate(0.0 68.7228)"><path class="edge" d="M 0 0 V -68.7228 H 0.0" /><rect class="sym" height="6" width="6" x="-3" y="-3" /><text class="lab" transform="translate(0 11)">5</text></g><path class="edge" d="M 0 0 V -25.8772 H -32.3" /><circle class="sym" cx="0" cy="0" r="3" /><text class="lab rgt" transform="translate(3 -7.0)">31</text></g><g class="a33 c2 node n32 p0" transform="translate(-32.3 16.1344)"><g class="a32 c2 node n29 p0" transform="translate(-30.4 16.2919)"><g class="a29 c2 node n23 p0" transform="translate(-22.8 24.4954)"><g class="a23 leaf node n1 p0 sample" transform="translate(11.4 37.6783)"><path class="edge" d="M 0 0 V -37.6783 H -11.4" /><rect class="sym" height="6" width="6" x="-3" y="-3" /><text class="lab" transform="translate(0 11)">1</text></g><g class="a23 c2 node n11 p0" transform="translate(-11.4 25.3814)"><g class="a11 leaf node n0 p0 sample" transform="translate(-7.6 12.2969)"><path class="edge" d="M 0 0 V -12.2969 H 7.6" /><rect class="sym" height="6" width="6" x="-3" y="-3" /><text class="lab" transform="translate(0 11)">0</text></g><g class="a11 leaf node n9 p0 sample" transform="translate(7.6 12.2969)"><path class="edge" d="M 0 0 V -12.2969 H -7.6" /><rect class="sym" height="6" width="6" x="-3" y="-3" /><text class="lab" transform="translate(0 11)">9</text></g><path class="edge" d="M 0 0 V -25.3814 H 11.4" /><circle class="sym" cx="0" cy="0" r="3" /><text class="lab lft" transform="translate(-3 -7.0)">11</text></g><path class="edge" d="M 0 0 V -24.4954 H 22.8" /><circle class="sym" cx="0" cy="0" r="3" /><text class="lab lft" transform="translate(-3 -7.0)">23</text></g><g class="a29 c2 node n25 p0" transform="translate(22.8 13.61)"><g class="a25 c2 node n22 p0" transform="translate(-11.4 11.0804)"><g class="a22 leaf node n3 p0 sample" transform="translate(-7.6 37.4833)"><path class="edge" d="M 0 0 V -37.4833 H 7.6" /><rect class="sym" height="6" width="6" x="-3" y="-3" /><text class="lab" transform="translate(0 11)">3</text></g><g class="a22 c1 node n19 p0" transform="translate(7.6 3.99289)"><g class="a19 c1 node n16 p0" transform="translate(0.0 4.67171)"><g class="a16 c1 node n14 p0" transform="translate(0.0 9.7933)"><g class="a14 leaf node n8 p0 sample" transform="translate(0.0 19.0253)"><path class="edge" d="M 0 0 V -19.0253 H 0.0" /><rect class="sym" height="6" width="6" x="-3" y="-3" /><text class="lab" transform="translate(0 11)">8</text></g><path class="edge" d="M 0 0 V -9.7933 H 0.0" /><circle class="sym" cx="0" cy="0" r="3" /><text class="lab lft" transform="translate(-3 -7.0)">14</text></g><path class="edge" d="M 0 0 V -4.67171 H 0.0" /><circle class="sym" cx="0" cy="0" r="3" /><text class="lab lft" transform="translate(-3 -7.0)">16</text></g><path class="edge" d="M 0 0 V -3.99289 H -7.6" /><circle class="sym" cx="0" cy="0" r="3" /><text class="lab rgt" transform="translate(3 -7.0)">19</text></g><path class="edge" d="M 0 0 V -11.0804 H 11.4" /><circle class="sym" cx="0" cy="0" r="3" /><text class="lab lft" transform="translate(-3 -7.0)">22</text></g><g class="a25 c1 node n24 p0" transform="translate(11.4 10.2365)"><g class="a24 c1 node n18 p0" transform="translate(0.0 8.96783)"><g class="a18 leaf node n4 p0 sample" transform="translate(0.0 29.3594)"><path class="edge" d="M 0 0 V -29.3594 H 0.0" /><rect class="sym" height="6" width="6" x="-3" y="-3" /><text class="lab" transform="translate(0 11)">4</text></g><path class="edge" d="M 0 0 V -8.96783 H 0.0" /><circle class="sym" cx="0" cy="0" r="3" /><text class="lab lft" transform="translate(-3 -7.0)">18</text></g><path class="edge" d="M 0 0 V -10.2365 H -11.4" /><circle class="sym" cx="0" cy="0" r="3" /><text class="lab rgt" transform="translate(3 -7.0)">24</text></g><path class="edge" d="M 0 0 V -13.61 H -22.8" /><circle class="sym" cx="0" cy="0" r="3" /><text class="lab rgt" transform="translate(3 -7.0)">25</text></g><path class="edge" d="M 0 0 V -16.2919 H 30.4" /><circle class="sym" cx="0" cy="0" r="3" /><text class="lab lft" transform="translate(-3 -7.0)">29</text></g><g class="a32 c2 node n30 p0" transform="translate(30.4 14.0761)"><g class="a30 leaf node n2 p0 sample" transform="translate(-11.4 64.3894)"><path class="edge" d="M 0 0 V -64.3894 H 11.4" /><rect class="sym" height="6" width="6" x="-3" y="-3" /><text class="lab" transform="translate(0 11)">2</text></g><g class="a30 c1 node n27 p0" transform="translate(11.4 5.80716)"><g class="a27 c1 node n26 p0" transform="translate(0.0 9.1013)"><g class="a26 c1 node n21 p0" transform="translate(0.0 15.422)"><g class="a21 c1 node n12 p0" transform="translate(0.0 16.3318)"><g class="a12 c2 node n10 p0" transform="translate(0.0 16.1135)"><g class="a10 leaf node n6 p0 sample" transform="translate(-7.6 1.61365)"><path class="edge" d="M 0 0 V -1.61365 H 7.6" /><rect class="sym" height="6" width="6" x="-3" y="-3" /><text class="lab" transform="translate(0 11)">6</text></g><g class="a10 leaf node n7 p0 sample" transform="translate(7.6 1.61365)"><path class="edge" d="M 0 0 V -1.61365 H -7.6" /><rect class="sym" height="6" width="6" x="-3" y="-3" /><text class="lab" transform="translate(0 11)">7</text></g><path class="edge" d="M 0 0 V -16.1135 H 0.0" /><circle class="sym" cx="0" cy="0" r="3" /><text class="lab lft" transform="translate(-3 -7.0)">10</text></g><path class="edge" d="M 0 0 V -16.3318 H 0.0" /><circle class="sym" cx="0" cy="0" r="3" /><text class="lab lft" transform="translate(-3 -7.0)">12</text></g><path class="edge" d="M 0 0 V -15.422 H 0.0" /><circle class="sym" cx="0" cy="0" r="3" /><text class="lab lft" transform="translate(-3 -7.0)">21</text></g><path class="edge" d="M 0 0 V -9.1013 H 0.0" /><circle class="sym" cx="0" cy="0" r="3" /><text class="lab lft" transform="translate(-3 -7.0)">26</text></g><path class="edge" d="M 0 0 V -5.80716 H -11.4" /><circle class="sym" cx="0" cy="0" r="3" /><text class="lab rgt" transform="translate(3 -7.0)">27</text></g><path class="edge" d="M 0 0 V -14.0761 H -30.4" /><circle class="sym" cx="0" cy="0" r="3" /><text class="lab rgt" transform="translate(3 -7.0)">30</text></g><path class="edge" d="M 0 0 V -16.1344 H 32.3" /><circle class="sym" cx="0" cy="0" r="3" /><text class="lab lft" transform="translate(-3 -7.0)">32</text></g><circle class="sym" cx="0" cy="0" r="3" /><text class="lab" transform="translate(0 -11)">33</text></g></g></g><g class="tree t3" transform="translate(596 0)"><g class="plotbox"><g class="c2 node n33 p0 root" transform="translate(139.344 26.8)"><g class="a33 c1 node n31 p0" transform="translate(25.0562 25.8772)"><g class="a31 leaf node n5 p0 sample" transform="translate(0.0 68.7228)"><path class="edge" d="M 0 0 V -68.7228 H 0.0" /><rect class="sym" height="6" width="6" x="-3" y="-3" /><text class="lab" transform="translate(0 11)">5</text></g><path class="edge" d="M 0 0 V -25.8772 H -25.0562" /><circle class="sym" cx="0" cy="0" r="3" /><text class="lab rgt" transform="translate(3 -7.0)">31</text></g><g class="a33 c2 node n32 p0" transform="translate(-25.0563 16.1344)"><g class="a32 c2 node n29 p0" transform="translate(-34.9125 16.2919)"><g class="a29 c2 node n23 p0" transform="translate(-32.775 24.4954)"><g class="a23 leaf node n1 p0 sample" transform="translate(11.4 37.6783)"><path class="edge" d="M 0 0 V -37.6783 H -11.4" /><rect class="sym" height="6" width="6" x="-3" y="-3" /><text class="lab" transform="translate(0 11)">1</text></g><g class="a23 c2 node n11 p0" transform="translate(-11.4 25.3814)"><g class="a11 leaf node n0 p0 sample" transform="translate(-7.6 12.2969)"><path class="edge" d="M 0 0 V -12.2969 H 7.6" /><rect class="sym" height="6" width="6" x="-3" y="-3" /><text class="lab" transform="translate(0 11)">0</text></g><g class="a11 leaf node n9 p0 sample" transform="translate(7.6 12.2969)"><path class="edge" d="M 0 0 V -12.2969 H -7.6" /><rect class="sym" height="6" width="6" x="-3" y="-3" /><text class="lab" transform="translate(0 11)">9</text></g><path class="edge" d="M 0 0 V -25.3814 H 11.4" /><circle class="sym" cx="0" cy="0" r="3" /><text class="lab lft" transform="translate(-3 -7.0)">11</text></g><path class="edge" d="M 0 0 V -24.4954 H 32.775" /><circle class="sym" cx="0" cy="0" r="3" /><text class="lab lft" transform="translate(-3 -7.0)">23</text></g><g class="a29 c2 node n25 p0" transform="translate(32.775 13.61)"><g class="a25 c2 node n22 p0" transform="translate(-21.85 11.0804)"><g class="a22 leaf node n3 p0 sample" transform="translate(-17.1 37.4833)"><path class="edge" d="M 0 0 V -37.4833 H 17.1" /><rect class="sym" height="6" width="6" x="-3" y="-3" /><text class="lab" transform="translate(0 11)">3</text></g><g class="a22 c1 node n19 p0" transform="translate(17.1 3.99289)"><g class="a19 c1 node n16 p0" transform="translate(0.0 4.67171)"><g class="a16 c2 node n14 p0" transform="translate(0.0 9.7933)"><g class="a14 leaf node n8 p0 sample" transform="translate(11.4 19.0253)"><path class="edge" d="M 0 0 V -19.0253 H -11.4" /><rect class="sym" height="6" width="6" x="-3" y="-3" /><text class="lab" transform="translate(0 11)">8</text></g><g class="a14 c1 node n13 p0" transform="translate(-11.4 1.29816)"><g class="a13 c2 node n10 p0" transform="translate(0.0 16.1135)"><g class="a10 leaf node n6 p0 sample" transform="translate(-7.6 1.61365)"><path class="edge" d="M 0 0 V -1.61365 H 7.6" /><rect class="sym" height="6" width="6" x="-3" y="-3" /><text class="lab" transform="translate(0 11)">6</text></g><g class="a10 leaf node n7 p0 sample" transform="translate(7.6 1.61365)"><path class="edge" d="M 0 0 V -1.61365 H -7.6" /><rect class="sym" height="6" width="6" x="-3" y="-3" /><text class="lab" transform="translate(0 11)">7</text></g><path class="edge" d="M 0 0 V -16.1135 H 0.0" /><circle class="sym" cx="0" cy="0" r="3" /><text class="lab lft" transform="translate(-3 -7.0)">10</text></g><path class="edge" d="M 0 0 V -1.29816 H 11.4" /><circle class="sym" cx="0" cy="0" r="3" /><text class="lab lft" transform="translate(-3 -7.0)">13</text></g><path class="edge" d="M 0 0 V -9.7933 H 0.0" /><circle class="sym" cx="0" cy="0" r="3" /><text class="lab lft" transform="translate(-3 -7.0)">14</text></g><path class="edge" d="M 0 0 V -4.67171 H 0.0" /><circle class="sym" cx="0" cy="0" r="3" /><text class="lab lft" transform="translate(-3 -7.0)">16</text></g><path class="edge" d="M 0 0 V -3.99289 H -17.1" /><circle class="sym" cx="0" cy="0" r="3" /><text class="lab rgt" transform="translate(3 -7.0)">19</text></g><path class="edge" d="M 0 0 V -11.0804 H 21.85" /><circle class="sym" cx="0" cy="0" r="3" /><text class="lab lft" transform="translate(-3 -7.0)">22</text></g><g class="a25 c1 node n24 p0" transform="translate(21.85 10.2365)"><g class="a24 c1 node n18 p0" transform="translate(0.0 8.96783)"><g class="a18 leaf node n4 p0 sample" transform="translate(0.0 29.3594)"><path class="edge" d="M 0 0 V -29.3594 H 0.0" /><rect class="sym" height="6" width="6" x="-3" y="-3" /><text class="lab" transform="translate(0 11)">4</text></g><path class="edge" d="M 0 0 V -8.96783 H 0.0" /><circle class="sym" cx="0" cy="0" r="3" /><text class="lab lft" transform="translate(-3 -7.0)">18</text></g><path class="edge" d="M 0 0 V -10.2365 H -21.85" /><circle class="sym" cx="0" cy="0" r="3" /><text class="lab rgt" transform="translate(3 -7.0)">24</text></g><path class="edge" d="M 0 0 V -13.61 H -32.775" /><circle class="sym" cx="0" cy="0" r="3" /><text class="lab rgt" transform="translate(3 -7.0)">25</text></g><path class="edge" d="M 0 0 V -16.2919 H 34.9125" /><circle class="sym" cx="0" cy="0" r="3" /><text class="lab lft" transform="translate(-3 -7.0)">29</text></g><g class="a32 c1 node n30 p0" transform="translate(34.9125 14.0761)"><g class="a30 leaf node n2 p0 sample" transform="translate(0.0 64.3894)"><path class="edge" d="M 0 0 V -64.3894 H 0.0" /><rect class="sym" height="6" width="6" x="-3" y="-3" /><text class="lab" transform="translate(0 11)">2</text></g><path class="edge" d="M 0 0 V -14.0761 H -34.9125" /><circle class="sym" cx="0" cy="0" r="3" /><text class="lab rgt" transform="translate(3 -7.0)">30</text></g><path class="edge" d="M 0 0 V -16.1344 H 25.0563" /><circle class="sym" cx="0" cy="0" r="3" /><text class="lab lft" transform="translate(-3 -7.0)">32</text></g><circle class="sym" cx="0" cy="0" r="3" /><text class="lab" transform="translate(0 -11)">33</text></g></g></g><g class="tree t4" transform="translate(788 0)"><g class="plotbox"><g class="c2 node n33 p0 root" transform="translate(109.775 26.8)"><g class="a33 c2 node n31 p0" transform="translate(26.125 25.8772)"><g class="a31 leaf node n5 p0 sample" transform="translate(-17.1 68.7228)"><path class="edge" d="M 0 0 V -68.7228 H 17.1" /><rect class="sym" height="6" width="6" x="-3" y="-3" /><text class="lab" transform="translate(0 11)">5</text></g><g class="a31 c1 node n28 p0" transform="translate(17.1 10.1405)"><g class="a28 c1 node n26 p0" transform="translate(0.0 9.1013)"><g class="a26 c1 node n21 p0" transform="translate(0.0 15.422)"><g class="a21 c1 node n20 p0" transform="translate(0.0 0.56861)"><g class="a20 c1 node n16 p0" transform="translate(0.0 4.67171)"><g class="a16 c2 node n14 p0" transform="translate(0.0 9.7933)"><g class="a14 leaf node n8 p0 sample" transform="translate(11.4 19.0253)"><path class="edge" d="M 0 0 V -19.0253 H -11.4" /><rect class="sym" height="6" width="6" x="-3" y="-3" /><text class="lab" transform="translate(0 11)">8</text></g><g class="a14 c1 node n13 p0" transform="translate(-11.4 1.29816)"><g class="a13 c2 node n10 p0" transform="translate(0.0 16.1135)"><g class="a10 leaf node n6 p0 sample" transform="translate(-7.6 1.61365)"><path class="edge" d="M 0 0 V -1.61365 H 7.6" /><rect class="sym" height="6" width="6" x="-3" y="-3" /><text class="lab" transform="translate(0 11)">6</text></g><g class="a10 leaf node n7 p0 sample" transform="translate(7.6 1.61365)"><path class="edge" d="M 0 0 V -1.61365 H -7.6" /><rect class="sym" height="6" width="6" x="-3" y="-3" /><text class="lab" transform="translate(0 11)">7</text></g><path class="edge" d="M 0 0 V -16.1135 H 0.0" /><circle class="sym" cx="0" cy="0" r="3" /><text class="lab lft" transform="translate(-3 -7.0)">10</text></g><path class="edge" d="M 0 0 V -1.29816 H 11.4" /><circle class="sym" cx="0" cy="0" r="3" /><text class="lab lft" transform="translate(-3 -7.0)">13</text></g><path class="edge" d="M 0 0 V -9.7933 H 0.0" /><circle class="sym" cx="0" cy="0" r="3" /><text class="lab lft" transform="translate(-3 -7.0)">14</text></g><path class="edge" d="M 0 0 V -4.67171 H 0.0" /><circle class="sym" cx="0" cy="0" r="3" /><text class="lab lft" transform="translate(-3 -7.0)">16</text></g><path class="edge" d="M 0 0 V -0.56861 H 0.0" /><circle class="sym" cx="0" cy="0" r="3" /><text class="lab lft" transform="translate(-3 -7.0)">20</text></g><path class="edge" d="M 0 0 V -15.422 H 0.0" /><circle class="sym" cx="0" cy="0" r="3" /><text class="lab lft" transform="translate(-3 -7.0)">21</text></g><path class="edge" d="M 0 0 V -9.1013 H 0.0" /><circle class="sym" cx="0" cy="0" r="3" /><text class="lab lft" transform="translate(-3 -7.0)">26</text></g><path class="edge" d="M 0 0 V -10.1405 H -17.1" /><circle class="sym" cx="0" cy="0" r="3" /><text class="lab rgt" transform="translate(3 -7.0)">28</text></g><path class="edge" d="M 0 0 V -25.8772 H -26.125" /><circle class="sym" cx="0" cy="0" r="3" /><text class="lab rgt" transform="translate(3 -7.0)">31</text></g><g class="a33 c2 node n32 p0" transform="translate(-26.125 16.1344)"><g class="a32 c2 node n29 p0" transform="translate(-19.95 16.2919)"><g class="a29 c2 node n23 p0" transform="translate(-17.1 24.4954)"><g class="a23 leaf node n1 p0 sample" transform="translate(11.4 37.6783)"><path class="edge" d="M 0 0 V -37.6783 H -11.4" /><rect class="sym" height="6" width="6" x="-3" y="-3" /><text class="lab" transform="translate(0 11)">1</text></g><g class="a23 c2 node n11 p0" transform="translate(-11.4 25.3814)"><g class="a11 leaf node n0 p0 sample" transform="translate(-7.6 12.2969)"><path class="edge" d="M 0 0 V -12.2969 H 7.6" /><rect class="sym" height="6" width="6" x="-3" y="-3" /><text class="lab" transform="translate(0 11)">0</text></g><g class="a11 leaf node n9 p0 sample" transform="translate(7.6 12.2969)"><path class="edge" d="M 0 0 V -12.2969 H -7.6" /><rect class="sym" height="6" width="6" x="-3" y="-3" /><text class="lab" transform="translate(0 11)">9</text></g><path class="edge" d="M 0 0 V -25.3814 H 11.4" /><circle class="sym" cx="0" cy="0" r="3" /><text class="lab lft" transform="translate(-3 -7.0)">11</text></g><path class="edge" d="M 0 0 V -24.4954 H 17.1" /><circle class="sym" cx="0" cy="0" r="3" /><text class="lab lft" transform="translate(-3 -7.0)">23</text></g><g class="a29 c2 node n25 p0" transform="translate(17.1 13.61)"><g class="a25 c1 node n22 p0" transform="translate(-7.6 11.0804)"><g class="a22 leaf node n3 p0 sample" transform="translate(0.0 37.4833)"><path class="edge" d="M 0 0 V -37.4833 H 0.0" /><rect class="sym" height="6" width="6" x="-3" y="-3" /><text class="lab" transform="translate(0 11)">3</text></g><path class="edge" d="M 0 0 V -11.0804 H 7.6" /><circle class="sym" cx="0" cy="0" r="3" /><text class="lab lft" transform="translate(-3 -7.0)">22</text></g><g class="a25 c1 node n24 p0" transform="translate(7.6 10.2365)"><g class="a24 c1 node n18 p0" transform="translate(0.0 8.96783)"><g class="a18 leaf node n4 p0 sample" transform="translate(0.0 29.3594)"><path class="edge" d="M 0 0 V -29.3594 H 0.0" /><rect class="sym" height="6" width="6" x="-3" y="-3" /><text class="lab" transform="translate(0 11)">4</text></g><path class="edge" d="M 0 0 V -8.96783 H 0.0" /><circle class="sym" cx="0" cy="0" r="3" /><text class="lab lft" transform="translate(-3 -7.0)">18</text></g><path class="edge" d="M 0 0 V -10.2365 H -7.6" /><circle class="sym" cx="0" cy="0" r="3" /><text class="lab rgt" transform="translate(3 -7.0)">24</text></g><path class="edge" d="M 0 0 V -13.61 H -17.1" /><circle class="sym" cx="0" cy="0" r="3" /><text class="lab rgt" transform="translate(3 -7.0)">25</text></g><path class="edge" d="M 0 0 V -16.2919 H 19.95" /><circle class="sym" cx="0" cy="0" r="3" /><text class="lab lft" transform="translate(-3 -7.0)">29</text></g><g class="a32 c1 node n30 p0" transform="translate(19.95 14.0761)"><g class="a30 leaf node n2 p0 sample" transform="translate(0.0 64.3894)"><path class="edge" d="M 0 0 V -64.3894 H 0.0" /><rect class="sym" height="6" width="6" x="-3" y="-3" /><text class="lab" transform="translate(0 11)">2</text></g><path class="edge" d="M 0 0 V -14.0761 H -19.95" /><circle class="sym" cx="0" cy="0" r="3" /><text class="lab rgt" transform="translate(3 -7.0)">30</text></g><path class="edge" d="M 0 0 V -16.1344 H 26.125" /><circle class="sym" cx="0" cy="0" r="3" /><text class="lab lft" transform="translate(-3 -7.0)">32</text></g><circle class="sym" cx="0" cy="0" r="3" /><text class="lab" transform="translate(0 -11)">33</text></g></g></g></g></g></svg>
