<svg baseProfile="full" height="200" version="1.1" width="1400" xmlns="http://www.w3.org/2000/svg" xmlns:ev="http://www.w3.org/2001/xml-events" xmlns:xlink="http://www.w3.org/1999/xlink"><defs><style type="text/css"><![CDATA[.background path {fill: #808080; fill-opacity: 0}.background path:nth-child(odd) {fill-opacity: .1}.axes {font-size: 14px}.x-axis .tick .lab {font-weight: bold; dominant-baseline: hanging}.axes, .tree {font-size: 14px; text-anchor: middle}.axes line, .edge {stroke: black; fill: none}.y-axis .grid {stroke: #FAFAFA}.node > .sym {fill: black; stroke: none}.site > .sym {stroke: black}.mut text {fill: red; font-style: italic}.mut.extra text {fill: hotpink}.mut line {fill: none; stroke: none}.mut .sym {fill: none; stroke: red}.mut.extra .sym {stroke: hotpink}.node .mut .sym {stroke-width: 1.5px}.tree text, .tree-sequence text {dominant-baseline: central}.plotbox .lab.lft {text-anchor: end}.plotbox .lab.rgt {text-anchor: start}]]></style></defs><g class="tree-sequence"><g class="background"><path d="M20,0 l194.286,0 l0,138.2 l-151.086,25 l0,5 l-43.1998,0 l0,-5 l0,-25 l0,-138.2z" /><path d="M214.286,0 l194.286,0 l0,138.2 l-215.693,25 l0,5 l-129.678,0 l0,-5 l151.086,-25 l0,-138.2z" /><path d="M408.571,0 l194.286,0 l0,138.2 l-82.2388,25 l0,5 l-327.74,0 l0,-5 l215.693,-25 l0,-138.2z" /><path d="M602.857,0 l194.286,0 l0,138.2 l-146.236,25 l0,5 l-130.288,0 l0,-5 l82.2388,-25 l0,-138.2z" /><path d="M797.143,0 l194.286,0 l0,138.2 l1.86269,25 l0,5 l-342.385,0 l0,-5 l146.236,-25 l0,-138.2z" /><path d="M991.429,0 l194.286,0 l0,138.2 l102.755,25 l0,5 l-295.178,0 l0,-5 l-1.86269,-25 l0,-138.2z" /><path d="M1185.71,0 l194.286,0 l0,138.2 l0,25 l0,5 l-91.5303,0 l0,-5 l-102.755,-25 l0,-138.2z" /></g><g class="axes"><g class="x-axis"><g transform="translate(700 200)"><text class="lab" text-anchor="middle" transform="translate(0 -11)">Genome position</text></g><line x1="20" x2="1380" y1="163.2" y2="163.2" /><g class="ticks"><g class="tick" transform="translate(20 163.2)"><line x1="0" x2="0" y1="0" y2="5" /><g transform="translate(0 6)"><text class="lab">0.00</text></g></g><g class="tick" transform="translate(63.1998 163.2)"><line x1="0" x2="0" y1="0" y2="5" /><g transform="translate(0 6)"><text class="lab">31.76</text></g></g><g class="tick" transform="translate(192.878 163.2)"><line x1="0" x2="0" y1="0" y2="5" /><g transform="translate(0 6)"><text class="lab">127.12</text></g></g><g class="tick" transform="translate(520.618 163.2)"><line x1="0" x2="0" y1="0" y2="5" /><g transform="translate(0 6)"><text class="lab">368.10</text></g></g><g class="tick" transform="translate(650.907 163.2)"><line x1="0" x2="0" y1="0" y2="5" /><g transform="translate(0 6)"><text class="lab">463.90</text></g></g><g class="tick" transform="translate(993.291 163.2)"><line x1="0" x2="0" y1="0" y2="5" /><g transform="translate(0 6)"><text class="lab">715.66</text></g></g><g class="tick" transform="translate(1288.47 163.2)"><line x1="0" x2="0" y1="0" y2="5" /><g transform="translate(0 6)"><text class="lab">932.70</text></g></g><g class="tick" transform="translate(1380 163.2)"><line x1="0" x2="0" y1="0" y2="5" /><g transform="translate(0 6)"><text class="lab">1000.00</text></g></g></g></g></g><g class="plotbox trees"><g class="tree t0" transform="translate(20 0)"><g class="plotbox"><g class="c2 node n36 p0 root" transform="translate(110.161 26.8)"><g class="a36 c1 node n33 p0" transform="translate(37.125 41.7249)"><g class="a33 c1 node n30 p0" transform="translate(0.0 5.10331)"><g class="a30 c2 node n15 p0" transform="translate(0.0 39.767)"><g class="a15 leaf node n2 p0 sample" transform="translate(-11.5714 8.00483)"><path class="edge" d="M 0 0 V -8.00483 H 11.5714" /><rect class="sym" height="6" width="6" x="-3" y="-3" /><text class="lab" transform="translate(0 11)">2</text></g><g class="a15 c2 node n10 p0" transform="translate(11.5714 7.05567)"><g class="a10 leaf node n7 p0 sample" transform="translate(-7.71429 0.949164)"><path class="edge" d="M 0 0 V -0.949164 H 7.71429" /><rect class="sym" height="6" width="6" x="-3" y="-3" /><text class="lab" transform="translate(0 11)">7</text></g><g class="a10 leaf node n9 p0 sample" transform="translate(7.71429 0.949164)"><path class="edge" d="M 0 0 V -0.949164 H -7.71429" /><rect class="sym" height="6" width="6" x="-3" y="-3" /><text class="lab" transform="translate(0 11)">9</text></g><path class="edge" d="M 0 0 V -7.05567 H -11.5714" /><circle class="sym" cx="0" cy="0" r="3" /><text class="lab rgt" transform="translate(3 -7.0)">10</text></g><path class="edge" d="M 0 0 V -39.767 H 0.0" /><circle class="sym" cx="0" cy="0" r="3" /><text class="lab lft" transform="translate(-3 -7.0)">15</text></g><path class="edge" d="M 0 0 V -5.10331 H 0.0" /><circle class="sym" cx="0" cy="0" r="3" /><text class="lab lft" transform="translate(-3 -7.0)">30</text></g><path class="edge" d="M 0 0 V -41.7249 H -37.125" /><circle class="sym" cx="0" cy="0" r="3" /><text class="lab rgt" transform="translate(3 -7.0)">33</text></g><g class="a36 c2 node n35 p0" transform="translate(-37.125 30.0489)"><g class="a35 c2 node n26 p0" transform="translate(33.75 33.9183)"><g class="a26 leaf node n4 p0 sample" transform="translate(13.5 30.6329)"><path class="edge" d="M 0 0 V -30.6329 H -13.5" /><rect class="sym" height="6" width="6" x="-3" y="-3" /><text class="lab" transform="translate(0 11)">4</text></g><g class="a26 c2 node n25 p0" transform="translate(-13.5 0.255549)"><g class="a25 leaf node n5 p0 sample" transform="translate(11.5714 30.3773)"><path class="edge" d="M 0 0 V -30.3773 H -11.5714" /><rect class="sym" height="6" width="6" x="-3" y="-3" /><text class="lab" transform="translate(0 11)">5</text></g><g class="a25 c1 node n22 p0" transform="translate(-11.5714 11.5162)"><g class="a22 c2 node n19 p0" transform="translate(0.0 4.67642)"><g class="a19 leaf node n1 p0 sample" transform="translate(-7.71429 14.1847)"><path class="edge" d="M 0 0 V -14.1847 H 7.71429" /><rect class="sym" height="6" width="6" x="-3" y="-3" /><text class="lab" transform="translate(0 11)">1</text></g><g class="a19 c1 node n13 p0" transform="translate(7.71429 11.2782)"><g class="a13 leaf node n3 p0 sample" transform="translate(0.0 2.90651)"><path class="edge" d="M 0 0 V -2.90651 H 0.0" /><rect class="sym" height="6" width="6" x="-3" y="-3" /><text class="lab" transform="translate(0 11)">3</text></g><path class="edge" d="M 0 0 V -11.2782 H -7.71429" /><circle class="sym" cx="0" cy="0" r="3" /><text class="lab rgt" transform="translate(3 -7.0)">13</text></g><path class="edge" d="M 0 0 V -4.67642 H 0.0" /><circle class="sym" cx="0" cy="0" r="3" /><text class="lab lft" transform="translate(-3 -7.0)">19</text></g><path class="edge" d="M 0 0 V -11.5162 H 11.5714" /><circle class="sym" cx="0" cy="0" r="3" /><text class="lab lft" transform="translate(-3 -7.0)">22</text></g><path class="edge" d="M 0 0 V -0.255549 H 13.5" /><circle class="sym" cx="0" cy="0" r="3" /><text class="lab lft" transform="translate(-3 -7.0)">25</text></g><path class="edge" d="M 0 0 V -33.9183 H -33.75" /><circle class="sym" cx="0" cy="0" r="3" /><text class="lab rgt" transform="translate(3 -7.0)">26</text></g><g class="a35 c1 node n34 p0" transform="translate(-33.75 4.79981)"><g class="a34 c1 node n31 p0" transform="translate(0.0 10.9555)"><g class="a31 c1 node n28 p0" transform="translate(0.0 2.61756)"><g class="a28 c1 node n27 p0" transform="translate(0.0 3.07218)"><g class="a27 c1 node n20 p0" transform="translate(0.0 25.7788)"><g class="a20 c1 node n17 p0" transform="translate(0.0 3.19447)"><g class="a17 c2 node n16 p0" transform="translate(0.0 5.12084)"><g class="a16 leaf node n0 p0 sample" transform="translate(-11.5714 9.01197)"><path class="edge" d="M 0 0 V -9.01197 H 11.5714" /><rect class="sym" height="6" width="6" x="-3" y="-3" /><text class="lab" transform="translate(0 11)">0</text></g><g class="a16 c2 node n14 p0" transform="translate(11.5714 2.34061)"><g class="a14 leaf node n8 p0 sample" transform="translate(7.71429 6.67136)"><path class="edge" d="M 0 0 V -6.67136 H -7.71429" /><rect class="sym" height="6" width="6" x="-3" y="-3" /><text class="lab" transform="translate(0 11)">8</text></g><g class="a14 c1 node n11 p0" transform="translate(-7.71429 5.31696)"><g class="a11 leaf node n6 p0 sample" transform="translate(0.0 1.3544)"><path class="edge" d="M 0 0 V -1.3544 H 0.0" /><rect class="sym" height="6" width="6" x="-3" y="-3" /><text class="lab" transform="translate(0 11)">6</text></g><path class="edge" d="M 0 0 V -5.31696 H 7.71429" /><circle class="sym" cx="0" cy="0" r="3" /><text class="lab lft" transform="translate(-3 -7.0)">11</text></g><path class="edge" d="M 0 0 V -2.34061 H -11.5714" /><circle class="sym" cx="0" cy="0" r="3" /><text class="lab rgt" transform="translate(3 -7.0)">14</text></g><path class="edge" d="M 0 0 V -5.12084 H 0.0" /><circle class="sym" cx="0" cy="0" r="3" /><text class="lab lft" transform="translate(-3 -7.0)">16</text></g><path class="edge" d="M 0 0 V -3.19447 H 0.0" /><circle class="sym" cx="0" cy="0" r="3" /><text class="lab lft" transform="translate(-3 -7.0)">17</text></g><path class="edge" d="M 0 0 V -25.7788 H 0.0" /><circle class="sym" cx="0" cy="0" r="3" /><text class="lab lft" transform="translate(-3 -7.0)">20</text></g><path class="edge" d="M 0 0 V -3.07218 H 0.0" /><circle class="sym" cx="0" cy="0" r="3" /><text class="lab lft" transform="translate(-3 -7.0)">27</text></g><path class="edge" d="M 0 0 V -2.61756 H 0.0" /><circle class="sym" cx="0" cy="0" r="3" /><text class="lab lft" transform="translate(-3 -7.0)">28</text></g><path class="edge" d="M 0 0 V -10.9555 H 0.0" /><circle class="sym" cx="0" cy="0" r="3" /><text class="lab lft" transform="translate(-3 -7.0)">31</text></g><path class="edge" d="M 0 0 V -4.79981 H 33.75" /><circle class="sym" cx="0" cy="0" r="3" /><text class="lab lft" transform="translate(-3 -7.0)">34</text></g><path class="edge" d="M 0 0 V -30.0489 H 37.125" /><circle class="sym" cx="0" cy="0" r="3" /><text class="lab lft" transform="translate(-3 -7.0)">35</text></g><circle class="sym" cx="0" cy="0" r="3" /><text class="lab" transform="translate(0 -11)">36</text></g></g></g><g class="tree t1" transform="translate(214.286 0)"><g class="plotbox"><g class="c2 node n36 p0 root" transform="translate(107.75 26.8)"><g class="a36 c2 node n33 p0" transform="translate(-45.3214 41.7249)"><g class="a33 c1 node n30 p0" transform="translate(23.1429 5.10331)"><g class="a30 c2 node n15 p0" transform="translate(0.0 39.767)"><g class="a15 leaf node n2 p0 sample" transform="translate(-11.5714 8.00483)"><path class="edge" d="M 0 0 V -8.00483 H 11.5714" /><rect class="sym" height="6" width="6" x="-3" y="-3" /><text class="lab" transform="translate(0 11)">2</text></g><g class="a15 c2 node n10 p0" transform="translate(11.5714 7.05567)"><g class="a10 leaf node n7 p0 sample" transform="translate(-7.71429 0.949164)"><path class="edge" d="M 0 0 V -0.949164 H 7.71429" /><rect class="sym" height="6" width="6" x="-3" y="-3" /><text class="lab" transform="translate(0 11)">7</text></g><g class="a10 leaf node n9 p0 sample" transform="translate(7.71429 0.949164)"><path class="edge" d="M 0 0 V -0.949164 H -7.71429" /><rect class="sym" height="6" width="6" x="-3" y="-3" /><text class="lab" transform="translate(0 11)">9</text></g><path class="edge" d="M 0 0 V -7.05567 H -11.5714" /><circle class="sym" cx="0" cy="0" r="3" /><text class="lab rgt" transform="translate(3 -7.0)">10</text></g><path class="edge" d="M 0 0 V -39.767 H 0.0" /><circle class="sym" cx="0" cy="0" r="3" /><text class="lab lft" transform="translate(-3 -7.0)">15</text></g><path class="edge" d="M 0 0 V -5.10331 H -23.1429" /><circle class="sym" cx="0" cy="0" r="3" /><text class="lab rgt" transform="translate(3 -7.0)">30</text></g><g class="a33 c1 node n32 p0" transform="translate(-23.1429 4.07937)"><g class="a32 c1 node n28 p0" transform="translate(0.0 2.61756)"><g class="a28 c1 node n27 p0" transform="translate(0.0 3.07218)"><g class="a27 c1 node n20 p0" transform="translate(0.0 25.7788)"><g class="a20 c1 node n17 p0" transform="translate(0.0 3.19447)"><g class="a17 c2 node n16 p0" transform="translate(0.0 5.12084)"><g class="a16 leaf node n0 p0 sample" transform="translate(-11.5714 9.01197)"><path class="edge" d="M 0 0 V -9.01197 H 11.5714" /><rect class="sym" height="6" width="6" x="-3" y="-3" /><text class="lab" transform="translate(0 11)">0</text></g><g class="a16 c2 node n14 p0" transform="translate(11.5714 2.34061)"><g class="a14 leaf node n8 p0 sample" transform="translate(7.71429 6.67136)"><path class="edge" d="M 0 0 V -6.67136 H -7.71429" /><rect class="sym" height="6" width="6" x="-3" y="-3" /><text class="lab" transform="translate(0 11)">8</text></g><g class="a14 c1 node n11 p0" transform="translate(-7.71429 5.31696)"><g class="a11 leaf node n6 p0 sample" transform="translate(0.0 1.3544)"><path class="edge" d="M 0 0 V -1.3544 H 0.0" /><rect class="sym" height="6" width="6" x="-3" y="-3" /><text class="lab" transform="translate(0 11)">6</text></g><path class="edge" d="M 0 0 V -5.31696 H 7.71429" /><circle class="sym" cx="0" cy="0" r="3" /><text class="lab lft" transform="translate(-3 -7.0)">11</text></g><path class="edge" d="M 0 0 V -2.34061 H -11.5714" /><circle class="sym" cx="0" cy="0" r="3" /><text class="lab rgt" transform="translate(3 -7.0)">14</text></g><path class="edge" d="M 0 0 V -5.12084 H 0.0" /><circle class="sym" cx="0" cy="0" r="3" /><text class="lab lft" transform="translate(-3 -7.0)">16</text></g><path class="edge" d="M 0 0 V -3.19447 H 0.0" /><circle class="sym" cx="0" cy="0" r="3" /><text class="lab lft" transform="translate(-3 -7.0)">17</text></g><path class="edge" d="M 0 0 V -25.7788 H 0.0" /><circle class="sym" cx="0" cy="0" r="3" /><text class="lab lft" transform="translate(-3 -7.0)">20</text></g><path class="edge" d="M 0 0 V -3.07218 H 0.0" /><circle class="sym" cx="0" cy="0" r="3" /><text class="lab lft" transform="translate(-3 -7.0)">27</text></g><path class="edge" d="M 0 0 V -2.61756 H 0.0" /><circle class="sym" cx="0" cy="0" r="3" /><text class="lab lft" transform="translate(-3 -7.0)">28</text></g><path class="edge" d="M 0 0 V -4.07937 H 23.1429" /><circle class="sym" cx="0" cy="0" r="3" /><text class="lab lft" transform="translate(-3 -7.0)">32</text></g><path class="edge" d="M 0 0 V -41.7249 H 45.3214" /><circle class="sym" cx="0" cy="0" r="3" /><text class="lab lft" transform="translate(-3 -7.0)">33</text></g><g class="a36 c1 node n35 p0" transform="translate(45.3214 30.0489)"><g class="a35 c2 node n26 p0" transform="translate(0.0 33.9183)"><g class="a26 leaf node n4 p0 sample" transform="translate(13.5 30.6329)"><path class="edge" d="M 0 0 V -30.6329 H -13.5" /><rect class="sym" height="6" width="6" x="-3" y="-3" /><text class="lab" transform="translate(0 11)">4</text></g><g class="a26 c2 node n25 p0" transform="translate(-13.5 0.255549)"><g class="a25 leaf node n5 p0 sample" transform="translate(11.5714 30.3773)"><path class="edge" d="M 0 0 V -30.3773 H -11.5714" /><rect class="sym" height="6" width="6" x="-3" y="-3" /><text class="lab" transform="translate(0 11)">5</text></g><g class="a25 c1 node n22 p0" transform="translate(-11.5714 11.5162)"><g class="a22 c2 node n19 p0" transform="translate(0.0 4.67642)"><g class="a19 leaf node n1 p0 sample" transform="translate(-7.71429 14.1847)"><path class="edge" d="M 0 0 V -14.1847 H 7.71429" /><rect class="sym" height="6" width="6" x="-3" y="-3" /><text class="lab" transform="translate(0 11)">1</text></g><g class="a19 c1 node n13 p0" transform="translate(7.71429 11.2782)"><g class="a13 leaf node n3 p0 sample" transform="translate(0.0 2.90651)"><path class="edge" d="M 0 0 V -2.90651 H 0.0" /><rect class="sym" height="6" width="6" x="-3" y="-3" /><text class="lab" transform="translate(0 11)">3</text></g><path class="edge" d="M 0 0 V -11.2782 H -7.71429" /><circle class="sym" cx="0" cy="0" r="3" /><text class="lab rgt" transform="translate(3 -7.0)">13</text></g><path class="edge" d="M 0 0 V -4.67642 H 0.0" /><circle class="sym" cx="0" cy="0" r="3" /><text class="lab lft" transform="translate(-3 -7.0)">19</text></g><path class="edge" d="M 0 0 V -11.5162 H 11.5714" /><circle class="sym" cx="0" cy="0" r="3" /><text class="lab lft" transform="translate(-3 -7.0)">22</text></g><path class="edge" d="M 0 0 V -0.255549 H 13.5" /><circle class="sym" cx="0" cy="0" r="3" /><text class="lab lft" transform="translate(-3 -7.0)">25</text></g><path class="edge" d="M 0 0 V -33.9183 H 0.0" /><circle class="sym" cx="0" cy="0" r="3" /><text class="lab lft" transform="translate(-3 -7.0)">26</text></g><path class="edge" d="M 0 0 V -30.0489 H -45.3214" /><circle class="sym" cx="0" cy="0" r="3" /><text class="lab rgt" transform="translate(3 -7.0)">35</text></g><circle class="sym" cx="0" cy="0" r="3" /><text class="lab" transform="translate(0 -11)">36</text></g></g></g><g class="tree t2" transform="translate(408.571 0)"><g class="plotbox"><g class="c2 node n36 p0 root" transform="translate(107.75 26.8)"><g class="a36 c1 node n33 p0" transform="translate(-45.3214 41.7249)"><g class="a33 c2 node n30 p0" transform="translate(0.0 5.10331)"><g class="a30 c2 node n15 p0" transform="translate(23.1429 39.767)"><g class="a15 leaf node n2 p0 sample" transform="translate(-11.5714 8.00483)"><path class="edge" d="M 0 0 V -8.00483 H 11.5714" /><rect class="sym" height="6" width="6" x="-3" y="-3" /><text class="lab" transform="translate(0 11)">2</text></g><g class="a15 c2 node n10 p0" transform="translate(11.5714 7.05567)"><g class="a10 leaf node n7 p0 sample" transform="translate(-7.71429 0.949164)"><path class="edge" d="M 0 0 V -0.949164 H 7.71429" /><rect class="sym" height="6" width="6" x="-3" y="-3" /><text class="lab" transform="translate(0 11)">7</text></g><g class="a10 leaf node n9 p0 sample" transform="translate(7.71429 0.949164)"><path class="edge" d="M 0 0 V -0.949164 H -7.71429" /><rect class="sym" height="6" width="6" x="-3" y="-3" /><text class="lab" transform="translate(0 11)">9</text></g><path class="edge" d="M 0 0 V -7.05567 H -11.5714" /><circle class="sym" cx="0" cy="0" r="3" /><text class="lab rgt" transform="translate(3 -7.0)">10</text></g><path class="edge" d="M 0 0 V -39.767 H -23.1429" /><circle class="sym" cx="0" cy="0" r="3" /><text class="lab rgt" transform="translate(3 -7.0)">15</text></g><g class="a30 c1 node n29 p0" transform="translate(-23.1429 1.59362)"><g class="a29 c1 node n27 p0" transform="translate(0.0 3.07218)"><g class="a27 c1 node n20 p0" transform="translate(0.0 25.7788)"><g class="a20 c1 node n17 p0" transform="translate(0.0 3.19447)"><g class="a17 c2 node n16 p0" transform="translate(0.0 5.12084)"><g class="a16 leaf node n0 p0 sample" transform="translate(-11.5714 9.01197)"><path class="edge" d="M 0 0 V -9.01197 H 11.5714" /><rect class="sym" height="6" width="6" x="-3" y="-3" /><text class="lab" transform="translate(0 11)">0</text></g><g class="a16 c2 node n14 p0" transform="translate(11.5714 2.34061)"><g class="a14 leaf node n8 p0 sample" transform="translate(7.71429 6.67136)"><path class="edge" d="M 0 0 V -6.67136 H -7.71429" /><rect class="sym" height="6" width="6" x="-3" y="-3" /><text class="lab" transform="translate(0 11)">8</text></g><g class="a14 c1 node n11 p0" transform="translate(-7.71429 5.31696)"><g class="a11 leaf node n6 p0 sample" transform="translate(0.0 1.3544)"><path class="edge" d="M 0 0 V -1.3544 H 0.0" /><rect class="sym" height="6" width="6" x="-3" y="-3" /><text class="lab" transform="translate(0 11)">6</text></g><path class="edge" d="M 0 0 V -5.31696 H 7.71429" /><circle class="sym" cx="0" cy="0" r="3" /><text class="lab lft" transform="translate(-3 -7.0)">11</text></g><path class="edge" d="M 0 0 V -2.34061 H -11.5714" /><circle class="sym" cx="0" cy="0" r="3" /><text class="lab rgt" transform="translate(3 -7.0)">14</text></g><path class="edge" d="M 0 0 V -5.12084 H 0.0" /><circle class="sym" cx="0" cy="0" r="3" /><text class="lab lft" transform="translate(-3 -7.0)">16</text></g><path class="edge" d="M 0 0 V -3.19447 H 0.0" /><circle class="sym" cx="0" cy="0" r="3" /><text class="lab lft" transform="translate(-3 -7.0)">17</text></g><path class="edge" d="M 0 0 V -25.7788 H 0.0" /><circle class="sym" cx="0" cy="0" r="3" /><text class="lab lft" transform="translate(-3 -7.0)">20</text></g><path class="edge" d="M 0 0 V -3.07218 H 0.0" /><circle class="sym" cx="0" cy="0" r="3" /><text class="lab lft" transform="translate(-3 -7.0)">27</text></g><path class="edge" d="M 0 0 V -1.59362 H 23.1429" /><circle class="sym" cx="0" cy="0" r="3" /><text class="lab lft" transform="translate(-3 -7.0)">29</text></g><path class="edge" d="M 0 0 V -5.10331 H 0.0" /><circle class="sym" cx="0" cy="0" r="3" /><text class="lab lft" transform="translate(-3 -7.0)">30</text></g><path class="edge" d="M 0 0 V -41.7249 H 45.3214" /><circle class="sym" cx="0" cy="0" r="3" /><text class="lab lft" transform="translate(-3 -7.0)">33</text></g><g class="a36 c1 node n35 p0" transform="translate(45.3214 30.0489)"><g class="a35 c2 node n26 p0" transform="translate(0.0 33.9183)"><g class="a26 leaf node n4 p0 sample" transform="translate(13.5 30.6329)"><path class="edge" d="M 0 0 V -30.6329 H -13.5" /><rect class="sym" height="6" width="6" x="-3" y="-3" /><text class="lab" transform="translate(0 11)">4</text></g><g class="a26 c2 node n25 p0" transform="translate(-13.5 0.255549)"><g class="a25 leaf node n5 p0 sample" transform="translate(11.5714 30.3773)"><path class="edge" d="M 0 0 V -30.3773 H -11.5714" /><rect class="sym" height="6" width="6" x="-3" y="-3" /><text class="lab" transform="translate(0 11)">5</text></g><g class="a25 c1 node n22 p0" transform="translate(-11.5714 11.5162)"><g class="a22 c2 node n19 p0" transform="translate(0.0 4.67642)"><g class="a19 leaf node n1 p0 sample" transform="translate(-7.71429 14.1847)"><path class="edge" d="M 0 0 V -14.1847 H 7.71429" /><rect class="sym" height="6" width="6" x="-3" y="-3" /><text class="lab" transform="translate(0 11)">1</text></g><g class="a19 c1 node n13 p0" transform="translate(7.71429 11.2782)"><g class="a13 leaf node n3 p0 sample" transform="translate(0.0 2.90651)"><path class="edge" d="M 0 0 V -2.90651 H 0.0" /><rect class="sym" height="6" width="6" x="-3" y="-3" /><text class="lab" transform="translate(0 11)">3</text></g><path class="edge" d="M 0 0 V -11.2782 H -7.71429" /><circle class="sym" cx="0" cy="0" r="3" /><text class="lab rgt" transform="translate(3 -7.0)">13</text></g><path class="edge" d="M 0 0 V -4.67642 H 0.0" /><circle class="sym" cx="0" cy="0" r="3" /><text class="lab lft" transform="translate(-3 -7.0)">19</text></g><path class="edge" d="M 0 0 V -11.5162 H 11.5714" /><circle class="sym" cx="0" cy="0" r="3" /><text class="lab lft" transform="translate(-3 -7.0)">22</text></g><path class="edge" d="M 0 0 V -0.255549 H 13.5" /><circle class="sym" cx="0" cy="0" r="3" /><text class="lab lft" transform="translate(-3 -7.0)">25</text></g><path class="edge" d="M 0 0 V -33.9183 H 0.0" /><circle class="sym" cx="0" cy="0" r="3" /><text class="lab lft" transform="translate(-3 -7.0)">26</text></g><path class="edge" d="M 0 0 V -30.0489 H -45.3214" /><circle class="sym" cx="0" cy="0" r="3" /><text class="lab rgt" transform="translate(3 -7.0)">35</text></g><circle class="sym" cx="0" cy="0" r="3" /><text class="lab" transform="translate(0 -11)">36</text></g></g></g><g class="tree t3" transform="translate(602.857 0)"><g class="plotbox"><g class="c2 node n36 p0 root" transform="translate(124.384 26.8)"><g class="a36 c1 node n33 p0" transform="translate(22.9018 41.7249)"><g class="a33 c1 node n30 p0" transform="translate(0.0 5.10331)"><g class="a30 c2 node n15 p0" transform="translate(0.0 39.767)"><g class="a15 leaf node n2 p0 sample" transform="translate(-11.5714 8.00483)"><path class="edge" d="M 0 0 V -8.00483 H 11.5714" /><rect class="sym" height="6" width="6" x="-3" y="-3" /><text class="lab" transform="translate(0 11)">2</text></g><g class="a15 c2 node n10 p0" transform="translate(11.5714 7.05567)"><g class="a10 leaf node n7 p0 sample" transform="translate(-7.71429 0.949164)"><path class="edge" d="M 0 0 V -0.949164 H 7.71429" /><rect class="sym" height="6" width="6" x="-3" y="-3" /><text class="lab" transform="translate(0 11)">7</text></g><g class="a10 leaf node n9 p0 sample" transform="translate(7.71429 0.949164)"><path class="edge" d="M 0 0 V -0.949164 H -7.71429" /><rect class="sym" height="6" width="6" x="-3" y="-3" /><text class="lab" transform="translate(0 11)">9</text></g><path class="edge" d="M 0 0 V -7.05567 H -11.5714" /><circle class="sym" cx="0" cy="0" r="3" /><text class="lab rgt" transform="translate(3 -7.0)">10</text></g><path class="edge" d="M 0 0 V -39.767 H 0.0" /><circle class="sym" cx="0" cy="0" r="3" /><text class="lab lft" transform="translate(-3 -7.0)">15</text></g><path class="edge" d="M 0 0 V -5.10331 H 0.0" /><circle class="sym" cx="0" cy="0" r="3" /><text class="lab lft" transform="translate(-3 -7.0)">30</text></g><path class="edge" d="M 0 0 V -41.7249 H -22.9018" /><circle class="sym" cx="0" cy="0" r="3" /><text class="lab rgt" transform="translate(3 -7.0)">33</text></g><g class="a36 c1 node n35 p0" transform="translate(-22.9018 30.0489)"><g class="a35 c2 node n26 p0" transform="translate(0.0 33.9183)"><g class="a26 leaf node n4 p0 sample" transform="translate(18.8036 30.6329)"><path class="edge" d="M 0 0 V -30.6329 H -18.8036" /><rect class="sym" height="6" width="6" x="-3" y="-3" /><text class="lab" transform="translate(0 11)">4</text></g><g class="a26 c2 node n25 p0" transform="translate(-18.8036 0.255549)"><g class="a25 leaf node n5 p0 sample" transform="translate(22.1786 30.3773)"><path class="edge" d="M 0 0 V -30.3773 H -22.1786" /><rect class="sym" height="6" width="6" x="-3" y="-3" /><text class="lab" transform="translate(0 11)">5</text></g><g class="a25 c2 node n22 p0" transform="translate(-22.1786 11.5162)"><g class="a22 c2 node n19 p0" transform="translate(21.2143 4.67642)"><g class="a19 leaf node n1 p0 sample" transform="translate(-7.71429 14.1847)"><path class="edge" d="M 0 0 V -14.1847 H 7.71429" /><rect class="sym" height="6" width="6" x="-3" y="-3" /><text class="lab" transform="translate(0 11)">1</text></g><g class="a19 c1 node n13 p0" transform="translate(7.71429 11.2782)"><g class="a13 leaf node n3 p0 sample" transform="translate(0.0 2.90651)"><path class="edge" d="M 0 0 V -2.90651 H 0.0" /><rect class="sym" height="6" width="6" x="-3" y="-3" /><text class="lab" transform="translate(0 11)">3</text></g><path class="edge" d="M 0 0 V -11.2782 H -7.71429" /><circle class="sym" cx="0" cy="0" r="3" /><text class="lab rgt" transform="translate(3 -7.0)">13</text></g><path class="edge" d="M 0 0 V -4.67642 H -21.2143" /><circle class="sym" cx="0" cy="0" r="3" /><text class="lab rgt" transform="translate(3 -7.0)">19</text></g><g class="a22 c1 node n21 p0" transform="translate(-21.2143 1.53382)"><g class="a21 c1 node n17 p0" transform="translate(0.0 3.19447)"><g class="a17 c2 node n16 p0" transform="translate(0.0 5.12084)"><g class="a16 leaf node n0 p0 sample" transform="translate(-11.5714 9.01197)"><path class="edge" d="M 0 0 V -9.01197 H 11.5714" /><rect class="sym" height="6" width="6" x="-3" y="-3" /><text class="lab" transform="translate(0 11)">0</text></g><g class="a16 c2 node n14 p0" transform="translate(11.5714 2.34061)"><g class="a14 leaf node n8 p0 sample" transform="translate(7.71429 6.67136)"><path class="edge" d="M 0 0 V -6.67136 H -7.71429" /><rect class="sym" height="6" width="6" x="-3" y="-3" /><text class="lab" transform="translate(0 11)">8</text></g><g class="a14 c1 node n11 p0" transform="translate(-7.71429 5.31696)"><g class="a11 leaf node n6 p0 sample" transform="translate(0.0 1.3544)"><path class="edge" d="M 0 0 V -1.3544 H 0.0" /><rect class="sym" height="6" width="6" x="-3" y="-3" /><text class="lab" transform="translate(0 11)">6</text></g><path class="edge" d="M 0 0 V -5.31696 H 7.71429" /><circle class="sym" cx="0" cy="0" r="3" /><text class="lab lft" transform="translate(-3 -7.0)">11</text></g><path class="edge" d="M 0 0 V -2.34061 H -11.5714" /><circle class="sym" cx="0" cy="0" r="3" /><text class="lab rgt" transform="translate(3 -7.0)">14</text></g><path class="edge" d="M 0 0 V -5.12084 H 0.0" /><circle class="sym" cx="0" cy="0" r="3" /><text class="lab lft" transform="translate(-3 -7.0)">16</text></g><path class="edge" d="M 0 0 V -3.19447 H 0.0" /><circle class="sym" cx="0" cy="0" r="3" /><text class="lab lft" transform="translate(-3 -7.0)">17</text></g><path class="edge" d="M 0 0 V -1.53382 H 21.2143" /><circle class="sym" cx="0" cy="0" r="3" /><text class="lab lft" transform="translate(-3 -7.0)">21</text></g><path class="edge" d="M 0 0 V -11.5162 H 22.1786" /><circle class="sym" cx="0" cy="0" r="3" /><text class="lab lft" transform="translate(-3 -7.0)">22</text></g><path class="edge" d="M 0 0 V -0.255549 H 18.8036" /><circle class="sym" cx="0" cy="0" r="3" /><text class="lab lft" transform="translate(-3 -7.0)">25</text></g><path class="edge" d="M 0 0 V -33.9183 H 0.0" /><circle class="sym" cx="0" cy="0" r="3" /><text class="lab lft" transform="translate(-3 -7.0)">26</text></g><path class="edge" d="M 0 0 V -30.0489 H 22.9018" /><circle class="sym" cx="0" cy="0" r="3" /><text class="lab lft" transform="translate(-3 -7.0)">35</text></g><circle class="sym" cx="0" cy="0" r="3" /><text class="lab" transform="translate(0 -11)">36</text></g></g></g><g class="tree t4" transform="translate(797.143 0)"><g class="plotbox"><g class="c2 node n36 p0 root" transform="translate(107.75 26.8)"><g class="a36 c1 node n33 p0" transform="translate(-45.3214 41.7249)"><g class="a33 c2 node n30 p0" transform="translate(0.0 5.10331)"><g class="a30 c2 node n15 p0" transform="translate(23.1429 39.767)"><g class="a15 leaf node n2 p0 sample" transform="translate(-11.5714 8.00483)"><path class="edge" d="M 0 0 V -8.00483 H 11.5714" /><rect class="sym" height="6" width="6" x="-3" y="-3" /><text class="lab" transform="translate(0 11)">2</text></g><g class="a15 c2 node n10 p0" transform="translate(11.5714 7.05567)"><g class="a10 leaf node n7 p0 sample" transform="translate(-7.71429 0.949164)"><path class="edge" d="M 0 0 V -0.949164 H 7.71429" /><rect class="sym" height="6" width="6" x="-3" y="-3" /><text class="lab" transform="translate(0 11)">7</text></g><g class="a10 leaf node n9 p0 sample" transform="translate(7.71429 0.949164)"><path class="edge" d="M 0 0 V -0.949164 H -7.71429" /><rect class="sym" height="6" width="6" x="-3" y="-3" /><text class="lab" transform="translate(0 11)">9</text></g><path class="edge" d="M 0 0 V -7.05567 H -11.5714" /><circle class="sym" cx="0" cy="0" r="3" /><text class="lab rgt" transform="translate(3 -7.0)">10</text></g><path class="edge" d="M 0 0 V -39.767 H -23.1429" /><circle class="sym" cx="0" cy="0" r="3" /><text class="lab rgt" transform="translate(3 -7.0)">15</text></g><g class="a30 c1 node n29 p0" transform="translate(-23.1429 1.59362)"><g class="a29 c1 node n27 p0" transform="translate(0.0 3.07218)"><g class="a27 c1 node n23 p0" transform="translate(0.0 13.4636)"><g class="a23 c1 node n18 p0" transform="translate(0.0 15.5096)"><g class="a18 c2 node n16 p0" transform="translate(0.0 5.12084)"><g class="a16 leaf node n0 p0 sample" transform="translate(-11.5714 9.01197)"><path class="edge" d="M 0 0 V -9.01197 H 11.5714" /><rect class="sym" height="6" width="6" x="-3" y="-3" /><text class="lab" transform="translate(0 11)">0</text></g><g class="a16 c2 node n14 p0" transform="translate(11.5714 2.34061)"><g class="a14 leaf node n8 p0 sample" transform="translate(7.71429 6.67136)"><path class="edge" d="M 0 0 V -6.67136 H -7.71429" /><rect class="sym" height="6" width="6" x="-3" y="-3" /><text class="lab" transform="translate(0 11)">8</text></g><g class="a14 c1 node n11 p0" transform="translate(-7.71429 5.31696)"><g class="a11 leaf node n6 p0 sample" transform="translate(0.0 1.3544)"><path class="edge" d="M 0 0 V -1.3544 H 0.0" /><rect class="sym" height="6" width="6" x="-3" y="-3" /><text class="lab" transform="translate(0 11)">6</text></g><path class="edge" d="M 0 0 V -5.31696 H 7.71429" /><circle class="sym" cx="0" cy="0" r="3" /><text class="lab lft" transform="translate(-3 -7.0)">11</text></g><path class="edge" d="M 0 0 V -2.34061 H -11.5714" /><circle class="sym" cx="0" cy="0" r="3" /><text class="lab rgt" transform="translate(3 -7.0)">14</text></g><path class="edge" d="M 0 0 V -5.12084 H 0.0" /><circle class="sym" cx="0" cy="0" r="3" /><text class="lab lft" transform="translate(-3 -7.0)">16</text></g><path class="edge" d="M 0 0 V -15.5096 H 0.0" /><circle class="sym" cx="0" cy="0" r="3" /><text class="lab lft" transform="translate(-3 -7.0)">18</text></g><path class="edge" d="M 0 0 V -13.4636 H 0.0" /><circle class="sym" cx="0" cy="0" r="3" /><text class="lab lft" transform="translate(-3 -7.0)">23</text></g><path class="edge" d="M 0 0 V -3.07218 H 0.0" /><circle class="sym" cx="0" cy="0" r="3" /><text class="lab lft" transform="translate(-3 -7.0)">27</text></g><path class="edge" d="M 0 0 V -1.59362 H 23.1429" /><circle class="sym" cx="0" cy="0" r="3" /><text class="lab lft" transform="translate(-3 -7.0)">29</text></g><path class="edge" d="M 0 0 V -5.10331 H 0.0" /><circle class="sym" cx="0" cy="0" r="3" /><text class="lab lft" transform="translate(-3 -7.0)">30</text></g><path class="edge" d="M 0 0 V -41.7249 H 45.3214" /><circle class="sym" cx="0" cy="0" r="3" /><text class="lab lft" transform="translate(-3 -7.0)">33</text></g><g class="a36 c1 node n35 p0" transform="translate(45.3214 30.0489)"><g class="a35 c2 node n26 p0" transform="translate(0.0 33.9183)"><g class="a26 leaf node n4 p0 sample" transform="translate(13.5 30.6329)"><path class="edge" d="M 0 0 V -30.6329 H -13.5" /><rect class="sym" height="6" width="6" x="-3" y="-3" /><text class="lab" transform="translate(0 11)">4</text></g><g class="a26 c2 node n25 p0" transform="translate(-13.5 0.255549)"><g class="a25 leaf node n5 p0 sample" transform="translate(11.5714 30.3773)"><path class="edge" d="M 0 0 V -30.3773 H -11.5714" /><rect class="sym" height="6" width="6" x="-3" y="-3" /><text class="lab" transform="translate(0 11)">5</text></g><g class="a25 c1 node n22 p0" transform="translate(-11.5714 11.5162)"><g class="a22 c2 node n19 p0" transform="translate(0.0 4.67642)"><g class="a19 leaf node n1 p0 sample" transform="translate(-7.71429 14.1847)"><path class="edge" d="M 0 0 V -14.1847 H 7.71429" /><rect class="sym" height="6" width="6" x="-3" y="-3" /><text class="lab" transform="translate(0 11)">1</text></g><g class="a19 c1 node n13 p0" transform="translate(7.71429 11.2782)"><g class="a13 leaf node n3 p0 sample" transform="translate(0.0 2.90651)"><path class="edge" d="M 0 0 V -2.90651 H 0.0" /><rect class="sym" height="6" width="6" x="-3" y="-3" /><text class="lab" transform="translate(0 11)">3</text></g><path class="edge" d="M 0 0 V -11.2782 H -7.71429" /><circle class="sym" cx="0" cy="0" r="3" /><text class="lab rgt" transform="translate(3 -7.0)">13</text></g><path class="edge" d="M 0 0 V -4.67642 H 0.0" /><circle class="sym" cx="0" cy="0" r="3" /><text class="lab lft" transform="translate(-3 -7.0)">19</text></g><path class="edge" d="M 0 0 V -11.5162 H 11.5714" /><circle class="sym" cx="0" cy="0" r="3" /><text class="lab lft" transform="translate(-3 -7.0)">22</text></g><path class="edge" d="M 0 0 V -0.255549 H 13.5" /><circle class="sym" cx="0" cy="0" r="3" /><text class="lab lft" transform="translate(-3 -7.0)">25</text></g><path class="edge" d="M 0 0 V -33.9183 H 0.0" /><circle class="sym" cx="0" cy="0" r="3" /><text class="lab lft" transform="translate(-3 -7.0)">26</text></g><path class="edge" d="M 0 0 V -30.0489 H -45.3214" /><circle class="sym" cx="0" cy="0" r="3" /><text class="lab rgt" transform="translate(3 -7.0)">35</text></g><circle class="sym" cx="0" cy="0" r="3" /><text class="lab" transform="translate(0 -11)">36</text></g></g></g><g class="tree t5" transform="translate(991.429 0)"><g class="plotbox"><g class="c2 node n36 p0 root" transform="translate(101.482 26.8)"><g class="a36 c1 node n33 p0" transform="translate(-48.6964 41.7249)"><g class="a33 c2 node n30 p0" transform="translate(0.0 5.10331)"><g class="a30 c2 node n15 p0" transform="translate(17.3571 39.767)"><g class="a15 leaf node n2 p0 sample" transform="translate(-11.5714 8.00483)"><path class="edge" d="M 0 0 V -8.00483 H 11.5714" /><rect class="sym" height="6" width="6" x="-3" y="-3" /><text class="lab" transform="translate(0 11)">2</text></g><g class="a15 c2 node n10 p0" transform="translate(11.5714 7.05567)"><g class="a10 leaf node n7 p0 sample" transform="translate(-7.71429 0.949164)"><path class="edge" d="M 0 0 V -0.949164 H 7.71429" /><rect class="sym" height="6" width="6" x="-3" y="-3" /><text class="lab" transform="translate(0 11)">7</text></g><g class="a10 leaf node n9 p0 sample" transform="translate(7.71429 0.949164)"><path class="edge" d="M 0 0 V -0.949164 H -7.71429" /><rect class="sym" height="6" width="6" x="-3" y="-3" /><text class="lab" transform="translate(0 11)">9</text></g><path class="edge" d="M 0 0 V -7.05567 H -11.5714" /><circle class="sym" cx="0" cy="0" r="3" /><text class="lab rgt" transform="translate(3 -7.0)">10</text></g><path class="edge" d="M 0 0 V -39.767 H -17.3571" /><circle class="sym" cx="0" cy="0" r="3" /><text class="lab rgt" transform="translate(3 -7.0)">15</text></g><g class="a30 c1 node n29 p0" transform="translate(-17.3571 1.59362)"><g class="a29 c1 node n27 p0" transform="translate(0.0 3.07218)"><g class="a27 c1 node n23 p0" transform="translate(0.0 13.4636)"><g class="a23 c1 node n18 p0" transform="translate(0.0 15.5096)"><g class="a18 c2 node n16 p0" transform="translate(0.0 5.12084)"><g class="a16 leaf node n0 p0 sample" transform="translate(-7.71429 9.01197)"><path class="edge" d="M 0 0 V -9.01197 H 7.71429" /><rect class="sym" height="6" width="6" x="-3" y="-3" /><text class="lab" transform="translate(0 11)">0</text></g><g class="a16 c1 node n14 p0" transform="translate(7.71429 2.34061)"><g class="a14 leaf node n8 p0 sample" transform="translate(0.0 6.67136)"><path class="edge" d="M 0 0 V -6.67136 H 0.0" /><rect class="sym" height="6" width="6" x="-3" y="-3" /><text class="lab" transform="translate(0 11)">8</text></g><path class="edge" d="M 0 0 V -2.34061 H -7.71429" /><circle class="sym" cx="0" cy="0" r="3" /><text class="lab rgt" transform="translate(3 -7.0)">14</text></g><path class="edge" d="M 0 0 V -5.12084 H 0.0" /><circle class="sym" cx="0" cy="0" r="3" /><text class="lab lft" transform="translate(-3 -7.0)">16</text></g><path class="edge" d="M 0 0 V -15.5096 H 0.0" /><circle class="sym" cx="0" cy="0" r="3" /><text class="lab lft" transform="translate(-3 -7.0)">18</text></g><path class="edge" d="M 0 0 V -13.4636 H 0.0" /><circle class="sym" cx="0" cy="0" r="3" /><text class="lab lft" transform="translate(-3 -7.0)">23</text></g><path class="edge" d="M 0 0 V -3.07218 H 0.0" /><circle class="sym" cx="0" cy="0" r="3" /><text class="lab lft" transform="translate(-3 -7.0)">27</text></g><path class="edge" d="M 0 0 V -1.59362 H 17.3571" /><circle class="sym" cx="0" cy="0" r="3" /><text class="lab lft" transform="translate(-3 -7.0)">29</text></g><path class="edge" d="M 0 0 V -5.10331 H 0.0" /><circle class="sym" cx="0" cy="0" r="3" /><text class="lab lft" transform="translate(-3 -7.0)">30</text></g><path class="edge" d="M 0 0 V -41.7249 H 48.6964" /><circle class="sym" cx="0" cy="0" r="3" /><text class="lab lft" transform="translate(-3 -7.0)">33</text></g><g class="a36 c1 node n35 p0" transform="translate(48.6964 30.0489)"><g class="a35 c2 node n26 p0" transform="translate(0.0 33.9183)"><g class="a26 leaf node n4 p0 sample" transform="translate(16.3929 30.6329)"><path class="edge" d="M 0 0 V -30.6329 H -16.3929" /><rect class="sym" height="6" width="6" x="-3" y="-3" /><text class="lab" transform="translate(0 11)">4</text></g><g class="a26 c2 node n25 p0" transform="translate(-16.3929 0.255549)"><g class="a25 leaf node n5 p0 sample" transform="translate(17.3571 30.3773)"><path class="edge" d="M 0 0 V -30.3773 H -17.3571" /><rect class="sym" height="6" width="6" x="-3" y="-3" /><text class="lab" transform="translate(0 11)">5</text></g><g class="a25 c1 node n22 p0" transform="translate(-17.3571 11.5162)"><g class="a22 c2 node n19 p0" transform="translate(0.0 4.67642)"><g class="a19 leaf node n1 p0 sample" transform="translate(-11.5714 14.1847)"><path class="edge" d="M 0 0 V -14.1847 H 11.5714" /><rect class="sym" height="6" width="6" x="-3" y="-3" /><text class="lab" transform="translate(0 11)">1</text></g><g class="a19 c2 node n13 p0" transform="translate(11.5714 11.2782)"><g class="a13 leaf node n3 p0 sample" transform="translate(-7.71429 2.90651)"><path class="edge" d="M 0 0 V -2.90651 H 7.71429" /><rect class="sym" height="6" width="6" x="-3" y="-3" /><text class="lab" transform="translate(0 11)">3</text></g><g class="a13 c1 node n12 p0" transform="translate(7.71429 1.55211)"><g class="a12 leaf node n6 p0 sample" transform="translate(0.0 1.3544)"><path class="edge" d="M 0 0 V -1.3544 H 0.0" /><rect class="sym" height="6" width="6" x="-3" y="-3" /><text class="lab" transform="translate(0 11)">6</text></g><path class="edge" d="M 0 0 V -1.55211 H -7.71429" /><circle class="sym" cx="0" cy="0" r="3" /><text class="lab rgt" transform="translate(3 -7.0)">12</text></g><path class="edge" d="M 0 0 V -11.2782 H -11.5714" /><circle class="sym" cx="0" cy="0" r="3" /><text class="lab rgt" transform="translate(3 -7.0)">13</text></g><path class="edge" d="M 0 0 V -4.67642 H 0.0" /><circle class="sym" cx="0" cy="0" r="3" /><text class="lab lft" transform="translate(-3 -7.0)">19</text></g><path class="edge" d="M 0 0 V -11.5162 H 17.3571" /><circle class="sym" cx="0" cy="0" r="3" /><text class="lab lft" transform="translate(-3 -7.0)">22</text></g><path class="edge" d="M 0 0 V -0.255549 H 16.3929" /><circle class="sym" cx="0" cy="0" r="3" /><text class="lab lft" transform="translate(-3 -7.0)">25</text></g><path class="edge" d="M 0 0 V -33.9183 H 0.0" /><circle class="sym" cx="0" cy="0" r="3" /><text class="lab lft" transform="translate(-3 -7.0)">26</text></g><path class="edge" d="M 0 0 V -30.0489 H -48.6964" /><circle class="sym" cx="0" cy="0" r="3" /><text class="lab rgt" transform="translate(3 -7.0)">35</text></g><circle class="sym" cx="0" cy="0" r="3" /><text class="lab" transform="translate(0 -11)">36</text></g></g></g><g class="tree t6" transform="translate(1185.71 0)"><g class="plotbox"><g class="c2 node n36 p0 root" transform="translate(108.473 26.8)"><g class="a36 c1 node n33 p0" transform="translate(38.8125 41.7249)"><g class="a33 c1 node n30 p0" transform="translate(0.0 5.10331)"><g class="a30 c2 node n15 p0" transform="translate(0.0 39.767)"><g class="a15 leaf node n2 p0 sample" transform="translate(-11.5714 8.00483)"><path class="edge" d="M 0 0 V -8.00483 H 11.5714" /><rect class="sym" height="6" width="6" x="-3" y="-3" /><text class="lab" transform="translate(0 11)">2</text></g><g class="a15 c2 node n10 p0" transform="translate(11.5714 7.05567)"><g class="a10 leaf node n7 p0 sample" transform="translate(-7.71429 0.949164)"><path class="edge" d="M 0 0 V -0.949164 H 7.71429" /><rect class="sym" height="6" width="6" x="-3" y="-3" /><text class="lab" transform="translate(0 11)">7</text></g><g class="a10 leaf node n9 p0 sample" transform="translate(7.71429 0.949164)"><path class="edge" d="M 0 0 V -0.949164 H -7.71429" /><rect class="sym" height="6" width="6" x="-3" y="-3" /><text class="lab" transform="translate(0 11)">9</text></g><path class="edge" d="M 0 0 V -7.05567 H -11.5714" /><circle class="sym" cx="0" cy="0" r="3" /><text class="lab rgt" transform="translate(3 -7.0)">10</text></g><path class="edge" d="M 0 0 V -39.767 H 0.0" /><circle class="sym" cx="0" cy="0" r="3" /><text class="lab lft" transform="translate(-3 -7.0)">15</text></g><path class="edge" d="M 0 0 V -5.10331 H 0.0" /><circle class="sym" cx="0" cy="0" r="3" /><text class="lab lft" transform="translate(-3 -7.0)">30</text></g><path class="edge" d="M 0 0 V -41.7249 H -38.8125" /><circle class="sym" cx="0" cy="0" r="3" /><text class="lab rgt" transform="translate(3 -7.0)">33</text></g><g class="a36 c2 node n35 p0" transform="translate(-38.8125 30.0489)"><g class="a35 c2 node n26 p0" transform="translate(34.2321 33.9183)"><g class="a26 leaf node n4 p0 sample" transform="translate(16.3929 30.6329)"><path class="edge" d="M 0 0 V -30.6329 H -16.3929" /><rect class="sym" height="6" width="6" x="-3" y="-3" /><text class="lab" transform="translate(0 11)">4</text></g><g class="a26 c2 node n25 p0" transform="translate(-16.3929 0.255549)"><g class="a25 leaf node n5 p0 sample" transform="translate(17.3571 30.3773)"><path class="edge" d="M 0 0 V -30.3773 H -17.3571" /><rect class="sym" height="6" width="6" x="-3" y="-3" /><text class="lab" transform="translate(0 11)">5</text></g><g class="a25 c1 node n22 p0" transform="translate(-17.3571 11.5162)"><g class="a22 c2 node n19 p0" transform="translate(0.0 4.67642)"><g class="a19 leaf node n1 p0 sample" transform="translate(-11.5714 14.1847)"><path class="edge" d="M 0 0 V -14.1847 H 11.5714" /><rect class="sym" height="6" width="6" x="-3" y="-3" /><text class="lab" transform="translate(0 11)">1</text></g><g class="a19 c2 node n13 p0" transform="translate(11.5714 11.2782)"><g class="a13 leaf node n3 p0 sample" transform="translate(-7.71429 2.90651)"><path class="edge" d="M 0 0 V -2.90651 H 7.71429" /><rect class="sym" height="6" width="6" x="-3" y="-3" /><text class="lab" transform="translate(0 11)">3</text></g><g class="a13 c1 node n12 p0" transform="translate(7.71429 1.55211)"><g class="a12 leaf node n6 p0 sample" transform="translate(0.0 1.3544)"><path class="edge" d="M 0 0 V -1.3544 H 0.0" /><rect class="sym" height="6" width="6" x="-3" y="-3" /><text class="lab" transform="translate(0 11)">6</text></g><path class="edge" d="M 0 0 V -1.55211 H -7.71429" /><circle class="sym" cx="0" cy="0" r="3" /><text class="lab rgt" transform="translate(3 -7.0)">12</text></g><path class="edge" d="M 0 0 V -11.2782 H -11.5714" /><circle class="sym" cx="0" cy="0" r="3" /><text class="lab rgt" transform="translate(3 -7.0)">13</text></g><path class="edge" d="M 0 0 V -4.67642 H 0.0" /><circle class="sym" cx="0" cy="0" r="3" /><text class="lab lft" transform="translate(-3 -7.0)">19</text></g><path class="edge" d="M 0 0 V -11.5162 H 17.3571" /><circle class="sym" cx="0" cy="0" r="3" /><text class="lab lft" transform="translate(-3 -7.0)">22</text></g><path class="edge" d="M 0 0 V -0.255549 H 16.3929" /><circle class="sym" cx="0" cy="0" r="3" /><text class="lab lft" transform="translate(-3 -7.0)">25</text></g><path class="edge" d="M 0 0 V -33.9183 H -34.2321" /><circle class="sym" cx="0" cy="0" r="3" /><text class="lab rgt" transform="translate(3 -7.0)">26</text></g><g class="a35 c1 node n34 p0" transform="translate(-34.2321 4.79981)"><g class="a34 c1 node n24 p0" transform="translate(0.0 30.1089)"><g class="a24 c1 node n18 p0" transform="translate(0.0 15.5096)"><g class="a18 c2 node n16 p0" transform="translate(0.0 5.12084)"><g class="a16 leaf node n0 p0 sample" transform="translate(-7.71429 9.01197)"><path class="edge" d="M 0 0 V -9.01197 H 7.71429" /><rect class="sym" height="6" width="6" x="-3" y="-3" /><text class="lab" transform="translate(0 11)">0</text></g><g class="a16 c1 node n14 p0" transform="translate(7.71429 2.34061)"><g class="a14 leaf node n8 p0 sample" transform="translate(0.0 6.67136)"><path class="edge" d="M 0 0 V -6.67136 H 0.0" /><rect class="sym" height="6" width="6" x="-3" y="-3" /><text class="lab" transform="translate(0 11)">8</text></g><path class="edge" d="M 0 0 V -2.34061 H -7.71429" /><circle class="sym" cx="0" cy="0" r="3" /><text class="lab rgt" transform="translate(3 -7.0)">14</text></g><path class="edge" d="M 0 0 V -5.12084 H 0.0" /><circle class="sym" cx="0" cy="0" r="3" /><text class="lab lft" transform="translate(-3 -7.0)">16</text></g><path class="edge" d="M 0 0 V -15.5096 H 0.0" /><circle class="sym" cx="0" cy="0" r="3" /><text class="lab lft" transform="translate(-3 -7.0)">18</text></g><path class="edge" d="M 0 0 V -30.1089 H 0.0" /><circle class="sym" cx="0" cy="0" r="3" /><text class="lab lft" transform="translate(-3 -7.0)">24</text></g><path class="edge" d="M 0 0 V -4.79981 H 34.2321" /><circle class="sym" cx="0" cy="0" r="3" /><text class="lab lft" transform="translate(-3 -7.0)">34</text></g><path class="edge" d="M 0 0 V -30.0489 H 38.8125" /><circle class="sym" cx="0" cy="0" r="3" /><text class="lab lft" transform="translate(-3 -7.0)">35</text></g><circle class="sym" cx="0" cy="0" r="3" /><text class="lab" transform="translate(0 -11)">36</text></g></g></g></g></g></svg>
