<svg baseProfile="full" height="200" version="1.1" width="1000" xmlns="http://www.w3.org/2000/svg" xmlns:ev="http://www.w3.org/2001/xml-events" xmlns:xlink="http://www.w3.org/1999/xlink"><defs><style type="text/css"><![CDATA[.background path {fill: #808080; fill-opacity: 0}.background path:nth-child(odd) {fill-opacity: .1}.axes {font-size: 14px}.x-axis .tick .lab {font-weight: bold; dominant-baseline: hanging}.axes, .tree {font-size: 14px; text-anchor: middle}.axes line, .edge {stroke: black; fill: none}.y-axis .grid {stroke: #FAFAFA}.node > .sym {fill: black; stroke: none}.site > .sym {stroke: black}.mut text {fill: red; font-style: italic}.mut.extra text {fill: hotpink}.mut line {fill: none; stroke: none}.mut .sym {fill: none; stroke: red}.mut.extra .sym {stroke: hotpink}.node .mut .sym {stroke-width: 1.5px}.tree text, .tree-sequence text {dominant-baseline: central}.plotbox .lab.lft {text-anchor: end}.plotbox .lab.rgt {text-anchor: start}]]></style></defs><g class="tree-sequence"><g class="background"><path d="M20,0 l192,0 l0,138.2 l-95.0358,25 l0,5 l-96.9642,0 l0,-5 l0,-25 l0,-138.2z" /><path d="M212,0 l192,0 l0,138.2 l-8.17083,25 l0,5 l-278.865,0 l0,-5 l95.0358,-25 l0,-138.2z" /><path d="M404,0 l192,0 l0,138.2 l201.302,25 l0,5 l-401.472,0 l0,-5 l8.17083,-25 l0,-138.2z" /><path d="M596,0 l192,0 l0,138.2 l177.313,25 l0,5 l-168.012,0 l0,-5 l-201.302,-25 l0,-138.2z" /><path d="M788,0 l192,0 l0,138.2 l0,25 l0,5 l-14.6866,0 l0,-5 l-177.313,-25 l0,-138.2z" /></g><g class="axes"><g class="x-axis"><g transform="translate(500 200)"><text class="lab" text-anchor="middle" transform="translate(0 -11)">Genome position</text></g><line x1="20" x2="980" y1="163.2" y2="163.2" /><g class="ticks"><g class="tick" transform="translate(20 163.2)"><line x1="0" x2="0" y1="0" y2="5" /><g transform="translate(0 6)"><text class="lab">0.00</text></g></g><g class="tick" transform="translate(116.964 163.2)"><line x1="0" x2="0" y1="0" y2="5" /><g transform="translate(0 6)"><text class="lab">101.00</text></g></g><g class="tick" transform="translate(395.829 163.2)"><line x1="0" x2="0" y1="0" y2="5" /><g transform="translate(0 6)"><text class="lab">391.49</text></g></g><g class="tick" transform="translate(797.302 163.2)"><line x1="0" x2="0" y1="0" y2="5" /><g transform="translate(0 6)"><text class="lab">809.69</text></g></g><g class="tick" transform="translate(965.313 163.2)"><line x1="0" x2="0" y1="0" y2="5" /><g transform="translate(0 6)"><text class="lab">984.70</text></g></g><g class="tick" transform="translate(980 163.2)"><line x1="0" x2="0" y1="0" y2="5" /><g transform="translate(0 6)"><text class="lab">1000.00</text></g></g></g></g></g><g class="plotbox trees"><g class="tree t0" transform="translate(20 0)"><g class="plotbox"><g class="c2 node n30 p0 root" transform="translate(126.875 26.8)"><g class="a30 c2 node n28 p0" transform="translate(-37.525 26.1093)"><g class="a28 c1 node n17 p0" transform="translate(-42.75 58.5781)"><g class="a17 c2 node n16 p0" transform="translate(0.0 2.49573)"><g class="a16 leaf node n9 p0 sample" transform="translate(11.4 7.41684)"><path class="edge" d="M 0 0 V -7.41684 H -11.4" /><rect class="sym" height="6" width="6" x="-3" y="-3" /><text class="lab" transform="translate(0 11)">9</text></g><g class="a16 c2 node n15 p0" transform="translate(-11.4 0.84289)"><g class="a15 leaf node n8 p0 sample" transform="translate(7.6 6.57395)"><path class="edge" d="M 0 0 V -6.57395 H -7.6" /><rect class="sym" height="6" width="6" x="-3" y="-3" /><text class="lab" transform="translate(0 11)">8</text></g><g class="a15 c1 node n12 p0" transform="translate(-7.6 2.8128)"><g class="a12 leaf node n0 p0 sample" transform="translate(0.0 3.76116)"><path class="edge" d="M 0 0 V -3.76116 H 0.0" /><rect class="sym" height="6" width="6" x="-3" y="-3" /><text class="lab" transform="translate(0 11)">0</text></g><path class="edge" d="M 0 0 V -2.8128 H 7.6" /><circle class="sym" cx="0" cy="0" r="3" /><text class="lab lft" transform="translate(-3 -7.0)">12</text></g><path class="edge" d="M 0 0 V -0.84289 H 11.4" /><circle class="sym" cx="0" cy="0" r="3" /><text class="lab lft" transform="translate(-3 -7.0)">15</text></g><path class="edge" d="M 0 0 V -2.49573 H 0.0" /><circle class="sym" cx="0" cy="0" r="3" /><text class="lab lft" transform="translate(-3 -7.0)">16</text></g><path class="edge" d="M 0 0 V -58.5781 H 42.75" /><circle class="sym" cx="0" cy="0" r="3" /><text class="lab lft" transform="translate(-3 -7.0)">17</text></g><g class="a28 c2 node n27 p0" transform="translate(42.75 1.32333)"><g class="a27 c2 node n20 p0" transform="translate(-17.1 23.2256)"><g class="a20 c2 node n14 p0" transform="translate(-19 39.5114)"><g class="a14 c2 node n10 p0" transform="translate(15.2 4.24464)"><g class="a10 leaf node n5 p0 sample" transform="translate(-7.6 0.185693)"><path class="edge" d="M 0 0 V -0.185693 H 7.6" /><rect class="sym" height="6" width="6" x="-3" y="-3" /><text class="lab" transform="translate(0 11)">5</text></g><g class="a10 leaf node n6 p0 sample" transform="translate(7.6 0.185693)"><path class="edge" d="M 0 0 V -0.185693 H -7.6" /><rect class="sym" height="6" width="6" x="-3" y="-3" /><text class="lab" transform="translate(0 11)">6</text></g><path class="edge" d="M 0 0 V -4.24464 H -15.2" /><circle class="sym" cx="0" cy="0" r="3" /><text class="lab rgt" transform="translate(3 -7.0)">10</text></g><g class="a14 c2 node n11 p0" transform="translate(-15.2 3.67968)"><g class="a11 leaf node n1 p0 sample" transform="translate(-7.6 0.75066)"><path class="edge" d="M 0 0 V -0.75066 H 7.6" /><rect class="sym" height="6" width="6" x="-3" y="-3" /><text class="lab" transform="translate(0 11)">1</text></g><g class="a11 leaf node n3 p0 sample" transform="translate(7.6 0.75066)"><path class="edge" d="M 0 0 V -0.75066 H -7.6" /><rect class="sym" height="6" width="6" x="-3" y="-3" /><text class="lab" transform="translate(0 11)">3</text></g><path class="edge" d="M 0 0 V -3.67968 H 15.2" /><circle class="sym" cx="0" cy="0" r="3" /><text class="lab lft" transform="translate(-3 -7.0)">11</text></g><path class="edge" d="M 0 0 V -39.5114 H 19" /><circle class="sym" cx="0" cy="0" r="3" /><text class="lab lft" transform="translate(-3 -7.0)">14</text></g><g class="a20 c1 node n19 p0" transform="translate(19 11.0525)"><g class="a19 leaf node n7 p0 sample" transform="translate(0.0 32.8892)"><path class="edge" d="M 0 0 V -32.8892 H 0.0" /><rect class="sym" height="6" width="6" x="-3" y="-3" /><text class="lab" transform="translate(0 11)">7</text></g><path class="edge" d="M 0 0 V -11.0525 H -19" /><circle class="sym" cx="0" cy="0" r="3" /><text class="lab rgt" transform="translate(3 -7.0)">19</text></g><path class="edge" d="M 0 0 V -23.2256 H 17.1" /><circle class="sym" cx="0" cy="0" r="3" /><text class="lab lft" transform="translate(-3 -7.0)">20</text></g><g class="a27 c1 node n23 p0" transform="translate(17.1 15.6794)"><g class="a23 leaf node n2 p0 sample" transform="translate(0.0 51.488)"><path class="edge" d="M 0 0 V -51.488 H 0.0" /><rect class="sym" height="6" width="6" x="-3" y="-3" /><text class="lab" transform="translate(0 11)">2</text></g><path class="edge" d="M 0 0 V -15.6794 H -17.1" /><circle class="sym" cx="0" cy="0" r="3" /><text class="lab rgt" transform="translate(3 -7.0)">23</text></g><path class="edge" d="M 0 0 V -1.32333 H -42.75" /><circle class="sym" cx="0" cy="0" r="3" /><text class="lab rgt" transform="translate(3 -7.0)">27</text></g><path class="edge" d="M 0 0 V -26.1093 H 37.525" /><circle class="sym" cx="0" cy="0" r="3" /><text class="lab lft" transform="translate(-3 -7.0)">28</text></g><g class="a30 c1 node n29 p0" transform="translate(37.525 20.1418)"><g class="a29 c1 node n21 p0" transform="translate(0.0 25.0172)"><g class="a21 leaf node n4 p0 sample" transform="translate(0.0 49.441)"><path class="edge" d="M 0 0 V -49.441 H 0.0" /><rect class="sym" height="6" width="6" x="-3" y="-3" /><text class="lab" transform="translate(0 11)">4</text></g><path class="edge" d="M 0 0 V -25.0172 H 0.0" /><circle class="sym" cx="0" cy="0" r="3" /><text class="lab lft" transform="translate(-3 -7.0)">21</text></g><path class="edge" d="M 0 0 V -20.1418 H -37.525" /><circle class="sym" cx="0" cy="0" r="3" /><text class="lab rgt" transform="translate(3 -7.0)">29</text></g><circle class="sym" cx="0" cy="0" r="3" /><text class="lab" transform="translate(0 -11)">30</text></g></g></g><g class="tree t1" transform="translate(212 0)"><g class="plotbox"><g class="c2 node n30 p0 root" transform="translate(126.875 26.8)"><g class="a30 c2 node n28 p0" transform="translate(-37.525 26.1093)"><g class="a28 c1 node n17 p0" transform="translate(-42.75 58.5781)"><g class="a17 c2 node n16 p0" transform="translate(0.0 2.49573)"><g class="a16 leaf node n9 p0 sample" transform="translate(11.4 7.41684)"><path class="edge" d="M 0 0 V -7.41684 H -11.4" /><rect class="sym" height="6" width="6" x="-3" y="-3" /><text class="lab" transform="translate(0 11)">9</text></g><g class="a16 c2 node n15 p0" transform="translate(-11.4 0.84289)"><g class="a15 leaf node n8 p0 sample" transform="translate(7.6 6.57395)"><path class="edge" d="M 0 0 V -6.57395 H -7.6" /><rect class="sym" height="6" width="6" x="-3" y="-3" /><text class="lab" transform="translate(0 11)">8</text></g><g class="a15 c1 node n12 p0" transform="translate(-7.6 2.8128)"><g class="a12 leaf node n0 p0 sample" transform="translate(0.0 3.76116)"><path class="edge" d="M 0 0 V -3.76116 H 0.0" /><rect class="sym" height="6" width="6" x="-3" y="-3" /><text class="lab" transform="translate(0 11)">0</text></g><path class="edge" d="M 0 0 V -2.8128 H 7.6" /><circle class="sym" cx="0" cy="0" r="3" /><text class="lab lft" transform="translate(-3 -7.0)">12</text></g><path class="edge" d="M 0 0 V -0.84289 H 11.4" /><circle class="sym" cx="0" cy="0" r="3" /><text class="lab lft" transform="translate(-3 -7.0)">15</text></g><path class="edge" d="M 0 0 V -2.49573 H 0.0" /><circle class="sym" cx="0" cy="0" r="3" /><text class="lab lft" transform="translate(-3 -7.0)">16</text></g><path class="edge" d="M 0 0 V -58.5781 H 42.75" /><circle class="sym" cx="0" cy="0" r="3" /><text class="lab lft" transform="translate(-3 -7.0)">17</text></g><g class="a28 c2 node n27 p0" transform="translate(42.75 1.32333)"><g class="a27 c2 node n20 p0" transform="translate(-17.1 23.2256)"><g class="a20 c2 node n14 p0" transform="translate(-19 39.5114)"><g class="a14 c2 node n10 p0" transform="translate(15.2 4.24464)"><g class="a10 leaf node n5 p0 sample" transform="translate(-7.6 0.185693)"><path class="edge" d="M 0 0 V -0.185693 H 7.6" /><rect class="sym" height="6" width="6" x="-3" y="-3" /><text class="lab" transform="translate(0 11)">5</text></g><g class="a10 leaf node n6 p0 sample" transform="translate(7.6 0.185693)"><path class="edge" d="M 0 0 V -0.185693 H -7.6" /><rect class="sym" height="6" width="6" x="-3" y="-3" /><text class="lab" transform="translate(0 11)">6</text></g><path class="edge" d="M 0 0 V -4.24464 H -15.2" /><circle class="sym" cx="0" cy="0" r="3" /><text class="lab rgt" transform="translate(3 -7.0)">10</text></g><g class="a14 c2 node n11 p0" transform="translate(-15.2 3.67968)"><g class="a11 leaf node n1 p0 sample" transform="translate(-7.6 0.75066)"><path class="edge" d="M 0 0 V -0.75066 H 7.6" /><rect class="sym" height="6" width="6" x="-3" y="-3" /><text class="lab" transform="translate(0 11)">1</text></g><g class="a11 leaf node n3 p0 sample" transform="translate(7.6 0.75066)"><path class="edge" d="M 0 0 V -0.75066 H -7.6" /><rect class="sym" height="6" width="6" x="-3" y="-3" /><text class="lab" transform="translate(0 11)">3</text></g><path class="edge" d="M 0 0 V -3.67968 H 15.2" /><circle class="sym" cx="0" cy="0" r="3" /><text class="lab lft" transform="translate(-3 -7.0)">11</text></g><path class="edge" d="M 0 0 V -39.5114 H 19" /><circle class="sym" cx="0" cy="0" r="3" /><text class="lab lft" transform="translate(-3 -7.0)">14</text></g><g class="a20 c1 node n19 p0" transform="translate(19 11.0525)"><g class="a19 leaf node n7 p0 sample" transform="translate(0.0 32.8892)"><path class="edge" d="M 0 0 V -32.8892 H 0.0" /><rect class="sym" height="6" width="6" x="-3" y="-3" /><text class="lab" transform="translate(0 11)">7</text></g><path class="edge" d="M 0 0 V -11.0525 H -19" /><circle class="sym" cx="0" cy="0" r="3" /><text class="lab rgt" transform="translate(3 -7.0)">19</text></g><path class="edge" d="M 0 0 V -23.2256 H 17.1" /><circle class="sym" cx="0" cy="0" r="3" /><text class="lab lft" transform="translate(-3 -7.0)">20</text></g><g class="a27 c1 node n23 p0" transform="translate(17.1 15.6794)"><g class="a23 leaf node n2 p0 sample" transform="translate(0.0 51.488)"><path class="edge" d="M 0 0 V -51.488 H 0.0" /><rect class="sym" height="6" width="6" x="-3" y="-3" /><text class="lab" transform="translate(0 11)">2</text></g><path class="edge" d="M 0 0 V -15.6794 H -17.1" /><circle class="sym" cx="0" cy="0" r="3" /><text class="lab rgt" transform="translate(3 -7.0)">23</text></g><path class="edge" d="M 0 0 V -1.32333 H -42.75" /><circle class="sym" cx="0" cy="0" r="3" /><text class="lab rgt" transform="translate(3 -7.0)">27</text></g><path class="edge" d="M 0 0 V -26.1093 H 37.525" /><circle class="sym" cx="0" cy="0" r="3" /><text class="lab lft" transform="translate(-3 -7.0)">28</text></g><g class="a30 c1 node n29 p0" transform="translate(37.525 20.1418)"><g class="a29 c1 node n26 p0" transform="translate(0.0 16.1626)"><g class="a26 c1 node n25 p0" transform="translate(0.0 6.72284)"><g class="a25 c1 node n22 p0" transform="translate(0.0 2.13181)"><g class="a22 leaf node n4 p0 sample" transform="translate(0.0 49.441)"><path class="edge" d="M 0 0 V -49.441 H 0.0" /><rect class="sym" height="6" width="6" x="-3" y="-3" /><text class="lab" transform="translate(0 11)">4</text></g><path class="edge" d="M 0 0 V -2.13181 H 0.0" /><circle class="sym" cx="0" cy="0" r="3" /><text class="lab lft" transform="translate(-3 -7.0)">22</text></g><path class="edge" d="M 0 0 V -6.72284 H 0.0" /><circle class="sym" cx="0" cy="0" r="3" /><text class="lab lft" transform="translate(-3 -7.0)">25</text></g><path class="edge" d="M 0 0 V -16.1626 H 0.0" /><circle class="sym" cx="0" cy="0" r="3" /><text class="lab lft" transform="translate(-3 -7.0)">26</text></g><path class="edge" d="M 0 0 V -20.1418 H -37.525" /><circle class="sym" cx="0" cy="0" r="3" /><text class="lab rgt" transform="translate(3 -7.0)">29</text></g><circle class="sym" cx="0" cy="0" r="3" /><text class="lab" transform="translate(0 -11)">30</text></g></g></g><g class="tree t2" transform="translate(404 0)"><g class="plotbox"><g class="c2 node n30 p0 root" transform="translate(140.887 26.8)"><g class="a30 c1 node n28 p0" transform="translate(-23.5125 26.1093)"><g class="a28 c2 node n27 p0" transform="translate(0.0 1.32333)"><g class="a27 c2 node n20 p0" transform="translate(-31.825 23.2256)"><g class="a20 c2 node n14 p0" transform="translate(25.65 39.5114)"><g class="a14 c2 node n10 p0" transform="translate(15.2 4.24464)"><g class="a10 leaf node n5 p0 sample" transform="translate(-7.6 0.185693)"><path class="edge" d="M 0 0 V -0.185693 H 7.6" /><rect class="sym" height="6" width="6" x="-3" y="-3" /><text class="lab" transform="translate(0 11)">5</text></g><g class="a10 leaf node n6 p0 sample" transform="translate(7.6 0.185693)"><path class="edge" d="M 0 0 V -0.185693 H -7.6" /><rect class="sym" height="6" width="6" x="-3" y="-3" /><text class="lab" transform="translate(0 11)">6</text></g><path class="edge" d="M 0 0 V -4.24464 H -15.2" /><circle class="sym" cx="0" cy="0" r="3" /><text class="lab rgt" transform="translate(3 -7.0)">10</text></g><g class="a14 c2 node n11 p0" transform="translate(-15.2 3.67968)"><g class="a11 leaf node n1 p0 sample" transform="translate(-7.6 0.75066)"><path class="edge" d="M 0 0 V -0.75066 H 7.6" /><rect class="sym" height="6" width="6" x="-3" y="-3" /><text class="lab" transform="translate(0 11)">1</text></g><g class="a11 leaf node n3 p0 sample" transform="translate(7.6 0.75066)"><path class="edge" d="M 0 0 V -0.75066 H -7.6" /><rect class="sym" height="6" width="6" x="-3" y="-3" /><text class="lab" transform="translate(0 11)">3</text></g><path class="edge" d="M 0 0 V -3.67968 H 15.2" /><circle class="sym" cx="0" cy="0" r="3" /><text class="lab lft" transform="translate(-3 -7.0)">11</text></g><path class="edge" d="M 0 0 V -39.5114 H -25.65" /><circle class="sym" cx="0" cy="0" r="3" /><text class="lab rgt" transform="translate(3 -7.0)">14</text></g><g class="a20 c2 node n19 p0" transform="translate(-25.65 11.0525)"><g class="a19 leaf node n7 p0 sample" transform="translate(13.3 32.8892)"><path class="edge" d="M 0 0 V -32.8892 H -13.3" /><rect class="sym" height="6" width="6" x="-3" y="-3" /><text class="lab" transform="translate(0 11)">7</text></g><g class="a19 c1 node n18 p0" transform="translate(-13.3 22.9766)"><g class="a18 c2 node n16 p0" transform="translate(0.0 2.49573)"><g class="a16 leaf node n9 p0 sample" transform="translate(11.4 7.41684)"><path class="edge" d="M 0 0 V -7.41684 H -11.4" /><rect class="sym" height="6" width="6" x="-3" y="-3" /><text class="lab" transform="translate(0 11)">9</text></g><g class="a16 c2 node n15 p0" transform="translate(-11.4 0.84289)"><g class="a15 leaf node n8 p0 sample" transform="translate(7.6 6.57395)"><path class="edge" d="M 0 0 V -6.57395 H -7.6" /><rect class="sym" height="6" width="6" x="-3" y="-3" /><text class="lab" transform="translate(0 11)">8</text></g><g class="a15 c1 node n12 p0" transform="translate(-7.6 2.8128)"><g class="a12 leaf node n0 p0 sample" transform="translate(0.0 3.76116)"><path class="edge" d="M 0 0 V -3.76116 H 0.0" /><rect class="sym" height="6" width="6" x="-3" y="-3" /><text class="lab" transform="translate(0 11)">0</text></g><path class="edge" d="M 0 0 V -2.8128 H 7.6" /><circle class="sym" cx="0" cy="0" r="3" /><text class="lab lft" transform="translate(-3 -7.0)">12</text></g><path class="edge" d="M 0 0 V -0.84289 H 11.4" /><circle class="sym" cx="0" cy="0" r="3" /><text class="lab lft" transform="translate(-3 -7.0)">15</text></g><path class="edge" d="M 0 0 V -2.49573 H 0.0" /><circle class="sym" cx="0" cy="0" r="3" /><text class="lab lft" transform="translate(-3 -7.0)">16</text></g><path class="edge" d="M 0 0 V -22.9766 H 13.3" /><circle class="sym" cx="0" cy="0" r="3" /><text class="lab lft" transform="translate(-3 -7.0)">18</text></g><path class="edge" d="M 0 0 V -11.0525 H 25.65" /><circle class="sym" cx="0" cy="0" r="3" /><text class="lab lft" transform="translate(-3 -7.0)">19</text></g><path class="edge" d="M 0 0 V -23.2256 H 31.825" /><circle class="sym" cx="0" cy="0" r="3" /><text class="lab lft" transform="translate(-3 -7.0)">20</text></g><g class="a27 c1 node n23 p0" transform="translate(31.825 15.6794)"><g class="a23 leaf node n2 p0 sample" transform="translate(0.0 51.488)"><path class="edge" d="M 0 0 V -51.488 H 0.0" /><rect class="sym" height="6" width="6" x="-3" y="-3" /><text class="lab" transform="translate(0 11)">2</text></g><path class="edge" d="M 0 0 V -15.6794 H -31.825" /><circle class="sym" cx="0" cy="0" r="3" /><text class="lab rgt" transform="translate(3 -7.0)">23</text></g><path class="edge" d="M 0 0 V -1.32333 H 0.0" /><circle class="sym" cx="0" cy="0" r="3" /><text class="lab lft" transform="translate(-3 -7.0)">27</text></g><path class="edge" d="M 0 0 V -26.1093 H 23.5125" /><circle class="sym" cx="0" cy="0" r="3" /><text class="lab lft" transform="translate(-3 -7.0)">28</text></g><g class="a30 c1 node n29 p0" transform="translate(23.5125 20.1418)"><g class="a29 c1 node n26 p0" transform="translate(0.0 16.1626)"><g class="a26 c1 node n25 p0" transform="translate(0.0 6.72284)"><g class="a25 c1 node n22 p0" transform="translate(0.0 2.13181)"><g class="a22 leaf node n4 p0 sample" transform="translate(0.0 49.441)"><path class="edge" d="M 0 0 V -49.441 H 0.0" /><rect class="sym" height="6" width="6" x="-3" y="-3" /><text class="lab" transform="translate(0 11)">4</text></g><path class="edge" d="M 0 0 V -2.13181 H 0.0" /><circle class="sym" cx="0" cy="0" r="3" /><text class="lab lft" transform="translate(-3 -7.0)">22</text></g><path class="edge" d="M 0 0 V -6.72284 H 0.0" /><circle class="sym" cx="0" cy="0" r="3" /><text class="lab lft" transform="translate(-3 -7.0)">25</text></g><path class="edge" d="M 0 0 V -16.1626 H 0.0" /><circle class="sym" cx="0" cy="0" r="3" /><text class="lab lft" transform="translate(-3 -7.0)">26</text></g><path class="edge" d="M 0 0 V -20.1418 H -23.5125" /><circle class="sym" cx="0" cy="0" r="3" /><text class="lab rgt" transform="translate(3 -7.0)">29</text></g><circle class="sym" cx="0" cy="0" r="3" /><text class="lab" transform="translate(0 -11)">30</text></g></g></g><g class="tree t3" transform="translate(596 0)"><g class="plotbox"><g class="c2 node n30 p0 root" transform="translate(85.075 26.8)"><g class="a30 c1 node n28 p0" transform="translate(49.875 26.1093)"><g class="a28 c2 node n27 p0" transform="translate(0.0 1.32333)"><g class="a27 c2 node n20 p0" transform="translate(-29.45 23.2256)"><g class="a20 c2 node n14 p0" transform="translate(-24.7 39.5114)"><g class="a14 c2 node n10 p0" transform="translate(15.2 4.24464)"><g class="a10 leaf node n5 p0 sample" transform="translate(-7.6 0.185693)"><path class="edge" d="M 0 0 V -0.185693 H 7.6" /><rect class="sym" height="6" width="6" x="-3" y="-3" /><text class="lab" transform="translate(0 11)">5</text></g><g class="a10 leaf node n6 p0 sample" transform="translate(7.6 0.185693)"><path class="edge" d="M 0 0 V -0.185693 H -7.6" /><rect class="sym" height="6" width="6" x="-3" y="-3" /><text class="lab" transform="translate(0 11)">6</text></g><path class="edge" d="M 0 0 V -4.24464 H -15.2" /><circle class="sym" cx="0" cy="0" r="3" /><text class="lab rgt" transform="translate(3 -7.0)">10</text></g><g class="a14 c2 node n11 p0" transform="translate(-15.2 3.67968)"><g class="a11 leaf node n1 p0 sample" transform="translate(-7.6 0.75066)"><path class="edge" d="M 0 0 V -0.75066 H 7.6" /><rect class="sym" height="6" width="6" x="-3" y="-3" /><text class="lab" transform="translate(0 11)">1</text></g><g class="a11 leaf node n3 p0 sample" transform="translate(7.6 0.75066)"><path class="edge" d="M 0 0 V -0.75066 H -7.6" /><rect class="sym" height="6" width="6" x="-3" y="-3" /><text class="lab" transform="translate(0 11)">3</text></g><path class="edge" d="M 0 0 V -3.67968 H 15.2" /><circle class="sym" cx="0" cy="0" r="3" /><text class="lab lft" transform="translate(-3 -7.0)">11</text></g><path class="edge" d="M 0 0 V -39.5114 H 24.7" /><circle class="sym" cx="0" cy="0" r="3" /><text class="lab lft" transform="translate(-3 -7.0)">14</text></g><g class="a20 c2 node n19 p0" transform="translate(24.7 11.0525)"><g class="a19 leaf node n7 p0 sample" transform="translate(-11.4 32.8892)"><path class="edge" d="M 0 0 V -32.8892 H 11.4" /><rect class="sym" height="6" width="6" x="-3" y="-3" /><text class="lab" transform="translate(0 11)">7</text></g><g class="a19 c1 node n18 p0" transform="translate(11.4 22.9766)"><g class="a18 c2 node n16 p0" transform="translate(0.0 2.49573)"><g class="a16 leaf node n9 p0 sample" transform="translate(7.6 7.41684)"><path class="edge" d="M 0 0 V -7.41684 H -7.6" /><rect class="sym" height="6" width="6" x="-3" y="-3" /><text class="lab" transform="translate(0 11)">9</text></g><g class="a16 c1 node n15 p0" transform="translate(-7.6 0.84289)"><g class="a15 leaf node n8 p0 sample" transform="translate(0.0 6.57395)"><path class="edge" d="M 0 0 V -6.57395 H 0.0" /><rect class="sym" height="6" width="6" x="-3" y="-3" /><text class="lab" transform="translate(0 11)">8</text></g><path class="edge" d="M 0 0 V -0.84289 H 7.6" /><circle class="sym" cx="0" cy="0" r="3" /><text class="lab lft" transform="translate(-3 -7.0)">15</text></g><path class="edge" d="M 0 0 V -2.49573 H 0.0" /><circle class="sym" cx="0" cy="0" r="3" /><text class="lab lft" transform="translate(-3 -7.0)">16</text></g><path class="edge" d="M 0 0 V -22.9766 H -11.4" /><circle class="sym" cx="0" cy="0" r="3" /><text class="lab rgt" transform="translate(3 -7.0)">18</text></g><path class="edge" d="M 0 0 V -11.0525 H -24.7" /><circle class="sym" cx="0" cy="0" r="3" /><text class="lab rgt" transform="translate(3 -7.0)">19</text></g><path class="edge" d="M 0 0 V -23.2256 H 29.45" /><circle class="sym" cx="0" cy="0" r="3" /><text class="lab lft" transform="translate(-3 -7.0)">20</text></g><g class="a27 c1 node n23 p0" transform="translate(29.45 15.6794)"><g class="a23 leaf node n2 p0 sample" transform="translate(0.0 51.488)"><path class="edge" d="M 0 0 V -51.488 H 0.0" /><rect class="sym" height="6" width="6" x="-3" y="-3" /><text class="lab" transform="translate(0 11)">2</text></g><path class="edge" d="M 0 0 V -15.6794 H -29.45" /><circle class="sym" cx="0" cy="0" r="3" /><text class="lab rgt" transform="translate(3 -7.0)">23</text></g><path class="edge" d="M 0 0 V -1.32333 H 0.0" /><circle class="sym" cx="0" cy="0" r="3" /><text class="lab lft" transform="translate(-3 -7.0)">27</text></g><path class="edge" d="M 0 0 V -26.1093 H -49.875" /><circle class="sym" cx="0" cy="0" r="3" /><text class="lab rgt" transform="translate(3 -7.0)">28</text></g><g class="a30 c1 node n29 p0" transform="translate(-49.875 20.1418)"><g class="a29 c1 node n26 p0" transform="translate(0.0 16.1626)"><g class="a26 c2 node n25 p0" transform="translate(0.0 6.72284)"><g class="a25 c1 node n22 p0" transform="translate(7.6 2.13181)"><g class="a22 leaf node n4 p0 sample" transform="translate(0.0 49.441)"><path class="edge" d="M 0 0 V -49.441 H 0.0" /><rect class="sym" height="6" width="6" x="-3" y="-3" /><text class="lab" transform="translate(0 11)">4</text></g><path class="edge" d="M 0 0 V -2.13181 H -7.6" /><circle class="sym" cx="0" cy="0" r="3" /><text class="lab rgt" transform="translate(3 -7.0)">22</text></g><g class="a25 c1 node n13 p0" transform="translate(-7.6 47.8117)"><g class="a13 leaf node n0 p0 sample" transform="translate(0.0 3.76116)"><path class="edge" d="M 0 0 V -3.76116 H 0.0" /><rect class="sym" height="6" width="6" x="-3" y="-3" /><text class="lab" transform="translate(0 11)">0</text></g><path class="edge" d="M 0 0 V -47.8117 H 7.6" /><circle class="sym" cx="0" cy="0" r="3" /><text class="lab lft" transform="translate(-3 -7.0)">13</text></g><path class="edge" d="M 0 0 V -6.72284 H 0.0" /><circle class="sym" cx="0" cy="0" r="3" /><text class="lab lft" transform="translate(-3 -7.0)">25</text></g><path class="edge" d="M 0 0 V -16.1626 H 0.0" /><circle class="sym" cx="0" cy="0" r="3" /><text class="lab lft" transform="translate(-3 -7.0)">26</text></g><path class="edge" d="M 0 0 V -20.1418 H 49.875" /><circle class="sym" cx="0" cy="0" r="3" /><text class="lab lft" transform="translate(-3 -7.0)">29</text></g><circle class="sym" cx="0" cy="0" r="3" /><text class="lab" transform="translate(0 -11)">30</text></g></g></g><g class="tree t4" transform="translate(788 0)"><g class="plotbox"><g class="c2 node n30 p0 root" transform="translate(83.65 26.8)"><g class="a30 c1 node n28 p0" transform="translate(37.05 26.1093)"><g class="a28 c1 node n27 p0" transform="translate(0.0 1.32333)"><g class="a27 c2 node n20 p0" transform="translate(0.0 23.2256)"><g class="a20 c2 node n14 p0" transform="translate(-24.7 39.5114)"><g class="a14 c2 node n10 p0" transform="translate(15.2 4.24464)"><g class="a10 leaf node n5 p0 sample" transform="translate(-7.6 0.185693)"><path class="edge" d="M 0 0 V -0.185693 H 7.6" /><rect class="sym" height="6" width="6" x="-3" y="-3" /><text class="lab" transform="translate(0 11)">5</text></g><g class="a10 leaf node n6 p0 sample" transform="translate(7.6 0.185693)"><path class="edge" d="M 0 0 V -0.185693 H -7.6" /><rect class="sym" height="6" width="6" x="-3" y="-3" /><text class="lab" transform="translate(0 11)">6</text></g><path class="edge" d="M 0 0 V -4.24464 H -15.2" /><circle class="sym" cx="0" cy="0" r="3" /><text class="lab rgt" transform="translate(3 -7.0)">10</text></g><g class="a14 c2 node n11 p0" transform="translate(-15.2 3.67968)"><g class="a11 leaf node n1 p0 sample" transform="translate(-7.6 0.75066)"><path class="edge" d="M 0 0 V -0.75066 H 7.6" /><rect class="sym" height="6" width="6" x="-3" y="-3" /><text class="lab" transform="translate(0 11)">1</text></g><g class="a11 leaf node n3 p0 sample" transform="translate(7.6 0.75066)"><path class="edge" d="M 0 0 V -0.75066 H -7.6" /><rect class="sym" height="6" width="6" x="-3" y="-3" /><text class="lab" transform="translate(0 11)">3</text></g><path class="edge" d="M 0 0 V -3.67968 H 15.2" /><circle class="sym" cx="0" cy="0" r="3" /><text class="lab lft" transform="translate(-3 -7.0)">11</text></g><path class="edge" d="M 0 0 V -39.5114 H 24.7" /><circle class="sym" cx="0" cy="0" r="3" /><text class="lab lft" transform="translate(-3 -7.0)">14</text></g><g class="a20 c2 node n19 p0" transform="translate(24.7 11.0525)"><g class="a19 leaf node n7 p0 sample" transform="translate(-11.4 32.8892)"><path class="edge" d="M 0 0 V -32.8892 H 11.4" /><rect class="sym" height="6" width="6" x="-3" y="-3" /><text class="lab" transform="translate(0 11)">7</text></g><g class="a19 c1 node n18 p0" transform="translate(11.4 22.9766)"><g class="a18 c2 node n16 p0" transform="translate(0.0 2.49573)"><g class="a16 leaf node n9 p0 sample" transform="translate(7.6 7.41684)"><path class="edge" d="M 0 0 V -7.41684 H -7.6" /><rect class="sym" height="6" width="6" x="-3" y="-3" /><text class="lab" transform="translate(0 11)">9</text></g><g class="a16 c1 node n15 p0" transform="translate(-7.6 0.84289)"><g class="a15 leaf node n8 p0 sample" transform="translate(0.0 6.57395)"><path class="edge" d="M 0 0 V -6.57395 H 0.0" /><rect class="sym" height="6" width="6" x="-3" y="-3" /><text class="lab" transform="translate(0 11)">8</text></g><path class="edge" d="M 0 0 V -0.84289 H 7.6" /><circle class="sym" cx="0" cy="0" r="3" /><text class="lab lft" transform="translate(-3 -7.0)">15</text></g><path class="edge" d="M 0 0 V -2.49573 H 0.0" /><circle class="sym" cx="0" cy="0" r="3" /><text class="lab lft" transform="translate(-3 -7.0)">16</text></g><path class="edge" d="M 0 0 V -22.9766 H -11.4" /><circle class="sym" cx="0" cy="0" r="3" /><text class="lab rgt" transform="translate(3 -7.0)">18</text></g><path class="edge" d="M 0 0 V -11.0525 H -24.7" /><circle class="sym" cx="0" cy="0" r="3" /><text class="lab rgt" transform="translate(3 -7.0)">19</text></g><path class="edge" d="M 0 0 V -23.2256 H 0.0" /><circle class="sym" cx="0" cy="0" r="3" /><text class="lab lft" transform="translate(-3 -7.0)">20</text></g><path class="edge" d="M 0 0 V -1.32333 H 0.0" /><circle class="sym" cx="0" cy="0" r="3" /><text class="lab lft" transform="translate(-3 -7.0)">27</text></g><path class="edge" d="M 0 0 V -26.1093 H -37.05" /><circle class="sym" cx="0" cy="0" r="3" /><text class="lab rgt" transform="translate(3 -7.0)">28</text></g><g class="a30 c1 node n29 p0" transform="translate(-37.05 20.1418)"><g class="a29 c2 node n26 p0" transform="translate(0.0 16.1626)"><g class="a26 c2 node n25 p0" transform="translate(-11.4 6.72284)"><g class="a25 c1 node n22 p0" transform="translate(7.6 2.13181)"><g class="a22 leaf node n4 p0 sample" transform="translate(0.0 49.441)"><path class="edge" d="M 0 0 V -49.441 H 0.0" /><rect class="sym" height="6" width="6" x="-3" y="-3" /><text class="lab" transform="translate(0 11)">4</text></g><path class="edge" d="M 0 0 V -2.13181 H -7.6" /><circle class="sym" cx="0" cy="0" r="3" /><text class="lab rgt" transform="translate(3 -7.0)">22</text></g><g class="a25 c1 node n13 p0" transform="translate(-7.6 47.8117)"><g class="a13 leaf node n0 p0 sample" transform="translate(0.0 3.76116)"><path class="edge" d="M 0 0 V -3.76116 H 0.0" /><rect class="sym" height="6" width="6" x="-3" y="-3" /><text class="lab" transform="translate(0 11)">0</text></g><path class="edge" d="M 0 0 V -47.8117 H 7.6" /><circle class="sym" cx="0" cy="0" r="3" /><text class="lab lft" transform="translate(-3 -7.0)">13</text></g><path class="edge" d="M 0 0 V -6.72284 H 11.4" /><circle class="sym" cx="0" cy="0" r="3" /><text class="lab lft" transform="translate(-3 -7.0)">25</text></g><g class="a26 c1 node n24 p0" transform="translate(11.4 6.80768)"><g class="a24 leaf node n2 p0 sample" transform="translate(0.0 51.488)"><path class="edge" d="M 0 0 V -51.488 H 0.0" /><rect class="sym" height="6" width="6" x="-3" y="-3" /><text class="lab" transform="translate(0 11)">2</text></g><path class="edge" d="M 0 0 V -6.80768 H -11.4" /><circle class="sym" cx="0" cy="0" r="3" /><text class="lab rgt" transform="translate(3 -7.0)">24</text></g><path class="edge" d="M 0 0 V -16.1626 H 0.0" /><circle class="sym" cx="0" cy="0" r="3" /><text class="lab lft" transform="translate(-3 -7.0)">26</text></g><path class="edge" d="M 0 0 V -20.1418 H 37.05" /><circle class="sym" cx="0" cy="0" r="3" /><text class="lab lft" transform="translate(-3 -7.0)">29</text></g><circle class="sym" cx="0" cy="0" r="3" /><text class="lab" transform="translate(0 -11)">30</text></g></g></g></g></g></svg>
