<svg baseProfile="full" height="200" version="1.1" width="600" xmlns="http://www.w3.org/2000/svg" xmlns:ev="http://www.w3.org/2001/xml-events" xmlns:xlink="http://www.w3.org/1999/xlink"><defs><style type="text/css"><![CDATA[.background path {fill: #808080; fill-opacity: 0}.background path:nth-child(odd) {fill-opacity: .1}.axes {font-size: 14px}.x-axis .tick .lab {font-weight: bold; dominant-baseline: hanging}.axes, .tree {font-size: 14px; text-anchor: middle}.axes line, .edge {stroke: black; fill: none}.y-axis .grid {stroke: #FAFAFA}.node > .sym {fill: black; stroke: none}.site > .sym {stroke: black}.mut text {fill: red; font-style: italic}.mut.extra text {fill: hotpink}.mut line {fill: none; stroke: none}.mut .sym {fill: none; stroke: red}.mut.extra .sym {stroke: hotpink}.node .mut .sym {stroke-width: 1.5px}.tree text, .tree-sequence text {dominant-baseline: central}.plotbox .lab.lft {text-anchor: end}.plotbox .lab.rgt {text-anchor: start}]]></style></defs><g class="tree-sequence"><g class="background"><path d="M20,0 l186.667,0 l0,138.2 l-2.09784,25 l0,5 l-184.569,0 l0,-5 l0,-25 l0,-138.2z" /><path d="M206.667,0 l186.667,0 l0,138.2 l-113.389,25 l0,5 l-75.3753,0 l0,-5 l2.09784,-25 l0,-138.2z" /><path d="M393.333,0 l186.667,0 l0,138.2 l0,25 l0,5 l-300.056,0 l0,-5 l113.389,-25 l0,-138.2z" /></g><g class="axes"><g class="x-axis"><g transform="translate(300 200)"><text class="lab" text-anchor="middle" transform="translate(0 -11)">Genome position</text></g><line x1="20" x2="580" y1="163.2" y2="163.2" /><g class="ticks"><g class="tick" transform="translate(20 163.2)"><line x1="0" x2="0" y1="0" y2="5" /><g transform="translate(0 6)"><text class="lab">0.00</text></g></g><g class="tick" transform="translate(204.569 163.2)"><line x1="0" x2="0" y1="0" y2="5" /><g transform="translate(0 6)"><text class="lab">329.59</text></g></g><g class="tick" transform="translate(279.944 163.2)"><line x1="0" x2="0" y1="0" y2="5" /><g transform="translate(0 6)"><text class="lab">464.19</text></g></g><g class="tick" transform="translate(580 163.2)"><line x1="0" x2="0" y1="0" y2="5" /><g transform="translate(0 6)"><text class="lab">1000.00</text></g></g></g></g></g><g class="plotbox trees"><g class="tree t0" transform="translate(20 0)"><g class="plotbox"><g class="c2 node n24 p0 root" transform="translate(122.896 26.8)"><g class="a24 c2 node n22 p0" transform="translate(25.4375 31.0445)"><g class="a22 c1 node n15 p0" transform="translate(11 57.4476)"><g class="a15 leaf node n8 p0 sample" transform="translate(0.0 6.10783)"><path class="edge" d="M 0 0 V -6.10783 H 0.0" /><rect class="sym" height="6" width="6" x="-3" y="-3" /><text class="lab" transform="translate(0 11)">8</text></g><path class="edge" d="M 0 0 V -57.4476 H -11" /><circle class="sym" cx="0" cy="0" r="3" /><text class="lab rgt" transform="translate(3 -7.0)">15</text></g><g class="a22 c2 node n18 p0" transform="translate(-11 56.6821)"><g class="a18 leaf node n2 p0 sample" transform="translate(-7.33333 6.87339)"><path class="edge" d="M 0 0 V -6.87339 H 7.33333" /><rect class="sym" height="6" width="6" x="-3" y="-3" /><text class="lab" transform="translate(0 11)">2</text></g><g class="a18 c1 node n10 p0" transform="translate(7.33333 6.85324)"><g class="a10 leaf node n7 p0 sample" transform="translate(0.0 0.0201556)"><path class="edge" d="M 0 0 V -0.0201556 H 0.0" /><rect class="sym" height="6" width="6" x="-3" y="-3" /><text class="lab" transform="translate(0 11)">7</text></g><path class="edge" d="M 0 0 V -6.85324 H -7.33333" /><circle class="sym" cx="0" cy="0" r="3" /><text class="lab rgt" transform="translate(3 -7.0)">10</text></g><path class="edge" d="M 0 0 V -56.6821 H 11" /><circle class="sym" cx="0" cy="0" r="3" /><text class="lab lft" transform="translate(-3 -7.0)">18</text></g><path class="edge" d="M 0 0 V -31.0445 H -25.4375" /><circle class="sym" cx="0" cy="0" r="3" /><text class="lab rgt" transform="translate(3 -7.0)">22</text></g><g class="a24 c2 node n23 p0" transform="translate(-25.4375 10.3735)"><g class="a23 leaf node n3 p0 sample" transform="translate(17.875 84.2265)"><path class="edge" d="M 0 0 V -84.2265 H -17.875" /><rect class="sym" height="6" width="6" x="-3" y="-3" /><text class="lab" transform="translate(0 11)">3</text></g><g class="a23 c2 node n21 p0" transform="translate(-17.875 42.5831)"><g class="a21 leaf node n9 p0 sample" transform="translate(21.0833 41.6434)"><path class="edge" d="M 0 0 V -41.6434 H -21.0833" /><rect class="sym" height="6" width="6" x="-3" y="-3" /><text class="lab" transform="translate(0 11)">9</text></g><g class="a21 c2 node n20 p0" transform="translate(-21.0833 2.2595)"><g class="a20 c2 node n14 p0" transform="translate(-20.1667 34.011)"><g class="a14 leaf node n0 p0 sample" transform="translate(-11 5.37285)"><path class="edge" d="M 0 0 V -5.37285 H 11" /><rect class="sym" height="6" width="6" x="-3" y="-3" /><text class="lab" transform="translate(0 11)">0</text></g><g class="a14 c2 node n12 p0" transform="translate(11 4.76241)"><g class="a12 leaf node n1 p0 sample" transform="translate(-7.33333 0.61044)"><path class="edge" d="M 0 0 V -0.61044 H 7.33333" /><rect class="sym" height="6" width="6" x="-3" y="-3" /><text class="lab" transform="translate(0 11)">1</text></g><g class="a12 leaf node n5 p0 sample" transform="translate(7.33333 0.61044)"><path class="edge" d="M 0 0 V -0.61044 H -7.33333" /><rect class="sym" height="6" width="6" x="-3" y="-3" /><text class="lab" transform="translate(0 11)">5</text></g><path class="edge" d="M 0 0 V -4.76241 H -11" /><circle class="sym" cx="0" cy="0" r="3" /><text class="lab rgt" transform="translate(3 -7.0)">12</text></g><path class="edge" d="M 0 0 V -34.011 H 20.1667" /><circle class="sym" cx="0" cy="0" r="3" /><text class="lab lft" transform="translate(-3 -7.0)">14</text></g><g class="a20 c2 node n19 p0" transform="translate(20.1667 32.4279)"><g class="a19 c1 node n13 p0" transform="translate(-7.33333 3.38884)"><g class="a13 leaf node n4 p0 sample" transform="translate(0.0 3.56715)"><path class="edge" d="M 0 0 V -3.56715 H 0.0" /><rect class="sym" height="6" width="6" x="-3" y="-3" /><text class="lab" transform="translate(0 11)">4</text></g><path class="edge" d="M 0 0 V -3.38884 H 7.33333" /><circle class="sym" cx="0" cy="0" r="3" /><text class="lab lft" transform="translate(-3 -7.0)">13</text></g><g class="a19 c1 node n17 p0" transform="translate(7.33333 0.761384)"><g class="a17 leaf node n6 p0 sample" transform="translate(0.0 6.19461)"><path class="edge" d="M 0 0 V -6.19461 H 0.0" /><rect class="sym" height="6" width="6" x="-3" y="-3" /><text class="lab" transform="translate(0 11)">6</text></g><path class="edge" d="M 0 0 V -0.761384 H -7.33333" /><circle class="sym" cx="0" cy="0" r="3" /><text class="lab rgt" transform="translate(3 -7.0)">17</text></g><path class="edge" d="M 0 0 V -32.4279 H -20.1667" /><circle class="sym" cx="0" cy="0" r="3" /><text class="lab rgt" transform="translate(3 -7.0)">19</text></g><path class="edge" d="M 0 0 V -2.2595 H 21.0833" /><circle class="sym" cx="0" cy="0" r="3" /><text class="lab lft" transform="translate(-3 -7.0)">20</text></g><path class="edge" d="M 0 0 V -42.5831 H 17.875" /><circle class="sym" cx="0" cy="0" r="3" /><text class="lab lft" transform="translate(-3 -7.0)">21</text></g><path class="edge" d="M 0 0 V -10.3735 H 25.4375" /><circle class="sym" cx="0" cy="0" r="3" /><text class="lab lft" transform="translate(-3 -7.0)">23</text></g><circle class="sym" cx="0" cy="0" r="3" /><text class="lab" transform="translate(0 -11)">24</text></g></g></g><g class="tree t1" transform="translate(206.667 0)"><g class="plotbox"><g class="c2 node n24 p0 root" transform="translate(130.458 26.8)"><g class="a24 c1 node n22 p0" transform="translate(21.5417 31.0445)"><g class="a22 c2 node n18 p0" transform="translate(0.0 56.6821)"><g class="a18 leaf node n2 p0 sample" transform="translate(-7.33333 6.87339)"><path class="edge" d="M 0 0 V -6.87339 H 7.33333" /><rect class="sym" height="6" width="6" x="-3" y="-3" /><text class="lab" transform="translate(0 11)">2</text></g><g class="a18 c1 node n10 p0" transform="translate(7.33333 6.85324)"><g class="a10 leaf node n7 p0 sample" transform="translate(0.0 0.0201556)"><path class="edge" d="M 0 0 V -0.0201556 H 0.0" /><rect class="sym" height="6" width="6" x="-3" y="-3" /><text class="lab" transform="translate(0 11)">7</text></g><path class="edge" d="M 0 0 V -6.85324 H -7.33333" /><circle class="sym" cx="0" cy="0" r="3" /><text class="lab rgt" transform="translate(3 -7.0)">10</text></g><path class="edge" d="M 0 0 V -56.6821 H 0.0" /><circle class="sym" cx="0" cy="0" r="3" /><text class="lab lft" transform="translate(-3 -7.0)">18</text></g><path class="edge" d="M 0 0 V -31.0445 H -21.5417" /><circle class="sym" cx="0" cy="0" r="3" /><text class="lab rgt" transform="translate(3 -7.0)">22</text></g><g class="a24 c2 node n23 p0" transform="translate(-21.5417 10.3735)"><g class="a23 leaf node n3 p0 sample" transform="translate(21.0833 84.2265)"><path class="edge" d="M 0 0 V -84.2265 H -21.0833" /><rect class="sym" height="6" width="6" x="-3" y="-3" /><text class="lab" transform="translate(0 11)">3</text></g><g class="a23 c2 node n21 p0" transform="translate(-21.0833 42.5831)"><g class="a21 leaf node n9 p0 sample" transform="translate(27.5 41.6434)"><path class="edge" d="M 0 0 V -41.6434 H -27.5" /><rect class="sym" height="6" width="6" x="-3" y="-3" /><text class="lab" transform="translate(0 11)">9</text></g><g class="a21 c2 node n20 p0" transform="translate(-27.5 2.2595)"><g class="a20 c2 node n14 p0" transform="translate(-22 34.011)"><g class="a14 leaf node n0 p0 sample" transform="translate(-11 5.37285)"><path class="edge" d="M 0 0 V -5.37285 H 11" /><rect class="sym" height="6" width="6" x="-3" y="-3" /><text class="lab" transform="translate(0 11)">0</text></g><g class="a14 c2 node n12 p0" transform="translate(11 4.76241)"><g class="a12 leaf node n1 p0 sample" transform="translate(-7.33333 0.61044)"><path class="edge" d="M 0 0 V -0.61044 H 7.33333" /><rect class="sym" height="6" width="6" x="-3" y="-3" /><text class="lab" transform="translate(0 11)">1</text></g><g class="a12 leaf node n5 p0 sample" transform="translate(7.33333 0.61044)"><path class="edge" d="M 0 0 V -0.61044 H -7.33333" /><rect class="sym" height="6" width="6" x="-3" y="-3" /><text class="lab" transform="translate(0 11)">5</text></g><path class="edge" d="M 0 0 V -4.76241 H -11" /><circle class="sym" cx="0" cy="0" r="3" /><text class="lab rgt" transform="translate(3 -7.0)">12</text></g><path class="edge" d="M 0 0 V -34.011 H 22" /><circle class="sym" cx="0" cy="0" r="3" /><text class="lab lft" transform="translate(-3 -7.0)">14</text></g><g class="a20 c2 node n19 p0" transform="translate(22 32.4279)"><g class="a19 c1 node n13 p0" transform="translate(-11 3.38884)"><g class="a13 leaf node n4 p0 sample" transform="translate(0.0 3.56715)"><path class="edge" d="M 0 0 V -3.56715 H 0.0" /><rect class="sym" height="6" width="6" x="-3" y="-3" /><text class="lab" transform="translate(0 11)">4</text></g><path class="edge" d="M 0 0 V -3.38884 H 11" /><circle class="sym" cx="0" cy="0" r="3" /><text class="lab lft" transform="translate(-3 -7.0)">13</text></g><g class="a19 c2 node n17 p0" transform="translate(11 0.761384)"><g class="a17 leaf node n6 p0 sample" transform="translate(-7.33333 6.19461)"><path class="edge" d="M 0 0 V -6.19461 H 7.33333" /><rect class="sym" height="6" width="6" x="-3" y="-3" /><text class="lab" transform="translate(0 11)">6</text></g><g class="a17 c1 node n16 p0" transform="translate(7.33333 0.0867777)"><g class="a16 leaf node n8 p0 sample" transform="translate(0.0 6.10783)"><path class="edge" d="M 0 0 V -6.10783 H 0.0" /><rect class="sym" height="6" width="6" x="-3" y="-3" /><text class="lab" transform="translate(0 11)">8</text></g><path class="edge" d="M 0 0 V -0.0867777 H -7.33333" /><circle class="sym" cx="0" cy="0" r="3" /><text class="lab rgt" transform="translate(3 -7.0)">16</text></g><path class="edge" d="M 0 0 V -0.761384 H -11" /><circle class="sym" cx="0" cy="0" r="3" /><text class="lab rgt" transform="translate(3 -7.0)">17</text></g><path class="edge" d="M 0 0 V -32.4279 H -22" /><circle class="sym" cx="0" cy="0" r="3" /><text class="lab rgt" transform="translate(3 -7.0)">19</text></g><path class="edge" d="M 0 0 V -2.2595 H 27.5" /><circle class="sym" cx="0" cy="0" r="3" /><text class="lab lft" transform="translate(-3 -7.0)">20</text></g><path class="edge" d="M 0 0 V -42.5831 H 21.0833" /><circle class="sym" cx="0" cy="0" r="3" /><text class="lab lft" transform="translate(-3 -7.0)">21</text></g><path class="edge" d="M 0 0 V -10.3735 H 21.5417" /><circle class="sym" cx="0" cy="0" r="3" /><text class="lab lft" transform="translate(-3 -7.0)">23</text></g><circle class="sym" cx="0" cy="0" r="3" /><text class="lab" transform="translate(0 -11)">24</text></g></g></g><g class="tree t2" transform="translate(393.333 0)"><g class="plotbox"><g class="c2 node n24 p0 root" transform="translate(140.312 26.8)"><g class="a24 c1 node n22 p0" transform="translate(19.0208 31.0445)"><g class="a22 c1 node n18 p0" transform="translate(0.0 56.6821)"><g class="a18 leaf node n2 p0 sample" transform="translate(0.0 6.87339)"><path class="edge" d="M 0 0 V -6.87339 H 0.0" /><rect class="sym" height="6" width="6" x="-3" y="-3" /><text class="lab" transform="translate(0 11)">2</text></g><path class="edge" d="M 0 0 V -56.6821 H 0.0" /><circle class="sym" cx="0" cy="0" r="3" /><text class="lab lft" transform="translate(-3 -7.0)">18</text></g><path class="edge" d="M 0 0 V -31.0445 H -19.0208" /><circle class="sym" cx="0" cy="0" r="3" /><text class="lab rgt" transform="translate(3 -7.0)">22</text></g><g class="a24 c2 node n23 p0" transform="translate(-19.0208 10.3735)"><g class="a23 leaf node n3 p0 sample" transform="translate(23.375 84.2265)"><path class="edge" d="M 0 0 V -84.2265 H -23.375" /><rect class="sym" height="6" width="6" x="-3" y="-3" /><text class="lab" transform="translate(0 11)">3</text></g><g class="a23 c2 node n21 p0" transform="translate(-23.375 42.5831)"><g class="a21 leaf node n9 p0 sample" transform="translate(32.0833 41.6434)"><path class="edge" d="M 0 0 V -41.6434 H -32.0833" /><rect class="sym" height="6" width="6" x="-3" y="-3" /><text class="lab" transform="translate(0 11)">9</text></g><g class="a21 c2 node n20 p0" transform="translate(-32.0833 2.2595)"><g class="a20 c2 node n14 p0" transform="translate(-27.5 34.011)"><g class="a14 leaf node n0 p0 sample" transform="translate(-11 5.37285)"><path class="edge" d="M 0 0 V -5.37285 H 11" /><rect class="sym" height="6" width="6" x="-3" y="-3" /><text class="lab" transform="translate(0 11)">0</text></g><g class="a14 c2 node n12 p0" transform="translate(11 4.76241)"><g class="a12 leaf node n1 p0 sample" transform="translate(-7.33333 0.61044)"><path class="edge" d="M 0 0 V -0.61044 H 7.33333" /><rect class="sym" height="6" width="6" x="-3" y="-3" /><text class="lab" transform="translate(0 11)">1</text></g><g class="a12 leaf node n5 p0 sample" transform="translate(7.33333 0.61044)"><path class="edge" d="M 0 0 V -0.61044 H -7.33333" /><rect class="sym" height="6" width="6" x="-3" y="-3" /><text class="lab" transform="translate(0 11)">5</text></g><path class="edge" d="M 0 0 V -4.76241 H -11" /><circle class="sym" cx="0" cy="0" r="3" /><text class="lab rgt" transform="translate(3 -7.0)">12</text></g><path class="edge" d="M 0 0 V -34.011 H 27.5" /><circle class="sym" cx="0" cy="0" r="3" /><text class="lab lft" transform="translate(-3 -7.0)">14</text></g><g class="a20 c2 node n19 p0" transform="translate(27.5 32.4279)"><g class="a19 c2 node n13 p0" transform="translate(-14.6667 3.38884)"><g class="a13 leaf node n4 p0 sample" transform="translate(-7.33333 3.56715)"><path class="edge" d="M 0 0 V -3.56715 H 7.33333" /><rect class="sym" height="6" width="6" x="-3" y="-3" /><text class="lab" transform="translate(0 11)">4</text></g><g class="a13 c1 node n11 p0" transform="translate(7.33333 3.547)"><g class="a11 leaf node n7 p0 sample" transform="translate(0.0 0.0201556)"><path class="edge" d="M 0 0 V -0.0201556 H 0.0" /><rect class="sym" height="6" width="6" x="-3" y="-3" /><text class="lab" transform="translate(0 11)">7</text></g><path class="edge" d="M 0 0 V -3.547 H -7.33333" /><circle class="sym" cx="0" cy="0" r="3" /><text class="lab rgt" transform="translate(3 -7.0)">11</text></g><path class="edge" d="M 0 0 V -3.38884 H 14.6667" /><circle class="sym" cx="0" cy="0" r="3" /><text class="lab lft" transform="translate(-3 -7.0)">13</text></g><g class="a19 c2 node n17 p0" transform="translate(14.6667 0.761384)"><g class="a17 leaf node n6 p0 sample" transform="translate(-7.33333 6.19461)"><path class="edge" d="M 0 0 V -6.19461 H 7.33333" /><rect class="sym" height="6" width="6" x="-3" y="-3" /><text class="lab" transform="translate(0 11)">6</text></g><g class="a17 c1 node n16 p0" transform="translate(7.33333 0.0867777)"><g class="a16 leaf node n8 p0 sample" transform="translate(0.0 6.10783)"><path class="edge" d="M 0 0 V -6.10783 H 0.0" /><rect class="sym" height="6" width="6" x="-3" y="-3" /><text class="lab" transform="translate(0 11)">8</text></g><path class="edge" d="M 0 0 V -0.0867777 H -7.33333" /><circle class="sym" cx="0" cy="0" r="3" /><text class="lab rgt" transform="translate(3 -7.0)">16</text></g><path class="edge" d="M 0 0 V -0.761384 H -14.6667" /><circle class="sym" cx="0" cy="0" r="3" /><text class="lab rgt" transform="translate(3 -7.0)">17</text></g><path class="edge" d="M 0 0 V -32.4279 H -27.5" /><circle class="sym" cx="0" cy="0" r="3" /><text class="lab rgt" transform="translate(3 -7.0)">19</text></g><path class="edge" d="M 0 0 V -2.2595 H 32.0833" /><circle class="sym" cx="0" cy="0" r="3" /><text class="lab lft" transform="translate(-3 -7.0)">20</text></g><path class="edge" d="M 0 0 V -42.5831 H 23.375" /><circle class="sym" cx="0" cy="0" r="3" /><text class="lab lft" transform="translate(-3 -7.0)">21</text></g><path class="edge" d="M 0 0 V -10.3735 H 19.0208" /><circle class="sym" cx="0" cy="0" r="3" /><text class="lab lft" transform="translate(-3 -7.0)">23</text></g><circle class="sym" cx="0" cy="0" r="3" /><text class="lab" transform="translate(0 -11)">24</text></g></g></g></g></g></svg>
