<svg baseProfile="full" height="200" version="1.1" width="600" xmlns="http://www.w3.org/2000/svg" xmlns:ev="http://www.w3.org/2001/xml-events" xmlns:xlink="http://www.w3.org/1999/xlink"><defs><style type="text/css"><![CDATA[.background path {fill: #808080; fill-opacity: 0}.background path:nth-child(odd) {fill-opacity: .1}.axes {font-size: 14px}.x-axis .tick .lab {font-weight: bold; dominant-baseline: hanging}.axes, .tree {font-size: 14px; text-anchor: middle}.axes line, .edge {stroke: black; fill: none}.y-axis .grid {stroke: #FAFAFA}.node > .sym {fill: black; stroke: none}.site > .sym {stroke: black}.mut text {fill: red; font-style: italic}.mut.extra text {fill: hotpink}.mut line {fill: none; stroke: none}.mut .sym {fill: none; stroke: red}.mut.extra .sym {stroke: hotpink}.node .mut .sym {stroke-width: 1.5px}.tree text, .tree-sequence text {dominant-baseline: central}.plotbox .lab.lft {text-anchor: end}.plotbox .lab.rgt {text-anchor: start}]]></style></defs><g class="tree-sequence"><g class="background"><path d="M20,0 l186.667,0 l0,138.2 l-177.014,25 l0,5 l-9.65253,0 l0,-5 l0,-25 l0,-138.2z" /><path d="M206.667,0 l186.667,0 l0,138.2 l-179.908,25 l0,5 l-183.773,0 l0,-5 l177.014,-25 l0,-138.2z" /><path d="M393.333,0 l186.667,0 l0,138.2 l0,25 l0,5 l-366.574,0 l0,-5 l179.908,-25 l0,-138.2z" /></g><g class="axes"><g class="x-axis"><g transform="translate(300 200)"><text class="lab" text-anchor="middle" transform="translate(0 -11)">Genome position</text></g><line x1="20" x2="580" y1="163.2" y2="163.2" /><g class="ticks"><g class="tick" transform="translate(20 163.2)"><line x1="0" x2="0" y1="0" y2="5" /><g transform="translate(0 6)"><text class="lab">0.00</text></g></g><g class="tick" transform="translate(29.6525 163.2)"><line x1="0" x2="0" y1="0" y2="5" /><g transform="translate(0 6)"><text class="lab">17.24</text></g></g><g class="tick" transform="translate(213.426 163.2)"><line x1="0" x2="0" y1="0" y2="5" /><g transform="translate(0 6)"><text class="lab">345.40</text></g></g><g class="tick" transform="translate(580 163.2)"><line x1="0" x2="0" y1="0" y2="5" /><g transform="translate(0 6)"><text class="lab">1000.00</text></g></g></g></g></g><g class="plotbox trees"><g class="tree t0" transform="translate(20 0)"><g class="plotbox"><g class="c2 node n24 p0 root" transform="translate(106.625 26.8)"><g class="a24 c2 node n22 p0" transform="translate(-30.7083 66.854)"><g class="a22 c2 node n19 p0" transform="translate(-24.75 7.80187)"><g class="a19 c2 node n10 p0" transform="translate(-16.5 19.444)"><g class="a10 leaf node n0 p0 sample" transform="translate(-7.33333 0.500128)"><path class="edge" d="M 0 0 V -0.500128 H 7.33333" /><rect class="sym" height="6" width="6" x="-3" y="-3" /><text class="lab" transform="translate(0 11)">0</text></g><g class="a10 leaf node n3 p0 sample" transform="translate(7.33333 0.500128)"><path class="edge" d="M 0 0 V -0.500128 H -7.33333" /><rect class="sym" height="6" width="6" x="-3" y="-3" /><text class="lab" transform="translate(0 11)">3</text></g><path class="edge" d="M 0 0 V -19.444 H 16.5" /><circle class="sym" cx="0" cy="0" r="3" /><text class="lab lft" transform="translate(-3 -7.0)">10</text></g><g class="a19 c2 node n18 p0" transform="translate(16.5 0.349772)"><g class="a18 leaf node n2 p0 sample" transform="translate(-11 19.5944)"><path class="edge" d="M 0 0 V -19.5944 H 11" /><rect class="sym" height="6" width="6" x="-3" y="-3" /><text class="lab" transform="translate(0 11)">2</text></g><g class="a18 c1 node n14 p0" transform="translate(11 16.3217)"><g class="a14 c2 node n13 p0" transform="translate(0.0 0.658509)"><g class="a13 leaf node n6 p0 sample" transform="translate(7.33333 2.61411)"><path class="edge" d="M 0 0 V -2.61411 H -7.33333" /><rect class="sym" height="6" width="6" x="-3" y="-3" /><text class="lab" transform="translate(0 11)">6</text></g><g class="a13 c1 node n11 p0" transform="translate(-7.33333 1.70646)"><g class="a11 leaf node n5 p0 sample" transform="translate(0.0 0.907657)"><path class="edge" d="M 0 0 V -0.907657 H 0.0" /><rect class="sym" height="6" width="6" x="-3" y="-3" /><text class="lab" transform="translate(0 11)">5</text></g><path class="edge" d="M 0 0 V -1.70646 H 7.33333" /><circle class="sym" cx="0" cy="0" r="3" /><text class="lab lft" transform="translate(-3 -7.0)">11</text></g><path class="edge" d="M 0 0 V -0.658509 H 0.0" /><circle class="sym" cx="0" cy="0" r="3" /><text class="lab lft" transform="translate(-3 -7.0)">13</text></g><path class="edge" d="M 0 0 V -16.3217 H -11" /><circle class="sym" cx="0" cy="0" r="3" /><text class="lab rgt" transform="translate(3 -7.0)">14</text></g><path class="edge" d="M 0 0 V -0.349772 H -16.5" /><circle class="sym" cx="0" cy="0" r="3" /><text class="lab rgt" transform="translate(3 -7.0)">18</text></g><path class="edge" d="M 0 0 V -7.80187 H 24.75" /><circle class="sym" cx="0" cy="0" r="3" /><text class="lab lft" transform="translate(-3 -7.0)">19</text></g><g class="a22 c1 node n20 p0" transform="translate(24.75 6.72564)"><g class="a20 leaf node n8 p0 sample" transform="translate(0.0 21.0204)"><path class="edge" d="M 0 0 V -21.0204 H 0.0" /><rect class="sym" height="6" width="6" x="-3" y="-3" /><text class="lab" transform="translate(0 11)">8</text></g><path class="edge" d="M 0 0 V -6.72564 H -24.75" /><circle class="sym" cx="0" cy="0" r="3" /><text class="lab rgt" transform="translate(3 -7.0)">20</text></g><path class="edge" d="M 0 0 V -66.854 H 30.7083" /><circle class="sym" cx="0" cy="0" r="3" /><text class="lab lft" transform="translate(-3 -7.0)">22</text></g><g class="a24 c2 node n23 p0" transform="translate(30.7083 36.8603)"><g class="a23 c2 node n17 p0" transform="translate(-14.6667 43.4651)"><g class="a17 leaf node n9 p0 sample" transform="translate(7.33333 14.2747)"><path class="edge" d="M 0 0 V -14.2747 H -7.33333" /><rect class="sym" height="6" width="6" x="-3" y="-3" /><text class="lab" transform="translate(0 11)">9</text></g><g class="a17 c1 node n15 p0" transform="translate(-7.33333 10.1031)"><g class="a15 leaf node n1 p0 sample" transform="translate(0.0 4.17155)"><path class="edge" d="M 0 0 V -4.17155 H 0.0" /><rect class="sym" height="6" width="6" x="-3" y="-3" /><text class="lab" transform="translate(0 11)">1</text></g><path class="edge" d="M 0 0 V -10.1031 H 7.33333" /><circle class="sym" cx="0" cy="0" r="3" /><text class="lab lft" transform="translate(-3 -7.0)">15</text></g><path class="edge" d="M 0 0 V -43.4651 H 14.6667" /><circle class="sym" cx="0" cy="0" r="3" /><text class="lab lft" transform="translate(-3 -7.0)">17</text></g><g class="a23 c2 node n21 p0" transform="translate(14.6667 30.1013)"><g class="a21 leaf node n4 p0 sample" transform="translate(-7.33333 27.6384)"><path class="edge" d="M 0 0 V -27.6384 H 7.33333" /><rect class="sym" height="6" width="6" x="-3" y="-3" /><text class="lab" transform="translate(0 11)">4</text></g><g class="a21 leaf node n7 p0 sample" transform="translate(7.33333 27.6384)"><path class="edge" d="M 0 0 V -27.6384 H -7.33333" /><rect class="sym" height="6" width="6" x="-3" y="-3" /><text class="lab" transform="translate(0 11)">7</text></g><path class="edge" d="M 0 0 V -30.1013 H -14.6667" /><circle class="sym" cx="0" cy="0" r="3" /><text class="lab rgt" transform="translate(3 -7.0)">21</text></g><path class="edge" d="M 0 0 V -36.8603 H -30.7083" /><circle class="sym" cx="0" cy="0" r="3" /><text class="lab rgt" transform="translate(3 -7.0)">23</text></g><circle class="sym" cx="0" cy="0" r="3" /><text class="lab" transform="translate(0 -11)">24</text></g></g></g><g class="tree t1" transform="translate(206.667 0)"><g class="plotbox"><g class="c2 node n24 p0 root" transform="translate(106.625 26.8)"><g class="a24 c2 node n22 p0" transform="translate(-30.7083 66.854)"><g class="a22 c2 node n19 p0" transform="translate(-24.75 7.80187)"><g class="a19 c2 node n10 p0" transform="translate(-16.5 19.444)"><g class="a10 leaf node n0 p0 sample" transform="translate(-7.33333 0.500128)"><path class="edge" d="M 0 0 V -0.500128 H 7.33333" /><rect class="sym" height="6" width="6" x="-3" y="-3" /><text class="lab" transform="translate(0 11)">0</text></g><g class="a10 leaf node n3 p0 sample" transform="translate(7.33333 0.500128)"><path class="edge" d="M 0 0 V -0.500128 H -7.33333" /><rect class="sym" height="6" width="6" x="-3" y="-3" /><text class="lab" transform="translate(0 11)">3</text></g><path class="edge" d="M 0 0 V -19.444 H 16.5" /><circle class="sym" cx="0" cy="0" r="3" /><text class="lab lft" transform="translate(-3 -7.0)">10</text></g><g class="a19 c2 node n18 p0" transform="translate(16.5 0.349772)"><g class="a18 leaf node n2 p0 sample" transform="translate(-11 19.5944)"><path class="edge" d="M 0 0 V -19.5944 H 11" /><rect class="sym" height="6" width="6" x="-3" y="-3" /><text class="lab" transform="translate(0 11)">2</text></g><g class="a18 c2 node n14 p0" transform="translate(11 16.3217)"><g class="a14 c1 node n13 p0" transform="translate(7.33333 0.658509)"><g class="a13 leaf node n6 p0 sample" transform="translate(0.0 2.61411)"><path class="edge" d="M 0 0 V -2.61411 H 0.0" /><rect class="sym" height="6" width="6" x="-3" y="-3" /><text class="lab" transform="translate(0 11)">6</text></g><path class="edge" d="M 0 0 V -0.658509 H -7.33333" /><circle class="sym" cx="0" cy="0" r="3" /><text class="lab rgt" transform="translate(3 -7.0)">13</text></g><g class="a14 c1 node n12 p0" transform="translate(-7.33333 2.36497)"><g class="a12 leaf node n5 p0 sample" transform="translate(0.0 0.907657)"><path class="edge" d="M 0 0 V -0.907657 H 0.0" /><rect class="sym" height="6" width="6" x="-3" y="-3" /><text class="lab" transform="translate(0 11)">5</text></g><path class="edge" d="M 0 0 V -2.36497 H 7.33333" /><circle class="sym" cx="0" cy="0" r="3" /><text class="lab lft" transform="translate(-3 -7.0)">12</text></g><path class="edge" d="M 0 0 V -16.3217 H -11" /><circle class="sym" cx="0" cy="0" r="3" /><text class="lab rgt" transform="translate(3 -7.0)">14</text></g><path class="edge" d="M 0 0 V -0.349772 H -16.5" /><circle class="sym" cx="0" cy="0" r="3" /><text class="lab rgt" transform="translate(3 -7.0)">18</text></g><path class="edge" d="M 0 0 V -7.80187 H 24.75" /><circle class="sym" cx="0" cy="0" r="3" /><text class="lab lft" transform="translate(-3 -7.0)">19</text></g><g class="a22 c1 node n20 p0" transform="translate(24.75 6.72564)"><g class="a20 leaf node n8 p0 sample" transform="translate(0.0 21.0204)"><path class="edge" d="M 0 0 V -21.0204 H 0.0" /><rect class="sym" height="6" width="6" x="-3" y="-3" /><text class="lab" transform="translate(0 11)">8</text></g><path class="edge" d="M 0 0 V -6.72564 H -24.75" /><circle class="sym" cx="0" cy="0" r="3" /><text class="lab rgt" transform="translate(3 -7.0)">20</text></g><path class="edge" d="M 0 0 V -66.854 H 30.7083" /><circle class="sym" cx="0" cy="0" r="3" /><text class="lab lft" transform="translate(-3 -7.0)">22</text></g><g class="a24 c2 node n23 p0" transform="translate(30.7083 36.8603)"><g class="a23 c2 node n17 p0" transform="translate(-14.6667 43.4651)"><g class="a17 leaf node n9 p0 sample" transform="translate(7.33333 14.2747)"><path class="edge" d="M 0 0 V -14.2747 H -7.33333" /><rect class="sym" height="6" width="6" x="-3" y="-3" /><text class="lab" transform="translate(0 11)">9</text></g><g class="a17 c1 node n15 p0" transform="translate(-7.33333 10.1031)"><g class="a15 leaf node n1 p0 sample" transform="translate(0.0 4.17155)"><path class="edge" d="M 0 0 V -4.17155 H 0.0" /><rect class="sym" height="6" width="6" x="-3" y="-3" /><text class="lab" transform="translate(0 11)">1</text></g><path class="edge" d="M 0 0 V -10.1031 H 7.33333" /><circle class="sym" cx="0" cy="0" r="3" /><text class="lab lft" transform="translate(-3 -7.0)">15</text></g><path class="edge" d="M 0 0 V -43.4651 H 14.6667" /><circle class="sym" cx="0" cy="0" r="3" /><text class="lab lft" transform="translate(-3 -7.0)">17</text></g><g class="a23 c2 node n21 p0" transform="translate(14.6667 30.1013)"><g class="a21 leaf node n4 p0 sample" transform="translate(-7.33333 27.6384)"><path class="edge" d="M 0 0 V -27.6384 H 7.33333" /><rect class="sym" height="6" width="6" x="-3" y="-3" /><text class="lab" transform="translate(0 11)">4</text></g><g class="a21 leaf node n7 p0 sample" transform="translate(7.33333 27.6384)"><path class="edge" d="M 0 0 V -27.6384 H -7.33333" /><rect class="sym" height="6" width="6" x="-3" y="-3" /><text class="lab" transform="translate(0 11)">7</text></g><path class="edge" d="M 0 0 V -30.1013 H -14.6667" /><circle class="sym" cx="0" cy="0" r="3" /><text class="lab rgt" transform="translate(3 -7.0)">21</text></g><path class="edge" d="M 0 0 V -36.8603 H -30.7083" /><circle class="sym" cx="0" cy="0" r="3" /><text class="lab rgt" transform="translate(3 -7.0)">23</text></g><circle class="sym" cx="0" cy="0" r="3" /><text class="lab" transform="translate(0 -11)">24</text></g></g></g><g class="tree t2" transform="translate(393.333 0)"><g class="plotbox"><g class="c2 node n24 p0 root" transform="translate(113.958 26.8)"><g class="a24 c2 node n22 p0" transform="translate(-34.375 66.854)"><g class="a22 c2 node n19 p0" transform="translate(-28.4167 7.80187)"><g class="a19 c2 node n10 p0" transform="translate(-16.5 19.444)"><g class="a10 leaf node n0 p0 sample" transform="translate(-7.33333 0.500128)"><path class="edge" d="M 0 0 V -0.500128 H 7.33333" /><rect class="sym" height="6" width="6" x="-3" y="-3" /><text class="lab" transform="translate(0 11)">0</text></g><g class="a10 leaf node n3 p0 sample" transform="translate(7.33333 0.500128)"><path class="edge" d="M 0 0 V -0.500128 H -7.33333" /><rect class="sym" height="6" width="6" x="-3" y="-3" /><text class="lab" transform="translate(0 11)">3</text></g><path class="edge" d="M 0 0 V -19.444 H 16.5" /><circle class="sym" cx="0" cy="0" r="3" /><text class="lab lft" transform="translate(-3 -7.0)">10</text></g><g class="a19 c2 node n18 p0" transform="translate(16.5 0.349772)"><g class="a18 leaf node n2 p0 sample" transform="translate(-11 19.5944)"><path class="edge" d="M 0 0 V -19.5944 H 11" /><rect class="sym" height="6" width="6" x="-3" y="-3" /><text class="lab" transform="translate(0 11)">2</text></g><g class="a18 c2 node n14 p0" transform="translate(11 16.3217)"><g class="a14 c1 node n13 p0" transform="translate(7.33333 0.658509)"><g class="a13 leaf node n6 p0 sample" transform="translate(0.0 2.61411)"><path class="edge" d="M 0 0 V -2.61411 H 0.0" /><rect class="sym" height="6" width="6" x="-3" y="-3" /><text class="lab" transform="translate(0 11)">6</text></g><path class="edge" d="M 0 0 V -0.658509 H -7.33333" /><circle class="sym" cx="0" cy="0" r="3" /><text class="lab rgt" transform="translate(3 -7.0)">13</text></g><g class="a14 c1 node n12 p0" transform="translate(-7.33333 2.36497)"><g class="a12 leaf node n5 p0 sample" transform="translate(0.0 0.907657)"><path class="edge" d="M 0 0 V -0.907657 H 0.0" /><rect class="sym" height="6" width="6" x="-3" y="-3" /><text class="lab" transform="translate(0 11)">5</text></g><path class="edge" d="M 0 0 V -2.36497 H 7.33333" /><circle class="sym" cx="0" cy="0" r="3" /><text class="lab lft" transform="translate(-3 -7.0)">12</text></g><path class="edge" d="M 0 0 V -16.3217 H -11" /><circle class="sym" cx="0" cy="0" r="3" /><text class="lab rgt" transform="translate(3 -7.0)">14</text></g><path class="edge" d="M 0 0 V -0.349772 H -16.5" /><circle class="sym" cx="0" cy="0" r="3" /><text class="lab rgt" transform="translate(3 -7.0)">18</text></g><path class="edge" d="M 0 0 V -7.80187 H 28.4167" /><circle class="sym" cx="0" cy="0" r="3" /><text class="lab lft" transform="translate(-3 -7.0)">19</text></g><g class="a22 c2 node n20 p0" transform="translate(28.4167 6.72564)"><g class="a20 leaf node n8 p0 sample" transform="translate(7.33333 21.0204)"><path class="edge" d="M 0 0 V -21.0204 H -7.33333" /><rect class="sym" height="6" width="6" x="-3" y="-3" /><text class="lab" transform="translate(0 11)">8</text></g><g class="a20 c1 node n16 p0" transform="translate(-7.33333 16.8488)"><g class="a16 leaf node n1 p0 sample" transform="translate(0.0 4.17155)"><path class="edge" d="M 0 0 V -4.17155 H 0.0" /><rect class="sym" height="6" width="6" x="-3" y="-3" /><text class="lab" transform="translate(0 11)">1</text></g><path class="edge" d="M 0 0 V -16.8488 H 7.33333" /><circle class="sym" cx="0" cy="0" r="3" /><text class="lab lft" transform="translate(-3 -7.0)">16</text></g><path class="edge" d="M 0 0 V -6.72564 H -28.4167" /><circle class="sym" cx="0" cy="0" r="3" /><text class="lab rgt" transform="translate(3 -7.0)">20</text></g><path class="edge" d="M 0 0 V -66.854 H 34.375" /><circle class="sym" cx="0" cy="0" r="3" /><text class="lab lft" transform="translate(-3 -7.0)">22</text></g><g class="a24 c2 node n23 p0" transform="translate(34.375 36.8603)"><g class="a23 c1 node n17 p0" transform="translate(11 43.4651)"><g class="a17 leaf node n9 p0 sample" transform="translate(0.0 14.2747)"><path class="edge" d="M 0 0 V -14.2747 H 0.0" /><rect class="sym" height="6" width="6" x="-3" y="-3" /><text class="lab" transform="translate(0 11)">9</text></g><path class="edge" d="M 0 0 V -43.4651 H -11" /><circle class="sym" cx="0" cy="0" r="3" /><text class="lab rgt" transform="translate(3 -7.0)">17</text></g><g class="a23 c2 node n21 p0" transform="translate(-11 30.1013)"><g class="a21 leaf node n4 p0 sample" transform="translate(-7.33333 27.6384)"><path class="edge" d="M 0 0 V -27.6384 H 7.33333" /><rect class="sym" height="6" width="6" x="-3" y="-3" /><text class="lab" transform="translate(0 11)">4</text></g><g class="a21 leaf node n7 p0 sample" transform="translate(7.33333 27.6384)"><path class="edge" d="M 0 0 V -27.6384 H -7.33333" /><rect class="sym" height="6" width="6" x="-3" y="-3" /><text class="lab" transform="translate(0 11)">7</text></g><path class="edge" d="M 0 0 V -30.1013 H 11" /><circle class="sym" cx="0" cy="0" r="3" /><text class="lab lft" transform="translate(-3 -7.0)">21</text></g><path class="edge" d="M 0 0 V -36.8603 H -34.375" /><circle class="sym" cx="0" cy="0" r="3" /><text class="lab rgt" transform="translate(3 -7.0)">23</text></g><circle class="sym" cx="0" cy="0" r="3" /><text class="lab" transform="translate(0 -11)">24</text></g></g></g></g></g></svg>
