<svg baseProfile="full" height="200" version="1.1" width="600" xmlns="http://www.w3.org/2000/svg" xmlns:ev="http://www.w3.org/2001/xml-events" xmlns:xlink="http://www.w3.org/1999/xlink"><defs><style type="text/css"><![CDATA[.background path {fill: #808080; fill-opacity: 0}.background path:nth-child(odd) {fill-opacity: .1}.axes {font-size: 14px}.x-axis .tick .lab {font-weight: bold; dominant-baseline: hanging}.axes, .tree {font-size: 14px; text-anchor: middle}.axes line, .edge {stroke: black; fill: none}.y-axis .grid {stroke: #FAFAFA}.node > .sym {fill: black; stroke: none}.site > .sym {stroke: black}.mut text {fill: red; font-style: italic}.mut.extra text {fill: hotpink}.mut line {fill: none; stroke: none}.mut .sym {fill: none; stroke: red}.mut.extra .sym {stroke: hotpink}.node .mut .sym {stroke-width: 1.5px}.tree text, .tree-sequence text {dominant-baseline: central}.plotbox .lab.lft {text-anchor: end}.plotbox .lab.rgt {text-anchor: start}]]></style></defs><g class="tree-sequence"><g class="background"><path d="M20,0 l186.667,0 l0,138.2 l-71.8412,25 l0,5 l-114.825,0 l0,-5 l0,-25 l0,-138.2z" /><path d="M206.667,0 l186.667,0 l0,138.2 l-129.661,25 l0,5 l-128.847,0 l0,-5 l71.8412,-25 l0,-138.2z" /><path d="M393.333,0 l186.667,0 l0,138.2 l0,25 l0,5 l-316.328,0 l0,-5 l129.661,-25 l0,-138.2z" /></g><g class="axes"><g class="x-axis"><g transform="translate(300 200)"><text class="lab" text-anchor="middle" transform="translate(0 -11)">Genome position</text></g><line x1="20" x2="580" y1="163.2" y2="163.2" /><g class="ticks"><g class="tick" transform="translate(20 163.2)"><line x1="0" x2="0" y1="0" y2="5" /><g transform="translate(0 6)"><text class="lab">0.00</text></g></g><g class="tick" transform="translate(134.825 163.2)"><line x1="0" x2="0" y1="0" y2="5" /><g transform="translate(0 6)"><text class="lab">205.05</text></g></g><g class="tick" transform="translate(263.672 163.2)"><line x1="0" x2="0" y1="0" y2="5" /><g transform="translate(0 6)"><text class="lab">435.13</text></g></g><g class="tick" transform="translate(580 163.2)"><line x1="0" x2="0" y1="0" y2="5" /><g transform="translate(0 6)"><text class="lab">1000.00</text></g></g></g></g></g><g class="plotbox trees"><g class="tree t0" transform="translate(20 0)"><g class="plotbox"><g class="c2 node n24 p0 root" transform="translate(111.667 26.8)"><g class="a24 c1 node n20 p0" transform="translate(47.6667 78.2597)"><g class="a20 leaf node n3 p0 sample" transform="translate(0.0 16.3403)"><path class="edge" d="M 0 0 V -16.3403 H 0.0" /><rect class="sym" height="6" width="6" x="-3" y="-3" /><text class="lab" transform="translate(0 11)">3</text></g><path class="edge" d="M 0 0 V -78.2597 H -47.6667" /><circle class="sym" cx="0" cy="0" r="3" /><text class="lab rgt" transform="translate(3 -7.0)">20</text></g><g class="a24 c1 node n23 p0" transform="translate(-47.6667 55.1579)"><g class="a23 c2 node n22 p0" transform="translate(0.0 12.7689)"><g class="a22 leaf node n0 p0 sample" transform="translate(-36.6667 26.6731)"><path class="edge" d="M 0 0 V -26.6731 H 36.6667" /><rect class="sym" height="6" width="6" x="-3" y="-3" /><text class="lab" transform="translate(0 11)">0</text></g><g class="a22 c2 node n21 p0" transform="translate(36.6667 7.43859)"><g class="a21 c2 node n18 p0" transform="translate(-31.1667 12.525)"><g class="a18 leaf node n8 p0 sample" transform="translate(16.5 6.70959)"><path class="edge" d="M 0 0 V -6.70959 H -16.5" /><rect class="sym" height="6" width="6" x="-3" y="-3" /><text class="lab" transform="translate(0 11)">8</text></g><g class="a18 c2 node n11 p0" transform="translate(-16.5 2.19355)"><g class="a11 leaf node n1 p0 sample" transform="translate(-11 4.51605)"><path class="edge" d="M 0 0 V -4.51605 H 11" /><rect class="sym" height="6" width="6" x="-3" y="-3" /><text class="lab" transform="translate(0 11)">1</text></g><g class="a11 c2 node n10 p0" transform="translate(11 3.2104)"><g class="a10 leaf node n6 p0 sample" transform="translate(-7.33333 1.30564)"><path class="edge" d="M 0 0 V -1.30564 H 7.33333" /><rect class="sym" height="6" width="6" x="-3" y="-3" /><text class="lab" transform="translate(0 11)">6</text></g><g class="a10 leaf node n9 p0 sample" transform="translate(7.33333 1.30564)"><path class="edge" d="M 0 0 V -1.30564 H -7.33333" /><rect class="sym" height="6" width="6" x="-3" y="-3" /><text class="lab" transform="translate(0 11)">9</text></g><path class="edge" d="M 0 0 V -3.2104 H -11" /><circle class="sym" cx="0" cy="0" r="3" /><text class="lab rgt" transform="translate(3 -7.0)">10</text></g><path class="edge" d="M 0 0 V -2.19355 H 16.5" /><circle class="sym" cx="0" cy="0" r="3" /><text class="lab lft" transform="translate(-3 -7.0)">11</text></g><path class="edge" d="M 0 0 V -12.525 H 31.1667" /><circle class="sym" cx="0" cy="0" r="3" /><text class="lab lft" transform="translate(-3 -7.0)">18</text></g><g class="a21 c2 node n19 p0" transform="translate(31.1667 3.89399)"><g class="a19 c1 node n14 p0" transform="translate(12.8333 9.55362)"><g class="a14 leaf node n7 p0 sample" transform="translate(0.0 5.78694)"><path class="edge" d="M 0 0 V -5.78694 H 0.0" /><rect class="sym" height="6" width="6" x="-3" y="-3" /><text class="lab" transform="translate(0 11)">7</text></g><path class="edge" d="M 0 0 V -9.55362 H -12.8333" /><circle class="sym" cx="0" cy="0" r="3" /><text class="lab rgt" transform="translate(3 -7.0)">14</text></g><g class="a19 c1 node n16 p0" transform="translate(-12.8333 9.33825)"><g class="a16 c2 node n13 p0" transform="translate(0.0 0.31352)"><g class="a13 leaf node n5 p0 sample" transform="translate(11 5.68879)"><path class="edge" d="M 0 0 V -5.68879 H -11" /><rect class="sym" height="6" width="6" x="-3" y="-3" /><text class="lab" transform="translate(0 11)">5</text></g><g class="a13 c2 node n12 p0" transform="translate(-11 0.803537)"><g class="a12 leaf node n2 p0 sample" transform="translate(-7.33333 4.88526)"><path class="edge" d="M 0 0 V -4.88526 H 7.33333" /><rect class="sym" height="6" width="6" x="-3" y="-3" /><text class="lab" transform="translate(0 11)">2</text></g><g class="a12 leaf node n4 p0 sample" transform="translate(7.33333 4.88526)"><path class="edge" d="M 0 0 V -4.88526 H -7.33333" /><rect class="sym" height="6" width="6" x="-3" y="-3" /><text class="lab" transform="translate(0 11)">4</text></g><path class="edge" d="M 0 0 V -0.803537 H 11" /><circle class="sym" cx="0" cy="0" r="3" /><text class="lab lft" transform="translate(-3 -7.0)">12</text></g><path class="edge" d="M 0 0 V -0.31352 H 0.0" /><circle class="sym" cx="0" cy="0" r="3" /><text class="lab lft" transform="translate(-3 -7.0)">13</text></g><path class="edge" d="M 0 0 V -9.33825 H 12.8333" /><circle class="sym" cx="0" cy="0" r="3" /><text class="lab lft" transform="translate(-3 -7.0)">16</text></g><path class="edge" d="M 0 0 V -3.89399 H -31.1667" /><circle class="sym" cx="0" cy="0" r="3" /><text class="lab rgt" transform="translate(3 -7.0)">19</text></g><path class="edge" d="M 0 0 V -7.43859 H -36.6667" /><circle class="sym" cx="0" cy="0" r="3" /><text class="lab rgt" transform="translate(3 -7.0)">21</text></g><path class="edge" d="M 0 0 V -12.7689 H 0.0" /><circle class="sym" cx="0" cy="0" r="3" /><text class="lab lft" transform="translate(-3 -7.0)">22</text></g><path class="edge" d="M 0 0 V -55.1579 H 47.6667" /><circle class="sym" cx="0" cy="0" r="3" /><text class="lab lft" transform="translate(-3 -7.0)">23</text></g><circle class="sym" cx="0" cy="0" r="3" /><text class="lab" transform="translate(0 -11)">24</text></g></g></g><g class="tree t1" transform="translate(206.667 0)"><g class="plotbox"><g class="c2 node n24 p0 root" transform="translate(101.354 26.8)"><g class="a24 c2 node n20 p0" transform="translate(45.1458 78.2597)"><g class="a20 leaf node n3 p0 sample" transform="translate(12.8333 16.3403)"><path class="edge" d="M 0 0 V -16.3403 H -12.8333" /><rect class="sym" height="6" width="6" x="-3" y="-3" /><text class="lab" transform="translate(0 11)">3</text></g><g class="a20 c1 node n17 p0" transform="translate(-12.8333 10.338)"><g class="a17 c2 node n13 p0" transform="translate(0.0 0.31352)"><g class="a13 leaf node n5 p0 sample" transform="translate(11 5.68879)"><path class="edge" d="M 0 0 V -5.68879 H -11" /><rect class="sym" height="6" width="6" x="-3" y="-3" /><text class="lab" transform="translate(0 11)">5</text></g><g class="a13 c2 node n12 p0" transform="translate(-11 0.803537)"><g class="a12 leaf node n2 p0 sample" transform="translate(-7.33333 4.88526)"><path class="edge" d="M 0 0 V -4.88526 H 7.33333" /><rect class="sym" height="6" width="6" x="-3" y="-3" /><text class="lab" transform="translate(0 11)">2</text></g><g class="a12 leaf node n4 p0 sample" transform="translate(7.33333 4.88526)"><path class="edge" d="M 0 0 V -4.88526 H -7.33333" /><rect class="sym" height="6" width="6" x="-3" y="-3" /><text class="lab" transform="translate(0 11)">4</text></g><path class="edge" d="M 0 0 V -0.803537 H 11" /><circle class="sym" cx="0" cy="0" r="3" /><text class="lab lft" transform="translate(-3 -7.0)">12</text></g><path class="edge" d="M 0 0 V -0.31352 H 0.0" /><circle class="sym" cx="0" cy="0" r="3" /><text class="lab lft" transform="translate(-3 -7.0)">13</text></g><path class="edge" d="M 0 0 V -10.338 H 12.8333" /><circle class="sym" cx="0" cy="0" r="3" /><text class="lab lft" transform="translate(-3 -7.0)">17</text></g><path class="edge" d="M 0 0 V -78.2597 H -45.1458" /><circle class="sym" cx="0" cy="0" r="3" /><text class="lab rgt" transform="translate(3 -7.0)">20</text></g><g class="a24 c1 node n23 p0" transform="translate(-45.1458 55.1579)"><g class="a23 c2 node n22 p0" transform="translate(0.0 12.7689)"><g class="a22 leaf node n0 p0 sample" transform="translate(-28.875 26.6731)"><path class="edge" d="M 0 0 V -26.6731 H 28.875" /><rect class="sym" height="6" width="6" x="-3" y="-3" /><text class="lab" transform="translate(0 11)">0</text></g><g class="a22 c2 node n21 p0" transform="translate(28.875 7.43859)"><g class="a21 c2 node n18 p0" transform="translate(-15.5833 12.525)"><g class="a18 leaf node n8 p0 sample" transform="translate(16.5 6.70959)"><path class="edge" d="M 0 0 V -6.70959 H -16.5" /><rect class="sym" height="6" width="6" x="-3" y="-3" /><text class="lab" transform="translate(0 11)">8</text></g><g class="a18 c2 node n11 p0" transform="translate(-16.5 2.19355)"><g class="a11 leaf node n1 p0 sample" transform="translate(-11 4.51605)"><path class="edge" d="M 0 0 V -4.51605 H 11" /><rect class="sym" height="6" width="6" x="-3" y="-3" /><text class="lab" transform="translate(0 11)">1</text></g><g class="a11 c2 node n10 p0" transform="translate(11 3.2104)"><g class="a10 leaf node n6 p0 sample" transform="translate(-7.33333 1.30564)"><path class="edge" d="M 0 0 V -1.30564 H 7.33333" /><rect class="sym" height="6" width="6" x="-3" y="-3" /><text class="lab" transform="translate(0 11)">6</text></g><g class="a10 leaf node n9 p0 sample" transform="translate(7.33333 1.30564)"><path class="edge" d="M 0 0 V -1.30564 H -7.33333" /><rect class="sym" height="6" width="6" x="-3" y="-3" /><text class="lab" transform="translate(0 11)">9</text></g><path class="edge" d="M 0 0 V -3.2104 H -11" /><circle class="sym" cx="0" cy="0" r="3" /><text class="lab rgt" transform="translate(3 -7.0)">10</text></g><path class="edge" d="M 0 0 V -2.19355 H 16.5" /><circle class="sym" cx="0" cy="0" r="3" /><text class="lab lft" transform="translate(-3 -7.0)">11</text></g><path class="edge" d="M 0 0 V -12.525 H 15.5833" /><circle class="sym" cx="0" cy="0" r="3" /><text class="lab lft" transform="translate(-3 -7.0)">18</text></g><g class="a21 c1 node n19 p0" transform="translate(15.5833 3.89399)"><g class="a19 c1 node n14 p0" transform="translate(0.0 9.55362)"><g class="a14 leaf node n7 p0 sample" transform="translate(0.0 5.78694)"><path class="edge" d="M 0 0 V -5.78694 H 0.0" /><rect class="sym" height="6" width="6" x="-3" y="-3" /><text class="lab" transform="translate(0 11)">7</text></g><path class="edge" d="M 0 0 V -9.55362 H 0.0" /><circle class="sym" cx="0" cy="0" r="3" /><text class="lab lft" transform="translate(-3 -7.0)">14</text></g><path class="edge" d="M 0 0 V -3.89399 H -15.5833" /><circle class="sym" cx="0" cy="0" r="3" /><text class="lab rgt" transform="translate(3 -7.0)">19</text></g><path class="edge" d="M 0 0 V -7.43859 H -28.875" /><circle class="sym" cx="0" cy="0" r="3" /><text class="lab rgt" transform="translate(3 -7.0)">21</text></g><path class="edge" d="M 0 0 V -12.7689 H 0.0" /><circle class="sym" cx="0" cy="0" r="3" /><text class="lab lft" transform="translate(-3 -7.0)">22</text></g><path class="edge" d="M 0 0 V -55.1579 H 45.1458" /><circle class="sym" cx="0" cy="0" r="3" /><text class="lab lft" transform="translate(-3 -7.0)">23</text></g><circle class="sym" cx="0" cy="0" r="3" /><text class="lab" transform="translate(0 -11)">24</text></g></g></g><g class="tree t2" transform="translate(393.333 0)"><g class="plotbox"><g class="c2 node n24 p0 root" transform="translate(110.521 26.8)"><g class="a24 c2 node n20 p0" transform="translate(35.9792 78.2597)"><g class="a20 leaf node n3 p0 sample" transform="translate(12.8333 16.3403)"><path class="edge" d="M 0 0 V -16.3403 H -12.8333" /><rect class="sym" height="6" width="6" x="-3" y="-3" /><text class="lab" transform="translate(0 11)">3</text></g><g class="a20 c1 node n17 p0" transform="translate(-12.8333 10.338)"><g class="a17 c2 node n13 p0" transform="translate(0.0 0.31352)"><g class="a13 leaf node n5 p0 sample" transform="translate(11 5.68879)"><path class="edge" d="M 0 0 V -5.68879 H -11" /><rect class="sym" height="6" width="6" x="-3" y="-3" /><text class="lab" transform="translate(0 11)">5</text></g><g class="a13 c2 node n12 p0" transform="translate(-11 0.803537)"><g class="a12 leaf node n2 p0 sample" transform="translate(-7.33333 4.88526)"><path class="edge" d="M 0 0 V -4.88526 H 7.33333" /><rect class="sym" height="6" width="6" x="-3" y="-3" /><text class="lab" transform="translate(0 11)">2</text></g><g class="a12 leaf node n4 p0 sample" transform="translate(7.33333 4.88526)"><path class="edge" d="M 0 0 V -4.88526 H -7.33333" /><rect class="sym" height="6" width="6" x="-3" y="-3" /><text class="lab" transform="translate(0 11)">4</text></g><path class="edge" d="M 0 0 V -0.803537 H 11" /><circle class="sym" cx="0" cy="0" r="3" /><text class="lab lft" transform="translate(-3 -7.0)">12</text></g><path class="edge" d="M 0 0 V -0.31352 H 0.0" /><circle class="sym" cx="0" cy="0" r="3" /><text class="lab lft" transform="translate(-3 -7.0)">13</text></g><path class="edge" d="M 0 0 V -10.338 H 12.8333" /><circle class="sym" cx="0" cy="0" r="3" /><text class="lab lft" transform="translate(-3 -7.0)">17</text></g><path class="edge" d="M 0 0 V -78.2597 H -35.9792" /><circle class="sym" cx="0" cy="0" r="3" /><text class="lab rgt" transform="translate(3 -7.0)">20</text></g><g class="a24 c2 node n23 p0" transform="translate(-35.9792 55.1579)"><g class="a23 c2 node n22 p0" transform="translate(-26.125 12.7689)"><g class="a22 leaf node n0 p0 sample" transform="translate(-21.0833 26.6731)"><path class="edge" d="M 0 0 V -26.6731 H 21.0833" /><rect class="sym" height="6" width="6" x="-3" y="-3" /><text class="lab" transform="translate(0 11)">0</text></g><g class="a22 c1 node n21 p0" transform="translate(21.0833 7.43859)"><g class="a21 c2 node n18 p0" transform="translate(0.0 12.525)"><g class="a18 leaf node n8 p0 sample" transform="translate(16.5 6.70959)"><path class="edge" d="M 0 0 V -6.70959 H -16.5" /><rect class="sym" height="6" width="6" x="-3" y="-3" /><text class="lab" transform="translate(0 11)">8</text></g><g class="a18 c2 node n11 p0" transform="translate(-16.5 2.19355)"><g class="a11 leaf node n1 p0 sample" transform="translate(-11 4.51605)"><path class="edge" d="M 0 0 V -4.51605 H 11" /><rect class="sym" height="6" width="6" x="-3" y="-3" /><text class="lab" transform="translate(0 11)">1</text></g><g class="a11 c2 node n10 p0" transform="translate(11 3.2104)"><g class="a10 leaf node n6 p0 sample" transform="translate(-7.33333 1.30564)"><path class="edge" d="M 0 0 V -1.30564 H 7.33333" /><rect class="sym" height="6" width="6" x="-3" y="-3" /><text class="lab" transform="translate(0 11)">6</text></g><g class="a10 leaf node n9 p0 sample" transform="translate(7.33333 1.30564)"><path class="edge" d="M 0 0 V -1.30564 H -7.33333" /><rect class="sym" height="6" width="6" x="-3" y="-3" /><text class="lab" transform="translate(0 11)">9</text></g><path class="edge" d="M 0 0 V -3.2104 H -11" /><circle class="sym" cx="0" cy="0" r="3" /><text class="lab rgt" transform="translate(3 -7.0)">10</text></g><path class="edge" d="M 0 0 V -2.19355 H 16.5" /><circle class="sym" cx="0" cy="0" r="3" /><text class="lab lft" transform="translate(-3 -7.0)">11</text></g><path class="edge" d="M 0 0 V -12.525 H 0.0" /><circle class="sym" cx="0" cy="0" r="3" /><text class="lab lft" transform="translate(-3 -7.0)">18</text></g><path class="edge" d="M 0 0 V -7.43859 H -21.0833" /><circle class="sym" cx="0" cy="0" r="3" /><text class="lab rgt" transform="translate(3 -7.0)">21</text></g><path class="edge" d="M 0 0 V -12.7689 H 26.125" /><circle class="sym" cx="0" cy="0" r="3" /><text class="lab lft" transform="translate(-3 -7.0)">22</text></g><g class="a23 c1 node n15 p0" transform="translate(26.125 33.6551)"><g class="a15 leaf node n7 p0 sample" transform="translate(0.0 5.78694)"><path class="edge" d="M 0 0 V -5.78694 H 0.0" /><rect class="sym" height="6" width="6" x="-3" y="-3" /><text class="lab" transform="translate(0 11)">7</text></g><path class="edge" d="M 0 0 V -33.6551 H -26.125" /><circle class="sym" cx="0" cy="0" r="3" /><text class="lab rgt" transform="translate(3 -7.0)">15</text></g><path class="edge" d="M 0 0 V -55.1579 H 35.9792" /><circle class="sym" cx="0" cy="0" r="3" /><text class="lab lft" transform="translate(-3 -7.0)">23</text></g><circle class="sym" cx="0" cy="0" r="3" /><text class="lab" transform="translate(0 -11)">24</text></g></g></g></g></g></svg>
