<svg baseProfile="full" height="200" version="1.1" width="1000" xmlns="http://www.w3.org/2000/svg" xmlns:ev="http://www.w3.org/2001/xml-events" xmlns:xlink="http://www.w3.org/1999/xlink"><defs><style type="text/css"><![CDATA[.background path {fill: #808080; fill-opacity: 0}.background path:nth-child(odd) {fill-opacity: .1}.axes {font-size: 14px}.x-axis .tick .lab {font-weight: bold; dominant-baseline: hanging}.axes, .tree {font-size: 14px; text-anchor: middle}.axes line, .edge {stroke: black; fill: none}.y-axis .grid {stroke: #FAFAFA}.node > .sym {fill: black; stroke: none}.site > .sym {stroke: black}.mut text {fill: red; font-style: italic}.mut.extra text {fill: hotpink}.mut line {fill: none; stroke: none}.mut .sym {fill: none; stroke: red}.mut.extra .sym {stroke: hotpink}.node .mut .sym {stroke-width: 1.5px}.tree text, .tree-sequence text {dominant-baseline: central}.plotbox .lab.lft {text-anchor: end}.plotbox .lab.rgt {text-anchor: start}]]></style></defs><g class="tree-sequence"><g class="background"><path d="M20,0 l192,0 l0,138.2 l168.41,25 l0,5 l-360.41,0 l0,-5 l0,-25 l0,-138.2z" /><path d="M212,0 l192,0 l0,138.2 l200.881,25 l0,5 l-224.471,0 l0,-5 l-168.41,-25 l0,-138.2z" /><path d="M404,0 l192,0 l0,138.2 l177.977,25 l0,5 l-169.095,0 l0,-5 l-200.881,-25 l0,-138.2z" /><path d="M596,0 l192,0 l0,138.2 l29.0373,25 l0,5 l-43.0608,0 l0,-5 l-177.977,-25 l0,-138.2z" /><path d="M788,0 l192,0 l0,138.2 l0,25 l0,5 l-162.963,0 l0,-5 l-29.0373,-25 l0,-138.2z" /></g><g class="axes"><g class="x-axis"><g transform="translate(500 200)"><text class="lab" text-anchor="middle" transform="translate(0 -11)">Genome position</text></g><line x1="20" x2="980" y1="163.2" y2="163.2" /><g class="ticks"><g class="tick" transform="translate(20 163.2)"><line x1="0" x2="0" y1="0" y2="5" /><g transform="translate(0 6)"><text class="lab">0.00</text></g></g><g class="tick" transform="translate(380.41 163.2)"><line x1="0" x2="0" y1="0" y2="5" /><g transform="translate(0 6)"><text class="lab">375.43</text></g></g><g class="tick" transform="translate(604.881 163.2)"><line x1="0" x2="0" y1="0" y2="5" /><g transform="translate(0 6)"><text class="lab">609.25</text></g></g><g class="tick" transform="translate(773.977 163.2)"><line x1="0" x2="0" y1="0" y2="5" /><g transform="translate(0 6)"><text class="lab">785.39</text></g></g><g class="tick" transform="translate(817.037 163.2)"><line x1="0" x2="0" y1="0" y2="5" /><g transform="translate(0 6)"><text class="lab">830.25</text></g></g><g class="tick" transform="translate(980 163.2)"><line x1="0" x2="0" y1="0" y2="5" /><g transform="translate(0 6)"><text class="lab">1000.00</text></g></g></g></g></g><g class="plotbox trees"><g class="tree t0" transform="translate(20 0)"><g class="plotbox"><g class="c2 node n30 p0 root" transform="translate(118.087 26.8)"><g class="a30 c2 node n28 p0" transform="translate(-46.3125 8.39006)"><g class="a28 c1 node n23 p0" transform="translate(-36.575 30.9378)"><g class="a23 c2 node n11 p0" transform="translate(0.0 49.8003)"><g class="a11 leaf node n0 p0 sample" transform="translate(-7.6 5.4719)"><path class="edge" d="M 0 0 V -5.4719 H 7.6" /><rect class="sym" height="6" width="6" x="-3" y="-3" /><text class="lab" transform="translate(0 11)">0</text></g><g class="a11 leaf node n4 p0 sample" transform="translate(7.6 5.4719)"><path class="edge" d="M 0 0 V -5.4719 H -7.6" /><rect class="sym" height="6" width="6" x="-3" y="-3" /><text class="lab" transform="translate(0 11)">4</text></g><path class="edge" d="M 0 0 V -49.8003 H 0.0" /><circle class="sym" cx="0" cy="0" r="3" /><text class="lab lft" transform="translate(-3 -7.0)">11</text></g><path class="edge" d="M 0 0 V -30.9378 H 36.575" /><circle class="sym" cx="0" cy="0" r="3" /><text class="lab lft" transform="translate(-3 -7.0)">23</text></g><g class="a28 c1 node n25 p0" transform="translate(36.575 25.5741)"><g class="a25 c2 node n20 p0" transform="translate(0.0 21.639)"><g class="a20 c2 node n17 p0" transform="translate(21.85 17.8282)"><g class="a17 leaf node n2 p0 sample" transform="translate(-11.4 21.1687)"><path class="edge" d="M 0 0 V -21.1687 H 11.4" /><rect class="sym" height="6" width="6" x="-3" y="-3" /><text class="lab" transform="translate(0 11)">2</text></g><g class="a17 c1 node n12 p0" transform="translate(11.4 13.5719)"><g class="a12 c2 node n10 p0" transform="translate(0.0 2.37374)"><g class="a10 leaf node n3 p0 sample" transform="translate(-7.6 5.22298)"><path class="edge" d="M 0 0 V -5.22298 H 7.6" /><rect class="sym" height="6" width="6" x="-3" y="-3" /><text class="lab" transform="translate(0 11)">3</text></g><g class="a10 leaf node n8 p0 sample" transform="translate(7.6 5.22298)"><path class="edge" d="M 0 0 V -5.22298 H -7.6" /><rect class="sym" height="6" width="6" x="-3" y="-3" /><text class="lab" transform="translate(0 11)">8</text></g><path class="edge" d="M 0 0 V -2.37374 H 0.0" /><circle class="sym" cx="0" cy="0" r="3" /><text class="lab lft" transform="translate(-3 -7.0)">10</text></g><path class="edge" d="M 0 0 V -13.5719 H -11.4" /><circle class="sym" cx="0" cy="0" r="3" /><text class="lab rgt" transform="translate(3 -7.0)">12</text></g><path class="edge" d="M 0 0 V -17.8282 H -21.85" /><circle class="sym" cx="0" cy="0" r="3" /><text class="lab rgt" transform="translate(3 -7.0)">17</text></g><g class="a20 c1 node n18 p0" transform="translate(-21.85 5.99251)"><g class="a18 c2 node n16 p0" transform="translate(0.0 13.6799)"><g class="a16 leaf node n7 p0 sample" transform="translate(17.1 19.3244)"><path class="edge" d="M 0 0 V -19.3244 H -17.1" /><rect class="sym" height="6" width="6" x="-3" y="-3" /><text class="lab" transform="translate(0 11)">7</text></g><g class="a16 c2 node n15 p0" transform="translate(-17.1 1.42354)"><g class="a15 leaf node n1 p0 sample" transform="translate(-11.4 17.9009)"><path class="edge" d="M 0 0 V -17.9009 H 11.4" /><rect class="sym" height="6" width="6" x="-3" y="-3" /><text class="lab" transform="translate(0 11)">1</text></g><g class="a15 c2 node n14 p0" transform="translate(11.4 2.96974)"><g class="a14 leaf node n5 p0 sample" transform="translate(-7.6 14.9311)"><path class="edge" d="M 0 0 V -14.9311 H 7.6" /><rect class="sym" height="6" width="6" x="-3" y="-3" /><text class="lab" transform="translate(0 11)">5</text></g><g class="a14 leaf node n9 p0 sample" transform="translate(7.6 14.9311)"><path class="edge" d="M 0 0 V -14.9311 H -7.6" /><rect class="sym" height="6" width="6" x="-3" y="-3" /><text class="lab" transform="translate(0 11)">9</text></g><path class="edge" d="M 0 0 V -2.96974 H -11.4" /><circle class="sym" cx="0" cy="0" r="3" /><text class="lab rgt" transform="translate(3 -7.0)">14</text></g><path class="edge" d="M 0 0 V -1.42354 H 17.1" /><circle class="sym" cx="0" cy="0" r="3" /><text class="lab lft" transform="translate(-3 -7.0)">15</text></g><path class="edge" d="M 0 0 V -13.6799 H 0.0" /><circle class="sym" cx="0" cy="0" r="3" /><text class="lab lft" transform="translate(-3 -7.0)">16</text></g><path class="edge" d="M 0 0 V -5.99251 H 21.85" /><circle class="sym" cx="0" cy="0" r="3" /><text class="lab lft" transform="translate(-3 -7.0)">18</text></g><path class="edge" d="M 0 0 V -21.639 H 0.0" /><circle class="sym" cx="0" cy="0" r="3" /><text class="lab lft" transform="translate(-3 -7.0)">20</text></g><path class="edge" d="M 0 0 V -25.5741 H -36.575" /><circle class="sym" cx="0" cy="0" r="3" /><text class="lab rgt" transform="translate(3 -7.0)">25</text></g><path class="edge" d="M 0 0 V -8.39006 H 46.3125" /><circle class="sym" cx="0" cy="0" r="3" /><text class="lab lft" transform="translate(-3 -7.0)">28</text></g><g class="a30 c1 node n29 p0" transform="translate(46.3125 2.06121)"><g class="a29 c1 node n21 p0" transform="translate(0.0 51.4932)"><g class="a21 leaf node n6 p0 sample" transform="translate(0.0 41.0456)"><path class="edge" d="M 0 0 V -41.0456 H 0.0" /><rect class="sym" height="6" width="6" x="-3" y="-3" /><text class="lab" transform="translate(0 11)">6</text></g><path class="edge" d="M 0 0 V -51.4932 H 0.0" /><circle class="sym" cx="0" cy="0" r="3" /><text class="lab lft" transform="translate(-3 -7.0)">21</text></g><path class="edge" d="M 0 0 V -2.06121 H -46.3125" /><circle class="sym" cx="0" cy="0" r="3" /><text class="lab rgt" transform="translate(3 -7.0)">29</text></g><circle class="sym" cx="0" cy="0" r="3" /><text class="lab" transform="translate(0 -11)">30</text></g></g></g><g class="tree t1" transform="translate(212 0)"><g class="plotbox"><g class="c2 node n30 p0 root" transform="translate(118.087 26.8)"><g class="a30 c2 node n28 p0" transform="translate(-46.3125 8.39006)"><g class="a28 c1 node n23 p0" transform="translate(-36.575 30.9378)"><g class="a23 c2 node n11 p0" transform="translate(0.0 49.8003)"><g class="a11 leaf node n0 p0 sample" transform="translate(-7.6 5.4719)"><path class="edge" d="M 0 0 V -5.4719 H 7.6" /><rect class="sym" height="6" width="6" x="-3" y="-3" /><text class="lab" transform="translate(0 11)">0</text></g><g class="a11 leaf node n4 p0 sample" transform="translate(7.6 5.4719)"><path class="edge" d="M 0 0 V -5.4719 H -7.6" /><rect class="sym" height="6" width="6" x="-3" y="-3" /><text class="lab" transform="translate(0 11)">4</text></g><path class="edge" d="M 0 0 V -49.8003 H 0.0" /><circle class="sym" cx="0" cy="0" r="3" /><text class="lab lft" transform="translate(-3 -7.0)">11</text></g><path class="edge" d="M 0 0 V -30.9378 H 36.575" /><circle class="sym" cx="0" cy="0" r="3" /><text class="lab lft" transform="translate(-3 -7.0)">23</text></g><g class="a28 c2 node n25 p0" transform="translate(36.575 25.5741)"><g class="a25 c1 node n20 p0" transform="translate(21.85 21.639)"><g class="a20 c2 node n17 p0" transform="translate(0.0 17.8282)"><g class="a17 leaf node n2 p0 sample" transform="translate(-11.4 21.1687)"><path class="edge" d="M 0 0 V -21.1687 H 11.4" /><rect class="sym" height="6" width="6" x="-3" y="-3" /><text class="lab" transform="translate(0 11)">2</text></g><g class="a17 c1 node n12 p0" transform="translate(11.4 13.5719)"><g class="a12 c2 node n10 p0" transform="translate(0.0 2.37374)"><g class="a10 leaf node n3 p0 sample" transform="translate(-7.6 5.22298)"><path class="edge" d="M 0 0 V -5.22298 H 7.6" /><rect class="sym" height="6" width="6" x="-3" y="-3" /><text class="lab" transform="translate(0 11)">3</text></g><g class="a10 leaf node n8 p0 sample" transform="translate(7.6 5.22298)"><path class="edge" d="M 0 0 V -5.22298 H -7.6" /><rect class="sym" height="6" width="6" x="-3" y="-3" /><text class="lab" transform="translate(0 11)">8</text></g><path class="edge" d="M 0 0 V -2.37374 H 0.0" /><circle class="sym" cx="0" cy="0" r="3" /><text class="lab lft" transform="translate(-3 -7.0)">10</text></g><path class="edge" d="M 0 0 V -13.5719 H -11.4" /><circle class="sym" cx="0" cy="0" r="3" /><text class="lab rgt" transform="translate(3 -7.0)">12</text></g><path class="edge" d="M 0 0 V -17.8282 H 0.0" /><circle class="sym" cx="0" cy="0" r="3" /><text class="lab lft" transform="translate(-3 -7.0)">17</text></g><path class="edge" d="M 0 0 V -21.639 H -21.85" /><circle class="sym" cx="0" cy="0" r="3" /><text class="lab rgt" transform="translate(3 -7.0)">20</text></g><g class="a25 c1 node n19 p0" transform="translate(-21.85 27.6315)"><g class="a19 c2 node n16 p0" transform="translate(0.0 13.6799)"><g class="a16 leaf node n7 p0 sample" transform="translate(17.1 19.3244)"><path class="edge" d="M 0 0 V -19.3244 H -17.1" /><rect class="sym" height="6" width="6" x="-3" y="-3" /><text class="lab" transform="translate(0 11)">7</text></g><g class="a16 c2 node n15 p0" transform="translate(-17.1 1.42354)"><g class="a15 leaf node n1 p0 sample" transform="translate(-11.4 17.9009)"><path class="edge" d="M 0 0 V -17.9009 H 11.4" /><rect class="sym" height="6" width="6" x="-3" y="-3" /><text class="lab" transform="translate(0 11)">1</text></g><g class="a15 c2 node n14 p0" transform="translate(11.4 2.96974)"><g class="a14 leaf node n5 p0 sample" transform="translate(-7.6 14.9311)"><path class="edge" d="M 0 0 V -14.9311 H 7.6" /><rect class="sym" height="6" width="6" x="-3" y="-3" /><text class="lab" transform="translate(0 11)">5</text></g><g class="a14 leaf node n9 p0 sample" transform="translate(7.6 14.9311)"><path class="edge" d="M 0 0 V -14.9311 H -7.6" /><rect class="sym" height="6" width="6" x="-3" y="-3" /><text class="lab" transform="translate(0 11)">9</text></g><path class="edge" d="M 0 0 V -2.96974 H -11.4" /><circle class="sym" cx="0" cy="0" r="3" /><text class="lab rgt" transform="translate(3 -7.0)">14</text></g><path class="edge" d="M 0 0 V -1.42354 H 17.1" /><circle class="sym" cx="0" cy="0" r="3" /><text class="lab lft" transform="translate(-3 -7.0)">15</text></g><path class="edge" d="M 0 0 V -13.6799 H 0.0" /><circle class="sym" cx="0" cy="0" r="3" /><text class="lab lft" transform="translate(-3 -7.0)">16</text></g><path class="edge" d="M 0 0 V -27.6315 H 21.85" /><circle class="sym" cx="0" cy="0" r="3" /><text class="lab lft" transform="translate(-3 -7.0)">19</text></g><path class="edge" d="M 0 0 V -25.5741 H -36.575" /><circle class="sym" cx="0" cy="0" r="3" /><text class="lab rgt" transform="translate(3 -7.0)">25</text></g><path class="edge" d="M 0 0 V -8.39006 H 46.3125" /><circle class="sym" cx="0" cy="0" r="3" /><text class="lab lft" transform="translate(-3 -7.0)">28</text></g><g class="a30 c1 node n29 p0" transform="translate(46.3125 2.06121)"><g class="a29 c1 node n21 p0" transform="translate(0.0 51.4932)"><g class="a21 leaf node n6 p0 sample" transform="translate(0.0 41.0456)"><path class="edge" d="M 0 0 V -41.0456 H 0.0" /><rect class="sym" height="6" width="6" x="-3" y="-3" /><text class="lab" transform="translate(0 11)">6</text></g><path class="edge" d="M 0 0 V -51.4932 H 0.0" /><circle class="sym" cx="0" cy="0" r="3" /><text class="lab lft" transform="translate(-3 -7.0)">21</text></g><path class="edge" d="M 0 0 V -2.06121 H -46.3125" /><circle class="sym" cx="0" cy="0" r="3" /><text class="lab rgt" transform="translate(3 -7.0)">29</text></g><circle class="sym" cx="0" cy="0" r="3" /><text class="lab" transform="translate(0 -11)">30</text></g></g></g><g class="tree t2" transform="translate(404 0)"><g class="plotbox"><g class="c2 node n30 p0 root" transform="translate(110.963 26.8)"><g class="a30 c2 node n28 p0" transform="translate(-42.0375 8.39006)"><g class="a28 c1 node n23 p0" transform="translate(-33.725 30.9378)"><g class="a23 c2 node n11 p0" transform="translate(0.0 49.8003)"><g class="a11 leaf node n0 p0 sample" transform="translate(-7.6 5.4719)"><path class="edge" d="M 0 0 V -5.4719 H 7.6" /><rect class="sym" height="6" width="6" x="-3" y="-3" /><text class="lab" transform="translate(0 11)">0</text></g><g class="a11 leaf node n4 p0 sample" transform="translate(7.6 5.4719)"><path class="edge" d="M 0 0 V -5.4719 H -7.6" /><rect class="sym" height="6" width="6" x="-3" y="-3" /><text class="lab" transform="translate(0 11)">4</text></g><path class="edge" d="M 0 0 V -49.8003 H 0.0" /><circle class="sym" cx="0" cy="0" r="3" /><text class="lab lft" transform="translate(-3 -7.0)">11</text></g><path class="edge" d="M 0 0 V -30.9378 H 33.725" /><circle class="sym" cx="0" cy="0" r="3" /><text class="lab lft" transform="translate(-3 -7.0)">23</text></g><g class="a28 c2 node n25 p0" transform="translate(33.725 25.5741)"><g class="a25 c1 node n20 p0" transform="translate(16.15 21.639)"><g class="a20 c1 node n17 p0" transform="translate(0.0 17.8282)"><g class="a17 leaf node n2 p0 sample" transform="translate(0.0 21.1687)"><path class="edge" d="M 0 0 V -21.1687 H 0.0" /><rect class="sym" height="6" width="6" x="-3" y="-3" /><text class="lab" transform="translate(0 11)">2</text></g><path class="edge" d="M 0 0 V -17.8282 H 0.0" /><circle class="sym" cx="0" cy="0" r="3" /><text class="lab lft" transform="translate(-3 -7.0)">17</text></g><path class="edge" d="M 0 0 V -21.639 H -16.15" /><circle class="sym" cx="0" cy="0" r="3" /><text class="lab rgt" transform="translate(3 -7.0)">20</text></g><g class="a25 c1 node n19 p0" transform="translate(-16.15 27.6315)"><g class="a19 c2 node n16 p0" transform="translate(0.0 13.6799)"><g class="a16 leaf node n7 p0 sample" transform="translate(17.1 19.3244)"><path class="edge" d="M 0 0 V -19.3244 H -17.1" /><rect class="sym" height="6" width="6" x="-3" y="-3" /><text class="lab" transform="translate(0 11)">7</text></g><g class="a16 c2 node n15 p0" transform="translate(-17.1 1.42354)"><g class="a15 leaf node n1 p0 sample" transform="translate(-11.4 17.9009)"><path class="edge" d="M 0 0 V -17.9009 H 11.4" /><rect class="sym" height="6" width="6" x="-3" y="-3" /><text class="lab" transform="translate(0 11)">1</text></g><g class="a15 c2 node n14 p0" transform="translate(11.4 2.96974)"><g class="a14 leaf node n5 p0 sample" transform="translate(-7.6 14.9311)"><path class="edge" d="M 0 0 V -14.9311 H 7.6" /><rect class="sym" height="6" width="6" x="-3" y="-3" /><text class="lab" transform="translate(0 11)">5</text></g><g class="a14 leaf node n9 p0 sample" transform="translate(7.6 14.9311)"><path class="edge" d="M 0 0 V -14.9311 H -7.6" /><rect class="sym" height="6" width="6" x="-3" y="-3" /><text class="lab" transform="translate(0 11)">9</text></g><path class="edge" d="M 0 0 V -2.96974 H -11.4" /><circle class="sym" cx="0" cy="0" r="3" /><text class="lab rgt" transform="translate(3 -7.0)">14</text></g><path class="edge" d="M 0 0 V -1.42354 H 17.1" /><circle class="sym" cx="0" cy="0" r="3" /><text class="lab lft" transform="translate(-3 -7.0)">15</text></g><path class="edge" d="M 0 0 V -13.6799 H 0.0" /><circle class="sym" cx="0" cy="0" r="3" /><text class="lab lft" transform="translate(-3 -7.0)">16</text></g><path class="edge" d="M 0 0 V -27.6315 H 16.15" /><circle class="sym" cx="0" cy="0" r="3" /><text class="lab lft" transform="translate(-3 -7.0)">19</text></g><path class="edge" d="M 0 0 V -25.5741 H -33.725" /><circle class="sym" cx="0" cy="0" r="3" /><text class="lab rgt" transform="translate(3 -7.0)">25</text></g><path class="edge" d="M 0 0 V -8.39006 H 42.0375" /><circle class="sym" cx="0" cy="0" r="3" /><text class="lab lft" transform="translate(-3 -7.0)">28</text></g><g class="a30 c2 node n29 p0" transform="translate(42.0375 2.06121)"><g class="a29 c1 node n21 p0" transform="translate(11.4 51.4932)"><g class="a21 leaf node n6 p0 sample" transform="translate(0.0 41.0456)"><path class="edge" d="M 0 0 V -41.0456 H 0.0" /><rect class="sym" height="6" width="6" x="-3" y="-3" /><text class="lab" transform="translate(0 11)">6</text></g><path class="edge" d="M 0 0 V -51.4932 H -11.4" /><circle class="sym" cx="0" cy="0" r="3" /><text class="lab rgt" transform="translate(3 -7.0)">21</text></g><g class="a29 c1 node n27 p0" transform="translate(-11.4 16.9361)"><g class="a27 c1 node n26 p0" transform="translate(0.0 7.90807)"><g class="a26 c1 node n13 p0" transform="translate(0.0 60.0979)"><g class="a13 c2 node n10 p0" transform="translate(0.0 2.37374)"><g class="a10 leaf node n3 p0 sample" transform="translate(-7.6 5.22298)"><path class="edge" d="M 0 0 V -5.22298 H 7.6" /><rect class="sym" height="6" width="6" x="-3" y="-3" /><text class="lab" transform="translate(0 11)">3</text></g><g class="a10 leaf node n8 p0 sample" transform="translate(7.6 5.22298)"><path class="edge" d="M 0 0 V -5.22298 H -7.6" /><rect class="sym" height="6" width="6" x="-3" y="-3" /><text class="lab" transform="translate(0 11)">8</text></g><path class="edge" d="M 0 0 V -2.37374 H 0.0" /><circle class="sym" cx="0" cy="0" r="3" /><text class="lab lft" transform="translate(-3 -7.0)">10</text></g><path class="edge" d="M 0 0 V -60.0979 H 0.0" /><circle class="sym" cx="0" cy="0" r="3" /><text class="lab lft" transform="translate(-3 -7.0)">13</text></g><path class="edge" d="M 0 0 V -7.90807 H 0.0" /><circle class="sym" cx="0" cy="0" r="3" /><text class="lab lft" transform="translate(-3 -7.0)">26</text></g><path class="edge" d="M 0 0 V -16.9361 H 11.4" /><circle class="sym" cx="0" cy="0" r="3" /><text class="lab lft" transform="translate(-3 -7.0)">27</text></g><path class="edge" d="M 0 0 V -2.06121 H -42.0375" /><circle class="sym" cx="0" cy="0" r="3" /><text class="lab rgt" transform="translate(3 -7.0)">29</text></g><circle class="sym" cx="0" cy="0" r="3" /><text class="lab" transform="translate(0 -11)">30</text></g></g></g><g class="tree t3" transform="translate(596 0)"><g class="plotbox"><g class="c2 node n30 p0 root" transform="translate(108.825 26.8)"><g class="a30 c1 node n28 p0" transform="translate(39.425 8.39006)"><g class="a28 c2 node n25 p0" transform="translate(0.0 25.5741)"><g class="a25 c1 node n20 p0" transform="translate(16.15 21.639)"><g class="a20 c1 node n17 p0" transform="translate(0.0 17.8282)"><g class="a17 leaf node n2 p0 sample" transform="translate(0.0 21.1687)"><path class="edge" d="M 0 0 V -21.1687 H 0.0" /><rect class="sym" height="6" width="6" x="-3" y="-3" /><text class="lab" transform="translate(0 11)">2</text></g><path class="edge" d="M 0 0 V -17.8282 H 0.0" /><circle class="sym" cx="0" cy="0" r="3" /><text class="lab lft" transform="translate(-3 -7.0)">17</text></g><path class="edge" d="M 0 0 V -21.639 H -16.15" /><circle class="sym" cx="0" cy="0" r="3" /><text class="lab rgt" transform="translate(3 -7.0)">20</text></g><g class="a25 c1 node n19 p0" transform="translate(-16.15 27.6315)"><g class="a19 c2 node n16 p0" transform="translate(0.0 13.6799)"><g class="a16 leaf node n7 p0 sample" transform="translate(17.1 19.3244)"><path class="edge" d="M 0 0 V -19.3244 H -17.1" /><rect class="sym" height="6" width="6" x="-3" y="-3" /><text class="lab" transform="translate(0 11)">7</text></g><g class="a16 c2 node n15 p0" transform="translate(-17.1 1.42354)"><g class="a15 leaf node n1 p0 sample" transform="translate(-11.4 17.9009)"><path class="edge" d="M 0 0 V -17.9009 H 11.4" /><rect class="sym" height="6" width="6" x="-3" y="-3" /><text class="lab" transform="translate(0 11)">1</text></g><g class="a15 c2 node n14 p0" transform="translate(11.4 2.96974)"><g class="a14 leaf node n5 p0 sample" transform="translate(-7.6 14.9311)"><path class="edge" d="M 0 0 V -14.9311 H 7.6" /><rect class="sym" height="6" width="6" x="-3" y="-3" /><text class="lab" transform="translate(0 11)">5</text></g><g class="a14 leaf node n9 p0 sample" transform="translate(7.6 14.9311)"><path class="edge" d="M 0 0 V -14.9311 H -7.6" /><rect class="sym" height="6" width="6" x="-3" y="-3" /><text class="lab" transform="translate(0 11)">9</text></g><path class="edge" d="M 0 0 V -2.96974 H -11.4" /><circle class="sym" cx="0" cy="0" r="3" /><text class="lab rgt" transform="translate(3 -7.0)">14</text></g><path class="edge" d="M 0 0 V -1.42354 H 17.1" /><circle class="sym" cx="0" cy="0" r="3" /><text class="lab lft" transform="translate(-3 -7.0)">15</text></g><path class="edge" d="M 0 0 V -13.6799 H 0.0" /><circle class="sym" cx="0" cy="0" r="3" /><text class="lab lft" transform="translate(-3 -7.0)">16</text></g><path class="edge" d="M 0 0 V -27.6315 H 16.15" /><circle class="sym" cx="0" cy="0" r="3" /><text class="lab lft" transform="translate(-3 -7.0)">19</text></g><path class="edge" d="M 0 0 V -25.5741 H 0.0" /><circle class="sym" cx="0" cy="0" r="3" /><text class="lab lft" transform="translate(-3 -7.0)">25</text></g><path class="edge" d="M 0 0 V -8.39006 H -39.425" /><circle class="sym" cx="0" cy="0" r="3" /><text class="lab rgt" transform="translate(3 -7.0)">28</text></g><g class="a30 c2 node n29 p0" transform="translate(-39.425 2.06121)"><g class="a29 c1 node n21 p0" transform="translate(19 51.4932)"><g class="a21 leaf node n6 p0 sample" transform="translate(0.0 41.0456)"><path class="edge" d="M 0 0 V -41.0456 H 0.0" /><rect class="sym" height="6" width="6" x="-3" y="-3" /><text class="lab" transform="translate(0 11)">6</text></g><path class="edge" d="M 0 0 V -51.4932 H -19" /><circle class="sym" cx="0" cy="0" r="3" /><text class="lab rgt" transform="translate(3 -7.0)">21</text></g><g class="a29 c2 node n27 p0" transform="translate(-19 16.9361)"><g class="a27 c1 node n26 p0" transform="translate(15.2 7.90807)"><g class="a26 c1 node n13 p0" transform="translate(0.0 60.0979)"><g class="a13 c2 node n10 p0" transform="translate(0.0 2.37374)"><g class="a10 leaf node n3 p0 sample" transform="translate(-7.6 5.22298)"><path class="edge" d="M 0 0 V -5.22298 H 7.6" /><rect class="sym" height="6" width="6" x="-3" y="-3" /><text class="lab" transform="translate(0 11)">3</text></g><g class="a10 leaf node n8 p0 sample" transform="translate(7.6 5.22298)"><path class="edge" d="M 0 0 V -5.22298 H -7.6" /><rect class="sym" height="6" width="6" x="-3" y="-3" /><text class="lab" transform="translate(0 11)">8</text></g><path class="edge" d="M 0 0 V -2.37374 H 0.0" /><circle class="sym" cx="0" cy="0" r="3" /><text class="lab lft" transform="translate(-3 -7.0)">10</text></g><path class="edge" d="M 0 0 V -60.0979 H 0.0" /><circle class="sym" cx="0" cy="0" r="3" /><text class="lab lft" transform="translate(-3 -7.0)">13</text></g><path class="edge" d="M 0 0 V -7.90807 H -15.2" /><circle class="sym" cx="0" cy="0" r="3" /><text class="lab rgt" transform="translate(3 -7.0)">26</text></g><g class="a27 c1 node n24 p0" transform="translate(-15.2 20.3305)"><g class="a24 c2 node n11 p0" transform="translate(0.0 49.8003)"><g class="a11 leaf node n0 p0 sample" transform="translate(-7.6 5.4719)"><path class="edge" d="M 0 0 V -5.4719 H 7.6" /><rect class="sym" height="6" width="6" x="-3" y="-3" /><text class="lab" transform="translate(0 11)">0</text></g><g class="a11 leaf node n4 p0 sample" transform="translate(7.6 5.4719)"><path class="edge" d="M 0 0 V -5.4719 H -7.6" /><rect class="sym" height="6" width="6" x="-3" y="-3" /><text class="lab" transform="translate(0 11)">4</text></g><path class="edge" d="M 0 0 V -49.8003 H 0.0" /><circle class="sym" cx="0" cy="0" r="3" /><text class="lab lft" transform="translate(-3 -7.0)">11</text></g><path class="edge" d="M 0 0 V -20.3305 H 15.2" /><circle class="sym" cx="0" cy="0" r="3" /><text class="lab lft" transform="translate(-3 -7.0)">24</text></g><path class="edge" d="M 0 0 V -16.9361 H 19" /><circle class="sym" cx="0" cy="0" r="3" /><text class="lab lft" transform="translate(-3 -7.0)">27</text></g><path class="edge" d="M 0 0 V -2.06121 H 39.425" /><circle class="sym" cx="0" cy="0" r="3" /><text class="lab lft" transform="translate(-3 -7.0)">29</text></g><circle class="sym" cx="0" cy="0" r="3" /><text class="lab" transform="translate(0 -11)">30</text></g></g></g><g class="tree t4" transform="translate(788 0)"><g class="plotbox"><g class="c2 node n30 p0 root" transform="translate(102.175 26.8)"><g class="a30 c1 node n28 p0" transform="translate(46.075 8.39006)"><g class="a28 c2 node n25 p0" transform="translate(0.0 25.5741)"><g class="a25 c1 node n20 p0" transform="translate(16.15 21.639)"><g class="a20 c1 node n17 p0" transform="translate(0.0 17.8282)"><g class="a17 leaf node n2 p0 sample" transform="translate(0.0 21.1687)"><path class="edge" d="M 0 0 V -21.1687 H 0.0" /><rect class="sym" height="6" width="6" x="-3" y="-3" /><text class="lab" transform="translate(0 11)">2</text></g><path class="edge" d="M 0 0 V -17.8282 H 0.0" /><circle class="sym" cx="0" cy="0" r="3" /><text class="lab lft" transform="translate(-3 -7.0)">17</text></g><path class="edge" d="M 0 0 V -21.639 H -16.15" /><circle class="sym" cx="0" cy="0" r="3" /><text class="lab rgt" transform="translate(3 -7.0)">20</text></g><g class="a25 c1 node n19 p0" transform="translate(-16.15 27.6315)"><g class="a19 c2 node n16 p0" transform="translate(0.0 13.6799)"><g class="a16 leaf node n7 p0 sample" transform="translate(17.1 19.3244)"><path class="edge" d="M 0 0 V -19.3244 H -17.1" /><rect class="sym" height="6" width="6" x="-3" y="-3" /><text class="lab" transform="translate(0 11)">7</text></g><g class="a16 c2 node n15 p0" transform="translate(-17.1 1.42354)"><g class="a15 leaf node n1 p0 sample" transform="translate(-11.4 17.9009)"><path class="edge" d="M 0 0 V -17.9009 H 11.4" /><rect class="sym" height="6" width="6" x="-3" y="-3" /><text class="lab" transform="translate(0 11)">1</text></g><g class="a15 c2 node n14 p0" transform="translate(11.4 2.96974)"><g class="a14 leaf node n5 p0 sample" transform="translate(-7.6 14.9311)"><path class="edge" d="M 0 0 V -14.9311 H 7.6" /><rect class="sym" height="6" width="6" x="-3" y="-3" /><text class="lab" transform="translate(0 11)">5</text></g><g class="a14 leaf node n9 p0 sample" transform="translate(7.6 14.9311)"><path class="edge" d="M 0 0 V -14.9311 H -7.6" /><rect class="sym" height="6" width="6" x="-3" y="-3" /><text class="lab" transform="translate(0 11)">9</text></g><path class="edge" d="M 0 0 V -2.96974 H -11.4" /><circle class="sym" cx="0" cy="0" r="3" /><text class="lab rgt" transform="translate(3 -7.0)">14</text></g><path class="edge" d="M 0 0 V -1.42354 H 17.1" /><circle class="sym" cx="0" cy="0" r="3" /><text class="lab lft" transform="translate(-3 -7.0)">15</text></g><path class="edge" d="M 0 0 V -13.6799 H 0.0" /><circle class="sym" cx="0" cy="0" r="3" /><text class="lab lft" transform="translate(-3 -7.0)">16</text></g><path class="edge" d="M 0 0 V -27.6315 H 16.15" /><circle class="sym" cx="0" cy="0" r="3" /><text class="lab lft" transform="translate(-3 -7.0)">19</text></g><path class="edge" d="M 0 0 V -25.5741 H 0.0" /><circle class="sym" cx="0" cy="0" r="3" /><text class="lab lft" transform="translate(-3 -7.0)">25</text></g><path class="edge" d="M 0 0 V -8.39006 H -46.075" /><circle class="sym" cx="0" cy="0" r="3" /><text class="lab rgt" transform="translate(3 -7.0)">28</text></g><g class="a30 c1 node n29 p0" transform="translate(-46.075 2.06121)"><g class="a29 c2 node n27 p0" transform="translate(0.0 16.9361)"><g class="a27 c2 node n26 p0" transform="translate(20.9 7.90807)"><g class="a26 c1 node n13 p0" transform="translate(-11.4 60.0979)"><g class="a13 c2 node n10 p0" transform="translate(0.0 2.37374)"><g class="a10 leaf node n3 p0 sample" transform="translate(-7.6 5.22298)"><path class="edge" d="M 0 0 V -5.22298 H 7.6" /><rect class="sym" height="6" width="6" x="-3" y="-3" /><text class="lab" transform="translate(0 11)">3</text></g><g class="a10 leaf node n8 p0 sample" transform="translate(7.6 5.22298)"><path class="edge" d="M 0 0 V -5.22298 H -7.6" /><rect class="sym" height="6" width="6" x="-3" y="-3" /><text class="lab" transform="translate(0 11)">8</text></g><path class="edge" d="M 0 0 V -2.37374 H 0.0" /><circle class="sym" cx="0" cy="0" r="3" /><text class="lab lft" transform="translate(-3 -7.0)">10</text></g><path class="edge" d="M 0 0 V -60.0979 H 11.4" /><circle class="sym" cx="0" cy="0" r="3" /><text class="lab lft" transform="translate(-3 -7.0)">13</text></g><g class="a26 c1 node n22 p0" transform="translate(11.4 26.649)"><g class="a22 leaf node n6 p0 sample" transform="translate(0.0 41.0456)"><path class="edge" d="M 0 0 V -41.0456 H 0.0" /><rect class="sym" height="6" width="6" x="-3" y="-3" /><text class="lab" transform="translate(0 11)">6</text></g><path class="edge" d="M 0 0 V -26.649 H -11.4" /><circle class="sym" cx="0" cy="0" r="3" /><text class="lab rgt" transform="translate(3 -7.0)">22</text></g><path class="edge" d="M 0 0 V -7.90807 H -20.9" /><circle class="sym" cx="0" cy="0" r="3" /><text class="lab rgt" transform="translate(3 -7.0)">26</text></g><g class="a27 c1 node n24 p0" transform="translate(-20.9 20.3305)"><g class="a24 c2 node n11 p0" transform="translate(0.0 49.8003)"><g class="a11 leaf node n0 p0 sample" transform="translate(-7.6 5.4719)"><path class="edge" d="M 0 0 V -5.4719 H 7.6" /><rect class="sym" height="6" width="6" x="-3" y="-3" /><text class="lab" transform="translate(0 11)">0</text></g><g class="a11 leaf node n4 p0 sample" transform="translate(7.6 5.4719)"><path class="edge" d="M 0 0 V -5.4719 H -7.6" /><rect class="sym" height="6" width="6" x="-3" y="-3" /><text class="lab" transform="translate(0 11)">4</text></g><path class="edge" d="M 0 0 V -49.8003 H 0.0" /><circle class="sym" cx="0" cy="0" r="3" /><text class="lab lft" transform="translate(-3 -7.0)">11</text></g><path class="edge" d="M 0 0 V -20.3305 H 20.9" /><circle class="sym" cx="0" cy="0" r="3" /><text class="lab lft" transform="translate(-3 -7.0)">24</text></g><path class="edge" d="M 0 0 V -16.9361 H 0.0" /><circle class="sym" cx="0" cy="0" r="3" /><text class="lab lft" transform="translate(-3 -7.0)">27</text></g><path class="edge" d="M 0 0 V -2.06121 H 46.075" /><circle class="sym" cx="0" cy="0" r="3" /><text class="lab lft" transform="translate(-3 -7.0)">29</text></g><circle class="sym" cx="0" cy="0" r="3" /><text class="lab" transform="translate(0 -11)">30</text></g></g></g></g></g></svg>
