<svg baseProfile="full" height="200" version="1.1" width="1200" xmlns="http://www.w3.org/2000/svg" xmlns:ev="http://www.w3.org/2001/xml-events" xmlns:xlink="http://www.w3.org/1999/xlink"><defs><style type="text/css"><![CDATA[.background path {fill: #808080; fill-opacity: 0}.background path:nth-child(odd) {fill-opacity: .1}.axes {font-size: 14px}.x-axis .tick .lab {font-weight: bold; dominant-baseline: hanging}.axes, .tree {font-size: 14px; text-anchor: middle}.axes line, .edge {stroke: black; fill: none}.y-axis .grid {stroke: #FAFAFA}.node > .sym {fill: black; stroke: none}.site > .sym {stroke: black}.mut text {fill: red; font-style: italic}.mut.extra text {fill: hotpink}.mut line {fill: none; stroke: none}.mut .sym {fill: none; stroke: red}.mut.extra .sym {stroke: hotpink}.node .mut .sym {stroke-width: 1.5px}.tree text, .tree-sequence text {dominant-baseline: central}.plotbox .lab.lft {text-anchor: end}.plotbox .lab.rgt {text-anchor: start}]]></style></defs><g class="tree-sequence"><g class="background"><path d="M20,0 l193.333,0 l0,138.2 l-107.46,25 l0,5 l-85.873,0 l0,-5 l0,-25 l0,-138.2z" /><path d="M213.333,0 l193.333,0 l0,138.2 l-25.2432,25 l0,5 l-275.55,0 l0,-5 l107.46,-25 l0,-138.2z" /><path d="M406.667,0 l193.333,0 l0,138.2 l80.5554,25 l0,5 l-299.132,0 l0,-5 l25.2432,-25 l0,-138.2z" /><path d="M600,0 l193.333,0 l0,138.2 l-93.8797,25 l0,5 l-18.8982,0 l0,-5 l-80.5554,-25 l0,-138.2z" /><path d="M793.333,0 l193.333,0 l0,138.2 l-251.944,25 l0,5 l-35.2694,0 l0,-5 l93.8797,-25 l0,-138.2z" /><path d="M986.667,0 l193.333,0 l0,138.2 l0,25 l0,5 l-445.277,0 l0,-5 l251.944,-25 l0,-138.2z" /></g><g class="axes"><g class="x-axis"><g transform="translate(600 200)"><text class="lab" text-anchor="middle" transform="translate(0 -11)">Genome position</text></g><line x1="20" x2="1180" y1="163.2" y2="163.2" /><g class="ticks"><g class="tick" transform="translate(20 163.2)"><line x1="0" x2="0" y1="0" y2="5" /><g transform="translate(0 6)"><text class="lab">0.00</text></g></g><g class="tick" transform="translate(105.873 163.2)"><line x1="0" x2="0" y1="0" y2="5" /><g transform="translate(0 6)"><text class="lab">74.03</text></g></g><g class="tick" transform="translate(381.423 163.2)"><line x1="0" x2="0" y1="0" y2="5" /><g transform="translate(0 6)"><text class="lab">311.57</text></g></g><g class="tick" transform="translate(680.555 163.2)"><line x1="0" x2="0" y1="0" y2="5" /><g transform="translate(0 6)"><text class="lab">569.44</text></g></g><g class="tick" transform="translate(699.454 163.2)"><line x1="0" x2="0" y1="0" y2="5" /><g transform="translate(0 6)"><text class="lab">585.74</text></g></g><g class="tick" transform="translate(734.723 163.2)"><line x1="0" x2="0" y1="0" y2="5" /><g transform="translate(0 6)"><text class="lab">616.14</text></g></g><g class="tick" transform="translate(1180 163.2)"><line x1="0" x2="0" y1="0" y2="5" /><g transform="translate(0 6)"><text class="lab">1000.00</text></g></g></g></g></g><g class="plotbox trees"><g class="tree t0" transform="translate(20 0)"><g class="plotbox"><g class="c2 node n33 p0 root" transform="translate(102.417 26.8)"><g class="a33 c2 node n28 p0" transform="translate(-44.0833 59.1255)"><g class="a28 c1 node n13 p0" transform="translate(-30.6667 29.1014)"><g class="a13 c1 node n10 p0" transform="translate(0.0 4.03649)"><g class="a10 leaf node n0 p0 sample" transform="translate(0.0 2.33666)"><path class="edge" d="M 0 0 V -2.33666 H 0.0" /><rect class="sym" height="6" width="6" x="-3" y="-3" /><text class="lab" transform="translate(0 11)">0</text></g><path class="edge" d="M 0 0 V -4.03649 H 0.0" /><circle class="sym" cx="0" cy="0" r="3" /><text class="lab lft" transform="translate(-3 -7.0)">10</text></g><path class="edge" d="M 0 0 V -29.1014 H 30.6667" /><circle class="sym" cx="0" cy="0" r="3" /><text class="lab lft" transform="translate(-3 -7.0)">13</text></g><g class="a28 c2 node n27 p0" transform="translate(30.6667 4.50179)"><g class="a27 c1 node n23 p0" transform="translate(23 3.40911)"><g class="a23 c2 node n22 p0" transform="translate(0.0 5.1281)"><g class="a22 c1 node n18 p0" transform="translate(7.66667 3.53714)"><g class="a18 leaf node n7 p0 sample" transform="translate(0.0 18.8984)"><path class="edge" d="M 0 0 V -18.8984 H 0.0" /><rect class="sym" height="6" width="6" x="-3" y="-3" /><text class="lab" transform="translate(0 11)">7</text></g><path class="edge" d="M 0 0 V -3.53714 H -7.66667" /><circle class="sym" cx="0" cy="0" r="3" /><text class="lab rgt" transform="translate(3 -7.0)">18</text></g><g class="a22 c1 node n21 p0" transform="translate(-7.66667 1.09956)"><g class="a21 leaf node n2 p0 sample" transform="translate(0.0 21.336)"><path class="edge" d="M 0 0 V -21.336 H 0.0" /><rect class="sym" height="6" width="6" x="-3" y="-3" /><text class="lab" transform="translate(0 11)">2</text></g><path class="edge" d="M 0 0 V -1.09956 H 7.66667" /><circle class="sym" cx="0" cy="0" r="3" /><text class="lab lft" transform="translate(-3 -7.0)">21</text></g><path class="edge" d="M 0 0 V -5.1281 H 0.0" /><circle class="sym" cx="0" cy="0" r="3" /><text class="lab lft" transform="translate(-3 -7.0)">22</text></g><path class="edge" d="M 0 0 V -3.40911 H -23" /><circle class="sym" cx="0" cy="0" r="3" /><text class="lab rgt" transform="translate(3 -7.0)">23</text></g><g class="a27 c2 node n26 p0" transform="translate(-23 2.25114)"><g class="a26 c2 node n17 p0" transform="translate(15.3333 12.2128)"><g class="a17 leaf node n5 p0 sample" transform="translate(-7.66667 16.5088)"><path class="edge" d="M 0 0 V -16.5088 H 7.66667" /><rect class="sym" height="6" width="6" x="-3" y="-3" /><text class="lab" transform="translate(0 11)">5</text></g><g class="a17 leaf node n6 p0 sample" transform="translate(7.66667 16.5088)"><path class="edge" d="M 0 0 V -16.5088 H -7.66667" /><rect class="sym" height="6" width="6" x="-3" y="-3" /><text class="lab" transform="translate(0 11)">6</text></g><path class="edge" d="M 0 0 V -12.2128 H -15.3333" /><circle class="sym" cx="0" cy="0" r="3" /><text class="lab rgt" transform="translate(3 -7.0)">17</text></g><g class="a26 c2 node n19 p0" transform="translate(-15.3333 9.21259)"><g class="a19 leaf node n1 p0 sample" transform="translate(-7.66667 19.509)"><path class="edge" d="M 0 0 V -19.509 H 7.66667" /><rect class="sym" height="6" width="6" x="-3" y="-3" /><text class="lab" transform="translate(0 11)">1</text></g><g class="a19 c1 node n15 p0" transform="translate(7.66667 6.38627)"><g class="a15 leaf node n3 p0 sample" transform="translate(0.0 13.1228)"><path class="edge" d="M 0 0 V -13.1228 H 0.0" /><rect class="sym" height="6" width="6" x="-3" y="-3" /><text class="lab" transform="translate(0 11)">3</text></g><path class="edge" d="M 0 0 V -6.38627 H -7.66667" /><circle class="sym" cx="0" cy="0" r="3" /><text class="lab rgt" transform="translate(3 -7.0)">15</text></g><path class="edge" d="M 0 0 V -9.21259 H 15.3333" /><circle class="sym" cx="0" cy="0" r="3" /><text class="lab lft" transform="translate(-3 -7.0)">19</text></g><path class="edge" d="M 0 0 V -2.25114 H 23" /><circle class="sym" cx="0" cy="0" r="3" /><text class="lab lft" transform="translate(-3 -7.0)">26</text></g><path class="edge" d="M 0 0 V -4.50179 H -30.6667" /><circle class="sym" cx="0" cy="0" r="3" /><text class="lab rgt" transform="translate(3 -7.0)">27</text></g><path class="edge" d="M 0 0 V -59.1255 H 44.0833" /><circle class="sym" cx="0" cy="0" r="3" /><text class="lab lft" transform="translate(-3 -7.0)">28</text></g><g class="a33 c1 node n32 p0" transform="translate(44.0833 18.7789)"><g class="a32 c1 node n31 p0" transform="translate(0.0 24.0716)"><g class="a31 c1 node n24 p0" transform="translate(0.0 23.4372)"><g class="a24 c2 node n20 p0" transform="translate(0.0 7.25321)"><g class="a20 leaf node n4 p0 sample" transform="translate(-11.5 21.0592)"><path class="edge" d="M 0 0 V -21.0592 H 11.5" /><rect class="sym" height="6" width="6" x="-3" y="-3" /><text class="lab" transform="translate(0 11)">4</text></g><g class="a20 c2 node n12 p0" transform="translate(11.5 16.899)"><g class="a12 leaf node n8 p0 sample" transform="translate(-7.66667 4.16015)"><path class="edge" d="M 0 0 V -4.16015 H 7.66667" /><rect class="sym" height="6" width="6" x="-3" y="-3" /><text class="lab" transform="translate(0 11)">8</text></g><g class="a12 leaf node n9 p0 sample" transform="translate(7.66667 4.16015)"><path class="edge" d="M 0 0 V -4.16015 H -7.66667" /><rect class="sym" height="6" width="6" x="-3" y="-3" /><text class="lab" transform="translate(0 11)">9</text></g><path class="edge" d="M 0 0 V -16.899 H -11.5" /><circle class="sym" cx="0" cy="0" r="3" /><text class="lab rgt" transform="translate(3 -7.0)">12</text></g><path class="edge" d="M 0 0 V -7.25321 H 0.0" /><circle class="sym" cx="0" cy="0" r="3" /><text class="lab lft" transform="translate(-3 -7.0)">20</text></g><path class="edge" d="M 0 0 V -23.4372 H 0.0" /><circle class="sym" cx="0" cy="0" r="3" /><text class="lab lft" transform="translate(-3 -7.0)">24</text></g><path class="edge" d="M 0 0 V -24.0716 H 0.0" /><circle class="sym" cx="0" cy="0" r="3" /><text class="lab lft" transform="translate(-3 -7.0)">31</text></g><path class="edge" d="M 0 0 V -18.7789 H -44.0833" /><circle class="sym" cx="0" cy="0" r="3" /><text class="lab rgt" transform="translate(3 -7.0)">32</text></g><circle class="sym" cx="0" cy="0" r="3" /><text class="lab" transform="translate(0 -11)">33</text></g></g></g><g class="tree t1" transform="translate(213.333 0)"><g class="plotbox"><g class="c2 node n33 p0 root" transform="translate(109.125 26.8)"><g class="a33 c1 node n28 p0" transform="translate(-37.375 59.1255)"><g class="a28 c2 node n27 p0" transform="translate(0.0 4.50179)"><g class="a27 c1 node n23 p0" transform="translate(-24.9167 3.40911)"><g class="a23 c2 node n22 p0" transform="translate(0.0 5.1281)"><g class="a22 c1 node n18 p0" transform="translate(11.5 3.53714)"><g class="a18 leaf node n7 p0 sample" transform="translate(0.0 18.8984)"><path class="edge" d="M 0 0 V -18.8984 H 0.0" /><rect class="sym" height="6" width="6" x="-3" y="-3" /><text class="lab" transform="translate(0 11)">7</text></g><path class="edge" d="M 0 0 V -3.53714 H -11.5" /><circle class="sym" cx="0" cy="0" r="3" /><text class="lab rgt" transform="translate(3 -7.0)">18</text></g><g class="a22 c2 node n21 p0" transform="translate(-11.5 1.09956)"><g class="a21 leaf node n2 p0 sample" transform="translate(7.66667 21.336)"><path class="edge" d="M 0 0 V -21.336 H -7.66667" /><rect class="sym" height="6" width="6" x="-3" y="-3" /><text class="lab" transform="translate(0 11)">2</text></g><g class="a21 c1 node n14 p0" transform="translate(-7.66667 14.9628)"><g class="a14 c1 node n10 p0" transform="translate(0.0 4.03649)"><g class="a10 leaf node n0 p0 sample" transform="translate(0.0 2.33666)"><path class="edge" d="M 0 0 V -2.33666 H 0.0" /><rect class="sym" height="6" width="6" x="-3" y="-3" /><text class="lab" transform="translate(0 11)">0</text></g><path class="edge" d="M 0 0 V -4.03649 H 0.0" /><circle class="sym" cx="0" cy="0" r="3" /><text class="lab lft" transform="translate(-3 -7.0)">10</text></g><path class="edge" d="M 0 0 V -14.9628 H 7.66667" /><circle class="sym" cx="0" cy="0" r="3" /><text class="lab lft" transform="translate(-3 -7.0)">14</text></g><path class="edge" d="M 0 0 V -1.09956 H 11.5" /><circle class="sym" cx="0" cy="0" r="3" /><text class="lab lft" transform="translate(-3 -7.0)">21</text></g><path class="edge" d="M 0 0 V -5.1281 H 0.0" /><circle class="sym" cx="0" cy="0" r="3" /><text class="lab lft" transform="translate(-3 -7.0)">22</text></g><path class="edge" d="M 0 0 V -3.40911 H 24.9167" /><circle class="sym" cx="0" cy="0" r="3" /><text class="lab lft" transform="translate(-3 -7.0)">23</text></g><g class="a27 c2 node n26 p0" transform="translate(24.9167 2.25114)"><g class="a26 c2 node n17 p0" transform="translate(15.3333 12.2128)"><g class="a17 leaf node n5 p0 sample" transform="translate(-7.66667 16.5088)"><path class="edge" d="M 0 0 V -16.5088 H 7.66667" /><rect class="sym" height="6" width="6" x="-3" y="-3" /><text class="lab" transform="translate(0 11)">5</text></g><g class="a17 leaf node n6 p0 sample" transform="translate(7.66667 16.5088)"><path class="edge" d="M 0 0 V -16.5088 H -7.66667" /><rect class="sym" height="6" width="6" x="-3" y="-3" /><text class="lab" transform="translate(0 11)">6</text></g><path class="edge" d="M 0 0 V -12.2128 H -15.3333" /><circle class="sym" cx="0" cy="0" r="3" /><text class="lab rgt" transform="translate(3 -7.0)">17</text></g><g class="a26 c2 node n19 p0" transform="translate(-15.3333 9.21259)"><g class="a19 leaf node n1 p0 sample" transform="translate(-7.66667 19.509)"><path class="edge" d="M 0 0 V -19.509 H 7.66667" /><rect class="sym" height="6" width="6" x="-3" y="-3" /><text class="lab" transform="translate(0 11)">1</text></g><g class="a19 c1 node n15 p0" transform="translate(7.66667 6.38627)"><g class="a15 leaf node n3 p0 sample" transform="translate(0.0 13.1228)"><path class="edge" d="M 0 0 V -13.1228 H 0.0" /><rect class="sym" height="6" width="6" x="-3" y="-3" /><text class="lab" transform="translate(0 11)">3</text></g><path class="edge" d="M 0 0 V -6.38627 H -7.66667" /><circle class="sym" cx="0" cy="0" r="3" /><text class="lab rgt" transform="translate(3 -7.0)">15</text></g><path class="edge" d="M 0 0 V -9.21259 H 15.3333" /><circle class="sym" cx="0" cy="0" r="3" /><text class="lab lft" transform="translate(-3 -7.0)">19</text></g><path class="edge" d="M 0 0 V -2.25114 H -24.9167" /><circle class="sym" cx="0" cy="0" r="3" /><text class="lab rgt" transform="translate(3 -7.0)">26</text></g><path class="edge" d="M 0 0 V -4.50179 H 0.0" /><circle class="sym" cx="0" cy="0" r="3" /><text class="lab lft" transform="translate(-3 -7.0)">27</text></g><path class="edge" d="M 0 0 V -59.1255 H 37.375" /><circle class="sym" cx="0" cy="0" r="3" /><text class="lab lft" transform="translate(-3 -7.0)">28</text></g><g class="a33 c1 node n32 p0" transform="translate(37.375 18.7789)"><g class="a32 c1 node n31 p0" transform="translate(0.0 24.0716)"><g class="a31 c1 node n24 p0" transform="translate(0.0 23.4372)"><g class="a24 c2 node n20 p0" transform="translate(0.0 7.25321)"><g class="a20 leaf node n4 p0 sample" transform="translate(-11.5 21.0592)"><path class="edge" d="M 0 0 V -21.0592 H 11.5" /><rect class="sym" height="6" width="6" x="-3" y="-3" /><text class="lab" transform="translate(0 11)">4</text></g><g class="a20 c2 node n12 p0" transform="translate(11.5 16.899)"><g class="a12 leaf node n8 p0 sample" transform="translate(-7.66667 4.16015)"><path class="edge" d="M 0 0 V -4.16015 H 7.66667" /><rect class="sym" height="6" width="6" x="-3" y="-3" /><text class="lab" transform="translate(0 11)">8</text></g><g class="a12 leaf node n9 p0 sample" transform="translate(7.66667 4.16015)"><path class="edge" d="M 0 0 V -4.16015 H -7.66667" /><rect class="sym" height="6" width="6" x="-3" y="-3" /><text class="lab" transform="translate(0 11)">9</text></g><path class="edge" d="M 0 0 V -16.899 H -11.5" /><circle class="sym" cx="0" cy="0" r="3" /><text class="lab rgt" transform="translate(3 -7.0)">12</text></g><path class="edge" d="M 0 0 V -7.25321 H 0.0" /><circle class="sym" cx="0" cy="0" r="3" /><text class="lab lft" transform="translate(-3 -7.0)">20</text></g><path class="edge" d="M 0 0 V -23.4372 H 0.0" /><circle class="sym" cx="0" cy="0" r="3" /><text class="lab lft" transform="translate(-3 -7.0)">24</text></g><path class="edge" d="M 0 0 V -24.0716 H 0.0" /><circle class="sym" cx="0" cy="0" r="3" /><text class="lab lft" transform="translate(-3 -7.0)">31</text></g><path class="edge" d="M 0 0 V -18.7789 H -37.375" /><circle class="sym" cx="0" cy="0" r="3" /><text class="lab rgt" transform="translate(3 -7.0)">32</text></g><circle class="sym" cx="0" cy="0" r="3" /><text class="lab" transform="translate(0 -11)">33</text></g></g></g><g class="tree t2" transform="translate(406.667 0)"><g class="plotbox"><g class="c2 node n33 p0 root" transform="translate(113.438 26.8)"><g class="a33 c1 node n28 p0" transform="translate(-33.0625 59.1255)"><g class="a28 c2 node n27 p0" transform="translate(0.0 4.50179)"><g class="a27 c2 node n23 p0" transform="translate(-20.125 3.40911)"><g class="a23 c2 node n22 p0" transform="translate(-13.4167 5.1281)"><g class="a22 c1 node n18 p0" transform="translate(11.5 3.53714)"><g class="a18 leaf node n7 p0 sample" transform="translate(0.0 18.8984)"><path class="edge" d="M 0 0 V -18.8984 H 0.0" /><rect class="sym" height="6" width="6" x="-3" y="-3" /><text class="lab" transform="translate(0 11)">7</text></g><path class="edge" d="M 0 0 V -3.53714 H -11.5" /><circle class="sym" cx="0" cy="0" r="3" /><text class="lab rgt" transform="translate(3 -7.0)">18</text></g><g class="a22 c2 node n21 p0" transform="translate(-11.5 1.09956)"><g class="a21 leaf node n2 p0 sample" transform="translate(7.66667 21.336)"><path class="edge" d="M 0 0 V -21.336 H -7.66667" /><rect class="sym" height="6" width="6" x="-3" y="-3" /><text class="lab" transform="translate(0 11)">2</text></g><g class="a21 c1 node n14 p0" transform="translate(-7.66667 14.9628)"><g class="a14 c1 node n10 p0" transform="translate(0.0 4.03649)"><g class="a10 leaf node n0 p0 sample" transform="translate(0.0 2.33666)"><path class="edge" d="M 0 0 V -2.33666 H 0.0" /><rect class="sym" height="6" width="6" x="-3" y="-3" /><text class="lab" transform="translate(0 11)">0</text></g><path class="edge" d="M 0 0 V -4.03649 H 0.0" /><circle class="sym" cx="0" cy="0" r="3" /><text class="lab lft" transform="translate(-3 -7.0)">10</text></g><path class="edge" d="M 0 0 V -14.9628 H 7.66667" /><circle class="sym" cx="0" cy="0" r="3" /><text class="lab lft" transform="translate(-3 -7.0)">14</text></g><path class="edge" d="M 0 0 V -1.09956 H 11.5" /><circle class="sym" cx="0" cy="0" r="3" /><text class="lab lft" transform="translate(-3 -7.0)">21</text></g><path class="edge" d="M 0 0 V -5.1281 H 13.4167" /><circle class="sym" cx="0" cy="0" r="3" /><text class="lab lft" transform="translate(-3 -7.0)">22</text></g><g class="a23 c1 node n16 p0" transform="translate(13.4167 14.4409)"><g class="a16 leaf node n3 p0 sample" transform="translate(0.0 13.1228)"><path class="edge" d="M 0 0 V -13.1228 H 0.0" /><rect class="sym" height="6" width="6" x="-3" y="-3" /><text class="lab" transform="translate(0 11)">3</text></g><path class="edge" d="M 0 0 V -14.4409 H -13.4167" /><circle class="sym" cx="0" cy="0" r="3" /><text class="lab rgt" transform="translate(3 -7.0)">16</text></g><path class="edge" d="M 0 0 V -3.40911 H 20.125" /><circle class="sym" cx="0" cy="0" r="3" /><text class="lab lft" transform="translate(-3 -7.0)">23</text></g><g class="a27 c2 node n26 p0" transform="translate(20.125 2.25114)"><g class="a26 c2 node n17 p0" transform="translate(11.5 12.2128)"><g class="a17 leaf node n5 p0 sample" transform="translate(-7.66667 16.5088)"><path class="edge" d="M 0 0 V -16.5088 H 7.66667" /><rect class="sym" height="6" width="6" x="-3" y="-3" /><text class="lab" transform="translate(0 11)">5</text></g><g class="a17 leaf node n6 p0 sample" transform="translate(7.66667 16.5088)"><path class="edge" d="M 0 0 V -16.5088 H -7.66667" /><rect class="sym" height="6" width="6" x="-3" y="-3" /><text class="lab" transform="translate(0 11)">6</text></g><path class="edge" d="M 0 0 V -12.2128 H -11.5" /><circle class="sym" cx="0" cy="0" r="3" /><text class="lab rgt" transform="translate(3 -7.0)">17</text></g><g class="a26 c1 node n19 p0" transform="translate(-11.5 9.21259)"><g class="a19 leaf node n1 p0 sample" transform="translate(0.0 19.509)"><path class="edge" d="M 0 0 V -19.509 H 0.0" /><rect class="sym" height="6" width="6" x="-3" y="-3" /><text class="lab" transform="translate(0 11)">1</text></g><path class="edge" d="M 0 0 V -9.21259 H 11.5" /><circle class="sym" cx="0" cy="0" r="3" /><text class="lab lft" transform="translate(-3 -7.0)">19</text></g><path class="edge" d="M 0 0 V -2.25114 H -20.125" /><circle class="sym" cx="0" cy="0" r="3" /><text class="lab rgt" transform="translate(3 -7.0)">26</text></g><path class="edge" d="M 0 0 V -4.50179 H 0.0" /><circle class="sym" cx="0" cy="0" r="3" /><text class="lab lft" transform="translate(-3 -7.0)">27</text></g><path class="edge" d="M 0 0 V -59.1255 H 33.0625" /><circle class="sym" cx="0" cy="0" r="3" /><text class="lab lft" transform="translate(-3 -7.0)">28</text></g><g class="a33 c1 node n32 p0" transform="translate(33.0625 18.7789)"><g class="a32 c1 node n31 p0" transform="translate(0.0 24.0716)"><g class="a31 c1 node n24 p0" transform="translate(0.0 23.4372)"><g class="a24 c2 node n20 p0" transform="translate(0.0 7.25321)"><g class="a20 leaf node n4 p0 sample" transform="translate(-11.5 21.0592)"><path class="edge" d="M 0 0 V -21.0592 H 11.5" /><rect class="sym" height="6" width="6" x="-3" y="-3" /><text class="lab" transform="translate(0 11)">4</text></g><g class="a20 c2 node n12 p0" transform="translate(11.5 16.899)"><g class="a12 leaf node n8 p0 sample" transform="translate(-7.66667 4.16015)"><path class="edge" d="M 0 0 V -4.16015 H 7.66667" /><rect class="sym" height="6" width="6" x="-3" y="-3" /><text class="lab" transform="translate(0 11)">8</text></g><g class="a12 leaf node n9 p0 sample" transform="translate(7.66667 4.16015)"><path class="edge" d="M 0 0 V -4.16015 H -7.66667" /><rect class="sym" height="6" width="6" x="-3" y="-3" /><text class="lab" transform="translate(0 11)">9</text></g><path class="edge" d="M 0 0 V -16.899 H -11.5" /><circle class="sym" cx="0" cy="0" r="3" /><text class="lab rgt" transform="translate(3 -7.0)">12</text></g><path class="edge" d="M 0 0 V -7.25321 H 0.0" /><circle class="sym" cx="0" cy="0" r="3" /><text class="lab lft" transform="translate(-3 -7.0)">20</text></g><path class="edge" d="M 0 0 V -23.4372 H 0.0" /><circle class="sym" cx="0" cy="0" r="3" /><text class="lab lft" transform="translate(-3 -7.0)">24</text></g><path class="edge" d="M 0 0 V -24.0716 H 0.0" /><circle class="sym" cx="0" cy="0" r="3" /><text class="lab lft" transform="translate(-3 -7.0)">31</text></g><path class="edge" d="M 0 0 V -18.7789 H -33.0625" /><circle class="sym" cx="0" cy="0" r="3" /><text class="lab rgt" transform="translate(3 -7.0)">32</text></g><circle class="sym" cx="0" cy="0" r="3" /><text class="lab" transform="translate(0 -11)">33</text></g></g></g><g class="tree t3" transform="translate(600 0)"><g class="plotbox"><g class="c2 node n33 p0 root" transform="translate(113.438 26.8)"><g class="a33 c1 node n28 p0" transform="translate(-33.0625 59.1255)"><g class="a28 c2 node n27 p0" transform="translate(0.0 4.50179)"><g class="a27 c2 node n23 p0" transform="translate(-20.125 3.40911)"><g class="a23 c2 node n22 p0" transform="translate(-13.4167 5.1281)"><g class="a22 c1 node n18 p0" transform="translate(11.5 3.53714)"><g class="a18 leaf node n7 p0 sample" transform="translate(0.0 18.8984)"><path class="edge" d="M 0 0 V -18.8984 H 0.0" /><rect class="sym" height="6" width="6" x="-3" y="-3" /><text class="lab" transform="translate(0 11)">7</text></g><path class="edge" d="M 0 0 V -3.53714 H -11.5" /><circle class="sym" cx="0" cy="0" r="3" /><text class="lab rgt" transform="translate(3 -7.0)">18</text></g><g class="a22 c2 node n21 p0" transform="translate(-11.5 1.09956)"><g class="a21 leaf node n2 p0 sample" transform="translate(7.66667 21.336)"><path class="edge" d="M 0 0 V -21.336 H -7.66667" /><rect class="sym" height="6" width="6" x="-3" y="-3" /><text class="lab" transform="translate(0 11)">2</text></g><g class="a21 c1 node n14 p0" transform="translate(-7.66667 14.9628)"><g class="a14 c1 node n10 p0" transform="translate(0.0 4.03649)"><g class="a10 leaf node n0 p0 sample" transform="translate(0.0 2.33666)"><path class="edge" d="M 0 0 V -2.33666 H 0.0" /><rect class="sym" height="6" width="6" x="-3" y="-3" /><text class="lab" transform="translate(0 11)">0</text></g><path class="edge" d="M 0 0 V -4.03649 H 0.0" /><circle class="sym" cx="0" cy="0" r="3" /><text class="lab lft" transform="translate(-3 -7.0)">10</text></g><path class="edge" d="M 0 0 V -14.9628 H 7.66667" /><circle class="sym" cx="0" cy="0" r="3" /><text class="lab lft" transform="translate(-3 -7.0)">14</text></g><path class="edge" d="M 0 0 V -1.09956 H 11.5" /><circle class="sym" cx="0" cy="0" r="3" /><text class="lab lft" transform="translate(-3 -7.0)">21</text></g><path class="edge" d="M 0 0 V -5.1281 H 13.4167" /><circle class="sym" cx="0" cy="0" r="3" /><text class="lab lft" transform="translate(-3 -7.0)">22</text></g><g class="a23 c1 node n16 p0" transform="translate(13.4167 14.4409)"><g class="a16 leaf node n3 p0 sample" transform="translate(0.0 13.1228)"><path class="edge" d="M 0 0 V -13.1228 H 0.0" /><rect class="sym" height="6" width="6" x="-3" y="-3" /><text class="lab" transform="translate(0 11)">3</text></g><path class="edge" d="M 0 0 V -14.4409 H -13.4167" /><circle class="sym" cx="0" cy="0" r="3" /><text class="lab rgt" transform="translate(3 -7.0)">16</text></g><path class="edge" d="M 0 0 V -3.40911 H 20.125" /><circle class="sym" cx="0" cy="0" r="3" /><text class="lab lft" transform="translate(-3 -7.0)">23</text></g><g class="a27 c2 node n26 p0" transform="translate(20.125 2.25114)"><g class="a26 c2 node n17 p0" transform="translate(11.5 12.2128)"><g class="a17 leaf node n5 p0 sample" transform="translate(-7.66667 16.5088)"><path class="edge" d="M 0 0 V -16.5088 H 7.66667" /><rect class="sym" height="6" width="6" x="-3" y="-3" /><text class="lab" transform="translate(0 11)">5</text></g><g class="a17 leaf node n6 p0 sample" transform="translate(7.66667 16.5088)"><path class="edge" d="M 0 0 V -16.5088 H -7.66667" /><rect class="sym" height="6" width="6" x="-3" y="-3" /><text class="lab" transform="translate(0 11)">6</text></g><path class="edge" d="M 0 0 V -12.2128 H -11.5" /><circle class="sym" cx="0" cy="0" r="3" /><text class="lab rgt" transform="translate(3 -7.0)">17</text></g><g class="a26 c1 node n19 p0" transform="translate(-11.5 9.21259)"><g class="a19 leaf node n1 p0 sample" transform="translate(0.0 19.509)"><path class="edge" d="M 0 0 V -19.509 H 0.0" /><rect class="sym" height="6" width="6" x="-3" y="-3" /><text class="lab" transform="translate(0 11)">1</text></g><path class="edge" d="M 0 0 V -9.21259 H 11.5" /><circle class="sym" cx="0" cy="0" r="3" /><text class="lab lft" transform="translate(-3 -7.0)">19</text></g><path class="edge" d="M 0 0 V -2.25114 H -20.125" /><circle class="sym" cx="0" cy="0" r="3" /><text class="lab rgt" transform="translate(3 -7.0)">26</text></g><path class="edge" d="M 0 0 V -4.50179 H 0.0" /><circle class="sym" cx="0" cy="0" r="3" /><text class="lab lft" transform="translate(-3 -7.0)">27</text></g><path class="edge" d="M 0 0 V -59.1255 H 33.0625" /><circle class="sym" cx="0" cy="0" r="3" /><text class="lab lft" transform="translate(-3 -7.0)">28</text></g><g class="a33 c1 node n32 p0" transform="translate(33.0625 18.7789)"><g class="a32 c1 node n31 p0" transform="translate(0.0 24.0716)"><g class="a31 c1 node n29 p0" transform="translate(0.0 8.28218)"><g class="a29 c1 node n25 p0" transform="translate(0.0 15.155)"><g class="a25 c2 node n20 p0" transform="translate(0.0 7.25321)"><g class="a20 leaf node n4 p0 sample" transform="translate(-11.5 21.0592)"><path class="edge" d="M 0 0 V -21.0592 H 11.5" /><rect class="sym" height="6" width="6" x="-3" y="-3" /><text class="lab" transform="translate(0 11)">4</text></g><g class="a20 c2 node n12 p0" transform="translate(11.5 16.899)"><g class="a12 leaf node n8 p0 sample" transform="translate(-7.66667 4.16015)"><path class="edge" d="M 0 0 V -4.16015 H 7.66667" /><rect class="sym" height="6" width="6" x="-3" y="-3" /><text class="lab" transform="translate(0 11)">8</text></g><g class="a12 leaf node n9 p0 sample" transform="translate(7.66667 4.16015)"><path class="edge" d="M 0 0 V -4.16015 H -7.66667" /><rect class="sym" height="6" width="6" x="-3" y="-3" /><text class="lab" transform="translate(0 11)">9</text></g><path class="edge" d="M 0 0 V -16.899 H -11.5" /><circle class="sym" cx="0" cy="0" r="3" /><text class="lab rgt" transform="translate(3 -7.0)">12</text></g><path class="edge" d="M 0 0 V -7.25321 H 0.0" /><circle class="sym" cx="0" cy="0" r="3" /><text class="lab lft" transform="translate(-3 -7.0)">20</text></g><path class="edge" d="M 0 0 V -15.155 H 0.0" /><circle class="sym" cx="0" cy="0" r="3" /><text class="lab lft" transform="translate(-3 -7.0)">25</text></g><path class="edge" d="M 0 0 V -8.28218 H 0.0" /><circle class="sym" cx="0" cy="0" r="3" /><text class="lab lft" transform="translate(-3 -7.0)">29</text></g><path class="edge" d="M 0 0 V -24.0716 H 0.0" /><circle class="sym" cx="0" cy="0" r="3" /><text class="lab lft" transform="translate(-3 -7.0)">31</text></g><path class="edge" d="M 0 0 V -18.7789 H -33.0625" /><circle class="sym" cx="0" cy="0" r="3" /><text class="lab rgt" transform="translate(3 -7.0)">32</text></g><circle class="sym" cx="0" cy="0" r="3" /><text class="lab" transform="translate(0 -11)">33</text></g></g></g><g class="tree t4" transform="translate(793.333 0)"><g class="plotbox"><g class="c2 node n33 p0 root" transform="translate(113.438 26.8)"><g class="a33 c1 node n28 p0" transform="translate(-33.0625 59.1255)"><g class="a28 c2 node n27 p0" transform="translate(0.0 4.50179)"><g class="a27 c2 node n23 p0" transform="translate(-20.125 3.40911)"><g class="a23 c2 node n22 p0" transform="translate(-13.4167 5.1281)"><g class="a22 c2 node n18 p0" transform="translate(-11.5 3.53714)"><g class="a18 leaf node n7 p0 sample" transform="translate(7.66667 18.8984)"><path class="edge" d="M 0 0 V -18.8984 H -7.66667" /><rect class="sym" height="6" width="6" x="-3" y="-3" /><text class="lab" transform="translate(0 11)">7</text></g><g class="a18 c1 node n11 p0" transform="translate(-7.66667 16.5618)"><g class="a11 leaf node n0 p0 sample" transform="translate(0.0 2.33666)"><path class="edge" d="M 0 0 V -2.33666 H 0.0" /><rect class="sym" height="6" width="6" x="-3" y="-3" /><text class="lab" transform="translate(0 11)">0</text></g><path class="edge" d="M 0 0 V -16.5618 H 7.66667" /><circle class="sym" cx="0" cy="0" r="3" /><text class="lab lft" transform="translate(-3 -7.0)">11</text></g><path class="edge" d="M 0 0 V -3.53714 H 11.5" /><circle class="sym" cx="0" cy="0" r="3" /><text class="lab lft" transform="translate(-3 -7.0)">18</text></g><g class="a22 c1 node n21 p0" transform="translate(11.5 1.09956)"><g class="a21 leaf node n2 p0 sample" transform="translate(0.0 21.336)"><path class="edge" d="M 0 0 V -21.336 H 0.0" /><rect class="sym" height="6" width="6" x="-3" y="-3" /><text class="lab" transform="translate(0 11)">2</text></g><path class="edge" d="M 0 0 V -1.09956 H -11.5" /><circle class="sym" cx="0" cy="0" r="3" /><text class="lab rgt" transform="translate(3 -7.0)">21</text></g><path class="edge" d="M 0 0 V -5.1281 H 13.4167" /><circle class="sym" cx="0" cy="0" r="3" /><text class="lab lft" transform="translate(-3 -7.0)">22</text></g><g class="a23 c1 node n16 p0" transform="translate(13.4167 14.4409)"><g class="a16 leaf node n3 p0 sample" transform="translate(0.0 13.1228)"><path class="edge" d="M 0 0 V -13.1228 H 0.0" /><rect class="sym" height="6" width="6" x="-3" y="-3" /><text class="lab" transform="translate(0 11)">3</text></g><path class="edge" d="M 0 0 V -14.4409 H -13.4167" /><circle class="sym" cx="0" cy="0" r="3" /><text class="lab rgt" transform="translate(3 -7.0)">16</text></g><path class="edge" d="M 0 0 V -3.40911 H 20.125" /><circle class="sym" cx="0" cy="0" r="3" /><text class="lab lft" transform="translate(-3 -7.0)">23</text></g><g class="a27 c2 node n26 p0" transform="translate(20.125 2.25114)"><g class="a26 c2 node n17 p0" transform="translate(11.5 12.2128)"><g class="a17 leaf node n5 p0 sample" transform="translate(-7.66667 16.5088)"><path class="edge" d="M 0 0 V -16.5088 H 7.66667" /><rect class="sym" height="6" width="6" x="-3" y="-3" /><text class="lab" transform="translate(0 11)">5</text></g><g class="a17 leaf node n6 p0 sample" transform="translate(7.66667 16.5088)"><path class="edge" d="M 0 0 V -16.5088 H -7.66667" /><rect class="sym" height="6" width="6" x="-3" y="-3" /><text class="lab" transform="translate(0 11)">6</text></g><path class="edge" d="M 0 0 V -12.2128 H -11.5" /><circle class="sym" cx="0" cy="0" r="3" /><text class="lab rgt" transform="translate(3 -7.0)">17</text></g><g class="a26 c1 node n19 p0" transform="translate(-11.5 9.21259)"><g class="a19 leaf node n1 p0 sample" transform="translate(0.0 19.509)"><path class="edge" d="M 0 0 V -19.509 H 0.0" /><rect class="sym" height="6" width="6" x="-3" y="-3" /><text class="lab" transform="translate(0 11)">1</text></g><path class="edge" d="M 0 0 V -9.21259 H 11.5" /><circle class="sym" cx="0" cy="0" r="3" /><text class="lab lft" transform="translate(-3 -7.0)">19</text></g><path class="edge" d="M 0 0 V -2.25114 H -20.125" /><circle class="sym" cx="0" cy="0" r="3" /><text class="lab rgt" transform="translate(3 -7.0)">26</text></g><path class="edge" d="M 0 0 V -4.50179 H 0.0" /><circle class="sym" cx="0" cy="0" r="3" /><text class="lab lft" transform="translate(-3 -7.0)">27</text></g><path class="edge" d="M 0 0 V -59.1255 H 33.0625" /><circle class="sym" cx="0" cy="0" r="3" /><text class="lab lft" transform="translate(-3 -7.0)">28</text></g><g class="a33 c1 node n32 p0" transform="translate(33.0625 18.7789)"><g class="a32 c1 node n31 p0" transform="translate(0.0 24.0716)"><g class="a31 c1 node n29 p0" transform="translate(0.0 8.28218)"><g class="a29 c1 node n25 p0" transform="translate(0.0 15.155)"><g class="a25 c2 node n20 p0" transform="translate(0.0 7.25321)"><g class="a20 leaf node n4 p0 sample" transform="translate(-11.5 21.0592)"><path class="edge" d="M 0 0 V -21.0592 H 11.5" /><rect class="sym" height="6" width="6" x="-3" y="-3" /><text class="lab" transform="translate(0 11)">4</text></g><g class="a20 c2 node n12 p0" transform="translate(11.5 16.899)"><g class="a12 leaf node n8 p0 sample" transform="translate(-7.66667 4.16015)"><path class="edge" d="M 0 0 V -4.16015 H 7.66667" /><rect class="sym" height="6" width="6" x="-3" y="-3" /><text class="lab" transform="translate(0 11)">8</text></g><g class="a12 leaf node n9 p0 sample" transform="translate(7.66667 4.16015)"><path class="edge" d="M 0 0 V -4.16015 H -7.66667" /><rect class="sym" height="6" width="6" x="-3" y="-3" /><text class="lab" transform="translate(0 11)">9</text></g><path class="edge" d="M 0 0 V -16.899 H -11.5" /><circle class="sym" cx="0" cy="0" r="3" /><text class="lab rgt" transform="translate(3 -7.0)">12</text></g><path class="edge" d="M 0 0 V -7.25321 H 0.0" /><circle class="sym" cx="0" cy="0" r="3" /><text class="lab lft" transform="translate(-3 -7.0)">20</text></g><path class="edge" d="M 0 0 V -15.155 H 0.0" /><circle class="sym" cx="0" cy="0" r="3" /><text class="lab lft" transform="translate(-3 -7.0)">25</text></g><path class="edge" d="M 0 0 V -8.28218 H 0.0" /><circle class="sym" cx="0" cy="0" r="3" /><text class="lab lft" transform="translate(-3 -7.0)">29</text></g><path class="edge" d="M 0 0 V -24.0716 H 0.0" /><circle class="sym" cx="0" cy="0" r="3" /><text class="lab lft" transform="translate(-3 -7.0)">31</text></g><path class="edge" d="M 0 0 V -18.7789 H -33.0625" /><circle class="sym" cx="0" cy="0" r="3" /><text class="lab rgt" transform="translate(3 -7.0)">32</text></g><circle class="sym" cx="0" cy="0" r="3" /><text class="lab" transform="translate(0 -11)">33</text></g></g></g><g class="tree t5" transform="translate(986.667 0)"><g class="plotbox"><g class="c2 node n33 p0 root" transform="translate(113.438 26.8)"><g class="a33 c1 node n28 p0" transform="translate(-33.0625 59.1255)"><g class="a28 c2 node n27 p0" transform="translate(0.0 4.50179)"><g class="a27 c2 node n23 p0" transform="translate(-20.125 3.40911)"><g class="a23 c2 node n22 p0" transform="translate(-13.4167 5.1281)"><g class="a22 c2 node n18 p0" transform="translate(-11.5 3.53714)"><g class="a18 leaf node n7 p0 sample" transform="translate(7.66667 18.8984)"><path class="edge" d="M 0 0 V -18.8984 H -7.66667" /><rect class="sym" height="6" width="6" x="-3" y="-3" /><text class="lab" transform="translate(0 11)">7</text></g><g class="a18 c1 node n11 p0" transform="translate(-7.66667 16.5618)"><g class="a11 leaf node n0 p0 sample" transform="translate(0.0 2.33666)"><path class="edge" d="M 0 0 V -2.33666 H 0.0" /><rect class="sym" height="6" width="6" x="-3" y="-3" /><text class="lab" transform="translate(0 11)">0</text></g><path class="edge" d="M 0 0 V -16.5618 H 7.66667" /><circle class="sym" cx="0" cy="0" r="3" /><text class="lab lft" transform="translate(-3 -7.0)">11</text></g><path class="edge" d="M 0 0 V -3.53714 H 11.5" /><circle class="sym" cx="0" cy="0" r="3" /><text class="lab lft" transform="translate(-3 -7.0)">18</text></g><g class="a22 c1 node n21 p0" transform="translate(11.5 1.09956)"><g class="a21 leaf node n2 p0 sample" transform="translate(0.0 21.336)"><path class="edge" d="M 0 0 V -21.336 H 0.0" /><rect class="sym" height="6" width="6" x="-3" y="-3" /><text class="lab" transform="translate(0 11)">2</text></g><path class="edge" d="M 0 0 V -1.09956 H -11.5" /><circle class="sym" cx="0" cy="0" r="3" /><text class="lab rgt" transform="translate(3 -7.0)">21</text></g><path class="edge" d="M 0 0 V -5.1281 H 13.4167" /><circle class="sym" cx="0" cy="0" r="3" /><text class="lab lft" transform="translate(-3 -7.0)">22</text></g><g class="a23 c1 node n16 p0" transform="translate(13.4167 14.4409)"><g class="a16 leaf node n3 p0 sample" transform="translate(0.0 13.1228)"><path class="edge" d="M 0 0 V -13.1228 H 0.0" /><rect class="sym" height="6" width="6" x="-3" y="-3" /><text class="lab" transform="translate(0 11)">3</text></g><path class="edge" d="M 0 0 V -14.4409 H -13.4167" /><circle class="sym" cx="0" cy="0" r="3" /><text class="lab rgt" transform="translate(3 -7.0)">16</text></g><path class="edge" d="M 0 0 V -3.40911 H 20.125" /><circle class="sym" cx="0" cy="0" r="3" /><text class="lab lft" transform="translate(-3 -7.0)">23</text></g><g class="a27 c2 node n26 p0" transform="translate(20.125 2.25114)"><g class="a26 c2 node n17 p0" transform="translate(11.5 12.2128)"><g class="a17 leaf node n5 p0 sample" transform="translate(-7.66667 16.5088)"><path class="edge" d="M 0 0 V -16.5088 H 7.66667" /><rect class="sym" height="6" width="6" x="-3" y="-3" /><text class="lab" transform="translate(0 11)">5</text></g><g class="a17 leaf node n6 p0 sample" transform="translate(7.66667 16.5088)"><path class="edge" d="M 0 0 V -16.5088 H -7.66667" /><rect class="sym" height="6" width="6" x="-3" y="-3" /><text class="lab" transform="translate(0 11)">6</text></g><path class="edge" d="M 0 0 V -12.2128 H -11.5" /><circle class="sym" cx="0" cy="0" r="3" /><text class="lab rgt" transform="translate(3 -7.0)">17</text></g><g class="a26 c1 node n19 p0" transform="translate(-11.5 9.21259)"><g class="a19 leaf node n1 p0 sample" transform="translate(0.0 19.509)"><path class="edge" d="M 0 0 V -19.509 H 0.0" /><rect class="sym" height="6" width="6" x="-3" y="-3" /><text class="lab" transform="translate(0 11)">1</text></g><path class="edge" d="M 0 0 V -9.21259 H 11.5" /><circle class="sym" cx="0" cy="0" r="3" /><text class="lab lft" transform="translate(-3 -7.0)">19</text></g><path class="edge" d="M 0 0 V -2.25114 H -20.125" /><circle class="sym" cx="0" cy="0" r="3" /><text class="lab rgt" transform="translate(3 -7.0)">26</text></g><path class="edge" d="M 0 0 V -4.50179 H 0.0" /><circle class="sym" cx="0" cy="0" r="3" /><text class="lab lft" transform="translate(-3 -7.0)">27</text></g><path class="edge" d="M 0 0 V -59.1255 H 33.0625" /><circle class="sym" cx="0" cy="0" r="3" /><text class="lab lft" transform="translate(-3 -7.0)">28</text></g><g class="a33 c1 node n32 p0" transform="translate(33.0625 18.7789)"><g class="a32 c1 node n30 p0" transform="translate(0.0 32.3538)"><g class="a30 c1 node n25 p0" transform="translate(0.0 15.155)"><g class="a25 c2 node n20 p0" transform="translate(0.0 7.25321)"><g class="a20 leaf node n4 p0 sample" transform="translate(-11.5 21.0592)"><path class="edge" d="M 0 0 V -21.0592 H 11.5" /><rect class="sym" height="6" width="6" x="-3" y="-3" /><text class="lab" transform="translate(0 11)">4</text></g><g class="a20 c2 node n12 p0" transform="translate(11.5 16.899)"><g class="a12 leaf node n8 p0 sample" transform="translate(-7.66667 4.16015)"><path class="edge" d="M 0 0 V -4.16015 H 7.66667" /><rect class="sym" height="6" width="6" x="-3" y="-3" /><text class="lab" transform="translate(0 11)">8</text></g><g class="a12 leaf node n9 p0 sample" transform="translate(7.66667 4.16015)"><path class="edge" d="M 0 0 V -4.16015 H -7.66667" /><rect class="sym" height="6" width="6" x="-3" y="-3" /><text class="lab" transform="translate(0 11)">9</text></g><path class="edge" d="M 0 0 V -16.899 H -11.5" /><circle class="sym" cx="0" cy="0" r="3" /><text class="lab rgt" transform="translate(3 -7.0)">12</text></g><path class="edge" d="M 0 0 V -7.25321 H 0.0" /><circle class="sym" cx="0" cy="0" r="3" /><text class="lab lft" transform="translate(-3 -7.0)">20</text></g><path class="edge" d="M 0 0 V -15.155 H 0.0" /><circle class="sym" cx="0" cy="0" r="3" /><text class="lab lft" transform="translate(-3 -7.0)">25</text></g><path class="edge" d="M 0 0 V -32.3538 H 0.0" /><circle class="sym" cx="0" cy="0" r="3" /><text class="lab lft" transform="translate(-3 -7.0)">30</text></g><path class="edge" d="M 0 0 V -18.7789 H -33.0625" /><circle class="sym" cx="0" cy="0" r="3" /><text class="lab rgt" transform="translate(3 -7.0)">32</text></g><circle class="sym" cx="0" cy="0" r="3" /><text class="lab" transform="translate(0 -11)">33</text></g></g></g></g></g></svg>
