<svg baseProfile="full" height="200" version="1.1" width="800" xmlns="http://www.w3.org/2000/svg" xmlns:ev="http://www.w3.org/2001/xml-events" xmlns:xlink="http://www.w3.org/1999/xlink"><defs><style type="text/css"><![CDATA[.background path {fill: #808080; fill-opacity: 0}.background path:nth-child(odd) {fill-opacity: .1}.axes {font-size: 14px}.x-axis .tick .lab {font-weight: bold; dominant-baseline: hanging}.axes, .tree {font-size: 14px; text-anchor: middle}.axes line, .edge {stroke: black; fill: none}.y-axis .grid {stroke: #FAFAFA}.node > .sym {fill: black; stroke: none}.site > .sym {stroke: black}.mut text {fill: red; font-style: italic}.mut.extra text {fill: hotpink}.mut line {fill: none; stroke: none}.mut .sym {fill: none; stroke: red}.mut.extra .sym {stroke: hotpink}.node .mut .sym {stroke-width: 1.5px}.tree text, .tree-sequence text {dominant-baseline: central}.plotbox .lab.lft {text-anchor: end}.plotbox .lab.rgt {text-anchor: start}]]></style></defs><g class="tree-sequence"><g class="background"><path d="M20,0 l190,0 l0,138.2 l-57.4729,25 l0,5 l-132.527,0 l0,-5 l0,-25 l0,-138.2z" /><path d="M210,0 l190,0 l0,138.2 l28.6718,25 l0,5 l-276.145,0 l0,-5 l57.4729,-25 l0,-138.2z" /><path d="M400,0 l190,0 l0,138.2 l-120.626,25 l0,5 l-40.7019,0 l0,-5 l-28.6718,-25 l0,-138.2z" /><path d="M590,0 l190,0 l0,138.2 l0,25 l0,5 l-310.626,0 l0,-5 l120.626,-25 l0,-138.2z" /></g><g class="axes"><g class="x-axis"><g transform="translate(400 200)"><text class="lab" text-anchor="middle" transform="translate(0 -11)">Genome position</text></g><line x1="20" x2="780" y1="163.2" y2="163.2" /><g class="ticks"><g class="tick" transform="translate(20 163.2)"><line x1="0" x2="0" y1="0" y2="5" /><g transform="translate(0 6)"><text class="lab">0.00</text></g></g><g class="tick" transform="translate(152.527 163.2)"><line x1="0" x2="0" y1="0" y2="5" /><g transform="translate(0 6)"><text class="lab">174.38</text></g></g><g class="tick" transform="translate(428.672 163.2)"><line x1="0" x2="0" y1="0" y2="5" /><g transform="translate(0 6)"><text class="lab">537.73</text></g></g><g class="tick" transform="translate(469.374 163.2)"><line x1="0" x2="0" y1="0" y2="5" /><g transform="translate(0 6)"><text class="lab">591.28</text></g></g><g class="tick" transform="translate(780 163.2)"><line x1="0" x2="0" y1="0" y2="5" /><g transform="translate(0 6)"><text class="lab">1000.00</text></g></g></g></g></g><g class="plotbox trees"><g class="tree t0" transform="translate(20 0)"><g class="plotbox"><g class="c2 node n27 p0 root" transform="translate(113.047 26.8)"><g class="a27 c2 node n25 p0" transform="translate(36.3281 44.912)"><g class="a25 c1 node n21 p0" transform="translate(-13.125 22.2633)"><g class="a21 c2 node n17 p0" transform="translate(0.0 16.0623)"><g class="a17 leaf node n7 p0 sample" transform="translate(11.25 11.3624)"><path class="edge" d="M 0 0 V -11.3624 H -11.25" /><rect class="sym" height="6" width="6" x="-3" y="-3" /><text class="lab" transform="translate(0 11)">7</text></g><g class="a17 c2 node n13 p0" transform="translate(-11.25 7.81419)"><g class="a13 leaf node n3 p0 sample" transform="translate(-7.5 3.54821)"><path class="edge" d="M 0 0 V -3.54821 H 7.5" /><rect class="sym" height="6" width="6" x="-3" y="-3" /><text class="lab" transform="translate(0 11)">3</text></g><g class="a13 leaf node n4 p0 sample" transform="translate(7.5 3.54821)"><path class="edge" d="M 0 0 V -3.54821 H -7.5" /><rect class="sym" height="6" width="6" x="-3" y="-3" /><text class="lab" transform="translate(0 11)">4</text></g><path class="edge" d="M 0 0 V -7.81419 H 11.25" /><circle class="sym" cx="0" cy="0" r="3" /><text class="lab lft" transform="translate(-3 -7.0)">13</text></g><path class="edge" d="M 0 0 V -16.0623 H 0.0" /><circle class="sym" cx="0" cy="0" r="3" /><text class="lab lft" transform="translate(-3 -7.0)">17</text></g><path class="edge" d="M 0 0 V -22.2633 H 13.125" /><circle class="sym" cx="0" cy="0" r="3" /><text class="lab lft" transform="translate(-3 -7.0)">21</text></g><g class="a25 c1 node n24 p0" transform="translate(13.125 1.32579)"><g class="a24 leaf node n5 p0 sample" transform="translate(0.0 48.3622)"><path class="edge" d="M 0 0 V -48.3622 H 0.0" /><rect class="sym" height="6" width="6" x="-3" y="-3" /><text class="lab" transform="translate(0 11)">5</text></g><path class="edge" d="M 0 0 V -1.32579 H -13.125" /><circle class="sym" cx="0" cy="0" r="3" /><text class="lab rgt" transform="translate(3 -7.0)">24</text></g><path class="edge" d="M 0 0 V -44.912 H -36.3281" /><circle class="sym" cx="0" cy="0" r="3" /><text class="lab rgt" transform="translate(3 -7.0)">25</text></g><g class="a27 c2 node n26 p0" transform="translate(-36.3281 4.94565)"><g class="a26 c1 node n19 p0" transform="translate(-25.7812 67.265)"><g class="a19 c2 node n18 p0" transform="translate(0.0 4.68755)"><g class="a18 leaf node n0 p0 sample" transform="translate(-23.4375 17.7018)"><path class="edge" d="M 0 0 V -17.7018 H 23.4375" /><rect class="sym" height="6" width="6" x="-3" y="-3" /><text class="lab" transform="translate(0 11)">0</text></g><g class="a18 c2 node n16 p0" transform="translate(23.4375 6.83641)"><g class="a16 leaf node n9 p0 sample" transform="translate(13.125 10.8654)"><path class="edge" d="M 0 0 V -10.8654 H -13.125" /><rect class="sym" height="6" width="6" x="-3" y="-3" /><text class="lab" transform="translate(0 11)">9</text></g><g class="a16 c2 node n14 p0" transform="translate(-13.125 4.72903)"><g class="a14 c1 node n10 p0" transform="translate(11.25 4.78289)"><g class="a10 leaf node n2 p0 sample" transform="translate(0.0 1.35347)"><path class="edge" d="M 0 0 V -1.35347 H 0.0" /><rect class="sym" height="6" width="6" x="-3" y="-3" /><text class="lab" transform="translate(0 11)">2</text></g><path class="edge" d="M 0 0 V -4.78289 H -11.25" /><circle class="sym" cx="0" cy="0" r="3" /><text class="lab rgt" transform="translate(3 -7.0)">10</text></g><g class="a14 c2 node n12 p0" transform="translate(-11.25 2.91027)"><g class="a12 leaf node n1 p0 sample" transform="translate(-7.5 3.22609)"><path class="edge" d="M 0 0 V -3.22609 H 7.5" /><rect class="sym" height="6" width="6" x="-3" y="-3" /><text class="lab" transform="translate(0 11)">1</text></g><g class="a12 leaf node n6 p0 sample" transform="translate(7.5 3.22609)"><path class="edge" d="M 0 0 V -3.22609 H -7.5" /><rect class="sym" height="6" width="6" x="-3" y="-3" /><text class="lab" transform="translate(0 11)">6</text></g><path class="edge" d="M 0 0 V -2.91027 H 11.25" /><circle class="sym" cx="0" cy="0" r="3" /><text class="lab lft" transform="translate(-3 -7.0)">12</text></g><path class="edge" d="M 0 0 V -4.72903 H 13.125" /><circle class="sym" cx="0" cy="0" r="3" /><text class="lab lft" transform="translate(-3 -7.0)">14</text></g><path class="edge" d="M 0 0 V -6.83641 H -23.4375" /><circle class="sym" cx="0" cy="0" r="3" /><text class="lab rgt" transform="translate(3 -7.0)">16</text></g><path class="edge" d="M 0 0 V -4.68755 H 0.0" /><circle class="sym" cx="0" cy="0" r="3" /><text class="lab lft" transform="translate(-3 -7.0)">18</text></g><path class="edge" d="M 0 0 V -67.265 H 25.7812" /><circle class="sym" cx="0" cy="0" r="3" /><text class="lab lft" transform="translate(-3 -7.0)">19</text></g><g class="a26 c1 node n23 p0" transform="translate(25.7812 54.8316)"><g class="a23 c1 node n15 p0" transform="translate(0.0 28.2088)"><g class="a15 leaf node n8 p0 sample" transform="translate(0.0 6.61396)"><path class="edge" d="M 0 0 V -6.61396 H 0.0" /><rect class="sym" height="6" width="6" x="-3" y="-3" /><text class="lab" transform="translate(0 11)">8</text></g><path class="edge" d="M 0 0 V -28.2088 H 0.0" /><circle class="sym" cx="0" cy="0" r="3" /><text class="lab lft" transform="translate(-3 -7.0)">15</text></g><path class="edge" d="M 0 0 V -54.8316 H -25.7812" /><circle class="sym" cx="0" cy="0" r="3" /><text class="lab rgt" transform="translate(3 -7.0)">23</text></g><path class="edge" d="M 0 0 V -4.94565 H 36.3281" /><circle class="sym" cx="0" cy="0" r="3" /><text class="lab lft" transform="translate(-3 -7.0)">26</text></g><circle class="sym" cx="0" cy="0" r="3" /><text class="lab" transform="translate(0 -11)">27</text></g></g></g><g class="tree t1" transform="translate(210 0)"><g class="plotbox"><g class="c2 node n27 p0 root" transform="translate(127.578 26.8)"><g class="a27 c1 node n25 p0" transform="translate(34.9219 44.912)"><g class="a25 c1 node n24 p0" transform="translate(0.0 1.32579)"><g class="a24 leaf node n5 p0 sample" transform="translate(0.0 48.3622)"><path class="edge" d="M 0 0 V -48.3622 H 0.0" /><rect class="sym" height="6" width="6" x="-3" y="-3" /><text class="lab" transform="translate(0 11)">5</text></g><path class="edge" d="M 0 0 V -1.32579 H 0.0" /><circle class="sym" cx="0" cy="0" r="3" /><text class="lab lft" transform="translate(-3 -7.0)">24</text></g><path class="edge" d="M 0 0 V -44.912 H -34.9219" /><circle class="sym" cx="0" cy="0" r="3" /><text class="lab rgt" transform="translate(3 -7.0)">25</text></g><g class="a27 c2 node n26 p0" transform="translate(-34.9219 4.94565)"><g class="a26 c1 node n19 p0" transform="translate(-41.7188 67.265)"><g class="a19 c2 node n18 p0" transform="translate(0.0 4.68755)"><g class="a18 leaf node n0 p0 sample" transform="translate(-23.4375 17.7018)"><path class="edge" d="M 0 0 V -17.7018 H 23.4375" /><rect class="sym" height="6" width="6" x="-3" y="-3" /><text class="lab" transform="translate(0 11)">0</text></g><g class="a18 c2 node n16 p0" transform="translate(23.4375 6.83641)"><g class="a16 leaf node n9 p0 sample" transform="translate(13.125 10.8654)"><path class="edge" d="M 0 0 V -10.8654 H -13.125" /><rect class="sym" height="6" width="6" x="-3" y="-3" /><text class="lab" transform="translate(0 11)">9</text></g><g class="a16 c2 node n14 p0" transform="translate(-13.125 4.72903)"><g class="a14 c1 node n10 p0" transform="translate(11.25 4.78289)"><g class="a10 leaf node n2 p0 sample" transform="translate(0.0 1.35347)"><path class="edge" d="M 0 0 V -1.35347 H 0.0" /><rect class="sym" height="6" width="6" x="-3" y="-3" /><text class="lab" transform="translate(0 11)">2</text></g><path class="edge" d="M 0 0 V -4.78289 H -11.25" /><circle class="sym" cx="0" cy="0" r="3" /><text class="lab rgt" transform="translate(3 -7.0)">10</text></g><g class="a14 c2 node n12 p0" transform="translate(-11.25 2.91027)"><g class="a12 leaf node n1 p0 sample" transform="translate(-7.5 3.22609)"><path class="edge" d="M 0 0 V -3.22609 H 7.5" /><rect class="sym" height="6" width="6" x="-3" y="-3" /><text class="lab" transform="translate(0 11)">1</text></g><g class="a12 leaf node n6 p0 sample" transform="translate(7.5 3.22609)"><path class="edge" d="M 0 0 V -3.22609 H -7.5" /><rect class="sym" height="6" width="6" x="-3" y="-3" /><text class="lab" transform="translate(0 11)">6</text></g><path class="edge" d="M 0 0 V -2.91027 H 11.25" /><circle class="sym" cx="0" cy="0" r="3" /><text class="lab lft" transform="translate(-3 -7.0)">12</text></g><path class="edge" d="M 0 0 V -4.72903 H 13.125" /><circle class="sym" cx="0" cy="0" r="3" /><text class="lab lft" transform="translate(-3 -7.0)">14</text></g><path class="edge" d="M 0 0 V -6.83641 H -23.4375" /><circle class="sym" cx="0" cy="0" r="3" /><text class="lab rgt" transform="translate(3 -7.0)">16</text></g><path class="edge" d="M 0 0 V -4.68755 H 0.0" /><circle class="sym" cx="0" cy="0" r="3" /><text class="lab lft" transform="translate(-3 -7.0)">18</text></g><path class="edge" d="M 0 0 V -67.265 H 41.7188" /><circle class="sym" cx="0" cy="0" r="3" /><text class="lab lft" transform="translate(-3 -7.0)">19</text></g><g class="a26 c2 node n23 p0" transform="translate(41.7188 54.8316)"><g class="a23 c1 node n15 p0" transform="translate(13.125 28.2088)"><g class="a15 leaf node n8 p0 sample" transform="translate(0.0 6.61396)"><path class="edge" d="M 0 0 V -6.61396 H 0.0" /><rect class="sym" height="6" width="6" x="-3" y="-3" /><text class="lab" transform="translate(0 11)">8</text></g><path class="edge" d="M 0 0 V -28.2088 H -13.125" /><circle class="sym" cx="0" cy="0" r="3" /><text class="lab rgt" transform="translate(3 -7.0)">15</text></g><g class="a23 c1 node n22 p0" transform="translate(-13.125 7.39808)"><g class="a22 c2 node n17 p0" transform="translate(0.0 16.0623)"><g class="a17 leaf node n7 p0 sample" transform="translate(11.25 11.3624)"><path class="edge" d="M 0 0 V -11.3624 H -11.25" /><rect class="sym" height="6" width="6" x="-3" y="-3" /><text class="lab" transform="translate(0 11)">7</text></g><g class="a17 c2 node n13 p0" transform="translate(-11.25 7.81419)"><g class="a13 leaf node n3 p0 sample" transform="translate(-7.5 3.54821)"><path class="edge" d="M 0 0 V -3.54821 H 7.5" /><rect class="sym" height="6" width="6" x="-3" y="-3" /><text class="lab" transform="translate(0 11)">3</text></g><g class="a13 leaf node n4 p0 sample" transform="translate(7.5 3.54821)"><path class="edge" d="M 0 0 V -3.54821 H -7.5" /><rect class="sym" height="6" width="6" x="-3" y="-3" /><text class="lab" transform="translate(0 11)">4</text></g><path class="edge" d="M 0 0 V -7.81419 H 11.25" /><circle class="sym" cx="0" cy="0" r="3" /><text class="lab lft" transform="translate(-3 -7.0)">13</text></g><path class="edge" d="M 0 0 V -16.0623 H 0.0" /><circle class="sym" cx="0" cy="0" r="3" /><text class="lab lft" transform="translate(-3 -7.0)">17</text></g><path class="edge" d="M 0 0 V -7.39808 H 13.125" /><circle class="sym" cx="0" cy="0" r="3" /><text class="lab lft" transform="translate(-3 -7.0)">22</text></g><path class="edge" d="M 0 0 V -54.8316 H -41.7188" /><circle class="sym" cx="0" cy="0" r="3" /><text class="lab rgt" transform="translate(3 -7.0)">23</text></g><path class="edge" d="M 0 0 V -4.94565 H 34.9219" /><circle class="sym" cx="0" cy="0" r="3" /><text class="lab lft" transform="translate(-3 -7.0)">26</text></g><circle class="sym" cx="0" cy="0" r="3" /><text class="lab" transform="translate(0 -11)">27</text></g></g></g><g class="tree t2" transform="translate(400 0)"><g class="plotbox"><g class="c2 node n27 p0 root" transform="translate(113.047 26.8)"><g class="a27 c1 node n25 p0" transform="translate(-36.3281 44.912)"><g class="a25 c2 node n24 p0" transform="translate(0.0 1.32579)"><g class="a24 leaf node n5 p0 sample" transform="translate(25.7812 48.3622)"><path class="edge" d="M 0 0 V -48.3622 H -25.7812" /><rect class="sym" height="6" width="6" x="-3" y="-3" /><text class="lab" transform="translate(0 11)">5</text></g><g class="a24 c1 node n20 p0" transform="translate(-25.7812 25.9729)"><g class="a20 c2 node n18 p0" transform="translate(0.0 4.68755)"><g class="a18 leaf node n0 p0 sample" transform="translate(-23.4375 17.7018)"><path class="edge" d="M 0 0 V -17.7018 H 23.4375" /><rect class="sym" height="6" width="6" x="-3" y="-3" /><text class="lab" transform="translate(0 11)">0</text></g><g class="a18 c2 node n16 p0" transform="translate(23.4375 6.83641)"><g class="a16 leaf node n9 p0 sample" transform="translate(13.125 10.8654)"><path class="edge" d="M 0 0 V -10.8654 H -13.125" /><rect class="sym" height="6" width="6" x="-3" y="-3" /><text class="lab" transform="translate(0 11)">9</text></g><g class="a16 c2 node n14 p0" transform="translate(-13.125 4.72903)"><g class="a14 c1 node n10 p0" transform="translate(11.25 4.78289)"><g class="a10 leaf node n2 p0 sample" transform="translate(0.0 1.35347)"><path class="edge" d="M 0 0 V -1.35347 H 0.0" /><rect class="sym" height="6" width="6" x="-3" y="-3" /><text class="lab" transform="translate(0 11)">2</text></g><path class="edge" d="M 0 0 V -4.78289 H -11.25" /><circle class="sym" cx="0" cy="0" r="3" /><text class="lab rgt" transform="translate(3 -7.0)">10</text></g><g class="a14 c2 node n12 p0" transform="translate(-11.25 2.91027)"><g class="a12 leaf node n1 p0 sample" transform="translate(-7.5 3.22609)"><path class="edge" d="M 0 0 V -3.22609 H 7.5" /><rect class="sym" height="6" width="6" x="-3" y="-3" /><text class="lab" transform="translate(0 11)">1</text></g><g class="a12 leaf node n6 p0 sample" transform="translate(7.5 3.22609)"><path class="edge" d="M 0 0 V -3.22609 H -7.5" /><rect class="sym" height="6" width="6" x="-3" y="-3" /><text class="lab" transform="translate(0 11)">6</text></g><path class="edge" d="M 0 0 V -2.91027 H 11.25" /><circle class="sym" cx="0" cy="0" r="3" /><text class="lab lft" transform="translate(-3 -7.0)">12</text></g><path class="edge" d="M 0 0 V -4.72903 H 13.125" /><circle class="sym" cx="0" cy="0" r="3" /><text class="lab lft" transform="translate(-3 -7.0)">14</text></g><path class="edge" d="M 0 0 V -6.83641 H -23.4375" /><circle class="sym" cx="0" cy="0" r="3" /><text class="lab rgt" transform="translate(3 -7.0)">16</text></g><path class="edge" d="M 0 0 V -4.68755 H 0.0" /><circle class="sym" cx="0" cy="0" r="3" /><text class="lab lft" transform="translate(-3 -7.0)">18</text></g><path class="edge" d="M 0 0 V -25.9729 H 25.7812" /><circle class="sym" cx="0" cy="0" r="3" /><text class="lab lft" transform="translate(-3 -7.0)">20</text></g><path class="edge" d="M 0 0 V -1.32579 H 0.0" /><circle class="sym" cx="0" cy="0" r="3" /><text class="lab lft" transform="translate(-3 -7.0)">24</text></g><path class="edge" d="M 0 0 V -44.912 H 36.3281" /><circle class="sym" cx="0" cy="0" r="3" /><text class="lab lft" transform="translate(-3 -7.0)">25</text></g><g class="a27 c1 node n26 p0" transform="translate(36.3281 4.94565)"><g class="a26 c2 node n23 p0" transform="translate(0.0 54.8316)"><g class="a23 c1 node n15 p0" transform="translate(13.125 28.2088)"><g class="a15 leaf node n8 p0 sample" transform="translate(0.0 6.61396)"><path class="edge" d="M 0 0 V -6.61396 H 0.0" /><rect class="sym" height="6" width="6" x="-3" y="-3" /><text class="lab" transform="translate(0 11)">8</text></g><path class="edge" d="M 0 0 V -28.2088 H -13.125" /><circle class="sym" cx="0" cy="0" r="3" /><text class="lab rgt" transform="translate(3 -7.0)">15</text></g><g class="a23 c1 node n22 p0" transform="translate(-13.125 7.39808)"><g class="a22 c2 node n17 p0" transform="translate(0.0 16.0623)"><g class="a17 leaf node n7 p0 sample" transform="translate(11.25 11.3624)"><path class="edge" d="M 0 0 V -11.3624 H -11.25" /><rect class="sym" height="6" width="6" x="-3" y="-3" /><text class="lab" transform="translate(0 11)">7</text></g><g class="a17 c2 node n13 p0" transform="translate(-11.25 7.81419)"><g class="a13 leaf node n3 p0 sample" transform="translate(-7.5 3.54821)"><path class="edge" d="M 0 0 V -3.54821 H 7.5" /><rect class="sym" height="6" width="6" x="-3" y="-3" /><text class="lab" transform="translate(0 11)">3</text></g><g class="a13 leaf node n4 p0 sample" transform="translate(7.5 3.54821)"><path class="edge" d="M 0 0 V -3.54821 H -7.5" /><rect class="sym" height="6" width="6" x="-3" y="-3" /><text class="lab" transform="translate(0 11)">4</text></g><path class="edge" d="M 0 0 V -7.81419 H 11.25" /><circle class="sym" cx="0" cy="0" r="3" /><text class="lab lft" transform="translate(-3 -7.0)">13</text></g><path class="edge" d="M 0 0 V -16.0623 H 0.0" /><circle class="sym" cx="0" cy="0" r="3" /><text class="lab lft" transform="translate(-3 -7.0)">17</text></g><path class="edge" d="M 0 0 V -7.39808 H 13.125" /><circle class="sym" cx="0" cy="0" r="3" /><text class="lab lft" transform="translate(-3 -7.0)">22</text></g><path class="edge" d="M 0 0 V -54.8316 H 0.0" /><circle class="sym" cx="0" cy="0" r="3" /><text class="lab lft" transform="translate(-3 -7.0)">23</text></g><path class="edge" d="M 0 0 V -4.94565 H -36.3281" /><circle class="sym" cx="0" cy="0" r="3" /><text class="lab rgt" transform="translate(3 -7.0)">26</text></g><circle class="sym" cx="0" cy="0" r="3" /><text class="lab" transform="translate(0 -11)">27</text></g></g></g><g class="tree t3" transform="translate(590 0)"><g class="plotbox"><g class="c2 node n27 p0 root" transform="translate(98.2812 26.8)"><g class="a27 c1 node n25 p0" transform="translate(-32.3438 44.912)"><g class="a25 c2 node n24 p0" transform="translate(0.0 1.32579)"><g class="a24 leaf node n5 p0 sample" transform="translate(21.5625 48.3622)"><path class="edge" d="M 0 0 V -48.3622 H -21.5625" /><rect class="sym" height="6" width="6" x="-3" y="-3" /><text class="lab" transform="translate(0 11)">5</text></g><g class="a24 c1 node n20 p0" transform="translate(-21.5625 25.9729)"><g class="a20 c2 node n18 p0" transform="translate(0.0 4.68755)"><g class="a18 leaf node n0 p0 sample" transform="translate(-16.875 17.7018)"><path class="edge" d="M 0 0 V -17.7018 H 16.875" /><rect class="sym" height="6" width="6" x="-3" y="-3" /><text class="lab" transform="translate(0 11)">0</text></g><g class="a18 c2 node n16 p0" transform="translate(16.875 6.83641)"><g class="a16 leaf node n9 p0 sample" transform="translate(11.25 10.8654)"><path class="edge" d="M 0 0 V -10.8654 H -11.25" /><rect class="sym" height="6" width="6" x="-3" y="-3" /><text class="lab" transform="translate(0 11)">9</text></g><g class="a16 c1 node n14 p0" transform="translate(-11.25 4.72903)"><g class="a14 c2 node n12 p0" transform="translate(0.0 2.91027)"><g class="a12 leaf node n1 p0 sample" transform="translate(-7.5 3.22609)"><path class="edge" d="M 0 0 V -3.22609 H 7.5" /><rect class="sym" height="6" width="6" x="-3" y="-3" /><text class="lab" transform="translate(0 11)">1</text></g><g class="a12 leaf node n6 p0 sample" transform="translate(7.5 3.22609)"><path class="edge" d="M 0 0 V -3.22609 H -7.5" /><rect class="sym" height="6" width="6" x="-3" y="-3" /><text class="lab" transform="translate(0 11)">6</text></g><path class="edge" d="M 0 0 V -2.91027 H 0.0" /><circle class="sym" cx="0" cy="0" r="3" /><text class="lab lft" transform="translate(-3 -7.0)">12</text></g><path class="edge" d="M 0 0 V -4.72903 H 11.25" /><circle class="sym" cx="0" cy="0" r="3" /><text class="lab lft" transform="translate(-3 -7.0)">14</text></g><path class="edge" d="M 0 0 V -6.83641 H -16.875" /><circle class="sym" cx="0" cy="0" r="3" /><text class="lab rgt" transform="translate(3 -7.0)">16</text></g><path class="edge" d="M 0 0 V -4.68755 H 0.0" /><circle class="sym" cx="0" cy="0" r="3" /><text class="lab lft" transform="translate(-3 -7.0)">18</text></g><path class="edge" d="M 0 0 V -25.9729 H 21.5625" /><circle class="sym" cx="0" cy="0" r="3" /><text class="lab lft" transform="translate(-3 -7.0)">20</text></g><path class="edge" d="M 0 0 V -1.32579 H 0.0" /><circle class="sym" cx="0" cy="0" r="3" /><text class="lab lft" transform="translate(-3 -7.0)">24</text></g><path class="edge" d="M 0 0 V -44.912 H 32.3438" /><circle class="sym" cx="0" cy="0" r="3" /><text class="lab lft" transform="translate(-3 -7.0)">25</text></g><g class="a27 c1 node n26 p0" transform="translate(32.3438 4.94565)"><g class="a26 c2 node n23 p0" transform="translate(0.0 54.8316)"><g class="a23 c2 node n15 p0" transform="translate(-20.625 28.2088)"><g class="a15 leaf node n8 p0 sample" transform="translate(7.5 6.61396)"><path class="edge" d="M 0 0 V -6.61396 H -7.5" /><rect class="sym" height="6" width="6" x="-3" y="-3" /><text class="lab" transform="translate(0 11)">8</text></g><g class="a15 c1 node n11 p0" transform="translate(-7.5 5.26048)"><g class="a11 leaf node n2 p0 sample" transform="translate(0.0 1.35347)"><path class="edge" d="M 0 0 V -1.35347 H 0.0" /><rect class="sym" height="6" width="6" x="-3" y="-3" /><text class="lab" transform="translate(0 11)">2</text></g><path class="edge" d="M 0 0 V -5.26048 H 7.5" /><circle class="sym" cx="0" cy="0" r="3" /><text class="lab lft" transform="translate(-3 -7.0)">11</text></g><path class="edge" d="M 0 0 V -28.2088 H 20.625" /><circle class="sym" cx="0" cy="0" r="3" /><text class="lab lft" transform="translate(-3 -7.0)">15</text></g><g class="a23 c1 node n22 p0" transform="translate(20.625 7.39808)"><g class="a22 c2 node n17 p0" transform="translate(0.0 16.0623)"><g class="a17 leaf node n7 p0 sample" transform="translate(11.25 11.3624)"><path class="edge" d="M 0 0 V -11.3624 H -11.25" /><rect class="sym" height="6" width="6" x="-3" y="-3" /><text class="lab" transform="translate(0 11)">7</text></g><g class="a17 c2 node n13 p0" transform="translate(-11.25 7.81419)"><g class="a13 leaf node n3 p0 sample" transform="translate(-7.5 3.54821)"><path class="edge" d="M 0 0 V -3.54821 H 7.5" /><rect class="sym" height="6" width="6" x="-3" y="-3" /><text class="lab" transform="translate(0 11)">3</text></g><g class="a13 leaf node n4 p0 sample" transform="translate(7.5 3.54821)"><path class="edge" d="M 0 0 V -3.54821 H -7.5" /><rect class="sym" height="6" width="6" x="-3" y="-3" /><text class="lab" transform="translate(0 11)">4</text></g><path class="edge" d="M 0 0 V -7.81419 H 11.25" /><circle class="sym" cx="0" cy="0" r="3" /><text class="lab lft" transform="translate(-3 -7.0)">13</text></g><path class="edge" d="M 0 0 V -16.0623 H 0.0" /><circle class="sym" cx="0" cy="0" r="3" /><text class="lab lft" transform="translate(-3 -7.0)">17</text></g><path class="edge" d="M 0 0 V -7.39808 H -20.625" /><circle class="sym" cx="0" cy="0" r="3" /><text class="lab rgt" transform="translate(3 -7.0)">22</text></g><path class="edge" d="M 0 0 V -54.8316 H 0.0" /><circle class="sym" cx="0" cy="0" r="3" /><text class="lab lft" transform="translate(-3 -7.0)">23</text></g><path class="edge" d="M 0 0 V -4.94565 H -32.3438" /><circle class="sym" cx="0" cy="0" r="3" /><text class="lab rgt" transform="translate(3 -7.0)">26</text></g><circle class="sym" cx="0" cy="0" r="3" /><text class="lab" transform="translate(0 -11)">27</text></g></g></g></g></g></svg>
