<svg baseProfile="full" height="200" version="1.1" width="1200" xmlns="http://www.w3.org/2000/svg" xmlns:ev="http://www.w3.org/2001/xml-events" xmlns:xlink="http://www.w3.org/1999/xlink"><defs><style type="text/css"><![CDATA[.background path {fill: #808080; fill-opacity: 0}.background path:nth-child(odd) {fill-opacity: .1}.axes {font-size: 14px}.x-axis .tick .lab {font-weight: bold; dominant-baseline: hanging}.axes, .tree {font-size: 14px; text-anchor: middle}.axes line, .edge {stroke: black; fill: none}.y-axis .grid {stroke: #FAFAFA}.node > .sym {fill: black; stroke: none}.site > .sym {stroke: black}.mut text {fill: red; font-style: italic}.mut.extra text {fill: hotpink}.mut line {fill: none; stroke: none}.mut .sym {fill: none; stroke: red}.mut.extra .sym {stroke: hotpink}.node .mut .sym {stroke-width: 1.5px}.tree text, .tree-sequence text {dominant-baseline: central}.plotbox .lab.lft {text-anchor: end}.plotbox .lab.rgt {text-anchor: start}]]></style></defs><g class="tree-sequence"><g class="background"><path d="M20,0 l193.333,0 l0,138.2 l-101.466,25 l0,5 l-91.8678,0 l0,-5 l0,-25 l0,-138.2z" /><path d="M213.333,0 l193.333,0 l0,138.2 l-281.133,25 l0,5 l-13.6655,0 l0,-5 l101.466,-25 l0,-138.2z" /><path d="M406.667,0 l193.333,0 l0,138.2 l-59.81,25 l0,5 l-414.657,0 l0,-5 l281.133,-25 l0,-138.2z" /><path d="M600,0 l193.333,0 l0,138.2 l-191.358,25 l0,5 l-61.7854,0 l0,-5 l59.81,-25 l0,-138.2z" /><path d="M793.333,0 l193.333,0 l0,138.2 l-273.645,25 l0,5 l-111.046,0 l0,-5 l191.358,-25 l0,-138.2z" /><path d="M986.667,0 l193.333,0 l0,138.2 l0,25 l0,5 l-466.979,0 l0,-5 l273.645,-25 l0,-138.2z" /></g><g class="axes"><g class="x-axis"><g transform="translate(600 200)"><text class="lab" text-anchor="middle" transform="translate(0 -11)">Genome position</text></g><line x1="20" x2="1180" y1="163.2" y2="163.2" /><g class="ticks"><g class="tick" transform="translate(20 163.2)"><line x1="0" x2="0" y1="0" y2="5" /><g transform="translate(0 6)"><text class="lab">0.00</text></g></g><g class="tick" transform="translate(111.868 163.2)"><line x1="0" x2="0" y1="0" y2="5" /><g transform="translate(0 6)"><text class="lab">79.20</text></g></g><g class="tick" transform="translate(125.533 163.2)"><line x1="0" x2="0" y1="0" y2="5" /><g transform="translate(0 6)"><text class="lab">90.98</text></g></g><g class="tick" transform="translate(540.19 163.2)"><line x1="0" x2="0" y1="0" y2="5" /><g transform="translate(0 6)"><text class="lab">448.44</text></g></g><g class="tick" transform="translate(601.975 163.2)"><line x1="0" x2="0" y1="0" y2="5" /><g transform="translate(0 6)"><text class="lab">501.70</text></g></g><g class="tick" transform="translate(713.021 163.2)"><line x1="0" x2="0" y1="0" y2="5" /><g transform="translate(0 6)"><text class="lab">597.43</text></g></g><g class="tick" transform="translate(1180 163.2)"><line x1="0" x2="0" y1="0" y2="5" /><g transform="translate(0 6)"><text class="lab">1000.00</text></g></g></g></g></g><g class="plotbox trees"><g class="tree t0" transform="translate(20 0)"><g class="plotbox"><g class="c2 node n33 p0 root" transform="translate(121.583 26.8)"><g class="a33 c1 node n31 p0" transform="translate(24.9167 18.641)"><g class="a31 c2 node n30 p0" transform="translate(0.0 5.96259)"><g class="a30 c1 node n26 p0" transform="translate(11.5 13.8321)"><g class="a26 c2 node n18 p0" transform="translate(0.0 39.1257)"><g class="a18 leaf node n4 p0 sample" transform="translate(-7.66667 17.0386)"><path class="edge" d="M 0 0 V -17.0386 H 7.66667" /><rect class="sym" height="6" width="6" x="-3" y="-3" /><text class="lab" transform="translate(0 11)">4</text></g><g class="a18 leaf node n5 p0 sample" transform="translate(7.66667 17.0386)"><path class="edge" d="M 0 0 V -17.0386 H -7.66667" /><rect class="sym" height="6" width="6" x="-3" y="-3" /><text class="lab" transform="translate(0 11)">5</text></g><path class="edge" d="M 0 0 V -39.1257 H 0.0" /><circle class="sym" cx="0" cy="0" r="3" /><text class="lab lft" transform="translate(-3 -7.0)">18</text></g><path class="edge" d="M 0 0 V -13.8321 H -11.5" /><circle class="sym" cx="0" cy="0" r="3" /><text class="lab rgt" transform="translate(3 -7.0)">26</text></g><g class="a30 c1 node n28 p0" transform="translate(-11.5 10.258)"><g class="a28 leaf node n2 p0 sample" transform="translate(0.0 59.7384)"><path class="edge" d="M 0 0 V -59.7384 H 0.0" /><rect class="sym" height="6" width="6" x="-3" y="-3" /><text class="lab" transform="translate(0 11)">2</text></g><path class="edge" d="M 0 0 V -10.258 H 11.5" /><circle class="sym" cx="0" cy="0" r="3" /><text class="lab lft" transform="translate(-3 -7.0)">28</text></g><path class="edge" d="M 0 0 V -5.96259 H 0.0" /><circle class="sym" cx="0" cy="0" r="3" /><text class="lab lft" transform="translate(-3 -7.0)">30</text></g><path class="edge" d="M 0 0 V -18.641 H -24.9167" /><circle class="sym" cx="0" cy="0" r="3" /><text class="lab rgt" transform="translate(3 -7.0)">31</text></g><g class="a33 c2 node n32 p0" transform="translate(-24.9167 8.20519)"><g class="a32 c2 node n23 p0" transform="translate(-23 50.4956)"><g class="a23 c2 node n19 p0" transform="translate(-23 13.7061)"><g class="a19 c2 node n12 p0" transform="translate(15.3333 15.0596)"><g class="a12 leaf node n9 p0 sample" transform="translate(7.66667 7.1335)"><path class="edge" d="M 0 0 V -7.1335 H -7.66667" /><rect class="sym" height="6" width="6" x="-3" y="-3" /><text class="lab" transform="translate(0 11)">9</text></g><g class="a12 c1 node n10 p0" transform="translate(-7.66667 6.13523)"><g class="a10 leaf node n7 p0 sample" transform="translate(0.0 0.998268)"><path class="edge" d="M 0 0 V -0.998268 H 0.0" /><rect class="sym" height="6" width="6" x="-3" y="-3" /><text class="lab" transform="translate(0 11)">7</text></g><path class="edge" d="M 0 0 V -6.13523 H 7.66667" /><circle class="sym" cx="0" cy="0" r="3" /><text class="lab lft" transform="translate(-3 -7.0)">10</text></g><path class="edge" d="M 0 0 V -15.0596 H -15.3333" /><circle class="sym" cx="0" cy="0" r="3" /><text class="lab rgt" transform="translate(3 -7.0)">12</text></g><g class="a19 c2 node n16 p0" transform="translate(-15.3333 9.15419)"><g class="a16 leaf node n0 p0 sample" transform="translate(-7.66667 13.039)"><path class="edge" d="M 0 0 V -13.039 H 7.66667" /><rect class="sym" height="6" width="6" x="-3" y="-3" /><text class="lab" transform="translate(0 11)">0</text></g><g class="a16 c1 node n13 p0" transform="translate(7.66667 4.32044)"><g class="a13 leaf node n6 p0 sample" transform="translate(0.0 8.71851)"><path class="edge" d="M 0 0 V -8.71851 H 0.0" /><rect class="sym" height="6" width="6" x="-3" y="-3" /><text class="lab" transform="translate(0 11)">6</text></g><path class="edge" d="M 0 0 V -4.32044 H -7.66667" /><circle class="sym" cx="0" cy="0" r="3" /><text class="lab rgt" transform="translate(3 -7.0)">13</text></g><path class="edge" d="M 0 0 V -9.15419 H 15.3333" /><circle class="sym" cx="0" cy="0" r="3" /><text class="lab lft" transform="translate(-3 -7.0)">16</text></g><path class="edge" d="M 0 0 V -13.7061 H 23" /><circle class="sym" cx="0" cy="0" r="3" /><text class="lab lft" transform="translate(-3 -7.0)">19</text></g><g class="a23 c1 node n21 p0" transform="translate(23 4.61383)"><g class="a21 c1 node n20 p0" transform="translate(0.0 2.49269)"><g class="a20 c2 node n17 p0" transform="translate(0.0 15.7467)"><g class="a17 leaf node n1 p0 sample" transform="translate(-7.66667 13.046)"><path class="edge" d="M 0 0 V -13.046 H 7.66667" /><rect class="sym" height="6" width="6" x="-3" y="-3" /><text class="lab" transform="translate(0 11)">1</text></g><g class="a17 leaf node n3 p0 sample" transform="translate(7.66667 13.046)"><path class="edge" d="M 0 0 V -13.046 H -7.66667" /><rect class="sym" height="6" width="6" x="-3" y="-3" /><text class="lab" transform="translate(0 11)">3</text></g><path class="edge" d="M 0 0 V -15.7467 H 0.0" /><circle class="sym" cx="0" cy="0" r="3" /><text class="lab lft" transform="translate(-3 -7.0)">17</text></g><path class="edge" d="M 0 0 V -2.49269 H 0.0" /><circle class="sym" cx="0" cy="0" r="3" /><text class="lab lft" transform="translate(-3 -7.0)">20</text></g><path class="edge" d="M 0 0 V -4.61383 H -23" /><circle class="sym" cx="0" cy="0" r="3" /><text class="lab rgt" transform="translate(3 -7.0)">21</text></g><path class="edge" d="M 0 0 V -50.4956 H 23" /><circle class="sym" cx="0" cy="0" r="3" /><text class="lab lft" transform="translate(-3 -7.0)">23</text></g><g class="a32 c1 node n29 p0" transform="translate(23 19.675)"><g class="a29 c1 node n14 p0" transform="translate(0.0 54.0312)"><g class="a14 leaf node n8 p0 sample" transform="translate(0.0 12.6885)"><path class="edge" d="M 0 0 V -12.6885 H 0.0" /><rect class="sym" height="6" width="6" x="-3" y="-3" /><text class="lab" transform="translate(0 11)">8</text></g><path class="edge" d="M 0 0 V -54.0312 H 0.0" /><circle class="sym" cx="0" cy="0" r="3" /><text class="lab lft" transform="translate(-3 -7.0)">14</text></g><path class="edge" d="M 0 0 V -19.675 H -23" /><circle class="sym" cx="0" cy="0" r="3" /><text class="lab rgt" transform="translate(3 -7.0)">29</text></g><path class="edge" d="M 0 0 V -8.20519 H 24.9167" /><circle class="sym" cx="0" cy="0" r="3" /><text class="lab lft" transform="translate(-3 -7.0)">32</text></g><circle class="sym" cx="0" cy="0" r="3" /><text class="lab" transform="translate(0 -11)">33</text></g></g></g><g class="tree t1" transform="translate(213.333 0)"><g class="plotbox"><g class="c2 node n33 p0 root" transform="translate(99.5417 26.8)"><g class="a33 c2 node n31 p0" transform="translate(29.7083 18.641)"><g class="a31 c2 node n30 p0" transform="translate(17.25 5.96259)"><g class="a30 c1 node n26 p0" transform="translate(11.5 13.8321)"><g class="a26 c2 node n18 p0" transform="translate(0.0 39.1257)"><g class="a18 leaf node n4 p0 sample" transform="translate(-7.66667 17.0386)"><path class="edge" d="M 0 0 V -17.0386 H 7.66667" /><rect class="sym" height="6" width="6" x="-3" y="-3" /><text class="lab" transform="translate(0 11)">4</text></g><g class="a18 leaf node n5 p0 sample" transform="translate(7.66667 17.0386)"><path class="edge" d="M 0 0 V -17.0386 H -7.66667" /><rect class="sym" height="6" width="6" x="-3" y="-3" /><text class="lab" transform="translate(0 11)">5</text></g><path class="edge" d="M 0 0 V -39.1257 H 0.0" /><circle class="sym" cx="0" cy="0" r="3" /><text class="lab lft" transform="translate(-3 -7.0)">18</text></g><path class="edge" d="M 0 0 V -13.8321 H -11.5" /><circle class="sym" cx="0" cy="0" r="3" /><text class="lab rgt" transform="translate(3 -7.0)">26</text></g><g class="a30 c1 node n28 p0" transform="translate(-11.5 10.258)"><g class="a28 leaf node n2 p0 sample" transform="translate(0.0 59.7384)"><path class="edge" d="M 0 0 V -59.7384 H 0.0" /><rect class="sym" height="6" width="6" x="-3" y="-3" /><text class="lab" transform="translate(0 11)">2</text></g><path class="edge" d="M 0 0 V -10.258 H 11.5" /><circle class="sym" cx="0" cy="0" r="3" /><text class="lab lft" transform="translate(-3 -7.0)">28</text></g><path class="edge" d="M 0 0 V -5.96259 H -17.25" /><circle class="sym" cx="0" cy="0" r="3" /><text class="lab rgt" transform="translate(3 -7.0)">30</text></g><g class="a31 c1 node n24 p0" transform="translate(-17.25 23.3722)"><g class="a24 c1 node n22 p0" transform="translate(0.0 21.3014)"><g class="a22 c1 node n20 p0" transform="translate(0.0 2.49269)"><g class="a20 c2 node n17 p0" transform="translate(0.0 15.7467)"><g class="a17 leaf node n1 p0 sample" transform="translate(-7.66667 13.046)"><path class="edge" d="M 0 0 V -13.046 H 7.66667" /><rect class="sym" height="6" width="6" x="-3" y="-3" /><text class="lab" transform="translate(0 11)">1</text></g><g class="a17 leaf node n3 p0 sample" transform="translate(7.66667 13.046)"><path class="edge" d="M 0 0 V -13.046 H -7.66667" /><rect class="sym" height="6" width="6" x="-3" y="-3" /><text class="lab" transform="translate(0 11)">3</text></g><path class="edge" d="M 0 0 V -15.7467 H 0.0" /><circle class="sym" cx="0" cy="0" r="3" /><text class="lab lft" transform="translate(-3 -7.0)">17</text></g><path class="edge" d="M 0 0 V -2.49269 H 0.0" /><circle class="sym" cx="0" cy="0" r="3" /><text class="lab lft" transform="translate(-3 -7.0)">20</text></g><path class="edge" d="M 0 0 V -21.3014 H 0.0" /><circle class="sym" cx="0" cy="0" r="3" /><text class="lab lft" transform="translate(-3 -7.0)">22</text></g><path class="edge" d="M 0 0 V -23.3722 H 17.25" /><circle class="sym" cx="0" cy="0" r="3" /><text class="lab lft" transform="translate(-3 -7.0)">24</text></g><path class="edge" d="M 0 0 V -18.641 H -29.7083" /><circle class="sym" cx="0" cy="0" r="3" /><text class="lab rgt" transform="translate(3 -7.0)">31</text></g><g class="a33 c2 node n32 p0" transform="translate(-29.7083 8.20519)"><g class="a32 c1 node n23 p0" transform="translate(-19.1667 50.4956)"><g class="a23 c2 node n19 p0" transform="translate(0.0 13.7061)"><g class="a19 c2 node n12 p0" transform="translate(15.3333 15.0596)"><g class="a12 leaf node n9 p0 sample" transform="translate(7.66667 7.1335)"><path class="edge" d="M 0 0 V -7.1335 H -7.66667" /><rect class="sym" height="6" width="6" x="-3" y="-3" /><text class="lab" transform="translate(0 11)">9</text></g><g class="a12 c1 node n10 p0" transform="translate(-7.66667 6.13523)"><g class="a10 leaf node n7 p0 sample" transform="translate(0.0 0.998268)"><path class="edge" d="M 0 0 V -0.998268 H 0.0" /><rect class="sym" height="6" width="6" x="-3" y="-3" /><text class="lab" transform="translate(0 11)">7</text></g><path class="edge" d="M 0 0 V -6.13523 H 7.66667" /><circle class="sym" cx="0" cy="0" r="3" /><text class="lab lft" transform="translate(-3 -7.0)">10</text></g><path class="edge" d="M 0 0 V -15.0596 H -15.3333" /><circle class="sym" cx="0" cy="0" r="3" /><text class="lab rgt" transform="translate(3 -7.0)">12</text></g><g class="a19 c2 node n16 p0" transform="translate(-15.3333 9.15419)"><g class="a16 leaf node n0 p0 sample" transform="translate(-7.66667 13.039)"><path class="edge" d="M 0 0 V -13.039 H 7.66667" /><rect class="sym" height="6" width="6" x="-3" y="-3" /><text class="lab" transform="translate(0 11)">0</text></g><g class="a16 c1 node n13 p0" transform="translate(7.66667 4.32044)"><g class="a13 leaf node n6 p0 sample" transform="translate(0.0 8.71851)"><path class="edge" d="M 0 0 V -8.71851 H 0.0" /><rect class="sym" height="6" width="6" x="-3" y="-3" /><text class="lab" transform="translate(0 11)">6</text></g><path class="edge" d="M 0 0 V -4.32044 H -7.66667" /><circle class="sym" cx="0" cy="0" r="3" /><text class="lab rgt" transform="translate(3 -7.0)">13</text></g><path class="edge" d="M 0 0 V -9.15419 H 15.3333" /><circle class="sym" cx="0" cy="0" r="3" /><text class="lab lft" transform="translate(-3 -7.0)">16</text></g><path class="edge" d="M 0 0 V -13.7061 H 0.0" /><circle class="sym" cx="0" cy="0" r="3" /><text class="lab lft" transform="translate(-3 -7.0)">19</text></g><path class="edge" d="M 0 0 V -50.4956 H 19.1667" /><circle class="sym" cx="0" cy="0" r="3" /><text class="lab lft" transform="translate(-3 -7.0)">23</text></g><g class="a32 c1 node n29 p0" transform="translate(19.1667 19.675)"><g class="a29 c1 node n14 p0" transform="translate(0.0 54.0312)"><g class="a14 leaf node n8 p0 sample" transform="translate(0.0 12.6885)"><path class="edge" d="M 0 0 V -12.6885 H 0.0" /><rect class="sym" height="6" width="6" x="-3" y="-3" /><text class="lab" transform="translate(0 11)">8</text></g><path class="edge" d="M 0 0 V -54.0312 H 0.0" /><circle class="sym" cx="0" cy="0" r="3" /><text class="lab lft" transform="translate(-3 -7.0)">14</text></g><path class="edge" d="M 0 0 V -19.675 H -19.1667" /><circle class="sym" cx="0" cy="0" r="3" /><text class="lab rgt" transform="translate(3 -7.0)">29</text></g><path class="edge" d="M 0 0 V -8.20519 H 29.7083" /><circle class="sym" cx="0" cy="0" r="3" /><text class="lab lft" transform="translate(-3 -7.0)">32</text></g><circle class="sym" cx="0" cy="0" r="3" /><text class="lab" transform="translate(0 -11)">33</text></g></g></g><g class="tree t2" transform="translate(406.667 0)"><g class="plotbox"><g class="c2 node n33 p0 root" transform="translate(89 26.8)"><g class="a33 c2 node n31 p0" transform="translate(38.3333 18.641)"><g class="a31 c2 node n30 p0" transform="translate(19.1667 5.96259)"><g class="a30 c1 node n26 p0" transform="translate(11.5 13.8321)"><g class="a26 c2 node n18 p0" transform="translate(0.0 39.1257)"><g class="a18 leaf node n4 p0 sample" transform="translate(-7.66667 17.0386)"><path class="edge" d="M 0 0 V -17.0386 H 7.66667" /><rect class="sym" height="6" width="6" x="-3" y="-3" /><text class="lab" transform="translate(0 11)">4</text></g><g class="a18 leaf node n5 p0 sample" transform="translate(7.66667 17.0386)"><path class="edge" d="M 0 0 V -17.0386 H -7.66667" /><rect class="sym" height="6" width="6" x="-3" y="-3" /><text class="lab" transform="translate(0 11)">5</text></g><path class="edge" d="M 0 0 V -39.1257 H 0.0" /><circle class="sym" cx="0" cy="0" r="3" /><text class="lab lft" transform="translate(-3 -7.0)">18</text></g><path class="edge" d="M 0 0 V -13.8321 H -11.5" /><circle class="sym" cx="0" cy="0" r="3" /><text class="lab rgt" transform="translate(3 -7.0)">26</text></g><g class="a30 c1 node n28 p0" transform="translate(-11.5 10.258)"><g class="a28 leaf node n2 p0 sample" transform="translate(0.0 59.7384)"><path class="edge" d="M 0 0 V -59.7384 H 0.0" /><rect class="sym" height="6" width="6" x="-3" y="-3" /><text class="lab" transform="translate(0 11)">2</text></g><path class="edge" d="M 0 0 V -10.258 H 11.5" /><circle class="sym" cx="0" cy="0" r="3" /><text class="lab lft" transform="translate(-3 -7.0)">28</text></g><path class="edge" d="M 0 0 V -5.96259 H -19.1667" /><circle class="sym" cx="0" cy="0" r="3" /><text class="lab rgt" transform="translate(3 -7.0)">30</text></g><g class="a31 c1 node n24 p0" transform="translate(-19.1667 23.3722)"><g class="a24 c1 node n22 p0" transform="translate(0.0 21.3014)"><g class="a22 c2 node n20 p0" transform="translate(0.0 2.49269)"><g class="a20 c2 node n17 p0" transform="translate(-11.5 15.7467)"><g class="a17 leaf node n1 p0 sample" transform="translate(-7.66667 13.046)"><path class="edge" d="M 0 0 V -13.046 H 7.66667" /><rect class="sym" height="6" width="6" x="-3" y="-3" /><text class="lab" transform="translate(0 11)">1</text></g><g class="a17 leaf node n3 p0 sample" transform="translate(7.66667 13.046)"><path class="edge" d="M 0 0 V -13.046 H -7.66667" /><rect class="sym" height="6" width="6" x="-3" y="-3" /><text class="lab" transform="translate(0 11)">3</text></g><path class="edge" d="M 0 0 V -15.7467 H 11.5" /><circle class="sym" cx="0" cy="0" r="3" /><text class="lab lft" transform="translate(-3 -7.0)">17</text></g><g class="a20 c1 node n15 p0" transform="translate(11.5 16.1042)"><g class="a15 leaf node n8 p0 sample" transform="translate(0.0 12.6885)"><path class="edge" d="M 0 0 V -12.6885 H 0.0" /><rect class="sym" height="6" width="6" x="-3" y="-3" /><text class="lab" transform="translate(0 11)">8</text></g><path class="edge" d="M 0 0 V -16.1042 H -11.5" /><circle class="sym" cx="0" cy="0" r="3" /><text class="lab rgt" transform="translate(3 -7.0)">15</text></g><path class="edge" d="M 0 0 V -2.49269 H 0.0" /><circle class="sym" cx="0" cy="0" r="3" /><text class="lab lft" transform="translate(-3 -7.0)">20</text></g><path class="edge" d="M 0 0 V -21.3014 H 0.0" /><circle class="sym" cx="0" cy="0" r="3" /><text class="lab lft" transform="translate(-3 -7.0)">22</text></g><path class="edge" d="M 0 0 V -23.3722 H 19.1667" /><circle class="sym" cx="0" cy="0" r="3" /><text class="lab lft" transform="translate(-3 -7.0)">24</text></g><path class="edge" d="M 0 0 V -18.641 H -38.3333" /><circle class="sym" cx="0" cy="0" r="3" /><text class="lab rgt" transform="translate(3 -7.0)">31</text></g><g class="a33 c1 node n32 p0" transform="translate(-38.3333 8.20519)"><g class="a32 c1 node n23 p0" transform="translate(0.0 50.4956)"><g class="a23 c2 node n19 p0" transform="translate(0.0 13.7061)"><g class="a19 c2 node n12 p0" transform="translate(15.3333 15.0596)"><g class="a12 leaf node n9 p0 sample" transform="translate(7.66667 7.1335)"><path class="edge" d="M 0 0 V -7.1335 H -7.66667" /><rect class="sym" height="6" width="6" x="-3" y="-3" /><text class="lab" transform="translate(0 11)">9</text></g><g class="a12 c1 node n10 p0" transform="translate(-7.66667 6.13523)"><g class="a10 leaf node n7 p0 sample" transform="translate(0.0 0.998268)"><path class="edge" d="M 0 0 V -0.998268 H 0.0" /><rect class="sym" height="6" width="6" x="-3" y="-3" /><text class="lab" transform="translate(0 11)">7</text></g><path class="edge" d="M 0 0 V -6.13523 H 7.66667" /><circle class="sym" cx="0" cy="0" r="3" /><text class="lab lft" transform="translate(-3 -7.0)">10</text></g><path class="edge" d="M 0 0 V -15.0596 H -15.3333" /><circle class="sym" cx="0" cy="0" r="3" /><text class="lab rgt" transform="translate(3 -7.0)">12</text></g><g class="a19 c2 node n16 p0" transform="translate(-15.3333 9.15419)"><g class="a16 leaf node n0 p0 sample" transform="translate(-7.66667 13.039)"><path class="edge" d="M 0 0 V -13.039 H 7.66667" /><rect class="sym" height="6" width="6" x="-3" y="-3" /><text class="lab" transform="translate(0 11)">0</text></g><g class="a16 c1 node n13 p0" transform="translate(7.66667 4.32044)"><g class="a13 leaf node n6 p0 sample" transform="translate(0.0 8.71851)"><path class="edge" d="M 0 0 V -8.71851 H 0.0" /><rect class="sym" height="6" width="6" x="-3" y="-3" /><text class="lab" transform="translate(0 11)">6</text></g><path class="edge" d="M 0 0 V -4.32044 H -7.66667" /><circle class="sym" cx="0" cy="0" r="3" /><text class="lab rgt" transform="translate(3 -7.0)">13</text></g><path class="edge" d="M 0 0 V -9.15419 H 15.3333" /><circle class="sym" cx="0" cy="0" r="3" /><text class="lab lft" transform="translate(-3 -7.0)">16</text></g><path class="edge" d="M 0 0 V -13.7061 H 0.0" /><circle class="sym" cx="0" cy="0" r="3" /><text class="lab lft" transform="translate(-3 -7.0)">19</text></g><path class="edge" d="M 0 0 V -50.4956 H 0.0" /><circle class="sym" cx="0" cy="0" r="3" /><text class="lab lft" transform="translate(-3 -7.0)">23</text></g><path class="edge" d="M 0 0 V -8.20519 H 38.3333" /><circle class="sym" cx="0" cy="0" r="3" /><text class="lab lft" transform="translate(-3 -7.0)">32</text></g><circle class="sym" cx="0" cy="0" r="3" /><text class="lab" transform="translate(0 -11)">33</text></g></g></g><g class="tree t3" transform="translate(600 0)"><g class="plotbox"><g class="c2 node n33 p0 root" transform="translate(112.958 26.8)"><g class="a33 c2 node n31 p0" transform="translate(39.2917 18.641)"><g class="a31 c1 node n30 p0" transform="translate(13.4167 5.96259)"><g class="a30 c1 node n28 p0" transform="translate(0.0 10.258)"><g class="a28 leaf node n2 p0 sample" transform="translate(0.0 59.7384)"><path class="edge" d="M 0 0 V -59.7384 H 0.0" /><rect class="sym" height="6" width="6" x="-3" y="-3" /><text class="lab" transform="translate(0 11)">2</text></g><path class="edge" d="M 0 0 V -10.258 H 0.0" /><circle class="sym" cx="0" cy="0" r="3" /><text class="lab lft" transform="translate(-3 -7.0)">28</text></g><path class="edge" d="M 0 0 V -5.96259 H -13.4167" /><circle class="sym" cx="0" cy="0" r="3" /><text class="lab rgt" transform="translate(3 -7.0)">30</text></g><g class="a31 c1 node n24 p0" transform="translate(-13.4167 23.3722)"><g class="a24 c1 node n22 p0" transform="translate(0.0 21.3014)"><g class="a22 c2 node n20 p0" transform="translate(0.0 2.49269)"><g class="a20 c2 node n17 p0" transform="translate(-11.5 15.7467)"><g class="a17 leaf node n1 p0 sample" transform="translate(-7.66667 13.046)"><path class="edge" d="M 0 0 V -13.046 H 7.66667" /><rect class="sym" height="6" width="6" x="-3" y="-3" /><text class="lab" transform="translate(0 11)">1</text></g><g class="a17 leaf node n3 p0 sample" transform="translate(7.66667 13.046)"><path class="edge" d="M 0 0 V -13.046 H -7.66667" /><rect class="sym" height="6" width="6" x="-3" y="-3" /><text class="lab" transform="translate(0 11)">3</text></g><path class="edge" d="M 0 0 V -15.7467 H 11.5" /><circle class="sym" cx="0" cy="0" r="3" /><text class="lab lft" transform="translate(-3 -7.0)">17</text></g><g class="a20 c1 node n15 p0" transform="translate(11.5 16.1042)"><g class="a15 leaf node n8 p0 sample" transform="translate(0.0 12.6885)"><path class="edge" d="M 0 0 V -12.6885 H 0.0" /><rect class="sym" height="6" width="6" x="-3" y="-3" /><text class="lab" transform="translate(0 11)">8</text></g><path class="edge" d="M 0 0 V -16.1042 H -11.5" /><circle class="sym" cx="0" cy="0" r="3" /><text class="lab rgt" transform="translate(3 -7.0)">15</text></g><path class="edge" d="M 0 0 V -2.49269 H 0.0" /><circle class="sym" cx="0" cy="0" r="3" /><text class="lab lft" transform="translate(-3 -7.0)">20</text></g><path class="edge" d="M 0 0 V -21.3014 H 0.0" /><circle class="sym" cx="0" cy="0" r="3" /><text class="lab lft" transform="translate(-3 -7.0)">22</text></g><path class="edge" d="M 0 0 V -23.3722 H 13.4167" /><circle class="sym" cx="0" cy="0" r="3" /><text class="lab lft" transform="translate(-3 -7.0)">24</text></g><path class="edge" d="M 0 0 V -18.641 H -39.2917" /><circle class="sym" cx="0" cy="0" r="3" /><text class="lab rgt" transform="translate(3 -7.0)">31</text></g><g class="a33 c2 node n32 p0" transform="translate(-39.2917 8.20519)"><g class="a32 c1 node n23 p0" transform="translate(-23 50.4956)"><g class="a23 c2 node n19 p0" transform="translate(0.0 13.7061)"><g class="a19 c2 node n12 p0" transform="translate(15.3333 15.0596)"><g class="a12 leaf node n9 p0 sample" transform="translate(7.66667 7.1335)"><path class="edge" d="M 0 0 V -7.1335 H -7.66667" /><rect class="sym" height="6" width="6" x="-3" y="-3" /><text class="lab" transform="translate(0 11)">9</text></g><g class="a12 c1 node n10 p0" transform="translate(-7.66667 6.13523)"><g class="a10 leaf node n7 p0 sample" transform="translate(0.0 0.998268)"><path class="edge" d="M 0 0 V -0.998268 H 0.0" /><rect class="sym" height="6" width="6" x="-3" y="-3" /><text class="lab" transform="translate(0 11)">7</text></g><path class="edge" d="M 0 0 V -6.13523 H 7.66667" /><circle class="sym" cx="0" cy="0" r="3" /><text class="lab lft" transform="translate(-3 -7.0)">10</text></g><path class="edge" d="M 0 0 V -15.0596 H -15.3333" /><circle class="sym" cx="0" cy="0" r="3" /><text class="lab rgt" transform="translate(3 -7.0)">12</text></g><g class="a19 c2 node n16 p0" transform="translate(-15.3333 9.15419)"><g class="a16 leaf node n0 p0 sample" transform="translate(-7.66667 13.039)"><path class="edge" d="M 0 0 V -13.039 H 7.66667" /><rect class="sym" height="6" width="6" x="-3" y="-3" /><text class="lab" transform="translate(0 11)">0</text></g><g class="a16 c1 node n13 p0" transform="translate(7.66667 4.32044)"><g class="a13 leaf node n6 p0 sample" transform="translate(0.0 8.71851)"><path class="edge" d="M 0 0 V -8.71851 H 0.0" /><rect class="sym" height="6" width="6" x="-3" y="-3" /><text class="lab" transform="translate(0 11)">6</text></g><path class="edge" d="M 0 0 V -4.32044 H -7.66667" /><circle class="sym" cx="0" cy="0" r="3" /><text class="lab rgt" transform="translate(3 -7.0)">13</text></g><path class="edge" d="M 0 0 V -9.15419 H 15.3333" /><circle class="sym" cx="0" cy="0" r="3" /><text class="lab lft" transform="translate(-3 -7.0)">16</text></g><path class="edge" d="M 0 0 V -13.7061 H 0.0" /><circle class="sym" cx="0" cy="0" r="3" /><text class="lab lft" transform="translate(-3 -7.0)">19</text></g><path class="edge" d="M 0 0 V -50.4956 H 23" /><circle class="sym" cx="0" cy="0" r="3" /><text class="lab lft" transform="translate(-3 -7.0)">23</text></g><g class="a32 c1 node n29 p0" transform="translate(23 19.675)"><g class="a29 c1 node n27 p0" transform="translate(0.0 10.5555)"><g class="a27 c2 node n18 p0" transform="translate(0.0 39.1257)"><g class="a18 leaf node n4 p0 sample" transform="translate(-7.66667 17.0386)"><path class="edge" d="M 0 0 V -17.0386 H 7.66667" /><rect class="sym" height="6" width="6" x="-3" y="-3" /><text class="lab" transform="translate(0 11)">4</text></g><g class="a18 leaf node n5 p0 sample" transform="translate(7.66667 17.0386)"><path class="edge" d="M 0 0 V -17.0386 H -7.66667" /><rect class="sym" height="6" width="6" x="-3" y="-3" /><text class="lab" transform="translate(0 11)">5</text></g><path class="edge" d="M 0 0 V -39.1257 H 0.0" /><circle class="sym" cx="0" cy="0" r="3" /><text class="lab lft" transform="translate(-3 -7.0)">18</text></g><path class="edge" d="M 0 0 V -10.5555 H 0.0" /><circle class="sym" cx="0" cy="0" r="3" /><text class="lab lft" transform="translate(-3 -7.0)">27</text></g><path class="edge" d="M 0 0 V -19.675 H -23" /><circle class="sym" cx="0" cy="0" r="3" /><text class="lab rgt" transform="translate(3 -7.0)">29</text></g><path class="edge" d="M 0 0 V -8.20519 H 39.2917" /><circle class="sym" cx="0" cy="0" r="3" /><text class="lab lft" transform="translate(-3 -7.0)">32</text></g><circle class="sym" cx="0" cy="0" r="3" /><text class="lab" transform="translate(0 -11)">33</text></g></g></g><g class="tree t4" transform="translate(793.333 0)"><g class="plotbox"><g class="c2 node n33 p0 root" transform="translate(112.958 26.8)"><g class="a33 c1 node n31 p0" transform="translate(39.2917 18.641)"><g class="a31 c1 node n30 p0" transform="translate(0.0 5.96259)"><g class="a30 c2 node n28 p0" transform="translate(0.0 10.258)"><g class="a28 leaf node n2 p0 sample" transform="translate(13.4167 59.7384)"><path class="edge" d="M 0 0 V -59.7384 H -13.4167" /><rect class="sym" height="6" width="6" x="-3" y="-3" /><text class="lab" transform="translate(0 11)">2</text></g><g class="a28 c1 node n25 p0" transform="translate(-13.4167 7.15163)"><g class="a25 c1 node n22 p0" transform="translate(0.0 21.3014)"><g class="a22 c2 node n20 p0" transform="translate(0.0 2.49269)"><g class="a20 c2 node n17 p0" transform="translate(-11.5 15.7467)"><g class="a17 leaf node n1 p0 sample" transform="translate(-7.66667 13.046)"><path class="edge" d="M 0 0 V -13.046 H 7.66667" /><rect class="sym" height="6" width="6" x="-3" y="-3" /><text class="lab" transform="translate(0 11)">1</text></g><g class="a17 leaf node n3 p0 sample" transform="translate(7.66667 13.046)"><path class="edge" d="M 0 0 V -13.046 H -7.66667" /><rect class="sym" height="6" width="6" x="-3" y="-3" /><text class="lab" transform="translate(0 11)">3</text></g><path class="edge" d="M 0 0 V -15.7467 H 11.5" /><circle class="sym" cx="0" cy="0" r="3" /><text class="lab lft" transform="translate(-3 -7.0)">17</text></g><g class="a20 c1 node n15 p0" transform="translate(11.5 16.1042)"><g class="a15 leaf node n8 p0 sample" transform="translate(0.0 12.6885)"><path class="edge" d="M 0 0 V -12.6885 H 0.0" /><rect class="sym" height="6" width="6" x="-3" y="-3" /><text class="lab" transform="translate(0 11)">8</text></g><path class="edge" d="M 0 0 V -16.1042 H -11.5" /><circle class="sym" cx="0" cy="0" r="3" /><text class="lab rgt" transform="translate(3 -7.0)">15</text></g><path class="edge" d="M 0 0 V -2.49269 H 0.0" /><circle class="sym" cx="0" cy="0" r="3" /><text class="lab lft" transform="translate(-3 -7.0)">20</text></g><path class="edge" d="M 0 0 V -21.3014 H 0.0" /><circle class="sym" cx="0" cy="0" r="3" /><text class="lab lft" transform="translate(-3 -7.0)">22</text></g><path class="edge" d="M 0 0 V -7.15163 H 13.4167" /><circle class="sym" cx="0" cy="0" r="3" /><text class="lab lft" transform="translate(-3 -7.0)">25</text></g><path class="edge" d="M 0 0 V -10.258 H 0.0" /><circle class="sym" cx="0" cy="0" r="3" /><text class="lab lft" transform="translate(-3 -7.0)">28</text></g><path class="edge" d="M 0 0 V -5.96259 H 0.0" /><circle class="sym" cx="0" cy="0" r="3" /><text class="lab lft" transform="translate(-3 -7.0)">30</text></g><path class="edge" d="M 0 0 V -18.641 H -39.2917" /><circle class="sym" cx="0" cy="0" r="3" /><text class="lab rgt" transform="translate(3 -7.0)">31</text></g><g class="a33 c2 node n32 p0" transform="translate(-39.2917 8.20519)"><g class="a32 c1 node n23 p0" transform="translate(-23 50.4956)"><g class="a23 c2 node n19 p0" transform="translate(0.0 13.7061)"><g class="a19 c2 node n12 p0" transform="translate(15.3333 15.0596)"><g class="a12 leaf node n9 p0 sample" transform="translate(7.66667 7.1335)"><path class="edge" d="M 0 0 V -7.1335 H -7.66667" /><rect class="sym" height="6" width="6" x="-3" y="-3" /><text class="lab" transform="translate(0 11)">9</text></g><g class="a12 c1 node n10 p0" transform="translate(-7.66667 6.13523)"><g class="a10 leaf node n7 p0 sample" transform="translate(0.0 0.998268)"><path class="edge" d="M 0 0 V -0.998268 H 0.0" /><rect class="sym" height="6" width="6" x="-3" y="-3" /><text class="lab" transform="translate(0 11)">7</text></g><path class="edge" d="M 0 0 V -6.13523 H 7.66667" /><circle class="sym" cx="0" cy="0" r="3" /><text class="lab lft" transform="translate(-3 -7.0)">10</text></g><path class="edge" d="M 0 0 V -15.0596 H -15.3333" /><circle class="sym" cx="0" cy="0" r="3" /><text class="lab rgt" transform="translate(3 -7.0)">12</text></g><g class="a19 c2 node n16 p0" transform="translate(-15.3333 9.15419)"><g class="a16 leaf node n0 p0 sample" transform="translate(-7.66667 13.039)"><path class="edge" d="M 0 0 V -13.039 H 7.66667" /><rect class="sym" height="6" width="6" x="-3" y="-3" /><text class="lab" transform="translate(0 11)">0</text></g><g class="a16 c1 node n13 p0" transform="translate(7.66667 4.32044)"><g class="a13 leaf node n6 p0 sample" transform="translate(0.0 8.71851)"><path class="edge" d="M 0 0 V -8.71851 H 0.0" /><rect class="sym" height="6" width="6" x="-3" y="-3" /><text class="lab" transform="translate(0 11)">6</text></g><path class="edge" d="M 0 0 V -4.32044 H -7.66667" /><circle class="sym" cx="0" cy="0" r="3" /><text class="lab rgt" transform="translate(3 -7.0)">13</text></g><path class="edge" d="M 0 0 V -9.15419 H 15.3333" /><circle class="sym" cx="0" cy="0" r="3" /><text class="lab lft" transform="translate(-3 -7.0)">16</text></g><path class="edge" d="M 0 0 V -13.7061 H 0.0" /><circle class="sym" cx="0" cy="0" r="3" /><text class="lab lft" transform="translate(-3 -7.0)">19</text></g><path class="edge" d="M 0 0 V -50.4956 H 23" /><circle class="sym" cx="0" cy="0" r="3" /><text class="lab lft" transform="translate(-3 -7.0)">23</text></g><g class="a32 c1 node n29 p0" transform="translate(23 19.675)"><g class="a29 c1 node n27 p0" transform="translate(0.0 10.5555)"><g class="a27 c2 node n18 p0" transform="translate(0.0 39.1257)"><g class="a18 leaf node n4 p0 sample" transform="translate(-7.66667 17.0386)"><path class="edge" d="M 0 0 V -17.0386 H 7.66667" /><rect class="sym" height="6" width="6" x="-3" y="-3" /><text class="lab" transform="translate(0 11)">4</text></g><g class="a18 leaf node n5 p0 sample" transform="translate(7.66667 17.0386)"><path class="edge" d="M 0 0 V -17.0386 H -7.66667" /><rect class="sym" height="6" width="6" x="-3" y="-3" /><text class="lab" transform="translate(0 11)">5</text></g><path class="edge" d="M 0 0 V -39.1257 H 0.0" /><circle class="sym" cx="0" cy="0" r="3" /><text class="lab lft" transform="translate(-3 -7.0)">18</text></g><path class="edge" d="M 0 0 V -10.5555 H 0.0" /><circle class="sym" cx="0" cy="0" r="3" /><text class="lab lft" transform="translate(-3 -7.0)">27</text></g><path class="edge" d="M 0 0 V -19.675 H -23" /><circle class="sym" cx="0" cy="0" r="3" /><text class="lab rgt" transform="translate(3 -7.0)">29</text></g><path class="edge" d="M 0 0 V -8.20519 H 39.2917" /><circle class="sym" cx="0" cy="0" r="3" /><text class="lab lft" transform="translate(-3 -7.0)">32</text></g><circle class="sym" cx="0" cy="0" r="3" /><text class="lab" transform="translate(0 -11)">33</text></g></g></g><g class="tree t5" transform="translate(986.667 0)"><g class="plotbox"><g class="c2 node n33 p0 root" transform="translate(114.396 26.8)"><g class="a33 c1 node n31 p0" transform="translate(37.8542 18.641)"><g class="a31 c1 node n30 p0" transform="translate(0.0 5.96259)"><g class="a30 c2 node n28 p0" transform="translate(0.0 10.258)"><g class="a28 leaf node n2 p0 sample" transform="translate(13.4167 59.7384)"><path class="edge" d="M 0 0 V -59.7384 H -13.4167" /><rect class="sym" height="6" width="6" x="-3" y="-3" /><text class="lab" transform="translate(0 11)">2</text></g><g class="a28 c1 node n25 p0" transform="translate(-13.4167 7.15163)"><g class="a25 c1 node n22 p0" transform="translate(0.0 21.3014)"><g class="a22 c2 node n20 p0" transform="translate(0.0 2.49269)"><g class="a20 c2 node n17 p0" transform="translate(-11.5 15.7467)"><g class="a17 leaf node n1 p0 sample" transform="translate(-7.66667 13.046)"><path class="edge" d="M 0 0 V -13.046 H 7.66667" /><rect class="sym" height="6" width="6" x="-3" y="-3" /><text class="lab" transform="translate(0 11)">1</text></g><g class="a17 leaf node n3 p0 sample" transform="translate(7.66667 13.046)"><path class="edge" d="M 0 0 V -13.046 H -7.66667" /><rect class="sym" height="6" width="6" x="-3" y="-3" /><text class="lab" transform="translate(0 11)">3</text></g><path class="edge" d="M 0 0 V -15.7467 H 11.5" /><circle class="sym" cx="0" cy="0" r="3" /><text class="lab lft" transform="translate(-3 -7.0)">17</text></g><g class="a20 c1 node n15 p0" transform="translate(11.5 16.1042)"><g class="a15 leaf node n8 p0 sample" transform="translate(0.0 12.6885)"><path class="edge" d="M 0 0 V -12.6885 H 0.0" /><rect class="sym" height="6" width="6" x="-3" y="-3" /><text class="lab" transform="translate(0 11)">8</text></g><path class="edge" d="M 0 0 V -16.1042 H -11.5" /><circle class="sym" cx="0" cy="0" r="3" /><text class="lab rgt" transform="translate(3 -7.0)">15</text></g><path class="edge" d="M 0 0 V -2.49269 H 0.0" /><circle class="sym" cx="0" cy="0" r="3" /><text class="lab lft" transform="translate(-3 -7.0)">20</text></g><path class="edge" d="M 0 0 V -21.3014 H 0.0" /><circle class="sym" cx="0" cy="0" r="3" /><text class="lab lft" transform="translate(-3 -7.0)">22</text></g><path class="edge" d="M 0 0 V -7.15163 H 13.4167" /><circle class="sym" cx="0" cy="0" r="3" /><text class="lab lft" transform="translate(-3 -7.0)">25</text></g><path class="edge" d="M 0 0 V -10.258 H 0.0" /><circle class="sym" cx="0" cy="0" r="3" /><text class="lab lft" transform="translate(-3 -7.0)">28</text></g><path class="edge" d="M 0 0 V -5.96259 H 0.0" /><circle class="sym" cx="0" cy="0" r="3" /><text class="lab lft" transform="translate(-3 -7.0)">30</text></g><path class="edge" d="M 0 0 V -18.641 H -37.8542" /><circle class="sym" cx="0" cy="0" r="3" /><text class="lab rgt" transform="translate(3 -7.0)">31</text></g><g class="a33 c2 node n32 p0" transform="translate(-37.8542 8.20519)"><g class="a32 c1 node n23 p0" transform="translate(-20.125 50.4956)"><g class="a23 c2 node n19 p0" transform="translate(0.0 13.7061)"><g class="a19 c1 node n12 p0" transform="translate(17.25 15.0596)"><g class="a12 leaf node n9 p0 sample" transform="translate(0.0 7.1335)"><path class="edge" d="M 0 0 V -7.1335 H 0.0" /><rect class="sym" height="6" width="6" x="-3" y="-3" /><text class="lab" transform="translate(0 11)">9</text></g><path class="edge" d="M 0 0 V -15.0596 H -17.25" /><circle class="sym" cx="0" cy="0" r="3" /><text class="lab rgt" transform="translate(3 -7.0)">12</text></g><g class="a19 c2 node n16 p0" transform="translate(-17.25 9.15419)"><g class="a16 leaf node n0 p0 sample" transform="translate(-11.5 13.039)"><path class="edge" d="M 0 0 V -13.039 H 11.5" /><rect class="sym" height="6" width="6" x="-3" y="-3" /><text class="lab" transform="translate(0 11)">0</text></g><g class="a16 c2 node n13 p0" transform="translate(11.5 4.32044)"><g class="a13 leaf node n6 p0 sample" transform="translate(-7.66667 8.71851)"><path class="edge" d="M 0 0 V -8.71851 H 7.66667" /><rect class="sym" height="6" width="6" x="-3" y="-3" /><text class="lab" transform="translate(0 11)">6</text></g><g class="a13 c1 node n11 p0" transform="translate(7.66667 7.72024)"><g class="a11 leaf node n7 p0 sample" transform="translate(0.0 0.998268)"><path class="edge" d="M 0 0 V -0.998268 H 0.0" /><rect class="sym" height="6" width="6" x="-3" y="-3" /><text class="lab" transform="translate(0 11)">7</text></g><path class="edge" d="M 0 0 V -7.72024 H -7.66667" /><circle class="sym" cx="0" cy="0" r="3" /><text class="lab rgt" transform="translate(3 -7.0)">11</text></g><path class="edge" d="M 0 0 V -4.32044 H -11.5" /><circle class="sym" cx="0" cy="0" r="3" /><text class="lab rgt" transform="translate(3 -7.0)">13</text></g><path class="edge" d="M 0 0 V -9.15419 H 17.25" /><circle class="sym" cx="0" cy="0" r="3" /><text class="lab lft" transform="translate(-3 -7.0)">16</text></g><path class="edge" d="M 0 0 V -13.7061 H 0.0" /><circle class="sym" cx="0" cy="0" r="3" /><text class="lab lft" transform="translate(-3 -7.0)">19</text></g><path class="edge" d="M 0 0 V -50.4956 H 20.125" /><circle class="sym" cx="0" cy="0" r="3" /><text class="lab lft" transform="translate(-3 -7.0)">23</text></g><g class="a32 c1 node n29 p0" transform="translate(20.125 19.675)"><g class="a29 c1 node n27 p0" transform="translate(0.0 10.5555)"><g class="a27 c2 node n18 p0" transform="translate(0.0 39.1257)"><g class="a18 leaf node n4 p0 sample" transform="translate(-7.66667 17.0386)"><path class="edge" d="M 0 0 V -17.0386 H 7.66667" /><rect class="sym" height="6" width="6" x="-3" y="-3" /><text class="lab" transform="translate(0 11)">4</text></g><g class="a18 leaf node n5 p0 sample" transform="translate(7.66667 17.0386)"><path class="edge" d="M 0 0 V -17.0386 H -7.66667" /><rect class="sym" height="6" width="6" x="-3" y="-3" /><text class="lab" transform="translate(0 11)">5</text></g><path class="edge" d="M 0 0 V -39.1257 H 0.0" /><circle class="sym" cx="0" cy="0" r="3" /><text class="lab lft" transform="translate(-3 -7.0)">18</text></g><path class="edge" d="M 0 0 V -10.5555 H 0.0" /><circle class="sym" cx="0" cy="0" r="3" /><text class="lab lft" transform="translate(-3 -7.0)">27</text></g><path class="edge" d="M 0 0 V -19.675 H -20.125" /><circle class="sym" cx="0" cy="0" r="3" /><text class="lab rgt" transform="translate(3 -7.0)">29</text></g><path class="edge" d="M 0 0 V -8.20519 H 37.8542" /><circle class="sym" cx="0" cy="0" r="3" /><text class="lab lft" transform="translate(-3 -7.0)">32</text></g><circle class="sym" cx="0" cy="0" r="3" /><text class="lab" transform="translate(0 -11)">33</text></g></g></g></g></g></svg>
