<svg baseProfile="full" height="200" version="1.1" width="600" xmlns="http://www.w3.org/2000/svg" xmlns:ev="http://www.w3.org/2001/xml-events" xmlns:xlink="http://www.w3.org/1999/xlink"><defs><style type="text/css"><![CDATA[.background path {fill: #808080; fill-opacity: 0}.background path:nth-child(odd) {fill-opacity: .1}.axes {font-size: 14px}.x-axis .tick .lab {font-weight: bold; dominant-baseline: hanging}.axes, .tree {font-size: 14px; text-anchor: middle}.axes line, .edge {stroke: black; fill: none}.y-axis .grid {stroke: #FAFAFA}.node > .sym {fill: black; stroke: none}.site > .sym {stroke: black}.mut text {fill: red; font-style: italic}.mut.extra text {fill: hotpink}.mut line {fill: none; stroke: none}.mut .sym {fill: none; stroke: red}.mut.extra .sym {stroke: hotpink}.node .mut .sym {stroke-width: 1.5px}.tree text, .tree-sequence text {dominant-baseline: central}.plotbox .lab.lft {text-anchor: end}.plotbox .lab.rgt {text-anchor: start}]]></style></defs><g class="tree-sequence"><g class="background"><path d="M20,0 l186.667,0 l0,138.2 l9.81364,25 l0,5 l-196.48,0 l0,-5 l0,-25 l0,-138.2z" /><path d="M206.667,0 l186.667,0 l0,138.2 l-52.65,25 l0,5 l-124.203,0 l0,-5 l-9.81364,-25 l0,-138.2z" /><path d="M393.333,0 l186.667,0 l0,138.2 l0,25 l0,5 l-239.317,0 l0,-5 l52.65,-25 l0,-138.2z" /></g><g class="axes"><g class="x-axis"><g transform="translate(300 200)"><text class="lab" text-anchor="middle" transform="translate(0 -11)">Genome position</text></g><line x1="20" x2="580" y1="163.2" y2="163.2" /><g class="ticks"><g class="tick" transform="translate(20 163.2)"><line x1="0" x2="0" y1="0" y2="5" /><g transform="translate(0 6)"><text class="lab">0.00</text></g></g><g class="tick" transform="translate(216.48 163.2)"><line x1="0" x2="0" y1="0" y2="5" /><g transform="translate(0 6)"><text class="lab">350.86</text></g></g><g class="tick" transform="translate(340.683 163.2)"><line x1="0" x2="0" y1="0" y2="5" /><g transform="translate(0 6)"><text class="lab">572.65</text></g></g><g class="tick" transform="translate(580 163.2)"><line x1="0" x2="0" y1="0" y2="5" /><g transform="translate(0 6)"><text class="lab">1000.00</text></g></g></g></g></g><g class="plotbox trees"><g class="tree t0" transform="translate(20 0)"><g class="plotbox"><g class="c2 node n24 p0 root" transform="translate(123.354 26.8)"><g class="a24 c2 node n22 p0" transform="translate(24.9792 71.5483)"><g class="a22 leaf node n9 p0 sample" transform="translate(11 23.0517)"><path class="edge" d="M 0 0 V -23.0517 H -11" /><rect class="sym" height="6" width="6" x="-3" y="-3" /><text class="lab" transform="translate(0 11)">9</text></g><g class="a22 c1 node n21 p0" transform="translate(-11 8.85554)"><g class="a21 c2 node n13 p0" transform="translate(0.0 10.9277)"><g class="a13 leaf node n3 p0 sample" transform="translate(-7.33333 3.26844)"><path class="edge" d="M 0 0 V -3.26844 H 7.33333" /><rect class="sym" height="6" width="6" x="-3" y="-3" /><text class="lab" transform="translate(0 11)">3</text></g><g class="a13 leaf node n7 p0 sample" transform="translate(7.33333 3.26844)"><path class="edge" d="M 0 0 V -3.26844 H -7.33333" /><rect class="sym" height="6" width="6" x="-3" y="-3" /><text class="lab" transform="translate(0 11)">7</text></g><path class="edge" d="M 0 0 V -10.9277 H 0.0" /><circle class="sym" cx="0" cy="0" r="3" /><text class="lab lft" transform="translate(-3 -7.0)">13</text></g><path class="edge" d="M 0 0 V -8.85554 H 11" /><circle class="sym" cx="0" cy="0" r="3" /><text class="lab lft" transform="translate(-3 -7.0)">21</text></g><path class="edge" d="M 0 0 V -71.5483 H -24.9792" /><circle class="sym" cx="0" cy="0" r="3" /><text class="lab rgt" transform="translate(3 -7.0)">22</text></g><g class="a24 c2 node n23 p0" transform="translate(-24.9792 64.2157)"><g class="a23 leaf node n2 p0 sample" transform="translate(16.9583 30.3843)"><path class="edge" d="M 0 0 V -30.3843 H -16.9583" /><rect class="sym" height="6" width="6" x="-3" y="-3" /><text class="lab" transform="translate(0 11)">2</text></g><g class="a23 c2 node n20 p0" transform="translate(-16.9583 16.8669)"><g class="a20 leaf node n4 p0 sample" transform="translate(19.25 13.5173)"><path class="edge" d="M 0 0 V -13.5173 H -19.25" /><rect class="sym" height="6" width="6" x="-3" y="-3" /><text class="lab" transform="translate(0 11)">4</text></g><g class="a20 c2 node n19 p0" transform="translate(-19.25 0.374223)"><g class="a19 c2 node n16 p0" transform="translate(16.5 6.90145)"><g class="a16 leaf node n8 p0 sample" transform="translate(7.33333 6.24164)"><path class="edge" d="M 0 0 V -6.24164 H -7.33333" /><rect class="sym" height="6" width="6" x="-3" y="-3" /><text class="lab" transform="translate(0 11)">8</text></g><g class="a16 c1 node n10 p0" transform="translate(-7.33333 6.21806)"><g class="a10 leaf node n5 p0 sample" transform="translate(0.0 0.0235781)"><path class="edge" d="M 0 0 V -0.0235781 H 0.0" /><rect class="sym" height="6" width="6" x="-3" y="-3" /><text class="lab" transform="translate(0 11)">5</text></g><path class="edge" d="M 0 0 V -6.21806 H 7.33333" /><circle class="sym" cx="0" cy="0" r="3" /><text class="lab lft" transform="translate(-3 -7.0)">10</text></g><path class="edge" d="M 0 0 V -6.90145 H -16.5" /><circle class="sym" cx="0" cy="0" r="3" /><text class="lab rgt" transform="translate(3 -7.0)">16</text></g><g class="a19 c1 node n17 p0" transform="translate(-16.5 0.650229)"><g class="a17 c2 node n15 p0" transform="translate(0.0 7.45332)"><g class="a15 leaf node n6 p0 sample" transform="translate(11 5.03954)"><path class="edge" d="M 0 0 V -5.03954 H -11" /><rect class="sym" height="6" width="6" x="-3" y="-3" /><text class="lab" transform="translate(0 11)">6</text></g><g class="a15 c2 node n14 p0" transform="translate(-11 1.13167)"><g class="a14 leaf node n1 p0 sample" transform="translate(7.33333 3.90786)"><path class="edge" d="M 0 0 V -3.90786 H -7.33333" /><rect class="sym" height="6" width="6" x="-3" y="-3" /><text class="lab" transform="translate(0 11)">1</text></g><g class="a14 c1 node n12 p0" transform="translate(-7.33333 1.9266)"><g class="a12 leaf node n0 p0 sample" transform="translate(0.0 1.98126)"><path class="edge" d="M 0 0 V -1.98126 H 0.0" /><rect class="sym" height="6" width="6" x="-3" y="-3" /><text class="lab" transform="translate(0 11)">0</text></g><path class="edge" d="M 0 0 V -1.9266 H 7.33333" /><circle class="sym" cx="0" cy="0" r="3" /><text class="lab lft" transform="translate(-3 -7.0)">12</text></g><path class="edge" d="M 0 0 V -1.13167 H 11" /><circle class="sym" cx="0" cy="0" r="3" /><text class="lab lft" transform="translate(-3 -7.0)">14</text></g><path class="edge" d="M 0 0 V -7.45332 H 0.0" /><circle class="sym" cx="0" cy="0" r="3" /><text class="lab lft" transform="translate(-3 -7.0)">15</text></g><path class="edge" d="M 0 0 V -0.650229 H 16.5" /><circle class="sym" cx="0" cy="0" r="3" /><text class="lab lft" transform="translate(-3 -7.0)">17</text></g><path class="edge" d="M 0 0 V -0.374223 H 19.25" /><circle class="sym" cx="0" cy="0" r="3" /><text class="lab lft" transform="translate(-3 -7.0)">19</text></g><path class="edge" d="M 0 0 V -16.8669 H 16.9583" /><circle class="sym" cx="0" cy="0" r="3" /><text class="lab lft" transform="translate(-3 -7.0)">20</text></g><path class="edge" d="M 0 0 V -64.2157 H 24.9792" /><circle class="sym" cx="0" cy="0" r="3" /><text class="lab lft" transform="translate(-3 -7.0)">23</text></g><circle class="sym" cx="0" cy="0" r="3" /><text class="lab" transform="translate(0 -11)">24</text></g></g></g><g class="tree t1" transform="translate(206.667 0)"><g class="plotbox"><g class="c2 node n24 p0 root" transform="translate(124.615 26.8)"><g class="a24 c2 node n22 p0" transform="translate(23.7187 71.5483)"><g class="a22 leaf node n9 p0 sample" transform="translate(11 23.0517)"><path class="edge" d="M 0 0 V -23.0517 H -11" /><rect class="sym" height="6" width="6" x="-3" y="-3" /><text class="lab" transform="translate(0 11)">9</text></g><g class="a22 c1 node n21 p0" transform="translate(-11 8.85554)"><g class="a21 c2 node n13 p0" transform="translate(0.0 10.9277)"><g class="a13 leaf node n3 p0 sample" transform="translate(-7.33333 3.26844)"><path class="edge" d="M 0 0 V -3.26844 H 7.33333" /><rect class="sym" height="6" width="6" x="-3" y="-3" /><text class="lab" transform="translate(0 11)">3</text></g><g class="a13 leaf node n7 p0 sample" transform="translate(7.33333 3.26844)"><path class="edge" d="M 0 0 V -3.26844 H -7.33333" /><rect class="sym" height="6" width="6" x="-3" y="-3" /><text class="lab" transform="translate(0 11)">7</text></g><path class="edge" d="M 0 0 V -10.9277 H 0.0" /><circle class="sym" cx="0" cy="0" r="3" /><text class="lab lft" transform="translate(-3 -7.0)">13</text></g><path class="edge" d="M 0 0 V -8.85554 H 11" /><circle class="sym" cx="0" cy="0" r="3" /><text class="lab lft" transform="translate(-3 -7.0)">21</text></g><path class="edge" d="M 0 0 V -71.5483 H -23.7187" /><circle class="sym" cx="0" cy="0" r="3" /><text class="lab rgt" transform="translate(3 -7.0)">22</text></g><g class="a24 c2 node n23 p0" transform="translate(-23.7187 64.2157)"><g class="a23 leaf node n2 p0 sample" transform="translate(14.4375 30.3843)"><path class="edge" d="M 0 0 V -30.3843 H -14.4375" /><rect class="sym" height="6" width="6" x="-3" y="-3" /><text class="lab" transform="translate(0 11)">2</text></g><g class="a23 c2 node n20 p0" transform="translate(-14.4375 16.8669)"><g class="a20 leaf node n4 p0 sample" transform="translate(14.2083 13.5173)"><path class="edge" d="M 0 0 V -13.5173 H -14.2083" /><rect class="sym" height="6" width="6" x="-3" y="-3" /><text class="lab" transform="translate(0 11)">4</text></g><g class="a20 c2 node n19 p0" transform="translate(-14.2083 0.374223)"><g class="a19 c1 node n16 p0" transform="translate(13.75 6.90145)"><g class="a16 leaf node n8 p0 sample" transform="translate(0.0 6.24164)"><path class="edge" d="M 0 0 V -6.24164 H 0.0" /><rect class="sym" height="6" width="6" x="-3" y="-3" /><text class="lab" transform="translate(0 11)">8</text></g><path class="edge" d="M 0 0 V -6.90145 H -13.75" /><circle class="sym" cx="0" cy="0" r="3" /><text class="lab rgt" transform="translate(3 -7.0)">16</text></g><g class="a19 c1 node n17 p0" transform="translate(-13.75 0.650229)"><g class="a17 c2 node n15 p0" transform="translate(0.0 7.45332)"><g class="a15 leaf node n6 p0 sample" transform="translate(12.8333 5.03954)"><path class="edge" d="M 0 0 V -5.03954 H -12.8333" /><rect class="sym" height="6" width="6" x="-3" y="-3" /><text class="lab" transform="translate(0 11)">6</text></g><g class="a15 c2 node n14 p0" transform="translate(-12.8333 1.13167)"><g class="a14 leaf node n1 p0 sample" transform="translate(11 3.90786)"><path class="edge" d="M 0 0 V -3.90786 H -11" /><rect class="sym" height="6" width="6" x="-3" y="-3" /><text class="lab" transform="translate(0 11)">1</text></g><g class="a14 c2 node n12 p0" transform="translate(-11 1.9266)"><g class="a12 leaf node n0 p0 sample" transform="translate(-7.33333 1.98126)"><path class="edge" d="M 0 0 V -1.98126 H 7.33333" /><rect class="sym" height="6" width="6" x="-3" y="-3" /><text class="lab" transform="translate(0 11)">0</text></g><g class="a12 c1 node n11 p0" transform="translate(7.33333 1.95768)"><g class="a11 leaf node n5 p0 sample" transform="translate(0.0 0.0235781)"><path class="edge" d="M 0 0 V -0.0235781 H 0.0" /><rect class="sym" height="6" width="6" x="-3" y="-3" /><text class="lab" transform="translate(0 11)">5</text></g><path class="edge" d="M 0 0 V -1.95768 H -7.33333" /><circle class="sym" cx="0" cy="0" r="3" /><text class="lab rgt" transform="translate(3 -7.0)">11</text></g><path class="edge" d="M 0 0 V -1.9266 H 11" /><circle class="sym" cx="0" cy="0" r="3" /><text class="lab lft" transform="translate(-3 -7.0)">12</text></g><path class="edge" d="M 0 0 V -1.13167 H 12.8333" /><circle class="sym" cx="0" cy="0" r="3" /><text class="lab lft" transform="translate(-3 -7.0)">14</text></g><path class="edge" d="M 0 0 V -7.45332 H 0.0" /><circle class="sym" cx="0" cy="0" r="3" /><text class="lab lft" transform="translate(-3 -7.0)">15</text></g><path class="edge" d="M 0 0 V -0.650229 H 13.75" /><circle class="sym" cx="0" cy="0" r="3" /><text class="lab lft" transform="translate(-3 -7.0)">17</text></g><path class="edge" d="M 0 0 V -0.374223 H 14.2083" /><circle class="sym" cx="0" cy="0" r="3" /><text class="lab lft" transform="translate(-3 -7.0)">19</text></g><path class="edge" d="M 0 0 V -16.8669 H 14.4375" /><circle class="sym" cx="0" cy="0" r="3" /><text class="lab lft" transform="translate(-3 -7.0)">20</text></g><path class="edge" d="M 0 0 V -64.2157 H 23.7187" /><circle class="sym" cx="0" cy="0" r="3" /><text class="lab lft" transform="translate(-3 -7.0)">23</text></g><circle class="sym" cx="0" cy="0" r="3" /><text class="lab" transform="translate(0 -11)">24</text></g></g></g><g class="tree t2" transform="translate(393.333 0)"><g class="plotbox"><g class="c2 node n24 p0 root" transform="translate(118.312 26.8)"><g class="a24 c2 node n22 p0" transform="translate(-22.6875 71.5483)"><g class="a22 leaf node n9 p0 sample" transform="translate(19.7083 23.0517)"><path class="edge" d="M 0 0 V -23.0517 H -19.7083" /><rect class="sym" height="6" width="6" x="-3" y="-3" /><text class="lab" transform="translate(0 11)">9</text></g><g class="a22 c2 node n21 p0" transform="translate(-19.7083 8.85554)"><g class="a21 c2 node n13 p0" transform="translate(17.4167 10.9277)"><g class="a13 leaf node n3 p0 sample" transform="translate(-7.33333 3.26844)"><path class="edge" d="M 0 0 V -3.26844 H 7.33333" /><rect class="sym" height="6" width="6" x="-3" y="-3" /><text class="lab" transform="translate(0 11)">3</text></g><g class="a13 leaf node n7 p0 sample" transform="translate(7.33333 3.26844)"><path class="edge" d="M 0 0 V -3.26844 H -7.33333" /><rect class="sym" height="6" width="6" x="-3" y="-3" /><text class="lab" transform="translate(0 11)">7</text></g><path class="edge" d="M 0 0 V -10.9277 H -17.4167" /><circle class="sym" cx="0" cy="0" r="3" /><text class="lab rgt" transform="translate(3 -7.0)">13</text></g><g class="a21 c1 node n18 p0" transform="translate(-17.4167 1.70331)"><g class="a18 c2 node n15 p0" transform="translate(0.0 7.45332)"><g class="a15 leaf node n6 p0 sample" transform="translate(12.8333 5.03954)"><path class="edge" d="M 0 0 V -5.03954 H -12.8333" /><rect class="sym" height="6" width="6" x="-3" y="-3" /><text class="lab" transform="translate(0 11)">6</text></g><g class="a15 c2 node n14 p0" transform="translate(-12.8333 1.13167)"><g class="a14 leaf node n1 p0 sample" transform="translate(11 3.90786)"><path class="edge" d="M 0 0 V -3.90786 H -11" /><rect class="sym" height="6" width="6" x="-3" y="-3" /><text class="lab" transform="translate(0 11)">1</text></g><g class="a14 c2 node n12 p0" transform="translate(-11 1.9266)"><g class="a12 leaf node n0 p0 sample" transform="translate(-7.33333 1.98126)"><path class="edge" d="M 0 0 V -1.98126 H 7.33333" /><rect class="sym" height="6" width="6" x="-3" y="-3" /><text class="lab" transform="translate(0 11)">0</text></g><g class="a12 c1 node n11 p0" transform="translate(7.33333 1.95768)"><g class="a11 leaf node n5 p0 sample" transform="translate(0.0 0.0235781)"><path class="edge" d="M 0 0 V -0.0235781 H 0.0" /><rect class="sym" height="6" width="6" x="-3" y="-3" /><text class="lab" transform="translate(0 11)">5</text></g><path class="edge" d="M 0 0 V -1.95768 H -7.33333" /><circle class="sym" cx="0" cy="0" r="3" /><text class="lab rgt" transform="translate(3 -7.0)">11</text></g><path class="edge" d="M 0 0 V -1.9266 H 11" /><circle class="sym" cx="0" cy="0" r="3" /><text class="lab lft" transform="translate(-3 -7.0)">12</text></g><path class="edge" d="M 0 0 V -1.13167 H 12.8333" /><circle class="sym" cx="0" cy="0" r="3" /><text class="lab lft" transform="translate(-3 -7.0)">14</text></g><path class="edge" d="M 0 0 V -7.45332 H 0.0" /><circle class="sym" cx="0" cy="0" r="3" /><text class="lab lft" transform="translate(-3 -7.0)">15</text></g><path class="edge" d="M 0 0 V -1.70331 H 17.4167" /><circle class="sym" cx="0" cy="0" r="3" /><text class="lab lft" transform="translate(-3 -7.0)">18</text></g><path class="edge" d="M 0 0 V -8.85554 H 19.7083" /><circle class="sym" cx="0" cy="0" r="3" /><text class="lab lft" transform="translate(-3 -7.0)">21</text></g><path class="edge" d="M 0 0 V -71.5483 H 22.6875" /><circle class="sym" cx="0" cy="0" r="3" /><text class="lab lft" transform="translate(-3 -7.0)">22</text></g><g class="a24 c2 node n23 p0" transform="translate(22.6875 64.2157)"><g class="a23 leaf node n2 p0 sample" transform="translate(-11 30.3843)"><path class="edge" d="M 0 0 V -30.3843 H 11" /><rect class="sym" height="6" width="6" x="-3" y="-3" /><text class="lab" transform="translate(0 11)">2</text></g><g class="a23 c2 node n20 p0" transform="translate(11 16.8669)"><g class="a20 leaf node n4 p0 sample" transform="translate(-7.33333 13.5173)"><path class="edge" d="M 0 0 V -13.5173 H 7.33333" /><rect class="sym" height="6" width="6" x="-3" y="-3" /><text class="lab" transform="translate(0 11)">4</text></g><g class="a20 c1 node n19 p0" transform="translate(7.33333 0.374223)"><g class="a19 c1 node n16 p0" transform="translate(0.0 6.90145)"><g class="a16 leaf node n8 p0 sample" transform="translate(0.0 6.24164)"><path class="edge" d="M 0 0 V -6.24164 H 0.0" /><rect class="sym" height="6" width="6" x="-3" y="-3" /><text class="lab" transform="translate(0 11)">8</text></g><path class="edge" d="M 0 0 V -6.90145 H 0.0" /><circle class="sym" cx="0" cy="0" r="3" /><text class="lab lft" transform="translate(-3 -7.0)">16</text></g><path class="edge" d="M 0 0 V -0.374223 H -7.33333" /><circle class="sym" cx="0" cy="0" r="3" /><text class="lab rgt" transform="translate(3 -7.0)">19</text></g><path class="edge" d="M 0 0 V -16.8669 H -11" /><circle class="sym" cx="0" cy="0" r="3" /><text class="lab rgt" transform="translate(3 -7.0)">20</text></g><path class="edge" d="M 0 0 V -64.2157 H -22.6875" /><circle class="sym" cx="0" cy="0" r="3" /><text class="lab rgt" transform="translate(3 -7.0)">23</text></g><circle class="sym" cx="0" cy="0" r="3" /><text class="lab" transform="translate(0 -11)">24</text></g></g></g></g></g></svg>
