<svg baseProfile="full" height="200" version="1.1" width="1200" xmlns="http://www.w3.org/2000/svg" xmlns:ev="http://www.w3.org/2001/xml-events" xmlns:xlink="http://www.w3.org/1999/xlink"><defs><style type="text/css"><![CDATA[.background path {fill: #808080; fill-opacity: 0}.background path:nth-child(odd) {fill-opacity: .1}.axes {font-size: 14px}.x-axis .tick .lab {font-weight: bold; dominant-baseline: hanging}.axes, .tree {font-size: 14px; text-anchor: middle}.axes line, .edge {stroke: black; fill: none}.y-axis .grid {stroke: #FAFAFA}.node > .sym {fill: black; stroke: none}.site > .sym {stroke: black}.mut text {fill: red; font-style: italic}.mut.extra text {fill: hotpink}.mut line {fill: none; stroke: none}.mut .sym {fill: none; stroke: red}.mut.extra .sym {stroke: hotpink}.node .mut .sym {stroke-width: 1.5px}.tree text, .tree-sequence text {dominant-baseline: central}.plotbox .lab.lft {text-anchor: end}.plotbox .lab.rgt {text-anchor: start}]]></style></defs><g class="tree-sequence"><g class="background"><path d="M20,0 l193.333,0 l0,138.2 l436.982,25 l0,5 l-630.315,0 l0,-5 l0,-25 l0,-138.2z" /><path d="M213.333,0 l193.333,0 l0,138.2 l326.795,25 l0,5 l-83.1467,0 l0,-5 l-436.982,-25 l0,-138.2z" /><path d="M406.667,0 l193.333,0 l0,138.2 l243.017,25 l0,5 l-109.555,0 l0,-5 l-326.795,-25 l0,-138.2z" /><path d="M600,0 l193.333,0 l0,138.2 l181.284,25 l0,5 l-131.6,0 l0,-5 l-243.017,-25 l0,-138.2z" /><path d="M793.333,0 l193.333,0 l0,138.2 l84.4869,25 l0,5 l-96.5363,0 l0,-5 l-181.284,-25 l0,-138.2z" /><path d="M986.667,0 l193.333,0 l0,138.2 l0,25 l0,5 l-108.846,0 l0,-5 l-84.4869,-25 l0,-138.2z" /></g><g class="axes"><g class="x-axis"><g transform="translate(600 200)"><text class="lab" text-anchor="middle" transform="translate(0 -11)">Genome position</text></g><line x1="20" x2="1180" y1="163.2" y2="163.2" /><g class="ticks"><g class="tick" transform="translate(20 163.2)"><line x1="0" x2="0" y1="0" y2="5" /><g transform="translate(0 6)"><text class="lab">0.00</text></g></g><g class="tick" transform="translate(650.315 163.2)"><line x1="0" x2="0" y1="0" y2="5" /><g transform="translate(0 6)"><text class="lab">543.38</text></g></g><g class="tick" transform="translate(733.462 163.2)"><line x1="0" x2="0" y1="0" y2="5" /><g transform="translate(0 6)"><text class="lab">615.05</text></g></g><g class="tick" transform="translate(843.017 163.2)"><line x1="0" x2="0" y1="0" y2="5" /><g transform="translate(0 6)"><text class="lab">709.50</text></g></g><g class="tick" transform="translate(974.617 163.2)"><line x1="0" x2="0" y1="0" y2="5" /><g transform="translate(0 6)"><text class="lab">822.95</text></g></g><g class="tick" transform="translate(1071.15 163.2)"><line x1="0" x2="0" y1="0" y2="5" /><g transform="translate(0 6)"><text class="lab">906.17</text></g></g><g class="tick" transform="translate(1180 163.2)"><line x1="0" x2="0" y1="0" y2="5" /><g transform="translate(0 6)"><text class="lab">1000.00</text></g></g></g></g></g><g class="plotbox trees"><g class="tree t0" transform="translate(20 0)"><g class="plotbox"><g class="c2 node n33 p0 root" transform="translate(109.125 26.8)"><g class="a33 c1 node n31 p0" transform="translate(43.125 63.5113)"><g class="a31 c2 node n29 p0" transform="translate(0.0 5.74677)"><g class="a29 c1 node n18 p0" transform="translate(13.4167 11.717)"><g class="a18 leaf node n4 p0 sample" transform="translate(0.0 13.6249)"><path class="edge" d="M 0 0 V -13.6249 H 0.0" /><rect class="sym" height="6" width="6" x="-3" y="-3" /><text class="lab" transform="translate(0 11)">4</text></g><path class="edge" d="M 0 0 V -11.717 H -13.4167" /><circle class="sym" cx="0" cy="0" r="3" /><text class="lab rgt" transform="translate(3 -7.0)">18</text></g><g class="a29 c1 node n26 p0" transform="translate(-13.4167 1.23467)"><g class="a26 c1 node n24 p0" transform="translate(0.0 2.18761)"><g class="a24 c2 node n21 p0" transform="translate(0.0 5.84831)"><g class="a21 leaf node n6 p0 sample" transform="translate(11.5 16.0714)"><path class="edge" d="M 0 0 V -16.0714 H -11.5" /><rect class="sym" height="6" width="6" x="-3" y="-3" /><text class="lab" transform="translate(0 11)">6</text></g><g class="a21 c1 node n19 p0" transform="translate(-11.5 0.294336)"><g class="a19 c1 node n16 p0" transform="translate(0.0 5.53402)"><g class="a16 c2 node n10 p0" transform="translate(0.0 9.58668)"><g class="a10 leaf node n2 p0 sample" transform="translate(-7.66667 0.656344)"><path class="edge" d="M 0 0 V -0.656344 H 7.66667" /><rect class="sym" height="6" width="6" x="-3" y="-3" /><text class="lab" transform="translate(0 11)">2</text></g><g class="a10 leaf node n8 p0 sample" transform="translate(7.66667 0.656344)"><path class="edge" d="M 0 0 V -0.656344 H -7.66667" /><rect class="sym" height="6" width="6" x="-3" y="-3" /><text class="lab" transform="translate(0 11)">8</text></g><path class="edge" d="M 0 0 V -9.58668 H 0.0" /><circle class="sym" cx="0" cy="0" r="3" /><text class="lab lft" transform="translate(-3 -7.0)">10</text></g><path class="edge" d="M 0 0 V -5.53402 H 0.0" /><circle class="sym" cx="0" cy="0" r="3" /><text class="lab lft" transform="translate(-3 -7.0)">16</text></g><path class="edge" d="M 0 0 V -0.294336 H 11.5" /><circle class="sym" cx="0" cy="0" r="3" /><text class="lab lft" transform="translate(-3 -7.0)">19</text></g><path class="edge" d="M 0 0 V -5.84831 H 0.0" /><circle class="sym" cx="0" cy="0" r="3" /><text class="lab lft" transform="translate(-3 -7.0)">21</text></g><path class="edge" d="M 0 0 V -2.18761 H 0.0" /><circle class="sym" cx="0" cy="0" r="3" /><text class="lab lft" transform="translate(-3 -7.0)">24</text></g><path class="edge" d="M 0 0 V -1.23467 H 13.4167" /><circle class="sym" cx="0" cy="0" r="3" /><text class="lab lft" transform="translate(-3 -7.0)">26</text></g><path class="edge" d="M 0 0 V -5.74677 H 0.0" /><circle class="sym" cx="0" cy="0" r="3" /><text class="lab lft" transform="translate(-3 -7.0)">29</text></g><path class="edge" d="M 0 0 V -63.5113 H -43.125" /><circle class="sym" cx="0" cy="0" r="3" /><text class="lab rgt" transform="translate(3 -7.0)">31</text></g><g class="a33 c1 node n32 p0" transform="translate(-43.125 50.4697)"><g class="a32 c1 node n30 p0" transform="translate(0.0 16.0582)"><g class="a30 c1 node n28 p0" transform="translate(0.0 3.14726)"><g class="a28 c1 node n22 p0" transform="translate(0.0 3.88563)"><g class="a22 c2 node n15 p0" transform="translate(0.0 11.7344)"><g class="a15 c2 node n12 p0" transform="translate(-26.8333 4.59507)"><g class="a12 leaf node n0 p0 sample" transform="translate(-11.5 4.70973)"><path class="edge" d="M 0 0 V -4.70973 H 11.5" /><rect class="sym" height="6" width="6" x="-3" y="-3" /><text class="lab" transform="translate(0 11)">0</text></g><g class="a12 c2 node n11 p0" transform="translate(11.5 1.64615)"><g class="a11 leaf node n3 p0 sample" transform="translate(-7.66667 3.06358)"><path class="edge" d="M 0 0 V -3.06358 H 7.66667" /><rect class="sym" height="6" width="6" x="-3" y="-3" /><text class="lab" transform="translate(0 11)">3</text></g><g class="a11 leaf node n9 p0 sample" transform="translate(7.66667 3.06358)"><path class="edge" d="M 0 0 V -3.06358 H -7.66667" /><rect class="sym" height="6" width="6" x="-3" y="-3" /><text class="lab" transform="translate(0 11)">9</text></g><path class="edge" d="M 0 0 V -1.64615 H -11.5" /><circle class="sym" cx="0" cy="0" r="3" /><text class="lab rgt" transform="translate(3 -7.0)">11</text></g><path class="edge" d="M 0 0 V -4.59507 H 26.8333" /><circle class="sym" cx="0" cy="0" r="3" /><text class="lab lft" transform="translate(-3 -7.0)">12</text></g><g class="a15 c2 node n14 p0" transform="translate(26.8333 2.33895)"><g class="a14 leaf node n7 p0 sample" transform="translate(11.5 6.96585)"><path class="edge" d="M 0 0 V -6.96585 H -11.5" /><rect class="sym" height="6" width="6" x="-3" y="-3" /><text class="lab" transform="translate(0 11)">7</text></g><g class="a14 c2 node n13 p0" transform="translate(-11.5 1.93113)"><g class="a13 leaf node n1 p0 sample" transform="translate(-7.66667 5.03473)"><path class="edge" d="M 0 0 V -5.03473 H 7.66667" /><rect class="sym" height="6" width="6" x="-3" y="-3" /><text class="lab" transform="translate(0 11)">1</text></g><g class="a13 leaf node n5 p0 sample" transform="translate(7.66667 5.03473)"><path class="edge" d="M 0 0 V -5.03473 H -7.66667" /><rect class="sym" height="6" width="6" x="-3" y="-3" /><text class="lab" transform="translate(0 11)">5</text></g><path class="edge" d="M 0 0 V -1.93113 H 11.5" /><circle class="sym" cx="0" cy="0" r="3" /><text class="lab lft" transform="translate(-3 -7.0)">13</text></g><path class="edge" d="M 0 0 V -2.33895 H -26.8333" /><circle class="sym" cx="0" cy="0" r="3" /><text class="lab rgt" transform="translate(3 -7.0)">14</text></g><path class="edge" d="M 0 0 V -11.7344 H 0.0" /><circle class="sym" cx="0" cy="0" r="3" /><text class="lab lft" transform="translate(-3 -7.0)">15</text></g><path class="edge" d="M 0 0 V -3.88563 H 0.0" /><circle class="sym" cx="0" cy="0" r="3" /><text class="lab lft" transform="translate(-3 -7.0)">22</text></g><path class="edge" d="M 0 0 V -3.14726 H 0.0" /><circle class="sym" cx="0" cy="0" r="3" /><text class="lab lft" transform="translate(-3 -7.0)">28</text></g><path class="edge" d="M 0 0 V -16.0582 H 0.0" /><circle class="sym" cx="0" cy="0" r="3" /><text class="lab lft" transform="translate(-3 -7.0)">30</text></g><path class="edge" d="M 0 0 V -50.4697 H 43.125" /><circle class="sym" cx="0" cy="0" r="3" /><text class="lab lft" transform="translate(-3 -7.0)">32</text></g><circle class="sym" cx="0" cy="0" r="3" /><text class="lab" transform="translate(0 -11)">33</text></g></g></g><g class="tree t1" transform="translate(213.333 0)"><g class="plotbox"><g class="c2 node n33 p0 root" transform="translate(134.042 26.8)"><g class="a33 c1 node n31 p0" transform="translate(31.625 63.5113)"><g class="a31 c1 node n29 p0" transform="translate(0.0 5.74677)"><g class="a29 c1 node n18 p0" transform="translate(0.0 11.717)"><g class="a18 leaf node n4 p0 sample" transform="translate(0.0 13.6249)"><path class="edge" d="M 0 0 V -13.6249 H 0.0" /><rect class="sym" height="6" width="6" x="-3" y="-3" /><text class="lab" transform="translate(0 11)">4</text></g><path class="edge" d="M 0 0 V -11.717 H 0.0" /><circle class="sym" cx="0" cy="0" r="3" /><text class="lab lft" transform="translate(-3 -7.0)">18</text></g><path class="edge" d="M 0 0 V -5.74677 H 0.0" /><circle class="sym" cx="0" cy="0" r="3" /><text class="lab lft" transform="translate(-3 -7.0)">29</text></g><path class="edge" d="M 0 0 V -63.5113 H -31.625" /><circle class="sym" cx="0" cy="0" r="3" /><text class="lab rgt" transform="translate(3 -7.0)">31</text></g><g class="a33 c1 node n32 p0" transform="translate(-31.625 50.4697)"><g class="a32 c1 node n30 p0" transform="translate(0.0 16.0582)"><g class="a30 c2 node n28 p0" transform="translate(0.0 3.14726)"><g class="a28 c1 node n22 p0" transform="translate(-36.4167 3.88563)"><g class="a22 c2 node n15 p0" transform="translate(0.0 11.7344)"><g class="a15 c2 node n12 p0" transform="translate(-26.8333 4.59507)"><g class="a12 leaf node n0 p0 sample" transform="translate(-11.5 4.70973)"><path class="edge" d="M 0 0 V -4.70973 H 11.5" /><rect class="sym" height="6" width="6" x="-3" y="-3" /><text class="lab" transform="translate(0 11)">0</text></g><g class="a12 c2 node n11 p0" transform="translate(11.5 1.64615)"><g class="a11 leaf node n3 p0 sample" transform="translate(-7.66667 3.06358)"><path class="edge" d="M 0 0 V -3.06358 H 7.66667" /><rect class="sym" height="6" width="6" x="-3" y="-3" /><text class="lab" transform="translate(0 11)">3</text></g><g class="a11 leaf node n9 p0 sample" transform="translate(7.66667 3.06358)"><path class="edge" d="M 0 0 V -3.06358 H -7.66667" /><rect class="sym" height="6" width="6" x="-3" y="-3" /><text class="lab" transform="translate(0 11)">9</text></g><path class="edge" d="M 0 0 V -1.64615 H -11.5" /><circle class="sym" cx="0" cy="0" r="3" /><text class="lab rgt" transform="translate(3 -7.0)">11</text></g><path class="edge" d="M 0 0 V -4.59507 H 26.8333" /><circle class="sym" cx="0" cy="0" r="3" /><text class="lab lft" transform="translate(-3 -7.0)">12</text></g><g class="a15 c2 node n14 p0" transform="translate(26.8333 2.33895)"><g class="a14 leaf node n7 p0 sample" transform="translate(11.5 6.96585)"><path class="edge" d="M 0 0 V -6.96585 H -11.5" /><rect class="sym" height="6" width="6" x="-3" y="-3" /><text class="lab" transform="translate(0 11)">7</text></g><g class="a14 c2 node n13 p0" transform="translate(-11.5 1.93113)"><g class="a13 leaf node n1 p0 sample" transform="translate(-7.66667 5.03473)"><path class="edge" d="M 0 0 V -5.03473 H 7.66667" /><rect class="sym" height="6" width="6" x="-3" y="-3" /><text class="lab" transform="translate(0 11)">1</text></g><g class="a13 leaf node n5 p0 sample" transform="translate(7.66667 5.03473)"><path class="edge" d="M 0 0 V -5.03473 H -7.66667" /><rect class="sym" height="6" width="6" x="-3" y="-3" /><text class="lab" transform="translate(0 11)">5</text></g><path class="edge" d="M 0 0 V -1.93113 H 11.5" /><circle class="sym" cx="0" cy="0" r="3" /><text class="lab lft" transform="translate(-3 -7.0)">13</text></g><path class="edge" d="M 0 0 V -2.33895 H -26.8333" /><circle class="sym" cx="0" cy="0" r="3" /><text class="lab rgt" transform="translate(3 -7.0)">14</text></g><path class="edge" d="M 0 0 V -11.7344 H 0.0" /><circle class="sym" cx="0" cy="0" r="3" /><text class="lab lft" transform="translate(-3 -7.0)">15</text></g><path class="edge" d="M 0 0 V -3.88563 H 36.4167" /><circle class="sym" cx="0" cy="0" r="3" /><text class="lab lft" transform="translate(-3 -7.0)">22</text></g><g class="a28 c1 node n27 p0" transform="translate(36.4167 0.817561)"><g class="a27 c1 node n24 p0" transform="translate(0.0 2.18761)"><g class="a24 c2 node n21 p0" transform="translate(0.0 5.84831)"><g class="a21 leaf node n6 p0 sample" transform="translate(11.5 16.0714)"><path class="edge" d="M 0 0 V -16.0714 H -11.5" /><rect class="sym" height="6" width="6" x="-3" y="-3" /><text class="lab" transform="translate(0 11)">6</text></g><g class="a21 c1 node n19 p0" transform="translate(-11.5 0.294336)"><g class="a19 c1 node n16 p0" transform="translate(0.0 5.53402)"><g class="a16 c2 node n10 p0" transform="translate(0.0 9.58668)"><g class="a10 leaf node n2 p0 sample" transform="translate(-7.66667 0.656344)"><path class="edge" d="M 0 0 V -0.656344 H 7.66667" /><rect class="sym" height="6" width="6" x="-3" y="-3" /><text class="lab" transform="translate(0 11)">2</text></g><g class="a10 leaf node n8 p0 sample" transform="translate(7.66667 0.656344)"><path class="edge" d="M 0 0 V -0.656344 H -7.66667" /><rect class="sym" height="6" width="6" x="-3" y="-3" /><text class="lab" transform="translate(0 11)">8</text></g><path class="edge" d="M 0 0 V -9.58668 H 0.0" /><circle class="sym" cx="0" cy="0" r="3" /><text class="lab lft" transform="translate(-3 -7.0)">10</text></g><path class="edge" d="M 0 0 V -5.53402 H 0.0" /><circle class="sym" cx="0" cy="0" r="3" /><text class="lab lft" transform="translate(-3 -7.0)">16</text></g><path class="edge" d="M 0 0 V -0.294336 H 11.5" /><circle class="sym" cx="0" cy="0" r="3" /><text class="lab lft" transform="translate(-3 -7.0)">19</text></g><path class="edge" d="M 0 0 V -5.84831 H 0.0" /><circle class="sym" cx="0" cy="0" r="3" /><text class="lab lft" transform="translate(-3 -7.0)">21</text></g><path class="edge" d="M 0 0 V -2.18761 H 0.0" /><circle class="sym" cx="0" cy="0" r="3" /><text class="lab lft" transform="translate(-3 -7.0)">24</text></g><path class="edge" d="M 0 0 V -0.817561 H -36.4167" /><circle class="sym" cx="0" cy="0" r="3" /><text class="lab rgt" transform="translate(3 -7.0)">27</text></g><path class="edge" d="M 0 0 V -3.14726 H 0.0" /><circle class="sym" cx="0" cy="0" r="3" /><text class="lab lft" transform="translate(-3 -7.0)">28</text></g><path class="edge" d="M 0 0 V -16.0582 H 0.0" /><circle class="sym" cx="0" cy="0" r="3" /><text class="lab lft" transform="translate(-3 -7.0)">30</text></g><path class="edge" d="M 0 0 V -50.4697 H 31.625" /><circle class="sym" cx="0" cy="0" r="3" /><text class="lab lft" transform="translate(-3 -7.0)">32</text></g><circle class="sym" cx="0" cy="0" r="3" /><text class="lab" transform="translate(0 -11)">33</text></g></g></g><g class="tree t2" transform="translate(406.667 0)"><g class="plotbox"><g class="c2 node n33 p0 root" transform="translate(109.125 26.8)"><g class="a33 c2 node n31 p0" transform="translate(43.125 63.5113)"><g class="a31 c1 node n29 p0" transform="translate(13.4167 5.74677)"><g class="a29 c1 node n18 p0" transform="translate(0.0 11.717)"><g class="a18 leaf node n4 p0 sample" transform="translate(0.0 13.6249)"><path class="edge" d="M 0 0 V -13.6249 H 0.0" /><rect class="sym" height="6" width="6" x="-3" y="-3" /><text class="lab" transform="translate(0 11)">4</text></g><path class="edge" d="M 0 0 V -11.717 H 0.0" /><circle class="sym" cx="0" cy="0" r="3" /><text class="lab lft" transform="translate(-3 -7.0)">18</text></g><path class="edge" d="M 0 0 V -5.74677 H -13.4167" /><circle class="sym" cx="0" cy="0" r="3" /><text class="lab rgt" transform="translate(3 -7.0)">29</text></g><g class="a31 c1 node n25 p0" transform="translate(-13.4167 9.16905)"><g class="a25 c2 node n21 p0" transform="translate(0.0 5.84831)"><g class="a21 leaf node n6 p0 sample" transform="translate(11.5 16.0714)"><path class="edge" d="M 0 0 V -16.0714 H -11.5" /><rect class="sym" height="6" width="6" x="-3" y="-3" /><text class="lab" transform="translate(0 11)">6</text></g><g class="a21 c1 node n19 p0" transform="translate(-11.5 0.294336)"><g class="a19 c1 node n16 p0" transform="translate(0.0 5.53402)"><g class="a16 c2 node n10 p0" transform="translate(0.0 9.58668)"><g class="a10 leaf node n2 p0 sample" transform="translate(-7.66667 0.656344)"><path class="edge" d="M 0 0 V -0.656344 H 7.66667" /><rect class="sym" height="6" width="6" x="-3" y="-3" /><text class="lab" transform="translate(0 11)">2</text></g><g class="a10 leaf node n8 p0 sample" transform="translate(7.66667 0.656344)"><path class="edge" d="M 0 0 V -0.656344 H -7.66667" /><rect class="sym" height="6" width="6" x="-3" y="-3" /><text class="lab" transform="translate(0 11)">8</text></g><path class="edge" d="M 0 0 V -9.58668 H 0.0" /><circle class="sym" cx="0" cy="0" r="3" /><text class="lab lft" transform="translate(-3 -7.0)">10</text></g><path class="edge" d="M 0 0 V -5.53402 H 0.0" /><circle class="sym" cx="0" cy="0" r="3" /><text class="lab lft" transform="translate(-3 -7.0)">16</text></g><path class="edge" d="M 0 0 V -0.294336 H 11.5" /><circle class="sym" cx="0" cy="0" r="3" /><text class="lab lft" transform="translate(-3 -7.0)">19</text></g><path class="edge" d="M 0 0 V -5.84831 H 0.0" /><circle class="sym" cx="0" cy="0" r="3" /><text class="lab lft" transform="translate(-3 -7.0)">21</text></g><path class="edge" d="M 0 0 V -9.16905 H 13.4167" /><circle class="sym" cx="0" cy="0" r="3" /><text class="lab lft" transform="translate(-3 -7.0)">25</text></g><path class="edge" d="M 0 0 V -63.5113 H -43.125" /><circle class="sym" cx="0" cy="0" r="3" /><text class="lab rgt" transform="translate(3 -7.0)">31</text></g><g class="a33 c1 node n32 p0" transform="translate(-43.125 50.4697)"><g class="a32 c1 node n30 p0" transform="translate(0.0 16.0582)"><g class="a30 c1 node n28 p0" transform="translate(0.0 3.14726)"><g class="a28 c1 node n22 p0" transform="translate(0.0 3.88563)"><g class="a22 c2 node n15 p0" transform="translate(0.0 11.7344)"><g class="a15 c2 node n12 p0" transform="translate(-26.8333 4.59507)"><g class="a12 leaf node n0 p0 sample" transform="translate(-11.5 4.70973)"><path class="edge" d="M 0 0 V -4.70973 H 11.5" /><rect class="sym" height="6" width="6" x="-3" y="-3" /><text class="lab" transform="translate(0 11)">0</text></g><g class="a12 c2 node n11 p0" transform="translate(11.5 1.64615)"><g class="a11 leaf node n3 p0 sample" transform="translate(-7.66667 3.06358)"><path class="edge" d="M 0 0 V -3.06358 H 7.66667" /><rect class="sym" height="6" width="6" x="-3" y="-3" /><text class="lab" transform="translate(0 11)">3</text></g><g class="a11 leaf node n9 p0 sample" transform="translate(7.66667 3.06358)"><path class="edge" d="M 0 0 V -3.06358 H -7.66667" /><rect class="sym" height="6" width="6" x="-3" y="-3" /><text class="lab" transform="translate(0 11)">9</text></g><path class="edge" d="M 0 0 V -1.64615 H -11.5" /><circle class="sym" cx="0" cy="0" r="3" /><text class="lab rgt" transform="translate(3 -7.0)">11</text></g><path class="edge" d="M 0 0 V -4.59507 H 26.8333" /><circle class="sym" cx="0" cy="0" r="3" /><text class="lab lft" transform="translate(-3 -7.0)">12</text></g><g class="a15 c2 node n14 p0" transform="translate(26.8333 2.33895)"><g class="a14 leaf node n7 p0 sample" transform="translate(11.5 6.96585)"><path class="edge" d="M 0 0 V -6.96585 H -11.5" /><rect class="sym" height="6" width="6" x="-3" y="-3" /><text class="lab" transform="translate(0 11)">7</text></g><g class="a14 c2 node n13 p0" transform="translate(-11.5 1.93113)"><g class="a13 leaf node n1 p0 sample" transform="translate(-7.66667 5.03473)"><path class="edge" d="M 0 0 V -5.03473 H 7.66667" /><rect class="sym" height="6" width="6" x="-3" y="-3" /><text class="lab" transform="translate(0 11)">1</text></g><g class="a13 leaf node n5 p0 sample" transform="translate(7.66667 5.03473)"><path class="edge" d="M 0 0 V -5.03473 H -7.66667" /><rect class="sym" height="6" width="6" x="-3" y="-3" /><text class="lab" transform="translate(0 11)">5</text></g><path class="edge" d="M 0 0 V -1.93113 H 11.5" /><circle class="sym" cx="0" cy="0" r="3" /><text class="lab lft" transform="translate(-3 -7.0)">13</text></g><path class="edge" d="M 0 0 V -2.33895 H -26.8333" /><circle class="sym" cx="0" cy="0" r="3" /><text class="lab rgt" transform="translate(3 -7.0)">14</text></g><path class="edge" d="M 0 0 V -11.7344 H 0.0" /><circle class="sym" cx="0" cy="0" r="3" /><text class="lab lft" transform="translate(-3 -7.0)">15</text></g><path class="edge" d="M 0 0 V -3.88563 H 0.0" /><circle class="sym" cx="0" cy="0" r="3" /><text class="lab lft" transform="translate(-3 -7.0)">22</text></g><path class="edge" d="M 0 0 V -3.14726 H 0.0" /><circle class="sym" cx="0" cy="0" r="3" /><text class="lab lft" transform="translate(-3 -7.0)">28</text></g><path class="edge" d="M 0 0 V -16.0582 H 0.0" /><circle class="sym" cx="0" cy="0" r="3" /><text class="lab lft" transform="translate(-3 -7.0)">30</text></g><path class="edge" d="M 0 0 V -50.4697 H 43.125" /><circle class="sym" cx="0" cy="0" r="3" /><text class="lab lft" transform="translate(-3 -7.0)">32</text></g><circle class="sym" cx="0" cy="0" r="3" /><text class="lab" transform="translate(0 -11)">33</text></g></g></g><g class="tree t3" transform="translate(600 0)"><g class="plotbox"><g class="c2 node n33 p0 root" transform="translate(109.125 26.8)"><g class="a33 c2 node n31 p0" transform="translate(43.125 63.5113)"><g class="a31 c1 node n29 p0" transform="translate(13.4167 5.74677)"><g class="a29 c1 node n18 p0" transform="translate(0.0 11.717)"><g class="a18 leaf node n4 p0 sample" transform="translate(0.0 13.6249)"><path class="edge" d="M 0 0 V -13.6249 H 0.0" /><rect class="sym" height="6" width="6" x="-3" y="-3" /><text class="lab" transform="translate(0 11)">4</text></g><path class="edge" d="M 0 0 V -11.717 H 0.0" /><circle class="sym" cx="0" cy="0" r="3" /><text class="lab lft" transform="translate(-3 -7.0)">18</text></g><path class="edge" d="M 0 0 V -5.74677 H -13.4167" /><circle class="sym" cx="0" cy="0" r="3" /><text class="lab rgt" transform="translate(3 -7.0)">29</text></g><g class="a31 c1 node n25 p0" transform="translate(-13.4167 9.16905)"><g class="a25 c2 node n21 p0" transform="translate(0.0 5.84831)"><g class="a21 leaf node n6 p0 sample" transform="translate(11.5 16.0714)"><path class="edge" d="M 0 0 V -16.0714 H -11.5" /><rect class="sym" height="6" width="6" x="-3" y="-3" /><text class="lab" transform="translate(0 11)">6</text></g><g class="a21 c1 node n19 p0" transform="translate(-11.5 0.294336)"><g class="a19 c1 node n16 p0" transform="translate(0.0 5.53402)"><g class="a16 c2 node n10 p0" transform="translate(0.0 9.58668)"><g class="a10 leaf node n2 p0 sample" transform="translate(-7.66667 0.656344)"><path class="edge" d="M 0 0 V -0.656344 H 7.66667" /><rect class="sym" height="6" width="6" x="-3" y="-3" /><text class="lab" transform="translate(0 11)">2</text></g><g class="a10 leaf node n8 p0 sample" transform="translate(7.66667 0.656344)"><path class="edge" d="M 0 0 V -0.656344 H -7.66667" /><rect class="sym" height="6" width="6" x="-3" y="-3" /><text class="lab" transform="translate(0 11)">8</text></g><path class="edge" d="M 0 0 V -9.58668 H 0.0" /><circle class="sym" cx="0" cy="0" r="3" /><text class="lab lft" transform="translate(-3 -7.0)">10</text></g><path class="edge" d="M 0 0 V -5.53402 H 0.0" /><circle class="sym" cx="0" cy="0" r="3" /><text class="lab lft" transform="translate(-3 -7.0)">16</text></g><path class="edge" d="M 0 0 V -0.294336 H 11.5" /><circle class="sym" cx="0" cy="0" r="3" /><text class="lab lft" transform="translate(-3 -7.0)">19</text></g><path class="edge" d="M 0 0 V -5.84831 H 0.0" /><circle class="sym" cx="0" cy="0" r="3" /><text class="lab lft" transform="translate(-3 -7.0)">21</text></g><path class="edge" d="M 0 0 V -9.16905 H 13.4167" /><circle class="sym" cx="0" cy="0" r="3" /><text class="lab lft" transform="translate(-3 -7.0)">25</text></g><path class="edge" d="M 0 0 V -63.5113 H -43.125" /><circle class="sym" cx="0" cy="0" r="3" /><text class="lab rgt" transform="translate(3 -7.0)">31</text></g><g class="a33 c1 node n32 p0" transform="translate(-43.125 50.4697)"><g class="a32 c1 node n23 p0" transform="translate(0.0 23.0911)"><g class="a23 c2 node n15 p0" transform="translate(0.0 11.7344)"><g class="a15 c2 node n12 p0" transform="translate(-26.8333 4.59507)"><g class="a12 leaf node n0 p0 sample" transform="translate(-11.5 4.70973)"><path class="edge" d="M 0 0 V -4.70973 H 11.5" /><rect class="sym" height="6" width="6" x="-3" y="-3" /><text class="lab" transform="translate(0 11)">0</text></g><g class="a12 c2 node n11 p0" transform="translate(11.5 1.64615)"><g class="a11 leaf node n3 p0 sample" transform="translate(-7.66667 3.06358)"><path class="edge" d="M 0 0 V -3.06358 H 7.66667" /><rect class="sym" height="6" width="6" x="-3" y="-3" /><text class="lab" transform="translate(0 11)">3</text></g><g class="a11 leaf node n9 p0 sample" transform="translate(7.66667 3.06358)"><path class="edge" d="M 0 0 V -3.06358 H -7.66667" /><rect class="sym" height="6" width="6" x="-3" y="-3" /><text class="lab" transform="translate(0 11)">9</text></g><path class="edge" d="M 0 0 V -1.64615 H -11.5" /><circle class="sym" cx="0" cy="0" r="3" /><text class="lab rgt" transform="translate(3 -7.0)">11</text></g><path class="edge" d="M 0 0 V -4.59507 H 26.8333" /><circle class="sym" cx="0" cy="0" r="3" /><text class="lab lft" transform="translate(-3 -7.0)">12</text></g><g class="a15 c2 node n14 p0" transform="translate(26.8333 2.33895)"><g class="a14 leaf node n7 p0 sample" transform="translate(11.5 6.96585)"><path class="edge" d="M 0 0 V -6.96585 H -11.5" /><rect class="sym" height="6" width="6" x="-3" y="-3" /><text class="lab" transform="translate(0 11)">7</text></g><g class="a14 c2 node n13 p0" transform="translate(-11.5 1.93113)"><g class="a13 leaf node n1 p0 sample" transform="translate(-7.66667 5.03473)"><path class="edge" d="M 0 0 V -5.03473 H 7.66667" /><rect class="sym" height="6" width="6" x="-3" y="-3" /><text class="lab" transform="translate(0 11)">1</text></g><g class="a13 leaf node n5 p0 sample" transform="translate(7.66667 5.03473)"><path class="edge" d="M 0 0 V -5.03473 H -7.66667" /><rect class="sym" height="6" width="6" x="-3" y="-3" /><text class="lab" transform="translate(0 11)">5</text></g><path class="edge" d="M 0 0 V -1.93113 H 11.5" /><circle class="sym" cx="0" cy="0" r="3" /><text class="lab lft" transform="translate(-3 -7.0)">13</text></g><path class="edge" d="M 0 0 V -2.33895 H -26.8333" /><circle class="sym" cx="0" cy="0" r="3" /><text class="lab rgt" transform="translate(3 -7.0)">14</text></g><path class="edge" d="M 0 0 V -11.7344 H 0.0" /><circle class="sym" cx="0" cy="0" r="3" /><text class="lab lft" transform="translate(-3 -7.0)">15</text></g><path class="edge" d="M 0 0 V -23.0911 H 0.0" /><circle class="sym" cx="0" cy="0" r="3" /><text class="lab lft" transform="translate(-3 -7.0)">23</text></g><path class="edge" d="M 0 0 V -50.4697 H 43.125" /><circle class="sym" cx="0" cy="0" r="3" /><text class="lab lft" transform="translate(-3 -7.0)">32</text></g><circle class="sym" cx="0" cy="0" r="3" /><text class="lab" transform="translate(0 -11)">33</text></g></g></g><g class="tree t4" transform="translate(793.333 0)"><g class="plotbox"><g class="c2 node n33 p0 root" transform="translate(127.333 26.8)"><g class="a33 c2 node n31 p0" transform="translate(30.6667 63.5113)"><g class="a31 c1 node n29 p0" transform="translate(-7.66667 5.74677)"><g class="a29 c1 node n18 p0" transform="translate(0.0 11.717)"><g class="a18 leaf node n4 p0 sample" transform="translate(0.0 13.6249)"><path class="edge" d="M 0 0 V -13.6249 H 0.0" /><rect class="sym" height="6" width="6" x="-3" y="-3" /><text class="lab" transform="translate(0 11)">4</text></g><path class="edge" d="M 0 0 V -11.717 H 0.0" /><circle class="sym" cx="0" cy="0" r="3" /><text class="lab lft" transform="translate(-3 -7.0)">18</text></g><path class="edge" d="M 0 0 V -5.74677 H 7.66667" /><circle class="sym" cx="0" cy="0" r="3" /><text class="lab lft" transform="translate(-3 -7.0)">29</text></g><g class="a31 c1 node n25 p0" transform="translate(7.66667 9.16905)"><g class="a25 c1 node n21 p0" transform="translate(0.0 5.84831)"><g class="a21 leaf node n6 p0 sample" transform="translate(0.0 16.0714)"><path class="edge" d="M 0 0 V -16.0714 H 0.0" /><rect class="sym" height="6" width="6" x="-3" y="-3" /><text class="lab" transform="translate(0 11)">6</text></g><path class="edge" d="M 0 0 V -5.84831 H 0.0" /><circle class="sym" cx="0" cy="0" r="3" /><text class="lab lft" transform="translate(-3 -7.0)">21</text></g><path class="edge" d="M 0 0 V -9.16905 H -7.66667" /><circle class="sym" cx="0" cy="0" r="3" /><text class="lab rgt" transform="translate(3 -7.0)">25</text></g><path class="edge" d="M 0 0 V -63.5113 H -30.6667" /><circle class="sym" cx="0" cy="0" r="3" /><text class="lab rgt" transform="translate(3 -7.0)">31</text></g><g class="a33 c2 node n32 p0" transform="translate(-30.6667 50.4697)"><g class="a32 c1 node n23 p0" transform="translate(-30.6667 23.0911)"><g class="a23 c2 node n15 p0" transform="translate(0.0 11.7344)"><g class="a15 c2 node n12 p0" transform="translate(-26.8333 4.59507)"><g class="a12 leaf node n0 p0 sample" transform="translate(-11.5 4.70973)"><path class="edge" d="M 0 0 V -4.70973 H 11.5" /><rect class="sym" height="6" width="6" x="-3" y="-3" /><text class="lab" transform="translate(0 11)">0</text></g><g class="a12 c2 node n11 p0" transform="translate(11.5 1.64615)"><g class="a11 leaf node n3 p0 sample" transform="translate(-7.66667 3.06358)"><path class="edge" d="M 0 0 V -3.06358 H 7.66667" /><rect class="sym" height="6" width="6" x="-3" y="-3" /><text class="lab" transform="translate(0 11)">3</text></g><g class="a11 leaf node n9 p0 sample" transform="translate(7.66667 3.06358)"><path class="edge" d="M 0 0 V -3.06358 H -7.66667" /><rect class="sym" height="6" width="6" x="-3" y="-3" /><text class="lab" transform="translate(0 11)">9</text></g><path class="edge" d="M 0 0 V -1.64615 H -11.5" /><circle class="sym" cx="0" cy="0" r="3" /><text class="lab rgt" transform="translate(3 -7.0)">11</text></g><path class="edge" d="M 0 0 V -4.59507 H 26.8333" /><circle class="sym" cx="0" cy="0" r="3" /><text class="lab lft" transform="translate(-3 -7.0)">12</text></g><g class="a15 c2 node n14 p0" transform="translate(26.8333 2.33895)"><g class="a14 leaf node n7 p0 sample" transform="translate(11.5 6.96585)"><path class="edge" d="M 0 0 V -6.96585 H -11.5" /><rect class="sym" height="6" width="6" x="-3" y="-3" /><text class="lab" transform="translate(0 11)">7</text></g><g class="a14 c2 node n13 p0" transform="translate(-11.5 1.93113)"><g class="a13 leaf node n1 p0 sample" transform="translate(-7.66667 5.03473)"><path class="edge" d="M 0 0 V -5.03473 H 7.66667" /><rect class="sym" height="6" width="6" x="-3" y="-3" /><text class="lab" transform="translate(0 11)">1</text></g><g class="a13 leaf node n5 p0 sample" transform="translate(7.66667 5.03473)"><path class="edge" d="M 0 0 V -5.03473 H -7.66667" /><rect class="sym" height="6" width="6" x="-3" y="-3" /><text class="lab" transform="translate(0 11)">5</text></g><path class="edge" d="M 0 0 V -1.93113 H 11.5" /><circle class="sym" cx="0" cy="0" r="3" /><text class="lab lft" transform="translate(-3 -7.0)">13</text></g><path class="edge" d="M 0 0 V -2.33895 H -26.8333" /><circle class="sym" cx="0" cy="0" r="3" /><text class="lab rgt" transform="translate(3 -7.0)">14</text></g><path class="edge" d="M 0 0 V -11.7344 H 0.0" /><circle class="sym" cx="0" cy="0" r="3" /><text class="lab lft" transform="translate(-3 -7.0)">15</text></g><path class="edge" d="M 0 0 V -23.0911 H 30.6667" /><circle class="sym" cx="0" cy="0" r="3" /><text class="lab lft" transform="translate(-3 -7.0)">23</text></g><g class="a32 c1 node n30 p0" transform="translate(30.6667 16.0582)"><g class="a30 c1 node n20 p0" transform="translate(0.0 12.2951)"><g class="a20 c1 node n16 p0" transform="translate(0.0 5.53402)"><g class="a16 c2 node n10 p0" transform="translate(0.0 9.58668)"><g class="a10 leaf node n2 p0 sample" transform="translate(-7.66667 0.656344)"><path class="edge" d="M 0 0 V -0.656344 H 7.66667" /><rect class="sym" height="6" width="6" x="-3" y="-3" /><text class="lab" transform="translate(0 11)">2</text></g><g class="a10 leaf node n8 p0 sample" transform="translate(7.66667 0.656344)"><path class="edge" d="M 0 0 V -0.656344 H -7.66667" /><rect class="sym" height="6" width="6" x="-3" y="-3" /><text class="lab" transform="translate(0 11)">8</text></g><path class="edge" d="M 0 0 V -9.58668 H 0.0" /><circle class="sym" cx="0" cy="0" r="3" /><text class="lab lft" transform="translate(-3 -7.0)">10</text></g><path class="edge" d="M 0 0 V -5.53402 H 0.0" /><circle class="sym" cx="0" cy="0" r="3" /><text class="lab lft" transform="translate(-3 -7.0)">16</text></g><path class="edge" d="M 0 0 V -12.2951 H 0.0" /><circle class="sym" cx="0" cy="0" r="3" /><text class="lab lft" transform="translate(-3 -7.0)">20</text></g><path class="edge" d="M 0 0 V -16.0582 H -30.6667" /><circle class="sym" cx="0" cy="0" r="3" /><text class="lab rgt" transform="translate(3 -7.0)">30</text></g><path class="edge" d="M 0 0 V -50.4697 H 30.6667" /><circle class="sym" cx="0" cy="0" r="3" /><text class="lab lft" transform="translate(-3 -7.0)">32</text></g><circle class="sym" cx="0" cy="0" r="3" /><text class="lab" transform="translate(0 -11)">33</text></g></g></g><g class="tree t5" transform="translate(986.667 0)"><g class="plotbox"><g class="c2 node n33 p0 root" transform="translate(109.125 26.8)"><g class="a33 c2 node n31 p0" transform="translate(43.125 63.5113)"><g class="a31 c1 node n29 p0" transform="translate(-13.4167 5.74677)"><g class="a29 c2 node n18 p0" transform="translate(0.0 11.717)"><g class="a18 leaf node n4 p0 sample" transform="translate(11.5 13.6249)"><path class="edge" d="M 0 0 V -13.6249 H -11.5" /><rect class="sym" height="6" width="6" x="-3" y="-3" /><text class="lab" transform="translate(0 11)">4</text></g><g class="a18 c1 node n17 p0" transform="translate(-11.5 3.3819)"><g class="a17 c2 node n10 p0" transform="translate(0.0 9.58668)"><g class="a10 leaf node n2 p0 sample" transform="translate(-7.66667 0.656344)"><path class="edge" d="M 0 0 V -0.656344 H 7.66667" /><rect class="sym" height="6" width="6" x="-3" y="-3" /><text class="lab" transform="translate(0 11)">2</text></g><g class="a10 leaf node n8 p0 sample" transform="translate(7.66667 0.656344)"><path class="edge" d="M 0 0 V -0.656344 H -7.66667" /><rect class="sym" height="6" width="6" x="-3" y="-3" /><text class="lab" transform="translate(0 11)">8</text></g><path class="edge" d="M 0 0 V -9.58668 H 0.0" /><circle class="sym" cx="0" cy="0" r="3" /><text class="lab lft" transform="translate(-3 -7.0)">10</text></g><path class="edge" d="M 0 0 V -3.3819 H 11.5" /><circle class="sym" cx="0" cy="0" r="3" /><text class="lab lft" transform="translate(-3 -7.0)">17</text></g><path class="edge" d="M 0 0 V -11.717 H 0.0" /><circle class="sym" cx="0" cy="0" r="3" /><text class="lab lft" transform="translate(-3 -7.0)">18</text></g><path class="edge" d="M 0 0 V -5.74677 H 13.4167" /><circle class="sym" cx="0" cy="0" r="3" /><text class="lab lft" transform="translate(-3 -7.0)">29</text></g><g class="a31 c1 node n25 p0" transform="translate(13.4167 9.16905)"><g class="a25 c1 node n21 p0" transform="translate(0.0 5.84831)"><g class="a21 leaf node n6 p0 sample" transform="translate(0.0 16.0714)"><path class="edge" d="M 0 0 V -16.0714 H 0.0" /><rect class="sym" height="6" width="6" x="-3" y="-3" /><text class="lab" transform="translate(0 11)">6</text></g><path class="edge" d="M 0 0 V -5.84831 H 0.0" /><circle class="sym" cx="0" cy="0" r="3" /><text class="lab lft" transform="translate(-3 -7.0)">21</text></g><path class="edge" d="M 0 0 V -9.16905 H -13.4167" /><circle class="sym" cx="0" cy="0" r="3" /><text class="lab rgt" transform="translate(3 -7.0)">25</text></g><path class="edge" d="M 0 0 V -63.5113 H -43.125" /><circle class="sym" cx="0" cy="0" r="3" /><text class="lab rgt" transform="translate(3 -7.0)">31</text></g><g class="a33 c1 node n32 p0" transform="translate(-43.125 50.4697)"><g class="a32 c1 node n23 p0" transform="translate(0.0 23.0911)"><g class="a23 c2 node n15 p0" transform="translate(0.0 11.7344)"><g class="a15 c2 node n12 p0" transform="translate(-26.8333 4.59507)"><g class="a12 leaf node n0 p0 sample" transform="translate(-11.5 4.70973)"><path class="edge" d="M 0 0 V -4.70973 H 11.5" /><rect class="sym" height="6" width="6" x="-3" y="-3" /><text class="lab" transform="translate(0 11)">0</text></g><g class="a12 c2 node n11 p0" transform="translate(11.5 1.64615)"><g class="a11 leaf node n3 p0 sample" transform="translate(-7.66667 3.06358)"><path class="edge" d="M 0 0 V -3.06358 H 7.66667" /><rect class="sym" height="6" width="6" x="-3" y="-3" /><text class="lab" transform="translate(0 11)">3</text></g><g class="a11 leaf node n9 p0 sample" transform="translate(7.66667 3.06358)"><path class="edge" d="M 0 0 V -3.06358 H -7.66667" /><rect class="sym" height="6" width="6" x="-3" y="-3" /><text class="lab" transform="translate(0 11)">9</text></g><path class="edge" d="M 0 0 V -1.64615 H -11.5" /><circle class="sym" cx="0" cy="0" r="3" /><text class="lab rgt" transform="translate(3 -7.0)">11</text></g><path class="edge" d="M 0 0 V -4.59507 H 26.8333" /><circle class="sym" cx="0" cy="0" r="3" /><text class="lab lft" transform="translate(-3 -7.0)">12</text></g><g class="a15 c2 node n14 p0" transform="translate(26.8333 2.33895)"><g class="a14 leaf node n7 p0 sample" transform="translate(11.5 6.96585)"><path class="edge" d="M 0 0 V -6.96585 H -11.5" /><rect class="sym" height="6" width="6" x="-3" y="-3" /><text class="lab" transform="translate(0 11)">7</text></g><g class="a14 c2 node n13 p0" transform="translate(-11.5 1.93113)"><g class="a13 leaf node n1 p0 sample" transform="translate(-7.66667 5.03473)"><path class="edge" d="M 0 0 V -5.03473 H 7.66667" /><rect class="sym" height="6" width="6" x="-3" y="-3" /><text class="lab" transform="translate(0 11)">1</text></g><g class="a13 leaf node n5 p0 sample" transform="translate(7.66667 5.03473)"><path class="edge" d="M 0 0 V -5.03473 H -7.66667" /><rect class="sym" height="6" width="6" x="-3" y="-3" /><text class="lab" transform="translate(0 11)">5</text></g><path class="edge" d="M 0 0 V -1.93113 H 11.5" /><circle class="sym" cx="0" cy="0" r="3" /><text class="lab lft" transform="translate(-3 -7.0)">13</text></g><path class="edge" d="M 0 0 V -2.33895 H -26.8333" /><circle class="sym" cx="0" cy="0" r="3" /><text class="lab rgt" transform="translate(3 -7.0)">14</text></g><path class="edge" d="M 0 0 V -11.7344 H 0.0" /><circle class="sym" cx="0" cy="0" r="3" /><text class="lab lft" transform="translate(-3 -7.0)">15</text></g><path class="edge" d="M 0 0 V -23.0911 H 0.0" /><circle class="sym" cx="0" cy="0" r="3" /><text class="lab lft" transform="translate(-3 -7.0)">23</text></g><path class="edge" d="M 0 0 V -50.4697 H 43.125" /><circle class="sym" cx="0" cy="0" r="3" /><text class="lab lft" transform="translate(-3 -7.0)">32</text></g><circle class="sym" cx="0" cy="0" r="3" /><text class="lab" transform="translate(0 -11)">33</text></g></g></g></g></g></svg>
