<svg baseProfile="full" height="200" version="1.1" width="1400" xmlns="http://www.w3.org/2000/svg" xmlns:ev="http://www.w3.org/2001/xml-events" xmlns:xlink="http://www.w3.org/1999/xlink"><defs><style type="text/css"><![CDATA[.background path {fill: #808080; fill-opacity: 0}.background path:nth-child(odd) {fill-opacity: .1}.axes {font-size: 14px}.x-axis .tick .lab {font-weight: bold; dominant-baseline: hanging}.axes, .tree {font-size: 14px; text-anchor: middle}.axes line, .edge {stroke: black; fill: none}.y-axis .grid {stroke: #FAFAFA}.node > .sym {fill: black; stroke: none}.site > .sym {stroke: black}.mut text {fill: red; font-style: italic}.mut.extra text {fill: hotpink}.mut line {fill: none; stroke: none}.mut .sym {fill: none; stroke: red}.mut.extra .sym {stroke: hotpink}.node .mut .sym {stroke-width: 1.5px}.tree text, .tree-sequence text {dominant-baseline: central}.plotbox .lab.lft {text-anchor: end}.plotbox .lab.rgt {text-anchor: start}]]></style></defs><g class="tree-sequence"><g class="background"><path d="M20,0 l194.286,0 l0,138.2 l216.073,25 l0,5 l-410.359,0 l0,-5 l0,-25 l0,-138.2z" /><path d="M214.286,0 l194.286,0 l0,138.2 l87.0837,25 l0,5 l-65.2963,0 l0,-5 l-216.073,-25 l0,-138.2z" /><path d="M408.571,0 l194.286,0 l0,138.2 l196.851,25 l0,5 l-304.053,0 l0,-5 l-87.0837,-25 l0,-138.2z" /><path d="M602.857,0 l194.286,0 l0,138.2 l47.0895,25 l0,5 l-44.5241,0 l0,-5 l-196.851,-25 l0,-138.2z" /><path d="M797.143,0 l194.286,0 l0,138.2 l81.9932,25 l0,5 l-229.189,0 l0,-5 l-47.0895,-25 l0,-138.2z" /><path d="M991.429,0 l194.286,0 l0,138.2 l-52.6741,25 l0,5 l-59.6184,0 l0,-5 l-81.9932,-25 l0,-138.2z" /><path d="M1185.71,0 l194.286,0 l0,138.2 l0,25 l0,5 l-246.96,0 l0,-5 l52.6741,-25 l0,-138.2z" /></g><g class="axes"><g class="x-axis"><g transform="translate(700 200)"><text class="lab" text-anchor="middle" transform="translate(0 -11)">Genome position</text></g><line x1="20" x2="1380" y1="163.2" y2="163.2" /><g class="ticks"><g class="tick" transform="translate(20 163.2)"><line x1="0" x2="0" y1="0" y2="5" /><g transform="translate(0 6)"><text class="lab">0.00</text></g></g><g class="tick" transform="translate(430.359 163.2)"><line x1="0" x2="0" y1="0" y2="5" /><g transform="translate(0 6)"><text class="lab">301.73</text></g></g><g class="tick" transform="translate(495.655 163.2)"><line x1="0" x2="0" y1="0" y2="5" /><g transform="translate(0 6)"><text class="lab">349.75</text></g></g><g class="tick" transform="translate(799.708 163.2)"><line x1="0" x2="0" y1="0" y2="5" /><g transform="translate(0 6)"><text class="lab">573.31</text></g></g><g class="tick" transform="translate(844.232 163.2)"><line x1="0" x2="0" y1="0" y2="5" /><g transform="translate(0 6)"><text class="lab">606.05</text></g></g><g class="tick" transform="translate(1073.42 163.2)"><line x1="0" x2="0" y1="0" y2="5" /><g transform="translate(0 6)"><text class="lab">774.57</text></g></g><g class="tick" transform="translate(1133.04 163.2)"><line x1="0" x2="0" y1="0" y2="5" /><g transform="translate(0 6)"><text class="lab">818.41</text></g></g><g class="tick" transform="translate(1380 163.2)"><line x1="0" x2="0" y1="0" y2="5" /><g transform="translate(0 6)"><text class="lab">1000.00</text></g></g></g></g></g><g class="plotbox trees"><g class="tree t0" transform="translate(20 0)"><g class="plotbox"><g class="c2 node n36 p0 root" transform="translate(72.3125 26.8)"><g class="a36 c1 node n34 p0" transform="translate(44.5982 44.2868)"><g class="a34 c2 node n31 p0" transform="translate(0.0 11.695)"><g class="a31 c1 node n24 p0" transform="translate(26.5179 10.1301)"><g class="a24 c1 node n19 p0" transform="translate(0.0 5.56612)"><g class="a19 c2 node n18 p0" transform="translate(0.0 1.97373)"><g class="a18 c2 node n10 p0" transform="translate(-15.4286 19.1858)"><g class="a10 leaf node n2 p0 sample" transform="translate(-7.71429 1.76246)"><path class="edge" d="M 0 0 V -1.76246 H 7.71429" /><rect class="sym" height="6" width="6" x="-3" y="-3" /><text class="lab" transform="translate(0 11)">2</text></g><g class="a10 leaf node n6 p0 sample" transform="translate(7.71429 1.76246)"><path class="edge" d="M 0 0 V -1.76246 H -7.71429" /><rect class="sym" height="6" width="6" x="-3" y="-3" /><text class="lab" transform="translate(0 11)">6</text></g><path class="edge" d="M 0 0 V -19.1858 H 15.4286" /><circle class="sym" cx="0" cy="0" r="3" /><text class="lab lft" transform="translate(-3 -7.0)">10</text></g><g class="a18 c2 node n17 p0" transform="translate(15.4286 4.34487)"><g class="a17 leaf node n7 p0 sample" transform="translate(7.71429 16.6034)"><path class="edge" d="M 0 0 V -16.6034 H -7.71429" /><rect class="sym" height="6" width="6" x="-3" y="-3" /><text class="lab" transform="translate(0 11)">7</text></g><g class="a17 c1 node n13 p0" transform="translate(-7.71429 10.4827)"><g class="a13 leaf node n5 p0 sample" transform="translate(0.0 6.12069)"><path class="edge" d="M 0 0 V -6.12069 H 0.0" /><rect class="sym" height="6" width="6" x="-3" y="-3" /><text class="lab" transform="translate(0 11)">5</text></g><path class="edge" d="M 0 0 V -10.4827 H 7.71429" /><circle class="sym" cx="0" cy="0" r="3" /><text class="lab lft" transform="translate(-3 -7.0)">13</text></g><path class="edge" d="M 0 0 V -4.34487 H -15.4286" /><circle class="sym" cx="0" cy="0" r="3" /><text class="lab rgt" transform="translate(3 -7.0)">17</text></g><path class="edge" d="M 0 0 V -1.97373 H 0.0" /><circle class="sym" cx="0" cy="0" r="3" /><text class="lab lft" transform="translate(-3 -7.0)">18</text></g><path class="edge" d="M 0 0 V -5.56612 H 0.0" /><circle class="sym" cx="0" cy="0" r="3" /><text class="lab lft" transform="translate(-3 -7.0)">19</text></g><path class="edge" d="M 0 0 V -10.1301 H -26.5179" /><circle class="sym" cx="0" cy="0" r="3" /><text class="lab rgt" transform="translate(3 -7.0)">24</text></g><g class="a31 c2 node n26 p0" transform="translate(-26.5179 8.80343)"><g class="a26 leaf node n9 p0 sample" transform="translate(14.4643 29.8148)"><path class="edge" d="M 0 0 V -29.8148 H -14.4643" /><rect class="sym" height="6" width="6" x="-3" y="-3" /><text class="lab" transform="translate(0 11)">9</text></g><g class="a26 c2 node n25 p0" transform="translate(-14.4643 1.14559)"><g class="a25 c1 node n11 p0" transform="translate(13.5 24.0483)"><g class="a11 leaf node n3 p0 sample" transform="translate(0.0 4.62087)"><path class="edge" d="M 0 0 V -4.62087 H 0.0" /><rect class="sym" height="6" width="6" x="-3" y="-3" /><text class="lab" transform="translate(0 11)">3</text></g><path class="edge" d="M 0 0 V -24.0483 H -13.5" /><circle class="sym" cx="0" cy="0" r="3" /><text class="lab rgt" transform="translate(3 -7.0)">11</text></g><g class="a25 c2 node n23 p0" transform="translate(-13.5 2.93195)"><g class="a23 c2 node n14 p0" transform="translate(-11.5714 12.3727)"><g class="a14 leaf node n1 p0 sample" transform="translate(-7.71429 13.3645)"><path class="edge" d="M 0 0 V -13.3645 H 7.71429" /><rect class="sym" height="6" width="6" x="-3" y="-3" /><text class="lab" transform="translate(0 11)">1</text></g><g class="a14 leaf node n4 p0 sample" transform="translate(7.71429 13.3645)"><path class="edge" d="M 0 0 V -13.3645 H -7.71429" /><rect class="sym" height="6" width="6" x="-3" y="-3" /><text class="lab" transform="translate(0 11)">4</text></g><path class="edge" d="M 0 0 V -12.3727 H 11.5714" /><circle class="sym" cx="0" cy="0" r="3" /><text class="lab lft" transform="translate(-3 -7.0)">14</text></g><g class="a23 c1 node n21 p0" transform="translate(11.5714 1.57411)"><g class="a21 leaf node n8 p0 sample" transform="translate(0.0 24.1631)"><path class="edge" d="M 0 0 V -24.1631 H 0.0" /><rect class="sym" height="6" width="6" x="-3" y="-3" /><text class="lab" transform="translate(0 11)">8</text></g><path class="edge" d="M 0 0 V -1.57411 H -11.5714" /><circle class="sym" cx="0" cy="0" r="3" /><text class="lab rgt" transform="translate(3 -7.0)">21</text></g><path class="edge" d="M 0 0 V -2.93195 H 13.5" /><circle class="sym" cx="0" cy="0" r="3" /><text class="lab lft" transform="translate(-3 -7.0)">23</text></g><path class="edge" d="M 0 0 V -1.14559 H 14.4643" /><circle class="sym" cx="0" cy="0" r="3" /><text class="lab lft" transform="translate(-3 -7.0)">25</text></g><path class="edge" d="M 0 0 V -8.80343 H 26.5179" /><circle class="sym" cx="0" cy="0" r="3" /><text class="lab lft" transform="translate(-3 -7.0)">26</text></g><path class="edge" d="M 0 0 V -11.695 H 0.0" /><circle class="sym" cx="0" cy="0" r="3" /><text class="lab lft" transform="translate(-3 -7.0)">31</text></g><path class="edge" d="M 0 0 V -44.2868 H -44.5982" /><circle class="sym" cx="0" cy="0" r="3" /><text class="lab rgt" transform="translate(3 -7.0)">34</text></g><g class="a36 c1 node n35 p0" transform="translate(-44.5982 28.8466)"><g class="a35 c1 node n33 p0" transform="translate(0.0 21.845)"><g class="a33 c1 node n15 p0" transform="translate(0.0 29.4794)"><g class="a15 leaf node n0 p0 sample" transform="translate(0.0 14.4289)"><path class="edge" d="M 0 0 V -14.4289 H 0.0" /><rect class="sym" height="6" width="6" x="-3" y="-3" /><text class="lab" transform="translate(0 11)">0</text></g><path class="edge" d="M 0 0 V -29.4794 H 0.0" /><circle class="sym" cx="0" cy="0" r="3" /><text class="lab lft" transform="translate(-3 -7.0)">15</text></g><path class="edge" d="M 0 0 V -21.845 H 0.0" /><circle class="sym" cx="0" cy="0" r="3" /><text class="lab lft" transform="translate(-3 -7.0)">33</text></g><path class="edge" d="M 0 0 V -28.8466 H 44.5982" /><circle class="sym" cx="0" cy="0" r="3" /><text class="lab lft" transform="translate(-3 -7.0)">35</text></g><circle class="sym" cx="0" cy="0" r="3" /><text class="lab" transform="translate(0 -11)">36</text></g></g></g><g class="tree t1" transform="translate(214.286 0)"><g class="plotbox"><g class="c2 node n36 p0 root" transform="translate(66.2857 26.8)"><g class="a36 c1 node n34 p0" transform="translate(38.5714 44.2868)"><g class="a34 c2 node n31 p0" transform="translate(0.0 11.695)"><g class="a31 c1 node n24 p0" transform="translate(28.9286 10.1301)"><g class="a24 c1 node n19 p0" transform="translate(0.0 5.56612)"><g class="a19 c2 node n18 p0" transform="translate(0.0 1.97373)"><g class="a18 c2 node n10 p0" transform="translate(-21.2143 19.1858)"><g class="a10 leaf node n2 p0 sample" transform="translate(-7.71429 1.76246)"><path class="edge" d="M 0 0 V -1.76246 H 7.71429" /><rect class="sym" height="6" width="6" x="-3" y="-3" /><text class="lab" transform="translate(0 11)">2</text></g><g class="a10 leaf node n6 p0 sample" transform="translate(7.71429 1.76246)"><path class="edge" d="M 0 0 V -1.76246 H -7.71429" /><rect class="sym" height="6" width="6" x="-3" y="-3" /><text class="lab" transform="translate(0 11)">6</text></g><path class="edge" d="M 0 0 V -19.1858 H 21.2143" /><circle class="sym" cx="0" cy="0" r="3" /><text class="lab lft" transform="translate(-3 -7.0)">10</text></g><g class="a18 c2 node n17 p0" transform="translate(21.2143 4.34487)"><g class="a17 leaf node n7 p0 sample" transform="translate(11.5714 16.6034)"><path class="edge" d="M 0 0 V -16.6034 H -11.5714" /><rect class="sym" height="6" width="6" x="-3" y="-3" /><text class="lab" transform="translate(0 11)">7</text></g><g class="a17 c2 node n13 p0" transform="translate(-11.5714 10.4827)"><g class="a13 leaf node n5 p0 sample" transform="translate(7.71429 6.12069)"><path class="edge" d="M 0 0 V -6.12069 H -7.71429" /><rect class="sym" height="6" width="6" x="-3" y="-3" /><text class="lab" transform="translate(0 11)">5</text></g><g class="a13 c1 node n12 p0" transform="translate(-7.71429 1.49982)"><g class="a12 leaf node n3 p0 sample" transform="translate(0.0 4.62087)"><path class="edge" d="M 0 0 V -4.62087 H 0.0" /><rect class="sym" height="6" width="6" x="-3" y="-3" /><text class="lab" transform="translate(0 11)">3</text></g><path class="edge" d="M 0 0 V -1.49982 H 7.71429" /><circle class="sym" cx="0" cy="0" r="3" /><text class="lab lft" transform="translate(-3 -7.0)">12</text></g><path class="edge" d="M 0 0 V -10.4827 H 11.5714" /><circle class="sym" cx="0" cy="0" r="3" /><text class="lab lft" transform="translate(-3 -7.0)">13</text></g><path class="edge" d="M 0 0 V -4.34487 H -21.2143" /><circle class="sym" cx="0" cy="0" r="3" /><text class="lab rgt" transform="translate(3 -7.0)">17</text></g><path class="edge" d="M 0 0 V -1.97373 H 0.0" /><circle class="sym" cx="0" cy="0" r="3" /><text class="lab lft" transform="translate(-3 -7.0)">18</text></g><path class="edge" d="M 0 0 V -5.56612 H 0.0" /><circle class="sym" cx="0" cy="0" r="3" /><text class="lab lft" transform="translate(-3 -7.0)">19</text></g><path class="edge" d="M 0 0 V -10.1301 H -28.9286" /><circle class="sym" cx="0" cy="0" r="3" /><text class="lab rgt" transform="translate(3 -7.0)">24</text></g><g class="a31 c2 node n26 p0" transform="translate(-28.9286 8.80343)"><g class="a26 leaf node n9 p0 sample" transform="translate(13.5 29.8148)"><path class="edge" d="M 0 0 V -29.8148 H -13.5" /><rect class="sym" height="6" width="6" x="-3" y="-3" /><text class="lab" transform="translate(0 11)">9</text></g><g class="a26 c1 node n25 p0" transform="translate(-13.5 1.14559)"><g class="a25 c2 node n23 p0" transform="translate(0.0 2.93195)"><g class="a23 c2 node n14 p0" transform="translate(-11.5714 12.3727)"><g class="a14 leaf node n1 p0 sample" transform="translate(-7.71429 13.3645)"><path class="edge" d="M 0 0 V -13.3645 H 7.71429" /><rect class="sym" height="6" width="6" x="-3" y="-3" /><text class="lab" transform="translate(0 11)">1</text></g><g class="a14 leaf node n4 p0 sample" transform="translate(7.71429 13.3645)"><path class="edge" d="M 0 0 V -13.3645 H -7.71429" /><rect class="sym" height="6" width="6" x="-3" y="-3" /><text class="lab" transform="translate(0 11)">4</text></g><path class="edge" d="M 0 0 V -12.3727 H 11.5714" /><circle class="sym" cx="0" cy="0" r="3" /><text class="lab lft" transform="translate(-3 -7.0)">14</text></g><g class="a23 c1 node n21 p0" transform="translate(11.5714 1.57411)"><g class="a21 leaf node n8 p0 sample" transform="translate(0.0 24.1631)"><path class="edge" d="M 0 0 V -24.1631 H 0.0" /><rect class="sym" height="6" width="6" x="-3" y="-3" /><text class="lab" transform="translate(0 11)">8</text></g><path class="edge" d="M 0 0 V -1.57411 H -11.5714" /><circle class="sym" cx="0" cy="0" r="3" /><text class="lab rgt" transform="translate(3 -7.0)">21</text></g><path class="edge" d="M 0 0 V -2.93195 H 0.0" /><circle class="sym" cx="0" cy="0" r="3" /><text class="lab lft" transform="translate(-3 -7.0)">23</text></g><path class="edge" d="M 0 0 V -1.14559 H 13.5" /><circle class="sym" cx="0" cy="0" r="3" /><text class="lab lft" transform="translate(-3 -7.0)">25</text></g><path class="edge" d="M 0 0 V -8.80343 H 28.9286" /><circle class="sym" cx="0" cy="0" r="3" /><text class="lab lft" transform="translate(-3 -7.0)">26</text></g><path class="edge" d="M 0 0 V -11.695 H 0.0" /><circle class="sym" cx="0" cy="0" r="3" /><text class="lab lft" transform="translate(-3 -7.0)">31</text></g><path class="edge" d="M 0 0 V -44.2868 H -38.5714" /><circle class="sym" cx="0" cy="0" r="3" /><text class="lab rgt" transform="translate(3 -7.0)">34</text></g><g class="a36 c1 node n35 p0" transform="translate(-38.5714 28.8466)"><g class="a35 c1 node n33 p0" transform="translate(0.0 21.845)"><g class="a33 c1 node n15 p0" transform="translate(0.0 29.4794)"><g class="a15 leaf node n0 p0 sample" transform="translate(0.0 14.4289)"><path class="edge" d="M 0 0 V -14.4289 H 0.0" /><rect class="sym" height="6" width="6" x="-3" y="-3" /><text class="lab" transform="translate(0 11)">0</text></g><path class="edge" d="M 0 0 V -29.4794 H 0.0" /><circle class="sym" cx="0" cy="0" r="3" /><text class="lab lft" transform="translate(-3 -7.0)">15</text></g><path class="edge" d="M 0 0 V -21.845 H 0.0" /><circle class="sym" cx="0" cy="0" r="3" /><text class="lab lft" transform="translate(-3 -7.0)">33</text></g><path class="edge" d="M 0 0 V -28.8466 H 38.5714" /><circle class="sym" cx="0" cy="0" r="3" /><text class="lab lft" transform="translate(-3 -7.0)">35</text></g><circle class="sym" cx="0" cy="0" r="3" /><text class="lab" transform="translate(0 -11)">36</text></g></g></g><g class="tree t2" transform="translate(408.571 0)"><g class="plotbox"><g class="c2 node n36 p0 root" transform="translate(101.482 26.8)"><g class="a36 c1 node n34 p0" transform="translate(51.5893 44.2868)"><g class="a34 c1 node n31 p0" transform="translate(0.0 11.695)"><g class="a31 c2 node n26 p0" transform="translate(0.0 8.80343)"><g class="a26 leaf node n9 p0 sample" transform="translate(13.5 29.8148)"><path class="edge" d="M 0 0 V -29.8148 H -13.5" /><rect class="sym" height="6" width="6" x="-3" y="-3" /><text class="lab" transform="translate(0 11)">9</text></g><g class="a26 c1 node n25 p0" transform="translate(-13.5 1.14559)"><g class="a25 c2 node n23 p0" transform="translate(0.0 2.93195)"><g class="a23 c2 node n14 p0" transform="translate(-11.5714 12.3727)"><g class="a14 leaf node n1 p0 sample" transform="translate(-7.71429 13.3645)"><path class="edge" d="M 0 0 V -13.3645 H 7.71429" /><rect class="sym" height="6" width="6" x="-3" y="-3" /><text class="lab" transform="translate(0 11)">1</text></g><g class="a14 leaf node n4 p0 sample" transform="translate(7.71429 13.3645)"><path class="edge" d="M 0 0 V -13.3645 H -7.71429" /><rect class="sym" height="6" width="6" x="-3" y="-3" /><text class="lab" transform="translate(0 11)">4</text></g><path class="edge" d="M 0 0 V -12.3727 H 11.5714" /><circle class="sym" cx="0" cy="0" r="3" /><text class="lab lft" transform="translate(-3 -7.0)">14</text></g><g class="a23 c1 node n21 p0" transform="translate(11.5714 1.57411)"><g class="a21 leaf node n8 p0 sample" transform="translate(0.0 24.1631)"><path class="edge" d="M 0 0 V -24.1631 H 0.0" /><rect class="sym" height="6" width="6" x="-3" y="-3" /><text class="lab" transform="translate(0 11)">8</text></g><path class="edge" d="M 0 0 V -1.57411 H -11.5714" /><circle class="sym" cx="0" cy="0" r="3" /><text class="lab rgt" transform="translate(3 -7.0)">21</text></g><path class="edge" d="M 0 0 V -2.93195 H 0.0" /><circle class="sym" cx="0" cy="0" r="3" /><text class="lab lft" transform="translate(-3 -7.0)">23</text></g><path class="edge" d="M 0 0 V -1.14559 H 13.5" /><circle class="sym" cx="0" cy="0" r="3" /><text class="lab lft" transform="translate(-3 -7.0)">25</text></g><path class="edge" d="M 0 0 V -8.80343 H 0.0" /><circle class="sym" cx="0" cy="0" r="3" /><text class="lab lft" transform="translate(-3 -7.0)">26</text></g><path class="edge" d="M 0 0 V -11.695 H 0.0" /><circle class="sym" cx="0" cy="0" r="3" /><text class="lab lft" transform="translate(-3 -7.0)">31</text></g><path class="edge" d="M 0 0 V -44.2868 H -51.5893" /><circle class="sym" cx="0" cy="0" r="3" /><text class="lab rgt" transform="translate(3 -7.0)">34</text></g><g class="a36 c1 node n35 p0" transform="translate(-51.5893 28.8466)"><g class="a35 c2 node n33 p0" transform="translate(0.0 21.845)"><g class="a33 c1 node n15 p0" transform="translate(-22.1786 29.4794)"><g class="a15 leaf node n0 p0 sample" transform="translate(0.0 14.4289)"><path class="edge" d="M 0 0 V -14.4289 H 0.0" /><rect class="sym" height="6" width="6" x="-3" y="-3" /><text class="lab" transform="translate(0 11)">0</text></g><path class="edge" d="M 0 0 V -29.4794 H 22.1786" /><circle class="sym" cx="0" cy="0" r="3" /><text class="lab lft" transform="translate(-3 -7.0)">15</text></g><g class="a33 c1 node n29 p0" transform="translate(22.1786 5.3458)"><g class="a29 c1 node n20 p0" transform="translate(0.0 15.6405)"><g class="a20 c2 node n18 p0" transform="translate(0.0 1.97373)"><g class="a18 c2 node n10 p0" transform="translate(-21.2143 19.1858)"><g class="a10 leaf node n2 p0 sample" transform="translate(-7.71429 1.76246)"><path class="edge" d="M 0 0 V -1.76246 H 7.71429" /><rect class="sym" height="6" width="6" x="-3" y="-3" /><text class="lab" transform="translate(0 11)">2</text></g><g class="a10 leaf node n6 p0 sample" transform="translate(7.71429 1.76246)"><path class="edge" d="M 0 0 V -1.76246 H -7.71429" /><rect class="sym" height="6" width="6" x="-3" y="-3" /><text class="lab" transform="translate(0 11)">6</text></g><path class="edge" d="M 0 0 V -19.1858 H 21.2143" /><circle class="sym" cx="0" cy="0" r="3" /><text class="lab lft" transform="translate(-3 -7.0)">10</text></g><g class="a18 c2 node n17 p0" transform="translate(21.2143 4.34487)"><g class="a17 leaf node n7 p0 sample" transform="translate(11.5714 16.6034)"><path class="edge" d="M 0 0 V -16.6034 H -11.5714" /><rect class="sym" height="6" width="6" x="-3" y="-3" /><text class="lab" transform="translate(0 11)">7</text></g><g class="a17 c2 node n13 p0" transform="translate(-11.5714 10.4827)"><g class="a13 leaf node n5 p0 sample" transform="translate(7.71429 6.12069)"><path class="edge" d="M 0 0 V -6.12069 H -7.71429" /><rect class="sym" height="6" width="6" x="-3" y="-3" /><text class="lab" transform="translate(0 11)">5</text></g><g class="a13 c1 node n12 p0" transform="translate(-7.71429 1.49982)"><g class="a12 leaf node n3 p0 sample" transform="translate(0.0 4.62087)"><path class="edge" d="M 0 0 V -4.62087 H 0.0" /><rect class="sym" height="6" width="6" x="-3" y="-3" /><text class="lab" transform="translate(0 11)">3</text></g><path class="edge" d="M 0 0 V -1.49982 H 7.71429" /><circle class="sym" cx="0" cy="0" r="3" /><text class="lab lft" transform="translate(-3 -7.0)">12</text></g><path class="edge" d="M 0 0 V -10.4827 H 11.5714" /><circle class="sym" cx="0" cy="0" r="3" /><text class="lab lft" transform="translate(-3 -7.0)">13</text></g><path class="edge" d="M 0 0 V -4.34487 H -21.2143" /><circle class="sym" cx="0" cy="0" r="3" /><text class="lab rgt" transform="translate(3 -7.0)">17</text></g><path class="edge" d="M 0 0 V -1.97373 H 0.0" /><circle class="sym" cx="0" cy="0" r="3" /><text class="lab lft" transform="translate(-3 -7.0)">18</text></g><path class="edge" d="M 0 0 V -15.6405 H 0.0" /><circle class="sym" cx="0" cy="0" r="3" /><text class="lab lft" transform="translate(-3 -7.0)">20</text></g><path class="edge" d="M 0 0 V -5.3458 H -22.1786" /><circle class="sym" cx="0" cy="0" r="3" /><text class="lab rgt" transform="translate(3 -7.0)">29</text></g><path class="edge" d="M 0 0 V -21.845 H 0.0" /><circle class="sym" cx="0" cy="0" r="3" /><text class="lab lft" transform="translate(-3 -7.0)">33</text></g><path class="edge" d="M 0 0 V -28.8466 H 51.5893" /><circle class="sym" cx="0" cy="0" r="3" /><text class="lab lft" transform="translate(-3 -7.0)">35</text></g><circle class="sym" cx="0" cy="0" r="3" /><text class="lab" transform="translate(0 -11)">36</text></g></g></g><g class="tree t3" transform="translate(602.857 0)"><g class="plotbox"><g class="c2 node n36 p0 root" transform="translate(92.8036 26.8)"><g class="a36 c2 node n34 p0" transform="translate(-40.9821 44.2868)"><g class="a34 c1 node n31 p0" transform="translate(24.1071 11.695)"><g class="a31 c2 node n26 p0" transform="translate(0.0 8.80343)"><g class="a26 leaf node n9 p0 sample" transform="translate(13.5 29.8148)"><path class="edge" d="M 0 0 V -29.8148 H -13.5" /><rect class="sym" height="6" width="6" x="-3" y="-3" /><text class="lab" transform="translate(0 11)">9</text></g><g class="a26 c1 node n25 p0" transform="translate(-13.5 1.14559)"><g class="a25 c2 node n23 p0" transform="translate(0.0 2.93195)"><g class="a23 c2 node n14 p0" transform="translate(-11.5714 12.3727)"><g class="a14 leaf node n1 p0 sample" transform="translate(-7.71429 13.3645)"><path class="edge" d="M 0 0 V -13.3645 H 7.71429" /><rect class="sym" height="6" width="6" x="-3" y="-3" /><text class="lab" transform="translate(0 11)">1</text></g><g class="a14 leaf node n4 p0 sample" transform="translate(7.71429 13.3645)"><path class="edge" d="M 0 0 V -13.3645 H -7.71429" /><rect class="sym" height="6" width="6" x="-3" y="-3" /><text class="lab" transform="translate(0 11)">4</text></g><path class="edge" d="M 0 0 V -12.3727 H 11.5714" /><circle class="sym" cx="0" cy="0" r="3" /><text class="lab lft" transform="translate(-3 -7.0)">14</text></g><g class="a23 c1 node n21 p0" transform="translate(11.5714 1.57411)"><g class="a21 leaf node n8 p0 sample" transform="translate(0.0 24.1631)"><path class="edge" d="M 0 0 V -24.1631 H 0.0" /><rect class="sym" height="6" width="6" x="-3" y="-3" /><text class="lab" transform="translate(0 11)">8</text></g><path class="edge" d="M 0 0 V -1.57411 H -11.5714" /><circle class="sym" cx="0" cy="0" r="3" /><text class="lab rgt" transform="translate(3 -7.0)">21</text></g><path class="edge" d="M 0 0 V -2.93195 H 0.0" /><circle class="sym" cx="0" cy="0" r="3" /><text class="lab lft" transform="translate(-3 -7.0)">23</text></g><path class="edge" d="M 0 0 V -1.14559 H 13.5" /><circle class="sym" cx="0" cy="0" r="3" /><text class="lab lft" transform="translate(-3 -7.0)">25</text></g><path class="edge" d="M 0 0 V -8.80343 H 0.0" /><circle class="sym" cx="0" cy="0" r="3" /><text class="lab lft" transform="translate(-3 -7.0)">26</text></g><path class="edge" d="M 0 0 V -11.695 H -24.1071" /><circle class="sym" cx="0" cy="0" r="3" /><text class="lab rgt" transform="translate(3 -7.0)">31</text></g><g class="a34 c1 node n27 p0" transform="translate(-24.1071 17.3899)"><g class="a27 c1 node n16 p0" transform="translate(0.0 18.4944)"><g class="a16 leaf node n0 p0 sample" transform="translate(0.0 14.4289)"><path class="edge" d="M 0 0 V -14.4289 H 0.0" /><rect class="sym" height="6" width="6" x="-3" y="-3" /><text class="lab" transform="translate(0 11)">0</text></g><path class="edge" d="M 0 0 V -18.4944 H 0.0" /><circle class="sym" cx="0" cy="0" r="3" /><text class="lab lft" transform="translate(-3 -7.0)">16</text></g><path class="edge" d="M 0 0 V -17.3899 H 24.1071" /><circle class="sym" cx="0" cy="0" r="3" /><text class="lab lft" transform="translate(-3 -7.0)">27</text></g><path class="edge" d="M 0 0 V -44.2868 H 40.9821" /><circle class="sym" cx="0" cy="0" r="3" /><text class="lab lft" transform="translate(-3 -7.0)">34</text></g><g class="a36 c1 node n35 p0" transform="translate(40.9821 28.8466)"><g class="a35 c1 node n33 p0" transform="translate(0.0 21.845)"><g class="a33 c1 node n29 p0" transform="translate(0.0 5.3458)"><g class="a29 c1 node n20 p0" transform="translate(0.0 15.6405)"><g class="a20 c2 node n18 p0" transform="translate(0.0 1.97373)"><g class="a18 c2 node n10 p0" transform="translate(-21.2143 19.1858)"><g class="a10 leaf node n2 p0 sample" transform="translate(-7.71429 1.76246)"><path class="edge" d="M 0 0 V -1.76246 H 7.71429" /><rect class="sym" height="6" width="6" x="-3" y="-3" /><text class="lab" transform="translate(0 11)">2</text></g><g class="a10 leaf node n6 p0 sample" transform="translate(7.71429 1.76246)"><path class="edge" d="M 0 0 V -1.76246 H -7.71429" /><rect class="sym" height="6" width="6" x="-3" y="-3" /><text class="lab" transform="translate(0 11)">6</text></g><path class="edge" d="M 0 0 V -19.1858 H 21.2143" /><circle class="sym" cx="0" cy="0" r="3" /><text class="lab lft" transform="translate(-3 -7.0)">10</text></g><g class="a18 c2 node n17 p0" transform="translate(21.2143 4.34487)"><g class="a17 leaf node n7 p0 sample" transform="translate(11.5714 16.6034)"><path class="edge" d="M 0 0 V -16.6034 H -11.5714" /><rect class="sym" height="6" width="6" x="-3" y="-3" /><text class="lab" transform="translate(0 11)">7</text></g><g class="a17 c2 node n13 p0" transform="translate(-11.5714 10.4827)"><g class="a13 leaf node n5 p0 sample" transform="translate(7.71429 6.12069)"><path class="edge" d="M 0 0 V -6.12069 H -7.71429" /><rect class="sym" height="6" width="6" x="-3" y="-3" /><text class="lab" transform="translate(0 11)">5</text></g><g class="a13 c1 node n12 p0" transform="translate(-7.71429 1.49982)"><g class="a12 leaf node n3 p0 sample" transform="translate(0.0 4.62087)"><path class="edge" d="M 0 0 V -4.62087 H 0.0" /><rect class="sym" height="6" width="6" x="-3" y="-3" /><text class="lab" transform="translate(0 11)">3</text></g><path class="edge" d="M 0 0 V -1.49982 H 7.71429" /><circle class="sym" cx="0" cy="0" r="3" /><text class="lab lft" transform="translate(-3 -7.0)">12</text></g><path class="edge" d="M 0 0 V -10.4827 H 11.5714" /><circle class="sym" cx="0" cy="0" r="3" /><text class="lab lft" transform="translate(-3 -7.0)">13</text></g><path class="edge" d="M 0 0 V -4.34487 H -21.2143" /><circle class="sym" cx="0" cy="0" r="3" /><text class="lab rgt" transform="translate(3 -7.0)">17</text></g><path class="edge" d="M 0 0 V -1.97373 H 0.0" /><circle class="sym" cx="0" cy="0" r="3" /><text class="lab lft" transform="translate(-3 -7.0)">18</text></g><path class="edge" d="M 0 0 V -15.6405 H 0.0" /><circle class="sym" cx="0" cy="0" r="3" /><text class="lab lft" transform="translate(-3 -7.0)">20</text></g><path class="edge" d="M 0 0 V -5.3458 H 0.0" /><circle class="sym" cx="0" cy="0" r="3" /><text class="lab lft" transform="translate(-3 -7.0)">29</text></g><path class="edge" d="M 0 0 V -21.845 H 0.0" /><circle class="sym" cx="0" cy="0" r="3" /><text class="lab lft" transform="translate(-3 -7.0)">33</text></g><path class="edge" d="M 0 0 V -28.8466 H -40.9821" /><circle class="sym" cx="0" cy="0" r="3" /><text class="lab rgt" transform="translate(3 -7.0)">35</text></g><circle class="sym" cx="0" cy="0" r="3" /><text class="lab" transform="translate(0 -11)">36</text></g></g></g><g class="tree t4" transform="translate(797.143 0)"><g class="plotbox"><g class="c2 node n36 p0 root" transform="translate(92.8036 26.8)"><g class="a36 c2 node n34 p0" transform="translate(-40.9821 44.2868)"><g class="a34 c1 node n31 p0" transform="translate(24.1071 11.695)"><g class="a31 c2 node n26 p0" transform="translate(0.0 8.80343)"><g class="a26 leaf node n9 p0 sample" transform="translate(13.5 29.8148)"><path class="edge" d="M 0 0 V -29.8148 H -13.5" /><rect class="sym" height="6" width="6" x="-3" y="-3" /><text class="lab" transform="translate(0 11)">9</text></g><g class="a26 c1 node n25 p0" transform="translate(-13.5 1.14559)"><g class="a25 c2 node n23 p0" transform="translate(0.0 2.93195)"><g class="a23 c2 node n14 p0" transform="translate(-11.5714 12.3727)"><g class="a14 leaf node n1 p0 sample" transform="translate(-7.71429 13.3645)"><path class="edge" d="M 0 0 V -13.3645 H 7.71429" /><rect class="sym" height="6" width="6" x="-3" y="-3" /><text class="lab" transform="translate(0 11)">1</text></g><g class="a14 leaf node n4 p0 sample" transform="translate(7.71429 13.3645)"><path class="edge" d="M 0 0 V -13.3645 H -7.71429" /><rect class="sym" height="6" width="6" x="-3" y="-3" /><text class="lab" transform="translate(0 11)">4</text></g><path class="edge" d="M 0 0 V -12.3727 H 11.5714" /><circle class="sym" cx="0" cy="0" r="3" /><text class="lab lft" transform="translate(-3 -7.0)">14</text></g><g class="a23 c1 node n21 p0" transform="translate(11.5714 1.57411)"><g class="a21 leaf node n8 p0 sample" transform="translate(0.0 24.1631)"><path class="edge" d="M 0 0 V -24.1631 H 0.0" /><rect class="sym" height="6" width="6" x="-3" y="-3" /><text class="lab" transform="translate(0 11)">8</text></g><path class="edge" d="M 0 0 V -1.57411 H -11.5714" /><circle class="sym" cx="0" cy="0" r="3" /><text class="lab rgt" transform="translate(3 -7.0)">21</text></g><path class="edge" d="M 0 0 V -2.93195 H 0.0" /><circle class="sym" cx="0" cy="0" r="3" /><text class="lab lft" transform="translate(-3 -7.0)">23</text></g><path class="edge" d="M 0 0 V -1.14559 H 13.5" /><circle class="sym" cx="0" cy="0" r="3" /><text class="lab lft" transform="translate(-3 -7.0)">25</text></g><path class="edge" d="M 0 0 V -8.80343 H 0.0" /><circle class="sym" cx="0" cy="0" r="3" /><text class="lab lft" transform="translate(-3 -7.0)">26</text></g><path class="edge" d="M 0 0 V -11.695 H -24.1071" /><circle class="sym" cx="0" cy="0" r="3" /><text class="lab rgt" transform="translate(3 -7.0)">31</text></g><g class="a34 c1 node n27 p0" transform="translate(-24.1071 17.3899)"><g class="a27 c1 node n16 p0" transform="translate(0.0 18.4944)"><g class="a16 leaf node n0 p0 sample" transform="translate(0.0 14.4289)"><path class="edge" d="M 0 0 V -14.4289 H 0.0" /><rect class="sym" height="6" width="6" x="-3" y="-3" /><text class="lab" transform="translate(0 11)">0</text></g><path class="edge" d="M 0 0 V -18.4944 H 0.0" /><circle class="sym" cx="0" cy="0" r="3" /><text class="lab lft" transform="translate(-3 -7.0)">16</text></g><path class="edge" d="M 0 0 V -17.3899 H 24.1071" /><circle class="sym" cx="0" cy="0" r="3" /><text class="lab lft" transform="translate(-3 -7.0)">27</text></g><path class="edge" d="M 0 0 V -44.2868 H 40.9821" /><circle class="sym" cx="0" cy="0" r="3" /><text class="lab lft" transform="translate(-3 -7.0)">34</text></g><g class="a36 c1 node n35 p0" transform="translate(40.9821 28.8466)"><g class="a35 c1 node n32 p0" transform="translate(0.0 22.216)"><g class="a32 c1 node n30 p0" transform="translate(0.0 4.97488)"><g class="a30 c1 node n20 p0" transform="translate(0.0 15.6405)"><g class="a20 c2 node n18 p0" transform="translate(0.0 1.97373)"><g class="a18 c2 node n10 p0" transform="translate(-21.2143 19.1858)"><g class="a10 leaf node n2 p0 sample" transform="translate(-7.71429 1.76246)"><path class="edge" d="M 0 0 V -1.76246 H 7.71429" /><rect class="sym" height="6" width="6" x="-3" y="-3" /><text class="lab" transform="translate(0 11)">2</text></g><g class="a10 leaf node n6 p0 sample" transform="translate(7.71429 1.76246)"><path class="edge" d="M 0 0 V -1.76246 H -7.71429" /><rect class="sym" height="6" width="6" x="-3" y="-3" /><text class="lab" transform="translate(0 11)">6</text></g><path class="edge" d="M 0 0 V -19.1858 H 21.2143" /><circle class="sym" cx="0" cy="0" r="3" /><text class="lab lft" transform="translate(-3 -7.0)">10</text></g><g class="a18 c2 node n17 p0" transform="translate(21.2143 4.34487)"><g class="a17 leaf node n7 p0 sample" transform="translate(11.5714 16.6034)"><path class="edge" d="M 0 0 V -16.6034 H -11.5714" /><rect class="sym" height="6" width="6" x="-3" y="-3" /><text class="lab" transform="translate(0 11)">7</text></g><g class="a17 c2 node n13 p0" transform="translate(-11.5714 10.4827)"><g class="a13 leaf node n5 p0 sample" transform="translate(7.71429 6.12069)"><path class="edge" d="M 0 0 V -6.12069 H -7.71429" /><rect class="sym" height="6" width="6" x="-3" y="-3" /><text class="lab" transform="translate(0 11)">5</text></g><g class="a13 c1 node n12 p0" transform="translate(-7.71429 1.49982)"><g class="a12 leaf node n3 p0 sample" transform="translate(0.0 4.62087)"><path class="edge" d="M 0 0 V -4.62087 H 0.0" /><rect class="sym" height="6" width="6" x="-3" y="-3" /><text class="lab" transform="translate(0 11)">3</text></g><path class="edge" d="M 0 0 V -1.49982 H 7.71429" /><circle class="sym" cx="0" cy="0" r="3" /><text class="lab lft" transform="translate(-3 -7.0)">12</text></g><path class="edge" d="M 0 0 V -10.4827 H 11.5714" /><circle class="sym" cx="0" cy="0" r="3" /><text class="lab lft" transform="translate(-3 -7.0)">13</text></g><path class="edge" d="M 0 0 V -4.34487 H -21.2143" /><circle class="sym" cx="0" cy="0" r="3" /><text class="lab rgt" transform="translate(3 -7.0)">17</text></g><path class="edge" d="M 0 0 V -1.97373 H 0.0" /><circle class="sym" cx="0" cy="0" r="3" /><text class="lab lft" transform="translate(-3 -7.0)">18</text></g><path class="edge" d="M 0 0 V -15.6405 H 0.0" /><circle class="sym" cx="0" cy="0" r="3" /><text class="lab lft" transform="translate(-3 -7.0)">20</text></g><path class="edge" d="M 0 0 V -4.97488 H 0.0" /><circle class="sym" cx="0" cy="0" r="3" /><text class="lab lft" transform="translate(-3 -7.0)">30</text></g><path class="edge" d="M 0 0 V -22.216 H 0.0" /><circle class="sym" cx="0" cy="0" r="3" /><text class="lab lft" transform="translate(-3 -7.0)">32</text></g><path class="edge" d="M 0 0 V -28.8466 H -40.9821" /><circle class="sym" cx="0" cy="0" r="3" /><text class="lab rgt" transform="translate(3 -7.0)">35</text></g><circle class="sym" cx="0" cy="0" r="3" /><text class="lab" transform="translate(0 -11)">36</text></g></g></g><g class="tree t5" transform="translate(991.429 0)"><g class="plotbox"><g class="c2 node n36 p0 root" transform="translate(101.482 26.8)"><g class="a36 c1 node n34 p0" transform="translate(51.5893 44.2868)"><g class="a34 c1 node n31 p0" transform="translate(0.0 11.695)"><g class="a31 c2 node n26 p0" transform="translate(0.0 8.80343)"><g class="a26 leaf node n9 p0 sample" transform="translate(13.5 29.8148)"><path class="edge" d="M 0 0 V -29.8148 H -13.5" /><rect class="sym" height="6" width="6" x="-3" y="-3" /><text class="lab" transform="translate(0 11)">9</text></g><g class="a26 c1 node n25 p0" transform="translate(-13.5 1.14559)"><g class="a25 c2 node n23 p0" transform="translate(0.0 2.93195)"><g class="a23 c2 node n14 p0" transform="translate(-11.5714 12.3727)"><g class="a14 leaf node n1 p0 sample" transform="translate(-7.71429 13.3645)"><path class="edge" d="M 0 0 V -13.3645 H 7.71429" /><rect class="sym" height="6" width="6" x="-3" y="-3" /><text class="lab" transform="translate(0 11)">1</text></g><g class="a14 leaf node n4 p0 sample" transform="translate(7.71429 13.3645)"><path class="edge" d="M 0 0 V -13.3645 H -7.71429" /><rect class="sym" height="6" width="6" x="-3" y="-3" /><text class="lab" transform="translate(0 11)">4</text></g><path class="edge" d="M 0 0 V -12.3727 H 11.5714" /><circle class="sym" cx="0" cy="0" r="3" /><text class="lab lft" transform="translate(-3 -7.0)">14</text></g><g class="a23 c1 node n21 p0" transform="translate(11.5714 1.57411)"><g class="a21 leaf node n8 p0 sample" transform="translate(0.0 24.1631)"><path class="edge" d="M 0 0 V -24.1631 H 0.0" /><rect class="sym" height="6" width="6" x="-3" y="-3" /><text class="lab" transform="translate(0 11)">8</text></g><path class="edge" d="M 0 0 V -1.57411 H -11.5714" /><circle class="sym" cx="0" cy="0" r="3" /><text class="lab rgt" transform="translate(3 -7.0)">21</text></g><path class="edge" d="M 0 0 V -2.93195 H 0.0" /><circle class="sym" cx="0" cy="0" r="3" /><text class="lab lft" transform="translate(-3 -7.0)">23</text></g><path class="edge" d="M 0 0 V -1.14559 H 13.5" /><circle class="sym" cx="0" cy="0" r="3" /><text class="lab lft" transform="translate(-3 -7.0)">25</text></g><path class="edge" d="M 0 0 V -8.80343 H 0.0" /><circle class="sym" cx="0" cy="0" r="3" /><text class="lab lft" transform="translate(-3 -7.0)">26</text></g><path class="edge" d="M 0 0 V -11.695 H 0.0" /><circle class="sym" cx="0" cy="0" r="3" /><text class="lab lft" transform="translate(-3 -7.0)">31</text></g><path class="edge" d="M 0 0 V -44.2868 H -51.5893" /><circle class="sym" cx="0" cy="0" r="3" /><text class="lab rgt" transform="translate(3 -7.0)">34</text></g><g class="a36 c1 node n35 p0" transform="translate(-51.5893 28.8466)"><g class="a35 c2 node n32 p0" transform="translate(0.0 22.216)"><g class="a32 c1 node n30 p0" transform="translate(22.1786 4.97488)"><g class="a30 c1 node n20 p0" transform="translate(0.0 15.6405)"><g class="a20 c2 node n18 p0" transform="translate(0.0 1.97373)"><g class="a18 c2 node n10 p0" transform="translate(-21.2143 19.1858)"><g class="a10 leaf node n2 p0 sample" transform="translate(-7.71429 1.76246)"><path class="edge" d="M 0 0 V -1.76246 H 7.71429" /><rect class="sym" height="6" width="6" x="-3" y="-3" /><text class="lab" transform="translate(0 11)">2</text></g><g class="a10 leaf node n6 p0 sample" transform="translate(7.71429 1.76246)"><path class="edge" d="M 0 0 V -1.76246 H -7.71429" /><rect class="sym" height="6" width="6" x="-3" y="-3" /><text class="lab" transform="translate(0 11)">6</text></g><path class="edge" d="M 0 0 V -19.1858 H 21.2143" /><circle class="sym" cx="0" cy="0" r="3" /><text class="lab lft" transform="translate(-3 -7.0)">10</text></g><g class="a18 c2 node n17 p0" transform="translate(21.2143 4.34487)"><g class="a17 leaf node n7 p0 sample" transform="translate(11.5714 16.6034)"><path class="edge" d="M 0 0 V -16.6034 H -11.5714" /><rect class="sym" height="6" width="6" x="-3" y="-3" /><text class="lab" transform="translate(0 11)">7</text></g><g class="a17 c2 node n13 p0" transform="translate(-11.5714 10.4827)"><g class="a13 leaf node n5 p0 sample" transform="translate(7.71429 6.12069)"><path class="edge" d="M 0 0 V -6.12069 H -7.71429" /><rect class="sym" height="6" width="6" x="-3" y="-3" /><text class="lab" transform="translate(0 11)">5</text></g><g class="a13 c1 node n12 p0" transform="translate(-7.71429 1.49982)"><g class="a12 leaf node n3 p0 sample" transform="translate(0.0 4.62087)"><path class="edge" d="M 0 0 V -4.62087 H 0.0" /><rect class="sym" height="6" width="6" x="-3" y="-3" /><text class="lab" transform="translate(0 11)">3</text></g><path class="edge" d="M 0 0 V -1.49982 H 7.71429" /><circle class="sym" cx="0" cy="0" r="3" /><text class="lab lft" transform="translate(-3 -7.0)">12</text></g><path class="edge" d="M 0 0 V -10.4827 H 11.5714" /><circle class="sym" cx="0" cy="0" r="3" /><text class="lab lft" transform="translate(-3 -7.0)">13</text></g><path class="edge" d="M 0 0 V -4.34487 H -21.2143" /><circle class="sym" cx="0" cy="0" r="3" /><text class="lab rgt" transform="translate(3 -7.0)">17</text></g><path class="edge" d="M 0 0 V -1.97373 H 0.0" /><circle class="sym" cx="0" cy="0" r="3" /><text class="lab lft" transform="translate(-3 -7.0)">18</text></g><path class="edge" d="M 0 0 V -15.6405 H 0.0" /><circle class="sym" cx="0" cy="0" r="3" /><text class="lab lft" transform="translate(-3 -7.0)">20</text></g><path class="edge" d="M 0 0 V -4.97488 H -22.1786" /><circle class="sym" cx="0" cy="0" r="3" /><text class="lab rgt" transform="translate(3 -7.0)">30</text></g><g class="a32 c1 node n28 p0" transform="translate(-22.1786 10.6141)"><g class="a28 c1 node n16 p0" transform="translate(0.0 18.4944)"><g class="a16 leaf node n0 p0 sample" transform="translate(0.0 14.4289)"><path class="edge" d="M 0 0 V -14.4289 H 0.0" /><rect class="sym" height="6" width="6" x="-3" y="-3" /><text class="lab" transform="translate(0 11)">0</text></g><path class="edge" d="M 0 0 V -18.4944 H 0.0" /><circle class="sym" cx="0" cy="0" r="3" /><text class="lab lft" transform="translate(-3 -7.0)">16</text></g><path class="edge" d="M 0 0 V -10.6141 H 22.1786" /><circle class="sym" cx="0" cy="0" r="3" /><text class="lab lft" transform="translate(-3 -7.0)">28</text></g><path class="edge" d="M 0 0 V -22.216 H 0.0" /><circle class="sym" cx="0" cy="0" r="3" /><text class="lab lft" transform="translate(-3 -7.0)">32</text></g><path class="edge" d="M 0 0 V -28.8466 H 51.5893" /><circle class="sym" cx="0" cy="0" r="3" /><text class="lab lft" transform="translate(-3 -7.0)">35</text></g><circle class="sym" cx="0" cy="0" r="3" /><text class="lab" transform="translate(0 -11)">36</text></g></g></g><g class="tree t6" transform="translate(1185.71 0)"><g class="plotbox"><g class="c2 node n36 p0 root" transform="translate(101.482 26.8)"><g class="a36 c1 node n34 p0" transform="translate(51.5893 44.2868)"><g class="a34 c2 node n31 p0" transform="translate(0.0 11.695)"><g class="a31 c2 node n26 p0" transform="translate(-13.5 8.80343)"><g class="a26 leaf node n9 p0 sample" transform="translate(11.5714 29.8148)"><path class="edge" d="M 0 0 V -29.8148 H -11.5714" /><rect class="sym" height="6" width="6" x="-3" y="-3" /><text class="lab" transform="translate(0 11)">9</text></g><g class="a26 c1 node n25 p0" transform="translate(-11.5714 1.14559)"><g class="a25 c1 node n23 p0" transform="translate(0.0 2.93195)"><g class="a23 c2 node n14 p0" transform="translate(0.0 12.3727)"><g class="a14 leaf node n1 p0 sample" transform="translate(-7.71429 13.3645)"><path class="edge" d="M 0 0 V -13.3645 H 7.71429" /><rect class="sym" height="6" width="6" x="-3" y="-3" /><text class="lab" transform="translate(0 11)">1</text></g><g class="a14 leaf node n4 p0 sample" transform="translate(7.71429 13.3645)"><path class="edge" d="M 0 0 V -13.3645 H -7.71429" /><rect class="sym" height="6" width="6" x="-3" y="-3" /><text class="lab" transform="translate(0 11)">4</text></g><path class="edge" d="M 0 0 V -12.3727 H 0.0" /><circle class="sym" cx="0" cy="0" r="3" /><text class="lab lft" transform="translate(-3 -7.0)">14</text></g><path class="edge" d="M 0 0 V -2.93195 H 0.0" /><circle class="sym" cx="0" cy="0" r="3" /><text class="lab lft" transform="translate(-3 -7.0)">23</text></g><path class="edge" d="M 0 0 V -1.14559 H 11.5714" /><circle class="sym" cx="0" cy="0" r="3" /><text class="lab lft" transform="translate(-3 -7.0)">25</text></g><path class="edge" d="M 0 0 V -8.80343 H 13.5" /><circle class="sym" cx="0" cy="0" r="3" /><text class="lab lft" transform="translate(-3 -7.0)">26</text></g><g class="a31 c1 node n24 p0" transform="translate(13.5 10.1301)"><g class="a24 c1 node n22 p0" transform="translate(0.0 4.32498)"><g class="a22 leaf node n8 p0 sample" transform="translate(0.0 24.1631)"><path class="edge" d="M 0 0 V -24.1631 H 0.0" /><rect class="sym" height="6" width="6" x="-3" y="-3" /><text class="lab" transform="translate(0 11)">8</text></g><path class="edge" d="M 0 0 V -4.32498 H 0.0" /><circle class="sym" cx="0" cy="0" r="3" /><text class="lab lft" transform="translate(-3 -7.0)">22</text></g><path class="edge" d="M 0 0 V -10.1301 H -13.5" /><circle class="sym" cx="0" cy="0" r="3" /><text class="lab rgt" transform="translate(3 -7.0)">24</text></g><path class="edge" d="M 0 0 V -11.695 H 0.0" /><circle class="sym" cx="0" cy="0" r="3" /><text class="lab lft" transform="translate(-3 -7.0)">31</text></g><path class="edge" d="M 0 0 V -44.2868 H -51.5893" /><circle class="sym" cx="0" cy="0" r="3" /><text class="lab rgt" transform="translate(3 -7.0)">34</text></g><g class="a36 c1 node n35 p0" transform="translate(-51.5893 28.8466)"><g class="a35 c2 node n32 p0" transform="translate(0.0 22.216)"><g class="a32 c1 node n30 p0" transform="translate(22.1786 4.97488)"><g class="a30 c1 node n20 p0" transform="translate(0.0 15.6405)"><g class="a20 c2 node n18 p0" transform="translate(0.0 1.97373)"><g class="a18 c2 node n10 p0" transform="translate(-21.2143 19.1858)"><g class="a10 leaf node n2 p0 sample" transform="translate(-7.71429 1.76246)"><path class="edge" d="M 0 0 V -1.76246 H 7.71429" /><rect class="sym" height="6" width="6" x="-3" y="-3" /><text class="lab" transform="translate(0 11)">2</text></g><g class="a10 leaf node n6 p0 sample" transform="translate(7.71429 1.76246)"><path class="edge" d="M 0 0 V -1.76246 H -7.71429" /><rect class="sym" height="6" width="6" x="-3" y="-3" /><text class="lab" transform="translate(0 11)">6</text></g><path class="edge" d="M 0 0 V -19.1858 H 21.2143" /><circle class="sym" cx="0" cy="0" r="3" /><text class="lab lft" transform="translate(-3 -7.0)">10</text></g><g class="a18 c2 node n17 p0" transform="translate(21.2143 4.34487)"><g class="a17 leaf node n7 p0 sample" transform="translate(11.5714 16.6034)"><path class="edge" d="M 0 0 V -16.6034 H -11.5714" /><rect class="sym" height="6" width="6" x="-3" y="-3" /><text class="lab" transform="translate(0 11)">7</text></g><g class="a17 c2 node n13 p0" transform="translate(-11.5714 10.4827)"><g class="a13 leaf node n5 p0 sample" transform="translate(7.71429 6.12069)"><path class="edge" d="M 0 0 V -6.12069 H -7.71429" /><rect class="sym" height="6" width="6" x="-3" y="-3" /><text class="lab" transform="translate(0 11)">5</text></g><g class="a13 c1 node n12 p0" transform="translate(-7.71429 1.49982)"><g class="a12 leaf node n3 p0 sample" transform="translate(0.0 4.62087)"><path class="edge" d="M 0 0 V -4.62087 H 0.0" /><rect class="sym" height="6" width="6" x="-3" y="-3" /><text class="lab" transform="translate(0 11)">3</text></g><path class="edge" d="M 0 0 V -1.49982 H 7.71429" /><circle class="sym" cx="0" cy="0" r="3" /><text class="lab lft" transform="translate(-3 -7.0)">12</text></g><path class="edge" d="M 0 0 V -10.4827 H 11.5714" /><circle class="sym" cx="0" cy="0" r="3" /><text class="lab lft" transform="translate(-3 -7.0)">13</text></g><path class="edge" d="M 0 0 V -4.34487 H -21.2143" /><circle class="sym" cx="0" cy="0" r="3" /><text class="lab rgt" transform="translate(3 -7.0)">17</text></g><path class="edge" d="M 0 0 V -1.97373 H 0.0" /><circle class="sym" cx="0" cy="0" r="3" /><text class="lab lft" transform="translate(-3 -7.0)">18</text></g><path class="edge" d="M 0 0 V -15.6405 H 0.0" /><circle class="sym" cx="0" cy="0" r="3" /><text class="lab lft" transform="translate(-3 -7.0)">20</text></g><path class="edge" d="M 0 0 V -4.97488 H -22.1786" /><circle class="sym" cx="0" cy="0" r="3" /><text class="lab rgt" transform="translate(3 -7.0)">30</text></g><g class="a32 c1 node n28 p0" transform="translate(-22.1786 10.6141)"><g class="a28 c1 node n16 p0" transform="translate(0.0 18.4944)"><g class="a16 leaf node n0 p0 sample" transform="translate(0.0 14.4289)"><path class="edge" d="M 0 0 V -14.4289 H 0.0" /><rect class="sym" height="6" width="6" x="-3" y="-3" /><text class="lab" transform="translate(0 11)">0</text></g><path class="edge" d="M 0 0 V -18.4944 H 0.0" /><circle class="sym" cx="0" cy="0" r="3" /><text class="lab lft" transform="translate(-3 -7.0)">16</text></g><path class="edge" d="M 0 0 V -10.6141 H 22.1786" /><circle class="sym" cx="0" cy="0" r="3" /><text class="lab lft" transform="translate(-3 -7.0)">28</text></g><path class="edge" d="M 0 0 V -22.216 H 0.0" /><circle class="sym" cx="0" cy="0" r="3" /><text class="lab lft" transform="translate(-3 -7.0)">32</text></g><path class="edge" d="M 0 0 V -28.8466 H 51.5893" /><circle class="sym" cx="0" cy="0" r="3" /><text class="lab lft" transform="translate(-3 -7.0)">35</text></g><circle class="sym" cx="0" cy="0" r="3" /><text class="lab" transform="translate(0 -11)">36</text></g></g></g></g></g></svg>
