<svg baseProfile="full" height="200" version="1.1" width="600" xmlns="http://www.w3.org/2000/svg" xmlns:ev="http://www.w3.org/2001/xml-events" xmlns:xlink="http://www.w3.org/1999/xlink"><defs><style type="text/css"><![CDATA[.background path {fill: #808080; fill-opacity: 0}.background path:nth-child(odd) {fill-opacity: .1}.axes {font-size: 14px}.x-axis .tick .lab {font-weight: bold; dominant-baseline: hanging}.axes, .tree {font-size: 14px; text-anchor: middle}.axes line, .edge {stroke: black; fill: none}.y-axis .grid {stroke: #FAFAFA}.node > .sym {fill: black; stroke: none}.site > .sym {stroke: black}.mut text {fill: red; font-style: italic}.mut.extra text {fill: hotpink}.mut line {fill: none; stroke: none}.mut .sym {fill: none; stroke: red}.mut.extra .sym {stroke: hotpink}.node .mut .sym {stroke-width: 1.5px}.tree text, .tree-sequence text {dominant-baseline: central}.plotbox .lab.lft {text-anchor: end}.plotbox .lab.rgt {text-anchor: start}]]></style></defs><g class="tree-sequence"><g class="background"><path d="M20,0 l186.667,0 l0,138.2 l-14.2739,25 l0,5 l-172.393,0 l0,-5 l0,-25 l0,-138.2z" /><path d="M206.667,0 l186.667,0 l0,138.2 l-83.0334,25 l0,5 l-117.907,0 l0,-5 l14.2739,-25 l0,-138.2z" /><path d="M393.333,0 l186.667,0 l0,138.2 l0,25 l0,5 l-269.7,0 l0,-5 l83.0334,-25 l0,-138.2z" /></g><g class="axes"><g class="x-axis"><g transform="translate(300 200)"><text class="lab" text-anchor="middle" transform="translate(0 -11)">Genome position</text></g><line x1="20" x2="580" y1="163.2" y2="163.2" /><g class="ticks"><g class="tick" transform="translate(20 163.2)"><line x1="0" x2="0" y1="0" y2="5" /><g transform="translate(0 6)"><text class="lab">0.00</text></g></g><g class="tick" transform="translate(192.393 163.2)"><line x1="0" x2="0" y1="0" y2="5" /><g transform="translate(0 6)"><text class="lab">307.84</text></g></g><g class="tick" transform="translate(310.3 163.2)"><line x1="0" x2="0" y1="0" y2="5" /><g transform="translate(0 6)"><text class="lab">518.39</text></g></g><g class="tick" transform="translate(580 163.2)"><line x1="0" x2="0" y1="0" y2="5" /><g transform="translate(0 6)"><text class="lab">1000.00</text></g></g></g></g></g><g class="plotbox trees"><g class="tree t0" transform="translate(20 0)"><g class="plotbox"><g class="c2 node n24 p0 root" transform="translate(88.2917 26.8)"><g class="a24 c2 node n21 p0" transform="translate(39.875 73.2665)"><g class="a21 leaf node n1 p0 sample" transform="translate(-12.8333 21.3335)"><path class="edge" d="M 0 0 V -21.3335 H 12.8333" /><rect class="sym" height="6" width="6" x="-3" y="-3" /><text class="lab" transform="translate(0 11)">1</text></g><g class="a21 c2 node n16 p0" transform="translate(12.8333 12.4256)"><g class="a16 leaf node n6 p0 sample" transform="translate(-11 8.90786)"><path class="edge" d="M 0 0 V -8.90786 H 11" /><rect class="sym" height="6" width="6" x="-3" y="-3" /><text class="lab" transform="translate(0 11)">6</text></g><g class="a16 c2 node n13 p0" transform="translate(11 7.4891)"><g class="a13 leaf node n8 p0 sample" transform="translate(-7.33333 1.41877)"><path class="edge" d="M 0 0 V -1.41877 H 7.33333" /><rect class="sym" height="6" width="6" x="-3" y="-3" /><text class="lab" transform="translate(0 11)">8</text></g><g class="a13 leaf node n9 p0 sample" transform="translate(7.33333 1.41877)"><path class="edge" d="M 0 0 V -1.41877 H -7.33333" /><rect class="sym" height="6" width="6" x="-3" y="-3" /><text class="lab" transform="translate(0 11)">9</text></g><path class="edge" d="M 0 0 V -7.4891 H -11" /><circle class="sym" cx="0" cy="0" r="3" /><text class="lab rgt" transform="translate(3 -7.0)">13</text></g><path class="edge" d="M 0 0 V -12.4256 H -12.8333" /><circle class="sym" cx="0" cy="0" r="3" /><text class="lab rgt" transform="translate(3 -7.0)">16</text></g><path class="edge" d="M 0 0 V -73.2665 H -39.875" /><circle class="sym" cx="0" cy="0" r="3" /><text class="lab rgt" transform="translate(3 -7.0)">21</text></g><g class="a24 c2 node n23 p0" transform="translate(-39.875 42.1499)"><g class="a23 c1 node n20 p0" transform="translate(-21.0833 31.2071)"><g class="a20 c1 node n14 p0" transform="translate(0.0 16.6338)"><g class="a14 leaf node n0 p0 sample" transform="translate(0.0 4.60921)"><path class="edge" d="M 0 0 V -4.60921 H 0.0" /><rect class="sym" height="6" width="6" x="-3" y="-3" /><text class="lab" transform="translate(0 11)">0</text></g><path class="edge" d="M 0 0 V -16.6338 H 0.0" /><circle class="sym" cx="0" cy="0" r="3" /><text class="lab lft" transform="translate(-3 -7.0)">14</text></g><path class="edge" d="M 0 0 V -31.2071 H 21.0833" /><circle class="sym" cx="0" cy="0" r="3" /><text class="lab lft" transform="translate(-3 -7.0)">20</text></g><g class="a23 c2 node n22 p0" transform="translate(21.0833 28.0036)"><g class="a22 c2 node n15 p0" transform="translate(20.1667 19.7874)"><g class="a15 leaf node n7 p0 sample" transform="translate(11 4.65913)"><path class="edge" d="M 0 0 V -4.65913 H -11" /><rect class="sym" height="6" width="6" x="-3" y="-3" /><text class="lab" transform="translate(0 11)">7</text></g><g class="a15 c2 node n10 p0" transform="translate(-11 3.96503)"><g class="a10 leaf node n3 p0 sample" transform="translate(-7.33333 0.694096)"><path class="edge" d="M 0 0 V -0.694096 H 7.33333" /><rect class="sym" height="6" width="6" x="-3" y="-3" /><text class="lab" transform="translate(0 11)">3</text></g><g class="a10 leaf node n4 p0 sample" transform="translate(7.33333 0.694096)"><path class="edge" d="M 0 0 V -0.694096 H -7.33333" /><rect class="sym" height="6" width="6" x="-3" y="-3" /><text class="lab" transform="translate(0 11)">4</text></g><path class="edge" d="M 0 0 V -3.96503 H 11" /><circle class="sym" cx="0" cy="0" r="3" /><text class="lab lft" transform="translate(-3 -7.0)">10</text></g><path class="edge" d="M 0 0 V -19.7874 H -20.1667" /><circle class="sym" cx="0" cy="0" r="3" /><text class="lab rgt" transform="translate(3 -7.0)">15</text></g><g class="a22 c1 node n18 p0" transform="translate(-20.1667 7.22445)"><g class="a18 c2 node n17 p0" transform="translate(0.0 5.16648)"><g class="a17 leaf node n2 p0 sample" transform="translate(-7.33333 12.0556)"><path class="edge" d="M 0 0 V -12.0556 H 7.33333" /><rect class="sym" height="6" width="6" x="-3" y="-3" /><text class="lab" transform="translate(0 11)">2</text></g><g class="a17 c1 node n11 p0" transform="translate(7.33333 11.2024)"><g class="a11 leaf node n5 p0 sample" transform="translate(0.0 0.853146)"><path class="edge" d="M 0 0 V -0.853146 H 0.0" /><rect class="sym" height="6" width="6" x="-3" y="-3" /><text class="lab" transform="translate(0 11)">5</text></g><path class="edge" d="M 0 0 V -11.2024 H -7.33333" /><circle class="sym" cx="0" cy="0" r="3" /><text class="lab rgt" transform="translate(3 -7.0)">11</text></g><path class="edge" d="M 0 0 V -5.16648 H 0.0" /><circle class="sym" cx="0" cy="0" r="3" /><text class="lab lft" transform="translate(-3 -7.0)">17</text></g><path class="edge" d="M 0 0 V -7.22445 H 20.1667" /><circle class="sym" cx="0" cy="0" r="3" /><text class="lab lft" transform="translate(-3 -7.0)">18</text></g><path class="edge" d="M 0 0 V -28.0036 H -21.0833" /><circle class="sym" cx="0" cy="0" r="3" /><text class="lab rgt" transform="translate(3 -7.0)">22</text></g><path class="edge" d="M 0 0 V -42.1499 H 39.875" /><circle class="sym" cx="0" cy="0" r="3" /><text class="lab lft" transform="translate(-3 -7.0)">23</text></g><circle class="sym" cx="0" cy="0" r="3" /><text class="lab" transform="translate(0 -11)">24</text></g></g></g><g class="tree t1" transform="translate(206.667 0)"><g class="plotbox"><g class="c2 node n24 p0 root" transform="translate(91.0417 26.8)"><g class="a24 c2 node n21 p0" transform="translate(37.125 73.2665)"><g class="a21 leaf node n1 p0 sample" transform="translate(-12.8333 21.3335)"><path class="edge" d="M 0 0 V -21.3335 H 12.8333" /><rect class="sym" height="6" width="6" x="-3" y="-3" /><text class="lab" transform="translate(0 11)">1</text></g><g class="a21 c2 node n16 p0" transform="translate(12.8333 12.4256)"><g class="a16 leaf node n6 p0 sample" transform="translate(-11 8.90786)"><path class="edge" d="M 0 0 V -8.90786 H 11" /><rect class="sym" height="6" width="6" x="-3" y="-3" /><text class="lab" transform="translate(0 11)">6</text></g><g class="a16 c2 node n13 p0" transform="translate(11 7.4891)"><g class="a13 leaf node n8 p0 sample" transform="translate(-7.33333 1.41877)"><path class="edge" d="M 0 0 V -1.41877 H 7.33333" /><rect class="sym" height="6" width="6" x="-3" y="-3" /><text class="lab" transform="translate(0 11)">8</text></g><g class="a13 leaf node n9 p0 sample" transform="translate(7.33333 1.41877)"><path class="edge" d="M 0 0 V -1.41877 H -7.33333" /><rect class="sym" height="6" width="6" x="-3" y="-3" /><text class="lab" transform="translate(0 11)">9</text></g><path class="edge" d="M 0 0 V -7.4891 H -11" /><circle class="sym" cx="0" cy="0" r="3" /><text class="lab rgt" transform="translate(3 -7.0)">13</text></g><path class="edge" d="M 0 0 V -12.4256 H -12.8333" /><circle class="sym" cx="0" cy="0" r="3" /><text class="lab rgt" transform="translate(3 -7.0)">16</text></g><path class="edge" d="M 0 0 V -73.2665 H -37.125" /><circle class="sym" cx="0" cy="0" r="3" /><text class="lab rgt" transform="translate(3 -7.0)">21</text></g><g class="a24 c2 node n23 p0" transform="translate(-37.125 42.1499)"><g class="a23 c1 node n20 p0" transform="translate(-19.25 31.2071)"><g class="a20 c2 node n14 p0" transform="translate(0.0 16.6338)"><g class="a14 leaf node n0 p0 sample" transform="translate(-7.33333 4.60921)"><path class="edge" d="M 0 0 V -4.60921 H 7.33333" /><rect class="sym" height="6" width="6" x="-3" y="-3" /><text class="lab" transform="translate(0 11)">0</text></g><g class="a14 c1 node n12 p0" transform="translate(7.33333 3.75606)"><g class="a12 leaf node n5 p0 sample" transform="translate(0.0 0.853146)"><path class="edge" d="M 0 0 V -0.853146 H 0.0" /><rect class="sym" height="6" width="6" x="-3" y="-3" /><text class="lab" transform="translate(0 11)">5</text></g><path class="edge" d="M 0 0 V -3.75606 H -7.33333" /><circle class="sym" cx="0" cy="0" r="3" /><text class="lab rgt" transform="translate(3 -7.0)">12</text></g><path class="edge" d="M 0 0 V -16.6338 H 0.0" /><circle class="sym" cx="0" cy="0" r="3" /><text class="lab lft" transform="translate(-3 -7.0)">14</text></g><path class="edge" d="M 0 0 V -31.2071 H 19.25" /><circle class="sym" cx="0" cy="0" r="3" /><text class="lab lft" transform="translate(-3 -7.0)">20</text></g><g class="a23 c2 node n22 p0" transform="translate(19.25 28.0036)"><g class="a22 c2 node n15 p0" transform="translate(16.5 19.7874)"><g class="a15 leaf node n7 p0 sample" transform="translate(11 4.65913)"><path class="edge" d="M 0 0 V -4.65913 H -11" /><rect class="sym" height="6" width="6" x="-3" y="-3" /><text class="lab" transform="translate(0 11)">7</text></g><g class="a15 c2 node n10 p0" transform="translate(-11 3.96503)"><g class="a10 leaf node n3 p0 sample" transform="translate(-7.33333 0.694096)"><path class="edge" d="M 0 0 V -0.694096 H 7.33333" /><rect class="sym" height="6" width="6" x="-3" y="-3" /><text class="lab" transform="translate(0 11)">3</text></g><g class="a10 leaf node n4 p0 sample" transform="translate(7.33333 0.694096)"><path class="edge" d="M 0 0 V -0.694096 H -7.33333" /><rect class="sym" height="6" width="6" x="-3" y="-3" /><text class="lab" transform="translate(0 11)">4</text></g><path class="edge" d="M 0 0 V -3.96503 H 11" /><circle class="sym" cx="0" cy="0" r="3" /><text class="lab lft" transform="translate(-3 -7.0)">10</text></g><path class="edge" d="M 0 0 V -19.7874 H -16.5" /><circle class="sym" cx="0" cy="0" r="3" /><text class="lab rgt" transform="translate(3 -7.0)">15</text></g><g class="a22 c1 node n18 p0" transform="translate(-16.5 7.22445)"><g class="a18 c1 node n17 p0" transform="translate(0.0 5.16648)"><g class="a17 leaf node n2 p0 sample" transform="translate(0.0 12.0556)"><path class="edge" d="M 0 0 V -12.0556 H 0.0" /><rect class="sym" height="6" width="6" x="-3" y="-3" /><text class="lab" transform="translate(0 11)">2</text></g><path class="edge" d="M 0 0 V -5.16648 H 0.0" /><circle class="sym" cx="0" cy="0" r="3" /><text class="lab lft" transform="translate(-3 -7.0)">17</text></g><path class="edge" d="M 0 0 V -7.22445 H 16.5" /><circle class="sym" cx="0" cy="0" r="3" /><text class="lab lft" transform="translate(-3 -7.0)">18</text></g><path class="edge" d="M 0 0 V -28.0036 H -19.25" /><circle class="sym" cx="0" cy="0" r="3" /><text class="lab rgt" transform="translate(3 -7.0)">22</text></g><path class="edge" d="M 0 0 V -42.1499 H 37.125" /><circle class="sym" cx="0" cy="0" r="3" /><text class="lab lft" transform="translate(-3 -7.0)">23</text></g><circle class="sym" cx="0" cy="0" r="3" /><text class="lab" transform="translate(0 -11)">24</text></g></g></g><g class="tree t2" transform="translate(393.333 0)"><g class="plotbox"><g class="c2 node n24 p0 root" transform="translate(97.9167 26.8)"><g class="a24 c2 node n21 p0" transform="translate(30.25 73.2665)"><g class="a21 leaf node n1 p0 sample" transform="translate(-12.8333 21.3335)"><path class="edge" d="M 0 0 V -21.3335 H 12.8333" /><rect class="sym" height="6" width="6" x="-3" y="-3" /><text class="lab" transform="translate(0 11)">1</text></g><g class="a21 c2 node n16 p0" transform="translate(12.8333 12.4256)"><g class="a16 leaf node n6 p0 sample" transform="translate(-11 8.90786)"><path class="edge" d="M 0 0 V -8.90786 H 11" /><rect class="sym" height="6" width="6" x="-3" y="-3" /><text class="lab" transform="translate(0 11)">6</text></g><g class="a16 c2 node n13 p0" transform="translate(11 7.4891)"><g class="a13 leaf node n8 p0 sample" transform="translate(-7.33333 1.41877)"><path class="edge" d="M 0 0 V -1.41877 H 7.33333" /><rect class="sym" height="6" width="6" x="-3" y="-3" /><text class="lab" transform="translate(0 11)">8</text></g><g class="a13 leaf node n9 p0 sample" transform="translate(7.33333 1.41877)"><path class="edge" d="M 0 0 V -1.41877 H -7.33333" /><rect class="sym" height="6" width="6" x="-3" y="-3" /><text class="lab" transform="translate(0 11)">9</text></g><path class="edge" d="M 0 0 V -7.4891 H -11" /><circle class="sym" cx="0" cy="0" r="3" /><text class="lab rgt" transform="translate(3 -7.0)">13</text></g><path class="edge" d="M 0 0 V -12.4256 H -12.8333" /><circle class="sym" cx="0" cy="0" r="3" /><text class="lab rgt" transform="translate(3 -7.0)">16</text></g><path class="edge" d="M 0 0 V -73.2665 H -30.25" /><circle class="sym" cx="0" cy="0" r="3" /><text class="lab rgt" transform="translate(3 -7.0)">21</text></g><g class="a24 c2 node n23 p0" transform="translate(-30.25 42.1499)"><g class="a23 c2 node n20 p0" transform="translate(-22 31.2071)"><g class="a20 c2 node n14 p0" transform="translate(-11 16.6338)"><g class="a14 leaf node n0 p0 sample" transform="translate(-7.33333 4.60921)"><path class="edge" d="M 0 0 V -4.60921 H 7.33333" /><rect class="sym" height="6" width="6" x="-3" y="-3" /><text class="lab" transform="translate(0 11)">0</text></g><g class="a14 c1 node n12 p0" transform="translate(7.33333 3.75606)"><g class="a12 leaf node n5 p0 sample" transform="translate(0.0 0.853146)"><path class="edge" d="M 0 0 V -0.853146 H 0.0" /><rect class="sym" height="6" width="6" x="-3" y="-3" /><text class="lab" transform="translate(0 11)">5</text></g><path class="edge" d="M 0 0 V -3.75606 H -7.33333" /><circle class="sym" cx="0" cy="0" r="3" /><text class="lab rgt" transform="translate(3 -7.0)">12</text></g><path class="edge" d="M 0 0 V -16.6338 H 11" /><circle class="sym" cx="0" cy="0" r="3" /><text class="lab lft" transform="translate(-3 -7.0)">14</text></g><g class="a20 c1 node n19 p0" transform="translate(11 4.02093)"><g class="a19 c1 node n17 p0" transform="translate(0.0 5.16648)"><g class="a17 leaf node n2 p0 sample" transform="translate(0.0 12.0556)"><path class="edge" d="M 0 0 V -12.0556 H 0.0" /><rect class="sym" height="6" width="6" x="-3" y="-3" /><text class="lab" transform="translate(0 11)">2</text></g><path class="edge" d="M 0 0 V -5.16648 H 0.0" /><circle class="sym" cx="0" cy="0" r="3" /><text class="lab lft" transform="translate(-3 -7.0)">17</text></g><path class="edge" d="M 0 0 V -4.02093 H -11" /><circle class="sym" cx="0" cy="0" r="3" /><text class="lab rgt" transform="translate(3 -7.0)">19</text></g><path class="edge" d="M 0 0 V -31.2071 H 22" /><circle class="sym" cx="0" cy="0" r="3" /><text class="lab lft" transform="translate(-3 -7.0)">20</text></g><g class="a23 c1 node n22 p0" transform="translate(22 28.0036)"><g class="a22 c2 node n15 p0" transform="translate(0.0 19.7874)"><g class="a15 leaf node n7 p0 sample" transform="translate(11 4.65913)"><path class="edge" d="M 0 0 V -4.65913 H -11" /><rect class="sym" height="6" width="6" x="-3" y="-3" /><text class="lab" transform="translate(0 11)">7</text></g><g class="a15 c2 node n10 p0" transform="translate(-11 3.96503)"><g class="a10 leaf node n3 p0 sample" transform="translate(-7.33333 0.694096)"><path class="edge" d="M 0 0 V -0.694096 H 7.33333" /><rect class="sym" height="6" width="6" x="-3" y="-3" /><text class="lab" transform="translate(0 11)">3</text></g><g class="a10 leaf node n4 p0 sample" transform="translate(7.33333 0.694096)"><path class="edge" d="M 0 0 V -0.694096 H -7.33333" /><rect class="sym" height="6" width="6" x="-3" y="-3" /><text class="lab" transform="translate(0 11)">4</text></g><path class="edge" d="M 0 0 V -3.96503 H 11" /><circle class="sym" cx="0" cy="0" r="3" /><text class="lab lft" transform="translate(-3 -7.0)">10</text></g><path class="edge" d="M 0 0 V -19.7874 H 0.0" /><circle class="sym" cx="0" cy="0" r="3" /><text class="lab lft" transform="translate(-3 -7.0)">15</text></g><path class="edge" d="M 0 0 V -28.0036 H -22" /><circle class="sym" cx="0" cy="0" r="3" /><text class="lab rgt" transform="translate(3 -7.0)">22</text></g><path class="edge" d="M 0 0 V -42.1499 H 30.25" /><circle class="sym" cx="0" cy="0" r="3" /><text class="lab lft" transform="translate(-3 -7.0)">23</text></g><circle class="sym" cx="0" cy="0" r="3" /><text class="lab" transform="translate(0 -11)">24</text></g></g></g></g></g></svg>
