<svg baseProfile="full" height="200" version="1.1" width="1000" xmlns="http://www.w3.org/2000/svg" xmlns:ev="http://www.w3.org/2001/xml-events" xmlns:xlink="http://www.w3.org/1999/xlink"><defs><style type="text/css"><![CDATA[.background path {fill: #808080; fill-opacity: 0}.background path:nth-child(odd) {fill-opacity: .1}.axes {font-size: 14px}.x-axis .tick .lab {font-weight: bold; dominant-baseline: hanging}.axes, .tree {font-size: 14px; text-anchor: middle}.axes line, .edge {stroke: black; fill: none}.y-axis .grid {stroke: #FAFAFA}.node > .sym {fill: black; stroke: none}.site > .sym {stroke: black}.mut text {fill: red; font-style: italic}.mut.extra text {fill: hotpink}.mut line {fill: none; stroke: none}.mut .sym {fill: none; stroke: red}.mut.extra .sym {stroke: hotpink}.node .mut .sym {stroke-width: 1.5px}.tree text, .tree-sequence text {dominant-baseline: central}.plotbox .lab.lft {text-anchor: end}.plotbox .lab.rgt {text-anchor: start}]]></style></defs><g class="tree-sequence"><g class="background"><path d="M20,0 l192,0 l0,138.2 l-153.065,25 l0,5 l-38.9351,0 l0,-5 l0,-25 l0,-138.2z" /><path d="M212,0 l192,0 l0,138.2 l-312.692,25 l0,5 l-32.3725,0 l0,-5 l153.065,-25 l0,-138.2z" /><path d="M404,0 l192,0 l0,138.2 l-188.008,25 l0,5 l-316.684,0 l0,-5 l312.692,-25 l0,-138.2z" /><path d="M596,0 l192,0 l0,138.2 l108.943,25 l0,5 l-488.951,0 l0,-5 l188.008,-25 l0,-138.2z" /><path d="M788,0 l192,0 l0,138.2 l0,25 l0,5 l-83.057,0 l0,-5 l-108.943,-25 l0,-138.2z" /></g><g class="axes"><g class="x-axis"><g transform="translate(500 200)"><text class="lab" text-anchor="middle" transform="translate(0 -11)">Genome position</text></g><line x1="20" x2="980" y1="163.2" y2="163.2" /><g class="ticks"><g class="tick" transform="translate(20 163.2)"><line x1="0" x2="0" y1="0" y2="5" /><g transform="translate(0 6)"><text class="lab">0.00</text></g></g><g class="tick" transform="translate(58.9351 163.2)"><line x1="0" x2="0" y1="0" y2="5" /><g transform="translate(0 6)"><text class="lab">40.56</text></g></g><g class="tick" transform="translate(91.3076 163.2)"><line x1="0" x2="0" y1="0" y2="5" /><g transform="translate(0 6)"><text class="lab">74.28</text></g></g><g class="tick" transform="translate(407.992 163.2)"><line x1="0" x2="0" y1="0" y2="5" /><g transform="translate(0 6)"><text class="lab">404.16</text></g></g><g class="tick" transform="translate(896.943 163.2)"><line x1="0" x2="0" y1="0" y2="5" /><g transform="translate(0 6)"><text class="lab">913.48</text></g></g><g class="tick" transform="translate(980 163.2)"><line x1="0" x2="0" y1="0" y2="5" /><g transform="translate(0 6)"><text class="lab">1000.00</text></g></g></g></g></g><g class="plotbox trees"><g class="tree t0" transform="translate(20 0)"><g class="plotbox"><g class="c2 node n30 p0 root" transform="translate(138.512 26.8)"><g class="a30 leaf node n3 p0 sample" transform="translate(25.8875 94.6)"><path class="edge" d="M 0 0 V -94.6 H -25.8875" /><rect class="sym" height="6" width="6" x="-3" y="-3" /><text class="lab" transform="translate(0 11)">3</text></g><g class="a30 c1 node n29 p0" transform="translate(-25.8875 35.4894)"><g class="a29 c1 node n28 p0" transform="translate(0.0 11.085)"><g class="a28 c2 node n27 p0" transform="translate(0.0 2.85113)"><g class="a27 c1 node n20 p0" transform="translate(28.975 21.8228)"><g class="a20 c1 node n17 p0" transform="translate(0.0 13.4153)"><g class="a17 c2 node n14 p0" transform="translate(0.0 3.59458)"><g class="a14 leaf node n7 p0 sample" transform="translate(-7.6 6.34179)"><path class="edge" d="M 0 0 V -6.34179 H 7.6" /><rect class="sym" height="6" width="6" x="-3" y="-3" /><text class="lab" transform="translate(0 11)">7</text></g><g class="a14 leaf node n8 p0 sample" transform="translate(7.6 6.34179)"><path class="edge" d="M 0 0 V -6.34179 H -7.6" /><rect class="sym" height="6" width="6" x="-3" y="-3" /><text class="lab" transform="translate(0 11)">8</text></g><path class="edge" d="M 0 0 V -3.59458 H 0.0" /><circle class="sym" cx="0" cy="0" r="3" /><text class="lab lft" transform="translate(-3 -7.0)">14</text></g><path class="edge" d="M 0 0 V -13.4153 H 0.0" /><circle class="sym" cx="0" cy="0" r="3" /><text class="lab lft" transform="translate(-3 -7.0)">17</text></g><path class="edge" d="M 0 0 V -21.8228 H -28.975" /><circle class="sym" cx="0" cy="0" r="3" /><text class="lab rgt" transform="translate(3 -7.0)">20</text></g><g class="a27 c2 node n26 p0" transform="translate(-28.975 0.25943)"><g class="a26 c2 node n23 p0" transform="translate(-27.55 10.4264)"><g class="a23 c1 node n18 p0" transform="translate(-20.9 17.6231)"><g class="a18 c2 node n13 p0" transform="translate(0.0 11.1819)"><g class="a13 leaf node n0 p0 sample" transform="translate(-7.6 5.68358)"><path class="edge" d="M 0 0 V -5.68358 H 7.6" /><rect class="sym" height="6" width="6" x="-3" y="-3" /><text class="lab" transform="translate(0 11)">0</text></g><g class="a13 leaf node n6 p0 sample" transform="translate(7.6 5.68358)"><path class="edge" d="M 0 0 V -5.68358 H -7.6" /><rect class="sym" height="6" width="6" x="-3" y="-3" /><text class="lab" transform="translate(0 11)">6</text></g><path class="edge" d="M 0 0 V -11.1819 H 0.0" /><circle class="sym" cx="0" cy="0" r="3" /><text class="lab lft" transform="translate(-3 -7.0)">13</text></g><path class="edge" d="M 0 0 V -17.6231 H 20.9" /><circle class="sym" cx="0" cy="0" r="3" /><text class="lab lft" transform="translate(-3 -7.0)">18</text></g><g class="a23 c2 node n19 p0" transform="translate(20.9 14.2188)"><g class="a19 leaf node n9 p0 sample" transform="translate(11.4 20.2698)"><path class="edge" d="M 0 0 V -20.2698 H -11.4" /><rect class="sym" height="6" width="6" x="-3" y="-3" /><text class="lab" transform="translate(0 11)">9</text></g><g class="a19 c1 node n11 p0" transform="translate(-11.4 17.7435)"><g class="a11 c2 node n10 p0" transform="translate(0.0 1.81375)"><g class="a10 leaf node n1 p0 sample" transform="translate(-7.6 0.712626)"><path class="edge" d="M 0 0 V -0.712626 H 7.6" /><rect class="sym" height="6" width="6" x="-3" y="-3" /><text class="lab" transform="translate(0 11)">1</text></g><g class="a10 leaf node n4 p0 sample" transform="translate(7.6 0.712626)"><path class="edge" d="M 0 0 V -0.712626 H -7.6" /><rect class="sym" height="6" width="6" x="-3" y="-3" /><text class="lab" transform="translate(0 11)">4</text></g><path class="edge" d="M 0 0 V -1.81375 H 0.0" /><circle class="sym" cx="0" cy="0" r="3" /><text class="lab lft" transform="translate(-3 -7.0)">10</text></g><path class="edge" d="M 0 0 V -17.7435 H 11.4" /><circle class="sym" cx="0" cy="0" r="3" /><text class="lab lft" transform="translate(-3 -7.0)">11</text></g><path class="edge" d="M 0 0 V -14.2188 H -20.9" /><circle class="sym" cx="0" cy="0" r="3" /><text class="lab rgt" transform="translate(3 -7.0)">19</text></g><path class="edge" d="M 0 0 V -10.4264 H 27.55" /><circle class="sym" cx="0" cy="0" r="3" /><text class="lab lft" transform="translate(-3 -7.0)">23</text></g><g class="a26 c1 node n24 p0" transform="translate(27.55 6.13652)"><g class="a24 c2 node n22 p0" transform="translate(0.0 6.07023)"><g class="a22 leaf node n5 p0 sample" transform="translate(7.6 32.7082)"><path class="edge" d="M 0 0 V -32.7082 H -7.6" /><rect class="sym" height="6" width="6" x="-3" y="-3" /><text class="lab" transform="translate(0 11)">5</text></g><g class="a22 c1 node n15 p0" transform="translate(-7.6 25.7594)"><g class="a15 leaf node n2 p0 sample" transform="translate(0.0 6.94886)"><path class="edge" d="M 0 0 V -6.94886 H 0.0" /><rect class="sym" height="6" width="6" x="-3" y="-3" /><text class="lab" transform="translate(0 11)">2</text></g><path class="edge" d="M 0 0 V -25.7594 H 7.6" /><circle class="sym" cx="0" cy="0" r="3" /><text class="lab lft" transform="translate(-3 -7.0)">15</text></g><path class="edge" d="M 0 0 V -6.07023 H 0.0" /><circle class="sym" cx="0" cy="0" r="3" /><text class="lab lft" transform="translate(-3 -7.0)">22</text></g><path class="edge" d="M 0 0 V -6.13652 H -27.55" /><circle class="sym" cx="0" cy="0" r="3" /><text class="lab rgt" transform="translate(3 -7.0)">24</text></g><path class="edge" d="M 0 0 V -0.25943 H 28.975" /><circle class="sym" cx="0" cy="0" r="3" /><text class="lab lft" transform="translate(-3 -7.0)">26</text></g><path class="edge" d="M 0 0 V -2.85113 H 0.0" /><circle class="sym" cx="0" cy="0" r="3" /><text class="lab lft" transform="translate(-3 -7.0)">27</text></g><path class="edge" d="M 0 0 V -11.085 H 0.0" /><circle class="sym" cx="0" cy="0" r="3" /><text class="lab lft" transform="translate(-3 -7.0)">28</text></g><path class="edge" d="M 0 0 V -35.4894 H 25.8875" /><circle class="sym" cx="0" cy="0" r="3" /><text class="lab lft" transform="translate(-3 -7.0)">29</text></g><circle class="sym" cx="0" cy="0" r="3" /><text class="lab" transform="translate(0 -11)">30</text></g></g></g><g class="tree t1" transform="translate(212 0)"><g class="plotbox"><g class="c2 node n30 p0 root" transform="translate(138.512 26.8)"><g class="a30 leaf node n3 p0 sample" transform="translate(25.8875 94.6)"><path class="edge" d="M 0 0 V -94.6 H -25.8875" /><rect class="sym" height="6" width="6" x="-3" y="-3" /><text class="lab" transform="translate(0 11)">3</text></g><g class="a30 c2 node n29 p0" transform="translate(-25.8875 35.4894)"><g class="a29 c1 node n28 p0" transform="translate(-28.975 11.085)"><g class="a28 c2 node n27 p0" transform="translate(0.0 2.85113)"><g class="a27 c1 node n20 p0" transform="translate(27.55 21.8228)"><g class="a20 c1 node n17 p0" transform="translate(0.0 13.4153)"><g class="a17 c2 node n14 p0" transform="translate(0.0 3.59458)"><g class="a14 leaf node n7 p0 sample" transform="translate(-7.6 6.34179)"><path class="edge" d="M 0 0 V -6.34179 H 7.6" /><rect class="sym" height="6" width="6" x="-3" y="-3" /><text class="lab" transform="translate(0 11)">7</text></g><g class="a14 leaf node n8 p0 sample" transform="translate(7.6 6.34179)"><path class="edge" d="M 0 0 V -6.34179 H -7.6" /><rect class="sym" height="6" width="6" x="-3" y="-3" /><text class="lab" transform="translate(0 11)">8</text></g><path class="edge" d="M 0 0 V -3.59458 H 0.0" /><circle class="sym" cx="0" cy="0" r="3" /><text class="lab lft" transform="translate(-3 -7.0)">14</text></g><path class="edge" d="M 0 0 V -13.4153 H 0.0" /><circle class="sym" cx="0" cy="0" r="3" /><text class="lab lft" transform="translate(-3 -7.0)">17</text></g><path class="edge" d="M 0 0 V -21.8228 H -27.55" /><circle class="sym" cx="0" cy="0" r="3" /><text class="lab rgt" transform="translate(3 -7.0)">20</text></g><g class="a27 c1 node n26 p0" transform="translate(-27.55 0.25943)"><g class="a26 c2 node n23 p0" transform="translate(0.0 10.4264)"><g class="a23 c1 node n18 p0" transform="translate(-20.9 17.6231)"><g class="a18 c2 node n13 p0" transform="translate(0.0 11.1819)"><g class="a13 leaf node n0 p0 sample" transform="translate(-7.6 5.68358)"><path class="edge" d="M 0 0 V -5.68358 H 7.6" /><rect class="sym" height="6" width="6" x="-3" y="-3" /><text class="lab" transform="translate(0 11)">0</text></g><g class="a13 leaf node n6 p0 sample" transform="translate(7.6 5.68358)"><path class="edge" d="M 0 0 V -5.68358 H -7.6" /><rect class="sym" height="6" width="6" x="-3" y="-3" /><text class="lab" transform="translate(0 11)">6</text></g><path class="edge" d="M 0 0 V -11.1819 H 0.0" /><circle class="sym" cx="0" cy="0" r="3" /><text class="lab lft" transform="translate(-3 -7.0)">13</text></g><path class="edge" d="M 0 0 V -17.6231 H 20.9" /><circle class="sym" cx="0" cy="0" r="3" /><text class="lab lft" transform="translate(-3 -7.0)">18</text></g><g class="a23 c2 node n19 p0" transform="translate(20.9 14.2188)"><g class="a19 leaf node n9 p0 sample" transform="translate(11.4 20.2698)"><path class="edge" d="M 0 0 V -20.2698 H -11.4" /><rect class="sym" height="6" width="6" x="-3" y="-3" /><text class="lab" transform="translate(0 11)">9</text></g><g class="a19 c1 node n11 p0" transform="translate(-11.4 17.7435)"><g class="a11 c2 node n10 p0" transform="translate(0.0 1.81375)"><g class="a10 leaf node n1 p0 sample" transform="translate(-7.6 0.712626)"><path class="edge" d="M 0 0 V -0.712626 H 7.6" /><rect class="sym" height="6" width="6" x="-3" y="-3" /><text class="lab" transform="translate(0 11)">1</text></g><g class="a10 leaf node n4 p0 sample" transform="translate(7.6 0.712626)"><path class="edge" d="M 0 0 V -0.712626 H -7.6" /><rect class="sym" height="6" width="6" x="-3" y="-3" /><text class="lab" transform="translate(0 11)">4</text></g><path class="edge" d="M 0 0 V -1.81375 H 0.0" /><circle class="sym" cx="0" cy="0" r="3" /><text class="lab lft" transform="translate(-3 -7.0)">10</text></g><path class="edge" d="M 0 0 V -17.7435 H 11.4" /><circle class="sym" cx="0" cy="0" r="3" /><text class="lab lft" transform="translate(-3 -7.0)">11</text></g><path class="edge" d="M 0 0 V -14.2188 H -20.9" /><circle class="sym" cx="0" cy="0" r="3" /><text class="lab rgt" transform="translate(3 -7.0)">19</text></g><path class="edge" d="M 0 0 V -10.4264 H 0.0" /><circle class="sym" cx="0" cy="0" r="3" /><text class="lab lft" transform="translate(-3 -7.0)">23</text></g><path class="edge" d="M 0 0 V -0.25943 H 27.55" /><circle class="sym" cx="0" cy="0" r="3" /><text class="lab lft" transform="translate(-3 -7.0)">26</text></g><path class="edge" d="M 0 0 V -2.85113 H 0.0" /><circle class="sym" cx="0" cy="0" r="3" /><text class="lab lft" transform="translate(-3 -7.0)">27</text></g><path class="edge" d="M 0 0 V -11.085 H 28.975" /><circle class="sym" cx="0" cy="0" r="3" /><text class="lab lft" transform="translate(-3 -7.0)">28</text></g><g class="a29 c1 node n25 p0" transform="translate(28.975 20.3321)"><g class="a25 c2 node n22 p0" transform="translate(0.0 6.07023)"><g class="a22 leaf node n5 p0 sample" transform="translate(7.6 32.7082)"><path class="edge" d="M 0 0 V -32.7082 H -7.6" /><rect class="sym" height="6" width="6" x="-3" y="-3" /><text class="lab" transform="translate(0 11)">5</text></g><g class="a22 c1 node n15 p0" transform="translate(-7.6 25.7594)"><g class="a15 leaf node n2 p0 sample" transform="translate(0.0 6.94886)"><path class="edge" d="M 0 0 V -6.94886 H 0.0" /><rect class="sym" height="6" width="6" x="-3" y="-3" /><text class="lab" transform="translate(0 11)">2</text></g><path class="edge" d="M 0 0 V -25.7594 H 7.6" /><circle class="sym" cx="0" cy="0" r="3" /><text class="lab lft" transform="translate(-3 -7.0)">15</text></g><path class="edge" d="M 0 0 V -6.07023 H 0.0" /><circle class="sym" cx="0" cy="0" r="3" /><text class="lab lft" transform="translate(-3 -7.0)">22</text></g><path class="edge" d="M 0 0 V -20.3321 H -28.975" /><circle class="sym" cx="0" cy="0" r="3" /><text class="lab rgt" transform="translate(3 -7.0)">25</text></g><path class="edge" d="M 0 0 V -35.4894 H 25.8875" /><circle class="sym" cx="0" cy="0" r="3" /><text class="lab lft" transform="translate(-3 -7.0)">29</text></g><circle class="sym" cx="0" cy="0" r="3" /><text class="lab" transform="translate(0 -11)">30</text></g></g></g><g class="tree t2" transform="translate(404 0)"><g class="plotbox"><g class="c2 node n30 p0 root" transform="translate(135.425 26.8)"><g class="a30 leaf node n3 p0 sample" transform="translate(28.975 94.6)"><path class="edge" d="M 0 0 V -94.6 H -28.975" /><rect class="sym" height="6" width="6" x="-3" y="-3" /><text class="lab" transform="translate(0 11)">3</text></g><g class="a30 c2 node n29 p0" transform="translate(-28.975 35.4894)"><g class="a29 c1 node n28 p0" transform="translate(-35.15 11.085)"><g class="a28 c2 node n27 p0" transform="translate(0.0 2.85113)"><g class="a27 c1 node n20 p0" transform="translate(24.7 21.8228)"><g class="a20 c2 node n17 p0" transform="translate(0.0 13.4153)"><g class="a17 c2 node n14 p0" transform="translate(15.2 3.59458)"><g class="a14 leaf node n7 p0 sample" transform="translate(-7.6 6.34179)"><path class="edge" d="M 0 0 V -6.34179 H 7.6" /><rect class="sym" height="6" width="6" x="-3" y="-3" /><text class="lab" transform="translate(0 11)">7</text></g><g class="a14 leaf node n8 p0 sample" transform="translate(7.6 6.34179)"><path class="edge" d="M 0 0 V -6.34179 H -7.6" /><rect class="sym" height="6" width="6" x="-3" y="-3" /><text class="lab" transform="translate(0 11)">8</text></g><path class="edge" d="M 0 0 V -3.59458 H -15.2" /><circle class="sym" cx="0" cy="0" r="3" /><text class="lab rgt" transform="translate(3 -7.0)">14</text></g><g class="a17 c1 node n12 p0" transform="translate(-15.2 7.41)"><g class="a12 c2 node n10 p0" transform="translate(0.0 1.81375)"><g class="a10 leaf node n1 p0 sample" transform="translate(-7.6 0.712626)"><path class="edge" d="M 0 0 V -0.712626 H 7.6" /><rect class="sym" height="6" width="6" x="-3" y="-3" /><text class="lab" transform="translate(0 11)">1</text></g><g class="a10 leaf node n4 p0 sample" transform="translate(7.6 0.712626)"><path class="edge" d="M 0 0 V -0.712626 H -7.6" /><rect class="sym" height="6" width="6" x="-3" y="-3" /><text class="lab" transform="translate(0 11)">4</text></g><path class="edge" d="M 0 0 V -1.81375 H 0.0" /><circle class="sym" cx="0" cy="0" r="3" /><text class="lab lft" transform="translate(-3 -7.0)">10</text></g><path class="edge" d="M 0 0 V -7.41 H 15.2" /><circle class="sym" cx="0" cy="0" r="3" /><text class="lab lft" transform="translate(-3 -7.0)">12</text></g><path class="edge" d="M 0 0 V -13.4153 H 0.0" /><circle class="sym" cx="0" cy="0" r="3" /><text class="lab lft" transform="translate(-3 -7.0)">17</text></g><path class="edge" d="M 0 0 V -21.8228 H -24.7" /><circle class="sym" cx="0" cy="0" r="3" /><text class="lab rgt" transform="translate(3 -7.0)">20</text></g><g class="a27 c1 node n26 p0" transform="translate(-24.7 0.25943)"><g class="a26 c2 node n23 p0" transform="translate(0.0 10.4264)"><g class="a23 c1 node n18 p0" transform="translate(-11.4 17.6231)"><g class="a18 c2 node n13 p0" transform="translate(0.0 11.1819)"><g class="a13 leaf node n0 p0 sample" transform="translate(-7.6 5.68358)"><path class="edge" d="M 0 0 V -5.68358 H 7.6" /><rect class="sym" height="6" width="6" x="-3" y="-3" /><text class="lab" transform="translate(0 11)">0</text></g><g class="a13 leaf node n6 p0 sample" transform="translate(7.6 5.68358)"><path class="edge" d="M 0 0 V -5.68358 H -7.6" /><rect class="sym" height="6" width="6" x="-3" y="-3" /><text class="lab" transform="translate(0 11)">6</text></g><path class="edge" d="M 0 0 V -11.1819 H 0.0" /><circle class="sym" cx="0" cy="0" r="3" /><text class="lab lft" transform="translate(-3 -7.0)">13</text></g><path class="edge" d="M 0 0 V -17.6231 H 11.4" /><circle class="sym" cx="0" cy="0" r="3" /><text class="lab lft" transform="translate(-3 -7.0)">18</text></g><g class="a23 c1 node n19 p0" transform="translate(11.4 14.2188)"><g class="a19 leaf node n9 p0 sample" transform="translate(0.0 20.2698)"><path class="edge" d="M 0 0 V -20.2698 H 0.0" /><rect class="sym" height="6" width="6" x="-3" y="-3" /><text class="lab" transform="translate(0 11)">9</text></g><path class="edge" d="M 0 0 V -14.2188 H -11.4" /><circle class="sym" cx="0" cy="0" r="3" /><text class="lab rgt" transform="translate(3 -7.0)">19</text></g><path class="edge" d="M 0 0 V -10.4264 H 0.0" /><circle class="sym" cx="0" cy="0" r="3" /><text class="lab lft" transform="translate(-3 -7.0)">23</text></g><path class="edge" d="M 0 0 V -0.25943 H 24.7" /><circle class="sym" cx="0" cy="0" r="3" /><text class="lab lft" transform="translate(-3 -7.0)">26</text></g><path class="edge" d="M 0 0 V -2.85113 H 0.0" /><circle class="sym" cx="0" cy="0" r="3" /><text class="lab lft" transform="translate(-3 -7.0)">27</text></g><path class="edge" d="M 0 0 V -11.085 H 35.15" /><circle class="sym" cx="0" cy="0" r="3" /><text class="lab lft" transform="translate(-3 -7.0)">28</text></g><g class="a29 c1 node n25 p0" transform="translate(35.15 20.3321)"><g class="a25 c2 node n22 p0" transform="translate(0.0 6.07023)"><g class="a22 leaf node n5 p0 sample" transform="translate(7.6 32.7082)"><path class="edge" d="M 0 0 V -32.7082 H -7.6" /><rect class="sym" height="6" width="6" x="-3" y="-3" /><text class="lab" transform="translate(0 11)">5</text></g><g class="a22 c1 node n15 p0" transform="translate(-7.6 25.7594)"><g class="a15 leaf node n2 p0 sample" transform="translate(0.0 6.94886)"><path class="edge" d="M 0 0 V -6.94886 H 0.0" /><rect class="sym" height="6" width="6" x="-3" y="-3" /><text class="lab" transform="translate(0 11)">2</text></g><path class="edge" d="M 0 0 V -25.7594 H 7.6" /><circle class="sym" cx="0" cy="0" r="3" /><text class="lab lft" transform="translate(-3 -7.0)">15</text></g><path class="edge" d="M 0 0 V -6.07023 H 0.0" /><circle class="sym" cx="0" cy="0" r="3" /><text class="lab lft" transform="translate(-3 -7.0)">22</text></g><path class="edge" d="M 0 0 V -20.3321 H -35.15" /><circle class="sym" cx="0" cy="0" r="3" /><text class="lab rgt" transform="translate(3 -7.0)">25</text></g><path class="edge" d="M 0 0 V -35.4894 H 28.975" /><circle class="sym" cx="0" cy="0" r="3" /><text class="lab lft" transform="translate(-3 -7.0)">29</text></g><circle class="sym" cx="0" cy="0" r="3" /><text class="lab" transform="translate(0 -11)">30</text></g></g></g><g class="tree t3" transform="translate(596 0)"><g class="plotbox"><g class="c2 node n30 p0 root" transform="translate(135.425 26.8)"><g class="a30 leaf node n3 p0 sample" transform="translate(28.975 94.6)"><path class="edge" d="M 0 0 V -94.6 H -28.975" /><rect class="sym" height="6" width="6" x="-3" y="-3" /><text class="lab" transform="translate(0 11)">3</text></g><g class="a30 c2 node n29 p0" transform="translate(-28.975 35.4894)"><g class="a29 c2 node n28 p0" transform="translate(-35.15 11.085)"><g class="a28 c1 node n27 p0" transform="translate(-24.7 2.85113)"><g class="a27 c1 node n26 p0" transform="translate(0.0 0.25943)"><g class="a26 c2 node n23 p0" transform="translate(0.0 10.4264)"><g class="a23 c1 node n18 p0" transform="translate(-11.4 17.6231)"><g class="a18 c2 node n13 p0" transform="translate(0.0 11.1819)"><g class="a13 leaf node n0 p0 sample" transform="translate(-7.6 5.68358)"><path class="edge" d="M 0 0 V -5.68358 H 7.6" /><rect class="sym" height="6" width="6" x="-3" y="-3" /><text class="lab" transform="translate(0 11)">0</text></g><g class="a13 leaf node n6 p0 sample" transform="translate(7.6 5.68358)"><path class="edge" d="M 0 0 V -5.68358 H -7.6" /><rect class="sym" height="6" width="6" x="-3" y="-3" /><text class="lab" transform="translate(0 11)">6</text></g><path class="edge" d="M 0 0 V -11.1819 H 0.0" /><circle class="sym" cx="0" cy="0" r="3" /><text class="lab lft" transform="translate(-3 -7.0)">13</text></g><path class="edge" d="M 0 0 V -17.6231 H 11.4" /><circle class="sym" cx="0" cy="0" r="3" /><text class="lab lft" transform="translate(-3 -7.0)">18</text></g><g class="a23 c1 node n19 p0" transform="translate(11.4 14.2188)"><g class="a19 leaf node n9 p0 sample" transform="translate(0.0 20.2698)"><path class="edge" d="M 0 0 V -20.2698 H 0.0" /><rect class="sym" height="6" width="6" x="-3" y="-3" /><text class="lab" transform="translate(0 11)">9</text></g><path class="edge" d="M 0 0 V -14.2188 H -11.4" /><circle class="sym" cx="0" cy="0" r="3" /><text class="lab rgt" transform="translate(3 -7.0)">19</text></g><path class="edge" d="M 0 0 V -10.4264 H 0.0" /><circle class="sym" cx="0" cy="0" r="3" /><text class="lab lft" transform="translate(-3 -7.0)">23</text></g><path class="edge" d="M 0 0 V -0.25943 H 0.0" /><circle class="sym" cx="0" cy="0" r="3" /><text class="lab lft" transform="translate(-3 -7.0)">26</text></g><path class="edge" d="M 0 0 V -2.85113 H 24.7" /><circle class="sym" cx="0" cy="0" r="3" /><text class="lab lft" transform="translate(-3 -7.0)">27</text></g><g class="a28 c1 node n21 p0" transform="translate(24.7 24.6739)"><g class="a21 c2 node n17 p0" transform="translate(0.0 13.4153)"><g class="a17 c2 node n14 p0" transform="translate(15.2 3.59458)"><g class="a14 leaf node n7 p0 sample" transform="translate(-7.6 6.34179)"><path class="edge" d="M 0 0 V -6.34179 H 7.6" /><rect class="sym" height="6" width="6" x="-3" y="-3" /><text class="lab" transform="translate(0 11)">7</text></g><g class="a14 leaf node n8 p0 sample" transform="translate(7.6 6.34179)"><path class="edge" d="M 0 0 V -6.34179 H -7.6" /><rect class="sym" height="6" width="6" x="-3" y="-3" /><text class="lab" transform="translate(0 11)">8</text></g><path class="edge" d="M 0 0 V -3.59458 H -15.2" /><circle class="sym" cx="0" cy="0" r="3" /><text class="lab rgt" transform="translate(3 -7.0)">14</text></g><g class="a17 c1 node n12 p0" transform="translate(-15.2 7.41)"><g class="a12 c2 node n10 p0" transform="translate(0.0 1.81375)"><g class="a10 leaf node n1 p0 sample" transform="translate(-7.6 0.712626)"><path class="edge" d="M 0 0 V -0.712626 H 7.6" /><rect class="sym" height="6" width="6" x="-3" y="-3" /><text class="lab" transform="translate(0 11)">1</text></g><g class="a10 leaf node n4 p0 sample" transform="translate(7.6 0.712626)"><path class="edge" d="M 0 0 V -0.712626 H -7.6" /><rect class="sym" height="6" width="6" x="-3" y="-3" /><text class="lab" transform="translate(0 11)">4</text></g><path class="edge" d="M 0 0 V -1.81375 H 0.0" /><circle class="sym" cx="0" cy="0" r="3" /><text class="lab lft" transform="translate(-3 -7.0)">10</text></g><path class="edge" d="M 0 0 V -7.41 H 15.2" /><circle class="sym" cx="0" cy="0" r="3" /><text class="lab lft" transform="translate(-3 -7.0)">12</text></g><path class="edge" d="M 0 0 V -13.4153 H 0.0" /><circle class="sym" cx="0" cy="0" r="3" /><text class="lab lft" transform="translate(-3 -7.0)">17</text></g><path class="edge" d="M 0 0 V -24.6739 H -24.7" /><circle class="sym" cx="0" cy="0" r="3" /><text class="lab rgt" transform="translate(3 -7.0)">21</text></g><path class="edge" d="M 0 0 V -11.085 H 35.15" /><circle class="sym" cx="0" cy="0" r="3" /><text class="lab lft" transform="translate(-3 -7.0)">28</text></g><g class="a29 c1 node n25 p0" transform="translate(35.15 20.3321)"><g class="a25 c2 node n22 p0" transform="translate(0.0 6.07023)"><g class="a22 leaf node n5 p0 sample" transform="translate(7.6 32.7082)"><path class="edge" d="M 0 0 V -32.7082 H -7.6" /><rect class="sym" height="6" width="6" x="-3" y="-3" /><text class="lab" transform="translate(0 11)">5</text></g><g class="a22 c1 node n15 p0" transform="translate(-7.6 25.7594)"><g class="a15 leaf node n2 p0 sample" transform="translate(0.0 6.94886)"><path class="edge" d="M 0 0 V -6.94886 H 0.0" /><rect class="sym" height="6" width="6" x="-3" y="-3" /><text class="lab" transform="translate(0 11)">2</text></g><path class="edge" d="M 0 0 V -25.7594 H 7.6" /><circle class="sym" cx="0" cy="0" r="3" /><text class="lab lft" transform="translate(-3 -7.0)">15</text></g><path class="edge" d="M 0 0 V -6.07023 H 0.0" /><circle class="sym" cx="0" cy="0" r="3" /><text class="lab lft" transform="translate(-3 -7.0)">22</text></g><path class="edge" d="M 0 0 V -20.3321 H -35.15" /><circle class="sym" cx="0" cy="0" r="3" /><text class="lab rgt" transform="translate(3 -7.0)">25</text></g><path class="edge" d="M 0 0 V -35.4894 H 28.975" /><circle class="sym" cx="0" cy="0" r="3" /><text class="lab lft" transform="translate(-3 -7.0)">29</text></g><circle class="sym" cx="0" cy="0" r="3" /><text class="lab" transform="translate(0 -11)">30</text></g></g></g><g class="tree t4" transform="translate(788 0)"><g class="plotbox"><g class="c2 node n30 p0 root" transform="translate(140.887 26.8)"><g class="a30 leaf node n3 p0 sample" transform="translate(23.5125 94.6)"><path class="edge" d="M 0 0 V -94.6 H -23.5125" /><rect class="sym" height="6" width="6" x="-3" y="-3" /><text class="lab" transform="translate(0 11)">3</text></g><g class="a30 c2 node n29 p0" transform="translate(-23.5125 35.4894)"><g class="a29 c2 node n28 p0" transform="translate(-31.825 11.085)"><g class="a28 c1 node n27 p0" transform="translate(-25.65 2.85113)"><g class="a27 c1 node n26 p0" transform="translate(0.0 0.25943)"><g class="a26 c2 node n23 p0" transform="translate(0.0 10.4264)"><g class="a23 c2 node n18 p0" transform="translate(-13.3 17.6231)"><g class="a18 c2 node n13 p0" transform="translate(-11.4 11.1819)"><g class="a13 leaf node n0 p0 sample" transform="translate(-7.6 5.68358)"><path class="edge" d="M 0 0 V -5.68358 H 7.6" /><rect class="sym" height="6" width="6" x="-3" y="-3" /><text class="lab" transform="translate(0 11)">0</text></g><g class="a13 leaf node n6 p0 sample" transform="translate(7.6 5.68358)"><path class="edge" d="M 0 0 V -5.68358 H -7.6" /><rect class="sym" height="6" width="6" x="-3" y="-3" /><text class="lab" transform="translate(0 11)">6</text></g><path class="edge" d="M 0 0 V -11.1819 H 11.4" /><circle class="sym" cx="0" cy="0" r="3" /><text class="lab lft" transform="translate(-3 -7.0)">13</text></g><g class="a18 c1 node n16 p0" transform="translate(11.4 9.91665)"><g class="a16 leaf node n2 p0 sample" transform="translate(0.0 6.94886)"><path class="edge" d="M 0 0 V -6.94886 H 0.0" /><rect class="sym" height="6" width="6" x="-3" y="-3" /><text class="lab" transform="translate(0 11)">2</text></g><path class="edge" d="M 0 0 V -9.91665 H -11.4" /><circle class="sym" cx="0" cy="0" r="3" /><text class="lab rgt" transform="translate(3 -7.0)">16</text></g><path class="edge" d="M 0 0 V -17.6231 H 13.3" /><circle class="sym" cx="0" cy="0" r="3" /><text class="lab lft" transform="translate(-3 -7.0)">18</text></g><g class="a23 c1 node n19 p0" transform="translate(13.3 14.2188)"><g class="a19 leaf node n9 p0 sample" transform="translate(0.0 20.2698)"><path class="edge" d="M 0 0 V -20.2698 H 0.0" /><rect class="sym" height="6" width="6" x="-3" y="-3" /><text class="lab" transform="translate(0 11)">9</text></g><path class="edge" d="M 0 0 V -14.2188 H -13.3" /><circle class="sym" cx="0" cy="0" r="3" /><text class="lab rgt" transform="translate(3 -7.0)">19</text></g><path class="edge" d="M 0 0 V -10.4264 H 0.0" /><circle class="sym" cx="0" cy="0" r="3" /><text class="lab lft" transform="translate(-3 -7.0)">23</text></g><path class="edge" d="M 0 0 V -0.25943 H 0.0" /><circle class="sym" cx="0" cy="0" r="3" /><text class="lab lft" transform="translate(-3 -7.0)">26</text></g><path class="edge" d="M 0 0 V -2.85113 H 25.65" /><circle class="sym" cx="0" cy="0" r="3" /><text class="lab lft" transform="translate(-3 -7.0)">27</text></g><g class="a28 c1 node n21 p0" transform="translate(25.65 24.6739)"><g class="a21 c2 node n17 p0" transform="translate(0.0 13.4153)"><g class="a17 c2 node n14 p0" transform="translate(15.2 3.59458)"><g class="a14 leaf node n7 p0 sample" transform="translate(-7.6 6.34179)"><path class="edge" d="M 0 0 V -6.34179 H 7.6" /><rect class="sym" height="6" width="6" x="-3" y="-3" /><text class="lab" transform="translate(0 11)">7</text></g><g class="a14 leaf node n8 p0 sample" transform="translate(7.6 6.34179)"><path class="edge" d="M 0 0 V -6.34179 H -7.6" /><rect class="sym" height="6" width="6" x="-3" y="-3" /><text class="lab" transform="translate(0 11)">8</text></g><path class="edge" d="M 0 0 V -3.59458 H -15.2" /><circle class="sym" cx="0" cy="0" r="3" /><text class="lab rgt" transform="translate(3 -7.0)">14</text></g><g class="a17 c1 node n12 p0" transform="translate(-15.2 7.41)"><g class="a12 c2 node n10 p0" transform="translate(0.0 1.81375)"><g class="a10 leaf node n1 p0 sample" transform="translate(-7.6 0.712626)"><path class="edge" d="M 0 0 V -0.712626 H 7.6" /><rect class="sym" height="6" width="6" x="-3" y="-3" /><text class="lab" transform="translate(0 11)">1</text></g><g class="a10 leaf node n4 p0 sample" transform="translate(7.6 0.712626)"><path class="edge" d="M 0 0 V -0.712626 H -7.6" /><rect class="sym" height="6" width="6" x="-3" y="-3" /><text class="lab" transform="translate(0 11)">4</text></g><path class="edge" d="M 0 0 V -1.81375 H 0.0" /><circle class="sym" cx="0" cy="0" r="3" /><text class="lab lft" transform="translate(-3 -7.0)">10</text></g><path class="edge" d="M 0 0 V -7.41 H 15.2" /><circle class="sym" cx="0" cy="0" r="3" /><text class="lab lft" transform="translate(-3 -7.0)">12</text></g><path class="edge" d="M 0 0 V -13.4153 H 0.0" /><circle class="sym" cx="0" cy="0" r="3" /><text class="lab lft" transform="translate(-3 -7.0)">17</text></g><path class="edge" d="M 0 0 V -24.6739 H -25.65" /><circle class="sym" cx="0" cy="0" r="3" /><text class="lab rgt" transform="translate(3 -7.0)">21</text></g><path class="edge" d="M 0 0 V -11.085 H 31.825" /><circle class="sym" cx="0" cy="0" r="3" /><text class="lab lft" transform="translate(-3 -7.0)">28</text></g><g class="a29 c1 node n25 p0" transform="translate(31.825 20.3321)"><g class="a25 c1 node n22 p0" transform="translate(0.0 6.07023)"><g class="a22 leaf node n5 p0 sample" transform="translate(0.0 32.7082)"><path class="edge" d="M 0 0 V -32.7082 H 0.0" /><rect class="sym" height="6" width="6" x="-3" y="-3" /><text class="lab" transform="translate(0 11)">5</text></g><path class="edge" d="M 0 0 V -6.07023 H 0.0" /><circle class="sym" cx="0" cy="0" r="3" /><text class="lab lft" transform="translate(-3 -7.0)">22</text></g><path class="edge" d="M 0 0 V -20.3321 H -31.825" /><circle class="sym" cx="0" cy="0" r="3" /><text class="lab rgt" transform="translate(3 -7.0)">25</text></g><path class="edge" d="M 0 0 V -35.4894 H 23.5125" /><circle class="sym" cx="0" cy="0" r="3" /><text class="lab lft" transform="translate(-3 -7.0)">29</text></g><circle class="sym" cx="0" cy="0" r="3" /><text class="lab" transform="translate(0 -11)">30</text></g></g></g></g></g></svg>
