<svg baseProfile="full" height="200" version="1.1" width="1000" xmlns="http://www.w3.org/2000/svg" xmlns:ev="http://www.w3.org/2001/xml-events" xmlns:xlink="http://www.w3.org/1999/xlink"><defs><style type="text/css"><![CDATA[.background path {fill: #808080; fill-opacity: 0}.background path:nth-child(odd) {fill-opacity: .1}.axes {font-size: 14px}.x-axis .tick .lab {font-weight: bold; dominant-baseline: hanging}.axes, .tree {font-size: 14px; text-anchor: middle}.axes line, .edge {stroke: black; fill: none}.y-axis .grid {stroke: #FAFAFA}.node > .sym {fill: black; stroke: none}.site > .sym {stroke: black}.mut text {fill: red; font-style: italic}.mut.extra text {fill: hotpink}.mut line {fill: none; stroke: none}.mut .sym {fill: none; stroke: red}.mut.extra .sym {stroke: hotpink}.node .mut .sym {stroke-width: 1.5px}.tree text, .tree-sequence text {dominant-baseline: central}.plotbox .lab.lft {text-anchor: end}.plotbox .lab.rgt {text-anchor: start}]]></style></defs><g class="tree-sequence"><g class="background"><path d="M20,0 l192,0 l0,138.2 l474.235,25 l0,5 l-666.235,0 l0,-5 l0,-25 l0,-138.2z" /><path d="M212,0 l192,0 l0,138.2 l399.656,25 l0,5 l-117.422,0 l0,-5 l-474.235,-25 l0,-138.2z" /><path d="M404,0 l192,0 l0,138.2 l256.493,25 l0,5 l-48.8368,0 l0,-5 l-399.656,-25 l0,-138.2z" /><path d="M596,0 l192,0 l0,138.2 l129.652,25 l0,5 l-65.1583,0 l0,-5 l-256.493,-25 l0,-138.2z" /><path d="M788,0 l192,0 l0,138.2 l0,25 l0,5 l-62.3484,0 l0,-5 l-129.652,-25 l0,-138.2z" /></g><g class="axes"><g class="x-axis"><g transform="translate(500 200)"><text class="lab" text-anchor="middle" transform="translate(0 -11)">Genome position</text></g><line x1="20" x2="980" y1="163.2" y2="163.2" /><g class="ticks"><g class="tick" transform="translate(20 163.2)"><line x1="0" x2="0" y1="0" y2="5" /><g transform="translate(0 6)"><text class="lab">0.00</text></g></g><g class="tick" transform="translate(686.235 163.2)"><line x1="0" x2="0" y1="0" y2="5" /><g transform="translate(0 6)"><text class="lab">693.99</text></g></g><g class="tick" transform="translate(803.656 163.2)"><line x1="0" x2="0" y1="0" y2="5" /><g transform="translate(0 6)"><text class="lab">816.31</text></g></g><g class="tick" transform="translate(852.493 163.2)"><line x1="0" x2="0" y1="0" y2="5" /><g transform="translate(0 6)"><text class="lab">867.18</text></g></g><g class="tick" transform="translate(917.652 163.2)"><line x1="0" x2="0" y1="0" y2="5" /><g transform="translate(0 6)"><text class="lab">935.05</text></g></g><g class="tick" transform="translate(980 163.2)"><line x1="0" x2="0" y1="0" y2="5" /><g transform="translate(0 6)"><text class="lab">1000.00</text></g></g></g></g></g><g class="plotbox trees"><g class="tree t0" transform="translate(20 0)"><g class="plotbox"><g class="c2 node n30 p0 root" transform="translate(127.587 26.8)"><g class="a30 c1 node n28 p0" transform="translate(29.2125 55.3575)"><g class="a28 c2 node n23 p0" transform="translate(0.0 10.5134)"><g class="a23 c1 node n18 p0" transform="translate(7.6 11.5378)"><g class="a18 c1 node n15 p0" transform="translate(0.0 7.90443)"><g class="a15 leaf node n3 p0 sample" transform="translate(0.0 9.28685)"><path class="edge" d="M 0 0 V -9.28685 H 0.0" /><rect class="sym" height="6" width="6" x="-3" y="-3" /><text class="lab" transform="translate(0 11)">3</text></g><path class="edge" d="M 0 0 V -7.90443 H 0.0" /><circle class="sym" cx="0" cy="0" r="3" /><text class="lab lft" transform="translate(-3 -7.0)">15</text></g><path class="edge" d="M 0 0 V -11.5378 H -7.6" /><circle class="sym" cx="0" cy="0" r="3" /><text class="lab rgt" transform="translate(3 -7.0)">18</text></g><g class="a23 c1 node n20 p0" transform="translate(-7.6 1.77782)"><g class="a20 leaf node n1 p0 sample" transform="translate(0.0 26.9513)"><path class="edge" d="M 0 0 V -26.9513 H 0.0" /><rect class="sym" height="6" width="6" x="-3" y="-3" /><text class="lab" transform="translate(0 11)">1</text></g><path class="edge" d="M 0 0 V -1.77782 H 7.6" /><circle class="sym" cx="0" cy="0" r="3" /><text class="lab lft" transform="translate(-3 -7.0)">20</text></g><path class="edge" d="M 0 0 V -10.5134 H 0.0" /><circle class="sym" cx="0" cy="0" r="3" /><text class="lab lft" transform="translate(-3 -7.0)">23</text></g><path class="edge" d="M 0 0 V -55.3575 H -29.2125" /><circle class="sym" cx="0" cy="0" r="3" /><text class="lab rgt" transform="translate(3 -7.0)">28</text></g><g class="a30 c1 node n29 p0" transform="translate(-29.2125 11.3587)"><g class="a29 c2 node n27 p0" transform="translate(0.0 45.5395)"><g class="a27 c2 node n24 p0" transform="translate(-24.225 2.81119)"><g class="a24 leaf node n8 p0 sample" transform="translate(14.25 34.8906)"><path class="edge" d="M 0 0 V -34.8906 H -14.25" /><rect class="sym" height="6" width="6" x="-3" y="-3" /><text class="lab" transform="translate(0 11)">8</text></g><g class="a24 c1 node n22 p0" transform="translate(-14.25 7.18322)"><g class="a22 c2 node n16 p0" transform="translate(0.0 17.9903)"><g class="a16 leaf node n4 p0 sample" transform="translate(13.3 9.7171)"><path class="edge" d="M 0 0 V -9.7171 H -13.3" /><rect class="sym" height="6" width="6" x="-3" y="-3" /><text class="lab" transform="translate(0 11)">4</text></g><g class="a16 c2 node n13 p0" transform="translate(-13.3 8.86435)"><g class="a13 leaf node n6 p0 sample" transform="translate(11.4 0.852748)"><path class="edge" d="M 0 0 V -0.852748 H -11.4" /><rect class="sym" height="6" width="6" x="-3" y="-3" /><text class="lab" transform="translate(0 11)">6</text></g><g class="a13 c2 node n10 p0" transform="translate(-11.4 0.633988)"><g class="a10 leaf node n0 p0 sample" transform="translate(-7.6 0.218761)"><path class="edge" d="M 0 0 V -0.218761 H 7.6" /><rect class="sym" height="6" width="6" x="-3" y="-3" /><text class="lab" transform="translate(0 11)">0</text></g><g class="a10 leaf node n5 p0 sample" transform="translate(7.6 0.218761)"><path class="edge" d="M 0 0 V -0.218761 H -7.6" /><rect class="sym" height="6" width="6" x="-3" y="-3" /><text class="lab" transform="translate(0 11)">5</text></g><path class="edge" d="M 0 0 V -0.633988 H 11.4" /><circle class="sym" cx="0" cy="0" r="3" /><text class="lab lft" transform="translate(-3 -7.0)">10</text></g><path class="edge" d="M 0 0 V -8.86435 H 13.3" /><circle class="sym" cx="0" cy="0" r="3" /><text class="lab lft" transform="translate(-3 -7.0)">13</text></g><path class="edge" d="M 0 0 V -17.9903 H 0.0" /><circle class="sym" cx="0" cy="0" r="3" /><text class="lab lft" transform="translate(-3 -7.0)">16</text></g><path class="edge" d="M 0 0 V -7.18322 H 14.25" /><circle class="sym" cx="0" cy="0" r="3" /><text class="lab lft" transform="translate(-3 -7.0)">22</text></g><path class="edge" d="M 0 0 V -2.81119 H 24.225" /><circle class="sym" cx="0" cy="0" r="3" /><text class="lab lft" transform="translate(-3 -7.0)">24</text></g><g class="a27 c1 node n25 p0" transform="translate(24.225 1.23748)"><g class="a25 c2 node n17 p0" transform="translate(0.0 25.401)"><g class="a17 leaf node n9 p0 sample" transform="translate(11.4 11.0633)"><path class="edge" d="M 0 0 V -11.0633 H -11.4" /><rect class="sym" height="6" width="6" x="-3" y="-3" /><text class="lab" transform="translate(0 11)">9</text></g><g class="a17 c2 node n14 p0" transform="translate(-11.4 5.20717)"><g class="a14 leaf node n7 p0 sample" transform="translate(7.6 5.85616)"><path class="edge" d="M 0 0 V -5.85616 H -7.6" /><rect class="sym" height="6" width="6" x="-3" y="-3" /><text class="lab" transform="translate(0 11)">7</text></g><g class="a14 c1 node n11 p0" transform="translate(-7.6 5.11051)"><g class="a11 leaf node n2 p0 sample" transform="translate(0.0 0.74565)"><path class="edge" d="M 0 0 V -0.74565 H 0.0" /><rect class="sym" height="6" width="6" x="-3" y="-3" /><text class="lab" transform="translate(0 11)">2</text></g><path class="edge" d="M 0 0 V -5.11051 H 7.6" /><circle class="sym" cx="0" cy="0" r="3" /><text class="lab lft" transform="translate(-3 -7.0)">11</text></g><path class="edge" d="M 0 0 V -5.20717 H 11.4" /><circle class="sym" cx="0" cy="0" r="3" /><text class="lab lft" transform="translate(-3 -7.0)">14</text></g><path class="edge" d="M 0 0 V -25.401 H 0.0" /><circle class="sym" cx="0" cy="0" r="3" /><text class="lab lft" transform="translate(-3 -7.0)">17</text></g><path class="edge" d="M 0 0 V -1.23748 H -24.225" /><circle class="sym" cx="0" cy="0" r="3" /><text class="lab rgt" transform="translate(3 -7.0)">25</text></g><path class="edge" d="M 0 0 V -45.5395 H 0.0" /><circle class="sym" cx="0" cy="0" r="3" /><text class="lab lft" transform="translate(-3 -7.0)">27</text></g><path class="edge" d="M 0 0 V -11.3587 H 29.2125" /><circle class="sym" cx="0" cy="0" r="3" /><text class="lab lft" transform="translate(-3 -7.0)">29</text></g><circle class="sym" cx="0" cy="0" r="3" /><text class="lab" transform="translate(0 -11)">30</text></g></g></g><g class="tree t1" transform="translate(212 0)"><g class="plotbox"><g class="c2 node n30 p0 root" transform="translate(127.587 26.8)"><g class="a30 c2 node n28 p0" transform="translate(29.2125 55.3575)"><g class="a28 c1 node n23 p0" transform="translate(-7.6 10.5134)"><g class="a23 c1 node n20 p0" transform="translate(0.0 1.77782)"><g class="a20 leaf node n1 p0 sample" transform="translate(0.0 26.9513)"><path class="edge" d="M 0 0 V -26.9513 H 0.0" /><rect class="sym" height="6" width="6" x="-3" y="-3" /><text class="lab" transform="translate(0 11)">1</text></g><path class="edge" d="M 0 0 V -1.77782 H 0.0" /><circle class="sym" cx="0" cy="0" r="3" /><text class="lab lft" transform="translate(-3 -7.0)">20</text></g><path class="edge" d="M 0 0 V -10.5134 H 7.6" /><circle class="sym" cx="0" cy="0" r="3" /><text class="lab lft" transform="translate(-3 -7.0)">23</text></g><g class="a28 c1 node n19 p0" transform="translate(7.6 22.0512)"><g class="a19 c1 node n15 p0" transform="translate(0.0 7.90443)"><g class="a15 leaf node n3 p0 sample" transform="translate(0.0 9.28685)"><path class="edge" d="M 0 0 V -9.28685 H 0.0" /><rect class="sym" height="6" width="6" x="-3" y="-3" /><text class="lab" transform="translate(0 11)">3</text></g><path class="edge" d="M 0 0 V -7.90443 H 0.0" /><circle class="sym" cx="0" cy="0" r="3" /><text class="lab lft" transform="translate(-3 -7.0)">15</text></g><path class="edge" d="M 0 0 V -22.0512 H -7.6" /><circle class="sym" cx="0" cy="0" r="3" /><text class="lab rgt" transform="translate(3 -7.0)">19</text></g><path class="edge" d="M 0 0 V -55.3575 H -29.2125" /><circle class="sym" cx="0" cy="0" r="3" /><text class="lab rgt" transform="translate(3 -7.0)">28</text></g><g class="a30 c1 node n29 p0" transform="translate(-29.2125 11.3587)"><g class="a29 c2 node n27 p0" transform="translate(0.0 45.5395)"><g class="a27 c2 node n24 p0" transform="translate(-24.225 2.81119)"><g class="a24 leaf node n8 p0 sample" transform="translate(14.25 34.8906)"><path class="edge" d="M 0 0 V -34.8906 H -14.25" /><rect class="sym" height="6" width="6" x="-3" y="-3" /><text class="lab" transform="translate(0 11)">8</text></g><g class="a24 c1 node n22 p0" transform="translate(-14.25 7.18322)"><g class="a22 c2 node n16 p0" transform="translate(0.0 17.9903)"><g class="a16 leaf node n4 p0 sample" transform="translate(13.3 9.7171)"><path class="edge" d="M 0 0 V -9.7171 H -13.3" /><rect class="sym" height="6" width="6" x="-3" y="-3" /><text class="lab" transform="translate(0 11)">4</text></g><g class="a16 c2 node n13 p0" transform="translate(-13.3 8.86435)"><g class="a13 leaf node n6 p0 sample" transform="translate(11.4 0.852748)"><path class="edge" d="M 0 0 V -0.852748 H -11.4" /><rect class="sym" height="6" width="6" x="-3" y="-3" /><text class="lab" transform="translate(0 11)">6</text></g><g class="a13 c2 node n10 p0" transform="translate(-11.4 0.633988)"><g class="a10 leaf node n0 p0 sample" transform="translate(-7.6 0.218761)"><path class="edge" d="M 0 0 V -0.218761 H 7.6" /><rect class="sym" height="6" width="6" x="-3" y="-3" /><text class="lab" transform="translate(0 11)">0</text></g><g class="a10 leaf node n5 p0 sample" transform="translate(7.6 0.218761)"><path class="edge" d="M 0 0 V -0.218761 H -7.6" /><rect class="sym" height="6" width="6" x="-3" y="-3" /><text class="lab" transform="translate(0 11)">5</text></g><path class="edge" d="M 0 0 V -0.633988 H 11.4" /><circle class="sym" cx="0" cy="0" r="3" /><text class="lab lft" transform="translate(-3 -7.0)">10</text></g><path class="edge" d="M 0 0 V -8.86435 H 13.3" /><circle class="sym" cx="0" cy="0" r="3" /><text class="lab lft" transform="translate(-3 -7.0)">13</text></g><path class="edge" d="M 0 0 V -17.9903 H 0.0" /><circle class="sym" cx="0" cy="0" r="3" /><text class="lab lft" transform="translate(-3 -7.0)">16</text></g><path class="edge" d="M 0 0 V -7.18322 H 14.25" /><circle class="sym" cx="0" cy="0" r="3" /><text class="lab lft" transform="translate(-3 -7.0)">22</text></g><path class="edge" d="M 0 0 V -2.81119 H 24.225" /><circle class="sym" cx="0" cy="0" r="3" /><text class="lab lft" transform="translate(-3 -7.0)">24</text></g><g class="a27 c1 node n25 p0" transform="translate(24.225 1.23748)"><g class="a25 c2 node n17 p0" transform="translate(0.0 25.401)"><g class="a17 leaf node n9 p0 sample" transform="translate(11.4 11.0633)"><path class="edge" d="M 0 0 V -11.0633 H -11.4" /><rect class="sym" height="6" width="6" x="-3" y="-3" /><text class="lab" transform="translate(0 11)">9</text></g><g class="a17 c2 node n14 p0" transform="translate(-11.4 5.20717)"><g class="a14 leaf node n7 p0 sample" transform="translate(7.6 5.85616)"><path class="edge" d="M 0 0 V -5.85616 H -7.6" /><rect class="sym" height="6" width="6" x="-3" y="-3" /><text class="lab" transform="translate(0 11)">7</text></g><g class="a14 c1 node n11 p0" transform="translate(-7.6 5.11051)"><g class="a11 leaf node n2 p0 sample" transform="translate(0.0 0.74565)"><path class="edge" d="M 0 0 V -0.74565 H 0.0" /><rect class="sym" height="6" width="6" x="-3" y="-3" /><text class="lab" transform="translate(0 11)">2</text></g><path class="edge" d="M 0 0 V -5.11051 H 7.6" /><circle class="sym" cx="0" cy="0" r="3" /><text class="lab lft" transform="translate(-3 -7.0)">11</text></g><path class="edge" d="M 0 0 V -5.20717 H 11.4" /><circle class="sym" cx="0" cy="0" r="3" /><text class="lab lft" transform="translate(-3 -7.0)">14</text></g><path class="edge" d="M 0 0 V -25.401 H 0.0" /><circle class="sym" cx="0" cy="0" r="3" /><text class="lab lft" transform="translate(-3 -7.0)">17</text></g><path class="edge" d="M 0 0 V -1.23748 H -24.225" /><circle class="sym" cx="0" cy="0" r="3" /><text class="lab rgt" transform="translate(3 -7.0)">25</text></g><path class="edge" d="M 0 0 V -45.5395 H 0.0" /><circle class="sym" cx="0" cy="0" r="3" /><text class="lab lft" transform="translate(-3 -7.0)">27</text></g><path class="edge" d="M 0 0 V -11.3587 H 29.2125" /><circle class="sym" cx="0" cy="0" r="3" /><text class="lab lft" transform="translate(-3 -7.0)">29</text></g><circle class="sym" cx="0" cy="0" r="3" /><text class="lab" transform="translate(0 -11)">30</text></g></g></g><g class="tree t2" transform="translate(404 0)"><g class="plotbox"><g class="c2 node n30 p0 root" transform="translate(119.037 26.8)"><g class="a30 c2 node n28 p0" transform="translate(26.3625 55.3575)"><g class="a28 c1 node n23 p0" transform="translate(-11.4 10.5134)"><g class="a23 c1 node n20 p0" transform="translate(0.0 1.77782)"><g class="a20 leaf node n1 p0 sample" transform="translate(0.0 26.9513)"><path class="edge" d="M 0 0 V -26.9513 H 0.0" /><rect class="sym" height="6" width="6" x="-3" y="-3" /><text class="lab" transform="translate(0 11)">1</text></g><path class="edge" d="M 0 0 V -1.77782 H 0.0" /><circle class="sym" cx="0" cy="0" r="3" /><text class="lab lft" transform="translate(-3 -7.0)">20</text></g><path class="edge" d="M 0 0 V -10.5134 H 11.4" /><circle class="sym" cx="0" cy="0" r="3" /><text class="lab lft" transform="translate(-3 -7.0)">23</text></g><g class="a28 c1 node n19 p0" transform="translate(11.4 22.0512)"><g class="a19 c2 node n15 p0" transform="translate(0.0 7.90443)"><g class="a15 leaf node n3 p0 sample" transform="translate(7.6 9.28685)"><path class="edge" d="M 0 0 V -9.28685 H -7.6" /><rect class="sym" height="6" width="6" x="-3" y="-3" /><text class="lab" transform="translate(0 11)">3</text></g><g class="a15 c1 node n12 p0" transform="translate(-7.6 8.5412)"><g class="a12 leaf node n2 p0 sample" transform="translate(0.0 0.74565)"><path class="edge" d="M 0 0 V -0.74565 H 0.0" /><rect class="sym" height="6" width="6" x="-3" y="-3" /><text class="lab" transform="translate(0 11)">2</text></g><path class="edge" d="M 0 0 V -8.5412 H 7.6" /><circle class="sym" cx="0" cy="0" r="3" /><text class="lab lft" transform="translate(-3 -7.0)">12</text></g><path class="edge" d="M 0 0 V -7.90443 H 0.0" /><circle class="sym" cx="0" cy="0" r="3" /><text class="lab lft" transform="translate(-3 -7.0)">15</text></g><path class="edge" d="M 0 0 V -22.0512 H -11.4" /><circle class="sym" cx="0" cy="0" r="3" /><text class="lab rgt" transform="translate(3 -7.0)">19</text></g><path class="edge" d="M 0 0 V -55.3575 H -26.3625" /><circle class="sym" cx="0" cy="0" r="3" /><text class="lab rgt" transform="translate(3 -7.0)">28</text></g><g class="a30 c1 node n29 p0" transform="translate(-26.3625 11.3587)"><g class="a29 c2 node n27 p0" transform="translate(0.0 45.5395)"><g class="a27 c2 node n24 p0" transform="translate(-18.525 2.81119)"><g class="a24 leaf node n8 p0 sample" transform="translate(14.25 34.8906)"><path class="edge" d="M 0 0 V -34.8906 H -14.25" /><rect class="sym" height="6" width="6" x="-3" y="-3" /><text class="lab" transform="translate(0 11)">8</text></g><g class="a24 c1 node n22 p0" transform="translate(-14.25 7.18322)"><g class="a22 c2 node n16 p0" transform="translate(0.0 17.9903)"><g class="a16 leaf node n4 p0 sample" transform="translate(13.3 9.7171)"><path class="edge" d="M 0 0 V -9.7171 H -13.3" /><rect class="sym" height="6" width="6" x="-3" y="-3" /><text class="lab" transform="translate(0 11)">4</text></g><g class="a16 c2 node n13 p0" transform="translate(-13.3 8.86435)"><g class="a13 leaf node n6 p0 sample" transform="translate(11.4 0.852748)"><path class="edge" d="M 0 0 V -0.852748 H -11.4" /><rect class="sym" height="6" width="6" x="-3" y="-3" /><text class="lab" transform="translate(0 11)">6</text></g><g class="a13 c2 node n10 p0" transform="translate(-11.4 0.633988)"><g class="a10 leaf node n0 p0 sample" transform="translate(-7.6 0.218761)"><path class="edge" d="M 0 0 V -0.218761 H 7.6" /><rect class="sym" height="6" width="6" x="-3" y="-3" /><text class="lab" transform="translate(0 11)">0</text></g><g class="a10 leaf node n5 p0 sample" transform="translate(7.6 0.218761)"><path class="edge" d="M 0 0 V -0.218761 H -7.6" /><rect class="sym" height="6" width="6" x="-3" y="-3" /><text class="lab" transform="translate(0 11)">5</text></g><path class="edge" d="M 0 0 V -0.633988 H 11.4" /><circle class="sym" cx="0" cy="0" r="3" /><text class="lab lft" transform="translate(-3 -7.0)">10</text></g><path class="edge" d="M 0 0 V -8.86435 H 13.3" /><circle class="sym" cx="0" cy="0" r="3" /><text class="lab lft" transform="translate(-3 -7.0)">13</text></g><path class="edge" d="M 0 0 V -17.9903 H 0.0" /><circle class="sym" cx="0" cy="0" r="3" /><text class="lab lft" transform="translate(-3 -7.0)">16</text></g><path class="edge" d="M 0 0 V -7.18322 H 14.25" /><circle class="sym" cx="0" cy="0" r="3" /><text class="lab lft" transform="translate(-3 -7.0)">22</text></g><path class="edge" d="M 0 0 V -2.81119 H 18.525" /><circle class="sym" cx="0" cy="0" r="3" /><text class="lab lft" transform="translate(-3 -7.0)">24</text></g><g class="a27 c1 node n25 p0" transform="translate(18.525 1.23748)"><g class="a25 c2 node n17 p0" transform="translate(0.0 25.401)"><g class="a17 leaf node n9 p0 sample" transform="translate(7.6 11.0633)"><path class="edge" d="M 0 0 V -11.0633 H -7.6" /><rect class="sym" height="6" width="6" x="-3" y="-3" /><text class="lab" transform="translate(0 11)">9</text></g><g class="a17 c1 node n14 p0" transform="translate(-7.6 5.20717)"><g class="a14 leaf node n7 p0 sample" transform="translate(0.0 5.85616)"><path class="edge" d="M 0 0 V -5.85616 H 0.0" /><rect class="sym" height="6" width="6" x="-3" y="-3" /><text class="lab" transform="translate(0 11)">7</text></g><path class="edge" d="M 0 0 V -5.20717 H 7.6" /><circle class="sym" cx="0" cy="0" r="3" /><text class="lab lft" transform="translate(-3 -7.0)">14</text></g><path class="edge" d="M 0 0 V -25.401 H 0.0" /><circle class="sym" cx="0" cy="0" r="3" /><text class="lab lft" transform="translate(-3 -7.0)">17</text></g><path class="edge" d="M 0 0 V -1.23748 H -18.525" /><circle class="sym" cx="0" cy="0" r="3" /><text class="lab rgt" transform="translate(3 -7.0)">25</text></g><path class="edge" d="M 0 0 V -45.5395 H 0.0" /><circle class="sym" cx="0" cy="0" r="3" /><text class="lab lft" transform="translate(-3 -7.0)">27</text></g><path class="edge" d="M 0 0 V -11.3587 H 26.3625" /><circle class="sym" cx="0" cy="0" r="3" /><text class="lab lft" transform="translate(-3 -7.0)">29</text></g><circle class="sym" cx="0" cy="0" r="3" /><text class="lab" transform="translate(0 -11)">30</text></g></g></g><g class="tree t3" transform="translate(596 0)"><g class="plotbox"><g class="c2 node n30 p0 root" transform="translate(119.037 26.8)"><g class="a30 c2 node n28 p0" transform="translate(26.3625 55.3575)"><g class="a28 c1 node n23 p0" transform="translate(-11.4 10.5134)"><g class="a23 c1 node n20 p0" transform="translate(0.0 1.77782)"><g class="a20 leaf node n1 p0 sample" transform="translate(0.0 26.9513)"><path class="edge" d="M 0 0 V -26.9513 H 0.0" /><rect class="sym" height="6" width="6" x="-3" y="-3" /><text class="lab" transform="translate(0 11)">1</text></g><path class="edge" d="M 0 0 V -1.77782 H 0.0" /><circle class="sym" cx="0" cy="0" r="3" /><text class="lab lft" transform="translate(-3 -7.0)">20</text></g><path class="edge" d="M 0 0 V -10.5134 H 11.4" /><circle class="sym" cx="0" cy="0" r="3" /><text class="lab lft" transform="translate(-3 -7.0)">23</text></g><g class="a28 c1 node n19 p0" transform="translate(11.4 22.0512)"><g class="a19 c2 node n15 p0" transform="translate(0.0 7.90443)"><g class="a15 leaf node n3 p0 sample" transform="translate(7.6 9.28685)"><path class="edge" d="M 0 0 V -9.28685 H -7.6" /><rect class="sym" height="6" width="6" x="-3" y="-3" /><text class="lab" transform="translate(0 11)">3</text></g><g class="a15 c1 node n12 p0" transform="translate(-7.6 8.5412)"><g class="a12 leaf node n2 p0 sample" transform="translate(0.0 0.74565)"><path class="edge" d="M 0 0 V -0.74565 H 0.0" /><rect class="sym" height="6" width="6" x="-3" y="-3" /><text class="lab" transform="translate(0 11)">2</text></g><path class="edge" d="M 0 0 V -8.5412 H 7.6" /><circle class="sym" cx="0" cy="0" r="3" /><text class="lab lft" transform="translate(-3 -7.0)">12</text></g><path class="edge" d="M 0 0 V -7.90443 H 0.0" /><circle class="sym" cx="0" cy="0" r="3" /><text class="lab lft" transform="translate(-3 -7.0)">15</text></g><path class="edge" d="M 0 0 V -22.0512 H -11.4" /><circle class="sym" cx="0" cy="0" r="3" /><text class="lab rgt" transform="translate(3 -7.0)">19</text></g><path class="edge" d="M 0 0 V -55.3575 H -26.3625" /><circle class="sym" cx="0" cy="0" r="3" /><text class="lab rgt" transform="translate(3 -7.0)">28</text></g><g class="a30 c2 node n29 p0" transform="translate(-26.3625 11.3587)"><g class="a29 c1 node n27 p0" transform="translate(-18.525 45.5395)"><g class="a27 c2 node n24 p0" transform="translate(0.0 2.81119)"><g class="a24 leaf node n8 p0 sample" transform="translate(14.25 34.8906)"><path class="edge" d="M 0 0 V -34.8906 H -14.25" /><rect class="sym" height="6" width="6" x="-3" y="-3" /><text class="lab" transform="translate(0 11)">8</text></g><g class="a24 c1 node n22 p0" transform="translate(-14.25 7.18322)"><g class="a22 c2 node n16 p0" transform="translate(0.0 17.9903)"><g class="a16 leaf node n4 p0 sample" transform="translate(13.3 9.7171)"><path class="edge" d="M 0 0 V -9.7171 H -13.3" /><rect class="sym" height="6" width="6" x="-3" y="-3" /><text class="lab" transform="translate(0 11)">4</text></g><g class="a16 c2 node n13 p0" transform="translate(-13.3 8.86435)"><g class="a13 leaf node n6 p0 sample" transform="translate(11.4 0.852748)"><path class="edge" d="M 0 0 V -0.852748 H -11.4" /><rect class="sym" height="6" width="6" x="-3" y="-3" /><text class="lab" transform="translate(0 11)">6</text></g><g class="a13 c2 node n10 p0" transform="translate(-11.4 0.633988)"><g class="a10 leaf node n0 p0 sample" transform="translate(-7.6 0.218761)"><path class="edge" d="M 0 0 V -0.218761 H 7.6" /><rect class="sym" height="6" width="6" x="-3" y="-3" /><text class="lab" transform="translate(0 11)">0</text></g><g class="a10 leaf node n5 p0 sample" transform="translate(7.6 0.218761)"><path class="edge" d="M 0 0 V -0.218761 H -7.6" /><rect class="sym" height="6" width="6" x="-3" y="-3" /><text class="lab" transform="translate(0 11)">5</text></g><path class="edge" d="M 0 0 V -0.633988 H 11.4" /><circle class="sym" cx="0" cy="0" r="3" /><text class="lab lft" transform="translate(-3 -7.0)">10</text></g><path class="edge" d="M 0 0 V -8.86435 H 13.3" /><circle class="sym" cx="0" cy="0" r="3" /><text class="lab lft" transform="translate(-3 -7.0)">13</text></g><path class="edge" d="M 0 0 V -17.9903 H 0.0" /><circle class="sym" cx="0" cy="0" r="3" /><text class="lab lft" transform="translate(-3 -7.0)">16</text></g><path class="edge" d="M 0 0 V -7.18322 H 14.25" /><circle class="sym" cx="0" cy="0" r="3" /><text class="lab lft" transform="translate(-3 -7.0)">22</text></g><path class="edge" d="M 0 0 V -2.81119 H 0.0" /><circle class="sym" cx="0" cy="0" r="3" /><text class="lab lft" transform="translate(-3 -7.0)">24</text></g><path class="edge" d="M 0 0 V -45.5395 H 18.525" /><circle class="sym" cx="0" cy="0" r="3" /><text class="lab lft" transform="translate(-3 -7.0)">27</text></g><g class="a29 c1 node n26 p0" transform="translate(18.525 46.777)"><g class="a26 c2 node n17 p0" transform="translate(0.0 25.401)"><g class="a17 leaf node n9 p0 sample" transform="translate(7.6 11.0633)"><path class="edge" d="M 0 0 V -11.0633 H -7.6" /><rect class="sym" height="6" width="6" x="-3" y="-3" /><text class="lab" transform="translate(0 11)">9</text></g><g class="a17 c1 node n14 p0" transform="translate(-7.6 5.20717)"><g class="a14 leaf node n7 p0 sample" transform="translate(0.0 5.85616)"><path class="edge" d="M 0 0 V -5.85616 H 0.0" /><rect class="sym" height="6" width="6" x="-3" y="-3" /><text class="lab" transform="translate(0 11)">7</text></g><path class="edge" d="M 0 0 V -5.20717 H 7.6" /><circle class="sym" cx="0" cy="0" r="3" /><text class="lab lft" transform="translate(-3 -7.0)">14</text></g><path class="edge" d="M 0 0 V -25.401 H 0.0" /><circle class="sym" cx="0" cy="0" r="3" /><text class="lab lft" transform="translate(-3 -7.0)">17</text></g><path class="edge" d="M 0 0 V -46.777 H -18.525" /><circle class="sym" cx="0" cy="0" r="3" /><text class="lab rgt" transform="translate(3 -7.0)">26</text></g><path class="edge" d="M 0 0 V -11.3587 H 26.3625" /><circle class="sym" cx="0" cy="0" r="3" /><text class="lab lft" transform="translate(-3 -7.0)">29</text></g><circle class="sym" cx="0" cy="0" r="3" /><text class="lab" transform="translate(0 -11)">30</text></g></g></g><g class="tree t4" transform="translate(788 0)"><g class="plotbox"><g class="c2 node n30 p0 root" transform="translate(132.219 26.8)"><g class="a30 c1 node n28 p0" transform="translate(24.5812 55.3575)"><g class="a28 c1 node n19 p0" transform="translate(0.0 22.0512)"><g class="a19 c2 node n15 p0" transform="translate(0.0 7.90443)"><g class="a15 leaf node n3 p0 sample" transform="translate(7.6 9.28685)"><path class="edge" d="M 0 0 V -9.28685 H -7.6" /><rect class="sym" height="6" width="6" x="-3" y="-3" /><text class="lab" transform="translate(0 11)">3</text></g><g class="a15 c1 node n12 p0" transform="translate(-7.6 8.5412)"><g class="a12 leaf node n2 p0 sample" transform="translate(0.0 0.74565)"><path class="edge" d="M 0 0 V -0.74565 H 0.0" /><rect class="sym" height="6" width="6" x="-3" y="-3" /><text class="lab" transform="translate(0 11)">2</text></g><path class="edge" d="M 0 0 V -8.5412 H 7.6" /><circle class="sym" cx="0" cy="0" r="3" /><text class="lab lft" transform="translate(-3 -7.0)">12</text></g><path class="edge" d="M 0 0 V -7.90443 H 0.0" /><circle class="sym" cx="0" cy="0" r="3" /><text class="lab lft" transform="translate(-3 -7.0)">15</text></g><path class="edge" d="M 0 0 V -22.0512 H 0.0" /><circle class="sym" cx="0" cy="0" r="3" /><text class="lab lft" transform="translate(-3 -7.0)">19</text></g><path class="edge" d="M 0 0 V -55.3575 H -24.5812" /><circle class="sym" cx="0" cy="0" r="3" /><text class="lab rgt" transform="translate(3 -7.0)">28</text></g><g class="a30 c2 node n29 p0" transform="translate(-24.5812 11.3587)"><g class="a29 c1 node n27 p0" transform="translate(-18.7625 45.5395)"><g class="a27 c2 node n24 p0" transform="translate(0.0 2.81119)"><g class="a24 leaf node n8 p0 sample" transform="translate(14.725 34.8906)"><path class="edge" d="M 0 0 V -34.8906 H -14.725" /><rect class="sym" height="6" width="6" x="-3" y="-3" /><text class="lab" transform="translate(0 11)">8</text></g><g class="a24 c2 node n22 p0" transform="translate(-14.725 7.18322)"><g class="a22 c2 node n16 p0" transform="translate(-14.25 17.9903)"><g class="a16 leaf node n4 p0 sample" transform="translate(13.3 9.7171)"><path class="edge" d="M 0 0 V -9.7171 H -13.3" /><rect class="sym" height="6" width="6" x="-3" y="-3" /><text class="lab" transform="translate(0 11)">4</text></g><g class="a16 c2 node n13 p0" transform="translate(-13.3 8.86435)"><g class="a13 leaf node n6 p0 sample" transform="translate(11.4 0.852748)"><path class="edge" d="M 0 0 V -0.852748 H -11.4" /><rect class="sym" height="6" width="6" x="-3" y="-3" /><text class="lab" transform="translate(0 11)">6</text></g><g class="a13 c2 node n10 p0" transform="translate(-11.4 0.633988)"><g class="a10 leaf node n0 p0 sample" transform="translate(-7.6 0.218761)"><path class="edge" d="M 0 0 V -0.218761 H 7.6" /><rect class="sym" height="6" width="6" x="-3" y="-3" /><text class="lab" transform="translate(0 11)">0</text></g><g class="a10 leaf node n5 p0 sample" transform="translate(7.6 0.218761)"><path class="edge" d="M 0 0 V -0.218761 H -7.6" /><rect class="sym" height="6" width="6" x="-3" y="-3" /><text class="lab" transform="translate(0 11)">5</text></g><path class="edge" d="M 0 0 V -0.633988 H 11.4" /><circle class="sym" cx="0" cy="0" r="3" /><text class="lab lft" transform="translate(-3 -7.0)">10</text></g><path class="edge" d="M 0 0 V -8.86435 H 13.3" /><circle class="sym" cx="0" cy="0" r="3" /><text class="lab lft" transform="translate(-3 -7.0)">13</text></g><path class="edge" d="M 0 0 V -17.9903 H 14.25" /><circle class="sym" cx="0" cy="0" r="3" /><text class="lab lft" transform="translate(-3 -7.0)">16</text></g><g class="a22 c1 node n21 p0" transform="translate(14.25 0.75612)"><g class="a21 leaf node n1 p0 sample" transform="translate(0.0 26.9513)"><path class="edge" d="M 0 0 V -26.9513 H 0.0" /><rect class="sym" height="6" width="6" x="-3" y="-3" /><text class="lab" transform="translate(0 11)">1</text></g><path class="edge" d="M 0 0 V -0.75612 H -14.25" /><circle class="sym" cx="0" cy="0" r="3" /><text class="lab rgt" transform="translate(3 -7.0)">21</text></g><path class="edge" d="M 0 0 V -7.18322 H 14.725" /><circle class="sym" cx="0" cy="0" r="3" /><text class="lab lft" transform="translate(-3 -7.0)">22</text></g><path class="edge" d="M 0 0 V -2.81119 H 0.0" /><circle class="sym" cx="0" cy="0" r="3" /><text class="lab lft" transform="translate(-3 -7.0)">24</text></g><path class="edge" d="M 0 0 V -45.5395 H 18.7625" /><circle class="sym" cx="0" cy="0" r="3" /><text class="lab lft" transform="translate(-3 -7.0)">27</text></g><g class="a29 c1 node n26 p0" transform="translate(18.7625 46.777)"><g class="a26 c2 node n17 p0" transform="translate(0.0 25.401)"><g class="a17 leaf node n9 p0 sample" transform="translate(7.6 11.0633)"><path class="edge" d="M 0 0 V -11.0633 H -7.6" /><rect class="sym" height="6" width="6" x="-3" y="-3" /><text class="lab" transform="translate(0 11)">9</text></g><g class="a17 c1 node n14 p0" transform="translate(-7.6 5.20717)"><g class="a14 leaf node n7 p0 sample" transform="translate(0.0 5.85616)"><path class="edge" d="M 0 0 V -5.85616 H 0.0" /><rect class="sym" height="6" width="6" x="-3" y="-3" /><text class="lab" transform="translate(0 11)">7</text></g><path class="edge" d="M 0 0 V -5.20717 H 7.6" /><circle class="sym" cx="0" cy="0" r="3" /><text class="lab lft" transform="translate(-3 -7.0)">14</text></g><path class="edge" d="M 0 0 V -25.401 H 0.0" /><circle class="sym" cx="0" cy="0" r="3" /><text class="lab lft" transform="translate(-3 -7.0)">17</text></g><path class="edge" d="M 0 0 V -46.777 H -18.7625" /><circle class="sym" cx="0" cy="0" r="3" /><text class="lab rgt" transform="translate(3 -7.0)">26</text></g><path class="edge" d="M 0 0 V -11.3587 H 24.5812" /><circle class="sym" cx="0" cy="0" r="3" /><text class="lab lft" transform="translate(-3 -7.0)">29</text></g><circle class="sym" cx="0" cy="0" r="3" /><text class="lab" transform="translate(0 -11)">30</text></g></g></g></g></g></svg>
