<svg baseProfile="full" height="200" version="1.1" width="800" xmlns="http://www.w3.org/2000/svg" xmlns:ev="http://www.w3.org/2001/xml-events" xmlns:xlink="http://www.w3.org/1999/xlink"><defs><style type="text/css"><![CDATA[.background path {fill: #808080; fill-opacity: 0}.background path:nth-child(odd) {fill-opacity: .1}.axes {font-size: 14px}.x-axis .tick .lab {font-weight: bold; dominant-baseline: hanging}.axes, .tree {font-size: 14px; text-anchor: middle}.axes line, .edge {stroke: black; fill: none}.y-axis .grid {stroke: #FAFAFA}.node > .sym {fill: black; stroke: none}.site > .sym {stroke: black}.mut text {fill: red; font-style: italic}.mut.extra text {fill: hotpink}.mut line {fill: none; stroke: none}.mut .sym {fill: none; stroke: red}.mut.extra .sym {stroke: hotpink}.node .mut .sym {stroke-width: 1.5px}.tree text, .tree-sequence text {dominant-baseline: central}.plotbox .lab.lft {text-anchor: end}.plotbox .lab.rgt {text-anchor: start}]]></style></defs><g class="tree-sequence"><g class="background"><path d="M20,0 l190,0 l0,138.2 l-107.177,25 l0,5 l-82.8227,0 l0,-5 l0,-25 l0,-138.2z" /><path d="M210,0 l190,0 l0,138.2 l-248.299,25 l0,5 l-48.8786,0 l0,-5 l107.177,-25 l0,-138.2z" /><path d="M400,0 l190,0 l0,138.2 l127.917,25 l0,5 l-566.216,0 l0,-5 l248.299,-25 l0,-138.2z" /><path d="M590,0 l190,0 l0,138.2 l0,25 l0,5 l-62.0831,0 l0,-5 l-127.917,-25 l0,-138.2z" /></g><g class="axes"><g class="x-axis"><g transform="translate(400 200)"><text class="lab" text-anchor="middle" transform="translate(0 -11)">Genome position</text></g><line x1="20" x2="780" y1="163.2" y2="163.2" /><g class="ticks"><g class="tick" transform="translate(20 163.2)"><line x1="0" x2="0" y1="0" y2="5" /><g transform="translate(0 6)"><text class="lab">0.00</text></g></g><g class="tick" transform="translate(102.823 163.2)"><line x1="0" x2="0" y1="0" y2="5" /><g transform="translate(0 6)"><text class="lab">108.98</text></g></g><g class="tick" transform="translate(151.701 163.2)"><line x1="0" x2="0" y1="0" y2="5" /><g transform="translate(0 6)"><text class="lab">173.29</text></g></g><g class="tick" transform="translate(717.917 163.2)"><line x1="0" x2="0" y1="0" y2="5" /><g transform="translate(0 6)"><text class="lab">918.31</text></g></g><g class="tick" transform="translate(780 163.2)"><line x1="0" x2="0" y1="0" y2="5" /><g transform="translate(0 6)"><text class="lab">1000.00</text></g></g></g></g></g><g class="plotbox trees"><g class="tree t0" transform="translate(20 0)"><g class="plotbox"><g class="c2 node n27 p0 root" transform="translate(113.984 26.8)"><g class="a27 c2 node n25 p0" transform="translate(37.2656 50.1004)"><g class="a25 leaf node n5 p0 sample" transform="translate(11.25 44.4996)"><path class="edge" d="M 0 0 V -44.4996 H -11.25" /><rect class="sym" height="6" width="6" x="-3" y="-3" /><text class="lab" transform="translate(0 11)">5</text></g><g class="a25 c1 node n15 p0" transform="translate(-11.25 31.7566)"><g class="a15 c2 node n10 p0" transform="translate(0.0 11.4881)"><g class="a10 leaf node n3 p0 sample" transform="translate(-7.5 1.25482)"><path class="edge" d="M 0 0 V -1.25482 H 7.5" /><rect class="sym" height="6" width="6" x="-3" y="-3" /><text class="lab" transform="translate(0 11)">3</text></g><g class="a10 leaf node n9 p0 sample" transform="translate(7.5 1.25482)"><path class="edge" d="M 0 0 V -1.25482 H -7.5" /><rect class="sym" height="6" width="6" x="-3" y="-3" /><text class="lab" transform="translate(0 11)">9</text></g><path class="edge" d="M 0 0 V -11.4881 H 0.0" /><circle class="sym" cx="0" cy="0" r="3" /><text class="lab lft" transform="translate(-3 -7.0)">10</text></g><path class="edge" d="M 0 0 V -31.7566 H 11.25" /><circle class="sym" cx="0" cy="0" r="3" /><text class="lab lft" transform="translate(-3 -7.0)">15</text></g><path class="edge" d="M 0 0 V -50.1004 H -37.2656" /><circle class="sym" cx="0" cy="0" r="3" /><text class="lab rgt" transform="translate(3 -7.0)">25</text></g><g class="a27 c1 node n26 p0" transform="translate(-37.2656 41.2436)"><g class="a26 c1 node n24 p0" transform="translate(0.0 11.784)"><g class="a24 c2 node n23 p0" transform="translate(0.0 4.14638)"><g class="a23 c1 node n19 p0" transform="translate(33.2812 5.83494)"><g class="a19 c2 node n12 p0" transform="translate(0.0 25.8541)"><g class="a12 leaf node n2 p0 sample" transform="translate(-7.5 5.73698)"><path class="edge" d="M 0 0 V -5.73698 H 7.5" /><rect class="sym" height="6" width="6" x="-3" y="-3" /><text class="lab" transform="translate(0 11)">2</text></g><g class="a12 leaf node n8 p0 sample" transform="translate(7.5 5.73698)"><path class="edge" d="M 0 0 V -5.73698 H -7.5" /><rect class="sym" height="6" width="6" x="-3" y="-3" /><text class="lab" transform="translate(0 11)">8</text></g><path class="edge" d="M 0 0 V -25.8541 H 0.0" /><circle class="sym" cx="0" cy="0" r="3" /><text class="lab lft" transform="translate(-3 -7.0)">12</text></g><path class="edge" d="M 0 0 V -5.83494 H -33.2812" /><circle class="sym" cx="0" cy="0" r="3" /><text class="lab rgt" transform="translate(3 -7.0)">19</text></g><g class="a23 c2 node n22 p0" transform="translate(-33.2812 0.0261414)"><g class="a22 leaf node n0 p0 sample" transform="translate(-15.9375 37.3999)"><path class="edge" d="M 0 0 V -37.3999 H 15.9375" /><rect class="sym" height="6" width="6" x="-3" y="-3" /><text class="lab" transform="translate(0 11)">0</text></g><g class="a22 c1 node n17 p0" transform="translate(15.9375 17.0803)"><g class="a17 c2 node n14 p0" transform="translate(0.0 13.3738)"><g class="a14 leaf node n1 p0 sample" transform="translate(-16.875 6.94581)"><path class="edge" d="M 0 0 V -6.94581 H 16.875" /><rect class="sym" height="6" width="6" x="-3" y="-3" /><text class="lab" transform="translate(0 11)">1</text></g><g class="a14 c2 node n13 p0" transform="translate(16.875 0.960094)"><g class="a13 leaf node n6 p0 sample" transform="translate(11.25 5.98572)"><path class="edge" d="M 0 0 V -5.98572 H -11.25" /><rect class="sym" height="6" width="6" x="-3" y="-3" /><text class="lab" transform="translate(0 11)">6</text></g><g class="a13 c2 node n11 p0" transform="translate(-11.25 2.94493)"><g class="a11 leaf node n4 p0 sample" transform="translate(-7.5 3.04079)"><path class="edge" d="M 0 0 V -3.04079 H 7.5" /><rect class="sym" height="6" width="6" x="-3" y="-3" /><text class="lab" transform="translate(0 11)">4</text></g><g class="a11 leaf node n7 p0 sample" transform="translate(7.5 3.04079)"><path class="edge" d="M 0 0 V -3.04079 H -7.5" /><rect class="sym" height="6" width="6" x="-3" y="-3" /><text class="lab" transform="translate(0 11)">7</text></g><path class="edge" d="M 0 0 V -2.94493 H 11.25" /><circle class="sym" cx="0" cy="0" r="3" /><text class="lab lft" transform="translate(-3 -7.0)">11</text></g><path class="edge" d="M 0 0 V -0.960094 H -16.875" /><circle class="sym" cx="0" cy="0" r="3" /><text class="lab rgt" transform="translate(3 -7.0)">13</text></g><path class="edge" d="M 0 0 V -13.3738 H 0.0" /><circle class="sym" cx="0" cy="0" r="3" /><text class="lab lft" transform="translate(-3 -7.0)">14</text></g><path class="edge" d="M 0 0 V -17.0803 H -15.9375" /><circle class="sym" cx="0" cy="0" r="3" /><text class="lab rgt" transform="translate(3 -7.0)">17</text></g><path class="edge" d="M 0 0 V -0.0261414 H 33.2812" /><circle class="sym" cx="0" cy="0" r="3" /><text class="lab lft" transform="translate(-3 -7.0)">22</text></g><path class="edge" d="M 0 0 V -4.14638 H 0.0" /><circle class="sym" cx="0" cy="0" r="3" /><text class="lab lft" transform="translate(-3 -7.0)">23</text></g><path class="edge" d="M 0 0 V -11.784 H 0.0" /><circle class="sym" cx="0" cy="0" r="3" /><text class="lab lft" transform="translate(-3 -7.0)">24</text></g><path class="edge" d="M 0 0 V -41.2436 H 37.2656" /><circle class="sym" cx="0" cy="0" r="3" /><text class="lab lft" transform="translate(-3 -7.0)">26</text></g><circle class="sym" cx="0" cy="0" r="3" /><text class="lab" transform="translate(0 -11)">27</text></g></g></g><g class="tree t1" transform="translate(210 0)"><g class="plotbox"><g class="c2 node n27 p0 root" transform="translate(113.984 26.8)"><g class="a27 c2 node n25 p0" transform="translate(37.2656 50.1004)"><g class="a25 leaf node n5 p0 sample" transform="translate(11.25 44.4996)"><path class="edge" d="M 0 0 V -44.4996 H -11.25" /><rect class="sym" height="6" width="6" x="-3" y="-3" /><text class="lab" transform="translate(0 11)">5</text></g><g class="a25 c1 node n15 p0" transform="translate(-11.25 31.7566)"><g class="a15 c2 node n10 p0" transform="translate(0.0 11.4881)"><g class="a10 leaf node n3 p0 sample" transform="translate(-7.5 1.25482)"><path class="edge" d="M 0 0 V -1.25482 H 7.5" /><rect class="sym" height="6" width="6" x="-3" y="-3" /><text class="lab" transform="translate(0 11)">3</text></g><g class="a10 leaf node n9 p0 sample" transform="translate(7.5 1.25482)"><path class="edge" d="M 0 0 V -1.25482 H -7.5" /><rect class="sym" height="6" width="6" x="-3" y="-3" /><text class="lab" transform="translate(0 11)">9</text></g><path class="edge" d="M 0 0 V -11.4881 H 0.0" /><circle class="sym" cx="0" cy="0" r="3" /><text class="lab lft" transform="translate(-3 -7.0)">10</text></g><path class="edge" d="M 0 0 V -31.7566 H 11.25" /><circle class="sym" cx="0" cy="0" r="3" /><text class="lab lft" transform="translate(-3 -7.0)">15</text></g><path class="edge" d="M 0 0 V -50.1004 H -37.2656" /><circle class="sym" cx="0" cy="0" r="3" /><text class="lab rgt" transform="translate(3 -7.0)">25</text></g><g class="a27 c1 node n26 p0" transform="translate(-37.2656 41.2436)"><g class="a26 c2 node n24 p0" transform="translate(0.0 11.784)"><g class="a24 c1 node n23 p0" transform="translate(-33.2812 4.14638)"><g class="a23 c2 node n22 p0" transform="translate(0.0 0.0261414)"><g class="a22 leaf node n0 p0 sample" transform="translate(-15.9375 37.3999)"><path class="edge" d="M 0 0 V -37.3999 H 15.9375" /><rect class="sym" height="6" width="6" x="-3" y="-3" /><text class="lab" transform="translate(0 11)">0</text></g><g class="a22 c1 node n17 p0" transform="translate(15.9375 17.0803)"><g class="a17 c2 node n14 p0" transform="translate(0.0 13.3738)"><g class="a14 leaf node n1 p0 sample" transform="translate(-16.875 6.94581)"><path class="edge" d="M 0 0 V -6.94581 H 16.875" /><rect class="sym" height="6" width="6" x="-3" y="-3" /><text class="lab" transform="translate(0 11)">1</text></g><g class="a14 c2 node n13 p0" transform="translate(16.875 0.960094)"><g class="a13 leaf node n6 p0 sample" transform="translate(11.25 5.98572)"><path class="edge" d="M 0 0 V -5.98572 H -11.25" /><rect class="sym" height="6" width="6" x="-3" y="-3" /><text class="lab" transform="translate(0 11)">6</text></g><g class="a13 c2 node n11 p0" transform="translate(-11.25 2.94493)"><g class="a11 leaf node n4 p0 sample" transform="translate(-7.5 3.04079)"><path class="edge" d="M 0 0 V -3.04079 H 7.5" /><rect class="sym" height="6" width="6" x="-3" y="-3" /><text class="lab" transform="translate(0 11)">4</text></g><g class="a11 leaf node n7 p0 sample" transform="translate(7.5 3.04079)"><path class="edge" d="M 0 0 V -3.04079 H -7.5" /><rect class="sym" height="6" width="6" x="-3" y="-3" /><text class="lab" transform="translate(0 11)">7</text></g><path class="edge" d="M 0 0 V -2.94493 H 11.25" /><circle class="sym" cx="0" cy="0" r="3" /><text class="lab lft" transform="translate(-3 -7.0)">11</text></g><path class="edge" d="M 0 0 V -0.960094 H -16.875" /><circle class="sym" cx="0" cy="0" r="3" /><text class="lab rgt" transform="translate(3 -7.0)">13</text></g><path class="edge" d="M 0 0 V -13.3738 H 0.0" /><circle class="sym" cx="0" cy="0" r="3" /><text class="lab lft" transform="translate(-3 -7.0)">14</text></g><path class="edge" d="M 0 0 V -17.0803 H -15.9375" /><circle class="sym" cx="0" cy="0" r="3" /><text class="lab rgt" transform="translate(3 -7.0)">17</text></g><path class="edge" d="M 0 0 V -0.0261414 H 0.0" /><circle class="sym" cx="0" cy="0" r="3" /><text class="lab lft" transform="translate(-3 -7.0)">22</text></g><path class="edge" d="M 0 0 V -4.14638 H 33.2812" /><circle class="sym" cx="0" cy="0" r="3" /><text class="lab lft" transform="translate(-3 -7.0)">23</text></g><g class="a24 c1 node n20 p0" transform="translate(33.2812 9.98132)"><g class="a20 c2 node n12 p0" transform="translate(0.0 25.8541)"><g class="a12 leaf node n2 p0 sample" transform="translate(-7.5 5.73698)"><path class="edge" d="M 0 0 V -5.73698 H 7.5" /><rect class="sym" height="6" width="6" x="-3" y="-3" /><text class="lab" transform="translate(0 11)">2</text></g><g class="a12 leaf node n8 p0 sample" transform="translate(7.5 5.73698)"><path class="edge" d="M 0 0 V -5.73698 H -7.5" /><rect class="sym" height="6" width="6" x="-3" y="-3" /><text class="lab" transform="translate(0 11)">8</text></g><path class="edge" d="M 0 0 V -25.8541 H 0.0" /><circle class="sym" cx="0" cy="0" r="3" /><text class="lab lft" transform="translate(-3 -7.0)">12</text></g><path class="edge" d="M 0 0 V -9.98132 H -33.2812" /><circle class="sym" cx="0" cy="0" r="3" /><text class="lab rgt" transform="translate(3 -7.0)">20</text></g><path class="edge" d="M 0 0 V -11.784 H 0.0" /><circle class="sym" cx="0" cy="0" r="3" /><text class="lab lft" transform="translate(-3 -7.0)">24</text></g><path class="edge" d="M 0 0 V -41.2436 H 37.2656" /><circle class="sym" cx="0" cy="0" r="3" /><text class="lab lft" transform="translate(-3 -7.0)">26</text></g><circle class="sym" cx="0" cy="0" r="3" /><text class="lab" transform="translate(0 -11)">27</text></g></g></g><g class="tree t2" transform="translate(400 0)"><g class="plotbox"><g class="c2 node n27 p0 root" transform="translate(107.656 26.8)"><g class="a27 c2 node n25 p0" transform="translate(43.5938 50.1004)"><g class="a25 leaf node n5 p0 sample" transform="translate(11.25 44.4996)"><path class="edge" d="M 0 0 V -44.4996 H -11.25" /><rect class="sym" height="6" width="6" x="-3" y="-3" /><text class="lab" transform="translate(0 11)">5</text></g><g class="a25 c1 node n15 p0" transform="translate(-11.25 31.7566)"><g class="a15 c2 node n10 p0" transform="translate(0.0 11.4881)"><g class="a10 leaf node n3 p0 sample" transform="translate(-7.5 1.25482)"><path class="edge" d="M 0 0 V -1.25482 H 7.5" /><rect class="sym" height="6" width="6" x="-3" y="-3" /><text class="lab" transform="translate(0 11)">3</text></g><g class="a10 leaf node n9 p0 sample" transform="translate(7.5 1.25482)"><path class="edge" d="M 0 0 V -1.25482 H -7.5" /><rect class="sym" height="6" width="6" x="-3" y="-3" /><text class="lab" transform="translate(0 11)">9</text></g><path class="edge" d="M 0 0 V -11.4881 H 0.0" /><circle class="sym" cx="0" cy="0" r="3" /><text class="lab lft" transform="translate(-3 -7.0)">10</text></g><path class="edge" d="M 0 0 V -31.7566 H 11.25" /><circle class="sym" cx="0" cy="0" r="3" /><text class="lab lft" transform="translate(-3 -7.0)">15</text></g><path class="edge" d="M 0 0 V -50.1004 H -43.5938" /><circle class="sym" cx="0" cy="0" r="3" /><text class="lab rgt" transform="translate(3 -7.0)">25</text></g><g class="a27 c2 node n26 p0" transform="translate(-43.5938 41.2436)"><g class="a26 c2 node n24 p0" transform="translate(-25.3125 11.784)"><g class="a24 c1 node n23 p0" transform="translate(-11.25 4.14638)"><g class="a23 c1 node n22 p0" transform="translate(0.0 0.0261414)"><g class="a22 leaf node n0 p0 sample" transform="translate(0.0 37.3999)"><path class="edge" d="M 0 0 V -37.3999 H 0.0" /><rect class="sym" height="6" width="6" x="-3" y="-3" /><text class="lab" transform="translate(0 11)">0</text></g><path class="edge" d="M 0 0 V -0.0261414 H 0.0" /><circle class="sym" cx="0" cy="0" r="3" /><text class="lab lft" transform="translate(-3 -7.0)">22</text></g><path class="edge" d="M 0 0 V -4.14638 H 11.25" /><circle class="sym" cx="0" cy="0" r="3" /><text class="lab lft" transform="translate(-3 -7.0)">23</text></g><g class="a24 c1 node n20 p0" transform="translate(11.25 9.98132)"><g class="a20 c2 node n12 p0" transform="translate(0.0 25.8541)"><g class="a12 leaf node n2 p0 sample" transform="translate(-7.5 5.73698)"><path class="edge" d="M 0 0 V -5.73698 H 7.5" /><rect class="sym" height="6" width="6" x="-3" y="-3" /><text class="lab" transform="translate(0 11)">2</text></g><g class="a12 leaf node n8 p0 sample" transform="translate(7.5 5.73698)"><path class="edge" d="M 0 0 V -5.73698 H -7.5" /><rect class="sym" height="6" width="6" x="-3" y="-3" /><text class="lab" transform="translate(0 11)">8</text></g><path class="edge" d="M 0 0 V -25.8541 H 0.0" /><circle class="sym" cx="0" cy="0" r="3" /><text class="lab lft" transform="translate(-3 -7.0)">12</text></g><path class="edge" d="M 0 0 V -9.98132 H -11.25" /><circle class="sym" cx="0" cy="0" r="3" /><text class="lab rgt" transform="translate(3 -7.0)">20</text></g><path class="edge" d="M 0 0 V -11.784 H 25.3125" /><circle class="sym" cx="0" cy="0" r="3" /><text class="lab lft" transform="translate(-3 -7.0)">24</text></g><g class="a26 c1 node n21 p0" transform="translate(25.3125 21.7201)"><g class="a21 c1 node n18 p0" transform="translate(0.0 11.3166)"><g class="a18 c2 node n14 p0" transform="translate(0.0 13.3738)"><g class="a14 leaf node n1 p0 sample" transform="translate(-16.875 6.94581)"><path class="edge" d="M 0 0 V -6.94581 H 16.875" /><rect class="sym" height="6" width="6" x="-3" y="-3" /><text class="lab" transform="translate(0 11)">1</text></g><g class="a14 c2 node n13 p0" transform="translate(16.875 0.960094)"><g class="a13 leaf node n6 p0 sample" transform="translate(11.25 5.98572)"><path class="edge" d="M 0 0 V -5.98572 H -11.25" /><rect class="sym" height="6" width="6" x="-3" y="-3" /><text class="lab" transform="translate(0 11)">6</text></g><g class="a13 c2 node n11 p0" transform="translate(-11.25 2.94493)"><g class="a11 leaf node n4 p0 sample" transform="translate(-7.5 3.04079)"><path class="edge" d="M 0 0 V -3.04079 H 7.5" /><rect class="sym" height="6" width="6" x="-3" y="-3" /><text class="lab" transform="translate(0 11)">4</text></g><g class="a11 leaf node n7 p0 sample" transform="translate(7.5 3.04079)"><path class="edge" d="M 0 0 V -3.04079 H -7.5" /><rect class="sym" height="6" width="6" x="-3" y="-3" /><text class="lab" transform="translate(0 11)">7</text></g><path class="edge" d="M 0 0 V -2.94493 H 11.25" /><circle class="sym" cx="0" cy="0" r="3" /><text class="lab lft" transform="translate(-3 -7.0)">11</text></g><path class="edge" d="M 0 0 V -0.960094 H -16.875" /><circle class="sym" cx="0" cy="0" r="3" /><text class="lab rgt" transform="translate(3 -7.0)">13</text></g><path class="edge" d="M 0 0 V -13.3738 H 0.0" /><circle class="sym" cx="0" cy="0" r="3" /><text class="lab lft" transform="translate(-3 -7.0)">14</text></g><path class="edge" d="M 0 0 V -11.3166 H 0.0" /><circle class="sym" cx="0" cy="0" r="3" /><text class="lab lft" transform="translate(-3 -7.0)">18</text></g><path class="edge" d="M 0 0 V -21.7201 H -25.3125" /><circle class="sym" cx="0" cy="0" r="3" /><text class="lab rgt" transform="translate(3 -7.0)">21</text></g><path class="edge" d="M 0 0 V -41.2436 H 43.5938" /><circle class="sym" cx="0" cy="0" r="3" /><text class="lab lft" transform="translate(-3 -7.0)">26</text></g><circle class="sym" cx="0" cy="0" r="3" /><text class="lab" transform="translate(0 -11)">27</text></g></g></g><g class="tree t3" transform="translate(590 0)"><g class="plotbox"><g class="c2 node n27 p0 root" transform="translate(119.609 26.8)"><g class="a27 c1 node n25 p0" transform="translate(42.8906 50.1004)"><g class="a25 leaf node n5 p0 sample" transform="translate(0.0 44.4996)"><path class="edge" d="M 0 0 V -44.4996 H 0.0" /><rect class="sym" height="6" width="6" x="-3" y="-3" /><text class="lab" transform="translate(0 11)">5</text></g><path class="edge" d="M 0 0 V -50.1004 H -42.8906" /><circle class="sym" cx="0" cy="0" r="3" /><text class="lab rgt" transform="translate(3 -7.0)">25</text></g><g class="a27 c2 node n26 p0" transform="translate(-42.8906 41.2436)"><g class="a26 c2 node n24 p0" transform="translate(-37.9688 11.784)"><g class="a24 c1 node n23 p0" transform="translate(-11.25 4.14638)"><g class="a23 c1 node n22 p0" transform="translate(0.0 0.0261414)"><g class="a22 leaf node n0 p0 sample" transform="translate(0.0 37.3999)"><path class="edge" d="M 0 0 V -37.3999 H 0.0" /><rect class="sym" height="6" width="6" x="-3" y="-3" /><text class="lab" transform="translate(0 11)">0</text></g><path class="edge" d="M 0 0 V -0.0261414 H 0.0" /><circle class="sym" cx="0" cy="0" r="3" /><text class="lab lft" transform="translate(-3 -7.0)">22</text></g><path class="edge" d="M 0 0 V -4.14638 H 11.25" /><circle class="sym" cx="0" cy="0" r="3" /><text class="lab lft" transform="translate(-3 -7.0)">23</text></g><g class="a24 c1 node n20 p0" transform="translate(11.25 9.98132)"><g class="a20 c2 node n12 p0" transform="translate(0.0 25.8541)"><g class="a12 leaf node n2 p0 sample" transform="translate(-7.5 5.73698)"><path class="edge" d="M 0 0 V -5.73698 H 7.5" /><rect class="sym" height="6" width="6" x="-3" y="-3" /><text class="lab" transform="translate(0 11)">2</text></g><g class="a12 leaf node n8 p0 sample" transform="translate(7.5 5.73698)"><path class="edge" d="M 0 0 V -5.73698 H -7.5" /><rect class="sym" height="6" width="6" x="-3" y="-3" /><text class="lab" transform="translate(0 11)">8</text></g><path class="edge" d="M 0 0 V -25.8541 H 0.0" /><circle class="sym" cx="0" cy="0" r="3" /><text class="lab lft" transform="translate(-3 -7.0)">12</text></g><path class="edge" d="M 0 0 V -9.98132 H -11.25" /><circle class="sym" cx="0" cy="0" r="3" /><text class="lab rgt" transform="translate(3 -7.0)">20</text></g><path class="edge" d="M 0 0 V -11.784 H 37.9688" /><circle class="sym" cx="0" cy="0" r="3" /><text class="lab lft" transform="translate(-3 -7.0)">24</text></g><g class="a26 c2 node n21 p0" transform="translate(37.9688 21.7201)"><g class="a21 c1 node n18 p0" transform="translate(-25.3125 11.3166)"><g class="a18 c2 node n14 p0" transform="translate(0.0 13.3738)"><g class="a14 leaf node n1 p0 sample" transform="translate(-16.875 6.94581)"><path class="edge" d="M 0 0 V -6.94581 H 16.875" /><rect class="sym" height="6" width="6" x="-3" y="-3" /><text class="lab" transform="translate(0 11)">1</text></g><g class="a14 c2 node n13 p0" transform="translate(16.875 0.960094)"><g class="a13 leaf node n6 p0 sample" transform="translate(11.25 5.98572)"><path class="edge" d="M 0 0 V -5.98572 H -11.25" /><rect class="sym" height="6" width="6" x="-3" y="-3" /><text class="lab" transform="translate(0 11)">6</text></g><g class="a13 c2 node n11 p0" transform="translate(-11.25 2.94493)"><g class="a11 leaf node n4 p0 sample" transform="translate(-7.5 3.04079)"><path class="edge" d="M 0 0 V -3.04079 H 7.5" /><rect class="sym" height="6" width="6" x="-3" y="-3" /><text class="lab" transform="translate(0 11)">4</text></g><g class="a11 leaf node n7 p0 sample" transform="translate(7.5 3.04079)"><path class="edge" d="M 0 0 V -3.04079 H -7.5" /><rect class="sym" height="6" width="6" x="-3" y="-3" /><text class="lab" transform="translate(0 11)">7</text></g><path class="edge" d="M 0 0 V -2.94493 H 11.25" /><circle class="sym" cx="0" cy="0" r="3" /><text class="lab lft" transform="translate(-3 -7.0)">11</text></g><path class="edge" d="M 0 0 V -0.960094 H -16.875" /><circle class="sym" cx="0" cy="0" r="3" /><text class="lab rgt" transform="translate(3 -7.0)">13</text></g><path class="edge" d="M 0 0 V -13.3738 H 0.0" /><circle class="sym" cx="0" cy="0" r="3" /><text class="lab lft" transform="translate(-3 -7.0)">14</text></g><path class="edge" d="M 0 0 V -11.3166 H 25.3125" /><circle class="sym" cx="0" cy="0" r="3" /><text class="lab lft" transform="translate(-3 -7.0)">18</text></g><g class="a21 c1 node n16 p0" transform="translate(25.3125 18.8933)"><g class="a16 c2 node n10 p0" transform="translate(0.0 11.4881)"><g class="a10 leaf node n3 p0 sample" transform="translate(-7.5 1.25482)"><path class="edge" d="M 0 0 V -1.25482 H 7.5" /><rect class="sym" height="6" width="6" x="-3" y="-3" /><text class="lab" transform="translate(0 11)">3</text></g><g class="a10 leaf node n9 p0 sample" transform="translate(7.5 1.25482)"><path class="edge" d="M 0 0 V -1.25482 H -7.5" /><rect class="sym" height="6" width="6" x="-3" y="-3" /><text class="lab" transform="translate(0 11)">9</text></g><path class="edge" d="M 0 0 V -11.4881 H 0.0" /><circle class="sym" cx="0" cy="0" r="3" /><text class="lab lft" transform="translate(-3 -7.0)">10</text></g><path class="edge" d="M 0 0 V -18.8933 H -25.3125" /><circle class="sym" cx="0" cy="0" r="3" /><text class="lab rgt" transform="translate(3 -7.0)">16</text></g><path class="edge" d="M 0 0 V -21.7201 H -37.9688" /><circle class="sym" cx="0" cy="0" r="3" /><text class="lab rgt" transform="translate(3 -7.0)">21</text></g><path class="edge" d="M 0 0 V -41.2436 H 42.8906" /><circle class="sym" cx="0" cy="0" r="3" /><text class="lab lft" transform="translate(-3 -7.0)">26</text></g><circle class="sym" cx="0" cy="0" r="3" /><text class="lab" transform="translate(0 -11)">27</text></g></g></g></g></g></svg>
