<svg baseProfile="full" height="200" version="1.1" width="1000" xmlns="http://www.w3.org/2000/svg" xmlns:ev="http://www.w3.org/2001/xml-events" xmlns:xlink="http://www.w3.org/1999/xlink"><defs><style type="text/css"><![CDATA[.background path {fill: #808080; fill-opacity: 0}.background path:nth-child(odd) {fill-opacity: .1}.axes {font-size: 14px}.x-axis .tick .lab {font-weight: bold; dominant-baseline: hanging}.axes, .tree {font-size: 14px; text-anchor: middle}.axes line, .edge {stroke: black; fill: none}.y-axis .grid {stroke: #FAFAFA}.node > .sym {fill: black; stroke: none}.site > .sym {stroke: black}.mut text {fill: red; font-style: italic}.mut.extra text {fill: hotpink}.mut line {fill: none; stroke: none}.mut .sym {fill: none; stroke: red}.mut.extra .sym {stroke: hotpink}.node .mut .sym {stroke-width: 1.5px}.tree text, .tree-sequence text {dominant-baseline: central}.plotbox .lab.lft {text-anchor: end}.plotbox .lab.rgt {text-anchor: start}]]></style></defs><g class="tree-sequence"><g class="background"><path d="M20,0 l192,0 l0,138.2 l-30.4205,25 l0,5 l-161.58,0 l0,-5 l0,-25 l0,-138.2z" /><path d="M212,0 l192,0 l0,138.2 l197.92,25 l0,5 l-420.341,0 l0,-5 l30.4205,-25 l0,-138.2z" /><path d="M404,0 l192,0 l0,138.2 l67.7927,25 l0,5 l-61.8726,0 l0,-5 l-197.92,-25 l0,-138.2z" /><path d="M596,0 l192,0 l0,138.2 l40.261,25 l0,5 l-164.468,0 l0,-5 l-67.7927,-25 l0,-138.2z" /><path d="M788,0 l192,0 l0,138.2 l0,25 l0,5 l-151.739,0 l0,-5 l-40.261,-25 l0,-138.2z" /></g><g class="axes"><g class="x-axis"><g transform="translate(500 200)"><text class="lab" text-anchor="middle" transform="translate(0 -11)">Genome position</text></g><line x1="20" x2="980" y1="163.2" y2="163.2" /><g class="ticks"><g class="tick" transform="translate(20 163.2)"><line x1="0" x2="0" y1="0" y2="5" /><g transform="translate(0 6)"><text class="lab">0.00</text></g></g><g class="tick" transform="translate(181.58 163.2)"><line x1="0" x2="0" y1="0" y2="5" /><g transform="translate(0 6)"><text class="lab">168.31</text></g></g><g class="tick" transform="translate(601.92 163.2)"><line x1="0" x2="0" y1="0" y2="5" /><g transform="translate(0 6)"><text class="lab">606.17</text></g></g><g class="tick" transform="translate(663.793 163.2)"><line x1="0" x2="0" y1="0" y2="5" /><g transform="translate(0 6)"><text class="lab">670.62</text></g></g><g class="tick" transform="translate(828.261 163.2)"><line x1="0" x2="0" y1="0" y2="5" /><g transform="translate(0 6)"><text class="lab">841.94</text></g></g><g class="tick" transform="translate(980 163.2)"><line x1="0" x2="0" y1="0" y2="5" /><g transform="translate(0 6)"><text class="lab">1000.00</text></g></g></g></g></g><g class="plotbox trees"><g class="tree t0" transform="translate(20 0)"><g class="plotbox"><g class="c2 node n30 p0 root" transform="translate(102.65 26.8)"><g class="a30 c2 node n28 p0" transform="translate(-29.45 61.7667)"><g class="a28 c2 node n16 p0" transform="translate(22.8 26.1611)"><g class="a16 leaf node n1 p0 sample" transform="translate(-7.6 6.67218)"><path class="edge" d="M 0 0 V -6.67218 H 7.6" /><rect class="sym" height="6" width="6" x="-3" y="-3" /><text class="lab" transform="translate(0 11)">1</text></g><g class="a16 leaf node n6 p0 sample" transform="translate(7.6 6.67218)"><path class="edge" d="M 0 0 V -6.67218 H -7.6" /><rect class="sym" height="6" width="6" x="-3" y="-3" /><text class="lab" transform="translate(0 11)">6</text></g><path class="edge" d="M 0 0 V -26.1611 H -22.8" /><circle class="sym" cx="0" cy="0" r="3" /><text class="lab rgt" transform="translate(3 -7.0)">16</text></g><g class="a28 c1 node n27 p0" transform="translate(-22.8 6.15181)"><g class="a27 c2 node n25 p0" transform="translate(0.0 3.42328)"><g class="a25 c2 node n12 p0" transform="translate(-15.2 20.0476)"><g class="a12 leaf node n0 p0 sample" transform="translate(-7.6 3.21068)"><path class="edge" d="M 0 0 V -3.21068 H 7.6" /><rect class="sym" height="6" width="6" x="-3" y="-3" /><text class="lab" transform="translate(0 11)">0</text></g><g class="a12 leaf node n4 p0 sample" transform="translate(7.6 3.21068)"><path class="edge" d="M 0 0 V -3.21068 H -7.6" /><rect class="sym" height="6" width="6" x="-3" y="-3" /><text class="lab" transform="translate(0 11)">4</text></g><path class="edge" d="M 0 0 V -20.0476 H 15.2" /><circle class="sym" cx="0" cy="0" r="3" /><text class="lab lft" transform="translate(-3 -7.0)">12</text></g><g class="a25 c2 node n17 p0" transform="translate(15.2 14.1365)"><g class="a17 leaf node n2 p0 sample" transform="translate(-7.6 9.12177)"><path class="edge" d="M 0 0 V -9.12177 H 7.6" /><rect class="sym" height="6" width="6" x="-3" y="-3" /><text class="lab" transform="translate(0 11)">2</text></g><g class="a17 c1 node n14 p0" transform="translate(7.6 2.84464)"><g class="a14 leaf node n8 p0 sample" transform="translate(0.0 6.27713)"><path class="edge" d="M 0 0 V -6.27713 H 0.0" /><rect class="sym" height="6" width="6" x="-3" y="-3" /><text class="lab" transform="translate(0 11)">8</text></g><path class="edge" d="M 0 0 V -2.84464 H -7.6" /><circle class="sym" cx="0" cy="0" r="3" /><text class="lab rgt" transform="translate(3 -7.0)">14</text></g><path class="edge" d="M 0 0 V -14.1365 H -15.2" /><circle class="sym" cx="0" cy="0" r="3" /><text class="lab rgt" transform="translate(3 -7.0)">17</text></g><path class="edge" d="M 0 0 V -3.42328 H 0.0" /><circle class="sym" cx="0" cy="0" r="3" /><text class="lab lft" transform="translate(-3 -7.0)">25</text></g><path class="edge" d="M 0 0 V -6.15181 H 22.8" /><circle class="sym" cx="0" cy="0" r="3" /><text class="lab lft" transform="translate(-3 -7.0)">27</text></g><path class="edge" d="M 0 0 V -61.7667 H 29.45" /><circle class="sym" cx="0" cy="0" r="3" /><text class="lab lft" transform="translate(-3 -7.0)">28</text></g><g class="a30 c1 node n29 p0" transform="translate(29.45 10.8157)"><g class="a29 c2 node n22 p0" transform="translate(0.0 66.0986)"><g class="a22 c1 node n19 p0" transform="translate(-13.3 4.59249)"><g class="a19 c1 node n10 p0" transform="translate(0.0 11.3022)"><g class="a10 leaf node n3 p0 sample" transform="translate(0.0 1.79109)"><path class="edge" d="M 0 0 V -1.79109 H 0.0" /><rect class="sym" height="6" width="6" x="-3" y="-3" /><text class="lab" transform="translate(0 11)">3</text></g><path class="edge" d="M 0 0 V -11.3022 H 0.0" /><circle class="sym" cx="0" cy="0" r="3" /><text class="lab lft" transform="translate(-3 -7.0)">10</text></g><path class="edge" d="M 0 0 V -4.59249 H 13.3" /><circle class="sym" cx="0" cy="0" r="3" /><text class="lab lft" transform="translate(-3 -7.0)">19</text></g><g class="a22 c1 node n20 p0" transform="translate(13.3 2.17431)"><g class="a20 c2 node n18 p0" transform="translate(0.0 5.7831)"><g class="a18 leaf node n5 p0 sample" transform="translate(-11.4 9.72834)"><path class="edge" d="M 0 0 V -9.72834 H 11.4" /><rect class="sym" height="6" width="6" x="-3" y="-3" /><text class="lab" transform="translate(0 11)">5</text></g><g class="a18 c2 node n13 p0" transform="translate(11.4 5.55373)"><g class="a13 leaf node n7 p0 sample" transform="translate(-7.6 4.17461)"><path class="edge" d="M 0 0 V -4.17461 H 7.6" /><rect class="sym" height="6" width="6" x="-3" y="-3" /><text class="lab" transform="translate(0 11)">7</text></g><g class="a13 leaf node n9 p0 sample" transform="translate(7.6 4.17461)"><path class="edge" d="M 0 0 V -4.17461 H -7.6" /><rect class="sym" height="6" width="6" x="-3" y="-3" /><text class="lab" transform="translate(0 11)">9</text></g><path class="edge" d="M 0 0 V -5.55373 H -11.4" /><circle class="sym" cx="0" cy="0" r="3" /><text class="lab rgt" transform="translate(3 -7.0)">13</text></g><path class="edge" d="M 0 0 V -5.7831 H 0.0" /><circle class="sym" cx="0" cy="0" r="3" /><text class="lab lft" transform="translate(-3 -7.0)">18</text></g><path class="edge" d="M 0 0 V -2.17431 H -13.3" /><circle class="sym" cx="0" cy="0" r="3" /><text class="lab rgt" transform="translate(3 -7.0)">20</text></g><path class="edge" d="M 0 0 V -66.0986 H 0.0" /><circle class="sym" cx="0" cy="0" r="3" /><text class="lab lft" transform="translate(-3 -7.0)">22</text></g><path class="edge" d="M 0 0 V -10.8157 H -29.45" /><circle class="sym" cx="0" cy="0" r="3" /><text class="lab rgt" transform="translate(3 -7.0)">29</text></g><circle class="sym" cx="0" cy="0" r="3" /><text class="lab" transform="translate(0 -11)">30</text></g></g></g><g class="tree t1" transform="translate(212 0)"><g class="plotbox"><g class="c2 node n30 p0 root" transform="translate(96 26.8)"><g class="a30 c2 node n28 p0" transform="translate(-32.3 61.7667)"><g class="a28 c2 node n16 p0" transform="translate(17.1 26.1611)"><g class="a16 leaf node n1 p0 sample" transform="translate(-7.6 6.67218)"><path class="edge" d="M 0 0 V -6.67218 H 7.6" /><rect class="sym" height="6" width="6" x="-3" y="-3" /><text class="lab" transform="translate(0 11)">1</text></g><g class="a16 leaf node n6 p0 sample" transform="translate(7.6 6.67218)"><path class="edge" d="M 0 0 V -6.67218 H -7.6" /><rect class="sym" height="6" width="6" x="-3" y="-3" /><text class="lab" transform="translate(0 11)">6</text></g><path class="edge" d="M 0 0 V -26.1611 H -17.1" /><circle class="sym" cx="0" cy="0" r="3" /><text class="lab rgt" transform="translate(3 -7.0)">16</text></g><g class="a28 c1 node n27 p0" transform="translate(-17.1 6.15181)"><g class="a27 c2 node n25 p0" transform="translate(0.0 3.42328)"><g class="a25 c2 node n12 p0" transform="translate(-11.4 20.0476)"><g class="a12 leaf node n0 p0 sample" transform="translate(-7.6 3.21068)"><path class="edge" d="M 0 0 V -3.21068 H 7.6" /><rect class="sym" height="6" width="6" x="-3" y="-3" /><text class="lab" transform="translate(0 11)">0</text></g><g class="a12 leaf node n4 p0 sample" transform="translate(7.6 3.21068)"><path class="edge" d="M 0 0 V -3.21068 H -7.6" /><rect class="sym" height="6" width="6" x="-3" y="-3" /><text class="lab" transform="translate(0 11)">4</text></g><path class="edge" d="M 0 0 V -20.0476 H 11.4" /><circle class="sym" cx="0" cy="0" r="3" /><text class="lab lft" transform="translate(-3 -7.0)">12</text></g><g class="a25 c1 node n17 p0" transform="translate(11.4 14.1365)"><g class="a17 leaf node n2 p0 sample" transform="translate(0.0 9.12177)"><path class="edge" d="M 0 0 V -9.12177 H 0.0" /><rect class="sym" height="6" width="6" x="-3" y="-3" /><text class="lab" transform="translate(0 11)">2</text></g><path class="edge" d="M 0 0 V -14.1365 H -11.4" /><circle class="sym" cx="0" cy="0" r="3" /><text class="lab rgt" transform="translate(3 -7.0)">17</text></g><path class="edge" d="M 0 0 V -3.42328 H 0.0" /><circle class="sym" cx="0" cy="0" r="3" /><text class="lab lft" transform="translate(-3 -7.0)">25</text></g><path class="edge" d="M 0 0 V -6.15181 H 17.1" /><circle class="sym" cx="0" cy="0" r="3" /><text class="lab lft" transform="translate(-3 -7.0)">27</text></g><path class="edge" d="M 0 0 V -61.7667 H 32.3" /><circle class="sym" cx="0" cy="0" r="3" /><text class="lab lft" transform="translate(-3 -7.0)">28</text></g><g class="a30 c1 node n29 p0" transform="translate(32.3 10.8157)"><g class="a29 c2 node n22 p0" transform="translate(0.0 66.0986)"><g class="a22 c2 node n19 p0" transform="translate(-17.1 4.59249)"><g class="a19 c1 node n10 p0" transform="translate(-7.6 11.3022)"><g class="a10 leaf node n3 p0 sample" transform="translate(0.0 1.79109)"><path class="edge" d="M 0 0 V -1.79109 H 0.0" /><rect class="sym" height="6" width="6" x="-3" y="-3" /><text class="lab" transform="translate(0 11)">3</text></g><path class="edge" d="M 0 0 V -11.3022 H 7.6" /><circle class="sym" cx="0" cy="0" r="3" /><text class="lab lft" transform="translate(-3 -7.0)">10</text></g><g class="a19 c1 node n15 p0" transform="translate(7.6 6.81612)"><g class="a15 leaf node n8 p0 sample" transform="translate(0.0 6.27713)"><path class="edge" d="M 0 0 V -6.27713 H 0.0" /><rect class="sym" height="6" width="6" x="-3" y="-3" /><text class="lab" transform="translate(0 11)">8</text></g><path class="edge" d="M 0 0 V -6.81612 H -7.6" /><circle class="sym" cx="0" cy="0" r="3" /><text class="lab rgt" transform="translate(3 -7.0)">15</text></g><path class="edge" d="M 0 0 V -4.59249 H 17.1" /><circle class="sym" cx="0" cy="0" r="3" /><text class="lab lft" transform="translate(-3 -7.0)">19</text></g><g class="a22 c1 node n20 p0" transform="translate(17.1 2.17431)"><g class="a20 c2 node n18 p0" transform="translate(0.0 5.7831)"><g class="a18 leaf node n5 p0 sample" transform="translate(-11.4 9.72834)"><path class="edge" d="M 0 0 V -9.72834 H 11.4" /><rect class="sym" height="6" width="6" x="-3" y="-3" /><text class="lab" transform="translate(0 11)">5</text></g><g class="a18 c2 node n13 p0" transform="translate(11.4 5.55373)"><g class="a13 leaf node n7 p0 sample" transform="translate(-7.6 4.17461)"><path class="edge" d="M 0 0 V -4.17461 H 7.6" /><rect class="sym" height="6" width="6" x="-3" y="-3" /><text class="lab" transform="translate(0 11)">7</text></g><g class="a13 leaf node n9 p0 sample" transform="translate(7.6 4.17461)"><path class="edge" d="M 0 0 V -4.17461 H -7.6" /><rect class="sym" height="6" width="6" x="-3" y="-3" /><text class="lab" transform="translate(0 11)">9</text></g><path class="edge" d="M 0 0 V -5.55373 H -11.4" /><circle class="sym" cx="0" cy="0" r="3" /><text class="lab rgt" transform="translate(3 -7.0)">13</text></g><path class="edge" d="M 0 0 V -5.7831 H 0.0" /><circle class="sym" cx="0" cy="0" r="3" /><text class="lab lft" transform="translate(-3 -7.0)">18</text></g><path class="edge" d="M 0 0 V -2.17431 H -17.1" /><circle class="sym" cx="0" cy="0" r="3" /><text class="lab rgt" transform="translate(3 -7.0)">20</text></g><path class="edge" d="M 0 0 V -66.0986 H 0.0" /><circle class="sym" cx="0" cy="0" r="3" /><text class="lab lft" transform="translate(-3 -7.0)">22</text></g><path class="edge" d="M 0 0 V -10.8157 H -32.3" /><circle class="sym" cx="0" cy="0" r="3" /><text class="lab rgt" transform="translate(3 -7.0)">29</text></g><circle class="sym" cx="0" cy="0" r="3" /><text class="lab" transform="translate(0 -11)">30</text></g></g></g><g class="tree t2" transform="translate(404 0)"><g class="plotbox"><g class="c2 node n30 p0 root" transform="translate(94.575 26.8)"><g class="a30 c2 node n28 p0" transform="translate(-30.875 61.7667)"><g class="a28 c2 node n16 p0" transform="translate(17.1 26.1611)"><g class="a16 leaf node n1 p0 sample" transform="translate(-7.6 6.67218)"><path class="edge" d="M 0 0 V -6.67218 H 7.6" /><rect class="sym" height="6" width="6" x="-3" y="-3" /><text class="lab" transform="translate(0 11)">1</text></g><g class="a16 leaf node n6 p0 sample" transform="translate(7.6 6.67218)"><path class="edge" d="M 0 0 V -6.67218 H -7.6" /><rect class="sym" height="6" width="6" x="-3" y="-3" /><text class="lab" transform="translate(0 11)">6</text></g><path class="edge" d="M 0 0 V -26.1611 H -17.1" /><circle class="sym" cx="0" cy="0" r="3" /><text class="lab rgt" transform="translate(3 -7.0)">16</text></g><g class="a28 c1 node n27 p0" transform="translate(-17.1 6.15181)"><g class="a27 c2 node n25 p0" transform="translate(0.0 3.42328)"><g class="a25 c2 node n12 p0" transform="translate(-11.4 20.0476)"><g class="a12 leaf node n0 p0 sample" transform="translate(-7.6 3.21068)"><path class="edge" d="M 0 0 V -3.21068 H 7.6" /><rect class="sym" height="6" width="6" x="-3" y="-3" /><text class="lab" transform="translate(0 11)">0</text></g><g class="a12 leaf node n4 p0 sample" transform="translate(7.6 3.21068)"><path class="edge" d="M 0 0 V -3.21068 H -7.6" /><rect class="sym" height="6" width="6" x="-3" y="-3" /><text class="lab" transform="translate(0 11)">4</text></g><path class="edge" d="M 0 0 V -20.0476 H 11.4" /><circle class="sym" cx="0" cy="0" r="3" /><text class="lab lft" transform="translate(-3 -7.0)">12</text></g><g class="a25 c1 node n17 p0" transform="translate(11.4 14.1365)"><g class="a17 leaf node n2 p0 sample" transform="translate(0.0 9.12177)"><path class="edge" d="M 0 0 V -9.12177 H 0.0" /><rect class="sym" height="6" width="6" x="-3" y="-3" /><text class="lab" transform="translate(0 11)">2</text></g><path class="edge" d="M 0 0 V -14.1365 H -11.4" /><circle class="sym" cx="0" cy="0" r="3" /><text class="lab rgt" transform="translate(3 -7.0)">17</text></g><path class="edge" d="M 0 0 V -3.42328 H 0.0" /><circle class="sym" cx="0" cy="0" r="3" /><text class="lab lft" transform="translate(-3 -7.0)">25</text></g><path class="edge" d="M 0 0 V -6.15181 H 17.1" /><circle class="sym" cx="0" cy="0" r="3" /><text class="lab lft" transform="translate(-3 -7.0)">27</text></g><path class="edge" d="M 0 0 V -61.7667 H 30.875" /><circle class="sym" cx="0" cy="0" r="3" /><text class="lab lft" transform="translate(-3 -7.0)">28</text></g><g class="a30 c2 node n29 p0" transform="translate(30.875 10.8157)"><g class="a29 c2 node n22 p0" transform="translate(21.85 66.0986)"><g class="a22 c1 node n19 p0" transform="translate(17.1 4.59249)"><g class="a19 c1 node n15 p0" transform="translate(0.0 6.81612)"><g class="a15 leaf node n8 p0 sample" transform="translate(0.0 6.27713)"><path class="edge" d="M 0 0 V -6.27713 H 0.0" /><rect class="sym" height="6" width="6" x="-3" y="-3" /><text class="lab" transform="translate(0 11)">8</text></g><path class="edge" d="M 0 0 V -6.81612 H 0.0" /><circle class="sym" cx="0" cy="0" r="3" /><text class="lab lft" transform="translate(-3 -7.0)">15</text></g><path class="edge" d="M 0 0 V -4.59249 H -17.1" /><circle class="sym" cx="0" cy="0" r="3" /><text class="lab rgt" transform="translate(3 -7.0)">19</text></g><g class="a22 c1 node n20 p0" transform="translate(-17.1 2.17431)"><g class="a20 c2 node n18 p0" transform="translate(0.0 5.7831)"><g class="a18 leaf node n5 p0 sample" transform="translate(-11.4 9.72834)"><path class="edge" d="M 0 0 V -9.72834 H 11.4" /><rect class="sym" height="6" width="6" x="-3" y="-3" /><text class="lab" transform="translate(0 11)">5</text></g><g class="a18 c2 node n13 p0" transform="translate(11.4 5.55373)"><g class="a13 leaf node n7 p0 sample" transform="translate(-7.6 4.17461)"><path class="edge" d="M 0 0 V -4.17461 H 7.6" /><rect class="sym" height="6" width="6" x="-3" y="-3" /><text class="lab" transform="translate(0 11)">7</text></g><g class="a13 leaf node n9 p0 sample" transform="translate(7.6 4.17461)"><path class="edge" d="M 0 0 V -4.17461 H -7.6" /><rect class="sym" height="6" width="6" x="-3" y="-3" /><text class="lab" transform="translate(0 11)">9</text></g><path class="edge" d="M 0 0 V -5.55373 H -11.4" /><circle class="sym" cx="0" cy="0" r="3" /><text class="lab rgt" transform="translate(3 -7.0)">13</text></g><path class="edge" d="M 0 0 V -5.7831 H 0.0" /><circle class="sym" cx="0" cy="0" r="3" /><text class="lab lft" transform="translate(-3 -7.0)">18</text></g><path class="edge" d="M 0 0 V -2.17431 H 17.1" /><circle class="sym" cx="0" cy="0" r="3" /><text class="lab lft" transform="translate(-3 -7.0)">20</text></g><path class="edge" d="M 0 0 V -66.0986 H -21.85" /><circle class="sym" cx="0" cy="0" r="3" /><text class="lab rgt" transform="translate(3 -7.0)">22</text></g><g class="a29 c1 node n26 p0" transform="translate(-21.85 58.2211)"><g class="a26 c1 node n23 p0" transform="translate(0.0 6.73021)"><g class="a23 c1 node n11 p0" transform="translate(0.0 17.0419)"><g class="a11 leaf node n3 p0 sample" transform="translate(0.0 1.79109)"><path class="edge" d="M 0 0 V -1.79109 H 0.0" /><rect class="sym" height="6" width="6" x="-3" y="-3" /><text class="lab" transform="translate(0 11)">3</text></g><path class="edge" d="M 0 0 V -17.0419 H 0.0" /><circle class="sym" cx="0" cy="0" r="3" /><text class="lab lft" transform="translate(-3 -7.0)">11</text></g><path class="edge" d="M 0 0 V -6.73021 H 0.0" /><circle class="sym" cx="0" cy="0" r="3" /><text class="lab lft" transform="translate(-3 -7.0)">23</text></g><path class="edge" d="M 0 0 V -58.2211 H 21.85" /><circle class="sym" cx="0" cy="0" r="3" /><text class="lab lft" transform="translate(-3 -7.0)">26</text></g><path class="edge" d="M 0 0 V -10.8157 H -30.875" /><circle class="sym" cx="0" cy="0" r="3" /><text class="lab rgt" transform="translate(3 -7.0)">29</text></g><circle class="sym" cx="0" cy="0" r="3" /><text class="lab" transform="translate(0 -11)">30</text></g></g></g><g class="tree t3" transform="translate(596 0)"><g class="plotbox"><g class="c2 node n30 p0 root" transform="translate(94.575 26.8)"><g class="a30 c2 node n28 p0" transform="translate(-30.875 61.7667)"><g class="a28 c2 node n16 p0" transform="translate(17.1 26.1611)"><g class="a16 leaf node n1 p0 sample" transform="translate(-7.6 6.67218)"><path class="edge" d="M 0 0 V -6.67218 H 7.6" /><rect class="sym" height="6" width="6" x="-3" y="-3" /><text class="lab" transform="translate(0 11)">1</text></g><g class="a16 leaf node n6 p0 sample" transform="translate(7.6 6.67218)"><path class="edge" d="M 0 0 V -6.67218 H -7.6" /><rect class="sym" height="6" width="6" x="-3" y="-3" /><text class="lab" transform="translate(0 11)">6</text></g><path class="edge" d="M 0 0 V -26.1611 H -17.1" /><circle class="sym" cx="0" cy="0" r="3" /><text class="lab rgt" transform="translate(3 -7.0)">16</text></g><g class="a28 c1 node n27 p0" transform="translate(-17.1 6.15181)"><g class="a27 c2 node n25 p0" transform="translate(0.0 3.42328)"><g class="a25 c2 node n12 p0" transform="translate(-11.4 20.0476)"><g class="a12 leaf node n0 p0 sample" transform="translate(-7.6 3.21068)"><path class="edge" d="M 0 0 V -3.21068 H 7.6" /><rect class="sym" height="6" width="6" x="-3" y="-3" /><text class="lab" transform="translate(0 11)">0</text></g><g class="a12 leaf node n4 p0 sample" transform="translate(7.6 3.21068)"><path class="edge" d="M 0 0 V -3.21068 H -7.6" /><rect class="sym" height="6" width="6" x="-3" y="-3" /><text class="lab" transform="translate(0 11)">4</text></g><path class="edge" d="M 0 0 V -20.0476 H 11.4" /><circle class="sym" cx="0" cy="0" r="3" /><text class="lab lft" transform="translate(-3 -7.0)">12</text></g><g class="a25 c1 node n17 p0" transform="translate(11.4 14.1365)"><g class="a17 leaf node n2 p0 sample" transform="translate(0.0 9.12177)"><path class="edge" d="M 0 0 V -9.12177 H 0.0" /><rect class="sym" height="6" width="6" x="-3" y="-3" /><text class="lab" transform="translate(0 11)">2</text></g><path class="edge" d="M 0 0 V -14.1365 H -11.4" /><circle class="sym" cx="0" cy="0" r="3" /><text class="lab rgt" transform="translate(3 -7.0)">17</text></g><path class="edge" d="M 0 0 V -3.42328 H 0.0" /><circle class="sym" cx="0" cy="0" r="3" /><text class="lab lft" transform="translate(-3 -7.0)">25</text></g><path class="edge" d="M 0 0 V -6.15181 H 17.1" /><circle class="sym" cx="0" cy="0" r="3" /><text class="lab lft" transform="translate(-3 -7.0)">27</text></g><path class="edge" d="M 0 0 V -61.7667 H 30.875" /><circle class="sym" cx="0" cy="0" r="3" /><text class="lab lft" transform="translate(-3 -7.0)">28</text></g><g class="a30 c2 node n29 p0" transform="translate(30.875 10.8157)"><g class="a29 c2 node n22 p0" transform="translate(21.85 66.0986)"><g class="a22 c1 node n19 p0" transform="translate(17.1 4.59249)"><g class="a19 c1 node n15 p0" transform="translate(0.0 6.81612)"><g class="a15 leaf node n8 p0 sample" transform="translate(0.0 6.27713)"><path class="edge" d="M 0 0 V -6.27713 H 0.0" /><rect class="sym" height="6" width="6" x="-3" y="-3" /><text class="lab" transform="translate(0 11)">8</text></g><path class="edge" d="M 0 0 V -6.81612 H 0.0" /><circle class="sym" cx="0" cy="0" r="3" /><text class="lab lft" transform="translate(-3 -7.0)">15</text></g><path class="edge" d="M 0 0 V -4.59249 H -17.1" /><circle class="sym" cx="0" cy="0" r="3" /><text class="lab rgt" transform="translate(3 -7.0)">19</text></g><g class="a22 c1 node n20 p0" transform="translate(-17.1 2.17431)"><g class="a20 c2 node n18 p0" transform="translate(0.0 5.7831)"><g class="a18 leaf node n5 p0 sample" transform="translate(-11.4 9.72834)"><path class="edge" d="M 0 0 V -9.72834 H 11.4" /><rect class="sym" height="6" width="6" x="-3" y="-3" /><text class="lab" transform="translate(0 11)">5</text></g><g class="a18 c2 node n13 p0" transform="translate(11.4 5.55373)"><g class="a13 leaf node n7 p0 sample" transform="translate(-7.6 4.17461)"><path class="edge" d="M 0 0 V -4.17461 H 7.6" /><rect class="sym" height="6" width="6" x="-3" y="-3" /><text class="lab" transform="translate(0 11)">7</text></g><g class="a13 leaf node n9 p0 sample" transform="translate(7.6 4.17461)"><path class="edge" d="M 0 0 V -4.17461 H -7.6" /><rect class="sym" height="6" width="6" x="-3" y="-3" /><text class="lab" transform="translate(0 11)">9</text></g><path class="edge" d="M 0 0 V -5.55373 H -11.4" /><circle class="sym" cx="0" cy="0" r="3" /><text class="lab rgt" transform="translate(3 -7.0)">13</text></g><path class="edge" d="M 0 0 V -5.7831 H 0.0" /><circle class="sym" cx="0" cy="0" r="3" /><text class="lab lft" transform="translate(-3 -7.0)">18</text></g><path class="edge" d="M 0 0 V -2.17431 H 17.1" /><circle class="sym" cx="0" cy="0" r="3" /><text class="lab lft" transform="translate(-3 -7.0)">20</text></g><path class="edge" d="M 0 0 V -66.0986 H -21.85" /><circle class="sym" cx="0" cy="0" r="3" /><text class="lab rgt" transform="translate(3 -7.0)">22</text></g><g class="a29 c1 node n26 p0" transform="translate(-21.85 58.2211)"><g class="a26 c1 node n24 p0" transform="translate(0.0 6.73021)"><g class="a24 c1 node n11 p0" transform="translate(0.0 17.0419)"><g class="a11 leaf node n3 p0 sample" transform="translate(0.0 1.79109)"><path class="edge" d="M 0 0 V -1.79109 H 0.0" /><rect class="sym" height="6" width="6" x="-3" y="-3" /><text class="lab" transform="translate(0 11)">3</text></g><path class="edge" d="M 0 0 V -17.0419 H 0.0" /><circle class="sym" cx="0" cy="0" r="3" /><text class="lab lft" transform="translate(-3 -7.0)">11</text></g><path class="edge" d="M 0 0 V -6.73021 H 0.0" /><circle class="sym" cx="0" cy="0" r="3" /><text class="lab lft" transform="translate(-3 -7.0)">24</text></g><path class="edge" d="M 0 0 V -58.2211 H 21.85" /><circle class="sym" cx="0" cy="0" r="3" /><text class="lab lft" transform="translate(-3 -7.0)">26</text></g><path class="edge" d="M 0 0 V -10.8157 H -30.875" /><circle class="sym" cx="0" cy="0" r="3" /><text class="lab rgt" transform="translate(3 -7.0)">29</text></g><circle class="sym" cx="0" cy="0" r="3" /><text class="lab" transform="translate(0 -11)">30</text></g></g></g><g class="tree t4" transform="translate(788 0)"><g class="plotbox"><g class="c2 node n30 p0 root" transform="translate(126.4 26.8)"><g class="a30 c2 node n28 p0" transform="translate(-30.4 61.7667)"><g class="a28 c2 node n16 p0" transform="translate(30.4 26.1611)"><g class="a16 leaf node n1 p0 sample" transform="translate(-7.6 6.67218)"><path class="edge" d="M 0 0 V -6.67218 H 7.6" /><rect class="sym" height="6" width="6" x="-3" y="-3" /><text class="lab" transform="translate(0 11)">1</text></g><g class="a16 leaf node n6 p0 sample" transform="translate(7.6 6.67218)"><path class="edge" d="M 0 0 V -6.67218 H -7.6" /><rect class="sym" height="6" width="6" x="-3" y="-3" /><text class="lab" transform="translate(0 11)">6</text></g><path class="edge" d="M 0 0 V -26.1611 H -30.4" /><circle class="sym" cx="0" cy="0" r="3" /><text class="lab rgt" transform="translate(3 -7.0)">16</text></g><g class="a28 c2 node n27 p0" transform="translate(-30.4 6.15181)"><g class="a27 c2 node n25 p0" transform="translate(-19 3.42328)"><g class="a25 c2 node n12 p0" transform="translate(-11.4 20.0476)"><g class="a12 leaf node n0 p0 sample" transform="translate(-7.6 3.21068)"><path class="edge" d="M 0 0 V -3.21068 H 7.6" /><rect class="sym" height="6" width="6" x="-3" y="-3" /><text class="lab" transform="translate(0 11)">0</text></g><g class="a12 leaf node n4 p0 sample" transform="translate(7.6 3.21068)"><path class="edge" d="M 0 0 V -3.21068 H -7.6" /><rect class="sym" height="6" width="6" x="-3" y="-3" /><text class="lab" transform="translate(0 11)">4</text></g><path class="edge" d="M 0 0 V -20.0476 H 11.4" /><circle class="sym" cx="0" cy="0" r="3" /><text class="lab lft" transform="translate(-3 -7.0)">12</text></g><g class="a25 c1 node n17 p0" transform="translate(11.4 14.1365)"><g class="a17 leaf node n2 p0 sample" transform="translate(0.0 9.12177)"><path class="edge" d="M 0 0 V -9.12177 H 0.0" /><rect class="sym" height="6" width="6" x="-3" y="-3" /><text class="lab" transform="translate(0 11)">2</text></g><path class="edge" d="M 0 0 V -14.1365 H -11.4" /><circle class="sym" cx="0" cy="0" r="3" /><text class="lab rgt" transform="translate(3 -7.0)">17</text></g><path class="edge" d="M 0 0 V -3.42328 H 19" /><circle class="sym" cx="0" cy="0" r="3" /><text class="lab lft" transform="translate(-3 -7.0)">25</text></g><g class="a27 c1 node n21 p0" transform="translate(19 11.1701)"><g class="a21 c2 node n18 p0" transform="translate(0.0 5.7831)"><g class="a18 leaf node n5 p0 sample" transform="translate(-11.4 9.72834)"><path class="edge" d="M 0 0 V -9.72834 H 11.4" /><rect class="sym" height="6" width="6" x="-3" y="-3" /><text class="lab" transform="translate(0 11)">5</text></g><g class="a18 c2 node n13 p0" transform="translate(11.4 5.55373)"><g class="a13 leaf node n7 p0 sample" transform="translate(-7.6 4.17461)"><path class="edge" d="M 0 0 V -4.17461 H 7.6" /><rect class="sym" height="6" width="6" x="-3" y="-3" /><text class="lab" transform="translate(0 11)">7</text></g><g class="a13 leaf node n9 p0 sample" transform="translate(7.6 4.17461)"><path class="edge" d="M 0 0 V -4.17461 H -7.6" /><rect class="sym" height="6" width="6" x="-3" y="-3" /><text class="lab" transform="translate(0 11)">9</text></g><path class="edge" d="M 0 0 V -5.55373 H -11.4" /><circle class="sym" cx="0" cy="0" r="3" /><text class="lab rgt" transform="translate(3 -7.0)">13</text></g><path class="edge" d="M 0 0 V -5.7831 H 0.0" /><circle class="sym" cx="0" cy="0" r="3" /><text class="lab lft" transform="translate(-3 -7.0)">18</text></g><path class="edge" d="M 0 0 V -11.1701 H -19" /><circle class="sym" cx="0" cy="0" r="3" /><text class="lab rgt" transform="translate(3 -7.0)">21</text></g><path class="edge" d="M 0 0 V -6.15181 H 30.4" /><circle class="sym" cx="0" cy="0" r="3" /><text class="lab lft" transform="translate(-3 -7.0)">27</text></g><path class="edge" d="M 0 0 V -61.7667 H 30.4" /><circle class="sym" cx="0" cy="0" r="3" /><text class="lab lft" transform="translate(-3 -7.0)">28</text></g><g class="a30 c2 node n29 p0" transform="translate(30.4 10.8157)"><g class="a29 c1 node n22 p0" transform="translate(7.6 66.0986)"><g class="a22 c1 node n19 p0" transform="translate(0.0 4.59249)"><g class="a19 c1 node n15 p0" transform="translate(0.0 6.81612)"><g class="a15 leaf node n8 p0 sample" transform="translate(0.0 6.27713)"><path class="edge" d="M 0 0 V -6.27713 H 0.0" /><rect class="sym" height="6" width="6" x="-3" y="-3" /><text class="lab" transform="translate(0 11)">8</text></g><path class="edge" d="M 0 0 V -6.81612 H 0.0" /><circle class="sym" cx="0" cy="0" r="3" /><text class="lab lft" transform="translate(-3 -7.0)">15</text></g><path class="edge" d="M 0 0 V -4.59249 H 0.0" /><circle class="sym" cx="0" cy="0" r="3" /><text class="lab lft" transform="translate(-3 -7.0)">19</text></g><path class="edge" d="M 0 0 V -66.0986 H -7.6" /><circle class="sym" cx="0" cy="0" r="3" /><text class="lab rgt" transform="translate(3 -7.0)">22</text></g><g class="a29 c1 node n26 p0" transform="translate(-7.6 58.2211)"><g class="a26 c1 node n24 p0" transform="translate(0.0 6.73021)"><g class="a24 c1 node n11 p0" transform="translate(0.0 17.0419)"><g class="a11 leaf node n3 p0 sample" transform="translate(0.0 1.79109)"><path class="edge" d="M 0 0 V -1.79109 H 0.0" /><rect class="sym" height="6" width="6" x="-3" y="-3" /><text class="lab" transform="translate(0 11)">3</text></g><path class="edge" d="M 0 0 V -17.0419 H 0.0" /><circle class="sym" cx="0" cy="0" r="3" /><text class="lab lft" transform="translate(-3 -7.0)">11</text></g><path class="edge" d="M 0 0 V -6.73021 H 0.0" /><circle class="sym" cx="0" cy="0" r="3" /><text class="lab lft" transform="translate(-3 -7.0)">24</text></g><path class="edge" d="M 0 0 V -58.2211 H 7.6" /><circle class="sym" cx="0" cy="0" r="3" /><text class="lab lft" transform="translate(-3 -7.0)">26</text></g><path class="edge" d="M 0 0 V -10.8157 H -30.4" /><circle class="sym" cx="0" cy="0" r="3" /><text class="lab rgt" transform="translate(3 -7.0)">29</text></g><circle class="sym" cx="0" cy="0" r="3" /><text class="lab" transform="translate(0 -11)">30</text></g></g></g></g></g></svg>
