<svg baseProfile="full" height="200" version="1.1" width="800" xmlns="http://www.w3.org/2000/svg" xmlns:ev="http://www.w3.org/2001/xml-events" xmlns:xlink="http://www.w3.org/1999/xlink"><defs><style type="text/css"><![CDATA[.background path {fill: #808080; fill-opacity: 0}.background path:nth-child(odd) {fill-opacity: .1}.axes {font-size: 14px}.x-axis .tick .lab {font-weight: bold; dominant-baseline: hanging}.axes, .tree {font-size: 14px; text-anchor: middle}.axes line, .edge {stroke: black; fill: none}.y-axis .grid {stroke: #FAFAFA}.node > .sym {fill: black; stroke: none}.site > .sym {stroke: black}.mut text {fill: red; font-style: italic}.mut.extra text {fill: hotpink}.mut line {fill: none; stroke: none}.mut .sym {fill: none; stroke: red}.mut.extra .sym {stroke: hotpink}.node .mut .sym {stroke-width: 1.5px}.tree text, .tree-sequence text {dominant-baseline: central}.plotbox .lab.lft {text-anchor: end}.plotbox .lab.rgt {text-anchor: start}]]></style></defs><g class="tree-sequence"><g class="background"><path d="M20,0 l190,0 l0,138.2 l-29.6052,25 l0,5 l-160.395,0 l0,-5 l0,-25 l0,-138.2z" /><path d="M210,0 l190,0 l0,138.2 l227.487,25 l0,5 l-447.092,0 l0,-5 l29.6052,-25 l0,-138.2z" /><path d="M400,0 l190,0 l0,138.2 l130.4,25 l0,5 l-92.9134,0 l0,-5 l-227.487,-25 l0,-138.2z" /><path d="M590,0 l190,0 l0,138.2 l0,25 l0,5 l-59.5997,0 l0,-5 l-130.4,-25 l0,-138.2z" /></g><g class="axes"><g class="x-axis"><g transform="translate(400 200)"><text class="lab" text-anchor="middle" transform="translate(0 -11)">Genome position</text></g><line x1="20" x2="780" y1="163.2" y2="163.2" /><g class="ticks"><g class="tick" transform="translate(20 163.2)"><line x1="0" x2="0" y1="0" y2="5" /><g transform="translate(0 6)"><text class="lab">0.00</text></g></g><g class="tick" transform="translate(180.395 163.2)"><line x1="0" x2="0" y1="0" y2="5" /><g transform="translate(0 6)"><text class="lab">211.05</text></g></g><g class="tick" transform="translate(627.487 163.2)"><line x1="0" x2="0" y1="0" y2="5" /><g transform="translate(0 6)"><text class="lab">799.32</text></g></g><g class="tick" transform="translate(720.4 163.2)"><line x1="0" x2="0" y1="0" y2="5" /><g transform="translate(0 6)"><text class="lab">921.58</text></g></g><g class="tick" transform="translate(780 163.2)"><line x1="0" x2="0" y1="0" y2="5" /><g transform="translate(0 6)"><text class="lab">1000.00</text></g></g></g></g></g><g class="plotbox trees"><g class="tree t0" transform="translate(20 0)"><g class="plotbox"><g class="c2 node n27 p0 root" transform="translate(79.5312 26.8)"><g class="a27 c2 node n24 p0" transform="translate(-35.1562 31.1317)"><g class="a24 c1 node n21 p0" transform="translate(16.875 31.0221)"><g class="a21 c2 node n20 p0" transform="translate(0.0 6.17134)"><g class="a20 leaf node n7 p0 sample" transform="translate(11.25 26.2748)"><path class="edge" d="M 0 0 V -26.2748 H -11.25" /><rect class="sym" height="6" width="6" x="-3" y="-3" /><text class="lab" transform="translate(0 11)">7</text></g><g class="a20 c2 node n11 p0" transform="translate(-11.25 24.9838)"><g class="a11 leaf node n5 p0 sample" transform="translate(-7.5 1.29106)"><path class="edge" d="M 0 0 V -1.29106 H 7.5" /><rect class="sym" height="6" width="6" x="-3" y="-3" /><text class="lab" transform="translate(0 11)">5</text></g><g class="a11 leaf node n8 p0 sample" transform="translate(7.5 1.29106)"><path class="edge" d="M 0 0 V -1.29106 H -7.5" /><rect class="sym" height="6" width="6" x="-3" y="-3" /><text class="lab" transform="translate(0 11)">8</text></g><path class="edge" d="M 0 0 V -24.9838 H 11.25" /><circle class="sym" cx="0" cy="0" r="3" /><text class="lab lft" transform="translate(-3 -7.0)">11</text></g><path class="edge" d="M 0 0 V -6.17134 H 0.0" /><circle class="sym" cx="0" cy="0" r="3" /><text class="lab lft" transform="translate(-3 -7.0)">20</text></g><path class="edge" d="M 0 0 V -31.0221 H -16.875" /><circle class="sym" cx="0" cy="0" r="3" /><text class="lab rgt" transform="translate(3 -7.0)">21</text></g><g class="a24 c1 node n23 p0" transform="translate(-16.875 29.0871)"><g class="a23 c1 node n15 p0" transform="translate(0.0 25.9256)"><g class="a15 leaf node n0 p0 sample" transform="translate(0.0 8.45564)"><path class="edge" d="M 0 0 V -8.45564 H 0.0" /><rect class="sym" height="6" width="6" x="-3" y="-3" /><text class="lab" transform="translate(0 11)">0</text></g><path class="edge" d="M 0 0 V -25.9256 H 0.0" /><circle class="sym" cx="0" cy="0" r="3" /><text class="lab lft" transform="translate(-3 -7.0)">15</text></g><path class="edge" d="M 0 0 V -29.0871 H 16.875" /><circle class="sym" cx="0" cy="0" r="3" /><text class="lab lft" transform="translate(-3 -7.0)">23</text></g><path class="edge" d="M 0 0 V -31.1317 H 35.1562" /><circle class="sym" cx="0" cy="0" r="3" /><text class="lab lft" transform="translate(-3 -7.0)">24</text></g><g class="a27 c1 node n26 p0" transform="translate(35.1562 6.60415)"><g class="a26 c2 node n25 p0" transform="translate(0.0 20.605)"><g class="a25 c2 node n14 p0" transform="translate(19.6875 61.4532)"><g class="a14 leaf node n2 p0 sample" transform="translate(-16.875 5.93762)"><path class="edge" d="M 0 0 V -5.93762 H 16.875" /><rect class="sym" height="6" width="6" x="-3" y="-3" /><text class="lab" transform="translate(0 11)">2</text></g><g class="a14 c2 node n12 p0" transform="translate(16.875 4.25256)"><g class="a12 leaf node n6 p0 sample" transform="translate(11.25 1.68506)"><path class="edge" d="M 0 0 V -1.68506 H -11.25" /><rect class="sym" height="6" width="6" x="-3" y="-3" /><text class="lab" transform="translate(0 11)">6</text></g><g class="a12 c2 node n10 p0" transform="translate(-11.25 0.819511)"><g class="a10 leaf node n3 p0 sample" transform="translate(-7.5 0.865553)"><path class="edge" d="M 0 0 V -0.865553 H 7.5" /><rect class="sym" height="6" width="6" x="-3" y="-3" /><text class="lab" transform="translate(0 11)">3</text></g><g class="a10 leaf node n9 p0 sample" transform="translate(7.5 0.865553)"><path class="edge" d="M 0 0 V -0.865553 H -7.5" /><rect class="sym" height="6" width="6" x="-3" y="-3" /><text class="lab" transform="translate(0 11)">9</text></g><path class="edge" d="M 0 0 V -0.819511 H 11.25" /><circle class="sym" cx="0" cy="0" r="3" /><text class="lab lft" transform="translate(-3 -7.0)">10</text></g><path class="edge" d="M 0 0 V -4.25256 H -16.875" /><circle class="sym" cx="0" cy="0" r="3" /><text class="lab rgt" transform="translate(3 -7.0)">12</text></g><path class="edge" d="M 0 0 V -61.4532 H -19.6875" /><circle class="sym" cx="0" cy="0" r="3" /><text class="lab rgt" transform="translate(3 -7.0)">14</text></g><g class="a25 c1 node n19 p0" transform="translate(-19.6875 46.9335)"><g class="a19 c2 node n13 p0" transform="translate(0.0 16.5607)"><g class="a13 leaf node n1 p0 sample" transform="translate(-7.5 3.89672)"><path class="edge" d="M 0 0 V -3.89672 H 7.5" /><rect class="sym" height="6" width="6" x="-3" y="-3" /><text class="lab" transform="translate(0 11)">1</text></g><g class="a13 leaf node n4 p0 sample" transform="translate(7.5 3.89672)"><path class="edge" d="M 0 0 V -3.89672 H -7.5" /><rect class="sym" height="6" width="6" x="-3" y="-3" /><text class="lab" transform="translate(0 11)">4</text></g><path class="edge" d="M 0 0 V -16.5607 H 0.0" /><circle class="sym" cx="0" cy="0" r="3" /><text class="lab lft" transform="translate(-3 -7.0)">13</text></g><path class="edge" d="M 0 0 V -46.9335 H 19.6875" /><circle class="sym" cx="0" cy="0" r="3" /><text class="lab lft" transform="translate(-3 -7.0)">19</text></g><path class="edge" d="M 0 0 V -20.605 H 0.0" /><circle class="sym" cx="0" cy="0" r="3" /><text class="lab lft" transform="translate(-3 -7.0)">25</text></g><path class="edge" d="M 0 0 V -6.60415 H -35.1562" /><circle class="sym" cx="0" cy="0" r="3" /><text class="lab rgt" transform="translate(3 -7.0)">26</text></g><circle class="sym" cx="0" cy="0" r="3" /><text class="lab" transform="translate(0 -11)">27</text></g></g></g><g class="tree t1" transform="translate(210 0)"><g class="plotbox"><g class="c2 node n27 p0 root" transform="translate(99.9219 26.8)"><g class="a27 c1 node n24 p0" transform="translate(51.3281 31.1317)"><g class="a24 c1 node n21 p0" transform="translate(0.0 31.0221)"><g class="a21 c2 node n20 p0" transform="translate(0.0 6.17134)"><g class="a20 leaf node n7 p0 sample" transform="translate(11.25 26.2748)"><path class="edge" d="M 0 0 V -26.2748 H -11.25" /><rect class="sym" height="6" width="6" x="-3" y="-3" /><text class="lab" transform="translate(0 11)">7</text></g><g class="a20 c2 node n11 p0" transform="translate(-11.25 24.9838)"><g class="a11 leaf node n5 p0 sample" transform="translate(-7.5 1.29106)"><path class="edge" d="M 0 0 V -1.29106 H 7.5" /><rect class="sym" height="6" width="6" x="-3" y="-3" /><text class="lab" transform="translate(0 11)">5</text></g><g class="a11 leaf node n8 p0 sample" transform="translate(7.5 1.29106)"><path class="edge" d="M 0 0 V -1.29106 H -7.5" /><rect class="sym" height="6" width="6" x="-3" y="-3" /><text class="lab" transform="translate(0 11)">8</text></g><path class="edge" d="M 0 0 V -24.9838 H 11.25" /><circle class="sym" cx="0" cy="0" r="3" /><text class="lab lft" transform="translate(-3 -7.0)">11</text></g><path class="edge" d="M 0 0 V -6.17134 H 0.0" /><circle class="sym" cx="0" cy="0" r="3" /><text class="lab lft" transform="translate(-3 -7.0)">20</text></g><path class="edge" d="M 0 0 V -31.0221 H 0.0" /><circle class="sym" cx="0" cy="0" r="3" /><text class="lab lft" transform="translate(-3 -7.0)">21</text></g><path class="edge" d="M 0 0 V -31.1317 H -51.3281" /><circle class="sym" cx="0" cy="0" r="3" /><text class="lab rgt" transform="translate(3 -7.0)">24</text></g><g class="a27 c2 node n26 p0" transform="translate(-51.3281 6.60415)"><g class="a26 c2 node n25 p0" transform="translate(21.0938 20.605)"><g class="a25 c2 node n14 p0" transform="translate(19.6875 61.4532)"><g class="a14 leaf node n2 p0 sample" transform="translate(-16.875 5.93762)"><path class="edge" d="M 0 0 V -5.93762 H 16.875" /><rect class="sym" height="6" width="6" x="-3" y="-3" /><text class="lab" transform="translate(0 11)">2</text></g><g class="a14 c2 node n12 p0" transform="translate(16.875 4.25256)"><g class="a12 leaf node n6 p0 sample" transform="translate(11.25 1.68506)"><path class="edge" d="M 0 0 V -1.68506 H -11.25" /><rect class="sym" height="6" width="6" x="-3" y="-3" /><text class="lab" transform="translate(0 11)">6</text></g><g class="a12 c2 node n10 p0" transform="translate(-11.25 0.819511)"><g class="a10 leaf node n3 p0 sample" transform="translate(-7.5 0.865553)"><path class="edge" d="M 0 0 V -0.865553 H 7.5" /><rect class="sym" height="6" width="6" x="-3" y="-3" /><text class="lab" transform="translate(0 11)">3</text></g><g class="a10 leaf node n9 p0 sample" transform="translate(7.5 0.865553)"><path class="edge" d="M 0 0 V -0.865553 H -7.5" /><rect class="sym" height="6" width="6" x="-3" y="-3" /><text class="lab" transform="translate(0 11)">9</text></g><path class="edge" d="M 0 0 V -0.819511 H 11.25" /><circle class="sym" cx="0" cy="0" r="3" /><text class="lab lft" transform="translate(-3 -7.0)">10</text></g><path class="edge" d="M 0 0 V -4.25256 H -16.875" /><circle class="sym" cx="0" cy="0" r="3" /><text class="lab rgt" transform="translate(3 -7.0)">12</text></g><path class="edge" d="M 0 0 V -61.4532 H -19.6875" /><circle class="sym" cx="0" cy="0" r="3" /><text class="lab rgt" transform="translate(3 -7.0)">14</text></g><g class="a25 c1 node n19 p0" transform="translate(-19.6875 46.9335)"><g class="a19 c2 node n13 p0" transform="translate(0.0 16.5607)"><g class="a13 leaf node n1 p0 sample" transform="translate(-7.5 3.89672)"><path class="edge" d="M 0 0 V -3.89672 H 7.5" /><rect class="sym" height="6" width="6" x="-3" y="-3" /><text class="lab" transform="translate(0 11)">1</text></g><g class="a13 leaf node n4 p0 sample" transform="translate(7.5 3.89672)"><path class="edge" d="M 0 0 V -3.89672 H -7.5" /><rect class="sym" height="6" width="6" x="-3" y="-3" /><text class="lab" transform="translate(0 11)">4</text></g><path class="edge" d="M 0 0 V -16.5607 H 0.0" /><circle class="sym" cx="0" cy="0" r="3" /><text class="lab lft" transform="translate(-3 -7.0)">13</text></g><path class="edge" d="M 0 0 V -46.9335 H 19.6875" /><circle class="sym" cx="0" cy="0" r="3" /><text class="lab lft" transform="translate(-3 -7.0)">19</text></g><path class="edge" d="M 0 0 V -20.605 H -21.0938" /><circle class="sym" cx="0" cy="0" r="3" /><text class="lab rgt" transform="translate(3 -7.0)">25</text></g><g class="a26 c1 node n17 p0" transform="translate(-21.0938 73.0657)"><g class="a17 c1 node n16 p0" transform="translate(0.0 6.47449)"><g class="a16 leaf node n0 p0 sample" transform="translate(0.0 8.45564)"><path class="edge" d="M 0 0 V -8.45564 H 0.0" /><rect class="sym" height="6" width="6" x="-3" y="-3" /><text class="lab" transform="translate(0 11)">0</text></g><path class="edge" d="M 0 0 V -6.47449 H 0.0" /><circle class="sym" cx="0" cy="0" r="3" /><text class="lab lft" transform="translate(-3 -7.0)">16</text></g><path class="edge" d="M 0 0 V -73.0657 H 21.0938" /><circle class="sym" cx="0" cy="0" r="3" /><text class="lab lft" transform="translate(-3 -7.0)">17</text></g><path class="edge" d="M 0 0 V -6.60415 H 51.3281" /><circle class="sym" cx="0" cy="0" r="3" /><text class="lab lft" transform="translate(-3 -7.0)">26</text></g><circle class="sym" cx="0" cy="0" r="3" /><text class="lab" transform="translate(0 -11)">27</text></g></g></g><g class="tree t2" transform="translate(400 0)"><g class="plotbox"><g class="c2 node n27 p0 root" transform="translate(99.9219 26.8)"><g class="a27 c1 node n24 p0" transform="translate(51.3281 31.1317)"><g class="a24 c1 node n23 p0" transform="translate(0.0 29.0871)"><g class="a23 c1 node n22 p0" transform="translate(0.0 1.93507)"><g class="a22 c2 node n20 p0" transform="translate(0.0 6.17134)"><g class="a20 leaf node n7 p0 sample" transform="translate(11.25 26.2748)"><path class="edge" d="M 0 0 V -26.2748 H -11.25" /><rect class="sym" height="6" width="6" x="-3" y="-3" /><text class="lab" transform="translate(0 11)">7</text></g><g class="a20 c2 node n11 p0" transform="translate(-11.25 24.9838)"><g class="a11 leaf node n5 p0 sample" transform="translate(-7.5 1.29106)"><path class="edge" d="M 0 0 V -1.29106 H 7.5" /><rect class="sym" height="6" width="6" x="-3" y="-3" /><text class="lab" transform="translate(0 11)">5</text></g><g class="a11 leaf node n8 p0 sample" transform="translate(7.5 1.29106)"><path class="edge" d="M 0 0 V -1.29106 H -7.5" /><rect class="sym" height="6" width="6" x="-3" y="-3" /><text class="lab" transform="translate(0 11)">8</text></g><path class="edge" d="M 0 0 V -24.9838 H 11.25" /><circle class="sym" cx="0" cy="0" r="3" /><text class="lab lft" transform="translate(-3 -7.0)">11</text></g><path class="edge" d="M 0 0 V -6.17134 H 0.0" /><circle class="sym" cx="0" cy="0" r="3" /><text class="lab lft" transform="translate(-3 -7.0)">20</text></g><path class="edge" d="M 0 0 V -1.93507 H 0.0" /><circle class="sym" cx="0" cy="0" r="3" /><text class="lab lft" transform="translate(-3 -7.0)">22</text></g><path class="edge" d="M 0 0 V -29.0871 H 0.0" /><circle class="sym" cx="0" cy="0" r="3" /><text class="lab lft" transform="translate(-3 -7.0)">23</text></g><path class="edge" d="M 0 0 V -31.1317 H -51.3281" /><circle class="sym" cx="0" cy="0" r="3" /><text class="lab rgt" transform="translate(3 -7.0)">24</text></g><g class="a27 c2 node n26 p0" transform="translate(-51.3281 6.60415)"><g class="a26 c2 node n25 p0" transform="translate(21.0938 20.605)"><g class="a25 c2 node n14 p0" transform="translate(19.6875 61.4532)"><g class="a14 leaf node n2 p0 sample" transform="translate(-16.875 5.93762)"><path class="edge" d="M 0 0 V -5.93762 H 16.875" /><rect class="sym" height="6" width="6" x="-3" y="-3" /><text class="lab" transform="translate(0 11)">2</text></g><g class="a14 c2 node n12 p0" transform="translate(16.875 4.25256)"><g class="a12 leaf node n6 p0 sample" transform="translate(11.25 1.68506)"><path class="edge" d="M 0 0 V -1.68506 H -11.25" /><rect class="sym" height="6" width="6" x="-3" y="-3" /><text class="lab" transform="translate(0 11)">6</text></g><g class="a12 c2 node n10 p0" transform="translate(-11.25 0.819511)"><g class="a10 leaf node n3 p0 sample" transform="translate(-7.5 0.865553)"><path class="edge" d="M 0 0 V -0.865553 H 7.5" /><rect class="sym" height="6" width="6" x="-3" y="-3" /><text class="lab" transform="translate(0 11)">3</text></g><g class="a10 leaf node n9 p0 sample" transform="translate(7.5 0.865553)"><path class="edge" d="M 0 0 V -0.865553 H -7.5" /><rect class="sym" height="6" width="6" x="-3" y="-3" /><text class="lab" transform="translate(0 11)">9</text></g><path class="edge" d="M 0 0 V -0.819511 H 11.25" /><circle class="sym" cx="0" cy="0" r="3" /><text class="lab lft" transform="translate(-3 -7.0)">10</text></g><path class="edge" d="M 0 0 V -4.25256 H -16.875" /><circle class="sym" cx="0" cy="0" r="3" /><text class="lab rgt" transform="translate(3 -7.0)">12</text></g><path class="edge" d="M 0 0 V -61.4532 H -19.6875" /><circle class="sym" cx="0" cy="0" r="3" /><text class="lab rgt" transform="translate(3 -7.0)">14</text></g><g class="a25 c1 node n19 p0" transform="translate(-19.6875 46.9335)"><g class="a19 c2 node n13 p0" transform="translate(0.0 16.5607)"><g class="a13 leaf node n1 p0 sample" transform="translate(-7.5 3.89672)"><path class="edge" d="M 0 0 V -3.89672 H 7.5" /><rect class="sym" height="6" width="6" x="-3" y="-3" /><text class="lab" transform="translate(0 11)">1</text></g><g class="a13 leaf node n4 p0 sample" transform="translate(7.5 3.89672)"><path class="edge" d="M 0 0 V -3.89672 H -7.5" /><rect class="sym" height="6" width="6" x="-3" y="-3" /><text class="lab" transform="translate(0 11)">4</text></g><path class="edge" d="M 0 0 V -16.5607 H 0.0" /><circle class="sym" cx="0" cy="0" r="3" /><text class="lab lft" transform="translate(-3 -7.0)">13</text></g><path class="edge" d="M 0 0 V -46.9335 H 19.6875" /><circle class="sym" cx="0" cy="0" r="3" /><text class="lab lft" transform="translate(-3 -7.0)">19</text></g><path class="edge" d="M 0 0 V -20.605 H -21.0938" /><circle class="sym" cx="0" cy="0" r="3" /><text class="lab rgt" transform="translate(3 -7.0)">25</text></g><g class="a26 c1 node n17 p0" transform="translate(-21.0938 73.0657)"><g class="a17 c1 node n16 p0" transform="translate(0.0 6.47449)"><g class="a16 leaf node n0 p0 sample" transform="translate(0.0 8.45564)"><path class="edge" d="M 0 0 V -8.45564 H 0.0" /><rect class="sym" height="6" width="6" x="-3" y="-3" /><text class="lab" transform="translate(0 11)">0</text></g><path class="edge" d="M 0 0 V -6.47449 H 0.0" /><circle class="sym" cx="0" cy="0" r="3" /><text class="lab lft" transform="translate(-3 -7.0)">16</text></g><path class="edge" d="M 0 0 V -73.0657 H 21.0938" /><circle class="sym" cx="0" cy="0" r="3" /><text class="lab lft" transform="translate(-3 -7.0)">17</text></g><path class="edge" d="M 0 0 V -6.60415 H 51.3281" /><circle class="sym" cx="0" cy="0" r="3" /><text class="lab lft" transform="translate(-3 -7.0)">26</text></g><circle class="sym" cx="0" cy="0" r="3" /><text class="lab" transform="translate(0 -11)">27</text></g></g></g><g class="tree t3" transform="translate(590 0)"><g class="plotbox"><g class="c2 node n27 p0 root" transform="translate(107.656 26.8)"><g class="a27 c1 node n24 p0" transform="translate(43.5938 31.1317)"><g class="a24 c1 node n23 p0" transform="translate(0.0 29.0871)"><g class="a23 c1 node n22 p0" transform="translate(0.0 1.93507)"><g class="a22 c2 node n20 p0" transform="translate(0.0 6.17134)"><g class="a20 leaf node n7 p0 sample" transform="translate(11.25 26.2748)"><path class="edge" d="M 0 0 V -26.2748 H -11.25" /><rect class="sym" height="6" width="6" x="-3" y="-3" /><text class="lab" transform="translate(0 11)">7</text></g><g class="a20 c2 node n11 p0" transform="translate(-11.25 24.9838)"><g class="a11 leaf node n5 p0 sample" transform="translate(-7.5 1.29106)"><path class="edge" d="M 0 0 V -1.29106 H 7.5" /><rect class="sym" height="6" width="6" x="-3" y="-3" /><text class="lab" transform="translate(0 11)">5</text></g><g class="a11 leaf node n8 p0 sample" transform="translate(7.5 1.29106)"><path class="edge" d="M 0 0 V -1.29106 H -7.5" /><rect class="sym" height="6" width="6" x="-3" y="-3" /><text class="lab" transform="translate(0 11)">8</text></g><path class="edge" d="M 0 0 V -24.9838 H 11.25" /><circle class="sym" cx="0" cy="0" r="3" /><text class="lab lft" transform="translate(-3 -7.0)">11</text></g><path class="edge" d="M 0 0 V -6.17134 H 0.0" /><circle class="sym" cx="0" cy="0" r="3" /><text class="lab lft" transform="translate(-3 -7.0)">20</text></g><path class="edge" d="M 0 0 V -1.93507 H 0.0" /><circle class="sym" cx="0" cy="0" r="3" /><text class="lab lft" transform="translate(-3 -7.0)">22</text></g><path class="edge" d="M 0 0 V -29.0871 H 0.0" /><circle class="sym" cx="0" cy="0" r="3" /><text class="lab lft" transform="translate(-3 -7.0)">23</text></g><path class="edge" d="M 0 0 V -31.1317 H -43.5938" /><circle class="sym" cx="0" cy="0" r="3" /><text class="lab rgt" transform="translate(3 -7.0)">24</text></g><g class="a27 c1 node n26 p0" transform="translate(-43.5938 6.60415)"><g class="a26 c2 node n25 p0" transform="translate(0.0 20.605)"><g class="a25 c2 node n14 p0" transform="translate(25.3125 61.4532)"><g class="a14 leaf node n2 p0 sample" transform="translate(-16.875 5.93762)"><path class="edge" d="M 0 0 V -5.93762 H 16.875" /><rect class="sym" height="6" width="6" x="-3" y="-3" /><text class="lab" transform="translate(0 11)">2</text></g><g class="a14 c2 node n12 p0" transform="translate(16.875 4.25256)"><g class="a12 leaf node n6 p0 sample" transform="translate(11.25 1.68506)"><path class="edge" d="M 0 0 V -1.68506 H -11.25" /><rect class="sym" height="6" width="6" x="-3" y="-3" /><text class="lab" transform="translate(0 11)">6</text></g><g class="a12 c2 node n10 p0" transform="translate(-11.25 0.819511)"><g class="a10 leaf node n3 p0 sample" transform="translate(-7.5 0.865553)"><path class="edge" d="M 0 0 V -0.865553 H 7.5" /><rect class="sym" height="6" width="6" x="-3" y="-3" /><text class="lab" transform="translate(0 11)">3</text></g><g class="a10 leaf node n9 p0 sample" transform="translate(7.5 0.865553)"><path class="edge" d="M 0 0 V -0.865553 H -7.5" /><rect class="sym" height="6" width="6" x="-3" y="-3" /><text class="lab" transform="translate(0 11)">9</text></g><path class="edge" d="M 0 0 V -0.819511 H 11.25" /><circle class="sym" cx="0" cy="0" r="3" /><text class="lab lft" transform="translate(-3 -7.0)">10</text></g><path class="edge" d="M 0 0 V -4.25256 H -16.875" /><circle class="sym" cx="0" cy="0" r="3" /><text class="lab rgt" transform="translate(3 -7.0)">12</text></g><path class="edge" d="M 0 0 V -61.4532 H -25.3125" /><circle class="sym" cx="0" cy="0" r="3" /><text class="lab rgt" transform="translate(3 -7.0)">14</text></g><g class="a25 c2 node n19 p0" transform="translate(-25.3125 46.9335)"><g class="a19 c2 node n13 p0" transform="translate(11.25 16.5607)"><g class="a13 leaf node n1 p0 sample" transform="translate(-7.5 3.89672)"><path class="edge" d="M 0 0 V -3.89672 H 7.5" /><rect class="sym" height="6" width="6" x="-3" y="-3" /><text class="lab" transform="translate(0 11)">1</text></g><g class="a13 leaf node n4 p0 sample" transform="translate(7.5 3.89672)"><path class="edge" d="M 0 0 V -3.89672 H -7.5" /><rect class="sym" height="6" width="6" x="-3" y="-3" /><text class="lab" transform="translate(0 11)">4</text></g><path class="edge" d="M 0 0 V -16.5607 H -11.25" /><circle class="sym" cx="0" cy="0" r="3" /><text class="lab rgt" transform="translate(3 -7.0)">13</text></g><g class="a19 c1 node n18 p0" transform="translate(-11.25 5.52727)"><g class="a18 c1 node n16 p0" transform="translate(0.0 6.47449)"><g class="a16 leaf node n0 p0 sample" transform="translate(0.0 8.45564)"><path class="edge" d="M 0 0 V -8.45564 H 0.0" /><rect class="sym" height="6" width="6" x="-3" y="-3" /><text class="lab" transform="translate(0 11)">0</text></g><path class="edge" d="M 0 0 V -6.47449 H 0.0" /><circle class="sym" cx="0" cy="0" r="3" /><text class="lab lft" transform="translate(-3 -7.0)">16</text></g><path class="edge" d="M 0 0 V -5.52727 H 11.25" /><circle class="sym" cx="0" cy="0" r="3" /><text class="lab lft" transform="translate(-3 -7.0)">18</text></g><path class="edge" d="M 0 0 V -46.9335 H 25.3125" /><circle class="sym" cx="0" cy="0" r="3" /><text class="lab lft" transform="translate(-3 -7.0)">19</text></g><path class="edge" d="M 0 0 V -20.605 H 0.0" /><circle class="sym" cx="0" cy="0" r="3" /><text class="lab lft" transform="translate(-3 -7.0)">25</text></g><path class="edge" d="M 0 0 V -6.60415 H 43.5938" /><circle class="sym" cx="0" cy="0" r="3" /><text class="lab lft" transform="translate(-3 -7.0)">26</text></g><circle class="sym" cx="0" cy="0" r="3" /><text class="lab" transform="translate(0 -11)">27</text></g></g></g></g></g></svg>
