<svg baseProfile="full" height="200" version="1.1" width="1200" xmlns="http://www.w3.org/2000/svg" xmlns:ev="http://www.w3.org/2001/xml-events" xmlns:xlink="http://www.w3.org/1999/xlink"><defs><style type="text/css"><![CDATA[.background path {fill: #808080; fill-opacity: 0}.background path:nth-child(odd) {fill-opacity: .1}.axes {font-size: 14px}.x-axis .tick .lab {font-weight: bold; dominant-baseline: hanging}.axes, .tree {font-size: 14px; text-anchor: middle}.axes line, .edge {stroke: black; fill: none}.y-axis .grid {stroke: #FAFAFA}.node > .sym {fill: black; stroke: none}.site > .sym {stroke: black}.mut text {fill: red; font-style: italic}.mut.extra text {fill: hotpink}.mut line {fill: none; stroke: none}.mut .sym {fill: none; stroke: red}.mut.extra .sym {stroke: hotpink}.node .mut .sym {stroke-width: 1.5px}.tree text, .tree-sequence text {dominant-baseline: central}.plotbox .lab.lft {text-anchor: end}.plotbox .lab.rgt {text-anchor: start}]]></style></defs><g class="tree-sequence"><g class="background"><path d="M20,0 l193.333,0 l0,138.2 l-99.6563,25 l0,5 l-93.677,0 l0,-5 l0,-25 l0,-138.2z" /><path d="M213.333,0 l193.333,0 l0,138.2 l-215.759,25 l0,5 l-77.2311,0 l0,-5 l99.6563,-25 l0,-138.2z" /><path d="M406.667,0 l193.333,0 l0,138.2 l184.326,25 l0,5 l-593.417,0 l0,-5 l215.759,-25 l0,-138.2z" /><path d="M600,0 l193.333,0 l0,138.2 l222.862,25 l0,5 l-231.87,0 l0,-5 l-184.326,-25 l0,-138.2z" /><path d="M793.333,0 l193.333,0 l0,138.2 l145.133,25 l0,5 l-115.604,0 l0,-5 l-222.862,-25 l0,-138.2z" /><path d="M986.667,0 l193.333,0 l0,138.2 l0,25 l0,5 l-48.2007,0 l0,-5 l-145.133,-25 l0,-138.2z" /></g><g class="axes"><g class="x-axis"><g transform="translate(600 200)"><text class="lab" text-anchor="middle" transform="translate(0 -11)">Genome position</text></g><line x1="20" x2="1180" y1="163.2" y2="163.2" /><g class="ticks"><g class="tick" transform="translate(20 163.2)"><line x1="0" x2="0" y1="0" y2="5" /><g transform="translate(0 6)"><text class="lab">0.00</text></g></g><g class="tick" transform="translate(113.677 163.2)"><line x1="0" x2="0" y1="0" y2="5" /><g transform="translate(0 6)"><text class="lab">80.76</text></g></g><g class="tick" transform="translate(190.908 163.2)"><line x1="0" x2="0" y1="0" y2="5" /><g transform="translate(0 6)"><text class="lab">147.33</text></g></g><g class="tick" transform="translate(784.326 163.2)"><line x1="0" x2="0" y1="0" y2="5" /><g transform="translate(0 6)"><text class="lab">658.90</text></g></g><g class="tick" transform="translate(1016.2 163.2)"><line x1="0" x2="0" y1="0" y2="5" /><g transform="translate(0 6)"><text class="lab">858.79</text></g></g><g class="tick" transform="translate(1131.8 163.2)"><line x1="0" x2="0" y1="0" y2="5" /><g transform="translate(0 6)"><text class="lab">958.45</text></g></g><g class="tick" transform="translate(1180 163.2)"><line x1="0" x2="0" y1="0" y2="5" /><g transform="translate(0 6)"><text class="lab">1000.00</text></g></g></g></g></g><g class="plotbox trees"><g class="tree t0" transform="translate(20 0)"><g class="plotbox"><g class="c2 node n33 p0 root" transform="translate(127.333 26.8)"><g class="a33 c1 node n28 p0" transform="translate(30.6667 36.8917)"><g class="a28 c1 node n27 p0" transform="translate(0.0 6.91098)"><g class="a27 c2 node n14 p0" transform="translate(0.0 27.1206)"><g class="a14 leaf node n2 p0 sample" transform="translate(-7.66667 23.6768)"><path class="edge" d="M 0 0 V -23.6768 H 7.66667" /><rect class="sym" height="6" width="6" x="-3" y="-3" /><text class="lab" transform="translate(0 11)">2</text></g><g class="a14 leaf node n5 p0 sample" transform="translate(7.66667 23.6768)"><path class="edge" d="M 0 0 V -23.6768 H -7.66667" /><rect class="sym" height="6" width="6" x="-3" y="-3" /><text class="lab" transform="translate(0 11)">5</text></g><path class="edge" d="M 0 0 V -27.1206 H 0.0" /><circle class="sym" cx="0" cy="0" r="3" /><text class="lab lft" transform="translate(-3 -7.0)">14</text></g><path class="edge" d="M 0 0 V -6.91098 H 0.0" /><circle class="sym" cx="0" cy="0" r="3" /><text class="lab lft" transform="translate(-3 -7.0)">27</text></g><path class="edge" d="M 0 0 V -36.8917 H -30.6667" /><circle class="sym" cx="0" cy="0" r="3" /><text class="lab rgt" transform="translate(3 -7.0)">28</text></g><g class="a33 c1 node n32 p0" transform="translate(-30.6667 6.02597)"><g class="a32 c2 node n31 p0" transform="translate(0.0 12.225)"><g class="a31 c1 node n23 p0" transform="translate(26.8333 34.236)"><g class="a23 c1 node n21 p0" transform="translate(0.0 0.708852)"><g class="a21 c1 node n19 p0" transform="translate(0.0 8.01221)"><g class="a19 c2 node n18 p0" transform="translate(0.0 6.74613)"><g class="a18 leaf node n8 p0 sample" transform="translate(11.5 26.6459)"><path class="edge" d="M 0 0 V -26.6459 H -11.5" /><rect class="sym" height="6" width="6" x="-3" y="-3" /><text class="lab" transform="translate(0 11)">8</text></g><g class="a18 c2 node n13 p0" transform="translate(-11.5 8.54732)"><g class="a13 leaf node n1 p0 sample" transform="translate(-7.66667 18.0986)"><path class="edge" d="M 0 0 V -18.0986 H 7.66667" /><rect class="sym" height="6" width="6" x="-3" y="-3" /><text class="lab" transform="translate(0 11)">1</text></g><g class="a13 leaf node n4 p0 sample" transform="translate(7.66667 18.0986)"><path class="edge" d="M 0 0 V -18.0986 H -7.66667" /><rect class="sym" height="6" width="6" x="-3" y="-3" /><text class="lab" transform="translate(0 11)">4</text></g><path class="edge" d="M 0 0 V -8.54732 H 11.5" /><circle class="sym" cx="0" cy="0" r="3" /><text class="lab lft" transform="translate(-3 -7.0)">13</text></g><path class="edge" d="M 0 0 V -6.74613 H 0.0" /><circle class="sym" cx="0" cy="0" r="3" /><text class="lab lft" transform="translate(-3 -7.0)">18</text></g><path class="edge" d="M 0 0 V -8.01221 H 0.0" /><circle class="sym" cx="0" cy="0" r="3" /><text class="lab lft" transform="translate(-3 -7.0)">19</text></g><path class="edge" d="M 0 0 V -0.708852 H 0.0" /><circle class="sym" cx="0" cy="0" r="3" /><text class="lab lft" transform="translate(-3 -7.0)">21</text></g><path class="edge" d="M 0 0 V -34.236 H -26.8333" /><circle class="sym" cx="0" cy="0" r="3" /><text class="lab rgt" transform="translate(3 -7.0)">23</text></g><g class="a31 c1 node n29 p0" transform="translate(-26.8333 4.80198)"><g class="a29 c2 node n17 p0" transform="translate(0.0 46.5174)"><g class="a17 c2 node n12 p0" transform="translate(-19.1667 11.8329)"><g class="a12 c2 node n10 p0" transform="translate(-15.3333 12.7092)"><g class="a10 leaf node n0 p0 sample" transform="translate(-7.66667 0.487535)"><path class="edge" d="M 0 0 V -0.487535 H 7.66667" /><rect class="sym" height="6" width="6" x="-3" y="-3" /><text class="lab" transform="translate(0 11)">0</text></g><g class="a10 leaf node n7 p0 sample" transform="translate(7.66667 0.487535)"><path class="edge" d="M 0 0 V -0.487535 H -7.66667" /><rect class="sym" height="6" width="6" x="-3" y="-3" /><text class="lab" transform="translate(0 11)">7</text></g><path class="edge" d="M 0 0 V -12.7092 H 15.3333" /><circle class="sym" cx="0" cy="0" r="3" /><text class="lab lft" transform="translate(-3 -7.0)">10</text></g><g class="a12 c2 node n11 p0" transform="translate(15.3333 10.6016)"><g class="a11 leaf node n3 p0 sample" transform="translate(-7.66667 2.59513)"><path class="edge" d="M 0 0 V -2.59513 H 7.66667" /><rect class="sym" height="6" width="6" x="-3" y="-3" /><text class="lab" transform="translate(0 11)">3</text></g><g class="a11 leaf node n9 p0 sample" transform="translate(7.66667 2.59513)"><path class="edge" d="M 0 0 V -2.59513 H -7.66667" /><rect class="sym" height="6" width="6" x="-3" y="-3" /><text class="lab" transform="translate(0 11)">9</text></g><path class="edge" d="M 0 0 V -10.6016 H -15.3333" /><circle class="sym" cx="0" cy="0" r="3" /><text class="lab rgt" transform="translate(3 -7.0)">11</text></g><path class="edge" d="M 0 0 V -11.8329 H 19.1667" /><circle class="sym" cx="0" cy="0" r="3" /><text class="lab lft" transform="translate(-3 -7.0)">12</text></g><g class="a17 c1 node n15 p0" transform="translate(19.1667 0.992137)"><g class="a15 leaf node n6 p0 sample" transform="translate(0.0 24.0375)"><path class="edge" d="M 0 0 V -24.0375 H 0.0" /><rect class="sym" height="6" width="6" x="-3" y="-3" /><text class="lab" transform="translate(0 11)">6</text></g><path class="edge" d="M 0 0 V -0.992137 H -19.1667" /><circle class="sym" cx="0" cy="0" r="3" /><text class="lab rgt" transform="translate(3 -7.0)">15</text></g><path class="edge" d="M 0 0 V -46.5174 H 0.0" /><circle class="sym" cx="0" cy="0" r="3" /><text class="lab lft" transform="translate(-3 -7.0)">17</text></g><path class="edge" d="M 0 0 V -4.80198 H 26.8333" /><circle class="sym" cx="0" cy="0" r="3" /><text class="lab lft" transform="translate(-3 -7.0)">29</text></g><path class="edge" d="M 0 0 V -12.225 H 0.0" /><circle class="sym" cx="0" cy="0" r="3" /><text class="lab lft" transform="translate(-3 -7.0)">31</text></g><path class="edge" d="M 0 0 V -6.02597 H 30.6667" /><circle class="sym" cx="0" cy="0" r="3" /><text class="lab lft" transform="translate(-3 -7.0)">32</text></g><circle class="sym" cx="0" cy="0" r="3" /><text class="lab" transform="translate(0 -11)">33</text></g></g></g><g class="tree t1" transform="translate(213.333 0)"><g class="plotbox"><g class="c2 node n33 p0 root" transform="translate(105.292 26.8)"><g class="a33 c1 node n28 p0" transform="translate(35.4583 36.8917)"><g class="a28 c2 node n27 p0" transform="translate(0.0 6.91098)"><g class="a27 c2 node n14 p0" transform="translate(17.25 27.1206)"><g class="a14 leaf node n2 p0 sample" transform="translate(-7.66667 23.6768)"><path class="edge" d="M 0 0 V -23.6768 H 7.66667" /><rect class="sym" height="6" width="6" x="-3" y="-3" /><text class="lab" transform="translate(0 11)">2</text></g><g class="a14 leaf node n5 p0 sample" transform="translate(7.66667 23.6768)"><path class="edge" d="M 0 0 V -23.6768 H -7.66667" /><rect class="sym" height="6" width="6" x="-3" y="-3" /><text class="lab" transform="translate(0 11)">5</text></g><path class="edge" d="M 0 0 V -27.1206 H -17.25" /><circle class="sym" cx="0" cy="0" r="3" /><text class="lab rgt" transform="translate(3 -7.0)">14</text></g><g class="a27 c1 node n25 p0" transform="translate(-17.25 5.91903)"><g class="a25 c1 node n24 p0" transform="translate(0.0 2.76524)"><g class="a24 c1 node n21 p0" transform="translate(0.0 0.708852)"><g class="a21 c1 node n19 p0" transform="translate(0.0 8.01221)"><g class="a19 c2 node n18 p0" transform="translate(0.0 6.74613)"><g class="a18 leaf node n8 p0 sample" transform="translate(11.5 26.6459)"><path class="edge" d="M 0 0 V -26.6459 H -11.5" /><rect class="sym" height="6" width="6" x="-3" y="-3" /><text class="lab" transform="translate(0 11)">8</text></g><g class="a18 c2 node n13 p0" transform="translate(-11.5 8.54732)"><g class="a13 leaf node n1 p0 sample" transform="translate(-7.66667 18.0986)"><path class="edge" d="M 0 0 V -18.0986 H 7.66667" /><rect class="sym" height="6" width="6" x="-3" y="-3" /><text class="lab" transform="translate(0 11)">1</text></g><g class="a13 leaf node n4 p0 sample" transform="translate(7.66667 18.0986)"><path class="edge" d="M 0 0 V -18.0986 H -7.66667" /><rect class="sym" height="6" width="6" x="-3" y="-3" /><text class="lab" transform="translate(0 11)">4</text></g><path class="edge" d="M 0 0 V -8.54732 H 11.5" /><circle class="sym" cx="0" cy="0" r="3" /><text class="lab lft" transform="translate(-3 -7.0)">13</text></g><path class="edge" d="M 0 0 V -6.74613 H 0.0" /><circle class="sym" cx="0" cy="0" r="3" /><text class="lab lft" transform="translate(-3 -7.0)">18</text></g><path class="edge" d="M 0 0 V -8.01221 H 0.0" /><circle class="sym" cx="0" cy="0" r="3" /><text class="lab lft" transform="translate(-3 -7.0)">19</text></g><path class="edge" d="M 0 0 V -0.708852 H 0.0" /><circle class="sym" cx="0" cy="0" r="3" /><text class="lab lft" transform="translate(-3 -7.0)">21</text></g><path class="edge" d="M 0 0 V -2.76524 H 0.0" /><circle class="sym" cx="0" cy="0" r="3" /><text class="lab lft" transform="translate(-3 -7.0)">24</text></g><path class="edge" d="M 0 0 V -5.91903 H 17.25" /><circle class="sym" cx="0" cy="0" r="3" /><text class="lab lft" transform="translate(-3 -7.0)">25</text></g><path class="edge" d="M 0 0 V -6.91098 H 0.0" /><circle class="sym" cx="0" cy="0" r="3" /><text class="lab lft" transform="translate(-3 -7.0)">27</text></g><path class="edge" d="M 0 0 V -36.8917 H -35.4583" /><circle class="sym" cx="0" cy="0" r="3" /><text class="lab rgt" transform="translate(3 -7.0)">28</text></g><g class="a33 c1 node n32 p0" transform="translate(-35.4583 6.02597)"><g class="a32 c1 node n31 p0" transform="translate(0.0 12.225)"><g class="a31 c1 node n29 p0" transform="translate(0.0 4.80198)"><g class="a29 c2 node n17 p0" transform="translate(0.0 46.5174)"><g class="a17 c2 node n12 p0" transform="translate(-19.1667 11.8329)"><g class="a12 c2 node n10 p0" transform="translate(-15.3333 12.7092)"><g class="a10 leaf node n0 p0 sample" transform="translate(-7.66667 0.487535)"><path class="edge" d="M 0 0 V -0.487535 H 7.66667" /><rect class="sym" height="6" width="6" x="-3" y="-3" /><text class="lab" transform="translate(0 11)">0</text></g><g class="a10 leaf node n7 p0 sample" transform="translate(7.66667 0.487535)"><path class="edge" d="M 0 0 V -0.487535 H -7.66667" /><rect class="sym" height="6" width="6" x="-3" y="-3" /><text class="lab" transform="translate(0 11)">7</text></g><path class="edge" d="M 0 0 V -12.7092 H 15.3333" /><circle class="sym" cx="0" cy="0" r="3" /><text class="lab lft" transform="translate(-3 -7.0)">10</text></g><g class="a12 c2 node n11 p0" transform="translate(15.3333 10.6016)"><g class="a11 leaf node n3 p0 sample" transform="translate(-7.66667 2.59513)"><path class="edge" d="M 0 0 V -2.59513 H 7.66667" /><rect class="sym" height="6" width="6" x="-3" y="-3" /><text class="lab" transform="translate(0 11)">3</text></g><g class="a11 leaf node n9 p0 sample" transform="translate(7.66667 2.59513)"><path class="edge" d="M 0 0 V -2.59513 H -7.66667" /><rect class="sym" height="6" width="6" x="-3" y="-3" /><text class="lab" transform="translate(0 11)">9</text></g><path class="edge" d="M 0 0 V -10.6016 H -15.3333" /><circle class="sym" cx="0" cy="0" r="3" /><text class="lab rgt" transform="translate(3 -7.0)">11</text></g><path class="edge" d="M 0 0 V -11.8329 H 19.1667" /><circle class="sym" cx="0" cy="0" r="3" /><text class="lab lft" transform="translate(-3 -7.0)">12</text></g><g class="a17 c1 node n15 p0" transform="translate(19.1667 0.992137)"><g class="a15 leaf node n6 p0 sample" transform="translate(0.0 24.0375)"><path class="edge" d="M 0 0 V -24.0375 H 0.0" /><rect class="sym" height="6" width="6" x="-3" y="-3" /><text class="lab" transform="translate(0 11)">6</text></g><path class="edge" d="M 0 0 V -0.992137 H -19.1667" /><circle class="sym" cx="0" cy="0" r="3" /><text class="lab rgt" transform="translate(3 -7.0)">15</text></g><path class="edge" d="M 0 0 V -46.5174 H 0.0" /><circle class="sym" cx="0" cy="0" r="3" /><text class="lab lft" transform="translate(-3 -7.0)">17</text></g><path class="edge" d="M 0 0 V -4.80198 H 0.0" /><circle class="sym" cx="0" cy="0" r="3" /><text class="lab lft" transform="translate(-3 -7.0)">29</text></g><path class="edge" d="M 0 0 V -12.225 H 0.0" /><circle class="sym" cx="0" cy="0" r="3" /><text class="lab lft" transform="translate(-3 -7.0)">31</text></g><path class="edge" d="M 0 0 V -6.02597 H 35.4583" /><circle class="sym" cx="0" cy="0" r="3" /><text class="lab lft" transform="translate(-3 -7.0)">32</text></g><circle class="sym" cx="0" cy="0" r="3" /><text class="lab" transform="translate(0 -11)">33</text></g></g></g><g class="tree t2" transform="translate(406.667 0)"><g class="plotbox"><g class="c2 node n33 p0 root" transform="translate(98.1042 26.8)"><g class="a33 c2 node n28 p0" transform="translate(47.4375 36.8917)"><g class="a28 c2 node n27 p0" transform="translate(-20.125 6.91098)"><g class="a27 c2 node n14 p0" transform="translate(17.25 27.1206)"><g class="a14 leaf node n2 p0 sample" transform="translate(-7.66667 23.6768)"><path class="edge" d="M 0 0 V -23.6768 H 7.66667" /><rect class="sym" height="6" width="6" x="-3" y="-3" /><text class="lab" transform="translate(0 11)">2</text></g><g class="a14 leaf node n5 p0 sample" transform="translate(7.66667 23.6768)"><path class="edge" d="M 0 0 V -23.6768 H -7.66667" /><rect class="sym" height="6" width="6" x="-3" y="-3" /><text class="lab" transform="translate(0 11)">5</text></g><path class="edge" d="M 0 0 V -27.1206 H -17.25" /><circle class="sym" cx="0" cy="0" r="3" /><text class="lab rgt" transform="translate(3 -7.0)">14</text></g><g class="a27 c1 node n25 p0" transform="translate(-17.25 5.91903)"><g class="a25 c1 node n24 p0" transform="translate(0.0 2.76524)"><g class="a24 c1 node n21 p0" transform="translate(0.0 0.708852)"><g class="a21 c1 node n19 p0" transform="translate(0.0 8.01221)"><g class="a19 c2 node n18 p0" transform="translate(0.0 6.74613)"><g class="a18 leaf node n8 p0 sample" transform="translate(11.5 26.6459)"><path class="edge" d="M 0 0 V -26.6459 H -11.5" /><rect class="sym" height="6" width="6" x="-3" y="-3" /><text class="lab" transform="translate(0 11)">8</text></g><g class="a18 c2 node n13 p0" transform="translate(-11.5 8.54732)"><g class="a13 leaf node n1 p0 sample" transform="translate(-7.66667 18.0986)"><path class="edge" d="M 0 0 V -18.0986 H 7.66667" /><rect class="sym" height="6" width="6" x="-3" y="-3" /><text class="lab" transform="translate(0 11)">1</text></g><g class="a13 leaf node n4 p0 sample" transform="translate(7.66667 18.0986)"><path class="edge" d="M 0 0 V -18.0986 H -7.66667" /><rect class="sym" height="6" width="6" x="-3" y="-3" /><text class="lab" transform="translate(0 11)">4</text></g><path class="edge" d="M 0 0 V -8.54732 H 11.5" /><circle class="sym" cx="0" cy="0" r="3" /><text class="lab lft" transform="translate(-3 -7.0)">13</text></g><path class="edge" d="M 0 0 V -6.74613 H 0.0" /><circle class="sym" cx="0" cy="0" r="3" /><text class="lab lft" transform="translate(-3 -7.0)">18</text></g><path class="edge" d="M 0 0 V -8.01221 H 0.0" /><circle class="sym" cx="0" cy="0" r="3" /><text class="lab lft" transform="translate(-3 -7.0)">19</text></g><path class="edge" d="M 0 0 V -0.708852 H 0.0" /><circle class="sym" cx="0" cy="0" r="3" /><text class="lab lft" transform="translate(-3 -7.0)">21</text></g><path class="edge" d="M 0 0 V -2.76524 H 0.0" /><circle class="sym" cx="0" cy="0" r="3" /><text class="lab lft" transform="translate(-3 -7.0)">24</text></g><path class="edge" d="M 0 0 V -5.91903 H 17.25" /><circle class="sym" cx="0" cy="0" r="3" /><text class="lab lft" transform="translate(-3 -7.0)">25</text></g><path class="edge" d="M 0 0 V -6.91098 H 20.125" /><circle class="sym" cx="0" cy="0" r="3" /><text class="lab lft" transform="translate(-3 -7.0)">27</text></g><g class="a28 c1 node n26 p0" transform="translate(20.125 11.909)"><g class="a26 c1 node n16 p0" transform="translate(0.0 21.7618)"><g class="a16 leaf node n6 p0 sample" transform="translate(0.0 24.0375)"><path class="edge" d="M 0 0 V -24.0375 H 0.0" /><rect class="sym" height="6" width="6" x="-3" y="-3" /><text class="lab" transform="translate(0 11)">6</text></g><path class="edge" d="M 0 0 V -21.7618 H 0.0" /><circle class="sym" cx="0" cy="0" r="3" /><text class="lab lft" transform="translate(-3 -7.0)">16</text></g><path class="edge" d="M 0 0 V -11.909 H -20.125" /><circle class="sym" cx="0" cy="0" r="3" /><text class="lab rgt" transform="translate(3 -7.0)">26</text></g><path class="edge" d="M 0 0 V -36.8917 H -47.4375" /><circle class="sym" cx="0" cy="0" r="3" /><text class="lab rgt" transform="translate(3 -7.0)">28</text></g><g class="a33 c1 node n32 p0" transform="translate(-47.4375 6.02597)"><g class="a32 c1 node n31 p0" transform="translate(0.0 12.225)"><g class="a31 c1 node n29 p0" transform="translate(0.0 4.80198)"><g class="a29 c1 node n17 p0" transform="translate(0.0 46.5174)"><g class="a17 c2 node n12 p0" transform="translate(0.0 11.8329)"><g class="a12 c2 node n10 p0" transform="translate(-15.3333 12.7092)"><g class="a10 leaf node n0 p0 sample" transform="translate(-7.66667 0.487535)"><path class="edge" d="M 0 0 V -0.487535 H 7.66667" /><rect class="sym" height="6" width="6" x="-3" y="-3" /><text class="lab" transform="translate(0 11)">0</text></g><g class="a10 leaf node n7 p0 sample" transform="translate(7.66667 0.487535)"><path class="edge" d="M 0 0 V -0.487535 H -7.66667" /><rect class="sym" height="6" width="6" x="-3" y="-3" /><text class="lab" transform="translate(0 11)">7</text></g><path class="edge" d="M 0 0 V -12.7092 H 15.3333" /><circle class="sym" cx="0" cy="0" r="3" /><text class="lab lft" transform="translate(-3 -7.0)">10</text></g><g class="a12 c2 node n11 p0" transform="translate(15.3333 10.6016)"><g class="a11 leaf node n3 p0 sample" transform="translate(-7.66667 2.59513)"><path class="edge" d="M 0 0 V -2.59513 H 7.66667" /><rect class="sym" height="6" width="6" x="-3" y="-3" /><text class="lab" transform="translate(0 11)">3</text></g><g class="a11 leaf node n9 p0 sample" transform="translate(7.66667 2.59513)"><path class="edge" d="M 0 0 V -2.59513 H -7.66667" /><rect class="sym" height="6" width="6" x="-3" y="-3" /><text class="lab" transform="translate(0 11)">9</text></g><path class="edge" d="M 0 0 V -10.6016 H -15.3333" /><circle class="sym" cx="0" cy="0" r="3" /><text class="lab rgt" transform="translate(3 -7.0)">11</text></g><path class="edge" d="M 0 0 V -11.8329 H 0.0" /><circle class="sym" cx="0" cy="0" r="3" /><text class="lab lft" transform="translate(-3 -7.0)">12</text></g><path class="edge" d="M 0 0 V -46.5174 H 0.0" /><circle class="sym" cx="0" cy="0" r="3" /><text class="lab lft" transform="translate(-3 -7.0)">17</text></g><path class="edge" d="M 0 0 V -4.80198 H 0.0" /><circle class="sym" cx="0" cy="0" r="3" /><text class="lab lft" transform="translate(-3 -7.0)">29</text></g><path class="edge" d="M 0 0 V -12.225 H 0.0" /><circle class="sym" cx="0" cy="0" r="3" /><text class="lab lft" transform="translate(-3 -7.0)">31</text></g><path class="edge" d="M 0 0 V -6.02597 H 47.4375" /><circle class="sym" cx="0" cy="0" r="3" /><text class="lab lft" transform="translate(-3 -7.0)">32</text></g><circle class="sym" cx="0" cy="0" r="3" /><text class="lab" transform="translate(0 -11)">33</text></g></g></g><g class="tree t3" transform="translate(600 0)"><g class="plotbox"><g class="c2 node n33 p0 root" transform="translate(98.1042 26.8)"><g class="a33 c2 node n28 p0" transform="translate(47.4375 36.8917)"><g class="a28 c2 node n27 p0" transform="translate(-20.125 6.91098)"><g class="a27 c2 node n14 p0" transform="translate(17.25 27.1206)"><g class="a14 leaf node n2 p0 sample" transform="translate(-7.66667 23.6768)"><path class="edge" d="M 0 0 V -23.6768 H 7.66667" /><rect class="sym" height="6" width="6" x="-3" y="-3" /><text class="lab" transform="translate(0 11)">2</text></g><g class="a14 leaf node n5 p0 sample" transform="translate(7.66667 23.6768)"><path class="edge" d="M 0 0 V -23.6768 H -7.66667" /><rect class="sym" height="6" width="6" x="-3" y="-3" /><text class="lab" transform="translate(0 11)">5</text></g><path class="edge" d="M 0 0 V -27.1206 H -17.25" /><circle class="sym" cx="0" cy="0" r="3" /><text class="lab rgt" transform="translate(3 -7.0)">14</text></g><g class="a27 c1 node n25 p0" transform="translate(-17.25 5.91903)"><g class="a25 c1 node n22 p0" transform="translate(0.0 3.47409)"><g class="a22 c1 node n19 p0" transform="translate(0.0 8.01221)"><g class="a19 c2 node n18 p0" transform="translate(0.0 6.74613)"><g class="a18 leaf node n8 p0 sample" transform="translate(11.5 26.6459)"><path class="edge" d="M 0 0 V -26.6459 H -11.5" /><rect class="sym" height="6" width="6" x="-3" y="-3" /><text class="lab" transform="translate(0 11)">8</text></g><g class="a18 c2 node n13 p0" transform="translate(-11.5 8.54732)"><g class="a13 leaf node n1 p0 sample" transform="translate(-7.66667 18.0986)"><path class="edge" d="M 0 0 V -18.0986 H 7.66667" /><rect class="sym" height="6" width="6" x="-3" y="-3" /><text class="lab" transform="translate(0 11)">1</text></g><g class="a13 leaf node n4 p0 sample" transform="translate(7.66667 18.0986)"><path class="edge" d="M 0 0 V -18.0986 H -7.66667" /><rect class="sym" height="6" width="6" x="-3" y="-3" /><text class="lab" transform="translate(0 11)">4</text></g><path class="edge" d="M 0 0 V -8.54732 H 11.5" /><circle class="sym" cx="0" cy="0" r="3" /><text class="lab lft" transform="translate(-3 -7.0)">13</text></g><path class="edge" d="M 0 0 V -6.74613 H 0.0" /><circle class="sym" cx="0" cy="0" r="3" /><text class="lab lft" transform="translate(-3 -7.0)">18</text></g><path class="edge" d="M 0 0 V -8.01221 H 0.0" /><circle class="sym" cx="0" cy="0" r="3" /><text class="lab lft" transform="translate(-3 -7.0)">19</text></g><path class="edge" d="M 0 0 V -3.47409 H 0.0" /><circle class="sym" cx="0" cy="0" r="3" /><text class="lab lft" transform="translate(-3 -7.0)">22</text></g><path class="edge" d="M 0 0 V -5.91903 H 17.25" /><circle class="sym" cx="0" cy="0" r="3" /><text class="lab lft" transform="translate(-3 -7.0)">25</text></g><path class="edge" d="M 0 0 V -6.91098 H 20.125" /><circle class="sym" cx="0" cy="0" r="3" /><text class="lab lft" transform="translate(-3 -7.0)">27</text></g><g class="a28 c1 node n26 p0" transform="translate(20.125 11.909)"><g class="a26 c1 node n16 p0" transform="translate(0.0 21.7618)"><g class="a16 leaf node n6 p0 sample" transform="translate(0.0 24.0375)"><path class="edge" d="M 0 0 V -24.0375 H 0.0" /><rect class="sym" height="6" width="6" x="-3" y="-3" /><text class="lab" transform="translate(0 11)">6</text></g><path class="edge" d="M 0 0 V -21.7618 H 0.0" /><circle class="sym" cx="0" cy="0" r="3" /><text class="lab lft" transform="translate(-3 -7.0)">16</text></g><path class="edge" d="M 0 0 V -11.909 H -20.125" /><circle class="sym" cx="0" cy="0" r="3" /><text class="lab rgt" transform="translate(3 -7.0)">26</text></g><path class="edge" d="M 0 0 V -36.8917 H -47.4375" /><circle class="sym" cx="0" cy="0" r="3" /><text class="lab rgt" transform="translate(3 -7.0)">28</text></g><g class="a33 c1 node n32 p0" transform="translate(-47.4375 6.02597)"><g class="a32 c1 node n31 p0" transform="translate(0.0 12.225)"><g class="a31 c1 node n29 p0" transform="translate(0.0 4.80198)"><g class="a29 c1 node n17 p0" transform="translate(0.0 46.5174)"><g class="a17 c2 node n12 p0" transform="translate(0.0 11.8329)"><g class="a12 c2 node n10 p0" transform="translate(-15.3333 12.7092)"><g class="a10 leaf node n0 p0 sample" transform="translate(-7.66667 0.487535)"><path class="edge" d="M 0 0 V -0.487535 H 7.66667" /><rect class="sym" height="6" width="6" x="-3" y="-3" /><text class="lab" transform="translate(0 11)">0</text></g><g class="a10 leaf node n7 p0 sample" transform="translate(7.66667 0.487535)"><path class="edge" d="M 0 0 V -0.487535 H -7.66667" /><rect class="sym" height="6" width="6" x="-3" y="-3" /><text class="lab" transform="translate(0 11)">7</text></g><path class="edge" d="M 0 0 V -12.7092 H 15.3333" /><circle class="sym" cx="0" cy="0" r="3" /><text class="lab lft" transform="translate(-3 -7.0)">10</text></g><g class="a12 c2 node n11 p0" transform="translate(15.3333 10.6016)"><g class="a11 leaf node n3 p0 sample" transform="translate(-7.66667 2.59513)"><path class="edge" d="M 0 0 V -2.59513 H 7.66667" /><rect class="sym" height="6" width="6" x="-3" y="-3" /><text class="lab" transform="translate(0 11)">3</text></g><g class="a11 leaf node n9 p0 sample" transform="translate(7.66667 2.59513)"><path class="edge" d="M 0 0 V -2.59513 H -7.66667" /><rect class="sym" height="6" width="6" x="-3" y="-3" /><text class="lab" transform="translate(0 11)">9</text></g><path class="edge" d="M 0 0 V -10.6016 H -15.3333" /><circle class="sym" cx="0" cy="0" r="3" /><text class="lab rgt" transform="translate(3 -7.0)">11</text></g><path class="edge" d="M 0 0 V -11.8329 H 0.0" /><circle class="sym" cx="0" cy="0" r="3" /><text class="lab lft" transform="translate(-3 -7.0)">12</text></g><path class="edge" d="M 0 0 V -46.5174 H 0.0" /><circle class="sym" cx="0" cy="0" r="3" /><text class="lab lft" transform="translate(-3 -7.0)">17</text></g><path class="edge" d="M 0 0 V -4.80198 H 0.0" /><circle class="sym" cx="0" cy="0" r="3" /><text class="lab lft" transform="translate(-3 -7.0)">29</text></g><path class="edge" d="M 0 0 V -12.225 H 0.0" /><circle class="sym" cx="0" cy="0" r="3" /><text class="lab lft" transform="translate(-3 -7.0)">31</text></g><path class="edge" d="M 0 0 V -6.02597 H 47.4375" /><circle class="sym" cx="0" cy="0" r="3" /><text class="lab lft" transform="translate(-3 -7.0)">32</text></g><circle class="sym" cx="0" cy="0" r="3" /><text class="lab" transform="translate(0 -11)">33</text></g></g></g><g class="tree t4" transform="translate(793.333 0)"><g class="plotbox"><g class="c2 node n33 p0 root" transform="translate(95.2292 26.8)"><g class="a33 c2 node n28 p0" transform="translate(44.5625 36.8917)"><g class="a28 c1 node n27 p0" transform="translate(18.2083 6.91098)"><g class="a27 c2 node n14 p0" transform="translate(0.0 27.1206)"><g class="a14 leaf node n2 p0 sample" transform="translate(-7.66667 23.6768)"><path class="edge" d="M 0 0 V -23.6768 H 7.66667" /><rect class="sym" height="6" width="6" x="-3" y="-3" /><text class="lab" transform="translate(0 11)">2</text></g><g class="a14 leaf node n5 p0 sample" transform="translate(7.66667 23.6768)"><path class="edge" d="M 0 0 V -23.6768 H -7.66667" /><rect class="sym" height="6" width="6" x="-3" y="-3" /><text class="lab" transform="translate(0 11)">5</text></g><path class="edge" d="M 0 0 V -27.1206 H 0.0" /><circle class="sym" cx="0" cy="0" r="3" /><text class="lab lft" transform="translate(-3 -7.0)">14</text></g><path class="edge" d="M 0 0 V -6.91098 H -18.2083" /><circle class="sym" cx="0" cy="0" r="3" /><text class="lab rgt" transform="translate(3 -7.0)">27</text></g><g class="a28 c2 node n26 p0" transform="translate(-18.2083 11.909)"><g class="a26 c1 node n16 p0" transform="translate(13.4167 21.7618)"><g class="a16 leaf node n6 p0 sample" transform="translate(0.0 24.0375)"><path class="edge" d="M 0 0 V -24.0375 H 0.0" /><rect class="sym" height="6" width="6" x="-3" y="-3" /><text class="lab" transform="translate(0 11)">6</text></g><path class="edge" d="M 0 0 V -21.7618 H -13.4167" /><circle class="sym" cx="0" cy="0" r="3" /><text class="lab rgt" transform="translate(3 -7.0)">16</text></g><g class="a26 c1 node n20 p0" transform="translate(-13.4167 12.4073)"><g class="a20 c2 node n18 p0" transform="translate(0.0 6.74613)"><g class="a18 leaf node n8 p0 sample" transform="translate(11.5 26.6459)"><path class="edge" d="M 0 0 V -26.6459 H -11.5" /><rect class="sym" height="6" width="6" x="-3" y="-3" /><text class="lab" transform="translate(0 11)">8</text></g><g class="a18 c2 node n13 p0" transform="translate(-11.5 8.54732)"><g class="a13 leaf node n1 p0 sample" transform="translate(-7.66667 18.0986)"><path class="edge" d="M 0 0 V -18.0986 H 7.66667" /><rect class="sym" height="6" width="6" x="-3" y="-3" /><text class="lab" transform="translate(0 11)">1</text></g><g class="a13 leaf node n4 p0 sample" transform="translate(7.66667 18.0986)"><path class="edge" d="M 0 0 V -18.0986 H -7.66667" /><rect class="sym" height="6" width="6" x="-3" y="-3" /><text class="lab" transform="translate(0 11)">4</text></g><path class="edge" d="M 0 0 V -8.54732 H 11.5" /><circle class="sym" cx="0" cy="0" r="3" /><text class="lab lft" transform="translate(-3 -7.0)">13</text></g><path class="edge" d="M 0 0 V -6.74613 H 0.0" /><circle class="sym" cx="0" cy="0" r="3" /><text class="lab lft" transform="translate(-3 -7.0)">18</text></g><path class="edge" d="M 0 0 V -12.4073 H 13.4167" /><circle class="sym" cx="0" cy="0" r="3" /><text class="lab lft" transform="translate(-3 -7.0)">20</text></g><path class="edge" d="M 0 0 V -11.909 H 18.2083" /><circle class="sym" cx="0" cy="0" r="3" /><text class="lab lft" transform="translate(-3 -7.0)">26</text></g><path class="edge" d="M 0 0 V -36.8917 H -44.5625" /><circle class="sym" cx="0" cy="0" r="3" /><text class="lab rgt" transform="translate(3 -7.0)">28</text></g><g class="a33 c1 node n32 p0" transform="translate(-44.5625 6.02597)"><g class="a32 c1 node n31 p0" transform="translate(0.0 12.225)"><g class="a31 c1 node n29 p0" transform="translate(0.0 4.80198)"><g class="a29 c1 node n17 p0" transform="translate(0.0 46.5174)"><g class="a17 c2 node n12 p0" transform="translate(0.0 11.8329)"><g class="a12 c2 node n10 p0" transform="translate(-15.3333 12.7092)"><g class="a10 leaf node n0 p0 sample" transform="translate(-7.66667 0.487535)"><path class="edge" d="M 0 0 V -0.487535 H 7.66667" /><rect class="sym" height="6" width="6" x="-3" y="-3" /><text class="lab" transform="translate(0 11)">0</text></g><g class="a10 leaf node n7 p0 sample" transform="translate(7.66667 0.487535)"><path class="edge" d="M 0 0 V -0.487535 H -7.66667" /><rect class="sym" height="6" width="6" x="-3" y="-3" /><text class="lab" transform="translate(0 11)">7</text></g><path class="edge" d="M 0 0 V -12.7092 H 15.3333" /><circle class="sym" cx="0" cy="0" r="3" /><text class="lab lft" transform="translate(-3 -7.0)">10</text></g><g class="a12 c2 node n11 p0" transform="translate(15.3333 10.6016)"><g class="a11 leaf node n3 p0 sample" transform="translate(-7.66667 2.59513)"><path class="edge" d="M 0 0 V -2.59513 H 7.66667" /><rect class="sym" height="6" width="6" x="-3" y="-3" /><text class="lab" transform="translate(0 11)">3</text></g><g class="a11 leaf node n9 p0 sample" transform="translate(7.66667 2.59513)"><path class="edge" d="M 0 0 V -2.59513 H -7.66667" /><rect class="sym" height="6" width="6" x="-3" y="-3" /><text class="lab" transform="translate(0 11)">9</text></g><path class="edge" d="M 0 0 V -10.6016 H -15.3333" /><circle class="sym" cx="0" cy="0" r="3" /><text class="lab rgt" transform="translate(3 -7.0)">11</text></g><path class="edge" d="M 0 0 V -11.8329 H 0.0" /><circle class="sym" cx="0" cy="0" r="3" /><text class="lab lft" transform="translate(-3 -7.0)">12</text></g><path class="edge" d="M 0 0 V -46.5174 H 0.0" /><circle class="sym" cx="0" cy="0" r="3" /><text class="lab lft" transform="translate(-3 -7.0)">17</text></g><path class="edge" d="M 0 0 V -4.80198 H 0.0" /><circle class="sym" cx="0" cy="0" r="3" /><text class="lab lft" transform="translate(-3 -7.0)">29</text></g><path class="edge" d="M 0 0 V -12.225 H 0.0" /><circle class="sym" cx="0" cy="0" r="3" /><text class="lab lft" transform="translate(-3 -7.0)">31</text></g><path class="edge" d="M 0 0 V -6.02597 H 44.5625" /><circle class="sym" cx="0" cy="0" r="3" /><text class="lab lft" transform="translate(-3 -7.0)">32</text></g><circle class="sym" cx="0" cy="0" r="3" /><text class="lab" transform="translate(0 -11)">33</text></g></g></g><g class="tree t5" transform="translate(986.667 0)"><g class="plotbox"><g class="c2 node n33 p0 root" transform="translate(95.2292 26.8)"><g class="a33 c2 node n28 p0" transform="translate(44.5625 36.8917)"><g class="a28 c1 node n27 p0" transform="translate(18.2083 6.91098)"><g class="a27 c2 node n14 p0" transform="translate(0.0 27.1206)"><g class="a14 leaf node n2 p0 sample" transform="translate(-7.66667 23.6768)"><path class="edge" d="M 0 0 V -23.6768 H 7.66667" /><rect class="sym" height="6" width="6" x="-3" y="-3" /><text class="lab" transform="translate(0 11)">2</text></g><g class="a14 leaf node n5 p0 sample" transform="translate(7.66667 23.6768)"><path class="edge" d="M 0 0 V -23.6768 H -7.66667" /><rect class="sym" height="6" width="6" x="-3" y="-3" /><text class="lab" transform="translate(0 11)">5</text></g><path class="edge" d="M 0 0 V -27.1206 H 0.0" /><circle class="sym" cx="0" cy="0" r="3" /><text class="lab lft" transform="translate(-3 -7.0)">14</text></g><path class="edge" d="M 0 0 V -6.91098 H -18.2083" /><circle class="sym" cx="0" cy="0" r="3" /><text class="lab rgt" transform="translate(3 -7.0)">27</text></g><g class="a28 c2 node n26 p0" transform="translate(-18.2083 11.909)"><g class="a26 c1 node n16 p0" transform="translate(13.4167 21.7618)"><g class="a16 leaf node n6 p0 sample" transform="translate(0.0 24.0375)"><path class="edge" d="M 0 0 V -24.0375 H 0.0" /><rect class="sym" height="6" width="6" x="-3" y="-3" /><text class="lab" transform="translate(0 11)">6</text></g><path class="edge" d="M 0 0 V -21.7618 H -13.4167" /><circle class="sym" cx="0" cy="0" r="3" /><text class="lab rgt" transform="translate(3 -7.0)">16</text></g><g class="a26 c1 node n20 p0" transform="translate(-13.4167 12.4073)"><g class="a20 c2 node n18 p0" transform="translate(0.0 6.74613)"><g class="a18 leaf node n8 p0 sample" transform="translate(11.5 26.6459)"><path class="edge" d="M 0 0 V -26.6459 H -11.5" /><rect class="sym" height="6" width="6" x="-3" y="-3" /><text class="lab" transform="translate(0 11)">8</text></g><g class="a18 c2 node n13 p0" transform="translate(-11.5 8.54732)"><g class="a13 leaf node n1 p0 sample" transform="translate(-7.66667 18.0986)"><path class="edge" d="M 0 0 V -18.0986 H 7.66667" /><rect class="sym" height="6" width="6" x="-3" y="-3" /><text class="lab" transform="translate(0 11)">1</text></g><g class="a13 leaf node n4 p0 sample" transform="translate(7.66667 18.0986)"><path class="edge" d="M 0 0 V -18.0986 H -7.66667" /><rect class="sym" height="6" width="6" x="-3" y="-3" /><text class="lab" transform="translate(0 11)">4</text></g><path class="edge" d="M 0 0 V -8.54732 H 11.5" /><circle class="sym" cx="0" cy="0" r="3" /><text class="lab lft" transform="translate(-3 -7.0)">13</text></g><path class="edge" d="M 0 0 V -6.74613 H 0.0" /><circle class="sym" cx="0" cy="0" r="3" /><text class="lab lft" transform="translate(-3 -7.0)">18</text></g><path class="edge" d="M 0 0 V -12.4073 H 13.4167" /><circle class="sym" cx="0" cy="0" r="3" /><text class="lab lft" transform="translate(-3 -7.0)">20</text></g><path class="edge" d="M 0 0 V -11.909 H 18.2083" /><circle class="sym" cx="0" cy="0" r="3" /><text class="lab lft" transform="translate(-3 -7.0)">26</text></g><path class="edge" d="M 0 0 V -36.8917 H -44.5625" /><circle class="sym" cx="0" cy="0" r="3" /><text class="lab rgt" transform="translate(3 -7.0)">28</text></g><g class="a33 c1 node n32 p0" transform="translate(-44.5625 6.02597)"><g class="a32 c1 node n30 p0" transform="translate(0.0 17.027)"><g class="a30 c1 node n17 p0" transform="translate(0.0 46.5174)"><g class="a17 c2 node n12 p0" transform="translate(0.0 11.8329)"><g class="a12 c2 node n10 p0" transform="translate(-15.3333 12.7092)"><g class="a10 leaf node n0 p0 sample" transform="translate(-7.66667 0.487535)"><path class="edge" d="M 0 0 V -0.487535 H 7.66667" /><rect class="sym" height="6" width="6" x="-3" y="-3" /><text class="lab" transform="translate(0 11)">0</text></g><g class="a10 leaf node n7 p0 sample" transform="translate(7.66667 0.487535)"><path class="edge" d="M 0 0 V -0.487535 H -7.66667" /><rect class="sym" height="6" width="6" x="-3" y="-3" /><text class="lab" transform="translate(0 11)">7</text></g><path class="edge" d="M 0 0 V -12.7092 H 15.3333" /><circle class="sym" cx="0" cy="0" r="3" /><text class="lab lft" transform="translate(-3 -7.0)">10</text></g><g class="a12 c2 node n11 p0" transform="translate(15.3333 10.6016)"><g class="a11 leaf node n3 p0 sample" transform="translate(-7.66667 2.59513)"><path class="edge" d="M 0 0 V -2.59513 H 7.66667" /><rect class="sym" height="6" width="6" x="-3" y="-3" /><text class="lab" transform="translate(0 11)">3</text></g><g class="a11 leaf node n9 p0 sample" transform="translate(7.66667 2.59513)"><path class="edge" d="M 0 0 V -2.59513 H -7.66667" /><rect class="sym" height="6" width="6" x="-3" y="-3" /><text class="lab" transform="translate(0 11)">9</text></g><path class="edge" d="M 0 0 V -10.6016 H -15.3333" /><circle class="sym" cx="0" cy="0" r="3" /><text class="lab rgt" transform="translate(3 -7.0)">11</text></g><path class="edge" d="M 0 0 V -11.8329 H 0.0" /><circle class="sym" cx="0" cy="0" r="3" /><text class="lab lft" transform="translate(-3 -7.0)">12</text></g><path class="edge" d="M 0 0 V -46.5174 H 0.0" /><circle class="sym" cx="0" cy="0" r="3" /><text class="lab lft" transform="translate(-3 -7.0)">17</text></g><path class="edge" d="M 0 0 V -17.027 H 0.0" /><circle class="sym" cx="0" cy="0" r="3" /><text class="lab lft" transform="translate(-3 -7.0)">30</text></g><path class="edge" d="M 0 0 V -6.02597 H 44.5625" /><circle class="sym" cx="0" cy="0" r="3" /><text class="lab lft" transform="translate(-3 -7.0)">32</text></g><circle class="sym" cx="0" cy="0" r="3" /><text class="lab" transform="translate(0 -11)">33</text></g></g></g></g></g></svg>
