<svg baseProfile="full" height="200" version="1.1" width="800" xmlns="http://www.w3.org/2000/svg" xmlns:ev="http://www.w3.org/2001/xml-events" xmlns:xlink="http://www.w3.org/1999/xlink"><defs><style type="text/css"><![CDATA[.background path {fill: #808080; fill-opacity: 0}.background path:nth-child(odd) {fill-opacity: .1}.axes {font-size: 14px}.x-axis .tick .lab {font-weight: bold; dominant-baseline: hanging}.axes, .tree {font-size: 14px; text-anchor: middle}.axes line, .edge {stroke: black; fill: none}.y-axis .grid {stroke: #FAFAFA}.node > .sym {fill: black; stroke: none}.site > .sym {stroke: black}.mut text {fill: red; font-style: italic}.mut.extra text {fill: hotpink}.mut line {fill: none; stroke: none}.mut .sym {fill: none; stroke: red}.mut.extra .sym {stroke: hotpink}.node .mut .sym {stroke-width: 1.5px}.tree text, .tree-sequence text {dominant-baseline: central}.plotbox .lab.lft {text-anchor: end}.plotbox .lab.rgt {text-anchor: start}]]></style></defs><g class="tree-sequence"><g class="background"><path d="M20,0 l190,0 l0,138.2 l-35.2789,25 l0,5 l-154.721,0 l0,-5 l0,-25 l0,-138.2z" /><path d="M210,0 l190,0 l0,138.2 l-183.29,25 l0,5 l-41.9889,0 l0,-5 l35.2789,-25 l0,-138.2z" /><path d="M400,0 l190,0 l0,138.2 l147.233,25 l0,5 l-520.523,0 l0,-5 l183.29,-25 l0,-138.2z" /><path d="M590,0 l190,0 l0,138.2 l0,25 l0,5 l-42.7672,0 l0,-5 l-147.233,-25 l0,-138.2z" /></g><g class="axes"><g class="x-axis"><g transform="translate(400 200)"><text class="lab" text-anchor="middle" transform="translate(0 -11)">Genome position</text></g><line x1="20" x2="780" y1="163.2" y2="163.2" /><g class="ticks"><g class="tick" transform="translate(20 163.2)"><line x1="0" x2="0" y1="0" y2="5" /><g transform="translate(0 6)"><text class="lab">0.00</text></g></g><g class="tick" transform="translate(174.721 163.2)"><line x1="0" x2="0" y1="0" y2="5" /><g transform="translate(0 6)"><text class="lab">203.58</text></g></g><g class="tick" transform="translate(216.71 163.2)"><line x1="0" x2="0" y1="0" y2="5" /><g transform="translate(0 6)"><text class="lab">258.83</text></g></g><g class="tick" transform="translate(737.233 163.2)"><line x1="0" x2="0" y1="0" y2="5" /><g transform="translate(0 6)"><text class="lab">943.73</text></g></g><g class="tick" transform="translate(780 163.2)"><line x1="0" x2="0" y1="0" y2="5" /><g transform="translate(0 6)"><text class="lab">1000.00</text></g></g></g></g></g><g class="plotbox trees"><g class="tree t0" transform="translate(20 0)"><g class="plotbox"><g class="c2 node n27 p0 root" transform="translate(125 26.8)"><g class="a27 c2 node n22 p0" transform="translate(-30 22.4669)"><g class="a22 c2 node n17 p0" transform="translate(-26.25 33.0009)"><g class="a17 c1 node n13 p0" transform="translate(18.75 18.722)"><g class="a13 leaf node n7 p0 sample" transform="translate(0.0 20.4101)"><path class="edge" d="M 0 0 V -20.4101 H 0.0" /><rect class="sym" height="6" width="6" x="-3" y="-3" /><text class="lab" transform="translate(0 11)">7</text></g><path class="edge" d="M 0 0 V -18.722 H -18.75" /><circle class="sym" cx="0" cy="0" r="3" /><text class="lab rgt" transform="translate(3 -7.0)">13</text></g><g class="a17 c2 node n16 p0" transform="translate(-18.75 12.8308)"><g class="a16 c2 node n12 p0" transform="translate(-15 6.72773)"><g class="a12 leaf node n0 p0 sample" transform="translate(-7.5 19.5736)"><path class="edge" d="M 0 0 V -19.5736 H 7.5" /><rect class="sym" height="6" width="6" x="-3" y="-3" /><text class="lab" transform="translate(0 11)">0</text></g><g class="a12 leaf node n6 p0 sample" transform="translate(7.5 19.5736)"><path class="edge" d="M 0 0 V -19.5736 H -7.5" /><rect class="sym" height="6" width="6" x="-3" y="-3" /><text class="lab" transform="translate(0 11)">6</text></g><path class="edge" d="M 0 0 V -6.72773 H 15" /><circle class="sym" cx="0" cy="0" r="3" /><text class="lab lft" transform="translate(-3 -7.0)">12</text></g><g class="a16 c2 node n15 p0" transform="translate(15 1.22433)"><g class="a15 leaf node n2 p0 sample" transform="translate(-7.5 25.077)"><path class="edge" d="M 0 0 V -25.077 H 7.5" /><rect class="sym" height="6" width="6" x="-3" y="-3" /><text class="lab" transform="translate(0 11)">2</text></g><g class="a15 leaf node n9 p0 sample" transform="translate(7.5 25.077)"><path class="edge" d="M 0 0 V -25.077 H -7.5" /><rect class="sym" height="6" width="6" x="-3" y="-3" /><text class="lab" transform="translate(0 11)">9</text></g><path class="edge" d="M 0 0 V -1.22433 H -15" /><circle class="sym" cx="0" cy="0" r="3" /><text class="lab rgt" transform="translate(3 -7.0)">15</text></g><path class="edge" d="M 0 0 V -12.8308 H 18.75" /><circle class="sym" cx="0" cy="0" r="3" /><text class="lab lft" transform="translate(-3 -7.0)">16</text></g><path class="edge" d="M 0 0 V -33.0009 H 26.25" /><circle class="sym" cx="0" cy="0" r="3" /><text class="lab lft" transform="translate(-3 -7.0)">17</text></g><g class="a22 c2 node n18 p0" transform="translate(26.25 18.2582)"><g class="a18 leaf node n8 p0 sample" transform="translate(11.25 53.8748)"><path class="edge" d="M 0 0 V -53.8748 H -11.25" /><rect class="sym" height="6" width="6" x="-3" y="-3" /><text class="lab" transform="translate(0 11)">8</text></g><g class="a18 c2 node n10 p0" transform="translate(-11.25 53.5266)"><g class="a10 leaf node n3 p0 sample" transform="translate(-7.5 0.348208)"><path class="edge" d="M 0 0 V -0.348208 H 7.5" /><rect class="sym" height="6" width="6" x="-3" y="-3" /><text class="lab" transform="translate(0 11)">3</text></g><g class="a10 leaf node n4 p0 sample" transform="translate(7.5 0.348208)"><path class="edge" d="M 0 0 V -0.348208 H -7.5" /><rect class="sym" height="6" width="6" x="-3" y="-3" /><text class="lab" transform="translate(0 11)">4</text></g><path class="edge" d="M 0 0 V -53.5266 H 11.25" /><circle class="sym" cx="0" cy="0" r="3" /><text class="lab lft" transform="translate(-3 -7.0)">10</text></g><path class="edge" d="M 0 0 V -18.2582 H -26.25" /><circle class="sym" cx="0" cy="0" r="3" /><text class="lab rgt" transform="translate(3 -7.0)">18</text></g><path class="edge" d="M 0 0 V -22.4669 H 30" /><circle class="sym" cx="0" cy="0" r="3" /><text class="lab lft" transform="translate(-3 -7.0)">22</text></g><g class="a27 c1 node n26 p0" transform="translate(30 12.5287)"><g class="a26 c1 node n23 p0" transform="translate(0.0 9.65841)"><g class="a23 c2 node n11 p0" transform="translate(0.0 61.5345)"><g class="a11 leaf node n1 p0 sample" transform="translate(-7.5 10.8784)"><path class="edge" d="M 0 0 V -10.8784 H 7.5" /><rect class="sym" height="6" width="6" x="-3" y="-3" /><text class="lab" transform="translate(0 11)">1</text></g><g class="a11 leaf node n5 p0 sample" transform="translate(7.5 10.8784)"><path class="edge" d="M 0 0 V -10.8784 H -7.5" /><rect class="sym" height="6" width="6" x="-3" y="-3" /><text class="lab" transform="translate(0 11)">5</text></g><path class="edge" d="M 0 0 V -61.5345 H 0.0" /><circle class="sym" cx="0" cy="0" r="3" /><text class="lab lft" transform="translate(-3 -7.0)">11</text></g><path class="edge" d="M 0 0 V -9.65841 H 0.0" /><circle class="sym" cx="0" cy="0" r="3" /><text class="lab lft" transform="translate(-3 -7.0)">23</text></g><path class="edge" d="M 0 0 V -12.5287 H -30" /><circle class="sym" cx="0" cy="0" r="3" /><text class="lab rgt" transform="translate(3 -7.0)">26</text></g><circle class="sym" cx="0" cy="0" r="3" /><text class="lab" transform="translate(0 -11)">27</text></g></g></g><g class="tree t1" transform="translate(210 0)"><g class="plotbox"><g class="c2 node n27 p0 root" transform="translate(114.688 26.8)"><g class="a27 c2 node n22 p0" transform="translate(-36.5625 22.4669)"><g class="a22 c1 node n17 p0" transform="translate(-28.125 33.0009)"><g class="a17 c2 node n16 p0" transform="translate(0.0 12.8308)"><g class="a16 c2 node n12 p0" transform="translate(-15 6.72773)"><g class="a12 leaf node n0 p0 sample" transform="translate(-7.5 19.5736)"><path class="edge" d="M 0 0 V -19.5736 H 7.5" /><rect class="sym" height="6" width="6" x="-3" y="-3" /><text class="lab" transform="translate(0 11)">0</text></g><g class="a12 leaf node n6 p0 sample" transform="translate(7.5 19.5736)"><path class="edge" d="M 0 0 V -19.5736 H -7.5" /><rect class="sym" height="6" width="6" x="-3" y="-3" /><text class="lab" transform="translate(0 11)">6</text></g><path class="edge" d="M 0 0 V -6.72773 H 15" /><circle class="sym" cx="0" cy="0" r="3" /><text class="lab lft" transform="translate(-3 -7.0)">12</text></g><g class="a16 c2 node n15 p0" transform="translate(15 1.22433)"><g class="a15 leaf node n2 p0 sample" transform="translate(-7.5 25.077)"><path class="edge" d="M 0 0 V -25.077 H 7.5" /><rect class="sym" height="6" width="6" x="-3" y="-3" /><text class="lab" transform="translate(0 11)">2</text></g><g class="a15 leaf node n9 p0 sample" transform="translate(7.5 25.077)"><path class="edge" d="M 0 0 V -25.077 H -7.5" /><rect class="sym" height="6" width="6" x="-3" y="-3" /><text class="lab" transform="translate(0 11)">9</text></g><path class="edge" d="M 0 0 V -1.22433 H -15" /><circle class="sym" cx="0" cy="0" r="3" /><text class="lab rgt" transform="translate(3 -7.0)">15</text></g><path class="edge" d="M 0 0 V -12.8308 H 0.0" /><circle class="sym" cx="0" cy="0" r="3" /><text class="lab lft" transform="translate(-3 -7.0)">16</text></g><path class="edge" d="M 0 0 V -33.0009 H 28.125" /><circle class="sym" cx="0" cy="0" r="3" /><text class="lab lft" transform="translate(-3 -7.0)">17</text></g><g class="a22 c2 node n18 p0" transform="translate(28.125 18.2582)"><g class="a18 leaf node n8 p0 sample" transform="translate(11.25 53.8748)"><path class="edge" d="M 0 0 V -53.8748 H -11.25" /><rect class="sym" height="6" width="6" x="-3" y="-3" /><text class="lab" transform="translate(0 11)">8</text></g><g class="a18 c2 node n10 p0" transform="translate(-11.25 53.5266)"><g class="a10 leaf node n3 p0 sample" transform="translate(-7.5 0.348208)"><path class="edge" d="M 0 0 V -0.348208 H 7.5" /><rect class="sym" height="6" width="6" x="-3" y="-3" /><text class="lab" transform="translate(0 11)">3</text></g><g class="a10 leaf node n4 p0 sample" transform="translate(7.5 0.348208)"><path class="edge" d="M 0 0 V -0.348208 H -7.5" /><rect class="sym" height="6" width="6" x="-3" y="-3" /><text class="lab" transform="translate(0 11)">4</text></g><path class="edge" d="M 0 0 V -53.5266 H 11.25" /><circle class="sym" cx="0" cy="0" r="3" /><text class="lab lft" transform="translate(-3 -7.0)">10</text></g><path class="edge" d="M 0 0 V -18.2582 H -28.125" /><circle class="sym" cx="0" cy="0" r="3" /><text class="lab rgt" transform="translate(3 -7.0)">18</text></g><path class="edge" d="M 0 0 V -22.4669 H 36.5625" /><circle class="sym" cx="0" cy="0" r="3" /><text class="lab lft" transform="translate(-3 -7.0)">22</text></g><g class="a27 c2 node n26 p0" transform="translate(36.5625 12.5287)"><g class="a26 c1 node n23 p0" transform="translate(-11.25 9.65841)"><g class="a23 c2 node n11 p0" transform="translate(0.0 61.5345)"><g class="a11 leaf node n1 p0 sample" transform="translate(-7.5 10.8784)"><path class="edge" d="M 0 0 V -10.8784 H 7.5" /><rect class="sym" height="6" width="6" x="-3" y="-3" /><text class="lab" transform="translate(0 11)">1</text></g><g class="a11 leaf node n5 p0 sample" transform="translate(7.5 10.8784)"><path class="edge" d="M 0 0 V -10.8784 H -7.5" /><rect class="sym" height="6" width="6" x="-3" y="-3" /><text class="lab" transform="translate(0 11)">5</text></g><path class="edge" d="M 0 0 V -61.5345 H 0.0" /><circle class="sym" cx="0" cy="0" r="3" /><text class="lab lft" transform="translate(-3 -7.0)">11</text></g><path class="edge" d="M 0 0 V -9.65841 H 11.25" /><circle class="sym" cx="0" cy="0" r="3" /><text class="lab lft" transform="translate(-3 -7.0)">23</text></g><g class="a26 c1 node n25 p0" transform="translate(11.25 1.68669)"><g class="a25 c1 node n21 p0" transform="translate(0.0 20.2479)"><g class="a21 c1 node n19 p0" transform="translate(0.0 6.03161)"><g class="a19 c1 node n14 p0" transform="translate(0.0 33.695)"><g class="a14 leaf node n7 p0 sample" transform="translate(0.0 20.4101)"><path class="edge" d="M 0 0 V -20.4101 H 0.0" /><rect class="sym" height="6" width="6" x="-3" y="-3" /><text class="lab" transform="translate(0 11)">7</text></g><path class="edge" d="M 0 0 V -33.695 H 0.0" /><circle class="sym" cx="0" cy="0" r="3" /><text class="lab lft" transform="translate(-3 -7.0)">14</text></g><path class="edge" d="M 0 0 V -6.03161 H 0.0" /><circle class="sym" cx="0" cy="0" r="3" /><text class="lab lft" transform="translate(-3 -7.0)">19</text></g><path class="edge" d="M 0 0 V -20.2479 H 0.0" /><circle class="sym" cx="0" cy="0" r="3" /><text class="lab lft" transform="translate(-3 -7.0)">21</text></g><path class="edge" d="M 0 0 V -1.68669 H -11.25" /><circle class="sym" cx="0" cy="0" r="3" /><text class="lab rgt" transform="translate(3 -7.0)">25</text></g><path class="edge" d="M 0 0 V -12.5287 H -36.5625" /><circle class="sym" cx="0" cy="0" r="3" /><text class="lab rgt" transform="translate(3 -7.0)">26</text></g><circle class="sym" cx="0" cy="0" r="3" /><text class="lab" transform="translate(0 -11)">27</text></g></g></g><g class="tree t2" transform="translate(400 0)"><g class="plotbox"><g class="c2 node n27 p0 root" transform="translate(114.688 26.8)"><g class="a27 c2 node n22 p0" transform="translate(-36.5625 22.4669)"><g class="a22 c1 node n17 p0" transform="translate(-28.125 33.0009)"><g class="a17 c2 node n16 p0" transform="translate(0.0 12.8308)"><g class="a16 c2 node n12 p0" transform="translate(-15 6.72773)"><g class="a12 leaf node n0 p0 sample" transform="translate(-7.5 19.5736)"><path class="edge" d="M 0 0 V -19.5736 H 7.5" /><rect class="sym" height="6" width="6" x="-3" y="-3" /><text class="lab" transform="translate(0 11)">0</text></g><g class="a12 leaf node n6 p0 sample" transform="translate(7.5 19.5736)"><path class="edge" d="M 0 0 V -19.5736 H -7.5" /><rect class="sym" height="6" width="6" x="-3" y="-3" /><text class="lab" transform="translate(0 11)">6</text></g><path class="edge" d="M 0 0 V -6.72773 H 15" /><circle class="sym" cx="0" cy="0" r="3" /><text class="lab lft" transform="translate(-3 -7.0)">12</text></g><g class="a16 c2 node n15 p0" transform="translate(15 1.22433)"><g class="a15 leaf node n2 p0 sample" transform="translate(-7.5 25.077)"><path class="edge" d="M 0 0 V -25.077 H 7.5" /><rect class="sym" height="6" width="6" x="-3" y="-3" /><text class="lab" transform="translate(0 11)">2</text></g><g class="a15 leaf node n9 p0 sample" transform="translate(7.5 25.077)"><path class="edge" d="M 0 0 V -25.077 H -7.5" /><rect class="sym" height="6" width="6" x="-3" y="-3" /><text class="lab" transform="translate(0 11)">9</text></g><path class="edge" d="M 0 0 V -1.22433 H -15" /><circle class="sym" cx="0" cy="0" r="3" /><text class="lab rgt" transform="translate(3 -7.0)">15</text></g><path class="edge" d="M 0 0 V -12.8308 H 0.0" /><circle class="sym" cx="0" cy="0" r="3" /><text class="lab lft" transform="translate(-3 -7.0)">16</text></g><path class="edge" d="M 0 0 V -33.0009 H 28.125" /><circle class="sym" cx="0" cy="0" r="3" /><text class="lab lft" transform="translate(-3 -7.0)">17</text></g><g class="a22 c2 node n18 p0" transform="translate(28.125 18.2582)"><g class="a18 leaf node n8 p0 sample" transform="translate(11.25 53.8748)"><path class="edge" d="M 0 0 V -53.8748 H -11.25" /><rect class="sym" height="6" width="6" x="-3" y="-3" /><text class="lab" transform="translate(0 11)">8</text></g><g class="a18 c2 node n10 p0" transform="translate(-11.25 53.5266)"><g class="a10 leaf node n3 p0 sample" transform="translate(-7.5 0.348208)"><path class="edge" d="M 0 0 V -0.348208 H 7.5" /><rect class="sym" height="6" width="6" x="-3" y="-3" /><text class="lab" transform="translate(0 11)">3</text></g><g class="a10 leaf node n4 p0 sample" transform="translate(7.5 0.348208)"><path class="edge" d="M 0 0 V -0.348208 H -7.5" /><rect class="sym" height="6" width="6" x="-3" y="-3" /><text class="lab" transform="translate(0 11)">4</text></g><path class="edge" d="M 0 0 V -53.5266 H 11.25" /><circle class="sym" cx="0" cy="0" r="3" /><text class="lab lft" transform="translate(-3 -7.0)">10</text></g><path class="edge" d="M 0 0 V -18.2582 H -28.125" /><circle class="sym" cx="0" cy="0" r="3" /><text class="lab rgt" transform="translate(3 -7.0)">18</text></g><path class="edge" d="M 0 0 V -22.4669 H 36.5625" /><circle class="sym" cx="0" cy="0" r="3" /><text class="lab lft" transform="translate(-3 -7.0)">22</text></g><g class="a27 c2 node n26 p0" transform="translate(36.5625 12.5287)"><g class="a26 c1 node n23 p0" transform="translate(-11.25 9.65841)"><g class="a23 c2 node n11 p0" transform="translate(0.0 61.5345)"><g class="a11 leaf node n1 p0 sample" transform="translate(-7.5 10.8784)"><path class="edge" d="M 0 0 V -10.8784 H 7.5" /><rect class="sym" height="6" width="6" x="-3" y="-3" /><text class="lab" transform="translate(0 11)">1</text></g><g class="a11 leaf node n5 p0 sample" transform="translate(7.5 10.8784)"><path class="edge" d="M 0 0 V -10.8784 H -7.5" /><rect class="sym" height="6" width="6" x="-3" y="-3" /><text class="lab" transform="translate(0 11)">5</text></g><path class="edge" d="M 0 0 V -61.5345 H 0.0" /><circle class="sym" cx="0" cy="0" r="3" /><text class="lab lft" transform="translate(-3 -7.0)">11</text></g><path class="edge" d="M 0 0 V -9.65841 H 11.25" /><circle class="sym" cx="0" cy="0" r="3" /><text class="lab lft" transform="translate(-3 -7.0)">23</text></g><g class="a26 c1 node n25 p0" transform="translate(11.25 1.68669)"><g class="a25 c1 node n21 p0" transform="translate(0.0 20.2479)"><g class="a21 c1 node n20 p0" transform="translate(0.0 6.03161)"><g class="a20 c1 node n14 p0" transform="translate(0.0 33.695)"><g class="a14 leaf node n7 p0 sample" transform="translate(0.0 20.4101)"><path class="edge" d="M 0 0 V -20.4101 H 0.0" /><rect class="sym" height="6" width="6" x="-3" y="-3" /><text class="lab" transform="translate(0 11)">7</text></g><path class="edge" d="M 0 0 V -33.695 H 0.0" /><circle class="sym" cx="0" cy="0" r="3" /><text class="lab lft" transform="translate(-3 -7.0)">14</text></g><path class="edge" d="M 0 0 V -6.03161 H 0.0" /><circle class="sym" cx="0" cy="0" r="3" /><text class="lab lft" transform="translate(-3 -7.0)">20</text></g><path class="edge" d="M 0 0 V -20.2479 H 0.0" /><circle class="sym" cx="0" cy="0" r="3" /><text class="lab lft" transform="translate(-3 -7.0)">21</text></g><path class="edge" d="M 0 0 V -1.68669 H -11.25" /><circle class="sym" cx="0" cy="0" r="3" /><text class="lab rgt" transform="translate(3 -7.0)">25</text></g><path class="edge" d="M 0 0 V -12.5287 H -36.5625" /><circle class="sym" cx="0" cy="0" r="3" /><text class="lab rgt" transform="translate(3 -7.0)">26</text></g><circle class="sym" cx="0" cy="0" r="3" /><text class="lab" transform="translate(0 -11)">27</text></g></g></g><g class="tree t3" transform="translate(590 0)"><g class="plotbox"><g class="c2 node n27 p0 root" transform="translate(114.688 26.8)"><g class="a27 c2 node n22 p0" transform="translate(-36.5625 22.4669)"><g class="a22 c1 node n17 p0" transform="translate(-28.125 33.0009)"><g class="a17 c2 node n16 p0" transform="translate(0.0 12.8308)"><g class="a16 c2 node n12 p0" transform="translate(-15 6.72773)"><g class="a12 leaf node n0 p0 sample" transform="translate(-7.5 19.5736)"><path class="edge" d="M 0 0 V -19.5736 H 7.5" /><rect class="sym" height="6" width="6" x="-3" y="-3" /><text class="lab" transform="translate(0 11)">0</text></g><g class="a12 leaf node n6 p0 sample" transform="translate(7.5 19.5736)"><path class="edge" d="M 0 0 V -19.5736 H -7.5" /><rect class="sym" height="6" width="6" x="-3" y="-3" /><text class="lab" transform="translate(0 11)">6</text></g><path class="edge" d="M 0 0 V -6.72773 H 15" /><circle class="sym" cx="0" cy="0" r="3" /><text class="lab lft" transform="translate(-3 -7.0)">12</text></g><g class="a16 c2 node n15 p0" transform="translate(15 1.22433)"><g class="a15 leaf node n2 p0 sample" transform="translate(-7.5 25.077)"><path class="edge" d="M 0 0 V -25.077 H 7.5" /><rect class="sym" height="6" width="6" x="-3" y="-3" /><text class="lab" transform="translate(0 11)">2</text></g><g class="a15 leaf node n9 p0 sample" transform="translate(7.5 25.077)"><path class="edge" d="M 0 0 V -25.077 H -7.5" /><rect class="sym" height="6" width="6" x="-3" y="-3" /><text class="lab" transform="translate(0 11)">9</text></g><path class="edge" d="M 0 0 V -1.22433 H -15" /><circle class="sym" cx="0" cy="0" r="3" /><text class="lab rgt" transform="translate(3 -7.0)">15</text></g><path class="edge" d="M 0 0 V -12.8308 H 0.0" /><circle class="sym" cx="0" cy="0" r="3" /><text class="lab lft" transform="translate(-3 -7.0)">16</text></g><path class="edge" d="M 0 0 V -33.0009 H 28.125" /><circle class="sym" cx="0" cy="0" r="3" /><text class="lab lft" transform="translate(-3 -7.0)">17</text></g><g class="a22 c2 node n18 p0" transform="translate(28.125 18.2582)"><g class="a18 leaf node n8 p0 sample" transform="translate(11.25 53.8748)"><path class="edge" d="M 0 0 V -53.8748 H -11.25" /><rect class="sym" height="6" width="6" x="-3" y="-3" /><text class="lab" transform="translate(0 11)">8</text></g><g class="a18 c2 node n10 p0" transform="translate(-11.25 53.5266)"><g class="a10 leaf node n3 p0 sample" transform="translate(-7.5 0.348208)"><path class="edge" d="M 0 0 V -0.348208 H 7.5" /><rect class="sym" height="6" width="6" x="-3" y="-3" /><text class="lab" transform="translate(0 11)">3</text></g><g class="a10 leaf node n4 p0 sample" transform="translate(7.5 0.348208)"><path class="edge" d="M 0 0 V -0.348208 H -7.5" /><rect class="sym" height="6" width="6" x="-3" y="-3" /><text class="lab" transform="translate(0 11)">4</text></g><path class="edge" d="M 0 0 V -53.5266 H 11.25" /><circle class="sym" cx="0" cy="0" r="3" /><text class="lab lft" transform="translate(-3 -7.0)">10</text></g><path class="edge" d="M 0 0 V -18.2582 H -28.125" /><circle class="sym" cx="0" cy="0" r="3" /><text class="lab rgt" transform="translate(3 -7.0)">18</text></g><path class="edge" d="M 0 0 V -22.4669 H 36.5625" /><circle class="sym" cx="0" cy="0" r="3" /><text class="lab lft" transform="translate(-3 -7.0)">22</text></g><g class="a27 c1 node n26 p0" transform="translate(36.5625 12.5287)"><g class="a26 c2 node n25 p0" transform="translate(0.0 1.68669)"><g class="a25 c1 node n21 p0" transform="translate(11.25 20.2479)"><g class="a21 c1 node n20 p0" transform="translate(0.0 6.03161)"><g class="a20 c1 node n14 p0" transform="translate(0.0 33.695)"><g class="a14 leaf node n7 p0 sample" transform="translate(0.0 20.4101)"><path class="edge" d="M 0 0 V -20.4101 H 0.0" /><rect class="sym" height="6" width="6" x="-3" y="-3" /><text class="lab" transform="translate(0 11)">7</text></g><path class="edge" d="M 0 0 V -33.695 H 0.0" /><circle class="sym" cx="0" cy="0" r="3" /><text class="lab lft" transform="translate(-3 -7.0)">14</text></g><path class="edge" d="M 0 0 V -6.03161 H 0.0" /><circle class="sym" cx="0" cy="0" r="3" /><text class="lab lft" transform="translate(-3 -7.0)">20</text></g><path class="edge" d="M 0 0 V -20.2479 H -11.25" /><circle class="sym" cx="0" cy="0" r="3" /><text class="lab rgt" transform="translate(3 -7.0)">21</text></g><g class="a25 c1 node n24 p0" transform="translate(-11.25 7.97172)"><g class="a24 c2 node n11 p0" transform="translate(0.0 61.5345)"><g class="a11 leaf node n1 p0 sample" transform="translate(-7.5 10.8784)"><path class="edge" d="M 0 0 V -10.8784 H 7.5" /><rect class="sym" height="6" width="6" x="-3" y="-3" /><text class="lab" transform="translate(0 11)">1</text></g><g class="a11 leaf node n5 p0 sample" transform="translate(7.5 10.8784)"><path class="edge" d="M 0 0 V -10.8784 H -7.5" /><rect class="sym" height="6" width="6" x="-3" y="-3" /><text class="lab" transform="translate(0 11)">5</text></g><path class="edge" d="M 0 0 V -61.5345 H 0.0" /><circle class="sym" cx="0" cy="0" r="3" /><text class="lab lft" transform="translate(-3 -7.0)">11</text></g><path class="edge" d="M 0 0 V -7.97172 H 11.25" /><circle class="sym" cx="0" cy="0" r="3" /><text class="lab lft" transform="translate(-3 -7.0)">24</text></g><path class="edge" d="M 0 0 V -1.68669 H 0.0" /><circle class="sym" cx="0" cy="0" r="3" /><text class="lab lft" transform="translate(-3 -7.0)">25</text></g><path class="edge" d="M 0 0 V -12.5287 H -36.5625" /><circle class="sym" cx="0" cy="0" r="3" /><text class="lab rgt" transform="translate(3 -7.0)">26</text></g><circle class="sym" cx="0" cy="0" r="3" /><text class="lab" transform="translate(0 -11)">27</text></g></g></g></g></g></svg>
