<svg baseProfile="full" height="200" version="1.1" width="1000" xmlns="http://www.w3.org/2000/svg" xmlns:ev="http://www.w3.org/2001/xml-events" xmlns:xlink="http://www.w3.org/1999/xlink"><defs><style type="text/css"><![CDATA[.background path {fill: #808080; fill-opacity: 0}.background path:nth-child(odd) {fill-opacity: .1}.axes {font-size: 14px}.x-axis .tick .lab {font-weight: bold; dominant-baseline: hanging}.axes, .tree {font-size: 14px; text-anchor: middle}.axes line, .edge {stroke: black; fill: none}.y-axis .grid {stroke: #FAFAFA}.node > .sym {fill: black; stroke: none}.site > .sym {stroke: black}.mut text {fill: red; font-style: italic}.mut.extra text {fill: hotpink}.mut line {fill: none; stroke: none}.mut .sym {fill: none; stroke: red}.mut.extra .sym {stroke: hotpink}.node .mut .sym {stroke-width: 1.5px}.tree text, .tree-sequence text {dominant-baseline: central}.plotbox .lab.lft {text-anchor: end}.plotbox .lab.rgt {text-anchor: start}]]></style></defs><g class="tree-sequence"><g class="background"><path d="M20,0 l192,0 l0,138.2 l-125.451,25 l0,5 l-66.5486,0 l0,-5 l0,-25 l0,-138.2z" /><path d="M212,0 l192,0 l0,138.2 l109.298,25 l0,5 l-426.749,0 l0,-5 l125.451,-25 l0,-138.2z" /><path d="M404,0 l192,0 l0,138.2 l-35.8046,25 l0,5 l-46.8975,0 l0,-5 l-109.298,-25 l0,-138.2z" /><path d="M596,0 l192,0 l0,138.2 l-103.731,25 l0,5 l-124.074,0 l0,-5 l35.8046,-25 l0,-138.2z" /><path d="M788,0 l192,0 l0,138.2 l0,25 l0,5 l-295.731,0 l0,-5 l103.731,-25 l0,-138.2z" /></g><g class="axes"><g class="x-axis"><g transform="translate(500 200)"><text class="lab" text-anchor="middle" transform="translate(0 -11)">Genome position</text></g><line x1="20" x2="980" y1="163.2" y2="163.2" /><g class="ticks"><g class="tick" transform="translate(20 163.2)"><line x1="0" x2="0" y1="0" y2="5" /><g transform="translate(0 6)"><text class="lab">0.00</text></g></g><g class="tick" transform="translate(86.5486 163.2)"><line x1="0" x2="0" y1="0" y2="5" /><g transform="translate(0 6)"><text class="lab">69.32</text></g></g><g class="tick" transform="translate(513.298 163.2)"><line x1="0" x2="0" y1="0" y2="5" /><g transform="translate(0 6)"><text class="lab">513.85</text></g></g><g class="tick" transform="translate(560.195 163.2)"><line x1="0" x2="0" y1="0" y2="5" /><g transform="translate(0 6)"><text class="lab">562.70</text></g></g><g class="tick" transform="translate(684.269 163.2)"><line x1="0" x2="0" y1="0" y2="5" /><g transform="translate(0 6)"><text class="lab">691.95</text></g></g><g class="tick" transform="translate(980 163.2)"><line x1="0" x2="0" y1="0" y2="5" /><g transform="translate(0 6)"><text class="lab">1000.00</text></g></g></g></g></g><g class="plotbox trees"><g class="tree t0" transform="translate(20 0)"><g class="plotbox"><g class="c2 node n30 p0 root" transform="translate(121.175 26.8)"><g class="a30 c1 node n19 p0" transform="translate(35.625 71.1637)"><g class="a19 c2 node n14 p0" transform="translate(0.0 10.7508)"><g class="a14 leaf node n2 p0 sample" transform="translate(-7.6 12.6854)"><path class="edge" d="M 0 0 V -12.6854 H 7.6" /><rect class="sym" height="6" width="6" x="-3" y="-3" /><text class="lab" transform="translate(0 11)">2</text></g><g class="a14 leaf node n4 p0 sample" transform="translate(7.6 12.6854)"><path class="edge" d="M 0 0 V -12.6854 H -7.6" /><rect class="sym" height="6" width="6" x="-3" y="-3" /><text class="lab" transform="translate(0 11)">4</text></g><path class="edge" d="M 0 0 V -10.7508 H 0.0" /><circle class="sym" cx="0" cy="0" r="3" /><text class="lab lft" transform="translate(-3 -7.0)">14</text></g><path class="edge" d="M 0 0 V -71.1637 H -35.625" /><circle class="sym" cx="0" cy="0" r="3" /><text class="lab rgt" transform="translate(3 -7.0)">19</text></g><g class="a30 c1 node n29 p0" transform="translate(-35.625 25.0296)"><g class="a29 c2 node n28 p0" transform="translate(0.0 1.91648)"><g class="a28 c2 node n23 p0" transform="translate(35.15 37.7233)"><g class="a23 c1 node n11 p0" transform="translate(13.3 20.6488)"><g class="a11 leaf node n6 p0 sample" transform="translate(0.0 9.28186)"><path class="edge" d="M 0 0 V -9.28186 H 0.0" /><rect class="sym" height="6" width="6" x="-3" y="-3" /><text class="lab" transform="translate(0 11)">6</text></g><path class="edge" d="M 0 0 V -20.6488 H -13.3" /><circle class="sym" cx="0" cy="0" r="3" /><text class="lab rgt" transform="translate(3 -7.0)">11</text></g><g class="a23 c1 node n21 p0" transform="translate(-13.3 0.0778194)"><g class="a21 c2 node n13 p0" transform="translate(0.0 18.7948)"><g class="a13 leaf node n3 p0 sample" transform="translate(11.4 11.0581)"><path class="edge" d="M 0 0 V -11.0581 H -11.4" /><rect class="sym" height="6" width="6" x="-3" y="-3" /><text class="lab" transform="translate(0 11)">3</text></g><g class="a13 c2 node n10 p0" transform="translate(-11.4 7.75192)"><g class="a10 leaf node n1 p0 sample" transform="translate(-7.6 3.30619)"><path class="edge" d="M 0 0 V -3.30619 H 7.6" /><rect class="sym" height="6" width="6" x="-3" y="-3" /><text class="lab" transform="translate(0 11)">1</text></g><g class="a10 leaf node n7 p0 sample" transform="translate(7.6 3.30619)"><path class="edge" d="M 0 0 V -3.30619 H -7.6" /><rect class="sym" height="6" width="6" x="-3" y="-3" /><text class="lab" transform="translate(0 11)">7</text></g><path class="edge" d="M 0 0 V -7.75192 H 11.4" /><circle class="sym" cx="0" cy="0" r="3" /><text class="lab lft" transform="translate(-3 -7.0)">10</text></g><path class="edge" d="M 0 0 V -18.7948 H 0.0" /><circle class="sym" cx="0" cy="0" r="3" /><text class="lab lft" transform="translate(-3 -7.0)">13</text></g><path class="edge" d="M 0 0 V -0.0778194 H 13.3" /><circle class="sym" cx="0" cy="0" r="3" /><text class="lab lft" transform="translate(-3 -7.0)">21</text></g><path class="edge" d="M 0 0 V -37.7233 H -35.15" /><circle class="sym" cx="0" cy="0" r="3" /><text class="lab rgt" transform="translate(3 -7.0)">23</text></g><g class="a28 c1 node n27 p0" transform="translate(-35.15 3.01354)"><g class="a27 c1 node n26 p0" transform="translate(0.0 0.705142)"><g class="a26 c2 node n20 p0" transform="translate(0.0 37.2172)"><g class="a20 c2 node n17 p0" transform="translate(-15.2 12.7312)"><g class="a17 leaf node n0 p0 sample" transform="translate(-7.6 13.9869)"><path class="edge" d="M 0 0 V -13.9869 H 7.6" /><rect class="sym" height="6" width="6" x="-3" y="-3" /><text class="lab" transform="translate(0 11)">0</text></g><g class="a17 leaf node n5 p0 sample" transform="translate(7.6 13.9869)"><path class="edge" d="M 0 0 V -13.9869 H -7.6" /><rect class="sym" height="6" width="6" x="-3" y="-3" /><text class="lab" transform="translate(0 11)">5</text></g><path class="edge" d="M 0 0 V -12.7312 H 15.2" /><circle class="sym" cx="0" cy="0" r="3" /><text class="lab lft" transform="translate(-3 -7.0)">17</text></g><g class="a20 c2 node n18 p0" transform="translate(15.2 5.08482)"><g class="a18 leaf node n9 p0 sample" transform="translate(7.6 21.6333)"><path class="edge" d="M 0 0 V -21.6333 H -7.6" /><rect class="sym" height="6" width="6" x="-3" y="-3" /><text class="lab" transform="translate(0 11)">9</text></g><g class="a18 c1 node n15 p0" transform="translate(-7.6 8.46829)"><g class="a15 leaf node n8 p0 sample" transform="translate(0.0 13.165)"><path class="edge" d="M 0 0 V -13.165 H 0.0" /><rect class="sym" height="6" width="6" x="-3" y="-3" /><text class="lab" transform="translate(0 11)">8</text></g><path class="edge" d="M 0 0 V -8.46829 H 7.6" /><circle class="sym" cx="0" cy="0" r="3" /><text class="lab lft" transform="translate(-3 -7.0)">15</text></g><path class="edge" d="M 0 0 V -5.08482 H -15.2" /><circle class="sym" cx="0" cy="0" r="3" /><text class="lab rgt" transform="translate(3 -7.0)">18</text></g><path class="edge" d="M 0 0 V -37.2172 H 0.0" /><circle class="sym" cx="0" cy="0" r="3" /><text class="lab lft" transform="translate(-3 -7.0)">20</text></g><path class="edge" d="M 0 0 V -0.705142 H 0.0" /><circle class="sym" cx="0" cy="0" r="3" /><text class="lab lft" transform="translate(-3 -7.0)">26</text></g><path class="edge" d="M 0 0 V -3.01354 H 35.15" /><circle class="sym" cx="0" cy="0" r="3" /><text class="lab lft" transform="translate(-3 -7.0)">27</text></g><path class="edge" d="M 0 0 V -1.91648 H 0.0" /><circle class="sym" cx="0" cy="0" r="3" /><text class="lab lft" transform="translate(-3 -7.0)">28</text></g><path class="edge" d="M 0 0 V -25.0296 H 35.625" /><circle class="sym" cx="0" cy="0" r="3" /><text class="lab lft" transform="translate(-3 -7.0)">29</text></g><circle class="sym" cx="0" cy="0" r="3" /><text class="lab" transform="translate(0 -11)">30</text></g></g></g><g class="tree t1" transform="translate(212 0)"><g class="plotbox"><g class="c2 node n30 p0 root" transform="translate(114.525 26.8)"><g class="a30 c2 node n19 p0" transform="translate(38.475 71.1637)"><g class="a19 c2 node n14 p0" transform="translate(-11.4 10.7508)"><g class="a14 leaf node n2 p0 sample" transform="translate(-7.6 12.6854)"><path class="edge" d="M 0 0 V -12.6854 H 7.6" /><rect class="sym" height="6" width="6" x="-3" y="-3" /><text class="lab" transform="translate(0 11)">2</text></g><g class="a14 leaf node n4 p0 sample" transform="translate(7.6 12.6854)"><path class="edge" d="M 0 0 V -12.6854 H -7.6" /><rect class="sym" height="6" width="6" x="-3" y="-3" /><text class="lab" transform="translate(0 11)">4</text></g><path class="edge" d="M 0 0 V -10.7508 H 11.4" /><circle class="sym" cx="0" cy="0" r="3" /><text class="lab lft" transform="translate(-3 -7.0)">14</text></g><g class="a19 c1 node n16 p0" transform="translate(11.4 10.2713)"><g class="a16 leaf node n8 p0 sample" transform="translate(0.0 13.165)"><path class="edge" d="M 0 0 V -13.165 H 0.0" /><rect class="sym" height="6" width="6" x="-3" y="-3" /><text class="lab" transform="translate(0 11)">8</text></g><path class="edge" d="M 0 0 V -10.2713 H -11.4" /><circle class="sym" cx="0" cy="0" r="3" /><text class="lab rgt" transform="translate(3 -7.0)">16</text></g><path class="edge" d="M 0 0 V -71.1637 H -38.475" /><circle class="sym" cx="0" cy="0" r="3" /><text class="lab rgt" transform="translate(3 -7.0)">19</text></g><g class="a30 c1 node n29 p0" transform="translate(-38.475 25.0296)"><g class="a29 c2 node n28 p0" transform="translate(0.0 1.91648)"><g class="a28 c2 node n23 p0" transform="translate(29.45 37.7233)"><g class="a23 c1 node n11 p0" transform="translate(13.3 20.6488)"><g class="a11 leaf node n6 p0 sample" transform="translate(0.0 9.28186)"><path class="edge" d="M 0 0 V -9.28186 H 0.0" /><rect class="sym" height="6" width="6" x="-3" y="-3" /><text class="lab" transform="translate(0 11)">6</text></g><path class="edge" d="M 0 0 V -20.6488 H -13.3" /><circle class="sym" cx="0" cy="0" r="3" /><text class="lab rgt" transform="translate(3 -7.0)">11</text></g><g class="a23 c1 node n21 p0" transform="translate(-13.3 0.0778194)"><g class="a21 c2 node n13 p0" transform="translate(0.0 18.7948)"><g class="a13 leaf node n3 p0 sample" transform="translate(11.4 11.0581)"><path class="edge" d="M 0 0 V -11.0581 H -11.4" /><rect class="sym" height="6" width="6" x="-3" y="-3" /><text class="lab" transform="translate(0 11)">3</text></g><g class="a13 c2 node n10 p0" transform="translate(-11.4 7.75192)"><g class="a10 leaf node n1 p0 sample" transform="translate(-7.6 3.30619)"><path class="edge" d="M 0 0 V -3.30619 H 7.6" /><rect class="sym" height="6" width="6" x="-3" y="-3" /><text class="lab" transform="translate(0 11)">1</text></g><g class="a10 leaf node n7 p0 sample" transform="translate(7.6 3.30619)"><path class="edge" d="M 0 0 V -3.30619 H -7.6" /><rect class="sym" height="6" width="6" x="-3" y="-3" /><text class="lab" transform="translate(0 11)">7</text></g><path class="edge" d="M 0 0 V -7.75192 H 11.4" /><circle class="sym" cx="0" cy="0" r="3" /><text class="lab lft" transform="translate(-3 -7.0)">10</text></g><path class="edge" d="M 0 0 V -18.7948 H 0.0" /><circle class="sym" cx="0" cy="0" r="3" /><text class="lab lft" transform="translate(-3 -7.0)">13</text></g><path class="edge" d="M 0 0 V -0.0778194 H 13.3" /><circle class="sym" cx="0" cy="0" r="3" /><text class="lab lft" transform="translate(-3 -7.0)">21</text></g><path class="edge" d="M 0 0 V -37.7233 H -29.45" /><circle class="sym" cx="0" cy="0" r="3" /><text class="lab rgt" transform="translate(3 -7.0)">23</text></g><g class="a28 c1 node n27 p0" transform="translate(-29.45 3.01354)"><g class="a27 c1 node n26 p0" transform="translate(0.0 0.705142)"><g class="a26 c2 node n20 p0" transform="translate(0.0 37.2172)"><g class="a20 c2 node n17 p0" transform="translate(-11.4 12.7312)"><g class="a17 leaf node n0 p0 sample" transform="translate(-7.6 13.9869)"><path class="edge" d="M 0 0 V -13.9869 H 7.6" /><rect class="sym" height="6" width="6" x="-3" y="-3" /><text class="lab" transform="translate(0 11)">0</text></g><g class="a17 leaf node n5 p0 sample" transform="translate(7.6 13.9869)"><path class="edge" d="M 0 0 V -13.9869 H -7.6" /><rect class="sym" height="6" width="6" x="-3" y="-3" /><text class="lab" transform="translate(0 11)">5</text></g><path class="edge" d="M 0 0 V -12.7312 H 11.4" /><circle class="sym" cx="0" cy="0" r="3" /><text class="lab lft" transform="translate(-3 -7.0)">17</text></g><g class="a20 c1 node n18 p0" transform="translate(11.4 5.08482)"><g class="a18 leaf node n9 p0 sample" transform="translate(0.0 21.6333)"><path class="edge" d="M 0 0 V -21.6333 H 0.0" /><rect class="sym" height="6" width="6" x="-3" y="-3" /><text class="lab" transform="translate(0 11)">9</text></g><path class="edge" d="M 0 0 V -5.08482 H -11.4" /><circle class="sym" cx="0" cy="0" r="3" /><text class="lab rgt" transform="translate(3 -7.0)">18</text></g><path class="edge" d="M 0 0 V -37.2172 H 0.0" /><circle class="sym" cx="0" cy="0" r="3" /><text class="lab lft" transform="translate(-3 -7.0)">20</text></g><path class="edge" d="M 0 0 V -0.705142 H 0.0" /><circle class="sym" cx="0" cy="0" r="3" /><text class="lab lft" transform="translate(-3 -7.0)">26</text></g><path class="edge" d="M 0 0 V -3.01354 H 29.45" /><circle class="sym" cx="0" cy="0" r="3" /><text class="lab lft" transform="translate(-3 -7.0)">27</text></g><path class="edge" d="M 0 0 V -1.91648 H 0.0" /><circle class="sym" cx="0" cy="0" r="3" /><text class="lab lft" transform="translate(-3 -7.0)">28</text></g><path class="edge" d="M 0 0 V -25.0296 H 38.475" /><circle class="sym" cx="0" cy="0" r="3" /><text class="lab lft" transform="translate(-3 -7.0)">29</text></g><circle class="sym" cx="0" cy="0" r="3" /><text class="lab" transform="translate(0 -11)">30</text></g></g></g><g class="tree t2" transform="translate(404 0)"><g class="plotbox"><g class="c2 node n30 p0 root" transform="translate(118.325 26.8)"><g class="a30 c2 node n19 p0" transform="translate(34.675 71.1637)"><g class="a19 c2 node n14 p0" transform="translate(-11.4 10.7508)"><g class="a14 leaf node n2 p0 sample" transform="translate(-7.6 12.6854)"><path class="edge" d="M 0 0 V -12.6854 H 7.6" /><rect class="sym" height="6" width="6" x="-3" y="-3" /><text class="lab" transform="translate(0 11)">2</text></g><g class="a14 leaf node n4 p0 sample" transform="translate(7.6 12.6854)"><path class="edge" d="M 0 0 V -12.6854 H -7.6" /><rect class="sym" height="6" width="6" x="-3" y="-3" /><text class="lab" transform="translate(0 11)">4</text></g><path class="edge" d="M 0 0 V -10.7508 H 11.4" /><circle class="sym" cx="0" cy="0" r="3" /><text class="lab lft" transform="translate(-3 -7.0)">14</text></g><g class="a19 c1 node n16 p0" transform="translate(11.4 10.2713)"><g class="a16 leaf node n8 p0 sample" transform="translate(0.0 13.165)"><path class="edge" d="M 0 0 V -13.165 H 0.0" /><rect class="sym" height="6" width="6" x="-3" y="-3" /><text class="lab" transform="translate(0 11)">8</text></g><path class="edge" d="M 0 0 V -10.2713 H -11.4" /><circle class="sym" cx="0" cy="0" r="3" /><text class="lab rgt" transform="translate(3 -7.0)">16</text></g><path class="edge" d="M 0 0 V -71.1637 H -34.675" /><circle class="sym" cx="0" cy="0" r="3" /><text class="lab rgt" transform="translate(3 -7.0)">19</text></g><g class="a30 c1 node n29 p0" transform="translate(-34.675 25.0296)"><g class="a29 c2 node n28 p0" transform="translate(0.0 1.91648)"><g class="a28 c1 node n23 p0" transform="translate(23.75 37.7233)"><g class="a23 c1 node n21 p0" transform="translate(0.0 0.0778194)"><g class="a21 c2 node n13 p0" transform="translate(0.0 18.7948)"><g class="a13 leaf node n3 p0 sample" transform="translate(11.4 11.0581)"><path class="edge" d="M 0 0 V -11.0581 H -11.4" /><rect class="sym" height="6" width="6" x="-3" y="-3" /><text class="lab" transform="translate(0 11)">3</text></g><g class="a13 c2 node n10 p0" transform="translate(-11.4 7.75192)"><g class="a10 leaf node n1 p0 sample" transform="translate(-7.6 3.30619)"><path class="edge" d="M 0 0 V -3.30619 H 7.6" /><rect class="sym" height="6" width="6" x="-3" y="-3" /><text class="lab" transform="translate(0 11)">1</text></g><g class="a10 leaf node n7 p0 sample" transform="translate(7.6 3.30619)"><path class="edge" d="M 0 0 V -3.30619 H -7.6" /><rect class="sym" height="6" width="6" x="-3" y="-3" /><text class="lab" transform="translate(0 11)">7</text></g><path class="edge" d="M 0 0 V -7.75192 H 11.4" /><circle class="sym" cx="0" cy="0" r="3" /><text class="lab lft" transform="translate(-3 -7.0)">10</text></g><path class="edge" d="M 0 0 V -18.7948 H 0.0" /><circle class="sym" cx="0" cy="0" r="3" /><text class="lab lft" transform="translate(-3 -7.0)">13</text></g><path class="edge" d="M 0 0 V -0.0778194 H 0.0" /><circle class="sym" cx="0" cy="0" r="3" /><text class="lab lft" transform="translate(-3 -7.0)">21</text></g><path class="edge" d="M 0 0 V -37.7233 H -23.75" /><circle class="sym" cx="0" cy="0" r="3" /><text class="lab rgt" transform="translate(3 -7.0)">23</text></g><g class="a28 c1 node n27 p0" transform="translate(-23.75 3.01354)"><g class="a27 c2 node n26 p0" transform="translate(0.0 0.705142)"><g class="a26 c2 node n20 p0" transform="translate(-13.3 37.2172)"><g class="a20 c2 node n17 p0" transform="translate(-11.4 12.7312)"><g class="a17 leaf node n0 p0 sample" transform="translate(-7.6 13.9869)"><path class="edge" d="M 0 0 V -13.9869 H 7.6" /><rect class="sym" height="6" width="6" x="-3" y="-3" /><text class="lab" transform="translate(0 11)">0</text></g><g class="a17 leaf node n5 p0 sample" transform="translate(7.6 13.9869)"><path class="edge" d="M 0 0 V -13.9869 H -7.6" /><rect class="sym" height="6" width="6" x="-3" y="-3" /><text class="lab" transform="translate(0 11)">5</text></g><path class="edge" d="M 0 0 V -12.7312 H 11.4" /><circle class="sym" cx="0" cy="0" r="3" /><text class="lab lft" transform="translate(-3 -7.0)">17</text></g><g class="a20 c1 node n18 p0" transform="translate(11.4 5.08482)"><g class="a18 leaf node n9 p0 sample" transform="translate(0.0 21.6333)"><path class="edge" d="M 0 0 V -21.6333 H 0.0" /><rect class="sym" height="6" width="6" x="-3" y="-3" /><text class="lab" transform="translate(0 11)">9</text></g><path class="edge" d="M 0 0 V -5.08482 H -11.4" /><circle class="sym" cx="0" cy="0" r="3" /><text class="lab rgt" transform="translate(3 -7.0)">18</text></g><path class="edge" d="M 0 0 V -37.2172 H 13.3" /><circle class="sym" cx="0" cy="0" r="3" /><text class="lab lft" transform="translate(-3 -7.0)">20</text></g><g class="a26 c1 node n24 p0" transform="translate(13.3 2.35152)"><g class="a24 c1 node n12 p0" transform="translate(0.0 52.3019)"><g class="a12 leaf node n6 p0 sample" transform="translate(0.0 9.28186)"><path class="edge" d="M 0 0 V -9.28186 H 0.0" /><rect class="sym" height="6" width="6" x="-3" y="-3" /><text class="lab" transform="translate(0 11)">6</text></g><path class="edge" d="M 0 0 V -52.3019 H 0.0" /><circle class="sym" cx="0" cy="0" r="3" /><text class="lab lft" transform="translate(-3 -7.0)">12</text></g><path class="edge" d="M 0 0 V -2.35152 H -13.3" /><circle class="sym" cx="0" cy="0" r="3" /><text class="lab rgt" transform="translate(3 -7.0)">24</text></g><path class="edge" d="M 0 0 V -0.705142 H 0.0" /><circle class="sym" cx="0" cy="0" r="3" /><text class="lab lft" transform="translate(-3 -7.0)">26</text></g><path class="edge" d="M 0 0 V -3.01354 H 23.75" /><circle class="sym" cx="0" cy="0" r="3" /><text class="lab lft" transform="translate(-3 -7.0)">27</text></g><path class="edge" d="M 0 0 V -1.91648 H 0.0" /><circle class="sym" cx="0" cy="0" r="3" /><text class="lab lft" transform="translate(-3 -7.0)">28</text></g><path class="edge" d="M 0 0 V -25.0296 H 34.675" /><circle class="sym" cx="0" cy="0" r="3" /><text class="lab lft" transform="translate(-3 -7.0)">29</text></g><circle class="sym" cx="0" cy="0" r="3" /><text class="lab" transform="translate(0 -11)">30</text></g></g></g><g class="tree t3" transform="translate(596 0)"><g class="plotbox"><g class="c2 node n30 p0 root" transform="translate(123.55 26.8)"><g class="a30 c2 node n19 p0" transform="translate(29.45 71.1637)"><g class="a19 c2 node n14 p0" transform="translate(-11.4 10.7508)"><g class="a14 leaf node n2 p0 sample" transform="translate(-7.6 12.6854)"><path class="edge" d="M 0 0 V -12.6854 H 7.6" /><rect class="sym" height="6" width="6" x="-3" y="-3" /><text class="lab" transform="translate(0 11)">2</text></g><g class="a14 leaf node n4 p0 sample" transform="translate(7.6 12.6854)"><path class="edge" d="M 0 0 V -12.6854 H -7.6" /><rect class="sym" height="6" width="6" x="-3" y="-3" /><text class="lab" transform="translate(0 11)">4</text></g><path class="edge" d="M 0 0 V -10.7508 H 11.4" /><circle class="sym" cx="0" cy="0" r="3" /><text class="lab lft" transform="translate(-3 -7.0)">14</text></g><g class="a19 c1 node n16 p0" transform="translate(11.4 10.2713)"><g class="a16 leaf node n8 p0 sample" transform="translate(0.0 13.165)"><path class="edge" d="M 0 0 V -13.165 H 0.0" /><rect class="sym" height="6" width="6" x="-3" y="-3" /><text class="lab" transform="translate(0 11)">8</text></g><path class="edge" d="M 0 0 V -10.2713 H -11.4" /><circle class="sym" cx="0" cy="0" r="3" /><text class="lab rgt" transform="translate(3 -7.0)">16</text></g><path class="edge" d="M 0 0 V -71.1637 H -29.45" /><circle class="sym" cx="0" cy="0" r="3" /><text class="lab rgt" transform="translate(3 -7.0)">19</text></g><g class="a30 c2 node n29 p0" transform="translate(-29.45 25.0296)"><g class="a29 c2 node n28 p0" transform="translate(-24.7 1.91648)"><g class="a28 c1 node n23 p0" transform="translate(22.8 37.7233)"><g class="a23 c1 node n21 p0" transform="translate(0.0 0.0778194)"><g class="a21 c2 node n13 p0" transform="translate(0.0 18.7948)"><g class="a13 leaf node n3 p0 sample" transform="translate(11.4 11.0581)"><path class="edge" d="M 0 0 V -11.0581 H -11.4" /><rect class="sym" height="6" width="6" x="-3" y="-3" /><text class="lab" transform="translate(0 11)">3</text></g><g class="a13 c2 node n10 p0" transform="translate(-11.4 7.75192)"><g class="a10 leaf node n1 p0 sample" transform="translate(-7.6 3.30619)"><path class="edge" d="M 0 0 V -3.30619 H 7.6" /><rect class="sym" height="6" width="6" x="-3" y="-3" /><text class="lab" transform="translate(0 11)">1</text></g><g class="a10 leaf node n7 p0 sample" transform="translate(7.6 3.30619)"><path class="edge" d="M 0 0 V -3.30619 H -7.6" /><rect class="sym" height="6" width="6" x="-3" y="-3" /><text class="lab" transform="translate(0 11)">7</text></g><path class="edge" d="M 0 0 V -7.75192 H 11.4" /><circle class="sym" cx="0" cy="0" r="3" /><text class="lab lft" transform="translate(-3 -7.0)">10</text></g><path class="edge" d="M 0 0 V -18.7948 H 0.0" /><circle class="sym" cx="0" cy="0" r="3" /><text class="lab lft" transform="translate(-3 -7.0)">13</text></g><path class="edge" d="M 0 0 V -0.0778194 H 0.0" /><circle class="sym" cx="0" cy="0" r="3" /><text class="lab lft" transform="translate(-3 -7.0)">21</text></g><path class="edge" d="M 0 0 V -37.7233 H -22.8" /><circle class="sym" cx="0" cy="0" r="3" /><text class="lab rgt" transform="translate(3 -7.0)">23</text></g><g class="a28 c1 node n27 p0" transform="translate(-22.8 3.01354)"><g class="a27 c1 node n26 p0" transform="translate(0.0 0.705142)"><g class="a26 c2 node n20 p0" transform="translate(0.0 37.2172)"><g class="a20 c2 node n17 p0" transform="translate(-11.4 12.7312)"><g class="a17 leaf node n0 p0 sample" transform="translate(-7.6 13.9869)"><path class="edge" d="M 0 0 V -13.9869 H 7.6" /><rect class="sym" height="6" width="6" x="-3" y="-3" /><text class="lab" transform="translate(0 11)">0</text></g><g class="a17 leaf node n5 p0 sample" transform="translate(7.6 13.9869)"><path class="edge" d="M 0 0 V -13.9869 H -7.6" /><rect class="sym" height="6" width="6" x="-3" y="-3" /><text class="lab" transform="translate(0 11)">5</text></g><path class="edge" d="M 0 0 V -12.7312 H 11.4" /><circle class="sym" cx="0" cy="0" r="3" /><text class="lab lft" transform="translate(-3 -7.0)">17</text></g><g class="a20 c1 node n18 p0" transform="translate(11.4 5.08482)"><g class="a18 leaf node n9 p0 sample" transform="translate(0.0 21.6333)"><path class="edge" d="M 0 0 V -21.6333 H 0.0" /><rect class="sym" height="6" width="6" x="-3" y="-3" /><text class="lab" transform="translate(0 11)">9</text></g><path class="edge" d="M 0 0 V -5.08482 H -11.4" /><circle class="sym" cx="0" cy="0" r="3" /><text class="lab rgt" transform="translate(3 -7.0)">18</text></g><path class="edge" d="M 0 0 V -37.2172 H 0.0" /><circle class="sym" cx="0" cy="0" r="3" /><text class="lab lft" transform="translate(-3 -7.0)">20</text></g><path class="edge" d="M 0 0 V -0.705142 H 0.0" /><circle class="sym" cx="0" cy="0" r="3" /><text class="lab lft" transform="translate(-3 -7.0)">26</text></g><path class="edge" d="M 0 0 V -3.01354 H 22.8" /><circle class="sym" cx="0" cy="0" r="3" /><text class="lab lft" transform="translate(-3 -7.0)">27</text></g><path class="edge" d="M 0 0 V -1.91648 H 24.7" /><circle class="sym" cx="0" cy="0" r="3" /><text class="lab lft" transform="translate(-3 -7.0)">28</text></g><g class="a29 c1 node n25 p0" transform="translate(24.7 7.98669)"><g class="a25 c1 node n12 p0" transform="translate(0.0 52.3019)"><g class="a12 leaf node n6 p0 sample" transform="translate(0.0 9.28186)"><path class="edge" d="M 0 0 V -9.28186 H 0.0" /><rect class="sym" height="6" width="6" x="-3" y="-3" /><text class="lab" transform="translate(0 11)">6</text></g><path class="edge" d="M 0 0 V -52.3019 H 0.0" /><circle class="sym" cx="0" cy="0" r="3" /><text class="lab lft" transform="translate(-3 -7.0)">12</text></g><path class="edge" d="M 0 0 V -7.98669 H -24.7" /><circle class="sym" cx="0" cy="0" r="3" /><text class="lab rgt" transform="translate(3 -7.0)">25</text></g><path class="edge" d="M 0 0 V -25.0296 H 29.45" /><circle class="sym" cx="0" cy="0" r="3" /><text class="lab lft" transform="translate(-3 -7.0)">29</text></g><circle class="sym" cx="0" cy="0" r="3" /><text class="lab" transform="translate(0 -11)">30</text></g></g></g><g class="tree t4" transform="translate(788 0)"><g class="plotbox"><g class="c2 node n30 p0 root" transform="translate(123.55 26.8)"><g class="a30 c2 node n19 p0" transform="translate(29.45 71.1637)"><g class="a19 c2 node n14 p0" transform="translate(-11.4 10.7508)"><g class="a14 leaf node n2 p0 sample" transform="translate(-7.6 12.6854)"><path class="edge" d="M 0 0 V -12.6854 H 7.6" /><rect class="sym" height="6" width="6" x="-3" y="-3" /><text class="lab" transform="translate(0 11)">2</text></g><g class="a14 leaf node n4 p0 sample" transform="translate(7.6 12.6854)"><path class="edge" d="M 0 0 V -12.6854 H -7.6" /><rect class="sym" height="6" width="6" x="-3" y="-3" /><text class="lab" transform="translate(0 11)">4</text></g><path class="edge" d="M 0 0 V -10.7508 H 11.4" /><circle class="sym" cx="0" cy="0" r="3" /><text class="lab lft" transform="translate(-3 -7.0)">14</text></g><g class="a19 c1 node n16 p0" transform="translate(11.4 10.2713)"><g class="a16 leaf node n8 p0 sample" transform="translate(0.0 13.165)"><path class="edge" d="M 0 0 V -13.165 H 0.0" /><rect class="sym" height="6" width="6" x="-3" y="-3" /><text class="lab" transform="translate(0 11)">8</text></g><path class="edge" d="M 0 0 V -10.2713 H -11.4" /><circle class="sym" cx="0" cy="0" r="3" /><text class="lab rgt" transform="translate(3 -7.0)">16</text></g><path class="edge" d="M 0 0 V -71.1637 H -29.45" /><circle class="sym" cx="0" cy="0" r="3" /><text class="lab rgt" transform="translate(3 -7.0)">19</text></g><g class="a30 c2 node n29 p0" transform="translate(-29.45 25.0296)"><g class="a29 c1 node n28 p0" transform="translate(-24.7 1.91648)"><g class="a28 c2 node n27 p0" transform="translate(0.0 3.01354)"><g class="a27 c1 node n26 p0" transform="translate(-22.8 0.705142)"><g class="a26 c2 node n20 p0" transform="translate(0.0 37.2172)"><g class="a20 c2 node n17 p0" transform="translate(-11.4 12.7312)"><g class="a17 leaf node n0 p0 sample" transform="translate(-7.6 13.9869)"><path class="edge" d="M 0 0 V -13.9869 H 7.6" /><rect class="sym" height="6" width="6" x="-3" y="-3" /><text class="lab" transform="translate(0 11)">0</text></g><g class="a17 leaf node n5 p0 sample" transform="translate(7.6 13.9869)"><path class="edge" d="M 0 0 V -13.9869 H -7.6" /><rect class="sym" height="6" width="6" x="-3" y="-3" /><text class="lab" transform="translate(0 11)">5</text></g><path class="edge" d="M 0 0 V -12.7312 H 11.4" /><circle class="sym" cx="0" cy="0" r="3" /><text class="lab lft" transform="translate(-3 -7.0)">17</text></g><g class="a20 c1 node n18 p0" transform="translate(11.4 5.08482)"><g class="a18 leaf node n9 p0 sample" transform="translate(0.0 21.6333)"><path class="edge" d="M 0 0 V -21.6333 H 0.0" /><rect class="sym" height="6" width="6" x="-3" y="-3" /><text class="lab" transform="translate(0 11)">9</text></g><path class="edge" d="M 0 0 V -5.08482 H -11.4" /><circle class="sym" cx="0" cy="0" r="3" /><text class="lab rgt" transform="translate(3 -7.0)">18</text></g><path class="edge" d="M 0 0 V -37.2172 H 0.0" /><circle class="sym" cx="0" cy="0" r="3" /><text class="lab lft" transform="translate(-3 -7.0)">20</text></g><path class="edge" d="M 0 0 V -0.705142 H 22.8" /><circle class="sym" cx="0" cy="0" r="3" /><text class="lab lft" transform="translate(-3 -7.0)">26</text></g><g class="a27 c1 node n22 p0" transform="translate(22.8 34.7875)"><g class="a22 c2 node n13 p0" transform="translate(0.0 18.7948)"><g class="a13 leaf node n3 p0 sample" transform="translate(11.4 11.0581)"><path class="edge" d="M 0 0 V -11.0581 H -11.4" /><rect class="sym" height="6" width="6" x="-3" y="-3" /><text class="lab" transform="translate(0 11)">3</text></g><g class="a13 c2 node n10 p0" transform="translate(-11.4 7.75192)"><g class="a10 leaf node n1 p0 sample" transform="translate(-7.6 3.30619)"><path class="edge" d="M 0 0 V -3.30619 H 7.6" /><rect class="sym" height="6" width="6" x="-3" y="-3" /><text class="lab" transform="translate(0 11)">1</text></g><g class="a10 leaf node n7 p0 sample" transform="translate(7.6 3.30619)"><path class="edge" d="M 0 0 V -3.30619 H -7.6" /><rect class="sym" height="6" width="6" x="-3" y="-3" /><text class="lab" transform="translate(0 11)">7</text></g><path class="edge" d="M 0 0 V -7.75192 H 11.4" /><circle class="sym" cx="0" cy="0" r="3" /><text class="lab lft" transform="translate(-3 -7.0)">10</text></g><path class="edge" d="M 0 0 V -18.7948 H 0.0" /><circle class="sym" cx="0" cy="0" r="3" /><text class="lab lft" transform="translate(-3 -7.0)">13</text></g><path class="edge" d="M 0 0 V -34.7875 H -22.8" /><circle class="sym" cx="0" cy="0" r="3" /><text class="lab rgt" transform="translate(3 -7.0)">22</text></g><path class="edge" d="M 0 0 V -3.01354 H 0.0" /><circle class="sym" cx="0" cy="0" r="3" /><text class="lab lft" transform="translate(-3 -7.0)">27</text></g><path class="edge" d="M 0 0 V -1.91648 H 24.7" /><circle class="sym" cx="0" cy="0" r="3" /><text class="lab lft" transform="translate(-3 -7.0)">28</text></g><g class="a29 c1 node n25 p0" transform="translate(24.7 7.98669)"><g class="a25 c1 node n12 p0" transform="translate(0.0 52.3019)"><g class="a12 leaf node n6 p0 sample" transform="translate(0.0 9.28186)"><path class="edge" d="M 0 0 V -9.28186 H 0.0" /><rect class="sym" height="6" width="6" x="-3" y="-3" /><text class="lab" transform="translate(0 11)">6</text></g><path class="edge" d="M 0 0 V -52.3019 H 0.0" /><circle class="sym" cx="0" cy="0" r="3" /><text class="lab lft" transform="translate(-3 -7.0)">12</text></g><path class="edge" d="M 0 0 V -7.98669 H -24.7" /><circle class="sym" cx="0" cy="0" r="3" /><text class="lab rgt" transform="translate(3 -7.0)">25</text></g><path class="edge" d="M 0 0 V -25.0296 H 29.45" /><circle class="sym" cx="0" cy="0" r="3" /><text class="lab lft" transform="translate(-3 -7.0)">29</text></g><circle class="sym" cx="0" cy="0" r="3" /><text class="lab" transform="translate(0 -11)">30</text></g></g></g></g></g></svg>
