<svg baseProfile="full" height="200" version="1.1" width="1000" xmlns="http://www.w3.org/2000/svg" xmlns:ev="http://www.w3.org/2001/xml-events" xmlns:xlink="http://www.w3.org/1999/xlink"><defs><style type="text/css"><![CDATA[.background path {fill: #808080; fill-opacity: 0}.background path:nth-child(odd) {fill-opacity: .1}.axes {font-size: 14px}.x-axis .tick .lab {font-weight: bold; dominant-baseline: hanging}.axes, .tree {font-size: 14px; text-anchor: middle}.axes line, .edge {stroke: black; fill: none}.y-axis .grid {stroke: #FAFAFA}.node > .sym {fill: black; stroke: none}.site > .sym {stroke: black}.mut text {fill: red; font-style: italic}.mut.extra text {fill: hotpink}.mut line {fill: none; stroke: none}.mut .sym {fill: none; stroke: red}.mut.extra .sym {stroke: hotpink}.node .mut .sym {stroke-width: 1.5px}.tree text, .tree-sequence text {dominant-baseline: central}.plotbox .lab.lft {text-anchor: end}.plotbox .lab.rgt {text-anchor: start}]]></style></defs><g class="tree-sequence"><g class="background"><path d="M20,0 l192,0 l0,138.2 l-45.2176,25 l0,5 l-146.782,0 l0,-5 l0,-25 l0,-138.2z" /><path d="M212,0 l192,0 l0,138.2 l-220.665,25 l0,5 l-16.5521,0 l0,-5 l45.2176,-25 l0,-138.2z" /><path d="M404,0 l192,0 l0,138.2 l-288.357,25 l0,5 l-124.309,0 l0,-5 l220.665,-25 l0,-138.2z" /><path d="M596,0 l192,0 l0,138.2 l-260.209,25 l0,5 l-220.147,0 l0,-5 l288.357,-25 l0,-138.2z" /><path d="M788,0 l192,0 l0,138.2 l0,25 l0,5 l-452.209,0 l0,-5 l260.209,-25 l0,-138.2z" /></g><g class="axes"><g class="x-axis"><g transform="translate(500 200)"><text class="lab" text-anchor="middle" transform="translate(0 -11)">Genome position</text></g><line x1="20" x2="980" y1="163.2" y2="163.2" /><g class="ticks"><g class="tick" transform="translate(20 163.2)"><line x1="0" x2="0" y1="0" y2="5" /><g transform="translate(0 6)"><text class="lab">0.00</text></g></g><g class="tick" transform="translate(166.782 163.2)"><line x1="0" x2="0" y1="0" y2="5" /><g transform="translate(0 6)"><text class="lab">152.90</text></g></g><g class="tick" transform="translate(183.335 163.2)"><line x1="0" x2="0" y1="0" y2="5" /><g transform="translate(0 6)"><text class="lab">170.14</text></g></g><g class="tick" transform="translate(307.643 163.2)"><line x1="0" x2="0" y1="0" y2="5" /><g transform="translate(0 6)"><text class="lab">299.63</text></g></g><g class="tick" transform="translate(527.791 163.2)"><line x1="0" x2="0" y1="0" y2="5" /><g transform="translate(0 6)"><text class="lab">528.95</text></g></g><g class="tick" transform="translate(980 163.2)"><line x1="0" x2="0" y1="0" y2="5" /><g transform="translate(0 6)"><text class="lab">1000.00</text></g></g></g></g></g><g class="plotbox trees"><g class="tree t0" transform="translate(20 0)"><g class="plotbox"><g class="c2 node n30 p0 root" transform="translate(126.4 26.8)"><g class="a30 c2 node n18 p0" transform="translate(30.4 72.1616)"><g class="a18 leaf node n6 p0 sample" transform="translate(-7.6 22.4384)"><path class="edge" d="M 0 0 V -22.4384 H 7.6" /><rect class="sym" height="6" width="6" x="-3" y="-3" /><text class="lab" transform="translate(0 11)">6</text></g><g class="a18 c1 node n13 p0" transform="translate(7.6 3.90379)"><g class="a13 leaf node n7 p0 sample" transform="translate(0.0 18.5346)"><path class="edge" d="M 0 0 V -18.5346 H 0.0" /><rect class="sym" height="6" width="6" x="-3" y="-3" /><text class="lab" transform="translate(0 11)">7</text></g><path class="edge" d="M 0 0 V -3.90379 H -7.6" /><circle class="sym" cx="0" cy="0" r="3" /><text class="lab rgt" transform="translate(3 -7.0)">13</text></g><path class="edge" d="M 0 0 V -72.1616 H -30.4" /><circle class="sym" cx="0" cy="0" r="3" /><text class="lab rgt" transform="translate(3 -7.0)">18</text></g><g class="a30 c2 node n29 p0" transform="translate(-30.4 11.9126)"><g class="a29 c1 node n25 p0" transform="translate(30.4 45.4328)"><g class="a25 c2 node n20 p0" transform="translate(0.0 9.65742)"><g class="a20 leaf node n2 p0 sample" transform="translate(-7.6 27.5972)"><path class="edge" d="M 0 0 V -27.5972 H 7.6" /><rect class="sym" height="6" width="6" x="-3" y="-3" /><text class="lab" transform="translate(0 11)">2</text></g><g class="a20 c1 node n11 p0" transform="translate(7.6 22.0427)"><g class="a11 leaf node n3 p0 sample" transform="translate(0.0 5.55449)"><path class="edge" d="M 0 0 V -5.55449 H 0.0" /><rect class="sym" height="6" width="6" x="-3" y="-3" /><text class="lab" transform="translate(0 11)">3</text></g><path class="edge" d="M 0 0 V -22.0427 H -7.6" /><circle class="sym" cx="0" cy="0" r="3" /><text class="lab rgt" transform="translate(3 -7.0)">11</text></g><path class="edge" d="M 0 0 V -9.65742 H 0.0" /><circle class="sym" cx="0" cy="0" r="3" /><text class="lab lft" transform="translate(-3 -7.0)">20</text></g><path class="edge" d="M 0 0 V -45.4328 H -30.4" /><circle class="sym" cx="0" cy="0" r="3" /><text class="lab rgt" transform="translate(3 -7.0)">25</text></g><g class="a29 c1 node n28 p0" transform="translate(-30.4 13.0836)"><g class="a28 c2 node n27 p0" transform="translate(0.0 9.17163)"><g class="a27 c2 node n22 p0" transform="translate(-19 29.7446)"><g class="a22 c1 node n19 p0" transform="translate(11.4 4.25644)"><g class="a19 leaf node n4 p0 sample" transform="translate(0.0 26.4311)"><path class="edge" d="M 0 0 V -26.4311 H 0.0" /><rect class="sym" height="6" width="6" x="-3" y="-3" /><text class="lab" transform="translate(0 11)">4</text></g><path class="edge" d="M 0 0 V -4.25644 H -11.4" /><circle class="sym" cx="0" cy="0" r="3" /><text class="lab rgt" transform="translate(3 -7.0)">19</text></g><g class="a22 c2 node n21 p0" transform="translate(-11.4 2.22979)"><g class="a21 leaf node n5 p0 sample" transform="translate(7.6 28.4578)"><path class="edge" d="M 0 0 V -28.4578 H -7.6" /><rect class="sym" height="6" width="6" x="-3" y="-3" /><text class="lab" transform="translate(0 11)">5</text></g><g class="a21 c1 node n16 p0" transform="translate(-7.6 7.88378)"><g class="a16 leaf node n0 p0 sample" transform="translate(0.0 20.574)"><path class="edge" d="M 0 0 V -20.574 H 0.0" /><rect class="sym" height="6" width="6" x="-3" y="-3" /><text class="lab" transform="translate(0 11)">0</text></g><path class="edge" d="M 0 0 V -7.88378 H 7.6" /><circle class="sym" cx="0" cy="0" r="3" /><text class="lab lft" transform="translate(-3 -7.0)">16</text></g><path class="edge" d="M 0 0 V -2.22979 H 11.4" /><circle class="sym" cx="0" cy="0" r="3" /><text class="lab lft" transform="translate(-3 -7.0)">21</text></g><path class="edge" d="M 0 0 V -29.7446 H 19" /><circle class="sym" cx="0" cy="0" r="3" /><text class="lab lft" transform="translate(-3 -7.0)">22</text></g><g class="a27 c2 node n26 p0" transform="translate(19 20.3896)"><g class="a26 leaf node n1 p0 sample" transform="translate(-11.4 40.0425)"><path class="edge" d="M 0 0 V -40.0425 H 11.4" /><rect class="sym" height="6" width="6" x="-3" y="-3" /><text class="lab" transform="translate(0 11)">1</text></g><g class="a26 c2 node n10 p0" transform="translate(11.4 36.5398)"><g class="a10 leaf node n8 p0 sample" transform="translate(-7.6 3.50276)"><path class="edge" d="M 0 0 V -3.50276 H 7.6" /><rect class="sym" height="6" width="6" x="-3" y="-3" /><text class="lab" transform="translate(0 11)">8</text></g><g class="a10 leaf node n9 p0 sample" transform="translate(7.6 3.50276)"><path class="edge" d="M 0 0 V -3.50276 H -7.6" /><rect class="sym" height="6" width="6" x="-3" y="-3" /><text class="lab" transform="translate(0 11)">9</text></g><path class="edge" d="M 0 0 V -36.5398 H -11.4" /><circle class="sym" cx="0" cy="0" r="3" /><text class="lab rgt" transform="translate(3 -7.0)">10</text></g><path class="edge" d="M 0 0 V -20.3896 H -19" /><circle class="sym" cx="0" cy="0" r="3" /><text class="lab rgt" transform="translate(3 -7.0)">26</text></g><path class="edge" d="M 0 0 V -9.17163 H 0.0" /><circle class="sym" cx="0" cy="0" r="3" /><text class="lab lft" transform="translate(-3 -7.0)">27</text></g><path class="edge" d="M 0 0 V -13.0836 H 30.4" /><circle class="sym" cx="0" cy="0" r="3" /><text class="lab lft" transform="translate(-3 -7.0)">28</text></g><path class="edge" d="M 0 0 V -11.9126 H 30.4" /><circle class="sym" cx="0" cy="0" r="3" /><text class="lab lft" transform="translate(-3 -7.0)">29</text></g><circle class="sym" cx="0" cy="0" r="3" /><text class="lab" transform="translate(0 -11)">30</text></g></g></g><g class="tree t1" transform="translate(212 0)"><g class="plotbox"><g class="c2 node n30 p0 root" transform="translate(126.4 26.8)"><g class="a30 c2 node n18 p0" transform="translate(30.4 72.1616)"><g class="a18 leaf node n6 p0 sample" transform="translate(-7.6 22.4384)"><path class="edge" d="M 0 0 V -22.4384 H 7.6" /><rect class="sym" height="6" width="6" x="-3" y="-3" /><text class="lab" transform="translate(0 11)">6</text></g><g class="a18 c1 node n13 p0" transform="translate(7.6 3.90379)"><g class="a13 leaf node n7 p0 sample" transform="translate(0.0 18.5346)"><path class="edge" d="M 0 0 V -18.5346 H 0.0" /><rect class="sym" height="6" width="6" x="-3" y="-3" /><text class="lab" transform="translate(0 11)">7</text></g><path class="edge" d="M 0 0 V -3.90379 H -7.6" /><circle class="sym" cx="0" cy="0" r="3" /><text class="lab rgt" transform="translate(3 -7.0)">13</text></g><path class="edge" d="M 0 0 V -72.1616 H -30.4" /><circle class="sym" cx="0" cy="0" r="3" /><text class="lab rgt" transform="translate(3 -7.0)">18</text></g><g class="a30 c2 node n29 p0" transform="translate(-30.4 11.9126)"><g class="a29 c1 node n25 p0" transform="translate(30.4 45.4328)"><g class="a25 c2 node n20 p0" transform="translate(0.0 9.65742)"><g class="a20 leaf node n2 p0 sample" transform="translate(-7.6 27.5972)"><path class="edge" d="M 0 0 V -27.5972 H 7.6" /><rect class="sym" height="6" width="6" x="-3" y="-3" /><text class="lab" transform="translate(0 11)">2</text></g><g class="a20 c1 node n11 p0" transform="translate(7.6 22.0427)"><g class="a11 leaf node n3 p0 sample" transform="translate(0.0 5.55449)"><path class="edge" d="M 0 0 V -5.55449 H 0.0" /><rect class="sym" height="6" width="6" x="-3" y="-3" /><text class="lab" transform="translate(0 11)">3</text></g><path class="edge" d="M 0 0 V -22.0427 H -7.6" /><circle class="sym" cx="0" cy="0" r="3" /><text class="lab rgt" transform="translate(3 -7.0)">11</text></g><path class="edge" d="M 0 0 V -9.65742 H 0.0" /><circle class="sym" cx="0" cy="0" r="3" /><text class="lab lft" transform="translate(-3 -7.0)">20</text></g><path class="edge" d="M 0 0 V -45.4328 H -30.4" /><circle class="sym" cx="0" cy="0" r="3" /><text class="lab rgt" transform="translate(3 -7.0)">25</text></g><g class="a29 c1 node n28 p0" transform="translate(-30.4 13.0836)"><g class="a28 c2 node n27 p0" transform="translate(0.0 9.17163)"><g class="a27 c2 node n22 p0" transform="translate(-19 29.7446)"><g class="a22 c2 node n19 p0" transform="translate(-11.4 4.25644)"><g class="a19 leaf node n4 p0 sample" transform="translate(7.6 26.4311)"><path class="edge" d="M 0 0 V -26.4311 H -7.6" /><rect class="sym" height="6" width="6" x="-3" y="-3" /><text class="lab" transform="translate(0 11)">4</text></g><g class="a19 c1 node n17 p0" transform="translate(-7.6 5.85713)"><g class="a17 leaf node n0 p0 sample" transform="translate(0.0 20.574)"><path class="edge" d="M 0 0 V -20.574 H 0.0" /><rect class="sym" height="6" width="6" x="-3" y="-3" /><text class="lab" transform="translate(0 11)">0</text></g><path class="edge" d="M 0 0 V -5.85713 H 7.6" /><circle class="sym" cx="0" cy="0" r="3" /><text class="lab lft" transform="translate(-3 -7.0)">17</text></g><path class="edge" d="M 0 0 V -4.25644 H 11.4" /><circle class="sym" cx="0" cy="0" r="3" /><text class="lab lft" transform="translate(-3 -7.0)">19</text></g><g class="a22 c1 node n21 p0" transform="translate(11.4 2.22979)"><g class="a21 leaf node n5 p0 sample" transform="translate(0.0 28.4578)"><path class="edge" d="M 0 0 V -28.4578 H 0.0" /><rect class="sym" height="6" width="6" x="-3" y="-3" /><text class="lab" transform="translate(0 11)">5</text></g><path class="edge" d="M 0 0 V -2.22979 H -11.4" /><circle class="sym" cx="0" cy="0" r="3" /><text class="lab rgt" transform="translate(3 -7.0)">21</text></g><path class="edge" d="M 0 0 V -29.7446 H 19" /><circle class="sym" cx="0" cy="0" r="3" /><text class="lab lft" transform="translate(-3 -7.0)">22</text></g><g class="a27 c2 node n26 p0" transform="translate(19 20.3896)"><g class="a26 leaf node n1 p0 sample" transform="translate(-11.4 40.0425)"><path class="edge" d="M 0 0 V -40.0425 H 11.4" /><rect class="sym" height="6" width="6" x="-3" y="-3" /><text class="lab" transform="translate(0 11)">1</text></g><g class="a26 c2 node n10 p0" transform="translate(11.4 36.5398)"><g class="a10 leaf node n8 p0 sample" transform="translate(-7.6 3.50276)"><path class="edge" d="M 0 0 V -3.50276 H 7.6" /><rect class="sym" height="6" width="6" x="-3" y="-3" /><text class="lab" transform="translate(0 11)">8</text></g><g class="a10 leaf node n9 p0 sample" transform="translate(7.6 3.50276)"><path class="edge" d="M 0 0 V -3.50276 H -7.6" /><rect class="sym" height="6" width="6" x="-3" y="-3" /><text class="lab" transform="translate(0 11)">9</text></g><path class="edge" d="M 0 0 V -36.5398 H -11.4" /><circle class="sym" cx="0" cy="0" r="3" /><text class="lab rgt" transform="translate(3 -7.0)">10</text></g><path class="edge" d="M 0 0 V -20.3896 H -19" /><circle class="sym" cx="0" cy="0" r="3" /><text class="lab rgt" transform="translate(3 -7.0)">26</text></g><path class="edge" d="M 0 0 V -9.17163 H 0.0" /><circle class="sym" cx="0" cy="0" r="3" /><text class="lab lft" transform="translate(-3 -7.0)">27</text></g><path class="edge" d="M 0 0 V -13.0836 H 30.4" /><circle class="sym" cx="0" cy="0" r="3" /><text class="lab lft" transform="translate(-3 -7.0)">28</text></g><path class="edge" d="M 0 0 V -11.9126 H 30.4" /><circle class="sym" cx="0" cy="0" r="3" /><text class="lab lft" transform="translate(-3 -7.0)">29</text></g><circle class="sym" cx="0" cy="0" r="3" /><text class="lab" transform="translate(0 -11)">30</text></g></g></g><g class="tree t2" transform="translate(404 0)"><g class="plotbox"><g class="c2 node n30 p0 root" transform="translate(126.4 26.8)"><g class="a30 c2 node n18 p0" transform="translate(30.4 72.1616)"><g class="a18 leaf node n6 p0 sample" transform="translate(-7.6 22.4384)"><path class="edge" d="M 0 0 V -22.4384 H 7.6" /><rect class="sym" height="6" width="6" x="-3" y="-3" /><text class="lab" transform="translate(0 11)">6</text></g><g class="a18 c1 node n13 p0" transform="translate(7.6 3.90379)"><g class="a13 leaf node n7 p0 sample" transform="translate(0.0 18.5346)"><path class="edge" d="M 0 0 V -18.5346 H 0.0" /><rect class="sym" height="6" width="6" x="-3" y="-3" /><text class="lab" transform="translate(0 11)">7</text></g><path class="edge" d="M 0 0 V -3.90379 H -7.6" /><circle class="sym" cx="0" cy="0" r="3" /><text class="lab rgt" transform="translate(3 -7.0)">13</text></g><path class="edge" d="M 0 0 V -72.1616 H -30.4" /><circle class="sym" cx="0" cy="0" r="3" /><text class="lab rgt" transform="translate(3 -7.0)">18</text></g><g class="a30 c2 node n29 p0" transform="translate(-30.4 11.9126)"><g class="a29 c2 node n25 p0" transform="translate(30.4 45.4328)"><g class="a25 c1 node n20 p0" transform="translate(-7.6 9.65742)"><g class="a20 leaf node n2 p0 sample" transform="translate(0.0 27.5972)"><path class="edge" d="M 0 0 V -27.5972 H 0.0" /><rect class="sym" height="6" width="6" x="-3" y="-3" /><text class="lab" transform="translate(0 11)">2</text></g><path class="edge" d="M 0 0 V -9.65742 H 7.6" /><circle class="sym" cx="0" cy="0" r="3" /><text class="lab lft" transform="translate(-3 -7.0)">20</text></g><g class="a25 c1 node n23 p0" transform="translate(7.6 3.73281)"><g class="a23 c1 node n15 p0" transform="translate(0.0 13.9661)"><g class="a15 c1 node n12 p0" transform="translate(0.0 14.0012)"><g class="a12 leaf node n3 p0 sample" transform="translate(0.0 5.55449)"><path class="edge" d="M 0 0 V -5.55449 H 0.0" /><rect class="sym" height="6" width="6" x="-3" y="-3" /><text class="lab" transform="translate(0 11)">3</text></g><path class="edge" d="M 0 0 V -14.0012 H 0.0" /><circle class="sym" cx="0" cy="0" r="3" /><text class="lab lft" transform="translate(-3 -7.0)">12</text></g><path class="edge" d="M 0 0 V -13.9661 H 0.0" /><circle class="sym" cx="0" cy="0" r="3" /><text class="lab lft" transform="translate(-3 -7.0)">15</text></g><path class="edge" d="M 0 0 V -3.73281 H -7.6" /><circle class="sym" cx="0" cy="0" r="3" /><text class="lab rgt" transform="translate(3 -7.0)">23</text></g><path class="edge" d="M 0 0 V -45.4328 H -30.4" /><circle class="sym" cx="0" cy="0" r="3" /><text class="lab rgt" transform="translate(3 -7.0)">25</text></g><g class="a29 c1 node n28 p0" transform="translate(-30.4 13.0836)"><g class="a28 c2 node n27 p0" transform="translate(0.0 9.17163)"><g class="a27 c2 node n22 p0" transform="translate(-19 29.7446)"><g class="a22 c2 node n19 p0" transform="translate(-11.4 4.25644)"><g class="a19 leaf node n4 p0 sample" transform="translate(7.6 26.4311)"><path class="edge" d="M 0 0 V -26.4311 H -7.6" /><rect class="sym" height="6" width="6" x="-3" y="-3" /><text class="lab" transform="translate(0 11)">4</text></g><g class="a19 c1 node n17 p0" transform="translate(-7.6 5.85713)"><g class="a17 leaf node n0 p0 sample" transform="translate(0.0 20.574)"><path class="edge" d="M 0 0 V -20.574 H 0.0" /><rect class="sym" height="6" width="6" x="-3" y="-3" /><text class="lab" transform="translate(0 11)">0</text></g><path class="edge" d="M 0 0 V -5.85713 H 7.6" /><circle class="sym" cx="0" cy="0" r="3" /><text class="lab lft" transform="translate(-3 -7.0)">17</text></g><path class="edge" d="M 0 0 V -4.25644 H 11.4" /><circle class="sym" cx="0" cy="0" r="3" /><text class="lab lft" transform="translate(-3 -7.0)">19</text></g><g class="a22 c1 node n21 p0" transform="translate(11.4 2.22979)"><g class="a21 leaf node n5 p0 sample" transform="translate(0.0 28.4578)"><path class="edge" d="M 0 0 V -28.4578 H 0.0" /><rect class="sym" height="6" width="6" x="-3" y="-3" /><text class="lab" transform="translate(0 11)">5</text></g><path class="edge" d="M 0 0 V -2.22979 H -11.4" /><circle class="sym" cx="0" cy="0" r="3" /><text class="lab rgt" transform="translate(3 -7.0)">21</text></g><path class="edge" d="M 0 0 V -29.7446 H 19" /><circle class="sym" cx="0" cy="0" r="3" /><text class="lab lft" transform="translate(-3 -7.0)">22</text></g><g class="a27 c2 node n26 p0" transform="translate(19 20.3896)"><g class="a26 leaf node n1 p0 sample" transform="translate(-11.4 40.0425)"><path class="edge" d="M 0 0 V -40.0425 H 11.4" /><rect class="sym" height="6" width="6" x="-3" y="-3" /><text class="lab" transform="translate(0 11)">1</text></g><g class="a26 c2 node n10 p0" transform="translate(11.4 36.5398)"><g class="a10 leaf node n8 p0 sample" transform="translate(-7.6 3.50276)"><path class="edge" d="M 0 0 V -3.50276 H 7.6" /><rect class="sym" height="6" width="6" x="-3" y="-3" /><text class="lab" transform="translate(0 11)">8</text></g><g class="a10 leaf node n9 p0 sample" transform="translate(7.6 3.50276)"><path class="edge" d="M 0 0 V -3.50276 H -7.6" /><rect class="sym" height="6" width="6" x="-3" y="-3" /><text class="lab" transform="translate(0 11)">9</text></g><path class="edge" d="M 0 0 V -36.5398 H -11.4" /><circle class="sym" cx="0" cy="0" r="3" /><text class="lab rgt" transform="translate(3 -7.0)">10</text></g><path class="edge" d="M 0 0 V -20.3896 H -19" /><circle class="sym" cx="0" cy="0" r="3" /><text class="lab rgt" transform="translate(3 -7.0)">26</text></g><path class="edge" d="M 0 0 V -9.17163 H 0.0" /><circle class="sym" cx="0" cy="0" r="3" /><text class="lab lft" transform="translate(-3 -7.0)">27</text></g><path class="edge" d="M 0 0 V -13.0836 H 30.4" /><circle class="sym" cx="0" cy="0" r="3" /><text class="lab lft" transform="translate(-3 -7.0)">28</text></g><path class="edge" d="M 0 0 V -11.9126 H 30.4" /><circle class="sym" cx="0" cy="0" r="3" /><text class="lab lft" transform="translate(-3 -7.0)">29</text></g><circle class="sym" cx="0" cy="0" r="3" /><text class="lab" transform="translate(0 -11)">30</text></g></g></g><g class="tree t3" transform="translate(596 0)"><g class="plotbox"><g class="c2 node n30 p0 root" transform="translate(134.95 26.8)"><g class="a30 c2 node n18 p0" transform="translate(21.85 72.1616)"><g class="a18 leaf node n6 p0 sample" transform="translate(-7.6 22.4384)"><path class="edge" d="M 0 0 V -22.4384 H 7.6" /><rect class="sym" height="6" width="6" x="-3" y="-3" /><text class="lab" transform="translate(0 11)">6</text></g><g class="a18 c1 node n13 p0" transform="translate(7.6 3.90379)"><g class="a13 leaf node n7 p0 sample" transform="translate(0.0 18.5346)"><path class="edge" d="M 0 0 V -18.5346 H 0.0" /><rect class="sym" height="6" width="6" x="-3" y="-3" /><text class="lab" transform="translate(0 11)">7</text></g><path class="edge" d="M 0 0 V -3.90379 H -7.6" /><circle class="sym" cx="0" cy="0" r="3" /><text class="lab rgt" transform="translate(3 -7.0)">13</text></g><path class="edge" d="M 0 0 V -72.1616 H -21.85" /><circle class="sym" cx="0" cy="0" r="3" /><text class="lab rgt" transform="translate(3 -7.0)">18</text></g><g class="a30 c2 node n29 p0" transform="translate(-21.85 11.9126)"><g class="a29 c1 node n25 p0" transform="translate(20.9 45.4328)"><g class="a25 c1 node n20 p0" transform="translate(0.0 9.65742)"><g class="a20 leaf node n2 p0 sample" transform="translate(0.0 27.5972)"><path class="edge" d="M 0 0 V -27.5972 H 0.0" /><rect class="sym" height="6" width="6" x="-3" y="-3" /><text class="lab" transform="translate(0 11)">2</text></g><path class="edge" d="M 0 0 V -9.65742 H 0.0" /><circle class="sym" cx="0" cy="0" r="3" /><text class="lab lft" transform="translate(-3 -7.0)">20</text></g><path class="edge" d="M 0 0 V -45.4328 H -20.9" /><circle class="sym" cx="0" cy="0" r="3" /><text class="lab rgt" transform="translate(3 -7.0)">25</text></g><g class="a29 c2 node n28 p0" transform="translate(-20.9 13.0836)"><g class="a28 c2 node n27 p0" transform="translate(-26.6 9.17163)"><g class="a27 c2 node n22 p0" transform="translate(-19 29.7446)"><g class="a22 c2 node n19 p0" transform="translate(-11.4 4.25644)"><g class="a19 leaf node n4 p0 sample" transform="translate(7.6 26.4311)"><path class="edge" d="M 0 0 V -26.4311 H -7.6" /><rect class="sym" height="6" width="6" x="-3" y="-3" /><text class="lab" transform="translate(0 11)">4</text></g><g class="a19 c1 node n17 p0" transform="translate(-7.6 5.85713)"><g class="a17 leaf node n0 p0 sample" transform="translate(0.0 20.574)"><path class="edge" d="M 0 0 V -20.574 H 0.0" /><rect class="sym" height="6" width="6" x="-3" y="-3" /><text class="lab" transform="translate(0 11)">0</text></g><path class="edge" d="M 0 0 V -5.85713 H 7.6" /><circle class="sym" cx="0" cy="0" r="3" /><text class="lab lft" transform="translate(-3 -7.0)">17</text></g><path class="edge" d="M 0 0 V -4.25644 H 11.4" /><circle class="sym" cx="0" cy="0" r="3" /><text class="lab lft" transform="translate(-3 -7.0)">19</text></g><g class="a22 c1 node n21 p0" transform="translate(11.4 2.22979)"><g class="a21 leaf node n5 p0 sample" transform="translate(0.0 28.4578)"><path class="edge" d="M 0 0 V -28.4578 H 0.0" /><rect class="sym" height="6" width="6" x="-3" y="-3" /><text class="lab" transform="translate(0 11)">5</text></g><path class="edge" d="M 0 0 V -2.22979 H -11.4" /><circle class="sym" cx="0" cy="0" r="3" /><text class="lab rgt" transform="translate(3 -7.0)">21</text></g><path class="edge" d="M 0 0 V -29.7446 H 19" /><circle class="sym" cx="0" cy="0" r="3" /><text class="lab lft" transform="translate(-3 -7.0)">22</text></g><g class="a27 c2 node n26 p0" transform="translate(19 20.3896)"><g class="a26 leaf node n1 p0 sample" transform="translate(-11.4 40.0425)"><path class="edge" d="M 0 0 V -40.0425 H 11.4" /><rect class="sym" height="6" width="6" x="-3" y="-3" /><text class="lab" transform="translate(0 11)">1</text></g><g class="a26 c2 node n10 p0" transform="translate(11.4 36.5398)"><g class="a10 leaf node n8 p0 sample" transform="translate(-7.6 3.50276)"><path class="edge" d="M 0 0 V -3.50276 H 7.6" /><rect class="sym" height="6" width="6" x="-3" y="-3" /><text class="lab" transform="translate(0 11)">8</text></g><g class="a10 leaf node n9 p0 sample" transform="translate(7.6 3.50276)"><path class="edge" d="M 0 0 V -3.50276 H -7.6" /><rect class="sym" height="6" width="6" x="-3" y="-3" /><text class="lab" transform="translate(0 11)">9</text></g><path class="edge" d="M 0 0 V -36.5398 H -11.4" /><circle class="sym" cx="0" cy="0" r="3" /><text class="lab rgt" transform="translate(3 -7.0)">10</text></g><path class="edge" d="M 0 0 V -20.3896 H -19" /><circle class="sym" cx="0" cy="0" r="3" /><text class="lab rgt" transform="translate(3 -7.0)">26</text></g><path class="edge" d="M 0 0 V -9.17163 H 26.6" /><circle class="sym" cx="0" cy="0" r="3" /><text class="lab lft" transform="translate(-3 -7.0)">27</text></g><g class="a28 c1 node n24 p0" transform="translate(26.6 36.082)"><g class="a24 c1 node n15 p0" transform="translate(0.0 13.9661)"><g class="a15 c1 node n12 p0" transform="translate(0.0 14.0012)"><g class="a12 leaf node n3 p0 sample" transform="translate(0.0 5.55449)"><path class="edge" d="M 0 0 V -5.55449 H 0.0" /><rect class="sym" height="6" width="6" x="-3" y="-3" /><text class="lab" transform="translate(0 11)">3</text></g><path class="edge" d="M 0 0 V -14.0012 H 0.0" /><circle class="sym" cx="0" cy="0" r="3" /><text class="lab lft" transform="translate(-3 -7.0)">12</text></g><path class="edge" d="M 0 0 V -13.9661 H 0.0" /><circle class="sym" cx="0" cy="0" r="3" /><text class="lab lft" transform="translate(-3 -7.0)">15</text></g><path class="edge" d="M 0 0 V -36.082 H -26.6" /><circle class="sym" cx="0" cy="0" r="3" /><text class="lab rgt" transform="translate(3 -7.0)">24</text></g><path class="edge" d="M 0 0 V -13.0836 H 20.9" /><circle class="sym" cx="0" cy="0" r="3" /><text class="lab lft" transform="translate(-3 -7.0)">28</text></g><path class="edge" d="M 0 0 V -11.9126 H 21.85" /><circle class="sym" cx="0" cy="0" r="3" /><text class="lab lft" transform="translate(-3 -7.0)">29</text></g><circle class="sym" cx="0" cy="0" r="3" /><text class="lab" transform="translate(0 -11)">30</text></g></g></g><g class="tree t4" transform="translate(788 0)"><g class="plotbox"><g class="c2 node n30 p0 root" transform="translate(143.5 26.8)"><g class="a30 c1 node n18 p0" transform="translate(20.9 72.1616)"><g class="a18 leaf node n6 p0 sample" transform="translate(0.0 22.4384)"><path class="edge" d="M 0 0 V -22.4384 H 0.0" /><rect class="sym" height="6" width="6" x="-3" y="-3" /><text class="lab" transform="translate(0 11)">6</text></g><path class="edge" d="M 0 0 V -72.1616 H -20.9" /><circle class="sym" cx="0" cy="0" r="3" /><text class="lab rgt" transform="translate(3 -7.0)">18</text></g><g class="a30 c2 node n29 p0" transform="translate(-20.9 11.9126)"><g class="a29 c1 node n25 p0" transform="translate(26.6 45.4328)"><g class="a25 c1 node n20 p0" transform="translate(0.0 9.65742)"><g class="a20 leaf node n2 p0 sample" transform="translate(0.0 27.5972)"><path class="edge" d="M 0 0 V -27.5972 H 0.0" /><rect class="sym" height="6" width="6" x="-3" y="-3" /><text class="lab" transform="translate(0 11)">2</text></g><path class="edge" d="M 0 0 V -9.65742 H 0.0" /><circle class="sym" cx="0" cy="0" r="3" /><text class="lab lft" transform="translate(-3 -7.0)">20</text></g><path class="edge" d="M 0 0 V -45.4328 H -26.6" /><circle class="sym" cx="0" cy="0" r="3" /><text class="lab rgt" transform="translate(3 -7.0)">25</text></g><g class="a29 c2 node n28 p0" transform="translate(-26.6 13.0836)"><g class="a28 c2 node n27 p0" transform="translate(-30.4 9.17163)"><g class="a27 c2 node n22 p0" transform="translate(-19 29.7446)"><g class="a22 c2 node n19 p0" transform="translate(-11.4 4.25644)"><g class="a19 leaf node n4 p0 sample" transform="translate(7.6 26.4311)"><path class="edge" d="M 0 0 V -26.4311 H -7.6" /><rect class="sym" height="6" width="6" x="-3" y="-3" /><text class="lab" transform="translate(0 11)">4</text></g><g class="a19 c1 node n17 p0" transform="translate(-7.6 5.85713)"><g class="a17 leaf node n0 p0 sample" transform="translate(0.0 20.574)"><path class="edge" d="M 0 0 V -20.574 H 0.0" /><rect class="sym" height="6" width="6" x="-3" y="-3" /><text class="lab" transform="translate(0 11)">0</text></g><path class="edge" d="M 0 0 V -5.85713 H 7.6" /><circle class="sym" cx="0" cy="0" r="3" /><text class="lab lft" transform="translate(-3 -7.0)">17</text></g><path class="edge" d="M 0 0 V -4.25644 H 11.4" /><circle class="sym" cx="0" cy="0" r="3" /><text class="lab lft" transform="translate(-3 -7.0)">19</text></g><g class="a22 c1 node n21 p0" transform="translate(11.4 2.22979)"><g class="a21 leaf node n5 p0 sample" transform="translate(0.0 28.4578)"><path class="edge" d="M 0 0 V -28.4578 H 0.0" /><rect class="sym" height="6" width="6" x="-3" y="-3" /><text class="lab" transform="translate(0 11)">5</text></g><path class="edge" d="M 0 0 V -2.22979 H -11.4" /><circle class="sym" cx="0" cy="0" r="3" /><text class="lab rgt" transform="translate(3 -7.0)">21</text></g><path class="edge" d="M 0 0 V -29.7446 H 19" /><circle class="sym" cx="0" cy="0" r="3" /><text class="lab lft" transform="translate(-3 -7.0)">22</text></g><g class="a27 c2 node n26 p0" transform="translate(19 20.3896)"><g class="a26 leaf node n1 p0 sample" transform="translate(-11.4 40.0425)"><path class="edge" d="M 0 0 V -40.0425 H 11.4" /><rect class="sym" height="6" width="6" x="-3" y="-3" /><text class="lab" transform="translate(0 11)">1</text></g><g class="a26 c2 node n10 p0" transform="translate(11.4 36.5398)"><g class="a10 leaf node n8 p0 sample" transform="translate(-7.6 3.50276)"><path class="edge" d="M 0 0 V -3.50276 H 7.6" /><rect class="sym" height="6" width="6" x="-3" y="-3" /><text class="lab" transform="translate(0 11)">8</text></g><g class="a10 leaf node n9 p0 sample" transform="translate(7.6 3.50276)"><path class="edge" d="M 0 0 V -3.50276 H -7.6" /><rect class="sym" height="6" width="6" x="-3" y="-3" /><text class="lab" transform="translate(0 11)">9</text></g><path class="edge" d="M 0 0 V -36.5398 H -11.4" /><circle class="sym" cx="0" cy="0" r="3" /><text class="lab rgt" transform="translate(3 -7.0)">10</text></g><path class="edge" d="M 0 0 V -20.3896 H -19" /><circle class="sym" cx="0" cy="0" r="3" /><text class="lab rgt" transform="translate(3 -7.0)">26</text></g><path class="edge" d="M 0 0 V -9.17163 H 30.4" /><circle class="sym" cx="0" cy="0" r="3" /><text class="lab lft" transform="translate(-3 -7.0)">27</text></g><g class="a28 c1 node n24 p0" transform="translate(30.4 36.082)"><g class="a24 c2 node n15 p0" transform="translate(0.0 13.9661)"><g class="a15 c1 node n12 p0" transform="translate(-7.6 14.0012)"><g class="a12 leaf node n3 p0 sample" transform="translate(0.0 5.55449)"><path class="edge" d="M 0 0 V -5.55449 H 0.0" /><rect class="sym" height="6" width="6" x="-3" y="-3" /><text class="lab" transform="translate(0 11)">3</text></g><path class="edge" d="M 0 0 V -14.0012 H 7.6" /><circle class="sym" cx="0" cy="0" r="3" /><text class="lab lft" transform="translate(-3 -7.0)">12</text></g><g class="a15 c1 node n14 p0" transform="translate(7.6 1.02111)"><g class="a14 leaf node n7 p0 sample" transform="translate(0.0 18.5346)"><path class="edge" d="M 0 0 V -18.5346 H 0.0" /><rect class="sym" height="6" width="6" x="-3" y="-3" /><text class="lab" transform="translate(0 11)">7</text></g><path class="edge" d="M 0 0 V -1.02111 H -7.6" /><circle class="sym" cx="0" cy="0" r="3" /><text class="lab rgt" transform="translate(3 -7.0)">14</text></g><path class="edge" d="M 0 0 V -13.9661 H 0.0" /><circle class="sym" cx="0" cy="0" r="3" /><text class="lab lft" transform="translate(-3 -7.0)">15</text></g><path class="edge" d="M 0 0 V -36.082 H -30.4" /><circle class="sym" cx="0" cy="0" r="3" /><text class="lab rgt" transform="translate(3 -7.0)">24</text></g><path class="edge" d="M 0 0 V -13.0836 H 26.6" /><circle class="sym" cx="0" cy="0" r="3" /><text class="lab lft" transform="translate(-3 -7.0)">28</text></g><path class="edge" d="M 0 0 V -11.9126 H 20.9" /><circle class="sym" cx="0" cy="0" r="3" /><text class="lab lft" transform="translate(-3 -7.0)">29</text></g><circle class="sym" cx="0" cy="0" r="3" /><text class="lab" transform="translate(0 -11)">30</text></g></g></g></g></g></svg>
