<svg baseProfile="full" height="200" version="1.1" width="800" xmlns="http://www.w3.org/2000/svg" xmlns:ev="http://www.w3.org/2001/xml-events" xmlns:xlink="http://www.w3.org/1999/xlink"><defs><style type="text/css"><![CDATA[.background path {fill: #808080; fill-opacity: 0}.background path:nth-child(odd) {fill-opacity: .1}.axes {font-size: 14px}.x-axis .tick .lab {font-weight: bold; dominant-baseline: hanging}.axes, .tree {font-size: 14px; text-anchor: middle}.axes line, .edge {stroke: black; fill: none}.y-axis .grid {stroke: #FAFAFA}.node > .sym {fill: black; stroke: none}.site > .sym {stroke: black}.mut text {fill: red; font-style: italic}.mut.extra text {fill: hotpink}.mut line {fill: none; stroke: none}.mut .sym {fill: none; stroke: red}.mut.extra .sym {stroke: hotpink}.node .mut .sym {stroke-width: 1.5px}.tree text, .tree-sequence text {dominant-baseline: central}.plotbox .lab.lft {text-anchor: end}.plotbox .lab.rgt {text-anchor: start}]]></style></defs><g class="tree-sequence"><g class="background"><path d="M20,0 l190,0 l0,138.2 l-24.6767,25 l0,5 l-165.323,0 l0,-5 l0,-25 l0,-138.2z" /><path d="M210,0 l190,0 l0,138.2 l-27.3777,25 l0,5 l-187.299,0 l0,-5 l24.6767,-25 l0,-138.2z" /><path d="M400,0 l190,0 l0,138.2 l81.7812,25 l0,5 l-299.159,0 l0,-5 l27.3777,-25 l0,-138.2z" /><path d="M590,0 l190,0 l0,138.2 l0,25 l0,5 l-108.219,0 l0,-5 l-81.7812,-25 l0,-138.2z" /></g><g class="axes"><g class="x-axis"><g transform="translate(400 200)"><text class="lab" text-anchor="middle" transform="translate(0 -11)">Genome position</text></g><line x1="20" x2="780" y1="163.2" y2="163.2" /><g class="ticks"><g class="tick" transform="translate(20 163.2)"><line x1="0" x2="0" y1="0" y2="5" /><g transform="translate(0 6)"><text class="lab">0.00</text></g></g><g class="tick" transform="translate(185.323 163.2)"><line x1="0" x2="0" y1="0" y2="5" /><g transform="translate(0 6)"><text class="lab">217.53</text></g></g><g class="tick" transform="translate(372.622 163.2)"><line x1="0" x2="0" y1="0" y2="5" /><g transform="translate(0 6)"><text class="lab">463.98</text></g></g><g class="tick" transform="translate(671.781 163.2)"><line x1="0" x2="0" y1="0" y2="5" /><g transform="translate(0 6)"><text class="lab">857.61</text></g></g><g class="tick" transform="translate(780 163.2)"><line x1="0" x2="0" y1="0" y2="5" /><g transform="translate(0 6)"><text class="lab">1000.00</text></g></g></g></g></g><g class="plotbox trees"><g class="tree t0" transform="translate(20 0)"><g class="plotbox"><g class="c2 node n27 p0 root" transform="translate(94.0625 26.8)"><g class="a27 c2 node n23 p0" transform="translate(-52.5 43.7501)"><g class="a23 c1 node n18 p0" transform="translate(-14.0625 16.8713)"><g class="a18 leaf node n0 p0 sample" transform="translate(0.0 33.9786)"><path class="edge" d="M 0 0 V -33.9786 H 0.0" /><rect class="sym" height="6" width="6" x="-3" y="-3" /><text class="lab" transform="translate(0 11)">0</text></g><path class="edge" d="M 0 0 V -16.8713 H 14.0625" /><circle class="sym" cx="0" cy="0" r="3" /><text class="lab lft" transform="translate(-3 -7.0)">18</text></g><g class="a23 c2 node n22 p0" transform="translate(14.0625 10.0261)"><g class="a22 leaf node n6 p0 sample" transform="translate(-13.125 40.8238)"><path class="edge" d="M 0 0 V -40.8238 H 13.125" /><rect class="sym" height="6" width="6" x="-3" y="-3" /><text class="lab" transform="translate(0 11)">6</text></g><g class="a22 c2 node n20 p0" transform="translate(13.125 6.82599)"><g class="a20 leaf node n7 p0 sample" transform="translate(-11.25 33.9978)"><path class="edge" d="M 0 0 V -33.9978 H 11.25" /><rect class="sym" height="6" width="6" x="-3" y="-3" /><text class="lab" transform="translate(0 11)">7</text></g><g class="a20 c2 node n14 p0" transform="translate(11.25 16.3304)"><g class="a14 leaf node n8 p0 sample" transform="translate(-7.5 17.6673)"><path class="edge" d="M 0 0 V -17.6673 H 7.5" /><rect class="sym" height="6" width="6" x="-3" y="-3" /><text class="lab" transform="translate(0 11)">8</text></g><g class="a14 leaf node n9 p0 sample" transform="translate(7.5 17.6673)"><path class="edge" d="M 0 0 V -17.6673 H -7.5" /><rect class="sym" height="6" width="6" x="-3" y="-3" /><text class="lab" transform="translate(0 11)">9</text></g><path class="edge" d="M 0 0 V -16.3304 H -11.25" /><circle class="sym" cx="0" cy="0" r="3" /><text class="lab rgt" transform="translate(3 -7.0)">14</text></g><path class="edge" d="M 0 0 V -6.82599 H -13.125" /><circle class="sym" cx="0" cy="0" r="3" /><text class="lab rgt" transform="translate(3 -7.0)">20</text></g><path class="edge" d="M 0 0 V -10.0261 H -14.0625" /><circle class="sym" cx="0" cy="0" r="3" /><text class="lab rgt" transform="translate(3 -7.0)">22</text></g><path class="edge" d="M 0 0 V -43.7501 H 52.5" /><circle class="sym" cx="0" cy="0" r="3" /><text class="lab lft" transform="translate(-3 -7.0)">23</text></g><g class="a27 c1 node n26 p0" transform="translate(52.5 12.4921)"><g class="a26 c1 node n25 p0" transform="translate(0.0 20.2292)"><g class="a25 c2 node n24 p0" transform="translate(0.0 11.0078)"><g class="a24 leaf node n2 p0 sample" transform="translate(15.9375 50.8709)"><path class="edge" d="M 0 0 V -50.8709 H -15.9375" /><rect class="sym" height="6" width="6" x="-3" y="-3" /><text class="lab" transform="translate(0 11)">2</text></g><g class="a24 c2 node n21 p0" transform="translate(-15.9375 15.4205)"><g class="a21 c1 node n12 p0" transform="translate(16.875 24.9597)"><g class="a12 leaf node n3 p0 sample" transform="translate(0.0 10.4908)"><path class="edge" d="M 0 0 V -10.4908 H 0.0" /><rect class="sym" height="6" width="6" x="-3" y="-3" /><text class="lab" transform="translate(0 11)">3</text></g><path class="edge" d="M 0 0 V -24.9597 H -16.875" /><circle class="sym" cx="0" cy="0" r="3" /><text class="lab rgt" transform="translate(3 -7.0)">12</text></g><g class="a21 c1 node n17 p0" transform="translate(-16.875 10.6226)"><g class="a17 c1 node n15 p0" transform="translate(0.0 1.56366)"><g class="a15 c2 node n11 p0" transform="translate(0.0 15.7776)"><g class="a11 leaf node n1 p0 sample" transform="translate(-11.25 7.48649)"><path class="edge" d="M 0 0 V -7.48649 H 11.25" /><rect class="sym" height="6" width="6" x="-3" y="-3" /><text class="lab" transform="translate(0 11)">1</text></g><g class="a11 c2 node n10 p0" transform="translate(11.25 0.813011)"><g class="a10 leaf node n4 p0 sample" transform="translate(-7.5 6.67348)"><path class="edge" d="M 0 0 V -6.67348 H 7.5" /><rect class="sym" height="6" width="6" x="-3" y="-3" /><text class="lab" transform="translate(0 11)">4</text></g><g class="a10 leaf node n5 p0 sample" transform="translate(7.5 6.67348)"><path class="edge" d="M 0 0 V -6.67348 H -7.5" /><rect class="sym" height="6" width="6" x="-3" y="-3" /><text class="lab" transform="translate(0 11)">5</text></g><path class="edge" d="M 0 0 V -0.813011 H -11.25" /><circle class="sym" cx="0" cy="0" r="3" /><text class="lab rgt" transform="translate(3 -7.0)">10</text></g><path class="edge" d="M 0 0 V -15.7776 H 0.0" /><circle class="sym" cx="0" cy="0" r="3" /><text class="lab lft" transform="translate(-3 -7.0)">11</text></g><path class="edge" d="M 0 0 V -1.56366 H 0.0" /><circle class="sym" cx="0" cy="0" r="3" /><text class="lab lft" transform="translate(-3 -7.0)">15</text></g><path class="edge" d="M 0 0 V -10.6226 H 16.875" /><circle class="sym" cx="0" cy="0" r="3" /><text class="lab lft" transform="translate(-3 -7.0)">17</text></g><path class="edge" d="M 0 0 V -15.4205 H 15.9375" /><circle class="sym" cx="0" cy="0" r="3" /><text class="lab lft" transform="translate(-3 -7.0)">21</text></g><path class="edge" d="M 0 0 V -11.0078 H 0.0" /><circle class="sym" cx="0" cy="0" r="3" /><text class="lab lft" transform="translate(-3 -7.0)">24</text></g><path class="edge" d="M 0 0 V -20.2292 H 0.0" /><circle class="sym" cx="0" cy="0" r="3" /><text class="lab lft" transform="translate(-3 -7.0)">25</text></g><path class="edge" d="M 0 0 V -12.4921 H -52.5" /><circle class="sym" cx="0" cy="0" r="3" /><text class="lab rgt" transform="translate(3 -7.0)">26</text></g><circle class="sym" cx="0" cy="0" r="3" /><text class="lab" transform="translate(0 -11)">27</text></g></g></g><g class="tree t1" transform="translate(210 0)"><g class="plotbox"><g class="c2 node n27 p0 root" transform="translate(87.9688 26.8)"><g class="a27 c2 node n23 p0" transform="translate(-46.4062 43.7501)"><g class="a23 c1 node n18 p0" transform="translate(-14.0625 16.8713)"><g class="a18 leaf node n0 p0 sample" transform="translate(0.0 33.9786)"><path class="edge" d="M 0 0 V -33.9786 H 0.0" /><rect class="sym" height="6" width="6" x="-3" y="-3" /><text class="lab" transform="translate(0 11)">0</text></g><path class="edge" d="M 0 0 V -16.8713 H 14.0625" /><circle class="sym" cx="0" cy="0" r="3" /><text class="lab lft" transform="translate(-3 -7.0)">18</text></g><g class="a23 c2 node n22 p0" transform="translate(14.0625 10.0261)"><g class="a22 leaf node n6 p0 sample" transform="translate(-13.125 40.8238)"><path class="edge" d="M 0 0 V -40.8238 H 13.125" /><rect class="sym" height="6" width="6" x="-3" y="-3" /><text class="lab" transform="translate(0 11)">6</text></g><g class="a22 c2 node n20 p0" transform="translate(13.125 6.82599)"><g class="a20 leaf node n7 p0 sample" transform="translate(-11.25 33.9978)"><path class="edge" d="M 0 0 V -33.9978 H 11.25" /><rect class="sym" height="6" width="6" x="-3" y="-3" /><text class="lab" transform="translate(0 11)">7</text></g><g class="a20 c2 node n14 p0" transform="translate(11.25 16.3304)"><g class="a14 leaf node n8 p0 sample" transform="translate(-7.5 17.6673)"><path class="edge" d="M 0 0 V -17.6673 H 7.5" /><rect class="sym" height="6" width="6" x="-3" y="-3" /><text class="lab" transform="translate(0 11)">8</text></g><g class="a14 leaf node n9 p0 sample" transform="translate(7.5 17.6673)"><path class="edge" d="M 0 0 V -17.6673 H -7.5" /><rect class="sym" height="6" width="6" x="-3" y="-3" /><text class="lab" transform="translate(0 11)">9</text></g><path class="edge" d="M 0 0 V -16.3304 H -11.25" /><circle class="sym" cx="0" cy="0" r="3" /><text class="lab rgt" transform="translate(3 -7.0)">14</text></g><path class="edge" d="M 0 0 V -6.82599 H -13.125" /><circle class="sym" cx="0" cy="0" r="3" /><text class="lab rgt" transform="translate(3 -7.0)">20</text></g><path class="edge" d="M 0 0 V -10.0261 H -14.0625" /><circle class="sym" cx="0" cy="0" r="3" /><text class="lab rgt" transform="translate(3 -7.0)">22</text></g><path class="edge" d="M 0 0 V -43.7501 H 46.4062" /><circle class="sym" cx="0" cy="0" r="3" /><text class="lab lft" transform="translate(-3 -7.0)">23</text></g><g class="a27 c1 node n26 p0" transform="translate(46.4062 12.4921)"><g class="a26 c2 node n25 p0" transform="translate(0.0 20.2292)"><g class="a25 c2 node n24 p0" transform="translate(20.625 11.0078)"><g class="a24 leaf node n2 p0 sample" transform="translate(-7.5 50.8709)"><path class="edge" d="M 0 0 V -50.8709 H 7.5" /><rect class="sym" height="6" width="6" x="-3" y="-3" /><text class="lab" transform="translate(0 11)">2</text></g><g class="a24 c1 node n21 p0" transform="translate(7.5 15.4205)"><g class="a21 c1 node n12 p0" transform="translate(0.0 24.9597)"><g class="a12 leaf node n3 p0 sample" transform="translate(0.0 10.4908)"><path class="edge" d="M 0 0 V -10.4908 H 0.0" /><rect class="sym" height="6" width="6" x="-3" y="-3" /><text class="lab" transform="translate(0 11)">3</text></g><path class="edge" d="M 0 0 V -24.9597 H 0.0" /><circle class="sym" cx="0" cy="0" r="3" /><text class="lab lft" transform="translate(-3 -7.0)">12</text></g><path class="edge" d="M 0 0 V -15.4205 H -7.5" /><circle class="sym" cx="0" cy="0" r="3" /><text class="lab rgt" transform="translate(3 -7.0)">21</text></g><path class="edge" d="M 0 0 V -11.0078 H -20.625" /><circle class="sym" cx="0" cy="0" r="3" /><text class="lab rgt" transform="translate(3 -7.0)">24</text></g><g class="a25 c1 node n16 p0" transform="translate(-20.625 38.6146)"><g class="a16 c2 node n11 p0" transform="translate(0.0 15.7776)"><g class="a11 leaf node n1 p0 sample" transform="translate(-11.25 7.48649)"><path class="edge" d="M 0 0 V -7.48649 H 11.25" /><rect class="sym" height="6" width="6" x="-3" y="-3" /><text class="lab" transform="translate(0 11)">1</text></g><g class="a11 c2 node n10 p0" transform="translate(11.25 0.813011)"><g class="a10 leaf node n4 p0 sample" transform="translate(-7.5 6.67348)"><path class="edge" d="M 0 0 V -6.67348 H 7.5" /><rect class="sym" height="6" width="6" x="-3" y="-3" /><text class="lab" transform="translate(0 11)">4</text></g><g class="a10 leaf node n5 p0 sample" transform="translate(7.5 6.67348)"><path class="edge" d="M 0 0 V -6.67348 H -7.5" /><rect class="sym" height="6" width="6" x="-3" y="-3" /><text class="lab" transform="translate(0 11)">5</text></g><path class="edge" d="M 0 0 V -0.813011 H -11.25" /><circle class="sym" cx="0" cy="0" r="3" /><text class="lab rgt" transform="translate(3 -7.0)">10</text></g><path class="edge" d="M 0 0 V -15.7776 H 0.0" /><circle class="sym" cx="0" cy="0" r="3" /><text class="lab lft" transform="translate(-3 -7.0)">11</text></g><path class="edge" d="M 0 0 V -38.6146 H 20.625" /><circle class="sym" cx="0" cy="0" r="3" /><text class="lab lft" transform="translate(-3 -7.0)">16</text></g><path class="edge" d="M 0 0 V -20.2292 H 0.0" /><circle class="sym" cx="0" cy="0" r="3" /><text class="lab lft" transform="translate(-3 -7.0)">25</text></g><path class="edge" d="M 0 0 V -12.4921 H -46.4062" /><circle class="sym" cx="0" cy="0" r="3" /><text class="lab rgt" transform="translate(3 -7.0)">26</text></g><circle class="sym" cx="0" cy="0" r="3" /><text class="lab" transform="translate(0 -11)">27</text></g></g></g><g class="tree t2" transform="translate(400 0)"><g class="plotbox"><g class="c2 node n27 p0 root" transform="translate(87.9688 26.8)"><g class="a27 c2 node n23 p0" transform="translate(-46.4062 43.7501)"><g class="a23 c1 node n18 p0" transform="translate(-14.0625 16.8713)"><g class="a18 leaf node n0 p0 sample" transform="translate(0.0 33.9786)"><path class="edge" d="M 0 0 V -33.9786 H 0.0" /><rect class="sym" height="6" width="6" x="-3" y="-3" /><text class="lab" transform="translate(0 11)">0</text></g><path class="edge" d="M 0 0 V -16.8713 H 14.0625" /><circle class="sym" cx="0" cy="0" r="3" /><text class="lab lft" transform="translate(-3 -7.0)">18</text></g><g class="a23 c2 node n22 p0" transform="translate(14.0625 10.0261)"><g class="a22 leaf node n6 p0 sample" transform="translate(-13.125 40.8238)"><path class="edge" d="M 0 0 V -40.8238 H 13.125" /><rect class="sym" height="6" width="6" x="-3" y="-3" /><text class="lab" transform="translate(0 11)">6</text></g><g class="a22 c2 node n20 p0" transform="translate(13.125 6.82599)"><g class="a20 leaf node n7 p0 sample" transform="translate(-11.25 33.9978)"><path class="edge" d="M 0 0 V -33.9978 H 11.25" /><rect class="sym" height="6" width="6" x="-3" y="-3" /><text class="lab" transform="translate(0 11)">7</text></g><g class="a20 c2 node n14 p0" transform="translate(11.25 16.3304)"><g class="a14 leaf node n8 p0 sample" transform="translate(-7.5 17.6673)"><path class="edge" d="M 0 0 V -17.6673 H 7.5" /><rect class="sym" height="6" width="6" x="-3" y="-3" /><text class="lab" transform="translate(0 11)">8</text></g><g class="a14 leaf node n9 p0 sample" transform="translate(7.5 17.6673)"><path class="edge" d="M 0 0 V -17.6673 H -7.5" /><rect class="sym" height="6" width="6" x="-3" y="-3" /><text class="lab" transform="translate(0 11)">9</text></g><path class="edge" d="M 0 0 V -16.3304 H -11.25" /><circle class="sym" cx="0" cy="0" r="3" /><text class="lab rgt" transform="translate(3 -7.0)">14</text></g><path class="edge" d="M 0 0 V -6.82599 H -13.125" /><circle class="sym" cx="0" cy="0" r="3" /><text class="lab rgt" transform="translate(3 -7.0)">20</text></g><path class="edge" d="M 0 0 V -10.0261 H -14.0625" /><circle class="sym" cx="0" cy="0" r="3" /><text class="lab rgt" transform="translate(3 -7.0)">22</text></g><path class="edge" d="M 0 0 V -43.7501 H 46.4062" /><circle class="sym" cx="0" cy="0" r="3" /><text class="lab lft" transform="translate(-3 -7.0)">23</text></g><g class="a27 c1 node n26 p0" transform="translate(46.4062 12.4921)"><g class="a26 c2 node n25 p0" transform="translate(0.0 20.2292)"><g class="a25 c2 node n24 p0" transform="translate(20.625 11.0078)"><g class="a24 leaf node n2 p0 sample" transform="translate(-7.5 50.8709)"><path class="edge" d="M 0 0 V -50.8709 H 7.5" /><rect class="sym" height="6" width="6" x="-3" y="-3" /><text class="lab" transform="translate(0 11)">2</text></g><g class="a24 c1 node n21 p0" transform="translate(7.5 15.4205)"><g class="a21 c1 node n17 p0" transform="translate(0.0 10.6226)"><g class="a17 c1 node n13 p0" transform="translate(0.0 14.337)"><g class="a13 leaf node n3 p0 sample" transform="translate(0.0 10.4908)"><path class="edge" d="M 0 0 V -10.4908 H 0.0" /><rect class="sym" height="6" width="6" x="-3" y="-3" /><text class="lab" transform="translate(0 11)">3</text></g><path class="edge" d="M 0 0 V -14.337 H 0.0" /><circle class="sym" cx="0" cy="0" r="3" /><text class="lab lft" transform="translate(-3 -7.0)">13</text></g><path class="edge" d="M 0 0 V -10.6226 H 0.0" /><circle class="sym" cx="0" cy="0" r="3" /><text class="lab lft" transform="translate(-3 -7.0)">17</text></g><path class="edge" d="M 0 0 V -15.4205 H -7.5" /><circle class="sym" cx="0" cy="0" r="3" /><text class="lab rgt" transform="translate(3 -7.0)">21</text></g><path class="edge" d="M 0 0 V -11.0078 H -20.625" /><circle class="sym" cx="0" cy="0" r="3" /><text class="lab rgt" transform="translate(3 -7.0)">24</text></g><g class="a25 c1 node n16 p0" transform="translate(-20.625 38.6146)"><g class="a16 c2 node n11 p0" transform="translate(0.0 15.7776)"><g class="a11 leaf node n1 p0 sample" transform="translate(-11.25 7.48649)"><path class="edge" d="M 0 0 V -7.48649 H 11.25" /><rect class="sym" height="6" width="6" x="-3" y="-3" /><text class="lab" transform="translate(0 11)">1</text></g><g class="a11 c2 node n10 p0" transform="translate(11.25 0.813011)"><g class="a10 leaf node n4 p0 sample" transform="translate(-7.5 6.67348)"><path class="edge" d="M 0 0 V -6.67348 H 7.5" /><rect class="sym" height="6" width="6" x="-3" y="-3" /><text class="lab" transform="translate(0 11)">4</text></g><g class="a10 leaf node n5 p0 sample" transform="translate(7.5 6.67348)"><path class="edge" d="M 0 0 V -6.67348 H -7.5" /><rect class="sym" height="6" width="6" x="-3" y="-3" /><text class="lab" transform="translate(0 11)">5</text></g><path class="edge" d="M 0 0 V -0.813011 H -11.25" /><circle class="sym" cx="0" cy="0" r="3" /><text class="lab rgt" transform="translate(3 -7.0)">10</text></g><path class="edge" d="M 0 0 V -15.7776 H 0.0" /><circle class="sym" cx="0" cy="0" r="3" /><text class="lab lft" transform="translate(-3 -7.0)">11</text></g><path class="edge" d="M 0 0 V -38.6146 H 20.625" /><circle class="sym" cx="0" cy="0" r="3" /><text class="lab lft" transform="translate(-3 -7.0)">16</text></g><path class="edge" d="M 0 0 V -20.2292 H 0.0" /><circle class="sym" cx="0" cy="0" r="3" /><text class="lab lft" transform="translate(-3 -7.0)">25</text></g><path class="edge" d="M 0 0 V -12.4921 H -46.4062" /><circle class="sym" cx="0" cy="0" r="3" /><text class="lab rgt" transform="translate(3 -7.0)">26</text></g><circle class="sym" cx="0" cy="0" r="3" /><text class="lab" transform="translate(0 -11)">27</text></g></g></g><g class="tree t3" transform="translate(590 0)"><g class="plotbox"><g class="c2 node n27 p0 root" transform="translate(90.7812 26.8)"><g class="a27 c1 node n23 p0" transform="translate(39.8438 43.7501)"><g class="a23 c2 node n22 p0" transform="translate(0.0 10.0261)"><g class="a22 leaf node n6 p0 sample" transform="translate(-13.125 40.8238)"><path class="edge" d="M 0 0 V -40.8238 H 13.125" /><rect class="sym" height="6" width="6" x="-3" y="-3" /><text class="lab" transform="translate(0 11)">6</text></g><g class="a22 c2 node n20 p0" transform="translate(13.125 6.82599)"><g class="a20 leaf node n7 p0 sample" transform="translate(-11.25 33.9978)"><path class="edge" d="M 0 0 V -33.9978 H 11.25" /><rect class="sym" height="6" width="6" x="-3" y="-3" /><text class="lab" transform="translate(0 11)">7</text></g><g class="a20 c2 node n14 p0" transform="translate(11.25 16.3304)"><g class="a14 leaf node n8 p0 sample" transform="translate(-7.5 17.6673)"><path class="edge" d="M 0 0 V -17.6673 H 7.5" /><rect class="sym" height="6" width="6" x="-3" y="-3" /><text class="lab" transform="translate(0 11)">8</text></g><g class="a14 leaf node n9 p0 sample" transform="translate(7.5 17.6673)"><path class="edge" d="M 0 0 V -17.6673 H -7.5" /><rect class="sym" height="6" width="6" x="-3" y="-3" /><text class="lab" transform="translate(0 11)">9</text></g><path class="edge" d="M 0 0 V -16.3304 H -11.25" /><circle class="sym" cx="0" cy="0" r="3" /><text class="lab rgt" transform="translate(3 -7.0)">14</text></g><path class="edge" d="M 0 0 V -6.82599 H -13.125" /><circle class="sym" cx="0" cy="0" r="3" /><text class="lab rgt" transform="translate(3 -7.0)">20</text></g><path class="edge" d="M 0 0 V -10.0261 H 0.0" /><circle class="sym" cx="0" cy="0" r="3" /><text class="lab lft" transform="translate(-3 -7.0)">22</text></g><path class="edge" d="M 0 0 V -43.7501 H -39.8438" /><circle class="sym" cx="0" cy="0" r="3" /><text class="lab rgt" transform="translate(3 -7.0)">23</text></g><g class="a27 c2 node n26 p0" transform="translate(-39.8438 12.4921)"><g class="a26 c2 node n25 p0" transform="translate(23.4375 20.2292)"><g class="a25 c2 node n24 p0" transform="translate(20.625 11.0078)"><g class="a24 leaf node n2 p0 sample" transform="translate(-7.5 50.8709)"><path class="edge" d="M 0 0 V -50.8709 H 7.5" /><rect class="sym" height="6" width="6" x="-3" y="-3" /><text class="lab" transform="translate(0 11)">2</text></g><g class="a24 c1 node n21 p0" transform="translate(7.5 15.4205)"><g class="a21 c1 node n17 p0" transform="translate(0.0 10.6226)"><g class="a17 c1 node n13 p0" transform="translate(0.0 14.337)"><g class="a13 leaf node n3 p0 sample" transform="translate(0.0 10.4908)"><path class="edge" d="M 0 0 V -10.4908 H 0.0" /><rect class="sym" height="6" width="6" x="-3" y="-3" /><text class="lab" transform="translate(0 11)">3</text></g><path class="edge" d="M 0 0 V -14.337 H 0.0" /><circle class="sym" cx="0" cy="0" r="3" /><text class="lab lft" transform="translate(-3 -7.0)">13</text></g><path class="edge" d="M 0 0 V -10.6226 H 0.0" /><circle class="sym" cx="0" cy="0" r="3" /><text class="lab lft" transform="translate(-3 -7.0)">17</text></g><path class="edge" d="M 0 0 V -15.4205 H -7.5" /><circle class="sym" cx="0" cy="0" r="3" /><text class="lab rgt" transform="translate(3 -7.0)">21</text></g><path class="edge" d="M 0 0 V -11.0078 H -20.625" /><circle class="sym" cx="0" cy="0" r="3" /><text class="lab rgt" transform="translate(3 -7.0)">24</text></g><g class="a25 c1 node n16 p0" transform="translate(-20.625 38.6146)"><g class="a16 c2 node n11 p0" transform="translate(0.0 15.7776)"><g class="a11 leaf node n1 p0 sample" transform="translate(-11.25 7.48649)"><path class="edge" d="M 0 0 V -7.48649 H 11.25" /><rect class="sym" height="6" width="6" x="-3" y="-3" /><text class="lab" transform="translate(0 11)">1</text></g><g class="a11 c2 node n10 p0" transform="translate(11.25 0.813011)"><g class="a10 leaf node n4 p0 sample" transform="translate(-7.5 6.67348)"><path class="edge" d="M 0 0 V -6.67348 H 7.5" /><rect class="sym" height="6" width="6" x="-3" y="-3" /><text class="lab" transform="translate(0 11)">4</text></g><g class="a10 leaf node n5 p0 sample" transform="translate(7.5 6.67348)"><path class="edge" d="M 0 0 V -6.67348 H -7.5" /><rect class="sym" height="6" width="6" x="-3" y="-3" /><text class="lab" transform="translate(0 11)">5</text></g><path class="edge" d="M 0 0 V -0.813011 H -11.25" /><circle class="sym" cx="0" cy="0" r="3" /><text class="lab rgt" transform="translate(3 -7.0)">10</text></g><path class="edge" d="M 0 0 V -15.7776 H 0.0" /><circle class="sym" cx="0" cy="0" r="3" /><text class="lab lft" transform="translate(-3 -7.0)">11</text></g><path class="edge" d="M 0 0 V -38.6146 H 20.625" /><circle class="sym" cx="0" cy="0" r="3" /><text class="lab lft" transform="translate(-3 -7.0)">16</text></g><path class="edge" d="M 0 0 V -20.2292 H -23.4375" /><circle class="sym" cx="0" cy="0" r="3" /><text class="lab rgt" transform="translate(3 -7.0)">25</text></g><g class="a26 c1 node n19 p0" transform="translate(-23.4375 48.1294)"><g class="a19 leaf node n0 p0 sample" transform="translate(0.0 33.9786)"><path class="edge" d="M 0 0 V -33.9786 H 0.0" /><rect class="sym" height="6" width="6" x="-3" y="-3" /><text class="lab" transform="translate(0 11)">0</text></g><path class="edge" d="M 0 0 V -48.1294 H 23.4375" /><circle class="sym" cx="0" cy="0" r="3" /><text class="lab lft" transform="translate(-3 -7.0)">19</text></g><path class="edge" d="M 0 0 V -12.4921 H 39.8438" /><circle class="sym" cx="0" cy="0" r="3" /><text class="lab lft" transform="translate(-3 -7.0)">26</text></g><circle class="sym" cx="0" cy="0" r="3" /><text class="lab" transform="translate(0 -11)">27</text></g></g></g></g></g></svg>
