<svg baseProfile="full" height="200" version="1.1" width="1200" xmlns="http://www.w3.org/2000/svg" xmlns:ev="http://www.w3.org/2001/xml-events" xmlns:xlink="http://www.w3.org/1999/xlink"><defs><style type="text/css"><![CDATA[.background path {fill: #808080; fill-opacity: 0}.background path:nth-child(odd) {fill-opacity: .1}.axes {font-size: 14px}.x-axis .tick .lab {font-weight: bold; dominant-baseline: hanging}.axes, .tree {font-size: 14px; text-anchor: middle}.axes line, .edge {stroke: black; fill: none}.y-axis .grid {stroke: #FAFAFA}.node > .sym {fill: black; stroke: none}.site > .sym {stroke: black}.mut text {fill: red; font-style: italic}.mut.extra text {fill: hotpink}.mut line {fill: none; stroke: none}.mut .sym {fill: none; stroke: red}.mut.extra .sym {stroke: hotpink}.node .mut .sym {stroke-width: 1.5px}.tree text, .tree-sequence text {dominant-baseline: central}.plotbox .lab.lft {text-anchor: end}.plotbox .lab.rgt {text-anchor: start}]]></style></defs><g class="tree-sequence"><g class="background"><path d="M20,0 l193.333,0 l0,138.2 l489.436,25 l0,5 l-682.77,0 l0,-5 l0,-25 l0,-138.2z" /><path d="M213.333,0 l193.333,0 l0,138.2 l338.939,25 l0,5 l-42.8363,0 l0,-5 l-489.436,-25 l0,-138.2z" /><path d="M406.667,0 l193.333,0 l0,138.2 l413.712,25 l0,5 l-268.106,0 l0,-5 l-338.939,-25 l0,-138.2z" /><path d="M600,0 l193.333,0 l0,138.2 l222.301,25 l0,5 l-1.92217,0 l0,-5 l-413.712,-25 l0,-138.2z" /><path d="M793.333,0 l193.333,0 l0,138.2 l132.467,25 l0,5 l-103.499,0 l0,-5 l-222.301,-25 l0,-138.2z" /><path d="M986.667,0 l193.333,0 l0,138.2 l0,25 l0,5 l-60.8667,0 l0,-5 l-132.467,-25 l0,-138.2z" /></g><g class="axes"><g class="x-axis"><g transform="translate(600 200)"><text class="lab" text-anchor="middle" transform="translate(0 -11)">Genome position</text></g><line x1="20" x2="1180" y1="163.2" y2="163.2" /><g class="ticks"><g class="tick" transform="translate(20 163.2)"><line x1="0" x2="0" y1="0" y2="5" /><g transform="translate(0 6)"><text class="lab">0.00</text></g></g><g class="tick" transform="translate(702.77 163.2)"><line x1="0" x2="0" y1="0" y2="5" /><g transform="translate(0 6)"><text class="lab">588.59</text></g></g><g class="tick" transform="translate(745.606 163.2)"><line x1="0" x2="0" y1="0" y2="5" /><g transform="translate(0 6)"><text class="lab">625.52</text></g></g><g class="tick" transform="translate(1013.71 163.2)"><line x1="0" x2="0" y1="0" y2="5" /><g transform="translate(0 6)"><text class="lab">856.65</text></g></g><g class="tick" transform="translate(1015.63 163.2)"><line x1="0" x2="0" y1="0" y2="5" /><g transform="translate(0 6)"><text class="lab">858.31</text></g></g><g class="tick" transform="translate(1119.13 163.2)"><line x1="0" x2="0" y1="0" y2="5" /><g transform="translate(0 6)"><text class="lab">947.53</text></g></g><g class="tick" transform="translate(1180 163.2)"><line x1="0" x2="0" y1="0" y2="5" /><g transform="translate(0 6)"><text class="lab">1000.00</text></g></g></g></g></g><g class="plotbox trees"><g class="tree t0" transform="translate(20 0)"><g class="plotbox"><g class="c2 node n33 p0 root" transform="translate(134.88 26.8)"><g class="a33 c1 node n29 p0" transform="translate(30.7865 30.2552)"><g class="a29 leaf node n6 p0 sample" transform="translate(0.0 64.3448)"><path class="edge" d="M 0 0 V -64.3448 H 0.0" /><rect class="sym" height="6" width="6" x="-3" y="-3" /><text class="lab" transform="translate(0 11)">6</text></g><path class="edge" d="M 0 0 V -30.2552 H -30.7865" /><circle class="sym" cx="0" cy="0" r="3" /><text class="lab rgt" transform="translate(3 -7.0)">29</text></g><g class="a33 c2 node n32 p0" transform="translate(-30.7865 8.52089)"><g class="a32 c2 node n23 p0" transform="translate(-46.2396 37.0269)"><g class="a23 c1 node n20 p0" transform="translate(-30.1875 7.00495)"><g class="a20 leaf node n0 p0 sample" transform="translate(0.0 42.0473)"><path class="edge" d="M 0 0 V -42.0473 H 0.0" /><rect class="sym" height="6" width="6" x="-3" y="-3" /><text class="lab" transform="translate(0 11)">0</text></g><path class="edge" d="M 0 0 V -7.00495 H 30.1875" /><circle class="sym" cx="0" cy="0" r="3" /><text class="lab lft" transform="translate(-3 -7.0)">20</text></g><g class="a23 c2 node n22 p0" transform="translate(30.1875 4.29648)"><g class="a22 c2 node n15 p0" transform="translate(-33.5417 36.4891)"><g class="a15 leaf node n1 p0 sample" transform="translate(-11.5 8.26664)"><path class="edge" d="M 0 0 V -8.26664 H 11.5" /><rect class="sym" height="6" width="6" x="-3" y="-3" /><text class="lab" transform="translate(0 11)">1</text></g><g class="a15 c1 node n12 p0" transform="translate(11.5 5.53922)"><g class="a12 c2 node n11 p0" transform="translate(0.0 0.344476)"><g class="a11 leaf node n5 p0 sample" transform="translate(-7.66667 2.38294)"><path class="edge" d="M 0 0 V -2.38294 H 7.66667" /><rect class="sym" height="6" width="6" x="-3" y="-3" /><text class="lab" transform="translate(0 11)">5</text></g><g class="a11 leaf node n7 p0 sample" transform="translate(7.66667 2.38294)"><path class="edge" d="M 0 0 V -2.38294 H -7.66667" /><rect class="sym" height="6" width="6" x="-3" y="-3" /><text class="lab" transform="translate(0 11)">7</text></g><path class="edge" d="M 0 0 V -0.344476 H 0.0" /><circle class="sym" cx="0" cy="0" r="3" /><text class="lab lft" transform="translate(-3 -7.0)">11</text></g><path class="edge" d="M 0 0 V -5.53922 H -11.5" /><circle class="sym" cx="0" cy="0" r="3" /><text class="lab rgt" transform="translate(3 -7.0)">12</text></g><path class="edge" d="M 0 0 V -36.4891 H 33.5417" /><circle class="sym" cx="0" cy="0" r="3" /><text class="lab lft" transform="translate(-3 -7.0)">15</text></g><g class="a22 c2 node n19 p0" transform="translate(33.5417 14.8836)"><g class="a19 c2 node n14 p0" transform="translate(-13.4167 27.1143)"><g class="a14 leaf node n9 p0 sample" transform="translate(11.5 2.75788)"><path class="edge" d="M 0 0 V -2.75788 H -11.5" /><rect class="sym" height="6" width="6" x="-3" y="-3" /><text class="lab" transform="translate(0 11)">9</text></g><g class="a14 c2 node n10 p0" transform="translate(-11.5 1.97754)"><g class="a10 leaf node n2 p0 sample" transform="translate(-7.66667 0.780337)"><path class="edge" d="M 0 0 V -0.780337 H 7.66667" /><rect class="sym" height="6" width="6" x="-3" y="-3" /><text class="lab" transform="translate(0 11)">2</text></g><g class="a10 leaf node n8 p0 sample" transform="translate(7.66667 0.780337)"><path class="edge" d="M 0 0 V -0.780337 H -7.66667" /><rect class="sym" height="6" width="6" x="-3" y="-3" /><text class="lab" transform="translate(0 11)">8</text></g><path class="edge" d="M 0 0 V -1.97754 H 11.5" /><circle class="sym" cx="0" cy="0" r="3" /><text class="lab lft" transform="translate(-3 -7.0)">10</text></g><path class="edge" d="M 0 0 V -27.1143 H 13.4167" /><circle class="sym" cx="0" cy="0" r="3" /><text class="lab lft" transform="translate(-3 -7.0)">14</text></g><g class="a19 c1 node n16 p0" transform="translate(13.4167 20.6298)"><g class="a16 leaf node n3 p0 sample" transform="translate(0.0 9.24241)"><path class="edge" d="M 0 0 V -9.24241 H 0.0" /><rect class="sym" height="6" width="6" x="-3" y="-3" /><text class="lab" transform="translate(0 11)">3</text></g><path class="edge" d="M 0 0 V -20.6298 H -13.4167" /><circle class="sym" cx="0" cy="0" r="3" /><text class="lab rgt" transform="translate(3 -7.0)">16</text></g><path class="edge" d="M 0 0 V -14.8836 H -33.5417" /><circle class="sym" cx="0" cy="0" r="3" /><text class="lab rgt" transform="translate(3 -7.0)">19</text></g><path class="edge" d="M 0 0 V -4.29648 H -30.1875" /><circle class="sym" cx="0" cy="0" r="3" /><text class="lab rgt" transform="translate(3 -7.0)">22</text></g><path class="edge" d="M 0 0 V -37.0269 H 46.2396" /><circle class="sym" cx="0" cy="0" r="3" /><text class="lab lft" transform="translate(-3 -7.0)">23</text></g><g class="a32 c1 node n31 p0" transform="translate(46.2396 6.4813)"><g class="a31 c1 node n18 p0" transform="translate(0.0 59.923)"><g class="a18 leaf node n4 p0 sample" transform="translate(0.0 19.6749)"><path class="edge" d="M 0 0 V -19.6749 H 0.0" /><rect class="sym" height="6" width="6" x="-3" y="-3" /><text class="lab" transform="translate(0 11)">4</text></g><path class="edge" d="M 0 0 V -59.923 H 0.0" /><circle class="sym" cx="0" cy="0" r="3" /><text class="lab lft" transform="translate(-3 -7.0)">18</text></g><path class="edge" d="M 0 0 V -6.4813 H -46.2396" /><circle class="sym" cx="0" cy="0" r="3" /><text class="lab rgt" transform="translate(3 -7.0)">31</text></g><path class="edge" d="M 0 0 V -8.52089 H 30.7865" /><circle class="sym" cx="0" cy="0" r="3" /><text class="lab lft" transform="translate(-3 -7.0)">32</text></g><circle class="sym" cx="0" cy="0" r="3" /><text class="lab" transform="translate(0 -11)">33</text></g></g></g><g class="tree t1" transform="translate(213.333 0)"><g class="plotbox"><g class="c2 node n33 p0 root" transform="translate(132.125 26.8)"><g class="a33 c1 node n29 p0" transform="translate(33.5417 30.2552)"><g class="a29 leaf node n6 p0 sample" transform="translate(0.0 64.3448)"><path class="edge" d="M 0 0 V -64.3448 H 0.0" /><rect class="sym" height="6" width="6" x="-3" y="-3" /><text class="lab" transform="translate(0 11)">6</text></g><path class="edge" d="M 0 0 V -30.2552 H -33.5417" /><circle class="sym" cx="0" cy="0" r="3" /><text class="lab rgt" transform="translate(3 -7.0)">29</text></g><g class="a33 c2 node n32 p0" transform="translate(-33.5417 8.52089)"><g class="a32 c2 node n23 p0" transform="translate(-44.0833 37.0269)"><g class="a23 c1 node n20 p0" transform="translate(-26.8333 7.00495)"><g class="a20 leaf node n0 p0 sample" transform="translate(0.0 42.0473)"><path class="edge" d="M 0 0 V -42.0473 H 0.0" /><rect class="sym" height="6" width="6" x="-3" y="-3" /><text class="lab" transform="translate(0 11)">0</text></g><path class="edge" d="M 0 0 V -7.00495 H 26.8333" /><circle class="sym" cx="0" cy="0" r="3" /><text class="lab lft" transform="translate(-3 -7.0)">20</text></g><g class="a23 c2 node n22 p0" transform="translate(26.8333 4.29648)"><g class="a22 c2 node n15 p0" transform="translate(-26.8333 36.4891)"><g class="a15 leaf node n1 p0 sample" transform="translate(-11.5 8.26664)"><path class="edge" d="M 0 0 V -8.26664 H 11.5" /><rect class="sym" height="6" width="6" x="-3" y="-3" /><text class="lab" transform="translate(0 11)">1</text></g><g class="a15 c1 node n12 p0" transform="translate(11.5 5.53922)"><g class="a12 c2 node n11 p0" transform="translate(0.0 0.344476)"><g class="a11 leaf node n5 p0 sample" transform="translate(-7.66667 2.38294)"><path class="edge" d="M 0 0 V -2.38294 H 7.66667" /><rect class="sym" height="6" width="6" x="-3" y="-3" /><text class="lab" transform="translate(0 11)">5</text></g><g class="a11 leaf node n7 p0 sample" transform="translate(7.66667 2.38294)"><path class="edge" d="M 0 0 V -2.38294 H -7.66667" /><rect class="sym" height="6" width="6" x="-3" y="-3" /><text class="lab" transform="translate(0 11)">7</text></g><path class="edge" d="M 0 0 V -0.344476 H 0.0" /><circle class="sym" cx="0" cy="0" r="3" /><text class="lab lft" transform="translate(-3 -7.0)">11</text></g><path class="edge" d="M 0 0 V -5.53922 H -11.5" /><circle class="sym" cx="0" cy="0" r="3" /><text class="lab rgt" transform="translate(3 -7.0)">12</text></g><path class="edge" d="M 0 0 V -36.4891 H 26.8333" /><circle class="sym" cx="0" cy="0" r="3" /><text class="lab lft" transform="translate(-3 -7.0)">15</text></g><g class="a22 c1 node n19 p0" transform="translate(26.8333 14.8836)"><g class="a19 c2 node n14 p0" transform="translate(0.0 27.1143)"><g class="a14 leaf node n9 p0 sample" transform="translate(11.5 2.75788)"><path class="edge" d="M 0 0 V -2.75788 H -11.5" /><rect class="sym" height="6" width="6" x="-3" y="-3" /><text class="lab" transform="translate(0 11)">9</text></g><g class="a14 c2 node n10 p0" transform="translate(-11.5 1.97754)"><g class="a10 leaf node n2 p0 sample" transform="translate(-7.66667 0.780337)"><path class="edge" d="M 0 0 V -0.780337 H 7.66667" /><rect class="sym" height="6" width="6" x="-3" y="-3" /><text class="lab" transform="translate(0 11)">2</text></g><g class="a10 leaf node n8 p0 sample" transform="translate(7.66667 0.780337)"><path class="edge" d="M 0 0 V -0.780337 H -7.66667" /><rect class="sym" height="6" width="6" x="-3" y="-3" /><text class="lab" transform="translate(0 11)">8</text></g><path class="edge" d="M 0 0 V -1.97754 H 11.5" /><circle class="sym" cx="0" cy="0" r="3" /><text class="lab lft" transform="translate(-3 -7.0)">10</text></g><path class="edge" d="M 0 0 V -27.1143 H 0.0" /><circle class="sym" cx="0" cy="0" r="3" /><text class="lab lft" transform="translate(-3 -7.0)">14</text></g><path class="edge" d="M 0 0 V -14.8836 H -26.8333" /><circle class="sym" cx="0" cy="0" r="3" /><text class="lab rgt" transform="translate(3 -7.0)">19</text></g><path class="edge" d="M 0 0 V -4.29648 H -26.8333" /><circle class="sym" cx="0" cy="0" r="3" /><text class="lab rgt" transform="translate(3 -7.0)">22</text></g><path class="edge" d="M 0 0 V -37.0269 H 44.0833" /><circle class="sym" cx="0" cy="0" r="3" /><text class="lab lft" transform="translate(-3 -7.0)">23</text></g><g class="a32 c2 node n31 p0" transform="translate(44.0833 6.4813)"><g class="a31 c1 node n18 p0" transform="translate(7.66667 59.923)"><g class="a18 leaf node n4 p0 sample" transform="translate(0.0 19.6749)"><path class="edge" d="M 0 0 V -19.6749 H 0.0" /><rect class="sym" height="6" width="6" x="-3" y="-3" /><text class="lab" transform="translate(0 11)">4</text></g><path class="edge" d="M 0 0 V -59.923 H -7.66667" /><circle class="sym" cx="0" cy="0" r="3" /><text class="lab rgt" transform="translate(3 -7.0)">18</text></g><g class="a31 c1 node n30 p0" transform="translate(-7.66667 12.8619)"><g class="a30 c1 node n28 p0" transform="translate(0.0 8.62429)"><g class="a28 c1 node n17 p0" transform="translate(0.0 48.8692)"><g class="a17 leaf node n3 p0 sample" transform="translate(0.0 9.24241)"><path class="edge" d="M 0 0 V -9.24241 H 0.0" /><rect class="sym" height="6" width="6" x="-3" y="-3" /><text class="lab" transform="translate(0 11)">3</text></g><path class="edge" d="M 0 0 V -48.8692 H 0.0" /><circle class="sym" cx="0" cy="0" r="3" /><text class="lab lft" transform="translate(-3 -7.0)">17</text></g><path class="edge" d="M 0 0 V -8.62429 H 0.0" /><circle class="sym" cx="0" cy="0" r="3" /><text class="lab lft" transform="translate(-3 -7.0)">28</text></g><path class="edge" d="M 0 0 V -12.8619 H 7.66667" /><circle class="sym" cx="0" cy="0" r="3" /><text class="lab lft" transform="translate(-3 -7.0)">30</text></g><path class="edge" d="M 0 0 V -6.4813 H -44.0833" /><circle class="sym" cx="0" cy="0" r="3" /><text class="lab rgt" transform="translate(3 -7.0)">31</text></g><path class="edge" d="M 0 0 V -8.52089 H 33.5417" /><circle class="sym" cx="0" cy="0" r="3" /><text class="lab lft" transform="translate(-3 -7.0)">32</text></g><circle class="sym" cx="0" cy="0" r="3" /><text class="lab" transform="translate(0 -11)">33</text></g></g></g><g class="tree t2" transform="translate(406.667 0)"><g class="plotbox"><g class="c2 node n33 p0 root" transform="translate(122.542 26.8)"><g class="a33 c1 node n29 p0" transform="translate(43.125 30.2552)"><g class="a29 leaf node n6 p0 sample" transform="translate(0.0 64.3448)"><path class="edge" d="M 0 0 V -64.3448 H 0.0" /><rect class="sym" height="6" width="6" x="-3" y="-3" /><text class="lab" transform="translate(0 11)">6</text></g><path class="edge" d="M 0 0 V -30.2552 H -43.125" /><circle class="sym" cx="0" cy="0" r="3" /><text class="lab rgt" transform="translate(3 -7.0)">29</text></g><g class="a33 c2 node n32 p0" transform="translate(-43.125 8.52089)"><g class="a32 c1 node n23 p0" transform="translate(32.5833 37.0269)"><g class="a23 c2 node n22 p0" transform="translate(0.0 4.29648)"><g class="a22 c2 node n15 p0" transform="translate(-26.8333 36.4891)"><g class="a15 leaf node n1 p0 sample" transform="translate(-11.5 8.26664)"><path class="edge" d="M 0 0 V -8.26664 H 11.5" /><rect class="sym" height="6" width="6" x="-3" y="-3" /><text class="lab" transform="translate(0 11)">1</text></g><g class="a15 c1 node n12 p0" transform="translate(11.5 5.53922)"><g class="a12 c2 node n11 p0" transform="translate(0.0 0.344476)"><g class="a11 leaf node n5 p0 sample" transform="translate(-7.66667 2.38294)"><path class="edge" d="M 0 0 V -2.38294 H 7.66667" /><rect class="sym" height="6" width="6" x="-3" y="-3" /><text class="lab" transform="translate(0 11)">5</text></g><g class="a11 leaf node n7 p0 sample" transform="translate(7.66667 2.38294)"><path class="edge" d="M 0 0 V -2.38294 H -7.66667" /><rect class="sym" height="6" width="6" x="-3" y="-3" /><text class="lab" transform="translate(0 11)">7</text></g><path class="edge" d="M 0 0 V -0.344476 H 0.0" /><circle class="sym" cx="0" cy="0" r="3" /><text class="lab lft" transform="translate(-3 -7.0)">11</text></g><path class="edge" d="M 0 0 V -5.53922 H -11.5" /><circle class="sym" cx="0" cy="0" r="3" /><text class="lab rgt" transform="translate(3 -7.0)">12</text></g><path class="edge" d="M 0 0 V -36.4891 H 26.8333" /><circle class="sym" cx="0" cy="0" r="3" /><text class="lab lft" transform="translate(-3 -7.0)">15</text></g><g class="a22 c1 node n19 p0" transform="translate(26.8333 14.8836)"><g class="a19 c2 node n14 p0" transform="translate(0.0 27.1143)"><g class="a14 leaf node n9 p0 sample" transform="translate(11.5 2.75788)"><path class="edge" d="M 0 0 V -2.75788 H -11.5" /><rect class="sym" height="6" width="6" x="-3" y="-3" /><text class="lab" transform="translate(0 11)">9</text></g><g class="a14 c2 node n10 p0" transform="translate(-11.5 1.97754)"><g class="a10 leaf node n2 p0 sample" transform="translate(-7.66667 0.780337)"><path class="edge" d="M 0 0 V -0.780337 H 7.66667" /><rect class="sym" height="6" width="6" x="-3" y="-3" /><text class="lab" transform="translate(0 11)">2</text></g><g class="a10 leaf node n8 p0 sample" transform="translate(7.66667 0.780337)"><path class="edge" d="M 0 0 V -0.780337 H -7.66667" /><rect class="sym" height="6" width="6" x="-3" y="-3" /><text class="lab" transform="translate(0 11)">8</text></g><path class="edge" d="M 0 0 V -1.97754 H 11.5" /><circle class="sym" cx="0" cy="0" r="3" /><text class="lab lft" transform="translate(-3 -7.0)">10</text></g><path class="edge" d="M 0 0 V -27.1143 H 0.0" /><circle class="sym" cx="0" cy="0" r="3" /><text class="lab lft" transform="translate(-3 -7.0)">14</text></g><path class="edge" d="M 0 0 V -14.8836 H -26.8333" /><circle class="sym" cx="0" cy="0" r="3" /><text class="lab rgt" transform="translate(3 -7.0)">19</text></g><path class="edge" d="M 0 0 V -4.29648 H 0.0" /><circle class="sym" cx="0" cy="0" r="3" /><text class="lab lft" transform="translate(-3 -7.0)">22</text></g><path class="edge" d="M 0 0 V -37.0269 H -32.5833" /><circle class="sym" cx="0" cy="0" r="3" /><text class="lab rgt" transform="translate(3 -7.0)">23</text></g><g class="a32 c2 node n31 p0" transform="translate(-32.5833 6.4813)"><g class="a31 c1 node n18 p0" transform="translate(11.5 59.923)"><g class="a18 leaf node n4 p0 sample" transform="translate(0.0 19.6749)"><path class="edge" d="M 0 0 V -19.6749 H 0.0" /><rect class="sym" height="6" width="6" x="-3" y="-3" /><text class="lab" transform="translate(0 11)">4</text></g><path class="edge" d="M 0 0 V -59.923 H -11.5" /><circle class="sym" cx="0" cy="0" r="3" /><text class="lab rgt" transform="translate(3 -7.0)">18</text></g><g class="a31 c1 node n30 p0" transform="translate(-11.5 12.8619)"><g class="a30 c2 node n28 p0" transform="translate(0.0 8.62429)"><g class="a28 c1 node n17 p0" transform="translate(7.66667 48.8692)"><g class="a17 leaf node n3 p0 sample" transform="translate(0.0 9.24241)"><path class="edge" d="M 0 0 V -9.24241 H 0.0" /><rect class="sym" height="6" width="6" x="-3" y="-3" /><text class="lab" transform="translate(0 11)">3</text></g><path class="edge" d="M 0 0 V -48.8692 H -7.66667" /><circle class="sym" cx="0" cy="0" r="3" /><text class="lab rgt" transform="translate(3 -7.0)">17</text></g><g class="a28 c1 node n26 p0" transform="translate(-7.66667 1.19597)"><g class="a26 c1 node n24 p0" transform="translate(0.0 4.05116)"><g class="a24 c1 node n21 p0" transform="translate(0.0 10.8172)"><g class="a21 leaf node n0 p0 sample" transform="translate(0.0 42.0473)"><path class="edge" d="M 0 0 V -42.0473 H 0.0" /><rect class="sym" height="6" width="6" x="-3" y="-3" /><text class="lab" transform="translate(0 11)">0</text></g><path class="edge" d="M 0 0 V -10.8172 H 0.0" /><circle class="sym" cx="0" cy="0" r="3" /><text class="lab lft" transform="translate(-3 -7.0)">21</text></g><path class="edge" d="M 0 0 V -4.05116 H 0.0" /><circle class="sym" cx="0" cy="0" r="3" /><text class="lab lft" transform="translate(-3 -7.0)">24</text></g><path class="edge" d="M 0 0 V -1.19597 H 7.66667" /><circle class="sym" cx="0" cy="0" r="3" /><text class="lab lft" transform="translate(-3 -7.0)">26</text></g><path class="edge" d="M 0 0 V -8.62429 H 0.0" /><circle class="sym" cx="0" cy="0" r="3" /><text class="lab lft" transform="translate(-3 -7.0)">28</text></g><path class="edge" d="M 0 0 V -12.8619 H 11.5" /><circle class="sym" cx="0" cy="0" r="3" /><text class="lab lft" transform="translate(-3 -7.0)">30</text></g><path class="edge" d="M 0 0 V -6.4813 H 32.5833" /><circle class="sym" cx="0" cy="0" r="3" /><text class="lab lft" transform="translate(-3 -7.0)">31</text></g><path class="edge" d="M 0 0 V -8.52089 H 43.125" /><circle class="sym" cx="0" cy="0" r="3" /><text class="lab lft" transform="translate(-3 -7.0)">32</text></g><circle class="sym" cx="0" cy="0" r="3" /><text class="lab" transform="translate(0 -11)">33</text></g></g></g><g class="tree t3" transform="translate(600 0)"><g class="plotbox"><g class="c2 node n33 p0 root" transform="translate(126.375 26.8)"><g class="a33 c1 node n29 p0" transform="translate(39.2917 30.2552)"><g class="a29 leaf node n6 p0 sample" transform="translate(0.0 64.3448)"><path class="edge" d="M 0 0 V -64.3448 H 0.0" /><rect class="sym" height="6" width="6" x="-3" y="-3" /><text class="lab" transform="translate(0 11)">6</text></g><path class="edge" d="M 0 0 V -30.2552 H -39.2917" /><circle class="sym" cx="0" cy="0" r="3" /><text class="lab rgt" transform="translate(3 -7.0)">29</text></g><g class="a33 c2 node n32 p0" transform="translate(-39.2917 8.52089)"><g class="a32 c1 node n23 p0" transform="translate(34.5 37.0269)"><g class="a23 c2 node n22 p0" transform="translate(0.0 4.29648)"><g class="a22 c1 node n15 p0" transform="translate(-17.25 36.4891)"><g class="a15 leaf node n1 p0 sample" transform="translate(0.0 8.26664)"><path class="edge" d="M 0 0 V -8.26664 H 0.0" /><rect class="sym" height="6" width="6" x="-3" y="-3" /><text class="lab" transform="translate(0 11)">1</text></g><path class="edge" d="M 0 0 V -36.4891 H 17.25" /><circle class="sym" cx="0" cy="0" r="3" /><text class="lab lft" transform="translate(-3 -7.0)">15</text></g><g class="a22 c1 node n19 p0" transform="translate(17.25 14.8836)"><g class="a19 c2 node n14 p0" transform="translate(0.0 27.1143)"><g class="a14 leaf node n9 p0 sample" transform="translate(11.5 2.75788)"><path class="edge" d="M 0 0 V -2.75788 H -11.5" /><rect class="sym" height="6" width="6" x="-3" y="-3" /><text class="lab" transform="translate(0 11)">9</text></g><g class="a14 c2 node n10 p0" transform="translate(-11.5 1.97754)"><g class="a10 leaf node n2 p0 sample" transform="translate(-7.66667 0.780337)"><path class="edge" d="M 0 0 V -0.780337 H 7.66667" /><rect class="sym" height="6" width="6" x="-3" y="-3" /><text class="lab" transform="translate(0 11)">2</text></g><g class="a10 leaf node n8 p0 sample" transform="translate(7.66667 0.780337)"><path class="edge" d="M 0 0 V -0.780337 H -7.66667" /><rect class="sym" height="6" width="6" x="-3" y="-3" /><text class="lab" transform="translate(0 11)">8</text></g><path class="edge" d="M 0 0 V -1.97754 H 11.5" /><circle class="sym" cx="0" cy="0" r="3" /><text class="lab lft" transform="translate(-3 -7.0)">10</text></g><path class="edge" d="M 0 0 V -27.1143 H 0.0" /><circle class="sym" cx="0" cy="0" r="3" /><text class="lab lft" transform="translate(-3 -7.0)">14</text></g><path class="edge" d="M 0 0 V -14.8836 H -17.25" /><circle class="sym" cx="0" cy="0" r="3" /><text class="lab rgt" transform="translate(3 -7.0)">19</text></g><path class="edge" d="M 0 0 V -4.29648 H 0.0" /><circle class="sym" cx="0" cy="0" r="3" /><text class="lab lft" transform="translate(-3 -7.0)">22</text></g><path class="edge" d="M 0 0 V -37.0269 H -34.5" /><circle class="sym" cx="0" cy="0" r="3" /><text class="lab rgt" transform="translate(3 -7.0)">23</text></g><g class="a32 c2 node n31 p0" transform="translate(-34.5 6.4813)"><g class="a31 c2 node n18 p0" transform="translate(17.25 59.923)"><g class="a18 leaf node n4 p0 sample" transform="translate(-11.5 19.6749)"><path class="edge" d="M 0 0 V -19.6749 H 11.5" /><rect class="sym" height="6" width="6" x="-3" y="-3" /><text class="lab" transform="translate(0 11)">4</text></g><g class="a18 c1 node n13 p0" transform="translate(11.5 16.9475)"><g class="a13 c2 node n11 p0" transform="translate(0.0 0.344476)"><g class="a11 leaf node n5 p0 sample" transform="translate(-7.66667 2.38294)"><path class="edge" d="M 0 0 V -2.38294 H 7.66667" /><rect class="sym" height="6" width="6" x="-3" y="-3" /><text class="lab" transform="translate(0 11)">5</text></g><g class="a11 leaf node n7 p0 sample" transform="translate(7.66667 2.38294)"><path class="edge" d="M 0 0 V -2.38294 H -7.66667" /><rect class="sym" height="6" width="6" x="-3" y="-3" /><text class="lab" transform="translate(0 11)">7</text></g><path class="edge" d="M 0 0 V -0.344476 H 0.0" /><circle class="sym" cx="0" cy="0" r="3" /><text class="lab lft" transform="translate(-3 -7.0)">11</text></g><path class="edge" d="M 0 0 V -16.9475 H -11.5" /><circle class="sym" cx="0" cy="0" r="3" /><text class="lab rgt" transform="translate(3 -7.0)">13</text></g><path class="edge" d="M 0 0 V -59.923 H -17.25" /><circle class="sym" cx="0" cy="0" r="3" /><text class="lab rgt" transform="translate(3 -7.0)">18</text></g><g class="a31 c1 node n30 p0" transform="translate(-17.25 12.8619)"><g class="a30 c2 node n28 p0" transform="translate(0.0 8.62429)"><g class="a28 c1 node n17 p0" transform="translate(7.66667 48.8692)"><g class="a17 leaf node n3 p0 sample" transform="translate(0.0 9.24241)"><path class="edge" d="M 0 0 V -9.24241 H 0.0" /><rect class="sym" height="6" width="6" x="-3" y="-3" /><text class="lab" transform="translate(0 11)">3</text></g><path class="edge" d="M 0 0 V -48.8692 H -7.66667" /><circle class="sym" cx="0" cy="0" r="3" /><text class="lab rgt" transform="translate(3 -7.0)">17</text></g><g class="a28 c1 node n26 p0" transform="translate(-7.66667 1.19597)"><g class="a26 c1 node n24 p0" transform="translate(0.0 4.05116)"><g class="a24 c1 node n21 p0" transform="translate(0.0 10.8172)"><g class="a21 leaf node n0 p0 sample" transform="translate(0.0 42.0473)"><path class="edge" d="M 0 0 V -42.0473 H 0.0" /><rect class="sym" height="6" width="6" x="-3" y="-3" /><text class="lab" transform="translate(0 11)">0</text></g><path class="edge" d="M 0 0 V -10.8172 H 0.0" /><circle class="sym" cx="0" cy="0" r="3" /><text class="lab lft" transform="translate(-3 -7.0)">21</text></g><path class="edge" d="M 0 0 V -4.05116 H 0.0" /><circle class="sym" cx="0" cy="0" r="3" /><text class="lab lft" transform="translate(-3 -7.0)">24</text></g><path class="edge" d="M 0 0 V -1.19597 H 7.66667" /><circle class="sym" cx="0" cy="0" r="3" /><text class="lab lft" transform="translate(-3 -7.0)">26</text></g><path class="edge" d="M 0 0 V -8.62429 H 0.0" /><circle class="sym" cx="0" cy="0" r="3" /><text class="lab lft" transform="translate(-3 -7.0)">28</text></g><path class="edge" d="M 0 0 V -12.8619 H 17.25" /><circle class="sym" cx="0" cy="0" r="3" /><text class="lab lft" transform="translate(-3 -7.0)">30</text></g><path class="edge" d="M 0 0 V -6.4813 H 34.5" /><circle class="sym" cx="0" cy="0" r="3" /><text class="lab lft" transform="translate(-3 -7.0)">31</text></g><path class="edge" d="M 0 0 V -8.52089 H 39.2917" /><circle class="sym" cx="0" cy="0" r="3" /><text class="lab lft" transform="translate(-3 -7.0)">32</text></g><circle class="sym" cx="0" cy="0" r="3" /><text class="lab" transform="translate(0 -11)">33</text></g></g></g><g class="tree t4" transform="translate(793.333 0)"><g class="plotbox"><g class="c2 node n33 p0 root" transform="translate(126.375 26.8)"><g class="a33 c1 node n29 p0" transform="translate(39.2917 30.2552)"><g class="a29 leaf node n6 p0 sample" transform="translate(0.0 64.3448)"><path class="edge" d="M 0 0 V -64.3448 H 0.0" /><rect class="sym" height="6" width="6" x="-3" y="-3" /><text class="lab" transform="translate(0 11)">6</text></g><path class="edge" d="M 0 0 V -30.2552 H -39.2917" /><circle class="sym" cx="0" cy="0" r="3" /><text class="lab rgt" transform="translate(3 -7.0)">29</text></g><g class="a33 c2 node n32 p0" transform="translate(-39.2917 8.52089)"><g class="a32 c1 node n23 p0" transform="translate(34.5 37.0269)"><g class="a23 c2 node n22 p0" transform="translate(0.0 4.29648)"><g class="a22 c1 node n15 p0" transform="translate(-17.25 36.4891)"><g class="a15 leaf node n1 p0 sample" transform="translate(0.0 8.26664)"><path class="edge" d="M 0 0 V -8.26664 H 0.0" /><rect class="sym" height="6" width="6" x="-3" y="-3" /><text class="lab" transform="translate(0 11)">1</text></g><path class="edge" d="M 0 0 V -36.4891 H 17.25" /><circle class="sym" cx="0" cy="0" r="3" /><text class="lab lft" transform="translate(-3 -7.0)">15</text></g><g class="a22 c1 node n19 p0" transform="translate(17.25 14.8836)"><g class="a19 c2 node n14 p0" transform="translate(0.0 27.1143)"><g class="a14 leaf node n9 p0 sample" transform="translate(11.5 2.75788)"><path class="edge" d="M 0 0 V -2.75788 H -11.5" /><rect class="sym" height="6" width="6" x="-3" y="-3" /><text class="lab" transform="translate(0 11)">9</text></g><g class="a14 c2 node n10 p0" transform="translate(-11.5 1.97754)"><g class="a10 leaf node n2 p0 sample" transform="translate(-7.66667 0.780337)"><path class="edge" d="M 0 0 V -0.780337 H 7.66667" /><rect class="sym" height="6" width="6" x="-3" y="-3" /><text class="lab" transform="translate(0 11)">2</text></g><g class="a10 leaf node n8 p0 sample" transform="translate(7.66667 0.780337)"><path class="edge" d="M 0 0 V -0.780337 H -7.66667" /><rect class="sym" height="6" width="6" x="-3" y="-3" /><text class="lab" transform="translate(0 11)">8</text></g><path class="edge" d="M 0 0 V -1.97754 H 11.5" /><circle class="sym" cx="0" cy="0" r="3" /><text class="lab lft" transform="translate(-3 -7.0)">10</text></g><path class="edge" d="M 0 0 V -27.1143 H 0.0" /><circle class="sym" cx="0" cy="0" r="3" /><text class="lab lft" transform="translate(-3 -7.0)">14</text></g><path class="edge" d="M 0 0 V -14.8836 H -17.25" /><circle class="sym" cx="0" cy="0" r="3" /><text class="lab rgt" transform="translate(3 -7.0)">19</text></g><path class="edge" d="M 0 0 V -4.29648 H 0.0" /><circle class="sym" cx="0" cy="0" r="3" /><text class="lab lft" transform="translate(-3 -7.0)">22</text></g><path class="edge" d="M 0 0 V -37.0269 H -34.5" /><circle class="sym" cx="0" cy="0" r="3" /><text class="lab rgt" transform="translate(3 -7.0)">23</text></g><g class="a32 c2 node n31 p0" transform="translate(-34.5 6.4813)"><g class="a31 c2 node n18 p0" transform="translate(17.25 59.923)"><g class="a18 leaf node n4 p0 sample" transform="translate(-11.5 19.6749)"><path class="edge" d="M 0 0 V -19.6749 H 11.5" /><rect class="sym" height="6" width="6" x="-3" y="-3" /><text class="lab" transform="translate(0 11)">4</text></g><g class="a18 c1 node n13 p0" transform="translate(11.5 16.9475)"><g class="a13 c2 node n11 p0" transform="translate(0.0 0.344476)"><g class="a11 leaf node n5 p0 sample" transform="translate(-7.66667 2.38294)"><path class="edge" d="M 0 0 V -2.38294 H 7.66667" /><rect class="sym" height="6" width="6" x="-3" y="-3" /><text class="lab" transform="translate(0 11)">5</text></g><g class="a11 leaf node n7 p0 sample" transform="translate(7.66667 2.38294)"><path class="edge" d="M 0 0 V -2.38294 H -7.66667" /><rect class="sym" height="6" width="6" x="-3" y="-3" /><text class="lab" transform="translate(0 11)">7</text></g><path class="edge" d="M 0 0 V -0.344476 H 0.0" /><circle class="sym" cx="0" cy="0" r="3" /><text class="lab lft" transform="translate(-3 -7.0)">11</text></g><path class="edge" d="M 0 0 V -16.9475 H -11.5" /><circle class="sym" cx="0" cy="0" r="3" /><text class="lab rgt" transform="translate(3 -7.0)">13</text></g><path class="edge" d="M 0 0 V -59.923 H -17.25" /><circle class="sym" cx="0" cy="0" r="3" /><text class="lab rgt" transform="translate(3 -7.0)">18</text></g><g class="a31 c2 node n30 p0" transform="translate(-17.25 12.8619)"><g class="a30 c1 node n28 p0" transform="translate(7.66667 8.62429)"><g class="a28 c1 node n17 p0" transform="translate(0.0 48.8692)"><g class="a17 leaf node n3 p0 sample" transform="translate(0.0 9.24241)"><path class="edge" d="M 0 0 V -9.24241 H 0.0" /><rect class="sym" height="6" width="6" x="-3" y="-3" /><text class="lab" transform="translate(0 11)">3</text></g><path class="edge" d="M 0 0 V -48.8692 H 0.0" /><circle class="sym" cx="0" cy="0" r="3" /><text class="lab lft" transform="translate(-3 -7.0)">17</text></g><path class="edge" d="M 0 0 V -8.62429 H -7.66667" /><circle class="sym" cx="0" cy="0" r="3" /><text class="lab rgt" transform="translate(3 -7.0)">28</text></g><g class="a30 c1 node n27 p0" transform="translate(-7.66667 9.82026)"><g class="a27 c1 node n24 p0" transform="translate(0.0 4.05116)"><g class="a24 c1 node n21 p0" transform="translate(0.0 10.8172)"><g class="a21 leaf node n0 p0 sample" transform="translate(0.0 42.0473)"><path class="edge" d="M 0 0 V -42.0473 H 0.0" /><rect class="sym" height="6" width="6" x="-3" y="-3" /><text class="lab" transform="translate(0 11)">0</text></g><path class="edge" d="M 0 0 V -10.8172 H 0.0" /><circle class="sym" cx="0" cy="0" r="3" /><text class="lab lft" transform="translate(-3 -7.0)">21</text></g><path class="edge" d="M 0 0 V -4.05116 H 0.0" /><circle class="sym" cx="0" cy="0" r="3" /><text class="lab lft" transform="translate(-3 -7.0)">24</text></g><path class="edge" d="M 0 0 V -9.82026 H 7.66667" /><circle class="sym" cx="0" cy="0" r="3" /><text class="lab lft" transform="translate(-3 -7.0)">27</text></g><path class="edge" d="M 0 0 V -12.8619 H 17.25" /><circle class="sym" cx="0" cy="0" r="3" /><text class="lab lft" transform="translate(-3 -7.0)">30</text></g><path class="edge" d="M 0 0 V -6.4813 H 34.5" /><circle class="sym" cx="0" cy="0" r="3" /><text class="lab lft" transform="translate(-3 -7.0)">31</text></g><path class="edge" d="M 0 0 V -8.52089 H 39.2917" /><circle class="sym" cx="0" cy="0" r="3" /><text class="lab lft" transform="translate(-3 -7.0)">32</text></g><circle class="sym" cx="0" cy="0" r="3" /><text class="lab" transform="translate(0 -11)">33</text></g></g></g><g class="tree t5" transform="translate(986.667 0)"><g class="plotbox"><g class="c2 node n33 p0 root" transform="translate(69.8333 26.8)"><g class="a33 c2 node n29 p0" transform="translate(-34.5 30.2552)"><g class="a29 leaf node n6 p0 sample" transform="translate(7.66667 64.3448)"><path class="edge" d="M 0 0 V -64.3448 H -7.66667" /><rect class="sym" height="6" width="6" x="-3" y="-3" /><text class="lab" transform="translate(0 11)">6</text></g><g class="a29 c1 node n25 p0" transform="translate(-7.66667 11.4803)"><g class="a25 c1 node n21 p0" transform="translate(0.0 10.8172)"><g class="a21 leaf node n0 p0 sample" transform="translate(0.0 42.0473)"><path class="edge" d="M 0 0 V -42.0473 H 0.0" /><rect class="sym" height="6" width="6" x="-3" y="-3" /><text class="lab" transform="translate(0 11)">0</text></g><path class="edge" d="M 0 0 V -10.8172 H 0.0" /><circle class="sym" cx="0" cy="0" r="3" /><text class="lab lft" transform="translate(-3 -7.0)">21</text></g><path class="edge" d="M 0 0 V -11.4803 H 7.66667" /><circle class="sym" cx="0" cy="0" r="3" /><text class="lab lft" transform="translate(-3 -7.0)">25</text></g><path class="edge" d="M 0 0 V -30.2552 H 34.5" /><circle class="sym" cx="0" cy="0" r="3" /><text class="lab lft" transform="translate(-3 -7.0)">29</text></g><g class="a33 c2 node n32 p0" transform="translate(34.5 8.52089)"><g class="a32 c1 node n23 p0" transform="translate(-28.75 37.0269)"><g class="a23 c2 node n22 p0" transform="translate(0.0 4.29648)"><g class="a22 c1 node n15 p0" transform="translate(-17.25 36.4891)"><g class="a15 leaf node n1 p0 sample" transform="translate(0.0 8.26664)"><path class="edge" d="M 0 0 V -8.26664 H 0.0" /><rect class="sym" height="6" width="6" x="-3" y="-3" /><text class="lab" transform="translate(0 11)">1</text></g><path class="edge" d="M 0 0 V -36.4891 H 17.25" /><circle class="sym" cx="0" cy="0" r="3" /><text class="lab lft" transform="translate(-3 -7.0)">15</text></g><g class="a22 c1 node n19 p0" transform="translate(17.25 14.8836)"><g class="a19 c2 node n14 p0" transform="translate(0.0 27.1143)"><g class="a14 leaf node n9 p0 sample" transform="translate(11.5 2.75788)"><path class="edge" d="M 0 0 V -2.75788 H -11.5" /><rect class="sym" height="6" width="6" x="-3" y="-3" /><text class="lab" transform="translate(0 11)">9</text></g><g class="a14 c2 node n10 p0" transform="translate(-11.5 1.97754)"><g class="a10 leaf node n2 p0 sample" transform="translate(-7.66667 0.780337)"><path class="edge" d="M 0 0 V -0.780337 H 7.66667" /><rect class="sym" height="6" width="6" x="-3" y="-3" /><text class="lab" transform="translate(0 11)">2</text></g><g class="a10 leaf node n8 p0 sample" transform="translate(7.66667 0.780337)"><path class="edge" d="M 0 0 V -0.780337 H -7.66667" /><rect class="sym" height="6" width="6" x="-3" y="-3" /><text class="lab" transform="translate(0 11)">8</text></g><path class="edge" d="M 0 0 V -1.97754 H 11.5" /><circle class="sym" cx="0" cy="0" r="3" /><text class="lab lft" transform="translate(-3 -7.0)">10</text></g><path class="edge" d="M 0 0 V -27.1143 H 0.0" /><circle class="sym" cx="0" cy="0" r="3" /><text class="lab lft" transform="translate(-3 -7.0)">14</text></g><path class="edge" d="M 0 0 V -14.8836 H -17.25" /><circle class="sym" cx="0" cy="0" r="3" /><text class="lab rgt" transform="translate(3 -7.0)">19</text></g><path class="edge" d="M 0 0 V -4.29648 H 0.0" /><circle class="sym" cx="0" cy="0" r="3" /><text class="lab lft" transform="translate(-3 -7.0)">22</text></g><path class="edge" d="M 0 0 V -37.0269 H 28.75" /><circle class="sym" cx="0" cy="0" r="3" /><text class="lab lft" transform="translate(-3 -7.0)">23</text></g><g class="a32 c2 node n31 p0" transform="translate(28.75 6.4813)"><g class="a31 c2 node n18 p0" transform="translate(13.4167 59.923)"><g class="a18 leaf node n4 p0 sample" transform="translate(-11.5 19.6749)"><path class="edge" d="M 0 0 V -19.6749 H 11.5" /><rect class="sym" height="6" width="6" x="-3" y="-3" /><text class="lab" transform="translate(0 11)">4</text></g><g class="a18 c1 node n13 p0" transform="translate(11.5 16.9475)"><g class="a13 c2 node n11 p0" transform="translate(0.0 0.344476)"><g class="a11 leaf node n5 p0 sample" transform="translate(-7.66667 2.38294)"><path class="edge" d="M 0 0 V -2.38294 H 7.66667" /><rect class="sym" height="6" width="6" x="-3" y="-3" /><text class="lab" transform="translate(0 11)">5</text></g><g class="a11 leaf node n7 p0 sample" transform="translate(7.66667 2.38294)"><path class="edge" d="M 0 0 V -2.38294 H -7.66667" /><rect class="sym" height="6" width="6" x="-3" y="-3" /><text class="lab" transform="translate(0 11)">7</text></g><path class="edge" d="M 0 0 V -0.344476 H 0.0" /><circle class="sym" cx="0" cy="0" r="3" /><text class="lab lft" transform="translate(-3 -7.0)">11</text></g><path class="edge" d="M 0 0 V -16.9475 H -11.5" /><circle class="sym" cx="0" cy="0" r="3" /><text class="lab rgt" transform="translate(3 -7.0)">13</text></g><path class="edge" d="M 0 0 V -59.923 H -13.4167" /><circle class="sym" cx="0" cy="0" r="3" /><text class="lab rgt" transform="translate(3 -7.0)">18</text></g><g class="a31 c1 node n30 p0" transform="translate(-13.4167 12.8619)"><g class="a30 c1 node n28 p0" transform="translate(0.0 8.62429)"><g class="a28 c1 node n17 p0" transform="translate(0.0 48.8692)"><g class="a17 leaf node n3 p0 sample" transform="translate(0.0 9.24241)"><path class="edge" d="M 0 0 V -9.24241 H 0.0" /><rect class="sym" height="6" width="6" x="-3" y="-3" /><text class="lab" transform="translate(0 11)">3</text></g><path class="edge" d="M 0 0 V -48.8692 H 0.0" /><circle class="sym" cx="0" cy="0" r="3" /><text class="lab lft" transform="translate(-3 -7.0)">17</text></g><path class="edge" d="M 0 0 V -8.62429 H 0.0" /><circle class="sym" cx="0" cy="0" r="3" /><text class="lab lft" transform="translate(-3 -7.0)">28</text></g><path class="edge" d="M 0 0 V -12.8619 H 13.4167" /><circle class="sym" cx="0" cy="0" r="3" /><text class="lab lft" transform="translate(-3 -7.0)">30</text></g><path class="edge" d="M 0 0 V -6.4813 H -28.75" /><circle class="sym" cx="0" cy="0" r="3" /><text class="lab rgt" transform="translate(3 -7.0)">31</text></g><path class="edge" d="M 0 0 V -8.52089 H -34.5" /><circle class="sym" cx="0" cy="0" r="3" /><text class="lab rgt" transform="translate(3 -7.0)">32</text></g><circle class="sym" cx="0" cy="0" r="3" /><text class="lab" transform="translate(0 -11)">33</text></g></g></g></g></g></svg>
