<svg baseProfile="full" height="200" version="1.1" width="1200" xmlns="http://www.w3.org/2000/svg" xmlns:ev="http://www.w3.org/2001/xml-events" xmlns:xlink="http://www.w3.org/1999/xlink"><defs><style type="text/css"><![CDATA[.background path {fill: #808080; fill-opacity: 0}.background path:nth-child(odd) {fill-opacity: .1}.axes {font-size: 14px}.x-axis .tick .lab {font-weight: bold; dominant-baseline: hanging}.axes, .tree {font-size: 14px; text-anchor: middle}.axes line, .edge {stroke: black; fill: none}.y-axis .grid {stroke: #FAFAFA}.node > .sym {fill: black; stroke: none}.site > .sym {stroke: black}.mut text {fill: red; font-style: italic}.mut.extra text {fill: hotpink}.mut line {fill: none; stroke: none}.mut .sym {fill: none; stroke: red}.mut.extra .sym {stroke: hotpink}.node .mut .sym {stroke-width: 1.5px}.tree text, .tree-sequence text {dominant-baseline: central}.plotbox .lab.lft {text-anchor: end}.plotbox .lab.rgt {text-anchor: start}]]></style></defs><g class="tree-sequence"><g class="background"><path d="M20,0 l193.333,0 l0,138.2 l128.332,25 l0,5 l-321.666,0 l0,-5 l0,-25 l0,-138.2z" /><path d="M213.333,0 l193.333,0 l0,138.2 l122.001,25 l0,5 l-187.002,0 l0,-5 l-128.332,-25 l0,-138.2z" /><path d="M406.667,0 l193.333,0 l0,138.2 l209.887,25 l0,5 l-281.22,0 l0,-5 l-122.001,-25 l0,-138.2z" /><path d="M600,0 l193.333,0 l0,138.2 l79.5328,25 l0,5 l-62.9788,0 l0,-5 l-209.887,-25 l0,-138.2z" /><path d="M793.333,0 l193.333,0 l0,138.2 l-3.61095,25 l0,5 l-110.19,0 l0,-5 l-79.5328,-25 l0,-138.2z" /><path d="M986.667,0 l193.333,0 l0,138.2 l0,25 l0,5 l-196.944,0 l0,-5 l3.61095,-25 l0,-138.2z" /></g><g class="axes"><g class="x-axis"><g transform="translate(600 200)"><text class="lab" text-anchor="middle" transform="translate(0 -11)">Genome position</text></g><line x1="20" x2="1180" y1="163.2" y2="163.2" /><g class="ticks"><g class="tick" transform="translate(20 163.2)"><line x1="0" x2="0" y1="0" y2="5" /><g transform="translate(0 6)"><text class="lab">0.00</text></g></g><g class="tick" transform="translate(341.666 163.2)"><line x1="0" x2="0" y1="0" y2="5" /><g transform="translate(0 6)"><text class="lab">277.30</text></g></g><g class="tick" transform="translate(528.668 163.2)"><line x1="0" x2="0" y1="0" y2="5" /><g transform="translate(0 6)"><text class="lab">438.51</text></g></g><g class="tick" transform="translate(809.887 163.2)"><line x1="0" x2="0" y1="0" y2="5" /><g transform="translate(0 6)"><text class="lab">680.94</text></g></g><g class="tick" transform="translate(872.866 163.2)"><line x1="0" x2="0" y1="0" y2="5" /><g transform="translate(0 6)"><text class="lab">735.23</text></g></g><g class="tick" transform="translate(983.056 163.2)"><line x1="0" x2="0" y1="0" y2="5" /><g transform="translate(0 6)"><text class="lab">830.22</text></g></g><g class="tick" transform="translate(1180 163.2)"><line x1="0" x2="0" y1="0" y2="5" /><g transform="translate(0 6)"><text class="lab">1000.00</text></g></g></g></g></g><g class="plotbox trees"><g class="tree t0" transform="translate(20 0)"><g class="plotbox"><g class="c2 node n33 p0 root" transform="translate(100.5 26.8)"><g class="a33 c2 node n31 p0" transform="translate(42.1667 55.9119)"><g class="a31 c1 node n20 p0" transform="translate(-15.3333 20.957)"><g class="a20 c2 node n11 p0" transform="translate(0.0 13.4666)"><g class="a11 leaf node n2 p0 sample" transform="translate(-7.66667 4.2645)"><path class="edge" d="M 0 0 V -4.2645 H 7.66667" /><rect class="sym" height="6" width="6" x="-3" y="-3" /><text class="lab" transform="translate(0 11)">2</text></g><g class="a11 leaf node n9 p0 sample" transform="translate(7.66667 4.2645)"><path class="edge" d="M 0 0 V -4.2645 H -7.66667" /><rect class="sym" height="6" width="6" x="-3" y="-3" /><text class="lab" transform="translate(0 11)">9</text></g><path class="edge" d="M 0 0 V -13.4666 H 0.0" /><circle class="sym" cx="0" cy="0" r="3" /><text class="lab lft" transform="translate(-3 -7.0)">11</text></g><path class="edge" d="M 0 0 V -20.957 H 15.3333" /><circle class="sym" cx="0" cy="0" r="3" /><text class="lab lft" transform="translate(-3 -7.0)">20</text></g><g class="a31 c2 node n26 p0" transform="translate(15.3333 3.71384)"><g class="a26 leaf node n6 p0 sample" transform="translate(-7.66667 34.9743)"><path class="edge" d="M 0 0 V -34.9743 H 7.66667" /><rect class="sym" height="6" width="6" x="-3" y="-3" /><text class="lab" transform="translate(0 11)">6</text></g><g class="a26 c1 node n17 p0" transform="translate(7.66667 25.0396)"><g class="a17 leaf node n7 p0 sample" transform="translate(0.0 9.93471)"><path class="edge" d="M 0 0 V -9.93471 H 0.0" /><rect class="sym" height="6" width="6" x="-3" y="-3" /><text class="lab" transform="translate(0 11)">7</text></g><path class="edge" d="M 0 0 V -25.0396 H -7.66667" /><circle class="sym" cx="0" cy="0" r="3" /><text class="lab rgt" transform="translate(3 -7.0)">17</text></g><path class="edge" d="M 0 0 V -3.71384 H -15.3333" /><circle class="sym" cx="0" cy="0" r="3" /><text class="lab rgt" transform="translate(3 -7.0)">26</text></g><path class="edge" d="M 0 0 V -55.9119 H -42.1667" /><circle class="sym" cx="0" cy="0" r="3" /><text class="lab rgt" transform="translate(3 -7.0)">31</text></g><g class="a33 c2 node n32 p0" transform="translate(-42.1667 48.9792)"><g class="a32 c1 node n29 p0" transform="translate(23 9.72577)"><g class="a29 c1 node n27 p0" transform="translate(0.0 0.326964)"><g class="a27 c2 node n23 p0" transform="translate(0.0 2.03161)"><g class="a23 c2 node n10 p0" transform="translate(15.3333 31.6813)"><g class="a10 leaf node n3 p0 sample" transform="translate(-7.66667 1.85511)"><path class="edge" d="M 0 0 V -1.85511 H 7.66667" /><rect class="sym" height="6" width="6" x="-3" y="-3" /><text class="lab" transform="translate(0 11)">3</text></g><g class="a10 leaf node n5 p0 sample" transform="translate(7.66667 1.85511)"><path class="edge" d="M 0 0 V -1.85511 H -7.66667" /><rect class="sym" height="6" width="6" x="-3" y="-3" /><text class="lab" transform="translate(0 11)">5</text></g><path class="edge" d="M 0 0 V -31.6813 H -15.3333" /><circle class="sym" cx="0" cy="0" r="3" /><text class="lab rgt" transform="translate(3 -7.0)">10</text></g><g class="a23 c2 node n21 p0" transform="translate(-15.3333 3.90794)"><g class="a21 leaf node n8 p0 sample" transform="translate(7.66667 29.6285)"><path class="edge" d="M 0 0 V -29.6285 H -7.66667" /><rect class="sym" height="6" width="6" x="-3" y="-3" /><text class="lab" transform="translate(0 11)">8</text></g><g class="a21 c1 node n12 p0" transform="translate(-7.66667 23.8583)"><g class="a12 leaf node n1 p0 sample" transform="translate(0.0 5.77017)"><path class="edge" d="M 0 0 V -5.77017 H 0.0" /><rect class="sym" height="6" width="6" x="-3" y="-3" /><text class="lab" transform="translate(0 11)">1</text></g><path class="edge" d="M 0 0 V -23.8583 H 7.66667" /><circle class="sym" cx="0" cy="0" r="3" /><text class="lab lft" transform="translate(-3 -7.0)">12</text></g><path class="edge" d="M 0 0 V -3.90794 H 15.3333" /><circle class="sym" cx="0" cy="0" r="3" /><text class="lab lft" transform="translate(-3 -7.0)">21</text></g><path class="edge" d="M 0 0 V -2.03161 H 0.0" /><circle class="sym" cx="0" cy="0" r="3" /><text class="lab lft" transform="translate(-3 -7.0)">23</text></g><path class="edge" d="M 0 0 V -0.326964 H 0.0" /><circle class="sym" cx="0" cy="0" r="3" /><text class="lab lft" transform="translate(-3 -7.0)">27</text></g><path class="edge" d="M 0 0 V -9.72577 H -23" /><circle class="sym" cx="0" cy="0" r="3" /><text class="lab rgt" transform="translate(3 -7.0)">29</text></g><g class="a32 c1 node n30 p0" transform="translate(-23 8.87967)"><g class="a30 c1 node n24 p0" transform="translate(0.0 1.94038)"><g class="a24 c2 node n22 p0" transform="translate(0.0 3.51025)"><g class="a22 c1 node n14 p0" transform="translate(-7.66667 24.448)"><g class="a14 leaf node n0 p0 sample" transform="translate(0.0 6.84252)"><path class="edge" d="M 0 0 V -6.84252 H 0.0" /><rect class="sym" height="6" width="6" x="-3" y="-3" /><text class="lab" transform="translate(0 11)">0</text></g><path class="edge" d="M 0 0 V -24.448 H 7.66667" /><circle class="sym" cx="0" cy="0" r="3" /><text class="lab lft" transform="translate(-3 -7.0)">14</text></g><g class="a22 c1 node n15 p0" transform="translate(7.66667 21.8328)"><g class="a15 leaf node n4 p0 sample" transform="translate(0.0 9.45773)"><path class="edge" d="M 0 0 V -9.45773 H 0.0" /><rect class="sym" height="6" width="6" x="-3" y="-3" /><text class="lab" transform="translate(0 11)">4</text></g><path class="edge" d="M 0 0 V -21.8328 H -7.66667" /><circle class="sym" cx="0" cy="0" r="3" /><text class="lab rgt" transform="translate(3 -7.0)">15</text></g><path class="edge" d="M 0 0 V -3.51025 H 0.0" /><circle class="sym" cx="0" cy="0" r="3" /><text class="lab lft" transform="translate(-3 -7.0)">22</text></g><path class="edge" d="M 0 0 V -1.94038 H 0.0" /><circle class="sym" cx="0" cy="0" r="3" /><text class="lab lft" transform="translate(-3 -7.0)">24</text></g><path class="edge" d="M 0 0 V -8.87967 H 23" /><circle class="sym" cx="0" cy="0" r="3" /><text class="lab lft" transform="translate(-3 -7.0)">30</text></g><path class="edge" d="M 0 0 V -48.9792 H 42.1667" /><circle class="sym" cx="0" cy="0" r="3" /><text class="lab lft" transform="translate(-3 -7.0)">32</text></g><circle class="sym" cx="0" cy="0" r="3" /><text class="lab" transform="translate(0 -11)">33</text></g></g></g><g class="tree t1" transform="translate(213.333 0)"><g class="plotbox"><g class="c2 node n33 p0 root" transform="translate(105.292 26.8)"><g class="a33 c2 node n31 p0" transform="translate(46.9583 55.9119)"><g class="a31 c2 node n20 p0" transform="translate(-13.4167 20.957)"><g class="a20 c2 node n11 p0" transform="translate(-11.5 13.4666)"><g class="a11 leaf node n2 p0 sample" transform="translate(-7.66667 4.2645)"><path class="edge" d="M 0 0 V -4.2645 H 7.66667" /><rect class="sym" height="6" width="6" x="-3" y="-3" /><text class="lab" transform="translate(0 11)">2</text></g><g class="a11 leaf node n9 p0 sample" transform="translate(7.66667 4.2645)"><path class="edge" d="M 0 0 V -4.2645 H -7.66667" /><rect class="sym" height="6" width="6" x="-3" y="-3" /><text class="lab" transform="translate(0 11)">9</text></g><path class="edge" d="M 0 0 V -13.4666 H 11.5" /><circle class="sym" cx="0" cy="0" r="3" /><text class="lab lft" transform="translate(-3 -7.0)">11</text></g><g class="a20 c1 node n19 p0" transform="translate(11.5 7.63664)"><g class="a19 c1 node n18 p0" transform="translate(0.0 0.159748)"><g class="a18 leaf node n7 p0 sample" transform="translate(0.0 9.93471)"><path class="edge" d="M 0 0 V -9.93471 H 0.0" /><rect class="sym" height="6" width="6" x="-3" y="-3" /><text class="lab" transform="translate(0 11)">7</text></g><path class="edge" d="M 0 0 V -0.159748 H 0.0" /><circle class="sym" cx="0" cy="0" r="3" /><text class="lab lft" transform="translate(-3 -7.0)">18</text></g><path class="edge" d="M 0 0 V -7.63664 H -11.5" /><circle class="sym" cx="0" cy="0" r="3" /><text class="lab rgt" transform="translate(3 -7.0)">19</text></g><path class="edge" d="M 0 0 V -20.957 H 13.4167" /><circle class="sym" cx="0" cy="0" r="3" /><text class="lab lft" transform="translate(-3 -7.0)">20</text></g><g class="a31 c1 node n26 p0" transform="translate(13.4167 3.71384)"><g class="a26 leaf node n6 p0 sample" transform="translate(0.0 34.9743)"><path class="edge" d="M 0 0 V -34.9743 H 0.0" /><rect class="sym" height="6" width="6" x="-3" y="-3" /><text class="lab" transform="translate(0 11)">6</text></g><path class="edge" d="M 0 0 V -3.71384 H -13.4167" /><circle class="sym" cx="0" cy="0" r="3" /><text class="lab rgt" transform="translate(3 -7.0)">26</text></g><path class="edge" d="M 0 0 V -55.9119 H -46.9583" /><circle class="sym" cx="0" cy="0" r="3" /><text class="lab rgt" transform="translate(3 -7.0)">31</text></g><g class="a33 c2 node n32 p0" transform="translate(-46.9583 48.9792)"><g class="a32 c1 node n29 p0" transform="translate(23 9.72577)"><g class="a29 c1 node n27 p0" transform="translate(0.0 0.326964)"><g class="a27 c2 node n23 p0" transform="translate(0.0 2.03161)"><g class="a23 c2 node n10 p0" transform="translate(15.3333 31.6813)"><g class="a10 leaf node n3 p0 sample" transform="translate(-7.66667 1.85511)"><path class="edge" d="M 0 0 V -1.85511 H 7.66667" /><rect class="sym" height="6" width="6" x="-3" y="-3" /><text class="lab" transform="translate(0 11)">3</text></g><g class="a10 leaf node n5 p0 sample" transform="translate(7.66667 1.85511)"><path class="edge" d="M 0 0 V -1.85511 H -7.66667" /><rect class="sym" height="6" width="6" x="-3" y="-3" /><text class="lab" transform="translate(0 11)">5</text></g><path class="edge" d="M 0 0 V -31.6813 H -15.3333" /><circle class="sym" cx="0" cy="0" r="3" /><text class="lab rgt" transform="translate(3 -7.0)">10</text></g><g class="a23 c2 node n21 p0" transform="translate(-15.3333 3.90794)"><g class="a21 leaf node n8 p0 sample" transform="translate(7.66667 29.6285)"><path class="edge" d="M 0 0 V -29.6285 H -7.66667" /><rect class="sym" height="6" width="6" x="-3" y="-3" /><text class="lab" transform="translate(0 11)">8</text></g><g class="a21 c1 node n12 p0" transform="translate(-7.66667 23.8583)"><g class="a12 leaf node n1 p0 sample" transform="translate(0.0 5.77017)"><path class="edge" d="M 0 0 V -5.77017 H 0.0" /><rect class="sym" height="6" width="6" x="-3" y="-3" /><text class="lab" transform="translate(0 11)">1</text></g><path class="edge" d="M 0 0 V -23.8583 H 7.66667" /><circle class="sym" cx="0" cy="0" r="3" /><text class="lab lft" transform="translate(-3 -7.0)">12</text></g><path class="edge" d="M 0 0 V -3.90794 H 15.3333" /><circle class="sym" cx="0" cy="0" r="3" /><text class="lab lft" transform="translate(-3 -7.0)">21</text></g><path class="edge" d="M 0 0 V -2.03161 H 0.0" /><circle class="sym" cx="0" cy="0" r="3" /><text class="lab lft" transform="translate(-3 -7.0)">23</text></g><path class="edge" d="M 0 0 V -0.326964 H 0.0" /><circle class="sym" cx="0" cy="0" r="3" /><text class="lab lft" transform="translate(-3 -7.0)">27</text></g><path class="edge" d="M 0 0 V -9.72577 H -23" /><circle class="sym" cx="0" cy="0" r="3" /><text class="lab rgt" transform="translate(3 -7.0)">29</text></g><g class="a32 c1 node n30 p0" transform="translate(-23 8.87967)"><g class="a30 c1 node n24 p0" transform="translate(0.0 1.94038)"><g class="a24 c2 node n22 p0" transform="translate(0.0 3.51025)"><g class="a22 c1 node n14 p0" transform="translate(-7.66667 24.448)"><g class="a14 leaf node n0 p0 sample" transform="translate(0.0 6.84252)"><path class="edge" d="M 0 0 V -6.84252 H 0.0" /><rect class="sym" height="6" width="6" x="-3" y="-3" /><text class="lab" transform="translate(0 11)">0</text></g><path class="edge" d="M 0 0 V -24.448 H 7.66667" /><circle class="sym" cx="0" cy="0" r="3" /><text class="lab lft" transform="translate(-3 -7.0)">14</text></g><g class="a22 c1 node n15 p0" transform="translate(7.66667 21.8328)"><g class="a15 leaf node n4 p0 sample" transform="translate(0.0 9.45773)"><path class="edge" d="M 0 0 V -9.45773 H 0.0" /><rect class="sym" height="6" width="6" x="-3" y="-3" /><text class="lab" transform="translate(0 11)">4</text></g><path class="edge" d="M 0 0 V -21.8328 H -7.66667" /><circle class="sym" cx="0" cy="0" r="3" /><text class="lab rgt" transform="translate(3 -7.0)">15</text></g><path class="edge" d="M 0 0 V -3.51025 H 0.0" /><circle class="sym" cx="0" cy="0" r="3" /><text class="lab lft" transform="translate(-3 -7.0)">22</text></g><path class="edge" d="M 0 0 V -1.94038 H 0.0" /><circle class="sym" cx="0" cy="0" r="3" /><text class="lab lft" transform="translate(-3 -7.0)">24</text></g><path class="edge" d="M 0 0 V -8.87967 H 23" /><circle class="sym" cx="0" cy="0" r="3" /><text class="lab lft" transform="translate(-3 -7.0)">30</text></g><path class="edge" d="M 0 0 V -48.9792 H 46.9583" /><circle class="sym" cx="0" cy="0" r="3" /><text class="lab lft" transform="translate(-3 -7.0)">32</text></g><circle class="sym" cx="0" cy="0" r="3" /><text class="lab" transform="translate(0 -11)">33</text></g></g></g><g class="tree t2" transform="translate(406.667 0)"><g class="plotbox"><g class="c2 node n33 p0 root" transform="translate(96.6667 26.8)"><g class="a33 c2 node n31 p0" transform="translate(49.8333 55.9119)"><g class="a31 c2 node n20 p0" transform="translate(-19.1667 20.957)"><g class="a20 c2 node n11 p0" transform="translate(-15.3333 13.4666)"><g class="a11 leaf node n2 p0 sample" transform="translate(-7.66667 4.2645)"><path class="edge" d="M 0 0 V -4.2645 H 7.66667" /><rect class="sym" height="6" width="6" x="-3" y="-3" /><text class="lab" transform="translate(0 11)">2</text></g><g class="a11 leaf node n9 p0 sample" transform="translate(7.66667 4.2645)"><path class="edge" d="M 0 0 V -4.2645 H -7.66667" /><rect class="sym" height="6" width="6" x="-3" y="-3" /><text class="lab" transform="translate(0 11)">9</text></g><path class="edge" d="M 0 0 V -13.4666 H 15.3333" /><circle class="sym" cx="0" cy="0" r="3" /><text class="lab lft" transform="translate(-3 -7.0)">11</text></g><g class="a20 c2 node n19 p0" transform="translate(15.3333 7.63664)"><g class="a19 c1 node n18 p0" transform="translate(7.66667 0.159748)"><g class="a18 leaf node n7 p0 sample" transform="translate(0.0 9.93471)"><path class="edge" d="M 0 0 V -9.93471 H 0.0" /><rect class="sym" height="6" width="6" x="-3" y="-3" /><text class="lab" transform="translate(0 11)">7</text></g><path class="edge" d="M 0 0 V -0.159748 H -7.66667" /><circle class="sym" cx="0" cy="0" r="3" /><text class="lab rgt" transform="translate(3 -7.0)">18</text></g><g class="a19 c1 node n16 p0" transform="translate(-7.66667 0.636722)"><g class="a16 leaf node n4 p0 sample" transform="translate(0.0 9.45773)"><path class="edge" d="M 0 0 V -9.45773 H 0.0" /><rect class="sym" height="6" width="6" x="-3" y="-3" /><text class="lab" transform="translate(0 11)">4</text></g><path class="edge" d="M 0 0 V -0.636722 H 7.66667" /><circle class="sym" cx="0" cy="0" r="3" /><text class="lab lft" transform="translate(-3 -7.0)">16</text></g><path class="edge" d="M 0 0 V -7.63664 H -15.3333" /><circle class="sym" cx="0" cy="0" r="3" /><text class="lab rgt" transform="translate(3 -7.0)">19</text></g><path class="edge" d="M 0 0 V -20.957 H 19.1667" /><circle class="sym" cx="0" cy="0" r="3" /><text class="lab lft" transform="translate(-3 -7.0)">20</text></g><g class="a31 c1 node n26 p0" transform="translate(19.1667 3.71384)"><g class="a26 leaf node n6 p0 sample" transform="translate(0.0 34.9743)"><path class="edge" d="M 0 0 V -34.9743 H 0.0" /><rect class="sym" height="6" width="6" x="-3" y="-3" /><text class="lab" transform="translate(0 11)">6</text></g><path class="edge" d="M 0 0 V -3.71384 H -19.1667" /><circle class="sym" cx="0" cy="0" r="3" /><text class="lab rgt" transform="translate(3 -7.0)">26</text></g><path class="edge" d="M 0 0 V -55.9119 H -49.8333" /><circle class="sym" cx="0" cy="0" r="3" /><text class="lab rgt" transform="translate(3 -7.0)">31</text></g><g class="a33 c2 node n32 p0" transform="translate(-49.8333 48.9792)"><g class="a32 c1 node n29 p0" transform="translate(19.1667 9.72577)"><g class="a29 c1 node n27 p0" transform="translate(0.0 0.326964)"><g class="a27 c2 node n23 p0" transform="translate(0.0 2.03161)"><g class="a23 c2 node n10 p0" transform="translate(15.3333 31.6813)"><g class="a10 leaf node n3 p0 sample" transform="translate(-7.66667 1.85511)"><path class="edge" d="M 0 0 V -1.85511 H 7.66667" /><rect class="sym" height="6" width="6" x="-3" y="-3" /><text class="lab" transform="translate(0 11)">3</text></g><g class="a10 leaf node n5 p0 sample" transform="translate(7.66667 1.85511)"><path class="edge" d="M 0 0 V -1.85511 H -7.66667" /><rect class="sym" height="6" width="6" x="-3" y="-3" /><text class="lab" transform="translate(0 11)">5</text></g><path class="edge" d="M 0 0 V -31.6813 H -15.3333" /><circle class="sym" cx="0" cy="0" r="3" /><text class="lab rgt" transform="translate(3 -7.0)">10</text></g><g class="a23 c2 node n21 p0" transform="translate(-15.3333 3.90794)"><g class="a21 leaf node n8 p0 sample" transform="translate(7.66667 29.6285)"><path class="edge" d="M 0 0 V -29.6285 H -7.66667" /><rect class="sym" height="6" width="6" x="-3" y="-3" /><text class="lab" transform="translate(0 11)">8</text></g><g class="a21 c1 node n12 p0" transform="translate(-7.66667 23.8583)"><g class="a12 leaf node n1 p0 sample" transform="translate(0.0 5.77017)"><path class="edge" d="M 0 0 V -5.77017 H 0.0" /><rect class="sym" height="6" width="6" x="-3" y="-3" /><text class="lab" transform="translate(0 11)">1</text></g><path class="edge" d="M 0 0 V -23.8583 H 7.66667" /><circle class="sym" cx="0" cy="0" r="3" /><text class="lab lft" transform="translate(-3 -7.0)">12</text></g><path class="edge" d="M 0 0 V -3.90794 H 15.3333" /><circle class="sym" cx="0" cy="0" r="3" /><text class="lab lft" transform="translate(-3 -7.0)">21</text></g><path class="edge" d="M 0 0 V -2.03161 H 0.0" /><circle class="sym" cx="0" cy="0" r="3" /><text class="lab lft" transform="translate(-3 -7.0)">23</text></g><path class="edge" d="M 0 0 V -0.326964 H 0.0" /><circle class="sym" cx="0" cy="0" r="3" /><text class="lab lft" transform="translate(-3 -7.0)">27</text></g><path class="edge" d="M 0 0 V -9.72577 H -19.1667" /><circle class="sym" cx="0" cy="0" r="3" /><text class="lab rgt" transform="translate(3 -7.0)">29</text></g><g class="a32 c1 node n30 p0" transform="translate(-19.1667 8.87967)"><g class="a30 c1 node n24 p0" transform="translate(0.0 1.94038)"><g class="a24 c1 node n22 p0" transform="translate(0.0 3.51025)"><g class="a22 c1 node n14 p0" transform="translate(0.0 24.448)"><g class="a14 leaf node n0 p0 sample" transform="translate(0.0 6.84252)"><path class="edge" d="M 0 0 V -6.84252 H 0.0" /><rect class="sym" height="6" width="6" x="-3" y="-3" /><text class="lab" transform="translate(0 11)">0</text></g><path class="edge" d="M 0 0 V -24.448 H 0.0" /><circle class="sym" cx="0" cy="0" r="3" /><text class="lab lft" transform="translate(-3 -7.0)">14</text></g><path class="edge" d="M 0 0 V -3.51025 H 0.0" /><circle class="sym" cx="0" cy="0" r="3" /><text class="lab lft" transform="translate(-3 -7.0)">22</text></g><path class="edge" d="M 0 0 V -1.94038 H 0.0" /><circle class="sym" cx="0" cy="0" r="3" /><text class="lab lft" transform="translate(-3 -7.0)">24</text></g><path class="edge" d="M 0 0 V -8.87967 H 19.1667" /><circle class="sym" cx="0" cy="0" r="3" /><text class="lab lft" transform="translate(-3 -7.0)">30</text></g><path class="edge" d="M 0 0 V -48.9792 H 49.8333" /><circle class="sym" cx="0" cy="0" r="3" /><text class="lab lft" transform="translate(-3 -7.0)">32</text></g><circle class="sym" cx="0" cy="0" r="3" /><text class="lab" transform="translate(0 -11)">33</text></g></g></g><g class="tree t3" transform="translate(600 0)"><g class="plotbox"><g class="c2 node n33 p0 root" transform="translate(101.458 26.8)"><g class="a33 c2 node n31 p0" transform="translate(45.0417 55.9119)"><g class="a31 c2 node n20 p0" transform="translate(-19.1667 20.957)"><g class="a20 c2 node n11 p0" transform="translate(-15.3333 13.4666)"><g class="a11 leaf node n2 p0 sample" transform="translate(-7.66667 4.2645)"><path class="edge" d="M 0 0 V -4.2645 H 7.66667" /><rect class="sym" height="6" width="6" x="-3" y="-3" /><text class="lab" transform="translate(0 11)">2</text></g><g class="a11 leaf node n9 p0 sample" transform="translate(7.66667 4.2645)"><path class="edge" d="M 0 0 V -4.2645 H -7.66667" /><rect class="sym" height="6" width="6" x="-3" y="-3" /><text class="lab" transform="translate(0 11)">9</text></g><path class="edge" d="M 0 0 V -13.4666 H 15.3333" /><circle class="sym" cx="0" cy="0" r="3" /><text class="lab lft" transform="translate(-3 -7.0)">11</text></g><g class="a20 c2 node n19 p0" transform="translate(15.3333 7.63664)"><g class="a19 c1 node n18 p0" transform="translate(7.66667 0.159748)"><g class="a18 leaf node n7 p0 sample" transform="translate(0.0 9.93471)"><path class="edge" d="M 0 0 V -9.93471 H 0.0" /><rect class="sym" height="6" width="6" x="-3" y="-3" /><text class="lab" transform="translate(0 11)">7</text></g><path class="edge" d="M 0 0 V -0.159748 H -7.66667" /><circle class="sym" cx="0" cy="0" r="3" /><text class="lab rgt" transform="translate(3 -7.0)">18</text></g><g class="a19 c1 node n16 p0" transform="translate(-7.66667 0.636722)"><g class="a16 leaf node n4 p0 sample" transform="translate(0.0 9.45773)"><path class="edge" d="M 0 0 V -9.45773 H 0.0" /><rect class="sym" height="6" width="6" x="-3" y="-3" /><text class="lab" transform="translate(0 11)">4</text></g><path class="edge" d="M 0 0 V -0.636722 H 7.66667" /><circle class="sym" cx="0" cy="0" r="3" /><text class="lab lft" transform="translate(-3 -7.0)">16</text></g><path class="edge" d="M 0 0 V -7.63664 H -15.3333" /><circle class="sym" cx="0" cy="0" r="3" /><text class="lab rgt" transform="translate(3 -7.0)">19</text></g><path class="edge" d="M 0 0 V -20.957 H 19.1667" /><circle class="sym" cx="0" cy="0" r="3" /><text class="lab lft" transform="translate(-3 -7.0)">20</text></g><g class="a31 c1 node n26 p0" transform="translate(19.1667 3.71384)"><g class="a26 leaf node n6 p0 sample" transform="translate(0.0 34.9743)"><path class="edge" d="M 0 0 V -34.9743 H 0.0" /><rect class="sym" height="6" width="6" x="-3" y="-3" /><text class="lab" transform="translate(0 11)">6</text></g><path class="edge" d="M 0 0 V -3.71384 H -19.1667" /><circle class="sym" cx="0" cy="0" r="3" /><text class="lab rgt" transform="translate(3 -7.0)">26</text></g><path class="edge" d="M 0 0 V -55.9119 H -45.0417" /><circle class="sym" cx="0" cy="0" r="3" /><text class="lab rgt" transform="translate(3 -7.0)">31</text></g><g class="a33 c2 node n32 p0" transform="translate(-45.0417 48.9792)"><g class="a32 c1 node n29 p0" transform="translate(21.0833 9.72577)"><g class="a29 c1 node n27 p0" transform="translate(0.0 0.326964)"><g class="a27 c2 node n23 p0" transform="translate(0.0 2.03161)"><g class="a23 c2 node n10 p0" transform="translate(-11.5 31.6813)"><g class="a10 leaf node n3 p0 sample" transform="translate(-7.66667 1.85511)"><path class="edge" d="M 0 0 V -1.85511 H 7.66667" /><rect class="sym" height="6" width="6" x="-3" y="-3" /><text class="lab" transform="translate(0 11)">3</text></g><g class="a10 leaf node n5 p0 sample" transform="translate(7.66667 1.85511)"><path class="edge" d="M 0 0 V -1.85511 H -7.66667" /><rect class="sym" height="6" width="6" x="-3" y="-3" /><text class="lab" transform="translate(0 11)">5</text></g><path class="edge" d="M 0 0 V -31.6813 H 11.5" /><circle class="sym" cx="0" cy="0" r="3" /><text class="lab lft" transform="translate(-3 -7.0)">10</text></g><g class="a23 c1 node n21 p0" transform="translate(11.5 3.90794)"><g class="a21 leaf node n8 p0 sample" transform="translate(0.0 29.6285)"><path class="edge" d="M 0 0 V -29.6285 H 0.0" /><rect class="sym" height="6" width="6" x="-3" y="-3" /><text class="lab" transform="translate(0 11)">8</text></g><path class="edge" d="M 0 0 V -3.90794 H -11.5" /><circle class="sym" cx="0" cy="0" r="3" /><text class="lab rgt" transform="translate(3 -7.0)">21</text></g><path class="edge" d="M 0 0 V -2.03161 H 0.0" /><circle class="sym" cx="0" cy="0" r="3" /><text class="lab lft" transform="translate(-3 -7.0)">23</text></g><path class="edge" d="M 0 0 V -0.326964 H 0.0" /><circle class="sym" cx="0" cy="0" r="3" /><text class="lab lft" transform="translate(-3 -7.0)">27</text></g><path class="edge" d="M 0 0 V -9.72577 H -21.0833" /><circle class="sym" cx="0" cy="0" r="3" /><text class="lab rgt" transform="translate(3 -7.0)">29</text></g><g class="a32 c1 node n30 p0" transform="translate(-21.0833 8.87967)"><g class="a30 c1 node n24 p0" transform="translate(0.0 1.94038)"><g class="a24 c1 node n22 p0" transform="translate(0.0 3.51025)"><g class="a22 c2 node n14 p0" transform="translate(0.0 24.448)"><g class="a14 leaf node n0 p0 sample" transform="translate(-7.66667 6.84252)"><path class="edge" d="M 0 0 V -6.84252 H 7.66667" /><rect class="sym" height="6" width="6" x="-3" y="-3" /><text class="lab" transform="translate(0 11)">0</text></g><g class="a14 c1 node n13 p0" transform="translate(7.66667 1.07235)"><g class="a13 leaf node n1 p0 sample" transform="translate(0.0 5.77017)"><path class="edge" d="M 0 0 V -5.77017 H 0.0" /><rect class="sym" height="6" width="6" x="-3" y="-3" /><text class="lab" transform="translate(0 11)">1</text></g><path class="edge" d="M 0 0 V -1.07235 H -7.66667" /><circle class="sym" cx="0" cy="0" r="3" /><text class="lab rgt" transform="translate(3 -7.0)">13</text></g><path class="edge" d="M 0 0 V -24.448 H 0.0" /><circle class="sym" cx="0" cy="0" r="3" /><text class="lab lft" transform="translate(-3 -7.0)">14</text></g><path class="edge" d="M 0 0 V -3.51025 H 0.0" /><circle class="sym" cx="0" cy="0" r="3" /><text class="lab lft" transform="translate(-3 -7.0)">22</text></g><path class="edge" d="M 0 0 V -1.94038 H 0.0" /><circle class="sym" cx="0" cy="0" r="3" /><text class="lab lft" transform="translate(-3 -7.0)">24</text></g><path class="edge" d="M 0 0 V -8.87967 H 21.0833" /><circle class="sym" cx="0" cy="0" r="3" /><text class="lab lft" transform="translate(-3 -7.0)">30</text></g><path class="edge" d="M 0 0 V -48.9792 H 45.0417" /><circle class="sym" cx="0" cy="0" r="3" /><text class="lab lft" transform="translate(-3 -7.0)">32</text></g><circle class="sym" cx="0" cy="0" r="3" /><text class="lab" transform="translate(0 -11)">33</text></g></g></g><g class="tree t4" transform="translate(793.333 0)"><g class="plotbox"><g class="c2 node n33 p0 root" transform="translate(101.458 26.8)"><g class="a33 c2 node n31 p0" transform="translate(45.0417 55.9119)"><g class="a31 c2 node n20 p0" transform="translate(-19.1667 20.957)"><g class="a20 c2 node n11 p0" transform="translate(-15.3333 13.4666)"><g class="a11 leaf node n2 p0 sample" transform="translate(-7.66667 4.2645)"><path class="edge" d="M 0 0 V -4.2645 H 7.66667" /><rect class="sym" height="6" width="6" x="-3" y="-3" /><text class="lab" transform="translate(0 11)">2</text></g><g class="a11 leaf node n9 p0 sample" transform="translate(7.66667 4.2645)"><path class="edge" d="M 0 0 V -4.2645 H -7.66667" /><rect class="sym" height="6" width="6" x="-3" y="-3" /><text class="lab" transform="translate(0 11)">9</text></g><path class="edge" d="M 0 0 V -13.4666 H 15.3333" /><circle class="sym" cx="0" cy="0" r="3" /><text class="lab lft" transform="translate(-3 -7.0)">11</text></g><g class="a20 c2 node n19 p0" transform="translate(15.3333 7.63664)"><g class="a19 c1 node n18 p0" transform="translate(7.66667 0.159748)"><g class="a18 leaf node n7 p0 sample" transform="translate(0.0 9.93471)"><path class="edge" d="M 0 0 V -9.93471 H 0.0" /><rect class="sym" height="6" width="6" x="-3" y="-3" /><text class="lab" transform="translate(0 11)">7</text></g><path class="edge" d="M 0 0 V -0.159748 H -7.66667" /><circle class="sym" cx="0" cy="0" r="3" /><text class="lab rgt" transform="translate(3 -7.0)">18</text></g><g class="a19 c1 node n16 p0" transform="translate(-7.66667 0.636722)"><g class="a16 leaf node n4 p0 sample" transform="translate(0.0 9.45773)"><path class="edge" d="M 0 0 V -9.45773 H 0.0" /><rect class="sym" height="6" width="6" x="-3" y="-3" /><text class="lab" transform="translate(0 11)">4</text></g><path class="edge" d="M 0 0 V -0.636722 H 7.66667" /><circle class="sym" cx="0" cy="0" r="3" /><text class="lab lft" transform="translate(-3 -7.0)">16</text></g><path class="edge" d="M 0 0 V -7.63664 H -15.3333" /><circle class="sym" cx="0" cy="0" r="3" /><text class="lab rgt" transform="translate(3 -7.0)">19</text></g><path class="edge" d="M 0 0 V -20.957 H 19.1667" /><circle class="sym" cx="0" cy="0" r="3" /><text class="lab lft" transform="translate(-3 -7.0)">20</text></g><g class="a31 c1 node n26 p0" transform="translate(19.1667 3.71384)"><g class="a26 leaf node n6 p0 sample" transform="translate(0.0 34.9743)"><path class="edge" d="M 0 0 V -34.9743 H 0.0" /><rect class="sym" height="6" width="6" x="-3" y="-3" /><text class="lab" transform="translate(0 11)">6</text></g><path class="edge" d="M 0 0 V -3.71384 H -19.1667" /><circle class="sym" cx="0" cy="0" r="3" /><text class="lab rgt" transform="translate(3 -7.0)">26</text></g><path class="edge" d="M 0 0 V -55.9119 H -45.0417" /><circle class="sym" cx="0" cy="0" r="3" /><text class="lab rgt" transform="translate(3 -7.0)">31</text></g><g class="a33 c1 node n32 p0" transform="translate(-45.0417 48.9792)"><g class="a32 c2 node n30 p0" transform="translate(0.0 8.87967)"><g class="a30 c1 node n24 p0" transform="translate(-21.0833 1.94038)"><g class="a24 c1 node n22 p0" transform="translate(0.0 3.51025)"><g class="a22 c2 node n14 p0" transform="translate(0.0 24.448)"><g class="a14 leaf node n0 p0 sample" transform="translate(-7.66667 6.84252)"><path class="edge" d="M 0 0 V -6.84252 H 7.66667" /><rect class="sym" height="6" width="6" x="-3" y="-3" /><text class="lab" transform="translate(0 11)">0</text></g><g class="a14 c1 node n13 p0" transform="translate(7.66667 1.07235)"><g class="a13 leaf node n1 p0 sample" transform="translate(0.0 5.77017)"><path class="edge" d="M 0 0 V -5.77017 H 0.0" /><rect class="sym" height="6" width="6" x="-3" y="-3" /><text class="lab" transform="translate(0 11)">1</text></g><path class="edge" d="M 0 0 V -1.07235 H -7.66667" /><circle class="sym" cx="0" cy="0" r="3" /><text class="lab rgt" transform="translate(3 -7.0)">13</text></g><path class="edge" d="M 0 0 V -24.448 H 0.0" /><circle class="sym" cx="0" cy="0" r="3" /><text class="lab lft" transform="translate(-3 -7.0)">14</text></g><path class="edge" d="M 0 0 V -3.51025 H 0.0" /><circle class="sym" cx="0" cy="0" r="3" /><text class="lab lft" transform="translate(-3 -7.0)">22</text></g><path class="edge" d="M 0 0 V -1.94038 H 21.0833" /><circle class="sym" cx="0" cy="0" r="3" /><text class="lab lft" transform="translate(-3 -7.0)">24</text></g><g class="a30 c1 node n28 p0" transform="translate(21.0833 1.17307)"><g class="a28 c2 node n23 p0" transform="translate(0.0 2.03161)"><g class="a23 c2 node n10 p0" transform="translate(-11.5 31.6813)"><g class="a10 leaf node n3 p0 sample" transform="translate(-7.66667 1.85511)"><path class="edge" d="M 0 0 V -1.85511 H 7.66667" /><rect class="sym" height="6" width="6" x="-3" y="-3" /><text class="lab" transform="translate(0 11)">3</text></g><g class="a10 leaf node n5 p0 sample" transform="translate(7.66667 1.85511)"><path class="edge" d="M 0 0 V -1.85511 H -7.66667" /><rect class="sym" height="6" width="6" x="-3" y="-3" /><text class="lab" transform="translate(0 11)">5</text></g><path class="edge" d="M 0 0 V -31.6813 H 11.5" /><circle class="sym" cx="0" cy="0" r="3" /><text class="lab lft" transform="translate(-3 -7.0)">10</text></g><g class="a23 c1 node n21 p0" transform="translate(11.5 3.90794)"><g class="a21 leaf node n8 p0 sample" transform="translate(0.0 29.6285)"><path class="edge" d="M 0 0 V -29.6285 H 0.0" /><rect class="sym" height="6" width="6" x="-3" y="-3" /><text class="lab" transform="translate(0 11)">8</text></g><path class="edge" d="M 0 0 V -3.90794 H -11.5" /><circle class="sym" cx="0" cy="0" r="3" /><text class="lab rgt" transform="translate(3 -7.0)">21</text></g><path class="edge" d="M 0 0 V -2.03161 H 0.0" /><circle class="sym" cx="0" cy="0" r="3" /><text class="lab lft" transform="translate(-3 -7.0)">23</text></g><path class="edge" d="M 0 0 V -1.17307 H -21.0833" /><circle class="sym" cx="0" cy="0" r="3" /><text class="lab rgt" transform="translate(3 -7.0)">28</text></g><path class="edge" d="M 0 0 V -8.87967 H 0.0" /><circle class="sym" cx="0" cy="0" r="3" /><text class="lab lft" transform="translate(-3 -7.0)">30</text></g><path class="edge" d="M 0 0 V -48.9792 H 45.0417" /><circle class="sym" cx="0" cy="0" r="3" /><text class="lab lft" transform="translate(-3 -7.0)">32</text></g><circle class="sym" cx="0" cy="0" r="3" /><text class="lab" transform="translate(0 -11)">33</text></g></g></g><g class="tree t5" transform="translate(986.667 0)"><g class="plotbox"><g class="c2 node n33 p0 root" transform="translate(101.458 26.8)"><g class="a33 c2 node n31 p0" transform="translate(45.0417 55.9119)"><g class="a31 c2 node n20 p0" transform="translate(-19.1667 20.957)"><g class="a20 c2 node n11 p0" transform="translate(-15.3333 13.4666)"><g class="a11 leaf node n2 p0 sample" transform="translate(-7.66667 4.2645)"><path class="edge" d="M 0 0 V -4.2645 H 7.66667" /><rect class="sym" height="6" width="6" x="-3" y="-3" /><text class="lab" transform="translate(0 11)">2</text></g><g class="a11 leaf node n9 p0 sample" transform="translate(7.66667 4.2645)"><path class="edge" d="M 0 0 V -4.2645 H -7.66667" /><rect class="sym" height="6" width="6" x="-3" y="-3" /><text class="lab" transform="translate(0 11)">9</text></g><path class="edge" d="M 0 0 V -13.4666 H 15.3333" /><circle class="sym" cx="0" cy="0" r="3" /><text class="lab lft" transform="translate(-3 -7.0)">11</text></g><g class="a20 c2 node n19 p0" transform="translate(15.3333 7.63664)"><g class="a19 c1 node n18 p0" transform="translate(7.66667 0.159748)"><g class="a18 leaf node n7 p0 sample" transform="translate(0.0 9.93471)"><path class="edge" d="M 0 0 V -9.93471 H 0.0" /><rect class="sym" height="6" width="6" x="-3" y="-3" /><text class="lab" transform="translate(0 11)">7</text></g><path class="edge" d="M 0 0 V -0.159748 H -7.66667" /><circle class="sym" cx="0" cy="0" r="3" /><text class="lab rgt" transform="translate(3 -7.0)">18</text></g><g class="a19 c1 node n16 p0" transform="translate(-7.66667 0.636722)"><g class="a16 leaf node n4 p0 sample" transform="translate(0.0 9.45773)"><path class="edge" d="M 0 0 V -9.45773 H 0.0" /><rect class="sym" height="6" width="6" x="-3" y="-3" /><text class="lab" transform="translate(0 11)">4</text></g><path class="edge" d="M 0 0 V -0.636722 H 7.66667" /><circle class="sym" cx="0" cy="0" r="3" /><text class="lab lft" transform="translate(-3 -7.0)">16</text></g><path class="edge" d="M 0 0 V -7.63664 H -15.3333" /><circle class="sym" cx="0" cy="0" r="3" /><text class="lab rgt" transform="translate(3 -7.0)">19</text></g><path class="edge" d="M 0 0 V -20.957 H 19.1667" /><circle class="sym" cx="0" cy="0" r="3" /><text class="lab lft" transform="translate(-3 -7.0)">20</text></g><g class="a31 c1 node n26 p0" transform="translate(19.1667 3.71384)"><g class="a26 leaf node n6 p0 sample" transform="translate(0.0 34.9743)"><path class="edge" d="M 0 0 V -34.9743 H 0.0" /><rect class="sym" height="6" width="6" x="-3" y="-3" /><text class="lab" transform="translate(0 11)">6</text></g><path class="edge" d="M 0 0 V -3.71384 H -19.1667" /><circle class="sym" cx="0" cy="0" r="3" /><text class="lab rgt" transform="translate(3 -7.0)">26</text></g><path class="edge" d="M 0 0 V -55.9119 H -45.0417" /><circle class="sym" cx="0" cy="0" r="3" /><text class="lab rgt" transform="translate(3 -7.0)">31</text></g><g class="a33 c2 node n32 p0" transform="translate(-45.0417 48.9792)"><g class="a32 c1 node n30 p0" transform="translate(21.0833 8.87967)"><g class="a30 c1 node n28 p0" transform="translate(0.0 1.17307)"><g class="a28 c2 node n23 p0" transform="translate(0.0 2.03161)"><g class="a23 c2 node n10 p0" transform="translate(-11.5 31.6813)"><g class="a10 leaf node n3 p0 sample" transform="translate(-7.66667 1.85511)"><path class="edge" d="M 0 0 V -1.85511 H 7.66667" /><rect class="sym" height="6" width="6" x="-3" y="-3" /><text class="lab" transform="translate(0 11)">3</text></g><g class="a10 leaf node n5 p0 sample" transform="translate(7.66667 1.85511)"><path class="edge" d="M 0 0 V -1.85511 H -7.66667" /><rect class="sym" height="6" width="6" x="-3" y="-3" /><text class="lab" transform="translate(0 11)">5</text></g><path class="edge" d="M 0 0 V -31.6813 H 11.5" /><circle class="sym" cx="0" cy="0" r="3" /><text class="lab lft" transform="translate(-3 -7.0)">10</text></g><g class="a23 c1 node n21 p0" transform="translate(11.5 3.90794)"><g class="a21 leaf node n8 p0 sample" transform="translate(0.0 29.6285)"><path class="edge" d="M 0 0 V -29.6285 H 0.0" /><rect class="sym" height="6" width="6" x="-3" y="-3" /><text class="lab" transform="translate(0 11)">8</text></g><path class="edge" d="M 0 0 V -3.90794 H -11.5" /><circle class="sym" cx="0" cy="0" r="3" /><text class="lab rgt" transform="translate(3 -7.0)">21</text></g><path class="edge" d="M 0 0 V -2.03161 H 0.0" /><circle class="sym" cx="0" cy="0" r="3" /><text class="lab lft" transform="translate(-3 -7.0)">23</text></g><path class="edge" d="M 0 0 V -1.17307 H 0.0" /><circle class="sym" cx="0" cy="0" r="3" /><text class="lab lft" transform="translate(-3 -7.0)">28</text></g><path class="edge" d="M 0 0 V -8.87967 H -21.0833" /><circle class="sym" cx="0" cy="0" r="3" /><text class="lab rgt" transform="translate(3 -7.0)">30</text></g><g class="a32 c1 node n29 p0" transform="translate(-21.0833 9.72577)"><g class="a29 c1 node n25 p0" transform="translate(0.0 1.09428)"><g class="a25 c1 node n22 p0" transform="translate(0.0 3.51025)"><g class="a22 c2 node n14 p0" transform="translate(0.0 24.448)"><g class="a14 leaf node n0 p0 sample" transform="translate(-7.66667 6.84252)"><path class="edge" d="M 0 0 V -6.84252 H 7.66667" /><rect class="sym" height="6" width="6" x="-3" y="-3" /><text class="lab" transform="translate(0 11)">0</text></g><g class="a14 c1 node n13 p0" transform="translate(7.66667 1.07235)"><g class="a13 leaf node n1 p0 sample" transform="translate(0.0 5.77017)"><path class="edge" d="M 0 0 V -5.77017 H 0.0" /><rect class="sym" height="6" width="6" x="-3" y="-3" /><text class="lab" transform="translate(0 11)">1</text></g><path class="edge" d="M 0 0 V -1.07235 H -7.66667" /><circle class="sym" cx="0" cy="0" r="3" /><text class="lab rgt" transform="translate(3 -7.0)">13</text></g><path class="edge" d="M 0 0 V -24.448 H 0.0" /><circle class="sym" cx="0" cy="0" r="3" /><text class="lab lft" transform="translate(-3 -7.0)">14</text></g><path class="edge" d="M 0 0 V -3.51025 H 0.0" /><circle class="sym" cx="0" cy="0" r="3" /><text class="lab lft" transform="translate(-3 -7.0)">22</text></g><path class="edge" d="M 0 0 V -1.09428 H 0.0" /><circle class="sym" cx="0" cy="0" r="3" /><text class="lab lft" transform="translate(-3 -7.0)">25</text></g><path class="edge" d="M 0 0 V -9.72577 H 21.0833" /><circle class="sym" cx="0" cy="0" r="3" /><text class="lab lft" transform="translate(-3 -7.0)">29</text></g><path class="edge" d="M 0 0 V -48.9792 H 45.0417" /><circle class="sym" cx="0" cy="0" r="3" /><text class="lab lft" transform="translate(-3 -7.0)">32</text></g><circle class="sym" cx="0" cy="0" r="3" /><text class="lab" transform="translate(0 -11)">33</text></g></g></g></g></g></svg>
