<svg baseProfile="full" height="200" version="1.1" width="1000" xmlns="http://www.w3.org/2000/svg" xmlns:ev="http://www.w3.org/2001/xml-events" xmlns:xlink="http://www.w3.org/1999/xlink"><defs><style type="text/css"><![CDATA[.background path {fill: #808080; fill-opacity: 0}.background path:nth-child(odd) {fill-opacity: .1}.axes {font-size: 14px}.x-axis .tick .lab {font-weight: bold; dominant-baseline: hanging}.axes, .tree {font-size: 14px; text-anchor: middle}.axes line, .edge {stroke: black; fill: none}.y-axis .grid {stroke: #FAFAFA}.node > .sym {fill: black; stroke: none}.site > .sym {stroke: black}.mut text {fill: red; font-style: italic}.mut.extra text {fill: hotpink}.mut line {fill: none; stroke: none}.mut .sym {fill: none; stroke: red}.mut.extra .sym {stroke: hotpink}.node .mut .sym {stroke-width: 1.5px}.tree text, .tree-sequence text {dominant-baseline: central}.plotbox .lab.lft {text-anchor: end}.plotbox .lab.rgt {text-anchor: start}]]></style></defs><g class="tree-sequence"><g class="background"><path d="M20,0 l192,0 l0,138.2 l-105.466,25 l0,5 l-86.534,0 l0,-5 l0,-25 l0,-138.2z" /><path d="M212,0 l192,0 l0,138.2 l98.3217,25 l0,5 l-395.788,0 l0,-5 l105.466,-25 l0,-138.2z" /><path d="M404,0 l192,0 l0,138.2 l42.3961,25 l0,5 l-136.074,0 l0,-5 l-98.3217,-25 l0,-138.2z" /><path d="M596,0 l192,0 l0,138.2 l118.692,25 l0,5 l-268.295,0 l0,-5 l-42.3961,-25 l0,-138.2z" /><path d="M788,0 l192,0 l0,138.2 l0,25 l0,5 l-73.3085,0 l0,-5 l-118.692,-25 l0,-138.2z" /></g><g class="axes"><g class="x-axis"><g transform="translate(500 200)"><text class="lab" text-anchor="middle" transform="translate(0 -11)">Genome position</text></g><line x1="20" x2="980" y1="163.2" y2="163.2" /><g class="ticks"><g class="tick" transform="translate(20 163.2)"><line x1="0" x2="0" y1="0" y2="5" /><g transform="translate(0 6)"><text class="lab">0.00</text></g></g><g class="tick" transform="translate(106.534 163.2)"><line x1="0" x2="0" y1="0" y2="5" /><g transform="translate(0 6)"><text class="lab">90.14</text></g></g><g class="tick" transform="translate(502.322 163.2)"><line x1="0" x2="0" y1="0" y2="5" /><g transform="translate(0 6)"><text class="lab">502.42</text></g></g><g class="tick" transform="translate(638.396 163.2)"><line x1="0" x2="0" y1="0" y2="5" /><g transform="translate(0 6)"><text class="lab">644.16</text></g></g><g class="tick" transform="translate(906.692 163.2)"><line x1="0" x2="0" y1="0" y2="5" /><g transform="translate(0 6)"><text class="lab">923.64</text></g></g><g class="tick" transform="translate(980 163.2)"><line x1="0" x2="0" y1="0" y2="5" /><g transform="translate(0 6)"><text class="lab">1000.00</text></g></g></g></g></g><g class="plotbox trees"><g class="tree t0" transform="translate(20 0)"><g class="plotbox"><g class="c2 node n33 p0 root" transform="translate(126.4 26.8)"><g class="a33 c2 node n31 p0" transform="translate(-30.4 48.1508)"><g class="a31 c1 node n25 p0" transform="translate(-26.6 29.9666)"><g class="a25 c2 node n17 p0" transform="translate(0.0 5.86395)"><g class="a17 c2 node n15 p0" transform="translate(-19 3.13132)"><g class="a15 c2 node n11 p0" transform="translate(15.2 4.76436)"><g class="a11 leaf node n1 p0 sample" transform="translate(-7.6 2.72293)"><path class="edge" d="M 0 0 V -2.72293 H 7.6" /><rect class="sym" height="6" width="6" x="-3" y="-3" /><text class="lab" transform="translate(0 11)">1</text></g><g class="a11 leaf node n2 p0 sample" transform="translate(7.6 2.72293)"><path class="edge" d="M 0 0 V -2.72293 H -7.6" /><rect class="sym" height="6" width="6" x="-3" y="-3" /><text class="lab" transform="translate(0 11)">2</text></g><path class="edge" d="M 0 0 V -4.76436 H -15.2" /><circle class="sym" cx="0" cy="0" r="3" /><text class="lab rgt" transform="translate(3 -7.0)">11</text></g><g class="a15 c2 node n12 p0" transform="translate(-15.2 4.63178)"><g class="a12 leaf node n0 p0 sample" transform="translate(-7.6 2.85551)"><path class="edge" d="M 0 0 V -2.85551 H 7.6" /><rect class="sym" height="6" width="6" x="-3" y="-3" /><text class="lab" transform="translate(0 11)">0</text></g><g class="a12 leaf node n5 p0 sample" transform="translate(7.6 2.85551)"><path class="edge" d="M 0 0 V -2.85551 H -7.6" /><rect class="sym" height="6" width="6" x="-3" y="-3" /><text class="lab" transform="translate(0 11)">5</text></g><path class="edge" d="M 0 0 V -4.63178 H 15.2" /><circle class="sym" cx="0" cy="0" r="3" /><text class="lab lft" transform="translate(-3 -7.0)">12</text></g><path class="edge" d="M 0 0 V -3.13132 H 19" /><circle class="sym" cx="0" cy="0" r="3" /><text class="lab lft" transform="translate(-3 -7.0)">15</text></g><g class="a17 c1 node n16 p0" transform="translate(19 1.20873)"><g class="a16 leaf node n7 p0 sample" transform="translate(0.0 9.40987)"><path class="edge" d="M 0 0 V -9.40987 H 0.0" /><rect class="sym" height="6" width="6" x="-3" y="-3" /><text class="lab" transform="translate(0 11)">7</text></g><path class="edge" d="M 0 0 V -1.20873 H -19" /><circle class="sym" cx="0" cy="0" r="3" /><text class="lab rgt" transform="translate(3 -7.0)">16</text></g><path class="edge" d="M 0 0 V -5.86395 H 0.0" /><circle class="sym" cx="0" cy="0" r="3" /><text class="lab lft" transform="translate(-3 -7.0)">17</text></g><path class="edge" d="M 0 0 V -29.9666 H 26.6" /><circle class="sym" cx="0" cy="0" r="3" /><text class="lab lft" transform="translate(-3 -7.0)">25</text></g><g class="a31 c1 node n30 p0" transform="translate(26.6 1.10658)"><g class="a30 c1 node n28 p0" transform="translate(0.0 1.00464)"><g class="a28 c1 node n26 p0" transform="translate(0.0 22.8384)"><g class="a26 c2 node n20 p0" transform="translate(0.0 9.47786)"><g class="a20 c1 node n13 p0" transform="translate(-11.4 8.46664)"><g class="a13 c2 node n10 p0" transform="translate(0.0 1.48149)"><g class="a10 leaf node n4 p0 sample" transform="translate(-7.6 2.07355)"><path class="edge" d="M 0 0 V -2.07355 H 7.6" /><rect class="sym" height="6" width="6" x="-3" y="-3" /><text class="lab" transform="translate(0 11)">4</text></g><g class="a10 leaf node n9 p0 sample" transform="translate(7.6 2.07355)"><path class="edge" d="M 0 0 V -2.07355 H -7.6" /><rect class="sym" height="6" width="6" x="-3" y="-3" /><text class="lab" transform="translate(0 11)">9</text></g><path class="edge" d="M 0 0 V -1.48149 H 0.0" /><circle class="sym" cx="0" cy="0" r="3" /><text class="lab lft" transform="translate(-3 -7.0)">10</text></g><path class="edge" d="M 0 0 V -8.46664 H 11.4" /><circle class="sym" cx="0" cy="0" r="3" /><text class="lab lft" transform="translate(-3 -7.0)">13</text></g><g class="a20 c1 node n18 p0" transform="translate(11.4 0.296817)"><g class="a18 leaf node n6 p0 sample" transform="translate(0.0 11.7249)"><path class="edge" d="M 0 0 V -11.7249 H 0.0" /><rect class="sym" height="6" width="6" x="-3" y="-3" /><text class="lab" transform="translate(0 11)">6</text></g><path class="edge" d="M 0 0 V -0.296817 H -11.4" /><circle class="sym" cx="0" cy="0" r="3" /><text class="lab rgt" transform="translate(3 -7.0)">18</text></g><path class="edge" d="M 0 0 V -9.47786 H 0.0" /><circle class="sym" cx="0" cy="0" r="3" /><text class="lab lft" transform="translate(-3 -7.0)">20</text></g><path class="edge" d="M 0 0 V -22.8384 H 0.0" /><circle class="sym" cx="0" cy="0" r="3" /><text class="lab lft" transform="translate(-3 -7.0)">26</text></g><path class="edge" d="M 0 0 V -1.00464 H 0.0" /><circle class="sym" cx="0" cy="0" r="3" /><text class="lab lft" transform="translate(-3 -7.0)">28</text></g><path class="edge" d="M 0 0 V -1.10658 H -26.6" /><circle class="sym" cx="0" cy="0" r="3" /><text class="lab rgt" transform="translate(3 -7.0)">30</text></g><path class="edge" d="M 0 0 V -48.1508 H 30.4" /><circle class="sym" cx="0" cy="0" r="3" /><text class="lab lft" transform="translate(-3 -7.0)">31</text></g><g class="a33 c1 node n32 p0" transform="translate(30.4 22.2487)"><g class="a32 c2 node n27 p0" transform="translate(0.0 45.3505)"><g class="a27 leaf node n8 p0 sample" transform="translate(7.6 27.0008)"><path class="edge" d="M 0 0 V -27.0008 H -7.6" /><rect class="sym" height="6" width="6" x="-3" y="-3" /><text class="lab" transform="translate(0 11)">8</text></g><g class="a27 c1 node n23 p0" transform="translate(-7.6 11.9773)"><g class="a23 c1 node n21 p0" transform="translate(0.0 2.36592)"><g class="a21 leaf node n3 p0 sample" transform="translate(0.0 12.6576)"><path class="edge" d="M 0 0 V -12.6576 H 0.0" /><rect class="sym" height="6" width="6" x="-3" y="-3" /><text class="lab" transform="translate(0 11)">3</text></g><path class="edge" d="M 0 0 V -2.36592 H 0.0" /><circle class="sym" cx="0" cy="0" r="3" /><text class="lab lft" transform="translate(-3 -7.0)">21</text></g><path class="edge" d="M 0 0 V -11.9773 H 7.6" /><circle class="sym" cx="0" cy="0" r="3" /><text class="lab lft" transform="translate(-3 -7.0)">23</text></g><path class="edge" d="M 0 0 V -45.3505 H 0.0" /><circle class="sym" cx="0" cy="0" r="3" /><text class="lab lft" transform="translate(-3 -7.0)">27</text></g><path class="edge" d="M 0 0 V -22.2487 H -30.4" /><circle class="sym" cx="0" cy="0" r="3" /><text class="lab rgt" transform="translate(3 -7.0)">32</text></g><circle class="sym" cx="0" cy="0" r="3" /><text class="lab" transform="translate(0 -11)">33</text></g></g></g><g class="tree t1" transform="translate(212 0)"><g class="plotbox"><g class="c2 node n33 p0 root" transform="translate(131.625 26.8)"><g class="a33 c2 node n31 p0" transform="translate(-25.175 48.1508)"><g class="a31 c1 node n25 p0" transform="translate(-27.55 29.9666)"><g class="a25 c2 node n17 p0" transform="translate(0.0 5.86395)"><g class="a17 c2 node n15 p0" transform="translate(-28.5 3.13132)"><g class="a15 c2 node n11 p0" transform="translate(15.2 4.76436)"><g class="a11 leaf node n1 p0 sample" transform="translate(-7.6 2.72293)"><path class="edge" d="M 0 0 V -2.72293 H 7.6" /><rect class="sym" height="6" width="6" x="-3" y="-3" /><text class="lab" transform="translate(0 11)">1</text></g><g class="a11 leaf node n2 p0 sample" transform="translate(7.6 2.72293)"><path class="edge" d="M 0 0 V -2.72293 H -7.6" /><rect class="sym" height="6" width="6" x="-3" y="-3" /><text class="lab" transform="translate(0 11)">2</text></g><path class="edge" d="M 0 0 V -4.76436 H -15.2" /><circle class="sym" cx="0" cy="0" r="3" /><text class="lab rgt" transform="translate(3 -7.0)">11</text></g><g class="a15 c2 node n12 p0" transform="translate(-15.2 4.63178)"><g class="a12 leaf node n0 p0 sample" transform="translate(-7.6 2.85551)"><path class="edge" d="M 0 0 V -2.85551 H 7.6" /><rect class="sym" height="6" width="6" x="-3" y="-3" /><text class="lab" transform="translate(0 11)">0</text></g><g class="a12 leaf node n5 p0 sample" transform="translate(7.6 2.85551)"><path class="edge" d="M 0 0 V -2.85551 H -7.6" /><rect class="sym" height="6" width="6" x="-3" y="-3" /><text class="lab" transform="translate(0 11)">5</text></g><path class="edge" d="M 0 0 V -4.63178 H 15.2" /><circle class="sym" cx="0" cy="0" r="3" /><text class="lab lft" transform="translate(-3 -7.0)">12</text></g><path class="edge" d="M 0 0 V -3.13132 H 28.5" /><circle class="sym" cx="0" cy="0" r="3" /><text class="lab lft" transform="translate(-3 -7.0)">15</text></g><g class="a17 c2 node n16 p0" transform="translate(28.5 1.20873)"><g class="a16 leaf node n7 p0 sample" transform="translate(11.4 9.40987)"><path class="edge" d="M 0 0 V -9.40987 H -11.4" /><rect class="sym" height="6" width="6" x="-3" y="-3" /><text class="lab" transform="translate(0 11)">7</text></g><g class="a16 c1 node n14 p0" transform="translate(-11.4 5.85483)"><g class="a14 c2 node n10 p0" transform="translate(0.0 1.48149)"><g class="a10 leaf node n4 p0 sample" transform="translate(-7.6 2.07355)"><path class="edge" d="M 0 0 V -2.07355 H 7.6" /><rect class="sym" height="6" width="6" x="-3" y="-3" /><text class="lab" transform="translate(0 11)">4</text></g><g class="a10 leaf node n9 p0 sample" transform="translate(7.6 2.07355)"><path class="edge" d="M 0 0 V -2.07355 H -7.6" /><rect class="sym" height="6" width="6" x="-3" y="-3" /><text class="lab" transform="translate(0 11)">9</text></g><path class="edge" d="M 0 0 V -1.48149 H 0.0" /><circle class="sym" cx="0" cy="0" r="3" /><text class="lab lft" transform="translate(-3 -7.0)">10</text></g><path class="edge" d="M 0 0 V -5.85483 H 11.4" /><circle class="sym" cx="0" cy="0" r="3" /><text class="lab lft" transform="translate(-3 -7.0)">14</text></g><path class="edge" d="M 0 0 V -1.20873 H -28.5" /><circle class="sym" cx="0" cy="0" r="3" /><text class="lab rgt" transform="translate(3 -7.0)">16</text></g><path class="edge" d="M 0 0 V -5.86395 H 0.0" /><circle class="sym" cx="0" cy="0" r="3" /><text class="lab lft" transform="translate(-3 -7.0)">17</text></g><path class="edge" d="M 0 0 V -29.9666 H 27.55" /><circle class="sym" cx="0" cy="0" r="3" /><text class="lab lft" transform="translate(-3 -7.0)">25</text></g><g class="a31 c1 node n30 p0" transform="translate(27.55 1.10658)"><g class="a30 c1 node n28 p0" transform="translate(0.0 1.00464)"><g class="a28 c1 node n26 p0" transform="translate(0.0 22.8384)"><g class="a26 c1 node n20 p0" transform="translate(0.0 9.47786)"><g class="a20 c1 node n18 p0" transform="translate(0.0 0.296817)"><g class="a18 leaf node n6 p0 sample" transform="translate(0.0 11.7249)"><path class="edge" d="M 0 0 V -11.7249 H 0.0" /><rect class="sym" height="6" width="6" x="-3" y="-3" /><text class="lab" transform="translate(0 11)">6</text></g><path class="edge" d="M 0 0 V -0.296817 H 0.0" /><circle class="sym" cx="0" cy="0" r="3" /><text class="lab lft" transform="translate(-3 -7.0)">18</text></g><path class="edge" d="M 0 0 V -9.47786 H 0.0" /><circle class="sym" cx="0" cy="0" r="3" /><text class="lab lft" transform="translate(-3 -7.0)">20</text></g><path class="edge" d="M 0 0 V -22.8384 H 0.0" /><circle class="sym" cx="0" cy="0" r="3" /><text class="lab lft" transform="translate(-3 -7.0)">26</text></g><path class="edge" d="M 0 0 V -1.00464 H 0.0" /><circle class="sym" cx="0" cy="0" r="3" /><text class="lab lft" transform="translate(-3 -7.0)">28</text></g><path class="edge" d="M 0 0 V -1.10658 H -27.55" /><circle class="sym" cx="0" cy="0" r="3" /><text class="lab rgt" transform="translate(3 -7.0)">30</text></g><path class="edge" d="M 0 0 V -48.1508 H 25.175" /><circle class="sym" cx="0" cy="0" r="3" /><text class="lab lft" transform="translate(-3 -7.0)">31</text></g><g class="a33 c1 node n32 p0" transform="translate(25.175 22.2487)"><g class="a32 c2 node n27 p0" transform="translate(0.0 45.3505)"><g class="a27 leaf node n8 p0 sample" transform="translate(7.6 27.0008)"><path class="edge" d="M 0 0 V -27.0008 H -7.6" /><rect class="sym" height="6" width="6" x="-3" y="-3" /><text class="lab" transform="translate(0 11)">8</text></g><g class="a27 c1 node n23 p0" transform="translate(-7.6 11.9773)"><g class="a23 c1 node n21 p0" transform="translate(0.0 2.36592)"><g class="a21 leaf node n3 p0 sample" transform="translate(0.0 12.6576)"><path class="edge" d="M 0 0 V -12.6576 H 0.0" /><rect class="sym" height="6" width="6" x="-3" y="-3" /><text class="lab" transform="translate(0 11)">3</text></g><path class="edge" d="M 0 0 V -2.36592 H 0.0" /><circle class="sym" cx="0" cy="0" r="3" /><text class="lab lft" transform="translate(-3 -7.0)">21</text></g><path class="edge" d="M 0 0 V -11.9773 H 7.6" /><circle class="sym" cx="0" cy="0" r="3" /><text class="lab lft" transform="translate(-3 -7.0)">23</text></g><path class="edge" d="M 0 0 V -45.3505 H 0.0" /><circle class="sym" cx="0" cy="0" r="3" /><text class="lab lft" transform="translate(-3 -7.0)">27</text></g><path class="edge" d="M 0 0 V -22.2487 H -25.175" /><circle class="sym" cx="0" cy="0" r="3" /><text class="lab rgt" transform="translate(3 -7.0)">32</text></g><circle class="sym" cx="0" cy="0" r="3" /><text class="lab" transform="translate(0 -11)">33</text></g></g></g><g class="tree t2" transform="translate(404 0)"><g class="plotbox"><g class="c2 node n33 p0 root" transform="translate(115.95 26.8)"><g class="a33 c1 node n31 p0" transform="translate(-37.05 48.1508)"><g class="a31 c1 node n25 p0" transform="translate(0.0 29.9666)"><g class="a25 c2 node n17 p0" transform="translate(0.0 5.86395)"><g class="a17 c2 node n15 p0" transform="translate(-28.5 3.13132)"><g class="a15 c2 node n11 p0" transform="translate(15.2 4.76436)"><g class="a11 leaf node n1 p0 sample" transform="translate(-7.6 2.72293)"><path class="edge" d="M 0 0 V -2.72293 H 7.6" /><rect class="sym" height="6" width="6" x="-3" y="-3" /><text class="lab" transform="translate(0 11)">1</text></g><g class="a11 leaf node n2 p0 sample" transform="translate(7.6 2.72293)"><path class="edge" d="M 0 0 V -2.72293 H -7.6" /><rect class="sym" height="6" width="6" x="-3" y="-3" /><text class="lab" transform="translate(0 11)">2</text></g><path class="edge" d="M 0 0 V -4.76436 H -15.2" /><circle class="sym" cx="0" cy="0" r="3" /><text class="lab rgt" transform="translate(3 -7.0)">11</text></g><g class="a15 c2 node n12 p0" transform="translate(-15.2 4.63178)"><g class="a12 leaf node n0 p0 sample" transform="translate(-7.6 2.85551)"><path class="edge" d="M 0 0 V -2.85551 H 7.6" /><rect class="sym" height="6" width="6" x="-3" y="-3" /><text class="lab" transform="translate(0 11)">0</text></g><g class="a12 leaf node n5 p0 sample" transform="translate(7.6 2.85551)"><path class="edge" d="M 0 0 V -2.85551 H -7.6" /><rect class="sym" height="6" width="6" x="-3" y="-3" /><text class="lab" transform="translate(0 11)">5</text></g><path class="edge" d="M 0 0 V -4.63178 H 15.2" /><circle class="sym" cx="0" cy="0" r="3" /><text class="lab lft" transform="translate(-3 -7.0)">12</text></g><path class="edge" d="M 0 0 V -3.13132 H 28.5" /><circle class="sym" cx="0" cy="0" r="3" /><text class="lab lft" transform="translate(-3 -7.0)">15</text></g><g class="a17 c2 node n16 p0" transform="translate(28.5 1.20873)"><g class="a16 leaf node n7 p0 sample" transform="translate(11.4 9.40987)"><path class="edge" d="M 0 0 V -9.40987 H -11.4" /><rect class="sym" height="6" width="6" x="-3" y="-3" /><text class="lab" transform="translate(0 11)">7</text></g><g class="a16 c1 node n14 p0" transform="translate(-11.4 5.85483)"><g class="a14 c2 node n10 p0" transform="translate(0.0 1.48149)"><g class="a10 leaf node n4 p0 sample" transform="translate(-7.6 2.07355)"><path class="edge" d="M 0 0 V -2.07355 H 7.6" /><rect class="sym" height="6" width="6" x="-3" y="-3" /><text class="lab" transform="translate(0 11)">4</text></g><g class="a10 leaf node n9 p0 sample" transform="translate(7.6 2.07355)"><path class="edge" d="M 0 0 V -2.07355 H -7.6" /><rect class="sym" height="6" width="6" x="-3" y="-3" /><text class="lab" transform="translate(0 11)">9</text></g><path class="edge" d="M 0 0 V -1.48149 H 0.0" /><circle class="sym" cx="0" cy="0" r="3" /><text class="lab lft" transform="translate(-3 -7.0)">10</text></g><path class="edge" d="M 0 0 V -5.85483 H 11.4" /><circle class="sym" cx="0" cy="0" r="3" /><text class="lab lft" transform="translate(-3 -7.0)">14</text></g><path class="edge" d="M 0 0 V -1.20873 H -28.5" /><circle class="sym" cx="0" cy="0" r="3" /><text class="lab rgt" transform="translate(3 -7.0)">16</text></g><path class="edge" d="M 0 0 V -5.86395 H 0.0" /><circle class="sym" cx="0" cy="0" r="3" /><text class="lab lft" transform="translate(-3 -7.0)">17</text></g><path class="edge" d="M 0 0 V -29.9666 H 0.0" /><circle class="sym" cx="0" cy="0" r="3" /><text class="lab lft" transform="translate(-3 -7.0)">25</text></g><path class="edge" d="M 0 0 V -48.1508 H 37.05" /><circle class="sym" cx="0" cy="0" r="3" /><text class="lab lft" transform="translate(-3 -7.0)">31</text></g><g class="a33 c2 node n32 p0" transform="translate(37.05 22.2487)"><g class="a32 c2 node n27 p0" transform="translate(-11.4 45.3505)"><g class="a27 leaf node n8 p0 sample" transform="translate(7.6 27.0008)"><path class="edge" d="M 0 0 V -27.0008 H -7.6" /><rect class="sym" height="6" width="6" x="-3" y="-3" /><text class="lab" transform="translate(0 11)">8</text></g><g class="a27 c1 node n23 p0" transform="translate(-7.6 11.9773)"><g class="a23 c1 node n21 p0" transform="translate(0.0 2.36592)"><g class="a21 leaf node n3 p0 sample" transform="translate(0.0 12.6576)"><path class="edge" d="M 0 0 V -12.6576 H 0.0" /><rect class="sym" height="6" width="6" x="-3" y="-3" /><text class="lab" transform="translate(0 11)">3</text></g><path class="edge" d="M 0 0 V -2.36592 H 0.0" /><circle class="sym" cx="0" cy="0" r="3" /><text class="lab lft" transform="translate(-3 -7.0)">21</text></g><path class="edge" d="M 0 0 V -11.9773 H 7.6" /><circle class="sym" cx="0" cy="0" r="3" /><text class="lab lft" transform="translate(-3 -7.0)">23</text></g><path class="edge" d="M 0 0 V -45.3505 H 11.4" /><circle class="sym" cx="0" cy="0" r="3" /><text class="lab lft" transform="translate(-3 -7.0)">27</text></g><g class="a32 c1 node n19 p0" transform="translate(11.4 60.6264)"><g class="a19 leaf node n6 p0 sample" transform="translate(0.0 11.7249)"><path class="edge" d="M 0 0 V -11.7249 H 0.0" /><rect class="sym" height="6" width="6" x="-3" y="-3" /><text class="lab" transform="translate(0 11)">6</text></g><path class="edge" d="M 0 0 V -60.6264 H -11.4" /><circle class="sym" cx="0" cy="0" r="3" /><text class="lab rgt" transform="translate(3 -7.0)">19</text></g><path class="edge" d="M 0 0 V -22.2487 H -37.05" /><circle class="sym" cx="0" cy="0" r="3" /><text class="lab rgt" transform="translate(3 -7.0)">32</text></g><circle class="sym" cx="0" cy="0" r="3" /><text class="lab" transform="translate(0 -11)">33</text></g></g></g><g class="tree t3" transform="translate(596 0)"><g class="plotbox"><g class="c2 node n33 p0 root" transform="translate(131.625 26.8)"><g class="a33 c1 node n31 p0" transform="translate(-25.175 48.1508)"><g class="a31 c2 node n25 p0" transform="translate(0.0 29.9666)"><g class="a25 c2 node n17 p0" transform="translate(-27.55 5.86395)"><g class="a17 c2 node n15 p0" transform="translate(-28.5 3.13132)"><g class="a15 c2 node n11 p0" transform="translate(15.2 4.76436)"><g class="a11 leaf node n1 p0 sample" transform="translate(-7.6 2.72293)"><path class="edge" d="M 0 0 V -2.72293 H 7.6" /><rect class="sym" height="6" width="6" x="-3" y="-3" /><text class="lab" transform="translate(0 11)">1</text></g><g class="a11 leaf node n2 p0 sample" transform="translate(7.6 2.72293)"><path class="edge" d="M 0 0 V -2.72293 H -7.6" /><rect class="sym" height="6" width="6" x="-3" y="-3" /><text class="lab" transform="translate(0 11)">2</text></g><path class="edge" d="M 0 0 V -4.76436 H -15.2" /><circle class="sym" cx="0" cy="0" r="3" /><text class="lab rgt" transform="translate(3 -7.0)">11</text></g><g class="a15 c2 node n12 p0" transform="translate(-15.2 4.63178)"><g class="a12 leaf node n0 p0 sample" transform="translate(-7.6 2.85551)"><path class="edge" d="M 0 0 V -2.85551 H 7.6" /><rect class="sym" height="6" width="6" x="-3" y="-3" /><text class="lab" transform="translate(0 11)">0</text></g><g class="a12 leaf node n5 p0 sample" transform="translate(7.6 2.85551)"><path class="edge" d="M 0 0 V -2.85551 H -7.6" /><rect class="sym" height="6" width="6" x="-3" y="-3" /><text class="lab" transform="translate(0 11)">5</text></g><path class="edge" d="M 0 0 V -4.63178 H 15.2" /><circle class="sym" cx="0" cy="0" r="3" /><text class="lab lft" transform="translate(-3 -7.0)">12</text></g><path class="edge" d="M 0 0 V -3.13132 H 28.5" /><circle class="sym" cx="0" cy="0" r="3" /><text class="lab lft" transform="translate(-3 -7.0)">15</text></g><g class="a17 c2 node n16 p0" transform="translate(28.5 1.20873)"><g class="a16 leaf node n7 p0 sample" transform="translate(11.4 9.40987)"><path class="edge" d="M 0 0 V -9.40987 H -11.4" /><rect class="sym" height="6" width="6" x="-3" y="-3" /><text class="lab" transform="translate(0 11)">7</text></g><g class="a16 c1 node n14 p0" transform="translate(-11.4 5.85483)"><g class="a14 c2 node n10 p0" transform="translate(0.0 1.48149)"><g class="a10 leaf node n4 p0 sample" transform="translate(-7.6 2.07355)"><path class="edge" d="M 0 0 V -2.07355 H 7.6" /><rect class="sym" height="6" width="6" x="-3" y="-3" /><text class="lab" transform="translate(0 11)">4</text></g><g class="a10 leaf node n9 p0 sample" transform="translate(7.6 2.07355)"><path class="edge" d="M 0 0 V -2.07355 H -7.6" /><rect class="sym" height="6" width="6" x="-3" y="-3" /><text class="lab" transform="translate(0 11)">9</text></g><path class="edge" d="M 0 0 V -1.48149 H 0.0" /><circle class="sym" cx="0" cy="0" r="3" /><text class="lab lft" transform="translate(-3 -7.0)">10</text></g><path class="edge" d="M 0 0 V -5.85483 H 11.4" /><circle class="sym" cx="0" cy="0" r="3" /><text class="lab lft" transform="translate(-3 -7.0)">14</text></g><path class="edge" d="M 0 0 V -1.20873 H -28.5" /><circle class="sym" cx="0" cy="0" r="3" /><text class="lab rgt" transform="translate(3 -7.0)">16</text></g><path class="edge" d="M 0 0 V -5.86395 H 27.55" /><circle class="sym" cx="0" cy="0" r="3" /><text class="lab lft" transform="translate(-3 -7.0)">17</text></g><g class="a25 c1 node n24 p0" transform="translate(27.55 1.45904)"><g class="a24 c1 node n21 p0" transform="translate(0.0 2.36592)"><g class="a21 leaf node n3 p0 sample" transform="translate(0.0 12.6576)"><path class="edge" d="M 0 0 V -12.6576 H 0.0" /><rect class="sym" height="6" width="6" x="-3" y="-3" /><text class="lab" transform="translate(0 11)">3</text></g><path class="edge" d="M 0 0 V -2.36592 H 0.0" /><circle class="sym" cx="0" cy="0" r="3" /><text class="lab lft" transform="translate(-3 -7.0)">21</text></g><path class="edge" d="M 0 0 V -1.45904 H -27.55" /><circle class="sym" cx="0" cy="0" r="3" /><text class="lab rgt" transform="translate(3 -7.0)">24</text></g><path class="edge" d="M 0 0 V -29.9666 H 0.0" /><circle class="sym" cx="0" cy="0" r="3" /><text class="lab lft" transform="translate(-3 -7.0)">25</text></g><path class="edge" d="M 0 0 V -48.1508 H 25.175" /><circle class="sym" cx="0" cy="0" r="3" /><text class="lab lft" transform="translate(-3 -7.0)">31</text></g><g class="a33 c2 node n32 p0" transform="translate(25.175 22.2487)"><g class="a32 c1 node n27 p0" transform="translate(7.6 45.3505)"><g class="a27 leaf node n8 p0 sample" transform="translate(0.0 27.0008)"><path class="edge" d="M 0 0 V -27.0008 H 0.0" /><rect class="sym" height="6" width="6" x="-3" y="-3" /><text class="lab" transform="translate(0 11)">8</text></g><path class="edge" d="M 0 0 V -45.3505 H -7.6" /><circle class="sym" cx="0" cy="0" r="3" /><text class="lab rgt" transform="translate(3 -7.0)">27</text></g><g class="a32 c1 node n19 p0" transform="translate(-7.6 60.6264)"><g class="a19 leaf node n6 p0 sample" transform="translate(0.0 11.7249)"><path class="edge" d="M 0 0 V -11.7249 H 0.0" /><rect class="sym" height="6" width="6" x="-3" y="-3" /><text class="lab" transform="translate(0 11)">6</text></g><path class="edge" d="M 0 0 V -60.6264 H 7.6" /><circle class="sym" cx="0" cy="0" r="3" /><text class="lab lft" transform="translate(-3 -7.0)">19</text></g><path class="edge" d="M 0 0 V -22.2487 H -25.175" /><circle class="sym" cx="0" cy="0" r="3" /><text class="lab rgt" transform="translate(3 -7.0)">32</text></g><circle class="sym" cx="0" cy="0" r="3" /><text class="lab" transform="translate(0 -11)">33</text></g></g></g><g class="tree t4" transform="translate(788 0)"><g class="plotbox"><g class="c2 node n33 p0 root" transform="translate(131.625 26.8)"><g class="a33 c2 node n31 p0" transform="translate(-25.175 48.1508)"><g class="a31 c1 node n25 p0" transform="translate(-27.55 29.9666)"><g class="a25 c2 node n17 p0" transform="translate(0.0 5.86395)"><g class="a17 c2 node n15 p0" transform="translate(-28.5 3.13132)"><g class="a15 c2 node n11 p0" transform="translate(15.2 4.76436)"><g class="a11 leaf node n1 p0 sample" transform="translate(-7.6 2.72293)"><path class="edge" d="M 0 0 V -2.72293 H 7.6" /><rect class="sym" height="6" width="6" x="-3" y="-3" /><text class="lab" transform="translate(0 11)">1</text></g><g class="a11 leaf node n2 p0 sample" transform="translate(7.6 2.72293)"><path class="edge" d="M 0 0 V -2.72293 H -7.6" /><rect class="sym" height="6" width="6" x="-3" y="-3" /><text class="lab" transform="translate(0 11)">2</text></g><path class="edge" d="M 0 0 V -4.76436 H -15.2" /><circle class="sym" cx="0" cy="0" r="3" /><text class="lab rgt" transform="translate(3 -7.0)">11</text></g><g class="a15 c2 node n12 p0" transform="translate(-15.2 4.63178)"><g class="a12 leaf node n0 p0 sample" transform="translate(-7.6 2.85551)"><path class="edge" d="M 0 0 V -2.85551 H 7.6" /><rect class="sym" height="6" width="6" x="-3" y="-3" /><text class="lab" transform="translate(0 11)">0</text></g><g class="a12 leaf node n5 p0 sample" transform="translate(7.6 2.85551)"><path class="edge" d="M 0 0 V -2.85551 H -7.6" /><rect class="sym" height="6" width="6" x="-3" y="-3" /><text class="lab" transform="translate(0 11)">5</text></g><path class="edge" d="M 0 0 V -4.63178 H 15.2" /><circle class="sym" cx="0" cy="0" r="3" /><text class="lab lft" transform="translate(-3 -7.0)">12</text></g><path class="edge" d="M 0 0 V -3.13132 H 28.5" /><circle class="sym" cx="0" cy="0" r="3" /><text class="lab lft" transform="translate(-3 -7.0)">15</text></g><g class="a17 c2 node n16 p0" transform="translate(28.5 1.20873)"><g class="a16 leaf node n7 p0 sample" transform="translate(11.4 9.40987)"><path class="edge" d="M 0 0 V -9.40987 H -11.4" /><rect class="sym" height="6" width="6" x="-3" y="-3" /><text class="lab" transform="translate(0 11)">7</text></g><g class="a16 c1 node n14 p0" transform="translate(-11.4 5.85483)"><g class="a14 c2 node n10 p0" transform="translate(0.0 1.48149)"><g class="a10 leaf node n4 p0 sample" transform="translate(-7.6 2.07355)"><path class="edge" d="M 0 0 V -2.07355 H 7.6" /><rect class="sym" height="6" width="6" x="-3" y="-3" /><text class="lab" transform="translate(0 11)">4</text></g><g class="a10 leaf node n9 p0 sample" transform="translate(7.6 2.07355)"><path class="edge" d="M 0 0 V -2.07355 H -7.6" /><rect class="sym" height="6" width="6" x="-3" y="-3" /><text class="lab" transform="translate(0 11)">9</text></g><path class="edge" d="M 0 0 V -1.48149 H 0.0" /><circle class="sym" cx="0" cy="0" r="3" /><text class="lab lft" transform="translate(-3 -7.0)">10</text></g><path class="edge" d="M 0 0 V -5.85483 H 11.4" /><circle class="sym" cx="0" cy="0" r="3" /><text class="lab lft" transform="translate(-3 -7.0)">14</text></g><path class="edge" d="M 0 0 V -1.20873 H -28.5" /><circle class="sym" cx="0" cy="0" r="3" /><text class="lab rgt" transform="translate(3 -7.0)">16</text></g><path class="edge" d="M 0 0 V -5.86395 H 0.0" /><circle class="sym" cx="0" cy="0" r="3" /><text class="lab lft" transform="translate(-3 -7.0)">17</text></g><path class="edge" d="M 0 0 V -29.9666 H 27.55" /><circle class="sym" cx="0" cy="0" r="3" /><text class="lab lft" transform="translate(-3 -7.0)">25</text></g><g class="a31 c1 node n30 p0" transform="translate(27.55 1.10658)"><g class="a30 c1 node n29 p0" transform="translate(0.0 1.00464)"><g class="a29 c1 node n26 p0" transform="translate(0.0 22.8384)"><g class="a26 c1 node n22 p0" transform="translate(0.0 8.84194)"><g class="a22 leaf node n3 p0 sample" transform="translate(0.0 12.6576)"><path class="edge" d="M 0 0 V -12.6576 H 0.0" /><rect class="sym" height="6" width="6" x="-3" y="-3" /><text class="lab" transform="translate(0 11)">3</text></g><path class="edge" d="M 0 0 V -8.84194 H 0.0" /><circle class="sym" cx="0" cy="0" r="3" /><text class="lab lft" transform="translate(-3 -7.0)">22</text></g><path class="edge" d="M 0 0 V -22.8384 H 0.0" /><circle class="sym" cx="0" cy="0" r="3" /><text class="lab lft" transform="translate(-3 -7.0)">26</text></g><path class="edge" d="M 0 0 V -1.00464 H 0.0" /><circle class="sym" cx="0" cy="0" r="3" /><text class="lab lft" transform="translate(-3 -7.0)">29</text></g><path class="edge" d="M 0 0 V -1.10658 H -27.55" /><circle class="sym" cx="0" cy="0" r="3" /><text class="lab rgt" transform="translate(3 -7.0)">30</text></g><path class="edge" d="M 0 0 V -48.1508 H 25.175" /><circle class="sym" cx="0" cy="0" r="3" /><text class="lab lft" transform="translate(-3 -7.0)">31</text></g><g class="a33 c2 node n32 p0" transform="translate(25.175 22.2487)"><g class="a32 c1 node n27 p0" transform="translate(7.6 45.3505)"><g class="a27 leaf node n8 p0 sample" transform="translate(0.0 27.0008)"><path class="edge" d="M 0 0 V -27.0008 H 0.0" /><rect class="sym" height="6" width="6" x="-3" y="-3" /><text class="lab" transform="translate(0 11)">8</text></g><path class="edge" d="M 0 0 V -45.3505 H -7.6" /><circle class="sym" cx="0" cy="0" r="3" /><text class="lab rgt" transform="translate(3 -7.0)">27</text></g><g class="a32 c1 node n19 p0" transform="translate(-7.6 60.6264)"><g class="a19 leaf node n6 p0 sample" transform="translate(0.0 11.7249)"><path class="edge" d="M 0 0 V -11.7249 H 0.0" /><rect class="sym" height="6" width="6" x="-3" y="-3" /><text class="lab" transform="translate(0 11)">6</text></g><path class="edge" d="M 0 0 V -60.6264 H 7.6" /><circle class="sym" cx="0" cy="0" r="3" /><text class="lab lft" transform="translate(-3 -7.0)">19</text></g><path class="edge" d="M 0 0 V -22.2487 H -25.175" /><circle class="sym" cx="0" cy="0" r="3" /><text class="lab rgt" transform="translate(3 -7.0)">32</text></g><circle class="sym" cx="0" cy="0" r="3" /><text class="lab" transform="translate(0 -11)">33</text></g></g></g></g></g></svg>
