<svg baseProfile="full" height="200" version="1.1" width="400" xmlns="http://www.w3.org/2000/svg" xmlns:ev="http://www.w3.org/2001/xml-events" xmlns:xlink="http://www.w3.org/1999/xlink"><defs><style type="text/css"><![CDATA[.background path {fill: #808080; fill-opacity: 0}.background path:nth-child(odd) {fill-opacity: .1}.axes {font-size: 14px}.x-axis .tick .lab {font-weight: bold; dominant-baseline: hanging}.axes, .tree {font-size: 14px; text-anchor: middle}.axes line, .edge {stroke: black; fill: none}.y-axis .grid {stroke: #FAFAFA}.node > .sym {fill: black; stroke: none}.site > .sym {stroke: black}.mut text {fill: red; font-style: italic}.mut.extra text {fill: hotpink}.mut line {fill: none; stroke: none}.mut .sym {fill: none; stroke: red}.mut.extra .sym {stroke: hotpink}.node .mut .sym {stroke-width: 1.5px}.tree text, .tree-sequence text {dominant-baseline: central}.plotbox .lab.lft {text-anchor: end}.plotbox .lab.rgt {text-anchor: start}]]></style></defs><g class="tree-sequence"><g class="background"><path d="M20,0 l180,0 l0,138.2 l-130.729,25 l0,5 l-49.2712,0 l0,-5 l0,-25 l0,-138.2z" /><path d="M200,0 l180,0 l0,138.2 l0,25 l0,5 l-310.729,0 l0,-5 l130.729,-25 l0,-138.2z" /></g><g class="axes"><g class="x-axis"><g transform="translate(200 200)"><text class="lab" text-anchor="middle" transform="translate(0 -11)">Genome position</text></g><line x1="20" x2="380" y1="163.2" y2="163.2" /><g class="ticks"><g class="tick" transform="translate(20 163.2)"><line x1="0" x2="0" y1="0" y2="5" /><g transform="translate(0 6)"><text class="lab">0.00</text></g></g><g class="tick" transform="translate(69.2712 163.2)"><line x1="0" x2="0" y1="0" y2="5" /><g transform="translate(0 6)"><text class="lab">136.86</text></g></g><g class="tick" transform="translate(380 163.2)"><line x1="0" x2="0" y1="0" y2="5" /><g transform="translate(0 6)"><text class="lab">1000.00</text></g></g></g></g></g><g class="plotbox trees"><g class="tree t0" transform="translate(20 0)"><g class="plotbox"><g class="c2 node n21 p0 root" transform="translate(120.844 26.8)"><g class="a21 c2 node n18 p0" transform="translate(25.1562 25.3608)"><g class="a18 leaf node n1 p0 sample" transform="translate(-7 69.2392)"><path class="edge" d="M 0 0 V -69.2392 H 7" /><rect class="sym" height="6" width="6" x="-3" y="-3" /><text class="lab" transform="translate(0 11)">1</text></g><g class="a18 leaf node n2 p0 sample" transform="translate(7 69.2392)"><path class="edge" d="M 0 0 V -69.2392 H -7" /><rect class="sym" height="6" width="6" x="-3" y="-3" /><text class="lab" transform="translate(0 11)">2</text></g><path class="edge" d="M 0 0 V -25.3608 H -25.1562" /><circle class="sym" cx="0" cy="0" r="3" /><text class="lab rgt" transform="translate(3 -7.0)">18</text></g><g class="a21 c2 node n20 p0" transform="translate(-25.1562 8.10337)"><g class="a20 leaf node n5 p0 sample" transform="translate(29.3125 86.4966)"><path class="edge" d="M 0 0 V -86.4966 H -29.3125" /><rect class="sym" height="6" width="6" x="-3" y="-3" /><text class="lab" transform="translate(0 11)">5</text></g><g class="a20 c2 node n19 p0" transform="translate(-29.3125 2.94265)"><g class="a19 c1 node n15 p0" transform="translate(-28.875 59.6377)"><g class="a15 c2 node n14 p0" transform="translate(0.0 9.73112)"><g class="a14 leaf node n0 p0 sample" transform="translate(-10.5 14.1851)"><path class="edge" d="M 0 0 V -14.1851 H 10.5" /><rect class="sym" height="6" width="6" x="-3" y="-3" /><text class="lab" transform="translate(0 11)">0</text></g><g class="a14 c2 node n12 p0" transform="translate(10.5 5.39623)"><g class="a12 leaf node n4 p0 sample" transform="translate(7 8.78889)"><path class="edge" d="M 0 0 V -8.78889 H -7" /><rect class="sym" height="6" width="6" x="-3" y="-3" /><text class="lab" transform="translate(0 11)">4</text></g><g class="a12 c1 node n10 p0" transform="translate(-7 6.81869)"><g class="a10 leaf node n3 p0 sample" transform="translate(0.0 1.9702)"><path class="edge" d="M 0 0 V -1.9702 H 0.0" /><rect class="sym" height="6" width="6" x="-3" y="-3" /><text class="lab" transform="translate(0 11)">3</text></g><path class="edge" d="M 0 0 V -6.81869 H 7" /><circle class="sym" cx="0" cy="0" r="3" /><text class="lab lft" transform="translate(-3 -7.0)">10</text></g><path class="edge" d="M 0 0 V -5.39623 H -10.5" /><circle class="sym" cx="0" cy="0" r="3" /><text class="lab rgt" transform="translate(3 -7.0)">12</text></g><path class="edge" d="M 0 0 V -9.73112 H 0.0" /><circle class="sym" cx="0" cy="0" r="3" /><text class="lab lft" transform="translate(-3 -7.0)">14</text></g><path class="edge" d="M 0 0 V -59.6377 H 28.875" /><circle class="sym" cx="0" cy="0" r="3" /><text class="lab lft" transform="translate(-3 -7.0)">15</text></g><g class="a19 c2 node n17 p0" transform="translate(28.875 36.0411)"><g class="a17 leaf node n8 p0 sample" transform="translate(15.75 47.5129)"><path class="edge" d="M 0 0 V -47.5129 H -15.75" /><rect class="sym" height="6" width="6" x="-3" y="-3" /><text class="lab" transform="translate(0 11)">8</text></g><g class="a17 c2 node n16 p0" transform="translate(-15.75 22.1359)"><g class="a16 leaf node n6 p0 sample" transform="translate(-10.5 25.377)"><path class="edge" d="M 0 0 V -25.377 H 10.5" /><rect class="sym" height="6" width="6" x="-3" y="-3" /><text class="lab" transform="translate(0 11)">6</text></g><g class="a16 c2 node n13 p0" transform="translate(10.5 11.421)"><g class="a13 leaf node n7 p0 sample" transform="translate(-7 13.956)"><path class="edge" d="M 0 0 V -13.956 H 7" /><rect class="sym" height="6" width="6" x="-3" y="-3" /><text class="lab" transform="translate(0 11)">7</text></g><g class="a13 leaf node n9 p0 sample" transform="translate(7 13.956)"><path class="edge" d="M 0 0 V -13.956 H -7" /><rect class="sym" height="6" width="6" x="-3" y="-3" /><text class="lab" transform="translate(0 11)">9</text></g><path class="edge" d="M 0 0 V -11.421 H -10.5" /><circle class="sym" cx="0" cy="0" r="3" /><text class="lab rgt" transform="translate(3 -7.0)">13</text></g><path class="edge" d="M 0 0 V -22.1359 H 15.75" /><circle class="sym" cx="0" cy="0" r="3" /><text class="lab lft" transform="translate(-3 -7.0)">16</text></g><path class="edge" d="M 0 0 V -36.0411 H -28.875" /><circle class="sym" cx="0" cy="0" r="3" /><text class="lab rgt" transform="translate(3 -7.0)">17</text></g><path class="edge" d="M 0 0 V -2.94265 H 29.3125" /><circle class="sym" cx="0" cy="0" r="3" /><text class="lab lft" transform="translate(-3 -7.0)">19</text></g><path class="edge" d="M 0 0 V -8.10337 H 25.1562" /><circle class="sym" cx="0" cy="0" r="3" /><text class="lab lft" transform="translate(-3 -7.0)">20</text></g><circle class="sym" cx="0" cy="0" r="3" /><text class="lab" transform="translate(0 -11)">21</text></g></g></g><g class="tree t1" transform="translate(200 0)"><g class="plotbox"><g class="c2 node n21 p0 root" transform="translate(121.719 26.8)"><g class="a21 c2 node n18 p0" transform="translate(24.2812 25.3608)"><g class="a18 leaf node n1 p0 sample" transform="translate(-7 69.2392)"><path class="edge" d="M 0 0 V -69.2392 H 7" /><rect class="sym" height="6" width="6" x="-3" y="-3" /><text class="lab" transform="translate(0 11)">1</text></g><g class="a18 leaf node n2 p0 sample" transform="translate(7 69.2392)"><path class="edge" d="M 0 0 V -69.2392 H -7" /><rect class="sym" height="6" width="6" x="-3" y="-3" /><text class="lab" transform="translate(0 11)">2</text></g><path class="edge" d="M 0 0 V -25.3608 H -24.2812" /><circle class="sym" cx="0" cy="0" r="3" /><text class="lab rgt" transform="translate(3 -7.0)">18</text></g><g class="a21 c2 node n20 p0" transform="translate(-24.2812 8.10337)"><g class="a20 leaf node n5 p0 sample" transform="translate(27.5625 86.4966)"><path class="edge" d="M 0 0 V -86.4966 H -27.5625" /><rect class="sym" height="6" width="6" x="-3" y="-3" /><text class="lab" transform="translate(0 11)">5</text></g><g class="a20 c2 node n19 p0" transform="translate(-27.5625 2.94265)"><g class="a19 c2 node n15 p0" transform="translate(-25.375 59.6377)"><g class="a15 c2 node n14 p0" transform="translate(-10.5 9.73112)"><g class="a14 leaf node n0 p0 sample" transform="translate(-7 14.1851)"><path class="edge" d="M 0 0 V -14.1851 H 7" /><rect class="sym" height="6" width="6" x="-3" y="-3" /><text class="lab" transform="translate(0 11)">0</text></g><g class="a14 c1 node n12 p0" transform="translate(7 5.39623)"><g class="a12 leaf node n4 p0 sample" transform="translate(0.0 8.78889)"><path class="edge" d="M 0 0 V -8.78889 H 0.0" /><rect class="sym" height="6" width="6" x="-3" y="-3" /><text class="lab" transform="translate(0 11)">4</text></g><path class="edge" d="M 0 0 V -5.39623 H -7" /><circle class="sym" cx="0" cy="0" r="3" /><text class="lab rgt" transform="translate(3 -7.0)">12</text></g><path class="edge" d="M 0 0 V -9.73112 H 10.5" /><circle class="sym" cx="0" cy="0" r="3" /><text class="lab lft" transform="translate(-3 -7.0)">14</text></g><g class="a15 c1 node n11 p0" transform="translate(10.5 21.946)"><g class="a11 leaf node n3 p0 sample" transform="translate(0.0 1.9702)"><path class="edge" d="M 0 0 V -1.9702 H 0.0" /><rect class="sym" height="6" width="6" x="-3" y="-3" /><text class="lab" transform="translate(0 11)">3</text></g><path class="edge" d="M 0 0 V -21.946 H -10.5" /><circle class="sym" cx="0" cy="0" r="3" /><text class="lab rgt" transform="translate(3 -7.0)">11</text></g><path class="edge" d="M 0 0 V -59.6377 H 25.375" /><circle class="sym" cx="0" cy="0" r="3" /><text class="lab lft" transform="translate(-3 -7.0)">15</text></g><g class="a19 c2 node n17 p0" transform="translate(25.375 36.0411)"><g class="a17 leaf node n8 p0 sample" transform="translate(15.75 47.5129)"><path class="edge" d="M 0 0 V -47.5129 H -15.75" /><rect class="sym" height="6" width="6" x="-3" y="-3" /><text class="lab" transform="translate(0 11)">8</text></g><g class="a17 c2 node n16 p0" transform="translate(-15.75 22.1359)"><g class="a16 leaf node n6 p0 sample" transform="translate(-10.5 25.377)"><path class="edge" d="M 0 0 V -25.377 H 10.5" /><rect class="sym" height="6" width="6" x="-3" y="-3" /><text class="lab" transform="translate(0 11)">6</text></g><g class="a16 c2 node n13 p0" transform="translate(10.5 11.421)"><g class="a13 leaf node n7 p0 sample" transform="translate(-7 13.956)"><path class="edge" d="M 0 0 V -13.956 H 7" /><rect class="sym" height="6" width="6" x="-3" y="-3" /><text class="lab" transform="translate(0 11)">7</text></g><g class="a13 leaf node n9 p0 sample" transform="translate(7 13.956)"><path class="edge" d="M 0 0 V -13.956 H -7" /><rect class="sym" height="6" width="6" x="-3" y="-3" /><text class="lab" transform="translate(0 11)">9</text></g><path class="edge" d="M 0 0 V -11.421 H -10.5" /><circle class="sym" cx="0" cy="0" r="3" /><text class="lab rgt" transform="translate(3 -7.0)">13</text></g><path class="edge" d="M 0 0 V -22.1359 H 15.75" /><circle class="sym" cx="0" cy="0" r="3" /><text class="lab lft" transform="translate(-3 -7.0)">16</text></g><path class="edge" d="M 0 0 V -36.0411 H -25.375" /><circle class="sym" cx="0" cy="0" r="3" /><text class="lab rgt" transform="translate(3 -7.0)">17</text></g><path class="edge" d="M 0 0 V -2.94265 H 27.5625" /><circle class="sym" cx="0" cy="0" r="3" /><text class="lab lft" transform="translate(-3 -7.0)">19</text></g><path class="edge" d="M 0 0 V -8.10337 H 24.2812" /><circle class="sym" cx="0" cy="0" r="3" /><text class="lab lft" transform="translate(-3 -7.0)">20</text></g><circle class="sym" cx="0" cy="0" r="3" /><text class="lab" transform="translate(0 -11)">21</text></g></g></g></g></g></svg>
