<svg baseProfile="full" height="200" version="1.1" width="1200" xmlns="http://www.w3.org/2000/svg" xmlns:ev="http://www.w3.org/2001/xml-events" xmlns:xlink="http://www.w3.org/1999/xlink"><defs><style type="text/css"><![CDATA[.background path {fill: #808080; fill-opacity: 0}.background path:nth-child(odd) {fill-opacity: .1}.axes {font-size: 14px}.x-axis .tick .lab {font-weight: bold; dominant-baseline: hanging}.axes, .tree {font-size: 14px; text-anchor: middle}.axes line, .edge {stroke: black; fill: none}.y-axis .grid {stroke: #FAFAFA}.node > .sym {fill: black; stroke: none}.site > .sym {stroke: black}.mut text {fill: red; font-style: italic}.mut.extra text {fill: hotpink}.mut line {fill: none; stroke: none}.mut .sym {fill: none; stroke: red}.mut.extra .sym {stroke: hotpink}.node .mut .sym {stroke-width: 1.5px}.tree text, .tree-sequence text {dominant-baseline: central}.plotbox .lab.lft {text-anchor: end}.plotbox .lab.rgt {text-anchor: start}]]></style></defs><g class="tree-sequence"><g class="background"><path d="M20,0 l193.333,0 l0,138.2 l-182.863,25 l0,5 l-10.4702,0 l0,-5 l0,-25 l0,-138.2z" /><path d="M213.333,0 l193.333,0 l0,138.2 l-304.225,25 l0,5 l-71.9712,0 l0,-5 l182.863,-25 l0,-138.2z" /><path d="M406.667,0 l193.333,0 l0,138.2 l-453.242,25 l0,5 l-44.3162,0 l0,-5 l304.225,-25 l0,-138.2z" /><path d="M600,0 l193.333,0 l0,138.2 l-358.854,25 l0,5 l-287.722,0 l0,-5 l453.242,-25 l0,-138.2z" /><path d="M793.333,0 l193.333,0 l0,138.2 l-322.029,25 l0,5 l-230.158,0 l0,-5 l358.854,-25 l0,-138.2z" /><path d="M986.667,0 l193.333,0 l0,138.2 l0,25 l0,5 l-515.363,0 l0,-5 l322.029,-25 l0,-138.2z" /></g><g class="axes"><g class="x-axis"><g transform="translate(600 200)"><text class="lab" text-anchor="middle" transform="translate(0 -11)">Genome position</text></g><line x1="20" x2="1180" y1="163.2" y2="163.2" /><g class="ticks"><g class="tick" transform="translate(20 163.2)"><line x1="0" x2="0" y1="0" y2="5" /><g transform="translate(0 6)"><text class="lab">0.00</text></g></g><g class="tick" transform="translate(30.4702 163.2)"><line x1="0" x2="0" y1="0" y2="5" /><g transform="translate(0 6)"><text class="lab">9.03</text></g></g><g class="tick" transform="translate(102.441 163.2)"><line x1="0" x2="0" y1="0" y2="5" /><g transform="translate(0 6)"><text class="lab">71.07</text></g></g><g class="tick" transform="translate(146.758 163.2)"><line x1="0" x2="0" y1="0" y2="5" /><g transform="translate(0 6)"><text class="lab">109.27</text></g></g><g class="tick" transform="translate(434.48 163.2)"><line x1="0" x2="0" y1="0" y2="5" /><g transform="translate(0 6)"><text class="lab">357.31</text></g></g><g class="tick" transform="translate(664.637 163.2)"><line x1="0" x2="0" y1="0" y2="5" /><g transform="translate(0 6)"><text class="lab">555.72</text></g></g><g class="tick" transform="translate(1180 163.2)"><line x1="0" x2="0" y1="0" y2="5" /><g transform="translate(0 6)"><text class="lab">1000.00</text></g></g></g></g></g><g class="plotbox trees"><g class="tree t0" transform="translate(20 0)"><g class="plotbox"><g class="c2 node n33 p0 root" transform="translate(87.8021 26.8)"><g class="a33 c2 node n20 p0" transform="translate(-52.4688 78.5413)"><g class="a20 leaf node n6 p0 sample" transform="translate(7.66667 16.0587)"><path class="edge" d="M 0 0 V -16.0587 H -7.66667" /><rect class="sym" height="6" width="6" x="-3" y="-3" /><text class="lab" transform="translate(0 11)">6</text></g><g class="a20 c1 node n19 p0" transform="translate(-7.66667 6.89548)"><g class="a19 leaf node n0 p0 sample" transform="translate(0.0 9.16319)"><path class="edge" d="M 0 0 V -9.16319 H 0.0" /><rect class="sym" height="6" width="6" x="-3" y="-3" /><text class="lab" transform="translate(0 11)">0</text></g><path class="edge" d="M 0 0 V -6.89548 H 7.66667" /><circle class="sym" cx="0" cy="0" r="3" /><text class="lab lft" transform="translate(-3 -7.0)">19</text></g><path class="edge" d="M 0 0 V -78.5413 H 52.4688" /><circle class="sym" cx="0" cy="0" r="3" /><text class="lab lft" transform="translate(-3 -7.0)">20</text></g><g class="a33 c2 node n32 p0" transform="translate(52.4688 18.2928)"><g class="a32 c1 node n23 p0" transform="translate(25.3958 55.3241)"><g class="a23 c1 node n10 p0" transform="translate(0.0 20.2766)"><g class="a10 leaf node n2 p0 sample" transform="translate(0.0 0.706546)"><path class="edge" d="M 0 0 V -0.706546 H 0.0" /><rect class="sym" height="6" width="6" x="-3" y="-3" /><text class="lab" transform="translate(0 11)">2</text></g><path class="edge" d="M 0 0 V -20.2766 H 0.0" /><circle class="sym" cx="0" cy="0" r="3" /><text class="lab lft" transform="translate(-3 -7.0)">10</text></g><path class="edge" d="M 0 0 V -55.3241 H -25.3958" /><circle class="sym" cx="0" cy="0" r="3" /><text class="lab rgt" transform="translate(3 -7.0)">23</text></g><g class="a32 c1 node n31 p0" transform="translate(-25.3958 10.917)"><g class="a31 c2 node n27 p0" transform="translate(0.0 20.4072)"><g class="a27 c2 node n22 p0" transform="translate(23.9583 26.5836)"><g class="a22 c1 node n15 p0" transform="translate(-11.5 11.7059)"><g class="a15 c2 node n12 p0" transform="translate(0.0 5.65277)"><g class="a12 leaf node n4 p0 sample" transform="translate(-7.66667 1.04079)"><path class="edge" d="M 0 0 V -1.04079 H 7.66667" /><rect class="sym" height="6" width="6" x="-3" y="-3" /><text class="lab" transform="translate(0 11)">4</text></g><g class="a12 leaf node n5 p0 sample" transform="translate(7.66667 1.04079)"><path class="edge" d="M 0 0 V -1.04079 H -7.66667" /><rect class="sym" height="6" width="6" x="-3" y="-3" /><text class="lab" transform="translate(0 11)">5</text></g><path class="edge" d="M 0 0 V -5.65277 H 0.0" /><circle class="sym" cx="0" cy="0" r="3" /><text class="lab lft" transform="translate(-3 -7.0)">12</text></g><path class="edge" d="M 0 0 V -11.7059 H 11.5" /><circle class="sym" cx="0" cy="0" r="3" /><text class="lab lft" transform="translate(-3 -7.0)">15</text></g><g class="a22 c1 node n21 p0" transform="translate(11.5 1.11187)"><g class="a21 c1 node n17 p0" transform="translate(0.0 8.708)"><g class="a17 leaf node n8 p0 sample" transform="translate(0.0 8.5796)"><path class="edge" d="M 0 0 V -8.5796 H 0.0" /><rect class="sym" height="6" width="6" x="-3" y="-3" /><text class="lab" transform="translate(0 11)">8</text></g><path class="edge" d="M 0 0 V -8.708 H 0.0" /><circle class="sym" cx="0" cy="0" r="3" /><text class="lab lft" transform="translate(-3 -7.0)">17</text></g><path class="edge" d="M 0 0 V -1.11187 H -11.5" /><circle class="sym" cx="0" cy="0" r="3" /><text class="lab rgt" transform="translate(3 -7.0)">21</text></g><path class="edge" d="M 0 0 V -26.5836 H -23.9583" /><circle class="sym" cx="0" cy="0" r="3" /><text class="lab rgt" transform="translate(3 -7.0)">22</text></g><g class="a27 c1 node n26 p0" transform="translate(-23.9583 7.06927)"><g class="a26 c2 node n25 p0" transform="translate(0.0 8.20459)"><g class="a25 leaf node n3 p0 sample" transform="translate(13.4167 29.7092)"><path class="edge" d="M 0 0 V -29.7092 H -13.4167" /><rect class="sym" height="6" width="6" x="-3" y="-3" /><text class="lab" transform="translate(0 11)">3</text></g><g class="a25 c2 node n14 p0" transform="translate(-13.4167 27.6543)"><g class="a14 leaf node n9 p0 sample" transform="translate(11.5 2.05487)"><path class="edge" d="M 0 0 V -2.05487 H -11.5" /><rect class="sym" height="6" width="6" x="-3" y="-3" /><text class="lab" transform="translate(0 11)">9</text></g><g class="a14 c2 node n13 p0" transform="translate(-11.5 0.386379)"><g class="a13 leaf node n1 p0 sample" transform="translate(-7.66667 1.66849)"><path class="edge" d="M 0 0 V -1.66849 H 7.66667" /><rect class="sym" height="6" width="6" x="-3" y="-3" /><text class="lab" transform="translate(0 11)">1</text></g><g class="a13 leaf node n7 p0 sample" transform="translate(7.66667 1.66849)"><path class="edge" d="M 0 0 V -1.66849 H -7.66667" /><rect class="sym" height="6" width="6" x="-3" y="-3" /><text class="lab" transform="translate(0 11)">7</text></g><path class="edge" d="M 0 0 V -0.386379 H 11.5" /><circle class="sym" cx="0" cy="0" r="3" /><text class="lab lft" transform="translate(-3 -7.0)">13</text></g><path class="edge" d="M 0 0 V -27.6543 H 13.4167" /><circle class="sym" cx="0" cy="0" r="3" /><text class="lab lft" transform="translate(-3 -7.0)">14</text></g><path class="edge" d="M 0 0 V -8.20459 H 0.0" /><circle class="sym" cx="0" cy="0" r="3" /><text class="lab lft" transform="translate(-3 -7.0)">25</text></g><path class="edge" d="M 0 0 V -7.06927 H 23.9583" /><circle class="sym" cx="0" cy="0" r="3" /><text class="lab lft" transform="translate(-3 -7.0)">26</text></g><path class="edge" d="M 0 0 V -20.4072 H 0.0" /><circle class="sym" cx="0" cy="0" r="3" /><text class="lab lft" transform="translate(-3 -7.0)">27</text></g><path class="edge" d="M 0 0 V -10.917 H 25.3958" /><circle class="sym" cx="0" cy="0" r="3" /><text class="lab lft" transform="translate(-3 -7.0)">31</text></g><path class="edge" d="M 0 0 V -18.2928 H -52.4688" /><circle class="sym" cx="0" cy="0" r="3" /><text class="lab rgt" transform="translate(3 -7.0)">32</text></g><circle class="sym" cx="0" cy="0" r="3" /><text class="lab" transform="translate(0 -11)">33</text></g></g></g><g class="tree t1" transform="translate(213.333 0)"><g class="plotbox"><g class="c2 node n33 p0 root" transform="translate(87.8021 26.8)"><g class="a33 c2 node n20 p0" transform="translate(-52.4688 78.5413)"><g class="a20 leaf node n6 p0 sample" transform="translate(7.66667 16.0587)"><path class="edge" d="M 0 0 V -16.0587 H -7.66667" /><rect class="sym" height="6" width="6" x="-3" y="-3" /><text class="lab" transform="translate(0 11)">6</text></g><g class="a20 c1 node n19 p0" transform="translate(-7.66667 6.89548)"><g class="a19 leaf node n0 p0 sample" transform="translate(0.0 9.16319)"><path class="edge" d="M 0 0 V -9.16319 H 0.0" /><rect class="sym" height="6" width="6" x="-3" y="-3" /><text class="lab" transform="translate(0 11)">0</text></g><path class="edge" d="M 0 0 V -6.89548 H 7.66667" /><circle class="sym" cx="0" cy="0" r="3" /><text class="lab lft" transform="translate(-3 -7.0)">19</text></g><path class="edge" d="M 0 0 V -78.5413 H 52.4688" /><circle class="sym" cx="0" cy="0" r="3" /><text class="lab lft" transform="translate(-3 -7.0)">20</text></g><g class="a33 c2 node n32 p0" transform="translate(52.4688 18.2928)"><g class="a32 c1 node n23 p0" transform="translate(25.3958 55.3241)"><g class="a23 c1 node n10 p0" transform="translate(0.0 20.2766)"><g class="a10 leaf node n2 p0 sample" transform="translate(0.0 0.706546)"><path class="edge" d="M 0 0 V -0.706546 H 0.0" /><rect class="sym" height="6" width="6" x="-3" y="-3" /><text class="lab" transform="translate(0 11)">2</text></g><path class="edge" d="M 0 0 V -20.2766 H 0.0" /><circle class="sym" cx="0" cy="0" r="3" /><text class="lab lft" transform="translate(-3 -7.0)">10</text></g><path class="edge" d="M 0 0 V -55.3241 H -25.3958" /><circle class="sym" cx="0" cy="0" r="3" /><text class="lab rgt" transform="translate(3 -7.0)">23</text></g><g class="a32 c1 node n31 p0" transform="translate(-25.3958 10.917)"><g class="a31 c2 node n27 p0" transform="translate(0.0 20.4072)"><g class="a27 c1 node n22 p0" transform="translate(23.9583 26.5836)"><g class="a22 c2 node n21 p0" transform="translate(0.0 1.11187)"><g class="a21 c1 node n17 p0" transform="translate(11.5 8.708)"><g class="a17 leaf node n8 p0 sample" transform="translate(0.0 8.5796)"><path class="edge" d="M 0 0 V -8.5796 H 0.0" /><rect class="sym" height="6" width="6" x="-3" y="-3" /><text class="lab" transform="translate(0 11)">8</text></g><path class="edge" d="M 0 0 V -8.708 H -11.5" /><circle class="sym" cx="0" cy="0" r="3" /><text class="lab rgt" transform="translate(3 -7.0)">17</text></g><g class="a21 c1 node n16 p0" transform="translate(-11.5 10.594)"><g class="a16 c2 node n12 p0" transform="translate(0.0 5.65277)"><g class="a12 leaf node n4 p0 sample" transform="translate(-7.66667 1.04079)"><path class="edge" d="M 0 0 V -1.04079 H 7.66667" /><rect class="sym" height="6" width="6" x="-3" y="-3" /><text class="lab" transform="translate(0 11)">4</text></g><g class="a12 leaf node n5 p0 sample" transform="translate(7.66667 1.04079)"><path class="edge" d="M 0 0 V -1.04079 H -7.66667" /><rect class="sym" height="6" width="6" x="-3" y="-3" /><text class="lab" transform="translate(0 11)">5</text></g><path class="edge" d="M 0 0 V -5.65277 H 0.0" /><circle class="sym" cx="0" cy="0" r="3" /><text class="lab lft" transform="translate(-3 -7.0)">12</text></g><path class="edge" d="M 0 0 V -10.594 H 11.5" /><circle class="sym" cx="0" cy="0" r="3" /><text class="lab lft" transform="translate(-3 -7.0)">16</text></g><path class="edge" d="M 0 0 V -1.11187 H 0.0" /><circle class="sym" cx="0" cy="0" r="3" /><text class="lab lft" transform="translate(-3 -7.0)">21</text></g><path class="edge" d="M 0 0 V -26.5836 H -23.9583" /><circle class="sym" cx="0" cy="0" r="3" /><text class="lab rgt" transform="translate(3 -7.0)">22</text></g><g class="a27 c1 node n26 p0" transform="translate(-23.9583 7.06927)"><g class="a26 c2 node n25 p0" transform="translate(0.0 8.20459)"><g class="a25 leaf node n3 p0 sample" transform="translate(13.4167 29.7092)"><path class="edge" d="M 0 0 V -29.7092 H -13.4167" /><rect class="sym" height="6" width="6" x="-3" y="-3" /><text class="lab" transform="translate(0 11)">3</text></g><g class="a25 c2 node n14 p0" transform="translate(-13.4167 27.6543)"><g class="a14 leaf node n9 p0 sample" transform="translate(11.5 2.05487)"><path class="edge" d="M 0 0 V -2.05487 H -11.5" /><rect class="sym" height="6" width="6" x="-3" y="-3" /><text class="lab" transform="translate(0 11)">9</text></g><g class="a14 c2 node n13 p0" transform="translate(-11.5 0.386379)"><g class="a13 leaf node n1 p0 sample" transform="translate(-7.66667 1.66849)"><path class="edge" d="M 0 0 V -1.66849 H 7.66667" /><rect class="sym" height="6" width="6" x="-3" y="-3" /><text class="lab" transform="translate(0 11)">1</text></g><g class="a13 leaf node n7 p0 sample" transform="translate(7.66667 1.66849)"><path class="edge" d="M 0 0 V -1.66849 H -7.66667" /><rect class="sym" height="6" width="6" x="-3" y="-3" /><text class="lab" transform="translate(0 11)">7</text></g><path class="edge" d="M 0 0 V -0.386379 H 11.5" /><circle class="sym" cx="0" cy="0" r="3" /><text class="lab lft" transform="translate(-3 -7.0)">13</text></g><path class="edge" d="M 0 0 V -27.6543 H 13.4167" /><circle class="sym" cx="0" cy="0" r="3" /><text class="lab lft" transform="translate(-3 -7.0)">14</text></g><path class="edge" d="M 0 0 V -8.20459 H 0.0" /><circle class="sym" cx="0" cy="0" r="3" /><text class="lab lft" transform="translate(-3 -7.0)">25</text></g><path class="edge" d="M 0 0 V -7.06927 H 23.9583" /><circle class="sym" cx="0" cy="0" r="3" /><text class="lab lft" transform="translate(-3 -7.0)">26</text></g><path class="edge" d="M 0 0 V -20.4072 H 0.0" /><circle class="sym" cx="0" cy="0" r="3" /><text class="lab lft" transform="translate(-3 -7.0)">27</text></g><path class="edge" d="M 0 0 V -10.917 H 25.3958" /><circle class="sym" cx="0" cy="0" r="3" /><text class="lab lft" transform="translate(-3 -7.0)">31</text></g><path class="edge" d="M 0 0 V -18.2928 H -52.4688" /><circle class="sym" cx="0" cy="0" r="3" /><text class="lab rgt" transform="translate(3 -7.0)">32</text></g><circle class="sym" cx="0" cy="0" r="3" /><text class="lab" transform="translate(0 -11)">33</text></g></g></g><g class="tree t2" transform="translate(406.667 0)"><g class="plotbox"><g class="c2 node n33 p0 root" transform="translate(87.8021 26.8)"><g class="a33 c2 node n20 p0" transform="translate(-52.4688 78.5413)"><g class="a20 leaf node n6 p0 sample" transform="translate(7.66667 16.0587)"><path class="edge" d="M 0 0 V -16.0587 H -7.66667" /><rect class="sym" height="6" width="6" x="-3" y="-3" /><text class="lab" transform="translate(0 11)">6</text></g><g class="a20 c1 node n19 p0" transform="translate(-7.66667 6.89548)"><g class="a19 leaf node n0 p0 sample" transform="translate(0.0 9.16319)"><path class="edge" d="M 0 0 V -9.16319 H 0.0" /><rect class="sym" height="6" width="6" x="-3" y="-3" /><text class="lab" transform="translate(0 11)">0</text></g><path class="edge" d="M 0 0 V -6.89548 H 7.66667" /><circle class="sym" cx="0" cy="0" r="3" /><text class="lab lft" transform="translate(-3 -7.0)">19</text></g><path class="edge" d="M 0 0 V -78.5413 H 52.4688" /><circle class="sym" cx="0" cy="0" r="3" /><text class="lab lft" transform="translate(-3 -7.0)">20</text></g><g class="a33 c1 node n32 p0" transform="translate(52.4688 18.2928)"><g class="a32 c2 node n31 p0" transform="translate(0.0 10.917)"><g class="a31 c2 node n27 p0" transform="translate(-25.3958 20.4072)"><g class="a27 c1 node n22 p0" transform="translate(23.9583 26.5836)"><g class="a22 c2 node n21 p0" transform="translate(0.0 1.11187)"><g class="a21 c1 node n17 p0" transform="translate(11.5 8.708)"><g class="a17 leaf node n8 p0 sample" transform="translate(0.0 8.5796)"><path class="edge" d="M 0 0 V -8.5796 H 0.0" /><rect class="sym" height="6" width="6" x="-3" y="-3" /><text class="lab" transform="translate(0 11)">8</text></g><path class="edge" d="M 0 0 V -8.708 H -11.5" /><circle class="sym" cx="0" cy="0" r="3" /><text class="lab rgt" transform="translate(3 -7.0)">17</text></g><g class="a21 c1 node n16 p0" transform="translate(-11.5 10.594)"><g class="a16 c2 node n12 p0" transform="translate(0.0 5.65277)"><g class="a12 leaf node n4 p0 sample" transform="translate(-7.66667 1.04079)"><path class="edge" d="M 0 0 V -1.04079 H 7.66667" /><rect class="sym" height="6" width="6" x="-3" y="-3" /><text class="lab" transform="translate(0 11)">4</text></g><g class="a12 leaf node n5 p0 sample" transform="translate(7.66667 1.04079)"><path class="edge" d="M 0 0 V -1.04079 H -7.66667" /><rect class="sym" height="6" width="6" x="-3" y="-3" /><text class="lab" transform="translate(0 11)">5</text></g><path class="edge" d="M 0 0 V -5.65277 H 0.0" /><circle class="sym" cx="0" cy="0" r="3" /><text class="lab lft" transform="translate(-3 -7.0)">12</text></g><path class="edge" d="M 0 0 V -10.594 H 11.5" /><circle class="sym" cx="0" cy="0" r="3" /><text class="lab lft" transform="translate(-3 -7.0)">16</text></g><path class="edge" d="M 0 0 V -1.11187 H 0.0" /><circle class="sym" cx="0" cy="0" r="3" /><text class="lab lft" transform="translate(-3 -7.0)">21</text></g><path class="edge" d="M 0 0 V -26.5836 H -23.9583" /><circle class="sym" cx="0" cy="0" r="3" /><text class="lab rgt" transform="translate(3 -7.0)">22</text></g><g class="a27 c1 node n26 p0" transform="translate(-23.9583 7.06927)"><g class="a26 c2 node n25 p0" transform="translate(0.0 8.20459)"><g class="a25 leaf node n3 p0 sample" transform="translate(13.4167 29.7092)"><path class="edge" d="M 0 0 V -29.7092 H -13.4167" /><rect class="sym" height="6" width="6" x="-3" y="-3" /><text class="lab" transform="translate(0 11)">3</text></g><g class="a25 c2 node n14 p0" transform="translate(-13.4167 27.6543)"><g class="a14 leaf node n9 p0 sample" transform="translate(11.5 2.05487)"><path class="edge" d="M 0 0 V -2.05487 H -11.5" /><rect class="sym" height="6" width="6" x="-3" y="-3" /><text class="lab" transform="translate(0 11)">9</text></g><g class="a14 c2 node n13 p0" transform="translate(-11.5 0.386379)"><g class="a13 leaf node n1 p0 sample" transform="translate(-7.66667 1.66849)"><path class="edge" d="M 0 0 V -1.66849 H 7.66667" /><rect class="sym" height="6" width="6" x="-3" y="-3" /><text class="lab" transform="translate(0 11)">1</text></g><g class="a13 leaf node n7 p0 sample" transform="translate(7.66667 1.66849)"><path class="edge" d="M 0 0 V -1.66849 H -7.66667" /><rect class="sym" height="6" width="6" x="-3" y="-3" /><text class="lab" transform="translate(0 11)">7</text></g><path class="edge" d="M 0 0 V -0.386379 H 11.5" /><circle class="sym" cx="0" cy="0" r="3" /><text class="lab lft" transform="translate(-3 -7.0)">13</text></g><path class="edge" d="M 0 0 V -27.6543 H 13.4167" /><circle class="sym" cx="0" cy="0" r="3" /><text class="lab lft" transform="translate(-3 -7.0)">14</text></g><path class="edge" d="M 0 0 V -8.20459 H 0.0" /><circle class="sym" cx="0" cy="0" r="3" /><text class="lab lft" transform="translate(-3 -7.0)">25</text></g><path class="edge" d="M 0 0 V -7.06927 H 23.9583" /><circle class="sym" cx="0" cy="0" r="3" /><text class="lab lft" transform="translate(-3 -7.0)">26</text></g><path class="edge" d="M 0 0 V -20.4072 H 25.3958" /><circle class="sym" cx="0" cy="0" r="3" /><text class="lab lft" transform="translate(-3 -7.0)">27</text></g><g class="a31 c1 node n30 p0" transform="translate(25.3958 2.62668)"><g class="a30 c1 node n28 p0" transform="translate(0.0 10.5014)"><g class="a28 c1 node n24 p0" transform="translate(0.0 31.2789)"><g class="a24 c1 node n10 p0" transform="translate(0.0 20.2766)"><g class="a10 leaf node n2 p0 sample" transform="translate(0.0 0.706546)"><path class="edge" d="M 0 0 V -0.706546 H 0.0" /><rect class="sym" height="6" width="6" x="-3" y="-3" /><text class="lab" transform="translate(0 11)">2</text></g><path class="edge" d="M 0 0 V -20.2766 H 0.0" /><circle class="sym" cx="0" cy="0" r="3" /><text class="lab lft" transform="translate(-3 -7.0)">10</text></g><path class="edge" d="M 0 0 V -31.2789 H 0.0" /><circle class="sym" cx="0" cy="0" r="3" /><text class="lab lft" transform="translate(-3 -7.0)">24</text></g><path class="edge" d="M 0 0 V -10.5014 H 0.0" /><circle class="sym" cx="0" cy="0" r="3" /><text class="lab lft" transform="translate(-3 -7.0)">28</text></g><path class="edge" d="M 0 0 V -2.62668 H -25.3958" /><circle class="sym" cx="0" cy="0" r="3" /><text class="lab rgt" transform="translate(3 -7.0)">30</text></g><path class="edge" d="M 0 0 V -10.917 H 0.0" /><circle class="sym" cx="0" cy="0" r="3" /><text class="lab lft" transform="translate(-3 -7.0)">31</text></g><path class="edge" d="M 0 0 V -18.2928 H -52.4688" /><circle class="sym" cx="0" cy="0" r="3" /><text class="lab rgt" transform="translate(3 -7.0)">32</text></g><circle class="sym" cx="0" cy="0" r="3" /><text class="lab" transform="translate(0 -11)">33</text></g></g></g><g class="tree t3" transform="translate(600 0)"><g class="plotbox"><g class="c2 node n33 p0 root" transform="translate(87.8021 26.8)"><g class="a33 c2 node n20 p0" transform="translate(-52.4688 78.5413)"><g class="a20 leaf node n6 p0 sample" transform="translate(7.66667 16.0587)"><path class="edge" d="M 0 0 V -16.0587 H -7.66667" /><rect class="sym" height="6" width="6" x="-3" y="-3" /><text class="lab" transform="translate(0 11)">6</text></g><g class="a20 c1 node n19 p0" transform="translate(-7.66667 6.89548)"><g class="a19 leaf node n0 p0 sample" transform="translate(0.0 9.16319)"><path class="edge" d="M 0 0 V -9.16319 H 0.0" /><rect class="sym" height="6" width="6" x="-3" y="-3" /><text class="lab" transform="translate(0 11)">0</text></g><path class="edge" d="M 0 0 V -6.89548 H 7.66667" /><circle class="sym" cx="0" cy="0" r="3" /><text class="lab lft" transform="translate(-3 -7.0)">19</text></g><path class="edge" d="M 0 0 V -78.5413 H 52.4688" /><circle class="sym" cx="0" cy="0" r="3" /><text class="lab lft" transform="translate(-3 -7.0)">20</text></g><g class="a33 c1 node n32 p0" transform="translate(52.4688 18.2928)"><g class="a32 c2 node n31 p0" transform="translate(0.0 10.917)"><g class="a31 c2 node n27 p0" transform="translate(-25.3958 20.4072)"><g class="a27 c1 node n22 p0" transform="translate(23.9583 26.5836)"><g class="a22 c2 node n21 p0" transform="translate(0.0 1.11187)"><g class="a21 c1 node n17 p0" transform="translate(11.5 8.708)"><g class="a17 leaf node n8 p0 sample" transform="translate(0.0 8.5796)"><path class="edge" d="M 0 0 V -8.5796 H 0.0" /><rect class="sym" height="6" width="6" x="-3" y="-3" /><text class="lab" transform="translate(0 11)">8</text></g><path class="edge" d="M 0 0 V -8.708 H -11.5" /><circle class="sym" cx="0" cy="0" r="3" /><text class="lab rgt" transform="translate(3 -7.0)">17</text></g><g class="a21 c1 node n16 p0" transform="translate(-11.5 10.594)"><g class="a16 c2 node n12 p0" transform="translate(0.0 5.65277)"><g class="a12 leaf node n4 p0 sample" transform="translate(-7.66667 1.04079)"><path class="edge" d="M 0 0 V -1.04079 H 7.66667" /><rect class="sym" height="6" width="6" x="-3" y="-3" /><text class="lab" transform="translate(0 11)">4</text></g><g class="a12 leaf node n5 p0 sample" transform="translate(7.66667 1.04079)"><path class="edge" d="M 0 0 V -1.04079 H -7.66667" /><rect class="sym" height="6" width="6" x="-3" y="-3" /><text class="lab" transform="translate(0 11)">5</text></g><path class="edge" d="M 0 0 V -5.65277 H 0.0" /><circle class="sym" cx="0" cy="0" r="3" /><text class="lab lft" transform="translate(-3 -7.0)">12</text></g><path class="edge" d="M 0 0 V -10.594 H 11.5" /><circle class="sym" cx="0" cy="0" r="3" /><text class="lab lft" transform="translate(-3 -7.0)">16</text></g><path class="edge" d="M 0 0 V -1.11187 H 0.0" /><circle class="sym" cx="0" cy="0" r="3" /><text class="lab lft" transform="translate(-3 -7.0)">21</text></g><path class="edge" d="M 0 0 V -26.5836 H -23.9583" /><circle class="sym" cx="0" cy="0" r="3" /><text class="lab rgt" transform="translate(3 -7.0)">22</text></g><g class="a27 c1 node n26 p0" transform="translate(-23.9583 7.06927)"><g class="a26 c2 node n25 p0" transform="translate(0.0 8.20459)"><g class="a25 leaf node n3 p0 sample" transform="translate(13.4167 29.7092)"><path class="edge" d="M 0 0 V -29.7092 H -13.4167" /><rect class="sym" height="6" width="6" x="-3" y="-3" /><text class="lab" transform="translate(0 11)">3</text></g><g class="a25 c2 node n14 p0" transform="translate(-13.4167 27.6543)"><g class="a14 leaf node n9 p0 sample" transform="translate(11.5 2.05487)"><path class="edge" d="M 0 0 V -2.05487 H -11.5" /><rect class="sym" height="6" width="6" x="-3" y="-3" /><text class="lab" transform="translate(0 11)">9</text></g><g class="a14 c2 node n13 p0" transform="translate(-11.5 0.386379)"><g class="a13 leaf node n1 p0 sample" transform="translate(-7.66667 1.66849)"><path class="edge" d="M 0 0 V -1.66849 H 7.66667" /><rect class="sym" height="6" width="6" x="-3" y="-3" /><text class="lab" transform="translate(0 11)">1</text></g><g class="a13 leaf node n7 p0 sample" transform="translate(7.66667 1.66849)"><path class="edge" d="M 0 0 V -1.66849 H -7.66667" /><rect class="sym" height="6" width="6" x="-3" y="-3" /><text class="lab" transform="translate(0 11)">7</text></g><path class="edge" d="M 0 0 V -0.386379 H 11.5" /><circle class="sym" cx="0" cy="0" r="3" /><text class="lab lft" transform="translate(-3 -7.0)">13</text></g><path class="edge" d="M 0 0 V -27.6543 H 13.4167" /><circle class="sym" cx="0" cy="0" r="3" /><text class="lab lft" transform="translate(-3 -7.0)">14</text></g><path class="edge" d="M 0 0 V -8.20459 H 0.0" /><circle class="sym" cx="0" cy="0" r="3" /><text class="lab lft" transform="translate(-3 -7.0)">25</text></g><path class="edge" d="M 0 0 V -7.06927 H 23.9583" /><circle class="sym" cx="0" cy="0" r="3" /><text class="lab lft" transform="translate(-3 -7.0)">26</text></g><path class="edge" d="M 0 0 V -20.4072 H 25.3958" /><circle class="sym" cx="0" cy="0" r="3" /><text class="lab lft" transform="translate(-3 -7.0)">27</text></g><g class="a31 c1 node n30 p0" transform="translate(25.3958 2.62668)"><g class="a30 c1 node n29 p0" transform="translate(0.0 10.5014)"><g class="a29 c1 node n24 p0" transform="translate(0.0 31.2789)"><g class="a24 c1 node n10 p0" transform="translate(0.0 20.2766)"><g class="a10 leaf node n2 p0 sample" transform="translate(0.0 0.706546)"><path class="edge" d="M 0 0 V -0.706546 H 0.0" /><rect class="sym" height="6" width="6" x="-3" y="-3" /><text class="lab" transform="translate(0 11)">2</text></g><path class="edge" d="M 0 0 V -20.2766 H 0.0" /><circle class="sym" cx="0" cy="0" r="3" /><text class="lab lft" transform="translate(-3 -7.0)">10</text></g><path class="edge" d="M 0 0 V -31.2789 H 0.0" /><circle class="sym" cx="0" cy="0" r="3" /><text class="lab lft" transform="translate(-3 -7.0)">24</text></g><path class="edge" d="M 0 0 V -10.5014 H 0.0" /><circle class="sym" cx="0" cy="0" r="3" /><text class="lab lft" transform="translate(-3 -7.0)">29</text></g><path class="edge" d="M 0 0 V -2.62668 H -25.3958" /><circle class="sym" cx="0" cy="0" r="3" /><text class="lab rgt" transform="translate(3 -7.0)">30</text></g><path class="edge" d="M 0 0 V -10.917 H 0.0" /><circle class="sym" cx="0" cy="0" r="3" /><text class="lab lft" transform="translate(-3 -7.0)">31</text></g><path class="edge" d="M 0 0 V -18.2928 H -52.4688" /><circle class="sym" cx="0" cy="0" r="3" /><text class="lab rgt" transform="translate(3 -7.0)">32</text></g><circle class="sym" cx="0" cy="0" r="3" /><text class="lab" transform="translate(0 -11)">33</text></g></g></g><g class="tree t4" transform="translate(793.333 0)"><g class="plotbox"><g class="c2 node n33 p0 root" transform="translate(95.9479 26.8)"><g class="a33 c2 node n20 p0" transform="translate(-49.1146 78.5413)"><g class="a20 leaf node n6 p0 sample" transform="translate(11.5 16.0587)"><path class="edge" d="M 0 0 V -16.0587 H -11.5" /><rect class="sym" height="6" width="6" x="-3" y="-3" /><text class="lab" transform="translate(0 11)">6</text></g><g class="a20 c2 node n19 p0" transform="translate(-11.5 6.89548)"><g class="a19 leaf node n0 p0 sample" transform="translate(-7.66667 9.16319)"><path class="edge" d="M 0 0 V -9.16319 H 7.66667" /><rect class="sym" height="6" width="6" x="-3" y="-3" /><text class="lab" transform="translate(0 11)">0</text></g><g class="a19 c1 node n18 p0" transform="translate(7.66667 0.583595)"><g class="a18 leaf node n8 p0 sample" transform="translate(0.0 8.5796)"><path class="edge" d="M 0 0 V -8.5796 H 0.0" /><rect class="sym" height="6" width="6" x="-3" y="-3" /><text class="lab" transform="translate(0 11)">8</text></g><path class="edge" d="M 0 0 V -0.583595 H -7.66667" /><circle class="sym" cx="0" cy="0" r="3" /><text class="lab rgt" transform="translate(3 -7.0)">18</text></g><path class="edge" d="M 0 0 V -6.89548 H 11.5" /><circle class="sym" cx="0" cy="0" r="3" /><text class="lab lft" transform="translate(-3 -7.0)">19</text></g><path class="edge" d="M 0 0 V -78.5413 H 49.1146" /><circle class="sym" cx="0" cy="0" r="3" /><text class="lab lft" transform="translate(-3 -7.0)">20</text></g><g class="a33 c1 node n32 p0" transform="translate(49.1146 18.2928)"><g class="a32 c2 node n31 p0" transform="translate(0.0 10.917)"><g class="a31 c2 node n27 p0" transform="translate(-20.6042 20.4072)"><g class="a27 c1 node n22 p0" transform="translate(18.2083 26.5836)"><g class="a22 c1 node n21 p0" transform="translate(0.0 1.11187)"><g class="a21 c1 node n16 p0" transform="translate(0.0 10.594)"><g class="a16 c2 node n12 p0" transform="translate(0.0 5.65277)"><g class="a12 leaf node n4 p0 sample" transform="translate(-7.66667 1.04079)"><path class="edge" d="M 0 0 V -1.04079 H 7.66667" /><rect class="sym" height="6" width="6" x="-3" y="-3" /><text class="lab" transform="translate(0 11)">4</text></g><g class="a12 leaf node n5 p0 sample" transform="translate(7.66667 1.04079)"><path class="edge" d="M 0 0 V -1.04079 H -7.66667" /><rect class="sym" height="6" width="6" x="-3" y="-3" /><text class="lab" transform="translate(0 11)">5</text></g><path class="edge" d="M 0 0 V -5.65277 H 0.0" /><circle class="sym" cx="0" cy="0" r="3" /><text class="lab lft" transform="translate(-3 -7.0)">12</text></g><path class="edge" d="M 0 0 V -10.594 H 0.0" /><circle class="sym" cx="0" cy="0" r="3" /><text class="lab lft" transform="translate(-3 -7.0)">16</text></g><path class="edge" d="M 0 0 V -1.11187 H 0.0" /><circle class="sym" cx="0" cy="0" r="3" /><text class="lab lft" transform="translate(-3 -7.0)">21</text></g><path class="edge" d="M 0 0 V -26.5836 H -18.2083" /><circle class="sym" cx="0" cy="0" r="3" /><text class="lab rgt" transform="translate(3 -7.0)">22</text></g><g class="a27 c1 node n26 p0" transform="translate(-18.2083 7.06927)"><g class="a26 c2 node n25 p0" transform="translate(0.0 8.20459)"><g class="a25 leaf node n3 p0 sample" transform="translate(13.4167 29.7092)"><path class="edge" d="M 0 0 V -29.7092 H -13.4167" /><rect class="sym" height="6" width="6" x="-3" y="-3" /><text class="lab" transform="translate(0 11)">3</text></g><g class="a25 c2 node n14 p0" transform="translate(-13.4167 27.6543)"><g class="a14 leaf node n9 p0 sample" transform="translate(11.5 2.05487)"><path class="edge" d="M 0 0 V -2.05487 H -11.5" /><rect class="sym" height="6" width="6" x="-3" y="-3" /><text class="lab" transform="translate(0 11)">9</text></g><g class="a14 c2 node n13 p0" transform="translate(-11.5 0.386379)"><g class="a13 leaf node n1 p0 sample" transform="translate(-7.66667 1.66849)"><path class="edge" d="M 0 0 V -1.66849 H 7.66667" /><rect class="sym" height="6" width="6" x="-3" y="-3" /><text class="lab" transform="translate(0 11)">1</text></g><g class="a13 leaf node n7 p0 sample" transform="translate(7.66667 1.66849)"><path class="edge" d="M 0 0 V -1.66849 H -7.66667" /><rect class="sym" height="6" width="6" x="-3" y="-3" /><text class="lab" transform="translate(0 11)">7</text></g><path class="edge" d="M 0 0 V -0.386379 H 11.5" /><circle class="sym" cx="0" cy="0" r="3" /><text class="lab lft" transform="translate(-3 -7.0)">13</text></g><path class="edge" d="M 0 0 V -27.6543 H 13.4167" /><circle class="sym" cx="0" cy="0" r="3" /><text class="lab lft" transform="translate(-3 -7.0)">14</text></g><path class="edge" d="M 0 0 V -8.20459 H 0.0" /><circle class="sym" cx="0" cy="0" r="3" /><text class="lab lft" transform="translate(-3 -7.0)">25</text></g><path class="edge" d="M 0 0 V -7.06927 H 18.2083" /><circle class="sym" cx="0" cy="0" r="3" /><text class="lab lft" transform="translate(-3 -7.0)">26</text></g><path class="edge" d="M 0 0 V -20.4072 H 20.6042" /><circle class="sym" cx="0" cy="0" r="3" /><text class="lab lft" transform="translate(-3 -7.0)">27</text></g><g class="a31 c1 node n30 p0" transform="translate(20.6042 2.62668)"><g class="a30 c1 node n29 p0" transform="translate(0.0 10.5014)"><g class="a29 c1 node n24 p0" transform="translate(0.0 31.2789)"><g class="a24 c1 node n10 p0" transform="translate(0.0 20.2766)"><g class="a10 leaf node n2 p0 sample" transform="translate(0.0 0.706546)"><path class="edge" d="M 0 0 V -0.706546 H 0.0" /><rect class="sym" height="6" width="6" x="-3" y="-3" /><text class="lab" transform="translate(0 11)">2</text></g><path class="edge" d="M 0 0 V -20.2766 H 0.0" /><circle class="sym" cx="0" cy="0" r="3" /><text class="lab lft" transform="translate(-3 -7.0)">10</text></g><path class="edge" d="M 0 0 V -31.2789 H 0.0" /><circle class="sym" cx="0" cy="0" r="3" /><text class="lab lft" transform="translate(-3 -7.0)">24</text></g><path class="edge" d="M 0 0 V -10.5014 H 0.0" /><circle class="sym" cx="0" cy="0" r="3" /><text class="lab lft" transform="translate(-3 -7.0)">29</text></g><path class="edge" d="M 0 0 V -2.62668 H -20.6042" /><circle class="sym" cx="0" cy="0" r="3" /><text class="lab rgt" transform="translate(3 -7.0)">30</text></g><path class="edge" d="M 0 0 V -10.917 H 0.0" /><circle class="sym" cx="0" cy="0" r="3" /><text class="lab lft" transform="translate(-3 -7.0)">31</text></g><path class="edge" d="M 0 0 V -18.2928 H -49.1146" /><circle class="sym" cx="0" cy="0" r="3" /><text class="lab rgt" transform="translate(3 -7.0)">32</text></g><circle class="sym" cx="0" cy="0" r="3" /><text class="lab" transform="translate(0 -11)">33</text></g></g></g><g class="tree t5" transform="translate(986.667 0)"><g class="plotbox"><g class="c2 node n33 p0 root" transform="translate(93.0729 26.8)"><g class="a33 c2 node n20 p0" transform="translate(-46.2396 78.5413)"><g class="a20 leaf node n6 p0 sample" transform="translate(11.5 16.0587)"><path class="edge" d="M 0 0 V -16.0587 H -11.5" /><rect class="sym" height="6" width="6" x="-3" y="-3" /><text class="lab" transform="translate(0 11)">6</text></g><g class="a20 c2 node n19 p0" transform="translate(-11.5 6.89548)"><g class="a19 leaf node n0 p0 sample" transform="translate(-7.66667 9.16319)"><path class="edge" d="M 0 0 V -9.16319 H 7.66667" /><rect class="sym" height="6" width="6" x="-3" y="-3" /><text class="lab" transform="translate(0 11)">0</text></g><g class="a19 c1 node n18 p0" transform="translate(7.66667 0.583595)"><g class="a18 leaf node n8 p0 sample" transform="translate(0.0 8.5796)"><path class="edge" d="M 0 0 V -8.5796 H 0.0" /><rect class="sym" height="6" width="6" x="-3" y="-3" /><text class="lab" transform="translate(0 11)">8</text></g><path class="edge" d="M 0 0 V -0.583595 H -7.66667" /><circle class="sym" cx="0" cy="0" r="3" /><text class="lab rgt" transform="translate(3 -7.0)">18</text></g><path class="edge" d="M 0 0 V -6.89548 H 11.5" /><circle class="sym" cx="0" cy="0" r="3" /><text class="lab lft" transform="translate(-3 -7.0)">19</text></g><path class="edge" d="M 0 0 V -78.5413 H 46.2396" /><circle class="sym" cx="0" cy="0" r="3" /><text class="lab lft" transform="translate(-3 -7.0)">20</text></g><g class="a33 c1 node n32 p0" transform="translate(46.2396 18.2928)"><g class="a32 c1 node n31 p0" transform="translate(0.0 10.917)"><g class="a31 c2 node n27 p0" transform="translate(0.0 20.4072)"><g class="a27 c1 node n22 p0" transform="translate(18.6875 26.5836)"><g class="a22 c1 node n21 p0" transform="translate(0.0 1.11187)"><g class="a21 c1 node n16 p0" transform="translate(0.0 10.594)"><g class="a16 c2 node n12 p0" transform="translate(0.0 5.65277)"><g class="a12 leaf node n4 p0 sample" transform="translate(-7.66667 1.04079)"><path class="edge" d="M 0 0 V -1.04079 H 7.66667" /><rect class="sym" height="6" width="6" x="-3" y="-3" /><text class="lab" transform="translate(0 11)">4</text></g><g class="a12 leaf node n5 p0 sample" transform="translate(7.66667 1.04079)"><path class="edge" d="M 0 0 V -1.04079 H -7.66667" /><rect class="sym" height="6" width="6" x="-3" y="-3" /><text class="lab" transform="translate(0 11)">5</text></g><path class="edge" d="M 0 0 V -5.65277 H 0.0" /><circle class="sym" cx="0" cy="0" r="3" /><text class="lab lft" transform="translate(-3 -7.0)">12</text></g><path class="edge" d="M 0 0 V -10.594 H 0.0" /><circle class="sym" cx="0" cy="0" r="3" /><text class="lab lft" transform="translate(-3 -7.0)">16</text></g><path class="edge" d="M 0 0 V -1.11187 H 0.0" /><circle class="sym" cx="0" cy="0" r="3" /><text class="lab lft" transform="translate(-3 -7.0)">21</text></g><path class="edge" d="M 0 0 V -26.5836 H -18.6875" /><circle class="sym" cx="0" cy="0" r="3" /><text class="lab rgt" transform="translate(3 -7.0)">22</text></g><g class="a27 c2 node n26 p0" transform="translate(-18.6875 7.06927)"><g class="a26 c2 node n25 p0" transform="translate(-14.375 8.20459)"><g class="a25 leaf node n3 p0 sample" transform="translate(13.4167 29.7092)"><path class="edge" d="M 0 0 V -29.7092 H -13.4167" /><rect class="sym" height="6" width="6" x="-3" y="-3" /><text class="lab" transform="translate(0 11)">3</text></g><g class="a25 c2 node n14 p0" transform="translate(-13.4167 27.6543)"><g class="a14 leaf node n9 p0 sample" transform="translate(11.5 2.05487)"><path class="edge" d="M 0 0 V -2.05487 H -11.5" /><rect class="sym" height="6" width="6" x="-3" y="-3" /><text class="lab" transform="translate(0 11)">9</text></g><g class="a14 c2 node n13 p0" transform="translate(-11.5 0.386379)"><g class="a13 leaf node n1 p0 sample" transform="translate(-7.66667 1.66849)"><path class="edge" d="M 0 0 V -1.66849 H 7.66667" /><rect class="sym" height="6" width="6" x="-3" y="-3" /><text class="lab" transform="translate(0 11)">1</text></g><g class="a13 leaf node n7 p0 sample" transform="translate(7.66667 1.66849)"><path class="edge" d="M 0 0 V -1.66849 H -7.66667" /><rect class="sym" height="6" width="6" x="-3" y="-3" /><text class="lab" transform="translate(0 11)">7</text></g><path class="edge" d="M 0 0 V -0.386379 H 11.5" /><circle class="sym" cx="0" cy="0" r="3" /><text class="lab lft" transform="translate(-3 -7.0)">13</text></g><path class="edge" d="M 0 0 V -27.6543 H 13.4167" /><circle class="sym" cx="0" cy="0" r="3" /><text class="lab lft" transform="translate(-3 -7.0)">14</text></g><path class="edge" d="M 0 0 V -8.20459 H 14.375" /><circle class="sym" cx="0" cy="0" r="3" /><text class="lab lft" transform="translate(-3 -7.0)">25</text></g><g class="a26 c1 node n11 p0" transform="translate(14.375 37.2072)"><g class="a11 leaf node n2 p0 sample" transform="translate(0.0 0.706546)"><path class="edge" d="M 0 0 V -0.706546 H 0.0" /><rect class="sym" height="6" width="6" x="-3" y="-3" /><text class="lab" transform="translate(0 11)">2</text></g><path class="edge" d="M 0 0 V -37.2072 H -14.375" /><circle class="sym" cx="0" cy="0" r="3" /><text class="lab rgt" transform="translate(3 -7.0)">11</text></g><path class="edge" d="M 0 0 V -7.06927 H 18.6875" /><circle class="sym" cx="0" cy="0" r="3" /><text class="lab lft" transform="translate(-3 -7.0)">26</text></g><path class="edge" d="M 0 0 V -20.4072 H 0.0" /><circle class="sym" cx="0" cy="0" r="3" /><text class="lab lft" transform="translate(-3 -7.0)">27</text></g><path class="edge" d="M 0 0 V -10.917 H 0.0" /><circle class="sym" cx="0" cy="0" r="3" /><text class="lab lft" transform="translate(-3 -7.0)">31</text></g><path class="edge" d="M 0 0 V -18.2928 H -46.2396" /><circle class="sym" cx="0" cy="0" r="3" /><text class="lab rgt" transform="translate(3 -7.0)">32</text></g><circle class="sym" cx="0" cy="0" r="3" /><text class="lab" transform="translate(0 -11)">33</text></g></g></g></g></g></svg>
