<svg baseProfile="full" height="200" version="1.1" width="1200" xmlns="http://www.w3.org/2000/svg" xmlns:ev="http://www.w3.org/2001/xml-events" xmlns:xlink="http://www.w3.org/1999/xlink"><defs><style type="text/css"><![CDATA[.background path {fill: #808080; fill-opacity: 0}.background path:nth-child(odd) {fill-opacity: .1}.axes {font-size: 14px}.x-axis .tick .lab {font-weight: bold; dominant-baseline: hanging}.axes, .tree {font-size: 14px; text-anchor: middle}.axes line, .edge {stroke: black; fill: none}.y-axis .grid {stroke: #FAFAFA}.node > .sym {fill: black; stroke: none}.site > .sym {stroke: black}.mut text {fill: red; font-style: italic}.mut.extra text {fill: hotpink}.mut line {fill: none; stroke: none}.mut .sym {fill: none; stroke: red}.mut.extra .sym {stroke: hotpink}.node .mut .sym {stroke-width: 1.5px}.tree text, .tree-sequence text {dominant-baseline: central}.plotbox .lab.lft {text-anchor: end}.plotbox .lab.rgt {text-anchor: start}]]></style></defs><g class="tree-sequence"><g class="background"><path d="M20,0 l193.333,0 l0,138.2 l-41.8855,25 l0,5 l-151.448,0 l0,-5 l0,-25 l0,-138.2z" /><path d="M213.333,0 l193.333,0 l0,138.2 l376.681,25 l0,5 l-611.9,0 l0,-5 l41.8855,-25 l0,-138.2z" /><path d="M406.667,0 l193.333,0 l0,138.2 l202.196,25 l0,5 l-18.8488,0 l0,-5 l-376.681,-25 l0,-138.2z" /><path d="M600,0 l193.333,0 l0,138.2 l42.2656,25 l0,5 l-33.4027,0 l0,-5 l-202.196,-25 l0,-138.2z" /><path d="M793.333,0 l193.333,0 l0,138.2 l113.237,25 l0,5 l-264.305,0 l0,-5 l-42.2656,-25 l0,-138.2z" /><path d="M986.667,0 l193.333,0 l0,138.2 l0,25 l0,5 l-80.096,0 l0,-5 l-113.237,-25 l0,-138.2z" /></g><g class="axes"><g class="x-axis"><g transform="translate(600 200)"><text class="lab" text-anchor="middle" transform="translate(0 -11)">Genome position</text></g><line x1="20" x2="1180" y1="163.2" y2="163.2" /><g class="ticks"><g class="tick" transform="translate(20 163.2)"><line x1="0" x2="0" y1="0" y2="5" /><g transform="translate(0 6)"><text class="lab">0.00</text></g></g><g class="tick" transform="translate(171.448 163.2)"><line x1="0" x2="0" y1="0" y2="5" /><g transform="translate(0 6)"><text class="lab">130.56</text></g></g><g class="tick" transform="translate(783.347 163.2)"><line x1="0" x2="0" y1="0" y2="5" /><g transform="translate(0 6)"><text class="lab">658.06</text></g></g><g class="tick" transform="translate(802.196 163.2)"><line x1="0" x2="0" y1="0" y2="5" /><g transform="translate(0 6)"><text class="lab">674.31</text></g></g><g class="tick" transform="translate(835.599 163.2)"><line x1="0" x2="0" y1="0" y2="5" /><g transform="translate(0 6)"><text class="lab">703.10</text></g></g><g class="tick" transform="translate(1099.9 163.2)"><line x1="0" x2="0" y1="0" y2="5" /><g transform="translate(0 6)"><text class="lab">930.95</text></g></g><g class="tick" transform="translate(1180 163.2)"><line x1="0" x2="0" y1="0" y2="5" /><g transform="translate(0 6)"><text class="lab">1000.00</text></g></g></g></g></g><g class="plotbox trees"><g class="tree t0" transform="translate(20 0)"><g class="plotbox"><g class="c2 node n33 p0 root" transform="translate(92.8333 26.8)"><g class="a33 c2 node n31 p0" transform="translate(-46 39.0783)"><g class="a31 c1 node n28 p0" transform="translate(11.5 4.91381)"><g class="a28 c1 node n10 p0" transform="translate(0.0 49.6259)"><g class="a10 leaf node n6 p0 sample" transform="translate(0.0 0.981973)"><path class="edge" d="M 0 0 V -0.981973 H 0.0" /><rect class="sym" height="6" width="6" x="-3" y="-3" /><text class="lab" transform="translate(0 11)">6</text></g><path class="edge" d="M 0 0 V -49.6259 H 0.0" /><circle class="sym" cx="0" cy="0" r="3" /><text class="lab lft" transform="translate(-3 -7.0)">10</text></g><path class="edge" d="M 0 0 V -4.91381 H -11.5" /><circle class="sym" cx="0" cy="0" r="3" /><text class="lab rgt" transform="translate(3 -7.0)">28</text></g><g class="a31 c1 node n30 p0" transform="translate(-11.5 2.90314)"><g class="a30 c1 node n27 p0" transform="translate(0.0 3.05894)"><g class="a27 c2 node n23 p0" transform="translate(0.0 7.68661)"><g class="a23 leaf node n0 p0 sample" transform="translate(-7.66667 41.873)"><path class="edge" d="M 0 0 V -41.873 H 7.66667" /><rect class="sym" height="6" width="6" x="-3" y="-3" /><text class="lab" transform="translate(0 11)">0</text></g><g class="a23 c1 node n13 p0" transform="translate(7.66667 35.392)"><g class="a13 leaf node n2 p0 sample" transform="translate(0.0 6.481)"><path class="edge" d="M 0 0 V -6.481 H 0.0" /><rect class="sym" height="6" width="6" x="-3" y="-3" /><text class="lab" transform="translate(0 11)">2</text></g><path class="edge" d="M 0 0 V -35.392 H -7.66667" /><circle class="sym" cx="0" cy="0" r="3" /><text class="lab rgt" transform="translate(3 -7.0)">13</text></g><path class="edge" d="M 0 0 V -7.68661 H 0.0" /><circle class="sym" cx="0" cy="0" r="3" /><text class="lab lft" transform="translate(-3 -7.0)">23</text></g><path class="edge" d="M 0 0 V -3.05894 H 0.0" /><circle class="sym" cx="0" cy="0" r="3" /><text class="lab lft" transform="translate(-3 -7.0)">27</text></g><path class="edge" d="M 0 0 V -2.90314 H 11.5" /><circle class="sym" cx="0" cy="0" r="3" /><text class="lab lft" transform="translate(-3 -7.0)">30</text></g><path class="edge" d="M 0 0 V -39.0783 H 46" /><circle class="sym" cx="0" cy="0" r="3" /><text class="lab lft" transform="translate(-3 -7.0)">31</text></g><g class="a33 c2 node n32 p0" transform="translate(46 11.9341)"><g class="a32 c1 node n24 p0" transform="translate(26.8333 35.7028)"><g class="a24 leaf node n9 p0 sample" transform="translate(0.0 46.9631)"><path class="edge" d="M 0 0 V -46.9631 H 0.0" /><rect class="sym" height="6" width="6" x="-3" y="-3" /><text class="lab" transform="translate(0 11)">9</text></g><path class="edge" d="M 0 0 V -35.7028 H -26.8333" /><circle class="sym" cx="0" cy="0" r="3" /><text class="lab rgt" transform="translate(3 -7.0)">24</text></g><g class="a32 c1 node n26 p0" transform="translate(-26.8333 33.63)"><g class="a26 c1 node n22 p0" transform="translate(0.0 8.60928)"><g class="a22 c2 node n21 p0" transform="translate(0.0 6.35363)"><g class="a21 c2 node n18 p0" transform="translate(19.1667 26.4123)"><g class="a18 c2 node n12 p0" transform="translate(11.5 4.87748)"><g class="a12 leaf node n7 p0 sample" transform="translate(-7.66667 2.78316)"><path class="edge" d="M 0 0 V -2.78316 H 7.66667" /><rect class="sym" height="6" width="6" x="-3" y="-3" /><text class="lab" transform="translate(0 11)">7</text></g><g class="a12 leaf node n8 p0 sample" transform="translate(7.66667 2.78316)"><path class="edge" d="M 0 0 V -2.78316 H -7.66667" /><rect class="sym" height="6" width="6" x="-3" y="-3" /><text class="lab" transform="translate(0 11)">8</text></g><path class="edge" d="M 0 0 V -4.87748 H -11.5" /><circle class="sym" cx="0" cy="0" r="3" /><text class="lab rgt" transform="translate(3 -7.0)">12</text></g><g class="a18 c1 node n15 p0" transform="translate(-11.5 1.00215)"><g class="a15 leaf node n4 p0 sample" transform="translate(0.0 6.6585)"><path class="edge" d="M 0 0 V -6.6585 H 0.0" /><rect class="sym" height="6" width="6" x="-3" y="-3" /><text class="lab" transform="translate(0 11)">4</text></g><path class="edge" d="M 0 0 V -1.00215 H 11.5" /><circle class="sym" cx="0" cy="0" r="3" /><text class="lab lft" transform="translate(-3 -7.0)">15</text></g><path class="edge" d="M 0 0 V -26.4123 H -19.1667" /><circle class="sym" cx="0" cy="0" r="3" /><text class="lab rgt" transform="translate(3 -7.0)">18</text></g><g class="a21 c2 node n20 p0" transform="translate(-19.1667 8.21682)"><g class="a20 leaf node n5 p0 sample" transform="translate(11.5 25.8561)"><path class="edge" d="M 0 0 V -25.8561 H -11.5" /><rect class="sym" height="6" width="6" x="-3" y="-3" /><text class="lab" transform="translate(0 11)">5</text></g><g class="a20 c2 node n19 p0" transform="translate(-11.5 16.765)"><g class="a19 leaf node n3 p0 sample" transform="translate(7.66667 9.09115)"><path class="edge" d="M 0 0 V -9.09115 H -7.66667" /><rect class="sym" height="6" width="6" x="-3" y="-3" /><text class="lab" transform="translate(0 11)">3</text></g><g class="a19 c1 node n17 p0" transform="translate(-7.66667 1.67586)"><g class="a17 leaf node n1 p0 sample" transform="translate(0.0 7.41529)"><path class="edge" d="M 0 0 V -7.41529 H 0.0" /><rect class="sym" height="6" width="6" x="-3" y="-3" /><text class="lab" transform="translate(0 11)">1</text></g><path class="edge" d="M 0 0 V -1.67586 H 7.66667" /><circle class="sym" cx="0" cy="0" r="3" /><text class="lab lft" transform="translate(-3 -7.0)">17</text></g><path class="edge" d="M 0 0 V -16.765 H 11.5" /><circle class="sym" cx="0" cy="0" r="3" /><text class="lab lft" transform="translate(-3 -7.0)">19</text></g><path class="edge" d="M 0 0 V -8.21682 H 19.1667" /><circle class="sym" cx="0" cy="0" r="3" /><text class="lab lft" transform="translate(-3 -7.0)">20</text></g><path class="edge" d="M 0 0 V -6.35363 H 0.0" /><circle class="sym" cx="0" cy="0" r="3" /><text class="lab lft" transform="translate(-3 -7.0)">21</text></g><path class="edge" d="M 0 0 V -8.60928 H 0.0" /><circle class="sym" cx="0" cy="0" r="3" /><text class="lab lft" transform="translate(-3 -7.0)">22</text></g><path class="edge" d="M 0 0 V -33.63 H 26.8333" /><circle class="sym" cx="0" cy="0" r="3" /><text class="lab lft" transform="translate(-3 -7.0)">26</text></g><path class="edge" d="M 0 0 V -11.9341 H -46" /><circle class="sym" cx="0" cy="0" r="3" /><text class="lab rgt" transform="translate(3 -7.0)">32</text></g><circle class="sym" cx="0" cy="0" r="3" /><text class="lab" transform="translate(0 -11)">33</text></g></g></g><g class="tree t1" transform="translate(213.333 0)"><g class="plotbox"><g class="c2 node n33 p0 root" transform="translate(93.7917 26.8)"><g class="a33 c2 node n31 p0" transform="translate(-33.5417 39.0783)"><g class="a31 c1 node n28 p0" transform="translate(13.4167 4.91381)"><g class="a28 c1 node n10 p0" transform="translate(0.0 49.6259)"><g class="a10 leaf node n6 p0 sample" transform="translate(0.0 0.981973)"><path class="edge" d="M 0 0 V -0.981973 H 0.0" /><rect class="sym" height="6" width="6" x="-3" y="-3" /><text class="lab" transform="translate(0 11)">6</text></g><path class="edge" d="M 0 0 V -49.6259 H 0.0" /><circle class="sym" cx="0" cy="0" r="3" /><text class="lab lft" transform="translate(-3 -7.0)">10</text></g><path class="edge" d="M 0 0 V -4.91381 H -13.4167" /><circle class="sym" cx="0" cy="0" r="3" /><text class="lab rgt" transform="translate(3 -7.0)">28</text></g><g class="a31 c1 node n30 p0" transform="translate(-13.4167 2.90314)"><g class="a30 c2 node n27 p0" transform="translate(0.0 3.05894)"><g class="a27 c2 node n23 p0" transform="translate(-11.5 7.68661)"><g class="a23 leaf node n0 p0 sample" transform="translate(-7.66667 41.873)"><path class="edge" d="M 0 0 V -41.873 H 7.66667" /><rect class="sym" height="6" width="6" x="-3" y="-3" /><text class="lab" transform="translate(0 11)">0</text></g><g class="a23 c1 node n13 p0" transform="translate(7.66667 35.392)"><g class="a13 leaf node n2 p0 sample" transform="translate(0.0 6.481)"><path class="edge" d="M 0 0 V -6.481 H 0.0" /><rect class="sym" height="6" width="6" x="-3" y="-3" /><text class="lab" transform="translate(0 11)">2</text></g><path class="edge" d="M 0 0 V -35.392 H -7.66667" /><circle class="sym" cx="0" cy="0" r="3" /><text class="lab rgt" transform="translate(3 -7.0)">13</text></g><path class="edge" d="M 0 0 V -7.68661 H 11.5" /><circle class="sym" cx="0" cy="0" r="3" /><text class="lab lft" transform="translate(-3 -7.0)">23</text></g><g class="a27 c1 node n25 p0" transform="translate(11.5 2.59649)"><g class="a25 leaf node n9 p0 sample" transform="translate(0.0 46.9631)"><path class="edge" d="M 0 0 V -46.9631 H 0.0" /><rect class="sym" height="6" width="6" x="-3" y="-3" /><text class="lab" transform="translate(0 11)">9</text></g><path class="edge" d="M 0 0 V -2.59649 H -11.5" /><circle class="sym" cx="0" cy="0" r="3" /><text class="lab rgt" transform="translate(3 -7.0)">25</text></g><path class="edge" d="M 0 0 V -3.05894 H 0.0" /><circle class="sym" cx="0" cy="0" r="3" /><text class="lab lft" transform="translate(-3 -7.0)">27</text></g><path class="edge" d="M 0 0 V -2.90314 H 13.4167" /><circle class="sym" cx="0" cy="0" r="3" /><text class="lab lft" transform="translate(-3 -7.0)">30</text></g><path class="edge" d="M 0 0 V -39.0783 H 33.5417" /><circle class="sym" cx="0" cy="0" r="3" /><text class="lab lft" transform="translate(-3 -7.0)">31</text></g><g class="a33 c1 node n32 p0" transform="translate(33.5417 11.9341)"><g class="a32 c1 node n26 p0" transform="translate(0.0 33.63)"><g class="a26 c1 node n22 p0" transform="translate(0.0 8.60928)"><g class="a22 c2 node n21 p0" transform="translate(0.0 6.35363)"><g class="a21 c2 node n18 p0" transform="translate(19.1667 26.4123)"><g class="a18 c2 node n12 p0" transform="translate(11.5 4.87748)"><g class="a12 leaf node n7 p0 sample" transform="translate(-7.66667 2.78316)"><path class="edge" d="M 0 0 V -2.78316 H 7.66667" /><rect class="sym" height="6" width="6" x="-3" y="-3" /><text class="lab" transform="translate(0 11)">7</text></g><g class="a12 leaf node n8 p0 sample" transform="translate(7.66667 2.78316)"><path class="edge" d="M 0 0 V -2.78316 H -7.66667" /><rect class="sym" height="6" width="6" x="-3" y="-3" /><text class="lab" transform="translate(0 11)">8</text></g><path class="edge" d="M 0 0 V -4.87748 H -11.5" /><circle class="sym" cx="0" cy="0" r="3" /><text class="lab rgt" transform="translate(3 -7.0)">12</text></g><g class="a18 c1 node n15 p0" transform="translate(-11.5 1.00215)"><g class="a15 leaf node n4 p0 sample" transform="translate(0.0 6.6585)"><path class="edge" d="M 0 0 V -6.6585 H 0.0" /><rect class="sym" height="6" width="6" x="-3" y="-3" /><text class="lab" transform="translate(0 11)">4</text></g><path class="edge" d="M 0 0 V -1.00215 H 11.5" /><circle class="sym" cx="0" cy="0" r="3" /><text class="lab lft" transform="translate(-3 -7.0)">15</text></g><path class="edge" d="M 0 0 V -26.4123 H -19.1667" /><circle class="sym" cx="0" cy="0" r="3" /><text class="lab rgt" transform="translate(3 -7.0)">18</text></g><g class="a21 c2 node n20 p0" transform="translate(-19.1667 8.21682)"><g class="a20 leaf node n5 p0 sample" transform="translate(11.5 25.8561)"><path class="edge" d="M 0 0 V -25.8561 H -11.5" /><rect class="sym" height="6" width="6" x="-3" y="-3" /><text class="lab" transform="translate(0 11)">5</text></g><g class="a20 c2 node n19 p0" transform="translate(-11.5 16.765)"><g class="a19 leaf node n3 p0 sample" transform="translate(7.66667 9.09115)"><path class="edge" d="M 0 0 V -9.09115 H -7.66667" /><rect class="sym" height="6" width="6" x="-3" y="-3" /><text class="lab" transform="translate(0 11)">3</text></g><g class="a19 c1 node n17 p0" transform="translate(-7.66667 1.67586)"><g class="a17 leaf node n1 p0 sample" transform="translate(0.0 7.41529)"><path class="edge" d="M 0 0 V -7.41529 H 0.0" /><rect class="sym" height="6" width="6" x="-3" y="-3" /><text class="lab" transform="translate(0 11)">1</text></g><path class="edge" d="M 0 0 V -1.67586 H 7.66667" /><circle class="sym" cx="0" cy="0" r="3" /><text class="lab lft" transform="translate(-3 -7.0)">17</text></g><path class="edge" d="M 0 0 V -16.765 H 11.5" /><circle class="sym" cx="0" cy="0" r="3" /><text class="lab lft" transform="translate(-3 -7.0)">19</text></g><path class="edge" d="M 0 0 V -8.21682 H 19.1667" /><circle class="sym" cx="0" cy="0" r="3" /><text class="lab lft" transform="translate(-3 -7.0)">20</text></g><path class="edge" d="M 0 0 V -6.35363 H 0.0" /><circle class="sym" cx="0" cy="0" r="3" /><text class="lab lft" transform="translate(-3 -7.0)">21</text></g><path class="edge" d="M 0 0 V -8.60928 H 0.0" /><circle class="sym" cx="0" cy="0" r="3" /><text class="lab lft" transform="translate(-3 -7.0)">22</text></g><path class="edge" d="M 0 0 V -33.63 H 0.0" /><circle class="sym" cx="0" cy="0" r="3" /><text class="lab lft" transform="translate(-3 -7.0)">26</text></g><path class="edge" d="M 0 0 V -11.9341 H -33.5417" /><circle class="sym" cx="0" cy="0" r="3" /><text class="lab rgt" transform="translate(3 -7.0)">32</text></g><circle class="sym" cx="0" cy="0" r="3" /><text class="lab" transform="translate(0 -11)">33</text></g></g></g><g class="tree t2" transform="translate(406.667 0)"><g class="plotbox"><g class="c2 node n33 p0 root" transform="translate(100.021 26.8)"><g class="a33 c2 node n31 p0" transform="translate(-39.7708 39.0783)"><g class="a31 c1 node n28 p0" transform="translate(13.4167 4.91381)"><g class="a28 c1 node n10 p0" transform="translate(0.0 49.6259)"><g class="a10 leaf node n6 p0 sample" transform="translate(0.0 0.981973)"><path class="edge" d="M 0 0 V -0.981973 H 0.0" /><rect class="sym" height="6" width="6" x="-3" y="-3" /><text class="lab" transform="translate(0 11)">6</text></g><path class="edge" d="M 0 0 V -49.6259 H 0.0" /><circle class="sym" cx="0" cy="0" r="3" /><text class="lab lft" transform="translate(-3 -7.0)">10</text></g><path class="edge" d="M 0 0 V -4.91381 H -13.4167" /><circle class="sym" cx="0" cy="0" r="3" /><text class="lab rgt" transform="translate(3 -7.0)">28</text></g><g class="a31 c1 node n30 p0" transform="translate(-13.4167 2.90314)"><g class="a30 c2 node n27 p0" transform="translate(0.0 3.05894)"><g class="a27 c2 node n23 p0" transform="translate(-11.5 7.68661)"><g class="a23 leaf node n0 p0 sample" transform="translate(-7.66667 41.873)"><path class="edge" d="M 0 0 V -41.873 H 7.66667" /><rect class="sym" height="6" width="6" x="-3" y="-3" /><text class="lab" transform="translate(0 11)">0</text></g><g class="a23 c1 node n13 p0" transform="translate(7.66667 35.392)"><g class="a13 leaf node n2 p0 sample" transform="translate(0.0 6.481)"><path class="edge" d="M 0 0 V -6.481 H 0.0" /><rect class="sym" height="6" width="6" x="-3" y="-3" /><text class="lab" transform="translate(0 11)">2</text></g><path class="edge" d="M 0 0 V -35.392 H -7.66667" /><circle class="sym" cx="0" cy="0" r="3" /><text class="lab rgt" transform="translate(3 -7.0)">13</text></g><path class="edge" d="M 0 0 V -7.68661 H 11.5" /><circle class="sym" cx="0" cy="0" r="3" /><text class="lab lft" transform="translate(-3 -7.0)">23</text></g><g class="a27 c1 node n25 p0" transform="translate(11.5 2.59649)"><g class="a25 leaf node n9 p0 sample" transform="translate(0.0 46.9631)"><path class="edge" d="M 0 0 V -46.9631 H 0.0" /><rect class="sym" height="6" width="6" x="-3" y="-3" /><text class="lab" transform="translate(0 11)">9</text></g><path class="edge" d="M 0 0 V -2.59649 H -11.5" /><circle class="sym" cx="0" cy="0" r="3" /><text class="lab rgt" transform="translate(3 -7.0)">25</text></g><path class="edge" d="M 0 0 V -3.05894 H 0.0" /><circle class="sym" cx="0" cy="0" r="3" /><text class="lab lft" transform="translate(-3 -7.0)">27</text></g><path class="edge" d="M 0 0 V -2.90314 H 13.4167" /><circle class="sym" cx="0" cy="0" r="3" /><text class="lab lft" transform="translate(-3 -7.0)">30</text></g><path class="edge" d="M 0 0 V -39.0783 H 39.7708" /><circle class="sym" cx="0" cy="0" r="3" /><text class="lab lft" transform="translate(-3 -7.0)">31</text></g><g class="a33 c1 node n32 p0" transform="translate(39.7708 11.9341)"><g class="a32 c1 node n26 p0" transform="translate(0.0 33.63)"><g class="a26 c1 node n22 p0" transform="translate(0.0 8.60928)"><g class="a22 c2 node n21 p0" transform="translate(0.0 6.35363)"><g class="a21 c1 node n18 p0" transform="translate(18.2083 26.4123)"><g class="a18 c2 node n12 p0" transform="translate(0.0 4.87748)"><g class="a12 leaf node n7 p0 sample" transform="translate(-7.66667 2.78316)"><path class="edge" d="M 0 0 V -2.78316 H 7.66667" /><rect class="sym" height="6" width="6" x="-3" y="-3" /><text class="lab" transform="translate(0 11)">7</text></g><g class="a12 leaf node n8 p0 sample" transform="translate(7.66667 2.78316)"><path class="edge" d="M 0 0 V -2.78316 H -7.66667" /><rect class="sym" height="6" width="6" x="-3" y="-3" /><text class="lab" transform="translate(0 11)">8</text></g><path class="edge" d="M 0 0 V -4.87748 H 0.0" /><circle class="sym" cx="0" cy="0" r="3" /><text class="lab lft" transform="translate(-3 -7.0)">12</text></g><path class="edge" d="M 0 0 V -26.4123 H -18.2083" /><circle class="sym" cx="0" cy="0" r="3" /><text class="lab rgt" transform="translate(3 -7.0)">18</text></g><g class="a21 c2 node n20 p0" transform="translate(-18.2083 8.21682)"><g class="a20 leaf node n5 p0 sample" transform="translate(13.4167 25.8561)"><path class="edge" d="M 0 0 V -25.8561 H -13.4167" /><rect class="sym" height="6" width="6" x="-3" y="-3" /><text class="lab" transform="translate(0 11)">5</text></g><g class="a20 c2 node n19 p0" transform="translate(-13.4167 16.765)"><g class="a19 leaf node n3 p0 sample" transform="translate(11.5 9.09115)"><path class="edge" d="M 0 0 V -9.09115 H -11.5" /><rect class="sym" height="6" width="6" x="-3" y="-3" /><text class="lab" transform="translate(0 11)">3</text></g><g class="a19 c2 node n17 p0" transform="translate(-11.5 1.67586)"><g class="a17 leaf node n1 p0 sample" transform="translate(-7.66667 7.41529)"><path class="edge" d="M 0 0 V -7.41529 H 7.66667" /><rect class="sym" height="6" width="6" x="-3" y="-3" /><text class="lab" transform="translate(0 11)">1</text></g><g class="a17 c1 node n16 p0" transform="translate(7.66667 0.756799)"><g class="a16 leaf node n4 p0 sample" transform="translate(0.0 6.6585)"><path class="edge" d="M 0 0 V -6.6585 H 0.0" /><rect class="sym" height="6" width="6" x="-3" y="-3" /><text class="lab" transform="translate(0 11)">4</text></g><path class="edge" d="M 0 0 V -0.756799 H -7.66667" /><circle class="sym" cx="0" cy="0" r="3" /><text class="lab rgt" transform="translate(3 -7.0)">16</text></g><path class="edge" d="M 0 0 V -1.67586 H 11.5" /><circle class="sym" cx="0" cy="0" r="3" /><text class="lab lft" transform="translate(-3 -7.0)">17</text></g><path class="edge" d="M 0 0 V -16.765 H 13.4167" /><circle class="sym" cx="0" cy="0" r="3" /><text class="lab lft" transform="translate(-3 -7.0)">19</text></g><path class="edge" d="M 0 0 V -8.21682 H 18.2083" /><circle class="sym" cx="0" cy="0" r="3" /><text class="lab lft" transform="translate(-3 -7.0)">20</text></g><path class="edge" d="M 0 0 V -6.35363 H 0.0" /><circle class="sym" cx="0" cy="0" r="3" /><text class="lab lft" transform="translate(-3 -7.0)">21</text></g><path class="edge" d="M 0 0 V -8.60928 H 0.0" /><circle class="sym" cx="0" cy="0" r="3" /><text class="lab lft" transform="translate(-3 -7.0)">22</text></g><path class="edge" d="M 0 0 V -33.63 H 0.0" /><circle class="sym" cx="0" cy="0" r="3" /><text class="lab lft" transform="translate(-3 -7.0)">26</text></g><path class="edge" d="M 0 0 V -11.9341 H -39.7708" /><circle class="sym" cx="0" cy="0" r="3" /><text class="lab rgt" transform="translate(3 -7.0)">32</text></g><circle class="sym" cx="0" cy="0" r="3" /><text class="lab" transform="translate(0 -11)">33</text></g></g></g><g class="tree t3" transform="translate(600 0)"><g class="plotbox"><g class="c2 node n33 p0 root" transform="translate(95.9479 26.8)"><g class="a33 c2 node n31 p0" transform="translate(-49.1146 39.0783)"><g class="a31 c1 node n28 p0" transform="translate(11.5 4.91381)"><g class="a28 c1 node n10 p0" transform="translate(0.0 49.6259)"><g class="a10 leaf node n6 p0 sample" transform="translate(0.0 0.981973)"><path class="edge" d="M 0 0 V -0.981973 H 0.0" /><rect class="sym" height="6" width="6" x="-3" y="-3" /><text class="lab" transform="translate(0 11)">6</text></g><path class="edge" d="M 0 0 V -49.6259 H 0.0" /><circle class="sym" cx="0" cy="0" r="3" /><text class="lab lft" transform="translate(-3 -7.0)">10</text></g><path class="edge" d="M 0 0 V -4.91381 H -11.5" /><circle class="sym" cx="0" cy="0" r="3" /><text class="lab rgt" transform="translate(3 -7.0)">28</text></g><g class="a31 c1 node n30 p0" transform="translate(-11.5 2.90314)"><g class="a30 c2 node n27 p0" transform="translate(0.0 3.05894)"><g class="a27 c1 node n23 p0" transform="translate(-7.66667 7.68661)"><g class="a23 leaf node n0 p0 sample" transform="translate(0.0 41.873)"><path class="edge" d="M 0 0 V -41.873 H 0.0" /><rect class="sym" height="6" width="6" x="-3" y="-3" /><text class="lab" transform="translate(0 11)">0</text></g><path class="edge" d="M 0 0 V -7.68661 H 7.66667" /><circle class="sym" cx="0" cy="0" r="3" /><text class="lab lft" transform="translate(-3 -7.0)">23</text></g><g class="a27 c1 node n25 p0" transform="translate(7.66667 2.59649)"><g class="a25 leaf node n9 p0 sample" transform="translate(0.0 46.9631)"><path class="edge" d="M 0 0 V -46.9631 H 0.0" /><rect class="sym" height="6" width="6" x="-3" y="-3" /><text class="lab" transform="translate(0 11)">9</text></g><path class="edge" d="M 0 0 V -2.59649 H -7.66667" /><circle class="sym" cx="0" cy="0" r="3" /><text class="lab rgt" transform="translate(3 -7.0)">25</text></g><path class="edge" d="M 0 0 V -3.05894 H 0.0" /><circle class="sym" cx="0" cy="0" r="3" /><text class="lab lft" transform="translate(-3 -7.0)">27</text></g><path class="edge" d="M 0 0 V -2.90314 H 11.5" /><circle class="sym" cx="0" cy="0" r="3" /><text class="lab lft" transform="translate(-3 -7.0)">30</text></g><path class="edge" d="M 0 0 V -39.0783 H 49.1146" /><circle class="sym" cx="0" cy="0" r="3" /><text class="lab lft" transform="translate(-3 -7.0)">31</text></g><g class="a33 c1 node n32 p0" transform="translate(49.1146 11.9341)"><g class="a32 c1 node n26 p0" transform="translate(0.0 33.63)"><g class="a26 c2 node n22 p0" transform="translate(0.0 8.60928)"><g class="a22 c2 node n21 p0" transform="translate(-20.6042 6.35363)"><g class="a21 c1 node n18 p0" transform="translate(18.2083 26.4123)"><g class="a18 c2 node n12 p0" transform="translate(0.0 4.87748)"><g class="a12 leaf node n7 p0 sample" transform="translate(-7.66667 2.78316)"><path class="edge" d="M 0 0 V -2.78316 H 7.66667" /><rect class="sym" height="6" width="6" x="-3" y="-3" /><text class="lab" transform="translate(0 11)">7</text></g><g class="a12 leaf node n8 p0 sample" transform="translate(7.66667 2.78316)"><path class="edge" d="M 0 0 V -2.78316 H -7.66667" /><rect class="sym" height="6" width="6" x="-3" y="-3" /><text class="lab" transform="translate(0 11)">8</text></g><path class="edge" d="M 0 0 V -4.87748 H 0.0" /><circle class="sym" cx="0" cy="0" r="3" /><text class="lab lft" transform="translate(-3 -7.0)">12</text></g><path class="edge" d="M 0 0 V -26.4123 H -18.2083" /><circle class="sym" cx="0" cy="0" r="3" /><text class="lab rgt" transform="translate(3 -7.0)">18</text></g><g class="a21 c2 node n20 p0" transform="translate(-18.2083 8.21682)"><g class="a20 leaf node n5 p0 sample" transform="translate(13.4167 25.8561)"><path class="edge" d="M 0 0 V -25.8561 H -13.4167" /><rect class="sym" height="6" width="6" x="-3" y="-3" /><text class="lab" transform="translate(0 11)">5</text></g><g class="a20 c2 node n19 p0" transform="translate(-13.4167 16.765)"><g class="a19 leaf node n3 p0 sample" transform="translate(11.5 9.09115)"><path class="edge" d="M 0 0 V -9.09115 H -11.5" /><rect class="sym" height="6" width="6" x="-3" y="-3" /><text class="lab" transform="translate(0 11)">3</text></g><g class="a19 c2 node n17 p0" transform="translate(-11.5 1.67586)"><g class="a17 leaf node n1 p0 sample" transform="translate(-7.66667 7.41529)"><path class="edge" d="M 0 0 V -7.41529 H 7.66667" /><rect class="sym" height="6" width="6" x="-3" y="-3" /><text class="lab" transform="translate(0 11)">1</text></g><g class="a17 c1 node n16 p0" transform="translate(7.66667 0.756799)"><g class="a16 leaf node n4 p0 sample" transform="translate(0.0 6.6585)"><path class="edge" d="M 0 0 V -6.6585 H 0.0" /><rect class="sym" height="6" width="6" x="-3" y="-3" /><text class="lab" transform="translate(0 11)">4</text></g><path class="edge" d="M 0 0 V -0.756799 H -7.66667" /><circle class="sym" cx="0" cy="0" r="3" /><text class="lab rgt" transform="translate(3 -7.0)">16</text></g><path class="edge" d="M 0 0 V -1.67586 H 11.5" /><circle class="sym" cx="0" cy="0" r="3" /><text class="lab lft" transform="translate(-3 -7.0)">17</text></g><path class="edge" d="M 0 0 V -16.765 H 13.4167" /><circle class="sym" cx="0" cy="0" r="3" /><text class="lab lft" transform="translate(-3 -7.0)">19</text></g><path class="edge" d="M 0 0 V -8.21682 H 18.2083" /><circle class="sym" cx="0" cy="0" r="3" /><text class="lab lft" transform="translate(-3 -7.0)">20</text></g><path class="edge" d="M 0 0 V -6.35363 H 20.6042" /><circle class="sym" cx="0" cy="0" r="3" /><text class="lab lft" transform="translate(-3 -7.0)">21</text></g><g class="a22 c1 node n14 p0" transform="translate(20.6042 33.9456)"><g class="a14 leaf node n2 p0 sample" transform="translate(0.0 6.481)"><path class="edge" d="M 0 0 V -6.481 H 0.0" /><rect class="sym" height="6" width="6" x="-3" y="-3" /><text class="lab" transform="translate(0 11)">2</text></g><path class="edge" d="M 0 0 V -33.9456 H -20.6042" /><circle class="sym" cx="0" cy="0" r="3" /><text class="lab rgt" transform="translate(3 -7.0)">14</text></g><path class="edge" d="M 0 0 V -8.60928 H 0.0" /><circle class="sym" cx="0" cy="0" r="3" /><text class="lab lft" transform="translate(-3 -7.0)">22</text></g><path class="edge" d="M 0 0 V -33.63 H 0.0" /><circle class="sym" cx="0" cy="0" r="3" /><text class="lab lft" transform="translate(-3 -7.0)">26</text></g><path class="edge" d="M 0 0 V -11.9341 H -49.1146" /><circle class="sym" cx="0" cy="0" r="3" /><text class="lab rgt" transform="translate(3 -7.0)">32</text></g><circle class="sym" cx="0" cy="0" r="3" /><text class="lab" transform="translate(0 -11)">33</text></g></g></g><g class="tree t4" transform="translate(793.333 0)"><g class="plotbox"><g class="c2 node n33 p0 root" transform="translate(95.9479 26.8)"><g class="a33 c1 node n31 p0" transform="translate(-49.1146 39.0783)"><g class="a31 c2 node n30 p0" transform="translate(0.0 2.90314)"><g class="a30 c2 node n27 p0" transform="translate(-11.5 3.05894)"><g class="a27 c1 node n23 p0" transform="translate(-7.66667 7.68661)"><g class="a23 leaf node n0 p0 sample" transform="translate(0.0 41.873)"><path class="edge" d="M 0 0 V -41.873 H 0.0" /><rect class="sym" height="6" width="6" x="-3" y="-3" /><text class="lab" transform="translate(0 11)">0</text></g><path class="edge" d="M 0 0 V -7.68661 H 7.66667" /><circle class="sym" cx="0" cy="0" r="3" /><text class="lab lft" transform="translate(-3 -7.0)">23</text></g><g class="a27 c1 node n25 p0" transform="translate(7.66667 2.59649)"><g class="a25 leaf node n9 p0 sample" transform="translate(0.0 46.9631)"><path class="edge" d="M 0 0 V -46.9631 H 0.0" /><rect class="sym" height="6" width="6" x="-3" y="-3" /><text class="lab" transform="translate(0 11)">9</text></g><path class="edge" d="M 0 0 V -2.59649 H -7.66667" /><circle class="sym" cx="0" cy="0" r="3" /><text class="lab rgt" transform="translate(3 -7.0)">25</text></g><path class="edge" d="M 0 0 V -3.05894 H 11.5" /><circle class="sym" cx="0" cy="0" r="3" /><text class="lab lft" transform="translate(-3 -7.0)">27</text></g><g class="a30 c1 node n29 p0" transform="translate(11.5 2.01068)"><g class="a29 c1 node n10 p0" transform="translate(0.0 49.6259)"><g class="a10 leaf node n6 p0 sample" transform="translate(0.0 0.981973)"><path class="edge" d="M 0 0 V -0.981973 H 0.0" /><rect class="sym" height="6" width="6" x="-3" y="-3" /><text class="lab" transform="translate(0 11)">6</text></g><path class="edge" d="M 0 0 V -49.6259 H 0.0" /><circle class="sym" cx="0" cy="0" r="3" /><text class="lab lft" transform="translate(-3 -7.0)">10</text></g><path class="edge" d="M 0 0 V -2.01068 H -11.5" /><circle class="sym" cx="0" cy="0" r="3" /><text class="lab rgt" transform="translate(3 -7.0)">29</text></g><path class="edge" d="M 0 0 V -2.90314 H 0.0" /><circle class="sym" cx="0" cy="0" r="3" /><text class="lab lft" transform="translate(-3 -7.0)">30</text></g><path class="edge" d="M 0 0 V -39.0783 H 49.1146" /><circle class="sym" cx="0" cy="0" r="3" /><text class="lab lft" transform="translate(-3 -7.0)">31</text></g><g class="a33 c1 node n32 p0" transform="translate(49.1146 11.9341)"><g class="a32 c1 node n26 p0" transform="translate(0.0 33.63)"><g class="a26 c2 node n22 p0" transform="translate(0.0 8.60928)"><g class="a22 c2 node n21 p0" transform="translate(-20.6042 6.35363)"><g class="a21 c1 node n18 p0" transform="translate(18.2083 26.4123)"><g class="a18 c2 node n12 p0" transform="translate(0.0 4.87748)"><g class="a12 leaf node n7 p0 sample" transform="translate(-7.66667 2.78316)"><path class="edge" d="M 0 0 V -2.78316 H 7.66667" /><rect class="sym" height="6" width="6" x="-3" y="-3" /><text class="lab" transform="translate(0 11)">7</text></g><g class="a12 leaf node n8 p0 sample" transform="translate(7.66667 2.78316)"><path class="edge" d="M 0 0 V -2.78316 H -7.66667" /><rect class="sym" height="6" width="6" x="-3" y="-3" /><text class="lab" transform="translate(0 11)">8</text></g><path class="edge" d="M 0 0 V -4.87748 H 0.0" /><circle class="sym" cx="0" cy="0" r="3" /><text class="lab lft" transform="translate(-3 -7.0)">12</text></g><path class="edge" d="M 0 0 V -26.4123 H -18.2083" /><circle class="sym" cx="0" cy="0" r="3" /><text class="lab rgt" transform="translate(3 -7.0)">18</text></g><g class="a21 c2 node n20 p0" transform="translate(-18.2083 8.21682)"><g class="a20 leaf node n5 p0 sample" transform="translate(13.4167 25.8561)"><path class="edge" d="M 0 0 V -25.8561 H -13.4167" /><rect class="sym" height="6" width="6" x="-3" y="-3" /><text class="lab" transform="translate(0 11)">5</text></g><g class="a20 c2 node n19 p0" transform="translate(-13.4167 16.765)"><g class="a19 leaf node n3 p0 sample" transform="translate(11.5 9.09115)"><path class="edge" d="M 0 0 V -9.09115 H -11.5" /><rect class="sym" height="6" width="6" x="-3" y="-3" /><text class="lab" transform="translate(0 11)">3</text></g><g class="a19 c2 node n17 p0" transform="translate(-11.5 1.67586)"><g class="a17 leaf node n1 p0 sample" transform="translate(-7.66667 7.41529)"><path class="edge" d="M 0 0 V -7.41529 H 7.66667" /><rect class="sym" height="6" width="6" x="-3" y="-3" /><text class="lab" transform="translate(0 11)">1</text></g><g class="a17 c1 node n16 p0" transform="translate(7.66667 0.756799)"><g class="a16 leaf node n4 p0 sample" transform="translate(0.0 6.6585)"><path class="edge" d="M 0 0 V -6.6585 H 0.0" /><rect class="sym" height="6" width="6" x="-3" y="-3" /><text class="lab" transform="translate(0 11)">4</text></g><path class="edge" d="M 0 0 V -0.756799 H -7.66667" /><circle class="sym" cx="0" cy="0" r="3" /><text class="lab rgt" transform="translate(3 -7.0)">16</text></g><path class="edge" d="M 0 0 V -1.67586 H 11.5" /><circle class="sym" cx="0" cy="0" r="3" /><text class="lab lft" transform="translate(-3 -7.0)">17</text></g><path class="edge" d="M 0 0 V -16.765 H 13.4167" /><circle class="sym" cx="0" cy="0" r="3" /><text class="lab lft" transform="translate(-3 -7.0)">19</text></g><path class="edge" d="M 0 0 V -8.21682 H 18.2083" /><circle class="sym" cx="0" cy="0" r="3" /><text class="lab lft" transform="translate(-3 -7.0)">20</text></g><path class="edge" d="M 0 0 V -6.35363 H 20.6042" /><circle class="sym" cx="0" cy="0" r="3" /><text class="lab lft" transform="translate(-3 -7.0)">21</text></g><g class="a22 c1 node n14 p0" transform="translate(20.6042 33.9456)"><g class="a14 leaf node n2 p0 sample" transform="translate(0.0 6.481)"><path class="edge" d="M 0 0 V -6.481 H 0.0" /><rect class="sym" height="6" width="6" x="-3" y="-3" /><text class="lab" transform="translate(0 11)">2</text></g><path class="edge" d="M 0 0 V -33.9456 H -20.6042" /><circle class="sym" cx="0" cy="0" r="3" /><text class="lab rgt" transform="translate(3 -7.0)">14</text></g><path class="edge" d="M 0 0 V -8.60928 H 0.0" /><circle class="sym" cx="0" cy="0" r="3" /><text class="lab lft" transform="translate(-3 -7.0)">22</text></g><path class="edge" d="M 0 0 V -33.63 H 0.0" /><circle class="sym" cx="0" cy="0" r="3" /><text class="lab lft" transform="translate(-3 -7.0)">26</text></g><path class="edge" d="M 0 0 V -11.9341 H -49.1146" /><circle class="sym" cx="0" cy="0" r="3" /><text class="lab rgt" transform="translate(3 -7.0)">32</text></g><circle class="sym" cx="0" cy="0" r="3" /><text class="lab" transform="translate(0 -11)">33</text></g></g></g><g class="tree t5" transform="translate(986.667 0)"><g class="plotbox"><g class="c2 node n33 p0 root" transform="translate(91.5156 26.8)"><g class="a33 c1 node n31 p0" transform="translate(-56.1823 39.0783)"><g class="a31 c1 node n30 p0" transform="translate(0.0 2.90314)"><g class="a30 c2 node n27 p0" transform="translate(0.0 3.05894)"><g class="a27 c1 node n23 p0" transform="translate(-7.66667 7.68661)"><g class="a23 leaf node n0 p0 sample" transform="translate(0.0 41.873)"><path class="edge" d="M 0 0 V -41.873 H 0.0" /><rect class="sym" height="6" width="6" x="-3" y="-3" /><text class="lab" transform="translate(0 11)">0</text></g><path class="edge" d="M 0 0 V -7.68661 H 7.66667" /><circle class="sym" cx="0" cy="0" r="3" /><text class="lab lft" transform="translate(-3 -7.0)">23</text></g><g class="a27 c1 node n25 p0" transform="translate(7.66667 2.59649)"><g class="a25 leaf node n9 p0 sample" transform="translate(0.0 46.9631)"><path class="edge" d="M 0 0 V -46.9631 H 0.0" /><rect class="sym" height="6" width="6" x="-3" y="-3" /><text class="lab" transform="translate(0 11)">9</text></g><path class="edge" d="M 0 0 V -2.59649 H -7.66667" /><circle class="sym" cx="0" cy="0" r="3" /><text class="lab rgt" transform="translate(3 -7.0)">25</text></g><path class="edge" d="M 0 0 V -3.05894 H 0.0" /><circle class="sym" cx="0" cy="0" r="3" /><text class="lab lft" transform="translate(-3 -7.0)">27</text></g><path class="edge" d="M 0 0 V -2.90314 H 0.0" /><circle class="sym" cx="0" cy="0" r="3" /><text class="lab lft" transform="translate(-3 -7.0)">30</text></g><path class="edge" d="M 0 0 V -39.0783 H 56.1823" /><circle class="sym" cx="0" cy="0" r="3" /><text class="lab lft" transform="translate(-3 -7.0)">31</text></g><g class="a33 c1 node n32 p0" transform="translate(56.1823 11.9341)"><g class="a32 c2 node n26 p0" transform="translate(0.0 33.63)"><g class="a26 c2 node n22 p0" transform="translate(-17.9688 8.60928)"><g class="a22 c2 node n21 p0" transform="translate(-20.6042 6.35363)"><g class="a21 c1 node n18 p0" transform="translate(18.2083 26.4123)"><g class="a18 c2 node n12 p0" transform="translate(0.0 4.87748)"><g class="a12 leaf node n7 p0 sample" transform="translate(-7.66667 2.78316)"><path class="edge" d="M 0 0 V -2.78316 H 7.66667" /><rect class="sym" height="6" width="6" x="-3" y="-3" /><text class="lab" transform="translate(0 11)">7</text></g><g class="a12 leaf node n8 p0 sample" transform="translate(7.66667 2.78316)"><path class="edge" d="M 0 0 V -2.78316 H -7.66667" /><rect class="sym" height="6" width="6" x="-3" y="-3" /><text class="lab" transform="translate(0 11)">8</text></g><path class="edge" d="M 0 0 V -4.87748 H 0.0" /><circle class="sym" cx="0" cy="0" r="3" /><text class="lab lft" transform="translate(-3 -7.0)">12</text></g><path class="edge" d="M 0 0 V -26.4123 H -18.2083" /><circle class="sym" cx="0" cy="0" r="3" /><text class="lab rgt" transform="translate(3 -7.0)">18</text></g><g class="a21 c2 node n20 p0" transform="translate(-18.2083 8.21682)"><g class="a20 leaf node n5 p0 sample" transform="translate(13.4167 25.8561)"><path class="edge" d="M 0 0 V -25.8561 H -13.4167" /><rect class="sym" height="6" width="6" x="-3" y="-3" /><text class="lab" transform="translate(0 11)">5</text></g><g class="a20 c2 node n19 p0" transform="translate(-13.4167 16.765)"><g class="a19 leaf node n3 p0 sample" transform="translate(11.5 9.09115)"><path class="edge" d="M 0 0 V -9.09115 H -11.5" /><rect class="sym" height="6" width="6" x="-3" y="-3" /><text class="lab" transform="translate(0 11)">3</text></g><g class="a19 c2 node n17 p0" transform="translate(-11.5 1.67586)"><g class="a17 leaf node n1 p0 sample" transform="translate(-7.66667 7.41529)"><path class="edge" d="M 0 0 V -7.41529 H 7.66667" /><rect class="sym" height="6" width="6" x="-3" y="-3" /><text class="lab" transform="translate(0 11)">1</text></g><g class="a17 c1 node n16 p0" transform="translate(7.66667 0.756799)"><g class="a16 leaf node n4 p0 sample" transform="translate(0.0 6.6585)"><path class="edge" d="M 0 0 V -6.6585 H 0.0" /><rect class="sym" height="6" width="6" x="-3" y="-3" /><text class="lab" transform="translate(0 11)">4</text></g><path class="edge" d="M 0 0 V -0.756799 H -7.66667" /><circle class="sym" cx="0" cy="0" r="3" /><text class="lab rgt" transform="translate(3 -7.0)">16</text></g><path class="edge" d="M 0 0 V -1.67586 H 11.5" /><circle class="sym" cx="0" cy="0" r="3" /><text class="lab lft" transform="translate(-3 -7.0)">17</text></g><path class="edge" d="M 0 0 V -16.765 H 13.4167" /><circle class="sym" cx="0" cy="0" r="3" /><text class="lab lft" transform="translate(-3 -7.0)">19</text></g><path class="edge" d="M 0 0 V -8.21682 H 18.2083" /><circle class="sym" cx="0" cy="0" r="3" /><text class="lab lft" transform="translate(-3 -7.0)">20</text></g><path class="edge" d="M 0 0 V -6.35363 H 20.6042" /><circle class="sym" cx="0" cy="0" r="3" /><text class="lab lft" transform="translate(-3 -7.0)">21</text></g><g class="a22 c1 node n14 p0" transform="translate(20.6042 33.9456)"><g class="a14 leaf node n2 p0 sample" transform="translate(0.0 6.481)"><path class="edge" d="M 0 0 V -6.481 H 0.0" /><rect class="sym" height="6" width="6" x="-3" y="-3" /><text class="lab" transform="translate(0 11)">2</text></g><path class="edge" d="M 0 0 V -33.9456 H -20.6042" /><circle class="sym" cx="0" cy="0" r="3" /><text class="lab rgt" transform="translate(3 -7.0)">14</text></g><path class="edge" d="M 0 0 V -8.60928 H 17.9688" /><circle class="sym" cx="0" cy="0" r="3" /><text class="lab lft" transform="translate(-3 -7.0)">22</text></g><g class="a26 c1 node n11 p0" transform="translate(17.9688 48.0539)"><g class="a11 leaf node n6 p0 sample" transform="translate(0.0 0.981973)"><path class="edge" d="M 0 0 V -0.981973 H 0.0" /><rect class="sym" height="6" width="6" x="-3" y="-3" /><text class="lab" transform="translate(0 11)">6</text></g><path class="edge" d="M 0 0 V -48.0539 H -17.9688" /><circle class="sym" cx="0" cy="0" r="3" /><text class="lab rgt" transform="translate(3 -7.0)">11</text></g><path class="edge" d="M 0 0 V -33.63 H 0.0" /><circle class="sym" cx="0" cy="0" r="3" /><text class="lab lft" transform="translate(-3 -7.0)">26</text></g><path class="edge" d="M 0 0 V -11.9341 H -56.1823" /><circle class="sym" cx="0" cy="0" r="3" /><text class="lab rgt" transform="translate(3 -7.0)">32</text></g><circle class="sym" cx="0" cy="0" r="3" /><text class="lab" transform="translate(0 -11)">33</text></g></g></g></g></g></svg>
