<svg baseProfile="full" height="200" version="1.1" width="600" xmlns="http://www.w3.org/2000/svg" xmlns:ev="http://www.w3.org/2001/xml-events" xmlns:xlink="http://www.w3.org/1999/xlink"><defs><style type="text/css"><![CDATA[.background path {fill: #808080; fill-opacity: 0}.background path:nth-child(odd) {fill-opacity: .1}.axes {font-size: 14px}.x-axis .tick .lab {font-weight: bold; dominant-baseline: hanging}.axes, .tree {font-size: 14px; text-anchor: middle}.axes line, .edge {stroke: black; fill: none}.y-axis .grid {stroke: #FAFAFA}.node > .sym {fill: black; stroke: none}.site > .sym {stroke: black}.mut text {fill: red; font-style: italic}.mut.extra text {fill: hotpink}.mut line {fill: none; stroke: none}.mut .sym {fill: none; stroke: red}.mut.extra .sym {stroke: hotpink}.node .mut .sym {stroke-width: 1.5px}.tree text, .tree-sequence text {dominant-baseline: central}.plotbox .lab.lft {text-anchor: end}.plotbox .lab.rgt {text-anchor: start}]]></style></defs><g class="tree-sequence"><g class="background"><path d="M20,0 l186.667,0 l0,138.2 l-125.195,25 l0,5 l-61.4721,0 l0,-5 l0,-25 l0,-138.2z" /><path d="M206.667,0 l186.667,0 l0,138.2 l27.4851,25 l0,5 l-339.346,0 l0,-5 l125.195,-25 l0,-138.2z" /><path d="M393.333,0 l186.667,0 l0,138.2 l0,25 l0,5 l-159.182,0 l0,-5 l-27.4851,-25 l0,-138.2z" /></g><g class="axes"><g class="x-axis"><g transform="translate(300 200)"><text class="lab" text-anchor="middle" transform="translate(0 -11)">Genome position</text></g><line x1="20" x2="580" y1="163.2" y2="163.2" /><g class="ticks"><g class="tick" transform="translate(20 163.2)"><line x1="0" x2="0" y1="0" y2="5" /><g transform="translate(0 6)"><text class="lab">0.00</text></g></g><g class="tick" transform="translate(81.4721 163.2)"><line x1="0" x2="0" y1="0" y2="5" /><g transform="translate(0 6)"><text class="lab">109.77</text></g></g><g class="tick" transform="translate(420.818 163.2)"><line x1="0" x2="0" y1="0" y2="5" /><g transform="translate(0 6)"><text class="lab">715.75</text></g></g><g class="tick" transform="translate(580 163.2)"><line x1="0" x2="0" y1="0" y2="5" /><g transform="translate(0 6)"><text class="lab">1000.00</text></g></g></g></g></g><g class="plotbox trees"><g class="tree t0" transform="translate(20 0)"><g class="plotbox"><g class="c2 node n24 p0 root" transform="translate(121.979 26.8)"><g class="a24 c1 node n22 p0" transform="translate(30.0208 38.3271)"><g class="a22 c1 node n18 p0" transform="translate(0.0 34.674)"><g class="a18 c2 node n10 p0" transform="translate(0.0 19.6143)"><g class="a10 leaf node n1 p0 sample" transform="translate(-7.33333 1.98453)"><path class="edge" d="M 0 0 V -1.98453 H 7.33333" /><rect class="sym" height="6" width="6" x="-3" y="-3" /><text class="lab" transform="translate(0 11)">1</text></g><g class="a10 leaf node n8 p0 sample" transform="translate(7.33333 1.98453)"><path class="edge" d="M 0 0 V -1.98453 H -7.33333" /><rect class="sym" height="6" width="6" x="-3" y="-3" /><text class="lab" transform="translate(0 11)">8</text></g><path class="edge" d="M 0 0 V -19.6143 H 0.0" /><circle class="sym" cx="0" cy="0" r="3" /><text class="lab lft" transform="translate(-3 -7.0)">10</text></g><path class="edge" d="M 0 0 V -34.674 H 0.0" /><circle class="sym" cx="0" cy="0" r="3" /><text class="lab lft" transform="translate(-3 -7.0)">18</text></g><path class="edge" d="M 0 0 V -38.3271 H -30.0208" /><circle class="sym" cx="0" cy="0" r="3" /><text class="lab rgt" transform="translate(3 -7.0)">22</text></g><g class="a24 c2 node n23 p0" transform="translate(-30.0208 30.7005)"><g class="a23 c2 node n17 p0" transform="translate(27.0417 46.3536)"><g class="a17 leaf node n4 p0 sample" transform="translate(11 17.5459)"><path class="edge" d="M 0 0 V -17.5459 H -11" /><rect class="sym" height="6" width="6" x="-3" y="-3" /><text class="lab" transform="translate(0 11)">4</text></g><g class="a17 c2 node n11 p0" transform="translate(-11 15.0726)"><g class="a11 leaf node n3 p0 sample" transform="translate(-7.33333 2.47322)"><path class="edge" d="M 0 0 V -2.47322 H 7.33333" /><rect class="sym" height="6" width="6" x="-3" y="-3" /><text class="lab" transform="translate(0 11)">3</text></g><g class="a11 leaf node n7 p0 sample" transform="translate(7.33333 2.47322)"><path class="edge" d="M 0 0 V -2.47322 H -7.33333" /><rect class="sym" height="6" width="6" x="-3" y="-3" /><text class="lab" transform="translate(0 11)">7</text></g><path class="edge" d="M 0 0 V -15.0726 H 11" /><circle class="sym" cx="0" cy="0" r="3" /><text class="lab lft" transform="translate(-3 -7.0)">11</text></g><path class="edge" d="M 0 0 V -46.3536 H -27.0417" /><circle class="sym" cx="0" cy="0" r="3" /><text class="lab rgt" transform="translate(3 -7.0)">17</text></g><g class="a23 c1 node n20 p0" transform="translate(-27.0417 20.1975)"><g class="a20 c2 node n19 p0" transform="translate(0.0 6.15311)"><g class="a19 c2 node n14 p0" transform="translate(-21.0833 33.4695)"><g class="a14 leaf node n0 p0 sample" transform="translate(-16.5 4.07942)"><path class="edge" d="M 0 0 V -4.07942 H 16.5" /><rect class="sym" height="6" width="6" x="-3" y="-3" /><text class="lab" transform="translate(0 11)">0</text></g><g class="a14 c2 node n13 p0" transform="translate(16.5 0.447412)"><g class="a13 leaf node n9 p0 sample" transform="translate(11 3.63201)"><path class="edge" d="M 0 0 V -3.63201 H -11" /><rect class="sym" height="6" width="6" x="-3" y="-3" /><text class="lab" transform="translate(0 11)">9</text></g><g class="a13 c2 node n12 p0" transform="translate(-11 0.207695)"><g class="a12 leaf node n5 p0 sample" transform="translate(-7.33333 3.42432)"><path class="edge" d="M 0 0 V -3.42432 H 7.33333" /><rect class="sym" height="6" width="6" x="-3" y="-3" /><text class="lab" transform="translate(0 11)">5</text></g><g class="a12 leaf node n6 p0 sample" transform="translate(7.33333 3.42432)"><path class="edge" d="M 0 0 V -3.42432 H -7.33333" /><rect class="sym" height="6" width="6" x="-3" y="-3" /><text class="lab" transform="translate(0 11)">6</text></g><path class="edge" d="M 0 0 V -0.207695 H 11" /><circle class="sym" cx="0" cy="0" r="3" /><text class="lab lft" transform="translate(-3 -7.0)">12</text></g><path class="edge" d="M 0 0 V -0.447412 H -16.5" /><circle class="sym" cx="0" cy="0" r="3" /><text class="lab rgt" transform="translate(3 -7.0)">13</text></g><path class="edge" d="M 0 0 V -33.4695 H 21.0833" /><circle class="sym" cx="0" cy="0" r="3" /><text class="lab lft" transform="translate(-3 -7.0)">14</text></g><g class="a19 c1 node n15 p0" transform="translate(21.0833 21.9725)"><g class="a15 leaf node n2 p0 sample" transform="translate(0.0 15.5764)"><path class="edge" d="M 0 0 V -15.5764 H 0.0" /><rect class="sym" height="6" width="6" x="-3" y="-3" /><text class="lab" transform="translate(0 11)">2</text></g><path class="edge" d="M 0 0 V -21.9725 H -21.0833" /><circle class="sym" cx="0" cy="0" r="3" /><text class="lab rgt" transform="translate(3 -7.0)">15</text></g><path class="edge" d="M 0 0 V -6.15311 H 0.0" /><circle class="sym" cx="0" cy="0" r="3" /><text class="lab lft" transform="translate(-3 -7.0)">19</text></g><path class="edge" d="M 0 0 V -20.1975 H 27.0417" /><circle class="sym" cx="0" cy="0" r="3" /><text class="lab lft" transform="translate(-3 -7.0)">20</text></g><path class="edge" d="M 0 0 V -30.7005 H 30.0208" /><circle class="sym" cx="0" cy="0" r="3" /><text class="lab lft" transform="translate(-3 -7.0)">23</text></g><circle class="sym" cx="0" cy="0" r="3" /><text class="lab" transform="translate(0 -11)">24</text></g></g></g><g class="tree t1" transform="translate(206.667 0)"><g class="plotbox"><g class="c2 node n24 p0 root" transform="translate(111.208 26.8)"><g class="a24 c1 node n22 p0" transform="translate(37.125 38.3271)"><g class="a22 c2 node n18 p0" transform="translate(0.0 34.674)"><g class="a18 c2 node n10 p0" transform="translate(-11 19.6143)"><g class="a10 leaf node n1 p0 sample" transform="translate(-7.33333 1.98453)"><path class="edge" d="M 0 0 V -1.98453 H 7.33333" /><rect class="sym" height="6" width="6" x="-3" y="-3" /><text class="lab" transform="translate(0 11)">1</text></g><g class="a10 leaf node n8 p0 sample" transform="translate(7.33333 1.98453)"><path class="edge" d="M 0 0 V -1.98453 H -7.33333" /><rect class="sym" height="6" width="6" x="-3" y="-3" /><text class="lab" transform="translate(0 11)">8</text></g><path class="edge" d="M 0 0 V -19.6143 H 11" /><circle class="sym" cx="0" cy="0" r="3" /><text class="lab lft" transform="translate(-3 -7.0)">10</text></g><g class="a18 c1 node n16 p0" transform="translate(11 6.02247)"><g class="a16 leaf node n2 p0 sample" transform="translate(0.0 15.5764)"><path class="edge" d="M 0 0 V -15.5764 H 0.0" /><rect class="sym" height="6" width="6" x="-3" y="-3" /><text class="lab" transform="translate(0 11)">2</text></g><path class="edge" d="M 0 0 V -6.02247 H -11" /><circle class="sym" cx="0" cy="0" r="3" /><text class="lab rgt" transform="translate(3 -7.0)">16</text></g><path class="edge" d="M 0 0 V -34.674 H 0.0" /><circle class="sym" cx="0" cy="0" r="3" /><text class="lab lft" transform="translate(-3 -7.0)">18</text></g><path class="edge" d="M 0 0 V -38.3271 H -37.125" /><circle class="sym" cx="0" cy="0" r="3" /><text class="lab rgt" transform="translate(3 -7.0)">22</text></g><g class="a24 c2 node n23 p0" transform="translate(-37.125 30.7005)"><g class="a23 c2 node n17 p0" transform="translate(30.25 46.3536)"><g class="a17 leaf node n4 p0 sample" transform="translate(11 17.5459)"><path class="edge" d="M 0 0 V -17.5459 H -11" /><rect class="sym" height="6" width="6" x="-3" y="-3" /><text class="lab" transform="translate(0 11)">4</text></g><g class="a17 c2 node n11 p0" transform="translate(-11 15.0726)"><g class="a11 leaf node n3 p0 sample" transform="translate(-7.33333 2.47322)"><path class="edge" d="M 0 0 V -2.47322 H 7.33333" /><rect class="sym" height="6" width="6" x="-3" y="-3" /><text class="lab" transform="translate(0 11)">3</text></g><g class="a11 leaf node n7 p0 sample" transform="translate(7.33333 2.47322)"><path class="edge" d="M 0 0 V -2.47322 H -7.33333" /><rect class="sym" height="6" width="6" x="-3" y="-3" /><text class="lab" transform="translate(0 11)">7</text></g><path class="edge" d="M 0 0 V -15.0726 H 11" /><circle class="sym" cx="0" cy="0" r="3" /><text class="lab lft" transform="translate(-3 -7.0)">11</text></g><path class="edge" d="M 0 0 V -46.3536 H -30.25" /><circle class="sym" cx="0" cy="0" r="3" /><text class="lab rgt" transform="translate(3 -7.0)">17</text></g><g class="a23 c1 node n20 p0" transform="translate(-30.25 20.1975)"><g class="a20 c1 node n19 p0" transform="translate(0.0 6.15311)"><g class="a19 c2 node n14 p0" transform="translate(0.0 33.4695)"><g class="a14 leaf node n0 p0 sample" transform="translate(-16.5 4.07942)"><path class="edge" d="M 0 0 V -4.07942 H 16.5" /><rect class="sym" height="6" width="6" x="-3" y="-3" /><text class="lab" transform="translate(0 11)">0</text></g><g class="a14 c2 node n13 p0" transform="translate(16.5 0.447412)"><g class="a13 leaf node n9 p0 sample" transform="translate(11 3.63201)"><path class="edge" d="M 0 0 V -3.63201 H -11" /><rect class="sym" height="6" width="6" x="-3" y="-3" /><text class="lab" transform="translate(0 11)">9</text></g><g class="a13 c2 node n12 p0" transform="translate(-11 0.207695)"><g class="a12 leaf node n5 p0 sample" transform="translate(-7.33333 3.42432)"><path class="edge" d="M 0 0 V -3.42432 H 7.33333" /><rect class="sym" height="6" width="6" x="-3" y="-3" /><text class="lab" transform="translate(0 11)">5</text></g><g class="a12 leaf node n6 p0 sample" transform="translate(7.33333 3.42432)"><path class="edge" d="M 0 0 V -3.42432 H -7.33333" /><rect class="sym" height="6" width="6" x="-3" y="-3" /><text class="lab" transform="translate(0 11)">6</text></g><path class="edge" d="M 0 0 V -0.207695 H 11" /><circle class="sym" cx="0" cy="0" r="3" /><text class="lab lft" transform="translate(-3 -7.0)">12</text></g><path class="edge" d="M 0 0 V -0.447412 H -16.5" /><circle class="sym" cx="0" cy="0" r="3" /><text class="lab rgt" transform="translate(3 -7.0)">13</text></g><path class="edge" d="M 0 0 V -33.4695 H 0.0" /><circle class="sym" cx="0" cy="0" r="3" /><text class="lab lft" transform="translate(-3 -7.0)">14</text></g><path class="edge" d="M 0 0 V -6.15311 H 0.0" /><circle class="sym" cx="0" cy="0" r="3" /><text class="lab lft" transform="translate(-3 -7.0)">19</text></g><path class="edge" d="M 0 0 V -20.1975 H 30.25" /><circle class="sym" cx="0" cy="0" r="3" /><text class="lab lft" transform="translate(-3 -7.0)">20</text></g><path class="edge" d="M 0 0 V -30.7005 H 37.125" /><circle class="sym" cx="0" cy="0" r="3" /><text class="lab lft" transform="translate(-3 -7.0)">23</text></g><circle class="sym" cx="0" cy="0" r="3" /><text class="lab" transform="translate(0 -11)">24</text></g></g></g><g class="tree t2" transform="translate(393.333 0)"><g class="plotbox"><g class="c2 node n24 p0 root" transform="translate(111.208 26.8)"><g class="a24 c2 node n22 p0" transform="translate(-37.125 38.3271)"><g class="a22 c2 node n18 p0" transform="translate(30.25 34.674)"><g class="a18 c2 node n10 p0" transform="translate(-11 19.6143)"><g class="a10 leaf node n1 p0 sample" transform="translate(-7.33333 1.98453)"><path class="edge" d="M 0 0 V -1.98453 H 7.33333" /><rect class="sym" height="6" width="6" x="-3" y="-3" /><text class="lab" transform="translate(0 11)">1</text></g><g class="a10 leaf node n8 p0 sample" transform="translate(7.33333 1.98453)"><path class="edge" d="M 0 0 V -1.98453 H -7.33333" /><rect class="sym" height="6" width="6" x="-3" y="-3" /><text class="lab" transform="translate(0 11)">8</text></g><path class="edge" d="M 0 0 V -19.6143 H 11" /><circle class="sym" cx="0" cy="0" r="3" /><text class="lab lft" transform="translate(-3 -7.0)">10</text></g><g class="a18 c1 node n16 p0" transform="translate(11 6.02247)"><g class="a16 leaf node n2 p0 sample" transform="translate(0.0 15.5764)"><path class="edge" d="M 0 0 V -15.5764 H 0.0" /><rect class="sym" height="6" width="6" x="-3" y="-3" /><text class="lab" transform="translate(0 11)">2</text></g><path class="edge" d="M 0 0 V -6.02247 H -11" /><circle class="sym" cx="0" cy="0" r="3" /><text class="lab rgt" transform="translate(3 -7.0)">16</text></g><path class="edge" d="M 0 0 V -34.674 H -30.25" /><circle class="sym" cx="0" cy="0" r="3" /><text class="lab rgt" transform="translate(3 -7.0)">18</text></g><g class="a22 c1 node n21 p0" transform="translate(-30.25 12.5709)"><g class="a21 c1 node n19 p0" transform="translate(0.0 6.15311)"><g class="a19 c2 node n14 p0" transform="translate(0.0 33.4695)"><g class="a14 leaf node n0 p0 sample" transform="translate(-16.5 4.07942)"><path class="edge" d="M 0 0 V -4.07942 H 16.5" /><rect class="sym" height="6" width="6" x="-3" y="-3" /><text class="lab" transform="translate(0 11)">0</text></g><g class="a14 c2 node n13 p0" transform="translate(16.5 0.447412)"><g class="a13 leaf node n9 p0 sample" transform="translate(11 3.63201)"><path class="edge" d="M 0 0 V -3.63201 H -11" /><rect class="sym" height="6" width="6" x="-3" y="-3" /><text class="lab" transform="translate(0 11)">9</text></g><g class="a13 c2 node n12 p0" transform="translate(-11 0.207695)"><g class="a12 leaf node n5 p0 sample" transform="translate(-7.33333 3.42432)"><path class="edge" d="M 0 0 V -3.42432 H 7.33333" /><rect class="sym" height="6" width="6" x="-3" y="-3" /><text class="lab" transform="translate(0 11)">5</text></g><g class="a12 leaf node n6 p0 sample" transform="translate(7.33333 3.42432)"><path class="edge" d="M 0 0 V -3.42432 H -7.33333" /><rect class="sym" height="6" width="6" x="-3" y="-3" /><text class="lab" transform="translate(0 11)">6</text></g><path class="edge" d="M 0 0 V -0.207695 H 11" /><circle class="sym" cx="0" cy="0" r="3" /><text class="lab lft" transform="translate(-3 -7.0)">12</text></g><path class="edge" d="M 0 0 V -0.447412 H -16.5" /><circle class="sym" cx="0" cy="0" r="3" /><text class="lab rgt" transform="translate(3 -7.0)">13</text></g><path class="edge" d="M 0 0 V -33.4695 H 0.0" /><circle class="sym" cx="0" cy="0" r="3" /><text class="lab lft" transform="translate(-3 -7.0)">14</text></g><path class="edge" d="M 0 0 V -6.15311 H 0.0" /><circle class="sym" cx="0" cy="0" r="3" /><text class="lab lft" transform="translate(-3 -7.0)">19</text></g><path class="edge" d="M 0 0 V -12.5709 H 30.25" /><circle class="sym" cx="0" cy="0" r="3" /><text class="lab lft" transform="translate(-3 -7.0)">21</text></g><path class="edge" d="M 0 0 V -38.3271 H 37.125" /><circle class="sym" cx="0" cy="0" r="3" /><text class="lab lft" transform="translate(-3 -7.0)">22</text></g><g class="a24 c1 node n23 p0" transform="translate(37.125 30.7005)"><g class="a23 c2 node n17 p0" transform="translate(0.0 46.3536)"><g class="a17 leaf node n4 p0 sample" transform="translate(11 17.5459)"><path class="edge" d="M 0 0 V -17.5459 H -11" /><rect class="sym" height="6" width="6" x="-3" y="-3" /><text class="lab" transform="translate(0 11)">4</text></g><g class="a17 c2 node n11 p0" transform="translate(-11 15.0726)"><g class="a11 leaf node n3 p0 sample" transform="translate(-7.33333 2.47322)"><path class="edge" d="M 0 0 V -2.47322 H 7.33333" /><rect class="sym" height="6" width="6" x="-3" y="-3" /><text class="lab" transform="translate(0 11)">3</text></g><g class="a11 leaf node n7 p0 sample" transform="translate(7.33333 2.47322)"><path class="edge" d="M 0 0 V -2.47322 H -7.33333" /><rect class="sym" height="6" width="6" x="-3" y="-3" /><text class="lab" transform="translate(0 11)">7</text></g><path class="edge" d="M 0 0 V -15.0726 H 11" /><circle class="sym" cx="0" cy="0" r="3" /><text class="lab lft" transform="translate(-3 -7.0)">11</text></g><path class="edge" d="M 0 0 V -46.3536 H 0.0" /><circle class="sym" cx="0" cy="0" r="3" /><text class="lab lft" transform="translate(-3 -7.0)">17</text></g><path class="edge" d="M 0 0 V -30.7005 H -37.125" /><circle class="sym" cx="0" cy="0" r="3" /><text class="lab rgt" transform="translate(3 -7.0)">23</text></g><circle class="sym" cx="0" cy="0" r="3" /><text class="lab" transform="translate(0 -11)">24</text></g></g></g></g></g></svg>
