<svg baseProfile="full" height="200" version="1.1" width="800" xmlns="http://www.w3.org/2000/svg" xmlns:ev="http://www.w3.org/2001/xml-events" xmlns:xlink="http://www.w3.org/1999/xlink"><defs><style type="text/css"><![CDATA[.background path {fill: #808080; fill-opacity: 0}.background path:nth-child(odd) {fill-opacity: .1}.axes {font-size: 14px}.x-axis .tick .lab {font-weight: bold; dominant-baseline: hanging}.axes, .tree {font-size: 14px; text-anchor: middle}.axes line, .edge {stroke: black; fill: none}.y-axis .grid {stroke: #FAFAFA}.node > .sym {fill: black; stroke: none}.site > .sym {stroke: black}.mut text {fill: red; font-style: italic}.mut.extra text {fill: hotpink}.mut line {fill: none; stroke: none}.mut .sym {fill: none; stroke: red}.mut.extra .sym {stroke: hotpink}.node .mut .sym {stroke-width: 1.5px}.tree text, .tree-sequence text {dominant-baseline: central}.plotbox .lab.lft {text-anchor: end}.plotbox .lab.rgt {text-anchor: start}]]></style></defs><g class="tree-sequence"><g class="background"><path d="M20,0 l190,0 l0,138.2 l-94.7778,25 l0,5 l-95.2222,0 l0,-5 l0,-25 l0,-138.2z" /><path d="M210,0 l190,0 l0,138.2 l-245.606,25 l0,5 l-39.1719,0 l0,-5 l94.7778,-25 l0,-138.2z" /><path d="M400,0 l190,0 l0,138.2 l-323.626,25 l0,5 l-111.98,0 l0,-5 l245.606,-25 l0,-138.2z" /><path d="M590,0 l190,0 l0,138.2 l0,25 l0,5 l-513.626,0 l0,-5 l323.626,-25 l0,-138.2z" /></g><g class="axes"><g class="x-axis"><g transform="translate(400 200)"><text class="lab" text-anchor="middle" transform="translate(0 -11)">Genome position</text></g><line x1="20" x2="780" y1="163.2" y2="163.2" /><g class="ticks"><g class="tick" transform="translate(20 163.2)"><line x1="0" x2="0" y1="0" y2="5" /><g transform="translate(0 6)"><text class="lab">0.00</text></g></g><g class="tick" transform="translate(115.222 163.2)"><line x1="0" x2="0" y1="0" y2="5" /><g transform="translate(0 6)"><text class="lab">125.29</text></g></g><g class="tick" transform="translate(154.394 163.2)"><line x1="0" x2="0" y1="0" y2="5" /><g transform="translate(0 6)"><text class="lab">176.83</text></g></g><g class="tick" transform="translate(266.374 163.2)"><line x1="0" x2="0" y1="0" y2="5" /><g transform="translate(0 6)"><text class="lab">324.18</text></g></g><g class="tick" transform="translate(780 163.2)"><line x1="0" x2="0" y1="0" y2="5" /><g transform="translate(0 6)"><text class="lab">1000.00</text></g></g></g></g></g><g class="plotbox trees"><g class="tree t0" transform="translate(20 0)"><g class="plotbox"><g class="c2 node n27 p0 root" transform="translate(112.344 26.8)"><g class="a27 c2 node n23 p0" transform="translate(-31.4062 66.2437)"><g class="a23 c1 node n20 p0" transform="translate(29.0625 8.18967)"><g class="a20 c2 node n17 p0" transform="translate(0.0 11.4059)"><g class="a17 leaf node n4 p0 sample" transform="translate(-7.5 8.76074)"><path class="edge" d="M 0 0 V -8.76074 H 7.5" /><rect class="sym" height="6" width="6" x="-3" y="-3" /><text class="lab" transform="translate(0 11)">4</text></g><g class="a17 c1 node n13 p0" transform="translate(7.5 5.5636)"><g class="a13 leaf node n8 p0 sample" transform="translate(0.0 3.19713)"><path class="edge" d="M 0 0 V -3.19713 H 0.0" /><rect class="sym" height="6" width="6" x="-3" y="-3" /><text class="lab" transform="translate(0 11)">8</text></g><path class="edge" d="M 0 0 V -5.5636 H -7.5" /><circle class="sym" cx="0" cy="0" r="3" /><text class="lab rgt" transform="translate(3 -7.0)">13</text></g><path class="edge" d="M 0 0 V -11.4059 H 0.0" /><circle class="sym" cx="0" cy="0" r="3" /><text class="lab lft" transform="translate(-3 -7.0)">17</text></g><path class="edge" d="M 0 0 V -8.18967 H -29.0625" /><circle class="sym" cx="0" cy="0" r="3" /><text class="lab rgt" transform="translate(3 -7.0)">20</text></g><g class="a23 c2 node n22 p0" transform="translate(-29.0625 1.94809)"><g class="a22 c2 node n10 p0" transform="translate(-16.875 24.5362)"><g class="a10 leaf node n0 p0 sample" transform="translate(-7.5 1.87202)"><path class="edge" d="M 0 0 V -1.87202 H 7.5" /><rect class="sym" height="6" width="6" x="-3" y="-3" /><text class="lab" transform="translate(0 11)">0</text></g><g class="a10 leaf node n2 p0 sample" transform="translate(7.5 1.87202)"><path class="edge" d="M 0 0 V -1.87202 H -7.5" /><rect class="sym" height="6" width="6" x="-3" y="-3" /><text class="lab" transform="translate(0 11)">2</text></g><path class="edge" d="M 0 0 V -24.5362 H 16.875" /><circle class="sym" cx="0" cy="0" r="3" /><text class="lab lft" transform="translate(-3 -7.0)">10</text></g><g class="a22 c1 node n18 p0" transform="translate(16.875 7.14819)"><g class="a18 c2 node n12 p0" transform="translate(0.0 16.0732)"><g class="a12 leaf node n1 p0 sample" transform="translate(-11.25 3.18682)"><path class="edge" d="M 0 0 V -3.18682 H 11.25" /><rect class="sym" height="6" width="6" x="-3" y="-3" /><text class="lab" transform="translate(0 11)">1</text></g><g class="a12 c2 node n11 p0" transform="translate(11.25 1.06488)"><g class="a11 leaf node n5 p0 sample" transform="translate(-7.5 2.12194)"><path class="edge" d="M 0 0 V -2.12194 H 7.5" /><rect class="sym" height="6" width="6" x="-3" y="-3" /><text class="lab" transform="translate(0 11)">5</text></g><g class="a11 leaf node n9 p0 sample" transform="translate(7.5 2.12194)"><path class="edge" d="M 0 0 V -2.12194 H -7.5" /><rect class="sym" height="6" width="6" x="-3" y="-3" /><text class="lab" transform="translate(0 11)">9</text></g><path class="edge" d="M 0 0 V -1.06488 H -11.25" /><circle class="sym" cx="0" cy="0" r="3" /><text class="lab rgt" transform="translate(3 -7.0)">11</text></g><path class="edge" d="M 0 0 V -16.0732 H 0.0" /><circle class="sym" cx="0" cy="0" r="3" /><text class="lab lft" transform="translate(-3 -7.0)">12</text></g><path class="edge" d="M 0 0 V -7.14819 H -16.875" /><circle class="sym" cx="0" cy="0" r="3" /><text class="lab rgt" transform="translate(3 -7.0)">18</text></g><path class="edge" d="M 0 0 V -1.94809 H 29.0625" /><circle class="sym" cx="0" cy="0" r="3" /><text class="lab lft" transform="translate(-3 -7.0)">22</text></g><path class="edge" d="M 0 0 V -66.2437 H 31.4062" /><circle class="sym" cx="0" cy="0" r="3" /><text class="lab lft" transform="translate(-3 -7.0)">23</text></g><g class="a27 c2 node n26 p0" transform="translate(31.4062 50.5299)"><g class="a26 c1 node n16 p0" transform="translate(11.25 39.4813)"><g class="a16 c2 node n15 p0" transform="translate(0.0 0.351847)"><g class="a15 leaf node n6 p0 sample" transform="translate(-7.5 4.23687)"><path class="edge" d="M 0 0 V -4.23687 H 7.5" /><rect class="sym" height="6" width="6" x="-3" y="-3" /><text class="lab" transform="translate(0 11)">6</text></g><g class="a15 leaf node n7 p0 sample" transform="translate(7.5 4.23687)"><path class="edge" d="M 0 0 V -4.23687 H -7.5" /><rect class="sym" height="6" width="6" x="-3" y="-3" /><text class="lab" transform="translate(0 11)">7</text></g><path class="edge" d="M 0 0 V -0.351847 H 0.0" /><circle class="sym" cx="0" cy="0" r="3" /><text class="lab lft" transform="translate(-3 -7.0)">15</text></g><path class="edge" d="M 0 0 V -39.4813 H -11.25" /><circle class="sym" cx="0" cy="0" r="3" /><text class="lab rgt" transform="translate(3 -7.0)">16</text></g><g class="a26 c1 node n25 p0" transform="translate(-11.25 9.12068)"><g class="a25 leaf node n3 p0 sample" transform="translate(0.0 34.9494)"><path class="edge" d="M 0 0 V -34.9494 H 0.0" /><rect class="sym" height="6" width="6" x="-3" y="-3" /><text class="lab" transform="translate(0 11)">3</text></g><path class="edge" d="M 0 0 V -9.12068 H 11.25" /><circle class="sym" cx="0" cy="0" r="3" /><text class="lab lft" transform="translate(-3 -7.0)">25</text></g><path class="edge" d="M 0 0 V -50.5299 H -31.4062" /><circle class="sym" cx="0" cy="0" r="3" /><text class="lab rgt" transform="translate(3 -7.0)">26</text></g><circle class="sym" cx="0" cy="0" r="3" /><text class="lab" transform="translate(0 -11)">27</text></g></g></g><g class="tree t1" transform="translate(210 0)"><g class="plotbox"><g class="c2 node n27 p0 root" transform="translate(105.781 26.8)"><g class="a27 c2 node n23 p0" transform="translate(-28.5938 66.2437)"><g class="a23 c1 node n20 p0" transform="translate(25.3125 8.18967)"><g class="a20 c1 node n17 p0" transform="translate(0.0 11.4059)"><g class="a17 leaf node n4 p0 sample" transform="translate(0.0 8.76074)"><path class="edge" d="M 0 0 V -8.76074 H 0.0" /><rect class="sym" height="6" width="6" x="-3" y="-3" /><text class="lab" transform="translate(0 11)">4</text></g><path class="edge" d="M 0 0 V -11.4059 H 0.0" /><circle class="sym" cx="0" cy="0" r="3" /><text class="lab lft" transform="translate(-3 -7.0)">17</text></g><path class="edge" d="M 0 0 V -8.18967 H -25.3125" /><circle class="sym" cx="0" cy="0" r="3" /><text class="lab rgt" transform="translate(3 -7.0)">20</text></g><g class="a23 c2 node n22 p0" transform="translate(-25.3125 1.94809)"><g class="a22 c2 node n10 p0" transform="translate(-16.875 24.5362)"><g class="a10 leaf node n0 p0 sample" transform="translate(-7.5 1.87202)"><path class="edge" d="M 0 0 V -1.87202 H 7.5" /><rect class="sym" height="6" width="6" x="-3" y="-3" /><text class="lab" transform="translate(0 11)">0</text></g><g class="a10 leaf node n2 p0 sample" transform="translate(7.5 1.87202)"><path class="edge" d="M 0 0 V -1.87202 H -7.5" /><rect class="sym" height="6" width="6" x="-3" y="-3" /><text class="lab" transform="translate(0 11)">2</text></g><path class="edge" d="M 0 0 V -24.5362 H 16.875" /><circle class="sym" cx="0" cy="0" r="3" /><text class="lab lft" transform="translate(-3 -7.0)">10</text></g><g class="a22 c1 node n18 p0" transform="translate(16.875 7.14819)"><g class="a18 c2 node n12 p0" transform="translate(0.0 16.0732)"><g class="a12 leaf node n1 p0 sample" transform="translate(-11.25 3.18682)"><path class="edge" d="M 0 0 V -3.18682 H 11.25" /><rect class="sym" height="6" width="6" x="-3" y="-3" /><text class="lab" transform="translate(0 11)">1</text></g><g class="a12 c2 node n11 p0" transform="translate(11.25 1.06488)"><g class="a11 leaf node n5 p0 sample" transform="translate(-7.5 2.12194)"><path class="edge" d="M 0 0 V -2.12194 H 7.5" /><rect class="sym" height="6" width="6" x="-3" y="-3" /><text class="lab" transform="translate(0 11)">5</text></g><g class="a11 leaf node n9 p0 sample" transform="translate(7.5 2.12194)"><path class="edge" d="M 0 0 V -2.12194 H -7.5" /><rect class="sym" height="6" width="6" x="-3" y="-3" /><text class="lab" transform="translate(0 11)">9</text></g><path class="edge" d="M 0 0 V -1.06488 H -11.25" /><circle class="sym" cx="0" cy="0" r="3" /><text class="lab rgt" transform="translate(3 -7.0)">11</text></g><path class="edge" d="M 0 0 V -16.0732 H 0.0" /><circle class="sym" cx="0" cy="0" r="3" /><text class="lab lft" transform="translate(-3 -7.0)">12</text></g><path class="edge" d="M 0 0 V -7.14819 H -16.875" /><circle class="sym" cx="0" cy="0" r="3" /><text class="lab rgt" transform="translate(3 -7.0)">18</text></g><path class="edge" d="M 0 0 V -1.94809 H 25.3125" /><circle class="sym" cx="0" cy="0" r="3" /><text class="lab lft" transform="translate(-3 -7.0)">22</text></g><path class="edge" d="M 0 0 V -66.2437 H 28.5938" /><circle class="sym" cx="0" cy="0" r="3" /><text class="lab lft" transform="translate(-3 -7.0)">23</text></g><g class="a27 c2 node n26 p0" transform="translate(28.5938 50.5299)"><g class="a26 c2 node n16 p0" transform="translate(16.875 39.4813)"><g class="a16 c2 node n15 p0" transform="translate(-11.25 0.351847)"><g class="a15 leaf node n6 p0 sample" transform="translate(-7.5 4.23687)"><path class="edge" d="M 0 0 V -4.23687 H 7.5" /><rect class="sym" height="6" width="6" x="-3" y="-3" /><text class="lab" transform="translate(0 11)">6</text></g><g class="a15 leaf node n7 p0 sample" transform="translate(7.5 4.23687)"><path class="edge" d="M 0 0 V -4.23687 H -7.5" /><rect class="sym" height="6" width="6" x="-3" y="-3" /><text class="lab" transform="translate(0 11)">7</text></g><path class="edge" d="M 0 0 V -0.351847 H 11.25" /><circle class="sym" cx="0" cy="0" r="3" /><text class="lab lft" transform="translate(-3 -7.0)">15</text></g><g class="a16 c1 node n14 p0" transform="translate(11.25 1.39158)"><g class="a14 leaf node n8 p0 sample" transform="translate(0.0 3.19713)"><path class="edge" d="M 0 0 V -3.19713 H 0.0" /><rect class="sym" height="6" width="6" x="-3" y="-3" /><text class="lab" transform="translate(0 11)">8</text></g><path class="edge" d="M 0 0 V -1.39158 H -11.25" /><circle class="sym" cx="0" cy="0" r="3" /><text class="lab rgt" transform="translate(3 -7.0)">14</text></g><path class="edge" d="M 0 0 V -39.4813 H -16.875" /><circle class="sym" cx="0" cy="0" r="3" /><text class="lab rgt" transform="translate(3 -7.0)">16</text></g><g class="a26 c1 node n25 p0" transform="translate(-16.875 9.12068)"><g class="a25 leaf node n3 p0 sample" transform="translate(0.0 34.9494)"><path class="edge" d="M 0 0 V -34.9494 H 0.0" /><rect class="sym" height="6" width="6" x="-3" y="-3" /><text class="lab" transform="translate(0 11)">3</text></g><path class="edge" d="M 0 0 V -9.12068 H 16.875" /><circle class="sym" cx="0" cy="0" r="3" /><text class="lab lft" transform="translate(-3 -7.0)">25</text></g><path class="edge" d="M 0 0 V -50.5299 H -28.5938" /><circle class="sym" cx="0" cy="0" r="3" /><text class="lab rgt" transform="translate(3 -7.0)">26</text></g><circle class="sym" cx="0" cy="0" r="3" /><text class="lab" transform="translate(0 -11)">27</text></g></g></g><g class="tree t2" transform="translate(400 0)"><g class="plotbox"><g class="c2 node n27 p0 root" transform="translate(86.0938 26.8)"><g class="a27 c2 node n23 p0" transform="translate(-39.8438 66.2437)"><g class="a23 c1 node n20 p0" transform="translate(11.25 8.18967)"><g class="a20 c1 node n17 p0" transform="translate(0.0 11.4059)"><g class="a17 leaf node n4 p0 sample" transform="translate(0.0 8.76074)"><path class="edge" d="M 0 0 V -8.76074 H 0.0" /><rect class="sym" height="6" width="6" x="-3" y="-3" /><text class="lab" transform="translate(0 11)">4</text></g><path class="edge" d="M 0 0 V -11.4059 H 0.0" /><circle class="sym" cx="0" cy="0" r="3" /><text class="lab lft" transform="translate(-3 -7.0)">17</text></g><path class="edge" d="M 0 0 V -8.18967 H -11.25" /><circle class="sym" cx="0" cy="0" r="3" /><text class="lab rgt" transform="translate(3 -7.0)">20</text></g><g class="a23 c1 node n22 p0" transform="translate(-11.25 1.94809)"><g class="a22 c2 node n10 p0" transform="translate(0.0 24.5362)"><g class="a10 leaf node n0 p0 sample" transform="translate(-7.5 1.87202)"><path class="edge" d="M 0 0 V -1.87202 H 7.5" /><rect class="sym" height="6" width="6" x="-3" y="-3" /><text class="lab" transform="translate(0 11)">0</text></g><g class="a10 leaf node n2 p0 sample" transform="translate(7.5 1.87202)"><path class="edge" d="M 0 0 V -1.87202 H -7.5" /><rect class="sym" height="6" width="6" x="-3" y="-3" /><text class="lab" transform="translate(0 11)">2</text></g><path class="edge" d="M 0 0 V -24.5362 H 0.0" /><circle class="sym" cx="0" cy="0" r="3" /><text class="lab lft" transform="translate(-3 -7.0)">10</text></g><path class="edge" d="M 0 0 V -1.94809 H 11.25" /><circle class="sym" cx="0" cy="0" r="3" /><text class="lab lft" transform="translate(-3 -7.0)">22</text></g><path class="edge" d="M 0 0 V -66.2437 H 39.8438" /><circle class="sym" cx="0" cy="0" r="3" /><text class="lab lft" transform="translate(-3 -7.0)">23</text></g><g class="a27 c2 node n26 p0" transform="translate(39.8438 50.5299)"><g class="a26 c2 node n16 p0" transform="translate(25.3125 39.4813)"><g class="a16 c2 node n15 p0" transform="translate(-11.25 0.351847)"><g class="a15 leaf node n6 p0 sample" transform="translate(-7.5 4.23687)"><path class="edge" d="M 0 0 V -4.23687 H 7.5" /><rect class="sym" height="6" width="6" x="-3" y="-3" /><text class="lab" transform="translate(0 11)">6</text></g><g class="a15 leaf node n7 p0 sample" transform="translate(7.5 4.23687)"><path class="edge" d="M 0 0 V -4.23687 H -7.5" /><rect class="sym" height="6" width="6" x="-3" y="-3" /><text class="lab" transform="translate(0 11)">7</text></g><path class="edge" d="M 0 0 V -0.351847 H 11.25" /><circle class="sym" cx="0" cy="0" r="3" /><text class="lab lft" transform="translate(-3 -7.0)">15</text></g><g class="a16 c1 node n14 p0" transform="translate(11.25 1.39158)"><g class="a14 leaf node n8 p0 sample" transform="translate(0.0 3.19713)"><path class="edge" d="M 0 0 V -3.19713 H 0.0" /><rect class="sym" height="6" width="6" x="-3" y="-3" /><text class="lab" transform="translate(0 11)">8</text></g><path class="edge" d="M 0 0 V -1.39158 H -11.25" /><circle class="sym" cx="0" cy="0" r="3" /><text class="lab rgt" transform="translate(3 -7.0)">14</text></g><path class="edge" d="M 0 0 V -39.4813 H -25.3125" /><circle class="sym" cx="0" cy="0" r="3" /><text class="lab rgt" transform="translate(3 -7.0)">16</text></g><g class="a26 c2 node n25 p0" transform="translate(-25.3125 9.12068)"><g class="a25 leaf node n3 p0 sample" transform="translate(16.875 34.9494)"><path class="edge" d="M 0 0 V -34.9494 H -16.875" /><rect class="sym" height="6" width="6" x="-3" y="-3" /><text class="lab" transform="translate(0 11)">3</text></g><g class="a25 c1 node n24 p0" transform="translate(-16.875 3.70316)"><g class="a24 c1 node n19 p0" transform="translate(0.0 11.9861)"><g class="a19 c2 node n12 p0" transform="translate(0.0 16.0732)"><g class="a12 leaf node n1 p0 sample" transform="translate(-11.25 3.18682)"><path class="edge" d="M 0 0 V -3.18682 H 11.25" /><rect class="sym" height="6" width="6" x="-3" y="-3" /><text class="lab" transform="translate(0 11)">1</text></g><g class="a12 c2 node n11 p0" transform="translate(11.25 1.06488)"><g class="a11 leaf node n5 p0 sample" transform="translate(-7.5 2.12194)"><path class="edge" d="M 0 0 V -2.12194 H 7.5" /><rect class="sym" height="6" width="6" x="-3" y="-3" /><text class="lab" transform="translate(0 11)">5</text></g><g class="a11 leaf node n9 p0 sample" transform="translate(7.5 2.12194)"><path class="edge" d="M 0 0 V -2.12194 H -7.5" /><rect class="sym" height="6" width="6" x="-3" y="-3" /><text class="lab" transform="translate(0 11)">9</text></g><path class="edge" d="M 0 0 V -1.06488 H -11.25" /><circle class="sym" cx="0" cy="0" r="3" /><text class="lab rgt" transform="translate(3 -7.0)">11</text></g><path class="edge" d="M 0 0 V -16.0732 H 0.0" /><circle class="sym" cx="0" cy="0" r="3" /><text class="lab lft" transform="translate(-3 -7.0)">12</text></g><path class="edge" d="M 0 0 V -11.9861 H 0.0" /><circle class="sym" cx="0" cy="0" r="3" /><text class="lab lft" transform="translate(-3 -7.0)">19</text></g><path class="edge" d="M 0 0 V -3.70316 H 16.875" /><circle class="sym" cx="0" cy="0" r="3" /><text class="lab lft" transform="translate(-3 -7.0)">24</text></g><path class="edge" d="M 0 0 V -9.12068 H 25.3125" /><circle class="sym" cx="0" cy="0" r="3" /><text class="lab lft" transform="translate(-3 -7.0)">25</text></g><path class="edge" d="M 0 0 V -50.5299 H -39.8438" /><circle class="sym" cx="0" cy="0" r="3" /><text class="lab rgt" transform="translate(3 -7.0)">26</text></g><circle class="sym" cx="0" cy="0" r="3" /><text class="lab" transform="translate(0 -11)">27</text></g></g></g><g class="tree t3" transform="translate(590 0)"><g class="plotbox"><g class="c2 node n27 p0 root" transform="translate(80.7031 26.8)"><g class="a27 c1 node n23 p0" transform="translate(-45.7031 66.2437)"><g class="a23 c1 node n22 p0" transform="translate(0.0 1.94809)"><g class="a22 c2 node n10 p0" transform="translate(0.0 24.5362)"><g class="a10 leaf node n0 p0 sample" transform="translate(-7.5 1.87202)"><path class="edge" d="M 0 0 V -1.87202 H 7.5" /><rect class="sym" height="6" width="6" x="-3" y="-3" /><text class="lab" transform="translate(0 11)">0</text></g><g class="a10 leaf node n2 p0 sample" transform="translate(7.5 1.87202)"><path class="edge" d="M 0 0 V -1.87202 H -7.5" /><rect class="sym" height="6" width="6" x="-3" y="-3" /><text class="lab" transform="translate(0 11)">2</text></g><path class="edge" d="M 0 0 V -24.5362 H 0.0" /><circle class="sym" cx="0" cy="0" r="3" /><text class="lab lft" transform="translate(-3 -7.0)">10</text></g><path class="edge" d="M 0 0 V -1.94809 H 0.0" /><circle class="sym" cx="0" cy="0" r="3" /><text class="lab lft" transform="translate(-3 -7.0)">22</text></g><path class="edge" d="M 0 0 V -66.2437 H 45.7031" /><circle class="sym" cx="0" cy="0" r="3" /><text class="lab lft" transform="translate(-3 -7.0)">23</text></g><g class="a27 c2 node n26 p0" transform="translate(45.7031 50.5299)"><g class="a26 c2 node n16 p0" transform="translate(24.8438 39.4813)"><g class="a16 c2 node n15 p0" transform="translate(-11.25 0.351847)"><g class="a15 leaf node n6 p0 sample" transform="translate(-7.5 4.23687)"><path class="edge" d="M 0 0 V -4.23687 H 7.5" /><rect class="sym" height="6" width="6" x="-3" y="-3" /><text class="lab" transform="translate(0 11)">6</text></g><g class="a15 leaf node n7 p0 sample" transform="translate(7.5 4.23687)"><path class="edge" d="M 0 0 V -4.23687 H -7.5" /><rect class="sym" height="6" width="6" x="-3" y="-3" /><text class="lab" transform="translate(0 11)">7</text></g><path class="edge" d="M 0 0 V -0.351847 H 11.25" /><circle class="sym" cx="0" cy="0" r="3" /><text class="lab lft" transform="translate(-3 -7.0)">15</text></g><g class="a16 c1 node n14 p0" transform="translate(11.25 1.39158)"><g class="a14 leaf node n8 p0 sample" transform="translate(0.0 3.19713)"><path class="edge" d="M 0 0 V -3.19713 H 0.0" /><rect class="sym" height="6" width="6" x="-3" y="-3" /><text class="lab" transform="translate(0 11)">8</text></g><path class="edge" d="M 0 0 V -1.39158 H -11.25" /><circle class="sym" cx="0" cy="0" r="3" /><text class="lab rgt" transform="translate(3 -7.0)">14</text></g><path class="edge" d="M 0 0 V -39.4813 H -24.8438" /><circle class="sym" cx="0" cy="0" r="3" /><text class="lab rgt" transform="translate(3 -7.0)">16</text></g><g class="a26 c2 node n25 p0" transform="translate(-24.8438 9.12068)"><g class="a25 leaf node n3 p0 sample" transform="translate(15.9375 34.9494)"><path class="edge" d="M 0 0 V -34.9494 H -15.9375" /><rect class="sym" height="6" width="6" x="-3" y="-3" /><text class="lab" transform="translate(0 11)">3</text></g><g class="a25 c2 node n24 p0" transform="translate(-15.9375 3.70316)"><g class="a24 c1 node n19 p0" transform="translate(-16.875 11.9861)"><g class="a19 c2 node n12 p0" transform="translate(0.0 16.0732)"><g class="a12 leaf node n1 p0 sample" transform="translate(-11.25 3.18682)"><path class="edge" d="M 0 0 V -3.18682 H 11.25" /><rect class="sym" height="6" width="6" x="-3" y="-3" /><text class="lab" transform="translate(0 11)">1</text></g><g class="a12 c2 node n11 p0" transform="translate(11.25 1.06488)"><g class="a11 leaf node n5 p0 sample" transform="translate(-7.5 2.12194)"><path class="edge" d="M 0 0 V -2.12194 H 7.5" /><rect class="sym" height="6" width="6" x="-3" y="-3" /><text class="lab" transform="translate(0 11)">5</text></g><g class="a11 leaf node n9 p0 sample" transform="translate(7.5 2.12194)"><path class="edge" d="M 0 0 V -2.12194 H -7.5" /><rect class="sym" height="6" width="6" x="-3" y="-3" /><text class="lab" transform="translate(0 11)">9</text></g><path class="edge" d="M 0 0 V -1.06488 H -11.25" /><circle class="sym" cx="0" cy="0" r="3" /><text class="lab rgt" transform="translate(3 -7.0)">11</text></g><path class="edge" d="M 0 0 V -16.0732 H 0.0" /><circle class="sym" cx="0" cy="0" r="3" /><text class="lab lft" transform="translate(-3 -7.0)">12</text></g><path class="edge" d="M 0 0 V -11.9861 H 16.875" /><circle class="sym" cx="0" cy="0" r="3" /><text class="lab lft" transform="translate(-3 -7.0)">19</text></g><g class="a24 c1 node n21 p0" transform="translate(16.875 11.0795)"><g class="a21 c1 node n17 p0" transform="translate(0.0 11.4059)"><g class="a17 leaf node n4 p0 sample" transform="translate(0.0 8.76074)"><path class="edge" d="M 0 0 V -8.76074 H 0.0" /><rect class="sym" height="6" width="6" x="-3" y="-3" /><text class="lab" transform="translate(0 11)">4</text></g><path class="edge" d="M 0 0 V -11.4059 H 0.0" /><circle class="sym" cx="0" cy="0" r="3" /><text class="lab lft" transform="translate(-3 -7.0)">17</text></g><path class="edge" d="M 0 0 V -11.0795 H -16.875" /><circle class="sym" cx="0" cy="0" r="3" /><text class="lab rgt" transform="translate(3 -7.0)">21</text></g><path class="edge" d="M 0 0 V -3.70316 H 15.9375" /><circle class="sym" cx="0" cy="0" r="3" /><text class="lab lft" transform="translate(-3 -7.0)">24</text></g><path class="edge" d="M 0 0 V -9.12068 H 24.8438" /><circle class="sym" cx="0" cy="0" r="3" /><text class="lab lft" transform="translate(-3 -7.0)">25</text></g><path class="edge" d="M 0 0 V -50.5299 H -45.7031" /><circle class="sym" cx="0" cy="0" r="3" /><text class="lab rgt" transform="translate(3 -7.0)">26</text></g><circle class="sym" cx="0" cy="0" r="3" /><text class="lab" transform="translate(0 -11)">27</text></g></g></g></g></g></svg>
