<svg baseProfile="full" height="200" version="1.1" width="1200" xmlns="http://www.w3.org/2000/svg" xmlns:ev="http://www.w3.org/2001/xml-events" xmlns:xlink="http://www.w3.org/1999/xlink"><defs><style type="text/css"><![CDATA[.background path {fill: #808080; fill-opacity: 0}.background path:nth-child(odd) {fill-opacity: .1}.axes {font-size: 14px}.x-axis .tick .lab {font-weight: bold; dominant-baseline: hanging}.axes, .tree {font-size: 14px; text-anchor: middle}.axes line, .edge {stroke: black; fill: none}.y-axis .grid {stroke: #FAFAFA}.node > .sym {fill: black; stroke: none}.site > .sym {stroke: black}.mut text {fill: red; font-style: italic}.mut.extra text {fill: hotpink}.mut line {fill: none; stroke: none}.mut .sym {fill: none; stroke: red}.mut.extra .sym {stroke: hotpink}.node .mut .sym {stroke-width: 1.5px}.tree text, .tree-sequence text {dominant-baseline: central}.plotbox .lab.lft {text-anchor: end}.plotbox .lab.rgt {text-anchor: start}]]></style></defs><g class="tree-sequence"><g class="background"><path d="M20,0 l193.333,0 l0,138.2 l-24.3845,25 l0,5 l-168.949,0 l0,-5 l0,-25 l0,-138.2z" /><path d="M213.333,0 l193.333,0 l0,138.2 l-204.169,25 l0,5 l-13.5486,0 l0,-5 l24.3845,-25 l0,-138.2z" /><path d="M406.667,0 l193.333,0 l0,138.2 l-53.377,25 l0,5 l-344.126,0 l0,-5 l204.169,-25 l0,-138.2z" /><path d="M600,0 l193.333,0 l0,138.2 l-59.5673,25 l0,5 l-187.143,0 l0,-5 l53.377,-25 l0,-138.2z" /><path d="M793.333,0 l193.333,0 l0,138.2 l-173.076,25 l0,5 l-79.8242,0 l0,-5 l59.5673,-25 l0,-138.2z" /><path d="M986.667,0 l193.333,0 l0,138.2 l0,25 l0,5 l-366.41,0 l0,-5 l173.076,-25 l0,-138.2z" /></g><g class="axes"><g class="x-axis"><g transform="translate(600 200)"><text class="lab" text-anchor="middle" transform="translate(0 -11)">Genome position</text></g><line x1="20" x2="1180" y1="163.2" y2="163.2" /><g class="ticks"><g class="tick" transform="translate(20 163.2)"><line x1="0" x2="0" y1="0" y2="5" /><g transform="translate(0 6)"><text class="lab">0.00</text></g></g><g class="tick" transform="translate(188.949 163.2)"><line x1="0" x2="0" y1="0" y2="5" /><g transform="translate(0 6)"><text class="lab">145.65</text></g></g><g class="tick" transform="translate(202.497 163.2)"><line x1="0" x2="0" y1="0" y2="5" /><g transform="translate(0 6)"><text class="lab">157.33</text></g></g><g class="tick" transform="translate(546.623 163.2)"><line x1="0" x2="0" y1="0" y2="5" /><g transform="translate(0 6)"><text class="lab">453.99</text></g></g><g class="tick" transform="translate(733.766 163.2)"><line x1="0" x2="0" y1="0" y2="5" /><g transform="translate(0 6)"><text class="lab">615.32</text></g></g><g class="tick" transform="translate(813.59 163.2)"><line x1="0" x2="0" y1="0" y2="5" /><g transform="translate(0 6)"><text class="lab">684.13</text></g></g><g class="tick" transform="translate(1180 163.2)"><line x1="0" x2="0" y1="0" y2="5" /><g transform="translate(0 6)"><text class="lab">1000.00</text></g></g></g></g></g><g class="plotbox trees"><g class="tree t0" transform="translate(20 0)"><g class="plotbox"><g class="c2 node n33 p0 root" transform="translate(138.714 26.8)"><g class="a33 c1 node n28 p0" transform="translate(26.9531 47.6547)"><g class="a28 c1 node n20 p0" transform="translate(0.0 25.7317)"><g class="a20 leaf node n5 p0 sample" transform="translate(0.0 21.2136)"><path class="edge" d="M 0 0 V -21.2136 H 0.0" /><rect class="sym" height="6" width="6" x="-3" y="-3" /><text class="lab" transform="translate(0 11)">5</text></g><path class="edge" d="M 0 0 V -25.7317 H 0.0" /><circle class="sym" cx="0" cy="0" r="3" /><text class="lab lft" transform="translate(-3 -7.0)">20</text></g><path class="edge" d="M 0 0 V -47.6547 H -26.9531" /><circle class="sym" cx="0" cy="0" r="3" /><text class="lab rgt" transform="translate(3 -7.0)">28</text></g><g class="a33 c1 node n32 p0" transform="translate(-26.9531 7.20737)"><g class="a32 c2 node n31 p0" transform="translate(0.0 4.58721)"><g class="a31 c2 node n29 p0" transform="translate(27.0729 32.8642)"><g class="a29 c1 node n21 p0" transform="translate(-11.5 25.2771)"><g class="a21 c2 node n15 p0" transform="translate(0.0 10.685)"><g class="a15 leaf node n6 p0 sample" transform="translate(7.66667 13.9792)"><path class="edge" d="M 0 0 V -13.9792 H -7.66667" /><rect class="sym" height="6" width="6" x="-3" y="-3" /><text class="lab" transform="translate(0 11)">6</text></g><g class="a15 c1 node n14 p0" transform="translate(-7.66667 7.30461)"><g class="a14 leaf node n1 p0 sample" transform="translate(0.0 6.67461)"><path class="edge" d="M 0 0 V -6.67461 H 0.0" /><rect class="sym" height="6" width="6" x="-3" y="-3" /><text class="lab" transform="translate(0 11)">1</text></g><path class="edge" d="M 0 0 V -7.30461 H 7.66667" /><circle class="sym" cx="0" cy="0" r="3" /><text class="lab lft" transform="translate(-3 -7.0)">14</text></g><path class="edge" d="M 0 0 V -10.685 H 0.0" /><circle class="sym" cx="0" cy="0" r="3" /><text class="lab lft" transform="translate(-3 -7.0)">15</text></g><path class="edge" d="M 0 0 V -25.2771 H 11.5" /><circle class="sym" cx="0" cy="0" r="3" /><text class="lab lft" transform="translate(-3 -7.0)">21</text></g><g class="a29 c1 node n24 p0" transform="translate(11.5 13.1129)"><g class="a24 c1 node n16 p0" transform="translate(0.0 19.3424)"><g class="a16 leaf node n8 p0 sample" transform="translate(0.0 17.4859)"><path class="edge" d="M 0 0 V -17.4859 H 0.0" /><rect class="sym" height="6" width="6" x="-3" y="-3" /><text class="lab" transform="translate(0 11)">8</text></g><path class="edge" d="M 0 0 V -19.3424 H 0.0" /><circle class="sym" cx="0" cy="0" r="3" /><text class="lab lft" transform="translate(-3 -7.0)">16</text></g><path class="edge" d="M 0 0 V -13.1129 H -11.5" /><circle class="sym" cx="0" cy="0" r="3" /><text class="lab rgt" transform="translate(3 -7.0)">24</text></g><path class="edge" d="M 0 0 V -32.8642 H -27.0729" /><circle class="sym" cx="0" cy="0" r="3" /><text class="lab rgt" transform="translate(3 -7.0)">29</text></g><g class="a31 c2 node n30 p0" transform="translate(-27.0729 14.0209)"><g class="a30 leaf node n4 p0 sample" transform="translate(19.6458 68.7845)"><path class="edge" d="M 0 0 V -68.7845 H -19.6458" /><rect class="sym" height="6" width="6" x="-3" y="-3" /><text class="lab" transform="translate(0 11)">4</text></g><g class="a30 c1 node n26 p0" transform="translate(-19.6458 23.8355)"><g class="a26 c2 node n23 p0" transform="translate(0.0 11.2009)"><g class="a23 c1 node n12 p0" transform="translate(23.9583 28.4431)"><g class="a12 leaf node n2 p0 sample" transform="translate(0.0 5.30495)"><path class="edge" d="M 0 0 V -5.30495 H 0.0" /><rect class="sym" height="6" width="6" x="-3" y="-3" /><text class="lab" transform="translate(0 11)">2</text></g><path class="edge" d="M 0 0 V -28.4431 H -23.9583" /><circle class="sym" cx="0" cy="0" r="3" /><text class="lab rgt" transform="translate(3 -7.0)">12</text></g><g class="a23 c2 node n22 p0" transform="translate(-23.9583 0.749683)"><g class="a22 c2 node n11 p0" transform="translate(13.4167 31.3759)"><g class="a11 leaf node n3 p0 sample" transform="translate(-11.5 1.62248)"><path class="edge" d="M 0 0 V -1.62248 H 11.5" /><rect class="sym" height="6" width="6" x="-3" y="-3" /><text class="lab" transform="translate(0 11)">3</text></g><g class="a11 c2 node n10 p0" transform="translate(11.5 1.41134)"><g class="a10 leaf node n7 p0 sample" transform="translate(-7.66667 0.211147)"><path class="edge" d="M 0 0 V -0.211147 H 7.66667" /><rect class="sym" height="6" width="6" x="-3" y="-3" /><text class="lab" transform="translate(0 11)">7</text></g><g class="a10 leaf node n9 p0 sample" transform="translate(7.66667 0.211147)"><path class="edge" d="M 0 0 V -0.211147 H -7.66667" /><rect class="sym" height="6" width="6" x="-3" y="-3" /><text class="lab" transform="translate(0 11)">9</text></g><path class="edge" d="M 0 0 V -1.41134 H -11.5" /><circle class="sym" cx="0" cy="0" r="3" /><text class="lab rgt" transform="translate(3 -7.0)">10</text></g><path class="edge" d="M 0 0 V -31.3759 H -13.4167" /><circle class="sym" cx="0" cy="0" r="3" /><text class="lab rgt" transform="translate(3 -7.0)">11</text></g><g class="a22 c1 node n18 p0" transform="translate(-13.4167 13.0667)"><g class="a18 leaf node n0 p0 sample" transform="translate(0.0 19.9317)"><path class="edge" d="M 0 0 V -19.9317 H 0.0" /><rect class="sym" height="6" width="6" x="-3" y="-3" /><text class="lab" transform="translate(0 11)">0</text></g><path class="edge" d="M 0 0 V -13.0667 H 13.4167" /><circle class="sym" cx="0" cy="0" r="3" /><text class="lab lft" transform="translate(-3 -7.0)">18</text></g><path class="edge" d="M 0 0 V -0.749683 H 23.9583" /><circle class="sym" cx="0" cy="0" r="3" /><text class="lab lft" transform="translate(-3 -7.0)">22</text></g><path class="edge" d="M 0 0 V -11.2009 H 0.0" /><circle class="sym" cx="0" cy="0" r="3" /><text class="lab lft" transform="translate(-3 -7.0)">23</text></g><path class="edge" d="M 0 0 V -23.8355 H 19.6458" /><circle class="sym" cx="0" cy="0" r="3" /><text class="lab lft" transform="translate(-3 -7.0)">26</text></g><path class="edge" d="M 0 0 V -14.0209 H 27.0729" /><circle class="sym" cx="0" cy="0" r="3" /><text class="lab lft" transform="translate(-3 -7.0)">30</text></g><path class="edge" d="M 0 0 V -4.58721 H 0.0" /><circle class="sym" cx="0" cy="0" r="3" /><text class="lab lft" transform="translate(-3 -7.0)">31</text></g><path class="edge" d="M 0 0 V -7.20737 H 26.9531" /><circle class="sym" cx="0" cy="0" r="3" /><text class="lab lft" transform="translate(-3 -7.0)">32</text></g><circle class="sym" cx="0" cy="0" r="3" /><text class="lab" transform="translate(0 -11)">33</text></g></g></g><g class="tree t1" transform="translate(213.333 0)"><g class="plotbox"><g class="c2 node n33 p0 root" transform="translate(128.531 26.8)"><g class="a33 c1 node n28 p0" transform="translate(37.1354 47.6547)"><g class="a28 c1 node n20 p0" transform="translate(0.0 25.7317)"><g class="a20 leaf node n5 p0 sample" transform="translate(0.0 21.2136)"><path class="edge" d="M 0 0 V -21.2136 H 0.0" /><rect class="sym" height="6" width="6" x="-3" y="-3" /><text class="lab" transform="translate(0 11)">5</text></g><path class="edge" d="M 0 0 V -25.7317 H 0.0" /><circle class="sym" cx="0" cy="0" r="3" /><text class="lab lft" transform="translate(-3 -7.0)">20</text></g><path class="edge" d="M 0 0 V -47.6547 H -37.1354" /><circle class="sym" cx="0" cy="0" r="3" /><text class="lab rgt" transform="translate(3 -7.0)">28</text></g><g class="a33 c1 node n32 p0" transform="translate(-37.1354 7.20737)"><g class="a32 c2 node n31 p0" transform="translate(0.0 4.58721)"><g class="a31 c2 node n29 p0" transform="translate(-34.9792 32.8642)"><g class="a29 c2 node n21 p0" transform="translate(-17.25 25.2771)"><g class="a21 c2 node n15 p0" transform="translate(11.5 10.685)"><g class="a15 leaf node n6 p0 sample" transform="translate(7.66667 13.9792)"><path class="edge" d="M 0 0 V -13.9792 H -7.66667" /><rect class="sym" height="6" width="6" x="-3" y="-3" /><text class="lab" transform="translate(0 11)">6</text></g><g class="a15 c1 node n14 p0" transform="translate(-7.66667 7.30461)"><g class="a14 leaf node n1 p0 sample" transform="translate(0.0 6.67461)"><path class="edge" d="M 0 0 V -6.67461 H 0.0" /><rect class="sym" height="6" width="6" x="-3" y="-3" /><text class="lab" transform="translate(0 11)">1</text></g><path class="edge" d="M 0 0 V -7.30461 H 7.66667" /><circle class="sym" cx="0" cy="0" r="3" /><text class="lab lft" transform="translate(-3 -7.0)">14</text></g><path class="edge" d="M 0 0 V -10.685 H -11.5" /><circle class="sym" cx="0" cy="0" r="3" /><text class="lab rgt" transform="translate(3 -7.0)">15</text></g><g class="a21 c1 node n19 p0" transform="translate(-11.5 4.73251)"><g class="a19 leaf node n0 p0 sample" transform="translate(0.0 19.9317)"><path class="edge" d="M 0 0 V -19.9317 H 0.0" /><rect class="sym" height="6" width="6" x="-3" y="-3" /><text class="lab" transform="translate(0 11)">0</text></g><path class="edge" d="M 0 0 V -4.73251 H 11.5" /><circle class="sym" cx="0" cy="0" r="3" /><text class="lab lft" transform="translate(-3 -7.0)">19</text></g><path class="edge" d="M 0 0 V -25.2771 H 17.25" /><circle class="sym" cx="0" cy="0" r="3" /><text class="lab lft" transform="translate(-3 -7.0)">21</text></g><g class="a29 c1 node n24 p0" transform="translate(17.25 13.1129)"><g class="a24 c1 node n16 p0" transform="translate(0.0 19.3424)"><g class="a16 leaf node n8 p0 sample" transform="translate(0.0 17.4859)"><path class="edge" d="M 0 0 V -17.4859 H 0.0" /><rect class="sym" height="6" width="6" x="-3" y="-3" /><text class="lab" transform="translate(0 11)">8</text></g><path class="edge" d="M 0 0 V -19.3424 H 0.0" /><circle class="sym" cx="0" cy="0" r="3" /><text class="lab lft" transform="translate(-3 -7.0)">16</text></g><path class="edge" d="M 0 0 V -13.1129 H -17.25" /><circle class="sym" cx="0" cy="0" r="3" /><text class="lab rgt" transform="translate(3 -7.0)">24</text></g><path class="edge" d="M 0 0 V -32.8642 H 34.9792" /><circle class="sym" cx="0" cy="0" r="3" /><text class="lab lft" transform="translate(-3 -7.0)">29</text></g><g class="a31 c2 node n30 p0" transform="translate(34.9792 14.0209)"><g class="a30 leaf node n4 p0 sample" transform="translate(23.9583 68.7845)"><path class="edge" d="M 0 0 V -68.7845 H -23.9583" /><rect class="sym" height="6" width="6" x="-3" y="-3" /><text class="lab" transform="translate(0 11)">4</text></g><g class="a30 c1 node n26 p0" transform="translate(-23.9583 23.8355)"><g class="a26 c2 node n23 p0" transform="translate(0.0 11.2009)"><g class="a23 c1 node n12 p0" transform="translate(-13.4167 28.4431)"><g class="a12 leaf node n2 p0 sample" transform="translate(0.0 5.30495)"><path class="edge" d="M 0 0 V -5.30495 H 0.0" /><rect class="sym" height="6" width="6" x="-3" y="-3" /><text class="lab" transform="translate(0 11)">2</text></g><path class="edge" d="M 0 0 V -28.4431 H 13.4167" /><circle class="sym" cx="0" cy="0" r="3" /><text class="lab lft" transform="translate(-3 -7.0)">12</text></g><g class="a23 c1 node n22 p0" transform="translate(13.4167 0.749683)"><g class="a22 c2 node n11 p0" transform="translate(0.0 31.3759)"><g class="a11 leaf node n3 p0 sample" transform="translate(-11.5 1.62248)"><path class="edge" d="M 0 0 V -1.62248 H 11.5" /><rect class="sym" height="6" width="6" x="-3" y="-3" /><text class="lab" transform="translate(0 11)">3</text></g><g class="a11 c2 node n10 p0" transform="translate(11.5 1.41134)"><g class="a10 leaf node n7 p0 sample" transform="translate(-7.66667 0.211147)"><path class="edge" d="M 0 0 V -0.211147 H 7.66667" /><rect class="sym" height="6" width="6" x="-3" y="-3" /><text class="lab" transform="translate(0 11)">7</text></g><g class="a10 leaf node n9 p0 sample" transform="translate(7.66667 0.211147)"><path class="edge" d="M 0 0 V -0.211147 H -7.66667" /><rect class="sym" height="6" width="6" x="-3" y="-3" /><text class="lab" transform="translate(0 11)">9</text></g><path class="edge" d="M 0 0 V -1.41134 H -11.5" /><circle class="sym" cx="0" cy="0" r="3" /><text class="lab rgt" transform="translate(3 -7.0)">10</text></g><path class="edge" d="M 0 0 V -31.3759 H 0.0" /><circle class="sym" cx="0" cy="0" r="3" /><text class="lab lft" transform="translate(-3 -7.0)">11</text></g><path class="edge" d="M 0 0 V -0.749683 H -13.4167" /><circle class="sym" cx="0" cy="0" r="3" /><text class="lab rgt" transform="translate(3 -7.0)">22</text></g><path class="edge" d="M 0 0 V -11.2009 H 0.0" /><circle class="sym" cx="0" cy="0" r="3" /><text class="lab lft" transform="translate(-3 -7.0)">23</text></g><path class="edge" d="M 0 0 V -23.8355 H 23.9583" /><circle class="sym" cx="0" cy="0" r="3" /><text class="lab lft" transform="translate(-3 -7.0)">26</text></g><path class="edge" d="M 0 0 V -14.0209 H -34.9792" /><circle class="sym" cx="0" cy="0" r="3" /><text class="lab rgt" transform="translate(3 -7.0)">30</text></g><path class="edge" d="M 0 0 V -4.58721 H 0.0" /><circle class="sym" cx="0" cy="0" r="3" /><text class="lab lft" transform="translate(-3 -7.0)">31</text></g><path class="edge" d="M 0 0 V -7.20737 H 37.1354" /><circle class="sym" cx="0" cy="0" r="3" /><text class="lab lft" transform="translate(-3 -7.0)">32</text></g><circle class="sym" cx="0" cy="0" r="3" /><text class="lab" transform="translate(0 -11)">33</text></g></g></g><g class="tree t2" transform="translate(406.667 0)"><g class="plotbox"><g class="c2 node n33 p0 root" transform="translate(139.193 26.8)"><g class="a33 c1 node n28 p0" transform="translate(26.474 47.6547)"><g class="a28 c1 node n20 p0" transform="translate(0.0 25.7317)"><g class="a20 leaf node n5 p0 sample" transform="translate(0.0 21.2136)"><path class="edge" d="M 0 0 V -21.2136 H 0.0" /><rect class="sym" height="6" width="6" x="-3" y="-3" /><text class="lab" transform="translate(0 11)">5</text></g><path class="edge" d="M 0 0 V -25.7317 H 0.0" /><circle class="sym" cx="0" cy="0" r="3" /><text class="lab lft" transform="translate(-3 -7.0)">20</text></g><path class="edge" d="M 0 0 V -47.6547 H -26.474" /><circle class="sym" cx="0" cy="0" r="3" /><text class="lab rgt" transform="translate(3 -7.0)">28</text></g><g class="a33 c2 node n32 p0" transform="translate(-26.474 7.20737)"><g class="a32 c2 node n31 p0" transform="translate(-37.6146 4.58721)"><g class="a31 c1 node n29 p0" transform="translate(-35.9375 32.8642)"><g class="a29 c2 node n21 p0" transform="translate(0.0 25.2771)"><g class="a21 c2 node n15 p0" transform="translate(11.5 10.685)"><g class="a15 leaf node n6 p0 sample" transform="translate(7.66667 13.9792)"><path class="edge" d="M 0 0 V -13.9792 H -7.66667" /><rect class="sym" height="6" width="6" x="-3" y="-3" /><text class="lab" transform="translate(0 11)">6</text></g><g class="a15 c1 node n14 p0" transform="translate(-7.66667 7.30461)"><g class="a14 leaf node n1 p0 sample" transform="translate(0.0 6.67461)"><path class="edge" d="M 0 0 V -6.67461 H 0.0" /><rect class="sym" height="6" width="6" x="-3" y="-3" /><text class="lab" transform="translate(0 11)">1</text></g><path class="edge" d="M 0 0 V -7.30461 H 7.66667" /><circle class="sym" cx="0" cy="0" r="3" /><text class="lab lft" transform="translate(-3 -7.0)">14</text></g><path class="edge" d="M 0 0 V -10.685 H -11.5" /><circle class="sym" cx="0" cy="0" r="3" /><text class="lab rgt" transform="translate(3 -7.0)">15</text></g><g class="a21 c1 node n19 p0" transform="translate(-11.5 4.73251)"><g class="a19 leaf node n0 p0 sample" transform="translate(0.0 19.9317)"><path class="edge" d="M 0 0 V -19.9317 H 0.0" /><rect class="sym" height="6" width="6" x="-3" y="-3" /><text class="lab" transform="translate(0 11)">0</text></g><path class="edge" d="M 0 0 V -4.73251 H 11.5" /><circle class="sym" cx="0" cy="0" r="3" /><text class="lab lft" transform="translate(-3 -7.0)">19</text></g><path class="edge" d="M 0 0 V -25.2771 H 0.0" /><circle class="sym" cx="0" cy="0" r="3" /><text class="lab lft" transform="translate(-3 -7.0)">21</text></g><path class="edge" d="M 0 0 V -32.8642 H 35.9375" /><circle class="sym" cx="0" cy="0" r="3" /><text class="lab lft" transform="translate(-3 -7.0)">29</text></g><g class="a31 c2 node n30 p0" transform="translate(35.9375 14.0209)"><g class="a30 leaf node n4 p0 sample" transform="translate(23.9583 68.7845)"><path class="edge" d="M 0 0 V -68.7845 H -23.9583" /><rect class="sym" height="6" width="6" x="-3" y="-3" /><text class="lab" transform="translate(0 11)">4</text></g><g class="a30 c1 node n26 p0" transform="translate(-23.9583 23.8355)"><g class="a26 c2 node n23 p0" transform="translate(0.0 11.2009)"><g class="a23 c1 node n12 p0" transform="translate(-13.4167 28.4431)"><g class="a12 leaf node n2 p0 sample" transform="translate(0.0 5.30495)"><path class="edge" d="M 0 0 V -5.30495 H 0.0" /><rect class="sym" height="6" width="6" x="-3" y="-3" /><text class="lab" transform="translate(0 11)">2</text></g><path class="edge" d="M 0 0 V -28.4431 H 13.4167" /><circle class="sym" cx="0" cy="0" r="3" /><text class="lab lft" transform="translate(-3 -7.0)">12</text></g><g class="a23 c1 node n22 p0" transform="translate(13.4167 0.749683)"><g class="a22 c2 node n11 p0" transform="translate(0.0 31.3759)"><g class="a11 leaf node n3 p0 sample" transform="translate(-11.5 1.62248)"><path class="edge" d="M 0 0 V -1.62248 H 11.5" /><rect class="sym" height="6" width="6" x="-3" y="-3" /><text class="lab" transform="translate(0 11)">3</text></g><g class="a11 c2 node n10 p0" transform="translate(11.5 1.41134)"><g class="a10 leaf node n7 p0 sample" transform="translate(-7.66667 0.211147)"><path class="edge" d="M 0 0 V -0.211147 H 7.66667" /><rect class="sym" height="6" width="6" x="-3" y="-3" /><text class="lab" transform="translate(0 11)">7</text></g><g class="a10 leaf node n9 p0 sample" transform="translate(7.66667 0.211147)"><path class="edge" d="M 0 0 V -0.211147 H -7.66667" /><rect class="sym" height="6" width="6" x="-3" y="-3" /><text class="lab" transform="translate(0 11)">9</text></g><path class="edge" d="M 0 0 V -1.41134 H -11.5" /><circle class="sym" cx="0" cy="0" r="3" /><text class="lab rgt" transform="translate(3 -7.0)">10</text></g><path class="edge" d="M 0 0 V -31.3759 H 0.0" /><circle class="sym" cx="0" cy="0" r="3" /><text class="lab lft" transform="translate(-3 -7.0)">11</text></g><path class="edge" d="M 0 0 V -0.749683 H -13.4167" /><circle class="sym" cx="0" cy="0" r="3" /><text class="lab rgt" transform="translate(3 -7.0)">22</text></g><path class="edge" d="M 0 0 V -11.2009 H 0.0" /><circle class="sym" cx="0" cy="0" r="3" /><text class="lab lft" transform="translate(-3 -7.0)">23</text></g><path class="edge" d="M 0 0 V -23.8355 H 23.9583" /><circle class="sym" cx="0" cy="0" r="3" /><text class="lab lft" transform="translate(-3 -7.0)">26</text></g><path class="edge" d="M 0 0 V -14.0209 H -35.9375" /><circle class="sym" cx="0" cy="0" r="3" /><text class="lab rgt" transform="translate(3 -7.0)">30</text></g><path class="edge" d="M 0 0 V -4.58721 H 37.6146" /><circle class="sym" cx="0" cy="0" r="3" /><text class="lab lft" transform="translate(-3 -7.0)">31</text></g><g class="a32 c1 node n25 p0" transform="translate(37.6146 50.5643)"><g class="a25 c1 node n16 p0" transform="translate(0.0 19.3424)"><g class="a16 leaf node n8 p0 sample" transform="translate(0.0 17.4859)"><path class="edge" d="M 0 0 V -17.4859 H 0.0" /><rect class="sym" height="6" width="6" x="-3" y="-3" /><text class="lab" transform="translate(0 11)">8</text></g><path class="edge" d="M 0 0 V -19.3424 H 0.0" /><circle class="sym" cx="0" cy="0" r="3" /><text class="lab lft" transform="translate(-3 -7.0)">16</text></g><path class="edge" d="M 0 0 V -50.5643 H -37.6146" /><circle class="sym" cx="0" cy="0" r="3" /><text class="lab rgt" transform="translate(3 -7.0)">25</text></g><path class="edge" d="M 0 0 V -7.20737 H 26.474" /><circle class="sym" cx="0" cy="0" r="3" /><text class="lab lft" transform="translate(-3 -7.0)">32</text></g><circle class="sym" cx="0" cy="0" r="3" /><text class="lab" transform="translate(0 -11)">33</text></g></g></g><g class="tree t3" transform="translate(600 0)"><g class="plotbox"><g class="c2 node n33 p0 root" transform="translate(116.552 26.8)"><g class="a33 c1 node n28 p0" transform="translate(41.4479 47.6547)"><g class="a28 c2 node n20 p0" transform="translate(0.0 25.7317)"><g class="a20 leaf node n5 p0 sample" transform="translate(-7.66667 21.2136)"><path class="edge" d="M 0 0 V -21.2136 H 7.66667" /><rect class="sym" height="6" width="6" x="-3" y="-3" /><text class="lab" transform="translate(0 11)">5</text></g><g class="a20 c1 node n17 p0" transform="translate(7.66667 3.72769)"><g class="a17 leaf node n8 p0 sample" transform="translate(0.0 17.4859)"><path class="edge" d="M 0 0 V -17.4859 H 0.0" /><rect class="sym" height="6" width="6" x="-3" y="-3" /><text class="lab" transform="translate(0 11)">8</text></g><path class="edge" d="M 0 0 V -3.72769 H -7.66667" /><circle class="sym" cx="0" cy="0" r="3" /><text class="lab rgt" transform="translate(3 -7.0)">17</text></g><path class="edge" d="M 0 0 V -25.7317 H 0.0" /><circle class="sym" cx="0" cy="0" r="3" /><text class="lab lft" transform="translate(-3 -7.0)">20</text></g><path class="edge" d="M 0 0 V -47.6547 H -41.4479" /><circle class="sym" cx="0" cy="0" r="3" /><text class="lab rgt" transform="translate(3 -7.0)">28</text></g><g class="a33 c1 node n32 p0" transform="translate(-41.4479 7.20737)"><g class="a32 c2 node n31 p0" transform="translate(0.0 4.58721)"><g class="a31 c1 node n29 p0" transform="translate(-35.9375 32.8642)"><g class="a29 c2 node n21 p0" transform="translate(0.0 25.2771)"><g class="a21 c2 node n15 p0" transform="translate(11.5 10.685)"><g class="a15 leaf node n6 p0 sample" transform="translate(7.66667 13.9792)"><path class="edge" d="M 0 0 V -13.9792 H -7.66667" /><rect class="sym" height="6" width="6" x="-3" y="-3" /><text class="lab" transform="translate(0 11)">6</text></g><g class="a15 c1 node n14 p0" transform="translate(-7.66667 7.30461)"><g class="a14 leaf node n1 p0 sample" transform="translate(0.0 6.67461)"><path class="edge" d="M 0 0 V -6.67461 H 0.0" /><rect class="sym" height="6" width="6" x="-3" y="-3" /><text class="lab" transform="translate(0 11)">1</text></g><path class="edge" d="M 0 0 V -7.30461 H 7.66667" /><circle class="sym" cx="0" cy="0" r="3" /><text class="lab lft" transform="translate(-3 -7.0)">14</text></g><path class="edge" d="M 0 0 V -10.685 H -11.5" /><circle class="sym" cx="0" cy="0" r="3" /><text class="lab rgt" transform="translate(3 -7.0)">15</text></g><g class="a21 c1 node n19 p0" transform="translate(-11.5 4.73251)"><g class="a19 leaf node n0 p0 sample" transform="translate(0.0 19.9317)"><path class="edge" d="M 0 0 V -19.9317 H 0.0" /><rect class="sym" height="6" width="6" x="-3" y="-3" /><text class="lab" transform="translate(0 11)">0</text></g><path class="edge" d="M 0 0 V -4.73251 H 11.5" /><circle class="sym" cx="0" cy="0" r="3" /><text class="lab lft" transform="translate(-3 -7.0)">19</text></g><path class="edge" d="M 0 0 V -25.2771 H 0.0" /><circle class="sym" cx="0" cy="0" r="3" /><text class="lab lft" transform="translate(-3 -7.0)">21</text></g><path class="edge" d="M 0 0 V -32.8642 H 35.9375" /><circle class="sym" cx="0" cy="0" r="3" /><text class="lab lft" transform="translate(-3 -7.0)">29</text></g><g class="a31 c2 node n30 p0" transform="translate(35.9375 14.0209)"><g class="a30 leaf node n4 p0 sample" transform="translate(23.9583 68.7845)"><path class="edge" d="M 0 0 V -68.7845 H -23.9583" /><rect class="sym" height="6" width="6" x="-3" y="-3" /><text class="lab" transform="translate(0 11)">4</text></g><g class="a30 c1 node n26 p0" transform="translate(-23.9583 23.8355)"><g class="a26 c2 node n23 p0" transform="translate(0.0 11.2009)"><g class="a23 c1 node n12 p0" transform="translate(-13.4167 28.4431)"><g class="a12 leaf node n2 p0 sample" transform="translate(0.0 5.30495)"><path class="edge" d="M 0 0 V -5.30495 H 0.0" /><rect class="sym" height="6" width="6" x="-3" y="-3" /><text class="lab" transform="translate(0 11)">2</text></g><path class="edge" d="M 0 0 V -28.4431 H 13.4167" /><circle class="sym" cx="0" cy="0" r="3" /><text class="lab lft" transform="translate(-3 -7.0)">12</text></g><g class="a23 c1 node n22 p0" transform="translate(13.4167 0.749683)"><g class="a22 c2 node n11 p0" transform="translate(0.0 31.3759)"><g class="a11 leaf node n3 p0 sample" transform="translate(-11.5 1.62248)"><path class="edge" d="M 0 0 V -1.62248 H 11.5" /><rect class="sym" height="6" width="6" x="-3" y="-3" /><text class="lab" transform="translate(0 11)">3</text></g><g class="a11 c2 node n10 p0" transform="translate(11.5 1.41134)"><g class="a10 leaf node n7 p0 sample" transform="translate(-7.66667 0.211147)"><path class="edge" d="M 0 0 V -0.211147 H 7.66667" /><rect class="sym" height="6" width="6" x="-3" y="-3" /><text class="lab" transform="translate(0 11)">7</text></g><g class="a10 leaf node n9 p0 sample" transform="translate(7.66667 0.211147)"><path class="edge" d="M 0 0 V -0.211147 H -7.66667" /><rect class="sym" height="6" width="6" x="-3" y="-3" /><text class="lab" transform="translate(0 11)">9</text></g><path class="edge" d="M 0 0 V -1.41134 H -11.5" /><circle class="sym" cx="0" cy="0" r="3" /><text class="lab rgt" transform="translate(3 -7.0)">10</text></g><path class="edge" d="M 0 0 V -31.3759 H 0.0" /><circle class="sym" cx="0" cy="0" r="3" /><text class="lab lft" transform="translate(-3 -7.0)">11</text></g><path class="edge" d="M 0 0 V -0.749683 H -13.4167" /><circle class="sym" cx="0" cy="0" r="3" /><text class="lab rgt" transform="translate(3 -7.0)">22</text></g><path class="edge" d="M 0 0 V -11.2009 H 0.0" /><circle class="sym" cx="0" cy="0" r="3" /><text class="lab lft" transform="translate(-3 -7.0)">23</text></g><path class="edge" d="M 0 0 V -23.8355 H 23.9583" /><circle class="sym" cx="0" cy="0" r="3" /><text class="lab lft" transform="translate(-3 -7.0)">26</text></g><path class="edge" d="M 0 0 V -14.0209 H -35.9375" /><circle class="sym" cx="0" cy="0" r="3" /><text class="lab rgt" transform="translate(3 -7.0)">30</text></g><path class="edge" d="M 0 0 V -4.58721 H 0.0" /><circle class="sym" cx="0" cy="0" r="3" /><text class="lab lft" transform="translate(-3 -7.0)">31</text></g><path class="edge" d="M 0 0 V -7.20737 H 41.4479" /><circle class="sym" cx="0" cy="0" r="3" /><text class="lab lft" transform="translate(-3 -7.0)">32</text></g><circle class="sym" cx="0" cy="0" r="3" /><text class="lab" transform="translate(0 -11)">33</text></g></g></g><g class="tree t4" transform="translate(793.333 0)"><g class="plotbox"><g class="c2 node n33 p0 root" transform="translate(119.667 26.8)"><g class="a33 c1 node n28 p0" transform="translate(38.3333 47.6547)"><g class="a28 c2 node n20 p0" transform="translate(0.0 25.7317)"><g class="a20 leaf node n5 p0 sample" transform="translate(-7.66667 21.2136)"><path class="edge" d="M 0 0 V -21.2136 H 7.66667" /><rect class="sym" height="6" width="6" x="-3" y="-3" /><text class="lab" transform="translate(0 11)">5</text></g><g class="a20 c1 node n17 p0" transform="translate(7.66667 3.72769)"><g class="a17 leaf node n8 p0 sample" transform="translate(0.0 17.4859)"><path class="edge" d="M 0 0 V -17.4859 H 0.0" /><rect class="sym" height="6" width="6" x="-3" y="-3" /><text class="lab" transform="translate(0 11)">8</text></g><path class="edge" d="M 0 0 V -3.72769 H -7.66667" /><circle class="sym" cx="0" cy="0" r="3" /><text class="lab rgt" transform="translate(3 -7.0)">17</text></g><path class="edge" d="M 0 0 V -25.7317 H 0.0" /><circle class="sym" cx="0" cy="0" r="3" /><text class="lab lft" transform="translate(-3 -7.0)">20</text></g><path class="edge" d="M 0 0 V -47.6547 H -38.3333" /><circle class="sym" cx="0" cy="0" r="3" /><text class="lab rgt" transform="translate(3 -7.0)">28</text></g><g class="a33 c1 node n32 p0" transform="translate(-38.3333 7.20737)"><g class="a32 c2 node n31 p0" transform="translate(0.0 4.58721)"><g class="a31 c1 node n29 p0" transform="translate(-36.4167 32.8642)"><g class="a29 c2 node n21 p0" transform="translate(0.0 25.2771)"><g class="a21 c2 node n15 p0" transform="translate(17.25 10.685)"><g class="a15 leaf node n6 p0 sample" transform="translate(11.5 13.9792)"><path class="edge" d="M 0 0 V -13.9792 H -11.5" /><rect class="sym" height="6" width="6" x="-3" y="-3" /><text class="lab" transform="translate(0 11)">6</text></g><g class="a15 c2 node n14 p0" transform="translate(-11.5 7.30461)"><g class="a14 leaf node n1 p0 sample" transform="translate(-7.66667 6.67461)"><path class="edge" d="M 0 0 V -6.67461 H 7.66667" /><rect class="sym" height="6" width="6" x="-3" y="-3" /><text class="lab" transform="translate(0 11)">1</text></g><g class="a14 c1 node n13 p0" transform="translate(7.66667 1.36966)"><g class="a13 leaf node n2 p0 sample" transform="translate(0.0 5.30495)"><path class="edge" d="M 0 0 V -5.30495 H 0.0" /><rect class="sym" height="6" width="6" x="-3" y="-3" /><text class="lab" transform="translate(0 11)">2</text></g><path class="edge" d="M 0 0 V -1.36966 H -7.66667" /><circle class="sym" cx="0" cy="0" r="3" /><text class="lab rgt" transform="translate(3 -7.0)">13</text></g><path class="edge" d="M 0 0 V -7.30461 H 11.5" /><circle class="sym" cx="0" cy="0" r="3" /><text class="lab lft" transform="translate(-3 -7.0)">14</text></g><path class="edge" d="M 0 0 V -10.685 H -17.25" /><circle class="sym" cx="0" cy="0" r="3" /><text class="lab rgt" transform="translate(3 -7.0)">15</text></g><g class="a21 c1 node n19 p0" transform="translate(-17.25 4.73251)"><g class="a19 leaf node n0 p0 sample" transform="translate(0.0 19.9317)"><path class="edge" d="M 0 0 V -19.9317 H 0.0" /><rect class="sym" height="6" width="6" x="-3" y="-3" /><text class="lab" transform="translate(0 11)">0</text></g><path class="edge" d="M 0 0 V -4.73251 H 17.25" /><circle class="sym" cx="0" cy="0" r="3" /><text class="lab lft" transform="translate(-3 -7.0)">19</text></g><path class="edge" d="M 0 0 V -25.2771 H 0.0" /><circle class="sym" cx="0" cy="0" r="3" /><text class="lab lft" transform="translate(-3 -7.0)">21</text></g><path class="edge" d="M 0 0 V -32.8642 H 36.4167" /><circle class="sym" cx="0" cy="0" r="3" /><text class="lab lft" transform="translate(-3 -7.0)">29</text></g><g class="a31 c2 node n30 p0" transform="translate(36.4167 14.0209)"><g class="a30 leaf node n4 p0 sample" transform="translate(17.25 68.7845)"><path class="edge" d="M 0 0 V -68.7845 H -17.25" /><rect class="sym" height="6" width="6" x="-3" y="-3" /><text class="lab" transform="translate(0 11)">4</text></g><g class="a30 c1 node n26 p0" transform="translate(-17.25 23.8355)"><g class="a26 c1 node n23 p0" transform="translate(0.0 11.2009)"><g class="a23 c1 node n22 p0" transform="translate(0.0 0.749683)"><g class="a22 c2 node n11 p0" transform="translate(0.0 31.3759)"><g class="a11 leaf node n3 p0 sample" transform="translate(-11.5 1.62248)"><path class="edge" d="M 0 0 V -1.62248 H 11.5" /><rect class="sym" height="6" width="6" x="-3" y="-3" /><text class="lab" transform="translate(0 11)">3</text></g><g class="a11 c2 node n10 p0" transform="translate(11.5 1.41134)"><g class="a10 leaf node n7 p0 sample" transform="translate(-7.66667 0.211147)"><path class="edge" d="M 0 0 V -0.211147 H 7.66667" /><rect class="sym" height="6" width="6" x="-3" y="-3" /><text class="lab" transform="translate(0 11)">7</text></g><g class="a10 leaf node n9 p0 sample" transform="translate(7.66667 0.211147)"><path class="edge" d="M 0 0 V -0.211147 H -7.66667" /><rect class="sym" height="6" width="6" x="-3" y="-3" /><text class="lab" transform="translate(0 11)">9</text></g><path class="edge" d="M 0 0 V -1.41134 H -11.5" /><circle class="sym" cx="0" cy="0" r="3" /><text class="lab rgt" transform="translate(3 -7.0)">10</text></g><path class="edge" d="M 0 0 V -31.3759 H 0.0" /><circle class="sym" cx="0" cy="0" r="3" /><text class="lab lft" transform="translate(-3 -7.0)">11</text></g><path class="edge" d="M 0 0 V -0.749683 H 0.0" /><circle class="sym" cx="0" cy="0" r="3" /><text class="lab lft" transform="translate(-3 -7.0)">22</text></g><path class="edge" d="M 0 0 V -11.2009 H 0.0" /><circle class="sym" cx="0" cy="0" r="3" /><text class="lab lft" transform="translate(-3 -7.0)">23</text></g><path class="edge" d="M 0 0 V -23.8355 H 17.25" /><circle class="sym" cx="0" cy="0" r="3" /><text class="lab lft" transform="translate(-3 -7.0)">26</text></g><path class="edge" d="M 0 0 V -14.0209 H -36.4167" /><circle class="sym" cx="0" cy="0" r="3" /><text class="lab rgt" transform="translate(3 -7.0)">30</text></g><path class="edge" d="M 0 0 V -4.58721 H 0.0" /><circle class="sym" cx="0" cy="0" r="3" /><text class="lab lft" transform="translate(-3 -7.0)">31</text></g><path class="edge" d="M 0 0 V -7.20737 H 38.3333" /><circle class="sym" cx="0" cy="0" r="3" /><text class="lab lft" transform="translate(-3 -7.0)">32</text></g><circle class="sym" cx="0" cy="0" r="3" /><text class="lab" transform="translate(0 -11)">33</text></g></g></g><g class="tree t5" transform="translate(986.667 0)"><g class="plotbox"><g class="c2 node n33 p0 root" transform="translate(101.938 26.8)"><g class="a33 c2 node n28 p0" transform="translate(34.9792 47.6547)"><g class="a28 c2 node n20 p0" transform="translate(21.0833 25.7317)"><g class="a20 leaf node n5 p0 sample" transform="translate(-7.66667 21.2136)"><path class="edge" d="M 0 0 V -21.2136 H 7.66667" /><rect class="sym" height="6" width="6" x="-3" y="-3" /><text class="lab" transform="translate(0 11)">5</text></g><g class="a20 c1 node n17 p0" transform="translate(7.66667 3.72769)"><g class="a17 leaf node n8 p0 sample" transform="translate(0.0 17.4859)"><path class="edge" d="M 0 0 V -17.4859 H 0.0" /><rect class="sym" height="6" width="6" x="-3" y="-3" /><text class="lab" transform="translate(0 11)">8</text></g><path class="edge" d="M 0 0 V -3.72769 H -7.66667" /><circle class="sym" cx="0" cy="0" r="3" /><text class="lab rgt" transform="translate(3 -7.0)">17</text></g><path class="edge" d="M 0 0 V -25.7317 H -21.0833" /><circle class="sym" cx="0" cy="0" r="3" /><text class="lab rgt" transform="translate(3 -7.0)">20</text></g><g class="a28 c1 node n27 p0" transform="translate(-21.0833 1.99635)"><g class="a27 c1 node n23 p0" transform="translate(0.0 11.2009)"><g class="a23 c1 node n22 p0" transform="translate(0.0 0.749683)"><g class="a22 c2 node n11 p0" transform="translate(0.0 31.3759)"><g class="a11 leaf node n3 p0 sample" transform="translate(-11.5 1.62248)"><path class="edge" d="M 0 0 V -1.62248 H 11.5" /><rect class="sym" height="6" width="6" x="-3" y="-3" /><text class="lab" transform="translate(0 11)">3</text></g><g class="a11 c2 node n10 p0" transform="translate(11.5 1.41134)"><g class="a10 leaf node n7 p0 sample" transform="translate(-7.66667 0.211147)"><path class="edge" d="M 0 0 V -0.211147 H 7.66667" /><rect class="sym" height="6" width="6" x="-3" y="-3" /><text class="lab" transform="translate(0 11)">7</text></g><g class="a10 leaf node n9 p0 sample" transform="translate(7.66667 0.211147)"><path class="edge" d="M 0 0 V -0.211147 H -7.66667" /><rect class="sym" height="6" width="6" x="-3" y="-3" /><text class="lab" transform="translate(0 11)">9</text></g><path class="edge" d="M 0 0 V -1.41134 H -11.5" /><circle class="sym" cx="0" cy="0" r="3" /><text class="lab rgt" transform="translate(3 -7.0)">10</text></g><path class="edge" d="M 0 0 V -31.3759 H 0.0" /><circle class="sym" cx="0" cy="0" r="3" /><text class="lab lft" transform="translate(-3 -7.0)">11</text></g><path class="edge" d="M 0 0 V -0.749683 H 0.0" /><circle class="sym" cx="0" cy="0" r="3" /><text class="lab lft" transform="translate(-3 -7.0)">22</text></g><path class="edge" d="M 0 0 V -11.2009 H 0.0" /><circle class="sym" cx="0" cy="0" r="3" /><text class="lab lft" transform="translate(-3 -7.0)">23</text></g><path class="edge" d="M 0 0 V -1.99635 H 21.0833" /><circle class="sym" cx="0" cy="0" r="3" /><text class="lab lft" transform="translate(-3 -7.0)">27</text></g><path class="edge" d="M 0 0 V -47.6547 H -34.9792" /><circle class="sym" cx="0" cy="0" r="3" /><text class="lab rgt" transform="translate(3 -7.0)">28</text></g><g class="a33 c1 node n32 p0" transform="translate(-34.9792 7.20737)"><g class="a32 c2 node n31 p0" transform="translate(0.0 4.58721)"><g class="a31 c1 node n29 p0" transform="translate(-22.0417 32.8642)"><g class="a29 c2 node n21 p0" transform="translate(0.0 25.2771)"><g class="a21 c2 node n15 p0" transform="translate(17.25 10.685)"><g class="a15 leaf node n6 p0 sample" transform="translate(11.5 13.9792)"><path class="edge" d="M 0 0 V -13.9792 H -11.5" /><rect class="sym" height="6" width="6" x="-3" y="-3" /><text class="lab" transform="translate(0 11)">6</text></g><g class="a15 c2 node n14 p0" transform="translate(-11.5 7.30461)"><g class="a14 leaf node n1 p0 sample" transform="translate(-7.66667 6.67461)"><path class="edge" d="M 0 0 V -6.67461 H 7.66667" /><rect class="sym" height="6" width="6" x="-3" y="-3" /><text class="lab" transform="translate(0 11)">1</text></g><g class="a14 c1 node n13 p0" transform="translate(7.66667 1.36966)"><g class="a13 leaf node n2 p0 sample" transform="translate(0.0 5.30495)"><path class="edge" d="M 0 0 V -5.30495 H 0.0" /><rect class="sym" height="6" width="6" x="-3" y="-3" /><text class="lab" transform="translate(0 11)">2</text></g><path class="edge" d="M 0 0 V -1.36966 H -7.66667" /><circle class="sym" cx="0" cy="0" r="3" /><text class="lab rgt" transform="translate(3 -7.0)">13</text></g><path class="edge" d="M 0 0 V -7.30461 H 11.5" /><circle class="sym" cx="0" cy="0" r="3" /><text class="lab lft" transform="translate(-3 -7.0)">14</text></g><path class="edge" d="M 0 0 V -10.685 H -17.25" /><circle class="sym" cx="0" cy="0" r="3" /><text class="lab rgt" transform="translate(3 -7.0)">15</text></g><g class="a21 c1 node n19 p0" transform="translate(-17.25 4.73251)"><g class="a19 leaf node n0 p0 sample" transform="translate(0.0 19.9317)"><path class="edge" d="M 0 0 V -19.9317 H 0.0" /><rect class="sym" height="6" width="6" x="-3" y="-3" /><text class="lab" transform="translate(0 11)">0</text></g><path class="edge" d="M 0 0 V -4.73251 H 17.25" /><circle class="sym" cx="0" cy="0" r="3" /><text class="lab lft" transform="translate(-3 -7.0)">19</text></g><path class="edge" d="M 0 0 V -25.2771 H 0.0" /><circle class="sym" cx="0" cy="0" r="3" /><text class="lab lft" transform="translate(-3 -7.0)">21</text></g><path class="edge" d="M 0 0 V -32.8642 H 22.0417" /><circle class="sym" cx="0" cy="0" r="3" /><text class="lab lft" transform="translate(-3 -7.0)">29</text></g><g class="a31 c1 node n30 p0" transform="translate(22.0417 14.0209)"><g class="a30 leaf node n4 p0 sample" transform="translate(0.0 68.7845)"><path class="edge" d="M 0 0 V -68.7845 H 0.0" /><rect class="sym" height="6" width="6" x="-3" y="-3" /><text class="lab" transform="translate(0 11)">4</text></g><path class="edge" d="M 0 0 V -14.0209 H -22.0417" /><circle class="sym" cx="0" cy="0" r="3" /><text class="lab rgt" transform="translate(3 -7.0)">30</text></g><path class="edge" d="M 0 0 V -4.58721 H 0.0" /><circle class="sym" cx="0" cy="0" r="3" /><text class="lab lft" transform="translate(-3 -7.0)">31</text></g><path class="edge" d="M 0 0 V -7.20737 H 34.9792" /><circle class="sym" cx="0" cy="0" r="3" /><text class="lab lft" transform="translate(-3 -7.0)">32</text></g><circle class="sym" cx="0" cy="0" r="3" /><text class="lab" transform="translate(0 -11)">33</text></g></g></g></g></g></svg>
