<svg baseProfile="full" height="200" version="1.1" width="1000" xmlns="http://www.w3.org/2000/svg" xmlns:ev="http://www.w3.org/2001/xml-events" xmlns:xlink="http://www.w3.org/1999/xlink"><defs><style type="text/css"><![CDATA[.background path {fill: #808080; fill-opacity: 0}.background path:nth-child(odd) {fill-opacity: .1}.axes {font-size: 14px}.x-axis .tick .lab {font-weight: bold; dominant-baseline: hanging}.axes, .tree {font-size: 14px; text-anchor: middle}.axes line, .edge {stroke: black; fill: none}.y-axis .grid {stroke: #FAFAFA}.node > .sym {fill: black; stroke: none}.site > .sym {stroke: black}.mut text {fill: red; font-style: italic}.mut.extra text {fill: hotpink}.mut line {fill: none; stroke: none}.mut .sym {fill: none; stroke: red}.mut.extra .sym {stroke: hotpink}.node .mut .sym {stroke-width: 1.5px}.tree text, .tree-sequence text {dominant-baseline: central}.plotbox .lab.lft {text-anchor: end}.plotbox .lab.rgt {text-anchor: start}]]></style></defs><g class="tree-sequence"><g class="background"><path d="M20,0 l192,0 l0,138.2 l-139.997,25 l0,5 l-52.0032,0 l0,-5 l0,-25 l0,-138.2z" /><path d="M212,0 l192,0 l0,138.2 l-242.165,25 l0,5 l-89.8313,0 l0,-5 l139.997,-25 l0,-138.2z" /><path d="M404,0 l192,0 l0,138.2 l-309.154,25 l0,5 l-125.011,0 l0,-5 l242.165,-25 l0,-138.2z" /><path d="M596,0 l192,0 l0,138.2 l32.2426,25 l0,5 l-533.397,0 l0,-5 l309.154,-25 l0,-138.2z" /><path d="M788,0 l192,0 l0,138.2 l0,25 l0,5 l-159.757,0 l0,-5 l-32.2426,-25 l0,-138.2z" /></g><g class="axes"><g class="x-axis"><g transform="translate(500 200)"><text class="lab" text-anchor="middle" transform="translate(0 -11)">Genome position</text></g><line x1="20" x2="980" y1="163.2" y2="163.2" /><g class="ticks"><g class="tick" transform="translate(20 163.2)"><line x1="0" x2="0" y1="0" y2="5" /><g transform="translate(0 6)"><text class="lab">0.00</text></g></g><g class="tick" transform="translate(72.0032 163.2)"><line x1="0" x2="0" y1="0" y2="5" /><g transform="translate(0 6)"><text class="lab">54.17</text></g></g><g class="tick" transform="translate(161.835 163.2)"><line x1="0" x2="0" y1="0" y2="5" /><g transform="translate(0 6)"><text class="lab">147.74</text></g></g><g class="tick" transform="translate(286.846 163.2)"><line x1="0" x2="0" y1="0" y2="5" /><g transform="translate(0 6)"><text class="lab">277.96</text></g></g><g class="tick" transform="translate(820.243 163.2)"><line x1="0" x2="0" y1="0" y2="5" /><g transform="translate(0 6)"><text class="lab">833.59</text></g></g><g class="tick" transform="translate(980 163.2)"><line x1="0" x2="0" y1="0" y2="5" /><g transform="translate(0 6)"><text class="lab">1000.00</text></g></g></g></g></g><g class="plotbox trees"><g class="tree t0" transform="translate(20 0)"><g class="plotbox"><g class="c2 node n30 p0 root" transform="translate(119.987 26.8)"><g class="a30 c1 node n22 p0" transform="translate(36.8125 71.4713)"><g class="a22 c1 node n17 p0" transform="translate(0.0 13.1022)"><g class="a17 c2 node n13 p0" transform="translate(0.0 6.28313)"><g class="a13 leaf node n8 p0 sample" transform="translate(-7.6 3.74329)"><path class="edge" d="M 0 0 V -3.74329 H 7.6" /><rect class="sym" height="6" width="6" x="-3" y="-3" /><text class="lab" transform="translate(0 11)">8</text></g><g class="a13 leaf node n9 p0 sample" transform="translate(7.6 3.74329)"><path class="edge" d="M 0 0 V -3.74329 H -7.6" /><rect class="sym" height="6" width="6" x="-3" y="-3" /><text class="lab" transform="translate(0 11)">9</text></g><path class="edge" d="M 0 0 V -6.28313 H 0.0" /><circle class="sym" cx="0" cy="0" r="3" /><text class="lab lft" transform="translate(-3 -7.0)">13</text></g><path class="edge" d="M 0 0 V -13.1022 H 0.0" /><circle class="sym" cx="0" cy="0" r="3" /><text class="lab lft" transform="translate(-3 -7.0)">17</text></g><path class="edge" d="M 0 0 V -71.4713 H -36.8125" /><circle class="sym" cx="0" cy="0" r="3" /><text class="lab rgt" transform="translate(3 -7.0)">22</text></g><g class="a30 c2 node n29 p0" transform="translate(-36.8125 26.2958)"><g class="a29 c1 node n27 p0" transform="translate(-36.575 37.0142)"><g class="a27 c2 node n12 p0" transform="translate(0.0 28.7844)"><g class="a12 leaf node n3 p0 sample" transform="translate(11.4 2.50552)"><path class="edge" d="M 0 0 V -2.50552 H -11.4" /><rect class="sym" height="6" width="6" x="-3" y="-3" /><text class="lab" transform="translate(0 11)">3</text></g><g class="a12 c2 node n10 p0" transform="translate(-11.4 0.442866)"><g class="a10 leaf node n0 p0 sample" transform="translate(-7.6 2.06265)"><path class="edge" d="M 0 0 V -2.06265 H 7.6" /><rect class="sym" height="6" width="6" x="-3" y="-3" /><text class="lab" transform="translate(0 11)">0</text></g><g class="a10 leaf node n7 p0 sample" transform="translate(7.6 2.06265)"><path class="edge" d="M 0 0 V -2.06265 H -7.6" /><rect class="sym" height="6" width="6" x="-3" y="-3" /><text class="lab" transform="translate(0 11)">7</text></g><path class="edge" d="M 0 0 V -0.442866 H 11.4" /><circle class="sym" cx="0" cy="0" r="3" /><text class="lab lft" transform="translate(-3 -7.0)">10</text></g><path class="edge" d="M 0 0 V -28.7844 H 0.0" /><circle class="sym" cx="0" cy="0" r="3" /><text class="lab lft" transform="translate(-3 -7.0)">12</text></g><path class="edge" d="M 0 0 V -37.0142 H 36.575" /><circle class="sym" cx="0" cy="0" r="3" /><text class="lab lft" transform="translate(-3 -7.0)">27</text></g><g class="a29 c1 node n28 p0" transform="translate(36.575 0.132945)"><g class="a28 c1 node n23 p0" transform="translate(0.0 43.5145)"><g class="a23 c2 node n21 p0" transform="translate(0.0 6.39485)"><g class="a21 leaf node n4 p0 sample" transform="translate(14.25 18.2619)"><path class="edge" d="M 0 0 V -18.2619 H -14.25" /><rect class="sym" height="6" width="6" x="-3" y="-3" /><text class="lab" transform="translate(0 11)">4</text></g><g class="a21 c2 node n20 p0" transform="translate(-14.25 0.987305)"><g class="a20 c1 node n15 p0" transform="translate(13.3 7.7386)"><g class="a15 leaf node n6 p0 sample" transform="translate(0.0 9.53602)"><path class="edge" d="M 0 0 V -9.53602 H 0.0" /><rect class="sym" height="6" width="6" x="-3" y="-3" /><text class="lab" transform="translate(0 11)">6</text></g><path class="edge" d="M 0 0 V -7.7386 H -13.3" /><circle class="sym" cx="0" cy="0" r="3" /><text class="lab rgt" transform="translate(3 -7.0)">15</text></g><g class="a20 c1 node n18 p0" transform="translate(-13.3 1.77339)"><g class="a18 c2 node n14 p0" transform="translate(0.0 9.02837)"><g class="a14 leaf node n2 p0 sample" transform="translate(11.4 6.47285)"><path class="edge" d="M 0 0 V -6.47285 H -11.4" /><rect class="sym" height="6" width="6" x="-3" y="-3" /><text class="lab" transform="translate(0 11)">2</text></g><g class="a14 c2 node n11 p0" transform="translate(-11.4 3.98666)"><g class="a11 leaf node n1 p0 sample" transform="translate(-7.6 2.48619)"><path class="edge" d="M 0 0 V -2.48619 H 7.6" /><rect class="sym" height="6" width="6" x="-3" y="-3" /><text class="lab" transform="translate(0 11)">1</text></g><g class="a11 leaf node n5 p0 sample" transform="translate(7.6 2.48619)"><path class="edge" d="M 0 0 V -2.48619 H -7.6" /><rect class="sym" height="6" width="6" x="-3" y="-3" /><text class="lab" transform="translate(0 11)">5</text></g><path class="edge" d="M 0 0 V -3.98666 H 11.4" /><circle class="sym" cx="0" cy="0" r="3" /><text class="lab lft" transform="translate(-3 -7.0)">11</text></g><path class="edge" d="M 0 0 V -9.02837 H 0.0" /><circle class="sym" cx="0" cy="0" r="3" /><text class="lab lft" transform="translate(-3 -7.0)">14</text></g><path class="edge" d="M 0 0 V -1.77339 H 13.3" /><circle class="sym" cx="0" cy="0" r="3" /><text class="lab lft" transform="translate(-3 -7.0)">18</text></g><path class="edge" d="M 0 0 V -0.987305 H 14.25" /><circle class="sym" cx="0" cy="0" r="3" /><text class="lab lft" transform="translate(-3 -7.0)">20</text></g><path class="edge" d="M 0 0 V -6.39485 H 0.0" /><circle class="sym" cx="0" cy="0" r="3" /><text class="lab lft" transform="translate(-3 -7.0)">21</text></g><path class="edge" d="M 0 0 V -43.5145 H 0.0" /><circle class="sym" cx="0" cy="0" r="3" /><text class="lab lft" transform="translate(-3 -7.0)">23</text></g><path class="edge" d="M 0 0 V -0.132945 H -36.575" /><circle class="sym" cx="0" cy="0" r="3" /><text class="lab rgt" transform="translate(3 -7.0)">28</text></g><path class="edge" d="M 0 0 V -26.2958 H 36.8125" /><circle class="sym" cx="0" cy="0" r="3" /><text class="lab lft" transform="translate(-3 -7.0)">29</text></g><circle class="sym" cx="0" cy="0" r="3" /><text class="lab" transform="translate(0 -11)">30</text></g></g></g><g class="tree t1" transform="translate(212 0)"><g class="plotbox"><g class="c2 node n30 p0 root" transform="translate(101.7 26.8)"><g class="a30 c2 node n22 p0" transform="translate(38 71.4713)"><g class="a22 c1 node n17 p0" transform="translate(17.1 13.1022)"><g class="a17 c2 node n13 p0" transform="translate(0.0 6.28313)"><g class="a13 leaf node n8 p0 sample" transform="translate(-7.6 3.74329)"><path class="edge" d="M 0 0 V -3.74329 H 7.6" /><rect class="sym" height="6" width="6" x="-3" y="-3" /><text class="lab" transform="translate(0 11)">8</text></g><g class="a13 leaf node n9 p0 sample" transform="translate(7.6 3.74329)"><path class="edge" d="M 0 0 V -3.74329 H -7.6" /><rect class="sym" height="6" width="6" x="-3" y="-3" /><text class="lab" transform="translate(0 11)">9</text></g><path class="edge" d="M 0 0 V -6.28313 H 0.0" /><circle class="sym" cx="0" cy="0" r="3" /><text class="lab lft" transform="translate(-3 -7.0)">13</text></g><path class="edge" d="M 0 0 V -13.1022 H -17.1" /><circle class="sym" cx="0" cy="0" r="3" /><text class="lab rgt" transform="translate(3 -7.0)">17</text></g><g class="a22 c1 node n19 p0" transform="translate(-17.1 7.62744)"><g class="a19 c2 node n14 p0" transform="translate(0.0 9.02837)"><g class="a14 leaf node n2 p0 sample" transform="translate(11.4 6.47285)"><path class="edge" d="M 0 0 V -6.47285 H -11.4" /><rect class="sym" height="6" width="6" x="-3" y="-3" /><text class="lab" transform="translate(0 11)">2</text></g><g class="a14 c2 node n11 p0" transform="translate(-11.4 3.98666)"><g class="a11 leaf node n1 p0 sample" transform="translate(-7.6 2.48619)"><path class="edge" d="M 0 0 V -2.48619 H 7.6" /><rect class="sym" height="6" width="6" x="-3" y="-3" /><text class="lab" transform="translate(0 11)">1</text></g><g class="a11 leaf node n5 p0 sample" transform="translate(7.6 2.48619)"><path class="edge" d="M 0 0 V -2.48619 H -7.6" /><rect class="sym" height="6" width="6" x="-3" y="-3" /><text class="lab" transform="translate(0 11)">5</text></g><path class="edge" d="M 0 0 V -3.98666 H 11.4" /><circle class="sym" cx="0" cy="0" r="3" /><text class="lab lft" transform="translate(-3 -7.0)">11</text></g><path class="edge" d="M 0 0 V -9.02837 H 0.0" /><circle class="sym" cx="0" cy="0" r="3" /><text class="lab lft" transform="translate(-3 -7.0)">14</text></g><path class="edge" d="M 0 0 V -7.62744 H 17.1" /><circle class="sym" cx="0" cy="0" r="3" /><text class="lab lft" transform="translate(-3 -7.0)">19</text></g><path class="edge" d="M 0 0 V -71.4713 H -38" /><circle class="sym" cx="0" cy="0" r="3" /><text class="lab rgt" transform="translate(3 -7.0)">22</text></g><g class="a30 c2 node n29 p0" transform="translate(-38 26.2958)"><g class="a29 c1 node n27 p0" transform="translate(-17.1 37.0142)"><g class="a27 c2 node n12 p0" transform="translate(0.0 28.7844)"><g class="a12 leaf node n3 p0 sample" transform="translate(11.4 2.50552)"><path class="edge" d="M 0 0 V -2.50552 H -11.4" /><rect class="sym" height="6" width="6" x="-3" y="-3" /><text class="lab" transform="translate(0 11)">3</text></g><g class="a12 c2 node n10 p0" transform="translate(-11.4 0.442866)"><g class="a10 leaf node n0 p0 sample" transform="translate(-7.6 2.06265)"><path class="edge" d="M 0 0 V -2.06265 H 7.6" /><rect class="sym" height="6" width="6" x="-3" y="-3" /><text class="lab" transform="translate(0 11)">0</text></g><g class="a10 leaf node n7 p0 sample" transform="translate(7.6 2.06265)"><path class="edge" d="M 0 0 V -2.06265 H -7.6" /><rect class="sym" height="6" width="6" x="-3" y="-3" /><text class="lab" transform="translate(0 11)">7</text></g><path class="edge" d="M 0 0 V -0.442866 H 11.4" /><circle class="sym" cx="0" cy="0" r="3" /><text class="lab lft" transform="translate(-3 -7.0)">10</text></g><path class="edge" d="M 0 0 V -28.7844 H 0.0" /><circle class="sym" cx="0" cy="0" r="3" /><text class="lab lft" transform="translate(-3 -7.0)">12</text></g><path class="edge" d="M 0 0 V -37.0142 H 17.1" /><circle class="sym" cx="0" cy="0" r="3" /><text class="lab lft" transform="translate(-3 -7.0)">27</text></g><g class="a29 c1 node n28 p0" transform="translate(17.1 0.132945)"><g class="a28 c1 node n23 p0" transform="translate(0.0 43.5145)"><g class="a23 c2 node n21 p0" transform="translate(0.0 6.39485)"><g class="a21 leaf node n4 p0 sample" transform="translate(-7.6 18.2619)"><path class="edge" d="M 0 0 V -18.2619 H 7.6" /><rect class="sym" height="6" width="6" x="-3" y="-3" /><text class="lab" transform="translate(0 11)">4</text></g><g class="a21 c1 node n20 p0" transform="translate(7.6 0.987305)"><g class="a20 c1 node n15 p0" transform="translate(0.0 7.7386)"><g class="a15 leaf node n6 p0 sample" transform="translate(0.0 9.53602)"><path class="edge" d="M 0 0 V -9.53602 H 0.0" /><rect class="sym" height="6" width="6" x="-3" y="-3" /><text class="lab" transform="translate(0 11)">6</text></g><path class="edge" d="M 0 0 V -7.7386 H 0.0" /><circle class="sym" cx="0" cy="0" r="3" /><text class="lab lft" transform="translate(-3 -7.0)">15</text></g><path class="edge" d="M 0 0 V -0.987305 H -7.6" /><circle class="sym" cx="0" cy="0" r="3" /><text class="lab rgt" transform="translate(3 -7.0)">20</text></g><path class="edge" d="M 0 0 V -6.39485 H 0.0" /><circle class="sym" cx="0" cy="0" r="3" /><text class="lab lft" transform="translate(-3 -7.0)">21</text></g><path class="edge" d="M 0 0 V -43.5145 H 0.0" /><circle class="sym" cx="0" cy="0" r="3" /><text class="lab lft" transform="translate(-3 -7.0)">23</text></g><path class="edge" d="M 0 0 V -0.132945 H -17.1" /><circle class="sym" cx="0" cy="0" r="3" /><text class="lab rgt" transform="translate(3 -7.0)">28</text></g><path class="edge" d="M 0 0 V -26.2958 H 38" /><circle class="sym" cx="0" cy="0" r="3" /><text class="lab lft" transform="translate(-3 -7.0)">29</text></g><circle class="sym" cx="0" cy="0" r="3" /><text class="lab" transform="translate(0 -11)">30</text></g></g></g><g class="tree t2" transform="translate(404 0)"><g class="plotbox"><g class="c2 node n30 p0 root" transform="translate(101.7 26.8)"><g class="a30 c2 node n22 p0" transform="translate(38 71.4713)"><g class="a22 c1 node n17 p0" transform="translate(17.1 13.1022)"><g class="a17 c2 node n13 p0" transform="translate(0.0 6.28313)"><g class="a13 leaf node n8 p0 sample" transform="translate(-7.6 3.74329)"><path class="edge" d="M 0 0 V -3.74329 H 7.6" /><rect class="sym" height="6" width="6" x="-3" y="-3" /><text class="lab" transform="translate(0 11)">8</text></g><g class="a13 leaf node n9 p0 sample" transform="translate(7.6 3.74329)"><path class="edge" d="M 0 0 V -3.74329 H -7.6" /><rect class="sym" height="6" width="6" x="-3" y="-3" /><text class="lab" transform="translate(0 11)">9</text></g><path class="edge" d="M 0 0 V -6.28313 H 0.0" /><circle class="sym" cx="0" cy="0" r="3" /><text class="lab lft" transform="translate(-3 -7.0)">13</text></g><path class="edge" d="M 0 0 V -13.1022 H -17.1" /><circle class="sym" cx="0" cy="0" r="3" /><text class="lab rgt" transform="translate(3 -7.0)">17</text></g><g class="a22 c1 node n19 p0" transform="translate(-17.1 7.62744)"><g class="a19 c2 node n14 p0" transform="translate(0.0 9.02837)"><g class="a14 leaf node n2 p0 sample" transform="translate(11.4 6.47285)"><path class="edge" d="M 0 0 V -6.47285 H -11.4" /><rect class="sym" height="6" width="6" x="-3" y="-3" /><text class="lab" transform="translate(0 11)">2</text></g><g class="a14 c2 node n11 p0" transform="translate(-11.4 3.98666)"><g class="a11 leaf node n1 p0 sample" transform="translate(-7.6 2.48619)"><path class="edge" d="M 0 0 V -2.48619 H 7.6" /><rect class="sym" height="6" width="6" x="-3" y="-3" /><text class="lab" transform="translate(0 11)">1</text></g><g class="a11 leaf node n5 p0 sample" transform="translate(7.6 2.48619)"><path class="edge" d="M 0 0 V -2.48619 H -7.6" /><rect class="sym" height="6" width="6" x="-3" y="-3" /><text class="lab" transform="translate(0 11)">5</text></g><path class="edge" d="M 0 0 V -3.98666 H 11.4" /><circle class="sym" cx="0" cy="0" r="3" /><text class="lab lft" transform="translate(-3 -7.0)">11</text></g><path class="edge" d="M 0 0 V -9.02837 H 0.0" /><circle class="sym" cx="0" cy="0" r="3" /><text class="lab lft" transform="translate(-3 -7.0)">14</text></g><path class="edge" d="M 0 0 V -7.62744 H 17.1" /><circle class="sym" cx="0" cy="0" r="3" /><text class="lab lft" transform="translate(-3 -7.0)">19</text></g><path class="edge" d="M 0 0 V -71.4713 H -38" /><circle class="sym" cx="0" cy="0" r="3" /><text class="lab rgt" transform="translate(3 -7.0)">22</text></g><g class="a30 c2 node n29 p0" transform="translate(-38 26.2958)"><g class="a29 c1 node n27 p0" transform="translate(-17.1 37.0142)"><g class="a27 c2 node n12 p0" transform="translate(0.0 28.7844)"><g class="a12 leaf node n3 p0 sample" transform="translate(11.4 2.50552)"><path class="edge" d="M 0 0 V -2.50552 H -11.4" /><rect class="sym" height="6" width="6" x="-3" y="-3" /><text class="lab" transform="translate(0 11)">3</text></g><g class="a12 c2 node n10 p0" transform="translate(-11.4 0.442866)"><g class="a10 leaf node n0 p0 sample" transform="translate(-7.6 2.06265)"><path class="edge" d="M 0 0 V -2.06265 H 7.6" /><rect class="sym" height="6" width="6" x="-3" y="-3" /><text class="lab" transform="translate(0 11)">0</text></g><g class="a10 leaf node n7 p0 sample" transform="translate(7.6 2.06265)"><path class="edge" d="M 0 0 V -2.06265 H -7.6" /><rect class="sym" height="6" width="6" x="-3" y="-3" /><text class="lab" transform="translate(0 11)">7</text></g><path class="edge" d="M 0 0 V -0.442866 H 11.4" /><circle class="sym" cx="0" cy="0" r="3" /><text class="lab lft" transform="translate(-3 -7.0)">10</text></g><path class="edge" d="M 0 0 V -28.7844 H 0.0" /><circle class="sym" cx="0" cy="0" r="3" /><text class="lab lft" transform="translate(-3 -7.0)">12</text></g><path class="edge" d="M 0 0 V -37.0142 H 17.1" /><circle class="sym" cx="0" cy="0" r="3" /><text class="lab lft" transform="translate(-3 -7.0)">27</text></g><g class="a29 c1 node n28 p0" transform="translate(17.1 0.132945)"><g class="a28 c1 node n25 p0" transform="translate(0.0 39.9078)"><g class="a25 c1 node n24 p0" transform="translate(0.0 3.6067)"><g class="a24 c2 node n21 p0" transform="translate(0.0 6.39485)"><g class="a21 leaf node n4 p0 sample" transform="translate(-7.6 18.2619)"><path class="edge" d="M 0 0 V -18.2619 H 7.6" /><rect class="sym" height="6" width="6" x="-3" y="-3" /><text class="lab" transform="translate(0 11)">4</text></g><g class="a21 c1 node n20 p0" transform="translate(7.6 0.987305)"><g class="a20 c1 node n15 p0" transform="translate(0.0 7.7386)"><g class="a15 leaf node n6 p0 sample" transform="translate(0.0 9.53602)"><path class="edge" d="M 0 0 V -9.53602 H 0.0" /><rect class="sym" height="6" width="6" x="-3" y="-3" /><text class="lab" transform="translate(0 11)">6</text></g><path class="edge" d="M 0 0 V -7.7386 H 0.0" /><circle class="sym" cx="0" cy="0" r="3" /><text class="lab lft" transform="translate(-3 -7.0)">15</text></g><path class="edge" d="M 0 0 V -0.987305 H -7.6" /><circle class="sym" cx="0" cy="0" r="3" /><text class="lab rgt" transform="translate(3 -7.0)">20</text></g><path class="edge" d="M 0 0 V -6.39485 H 0.0" /><circle class="sym" cx="0" cy="0" r="3" /><text class="lab lft" transform="translate(-3 -7.0)">21</text></g><path class="edge" d="M 0 0 V -3.6067 H 0.0" /><circle class="sym" cx="0" cy="0" r="3" /><text class="lab lft" transform="translate(-3 -7.0)">24</text></g><path class="edge" d="M 0 0 V -39.9078 H 0.0" /><circle class="sym" cx="0" cy="0" r="3" /><text class="lab lft" transform="translate(-3 -7.0)">25</text></g><path class="edge" d="M 0 0 V -0.132945 H -17.1" /><circle class="sym" cx="0" cy="0" r="3" /><text class="lab rgt" transform="translate(3 -7.0)">28</text></g><path class="edge" d="M 0 0 V -26.2958 H 38" /><circle class="sym" cx="0" cy="0" r="3" /><text class="lab lft" transform="translate(-3 -7.0)">29</text></g><circle class="sym" cx="0" cy="0" r="3" /><text class="lab" transform="translate(0 -11)">30</text></g></g></g><g class="tree t3" transform="translate(596 0)"><g class="plotbox"><g class="c2 node n30 p0 root" transform="translate(93.15 26.8)"><g class="a30 c2 node n22 p0" transform="translate(33.25 71.4713)"><g class="a22 c2 node n17 p0" transform="translate(19 13.1022)"><g class="a17 c2 node n13 p0" transform="translate(11.4 6.28313)"><g class="a13 leaf node n8 p0 sample" transform="translate(-7.6 3.74329)"><path class="edge" d="M 0 0 V -3.74329 H 7.6" /><rect class="sym" height="6" width="6" x="-3" y="-3" /><text class="lab" transform="translate(0 11)">8</text></g><g class="a13 leaf node n9 p0 sample" transform="translate(7.6 3.74329)"><path class="edge" d="M 0 0 V -3.74329 H -7.6" /><rect class="sym" height="6" width="6" x="-3" y="-3" /><text class="lab" transform="translate(0 11)">9</text></g><path class="edge" d="M 0 0 V -6.28313 H -11.4" /><circle class="sym" cx="0" cy="0" r="3" /><text class="lab rgt" transform="translate(3 -7.0)">13</text></g><g class="a17 c1 node n16 p0" transform="translate(-11.4 0.490402)"><g class="a16 leaf node n6 p0 sample" transform="translate(0.0 9.53602)"><path class="edge" d="M 0 0 V -9.53602 H 0.0" /><rect class="sym" height="6" width="6" x="-3" y="-3" /><text class="lab" transform="translate(0 11)">6</text></g><path class="edge" d="M 0 0 V -0.490402 H 11.4" /><circle class="sym" cx="0" cy="0" r="3" /><text class="lab lft" transform="translate(-3 -7.0)">16</text></g><path class="edge" d="M 0 0 V -13.1022 H -19" /><circle class="sym" cx="0" cy="0" r="3" /><text class="lab rgt" transform="translate(3 -7.0)">17</text></g><g class="a22 c1 node n19 p0" transform="translate(-19 7.62744)"><g class="a19 c2 node n14 p0" transform="translate(0.0 9.02837)"><g class="a14 leaf node n2 p0 sample" transform="translate(11.4 6.47285)"><path class="edge" d="M 0 0 V -6.47285 H -11.4" /><rect class="sym" height="6" width="6" x="-3" y="-3" /><text class="lab" transform="translate(0 11)">2</text></g><g class="a14 c2 node n11 p0" transform="translate(-11.4 3.98666)"><g class="a11 leaf node n1 p0 sample" transform="translate(-7.6 2.48619)"><path class="edge" d="M 0 0 V -2.48619 H 7.6" /><rect class="sym" height="6" width="6" x="-3" y="-3" /><text class="lab" transform="translate(0 11)">1</text></g><g class="a11 leaf node n5 p0 sample" transform="translate(7.6 2.48619)"><path class="edge" d="M 0 0 V -2.48619 H -7.6" /><rect class="sym" height="6" width="6" x="-3" y="-3" /><text class="lab" transform="translate(0 11)">5</text></g><path class="edge" d="M 0 0 V -3.98666 H 11.4" /><circle class="sym" cx="0" cy="0" r="3" /><text class="lab lft" transform="translate(-3 -7.0)">11</text></g><path class="edge" d="M 0 0 V -9.02837 H 0.0" /><circle class="sym" cx="0" cy="0" r="3" /><text class="lab lft" transform="translate(-3 -7.0)">14</text></g><path class="edge" d="M 0 0 V -7.62744 H 19" /><circle class="sym" cx="0" cy="0" r="3" /><text class="lab lft" transform="translate(-3 -7.0)">19</text></g><path class="edge" d="M 0 0 V -71.4713 H -33.25" /><circle class="sym" cx="0" cy="0" r="3" /><text class="lab rgt" transform="translate(3 -7.0)">22</text></g><g class="a30 c2 node n29 p0" transform="translate(-33.25 26.2958)"><g class="a29 c1 node n27 p0" transform="translate(-13.3 37.0142)"><g class="a27 c2 node n12 p0" transform="translate(0.0 28.7844)"><g class="a12 leaf node n3 p0 sample" transform="translate(11.4 2.50552)"><path class="edge" d="M 0 0 V -2.50552 H -11.4" /><rect class="sym" height="6" width="6" x="-3" y="-3" /><text class="lab" transform="translate(0 11)">3</text></g><g class="a12 c2 node n10 p0" transform="translate(-11.4 0.442866)"><g class="a10 leaf node n0 p0 sample" transform="translate(-7.6 2.06265)"><path class="edge" d="M 0 0 V -2.06265 H 7.6" /><rect class="sym" height="6" width="6" x="-3" y="-3" /><text class="lab" transform="translate(0 11)">0</text></g><g class="a10 leaf node n7 p0 sample" transform="translate(7.6 2.06265)"><path class="edge" d="M 0 0 V -2.06265 H -7.6" /><rect class="sym" height="6" width="6" x="-3" y="-3" /><text class="lab" transform="translate(0 11)">7</text></g><path class="edge" d="M 0 0 V -0.442866 H 11.4" /><circle class="sym" cx="0" cy="0" r="3" /><text class="lab lft" transform="translate(-3 -7.0)">10</text></g><path class="edge" d="M 0 0 V -28.7844 H 0.0" /><circle class="sym" cx="0" cy="0" r="3" /><text class="lab lft" transform="translate(-3 -7.0)">12</text></g><path class="edge" d="M 0 0 V -37.0142 H 13.3" /><circle class="sym" cx="0" cy="0" r="3" /><text class="lab lft" transform="translate(-3 -7.0)">27</text></g><g class="a29 c1 node n28 p0" transform="translate(13.3 0.132945)"><g class="a28 c1 node n25 p0" transform="translate(0.0 39.9078)"><g class="a25 c1 node n24 p0" transform="translate(0.0 3.6067)"><g class="a24 c1 node n21 p0" transform="translate(0.0 6.39485)"><g class="a21 leaf node n4 p0 sample" transform="translate(0.0 18.2619)"><path class="edge" d="M 0 0 V -18.2619 H 0.0" /><rect class="sym" height="6" width="6" x="-3" y="-3" /><text class="lab" transform="translate(0 11)">4</text></g><path class="edge" d="M 0 0 V -6.39485 H 0.0" /><circle class="sym" cx="0" cy="0" r="3" /><text class="lab lft" transform="translate(-3 -7.0)">21</text></g><path class="edge" d="M 0 0 V -3.6067 H 0.0" /><circle class="sym" cx="0" cy="0" r="3" /><text class="lab lft" transform="translate(-3 -7.0)">24</text></g><path class="edge" d="M 0 0 V -39.9078 H 0.0" /><circle class="sym" cx="0" cy="0" r="3" /><text class="lab lft" transform="translate(-3 -7.0)">25</text></g><path class="edge" d="M 0 0 V -0.132945 H -13.3" /><circle class="sym" cx="0" cy="0" r="3" /><text class="lab rgt" transform="translate(3 -7.0)">28</text></g><path class="edge" d="M 0 0 V -26.2958 H 33.25" /><circle class="sym" cx="0" cy="0" r="3" /><text class="lab lft" transform="translate(-3 -7.0)">29</text></g><circle class="sym" cx="0" cy="0" r="3" /><text class="lab" transform="translate(0 -11)">30</text></g></g></g><g class="tree t4" transform="translate(788 0)"><g class="plotbox"><g class="c2 node n30 p0 root" transform="translate(93.15 26.8)"><g class="a30 c2 node n22 p0" transform="translate(33.25 71.4713)"><g class="a22 c2 node n17 p0" transform="translate(19 13.1022)"><g class="a17 c2 node n13 p0" transform="translate(11.4 6.28313)"><g class="a13 leaf node n8 p0 sample" transform="translate(-7.6 3.74329)"><path class="edge" d="M 0 0 V -3.74329 H 7.6" /><rect class="sym" height="6" width="6" x="-3" y="-3" /><text class="lab" transform="translate(0 11)">8</text></g><g class="a13 leaf node n9 p0 sample" transform="translate(7.6 3.74329)"><path class="edge" d="M 0 0 V -3.74329 H -7.6" /><rect class="sym" height="6" width="6" x="-3" y="-3" /><text class="lab" transform="translate(0 11)">9</text></g><path class="edge" d="M 0 0 V -6.28313 H -11.4" /><circle class="sym" cx="0" cy="0" r="3" /><text class="lab rgt" transform="translate(3 -7.0)">13</text></g><g class="a17 c1 node n16 p0" transform="translate(-11.4 0.490402)"><g class="a16 leaf node n6 p0 sample" transform="translate(0.0 9.53602)"><path class="edge" d="M 0 0 V -9.53602 H 0.0" /><rect class="sym" height="6" width="6" x="-3" y="-3" /><text class="lab" transform="translate(0 11)">6</text></g><path class="edge" d="M 0 0 V -0.490402 H 11.4" /><circle class="sym" cx="0" cy="0" r="3" /><text class="lab lft" transform="translate(-3 -7.0)">16</text></g><path class="edge" d="M 0 0 V -13.1022 H -19" /><circle class="sym" cx="0" cy="0" r="3" /><text class="lab rgt" transform="translate(3 -7.0)">17</text></g><g class="a22 c1 node n19 p0" transform="translate(-19 7.62744)"><g class="a19 c2 node n14 p0" transform="translate(0.0 9.02837)"><g class="a14 leaf node n2 p0 sample" transform="translate(11.4 6.47285)"><path class="edge" d="M 0 0 V -6.47285 H -11.4" /><rect class="sym" height="6" width="6" x="-3" y="-3" /><text class="lab" transform="translate(0 11)">2</text></g><g class="a14 c2 node n11 p0" transform="translate(-11.4 3.98666)"><g class="a11 leaf node n1 p0 sample" transform="translate(-7.6 2.48619)"><path class="edge" d="M 0 0 V -2.48619 H 7.6" /><rect class="sym" height="6" width="6" x="-3" y="-3" /><text class="lab" transform="translate(0 11)">1</text></g><g class="a11 leaf node n5 p0 sample" transform="translate(7.6 2.48619)"><path class="edge" d="M 0 0 V -2.48619 H -7.6" /><rect class="sym" height="6" width="6" x="-3" y="-3" /><text class="lab" transform="translate(0 11)">5</text></g><path class="edge" d="M 0 0 V -3.98666 H 11.4" /><circle class="sym" cx="0" cy="0" r="3" /><text class="lab lft" transform="translate(-3 -7.0)">11</text></g><path class="edge" d="M 0 0 V -9.02837 H 0.0" /><circle class="sym" cx="0" cy="0" r="3" /><text class="lab lft" transform="translate(-3 -7.0)">14</text></g><path class="edge" d="M 0 0 V -7.62744 H 19" /><circle class="sym" cx="0" cy="0" r="3" /><text class="lab lft" transform="translate(-3 -7.0)">19</text></g><path class="edge" d="M 0 0 V -71.4713 H -33.25" /><circle class="sym" cx="0" cy="0" r="3" /><text class="lab rgt" transform="translate(3 -7.0)">22</text></g><g class="a30 c1 node n29 p0" transform="translate(-33.25 26.2958)"><g class="a29 c2 node n27 p0" transform="translate(0.0 37.0142)"><g class="a27 c2 node n12 p0" transform="translate(-13.3 28.7844)"><g class="a12 leaf node n3 p0 sample" transform="translate(11.4 2.50552)"><path class="edge" d="M 0 0 V -2.50552 H -11.4" /><rect class="sym" height="6" width="6" x="-3" y="-3" /><text class="lab" transform="translate(0 11)">3</text></g><g class="a12 c2 node n10 p0" transform="translate(-11.4 0.442866)"><g class="a10 leaf node n0 p0 sample" transform="translate(-7.6 2.06265)"><path class="edge" d="M 0 0 V -2.06265 H 7.6" /><rect class="sym" height="6" width="6" x="-3" y="-3" /><text class="lab" transform="translate(0 11)">0</text></g><g class="a10 leaf node n7 p0 sample" transform="translate(7.6 2.06265)"><path class="edge" d="M 0 0 V -2.06265 H -7.6" /><rect class="sym" height="6" width="6" x="-3" y="-3" /><text class="lab" transform="translate(0 11)">7</text></g><path class="edge" d="M 0 0 V -0.442866 H 11.4" /><circle class="sym" cx="0" cy="0" r="3" /><text class="lab lft" transform="translate(-3 -7.0)">10</text></g><path class="edge" d="M 0 0 V -28.7844 H 13.3" /><circle class="sym" cx="0" cy="0" r="3" /><text class="lab lft" transform="translate(-3 -7.0)">12</text></g><g class="a27 c1 node n26 p0" transform="translate(13.3 3.02648)"><g class="a26 c1 node n24 p0" transform="translate(0.0 3.6067)"><g class="a24 c1 node n21 p0" transform="translate(0.0 6.39485)"><g class="a21 leaf node n4 p0 sample" transform="translate(0.0 18.2619)"><path class="edge" d="M 0 0 V -18.2619 H 0.0" /><rect class="sym" height="6" width="6" x="-3" y="-3" /><text class="lab" transform="translate(0 11)">4</text></g><path class="edge" d="M 0 0 V -6.39485 H 0.0" /><circle class="sym" cx="0" cy="0" r="3" /><text class="lab lft" transform="translate(-3 -7.0)">21</text></g><path class="edge" d="M 0 0 V -3.6067 H 0.0" /><circle class="sym" cx="0" cy="0" r="3" /><text class="lab lft" transform="translate(-3 -7.0)">24</text></g><path class="edge" d="M 0 0 V -3.02648 H -13.3" /><circle class="sym" cx="0" cy="0" r="3" /><text class="lab rgt" transform="translate(3 -7.0)">26</text></g><path class="edge" d="M 0 0 V -37.0142 H 0.0" /><circle class="sym" cx="0" cy="0" r="3" /><text class="lab lft" transform="translate(-3 -7.0)">27</text></g><path class="edge" d="M 0 0 V -26.2958 H 33.25" /><circle class="sym" cx="0" cy="0" r="3" /><text class="lab lft" transform="translate(-3 -7.0)">29</text></g><circle class="sym" cx="0" cy="0" r="3" /><text class="lab" transform="translate(0 -11)">30</text></g></g></g></g></g></svg>
