<svg baseProfile="full" height="200" version="1.1" width="1200" xmlns="http://www.w3.org/2000/svg" xmlns:ev="http://www.w3.org/2001/xml-events" xmlns:xlink="http://www.w3.org/1999/xlink"><defs><style type="text/css"><![CDATA[.background path {fill: #808080; fill-opacity: 0}.background path:nth-child(odd) {fill-opacity: .1}.axes {font-size: 14px}.x-axis .tick .lab {font-weight: bold; dominant-baseline: hanging}.axes, .tree {font-size: 14px; text-anchor: middle}.axes line, .edge {stroke: black; fill: none}.y-axis .grid {stroke: #FAFAFA}.node > .sym {fill: black; stroke: none}.site > .sym {stroke: black}.mut text {fill: red; font-style: italic}.mut.extra text {fill: hotpink}.mut line {fill: none; stroke: none}.mut .sym {fill: none; stroke: red}.mut.extra .sym {stroke: hotpink}.node .mut .sym {stroke-width: 1.5px}.tree text, .tree-sequence text {dominant-baseline: central}.plotbox .lab.lft {text-anchor: end}.plotbox .lab.rgt {text-anchor: start}]]></style></defs><g class="tree-sequence"><g class="background"><path d="M20,0 l193.333,0 l0,138.2 l-148.882,25 l0,5 l-44.4514,0 l0,-5 l0,-25 l0,-138.2z" /><path d="M213.333,0 l193.333,0 l0,138.2 l-138.424,25 l0,5 l-203.792,0 l0,-5 l148.882,-25 l0,-138.2z" /><path d="M406.667,0 l193.333,0 l0,138.2 l-282.28,25 l0,5 l-49.4773,0 l0,-5 l138.424,-25 l0,-138.2z" /><path d="M600,0 l193.333,0 l0,138.2 l99.8402,25 l0,5 l-575.453,0 l0,-5 l282.28,-25 l0,-138.2z" /><path d="M793.333,0 l193.333,0 l0,138.2 l151.23,25 l0,5 l-244.723,0 l0,-5 l-99.8402,-25 l0,-138.2z" /><path d="M986.667,0 l193.333,0 l0,138.2 l0,25 l0,5 l-42.1038,0 l0,-5 l-151.23,-25 l0,-138.2z" /></g><g class="axes"><g class="x-axis"><g transform="translate(600 200)"><text class="lab" text-anchor="middle" transform="translate(0 -11)">Genome position</text></g><line x1="20" x2="1180" y1="163.2" y2="163.2" /><g class="ticks"><g class="tick" transform="translate(20 163.2)"><line x1="0" x2="0" y1="0" y2="5" /><g transform="translate(0 6)"><text class="lab">0.00</text></g></g><g class="tick" transform="translate(64.4514 163.2)"><line x1="0" x2="0" y1="0" y2="5" /><g transform="translate(0 6)"><text class="lab">38.32</text></g></g><g class="tick" transform="translate(268.243 163.2)"><line x1="0" x2="0" y1="0" y2="5" /><g transform="translate(0 6)"><text class="lab">214.00</text></g></g><g class="tick" transform="translate(317.72 163.2)"><line x1="0" x2="0" y1="0" y2="5" /><g transform="translate(0 6)"><text class="lab">256.66</text></g></g><g class="tick" transform="translate(893.173 163.2)"><line x1="0" x2="0" y1="0" y2="5" /><g transform="translate(0 6)"><text class="lab">752.74</text></g></g><g class="tick" transform="translate(1137.9 163.2)"><line x1="0" x2="0" y1="0" y2="5" /><g transform="translate(0 6)"><text class="lab">963.70</text></g></g><g class="tick" transform="translate(1180 163.2)"><line x1="0" x2="0" y1="0" y2="5" /><g transform="translate(0 6)"><text class="lab">1000.00</text></g></g></g></g></g><g class="plotbox trees"><g class="tree t0" transform="translate(20 0)"><g class="plotbox"><g class="c2 node n33 p0 root" transform="translate(100.74 26.8)"><g class="a33 c2 node n31 p0" transform="translate(50.0729 7.03584)"><g class="a31 leaf node n8 p0 sample" transform="translate(14.8542 87.5642)"><path class="edge" d="M 0 0 V -87.5642 H -14.8542" /><rect class="sym" height="6" width="6" x="-3" y="-3" /><text class="lab" transform="translate(0 11)">8</text></g><g class="a31 c2 node n29 p0" transform="translate(-14.8542 13.5851)"><g class="a29 c1 node n26 p0" transform="translate(14.375 8.91539)"><g class="a26 c1 node n25 p0" transform="translate(0.0 2.52237)"><g class="a25 leaf node n7 p0 sample" transform="translate(0.0 62.5413)"><path class="edge" d="M 0 0 V -62.5413 H 0.0" /><rect class="sym" height="6" width="6" x="-3" y="-3" /><text class="lab" transform="translate(0 11)">7</text></g><path class="edge" d="M 0 0 V -2.52237 H 0.0" /><circle class="sym" cx="0" cy="0" r="3" /><text class="lab lft" transform="translate(-3 -7.0)">25</text></g><path class="edge" d="M 0 0 V -8.91539 H -14.375" /><circle class="sym" cx="0" cy="0" r="3" /><text class="lab rgt" transform="translate(3 -7.0)">26</text></g><g class="a29 c1 node n27 p0" transform="translate(-14.375 0.306372)"><g class="a27 c1 node n22 p0" transform="translate(0.0 33.4524)"><g class="a22 c2 node n12 p0" transform="translate(0.0 28.7429)"><g class="a12 leaf node n3 p0 sample" transform="translate(13.4167 11.4774)"><path class="edge" d="M 0 0 V -11.4774 H -13.4167" /><rect class="sym" height="6" width="6" x="-3" y="-3" /><text class="lab" transform="translate(0 11)">3</text></g><g class="a12 c2 node n11 p0" transform="translate(-13.4167 5.81596)"><g class="a11 leaf node n5 p0 sample" transform="translate(11.5 5.66148)"><path class="edge" d="M 0 0 V -5.66148 H -11.5" /><rect class="sym" height="6" width="6" x="-3" y="-3" /><text class="lab" transform="translate(0 11)">5</text></g><g class="a11 c2 node n10 p0" transform="translate(-11.5 5.61447)"><g class="a10 leaf node n1 p0 sample" transform="translate(-7.66667 0.0470083)"><path class="edge" d="M 0 0 V -0.0470083 H 7.66667" /><rect class="sym" height="6" width="6" x="-3" y="-3" /><text class="lab" transform="translate(0 11)">1</text></g><g class="a10 leaf node n2 p0 sample" transform="translate(7.66667 0.0470083)"><path class="edge" d="M 0 0 V -0.0470083 H -7.66667" /><rect class="sym" height="6" width="6" x="-3" y="-3" /><text class="lab" transform="translate(0 11)">2</text></g><path class="edge" d="M 0 0 V -5.61447 H 11.5" /><circle class="sym" cx="0" cy="0" r="3" /><text class="lab lft" transform="translate(-3 -7.0)">10</text></g><path class="edge" d="M 0 0 V -5.81596 H 13.4167" /><circle class="sym" cx="0" cy="0" r="3" /><text class="lab lft" transform="translate(-3 -7.0)">11</text></g><path class="edge" d="M 0 0 V -28.7429 H 0.0" /><circle class="sym" cx="0" cy="0" r="3" /><text class="lab lft" transform="translate(-3 -7.0)">12</text></g><path class="edge" d="M 0 0 V -33.4524 H 0.0" /><circle class="sym" cx="0" cy="0" r="3" /><text class="lab lft" transform="translate(-3 -7.0)">22</text></g><path class="edge" d="M 0 0 V -0.306372 H 14.375" /><circle class="sym" cx="0" cy="0" r="3" /><text class="lab lft" transform="translate(-3 -7.0)">27</text></g><path class="edge" d="M 0 0 V -13.5851 H 14.8542" /><circle class="sym" cx="0" cy="0" r="3" /><text class="lab lft" transform="translate(-3 -7.0)">29</text></g><path class="edge" d="M 0 0 V -7.03584 H -50.0729" /><circle class="sym" cx="0" cy="0" r="3" /><text class="lab rgt" transform="translate(3 -7.0)">31</text></g><g class="a33 c1 node n32 p0" transform="translate(-50.0729 2.1304)"><g class="a32 c2 node n30 p0" transform="translate(0.0 14.6837)"><g class="a30 c1 node n21 p0" transform="translate(15.3333 38.2472)"><g class="a21 c2 node n13 p0" transform="translate(0.0 21.8353)"><g class="a13 leaf node n6 p0 sample" transform="translate(-7.66667 17.7034)"><path class="edge" d="M 0 0 V -17.7034 H 7.66667" /><rect class="sym" height="6" width="6" x="-3" y="-3" /><text class="lab" transform="translate(0 11)">6</text></g><g class="a13 leaf node n9 p0 sample" transform="translate(7.66667 17.7034)"><path class="edge" d="M 0 0 V -17.7034 H -7.66667" /><rect class="sym" height="6" width="6" x="-3" y="-3" /><text class="lab" transform="translate(0 11)">9</text></g><path class="edge" d="M 0 0 V -21.8353 H 0.0" /><circle class="sym" cx="0" cy="0" r="3" /><text class="lab lft" transform="translate(-3 -7.0)">13</text></g><path class="edge" d="M 0 0 V -38.2472 H -15.3333" /><circle class="sym" cx="0" cy="0" r="3" /><text class="lab rgt" transform="translate(3 -7.0)">21</text></g><g class="a30 c1 node n23 p0" transform="translate(-15.3333 19.3014)"><g class="a23 c2 node n20 p0" transform="translate(0.0 21.8847)"><g class="a20 c1 node n16 p0" transform="translate(-7.66667 3.02734)"><g class="a16 leaf node n0 p0 sample" transform="translate(0.0 33.5725)"><path class="edge" d="M 0 0 V -33.5725 H 0.0" /><rect class="sym" height="6" width="6" x="-3" y="-3" /><text class="lab" transform="translate(0 11)">0</text></g><path class="edge" d="M 0 0 V -3.02734 H 7.66667" /><circle class="sym" cx="0" cy="0" r="3" /><text class="lab lft" transform="translate(-3 -7.0)">16</text></g><g class="a20 c1 node n18 p0" transform="translate(7.66667 1.60339)"><g class="a18 c1 node n14 p0" transform="translate(0.0 14.0653)"><g class="a14 leaf node n4 p0 sample" transform="translate(0.0 20.9312)"><path class="edge" d="M 0 0 V -20.9312 H 0.0" /><rect class="sym" height="6" width="6" x="-3" y="-3" /><text class="lab" transform="translate(0 11)">4</text></g><path class="edge" d="M 0 0 V -14.0653 H 0.0" /><circle class="sym" cx="0" cy="0" r="3" /><text class="lab lft" transform="translate(-3 -7.0)">14</text></g><path class="edge" d="M 0 0 V -1.60339 H -7.66667" /><circle class="sym" cx="0" cy="0" r="3" /><text class="lab rgt" transform="translate(3 -7.0)">18</text></g><path class="edge" d="M 0 0 V -21.8847 H 0.0" /><circle class="sym" cx="0" cy="0" r="3" /><text class="lab lft" transform="translate(-3 -7.0)">20</text></g><path class="edge" d="M 0 0 V -19.3014 H 15.3333" /><circle class="sym" cx="0" cy="0" r="3" /><text class="lab lft" transform="translate(-3 -7.0)">23</text></g><path class="edge" d="M 0 0 V -14.6837 H 0.0" /><circle class="sym" cx="0" cy="0" r="3" /><text class="lab lft" transform="translate(-3 -7.0)">30</text></g><path class="edge" d="M 0 0 V -2.1304 H 50.0729" /><circle class="sym" cx="0" cy="0" r="3" /><text class="lab lft" transform="translate(-3 -7.0)">32</text></g><circle class="sym" cx="0" cy="0" r="3" /><text class="lab" transform="translate(0 -11)">33</text></g></g></g><g class="tree t1" transform="translate(213.333 0)"><g class="plotbox"><g class="c2 node n33 p0 root" transform="translate(131.885 26.8)"><g class="a33 c2 node n31 p0" transform="translate(-26.1146 7.03584)"><g class="a31 leaf node n8 p0 sample" transform="translate(29.2292 87.5642)"><path class="edge" d="M 0 0 V -87.5642 H -29.2292" /><rect class="sym" height="6" width="6" x="-3" y="-3" /><text class="lab" transform="translate(0 11)">8</text></g><g class="a31 c2 node n29 p0" transform="translate(-29.2292 13.5851)"><g class="a29 c2 node n26 p0" transform="translate(-29.7083 8.91539)"><g class="a26 c1 node n25 p0" transform="translate(11.5 2.52237)"><g class="a25 leaf node n7 p0 sample" transform="translate(0.0 62.5413)"><path class="edge" d="M 0 0 V -62.5413 H 0.0" /><rect class="sym" height="6" width="6" x="-3" y="-3" /><text class="lab" transform="translate(0 11)">7</text></g><path class="edge" d="M 0 0 V -2.52237 H -11.5" /><circle class="sym" cx="0" cy="0" r="3" /><text class="lab rgt" transform="translate(3 -7.0)">25</text></g><g class="a26 c1 node n24 p0" transform="translate(-11.5 6.57921)"><g class="a24 c2 node n20 p0" transform="translate(0.0 21.8847)"><g class="a20 c1 node n16 p0" transform="translate(-7.66667 3.02734)"><g class="a16 leaf node n0 p0 sample" transform="translate(0.0 33.5725)"><path class="edge" d="M 0 0 V -33.5725 H 0.0" /><rect class="sym" height="6" width="6" x="-3" y="-3" /><text class="lab" transform="translate(0 11)">0</text></g><path class="edge" d="M 0 0 V -3.02734 H 7.66667" /><circle class="sym" cx="0" cy="0" r="3" /><text class="lab lft" transform="translate(-3 -7.0)">16</text></g><g class="a20 c1 node n18 p0" transform="translate(7.66667 1.60339)"><g class="a18 c1 node n14 p0" transform="translate(0.0 14.0653)"><g class="a14 leaf node n4 p0 sample" transform="translate(0.0 20.9312)"><path class="edge" d="M 0 0 V -20.9312 H 0.0" /><rect class="sym" height="6" width="6" x="-3" y="-3" /><text class="lab" transform="translate(0 11)">4</text></g><path class="edge" d="M 0 0 V -14.0653 H 0.0" /><circle class="sym" cx="0" cy="0" r="3" /><text class="lab lft" transform="translate(-3 -7.0)">14</text></g><path class="edge" d="M 0 0 V -1.60339 H -7.66667" /><circle class="sym" cx="0" cy="0" r="3" /><text class="lab rgt" transform="translate(3 -7.0)">18</text></g><path class="edge" d="M 0 0 V -21.8847 H 0.0" /><circle class="sym" cx="0" cy="0" r="3" /><text class="lab lft" transform="translate(-3 -7.0)">20</text></g><path class="edge" d="M 0 0 V -6.57921 H 11.5" /><circle class="sym" cx="0" cy="0" r="3" /><text class="lab lft" transform="translate(-3 -7.0)">24</text></g><path class="edge" d="M 0 0 V -8.91539 H 29.7083" /><circle class="sym" cx="0" cy="0" r="3" /><text class="lab lft" transform="translate(-3 -7.0)">26</text></g><g class="a29 c1 node n27 p0" transform="translate(29.7083 0.306372)"><g class="a27 c1 node n22 p0" transform="translate(0.0 33.4524)"><g class="a22 c2 node n12 p0" transform="translate(0.0 28.7429)"><g class="a12 leaf node n3 p0 sample" transform="translate(13.4167 11.4774)"><path class="edge" d="M 0 0 V -11.4774 H -13.4167" /><rect class="sym" height="6" width="6" x="-3" y="-3" /><text class="lab" transform="translate(0 11)">3</text></g><g class="a12 c2 node n11 p0" transform="translate(-13.4167 5.81596)"><g class="a11 leaf node n5 p0 sample" transform="translate(11.5 5.66148)"><path class="edge" d="M 0 0 V -5.66148 H -11.5" /><rect class="sym" height="6" width="6" x="-3" y="-3" /><text class="lab" transform="translate(0 11)">5</text></g><g class="a11 c2 node n10 p0" transform="translate(-11.5 5.61447)"><g class="a10 leaf node n1 p0 sample" transform="translate(-7.66667 0.0470083)"><path class="edge" d="M 0 0 V -0.0470083 H 7.66667" /><rect class="sym" height="6" width="6" x="-3" y="-3" /><text class="lab" transform="translate(0 11)">1</text></g><g class="a10 leaf node n2 p0 sample" transform="translate(7.66667 0.0470083)"><path class="edge" d="M 0 0 V -0.0470083 H -7.66667" /><rect class="sym" height="6" width="6" x="-3" y="-3" /><text class="lab" transform="translate(0 11)">2</text></g><path class="edge" d="M 0 0 V -5.61447 H 11.5" /><circle class="sym" cx="0" cy="0" r="3" /><text class="lab lft" transform="translate(-3 -7.0)">10</text></g><path class="edge" d="M 0 0 V -5.81596 H 13.4167" /><circle class="sym" cx="0" cy="0" r="3" /><text class="lab lft" transform="translate(-3 -7.0)">11</text></g><path class="edge" d="M 0 0 V -28.7429 H 0.0" /><circle class="sym" cx="0" cy="0" r="3" /><text class="lab lft" transform="translate(-3 -7.0)">12</text></g><path class="edge" d="M 0 0 V -33.4524 H 0.0" /><circle class="sym" cx="0" cy="0" r="3" /><text class="lab lft" transform="translate(-3 -7.0)">22</text></g><path class="edge" d="M 0 0 V -0.306372 H -29.7083" /><circle class="sym" cx="0" cy="0" r="3" /><text class="lab rgt" transform="translate(3 -7.0)">27</text></g><path class="edge" d="M 0 0 V -13.5851 H 29.2292" /><circle class="sym" cx="0" cy="0" r="3" /><text class="lab lft" transform="translate(-3 -7.0)">29</text></g><path class="edge" d="M 0 0 V -7.03584 H 26.1146" /><circle class="sym" cx="0" cy="0" r="3" /><text class="lab lft" transform="translate(-3 -7.0)">31</text></g><g class="a33 c1 node n32 p0" transform="translate(26.1146 2.1304)"><g class="a32 c1 node n30 p0" transform="translate(0.0 14.6837)"><g class="a30 c1 node n21 p0" transform="translate(0.0 38.2472)"><g class="a21 c2 node n13 p0" transform="translate(0.0 21.8353)"><g class="a13 leaf node n6 p0 sample" transform="translate(-7.66667 17.7034)"><path class="edge" d="M 0 0 V -17.7034 H 7.66667" /><rect class="sym" height="6" width="6" x="-3" y="-3" /><text class="lab" transform="translate(0 11)">6</text></g><g class="a13 leaf node n9 p0 sample" transform="translate(7.66667 17.7034)"><path class="edge" d="M 0 0 V -17.7034 H -7.66667" /><rect class="sym" height="6" width="6" x="-3" y="-3" /><text class="lab" transform="translate(0 11)">9</text></g><path class="edge" d="M 0 0 V -21.8353 H 0.0" /><circle class="sym" cx="0" cy="0" r="3" /><text class="lab lft" transform="translate(-3 -7.0)">13</text></g><path class="edge" d="M 0 0 V -38.2472 H 0.0" /><circle class="sym" cx="0" cy="0" r="3" /><text class="lab lft" transform="translate(-3 -7.0)">21</text></g><path class="edge" d="M 0 0 V -14.6837 H 0.0" /><circle class="sym" cx="0" cy="0" r="3" /><text class="lab lft" transform="translate(-3 -7.0)">30</text></g><path class="edge" d="M 0 0 V -2.1304 H -26.1146" /><circle class="sym" cx="0" cy="0" r="3" /><text class="lab rgt" transform="translate(3 -7.0)">32</text></g><circle class="sym" cx="0" cy="0" r="3" /><text class="lab" transform="translate(0 -11)">33</text></g></g></g><g class="tree t2" transform="translate(406.667 0)"><g class="plotbox"><g class="c2 node n33 p0 root" transform="translate(100.021 26.8)"><g class="a33 c2 node n31 p0" transform="translate(-39.7708 7.03584)"><g class="a31 leaf node n8 p0 sample" transform="translate(13.4167 87.5642)"><path class="edge" d="M 0 0 V -87.5642 H -13.4167" /><rect class="sym" height="6" width="6" x="-3" y="-3" /><text class="lab" transform="translate(0 11)">8</text></g><g class="a31 c1 node n29 p0" transform="translate(-13.4167 13.5851)"><g class="a29 c2 node n26 p0" transform="translate(0.0 8.91539)"><g class="a26 c1 node n25 p0" transform="translate(11.5 2.52237)"><g class="a25 leaf node n7 p0 sample" transform="translate(0.0 62.5413)"><path class="edge" d="M 0 0 V -62.5413 H 0.0" /><rect class="sym" height="6" width="6" x="-3" y="-3" /><text class="lab" transform="translate(0 11)">7</text></g><path class="edge" d="M 0 0 V -2.52237 H -11.5" /><circle class="sym" cx="0" cy="0" r="3" /><text class="lab rgt" transform="translate(3 -7.0)">25</text></g><g class="a26 c1 node n24 p0" transform="translate(-11.5 6.57921)"><g class="a24 c2 node n20 p0" transform="translate(0.0 21.8847)"><g class="a20 c1 node n16 p0" transform="translate(-7.66667 3.02734)"><g class="a16 leaf node n0 p0 sample" transform="translate(0.0 33.5725)"><path class="edge" d="M 0 0 V -33.5725 H 0.0" /><rect class="sym" height="6" width="6" x="-3" y="-3" /><text class="lab" transform="translate(0 11)">0</text></g><path class="edge" d="M 0 0 V -3.02734 H 7.66667" /><circle class="sym" cx="0" cy="0" r="3" /><text class="lab lft" transform="translate(-3 -7.0)">16</text></g><g class="a20 c1 node n18 p0" transform="translate(7.66667 1.60339)"><g class="a18 c1 node n14 p0" transform="translate(0.0 14.0653)"><g class="a14 leaf node n4 p0 sample" transform="translate(0.0 20.9312)"><path class="edge" d="M 0 0 V -20.9312 H 0.0" /><rect class="sym" height="6" width="6" x="-3" y="-3" /><text class="lab" transform="translate(0 11)">4</text></g><path class="edge" d="M 0 0 V -14.0653 H 0.0" /><circle class="sym" cx="0" cy="0" r="3" /><text class="lab lft" transform="translate(-3 -7.0)">14</text></g><path class="edge" d="M 0 0 V -1.60339 H -7.66667" /><circle class="sym" cx="0" cy="0" r="3" /><text class="lab rgt" transform="translate(3 -7.0)">18</text></g><path class="edge" d="M 0 0 V -21.8847 H 0.0" /><circle class="sym" cx="0" cy="0" r="3" /><text class="lab lft" transform="translate(-3 -7.0)">20</text></g><path class="edge" d="M 0 0 V -6.57921 H 11.5" /><circle class="sym" cx="0" cy="0" r="3" /><text class="lab lft" transform="translate(-3 -7.0)">24</text></g><path class="edge" d="M 0 0 V -8.91539 H 0.0" /><circle class="sym" cx="0" cy="0" r="3" /><text class="lab lft" transform="translate(-3 -7.0)">26</text></g><path class="edge" d="M 0 0 V -13.5851 H 13.4167" /><circle class="sym" cx="0" cy="0" r="3" /><text class="lab lft" transform="translate(-3 -7.0)">29</text></g><path class="edge" d="M 0 0 V -7.03584 H 39.7708" /><circle class="sym" cx="0" cy="0" r="3" /><text class="lab lft" transform="translate(-3 -7.0)">31</text></g><g class="a33 c2 node n32 p0" transform="translate(39.7708 2.1304)"><g class="a32 c1 node n30 p0" transform="translate(18.2083 14.6837)"><g class="a30 c1 node n21 p0" transform="translate(0.0 38.2472)"><g class="a21 c2 node n13 p0" transform="translate(0.0 21.8353)"><g class="a13 leaf node n6 p0 sample" transform="translate(-7.66667 17.7034)"><path class="edge" d="M 0 0 V -17.7034 H 7.66667" /><rect class="sym" height="6" width="6" x="-3" y="-3" /><text class="lab" transform="translate(0 11)">6</text></g><g class="a13 leaf node n9 p0 sample" transform="translate(7.66667 17.7034)"><path class="edge" d="M 0 0 V -17.7034 H -7.66667" /><rect class="sym" height="6" width="6" x="-3" y="-3" /><text class="lab" transform="translate(0 11)">9</text></g><path class="edge" d="M 0 0 V -21.8353 H 0.0" /><circle class="sym" cx="0" cy="0" r="3" /><text class="lab lft" transform="translate(-3 -7.0)">13</text></g><path class="edge" d="M 0 0 V -38.2472 H 0.0" /><circle class="sym" cx="0" cy="0" r="3" /><text class="lab lft" transform="translate(-3 -7.0)">21</text></g><path class="edge" d="M 0 0 V -14.6837 H -18.2083" /><circle class="sym" cx="0" cy="0" r="3" /><text class="lab rgt" transform="translate(3 -7.0)">30</text></g><g class="a32 c1 node n28 p0" transform="translate(-18.2083 18.7969)"><g class="a28 c1 node n22 p0" transform="translate(0.0 33.4524)"><g class="a22 c2 node n12 p0" transform="translate(0.0 28.7429)"><g class="a12 leaf node n3 p0 sample" transform="translate(13.4167 11.4774)"><path class="edge" d="M 0 0 V -11.4774 H -13.4167" /><rect class="sym" height="6" width="6" x="-3" y="-3" /><text class="lab" transform="translate(0 11)">3</text></g><g class="a12 c2 node n11 p0" transform="translate(-13.4167 5.81596)"><g class="a11 leaf node n5 p0 sample" transform="translate(11.5 5.66148)"><path class="edge" d="M 0 0 V -5.66148 H -11.5" /><rect class="sym" height="6" width="6" x="-3" y="-3" /><text class="lab" transform="translate(0 11)">5</text></g><g class="a11 c2 node n10 p0" transform="translate(-11.5 5.61447)"><g class="a10 leaf node n1 p0 sample" transform="translate(-7.66667 0.0470083)"><path class="edge" d="M 0 0 V -0.0470083 H 7.66667" /><rect class="sym" height="6" width="6" x="-3" y="-3" /><text class="lab" transform="translate(0 11)">1</text></g><g class="a10 leaf node n2 p0 sample" transform="translate(7.66667 0.0470083)"><path class="edge" d="M 0 0 V -0.0470083 H -7.66667" /><rect class="sym" height="6" width="6" x="-3" y="-3" /><text class="lab" transform="translate(0 11)">2</text></g><path class="edge" d="M 0 0 V -5.61447 H 11.5" /><circle class="sym" cx="0" cy="0" r="3" /><text class="lab lft" transform="translate(-3 -7.0)">10</text></g><path class="edge" d="M 0 0 V -5.81596 H 13.4167" /><circle class="sym" cx="0" cy="0" r="3" /><text class="lab lft" transform="translate(-3 -7.0)">11</text></g><path class="edge" d="M 0 0 V -28.7429 H 0.0" /><circle class="sym" cx="0" cy="0" r="3" /><text class="lab lft" transform="translate(-3 -7.0)">12</text></g><path class="edge" d="M 0 0 V -33.4524 H 0.0" /><circle class="sym" cx="0" cy="0" r="3" /><text class="lab lft" transform="translate(-3 -7.0)">22</text></g><path class="edge" d="M 0 0 V -18.7969 H 18.2083" /><circle class="sym" cx="0" cy="0" r="3" /><text class="lab lft" transform="translate(-3 -7.0)">28</text></g><path class="edge" d="M 0 0 V -2.1304 H -39.7708" /><circle class="sym" cx="0" cy="0" r="3" /><text class="lab rgt" transform="translate(3 -7.0)">32</text></g><circle class="sym" cx="0" cy="0" r="3" /><text class="lab" transform="translate(0 -11)">33</text></g></g></g><g class="tree t3" transform="translate(600 0)"><g class="plotbox"><g class="c2 node n33 p0 root" transform="translate(98.1042 26.8)"><g class="a33 c2 node n31 p0" transform="translate(-41.6875 7.03584)"><g class="a31 leaf node n8 p0 sample" transform="translate(17.25 87.5642)"><path class="edge" d="M 0 0 V -87.5642 H -17.25" /><rect class="sym" height="6" width="6" x="-3" y="-3" /><text class="lab" transform="translate(0 11)">8</text></g><g class="a31 c1 node n29 p0" transform="translate(-17.25 13.5851)"><g class="a29 c2 node n26 p0" transform="translate(0.0 8.91539)"><g class="a26 c2 node n25 p0" transform="translate(11.5 2.52237)"><g class="a25 leaf node n7 p0 sample" transform="translate(7.66667 62.5413)"><path class="edge" d="M 0 0 V -62.5413 H -7.66667" /><rect class="sym" height="6" width="6" x="-3" y="-3" /><text class="lab" transform="translate(0 11)">7</text></g><g class="a25 c1 node n19 p0" transform="translate(-7.66667 27.5449)"><g class="a19 c1 node n14 p0" transform="translate(0.0 14.0653)"><g class="a14 leaf node n4 p0 sample" transform="translate(0.0 20.9312)"><path class="edge" d="M 0 0 V -20.9312 H 0.0" /><rect class="sym" height="6" width="6" x="-3" y="-3" /><text class="lab" transform="translate(0 11)">4</text></g><path class="edge" d="M 0 0 V -14.0653 H 0.0" /><circle class="sym" cx="0" cy="0" r="3" /><text class="lab lft" transform="translate(-3 -7.0)">14</text></g><path class="edge" d="M 0 0 V -27.5449 H 7.66667" /><circle class="sym" cx="0" cy="0" r="3" /><text class="lab lft" transform="translate(-3 -7.0)">19</text></g><path class="edge" d="M 0 0 V -2.52237 H -11.5" /><circle class="sym" cx="0" cy="0" r="3" /><text class="lab rgt" transform="translate(3 -7.0)">25</text></g><g class="a26 c1 node n24 p0" transform="translate(-11.5 6.57921)"><g class="a24 c1 node n20 p0" transform="translate(0.0 21.8847)"><g class="a20 c1 node n16 p0" transform="translate(0.0 3.02734)"><g class="a16 leaf node n0 p0 sample" transform="translate(0.0 33.5725)"><path class="edge" d="M 0 0 V -33.5725 H 0.0" /><rect class="sym" height="6" width="6" x="-3" y="-3" /><text class="lab" transform="translate(0 11)">0</text></g><path class="edge" d="M 0 0 V -3.02734 H 0.0" /><circle class="sym" cx="0" cy="0" r="3" /><text class="lab lft" transform="translate(-3 -7.0)">16</text></g><path class="edge" d="M 0 0 V -21.8847 H 0.0" /><circle class="sym" cx="0" cy="0" r="3" /><text class="lab lft" transform="translate(-3 -7.0)">20</text></g><path class="edge" d="M 0 0 V -6.57921 H 11.5" /><circle class="sym" cx="0" cy="0" r="3" /><text class="lab lft" transform="translate(-3 -7.0)">24</text></g><path class="edge" d="M 0 0 V -8.91539 H 0.0" /><circle class="sym" cx="0" cy="0" r="3" /><text class="lab lft" transform="translate(-3 -7.0)">26</text></g><path class="edge" d="M 0 0 V -13.5851 H 17.25" /><circle class="sym" cx="0" cy="0" r="3" /><text class="lab lft" transform="translate(-3 -7.0)">29</text></g><path class="edge" d="M 0 0 V -7.03584 H 41.6875" /><circle class="sym" cx="0" cy="0" r="3" /><text class="lab lft" transform="translate(-3 -7.0)">31</text></g><g class="a33 c2 node n32 p0" transform="translate(41.6875 2.1304)"><g class="a32 c1 node n30 p0" transform="translate(18.2083 14.6837)"><g class="a30 c1 node n21 p0" transform="translate(0.0 38.2472)"><g class="a21 c2 node n13 p0" transform="translate(0.0 21.8353)"><g class="a13 leaf node n6 p0 sample" transform="translate(-7.66667 17.7034)"><path class="edge" d="M 0 0 V -17.7034 H 7.66667" /><rect class="sym" height="6" width="6" x="-3" y="-3" /><text class="lab" transform="translate(0 11)">6</text></g><g class="a13 leaf node n9 p0 sample" transform="translate(7.66667 17.7034)"><path class="edge" d="M 0 0 V -17.7034 H -7.66667" /><rect class="sym" height="6" width="6" x="-3" y="-3" /><text class="lab" transform="translate(0 11)">9</text></g><path class="edge" d="M 0 0 V -21.8353 H 0.0" /><circle class="sym" cx="0" cy="0" r="3" /><text class="lab lft" transform="translate(-3 -7.0)">13</text></g><path class="edge" d="M 0 0 V -38.2472 H 0.0" /><circle class="sym" cx="0" cy="0" r="3" /><text class="lab lft" transform="translate(-3 -7.0)">21</text></g><path class="edge" d="M 0 0 V -14.6837 H -18.2083" /><circle class="sym" cx="0" cy="0" r="3" /><text class="lab rgt" transform="translate(3 -7.0)">30</text></g><g class="a32 c1 node n28 p0" transform="translate(-18.2083 18.7969)"><g class="a28 c1 node n22 p0" transform="translate(0.0 33.4524)"><g class="a22 c2 node n12 p0" transform="translate(0.0 28.7429)"><g class="a12 leaf node n3 p0 sample" transform="translate(13.4167 11.4774)"><path class="edge" d="M 0 0 V -11.4774 H -13.4167" /><rect class="sym" height="6" width="6" x="-3" y="-3" /><text class="lab" transform="translate(0 11)">3</text></g><g class="a12 c2 node n11 p0" transform="translate(-13.4167 5.81596)"><g class="a11 leaf node n5 p0 sample" transform="translate(11.5 5.66148)"><path class="edge" d="M 0 0 V -5.66148 H -11.5" /><rect class="sym" height="6" width="6" x="-3" y="-3" /><text class="lab" transform="translate(0 11)">5</text></g><g class="a11 c2 node n10 p0" transform="translate(-11.5 5.61447)"><g class="a10 leaf node n1 p0 sample" transform="translate(-7.66667 0.0470083)"><path class="edge" d="M 0 0 V -0.0470083 H 7.66667" /><rect class="sym" height="6" width="6" x="-3" y="-3" /><text class="lab" transform="translate(0 11)">1</text></g><g class="a10 leaf node n2 p0 sample" transform="translate(7.66667 0.0470083)"><path class="edge" d="M 0 0 V -0.0470083 H -7.66667" /><rect class="sym" height="6" width="6" x="-3" y="-3" /><text class="lab" transform="translate(0 11)">2</text></g><path class="edge" d="M 0 0 V -5.61447 H 11.5" /><circle class="sym" cx="0" cy="0" r="3" /><text class="lab lft" transform="translate(-3 -7.0)">10</text></g><path class="edge" d="M 0 0 V -5.81596 H 13.4167" /><circle class="sym" cx="0" cy="0" r="3" /><text class="lab lft" transform="translate(-3 -7.0)">11</text></g><path class="edge" d="M 0 0 V -28.7429 H 0.0" /><circle class="sym" cx="0" cy="0" r="3" /><text class="lab lft" transform="translate(-3 -7.0)">12</text></g><path class="edge" d="M 0 0 V -33.4524 H 0.0" /><circle class="sym" cx="0" cy="0" r="3" /><text class="lab lft" transform="translate(-3 -7.0)">22</text></g><path class="edge" d="M 0 0 V -18.7969 H 18.2083" /><circle class="sym" cx="0" cy="0" r="3" /><text class="lab lft" transform="translate(-3 -7.0)">28</text></g><path class="edge" d="M 0 0 V -2.1304 H -41.6875" /><circle class="sym" cx="0" cy="0" r="3" /><text class="lab rgt" transform="translate(3 -7.0)">32</text></g><circle class="sym" cx="0" cy="0" r="3" /><text class="lab" transform="translate(0 -11)">33</text></g></g></g><g class="tree t4" transform="translate(793.333 0)"><g class="plotbox"><g class="c2 node n33 p0 root" transform="translate(117.99 26.8)"><g class="a33 c2 node n31 p0" transform="translate(36.1771 7.03584)"><g class="a31 leaf node n8 p0 sample" transform="translate(11.5 87.5642)"><path class="edge" d="M 0 0 V -87.5642 H -11.5" /><rect class="sym" height="6" width="6" x="-3" y="-3" /><text class="lab" transform="translate(0 11)">8</text></g><g class="a31 c1 node n29 p0" transform="translate(-11.5 13.5851)"><g class="a29 c1 node n26 p0" transform="translate(0.0 8.91539)"><g class="a26 c2 node n25 p0" transform="translate(0.0 2.52237)"><g class="a25 leaf node n7 p0 sample" transform="translate(7.66667 62.5413)"><path class="edge" d="M 0 0 V -62.5413 H -7.66667" /><rect class="sym" height="6" width="6" x="-3" y="-3" /><text class="lab" transform="translate(0 11)">7</text></g><g class="a25 c1 node n19 p0" transform="translate(-7.66667 27.5449)"><g class="a19 c1 node n14 p0" transform="translate(0.0 14.0653)"><g class="a14 leaf node n4 p0 sample" transform="translate(0.0 20.9312)"><path class="edge" d="M 0 0 V -20.9312 H 0.0" /><rect class="sym" height="6" width="6" x="-3" y="-3" /><text class="lab" transform="translate(0 11)">4</text></g><path class="edge" d="M 0 0 V -14.0653 H 0.0" /><circle class="sym" cx="0" cy="0" r="3" /><text class="lab lft" transform="translate(-3 -7.0)">14</text></g><path class="edge" d="M 0 0 V -27.5449 H 7.66667" /><circle class="sym" cx="0" cy="0" r="3" /><text class="lab lft" transform="translate(-3 -7.0)">19</text></g><path class="edge" d="M 0 0 V -2.52237 H 0.0" /><circle class="sym" cx="0" cy="0" r="3" /><text class="lab lft" transform="translate(-3 -7.0)">25</text></g><path class="edge" d="M 0 0 V -8.91539 H 0.0" /><circle class="sym" cx="0" cy="0" r="3" /><text class="lab lft" transform="translate(-3 -7.0)">26</text></g><path class="edge" d="M 0 0 V -13.5851 H 11.5" /><circle class="sym" cx="0" cy="0" r="3" /><text class="lab lft" transform="translate(-3 -7.0)">29</text></g><path class="edge" d="M 0 0 V -7.03584 H -36.1771" /><circle class="sym" cx="0" cy="0" r="3" /><text class="lab rgt" transform="translate(3 -7.0)">31</text></g><g class="a33 c2 node n32 p0" transform="translate(-36.1771 2.1304)"><g class="a32 c1 node n30 p0" transform="translate(30.1875 14.6837)"><g class="a30 c1 node n21 p0" transform="translate(0.0 38.2472)"><g class="a21 c2 node n13 p0" transform="translate(0.0 21.8353)"><g class="a13 leaf node n6 p0 sample" transform="translate(-7.66667 17.7034)"><path class="edge" d="M 0 0 V -17.7034 H 7.66667" /><rect class="sym" height="6" width="6" x="-3" y="-3" /><text class="lab" transform="translate(0 11)">6</text></g><g class="a13 leaf node n9 p0 sample" transform="translate(7.66667 17.7034)"><path class="edge" d="M 0 0 V -17.7034 H -7.66667" /><rect class="sym" height="6" width="6" x="-3" y="-3" /><text class="lab" transform="translate(0 11)">9</text></g><path class="edge" d="M 0 0 V -21.8353 H 0.0" /><circle class="sym" cx="0" cy="0" r="3" /><text class="lab lft" transform="translate(-3 -7.0)">13</text></g><path class="edge" d="M 0 0 V -38.2472 H 0.0" /><circle class="sym" cx="0" cy="0" r="3" /><text class="lab lft" transform="translate(-3 -7.0)">21</text></g><path class="edge" d="M 0 0 V -14.6837 H -30.1875" /><circle class="sym" cx="0" cy="0" r="3" /><text class="lab rgt" transform="translate(3 -7.0)">30</text></g><g class="a32 c1 node n28 p0" transform="translate(-30.1875 18.7969)"><g class="a28 c2 node n22 p0" transform="translate(0.0 33.4524)"><g class="a22 c2 node n12 p0" transform="translate(23.9583 28.7429)"><g class="a12 leaf node n3 p0 sample" transform="translate(13.4167 11.4774)"><path class="edge" d="M 0 0 V -11.4774 H -13.4167" /><rect class="sym" height="6" width="6" x="-3" y="-3" /><text class="lab" transform="translate(0 11)">3</text></g><g class="a12 c2 node n11 p0" transform="translate(-13.4167 5.81596)"><g class="a11 leaf node n5 p0 sample" transform="translate(11.5 5.66148)"><path class="edge" d="M 0 0 V -5.66148 H -11.5" /><rect class="sym" height="6" width="6" x="-3" y="-3" /><text class="lab" transform="translate(0 11)">5</text></g><g class="a11 c2 node n10 p0" transform="translate(-11.5 5.61447)"><g class="a10 leaf node n1 p0 sample" transform="translate(-7.66667 0.0470083)"><path class="edge" d="M 0 0 V -0.0470083 H 7.66667" /><rect class="sym" height="6" width="6" x="-3" y="-3" /><text class="lab" transform="translate(0 11)">1</text></g><g class="a10 leaf node n2 p0 sample" transform="translate(7.66667 0.0470083)"><path class="edge" d="M 0 0 V -0.0470083 H -7.66667" /><rect class="sym" height="6" width="6" x="-3" y="-3" /><text class="lab" transform="translate(0 11)">2</text></g><path class="edge" d="M 0 0 V -5.61447 H 11.5" /><circle class="sym" cx="0" cy="0" r="3" /><text class="lab lft" transform="translate(-3 -7.0)">10</text></g><path class="edge" d="M 0 0 V -5.81596 H 13.4167" /><circle class="sym" cx="0" cy="0" r="3" /><text class="lab lft" transform="translate(-3 -7.0)">11</text></g><path class="edge" d="M 0 0 V -28.7429 H -23.9583" /><circle class="sym" cx="0" cy="0" r="3" /><text class="lab rgt" transform="translate(3 -7.0)">12</text></g><g class="a22 c1 node n17 p0" transform="translate(-23.9583 6.64785)"><g class="a17 leaf node n0 p0 sample" transform="translate(0.0 33.5725)"><path class="edge" d="M 0 0 V -33.5725 H 0.0" /><rect class="sym" height="6" width="6" x="-3" y="-3" /><text class="lab" transform="translate(0 11)">0</text></g><path class="edge" d="M 0 0 V -6.64785 H 23.9583" /><circle class="sym" cx="0" cy="0" r="3" /><text class="lab lft" transform="translate(-3 -7.0)">17</text></g><path class="edge" d="M 0 0 V -33.4524 H 0.0" /><circle class="sym" cx="0" cy="0" r="3" /><text class="lab lft" transform="translate(-3 -7.0)">22</text></g><path class="edge" d="M 0 0 V -18.7969 H 30.1875" /><circle class="sym" cx="0" cy="0" r="3" /><text class="lab lft" transform="translate(-3 -7.0)">28</text></g><path class="edge" d="M 0 0 V -2.1304 H 36.1771" /><circle class="sym" cx="0" cy="0" r="3" /><text class="lab lft" transform="translate(-3 -7.0)">32</text></g><circle class="sym" cx="0" cy="0" r="3" /><text class="lab" transform="translate(0 -11)">33</text></g></g></g><g class="tree t5" transform="translate(986.667 0)"><g class="plotbox"><g class="c2 node n33 p0 root" transform="translate(120.865 26.8)"><g class="a33 c2 node n31 p0" transform="translate(37.1354 7.03584)"><g class="a31 leaf node n8 p0 sample" transform="translate(7.66667 87.5642)"><path class="edge" d="M 0 0 V -87.5642 H -7.66667" /><rect class="sym" height="6" width="6" x="-3" y="-3" /><text class="lab" transform="translate(0 11)">8</text></g><g class="a31 c1 node n29 p0" transform="translate(-7.66667 13.5851)"><g class="a29 c1 node n26 p0" transform="translate(0.0 8.91539)"><g class="a26 c1 node n25 p0" transform="translate(0.0 2.52237)"><g class="a25 leaf node n7 p0 sample" transform="translate(0.0 62.5413)"><path class="edge" d="M 0 0 V -62.5413 H 0.0" /><rect class="sym" height="6" width="6" x="-3" y="-3" /><text class="lab" transform="translate(0 11)">7</text></g><path class="edge" d="M 0 0 V -2.52237 H 0.0" /><circle class="sym" cx="0" cy="0" r="3" /><text class="lab lft" transform="translate(-3 -7.0)">25</text></g><path class="edge" d="M 0 0 V -8.91539 H 0.0" /><circle class="sym" cx="0" cy="0" r="3" /><text class="lab lft" transform="translate(-3 -7.0)">26</text></g><path class="edge" d="M 0 0 V -13.5851 H 7.66667" /><circle class="sym" cx="0" cy="0" r="3" /><text class="lab lft" transform="translate(-3 -7.0)">29</text></g><path class="edge" d="M 0 0 V -7.03584 H -37.1354" /><circle class="sym" cx="0" cy="0" r="3" /><text class="lab rgt" transform="translate(3 -7.0)">31</text></g><g class="a33 c2 node n32 p0" transform="translate(-37.1354 2.1304)"><g class="a32 c1 node n30 p0" transform="translate(32.1042 14.6837)"><g class="a30 c2 node n21 p0" transform="translate(0.0 38.2472)"><g class="a21 c2 node n13 p0" transform="translate(11.5 21.8353)"><g class="a13 leaf node n6 p0 sample" transform="translate(-7.66667 17.7034)"><path class="edge" d="M 0 0 V -17.7034 H 7.66667" /><rect class="sym" height="6" width="6" x="-3" y="-3" /><text class="lab" transform="translate(0 11)">6</text></g><g class="a13 leaf node n9 p0 sample" transform="translate(7.66667 17.7034)"><path class="edge" d="M 0 0 V -17.7034 H -7.66667" /><rect class="sym" height="6" width="6" x="-3" y="-3" /><text class="lab" transform="translate(0 11)">9</text></g><path class="edge" d="M 0 0 V -21.8353 H -11.5" /><circle class="sym" cx="0" cy="0" r="3" /><text class="lab rgt" transform="translate(3 -7.0)">13</text></g><g class="a21 c1 node n15 p0" transform="translate(-11.5 18.6075)"><g class="a15 leaf node n4 p0 sample" transform="translate(0.0 20.9312)"><path class="edge" d="M 0 0 V -20.9312 H 0.0" /><rect class="sym" height="6" width="6" x="-3" y="-3" /><text class="lab" transform="translate(0 11)">4</text></g><path class="edge" d="M 0 0 V -18.6075 H 11.5" /><circle class="sym" cx="0" cy="0" r="3" /><text class="lab lft" transform="translate(-3 -7.0)">15</text></g><path class="edge" d="M 0 0 V -38.2472 H 0.0" /><circle class="sym" cx="0" cy="0" r="3" /><text class="lab lft" transform="translate(-3 -7.0)">21</text></g><path class="edge" d="M 0 0 V -14.6837 H -32.1042" /><circle class="sym" cx="0" cy="0" r="3" /><text class="lab rgt" transform="translate(3 -7.0)">30</text></g><g class="a32 c1 node n28 p0" transform="translate(-32.1042 18.7969)"><g class="a28 c2 node n22 p0" transform="translate(0.0 33.4524)"><g class="a22 c2 node n12 p0" transform="translate(23.9583 28.7429)"><g class="a12 leaf node n3 p0 sample" transform="translate(13.4167 11.4774)"><path class="edge" d="M 0 0 V -11.4774 H -13.4167" /><rect class="sym" height="6" width="6" x="-3" y="-3" /><text class="lab" transform="translate(0 11)">3</text></g><g class="a12 c2 node n11 p0" transform="translate(-13.4167 5.81596)"><g class="a11 leaf node n5 p0 sample" transform="translate(11.5 5.66148)"><path class="edge" d="M 0 0 V -5.66148 H -11.5" /><rect class="sym" height="6" width="6" x="-3" y="-3" /><text class="lab" transform="translate(0 11)">5</text></g><g class="a11 c2 node n10 p0" transform="translate(-11.5 5.61447)"><g class="a10 leaf node n1 p0 sample" transform="translate(-7.66667 0.0470083)"><path class="edge" d="M 0 0 V -0.0470083 H 7.66667" /><rect class="sym" height="6" width="6" x="-3" y="-3" /><text class="lab" transform="translate(0 11)">1</text></g><g class="a10 leaf node n2 p0 sample" transform="translate(7.66667 0.0470083)"><path class="edge" d="M 0 0 V -0.0470083 H -7.66667" /><rect class="sym" height="6" width="6" x="-3" y="-3" /><text class="lab" transform="translate(0 11)">2</text></g><path class="edge" d="M 0 0 V -5.61447 H 11.5" /><circle class="sym" cx="0" cy="0" r="3" /><text class="lab lft" transform="translate(-3 -7.0)">10</text></g><path class="edge" d="M 0 0 V -5.81596 H 13.4167" /><circle class="sym" cx="0" cy="0" r="3" /><text class="lab lft" transform="translate(-3 -7.0)">11</text></g><path class="edge" d="M 0 0 V -28.7429 H -23.9583" /><circle class="sym" cx="0" cy="0" r="3" /><text class="lab rgt" transform="translate(3 -7.0)">12</text></g><g class="a22 c1 node n17 p0" transform="translate(-23.9583 6.64785)"><g class="a17 leaf node n0 p0 sample" transform="translate(0.0 33.5725)"><path class="edge" d="M 0 0 V -33.5725 H 0.0" /><rect class="sym" height="6" width="6" x="-3" y="-3" /><text class="lab" transform="translate(0 11)">0</text></g><path class="edge" d="M 0 0 V -6.64785 H 23.9583" /><circle class="sym" cx="0" cy="0" r="3" /><text class="lab lft" transform="translate(-3 -7.0)">17</text></g><path class="edge" d="M 0 0 V -33.4524 H 0.0" /><circle class="sym" cx="0" cy="0" r="3" /><text class="lab lft" transform="translate(-3 -7.0)">22</text></g><path class="edge" d="M 0 0 V -18.7969 H 32.1042" /><circle class="sym" cx="0" cy="0" r="3" /><text class="lab lft" transform="translate(-3 -7.0)">28</text></g><path class="edge" d="M 0 0 V -2.1304 H 37.1354" /><circle class="sym" cx="0" cy="0" r="3" /><text class="lab lft" transform="translate(-3 -7.0)">32</text></g><circle class="sym" cx="0" cy="0" r="3" /><text class="lab" transform="translate(0 -11)">33</text></g></g></g></g></g></svg>
