<svg baseProfile="full" height="200" version="1.1" width="400" xmlns="http://www.w3.org/2000/svg" xmlns:ev="http://www.w3.org/2001/xml-events" xmlns:xlink="http://www.w3.org/1999/xlink"><defs><style type="text/css"><![CDATA[.background path {fill: #808080; fill-opacity: 0}.background path:nth-child(odd) {fill-opacity: .1}.axes {font-size: 14px}.x-axis .tick .lab {font-weight: bold; dominant-baseline: hanging}.axes, .tree {font-size: 14px; text-anchor: middle}.axes line, .edge {stroke: black; fill: none}.y-axis .grid {stroke: #FAFAFA}.node > .sym {fill: black; stroke: none}.site > .sym {stroke: black}.mut text {fill: red; font-style: italic}.mut.extra text {fill: hotpink}.mut line {fill: none; stroke: none}.mut .sym {fill: none; stroke: red}.mut.extra .sym {stroke: hotpink}.node .mut .sym {stroke-width: 1.5px}.tree text, .tree-sequence text {dominant-baseline: central}.plotbox .lab.lft {text-anchor: end}.plotbox .lab.rgt {text-anchor: start}]]></style></defs><g class="tree-sequence"><g class="background"><path d="M20,0 l180,0 l0,138.2 l-166.043,25 l0,5 l-13.9569,0 l0,-5 l0,-25 l0,-138.2z" /><path d="M200,0 l180,0 l0,138.2 l0,25 l0,5 l-346.043,0 l0,-5 l166.043,-25 l0,-138.2z" /></g><g class="axes"><g class="x-axis"><g transform="translate(200 200)"><text class="lab" text-anchor="middle" transform="translate(0 -11)">Genome position</text></g><line x1="20" x2="380" y1="163.2" y2="163.2" /><g class="ticks"><g class="tick" transform="translate(20 163.2)"><line x1="0" x2="0" y1="0" y2="5" /><g transform="translate(0 6)"><text class="lab">0.00</text></g></g><g class="tick" transform="translate(33.9569 163.2)"><line x1="0" x2="0" y1="0" y2="5" /><g transform="translate(0 6)"><text class="lab">38.77</text></g></g><g class="tick" transform="translate(380 163.2)"><line x1="0" x2="0" y1="0" y2="5" /><g transform="translate(0 6)"><text class="lab">1000.00</text></g></g></g></g></g><g class="plotbox trees"><g class="tree t0" transform="translate(20 0)"><g class="plotbox"><g class="c2 node n21 p0 root" transform="translate(114.5 26.8)"><g class="a21 c2 node n19 p0" transform="translate(-31.5 52.1433)"><g class="a19 c2 node n17 p0" transform="translate(26.25 30.1974)"><g class="a17 leaf node n9 p0 sample" transform="translate(15.75 12.2593)"><path class="edge" d="M 0 0 V -12.2593 H -15.75" /><rect class="sym" height="6" width="6" x="-3" y="-3" /><text class="lab" transform="translate(0 11)">9</text></g><g class="a17 c2 node n14 p0" transform="translate(-15.75 2.28301)"><g class="a14 leaf node n4 p0 sample" transform="translate(-10.5 9.97632)"><path class="edge" d="M 0 0 V -9.97632 H 10.5" /><rect class="sym" height="6" width="6" x="-3" y="-3" /><text class="lab" transform="translate(0 11)">4</text></g><g class="a14 c2 node n13 p0" transform="translate(10.5 0.620971)"><g class="a13 leaf node n7 p0 sample" transform="translate(-7 9.35535)"><path class="edge" d="M 0 0 V -9.35535 H 7" /><rect class="sym" height="6" width="6" x="-3" y="-3" /><text class="lab" transform="translate(0 11)">7</text></g><g class="a13 leaf node n8 p0 sample" transform="translate(7 9.35535)"><path class="edge" d="M 0 0 V -9.35535 H -7" /><rect class="sym" height="6" width="6" x="-3" y="-3" /><text class="lab" transform="translate(0 11)">8</text></g><path class="edge" d="M 0 0 V -0.620971 H -10.5" /><circle class="sym" cx="0" cy="0" r="3" /><text class="lab rgt" transform="translate(3 -7.0)">13</text></g><path class="edge" d="M 0 0 V -2.28301 H 15.75" /><circle class="sym" cx="0" cy="0" r="3" /><text class="lab lft" transform="translate(-3 -7.0)">14</text></g><path class="edge" d="M 0 0 V -30.1974 H -26.25" /><circle class="sym" cx="0" cy="0" r="3" /><text class="lab rgt" transform="translate(3 -7.0)">17</text></g><g class="a19 c2 node n18 p0" transform="translate(-26.25 16.5231)"><g class="a18 c1 node n10 p0" transform="translate(12.25 21.4658)"><g class="a10 leaf node n3 p0 sample" transform="translate(0.0 4.46776)"><path class="edge" d="M 0 0 V -4.46776 H 0.0" /><rect class="sym" height="6" width="6" x="-3" y="-3" /><text class="lab" transform="translate(0 11)">3</text></g><path class="edge" d="M 0 0 V -21.4658 H -12.25" /><circle class="sym" cx="0" cy="0" r="3" /><text class="lab rgt" transform="translate(3 -7.0)">10</text></g><g class="a18 c2 node n16 p0" transform="translate(-12.25 14.3975)"><g class="a16 leaf node n6 p0 sample" transform="translate(10.5 11.5361)"><path class="edge" d="M 0 0 V -11.5361 H -10.5" /><rect class="sym" height="6" width="6" x="-3" y="-3" /><text class="lab" transform="translate(0 11)">6</text></g><g class="a16 c2 node n12 p0" transform="translate(-10.5 5.57498)"><g class="a12 leaf node n0 p0 sample" transform="translate(-7 5.96113)"><path class="edge" d="M 0 0 V -5.96113 H 7" /><rect class="sym" height="6" width="6" x="-3" y="-3" /><text class="lab" transform="translate(0 11)">0</text></g><g class="a12 leaf node n2 p0 sample" transform="translate(7 5.96113)"><path class="edge" d="M 0 0 V -5.96113 H -7" /><rect class="sym" height="6" width="6" x="-3" y="-3" /><text class="lab" transform="translate(0 11)">2</text></g><path class="edge" d="M 0 0 V -5.57498 H 10.5" /><circle class="sym" cx="0" cy="0" r="3" /><text class="lab lft" transform="translate(-3 -7.0)">12</text></g><path class="edge" d="M 0 0 V -14.3975 H 12.25" /><circle class="sym" cx="0" cy="0" r="3" /><text class="lab lft" transform="translate(-3 -7.0)">16</text></g><path class="edge" d="M 0 0 V -16.5231 H 26.25" /><circle class="sym" cx="0" cy="0" r="3" /><text class="lab lft" transform="translate(-3 -7.0)">18</text></g><path class="edge" d="M 0 0 V -52.1433 H 31.5" /><circle class="sym" cx="0" cy="0" r="3" /><text class="lab lft" transform="translate(-3 -7.0)">19</text></g><g class="a21 c2 node n20 p0" transform="translate(31.5 38.0758)"><g class="a20 leaf node n1 p0 sample" transform="translate(-7 56.5242)"><path class="edge" d="M 0 0 V -56.5242 H 7" /><rect class="sym" height="6" width="6" x="-3" y="-3" /><text class="lab" transform="translate(0 11)">1</text></g><g class="a20 c1 node n15 p0" transform="translate(7 45.4242)"><g class="a15 leaf node n5 p0 sample" transform="translate(0.0 11.1001)"><path class="edge" d="M 0 0 V -11.1001 H 0.0" /><rect class="sym" height="6" width="6" x="-3" y="-3" /><text class="lab" transform="translate(0 11)">5</text></g><path class="edge" d="M 0 0 V -45.4242 H -7" /><circle class="sym" cx="0" cy="0" r="3" /><text class="lab rgt" transform="translate(3 -7.0)">15</text></g><path class="edge" d="M 0 0 V -38.0758 H -31.5" /><circle class="sym" cx="0" cy="0" r="3" /><text class="lab rgt" transform="translate(3 -7.0)">20</text></g><circle class="sym" cx="0" cy="0" r="3" /><text class="lab" transform="translate(0 -11)">21</text></g></g></g><g class="tree t1" transform="translate(200 0)"><g class="plotbox"><g class="c2 node n21 p0 root" transform="translate(102.688 26.8)"><g class="a21 c2 node n19 p0" transform="translate(-32.8125 52.1433)"><g class="a19 c2 node n17 p0" transform="translate(25.375 30.1974)"><g class="a17 leaf node n9 p0 sample" transform="translate(15.75 12.2593)"><path class="edge" d="M 0 0 V -12.2593 H -15.75" /><rect class="sym" height="6" width="6" x="-3" y="-3" /><text class="lab" transform="translate(0 11)">9</text></g><g class="a17 c2 node n14 p0" transform="translate(-15.75 2.28301)"><g class="a14 leaf node n4 p0 sample" transform="translate(-10.5 9.97632)"><path class="edge" d="M 0 0 V -9.97632 H 10.5" /><rect class="sym" height="6" width="6" x="-3" y="-3" /><text class="lab" transform="translate(0 11)">4</text></g><g class="a14 c2 node n13 p0" transform="translate(10.5 0.620971)"><g class="a13 leaf node n7 p0 sample" transform="translate(-7 9.35535)"><path class="edge" d="M 0 0 V -9.35535 H 7" /><rect class="sym" height="6" width="6" x="-3" y="-3" /><text class="lab" transform="translate(0 11)">7</text></g><g class="a13 leaf node n8 p0 sample" transform="translate(7 9.35535)"><path class="edge" d="M 0 0 V -9.35535 H -7" /><rect class="sym" height="6" width="6" x="-3" y="-3" /><text class="lab" transform="translate(0 11)">8</text></g><path class="edge" d="M 0 0 V -0.620971 H -10.5" /><circle class="sym" cx="0" cy="0" r="3" /><text class="lab rgt" transform="translate(3 -7.0)">13</text></g><path class="edge" d="M 0 0 V -2.28301 H 15.75" /><circle class="sym" cx="0" cy="0" r="3" /><text class="lab lft" transform="translate(-3 -7.0)">14</text></g><path class="edge" d="M 0 0 V -30.1974 H -25.375" /><circle class="sym" cx="0" cy="0" r="3" /><text class="lab rgt" transform="translate(3 -7.0)">17</text></g><g class="a19 c1 node n18 p0" transform="translate(-25.375 16.5231)"><g class="a18 c2 node n16 p0" transform="translate(0.0 14.3975)"><g class="a16 leaf node n6 p0 sample" transform="translate(10.5 11.5361)"><path class="edge" d="M 0 0 V -11.5361 H -10.5" /><rect class="sym" height="6" width="6" x="-3" y="-3" /><text class="lab" transform="translate(0 11)">6</text></g><g class="a16 c2 node n12 p0" transform="translate(-10.5 5.57498)"><g class="a12 leaf node n0 p0 sample" transform="translate(-7 5.96113)"><path class="edge" d="M 0 0 V -5.96113 H 7" /><rect class="sym" height="6" width="6" x="-3" y="-3" /><text class="lab" transform="translate(0 11)">0</text></g><g class="a12 leaf node n2 p0 sample" transform="translate(7 5.96113)"><path class="edge" d="M 0 0 V -5.96113 H -7" /><rect class="sym" height="6" width="6" x="-3" y="-3" /><text class="lab" transform="translate(0 11)">2</text></g><path class="edge" d="M 0 0 V -5.57498 H 10.5" /><circle class="sym" cx="0" cy="0" r="3" /><text class="lab lft" transform="translate(-3 -7.0)">12</text></g><path class="edge" d="M 0 0 V -14.3975 H 0.0" /><circle class="sym" cx="0" cy="0" r="3" /><text class="lab lft" transform="translate(-3 -7.0)">16</text></g><path class="edge" d="M 0 0 V -16.5231 H 25.375" /><circle class="sym" cx="0" cy="0" r="3" /><text class="lab lft" transform="translate(-3 -7.0)">18</text></g><path class="edge" d="M 0 0 V -52.1433 H 32.8125" /><circle class="sym" cx="0" cy="0" r="3" /><text class="lab lft" transform="translate(-3 -7.0)">19</text></g><g class="a21 c2 node n20 p0" transform="translate(32.8125 38.0758)"><g class="a20 leaf node n1 p0 sample" transform="translate(-10.5 56.5242)"><path class="edge" d="M 0 0 V -56.5242 H 10.5" /><rect class="sym" height="6" width="6" x="-3" y="-3" /><text class="lab" transform="translate(0 11)">1</text></g><g class="a20 c2 node n15 p0" transform="translate(10.5 45.4242)"><g class="a15 leaf node n5 p0 sample" transform="translate(7 11.1001)"><path class="edge" d="M 0 0 V -11.1001 H -7" /><rect class="sym" height="6" width="6" x="-3" y="-3" /><text class="lab" transform="translate(0 11)">5</text></g><g class="a15 c1 node n11 p0" transform="translate(-7 6.63233)"><g class="a11 leaf node n3 p0 sample" transform="translate(0.0 4.46776)"><path class="edge" d="M 0 0 V -4.46776 H 0.0" /><rect class="sym" height="6" width="6" x="-3" y="-3" /><text class="lab" transform="translate(0 11)">3</text></g><path class="edge" d="M 0 0 V -6.63233 H 7" /><circle class="sym" cx="0" cy="0" r="3" /><text class="lab lft" transform="translate(-3 -7.0)">11</text></g><path class="edge" d="M 0 0 V -45.4242 H -10.5" /><circle class="sym" cx="0" cy="0" r="3" /><text class="lab rgt" transform="translate(3 -7.0)">15</text></g><path class="edge" d="M 0 0 V -38.0758 H -32.8125" /><circle class="sym" cx="0" cy="0" r="3" /><text class="lab rgt" transform="translate(3 -7.0)">20</text></g><circle class="sym" cx="0" cy="0" r="3" /><text class="lab" transform="translate(0 -11)">21</text></g></g></g></g></g></svg>
