<svg baseProfile="full" height="200" version="1.1" width="800" xmlns="http://www.w3.org/2000/svg" xmlns:ev="http://www.w3.org/2001/xml-events" xmlns:xlink="http://www.w3.org/1999/xlink"><defs><style type="text/css"><![CDATA[.background path {fill: #808080; fill-opacity: 0}.background path:nth-child(odd) {fill-opacity: .1}.axes {font-size: 14px}.x-axis .tick .lab {font-weight: bold; dominant-baseline: hanging}.axes, .tree {font-size: 14px; text-anchor: middle}.axes line, .edge {stroke: black; fill: none}.y-axis .grid {stroke: #FAFAFA}.node > .sym {fill: black; stroke: none}.site > .sym {stroke: black}.mut text {fill: red; font-style: italic}.mut.extra text {fill: hotpink}.mut line {fill: none; stroke: none}.mut .sym {fill: none; stroke: red}.mut.extra .sym {stroke: hotpink}.node .mut .sym {stroke-width: 1.5px}.tree text, .tree-sequence text {dominant-baseline: central}.plotbox .lab.lft {text-anchor: end}.plotbox .lab.rgt {text-anchor: start}]]></style></defs><g class="tree-sequence"><g class="background"><path d="M20,0 l190,0 l0,138.2 l-182.279,25 l0,5 l-7.72131,0 l0,-5 l0,-25 l0,-138.2z" /><path d="M210,0 l190,0 l0,138.2 l-263.272,25 l0,5 l-109.006,0 l0,-5 l182.279,-25 l0,-138.2z" /><path d="M400,0 l190,0 l0,138.2 l66.4196,25 l0,5 l-519.692,0 l0,-5 l263.272,-25 l0,-138.2z" /><path d="M590,0 l190,0 l0,138.2 l0,25 l0,5 l-123.58,0 l0,-5 l-66.4196,-25 l0,-138.2z" /></g><g class="axes"><g class="x-axis"><g transform="translate(400 200)"><text class="lab" text-anchor="middle" transform="translate(0 -11)">Genome position</text></g><line x1="20" x2="780" y1="163.2" y2="163.2" /><g class="ticks"><g class="tick" transform="translate(20 163.2)"><line x1="0" x2="0" y1="0" y2="5" /><g transform="translate(0 6)"><text class="lab">0.00</text></g></g><g class="tick" transform="translate(27.7213 163.2)"><line x1="0" x2="0" y1="0" y2="5" /><g transform="translate(0 6)"><text class="lab">10.16</text></g></g><g class="tick" transform="translate(136.728 163.2)"><line x1="0" x2="0" y1="0" y2="5" /><g transform="translate(0 6)"><text class="lab">153.59</text></g></g><g class="tick" transform="translate(656.42 163.2)"><line x1="0" x2="0" y1="0" y2="5" /><g transform="translate(0 6)"><text class="lab">837.39</text></g></g><g class="tick" transform="translate(780 163.2)"><line x1="0" x2="0" y1="0" y2="5" /><g transform="translate(0 6)"><text class="lab">1000.00</text></g></g></g></g></g><g class="plotbox trees"><g class="tree t0" transform="translate(20 0)"><g class="plotbox"><g class="c2 node n27 p0 root" transform="translate(103.438 26.8)"><g class="a27 c2 node n25 p0" transform="translate(-42.1875 48.2592)"><g class="a25 c1 node n22 p0" transform="translate(22.5 1.96109)"><g class="a22 c2 node n14 p0" transform="translate(0.0 35.9392)"><g class="a14 c2 node n11 p0" transform="translate(11.25 0.782305)"><g class="a11 leaf node n8 p0 sample" transform="translate(-7.5 7.65826)"><path class="edge" d="M 0 0 V -7.65826 H 7.5" /><rect class="sym" height="6" width="6" x="-3" y="-3" /><text class="lab" transform="translate(0 11)">8</text></g><g class="a11 leaf node n9 p0 sample" transform="translate(7.5 7.65826)"><path class="edge" d="M 0 0 V -7.65826 H -7.5" /><rect class="sym" height="6" width="6" x="-3" y="-3" /><text class="lab" transform="translate(0 11)">9</text></g><path class="edge" d="M 0 0 V -0.782305 H -11.25" /><circle class="sym" cx="0" cy="0" r="3" /><text class="lab rgt" transform="translate(3 -7.0)">11</text></g><g class="a14 c1 node n12 p0" transform="translate(-11.25 0.640586)"><g class="a12 leaf node n4 p0 sample" transform="translate(0.0 7.79998)"><path class="edge" d="M 0 0 V -7.79998 H 0.0" /><rect class="sym" height="6" width="6" x="-3" y="-3" /><text class="lab" transform="translate(0 11)">4</text></g><path class="edge" d="M 0 0 V -0.640586 H 11.25" /><circle class="sym" cx="0" cy="0" r="3" /><text class="lab lft" transform="translate(-3 -7.0)">12</text></g><path class="edge" d="M 0 0 V -35.9392 H 0.0" /><circle class="sym" cx="0" cy="0" r="3" /><text class="lab lft" transform="translate(-3 -7.0)">14</text></g><path class="edge" d="M 0 0 V -1.96109 H -22.5" /><circle class="sym" cx="0" cy="0" r="3" /><text class="lab rgt" transform="translate(3 -7.0)">22</text></g><g class="a25 c1 node n24 p0" transform="translate(-22.5 1.68927)"><g class="a24 c2 node n20 p0" transform="translate(0.0 28.1972)"><g class="a20 c1 node n15 p0" transform="translate(-11.25 7.15039)"><g class="a15 leaf node n0 p0 sample" transform="translate(0.0 9.30393)"><path class="edge" d="M 0 0 V -9.30393 H 0.0" /><rect class="sym" height="6" width="6" x="-3" y="-3" /><text class="lab" transform="translate(0 11)">0</text></g><path class="edge" d="M 0 0 V -7.15039 H 11.25" /><circle class="sym" cx="0" cy="0" r="3" /><text class="lab lft" transform="translate(-3 -7.0)">15</text></g><g class="a20 c1 node n18 p0" transform="translate(11.25 5.68536)"><g class="a18 c2 node n17 p0" transform="translate(0.0 0.603478)"><g class="a17 leaf node n6 p0 sample" transform="translate(-7.5 10.1655)"><path class="edge" d="M 0 0 V -10.1655 H 7.5" /><rect class="sym" height="6" width="6" x="-3" y="-3" /><text class="lab" transform="translate(0 11)">6</text></g><g class="a17 leaf node n7 p0 sample" transform="translate(7.5 10.1655)"><path class="edge" d="M 0 0 V -10.1655 H -7.5" /><rect class="sym" height="6" width="6" x="-3" y="-3" /><text class="lab" transform="translate(0 11)">7</text></g><path class="edge" d="M 0 0 V -0.603478 H 0.0" /><circle class="sym" cx="0" cy="0" r="3" /><text class="lab lft" transform="translate(-3 -7.0)">17</text></g><path class="edge" d="M 0 0 V -5.68536 H -11.25" /><circle class="sym" cx="0" cy="0" r="3" /><text class="lab rgt" transform="translate(3 -7.0)">18</text></g><path class="edge" d="M 0 0 V -28.1972 H 0.0" /><circle class="sym" cx="0" cy="0" r="3" /><text class="lab lft" transform="translate(-3 -7.0)">20</text></g><path class="edge" d="M 0 0 V -1.68927 H 22.5" /><circle class="sym" cx="0" cy="0" r="3" /><text class="lab lft" transform="translate(-3 -7.0)">24</text></g><path class="edge" d="M 0 0 V -48.2592 H 42.1875" /><circle class="sym" cx="0" cy="0" r="3" /><text class="lab lft" transform="translate(-3 -7.0)">25</text></g><g class="a27 c2 node n26 p0" transform="translate(42.1875 13.5673)"><g class="a26 leaf node n2 p0 sample" transform="translate(16.875 81.0327)"><path class="edge" d="M 0 0 V -81.0327 H -16.875" /><rect class="sym" height="6" width="6" x="-3" y="-3" /><text class="lab" transform="translate(0 11)">2</text></g><g class="a26 c1 node n21 p0" transform="translate(-16.875 63.4952)"><g class="a21 c2 node n19 p0" transform="translate(0.0 2.85899)"><g class="a19 leaf node n1 p0 sample" transform="translate(-11.25 14.6786)"><path class="edge" d="M 0 0 V -14.6786 H 11.25" /><rect class="sym" height="6" width="6" x="-3" y="-3" /><text class="lab" transform="translate(0 11)">1</text></g><g class="a19 c2 node n10 p0" transform="translate(11.25 9.96599)"><g class="a10 leaf node n3 p0 sample" transform="translate(-7.5 4.71262)"><path class="edge" d="M 0 0 V -4.71262 H 7.5" /><rect class="sym" height="6" width="6" x="-3" y="-3" /><text class="lab" transform="translate(0 11)">3</text></g><g class="a10 leaf node n5 p0 sample" transform="translate(7.5 4.71262)"><path class="edge" d="M 0 0 V -4.71262 H -7.5" /><rect class="sym" height="6" width="6" x="-3" y="-3" /><text class="lab" transform="translate(0 11)">5</text></g><path class="edge" d="M 0 0 V -9.96599 H -11.25" /><circle class="sym" cx="0" cy="0" r="3" /><text class="lab rgt" transform="translate(3 -7.0)">10</text></g><path class="edge" d="M 0 0 V -2.85899 H 0.0" /><circle class="sym" cx="0" cy="0" r="3" /><text class="lab lft" transform="translate(-3 -7.0)">19</text></g><path class="edge" d="M 0 0 V -63.4952 H 16.875" /><circle class="sym" cx="0" cy="0" r="3" /><text class="lab lft" transform="translate(-3 -7.0)">21</text></g><path class="edge" d="M 0 0 V -13.5673 H -42.1875" /><circle class="sym" cx="0" cy="0" r="3" /><text class="lab rgt" transform="translate(3 -7.0)">26</text></g><circle class="sym" cx="0" cy="0" r="3" /><text class="lab" transform="translate(0 -11)">27</text></g></g></g><g class="tree t1" transform="translate(210 0)"><g class="plotbox"><g class="c2 node n27 p0 root" transform="translate(106.719 26.8)"><g class="a27 c2 node n25 p0" transform="translate(-38.9062 48.2592)"><g class="a25 c1 node n22 p0" transform="translate(27.1875 1.96109)"><g class="a22 c1 node n14 p0" transform="translate(0.0 35.9392)"><g class="a14 c2 node n11 p0" transform="translate(0.0 0.782305)"><g class="a11 leaf node n8 p0 sample" transform="translate(-7.5 7.65826)"><path class="edge" d="M 0 0 V -7.65826 H 7.5" /><rect class="sym" height="6" width="6" x="-3" y="-3" /><text class="lab" transform="translate(0 11)">8</text></g><g class="a11 leaf node n9 p0 sample" transform="translate(7.5 7.65826)"><path class="edge" d="M 0 0 V -7.65826 H -7.5" /><rect class="sym" height="6" width="6" x="-3" y="-3" /><text class="lab" transform="translate(0 11)">9</text></g><path class="edge" d="M 0 0 V -0.782305 H 0.0" /><circle class="sym" cx="0" cy="0" r="3" /><text class="lab lft" transform="translate(-3 -7.0)">11</text></g><path class="edge" d="M 0 0 V -35.9392 H 0.0" /><circle class="sym" cx="0" cy="0" r="3" /><text class="lab lft" transform="translate(-3 -7.0)">14</text></g><path class="edge" d="M 0 0 V -1.96109 H -27.1875" /><circle class="sym" cx="0" cy="0" r="3" /><text class="lab rgt" transform="translate(3 -7.0)">22</text></g><g class="a25 c1 node n24 p0" transform="translate(-27.1875 1.68927)"><g class="a24 c2 node n20 p0" transform="translate(0.0 28.1972)"><g class="a20 c1 node n15 p0" transform="translate(-13.125 7.15039)"><g class="a15 leaf node n0 p0 sample" transform="translate(0.0 9.30393)"><path class="edge" d="M 0 0 V -9.30393 H 0.0" /><rect class="sym" height="6" width="6" x="-3" y="-3" /><text class="lab" transform="translate(0 11)">0</text></g><path class="edge" d="M 0 0 V -7.15039 H 13.125" /><circle class="sym" cx="0" cy="0" r="3" /><text class="lab lft" transform="translate(-3 -7.0)">15</text></g><g class="a20 c2 node n18 p0" transform="translate(13.125 5.68536)"><g class="a18 c2 node n17 p0" transform="translate(11.25 0.603478)"><g class="a17 leaf node n6 p0 sample" transform="translate(-7.5 10.1655)"><path class="edge" d="M 0 0 V -10.1655 H 7.5" /><rect class="sym" height="6" width="6" x="-3" y="-3" /><text class="lab" transform="translate(0 11)">6</text></g><g class="a17 leaf node n7 p0 sample" transform="translate(7.5 10.1655)"><path class="edge" d="M 0 0 V -10.1655 H -7.5" /><rect class="sym" height="6" width="6" x="-3" y="-3" /><text class="lab" transform="translate(0 11)">7</text></g><path class="edge" d="M 0 0 V -0.603478 H -11.25" /><circle class="sym" cx="0" cy="0" r="3" /><text class="lab rgt" transform="translate(3 -7.0)">17</text></g><g class="a18 c1 node n13 p0" transform="translate(-11.25 2.96898)"><g class="a13 leaf node n4 p0 sample" transform="translate(0.0 7.79998)"><path class="edge" d="M 0 0 V -7.79998 H 0.0" /><rect class="sym" height="6" width="6" x="-3" y="-3" /><text class="lab" transform="translate(0 11)">4</text></g><path class="edge" d="M 0 0 V -2.96898 H 11.25" /><circle class="sym" cx="0" cy="0" r="3" /><text class="lab lft" transform="translate(-3 -7.0)">13</text></g><path class="edge" d="M 0 0 V -5.68536 H -13.125" /><circle class="sym" cx="0" cy="0" r="3" /><text class="lab rgt" transform="translate(3 -7.0)">18</text></g><path class="edge" d="M 0 0 V -28.1972 H 0.0" /><circle class="sym" cx="0" cy="0" r="3" /><text class="lab lft" transform="translate(-3 -7.0)">20</text></g><path class="edge" d="M 0 0 V -1.68927 H 27.1875" /><circle class="sym" cx="0" cy="0" r="3" /><text class="lab lft" transform="translate(-3 -7.0)">24</text></g><path class="edge" d="M 0 0 V -48.2592 H 38.9062" /><circle class="sym" cx="0" cy="0" r="3" /><text class="lab lft" transform="translate(-3 -7.0)">25</text></g><g class="a27 c2 node n26 p0" transform="translate(38.9062 13.5673)"><g class="a26 leaf node n2 p0 sample" transform="translate(16.875 81.0327)"><path class="edge" d="M 0 0 V -81.0327 H -16.875" /><rect class="sym" height="6" width="6" x="-3" y="-3" /><text class="lab" transform="translate(0 11)">2</text></g><g class="a26 c1 node n21 p0" transform="translate(-16.875 63.4952)"><g class="a21 c2 node n19 p0" transform="translate(0.0 2.85899)"><g class="a19 leaf node n1 p0 sample" transform="translate(-11.25 14.6786)"><path class="edge" d="M 0 0 V -14.6786 H 11.25" /><rect class="sym" height="6" width="6" x="-3" y="-3" /><text class="lab" transform="translate(0 11)">1</text></g><g class="a19 c2 node n10 p0" transform="translate(11.25 9.96599)"><g class="a10 leaf node n3 p0 sample" transform="translate(-7.5 4.71262)"><path class="edge" d="M 0 0 V -4.71262 H 7.5" /><rect class="sym" height="6" width="6" x="-3" y="-3" /><text class="lab" transform="translate(0 11)">3</text></g><g class="a10 leaf node n5 p0 sample" transform="translate(7.5 4.71262)"><path class="edge" d="M 0 0 V -4.71262 H -7.5" /><rect class="sym" height="6" width="6" x="-3" y="-3" /><text class="lab" transform="translate(0 11)">5</text></g><path class="edge" d="M 0 0 V -9.96599 H -11.25" /><circle class="sym" cx="0" cy="0" r="3" /><text class="lab rgt" transform="translate(3 -7.0)">10</text></g><path class="edge" d="M 0 0 V -2.85899 H 0.0" /><circle class="sym" cx="0" cy="0" r="3" /><text class="lab lft" transform="translate(-3 -7.0)">19</text></g><path class="edge" d="M 0 0 V -63.4952 H 16.875" /><circle class="sym" cx="0" cy="0" r="3" /><text class="lab lft" transform="translate(-3 -7.0)">21</text></g><path class="edge" d="M 0 0 V -13.5673 H -38.9062" /><circle class="sym" cx="0" cy="0" r="3" /><text class="lab rgt" transform="translate(3 -7.0)">26</text></g><circle class="sym" cx="0" cy="0" r="3" /><text class="lab" transform="translate(0 -11)">27</text></g></g></g><g class="tree t2" transform="translate(400 0)"><g class="plotbox"><g class="c2 node n27 p0 root" transform="translate(106.719 26.8)"><g class="a27 c1 node n25 p0" transform="translate(-38.9062 48.2592)"><g class="a25 c2 node n24 p0" transform="translate(0.0 1.68927)"><g class="a24 c2 node n20 p0" transform="translate(-27.1875 28.1972)"><g class="a20 c1 node n15 p0" transform="translate(-13.125 7.15039)"><g class="a15 leaf node n0 p0 sample" transform="translate(0.0 9.30393)"><path class="edge" d="M 0 0 V -9.30393 H 0.0" /><rect class="sym" height="6" width="6" x="-3" y="-3" /><text class="lab" transform="translate(0 11)">0</text></g><path class="edge" d="M 0 0 V -7.15039 H 13.125" /><circle class="sym" cx="0" cy="0" r="3" /><text class="lab lft" transform="translate(-3 -7.0)">15</text></g><g class="a20 c2 node n18 p0" transform="translate(13.125 5.68536)"><g class="a18 c2 node n17 p0" transform="translate(11.25 0.603478)"><g class="a17 leaf node n6 p0 sample" transform="translate(-7.5 10.1655)"><path class="edge" d="M 0 0 V -10.1655 H 7.5" /><rect class="sym" height="6" width="6" x="-3" y="-3" /><text class="lab" transform="translate(0 11)">6</text></g><g class="a17 leaf node n7 p0 sample" transform="translate(7.5 10.1655)"><path class="edge" d="M 0 0 V -10.1655 H -7.5" /><rect class="sym" height="6" width="6" x="-3" y="-3" /><text class="lab" transform="translate(0 11)">7</text></g><path class="edge" d="M 0 0 V -0.603478 H -11.25" /><circle class="sym" cx="0" cy="0" r="3" /><text class="lab rgt" transform="translate(3 -7.0)">17</text></g><g class="a18 c1 node n13 p0" transform="translate(-11.25 2.96898)"><g class="a13 leaf node n4 p0 sample" transform="translate(0.0 7.79998)"><path class="edge" d="M 0 0 V -7.79998 H 0.0" /><rect class="sym" height="6" width="6" x="-3" y="-3" /><text class="lab" transform="translate(0 11)">4</text></g><path class="edge" d="M 0 0 V -2.96898 H 11.25" /><circle class="sym" cx="0" cy="0" r="3" /><text class="lab lft" transform="translate(-3 -7.0)">13</text></g><path class="edge" d="M 0 0 V -5.68536 H -13.125" /><circle class="sym" cx="0" cy="0" r="3" /><text class="lab rgt" transform="translate(3 -7.0)">18</text></g><path class="edge" d="M 0 0 V -28.1972 H 27.1875" /><circle class="sym" cx="0" cy="0" r="3" /><text class="lab lft" transform="translate(-3 -7.0)">20</text></g><g class="a24 c1 node n23 p0" transform="translate(27.1875 0.271822)"><g class="a23 c1 node n14 p0" transform="translate(0.0 35.9392)"><g class="a14 c2 node n11 p0" transform="translate(0.0 0.782305)"><g class="a11 leaf node n8 p0 sample" transform="translate(-7.5 7.65826)"><path class="edge" d="M 0 0 V -7.65826 H 7.5" /><rect class="sym" height="6" width="6" x="-3" y="-3" /><text class="lab" transform="translate(0 11)">8</text></g><g class="a11 leaf node n9 p0 sample" transform="translate(7.5 7.65826)"><path class="edge" d="M 0 0 V -7.65826 H -7.5" /><rect class="sym" height="6" width="6" x="-3" y="-3" /><text class="lab" transform="translate(0 11)">9</text></g><path class="edge" d="M 0 0 V -0.782305 H 0.0" /><circle class="sym" cx="0" cy="0" r="3" /><text class="lab lft" transform="translate(-3 -7.0)">11</text></g><path class="edge" d="M 0 0 V -35.9392 H 0.0" /><circle class="sym" cx="0" cy="0" r="3" /><text class="lab lft" transform="translate(-3 -7.0)">14</text></g><path class="edge" d="M 0 0 V -0.271822 H -27.1875" /><circle class="sym" cx="0" cy="0" r="3" /><text class="lab rgt" transform="translate(3 -7.0)">23</text></g><path class="edge" d="M 0 0 V -1.68927 H 0.0" /><circle class="sym" cx="0" cy="0" r="3" /><text class="lab lft" transform="translate(-3 -7.0)">24</text></g><path class="edge" d="M 0 0 V -48.2592 H 38.9062" /><circle class="sym" cx="0" cy="0" r="3" /><text class="lab lft" transform="translate(-3 -7.0)">25</text></g><g class="a27 c2 node n26 p0" transform="translate(38.9062 13.5673)"><g class="a26 leaf node n2 p0 sample" transform="translate(16.875 81.0327)"><path class="edge" d="M 0 0 V -81.0327 H -16.875" /><rect class="sym" height="6" width="6" x="-3" y="-3" /><text class="lab" transform="translate(0 11)">2</text></g><g class="a26 c1 node n21 p0" transform="translate(-16.875 63.4952)"><g class="a21 c2 node n19 p0" transform="translate(0.0 2.85899)"><g class="a19 leaf node n1 p0 sample" transform="translate(-11.25 14.6786)"><path class="edge" d="M 0 0 V -14.6786 H 11.25" /><rect class="sym" height="6" width="6" x="-3" y="-3" /><text class="lab" transform="translate(0 11)">1</text></g><g class="a19 c2 node n10 p0" transform="translate(11.25 9.96599)"><g class="a10 leaf node n3 p0 sample" transform="translate(-7.5 4.71262)"><path class="edge" d="M 0 0 V -4.71262 H 7.5" /><rect class="sym" height="6" width="6" x="-3" y="-3" /><text class="lab" transform="translate(0 11)">3</text></g><g class="a10 leaf node n5 p0 sample" transform="translate(7.5 4.71262)"><path class="edge" d="M 0 0 V -4.71262 H -7.5" /><rect class="sym" height="6" width="6" x="-3" y="-3" /><text class="lab" transform="translate(0 11)">5</text></g><path class="edge" d="M 0 0 V -9.96599 H -11.25" /><circle class="sym" cx="0" cy="0" r="3" /><text class="lab rgt" transform="translate(3 -7.0)">10</text></g><path class="edge" d="M 0 0 V -2.85899 H 0.0" /><circle class="sym" cx="0" cy="0" r="3" /><text class="lab lft" transform="translate(-3 -7.0)">19</text></g><path class="edge" d="M 0 0 V -63.4952 H 16.875" /><circle class="sym" cx="0" cy="0" r="3" /><text class="lab lft" transform="translate(-3 -7.0)">21</text></g><path class="edge" d="M 0 0 V -13.5673 H -38.9062" /><circle class="sym" cx="0" cy="0" r="3" /><text class="lab rgt" transform="translate(3 -7.0)">26</text></g><circle class="sym" cx="0" cy="0" r="3" /><text class="lab" transform="translate(0 -11)">27</text></g></g></g><g class="tree t3" transform="translate(590 0)"><g class="plotbox"><g class="c2 node n27 p0 root" transform="translate(99.2188 26.8)"><g class="a27 c1 node n25 p0" transform="translate(35.1562 48.2592)"><g class="a25 c2 node n24 p0" transform="translate(0.0 1.68927)"><g class="a24 c1 node n20 p0" transform="translate(-20.625 28.1972)"><g class="a20 c2 node n18 p0" transform="translate(0.0 5.68536)"><g class="a18 c2 node n17 p0" transform="translate(11.25 0.603478)"><g class="a17 leaf node n6 p0 sample" transform="translate(-7.5 10.1655)"><path class="edge" d="M 0 0 V -10.1655 H 7.5" /><rect class="sym" height="6" width="6" x="-3" y="-3" /><text class="lab" transform="translate(0 11)">6</text></g><g class="a17 leaf node n7 p0 sample" transform="translate(7.5 10.1655)"><path class="edge" d="M 0 0 V -10.1655 H -7.5" /><rect class="sym" height="6" width="6" x="-3" y="-3" /><text class="lab" transform="translate(0 11)">7</text></g><path class="edge" d="M 0 0 V -0.603478 H -11.25" /><circle class="sym" cx="0" cy="0" r="3" /><text class="lab rgt" transform="translate(3 -7.0)">17</text></g><g class="a18 c1 node n13 p0" transform="translate(-11.25 2.96898)"><g class="a13 leaf node n4 p0 sample" transform="translate(0.0 7.79998)"><path class="edge" d="M 0 0 V -7.79998 H 0.0" /><rect class="sym" height="6" width="6" x="-3" y="-3" /><text class="lab" transform="translate(0 11)">4</text></g><path class="edge" d="M 0 0 V -2.96898 H 11.25" /><circle class="sym" cx="0" cy="0" r="3" /><text class="lab lft" transform="translate(-3 -7.0)">13</text></g><path class="edge" d="M 0 0 V -5.68536 H 0.0" /><circle class="sym" cx="0" cy="0" r="3" /><text class="lab lft" transform="translate(-3 -7.0)">18</text></g><path class="edge" d="M 0 0 V -28.1972 H 20.625" /><circle class="sym" cx="0" cy="0" r="3" /><text class="lab lft" transform="translate(-3 -7.0)">20</text></g><g class="a24 c1 node n23 p0" transform="translate(20.625 0.271822)"><g class="a23 c1 node n14 p0" transform="translate(0.0 35.9392)"><g class="a14 c2 node n11 p0" transform="translate(0.0 0.782305)"><g class="a11 leaf node n8 p0 sample" transform="translate(-7.5 7.65826)"><path class="edge" d="M 0 0 V -7.65826 H 7.5" /><rect class="sym" height="6" width="6" x="-3" y="-3" /><text class="lab" transform="translate(0 11)">8</text></g><g class="a11 leaf node n9 p0 sample" transform="translate(7.5 7.65826)"><path class="edge" d="M 0 0 V -7.65826 H -7.5" /><rect class="sym" height="6" width="6" x="-3" y="-3" /><text class="lab" transform="translate(0 11)">9</text></g><path class="edge" d="M 0 0 V -0.782305 H 0.0" /><circle class="sym" cx="0" cy="0" r="3" /><text class="lab lft" transform="translate(-3 -7.0)">11</text></g><path class="edge" d="M 0 0 V -35.9392 H 0.0" /><circle class="sym" cx="0" cy="0" r="3" /><text class="lab lft" transform="translate(-3 -7.0)">14</text></g><path class="edge" d="M 0 0 V -0.271822 H -20.625" /><circle class="sym" cx="0" cy="0" r="3" /><text class="lab rgt" transform="translate(3 -7.0)">23</text></g><path class="edge" d="M 0 0 V -1.68927 H 0.0" /><circle class="sym" cx="0" cy="0" r="3" /><text class="lab lft" transform="translate(-3 -7.0)">24</text></g><path class="edge" d="M 0 0 V -48.2592 H -35.1562" /><circle class="sym" cx="0" cy="0" r="3" /><text class="lab rgt" transform="translate(3 -7.0)">25</text></g><g class="a27 c2 node n26 p0" transform="translate(-35.1562 13.5673)"><g class="a26 leaf node n2 p0 sample" transform="translate(23.4375 81.0327)"><path class="edge" d="M 0 0 V -81.0327 H -23.4375" /><rect class="sym" height="6" width="6" x="-3" y="-3" /><text class="lab" transform="translate(0 11)">2</text></g><g class="a26 c2 node n21 p0" transform="translate(-23.4375 63.4952)"><g class="a21 c2 node n19 p0" transform="translate(13.125 2.85899)"><g class="a19 leaf node n1 p0 sample" transform="translate(-11.25 14.6786)"><path class="edge" d="M 0 0 V -14.6786 H 11.25" /><rect class="sym" height="6" width="6" x="-3" y="-3" /><text class="lab" transform="translate(0 11)">1</text></g><g class="a19 c2 node n10 p0" transform="translate(11.25 9.96599)"><g class="a10 leaf node n3 p0 sample" transform="translate(-7.5 4.71262)"><path class="edge" d="M 0 0 V -4.71262 H 7.5" /><rect class="sym" height="6" width="6" x="-3" y="-3" /><text class="lab" transform="translate(0 11)">3</text></g><g class="a10 leaf node n5 p0 sample" transform="translate(7.5 4.71262)"><path class="edge" d="M 0 0 V -4.71262 H -7.5" /><rect class="sym" height="6" width="6" x="-3" y="-3" /><text class="lab" transform="translate(0 11)">5</text></g><path class="edge" d="M 0 0 V -9.96599 H -11.25" /><circle class="sym" cx="0" cy="0" r="3" /><text class="lab rgt" transform="translate(3 -7.0)">10</text></g><path class="edge" d="M 0 0 V -2.85899 H -13.125" /><circle class="sym" cx="0" cy="0" r="3" /><text class="lab rgt" transform="translate(3 -7.0)">19</text></g><g class="a21 c1 node n16 p0" transform="translate(-13.125 8.23366)"><g class="a16 leaf node n0 p0 sample" transform="translate(0.0 9.30393)"><path class="edge" d="M 0 0 V -9.30393 H 0.0" /><rect class="sym" height="6" width="6" x="-3" y="-3" /><text class="lab" transform="translate(0 11)">0</text></g><path class="edge" d="M 0 0 V -8.23366 H 13.125" /><circle class="sym" cx="0" cy="0" r="3" /><text class="lab lft" transform="translate(-3 -7.0)">16</text></g><path class="edge" d="M 0 0 V -63.4952 H 23.4375" /><circle class="sym" cx="0" cy="0" r="3" /><text class="lab lft" transform="translate(-3 -7.0)">21</text></g><path class="edge" d="M 0 0 V -13.5673 H 35.1562" /><circle class="sym" cx="0" cy="0" r="3" /><text class="lab lft" transform="translate(-3 -7.0)">26</text></g><circle class="sym" cx="0" cy="0" r="3" /><text class="lab" transform="translate(0 -11)">27</text></g></g></g></g></g></svg>
