<svg baseProfile="full" height="200" version="1.1" width="600" xmlns="http://www.w3.org/2000/svg" xmlns:ev="http://www.w3.org/2001/xml-events" xmlns:xlink="http://www.w3.org/1999/xlink"><defs><style type="text/css"><![CDATA[.background path {fill: #808080; fill-opacity: 0}.background path:nth-child(odd) {fill-opacity: .1}.axes {font-size: 14px}.x-axis .tick .lab {font-weight: bold; dominant-baseline: hanging}.axes, .tree {font-size: 14px; text-anchor: middle}.axes line, .edge {stroke: black; fill: none}.y-axis .grid {stroke: #FAFAFA}.node > .sym {fill: black; stroke: none}.site > .sym {stroke: black}.mut text {fill: red; font-style: italic}.mut.extra text {fill: hotpink}.mut line {fill: none; stroke: none}.mut .sym {fill: none; stroke: red}.mut.extra .sym {stroke: hotpink}.node .mut .sym {stroke-width: 1.5px}.tree text, .tree-sequence text {dominant-baseline: central}.plotbox .lab.lft {text-anchor: end}.plotbox .lab.rgt {text-anchor: start}]]></style></defs><g class="tree-sequence"><g class="background"><path d="M20,0 l186.667,0 l0,138.2 l-89.9834,25 l0,5 l-96.6833,0 l0,-5 l0,-25 l0,-138.2z" /><path d="M206.667,0 l186.667,0 l0,138.2 l145.262,25 l0,5 l-421.912,0 l0,-5 l89.9834,-25 l0,-138.2z" /><path d="M393.333,0 l186.667,0 l0,138.2 l0,25 l0,5 l-41.405,0 l0,-5 l-145.262,-25 l0,-138.2z" /></g><g class="axes"><g class="x-axis"><g transform="translate(300 200)"><text class="lab" text-anchor="middle" transform="translate(0 -11)">Genome position</text></g><line x1="20" x2="580" y1="163.2" y2="163.2" /><g class="ticks"><g class="tick" transform="translate(20 163.2)"><line x1="0" x2="0" y1="0" y2="5" /><g transform="translate(0 6)"><text class="lab">0.00</text></g></g><g class="tick" transform="translate(116.683 163.2)"><line x1="0" x2="0" y1="0" y2="5" /><g transform="translate(0 6)"><text class="lab">172.65</text></g></g><g class="tick" transform="translate(538.595 163.2)"><line x1="0" x2="0" y1="0" y2="5" /><g transform="translate(0 6)"><text class="lab">926.06</text></g></g><g class="tick" transform="translate(580 163.2)"><line x1="0" x2="0" y1="0" y2="5" /><g transform="translate(0 6)"><text class="lab">1000.00</text></g></g></g></g></g><g class="plotbox trees"><g class="tree t0" transform="translate(20 0)"><g class="plotbox"><g class="c2 node n24 p0 root" transform="translate(139.969 26.8)"><g class="a24 c2 node n22 p0" transform="translate(-19.3646 31.1421)"><g class="a22 leaf node n5 p0 sample" transform="translate(24.0625 63.4579)"><path class="edge" d="M 0 0 V -63.4579 H -24.0625" /><rect class="sym" height="6" width="6" x="-3" y="-3" /><text class="lab" transform="translate(0 11)">5</text></g><g class="a22 c2 node n20 p0" transform="translate(-24.0625 18.4054)"><g class="a20 leaf node n2 p0 sample" transform="translate(33.4583 45.0525)"><path class="edge" d="M 0 0 V -45.0525 H -33.4583" /><rect class="sym" height="6" width="6" x="-3" y="-3" /><text class="lab" transform="translate(0 11)">2</text></g><g class="a20 c2 node n17 p0" transform="translate(-33.4583 6.52085)"><g class="a17 c2 node n15 p0" transform="translate(28.4167 20.0452)"><g class="a15 c2 node n12 p0" transform="translate(16.5 18.1182)"><g class="a12 leaf node n4 p0 sample" transform="translate(-7.33333 0.368258)"><path class="edge" d="M 0 0 V -0.368258 H 7.33333" /><rect class="sym" height="6" width="6" x="-3" y="-3" /><text class="lab" transform="translate(0 11)">4</text></g><g class="a12 leaf node n8 p0 sample" transform="translate(7.33333 0.368258)"><path class="edge" d="M 0 0 V -0.368258 H -7.33333" /><rect class="sym" height="6" width="6" x="-3" y="-3" /><text class="lab" transform="translate(0 11)">8</text></g><path class="edge" d="M 0 0 V -18.1182 H -16.5" /><circle class="sym" cx="0" cy="0" r="3" /><text class="lab rgt" transform="translate(3 -7.0)">12</text></g><g class="a15 c2 node n14 p0" transform="translate(-16.5 1.19951)"><g class="a14 leaf node n7 p0 sample" transform="translate(11 17.287)"><path class="edge" d="M 0 0 V -17.287 H -11" /><rect class="sym" height="6" width="6" x="-3" y="-3" /><text class="lab" transform="translate(0 11)">7</text></g><g class="a14 c2 node n13 p0" transform="translate(-11 1.13245)"><g class="a13 leaf node n1 p0 sample" transform="translate(-7.33333 16.1545)"><path class="edge" d="M 0 0 V -16.1545 H 7.33333" /><rect class="sym" height="6" width="6" x="-3" y="-3" /><text class="lab" transform="translate(0 11)">1</text></g><g class="a13 leaf node n9 p0 sample" transform="translate(7.33333 16.1545)"><path class="edge" d="M 0 0 V -16.1545 H -7.33333" /><rect class="sym" height="6" width="6" x="-3" y="-3" /><text class="lab" transform="translate(0 11)">9</text></g><path class="edge" d="M 0 0 V -1.13245 H 11" /><circle class="sym" cx="0" cy="0" r="3" /><text class="lab lft" transform="translate(-3 -7.0)">13</text></g><path class="edge" d="M 0 0 V -1.19951 H 16.5" /><circle class="sym" cx="0" cy="0" r="3" /><text class="lab lft" transform="translate(-3 -7.0)">14</text></g><path class="edge" d="M 0 0 V -20.0452 H -28.4167" /><circle class="sym" cx="0" cy="0" r="3" /><text class="lab rgt" transform="translate(3 -7.0)">15</text></g><g class="a17 c2 node n16 p0" transform="translate(-28.4167 6.38235)"><g class="a16 leaf node n6 p0 sample" transform="translate(7.33333 32.1493)"><path class="edge" d="M 0 0 V -32.1493 H -7.33333" /><rect class="sym" height="6" width="6" x="-3" y="-3" /><text class="lab" transform="translate(0 11)">6</text></g><g class="a16 c1 node n10 p0" transform="translate(-7.33333 32.0244)"><g class="a10 leaf node n0 p0 sample" transform="translate(0.0 0.124946)"><path class="edge" d="M 0 0 V -0.124946 H 0.0" /><rect class="sym" height="6" width="6" x="-3" y="-3" /><text class="lab" transform="translate(0 11)">0</text></g><path class="edge" d="M 0 0 V -32.0244 H 7.33333" /><circle class="sym" cx="0" cy="0" r="3" /><text class="lab lft" transform="translate(-3 -7.0)">10</text></g><path class="edge" d="M 0 0 V -6.38235 H 28.4167" /><circle class="sym" cx="0" cy="0" r="3" /><text class="lab lft" transform="translate(-3 -7.0)">16</text></g><path class="edge" d="M 0 0 V -6.52085 H 33.4583" /><circle class="sym" cx="0" cy="0" r="3" /><text class="lab lft" transform="translate(-3 -7.0)">17</text></g><path class="edge" d="M 0 0 V -18.4054 H 24.0625" /><circle class="sym" cx="0" cy="0" r="3" /><text class="lab lft" transform="translate(-3 -7.0)">20</text></g><path class="edge" d="M 0 0 V -31.1421 H 19.3646" /><circle class="sym" cx="0" cy="0" r="3" /><text class="lab lft" transform="translate(-3 -7.0)">22</text></g><g class="a24 c1 node n23 p0" transform="translate(19.3646 5.88995)"><g class="a23 c1 node n21 p0" transform="translate(0.0 37.0713)"><g class="a21 leaf node n3 p0 sample" transform="translate(0.0 51.6387)"><path class="edge" d="M 0 0 V -51.6387 H 0.0" /><rect class="sym" height="6" width="6" x="-3" y="-3" /><text class="lab" transform="translate(0 11)">3</text></g><path class="edge" d="M 0 0 V -37.0713 H 0.0" /><circle class="sym" cx="0" cy="0" r="3" /><text class="lab lft" transform="translate(-3 -7.0)">21</text></g><path class="edge" d="M 0 0 V -5.88995 H -19.3646" /><circle class="sym" cx="0" cy="0" r="3" /><text class="lab rgt" transform="translate(3 -7.0)">23</text></g><circle class="sym" cx="0" cy="0" r="3" /><text class="lab" transform="translate(0 -11)">24</text></g></g></g><g class="tree t1" transform="translate(206.667 0)"><g class="plotbox"><g class="c2 node n24 p0 root" transform="translate(89.0938 26.8)"><g class="a24 c2 node n22 p0" transform="translate(54.4271 31.1421)"><g class="a22 leaf node n5 p0 sample" transform="translate(15.8125 63.4579)"><path class="edge" d="M 0 0 V -63.4579 H -15.8125" /><rect class="sym" height="6" width="6" x="-3" y="-3" /><text class="lab" transform="translate(0 11)">5</text></g><g class="a22 c2 node n20 p0" transform="translate(-15.8125 18.4054)"><g class="a20 leaf node n2 p0 sample" transform="translate(16.9583 45.0525)"><path class="edge" d="M 0 0 V -45.0525 H -16.9583" /><rect class="sym" height="6" width="6" x="-3" y="-3" /><text class="lab" transform="translate(0 11)">2</text></g><g class="a20 c2 node n17 p0" transform="translate(-16.9583 6.52085)"><g class="a17 c2 node n15 p0" transform="translate(-19.25 20.0452)"><g class="a15 c2 node n12 p0" transform="translate(16.5 18.1182)"><g class="a12 leaf node n4 p0 sample" transform="translate(-7.33333 0.368258)"><path class="edge" d="M 0 0 V -0.368258 H 7.33333" /><rect class="sym" height="6" width="6" x="-3" y="-3" /><text class="lab" transform="translate(0 11)">4</text></g><g class="a12 leaf node n8 p0 sample" transform="translate(7.33333 0.368258)"><path class="edge" d="M 0 0 V -0.368258 H -7.33333" /><rect class="sym" height="6" width="6" x="-3" y="-3" /><text class="lab" transform="translate(0 11)">8</text></g><path class="edge" d="M 0 0 V -18.1182 H -16.5" /><circle class="sym" cx="0" cy="0" r="3" /><text class="lab rgt" transform="translate(3 -7.0)">12</text></g><g class="a15 c2 node n14 p0" transform="translate(-16.5 1.19951)"><g class="a14 leaf node n7 p0 sample" transform="translate(11 17.287)"><path class="edge" d="M 0 0 V -17.287 H -11" /><rect class="sym" height="6" width="6" x="-3" y="-3" /><text class="lab" transform="translate(0 11)">7</text></g><g class="a14 c2 node n13 p0" transform="translate(-11 1.13245)"><g class="a13 leaf node n1 p0 sample" transform="translate(-7.33333 16.1545)"><path class="edge" d="M 0 0 V -16.1545 H 7.33333" /><rect class="sym" height="6" width="6" x="-3" y="-3" /><text class="lab" transform="translate(0 11)">1</text></g><g class="a13 leaf node n9 p0 sample" transform="translate(7.33333 16.1545)"><path class="edge" d="M 0 0 V -16.1545 H -7.33333" /><rect class="sym" height="6" width="6" x="-3" y="-3" /><text class="lab" transform="translate(0 11)">9</text></g><path class="edge" d="M 0 0 V -1.13245 H 11" /><circle class="sym" cx="0" cy="0" r="3" /><text class="lab lft" transform="translate(-3 -7.0)">13</text></g><path class="edge" d="M 0 0 V -1.19951 H 16.5" /><circle class="sym" cx="0" cy="0" r="3" /><text class="lab lft" transform="translate(-3 -7.0)">14</text></g><path class="edge" d="M 0 0 V -20.0452 H 19.25" /><circle class="sym" cx="0" cy="0" r="3" /><text class="lab lft" transform="translate(-3 -7.0)">15</text></g><g class="a17 c1 node n16 p0" transform="translate(19.25 6.38235)"><g class="a16 leaf node n6 p0 sample" transform="translate(0.0 32.1493)"><path class="edge" d="M 0 0 V -32.1493 H 0.0" /><rect class="sym" height="6" width="6" x="-3" y="-3" /><text class="lab" transform="translate(0 11)">6</text></g><path class="edge" d="M 0 0 V -6.38235 H -19.25" /><circle class="sym" cx="0" cy="0" r="3" /><text class="lab rgt" transform="translate(3 -7.0)">16</text></g><path class="edge" d="M 0 0 V -6.52085 H 16.9583" /><circle class="sym" cx="0" cy="0" r="3" /><text class="lab lft" transform="translate(-3 -7.0)">17</text></g><path class="edge" d="M 0 0 V -18.4054 H 15.8125" /><circle class="sym" cx="0" cy="0" r="3" /><text class="lab lft" transform="translate(-3 -7.0)">20</text></g><path class="edge" d="M 0 0 V -31.1421 H -54.4271" /><circle class="sym" cx="0" cy="0" r="3" /><text class="lab rgt" transform="translate(3 -7.0)">22</text></g><g class="a24 c1 node n23 p0" transform="translate(-54.4271 5.88995)"><g class="a23 c2 node n21 p0" transform="translate(0.0 37.0713)"><g class="a21 leaf node n3 p0 sample" transform="translate(7.33333 51.6387)"><path class="edge" d="M 0 0 V -51.6387 H -7.33333" /><rect class="sym" height="6" width="6" x="-3" y="-3" /><text class="lab" transform="translate(0 11)">3</text></g><g class="a21 c1 node n18 p0" transform="translate(-7.33333 10.9371)"><g class="a18 c1 node n11 p0" transform="translate(0.0 40.5766)"><g class="a11 leaf node n0 p0 sample" transform="translate(0.0 0.124946)"><path class="edge" d="M 0 0 V -0.124946 H 0.0" /><rect class="sym" height="6" width="6" x="-3" y="-3" /><text class="lab" transform="translate(0 11)">0</text></g><path class="edge" d="M 0 0 V -40.5766 H 0.0" /><circle class="sym" cx="0" cy="0" r="3" /><text class="lab lft" transform="translate(-3 -7.0)">11</text></g><path class="edge" d="M 0 0 V -10.9371 H 7.33333" /><circle class="sym" cx="0" cy="0" r="3" /><text class="lab lft" transform="translate(-3 -7.0)">18</text></g><path class="edge" d="M 0 0 V -37.0713 H 0.0" /><circle class="sym" cx="0" cy="0" r="3" /><text class="lab lft" transform="translate(-3 -7.0)">21</text></g><path class="edge" d="M 0 0 V -5.88995 H 54.4271" /><circle class="sym" cx="0" cy="0" r="3" /><text class="lab lft" transform="translate(-3 -7.0)">23</text></g><circle class="sym" cx="0" cy="0" r="3" /><text class="lab" transform="translate(0 -11)">24</text></g></g></g><g class="tree t2" transform="translate(393.333 0)"><g class="plotbox"><g class="c2 node n24 p0 root" transform="translate(89.0938 26.8)"><g class="a24 c2 node n22 p0" transform="translate(54.4271 31.1421)"><g class="a22 leaf node n5 p0 sample" transform="translate(15.8125 63.4579)"><path class="edge" d="M 0 0 V -63.4579 H -15.8125" /><rect class="sym" height="6" width="6" x="-3" y="-3" /><text class="lab" transform="translate(0 11)">5</text></g><g class="a22 c2 node n20 p0" transform="translate(-15.8125 18.4054)"><g class="a20 leaf node n2 p0 sample" transform="translate(16.9583 45.0525)"><path class="edge" d="M 0 0 V -45.0525 H -16.9583" /><rect class="sym" height="6" width="6" x="-3" y="-3" /><text class="lab" transform="translate(0 11)">2</text></g><g class="a20 c2 node n17 p0" transform="translate(-16.9583 6.52085)"><g class="a17 c2 node n15 p0" transform="translate(-19.25 20.0452)"><g class="a15 c2 node n12 p0" transform="translate(16.5 18.1182)"><g class="a12 leaf node n4 p0 sample" transform="translate(-7.33333 0.368258)"><path class="edge" d="M 0 0 V -0.368258 H 7.33333" /><rect class="sym" height="6" width="6" x="-3" y="-3" /><text class="lab" transform="translate(0 11)">4</text></g><g class="a12 leaf node n8 p0 sample" transform="translate(7.33333 0.368258)"><path class="edge" d="M 0 0 V -0.368258 H -7.33333" /><rect class="sym" height="6" width="6" x="-3" y="-3" /><text class="lab" transform="translate(0 11)">8</text></g><path class="edge" d="M 0 0 V -18.1182 H -16.5" /><circle class="sym" cx="0" cy="0" r="3" /><text class="lab rgt" transform="translate(3 -7.0)">12</text></g><g class="a15 c2 node n14 p0" transform="translate(-16.5 1.19951)"><g class="a14 leaf node n7 p0 sample" transform="translate(11 17.287)"><path class="edge" d="M 0 0 V -17.287 H -11" /><rect class="sym" height="6" width="6" x="-3" y="-3" /><text class="lab" transform="translate(0 11)">7</text></g><g class="a14 c2 node n13 p0" transform="translate(-11 1.13245)"><g class="a13 leaf node n1 p0 sample" transform="translate(-7.33333 16.1545)"><path class="edge" d="M 0 0 V -16.1545 H 7.33333" /><rect class="sym" height="6" width="6" x="-3" y="-3" /><text class="lab" transform="translate(0 11)">1</text></g><g class="a13 leaf node n9 p0 sample" transform="translate(7.33333 16.1545)"><path class="edge" d="M 0 0 V -16.1545 H -7.33333" /><rect class="sym" height="6" width="6" x="-3" y="-3" /><text class="lab" transform="translate(0 11)">9</text></g><path class="edge" d="M 0 0 V -1.13245 H 11" /><circle class="sym" cx="0" cy="0" r="3" /><text class="lab lft" transform="translate(-3 -7.0)">13</text></g><path class="edge" d="M 0 0 V -1.19951 H 16.5" /><circle class="sym" cx="0" cy="0" r="3" /><text class="lab lft" transform="translate(-3 -7.0)">14</text></g><path class="edge" d="M 0 0 V -20.0452 H 19.25" /><circle class="sym" cx="0" cy="0" r="3" /><text class="lab lft" transform="translate(-3 -7.0)">15</text></g><g class="a17 c1 node n16 p0" transform="translate(19.25 6.38235)"><g class="a16 leaf node n6 p0 sample" transform="translate(0.0 32.1493)"><path class="edge" d="M 0 0 V -32.1493 H 0.0" /><rect class="sym" height="6" width="6" x="-3" y="-3" /><text class="lab" transform="translate(0 11)">6</text></g><path class="edge" d="M 0 0 V -6.38235 H -19.25" /><circle class="sym" cx="0" cy="0" r="3" /><text class="lab rgt" transform="translate(3 -7.0)">16</text></g><path class="edge" d="M 0 0 V -6.52085 H 16.9583" /><circle class="sym" cx="0" cy="0" r="3" /><text class="lab lft" transform="translate(-3 -7.0)">17</text></g><path class="edge" d="M 0 0 V -18.4054 H 15.8125" /><circle class="sym" cx="0" cy="0" r="3" /><text class="lab lft" transform="translate(-3 -7.0)">20</text></g><path class="edge" d="M 0 0 V -31.1421 H -54.4271" /><circle class="sym" cx="0" cy="0" r="3" /><text class="lab rgt" transform="translate(3 -7.0)">22</text></g><g class="a24 c2 node n23 p0" transform="translate(-54.4271 5.88995)"><g class="a23 c1 node n21 p0" transform="translate(7.33333 37.0713)"><g class="a21 leaf node n3 p0 sample" transform="translate(0.0 51.6387)"><path class="edge" d="M 0 0 V -51.6387 H 0.0" /><rect class="sym" height="6" width="6" x="-3" y="-3" /><text class="lab" transform="translate(0 11)">3</text></g><path class="edge" d="M 0 0 V -37.0713 H -7.33333" /><circle class="sym" cx="0" cy="0" r="3" /><text class="lab rgt" transform="translate(3 -7.0)">21</text></g><g class="a23 c1 node n19 p0" transform="translate(-7.33333 48.0085)"><g class="a19 c1 node n11 p0" transform="translate(0.0 40.5766)"><g class="a11 leaf node n0 p0 sample" transform="translate(0.0 0.124946)"><path class="edge" d="M 0 0 V -0.124946 H 0.0" /><rect class="sym" height="6" width="6" x="-3" y="-3" /><text class="lab" transform="translate(0 11)">0</text></g><path class="edge" d="M 0 0 V -40.5766 H 0.0" /><circle class="sym" cx="0" cy="0" r="3" /><text class="lab lft" transform="translate(-3 -7.0)">11</text></g><path class="edge" d="M 0 0 V -48.0085 H 7.33333" /><circle class="sym" cx="0" cy="0" r="3" /><text class="lab lft" transform="translate(-3 -7.0)">19</text></g><path class="edge" d="M 0 0 V -5.88995 H 54.4271" /><circle class="sym" cx="0" cy="0" r="3" /><text class="lab lft" transform="translate(-3 -7.0)">23</text></g><circle class="sym" cx="0" cy="0" r="3" /><text class="lab" transform="translate(0 -11)">24</text></g></g></g></g></g></svg>
