<svg baseProfile="full" height="200" version="1.1" width="1000" xmlns="http://www.w3.org/2000/svg" xmlns:ev="http://www.w3.org/2001/xml-events" xmlns:xlink="http://www.w3.org/1999/xlink"><defs><style type="text/css"><![CDATA[.background path {fill: #808080; fill-opacity: 0}.background path:nth-child(odd) {fill-opacity: .1}.axes {font-size: 14px}.x-axis .tick .lab {font-weight: bold; dominant-baseline: hanging}.axes, .tree {font-size: 14px; text-anchor: middle}.axes line, .edge {stroke: black; fill: none}.y-axis .grid {stroke: #FAFAFA}.node > .sym {fill: black; stroke: none}.site > .sym {stroke: black}.mut text {fill: red; font-style: italic}.mut.extra text {fill: hotpink}.mut line {fill: none; stroke: none}.mut .sym {fill: none; stroke: red}.mut.extra .sym {stroke: hotpink}.node .mut .sym {stroke-width: 1.5px}.tree text, .tree-sequence text {dominant-baseline: central}.plotbox .lab.lft {text-anchor: end}.plotbox .lab.rgt {text-anchor: start}]]></style></defs><g class="tree-sequence"><g class="background"><path d="M20,0 l192,0 l0,138.2 l29.9262,25 l0,5 l-221.926,0 l0,-5 l0,-25 l0,-138.2z" /><path d="M212,0 l192,0 l0,138.2 l-103.152,25 l0,5 l-58.9223,0 l0,-5 l-29.9262,-25 l0,-138.2z" /><path d="M404,0 l192,0 l0,138.2 l-105.6,25 l0,5 l-189.551,0 l0,-5 l103.152,-25 l0,-138.2z" /><path d="M596,0 l192,0 l0,138.2 l-60.9659,25 l0,5 l-236.635,0 l0,-5 l105.6,-25 l0,-138.2z" /><path d="M788,0 l192,0 l0,138.2 l0,25 l0,5 l-252.966,0 l0,-5 l60.9659,-25 l0,-138.2z" /></g><g class="axes"><g class="x-axis"><g transform="translate(500 200)"><text class="lab" text-anchor="middle" transform="translate(0 -11)">Genome position</text></g><line x1="20" x2="980" y1="163.2" y2="163.2" /><g class="ticks"><g class="tick" transform="translate(20 163.2)"><line x1="0" x2="0" y1="0" y2="5" /><g transform="translate(0 6)"><text class="lab">0.00</text></g></g><g class="tick" transform="translate(241.926 163.2)"><line x1="0" x2="0" y1="0" y2="5" /><g transform="translate(0 6)"><text class="lab">231.17</text></g></g><g class="tick" transform="translate(300.848 163.2)"><line x1="0" x2="0" y1="0" y2="5" /><g transform="translate(0 6)"><text class="lab">292.55</text></g></g><g class="tick" transform="translate(490.4 163.2)"><line x1="0" x2="0" y1="0" y2="5" /><g transform="translate(0 6)"><text class="lab">490.00</text></g></g><g class="tick" transform="translate(727.034 163.2)"><line x1="0" x2="0" y1="0" y2="5" /><g transform="translate(0 6)"><text class="lab">736.49</text></g></g><g class="tick" transform="translate(980 163.2)"><line x1="0" x2="0" y1="0" y2="5" /><g transform="translate(0 6)"><text class="lab">1000.00</text></g></g></g></g></g><g class="plotbox trees"><g class="tree t0" transform="translate(20 0)"><g class="plotbox"><g class="c2 node n30 p0 root" transform="translate(108.35 26.8)"><g class="a30 c2 node n25 p0" transform="translate(-34.2 55.8458)"><g class="a25 c2 node n19 p0" transform="translate(-14.25 21.8072)"><g class="a19 leaf node n4 p0 sample" transform="translate(13.3 16.947)"><path class="edge" d="M 0 0 V -16.947 H -13.3" /><rect class="sym" height="6" width="6" x="-3" y="-3" /><text class="lab" transform="translate(0 11)">4</text></g><g class="a19 c2 node n16 p0" transform="translate(-13.3 10.9522)"><g class="a16 leaf node n3 p0 sample" transform="translate(11.4 5.99476)"><path class="edge" d="M 0 0 V -5.99476 H -11.4" /><rect class="sym" height="6" width="6" x="-3" y="-3" /><text class="lab" transform="translate(0 11)">3</text></g><g class="a16 c2 node n15 p0" transform="translate(-11.4 0.669928)"><g class="a15 leaf node n0 p0 sample" transform="translate(-7.6 5.32483)"><path class="edge" d="M 0 0 V -5.32483 H 7.6" /><rect class="sym" height="6" width="6" x="-3" y="-3" /><text class="lab" transform="translate(0 11)">0</text></g><g class="a15 leaf node n9 p0 sample" transform="translate(7.6 5.32483)"><path class="edge" d="M 0 0 V -5.32483 H -7.6" /><rect class="sym" height="6" width="6" x="-3" y="-3" /><text class="lab" transform="translate(0 11)">9</text></g><path class="edge" d="M 0 0 V -0.669928 H 11.4" /><circle class="sym" cx="0" cy="0" r="3" /><text class="lab lft" transform="translate(-3 -7.0)">15</text></g><path class="edge" d="M 0 0 V -10.9522 H 13.3" /><circle class="sym" cx="0" cy="0" r="3" /><text class="lab lft" transform="translate(-3 -7.0)">16</text></g><path class="edge" d="M 0 0 V -21.8072 H 14.25" /><circle class="sym" cx="0" cy="0" r="3" /><text class="lab lft" transform="translate(-3 -7.0)">19</text></g><g class="a25 c1 node n22 p0" transform="translate(14.25 2.59934)"><g class="a22 c1 node n11 p0" transform="translate(0.0 35.3323)"><g class="a11 leaf node n2 p0 sample" transform="translate(0.0 0.822558)"><path class="edge" d="M 0 0 V -0.822558 H 0.0" /><rect class="sym" height="6" width="6" x="-3" y="-3" /><text class="lab" transform="translate(0 11)">2</text></g><path class="edge" d="M 0 0 V -35.3323 H 0.0" /><circle class="sym" cx="0" cy="0" r="3" /><text class="lab lft" transform="translate(-3 -7.0)">11</text></g><path class="edge" d="M 0 0 V -2.59934 H -14.25" /><circle class="sym" cx="0" cy="0" r="3" /><text class="lab rgt" transform="translate(3 -7.0)">22</text></g><path class="edge" d="M 0 0 V -55.8458 H 34.2" /><circle class="sym" cx="0" cy="0" r="3" /><text class="lab lft" transform="translate(-3 -7.0)">25</text></g><g class="a30 c1 node n29 p0" transform="translate(34.2 3.17214)"><g class="a29 c1 node n26 p0" transform="translate(0.0 40.5195)"><g class="a26 c2 node n24 p0" transform="translate(0.0 14.3331)"><g class="a24 c1 node n18 p0" transform="translate(21.85 23.3506)"><g class="a18 leaf node n5 p0 sample" transform="translate(0.0 13.2246)"><path class="edge" d="M 0 0 V -13.2246 H 0.0" /><rect class="sym" height="6" width="6" x="-3" y="-3" /><text class="lab" transform="translate(0 11)">5</text></g><path class="edge" d="M 0 0 V -23.3506 H -21.85" /><circle class="sym" cx="0" cy="0" r="3" /><text class="lab rgt" transform="translate(3 -7.0)">18</text></g><g class="a24 c2 node n21 p0" transform="translate(-21.85 7.21729)"><g class="a21 leaf node n1 p0 sample" transform="translate(-17.1 29.3579)"><path class="edge" d="M 0 0 V -29.3579 H 17.1" /><rect class="sym" height="6" width="6" x="-3" y="-3" /><text class="lab" transform="translate(0 11)">1</text></g><g class="a21 c2 node n20 p0" transform="translate(17.1 3.65023)"><g class="a20 leaf node n8 p0 sample" transform="translate(11.4 25.7077)"><path class="edge" d="M 0 0 V -25.7077 H -11.4" /><rect class="sym" height="6" width="6" x="-3" y="-3" /><text class="lab" transform="translate(0 11)">8</text></g><g class="a20 c1 node n13 p0" transform="translate(-11.4 21.5361)"><g class="a13 c2 node n10 p0" transform="translate(0.0 3.56901)"><g class="a10 leaf node n6 p0 sample" transform="translate(-7.6 0.602542)"><path class="edge" d="M 0 0 V -0.602542 H 7.6" /><rect class="sym" height="6" width="6" x="-3" y="-3" /><text class="lab" transform="translate(0 11)">6</text></g><g class="a10 leaf node n7 p0 sample" transform="translate(7.6 0.602542)"><path class="edge" d="M 0 0 V -0.602542 H -7.6" /><rect class="sym" height="6" width="6" x="-3" y="-3" /><text class="lab" transform="translate(0 11)">7</text></g><path class="edge" d="M 0 0 V -3.56901 H 0.0" /><circle class="sym" cx="0" cy="0" r="3" /><text class="lab lft" transform="translate(-3 -7.0)">10</text></g><path class="edge" d="M 0 0 V -21.5361 H 11.4" /><circle class="sym" cx="0" cy="0" r="3" /><text class="lab lft" transform="translate(-3 -7.0)">13</text></g><path class="edge" d="M 0 0 V -3.65023 H -17.1" /><circle class="sym" cx="0" cy="0" r="3" /><text class="lab rgt" transform="translate(3 -7.0)">20</text></g><path class="edge" d="M 0 0 V -7.21729 H 21.85" /><circle class="sym" cx="0" cy="0" r="3" /><text class="lab lft" transform="translate(-3 -7.0)">21</text></g><path class="edge" d="M 0 0 V -14.3331 H 0.0" /><circle class="sym" cx="0" cy="0" r="3" /><text class="lab lft" transform="translate(-3 -7.0)">24</text></g><path class="edge" d="M 0 0 V -40.5195 H 0.0" /><circle class="sym" cx="0" cy="0" r="3" /><text class="lab lft" transform="translate(-3 -7.0)">26</text></g><path class="edge" d="M 0 0 V -3.17214 H -34.2" /><circle class="sym" cx="0" cy="0" r="3" /><text class="lab rgt" transform="translate(3 -7.0)">29</text></g><circle class="sym" cx="0" cy="0" r="3" /><text class="lab" transform="translate(0 -11)">30</text></g></g></g><g class="tree t1" transform="translate(212 0)"><g class="plotbox"><g class="c2 node n30 p0 root" transform="translate(102.888 26.8)"><g class="a30 c1 node n25 p0" transform="translate(-42.9875 55.8458)"><g class="a25 c2 node n19 p0" transform="translate(0.0 21.8072)"><g class="a19 leaf node n4 p0 sample" transform="translate(13.3 16.947)"><path class="edge" d="M 0 0 V -16.947 H -13.3" /><rect class="sym" height="6" width="6" x="-3" y="-3" /><text class="lab" transform="translate(0 11)">4</text></g><g class="a19 c2 node n16 p0" transform="translate(-13.3 10.9522)"><g class="a16 leaf node n3 p0 sample" transform="translate(11.4 5.99476)"><path class="edge" d="M 0 0 V -5.99476 H -11.4" /><rect class="sym" height="6" width="6" x="-3" y="-3" /><text class="lab" transform="translate(0 11)">3</text></g><g class="a16 c2 node n15 p0" transform="translate(-11.4 0.669928)"><g class="a15 leaf node n0 p0 sample" transform="translate(-7.6 5.32483)"><path class="edge" d="M 0 0 V -5.32483 H 7.6" /><rect class="sym" height="6" width="6" x="-3" y="-3" /><text class="lab" transform="translate(0 11)">0</text></g><g class="a15 leaf node n9 p0 sample" transform="translate(7.6 5.32483)"><path class="edge" d="M 0 0 V -5.32483 H -7.6" /><rect class="sym" height="6" width="6" x="-3" y="-3" /><text class="lab" transform="translate(0 11)">9</text></g><path class="edge" d="M 0 0 V -0.669928 H 11.4" /><circle class="sym" cx="0" cy="0" r="3" /><text class="lab lft" transform="translate(-3 -7.0)">15</text></g><path class="edge" d="M 0 0 V -10.9522 H 13.3" /><circle class="sym" cx="0" cy="0" r="3" /><text class="lab lft" transform="translate(-3 -7.0)">16</text></g><path class="edge" d="M 0 0 V -21.8072 H 0.0" /><circle class="sym" cx="0" cy="0" r="3" /><text class="lab lft" transform="translate(-3 -7.0)">19</text></g><path class="edge" d="M 0 0 V -55.8458 H 42.9875" /><circle class="sym" cx="0" cy="0" r="3" /><text class="lab lft" transform="translate(-3 -7.0)">25</text></g><g class="a30 c2 node n29 p0" transform="translate(42.9875 3.17214)"><g class="a29 c1 node n26 p0" transform="translate(-18.525 40.5195)"><g class="a26 c2 node n24 p0" transform="translate(0.0 14.3331)"><g class="a24 c1 node n18 p0" transform="translate(21.85 23.3506)"><g class="a18 leaf node n5 p0 sample" transform="translate(0.0 13.2246)"><path class="edge" d="M 0 0 V -13.2246 H 0.0" /><rect class="sym" height="6" width="6" x="-3" y="-3" /><text class="lab" transform="translate(0 11)">5</text></g><path class="edge" d="M 0 0 V -23.3506 H -21.85" /><circle class="sym" cx="0" cy="0" r="3" /><text class="lab rgt" transform="translate(3 -7.0)">18</text></g><g class="a24 c2 node n21 p0" transform="translate(-21.85 7.21729)"><g class="a21 leaf node n1 p0 sample" transform="translate(-17.1 29.3579)"><path class="edge" d="M 0 0 V -29.3579 H 17.1" /><rect class="sym" height="6" width="6" x="-3" y="-3" /><text class="lab" transform="translate(0 11)">1</text></g><g class="a21 c2 node n20 p0" transform="translate(17.1 3.65023)"><g class="a20 leaf node n8 p0 sample" transform="translate(11.4 25.7077)"><path class="edge" d="M 0 0 V -25.7077 H -11.4" /><rect class="sym" height="6" width="6" x="-3" y="-3" /><text class="lab" transform="translate(0 11)">8</text></g><g class="a20 c1 node n13 p0" transform="translate(-11.4 21.5361)"><g class="a13 c2 node n10 p0" transform="translate(0.0 3.56901)"><g class="a10 leaf node n6 p0 sample" transform="translate(-7.6 0.602542)"><path class="edge" d="M 0 0 V -0.602542 H 7.6" /><rect class="sym" height="6" width="6" x="-3" y="-3" /><text class="lab" transform="translate(0 11)">6</text></g><g class="a10 leaf node n7 p0 sample" transform="translate(7.6 0.602542)"><path class="edge" d="M 0 0 V -0.602542 H -7.6" /><rect class="sym" height="6" width="6" x="-3" y="-3" /><text class="lab" transform="translate(0 11)">7</text></g><path class="edge" d="M 0 0 V -3.56901 H 0.0" /><circle class="sym" cx="0" cy="0" r="3" /><text class="lab lft" transform="translate(-3 -7.0)">10</text></g><path class="edge" d="M 0 0 V -21.5361 H 11.4" /><circle class="sym" cx="0" cy="0" r="3" /><text class="lab lft" transform="translate(-3 -7.0)">13</text></g><path class="edge" d="M 0 0 V -3.65023 H -17.1" /><circle class="sym" cx="0" cy="0" r="3" /><text class="lab rgt" transform="translate(3 -7.0)">20</text></g><path class="edge" d="M 0 0 V -7.21729 H 21.85" /><circle class="sym" cx="0" cy="0" r="3" /><text class="lab lft" transform="translate(-3 -7.0)">21</text></g><path class="edge" d="M 0 0 V -14.3331 H 0.0" /><circle class="sym" cx="0" cy="0" r="3" /><text class="lab lft" transform="translate(-3 -7.0)">24</text></g><path class="edge" d="M 0 0 V -40.5195 H 18.525" /><circle class="sym" cx="0" cy="0" r="3" /><text class="lab lft" transform="translate(-3 -7.0)">26</text></g><g class="a29 c1 node n28 p0" transform="translate(18.525 22.663)"><g class="a28 c1 node n23 p0" transform="translate(0.0 32.61)"><g class="a23 c1 node n11 p0" transform="translate(0.0 35.3323)"><g class="a11 leaf node n2 p0 sample" transform="translate(0.0 0.822558)"><path class="edge" d="M 0 0 V -0.822558 H 0.0" /><rect class="sym" height="6" width="6" x="-3" y="-3" /><text class="lab" transform="translate(0 11)">2</text></g><path class="edge" d="M 0 0 V -35.3323 H 0.0" /><circle class="sym" cx="0" cy="0" r="3" /><text class="lab lft" transform="translate(-3 -7.0)">11</text></g><path class="edge" d="M 0 0 V -32.61 H 0.0" /><circle class="sym" cx="0" cy="0" r="3" /><text class="lab lft" transform="translate(-3 -7.0)">23</text></g><path class="edge" d="M 0 0 V -22.663 H -18.525" /><circle class="sym" cx="0" cy="0" r="3" /><text class="lab rgt" transform="translate(3 -7.0)">28</text></g><path class="edge" d="M 0 0 V -3.17214 H -42.9875" /><circle class="sym" cx="0" cy="0" r="3" /><text class="lab rgt" transform="translate(3 -7.0)">29</text></g><circle class="sym" cx="0" cy="0" r="3" /><text class="lab" transform="translate(0 -11)">30</text></g></g></g><g class="tree t2" transform="translate(404 0)"><g class="plotbox"><g class="c2 node n30 p0 root" transform="translate(102.888 26.8)"><g class="a30 c1 node n25 p0" transform="translate(-42.9875 55.8458)"><g class="a25 c2 node n19 p0" transform="translate(0.0 21.8072)"><g class="a19 leaf node n4 p0 sample" transform="translate(13.3 16.947)"><path class="edge" d="M 0 0 V -16.947 H -13.3" /><rect class="sym" height="6" width="6" x="-3" y="-3" /><text class="lab" transform="translate(0 11)">4</text></g><g class="a19 c2 node n16 p0" transform="translate(-13.3 10.9522)"><g class="a16 leaf node n3 p0 sample" transform="translate(11.4 5.99476)"><path class="edge" d="M 0 0 V -5.99476 H -11.4" /><rect class="sym" height="6" width="6" x="-3" y="-3" /><text class="lab" transform="translate(0 11)">3</text></g><g class="a16 c2 node n15 p0" transform="translate(-11.4 0.669928)"><g class="a15 leaf node n0 p0 sample" transform="translate(-7.6 5.32483)"><path class="edge" d="M 0 0 V -5.32483 H 7.6" /><rect class="sym" height="6" width="6" x="-3" y="-3" /><text class="lab" transform="translate(0 11)">0</text></g><g class="a15 leaf node n9 p0 sample" transform="translate(7.6 5.32483)"><path class="edge" d="M 0 0 V -5.32483 H -7.6" /><rect class="sym" height="6" width="6" x="-3" y="-3" /><text class="lab" transform="translate(0 11)">9</text></g><path class="edge" d="M 0 0 V -0.669928 H 11.4" /><circle class="sym" cx="0" cy="0" r="3" /><text class="lab lft" transform="translate(-3 -7.0)">15</text></g><path class="edge" d="M 0 0 V -10.9522 H 13.3" /><circle class="sym" cx="0" cy="0" r="3" /><text class="lab lft" transform="translate(-3 -7.0)">16</text></g><path class="edge" d="M 0 0 V -21.8072 H 0.0" /><circle class="sym" cx="0" cy="0" r="3" /><text class="lab lft" transform="translate(-3 -7.0)">19</text></g><path class="edge" d="M 0 0 V -55.8458 H 42.9875" /><circle class="sym" cx="0" cy="0" r="3" /><text class="lab lft" transform="translate(-3 -7.0)">25</text></g><g class="a30 c1 node n29 p0" transform="translate(42.9875 3.17214)"><g class="a29 c2 node n28 p0" transform="translate(0.0 22.663)"><g class="a28 c1 node n23 p0" transform="translate(18.525 32.61)"><g class="a23 c1 node n11 p0" transform="translate(0.0 35.3323)"><g class="a11 leaf node n2 p0 sample" transform="translate(0.0 0.822558)"><path class="edge" d="M 0 0 V -0.822558 H 0.0" /><rect class="sym" height="6" width="6" x="-3" y="-3" /><text class="lab" transform="translate(0 11)">2</text></g><path class="edge" d="M 0 0 V -35.3323 H 0.0" /><circle class="sym" cx="0" cy="0" r="3" /><text class="lab lft" transform="translate(-3 -7.0)">11</text></g><path class="edge" d="M 0 0 V -32.61 H -18.525" /><circle class="sym" cx="0" cy="0" r="3" /><text class="lab rgt" transform="translate(3 -7.0)">23</text></g><g class="a28 c1 node n27 p0" transform="translate(-18.525 17.8565)"><g class="a27 c2 node n24 p0" transform="translate(0.0 14.3331)"><g class="a24 c1 node n18 p0" transform="translate(21.85 23.3506)"><g class="a18 leaf node n5 p0 sample" transform="translate(0.0 13.2246)"><path class="edge" d="M 0 0 V -13.2246 H 0.0" /><rect class="sym" height="6" width="6" x="-3" y="-3" /><text class="lab" transform="translate(0 11)">5</text></g><path class="edge" d="M 0 0 V -23.3506 H -21.85" /><circle class="sym" cx="0" cy="0" r="3" /><text class="lab rgt" transform="translate(3 -7.0)">18</text></g><g class="a24 c2 node n21 p0" transform="translate(-21.85 7.21729)"><g class="a21 leaf node n1 p0 sample" transform="translate(-17.1 29.3579)"><path class="edge" d="M 0 0 V -29.3579 H 17.1" /><rect class="sym" height="6" width="6" x="-3" y="-3" /><text class="lab" transform="translate(0 11)">1</text></g><g class="a21 c2 node n20 p0" transform="translate(17.1 3.65023)"><g class="a20 leaf node n8 p0 sample" transform="translate(11.4 25.7077)"><path class="edge" d="M 0 0 V -25.7077 H -11.4" /><rect class="sym" height="6" width="6" x="-3" y="-3" /><text class="lab" transform="translate(0 11)">8</text></g><g class="a20 c1 node n13 p0" transform="translate(-11.4 21.5361)"><g class="a13 c2 node n10 p0" transform="translate(0.0 3.56901)"><g class="a10 leaf node n6 p0 sample" transform="translate(-7.6 0.602542)"><path class="edge" d="M 0 0 V -0.602542 H 7.6" /><rect class="sym" height="6" width="6" x="-3" y="-3" /><text class="lab" transform="translate(0 11)">6</text></g><g class="a10 leaf node n7 p0 sample" transform="translate(7.6 0.602542)"><path class="edge" d="M 0 0 V -0.602542 H -7.6" /><rect class="sym" height="6" width="6" x="-3" y="-3" /><text class="lab" transform="translate(0 11)">7</text></g><path class="edge" d="M 0 0 V -3.56901 H 0.0" /><circle class="sym" cx="0" cy="0" r="3" /><text class="lab lft" transform="translate(-3 -7.0)">10</text></g><path class="edge" d="M 0 0 V -21.5361 H 11.4" /><circle class="sym" cx="0" cy="0" r="3" /><text class="lab lft" transform="translate(-3 -7.0)">13</text></g><path class="edge" d="M 0 0 V -3.65023 H -17.1" /><circle class="sym" cx="0" cy="0" r="3" /><text class="lab rgt" transform="translate(3 -7.0)">20</text></g><path class="edge" d="M 0 0 V -7.21729 H 21.85" /><circle class="sym" cx="0" cy="0" r="3" /><text class="lab lft" transform="translate(-3 -7.0)">21</text></g><path class="edge" d="M 0 0 V -14.3331 H 0.0" /><circle class="sym" cx="0" cy="0" r="3" /><text class="lab lft" transform="translate(-3 -7.0)">24</text></g><path class="edge" d="M 0 0 V -17.8565 H 18.525" /><circle class="sym" cx="0" cy="0" r="3" /><text class="lab lft" transform="translate(-3 -7.0)">27</text></g><path class="edge" d="M 0 0 V -22.663 H 0.0" /><circle class="sym" cx="0" cy="0" r="3" /><text class="lab lft" transform="translate(-3 -7.0)">28</text></g><path class="edge" d="M 0 0 V -3.17214 H -42.9875" /><circle class="sym" cx="0" cy="0" r="3" /><text class="lab rgt" transform="translate(3 -7.0)">29</text></g><circle class="sym" cx="0" cy="0" r="3" /><text class="lab" transform="translate(0 -11)">30</text></g></g></g><g class="tree t3" transform="translate(596 0)"><g class="plotbox"><g class="c2 node n30 p0 root" transform="translate(99.325 26.8)"><g class="a30 c1 node n25 p0" transform="translate(-39.425 55.8458)"><g class="a25 c2 node n19 p0" transform="translate(0.0 21.8072)"><g class="a19 leaf node n4 p0 sample" transform="translate(13.3 16.947)"><path class="edge" d="M 0 0 V -16.947 H -13.3" /><rect class="sym" height="6" width="6" x="-3" y="-3" /><text class="lab" transform="translate(0 11)">4</text></g><g class="a19 c2 node n16 p0" transform="translate(-13.3 10.9522)"><g class="a16 leaf node n3 p0 sample" transform="translate(11.4 5.99476)"><path class="edge" d="M 0 0 V -5.99476 H -11.4" /><rect class="sym" height="6" width="6" x="-3" y="-3" /><text class="lab" transform="translate(0 11)">3</text></g><g class="a16 c2 node n15 p0" transform="translate(-11.4 0.669928)"><g class="a15 leaf node n0 p0 sample" transform="translate(-7.6 5.32483)"><path class="edge" d="M 0 0 V -5.32483 H 7.6" /><rect class="sym" height="6" width="6" x="-3" y="-3" /><text class="lab" transform="translate(0 11)">0</text></g><g class="a15 leaf node n9 p0 sample" transform="translate(7.6 5.32483)"><path class="edge" d="M 0 0 V -5.32483 H -7.6" /><rect class="sym" height="6" width="6" x="-3" y="-3" /><text class="lab" transform="translate(0 11)">9</text></g><path class="edge" d="M 0 0 V -0.669928 H 11.4" /><circle class="sym" cx="0" cy="0" r="3" /><text class="lab lft" transform="translate(-3 -7.0)">15</text></g><path class="edge" d="M 0 0 V -10.9522 H 13.3" /><circle class="sym" cx="0" cy="0" r="3" /><text class="lab lft" transform="translate(-3 -7.0)">16</text></g><path class="edge" d="M 0 0 V -21.8072 H 0.0" /><circle class="sym" cx="0" cy="0" r="3" /><text class="lab lft" transform="translate(-3 -7.0)">19</text></g><path class="edge" d="M 0 0 V -55.8458 H 39.425" /><circle class="sym" cx="0" cy="0" r="3" /><text class="lab lft" transform="translate(-3 -7.0)">25</text></g><g class="a30 c1 node n29 p0" transform="translate(39.425 3.17214)"><g class="a29 c2 node n28 p0" transform="translate(0.0 22.663)"><g class="a28 c1 node n23 p0" transform="translate(25.65 32.61)"><g class="a23 c1 node n11 p0" transform="translate(0.0 35.3323)"><g class="a11 leaf node n2 p0 sample" transform="translate(0.0 0.822558)"><path class="edge" d="M 0 0 V -0.822558 H 0.0" /><rect class="sym" height="6" width="6" x="-3" y="-3" /><text class="lab" transform="translate(0 11)">2</text></g><path class="edge" d="M 0 0 V -35.3323 H 0.0" /><circle class="sym" cx="0" cy="0" r="3" /><text class="lab lft" transform="translate(-3 -7.0)">11</text></g><path class="edge" d="M 0 0 V -32.61 H -25.65" /><circle class="sym" cx="0" cy="0" r="3" /><text class="lab rgt" transform="translate(3 -7.0)">23</text></g><g class="a28 c1 node n27 p0" transform="translate(-25.65 17.8565)"><g class="a27 c2 node n24 p0" transform="translate(0.0 14.3331)"><g class="a24 c2 node n18 p0" transform="translate(17.1 23.3506)"><g class="a18 leaf node n5 p0 sample" transform="translate(-11.4 13.2246)"><path class="edge" d="M 0 0 V -13.2246 H 11.4" /><rect class="sym" height="6" width="6" x="-3" y="-3" /><text class="lab" transform="translate(0 11)">5</text></g><g class="a18 c1 node n17 p0" transform="translate(11.4 0.758495)"><g class="a17 c1 node n14 p0" transform="translate(0.0 8.29456)"><g class="a14 c2 node n10 p0" transform="translate(0.0 3.56901)"><g class="a10 leaf node n6 p0 sample" transform="translate(-7.6 0.602542)"><path class="edge" d="M 0 0 V -0.602542 H 7.6" /><rect class="sym" height="6" width="6" x="-3" y="-3" /><text class="lab" transform="translate(0 11)">6</text></g><g class="a10 leaf node n7 p0 sample" transform="translate(7.6 0.602542)"><path class="edge" d="M 0 0 V -0.602542 H -7.6" /><rect class="sym" height="6" width="6" x="-3" y="-3" /><text class="lab" transform="translate(0 11)">7</text></g><path class="edge" d="M 0 0 V -3.56901 H 0.0" /><circle class="sym" cx="0" cy="0" r="3" /><text class="lab lft" transform="translate(-3 -7.0)">10</text></g><path class="edge" d="M 0 0 V -8.29456 H 0.0" /><circle class="sym" cx="0" cy="0" r="3" /><text class="lab lft" transform="translate(-3 -7.0)">14</text></g><path class="edge" d="M 0 0 V -0.758495 H -11.4" /><circle class="sym" cx="0" cy="0" r="3" /><text class="lab rgt" transform="translate(3 -7.0)">17</text></g><path class="edge" d="M 0 0 V -23.3506 H -17.1" /><circle class="sym" cx="0" cy="0" r="3" /><text class="lab rgt" transform="translate(3 -7.0)">18</text></g><g class="a24 c2 node n21 p0" transform="translate(-17.1 7.21729)"><g class="a21 leaf node n1 p0 sample" transform="translate(-7.6 29.3579)"><path class="edge" d="M 0 0 V -29.3579 H 7.6" /><rect class="sym" height="6" width="6" x="-3" y="-3" /><text class="lab" transform="translate(0 11)">1</text></g><g class="a21 c1 node n20 p0" transform="translate(7.6 3.65023)"><g class="a20 leaf node n8 p0 sample" transform="translate(0.0 25.7077)"><path class="edge" d="M 0 0 V -25.7077 H 0.0" /><rect class="sym" height="6" width="6" x="-3" y="-3" /><text class="lab" transform="translate(0 11)">8</text></g><path class="edge" d="M 0 0 V -3.65023 H -7.6" /><circle class="sym" cx="0" cy="0" r="3" /><text class="lab rgt" transform="translate(3 -7.0)">20</text></g><path class="edge" d="M 0 0 V -7.21729 H 17.1" /><circle class="sym" cx="0" cy="0" r="3" /><text class="lab lft" transform="translate(-3 -7.0)">21</text></g><path class="edge" d="M 0 0 V -14.3331 H 0.0" /><circle class="sym" cx="0" cy="0" r="3" /><text class="lab lft" transform="translate(-3 -7.0)">24</text></g><path class="edge" d="M 0 0 V -17.8565 H 25.65" /><circle class="sym" cx="0" cy="0" r="3" /><text class="lab lft" transform="translate(-3 -7.0)">27</text></g><path class="edge" d="M 0 0 V -22.663 H 0.0" /><circle class="sym" cx="0" cy="0" r="3" /><text class="lab lft" transform="translate(-3 -7.0)">28</text></g><path class="edge" d="M 0 0 V -3.17214 H -39.425" /><circle class="sym" cx="0" cy="0" r="3" /><text class="lab rgt" transform="translate(3 -7.0)">29</text></g><circle class="sym" cx="0" cy="0" r="3" /><text class="lab" transform="translate(0 -11)">30</text></g></g></g><g class="tree t4" transform="translate(788 0)"><g class="plotbox"><g class="c2 node n30 p0 root" transform="translate(90.775 26.8)"><g class="a30 c1 node n25 p0" transform="translate(-30.875 55.8458)"><g class="a25 c2 node n19 p0" transform="translate(0.0 21.8072)"><g class="a19 leaf node n4 p0 sample" transform="translate(13.3 16.947)"><path class="edge" d="M 0 0 V -16.947 H -13.3" /><rect class="sym" height="6" width="6" x="-3" y="-3" /><text class="lab" transform="translate(0 11)">4</text></g><g class="a19 c2 node n16 p0" transform="translate(-13.3 10.9522)"><g class="a16 leaf node n3 p0 sample" transform="translate(11.4 5.99476)"><path class="edge" d="M 0 0 V -5.99476 H -11.4" /><rect class="sym" height="6" width="6" x="-3" y="-3" /><text class="lab" transform="translate(0 11)">3</text></g><g class="a16 c2 node n15 p0" transform="translate(-11.4 0.669928)"><g class="a15 leaf node n0 p0 sample" transform="translate(-7.6 5.32483)"><path class="edge" d="M 0 0 V -5.32483 H 7.6" /><rect class="sym" height="6" width="6" x="-3" y="-3" /><text class="lab" transform="translate(0 11)">0</text></g><g class="a15 leaf node n9 p0 sample" transform="translate(7.6 5.32483)"><path class="edge" d="M 0 0 V -5.32483 H -7.6" /><rect class="sym" height="6" width="6" x="-3" y="-3" /><text class="lab" transform="translate(0 11)">9</text></g><path class="edge" d="M 0 0 V -0.669928 H 11.4" /><circle class="sym" cx="0" cy="0" r="3" /><text class="lab lft" transform="translate(-3 -7.0)">15</text></g><path class="edge" d="M 0 0 V -10.9522 H 13.3" /><circle class="sym" cx="0" cy="0" r="3" /><text class="lab lft" transform="translate(-3 -7.0)">16</text></g><path class="edge" d="M 0 0 V -21.8072 H 0.0" /><circle class="sym" cx="0" cy="0" r="3" /><text class="lab lft" transform="translate(-3 -7.0)">19</text></g><path class="edge" d="M 0 0 V -55.8458 H 30.875" /><circle class="sym" cx="0" cy="0" r="3" /><text class="lab lft" transform="translate(-3 -7.0)">25</text></g><g class="a30 c1 node n29 p0" transform="translate(30.875 3.17214)"><g class="a29 c1 node n28 p0" transform="translate(0.0 22.663)"><g class="a28 c1 node n27 p0" transform="translate(0.0 17.8565)"><g class="a27 c2 node n24 p0" transform="translate(0.0 14.3331)"><g class="a24 c2 node n18 p0" transform="translate(25.65 23.3506)"><g class="a18 leaf node n5 p0 sample" transform="translate(17.1 13.2246)"><path class="edge" d="M 0 0 V -13.2246 H -17.1" /><rect class="sym" height="6" width="6" x="-3" y="-3" /><text class="lab" transform="translate(0 11)">5</text></g><g class="a18 c2 node n17 p0" transform="translate(-17.1 0.758495)"><g class="a17 c1 node n14 p0" transform="translate(11.4 8.29456)"><g class="a14 c2 node n10 p0" transform="translate(0.0 3.56901)"><g class="a10 leaf node n6 p0 sample" transform="translate(-7.6 0.602542)"><path class="edge" d="M 0 0 V -0.602542 H 7.6" /><rect class="sym" height="6" width="6" x="-3" y="-3" /><text class="lab" transform="translate(0 11)">6</text></g><g class="a10 leaf node n7 p0 sample" transform="translate(7.6 0.602542)"><path class="edge" d="M 0 0 V -0.602542 H -7.6" /><rect class="sym" height="6" width="6" x="-3" y="-3" /><text class="lab" transform="translate(0 11)">7</text></g><path class="edge" d="M 0 0 V -3.56901 H 0.0" /><circle class="sym" cx="0" cy="0" r="3" /><text class="lab lft" transform="translate(-3 -7.0)">10</text></g><path class="edge" d="M 0 0 V -8.29456 H -11.4" /><circle class="sym" cx="0" cy="0" r="3" /><text class="lab rgt" transform="translate(3 -7.0)">14</text></g><g class="a17 c1 node n12 p0" transform="translate(-11.4 11.6436)"><g class="a12 leaf node n2 p0 sample" transform="translate(0.0 0.822558)"><path class="edge" d="M 0 0 V -0.822558 H 0.0" /><rect class="sym" height="6" width="6" x="-3" y="-3" /><text class="lab" transform="translate(0 11)">2</text></g><path class="edge" d="M 0 0 V -11.6436 H 11.4" /><circle class="sym" cx="0" cy="0" r="3" /><text class="lab lft" transform="translate(-3 -7.0)">12</text></g><path class="edge" d="M 0 0 V -0.758495 H 17.1" /><circle class="sym" cx="0" cy="0" r="3" /><text class="lab lft" transform="translate(-3 -7.0)">17</text></g><path class="edge" d="M 0 0 V -23.3506 H -25.65" /><circle class="sym" cx="0" cy="0" r="3" /><text class="lab rgt" transform="translate(3 -7.0)">18</text></g><g class="a24 c2 node n21 p0" transform="translate(-25.65 7.21729)"><g class="a21 leaf node n1 p0 sample" transform="translate(-7.6 29.3579)"><path class="edge" d="M 0 0 V -29.3579 H 7.6" /><rect class="sym" height="6" width="6" x="-3" y="-3" /><text class="lab" transform="translate(0 11)">1</text></g><g class="a21 c1 node n20 p0" transform="translate(7.6 3.65023)"><g class="a20 leaf node n8 p0 sample" transform="translate(0.0 25.7077)"><path class="edge" d="M 0 0 V -25.7077 H 0.0" /><rect class="sym" height="6" width="6" x="-3" y="-3" /><text class="lab" transform="translate(0 11)">8</text></g><path class="edge" d="M 0 0 V -3.65023 H -7.6" /><circle class="sym" cx="0" cy="0" r="3" /><text class="lab rgt" transform="translate(3 -7.0)">20</text></g><path class="edge" d="M 0 0 V -7.21729 H 25.65" /><circle class="sym" cx="0" cy="0" r="3" /><text class="lab lft" transform="translate(-3 -7.0)">21</text></g><path class="edge" d="M 0 0 V -14.3331 H 0.0" /><circle class="sym" cx="0" cy="0" r="3" /><text class="lab lft" transform="translate(-3 -7.0)">24</text></g><path class="edge" d="M 0 0 V -17.8565 H 0.0" /><circle class="sym" cx="0" cy="0" r="3" /><text class="lab lft" transform="translate(-3 -7.0)">27</text></g><path class="edge" d="M 0 0 V -22.663 H 0.0" /><circle class="sym" cx="0" cy="0" r="3" /><text class="lab lft" transform="translate(-3 -7.0)">28</text></g><path class="edge" d="M 0 0 V -3.17214 H -30.875" /><circle class="sym" cx="0" cy="0" r="3" /><text class="lab rgt" transform="translate(3 -7.0)">29</text></g><circle class="sym" cx="0" cy="0" r="3" /><text class="lab" transform="translate(0 -11)">30</text></g></g></g></g></g></svg>
