<svg baseProfile="full" height="200" version="1.1" width="1000" xmlns="http://www.w3.org/2000/svg" xmlns:ev="http://www.w3.org/2001/xml-events" xmlns:xlink="http://www.w3.org/1999/xlink"><defs><style type="text/css"><![CDATA[.background path {fill: #808080; fill-opacity: 0}.background path:nth-child(odd) {fill-opacity: .1}.axes {font-size: 14px}.x-axis .tick .lab {font-weight: bold; dominant-baseline: hanging}.axes, .tree {font-size: 14px; text-anchor: middle}.axes line, .edge {stroke: black; fill: none}.y-axis .grid {stroke: #FAFAFA}.node > .sym {fill: black; stroke: none}.site > .sym {stroke: black}.mut text {fill: red; font-style: italic}.mut.extra text {fill: hotpink}.mut line {fill: none; stroke: none}.mut .sym {fill: none; stroke: red}.mut.extra .sym {stroke: hotpink}.node .mut .sym {stroke-width: 1.5px}.tree text, .tree-sequence text {dominant-baseline: central}.plotbox .lab.lft {text-anchor: end}.plotbox .lab.rgt {text-anchor: start}]]></style></defs><g class="tree-sequence"><g class="background"><path d="M20,0 l192,0 l0,138.2 l163.804,25 l0,5 l-355.804,0 l0,-5 l0,-25 l0,-138.2z" /><path d="M212,0 l192,0 l0,138.2 l318.342,25 l0,5 l-346.538,0 l0,-5 l-163.804,-25 l0,-138.2z" /><path d="M404,0 l192,0 l0,138.2 l348.704,25 l0,5 l-222.362,0 l0,-5 l-318.342,-25 l0,-138.2z" /><path d="M596,0 l192,0 l0,138.2 l166.71,25 l0,5 l-10.0057,0 l0,-5 l-348.704,-25 l0,-138.2z" /><path d="M788,0 l192,0 l0,138.2 l0,25 l0,5 l-25.2905,0 l0,-5 l-166.71,-25 l0,-138.2z" /></g><g class="axes"><g class="x-axis"><g transform="translate(500 200)"><text class="lab" text-anchor="middle" transform="translate(0 -11)">Genome position</text></g><line x1="20" x2="980" y1="163.2" y2="163.2" /><g class="ticks"><g class="tick" transform="translate(20 163.2)"><line x1="0" x2="0" y1="0" y2="5" /><g transform="translate(0 6)"><text class="lab">0.00</text></g></g><g class="tick" transform="translate(375.804 163.2)"><line x1="0" x2="0" y1="0" y2="5" /><g transform="translate(0 6)"><text class="lab">370.63</text></g></g><g class="tick" transform="translate(722.342 163.2)"><line x1="0" x2="0" y1="0" y2="5" /><g transform="translate(0 6)"><text class="lab">731.61</text></g></g><g class="tick" transform="translate(944.704 163.2)"><line x1="0" x2="0" y1="0" y2="5" /><g transform="translate(0 6)"><text class="lab">963.23</text></g></g><g class="tick" transform="translate(954.71 163.2)"><line x1="0" x2="0" y1="0" y2="5" /><g transform="translate(0 6)"><text class="lab">973.66</text></g></g><g class="tick" transform="translate(980 163.2)"><line x1="0" x2="0" y1="0" y2="5" /><g transform="translate(0 6)"><text class="lab">1000.00</text></g></g></g></g></g><g class="plotbox trees"><g class="tree t0" transform="translate(20 0)"><g class="plotbox"><g class="c2 node n30 p0 root" transform="translate(126.4 26.8)"><g class="a30 c1 node n27 p0" transform="translate(30.4 37.5877)"><g class="a27 c2 node n11 p0" transform="translate(0.0 53.2836)"><g class="a11 leaf node n4 p0 sample" transform="translate(-7.6 3.72868)"><path class="edge" d="M 0 0 V -3.72868 H 7.6" /><rect class="sym" height="6" width="6" x="-3" y="-3" /><text class="lab" transform="translate(0 11)">4</text></g><g class="a11 leaf node n6 p0 sample" transform="translate(7.6 3.72868)"><path class="edge" d="M 0 0 V -3.72868 H -7.6" /><rect class="sym" height="6" width="6" x="-3" y="-3" /><text class="lab" transform="translate(0 11)">6</text></g><path class="edge" d="M 0 0 V -53.2836 H 0.0" /><circle class="sym" cx="0" cy="0" r="3" /><text class="lab lft" transform="translate(-3 -7.0)">11</text></g><path class="edge" d="M 0 0 V -37.5877 H -30.4" /><circle class="sym" cx="0" cy="0" r="3" /><text class="lab rgt" transform="translate(3 -7.0)">27</text></g><g class="a30 c1 node n29 p0" transform="translate(-30.4 33.1859)"><g class="a29 c2 node n26 p0" transform="translate(0.0 9.26573)"><g class="a26 c2 node n21 p0" transform="translate(26.6 17.0351)"><g class="a21 leaf node n7 p0 sample" transform="translate(11.4 35.1132)"><path class="edge" d="M 0 0 V -35.1132 H -11.4" /><rect class="sym" height="6" width="6" x="-3" y="-3" /><text class="lab" transform="translate(0 11)">7</text></g><g class="a21 c1 node n14 p0" transform="translate(-11.4 12.6139)"><g class="a14 c2 node n13 p0" transform="translate(0.0 17.4552)"><g class="a13 leaf node n2 p0 sample" transform="translate(-7.6 5.04406)"><path class="edge" d="M 0 0 V -5.04406 H 7.6" /><rect class="sym" height="6" width="6" x="-3" y="-3" /><text class="lab" transform="translate(0 11)">2</text></g><g class="a13 leaf node n3 p0 sample" transform="translate(7.6 5.04406)"><path class="edge" d="M 0 0 V -5.04406 H -7.6" /><rect class="sym" height="6" width="6" x="-3" y="-3" /><text class="lab" transform="translate(0 11)">3</text></g><path class="edge" d="M 0 0 V -17.4552 H 0.0" /><circle class="sym" cx="0" cy="0" r="3" /><text class="lab lft" transform="translate(-3 -7.0)">13</text></g><path class="edge" d="M 0 0 V -12.6139 H 11.4" /><circle class="sym" cx="0" cy="0" r="3" /><text class="lab lft" transform="translate(-3 -7.0)">14</text></g><path class="edge" d="M 0 0 V -17.0351 H -26.6" /><circle class="sym" cx="0" cy="0" r="3" /><text class="lab rgt" transform="translate(3 -7.0)">21</text></g><g class="a26 c1 node n25 p0" transform="translate(-26.6 13.7996)"><g class="a25 c2 node n22 p0" transform="translate(0.0 2.22692)"><g class="a22 c1 node n18 p0" transform="translate(19 7.84323)"><g class="a18 leaf node n5 p0 sample" transform="translate(0.0 28.2787)"><path class="edge" d="M 0 0 V -28.2787 H 0.0" /><rect class="sym" height="6" width="6" x="-3" y="-3" /><text class="lab" transform="translate(0 11)">5</text></g><path class="edge" d="M 0 0 V -7.84323 H -19" /><circle class="sym" cx="0" cy="0" r="3" /><text class="lab rgt" transform="translate(3 -7.0)">18</text></g><g class="a22 c2 node n20 p0" transform="translate(-19 3.00918)"><g class="a20 c2 node n12 p0" transform="translate(-15.2 28.6214)"><g class="a12 leaf node n0 p0 sample" transform="translate(-7.6 4.49132)"><path class="edge" d="M 0 0 V -4.49132 H 7.6" /><rect class="sym" height="6" width="6" x="-3" y="-3" /><text class="lab" transform="translate(0 11)">0</text></g><g class="a12 leaf node n9 p0 sample" transform="translate(7.6 4.49132)"><path class="edge" d="M 0 0 V -4.49132 H -7.6" /><rect class="sym" height="6" width="6" x="-3" y="-3" /><text class="lab" transform="translate(0 11)">9</text></g><path class="edge" d="M 0 0 V -28.6214 H 15.2" /><circle class="sym" cx="0" cy="0" r="3" /><text class="lab lft" transform="translate(-3 -7.0)">12</text></g><g class="a20 c1 node n16 p0" transform="translate(15.2 6.66602)"><g class="a16 c2 node n10 p0" transform="translate(0.0 24.888)"><g class="a10 leaf node n1 p0 sample" transform="translate(-7.6 1.55872)"><path class="edge" d="M 0 0 V -1.55872 H 7.6" /><rect class="sym" height="6" width="6" x="-3" y="-3" /><text class="lab" transform="translate(0 11)">1</text></g><g class="a10 leaf node n8 p0 sample" transform="translate(7.6 1.55872)"><path class="edge" d="M 0 0 V -1.55872 H -7.6" /><rect class="sym" height="6" width="6" x="-3" y="-3" /><text class="lab" transform="translate(0 11)">8</text></g><path class="edge" d="M 0 0 V -24.888 H 0.0" /><circle class="sym" cx="0" cy="0" r="3" /><text class="lab lft" transform="translate(-3 -7.0)">10</text></g><path class="edge" d="M 0 0 V -6.66602 H -15.2" /><circle class="sym" cx="0" cy="0" r="3" /><text class="lab rgt" transform="translate(3 -7.0)">16</text></g><path class="edge" d="M 0 0 V -3.00918 H 19" /><circle class="sym" cx="0" cy="0" r="3" /><text class="lab lft" transform="translate(-3 -7.0)">20</text></g><path class="edge" d="M 0 0 V -2.22692 H 0.0" /><circle class="sym" cx="0" cy="0" r="3" /><text class="lab lft" transform="translate(-3 -7.0)">22</text></g><path class="edge" d="M 0 0 V -13.7996 H 26.6" /><circle class="sym" cx="0" cy="0" r="3" /><text class="lab lft" transform="translate(-3 -7.0)">25</text></g><path class="edge" d="M 0 0 V -9.26573 H 0.0" /><circle class="sym" cx="0" cy="0" r="3" /><text class="lab lft" transform="translate(-3 -7.0)">26</text></g><path class="edge" d="M 0 0 V -33.1859 H 30.4" /><circle class="sym" cx="0" cy="0" r="3" /><text class="lab lft" transform="translate(-3 -7.0)">29</text></g><circle class="sym" cx="0" cy="0" r="3" /><text class="lab" transform="translate(0 -11)">30</text></g></g></g><g class="tree t1" transform="translate(212 0)"><g class="plotbox"><g class="c2 node n30 p0 root" transform="translate(105.5 26.8)"><g class="a30 c2 node n27 p0" transform="translate(36.1 37.5877)"><g class="a27 c2 node n11 p0" transform="translate(15.2 53.2836)"><g class="a11 leaf node n4 p0 sample" transform="translate(-7.6 3.72868)"><path class="edge" d="M 0 0 V -3.72868 H 7.6" /><rect class="sym" height="6" width="6" x="-3" y="-3" /><text class="lab" transform="translate(0 11)">4</text></g><g class="a11 leaf node n6 p0 sample" transform="translate(7.6 3.72868)"><path class="edge" d="M 0 0 V -3.72868 H -7.6" /><rect class="sym" height="6" width="6" x="-3" y="-3" /><text class="lab" transform="translate(0 11)">6</text></g><path class="edge" d="M 0 0 V -53.2836 H -15.2" /><circle class="sym" cx="0" cy="0" r="3" /><text class="lab rgt" transform="translate(3 -7.0)">11</text></g><g class="a27 c1 node n17 p0" transform="translate(-15.2 30.5656)"><g class="a17 c2 node n10 p0" transform="translate(0.0 24.888)"><g class="a10 leaf node n1 p0 sample" transform="translate(-7.6 1.55872)"><path class="edge" d="M 0 0 V -1.55872 H 7.6" /><rect class="sym" height="6" width="6" x="-3" y="-3" /><text class="lab" transform="translate(0 11)">1</text></g><g class="a10 leaf node n8 p0 sample" transform="translate(7.6 1.55872)"><path class="edge" d="M 0 0 V -1.55872 H -7.6" /><rect class="sym" height="6" width="6" x="-3" y="-3" /><text class="lab" transform="translate(0 11)">8</text></g><path class="edge" d="M 0 0 V -24.888 H 0.0" /><circle class="sym" cx="0" cy="0" r="3" /><text class="lab lft" transform="translate(-3 -7.0)">10</text></g><path class="edge" d="M 0 0 V -30.5656 H 15.2" /><circle class="sym" cx="0" cy="0" r="3" /><text class="lab lft" transform="translate(-3 -7.0)">17</text></g><path class="edge" d="M 0 0 V -37.5877 H -36.1" /><circle class="sym" cx="0" cy="0" r="3" /><text class="lab rgt" transform="translate(3 -7.0)">27</text></g><g class="a30 c1 node n29 p0" transform="translate(-36.1 33.1859)"><g class="a29 c2 node n26 p0" transform="translate(0.0 9.26573)"><g class="a26 c2 node n21 p0" transform="translate(22.8 17.0351)"><g class="a21 leaf node n7 p0 sample" transform="translate(11.4 35.1132)"><path class="edge" d="M 0 0 V -35.1132 H -11.4" /><rect class="sym" height="6" width="6" x="-3" y="-3" /><text class="lab" transform="translate(0 11)">7</text></g><g class="a21 c1 node n14 p0" transform="translate(-11.4 12.6139)"><g class="a14 c2 node n13 p0" transform="translate(0.0 17.4552)"><g class="a13 leaf node n2 p0 sample" transform="translate(-7.6 5.04406)"><path class="edge" d="M 0 0 V -5.04406 H 7.6" /><rect class="sym" height="6" width="6" x="-3" y="-3" /><text class="lab" transform="translate(0 11)">2</text></g><g class="a13 leaf node n3 p0 sample" transform="translate(7.6 5.04406)"><path class="edge" d="M 0 0 V -5.04406 H -7.6" /><rect class="sym" height="6" width="6" x="-3" y="-3" /><text class="lab" transform="translate(0 11)">3</text></g><path class="edge" d="M 0 0 V -17.4552 H 0.0" /><circle class="sym" cx="0" cy="0" r="3" /><text class="lab lft" transform="translate(-3 -7.0)">13</text></g><path class="edge" d="M 0 0 V -12.6139 H 11.4" /><circle class="sym" cx="0" cy="0" r="3" /><text class="lab lft" transform="translate(-3 -7.0)">14</text></g><path class="edge" d="M 0 0 V -17.0351 H -22.8" /><circle class="sym" cx="0" cy="0" r="3" /><text class="lab rgt" transform="translate(3 -7.0)">21</text></g><g class="a26 c1 node n25 p0" transform="translate(-22.8 13.7996)"><g class="a25 c2 node n22 p0" transform="translate(0.0 2.22692)"><g class="a22 c1 node n18 p0" transform="translate(11.4 7.84323)"><g class="a18 leaf node n5 p0 sample" transform="translate(0.0 28.2787)"><path class="edge" d="M 0 0 V -28.2787 H 0.0" /><rect class="sym" height="6" width="6" x="-3" y="-3" /><text class="lab" transform="translate(0 11)">5</text></g><path class="edge" d="M 0 0 V -7.84323 H -11.4" /><circle class="sym" cx="0" cy="0" r="3" /><text class="lab rgt" transform="translate(3 -7.0)">18</text></g><g class="a22 c1 node n20 p0" transform="translate(-11.4 3.00918)"><g class="a20 c2 node n12 p0" transform="translate(0.0 28.6214)"><g class="a12 leaf node n0 p0 sample" transform="translate(-7.6 4.49132)"><path class="edge" d="M 0 0 V -4.49132 H 7.6" /><rect class="sym" height="6" width="6" x="-3" y="-3" /><text class="lab" transform="translate(0 11)">0</text></g><g class="a12 leaf node n9 p0 sample" transform="translate(7.6 4.49132)"><path class="edge" d="M 0 0 V -4.49132 H -7.6" /><rect class="sym" height="6" width="6" x="-3" y="-3" /><text class="lab" transform="translate(0 11)">9</text></g><path class="edge" d="M 0 0 V -28.6214 H 0.0" /><circle class="sym" cx="0" cy="0" r="3" /><text class="lab lft" transform="translate(-3 -7.0)">12</text></g><path class="edge" d="M 0 0 V -3.00918 H 11.4" /><circle class="sym" cx="0" cy="0" r="3" /><text class="lab lft" transform="translate(-3 -7.0)">20</text></g><path class="edge" d="M 0 0 V -2.22692 H 0.0" /><circle class="sym" cx="0" cy="0" r="3" /><text class="lab lft" transform="translate(-3 -7.0)">22</text></g><path class="edge" d="M 0 0 V -13.7996 H 22.8" /><circle class="sym" cx="0" cy="0" r="3" /><text class="lab lft" transform="translate(-3 -7.0)">25</text></g><path class="edge" d="M 0 0 V -9.26573 H 0.0" /><circle class="sym" cx="0" cy="0" r="3" /><text class="lab lft" transform="translate(-3 -7.0)">26</text></g><path class="edge" d="M 0 0 V -33.1859 H 36.1" /><circle class="sym" cx="0" cy="0" r="3" /><text class="lab lft" transform="translate(-3 -7.0)">29</text></g><circle class="sym" cx="0" cy="0" r="3" /><text class="lab" transform="translate(0 -11)">30</text></g></g></g><g class="tree t2" transform="translate(404 0)"><g class="plotbox"><g class="c2 node n30 p0 root" transform="translate(110.725 26.8)"><g class="a30 c2 node n27 p0" transform="translate(30.875 37.5877)"><g class="a27 c2 node n11 p0" transform="translate(15.2 53.2836)"><g class="a11 leaf node n4 p0 sample" transform="translate(-7.6 3.72868)"><path class="edge" d="M 0 0 V -3.72868 H 7.6" /><rect class="sym" height="6" width="6" x="-3" y="-3" /><text class="lab" transform="translate(0 11)">4</text></g><g class="a11 leaf node n6 p0 sample" transform="translate(7.6 3.72868)"><path class="edge" d="M 0 0 V -3.72868 H -7.6" /><rect class="sym" height="6" width="6" x="-3" y="-3" /><text class="lab" transform="translate(0 11)">6</text></g><path class="edge" d="M 0 0 V -53.2836 H -15.2" /><circle class="sym" cx="0" cy="0" r="3" /><text class="lab rgt" transform="translate(3 -7.0)">11</text></g><g class="a27 c1 node n17 p0" transform="translate(-15.2 30.5656)"><g class="a17 c2 node n10 p0" transform="translate(0.0 24.888)"><g class="a10 leaf node n1 p0 sample" transform="translate(-7.6 1.55872)"><path class="edge" d="M 0 0 V -1.55872 H 7.6" /><rect class="sym" height="6" width="6" x="-3" y="-3" /><text class="lab" transform="translate(0 11)">1</text></g><g class="a10 leaf node n8 p0 sample" transform="translate(7.6 1.55872)"><path class="edge" d="M 0 0 V -1.55872 H -7.6" /><rect class="sym" height="6" width="6" x="-3" y="-3" /><text class="lab" transform="translate(0 11)">8</text></g><path class="edge" d="M 0 0 V -24.888 H 0.0" /><circle class="sym" cx="0" cy="0" r="3" /><text class="lab lft" transform="translate(-3 -7.0)">10</text></g><path class="edge" d="M 0 0 V -30.5656 H 15.2" /><circle class="sym" cx="0" cy="0" r="3" /><text class="lab lft" transform="translate(-3 -7.0)">17</text></g><path class="edge" d="M 0 0 V -37.5877 H -30.875" /><circle class="sym" cx="0" cy="0" r="3" /><text class="lab rgt" transform="translate(3 -7.0)">27</text></g><g class="a30 c2 node n29 p0" transform="translate(-30.875 33.1859)"><g class="a29 c2 node n26 p0" transform="translate(-23.75 9.26573)"><g class="a26 c2 node n21 p0" transform="translate(20.9 17.0351)"><g class="a21 leaf node n7 p0 sample" transform="translate(11.4 35.1132)"><path class="edge" d="M 0 0 V -35.1132 H -11.4" /><rect class="sym" height="6" width="6" x="-3" y="-3" /><text class="lab" transform="translate(0 11)">7</text></g><g class="a21 c1 node n14 p0" transform="translate(-11.4 12.6139)"><g class="a14 c2 node n13 p0" transform="translate(0.0 17.4552)"><g class="a13 leaf node n2 p0 sample" transform="translate(-7.6 5.04406)"><path class="edge" d="M 0 0 V -5.04406 H 7.6" /><rect class="sym" height="6" width="6" x="-3" y="-3" /><text class="lab" transform="translate(0 11)">2</text></g><g class="a13 leaf node n3 p0 sample" transform="translate(7.6 5.04406)"><path class="edge" d="M 0 0 V -5.04406 H -7.6" /><rect class="sym" height="6" width="6" x="-3" y="-3" /><text class="lab" transform="translate(0 11)">3</text></g><path class="edge" d="M 0 0 V -17.4552 H 0.0" /><circle class="sym" cx="0" cy="0" r="3" /><text class="lab lft" transform="translate(-3 -7.0)">13</text></g><path class="edge" d="M 0 0 V -12.6139 H 11.4" /><circle class="sym" cx="0" cy="0" r="3" /><text class="lab lft" transform="translate(-3 -7.0)">14</text></g><path class="edge" d="M 0 0 V -17.0351 H -20.9" /><circle class="sym" cx="0" cy="0" r="3" /><text class="lab rgt" transform="translate(3 -7.0)">21</text></g><g class="a26 c1 node n25 p0" transform="translate(-20.9 13.7996)"><g class="a25 c1 node n22 p0" transform="translate(0.0 2.22692)"><g class="a22 c1 node n20 p0" transform="translate(0.0 3.00918)"><g class="a20 c2 node n12 p0" transform="translate(0.0 28.6214)"><g class="a12 leaf node n0 p0 sample" transform="translate(-7.6 4.49132)"><path class="edge" d="M 0 0 V -4.49132 H 7.6" /><rect class="sym" height="6" width="6" x="-3" y="-3" /><text class="lab" transform="translate(0 11)">0</text></g><g class="a12 leaf node n9 p0 sample" transform="translate(7.6 4.49132)"><path class="edge" d="M 0 0 V -4.49132 H -7.6" /><rect class="sym" height="6" width="6" x="-3" y="-3" /><text class="lab" transform="translate(0 11)">9</text></g><path class="edge" d="M 0 0 V -28.6214 H 0.0" /><circle class="sym" cx="0" cy="0" r="3" /><text class="lab lft" transform="translate(-3 -7.0)">12</text></g><path class="edge" d="M 0 0 V -3.00918 H 0.0" /><circle class="sym" cx="0" cy="0" r="3" /><text class="lab lft" transform="translate(-3 -7.0)">20</text></g><path class="edge" d="M 0 0 V -2.22692 H 0.0" /><circle class="sym" cx="0" cy="0" r="3" /><text class="lab lft" transform="translate(-3 -7.0)">22</text></g><path class="edge" d="M 0 0 V -13.7996 H 20.9" /><circle class="sym" cx="0" cy="0" r="3" /><text class="lab lft" transform="translate(-3 -7.0)">25</text></g><path class="edge" d="M 0 0 V -9.26573 H 23.75" /><circle class="sym" cx="0" cy="0" r="3" /><text class="lab lft" transform="translate(-3 -7.0)">26</text></g><g class="a29 c1 node n28 p0" transform="translate(23.75 0.627485)"><g class="a28 c1 node n23 p0" transform="translate(0.0 24.6317)"><g class="a23 c1 node n19 p0" transform="translate(0.0 7.87631)"><g class="a19 leaf node n5 p0 sample" transform="translate(0.0 28.2787)"><path class="edge" d="M 0 0 V -28.2787 H 0.0" /><rect class="sym" height="6" width="6" x="-3" y="-3" /><text class="lab" transform="translate(0 11)">5</text></g><path class="edge" d="M 0 0 V -7.87631 H 0.0" /><circle class="sym" cx="0" cy="0" r="3" /><text class="lab lft" transform="translate(-3 -7.0)">19</text></g><path class="edge" d="M 0 0 V -24.6317 H 0.0" /><circle class="sym" cx="0" cy="0" r="3" /><text class="lab lft" transform="translate(-3 -7.0)">23</text></g><path class="edge" d="M 0 0 V -0.627485 H -23.75" /><circle class="sym" cx="0" cy="0" r="3" /><text class="lab rgt" transform="translate(3 -7.0)">28</text></g><path class="edge" d="M 0 0 V -33.1859 H 30.875" /><circle class="sym" cx="0" cy="0" r="3" /><text class="lab lft" transform="translate(-3 -7.0)">29</text></g><circle class="sym" cx="0" cy="0" r="3" /><text class="lab" transform="translate(0 -11)">30</text></g></g></g><g class="tree t3" transform="translate(596 0)"><g class="plotbox"><g class="c2 node n30 p0 root" transform="translate(105.5 26.8)"><g class="a30 c2 node n27 p0" transform="translate(36.1 37.5877)"><g class="a27 c2 node n11 p0" transform="translate(15.2 53.2836)"><g class="a11 leaf node n4 p0 sample" transform="translate(-7.6 3.72868)"><path class="edge" d="M 0 0 V -3.72868 H 7.6" /><rect class="sym" height="6" width="6" x="-3" y="-3" /><text class="lab" transform="translate(0 11)">4</text></g><g class="a11 leaf node n6 p0 sample" transform="translate(7.6 3.72868)"><path class="edge" d="M 0 0 V -3.72868 H -7.6" /><rect class="sym" height="6" width="6" x="-3" y="-3" /><text class="lab" transform="translate(0 11)">6</text></g><path class="edge" d="M 0 0 V -53.2836 H -15.2" /><circle class="sym" cx="0" cy="0" r="3" /><text class="lab rgt" transform="translate(3 -7.0)">11</text></g><g class="a27 c1 node n17 p0" transform="translate(-15.2 30.5656)"><g class="a17 c2 node n10 p0" transform="translate(0.0 24.888)"><g class="a10 leaf node n1 p0 sample" transform="translate(-7.6 1.55872)"><path class="edge" d="M 0 0 V -1.55872 H 7.6" /><rect class="sym" height="6" width="6" x="-3" y="-3" /><text class="lab" transform="translate(0 11)">1</text></g><g class="a10 leaf node n8 p0 sample" transform="translate(7.6 1.55872)"><path class="edge" d="M 0 0 V -1.55872 H -7.6" /><rect class="sym" height="6" width="6" x="-3" y="-3" /><text class="lab" transform="translate(0 11)">8</text></g><path class="edge" d="M 0 0 V -24.888 H 0.0" /><circle class="sym" cx="0" cy="0" r="3" /><text class="lab lft" transform="translate(-3 -7.0)">10</text></g><path class="edge" d="M 0 0 V -30.5656 H 15.2" /><circle class="sym" cx="0" cy="0" r="3" /><text class="lab lft" transform="translate(-3 -7.0)">17</text></g><path class="edge" d="M 0 0 V -37.5877 H -36.1" /><circle class="sym" cx="0" cy="0" r="3" /><text class="lab rgt" transform="translate(3 -7.0)">27</text></g><g class="a30 c2 node n29 p0" transform="translate(-36.1 33.1859)"><g class="a29 c2 node n26 p0" transform="translate(-22.8 9.26573)"><g class="a26 c1 node n21 p0" transform="translate(11.4 17.0351)"><g class="a21 leaf node n7 p0 sample" transform="translate(0.0 35.1132)"><path class="edge" d="M 0 0 V -35.1132 H 0.0" /><rect class="sym" height="6" width="6" x="-3" y="-3" /><text class="lab" transform="translate(0 11)">7</text></g><path class="edge" d="M 0 0 V -17.0351 H -11.4" /><circle class="sym" cx="0" cy="0" r="3" /><text class="lab rgt" transform="translate(3 -7.0)">21</text></g><g class="a26 c1 node n25 p0" transform="translate(-11.4 13.7996)"><g class="a25 c1 node n22 p0" transform="translate(0.0 2.22692)"><g class="a22 c1 node n20 p0" transform="translate(0.0 3.00918)"><g class="a20 c2 node n12 p0" transform="translate(0.0 28.6214)"><g class="a12 leaf node n0 p0 sample" transform="translate(-7.6 4.49132)"><path class="edge" d="M 0 0 V -4.49132 H 7.6" /><rect class="sym" height="6" width="6" x="-3" y="-3" /><text class="lab" transform="translate(0 11)">0</text></g><g class="a12 leaf node n9 p0 sample" transform="translate(7.6 4.49132)"><path class="edge" d="M 0 0 V -4.49132 H -7.6" /><rect class="sym" height="6" width="6" x="-3" y="-3" /><text class="lab" transform="translate(0 11)">9</text></g><path class="edge" d="M 0 0 V -28.6214 H 0.0" /><circle class="sym" cx="0" cy="0" r="3" /><text class="lab lft" transform="translate(-3 -7.0)">12</text></g><path class="edge" d="M 0 0 V -3.00918 H 0.0" /><circle class="sym" cx="0" cy="0" r="3" /><text class="lab lft" transform="translate(-3 -7.0)">20</text></g><path class="edge" d="M 0 0 V -2.22692 H 0.0" /><circle class="sym" cx="0" cy="0" r="3" /><text class="lab lft" transform="translate(-3 -7.0)">22</text></g><path class="edge" d="M 0 0 V -13.7996 H 11.4" /><circle class="sym" cx="0" cy="0" r="3" /><text class="lab lft" transform="translate(-3 -7.0)">25</text></g><path class="edge" d="M 0 0 V -9.26573 H 22.8" /><circle class="sym" cx="0" cy="0" r="3" /><text class="lab lft" transform="translate(-3 -7.0)">26</text></g><g class="a29 c2 node n28 p0" transform="translate(22.8 0.627485)"><g class="a28 c1 node n23 p0" transform="translate(11.4 24.6317)"><g class="a23 c1 node n19 p0" transform="translate(0.0 7.87631)"><g class="a19 leaf node n5 p0 sample" transform="translate(0.0 28.2787)"><path class="edge" d="M 0 0 V -28.2787 H 0.0" /><rect class="sym" height="6" width="6" x="-3" y="-3" /><text class="lab" transform="translate(0 11)">5</text></g><path class="edge" d="M 0 0 V -7.87631 H 0.0" /><circle class="sym" cx="0" cy="0" r="3" /><text class="lab lft" transform="translate(-3 -7.0)">19</text></g><path class="edge" d="M 0 0 V -24.6317 H -11.4" /><circle class="sym" cx="0" cy="0" r="3" /><text class="lab rgt" transform="translate(3 -7.0)">23</text></g><g class="a28 c1 node n15 p0" transform="translate(-11.4 38.2873)"><g class="a15 c2 node n13 p0" transform="translate(0.0 17.4552)"><g class="a13 leaf node n2 p0 sample" transform="translate(-7.6 5.04406)"><path class="edge" d="M 0 0 V -5.04406 H 7.6" /><rect class="sym" height="6" width="6" x="-3" y="-3" /><text class="lab" transform="translate(0 11)">2</text></g><g class="a13 leaf node n3 p0 sample" transform="translate(7.6 5.04406)"><path class="edge" d="M 0 0 V -5.04406 H -7.6" /><rect class="sym" height="6" width="6" x="-3" y="-3" /><text class="lab" transform="translate(0 11)">3</text></g><path class="edge" d="M 0 0 V -17.4552 H 0.0" /><circle class="sym" cx="0" cy="0" r="3" /><text class="lab lft" transform="translate(-3 -7.0)">13</text></g><path class="edge" d="M 0 0 V -38.2873 H 11.4" /><circle class="sym" cx="0" cy="0" r="3" /><text class="lab lft" transform="translate(-3 -7.0)">15</text></g><path class="edge" d="M 0 0 V -0.627485 H -22.8" /><circle class="sym" cx="0" cy="0" r="3" /><text class="lab rgt" transform="translate(3 -7.0)">28</text></g><path class="edge" d="M 0 0 V -33.1859 H 36.1" /><circle class="sym" cx="0" cy="0" r="3" /><text class="lab lft" transform="translate(-3 -7.0)">29</text></g><circle class="sym" cx="0" cy="0" r="3" /><text class="lab" transform="translate(0 -11)">30</text></g></g></g><g class="tree t4" transform="translate(788 0)"><g class="plotbox"><g class="c2 node n30 p0 root" transform="translate(109.775 26.8)"><g class="a30 c2 node n27 p0" transform="translate(31.825 37.5877)"><g class="a27 c2 node n11 p0" transform="translate(15.2 53.2836)"><g class="a11 leaf node n4 p0 sample" transform="translate(-7.6 3.72868)"><path class="edge" d="M 0 0 V -3.72868 H 7.6" /><rect class="sym" height="6" width="6" x="-3" y="-3" /><text class="lab" transform="translate(0 11)">4</text></g><g class="a11 leaf node n6 p0 sample" transform="translate(7.6 3.72868)"><path class="edge" d="M 0 0 V -3.72868 H -7.6" /><rect class="sym" height="6" width="6" x="-3" y="-3" /><text class="lab" transform="translate(0 11)">6</text></g><path class="edge" d="M 0 0 V -53.2836 H -15.2" /><circle class="sym" cx="0" cy="0" r="3" /><text class="lab rgt" transform="translate(3 -7.0)">11</text></g><g class="a27 c1 node n17 p0" transform="translate(-15.2 30.5656)"><g class="a17 c2 node n10 p0" transform="translate(0.0 24.888)"><g class="a10 leaf node n1 p0 sample" transform="translate(-7.6 1.55872)"><path class="edge" d="M 0 0 V -1.55872 H 7.6" /><rect class="sym" height="6" width="6" x="-3" y="-3" /><text class="lab" transform="translate(0 11)">1</text></g><g class="a10 leaf node n8 p0 sample" transform="translate(7.6 1.55872)"><path class="edge" d="M 0 0 V -1.55872 H -7.6" /><rect class="sym" height="6" width="6" x="-3" y="-3" /><text class="lab" transform="translate(0 11)">8</text></g><path class="edge" d="M 0 0 V -24.888 H 0.0" /><circle class="sym" cx="0" cy="0" r="3" /><text class="lab lft" transform="translate(-3 -7.0)">10</text></g><path class="edge" d="M 0 0 V -30.5656 H 15.2" /><circle class="sym" cx="0" cy="0" r="3" /><text class="lab lft" transform="translate(-3 -7.0)">17</text></g><path class="edge" d="M 0 0 V -37.5877 H -31.825" /><circle class="sym" cx="0" cy="0" r="3" /><text class="lab rgt" transform="translate(3 -7.0)">27</text></g><g class="a30 c2 node n29 p0" transform="translate(-31.825 33.1859)"><g class="a29 c2 node n26 p0" transform="translate(-18.05 9.26573)"><g class="a26 c1 node n21 p0" transform="translate(13.3 17.0351)"><g class="a21 leaf node n7 p0 sample" transform="translate(0.0 35.1132)"><path class="edge" d="M 0 0 V -35.1132 H 0.0" /><rect class="sym" height="6" width="6" x="-3" y="-3" /><text class="lab" transform="translate(0 11)">7</text></g><path class="edge" d="M 0 0 V -17.0351 H -13.3" /><circle class="sym" cx="0" cy="0" r="3" /><text class="lab rgt" transform="translate(3 -7.0)">21</text></g><g class="a26 c2 node n25 p0" transform="translate(-13.3 13.7996)"><g class="a25 c1 node n22 p0" transform="translate(-11.4 2.22692)"><g class="a22 c1 node n20 p0" transform="translate(0.0 3.00918)"><g class="a20 c2 node n12 p0" transform="translate(0.0 28.6214)"><g class="a12 leaf node n0 p0 sample" transform="translate(-7.6 4.49132)"><path class="edge" d="M 0 0 V -4.49132 H 7.6" /><rect class="sym" height="6" width="6" x="-3" y="-3" /><text class="lab" transform="translate(0 11)">0</text></g><g class="a12 leaf node n9 p0 sample" transform="translate(7.6 4.49132)"><path class="edge" d="M 0 0 V -4.49132 H -7.6" /><rect class="sym" height="6" width="6" x="-3" y="-3" /><text class="lab" transform="translate(0 11)">9</text></g><path class="edge" d="M 0 0 V -28.6214 H 0.0" /><circle class="sym" cx="0" cy="0" r="3" /><text class="lab lft" transform="translate(-3 -7.0)">12</text></g><path class="edge" d="M 0 0 V -3.00918 H 0.0" /><circle class="sym" cx="0" cy="0" r="3" /><text class="lab lft" transform="translate(-3 -7.0)">20</text></g><path class="edge" d="M 0 0 V -2.22692 H 11.4" /><circle class="sym" cx="0" cy="0" r="3" /><text class="lab lft" transform="translate(-3 -7.0)">22</text></g><g class="a25 c1 node n24 p0" transform="translate(11.4 2.19385)"><g class="a24 c1 node n19 p0" transform="translate(0.0 7.87631)"><g class="a19 leaf node n5 p0 sample" transform="translate(0.0 28.2787)"><path class="edge" d="M 0 0 V -28.2787 H 0.0" /><rect class="sym" height="6" width="6" x="-3" y="-3" /><text class="lab" transform="translate(0 11)">5</text></g><path class="edge" d="M 0 0 V -7.87631 H 0.0" /><circle class="sym" cx="0" cy="0" r="3" /><text class="lab lft" transform="translate(-3 -7.0)">19</text></g><path class="edge" d="M 0 0 V -2.19385 H -11.4" /><circle class="sym" cx="0" cy="0" r="3" /><text class="lab rgt" transform="translate(3 -7.0)">24</text></g><path class="edge" d="M 0 0 V -13.7996 H 13.3" /><circle class="sym" cx="0" cy="0" r="3" /><text class="lab lft" transform="translate(-3 -7.0)">25</text></g><path class="edge" d="M 0 0 V -9.26573 H 18.05" /><circle class="sym" cx="0" cy="0" r="3" /><text class="lab lft" transform="translate(-3 -7.0)">26</text></g><g class="a29 c1 node n28 p0" transform="translate(18.05 0.627485)"><g class="a28 c1 node n15 p0" transform="translate(0.0 38.2873)"><g class="a15 c2 node n13 p0" transform="translate(0.0 17.4552)"><g class="a13 leaf node n2 p0 sample" transform="translate(-7.6 5.04406)"><path class="edge" d="M 0 0 V -5.04406 H 7.6" /><rect class="sym" height="6" width="6" x="-3" y="-3" /><text class="lab" transform="translate(0 11)">2</text></g><g class="a13 leaf node n3 p0 sample" transform="translate(7.6 5.04406)"><path class="edge" d="M 0 0 V -5.04406 H -7.6" /><rect class="sym" height="6" width="6" x="-3" y="-3" /><text class="lab" transform="translate(0 11)">3</text></g><path class="edge" d="M 0 0 V -17.4552 H 0.0" /><circle class="sym" cx="0" cy="0" r="3" /><text class="lab lft" transform="translate(-3 -7.0)">13</text></g><path class="edge" d="M 0 0 V -38.2873 H 0.0" /><circle class="sym" cx="0" cy="0" r="3" /><text class="lab lft" transform="translate(-3 -7.0)">15</text></g><path class="edge" d="M 0 0 V -0.627485 H -18.05" /><circle class="sym" cx="0" cy="0" r="3" /><text class="lab rgt" transform="translate(3 -7.0)">28</text></g><path class="edge" d="M 0 0 V -33.1859 H 31.825" /><circle class="sym" cx="0" cy="0" r="3" /><text class="lab lft" transform="translate(-3 -7.0)">29</text></g><circle class="sym" cx="0" cy="0" r="3" /><text class="lab" transform="translate(0 -11)">30</text></g></g></g></g></g></svg>
