<svg baseProfile="full" height="200" version="1.1" width="800" xmlns="http://www.w3.org/2000/svg" xmlns:ev="http://www.w3.org/2001/xml-events" xmlns:xlink="http://www.w3.org/1999/xlink"><defs><style type="text/css"><![CDATA[.background path {fill: #808080; fill-opacity: 0}.background path:nth-child(odd) {fill-opacity: .1}.axes {font-size: 14px}.x-axis .tick .lab {font-weight: bold; dominant-baseline: hanging}.axes, .tree {font-size: 14px; text-anchor: middle}.axes line, .edge {stroke: black; fill: none}.y-axis .grid {stroke: #FAFAFA}.node > .sym {fill: black; stroke: none}.site > .sym {stroke: black}.mut text {fill: red; font-style: italic}.mut.extra text {fill: hotpink}.mut line {fill: none; stroke: none}.mut .sym {fill: none; stroke: red}.mut.extra .sym {stroke: hotpink}.node .mut .sym {stroke-width: 1.5px}.tree text, .tree-sequence text {dominant-baseline: central}.plotbox .lab.lft {text-anchor: end}.plotbox .lab.rgt {text-anchor: start}]]></style></defs><g class="tree-sequence"><g class="background"><path d="M20,0 l190,0 l0,138.2 l-132.174,25 l0,5 l-57.826,0 l0,-5 l0,-25 l0,-138.2z" /><path d="M210,0 l190,0 l0,138.2 l5.03141,25 l0,5 l-327.205,0 l0,-5 l132.174,-25 l0,-138.2z" /><path d="M400,0 l190,0 l0,138.2 l-66.0826,25 l0,5 l-118.886,0 l0,-5 l-5.03141,-25 l0,-138.2z" /><path d="M590,0 l190,0 l0,138.2 l0,25 l0,5 l-256.083,0 l0,-5 l66.0826,-25 l0,-138.2z" /></g><g class="axes"><g class="x-axis"><g transform="translate(400 200)"><text class="lab" text-anchor="middle" transform="translate(0 -11)">Genome position</text></g><line x1="20" x2="780" y1="163.2" y2="163.2" /><g class="ticks"><g class="tick" transform="translate(20 163.2)"><line x1="0" x2="0" y1="0" y2="5" /><g transform="translate(0 6)"><text class="lab">0.00</text></g></g><g class="tick" transform="translate(77.826 163.2)"><line x1="0" x2="0" y1="0" y2="5" /><g transform="translate(0 6)"><text class="lab">76.09</text></g></g><g class="tick" transform="translate(405.031 163.2)"><line x1="0" x2="0" y1="0" y2="5" /><g transform="translate(0 6)"><text class="lab">506.62</text></g></g><g class="tick" transform="translate(523.917 163.2)"><line x1="0" x2="0" y1="0" y2="5" /><g transform="translate(0 6)"><text class="lab">663.05</text></g></g><g class="tick" transform="translate(780 163.2)"><line x1="0" x2="0" y1="0" y2="5" /><g transform="translate(0 6)"><text class="lab">1000.00</text></g></g></g></g></g><g class="plotbox trees"><g class="tree t0" transform="translate(20 0)"><g class="plotbox"><g class="c2 node n27 p0 root" transform="translate(98.2812 26.8)"><g class="a27 c2 node n16 p0" transform="translate(36.0938 72.089)"><g class="a16 leaf node n3 p0 sample" transform="translate(-16.875 22.511)"><path class="edge" d="M 0 0 V -22.511 H 16.875" /><rect class="sym" height="6" width="6" x="-3" y="-3" /><text class="lab" transform="translate(0 11)">3</text></g><g class="a16 c2 node n12 p0" transform="translate(16.875 13.6323)"><g class="a12 leaf node n8 p0 sample" transform="translate(11.25 8.87864)"><path class="edge" d="M 0 0 V -8.87864 H -11.25" /><rect class="sym" height="6" width="6" x="-3" y="-3" /><text class="lab" transform="translate(0 11)">8</text></g><g class="a12 c2 node n11 p0" transform="translate(-11.25 1.87216)"><g class="a11 leaf node n6 p0 sample" transform="translate(-7.5 7.00648)"><path class="edge" d="M 0 0 V -7.00648 H 7.5" /><rect class="sym" height="6" width="6" x="-3" y="-3" /><text class="lab" transform="translate(0 11)">6</text></g><g class="a11 leaf node n7 p0 sample" transform="translate(7.5 7.00648)"><path class="edge" d="M 0 0 V -7.00648 H -7.5" /><rect class="sym" height="6" width="6" x="-3" y="-3" /><text class="lab" transform="translate(0 11)">7</text></g><path class="edge" d="M 0 0 V -1.87216 H 11.25" /><circle class="sym" cx="0" cy="0" r="3" /><text class="lab lft" transform="translate(-3 -7.0)">11</text></g><path class="edge" d="M 0 0 V -13.6323 H -16.875" /><circle class="sym" cx="0" cy="0" r="3" /><text class="lab rgt" transform="translate(3 -7.0)">12</text></g><path class="edge" d="M 0 0 V -72.089 H -36.0938" /><circle class="sym" cx="0" cy="0" r="3" /><text class="lab rgt" transform="translate(3 -7.0)">16</text></g><g class="a27 c1 node n26 p0" transform="translate(-36.0938 22.5288)"><g class="a26 c2 node n25 p0" transform="translate(0.0 11.2216)"><g class="a25 c2 node n15 p0" transform="translate(-27.1875 46.5227)"><g class="a15 leaf node n9 p0 sample" transform="translate(7.5 14.327)"><path class="edge" d="M 0 0 V -14.327 H -7.5" /><rect class="sym" height="6" width="6" x="-3" y="-3" /><text class="lab" transform="translate(0 11)">9</text></g><g class="a15 c1 node n13 p0" transform="translate(-7.5 1.5783)"><g class="a13 leaf node n0 p0 sample" transform="translate(0.0 12.7487)"><path class="edge" d="M 0 0 V -12.7487 H 0.0" /><rect class="sym" height="6" width="6" x="-3" y="-3" /><text class="lab" transform="translate(0 11)">0</text></g><path class="edge" d="M 0 0 V -1.5783 H 7.5" /><circle class="sym" cx="0" cy="0" r="3" /><text class="lab lft" transform="translate(-3 -7.0)">13</text></g><path class="edge" d="M 0 0 V -46.5227 H 27.1875" /><circle class="sym" cx="0" cy="0" r="3" /><text class="lab lft" transform="translate(-3 -7.0)">15</text></g><g class="a25 c1 node n24 p0" transform="translate(27.1875 0.46157)"><g class="a24 c1 node n22 p0" transform="translate(0.0 1.13942)"><g class="a22 c1 node n20 p0" transform="translate(0.0 20.6144)"><g class="a20 c1 node n19 p0" transform="translate(0.0 0.738501)"><g class="a19 c2 node n18 p0" transform="translate(0.0 4.96126)"><g class="a18 leaf node n5 p0 sample" transform="translate(13.125 32.9345)"><path class="edge" d="M 0 0 V -32.9345 H -13.125" /><rect class="sym" height="6" width="6" x="-3" y="-3" /><text class="lab" transform="translate(0 11)">5</text></g><g class="a18 c2 node n17 p0" transform="translate(-13.125 5.37469)"><g class="a17 leaf node n2 p0 sample" transform="translate(11.25 27.5598)"><path class="edge" d="M 0 0 V -27.5598 H -11.25" /><rect class="sym" height="6" width="6" x="-3" y="-3" /><text class="lab" transform="translate(0 11)">2</text></g><g class="a17 c2 node n10 p0" transform="translate(-11.25 25.3557)"><g class="a10 leaf node n1 p0 sample" transform="translate(-7.5 2.20411)"><path class="edge" d="M 0 0 V -2.20411 H 7.5" /><rect class="sym" height="6" width="6" x="-3" y="-3" /><text class="lab" transform="translate(0 11)">1</text></g><g class="a10 leaf node n4 p0 sample" transform="translate(7.5 2.20411)"><path class="edge" d="M 0 0 V -2.20411 H -7.5" /><rect class="sym" height="6" width="6" x="-3" y="-3" /><text class="lab" transform="translate(0 11)">4</text></g><path class="edge" d="M 0 0 V -25.3557 H 11.25" /><circle class="sym" cx="0" cy="0" r="3" /><text class="lab lft" transform="translate(-3 -7.0)">10</text></g><path class="edge" d="M 0 0 V -5.37469 H 13.125" /><circle class="sym" cx="0" cy="0" r="3" /><text class="lab lft" transform="translate(-3 -7.0)">17</text></g><path class="edge" d="M 0 0 V -4.96126 H 0.0" /><circle class="sym" cx="0" cy="0" r="3" /><text class="lab lft" transform="translate(-3 -7.0)">18</text></g><path class="edge" d="M 0 0 V -0.738501 H 0.0" /><circle class="sym" cx="0" cy="0" r="3" /><text class="lab lft" transform="translate(-3 -7.0)">19</text></g><path class="edge" d="M 0 0 V -20.6144 H 0.0" /><circle class="sym" cx="0" cy="0" r="3" /><text class="lab lft" transform="translate(-3 -7.0)">20</text></g><path class="edge" d="M 0 0 V -1.13942 H 0.0" /><circle class="sym" cx="0" cy="0" r="3" /><text class="lab lft" transform="translate(-3 -7.0)">22</text></g><path class="edge" d="M 0 0 V -0.46157 H -27.1875" /><circle class="sym" cx="0" cy="0" r="3" /><text class="lab rgt" transform="translate(3 -7.0)">24</text></g><path class="edge" d="M 0 0 V -11.2216 H 0.0" /><circle class="sym" cx="0" cy="0" r="3" /><text class="lab lft" transform="translate(-3 -7.0)">25</text></g><path class="edge" d="M 0 0 V -22.5288 H 36.0938" /><circle class="sym" cx="0" cy="0" r="3" /><text class="lab lft" transform="translate(-3 -7.0)">26</text></g><circle class="sym" cx="0" cy="0" r="3" /><text class="lab" transform="translate(0 -11)">27</text></g></g></g><g class="tree t1" transform="translate(210 0)"><g class="plotbox"><g class="c2 node n27 p0 root" transform="translate(98.2812 26.8)"><g class="a27 c2 node n16 p0" transform="translate(36.0938 72.089)"><g class="a16 leaf node n3 p0 sample" transform="translate(-16.875 22.511)"><path class="edge" d="M 0 0 V -22.511 H 16.875" /><rect class="sym" height="6" width="6" x="-3" y="-3" /><text class="lab" transform="translate(0 11)">3</text></g><g class="a16 c2 node n12 p0" transform="translate(16.875 13.6323)"><g class="a12 leaf node n8 p0 sample" transform="translate(11.25 8.87864)"><path class="edge" d="M 0 0 V -8.87864 H -11.25" /><rect class="sym" height="6" width="6" x="-3" y="-3" /><text class="lab" transform="translate(0 11)">8</text></g><g class="a12 c2 node n11 p0" transform="translate(-11.25 1.87216)"><g class="a11 leaf node n6 p0 sample" transform="translate(-7.5 7.00648)"><path class="edge" d="M 0 0 V -7.00648 H 7.5" /><rect class="sym" height="6" width="6" x="-3" y="-3" /><text class="lab" transform="translate(0 11)">6</text></g><g class="a11 leaf node n7 p0 sample" transform="translate(7.5 7.00648)"><path class="edge" d="M 0 0 V -7.00648 H -7.5" /><rect class="sym" height="6" width="6" x="-3" y="-3" /><text class="lab" transform="translate(0 11)">7</text></g><path class="edge" d="M 0 0 V -1.87216 H 11.25" /><circle class="sym" cx="0" cy="0" r="3" /><text class="lab lft" transform="translate(-3 -7.0)">11</text></g><path class="edge" d="M 0 0 V -13.6323 H -16.875" /><circle class="sym" cx="0" cy="0" r="3" /><text class="lab rgt" transform="translate(3 -7.0)">12</text></g><path class="edge" d="M 0 0 V -72.089 H -36.0938" /><circle class="sym" cx="0" cy="0" r="3" /><text class="lab rgt" transform="translate(3 -7.0)">16</text></g><g class="a27 c2 node n26 p0" transform="translate(-36.0938 22.5288)"><g class="a26 c1 node n25 p0" transform="translate(-27.1875 11.2216)"><g class="a25 c2 node n15 p0" transform="translate(0.0 46.5227)"><g class="a15 leaf node n9 p0 sample" transform="translate(7.5 14.327)"><path class="edge" d="M 0 0 V -14.327 H -7.5" /><rect class="sym" height="6" width="6" x="-3" y="-3" /><text class="lab" transform="translate(0 11)">9</text></g><g class="a15 c1 node n13 p0" transform="translate(-7.5 1.5783)"><g class="a13 leaf node n0 p0 sample" transform="translate(0.0 12.7487)"><path class="edge" d="M 0 0 V -12.7487 H 0.0" /><rect class="sym" height="6" width="6" x="-3" y="-3" /><text class="lab" transform="translate(0 11)">0</text></g><path class="edge" d="M 0 0 V -1.5783 H 7.5" /><circle class="sym" cx="0" cy="0" r="3" /><text class="lab lft" transform="translate(-3 -7.0)">13</text></g><path class="edge" d="M 0 0 V -46.5227 H 0.0" /><circle class="sym" cx="0" cy="0" r="3" /><text class="lab lft" transform="translate(-3 -7.0)">15</text></g><path class="edge" d="M 0 0 V -11.2216 H 27.1875" /><circle class="sym" cx="0" cy="0" r="3" /><text class="lab lft" transform="translate(-3 -7.0)">25</text></g><g class="a26 c1 node n23 p0" transform="translate(27.1875 12.8226)"><g class="a23 c1 node n20 p0" transform="translate(0.0 20.6144)"><g class="a20 c1 node n19 p0" transform="translate(0.0 0.738501)"><g class="a19 c2 node n18 p0" transform="translate(0.0 4.96126)"><g class="a18 leaf node n5 p0 sample" transform="translate(13.125 32.9345)"><path class="edge" d="M 0 0 V -32.9345 H -13.125" /><rect class="sym" height="6" width="6" x="-3" y="-3" /><text class="lab" transform="translate(0 11)">5</text></g><g class="a18 c2 node n17 p0" transform="translate(-13.125 5.37469)"><g class="a17 leaf node n2 p0 sample" transform="translate(11.25 27.5598)"><path class="edge" d="M 0 0 V -27.5598 H -11.25" /><rect class="sym" height="6" width="6" x="-3" y="-3" /><text class="lab" transform="translate(0 11)">2</text></g><g class="a17 c2 node n10 p0" transform="translate(-11.25 25.3557)"><g class="a10 leaf node n1 p0 sample" transform="translate(-7.5 2.20411)"><path class="edge" d="M 0 0 V -2.20411 H 7.5" /><rect class="sym" height="6" width="6" x="-3" y="-3" /><text class="lab" transform="translate(0 11)">1</text></g><g class="a10 leaf node n4 p0 sample" transform="translate(7.5 2.20411)"><path class="edge" d="M 0 0 V -2.20411 H -7.5" /><rect class="sym" height="6" width="6" x="-3" y="-3" /><text class="lab" transform="translate(0 11)">4</text></g><path class="edge" d="M 0 0 V -25.3557 H 11.25" /><circle class="sym" cx="0" cy="0" r="3" /><text class="lab lft" transform="translate(-3 -7.0)">10</text></g><path class="edge" d="M 0 0 V -5.37469 H 13.125" /><circle class="sym" cx="0" cy="0" r="3" /><text class="lab lft" transform="translate(-3 -7.0)">17</text></g><path class="edge" d="M 0 0 V -4.96126 H 0.0" /><circle class="sym" cx="0" cy="0" r="3" /><text class="lab lft" transform="translate(-3 -7.0)">18</text></g><path class="edge" d="M 0 0 V -0.738501 H 0.0" /><circle class="sym" cx="0" cy="0" r="3" /><text class="lab lft" transform="translate(-3 -7.0)">19</text></g><path class="edge" d="M 0 0 V -20.6144 H 0.0" /><circle class="sym" cx="0" cy="0" r="3" /><text class="lab lft" transform="translate(-3 -7.0)">20</text></g><path class="edge" d="M 0 0 V -12.8226 H -27.1875" /><circle class="sym" cx="0" cy="0" r="3" /><text class="lab rgt" transform="translate(3 -7.0)">23</text></g><path class="edge" d="M 0 0 V -22.5288 H 36.0938" /><circle class="sym" cx="0" cy="0" r="3" /><text class="lab lft" transform="translate(-3 -7.0)">26</text></g><circle class="sym" cx="0" cy="0" r="3" /><text class="lab" transform="translate(0 -11)">27</text></g></g></g><g class="tree t2" transform="translate(400 0)"><g class="plotbox"><g class="c2 node n27 p0 root" transform="translate(105.547 26.8)"><g class="a27 c2 node n16 p0" transform="translate(28.8281 72.089)"><g class="a16 leaf node n3 p0 sample" transform="translate(-16.875 22.511)"><path class="edge" d="M 0 0 V -22.511 H 16.875" /><rect class="sym" height="6" width="6" x="-3" y="-3" /><text class="lab" transform="translate(0 11)">3</text></g><g class="a16 c2 node n12 p0" transform="translate(16.875 13.6323)"><g class="a12 leaf node n8 p0 sample" transform="translate(11.25 8.87864)"><path class="edge" d="M 0 0 V -8.87864 H -11.25" /><rect class="sym" height="6" width="6" x="-3" y="-3" /><text class="lab" transform="translate(0 11)">8</text></g><g class="a12 c2 node n11 p0" transform="translate(-11.25 1.87216)"><g class="a11 leaf node n6 p0 sample" transform="translate(-7.5 7.00648)"><path class="edge" d="M 0 0 V -7.00648 H 7.5" /><rect class="sym" height="6" width="6" x="-3" y="-3" /><text class="lab" transform="translate(0 11)">6</text></g><g class="a11 leaf node n7 p0 sample" transform="translate(7.5 7.00648)"><path class="edge" d="M 0 0 V -7.00648 H -7.5" /><rect class="sym" height="6" width="6" x="-3" y="-3" /><text class="lab" transform="translate(0 11)">7</text></g><path class="edge" d="M 0 0 V -1.87216 H 11.25" /><circle class="sym" cx="0" cy="0" r="3" /><text class="lab lft" transform="translate(-3 -7.0)">11</text></g><path class="edge" d="M 0 0 V -13.6323 H -16.875" /><circle class="sym" cx="0" cy="0" r="3" /><text class="lab rgt" transform="translate(3 -7.0)">12</text></g><path class="edge" d="M 0 0 V -72.089 H -28.8281" /><circle class="sym" cx="0" cy="0" r="3" /><text class="lab rgt" transform="translate(3 -7.0)">16</text></g><g class="a27 c2 node n26 p0" transform="translate(-28.8281 22.5288)"><g class="a26 c1 node n25 p0" transform="translate(25.7812 11.2216)"><g class="a25 c1 node n15 p0" transform="translate(0.0 46.5227)"><g class="a15 leaf node n9 p0 sample" transform="translate(0.0 14.327)"><path class="edge" d="M 0 0 V -14.327 H 0.0" /><rect class="sym" height="6" width="6" x="-3" y="-3" /><text class="lab" transform="translate(0 11)">9</text></g><path class="edge" d="M 0 0 V -46.5227 H 0.0" /><circle class="sym" cx="0" cy="0" r="3" /><text class="lab lft" transform="translate(-3 -7.0)">15</text></g><path class="edge" d="M 0 0 V -11.2216 H -25.7812" /><circle class="sym" cx="0" cy="0" r="3" /><text class="lab rgt" transform="translate(3 -7.0)">25</text></g><g class="a26 c1 node n23 p0" transform="translate(-25.7812 12.8226)"><g class="a23 c1 node n20 p0" transform="translate(0.0 20.6144)"><g class="a20 c2 node n19 p0" transform="translate(0.0 0.738501)"><g class="a19 c2 node n18 p0" transform="translate(23.4375 4.96126)"><g class="a18 leaf node n5 p0 sample" transform="translate(13.125 32.9345)"><path class="edge" d="M 0 0 V -32.9345 H -13.125" /><rect class="sym" height="6" width="6" x="-3" y="-3" /><text class="lab" transform="translate(0 11)">5</text></g><g class="a18 c2 node n17 p0" transform="translate(-13.125 5.37469)"><g class="a17 leaf node n2 p0 sample" transform="translate(11.25 27.5598)"><path class="edge" d="M 0 0 V -27.5598 H -11.25" /><rect class="sym" height="6" width="6" x="-3" y="-3" /><text class="lab" transform="translate(0 11)">2</text></g><g class="a17 c2 node n10 p0" transform="translate(-11.25 25.3557)"><g class="a10 leaf node n1 p0 sample" transform="translate(-7.5 2.20411)"><path class="edge" d="M 0 0 V -2.20411 H 7.5" /><rect class="sym" height="6" width="6" x="-3" y="-3" /><text class="lab" transform="translate(0 11)">1</text></g><g class="a10 leaf node n4 p0 sample" transform="translate(7.5 2.20411)"><path class="edge" d="M 0 0 V -2.20411 H -7.5" /><rect class="sym" height="6" width="6" x="-3" y="-3" /><text class="lab" transform="translate(0 11)">4</text></g><path class="edge" d="M 0 0 V -25.3557 H 11.25" /><circle class="sym" cx="0" cy="0" r="3" /><text class="lab lft" transform="translate(-3 -7.0)">10</text></g><path class="edge" d="M 0 0 V -5.37469 H 13.125" /><circle class="sym" cx="0" cy="0" r="3" /><text class="lab lft" transform="translate(-3 -7.0)">17</text></g><path class="edge" d="M 0 0 V -4.96126 H -23.4375" /><circle class="sym" cx="0" cy="0" r="3" /><text class="lab rgt" transform="translate(3 -7.0)">18</text></g><g class="a19 c1 node n14 p0" transform="translate(-23.4375 25.1471)"><g class="a14 leaf node n0 p0 sample" transform="translate(0.0 12.7487)"><path class="edge" d="M 0 0 V -12.7487 H 0.0" /><rect class="sym" height="6" width="6" x="-3" y="-3" /><text class="lab" transform="translate(0 11)">0</text></g><path class="edge" d="M 0 0 V -25.1471 H 23.4375" /><circle class="sym" cx="0" cy="0" r="3" /><text class="lab lft" transform="translate(-3 -7.0)">14</text></g><path class="edge" d="M 0 0 V -0.738501 H 0.0" /><circle class="sym" cx="0" cy="0" r="3" /><text class="lab lft" transform="translate(-3 -7.0)">19</text></g><path class="edge" d="M 0 0 V -20.6144 H 0.0" /><circle class="sym" cx="0" cy="0" r="3" /><text class="lab lft" transform="translate(-3 -7.0)">20</text></g><path class="edge" d="M 0 0 V -12.8226 H 25.7812" /><circle class="sym" cx="0" cy="0" r="3" /><text class="lab lft" transform="translate(-3 -7.0)">23</text></g><path class="edge" d="M 0 0 V -22.5288 H 28.8281" /><circle class="sym" cx="0" cy="0" r="3" /><text class="lab lft" transform="translate(-3 -7.0)">26</text></g><circle class="sym" cx="0" cy="0" r="3" /><text class="lab" transform="translate(0 -11)">27</text></g></g></g><g class="tree t3" transform="translate(590 0)"><g class="plotbox"><g class="c2 node n27 p0 root" transform="translate(105.547 26.8)"><g class="a27 c2 node n16 p0" transform="translate(28.8281 72.089)"><g class="a16 leaf node n3 p0 sample" transform="translate(-16.875 22.511)"><path class="edge" d="M 0 0 V -22.511 H 16.875" /><rect class="sym" height="6" width="6" x="-3" y="-3" /><text class="lab" transform="translate(0 11)">3</text></g><g class="a16 c2 node n12 p0" transform="translate(16.875 13.6323)"><g class="a12 leaf node n8 p0 sample" transform="translate(11.25 8.87864)"><path class="edge" d="M 0 0 V -8.87864 H -11.25" /><rect class="sym" height="6" width="6" x="-3" y="-3" /><text class="lab" transform="translate(0 11)">8</text></g><g class="a12 c2 node n11 p0" transform="translate(-11.25 1.87216)"><g class="a11 leaf node n6 p0 sample" transform="translate(-7.5 7.00648)"><path class="edge" d="M 0 0 V -7.00648 H 7.5" /><rect class="sym" height="6" width="6" x="-3" y="-3" /><text class="lab" transform="translate(0 11)">6</text></g><g class="a11 leaf node n7 p0 sample" transform="translate(7.5 7.00648)"><path class="edge" d="M 0 0 V -7.00648 H -7.5" /><rect class="sym" height="6" width="6" x="-3" y="-3" /><text class="lab" transform="translate(0 11)">7</text></g><path class="edge" d="M 0 0 V -1.87216 H 11.25" /><circle class="sym" cx="0" cy="0" r="3" /><text class="lab lft" transform="translate(-3 -7.0)">11</text></g><path class="edge" d="M 0 0 V -13.6323 H -16.875" /><circle class="sym" cx="0" cy="0" r="3" /><text class="lab rgt" transform="translate(3 -7.0)">12</text></g><path class="edge" d="M 0 0 V -72.089 H -28.8281" /><circle class="sym" cx="0" cy="0" r="3" /><text class="lab rgt" transform="translate(3 -7.0)">16</text></g><g class="a27 c1 node n26 p0" transform="translate(-28.8281 22.5288)"><g class="a26 c2 node n25 p0" transform="translate(0.0 11.2216)"><g class="a25 c1 node n15 p0" transform="translate(25.7812 46.5227)"><g class="a15 leaf node n9 p0 sample" transform="translate(0.0 14.327)"><path class="edge" d="M 0 0 V -14.327 H 0.0" /><rect class="sym" height="6" width="6" x="-3" y="-3" /><text class="lab" transform="translate(0 11)">9</text></g><path class="edge" d="M 0 0 V -46.5227 H -25.7812" /><circle class="sym" cx="0" cy="0" r="3" /><text class="lab rgt" transform="translate(3 -7.0)">15</text></g><g class="a25 c1 node n24 p0" transform="translate(-25.7812 0.46157)"><g class="a24 c1 node n21 p0" transform="translate(0.0 21.7538)"><g class="a21 c2 node n19 p0" transform="translate(0.0 0.738501)"><g class="a19 c2 node n18 p0" transform="translate(23.4375 4.96126)"><g class="a18 leaf node n5 p0 sample" transform="translate(13.125 32.9345)"><path class="edge" d="M 0 0 V -32.9345 H -13.125" /><rect class="sym" height="6" width="6" x="-3" y="-3" /><text class="lab" transform="translate(0 11)">5</text></g><g class="a18 c2 node n17 p0" transform="translate(-13.125 5.37469)"><g class="a17 leaf node n2 p0 sample" transform="translate(11.25 27.5598)"><path class="edge" d="M 0 0 V -27.5598 H -11.25" /><rect class="sym" height="6" width="6" x="-3" y="-3" /><text class="lab" transform="translate(0 11)">2</text></g><g class="a17 c2 node n10 p0" transform="translate(-11.25 25.3557)"><g class="a10 leaf node n1 p0 sample" transform="translate(-7.5 2.20411)"><path class="edge" d="M 0 0 V -2.20411 H 7.5" /><rect class="sym" height="6" width="6" x="-3" y="-3" /><text class="lab" transform="translate(0 11)">1</text></g><g class="a10 leaf node n4 p0 sample" transform="translate(7.5 2.20411)"><path class="edge" d="M 0 0 V -2.20411 H -7.5" /><rect class="sym" height="6" width="6" x="-3" y="-3" /><text class="lab" transform="translate(0 11)">4</text></g><path class="edge" d="M 0 0 V -25.3557 H 11.25" /><circle class="sym" cx="0" cy="0" r="3" /><text class="lab lft" transform="translate(-3 -7.0)">10</text></g><path class="edge" d="M 0 0 V -5.37469 H 13.125" /><circle class="sym" cx="0" cy="0" r="3" /><text class="lab lft" transform="translate(-3 -7.0)">17</text></g><path class="edge" d="M 0 0 V -4.96126 H -23.4375" /><circle class="sym" cx="0" cy="0" r="3" /><text class="lab rgt" transform="translate(3 -7.0)">18</text></g><g class="a19 c1 node n14 p0" transform="translate(-23.4375 25.1471)"><g class="a14 leaf node n0 p0 sample" transform="translate(0.0 12.7487)"><path class="edge" d="M 0 0 V -12.7487 H 0.0" /><rect class="sym" height="6" width="6" x="-3" y="-3" /><text class="lab" transform="translate(0 11)">0</text></g><path class="edge" d="M 0 0 V -25.1471 H 23.4375" /><circle class="sym" cx="0" cy="0" r="3" /><text class="lab lft" transform="translate(-3 -7.0)">14</text></g><path class="edge" d="M 0 0 V -0.738501 H 0.0" /><circle class="sym" cx="0" cy="0" r="3" /><text class="lab lft" transform="translate(-3 -7.0)">19</text></g><path class="edge" d="M 0 0 V -21.7538 H 0.0" /><circle class="sym" cx="0" cy="0" r="3" /><text class="lab lft" transform="translate(-3 -7.0)">21</text></g><path class="edge" d="M 0 0 V -0.46157 H 25.7812" /><circle class="sym" cx="0" cy="0" r="3" /><text class="lab lft" transform="translate(-3 -7.0)">24</text></g><path class="edge" d="M 0 0 V -11.2216 H 0.0" /><circle class="sym" cx="0" cy="0" r="3" /><text class="lab lft" transform="translate(-3 -7.0)">25</text></g><path class="edge" d="M 0 0 V -22.5288 H 28.8281" /><circle class="sym" cx="0" cy="0" r="3" /><text class="lab lft" transform="translate(-3 -7.0)">26</text></g><circle class="sym" cx="0" cy="0" r="3" /><text class="lab" transform="translate(0 -11)">27</text></g></g></g></g></g></svg>
