<svg baseProfile="full" height="200" version="1.1" width="1400" xmlns="http://www.w3.org/2000/svg" xmlns:ev="http://www.w3.org/2001/xml-events" xmlns:xlink="http://www.w3.org/1999/xlink"><defs><style type="text/css"><![CDATA[.background path {fill: #808080; fill-opacity: 0}.background path:nth-child(odd) {fill-opacity: .1}.axes {font-size: 14px}.x-axis .tick .lab {font-weight: bold; dominant-baseline: hanging}.axes, .tree {font-size: 14px; text-anchor: middle}.axes line, .edge {stroke: black; fill: none}.y-axis .grid {stroke: #FAFAFA}.node > .sym {fill: black; stroke: none}.site > .sym {stroke: black}.mut text {fill: red; font-style: italic}.mut.extra text {fill: hotpink}.mut line {fill: none; stroke: none}.mut .sym {fill: none; stroke: red}.mut.extra .sym {stroke: hotpink}.node .mut .sym {stroke-width: 1.5px}.tree text, .tree-sequence text {dominant-baseline: central}.plotbox .lab.lft {text-anchor: end}.plotbox .lab.rgt {text-anchor: start}]]></style></defs><g class="tree-sequence"><g class="background"><path d="M20,0 l194.286,0 l0,138.2 l-158.421,25 l0,5 l-35.8646,0 l0,-5 l0,-25 l0,-138.2z" /><path d="M214.286,0 l194.286,0 l0,138.2 l250.952,25 l0,5 l-603.659,0 l0,-5 l158.421,-25 l0,-138.2z" /><path d="M408.571,0 l194.286,0 l0,138.2 l178.434,25 l0,5 l-121.768,0 l0,-5 l-250.952,-25 l0,-138.2z" /><path d="M602.857,0 l194.286,0 l0,138.2 l87.3444,25 l0,5 l-103.196,0 l0,-5 l-178.434,-25 l0,-138.2z" /><path d="M797.143,0 l194.286,0 l0,138.2 l34.8643,25 l0,5 l-141.806,0 l0,-5 l-87.3444,-25 l0,-138.2z" /><path d="M991.429,0 l194.286,0 l0,138.2 l-126.332,25 l0,5 l-33.0896,0 l0,-5 l-34.8643,-25 l0,-138.2z" /><path d="M1185.71,0 l194.286,0 l0,138.2 l0,25 l0,5 l-320.617,0 l0,-5 l126.332,-25 l0,-138.2z" /></g><g class="axes"><g class="x-axis"><g transform="translate(700 200)"><text class="lab" text-anchor="middle" transform="translate(0 -11)">Genome position</text></g><line x1="20" x2="1380" y1="163.2" y2="163.2" /><g class="ticks"><g class="tick" transform="translate(20 163.2)"><line x1="0" x2="0" y1="0" y2="5" /><g transform="translate(0 6)"><text class="lab">0.00</text></g></g><g class="tick" transform="translate(55.8646 163.2)"><line x1="0" x2="0" y1="0" y2="5" /><g transform="translate(0 6)"><text class="lab">26.37</text></g></g><g class="tick" transform="translate(659.523 163.2)"><line x1="0" x2="0" y1="0" y2="5" /><g transform="translate(0 6)"><text class="lab">470.24</text></g></g><g class="tick" transform="translate(781.291 163.2)"><line x1="0" x2="0" y1="0" y2="5" /><g transform="translate(0 6)"><text class="lab">559.77</text></g></g><g class="tick" transform="translate(884.487 163.2)"><line x1="0" x2="0" y1="0" y2="5" /><g transform="translate(0 6)"><text class="lab">635.65</text></g></g><g class="tick" transform="translate(1026.29 163.2)"><line x1="0" x2="0" y1="0" y2="5" /><g transform="translate(0 6)"><text class="lab">739.92</text></g></g><g class="tick" transform="translate(1059.38 163.2)"><line x1="0" x2="0" y1="0" y2="5" /><g transform="translate(0 6)"><text class="lab">764.25</text></g></g><g class="tick" transform="translate(1380 163.2)"><line x1="0" x2="0" y1="0" y2="5" /><g transform="translate(0 6)"><text class="lab">1000.00</text></g></g></g></g></g><g class="plotbox trees"><g class="tree t0" transform="translate(20 0)"><g class="plotbox"><g class="c2 node n36 p0 root" transform="translate(133.304 26.8)"><g class="a36 c1 node n34 p0" transform="translate(25.5536 33.2459)"><g class="a34 c1 node n31 p0" transform="translate(0.0 6.59882)"><g class="a31 c1 node n22 p0" transform="translate(0.0 22.2825)"><g class="a22 c2 node n14 p0" transform="translate(0.0 18.2645)"><g class="a14 leaf node n4 p0 sample" transform="translate(-7.71429 14.2083)"><path class="edge" d="M 0 0 V -14.2083 H 7.71429" /><rect class="sym" height="6" width="6" x="-3" y="-3" /><text class="lab" transform="translate(0 11)">4</text></g><g class="a14 leaf node n5 p0 sample" transform="translate(7.71429 14.2083)"><path class="edge" d="M 0 0 V -14.2083 H -7.71429" /><rect class="sym" height="6" width="6" x="-3" y="-3" /><text class="lab" transform="translate(0 11)">5</text></g><path class="edge" d="M 0 0 V -18.2645 H 0.0" /><circle class="sym" cx="0" cy="0" r="3" /><text class="lab lft" transform="translate(-3 -7.0)">14</text></g><path class="edge" d="M 0 0 V -22.2825 H 0.0" /><circle class="sym" cx="0" cy="0" r="3" /><text class="lab lft" transform="translate(-3 -7.0)">22</text></g><path class="edge" d="M 0 0 V -6.59882 H 0.0" /><circle class="sym" cx="0" cy="0" r="3" /><text class="lab lft" transform="translate(-3 -7.0)">31</text></g><path class="edge" d="M 0 0 V -33.2459 H -25.5536" /><circle class="sym" cx="0" cy="0" r="3" /><text class="lab rgt" transform="translate(3 -7.0)">34</text></g><g class="a36 c1 node n35 p0" transform="translate(-25.5536 15.7733)"><g class="a35 c2 node n32 p0" transform="translate(0.0 19.5929)"><g class="a32 c2 node n27 p0" transform="translate(-27.9643 22.1833)"><g class="a27 c1 node n21 p0" transform="translate(28.9286 5.67911)"><g class="a21 c1 node n19 p0" transform="translate(0.0 0.726866)"><g class="a19 c1 node n17 p0" transform="translate(0.0 2.81669)"><g class="a17 c2 node n15 p0" transform="translate(0.0 4.26511)"><g class="a15 leaf node n6 p0 sample" transform="translate(11.5714 23.5627)"><path class="edge" d="M 0 0 V -23.5627 H -11.5714" /><rect class="sym" height="6" width="6" x="-3" y="-3" /><text class="lab" transform="translate(0 11)">6</text></g><g class="a15 c2 node n13 p0" transform="translate(-11.5714 20.3832)"><g class="a13 leaf node n3 p0 sample" transform="translate(-7.71429 3.17945)"><path class="edge" d="M 0 0 V -3.17945 H 7.71429" /><rect class="sym" height="6" width="6" x="-3" y="-3" /><text class="lab" transform="translate(0 11)">3</text></g><g class="a13 leaf node n8 p0 sample" transform="translate(7.71429 3.17945)"><path class="edge" d="M 0 0 V -3.17945 H -7.71429" /><rect class="sym" height="6" width="6" x="-3" y="-3" /><text class="lab" transform="translate(0 11)">8</text></g><path class="edge" d="M 0 0 V -20.3832 H 11.5714" /><circle class="sym" cx="0" cy="0" r="3" /><text class="lab lft" transform="translate(-3 -7.0)">13</text></g><path class="edge" d="M 0 0 V -4.26511 H 0.0" /><circle class="sym" cx="0" cy="0" r="3" /><text class="lab lft" transform="translate(-3 -7.0)">15</text></g><path class="edge" d="M 0 0 V -2.81669 H 0.0" /><circle class="sym" cx="0" cy="0" r="3" /><text class="lab lft" transform="translate(-3 -7.0)">17</text></g><path class="edge" d="M 0 0 V -0.726866 H 0.0" /><circle class="sym" cx="0" cy="0" r="3" /><text class="lab lft" transform="translate(-3 -7.0)">19</text></g><path class="edge" d="M 0 0 V -5.67911 H -28.9286" /><circle class="sym" cx="0" cy="0" r="3" /><text class="lab rgt" transform="translate(3 -7.0)">21</text></g><g class="a27 c2 node n24 p0" transform="translate(-28.9286 4.42516)"><g class="a24 c2 node n12 p0" transform="translate(15.4286 29.9008)"><g class="a12 leaf node n1 p0 sample" transform="translate(-7.71429 2.72453)"><path class="edge" d="M 0 0 V -2.72453 H 7.71429" /><rect class="sym" height="6" width="6" x="-3" y="-3" /><text class="lab" transform="translate(0 11)">1</text></g><g class="a12 leaf node n7 p0 sample" transform="translate(7.71429 2.72453)"><path class="edge" d="M 0 0 V -2.72453 H -7.71429" /><rect class="sym" height="6" width="6" x="-3" y="-3" /><text class="lab" transform="translate(0 11)">7</text></g><path class="edge" d="M 0 0 V -29.9008 H -15.4286" /><circle class="sym" cx="0" cy="0" r="3" /><text class="lab rgt" transform="translate(3 -7.0)">12</text></g><g class="a24 c2 node n16 p0" transform="translate(-15.4286 6.66944)"><g class="a16 leaf node n0 p0 sample" transform="translate(-7.71429 25.9558)"><path class="edge" d="M 0 0 V -25.9558 H 7.71429" /><rect class="sym" height="6" width="6" x="-3" y="-3" /><text class="lab" transform="translate(0 11)">0</text></g><g class="a16 leaf node n2 p0 sample" transform="translate(7.71429 25.9558)"><path class="edge" d="M 0 0 V -25.9558 H -7.71429" /><rect class="sym" height="6" width="6" x="-3" y="-3" /><text class="lab" transform="translate(0 11)">2</text></g><path class="edge" d="M 0 0 V -6.66944 H 15.4286" /><circle class="sym" cx="0" cy="0" r="3" /><text class="lab lft" transform="translate(-3 -7.0)">16</text></g><path class="edge" d="M 0 0 V -4.42516 H 28.9286" /><circle class="sym" cx="0" cy="0" r="3" /><text class="lab lft" transform="translate(-3 -7.0)">24</text></g><path class="edge" d="M 0 0 V -22.1833 H 27.9643" /><circle class="sym" cx="0" cy="0" r="3" /><text class="lab lft" transform="translate(-3 -7.0)">27</text></g><g class="a32 c1 node n30 p0" transform="translate(27.9643 18.0364)"><g class="a30 c1 node n10 p0" transform="translate(0.0 40.5296)"><g class="a10 leaf node n9 p0 sample" transform="translate(0.0 0.667755)"><path class="edge" d="M 0 0 V -0.667755 H 0.0" /><rect class="sym" height="6" width="6" x="-3" y="-3" /><text class="lab" transform="translate(0 11)">9</text></g><path class="edge" d="M 0 0 V -40.5296 H 0.0" /><circle class="sym" cx="0" cy="0" r="3" /><text class="lab lft" transform="translate(-3 -7.0)">10</text></g><path class="edge" d="M 0 0 V -18.0364 H -27.9643" /><circle class="sym" cx="0" cy="0" r="3" /><text class="lab rgt" transform="translate(3 -7.0)">30</text></g><path class="edge" d="M 0 0 V -19.5929 H 0.0" /><circle class="sym" cx="0" cy="0" r="3" /><text class="lab lft" transform="translate(-3 -7.0)">32</text></g><path class="edge" d="M 0 0 V -15.7733 H 25.5536" /><circle class="sym" cx="0" cy="0" r="3" /><text class="lab lft" transform="translate(-3 -7.0)">35</text></g><circle class="sym" cx="0" cy="0" r="3" /><text class="lab" transform="translate(0 -11)">36</text></g></g></g><g class="tree t1" transform="translate(214.286 0)"><g class="plotbox"><g class="c2 node n36 p0 root" transform="translate(122.696 26.8)"><g class="a36 c1 node n34 p0" transform="translate(36.1607 33.2459)"><g class="a34 c1 node n31 p0" transform="translate(0.0 6.59882)"><g class="a31 c1 node n22 p0" transform="translate(0.0 22.2825)"><g class="a22 c2 node n14 p0" transform="translate(0.0 18.2645)"><g class="a14 leaf node n4 p0 sample" transform="translate(-7.71429 14.2083)"><path class="edge" d="M 0 0 V -14.2083 H 7.71429" /><rect class="sym" height="6" width="6" x="-3" y="-3" /><text class="lab" transform="translate(0 11)">4</text></g><g class="a14 leaf node n5 p0 sample" transform="translate(7.71429 14.2083)"><path class="edge" d="M 0 0 V -14.2083 H -7.71429" /><rect class="sym" height="6" width="6" x="-3" y="-3" /><text class="lab" transform="translate(0 11)">5</text></g><path class="edge" d="M 0 0 V -18.2645 H 0.0" /><circle class="sym" cx="0" cy="0" r="3" /><text class="lab lft" transform="translate(-3 -7.0)">14</text></g><path class="edge" d="M 0 0 V -22.2825 H 0.0" /><circle class="sym" cx="0" cy="0" r="3" /><text class="lab lft" transform="translate(-3 -7.0)">22</text></g><path class="edge" d="M 0 0 V -6.59882 H 0.0" /><circle class="sym" cx="0" cy="0" r="3" /><text class="lab lft" transform="translate(-3 -7.0)">31</text></g><path class="edge" d="M 0 0 V -33.2459 H -36.1607" /><circle class="sym" cx="0" cy="0" r="3" /><text class="lab rgt" transform="translate(3 -7.0)">34</text></g><g class="a36 c1 node n35 p0" transform="translate(-36.1607 15.7733)"><g class="a35 c1 node n32 p0" transform="translate(0.0 19.5929)"><g class="a32 c2 node n27 p0" transform="translate(0.0 22.1833)"><g class="a27 c2 node n21 p0" transform="translate(35.6786 5.67911)"><g class="a21 c1 node n19 p0" transform="translate(-13.5 0.726866)"><g class="a19 c1 node n17 p0" transform="translate(0.0 2.81669)"><g class="a17 c2 node n15 p0" transform="translate(0.0 4.26511)"><g class="a15 leaf node n6 p0 sample" transform="translate(11.5714 23.5627)"><path class="edge" d="M 0 0 V -23.5627 H -11.5714" /><rect class="sym" height="6" width="6" x="-3" y="-3" /><text class="lab" transform="translate(0 11)">6</text></g><g class="a15 c2 node n13 p0" transform="translate(-11.5714 20.3832)"><g class="a13 leaf node n3 p0 sample" transform="translate(-7.71429 3.17945)"><path class="edge" d="M 0 0 V -3.17945 H 7.71429" /><rect class="sym" height="6" width="6" x="-3" y="-3" /><text class="lab" transform="translate(0 11)">3</text></g><g class="a13 leaf node n8 p0 sample" transform="translate(7.71429 3.17945)"><path class="edge" d="M 0 0 V -3.17945 H -7.71429" /><rect class="sym" height="6" width="6" x="-3" y="-3" /><text class="lab" transform="translate(0 11)">8</text></g><path class="edge" d="M 0 0 V -20.3832 H 11.5714" /><circle class="sym" cx="0" cy="0" r="3" /><text class="lab lft" transform="translate(-3 -7.0)">13</text></g><path class="edge" d="M 0 0 V -4.26511 H 0.0" /><circle class="sym" cx="0" cy="0" r="3" /><text class="lab lft" transform="translate(-3 -7.0)">15</text></g><path class="edge" d="M 0 0 V -2.81669 H 0.0" /><circle class="sym" cx="0" cy="0" r="3" /><text class="lab lft" transform="translate(-3 -7.0)">17</text></g><path class="edge" d="M 0 0 V -0.726866 H 13.5" /><circle class="sym" cx="0" cy="0" r="3" /><text class="lab lft" transform="translate(-3 -7.0)">19</text></g><g class="a21 c1 node n11 p0" transform="translate(13.5 30.7036)"><g class="a11 leaf node n9 p0 sample" transform="translate(0.0 0.667755)"><path class="edge" d="M 0 0 V -0.667755 H 0.0" /><rect class="sym" height="6" width="6" x="-3" y="-3" /><text class="lab" transform="translate(0 11)">9</text></g><path class="edge" d="M 0 0 V -30.7036 H -13.5" /><circle class="sym" cx="0" cy="0" r="3" /><text class="lab rgt" transform="translate(3 -7.0)">11</text></g><path class="edge" d="M 0 0 V -5.67911 H -35.6786" /><circle class="sym" cx="0" cy="0" r="3" /><text class="lab rgt" transform="translate(3 -7.0)">21</text></g><g class="a27 c2 node n24 p0" transform="translate(-35.6786 4.42516)"><g class="a24 c2 node n12 p0" transform="translate(15.4286 29.9008)"><g class="a12 leaf node n1 p0 sample" transform="translate(-7.71429 2.72453)"><path class="edge" d="M 0 0 V -2.72453 H 7.71429" /><rect class="sym" height="6" width="6" x="-3" y="-3" /><text class="lab" transform="translate(0 11)">1</text></g><g class="a12 leaf node n7 p0 sample" transform="translate(7.71429 2.72453)"><path class="edge" d="M 0 0 V -2.72453 H -7.71429" /><rect class="sym" height="6" width="6" x="-3" y="-3" /><text class="lab" transform="translate(0 11)">7</text></g><path class="edge" d="M 0 0 V -29.9008 H -15.4286" /><circle class="sym" cx="0" cy="0" r="3" /><text class="lab rgt" transform="translate(3 -7.0)">12</text></g><g class="a24 c2 node n16 p0" transform="translate(-15.4286 6.66944)"><g class="a16 leaf node n0 p0 sample" transform="translate(-7.71429 25.9558)"><path class="edge" d="M 0 0 V -25.9558 H 7.71429" /><rect class="sym" height="6" width="6" x="-3" y="-3" /><text class="lab" transform="translate(0 11)">0</text></g><g class="a16 leaf node n2 p0 sample" transform="translate(7.71429 25.9558)"><path class="edge" d="M 0 0 V -25.9558 H -7.71429" /><rect class="sym" height="6" width="6" x="-3" y="-3" /><text class="lab" transform="translate(0 11)">2</text></g><path class="edge" d="M 0 0 V -6.66944 H 15.4286" /><circle class="sym" cx="0" cy="0" r="3" /><text class="lab lft" transform="translate(-3 -7.0)">16</text></g><path class="edge" d="M 0 0 V -4.42516 H 35.6786" /><circle class="sym" cx="0" cy="0" r="3" /><text class="lab lft" transform="translate(-3 -7.0)">24</text></g><path class="edge" d="M 0 0 V -22.1833 H 0.0" /><circle class="sym" cx="0" cy="0" r="3" /><text class="lab lft" transform="translate(-3 -7.0)">27</text></g><path class="edge" d="M 0 0 V -19.5929 H 0.0" /><circle class="sym" cx="0" cy="0" r="3" /><text class="lab lft" transform="translate(-3 -7.0)">32</text></g><path class="edge" d="M 0 0 V -15.7733 H 36.1607" /><circle class="sym" cx="0" cy="0" r="3" /><text class="lab lft" transform="translate(-3 -7.0)">35</text></g><circle class="sym" cx="0" cy="0" r="3" /><text class="lab" transform="translate(0 -11)">36</text></g></g></g><g class="tree t2" transform="translate(408.571 0)"><g class="plotbox"><g class="c2 node n36 p0 root" transform="translate(105.821 26.8)"><g class="a36 c1 node n34 p0" transform="translate(35.6786 33.2459)"><g class="a34 c2 node n31 p0" transform="translate(0.0 6.59882)"><g class="a31 c1 node n22 p0" transform="translate(17.3571 22.2825)"><g class="a22 c2 node n14 p0" transform="translate(0.0 18.2645)"><g class="a14 leaf node n4 p0 sample" transform="translate(-7.71429 14.2083)"><path class="edge" d="M 0 0 V -14.2083 H 7.71429" /><rect class="sym" height="6" width="6" x="-3" y="-3" /><text class="lab" transform="translate(0 11)">4</text></g><g class="a14 leaf node n5 p0 sample" transform="translate(7.71429 14.2083)"><path class="edge" d="M 0 0 V -14.2083 H -7.71429" /><rect class="sym" height="6" width="6" x="-3" y="-3" /><text class="lab" transform="translate(0 11)">5</text></g><path class="edge" d="M 0 0 V -18.2645 H 0.0" /><circle class="sym" cx="0" cy="0" r="3" /><text class="lab lft" transform="translate(-3 -7.0)">14</text></g><path class="edge" d="M 0 0 V -22.2825 H -17.3571" /><circle class="sym" cx="0" cy="0" r="3" /><text class="lab rgt" transform="translate(3 -7.0)">22</text></g><g class="a31 c1 node n25 p0" transform="translate(-17.3571 21.866)"><g class="a25 c1 node n20 p0" transform="translate(0.0 2.24479)"><g class="a20 c1 node n17 p0" transform="translate(0.0 2.81669)"><g class="a17 c2 node n15 p0" transform="translate(0.0 4.26511)"><g class="a15 leaf node n6 p0 sample" transform="translate(11.5714 23.5627)"><path class="edge" d="M 0 0 V -23.5627 H -11.5714" /><rect class="sym" height="6" width="6" x="-3" y="-3" /><text class="lab" transform="translate(0 11)">6</text></g><g class="a15 c2 node n13 p0" transform="translate(-11.5714 20.3832)"><g class="a13 leaf node n3 p0 sample" transform="translate(-7.71429 3.17945)"><path class="edge" d="M 0 0 V -3.17945 H 7.71429" /><rect class="sym" height="6" width="6" x="-3" y="-3" /><text class="lab" transform="translate(0 11)">3</text></g><g class="a13 leaf node n8 p0 sample" transform="translate(7.71429 3.17945)"><path class="edge" d="M 0 0 V -3.17945 H -7.71429" /><rect class="sym" height="6" width="6" x="-3" y="-3" /><text class="lab" transform="translate(0 11)">8</text></g><path class="edge" d="M 0 0 V -20.3832 H 11.5714" /><circle class="sym" cx="0" cy="0" r="3" /><text class="lab lft" transform="translate(-3 -7.0)">13</text></g><path class="edge" d="M 0 0 V -4.26511 H 0.0" /><circle class="sym" cx="0" cy="0" r="3" /><text class="lab lft" transform="translate(-3 -7.0)">15</text></g><path class="edge" d="M 0 0 V -2.81669 H 0.0" /><circle class="sym" cx="0" cy="0" r="3" /><text class="lab lft" transform="translate(-3 -7.0)">17</text></g><path class="edge" d="M 0 0 V -2.24479 H 0.0" /><circle class="sym" cx="0" cy="0" r="3" /><text class="lab lft" transform="translate(-3 -7.0)">20</text></g><path class="edge" d="M 0 0 V -21.866 H 17.3571" /><circle class="sym" cx="0" cy="0" r="3" /><text class="lab lft" transform="translate(-3 -7.0)">25</text></g><path class="edge" d="M 0 0 V -6.59882 H 0.0" /><circle class="sym" cx="0" cy="0" r="3" /><text class="lab lft" transform="translate(-3 -7.0)">31</text></g><path class="edge" d="M 0 0 V -33.2459 H -35.6786" /><circle class="sym" cx="0" cy="0" r="3" /><text class="lab rgt" transform="translate(3 -7.0)">34</text></g><g class="a36 c1 node n35 p0" transform="translate(-35.6786 15.7733)"><g class="a35 c1 node n32 p0" transform="translate(0.0 19.5929)"><g class="a32 c2 node n27 p0" transform="translate(0.0 22.1833)"><g class="a27 c1 node n21 p0" transform="translate(19.2857 5.67911)"><g class="a21 c1 node n11 p0" transform="translate(0.0 30.7036)"><g class="a11 leaf node n9 p0 sample" transform="translate(0.0 0.667755)"><path class="edge" d="M 0 0 V -0.667755 H 0.0" /><rect class="sym" height="6" width="6" x="-3" y="-3" /><text class="lab" transform="translate(0 11)">9</text></g><path class="edge" d="M 0 0 V -30.7036 H 0.0" /><circle class="sym" cx="0" cy="0" r="3" /><text class="lab lft" transform="translate(-3 -7.0)">11</text></g><path class="edge" d="M 0 0 V -5.67911 H -19.2857" /><circle class="sym" cx="0" cy="0" r="3" /><text class="lab rgt" transform="translate(3 -7.0)">21</text></g><g class="a27 c2 node n24 p0" transform="translate(-19.2857 4.42516)"><g class="a24 c2 node n12 p0" transform="translate(15.4286 29.9008)"><g class="a12 leaf node n1 p0 sample" transform="translate(-7.71429 2.72453)"><path class="edge" d="M 0 0 V -2.72453 H 7.71429" /><rect class="sym" height="6" width="6" x="-3" y="-3" /><text class="lab" transform="translate(0 11)">1</text></g><g class="a12 leaf node n7 p0 sample" transform="translate(7.71429 2.72453)"><path class="edge" d="M 0 0 V -2.72453 H -7.71429" /><rect class="sym" height="6" width="6" x="-3" y="-3" /><text class="lab" transform="translate(0 11)">7</text></g><path class="edge" d="M 0 0 V -29.9008 H -15.4286" /><circle class="sym" cx="0" cy="0" r="3" /><text class="lab rgt" transform="translate(3 -7.0)">12</text></g><g class="a24 c2 node n16 p0" transform="translate(-15.4286 6.66944)"><g class="a16 leaf node n0 p0 sample" transform="translate(-7.71429 25.9558)"><path class="edge" d="M 0 0 V -25.9558 H 7.71429" /><rect class="sym" height="6" width="6" x="-3" y="-3" /><text class="lab" transform="translate(0 11)">0</text></g><g class="a16 leaf node n2 p0 sample" transform="translate(7.71429 25.9558)"><path class="edge" d="M 0 0 V -25.9558 H -7.71429" /><rect class="sym" height="6" width="6" x="-3" y="-3" /><text class="lab" transform="translate(0 11)">2</text></g><path class="edge" d="M 0 0 V -6.66944 H 15.4286" /><circle class="sym" cx="0" cy="0" r="3" /><text class="lab lft" transform="translate(-3 -7.0)">16</text></g><path class="edge" d="M 0 0 V -4.42516 H 19.2857" /><circle class="sym" cx="0" cy="0" r="3" /><text class="lab lft" transform="translate(-3 -7.0)">24</text></g><path class="edge" d="M 0 0 V -22.1833 H 0.0" /><circle class="sym" cx="0" cy="0" r="3" /><text class="lab lft" transform="translate(-3 -7.0)">27</text></g><path class="edge" d="M 0 0 V -19.5929 H 0.0" /><circle class="sym" cx="0" cy="0" r="3" /><text class="lab lft" transform="translate(-3 -7.0)">32</text></g><path class="edge" d="M 0 0 V -15.7733 H 35.6786" /><circle class="sym" cx="0" cy="0" r="3" /><text class="lab lft" transform="translate(-3 -7.0)">35</text></g><circle class="sym" cx="0" cy="0" r="3" /><text class="lab" transform="translate(0 -11)">36</text></g></g></g><g class="tree t3" transform="translate(602.857 0)"><g class="plotbox"><g class="c2 node n36 p0 root" transform="translate(128 26.8)"><g class="a36 c1 node n34 p0" transform="translate(30.8571 33.2459)"><g class="a34 c1 node n31 p0" transform="translate(0.0 6.59882)"><g class="a31 c1 node n22 p0" transform="translate(0.0 22.2825)"><g class="a22 c2 node n14 p0" transform="translate(0.0 18.2645)"><g class="a14 leaf node n4 p0 sample" transform="translate(-7.71429 14.2083)"><path class="edge" d="M 0 0 V -14.2083 H 7.71429" /><rect class="sym" height="6" width="6" x="-3" y="-3" /><text class="lab" transform="translate(0 11)">4</text></g><g class="a14 leaf node n5 p0 sample" transform="translate(7.71429 14.2083)"><path class="edge" d="M 0 0 V -14.2083 H -7.71429" /><rect class="sym" height="6" width="6" x="-3" y="-3" /><text class="lab" transform="translate(0 11)">5</text></g><path class="edge" d="M 0 0 V -18.2645 H 0.0" /><circle class="sym" cx="0" cy="0" r="3" /><text class="lab lft" transform="translate(-3 -7.0)">14</text></g><path class="edge" d="M 0 0 V -22.2825 H 0.0" /><circle class="sym" cx="0" cy="0" r="3" /><text class="lab lft" transform="translate(-3 -7.0)">22</text></g><path class="edge" d="M 0 0 V -6.59882 H 0.0" /><circle class="sym" cx="0" cy="0" r="3" /><text class="lab lft" transform="translate(-3 -7.0)">31</text></g><path class="edge" d="M 0 0 V -33.2459 H -30.8571" /><circle class="sym" cx="0" cy="0" r="3" /><text class="lab rgt" transform="translate(3 -7.0)">34</text></g><g class="a36 c1 node n35 p0" transform="translate(-30.8571 15.7733)"><g class="a35 c2 node n32 p0" transform="translate(0.0 19.5929)"><g class="a32 c2 node n27 p0" transform="translate(-27 22.1833)"><g class="a27 c1 node n21 p0" transform="translate(19.2857 5.67911)"><g class="a21 c1 node n11 p0" transform="translate(0.0 30.7036)"><g class="a11 leaf node n9 p0 sample" transform="translate(0.0 0.667755)"><path class="edge" d="M 0 0 V -0.667755 H 0.0" /><rect class="sym" height="6" width="6" x="-3" y="-3" /><text class="lab" transform="translate(0 11)">9</text></g><path class="edge" d="M 0 0 V -30.7036 H 0.0" /><circle class="sym" cx="0" cy="0" r="3" /><text class="lab lft" transform="translate(-3 -7.0)">11</text></g><path class="edge" d="M 0 0 V -5.67911 H -19.2857" /><circle class="sym" cx="0" cy="0" r="3" /><text class="lab rgt" transform="translate(3 -7.0)">21</text></g><g class="a27 c2 node n24 p0" transform="translate(-19.2857 4.42516)"><g class="a24 c2 node n12 p0" transform="translate(15.4286 29.9008)"><g class="a12 leaf node n1 p0 sample" transform="translate(-7.71429 2.72453)"><path class="edge" d="M 0 0 V -2.72453 H 7.71429" /><rect class="sym" height="6" width="6" x="-3" y="-3" /><text class="lab" transform="translate(0 11)">1</text></g><g class="a12 leaf node n7 p0 sample" transform="translate(7.71429 2.72453)"><path class="edge" d="M 0 0 V -2.72453 H -7.71429" /><rect class="sym" height="6" width="6" x="-3" y="-3" /><text class="lab" transform="translate(0 11)">7</text></g><path class="edge" d="M 0 0 V -29.9008 H -15.4286" /><circle class="sym" cx="0" cy="0" r="3" /><text class="lab rgt" transform="translate(3 -7.0)">12</text></g><g class="a24 c2 node n16 p0" transform="translate(-15.4286 6.66944)"><g class="a16 leaf node n0 p0 sample" transform="translate(-7.71429 25.9558)"><path class="edge" d="M 0 0 V -25.9558 H 7.71429" /><rect class="sym" height="6" width="6" x="-3" y="-3" /><text class="lab" transform="translate(0 11)">0</text></g><g class="a16 leaf node n2 p0 sample" transform="translate(7.71429 25.9558)"><path class="edge" d="M 0 0 V -25.9558 H -7.71429" /><rect class="sym" height="6" width="6" x="-3" y="-3" /><text class="lab" transform="translate(0 11)">2</text></g><path class="edge" d="M 0 0 V -6.66944 H 15.4286" /><circle class="sym" cx="0" cy="0" r="3" /><text class="lab lft" transform="translate(-3 -7.0)">16</text></g><path class="edge" d="M 0 0 V -4.42516 H 19.2857" /><circle class="sym" cx="0" cy="0" r="3" /><text class="lab lft" transform="translate(-3 -7.0)">24</text></g><path class="edge" d="M 0 0 V -22.1833 H 27" /><circle class="sym" cx="0" cy="0" r="3" /><text class="lab lft" transform="translate(-3 -7.0)">27</text></g><g class="a32 c1 node n30 p0" transform="translate(27 18.0364)"><g class="a30 c1 node n28 p0" transform="translate(0.0 0.235478)"><g class="a28 c1 node n26 p0" transform="translate(0.0 8.07265)"><g class="a26 c1 node n20 p0" transform="translate(0.0 2.24479)"><g class="a20 c1 node n17 p0" transform="translate(0.0 2.81669)"><g class="a17 c2 node n15 p0" transform="translate(0.0 4.26511)"><g class="a15 leaf node n6 p0 sample" transform="translate(11.5714 23.5627)"><path class="edge" d="M 0 0 V -23.5627 H -11.5714" /><rect class="sym" height="6" width="6" x="-3" y="-3" /><text class="lab" transform="translate(0 11)">6</text></g><g class="a15 c2 node n13 p0" transform="translate(-11.5714 20.3832)"><g class="a13 leaf node n3 p0 sample" transform="translate(-7.71429 3.17945)"><path class="edge" d="M 0 0 V -3.17945 H 7.71429" /><rect class="sym" height="6" width="6" x="-3" y="-3" /><text class="lab" transform="translate(0 11)">3</text></g><g class="a13 leaf node n8 p0 sample" transform="translate(7.71429 3.17945)"><path class="edge" d="M 0 0 V -3.17945 H -7.71429" /><rect class="sym" height="6" width="6" x="-3" y="-3" /><text class="lab" transform="translate(0 11)">8</text></g><path class="edge" d="M 0 0 V -20.3832 H 11.5714" /><circle class="sym" cx="0" cy="0" r="3" /><text class="lab lft" transform="translate(-3 -7.0)">13</text></g><path class="edge" d="M 0 0 V -4.26511 H 0.0" /><circle class="sym" cx="0" cy="0" r="3" /><text class="lab lft" transform="translate(-3 -7.0)">15</text></g><path class="edge" d="M 0 0 V -2.81669 H 0.0" /><circle class="sym" cx="0" cy="0" r="3" /><text class="lab lft" transform="translate(-3 -7.0)">17</text></g><path class="edge" d="M 0 0 V -2.24479 H 0.0" /><circle class="sym" cx="0" cy="0" r="3" /><text class="lab lft" transform="translate(-3 -7.0)">20</text></g><path class="edge" d="M 0 0 V -8.07265 H 0.0" /><circle class="sym" cx="0" cy="0" r="3" /><text class="lab lft" transform="translate(-3 -7.0)">26</text></g><path class="edge" d="M 0 0 V -0.235478 H 0.0" /><circle class="sym" cx="0" cy="0" r="3" /><text class="lab lft" transform="translate(-3 -7.0)">28</text></g><path class="edge" d="M 0 0 V -18.0364 H -27" /><circle class="sym" cx="0" cy="0" r="3" /><text class="lab rgt" transform="translate(3 -7.0)">30</text></g><path class="edge" d="M 0 0 V -19.5929 H 0.0" /><circle class="sym" cx="0" cy="0" r="3" /><text class="lab lft" transform="translate(-3 -7.0)">32</text></g><path class="edge" d="M 0 0 V -15.7733 H 30.8571" /><circle class="sym" cx="0" cy="0" r="3" /><text class="lab lft" transform="translate(-3 -7.0)">35</text></g><circle class="sym" cx="0" cy="0" r="3" /><text class="lab" transform="translate(0 -11)">36</text></g></g></g><g class="tree t4" transform="translate(797.143 0)"><g class="plotbox"><g class="c2 node n36 p0 root" transform="translate(105.821 26.8)"><g class="a36 c2 node n34 p0" transform="translate(35.6786 33.2459)"><g class="a34 c1 node n31 p0" transform="translate(17.3571 6.59882)"><g class="a31 c1 node n22 p0" transform="translate(0.0 22.2825)"><g class="a22 c2 node n14 p0" transform="translate(0.0 18.2645)"><g class="a14 leaf node n4 p0 sample" transform="translate(-7.71429 14.2083)"><path class="edge" d="M 0 0 V -14.2083 H 7.71429" /><rect class="sym" height="6" width="6" x="-3" y="-3" /><text class="lab" transform="translate(0 11)">4</text></g><g class="a14 leaf node n5 p0 sample" transform="translate(7.71429 14.2083)"><path class="edge" d="M 0 0 V -14.2083 H -7.71429" /><rect class="sym" height="6" width="6" x="-3" y="-3" /><text class="lab" transform="translate(0 11)">5</text></g><path class="edge" d="M 0 0 V -18.2645 H 0.0" /><circle class="sym" cx="0" cy="0" r="3" /><text class="lab lft" transform="translate(-3 -7.0)">14</text></g><path class="edge" d="M 0 0 V -22.2825 H 0.0" /><circle class="sym" cx="0" cy="0" r="3" /><text class="lab lft" transform="translate(-3 -7.0)">22</text></g><path class="edge" d="M 0 0 V -6.59882 H -17.3571" /><circle class="sym" cx="0" cy="0" r="3" /><text class="lab rgt" transform="translate(3 -7.0)">31</text></g><g class="a34 c1 node n33 p0" transform="translate(-17.3571 1.16322)"><g class="a33 c1 node n29 p0" transform="translate(0.0 19.229)"><g class="a29 c1 node n26 p0" transform="translate(0.0 8.07265)"><g class="a26 c1 node n20 p0" transform="translate(0.0 2.24479)"><g class="a20 c1 node n17 p0" transform="translate(0.0 2.81669)"><g class="a17 c2 node n15 p0" transform="translate(0.0 4.26511)"><g class="a15 leaf node n6 p0 sample" transform="translate(11.5714 23.5627)"><path class="edge" d="M 0 0 V -23.5627 H -11.5714" /><rect class="sym" height="6" width="6" x="-3" y="-3" /><text class="lab" transform="translate(0 11)">6</text></g><g class="a15 c2 node n13 p0" transform="translate(-11.5714 20.3832)"><g class="a13 leaf node n3 p0 sample" transform="translate(-7.71429 3.17945)"><path class="edge" d="M 0 0 V -3.17945 H 7.71429" /><rect class="sym" height="6" width="6" x="-3" y="-3" /><text class="lab" transform="translate(0 11)">3</text></g><g class="a13 leaf node n8 p0 sample" transform="translate(7.71429 3.17945)"><path class="edge" d="M 0 0 V -3.17945 H -7.71429" /><rect class="sym" height="6" width="6" x="-3" y="-3" /><text class="lab" transform="translate(0 11)">8</text></g><path class="edge" d="M 0 0 V -20.3832 H 11.5714" /><circle class="sym" cx="0" cy="0" r="3" /><text class="lab lft" transform="translate(-3 -7.0)">13</text></g><path class="edge" d="M 0 0 V -4.26511 H 0.0" /><circle class="sym" cx="0" cy="0" r="3" /><text class="lab lft" transform="translate(-3 -7.0)">15</text></g><path class="edge" d="M 0 0 V -2.81669 H 0.0" /><circle class="sym" cx="0" cy="0" r="3" /><text class="lab lft" transform="translate(-3 -7.0)">17</text></g><path class="edge" d="M 0 0 V -2.24479 H 0.0" /><circle class="sym" cx="0" cy="0" r="3" /><text class="lab lft" transform="translate(-3 -7.0)">20</text></g><path class="edge" d="M 0 0 V -8.07265 H 0.0" /><circle class="sym" cx="0" cy="0" r="3" /><text class="lab lft" transform="translate(-3 -7.0)">26</text></g><path class="edge" d="M 0 0 V -19.229 H 0.0" /><circle class="sym" cx="0" cy="0" r="3" /><text class="lab lft" transform="translate(-3 -7.0)">29</text></g><path class="edge" d="M 0 0 V -1.16322 H 17.3571" /><circle class="sym" cx="0" cy="0" r="3" /><text class="lab lft" transform="translate(-3 -7.0)">33</text></g><path class="edge" d="M 0 0 V -33.2459 H -35.6786" /><circle class="sym" cx="0" cy="0" r="3" /><text class="lab rgt" transform="translate(3 -7.0)">34</text></g><g class="a36 c1 node n35 p0" transform="translate(-35.6786 15.7733)"><g class="a35 c1 node n32 p0" transform="translate(0.0 19.5929)"><g class="a32 c2 node n27 p0" transform="translate(0.0 22.1833)"><g class="a27 c1 node n21 p0" transform="translate(19.2857 5.67911)"><g class="a21 c1 node n11 p0" transform="translate(0.0 30.7036)"><g class="a11 leaf node n9 p0 sample" transform="translate(0.0 0.667755)"><path class="edge" d="M 0 0 V -0.667755 H 0.0" /><rect class="sym" height="6" width="6" x="-3" y="-3" /><text class="lab" transform="translate(0 11)">9</text></g><path class="edge" d="M 0 0 V -30.7036 H 0.0" /><circle class="sym" cx="0" cy="0" r="3" /><text class="lab lft" transform="translate(-3 -7.0)">11</text></g><path class="edge" d="M 0 0 V -5.67911 H -19.2857" /><circle class="sym" cx="0" cy="0" r="3" /><text class="lab rgt" transform="translate(3 -7.0)">21</text></g><g class="a27 c2 node n24 p0" transform="translate(-19.2857 4.42516)"><g class="a24 c2 node n12 p0" transform="translate(15.4286 29.9008)"><g class="a12 leaf node n1 p0 sample" transform="translate(-7.71429 2.72453)"><path class="edge" d="M 0 0 V -2.72453 H 7.71429" /><rect class="sym" height="6" width="6" x="-3" y="-3" /><text class="lab" transform="translate(0 11)">1</text></g><g class="a12 leaf node n7 p0 sample" transform="translate(7.71429 2.72453)"><path class="edge" d="M 0 0 V -2.72453 H -7.71429" /><rect class="sym" height="6" width="6" x="-3" y="-3" /><text class="lab" transform="translate(0 11)">7</text></g><path class="edge" d="M 0 0 V -29.9008 H -15.4286" /><circle class="sym" cx="0" cy="0" r="3" /><text class="lab rgt" transform="translate(3 -7.0)">12</text></g><g class="a24 c2 node n16 p0" transform="translate(-15.4286 6.66944)"><g class="a16 leaf node n0 p0 sample" transform="translate(-7.71429 25.9558)"><path class="edge" d="M 0 0 V -25.9558 H 7.71429" /><rect class="sym" height="6" width="6" x="-3" y="-3" /><text class="lab" transform="translate(0 11)">0</text></g><g class="a16 leaf node n2 p0 sample" transform="translate(7.71429 25.9558)"><path class="edge" d="M 0 0 V -25.9558 H -7.71429" /><rect class="sym" height="6" width="6" x="-3" y="-3" /><text class="lab" transform="translate(0 11)">2</text></g><path class="edge" d="M 0 0 V -6.66944 H 15.4286" /><circle class="sym" cx="0" cy="0" r="3" /><text class="lab lft" transform="translate(-3 -7.0)">16</text></g><path class="edge" d="M 0 0 V -4.42516 H 19.2857" /><circle class="sym" cx="0" cy="0" r="3" /><text class="lab lft" transform="translate(-3 -7.0)">24</text></g><path class="edge" d="M 0 0 V -22.1833 H 0.0" /><circle class="sym" cx="0" cy="0" r="3" /><text class="lab lft" transform="translate(-3 -7.0)">27</text></g><path class="edge" d="M 0 0 V -19.5929 H 0.0" /><circle class="sym" cx="0" cy="0" r="3" /><text class="lab lft" transform="translate(-3 -7.0)">32</text></g><path class="edge" d="M 0 0 V -15.7733 H 35.6786" /><circle class="sym" cx="0" cy="0" r="3" /><text class="lab lft" transform="translate(-3 -7.0)">35</text></g><circle class="sym" cx="0" cy="0" r="3" /><text class="lab" transform="translate(0 -11)">36</text></g></g></g><g class="tree t5" transform="translate(991.429 0)"><g class="plotbox"><g class="c2 node n36 p0 root" transform="translate(128 26.8)"><g class="a36 c1 node n34 p0" transform="translate(30.8571 33.2459)"><g class="a34 c1 node n31 p0" transform="translate(0.0 6.59882)"><g class="a31 c1 node n22 p0" transform="translate(0.0 22.2825)"><g class="a22 c2 node n14 p0" transform="translate(0.0 18.2645)"><g class="a14 leaf node n4 p0 sample" transform="translate(-7.71429 14.2083)"><path class="edge" d="M 0 0 V -14.2083 H 7.71429" /><rect class="sym" height="6" width="6" x="-3" y="-3" /><text class="lab" transform="translate(0 11)">4</text></g><g class="a14 leaf node n5 p0 sample" transform="translate(7.71429 14.2083)"><path class="edge" d="M 0 0 V -14.2083 H -7.71429" /><rect class="sym" height="6" width="6" x="-3" y="-3" /><text class="lab" transform="translate(0 11)">5</text></g><path class="edge" d="M 0 0 V -18.2645 H 0.0" /><circle class="sym" cx="0" cy="0" r="3" /><text class="lab lft" transform="translate(-3 -7.0)">14</text></g><path class="edge" d="M 0 0 V -22.2825 H 0.0" /><circle class="sym" cx="0" cy="0" r="3" /><text class="lab lft" transform="translate(-3 -7.0)">22</text></g><path class="edge" d="M 0 0 V -6.59882 H 0.0" /><circle class="sym" cx="0" cy="0" r="3" /><text class="lab lft" transform="translate(-3 -7.0)">31</text></g><path class="edge" d="M 0 0 V -33.2459 H -30.8571" /><circle class="sym" cx="0" cy="0" r="3" /><text class="lab rgt" transform="translate(3 -7.0)">34</text></g><g class="a36 c2 node n35 p0" transform="translate(-30.8571 15.7733)"><g class="a35 c1 node n32 p0" transform="translate(-27 19.5929)"><g class="a32 c2 node n27 p0" transform="translate(0.0 22.1833)"><g class="a27 c1 node n21 p0" transform="translate(19.2857 5.67911)"><g class="a21 c1 node n11 p0" transform="translate(0.0 30.7036)"><g class="a11 leaf node n9 p0 sample" transform="translate(0.0 0.667755)"><path class="edge" d="M 0 0 V -0.667755 H 0.0" /><rect class="sym" height="6" width="6" x="-3" y="-3" /><text class="lab" transform="translate(0 11)">9</text></g><path class="edge" d="M 0 0 V -30.7036 H 0.0" /><circle class="sym" cx="0" cy="0" r="3" /><text class="lab lft" transform="translate(-3 -7.0)">11</text></g><path class="edge" d="M 0 0 V -5.67911 H -19.2857" /><circle class="sym" cx="0" cy="0" r="3" /><text class="lab rgt" transform="translate(3 -7.0)">21</text></g><g class="a27 c2 node n24 p0" transform="translate(-19.2857 4.42516)"><g class="a24 c2 node n12 p0" transform="translate(15.4286 29.9008)"><g class="a12 leaf node n1 p0 sample" transform="translate(-7.71429 2.72453)"><path class="edge" d="M 0 0 V -2.72453 H 7.71429" /><rect class="sym" height="6" width="6" x="-3" y="-3" /><text class="lab" transform="translate(0 11)">1</text></g><g class="a12 leaf node n7 p0 sample" transform="translate(7.71429 2.72453)"><path class="edge" d="M 0 0 V -2.72453 H -7.71429" /><rect class="sym" height="6" width="6" x="-3" y="-3" /><text class="lab" transform="translate(0 11)">7</text></g><path class="edge" d="M 0 0 V -29.9008 H -15.4286" /><circle class="sym" cx="0" cy="0" r="3" /><text class="lab rgt" transform="translate(3 -7.0)">12</text></g><g class="a24 c2 node n16 p0" transform="translate(-15.4286 6.66944)"><g class="a16 leaf node n0 p0 sample" transform="translate(-7.71429 25.9558)"><path class="edge" d="M 0 0 V -25.9558 H 7.71429" /><rect class="sym" height="6" width="6" x="-3" y="-3" /><text class="lab" transform="translate(0 11)">0</text></g><g class="a16 leaf node n2 p0 sample" transform="translate(7.71429 25.9558)"><path class="edge" d="M 0 0 V -25.9558 H -7.71429" /><rect class="sym" height="6" width="6" x="-3" y="-3" /><text class="lab" transform="translate(0 11)">2</text></g><path class="edge" d="M 0 0 V -6.66944 H 15.4286" /><circle class="sym" cx="0" cy="0" r="3" /><text class="lab lft" transform="translate(-3 -7.0)">16</text></g><path class="edge" d="M 0 0 V -4.42516 H 19.2857" /><circle class="sym" cx="0" cy="0" r="3" /><text class="lab lft" transform="translate(-3 -7.0)">24</text></g><path class="edge" d="M 0 0 V -22.1833 H 0.0" /><circle class="sym" cx="0" cy="0" r="3" /><text class="lab lft" transform="translate(-3 -7.0)">27</text></g><path class="edge" d="M 0 0 V -19.5929 H 27" /><circle class="sym" cx="0" cy="0" r="3" /><text class="lab lft" transform="translate(-3 -7.0)">32</text></g><g class="a35 c1 node n18 p0" transform="translate(27 50.9989)"><g class="a18 c2 node n15 p0" transform="translate(0.0 4.26511)"><g class="a15 leaf node n6 p0 sample" transform="translate(11.5714 23.5627)"><path class="edge" d="M 0 0 V -23.5627 H -11.5714" /><rect class="sym" height="6" width="6" x="-3" y="-3" /><text class="lab" transform="translate(0 11)">6</text></g><g class="a15 c2 node n13 p0" transform="translate(-11.5714 20.3832)"><g class="a13 leaf node n3 p0 sample" transform="translate(-7.71429 3.17945)"><path class="edge" d="M 0 0 V -3.17945 H 7.71429" /><rect class="sym" height="6" width="6" x="-3" y="-3" /><text class="lab" transform="translate(0 11)">3</text></g><g class="a13 leaf node n8 p0 sample" transform="translate(7.71429 3.17945)"><path class="edge" d="M 0 0 V -3.17945 H -7.71429" /><rect class="sym" height="6" width="6" x="-3" y="-3" /><text class="lab" transform="translate(0 11)">8</text></g><path class="edge" d="M 0 0 V -20.3832 H 11.5714" /><circle class="sym" cx="0" cy="0" r="3" /><text class="lab lft" transform="translate(-3 -7.0)">13</text></g><path class="edge" d="M 0 0 V -4.26511 H 0.0" /><circle class="sym" cx="0" cy="0" r="3" /><text class="lab lft" transform="translate(-3 -7.0)">15</text></g><path class="edge" d="M 0 0 V -50.9989 H -27" /><circle class="sym" cx="0" cy="0" r="3" /><text class="lab rgt" transform="translate(3 -7.0)">18</text></g><path class="edge" d="M 0 0 V -15.7733 H 30.8571" /><circle class="sym" cx="0" cy="0" r="3" /><text class="lab lft" transform="translate(-3 -7.0)">35</text></g><circle class="sym" cx="0" cy="0" r="3" /><text class="lab" transform="translate(0 -11)">36</text></g></g></g><g class="tree t6" transform="translate(1185.71 0)"><g class="plotbox"><g class="c2 node n36 p0 root" transform="translate(128 26.8)"><g class="a36 c1 node n34 p0" transform="translate(30.8571 33.2459)"><g class="a34 c1 node n33 p0" transform="translate(0.0 1.16322)"><g class="a33 c1 node n23 p0" transform="translate(0.0 27.7181)"><g class="a23 c2 node n14 p0" transform="translate(0.0 18.2645)"><g class="a14 leaf node n4 p0 sample" transform="translate(-7.71429 14.2083)"><path class="edge" d="M 0 0 V -14.2083 H 7.71429" /><rect class="sym" height="6" width="6" x="-3" y="-3" /><text class="lab" transform="translate(0 11)">4</text></g><g class="a14 leaf node n5 p0 sample" transform="translate(7.71429 14.2083)"><path class="edge" d="M 0 0 V -14.2083 H -7.71429" /><rect class="sym" height="6" width="6" x="-3" y="-3" /><text class="lab" transform="translate(0 11)">5</text></g><path class="edge" d="M 0 0 V -18.2645 H 0.0" /><circle class="sym" cx="0" cy="0" r="3" /><text class="lab lft" transform="translate(-3 -7.0)">14</text></g><path class="edge" d="M 0 0 V -27.7181 H 0.0" /><circle class="sym" cx="0" cy="0" r="3" /><text class="lab lft" transform="translate(-3 -7.0)">23</text></g><path class="edge" d="M 0 0 V -1.16322 H 0.0" /><circle class="sym" cx="0" cy="0" r="3" /><text class="lab lft" transform="translate(-3 -7.0)">33</text></g><path class="edge" d="M 0 0 V -33.2459 H -30.8571" /><circle class="sym" cx="0" cy="0" r="3" /><text class="lab rgt" transform="translate(3 -7.0)">34</text></g><g class="a36 c2 node n35 p0" transform="translate(-30.8571 15.7733)"><g class="a35 c1 node n32 p0" transform="translate(-27 19.5929)"><g class="a32 c2 node n27 p0" transform="translate(0.0 22.1833)"><g class="a27 c1 node n21 p0" transform="translate(19.2857 5.67911)"><g class="a21 c1 node n11 p0" transform="translate(0.0 30.7036)"><g class="a11 leaf node n9 p0 sample" transform="translate(0.0 0.667755)"><path class="edge" d="M 0 0 V -0.667755 H 0.0" /><rect class="sym" height="6" width="6" x="-3" y="-3" /><text class="lab" transform="translate(0 11)">9</text></g><path class="edge" d="M 0 0 V -30.7036 H 0.0" /><circle class="sym" cx="0" cy="0" r="3" /><text class="lab lft" transform="translate(-3 -7.0)">11</text></g><path class="edge" d="M 0 0 V -5.67911 H -19.2857" /><circle class="sym" cx="0" cy="0" r="3" /><text class="lab rgt" transform="translate(3 -7.0)">21</text></g><g class="a27 c2 node n24 p0" transform="translate(-19.2857 4.42516)"><g class="a24 c2 node n12 p0" transform="translate(15.4286 29.9008)"><g class="a12 leaf node n1 p0 sample" transform="translate(-7.71429 2.72453)"><path class="edge" d="M 0 0 V -2.72453 H 7.71429" /><rect class="sym" height="6" width="6" x="-3" y="-3" /><text class="lab" transform="translate(0 11)">1</text></g><g class="a12 leaf node n7 p0 sample" transform="translate(7.71429 2.72453)"><path class="edge" d="M 0 0 V -2.72453 H -7.71429" /><rect class="sym" height="6" width="6" x="-3" y="-3" /><text class="lab" transform="translate(0 11)">7</text></g><path class="edge" d="M 0 0 V -29.9008 H -15.4286" /><circle class="sym" cx="0" cy="0" r="3" /><text class="lab rgt" transform="translate(3 -7.0)">12</text></g><g class="a24 c2 node n16 p0" transform="translate(-15.4286 6.66944)"><g class="a16 leaf node n0 p0 sample" transform="translate(-7.71429 25.9558)"><path class="edge" d="M 0 0 V -25.9558 H 7.71429" /><rect class="sym" height="6" width="6" x="-3" y="-3" /><text class="lab" transform="translate(0 11)">0</text></g><g class="a16 leaf node n2 p0 sample" transform="translate(7.71429 25.9558)"><path class="edge" d="M 0 0 V -25.9558 H -7.71429" /><rect class="sym" height="6" width="6" x="-3" y="-3" /><text class="lab" transform="translate(0 11)">2</text></g><path class="edge" d="M 0 0 V -6.66944 H 15.4286" /><circle class="sym" cx="0" cy="0" r="3" /><text class="lab lft" transform="translate(-3 -7.0)">16</text></g><path class="edge" d="M 0 0 V -4.42516 H 19.2857" /><circle class="sym" cx="0" cy="0" r="3" /><text class="lab lft" transform="translate(-3 -7.0)">24</text></g><path class="edge" d="M 0 0 V -22.1833 H 0.0" /><circle class="sym" cx="0" cy="0" r="3" /><text class="lab lft" transform="translate(-3 -7.0)">27</text></g><path class="edge" d="M 0 0 V -19.5929 H 27" /><circle class="sym" cx="0" cy="0" r="3" /><text class="lab lft" transform="translate(-3 -7.0)">32</text></g><g class="a35 c1 node n18 p0" transform="translate(27 50.9989)"><g class="a18 c2 node n15 p0" transform="translate(0.0 4.26511)"><g class="a15 leaf node n6 p0 sample" transform="translate(11.5714 23.5627)"><path class="edge" d="M 0 0 V -23.5627 H -11.5714" /><rect class="sym" height="6" width="6" x="-3" y="-3" /><text class="lab" transform="translate(0 11)">6</text></g><g class="a15 c2 node n13 p0" transform="translate(-11.5714 20.3832)"><g class="a13 leaf node n3 p0 sample" transform="translate(-7.71429 3.17945)"><path class="edge" d="M 0 0 V -3.17945 H 7.71429" /><rect class="sym" height="6" width="6" x="-3" y="-3" /><text class="lab" transform="translate(0 11)">3</text></g><g class="a13 leaf node n8 p0 sample" transform="translate(7.71429 3.17945)"><path class="edge" d="M 0 0 V -3.17945 H -7.71429" /><rect class="sym" height="6" width="6" x="-3" y="-3" /><text class="lab" transform="translate(0 11)">8</text></g><path class="edge" d="M 0 0 V -20.3832 H 11.5714" /><circle class="sym" cx="0" cy="0" r="3" /><text class="lab lft" transform="translate(-3 -7.0)">13</text></g><path class="edge" d="M 0 0 V -4.26511 H 0.0" /><circle class="sym" cx="0" cy="0" r="3" /><text class="lab lft" transform="translate(-3 -7.0)">15</text></g><path class="edge" d="M 0 0 V -50.9989 H -27" /><circle class="sym" cx="0" cy="0" r="3" /><text class="lab rgt" transform="translate(3 -7.0)">18</text></g><path class="edge" d="M 0 0 V -15.7733 H 30.8571" /><circle class="sym" cx="0" cy="0" r="3" /><text class="lab lft" transform="translate(-3 -7.0)">35</text></g><circle class="sym" cx="0" cy="0" r="3" /><text class="lab" transform="translate(0 -11)">36</text></g></g></g></g></g></svg>
