<svg baseProfile="full" height="200" version="1.1" width="600" xmlns="http://www.w3.org/2000/svg" xmlns:ev="http://www.w3.org/2001/xml-events" xmlns:xlink="http://www.w3.org/1999/xlink"><defs><style type="text/css"><![CDATA[.background path {fill: #808080; fill-opacity: 0}.background path:nth-child(odd) {fill-opacity: .1}.axes {font-size: 14px}.x-axis .tick .lab {font-weight: bold; dominant-baseline: hanging}.axes, .tree {font-size: 14px; text-anchor: middle}.axes line, .edge {stroke: black; fill: none}.y-axis .grid {stroke: #FAFAFA}.node > .sym {fill: black; stroke: none}.site > .sym {stroke: black}.mut text {fill: red; font-style: italic}.mut.extra text {fill: hotpink}.mut line {fill: none; stroke: none}.mut .sym {fill: none; stroke: red}.mut.extra .sym {stroke: hotpink}.node .mut .sym {stroke-width: 1.5px}.tree text, .tree-sequence text {dominant-baseline: central}.plotbox .lab.lft {text-anchor: end}.plotbox .lab.rgt {text-anchor: start}]]></style></defs><g class="tree-sequence"><g class="background"><path d="M20,0 l186.667,0 l0,138.2 l-178.607,25 l0,5 l-8.05963,0 l0,-5 l0,-25 l0,-138.2z" /><path d="M206.667,0 l186.667,0 l0,138.2 l58.7741,25 l0,5 l-424.048,0 l0,-5 l178.607,-25 l0,-138.2z" /><path d="M393.333,0 l186.667,0 l0,138.2 l0,25 l0,5 l-127.893,0 l0,-5 l-58.7741,-25 l0,-138.2z" /></g><g class="axes"><g class="x-axis"><g transform="translate(300 200)"><text class="lab" text-anchor="middle" transform="translate(0 -11)">Genome position</text></g><line x1="20" x2="580" y1="163.2" y2="163.2" /><g class="ticks"><g class="tick" transform="translate(20 163.2)"><line x1="0" x2="0" y1="0" y2="5" /><g transform="translate(0 6)"><text class="lab">0.00</text></g></g><g class="tick" transform="translate(28.0596 163.2)"><line x1="0" x2="0" y1="0" y2="5" /><g transform="translate(0 6)"><text class="lab">14.39</text></g></g><g class="tick" transform="translate(452.107 163.2)"><line x1="0" x2="0" y1="0" y2="5" /><g transform="translate(0 6)"><text class="lab">771.62</text></g></g><g class="tick" transform="translate(580 163.2)"><line x1="0" x2="0" y1="0" y2="5" /><g transform="translate(0 6)"><text class="lab">1000.00</text></g></g></g></g></g><g class="plotbox trees"><g class="tree t0" transform="translate(20 0)"><g class="plotbox"><g class="c2 node n24 p0 root" transform="translate(95.1667 26.8)"><g class="a24 c2 node n21 p0" transform="translate(-40.3333 63.4739)"><g class="a21 c1 node n19 p0" transform="translate(20.1667 11.5307)"><g class="a19 c2 node n11 p0" transform="translate(0.0 16.7001)"><g class="a11 leaf node n6 p0 sample" transform="translate(11 2.89527)"><path class="edge" d="M 0 0 V -2.89527 H -11" /><rect class="sym" height="6" width="6" x="-3" y="-3" /><text class="lab" transform="translate(0 11)">6</text></g><g class="a11 c2 node n10 p0" transform="translate(-11 1.85209)"><g class="a10 leaf node n5 p0 sample" transform="translate(-7.33333 1.04318)"><path class="edge" d="M 0 0 V -1.04318 H 7.33333" /><rect class="sym" height="6" width="6" x="-3" y="-3" /><text class="lab" transform="translate(0 11)">5</text></g><g class="a10 leaf node n7 p0 sample" transform="translate(7.33333 1.04318)"><path class="edge" d="M 0 0 V -1.04318 H -7.33333" /><rect class="sym" height="6" width="6" x="-3" y="-3" /><text class="lab" transform="translate(0 11)">7</text></g><path class="edge" d="M 0 0 V -1.85209 H 11" /><circle class="sym" cx="0" cy="0" r="3" /><text class="lab lft" transform="translate(-3 -7.0)">10</text></g><path class="edge" d="M 0 0 V -16.7001 H 0.0" /><circle class="sym" cx="0" cy="0" r="3" /><text class="lab lft" transform="translate(-3 -7.0)">11</text></g><path class="edge" d="M 0 0 V -11.5307 H -20.1667" /><circle class="sym" cx="0" cy="0" r="3" /><text class="lab rgt" transform="translate(3 -7.0)">19</text></g><g class="a21 c1 node n20 p0" transform="translate(-20.1667 4.98771)"><g class="a20 c2 node n12 p0" transform="translate(0.0 23.0343)"><g class="a12 leaf node n0 p0 sample" transform="translate(-7.33333 3.10404)"><path class="edge" d="M 0 0 V -3.10404 H 7.33333" /><rect class="sym" height="6" width="6" x="-3" y="-3" /><text class="lab" transform="translate(0 11)">0</text></g><g class="a12 leaf node n2 p0 sample" transform="translate(7.33333 3.10404)"><path class="edge" d="M 0 0 V -3.10404 H -7.33333" /><rect class="sym" height="6" width="6" x="-3" y="-3" /><text class="lab" transform="translate(0 11)">2</text></g><path class="edge" d="M 0 0 V -23.0343 H 0.0" /><circle class="sym" cx="0" cy="0" r="3" /><text class="lab lft" transform="translate(-3 -7.0)">12</text></g><path class="edge" d="M 0 0 V -4.98771 H 20.1667" /><circle class="sym" cx="0" cy="0" r="3" /><text class="lab lft" transform="translate(-3 -7.0)">20</text></g><path class="edge" d="M 0 0 V -63.4739 H 40.3333" /><circle class="sym" cx="0" cy="0" r="3" /><text class="lab lft" transform="translate(-3 -7.0)">21</text></g><g class="a24 c2 node n23 p0" transform="translate(40.3333 40.9283)"><g class="a23 c2 node n17 p0" transform="translate(16.5 41.0771)"><g class="a17 leaf node n8 p0 sample" transform="translate(-7.33333 12.5946)"><path class="edge" d="M 0 0 V -12.5946 H 7.33333" /><rect class="sym" height="6" width="6" x="-3" y="-3" /><text class="lab" transform="translate(0 11)">8</text></g><g class="a17 c1 node n13 p0" transform="translate(7.33333 1.85735)"><g class="a13 leaf node n9 p0 sample" transform="translate(0.0 10.7372)"><path class="edge" d="M 0 0 V -10.7372 H 0.0" /><rect class="sym" height="6" width="6" x="-3" y="-3" /><text class="lab" transform="translate(0 11)">9</text></g><path class="edge" d="M 0 0 V -1.85735 H -7.33333" /><circle class="sym" cx="0" cy="0" r="3" /><text class="lab rgt" transform="translate(3 -7.0)">13</text></g><path class="edge" d="M 0 0 V -41.0771 H -16.5" /><circle class="sym" cx="0" cy="0" r="3" /><text class="lab rgt" transform="translate(3 -7.0)">17</text></g><g class="a23 c2 node n22 p0" transform="translate(-16.5 21.059)"><g class="a22 leaf node n3 p0 sample" transform="translate(11 32.6127)"><path class="edge" d="M 0 0 V -32.6127 H -11" /><rect class="sym" height="6" width="6" x="-3" y="-3" /><text class="lab" transform="translate(0 11)">3</text></g><g class="a22 c2 node n18 p0" transform="translate(-11 14.751)"><g class="a18 leaf node n1 p0 sample" transform="translate(-7.33333 17.8617)"><path class="edge" d="M 0 0 V -17.8617 H 7.33333" /><rect class="sym" height="6" width="6" x="-3" y="-3" /><text class="lab" transform="translate(0 11)">1</text></g><g class="a18 c1 node n15 p0" transform="translate(7.33333 6.69926)"><g class="a15 leaf node n4 p0 sample" transform="translate(0.0 11.1625)"><path class="edge" d="M 0 0 V -11.1625 H 0.0" /><rect class="sym" height="6" width="6" x="-3" y="-3" /><text class="lab" transform="translate(0 11)">4</text></g><path class="edge" d="M 0 0 V -6.69926 H -7.33333" /><circle class="sym" cx="0" cy="0" r="3" /><text class="lab rgt" transform="translate(3 -7.0)">15</text></g><path class="edge" d="M 0 0 V -14.751 H 11" /><circle class="sym" cx="0" cy="0" r="3" /><text class="lab lft" transform="translate(-3 -7.0)">18</text></g><path class="edge" d="M 0 0 V -21.059 H 16.5" /><circle class="sym" cx="0" cy="0" r="3" /><text class="lab lft" transform="translate(-3 -7.0)">22</text></g><path class="edge" d="M 0 0 V -40.9283 H -40.3333" /><circle class="sym" cx="0" cy="0" r="3" /><text class="lab rgt" transform="translate(3 -7.0)">23</text></g><circle class="sym" cx="0" cy="0" r="3" /><text class="lab" transform="translate(0 -11)">24</text></g></g></g><g class="tree t1" transform="translate(206.667 0)"><g class="plotbox"><g class="c2 node n24 p0 root" transform="translate(103.875 26.8)"><g class="a24 c2 node n21 p0" transform="translate(-42.625 63.4739)"><g class="a21 c2 node n19 p0" transform="translate(26.5833 11.5307)"><g class="a19 c2 node n11 p0" transform="translate(-12.8333 16.7001)"><g class="a11 leaf node n6 p0 sample" transform="translate(11 2.89527)"><path class="edge" d="M 0 0 V -2.89527 H -11" /><rect class="sym" height="6" width="6" x="-3" y="-3" /><text class="lab" transform="translate(0 11)">6</text></g><g class="a11 c2 node n10 p0" transform="translate(-11 1.85209)"><g class="a10 leaf node n5 p0 sample" transform="translate(-7.33333 1.04318)"><path class="edge" d="M 0 0 V -1.04318 H 7.33333" /><rect class="sym" height="6" width="6" x="-3" y="-3" /><text class="lab" transform="translate(0 11)">5</text></g><g class="a10 leaf node n7 p0 sample" transform="translate(7.33333 1.04318)"><path class="edge" d="M 0 0 V -1.04318 H -7.33333" /><rect class="sym" height="6" width="6" x="-3" y="-3" /><text class="lab" transform="translate(0 11)">7</text></g><path class="edge" d="M 0 0 V -1.85209 H 11" /><circle class="sym" cx="0" cy="0" r="3" /><text class="lab lft" transform="translate(-3 -7.0)">10</text></g><path class="edge" d="M 0 0 V -16.7001 H 12.8333" /><circle class="sym" cx="0" cy="0" r="3" /><text class="lab lft" transform="translate(-3 -7.0)">11</text></g><g class="a19 c1 node n14 p0" transform="translate(12.8333 8.85815)"><g class="a14 leaf node n9 p0 sample" transform="translate(0.0 10.7372)"><path class="edge" d="M 0 0 V -10.7372 H 0.0" /><rect class="sym" height="6" width="6" x="-3" y="-3" /><text class="lab" transform="translate(0 11)">9</text></g><path class="edge" d="M 0 0 V -8.85815 H -12.8333" /><circle class="sym" cx="0" cy="0" r="3" /><text class="lab rgt" transform="translate(3 -7.0)">14</text></g><path class="edge" d="M 0 0 V -11.5307 H -26.5833" /><circle class="sym" cx="0" cy="0" r="3" /><text class="lab rgt" transform="translate(3 -7.0)">19</text></g><g class="a21 c1 node n20 p0" transform="translate(-26.5833 4.98771)"><g class="a20 c2 node n12 p0" transform="translate(0.0 23.0343)"><g class="a12 leaf node n0 p0 sample" transform="translate(-7.33333 3.10404)"><path class="edge" d="M 0 0 V -3.10404 H 7.33333" /><rect class="sym" height="6" width="6" x="-3" y="-3" /><text class="lab" transform="translate(0 11)">0</text></g><g class="a12 leaf node n2 p0 sample" transform="translate(7.33333 3.10404)"><path class="edge" d="M 0 0 V -3.10404 H -7.33333" /><rect class="sym" height="6" width="6" x="-3" y="-3" /><text class="lab" transform="translate(0 11)">2</text></g><path class="edge" d="M 0 0 V -23.0343 H 0.0" /><circle class="sym" cx="0" cy="0" r="3" /><text class="lab lft" transform="translate(-3 -7.0)">12</text></g><path class="edge" d="M 0 0 V -4.98771 H 26.5833" /><circle class="sym" cx="0" cy="0" r="3" /><text class="lab lft" transform="translate(-3 -7.0)">20</text></g><path class="edge" d="M 0 0 V -63.4739 H 42.625" /><circle class="sym" cx="0" cy="0" r="3" /><text class="lab lft" transform="translate(-3 -7.0)">21</text></g><g class="a24 c2 node n23 p0" transform="translate(42.625 40.9283)"><g class="a23 c1 node n17 p0" transform="translate(12.8333 41.0771)"><g class="a17 leaf node n8 p0 sample" transform="translate(0.0 12.5946)"><path class="edge" d="M 0 0 V -12.5946 H 0.0" /><rect class="sym" height="6" width="6" x="-3" y="-3" /><text class="lab" transform="translate(0 11)">8</text></g><path class="edge" d="M 0 0 V -41.0771 H -12.8333" /><circle class="sym" cx="0" cy="0" r="3" /><text class="lab rgt" transform="translate(3 -7.0)">17</text></g><g class="a23 c2 node n22 p0" transform="translate(-12.8333 21.059)"><g class="a22 leaf node n3 p0 sample" transform="translate(11 32.6127)"><path class="edge" d="M 0 0 V -32.6127 H -11" /><rect class="sym" height="6" width="6" x="-3" y="-3" /><text class="lab" transform="translate(0 11)">3</text></g><g class="a22 c2 node n18 p0" transform="translate(-11 14.751)"><g class="a18 leaf node n1 p0 sample" transform="translate(-7.33333 17.8617)"><path class="edge" d="M 0 0 V -17.8617 H 7.33333" /><rect class="sym" height="6" width="6" x="-3" y="-3" /><text class="lab" transform="translate(0 11)">1</text></g><g class="a18 c1 node n15 p0" transform="translate(7.33333 6.69926)"><g class="a15 leaf node n4 p0 sample" transform="translate(0.0 11.1625)"><path class="edge" d="M 0 0 V -11.1625 H 0.0" /><rect class="sym" height="6" width="6" x="-3" y="-3" /><text class="lab" transform="translate(0 11)">4</text></g><path class="edge" d="M 0 0 V -6.69926 H -7.33333" /><circle class="sym" cx="0" cy="0" r="3" /><text class="lab rgt" transform="translate(3 -7.0)">15</text></g><path class="edge" d="M 0 0 V -14.751 H 11" /><circle class="sym" cx="0" cy="0" r="3" /><text class="lab lft" transform="translate(-3 -7.0)">18</text></g><path class="edge" d="M 0 0 V -21.059 H 12.8333" /><circle class="sym" cx="0" cy="0" r="3" /><text class="lab lft" transform="translate(-3 -7.0)">22</text></g><path class="edge" d="M 0 0 V -40.9283 H -42.625" /><circle class="sym" cx="0" cy="0" r="3" /><text class="lab rgt" transform="translate(3 -7.0)">23</text></g><circle class="sym" cx="0" cy="0" r="3" /><text class="lab" transform="translate(0 -11)">24</text></g></g></g><g class="tree t2" transform="translate(393.333 0)"><g class="plotbox"><g class="c2 node n24 p0 root" transform="translate(111.208 26.8)"><g class="a24 c2 node n21 p0" transform="translate(-37.125 63.4739)"><g class="a21 c2 node n19 p0" transform="translate(28.4167 11.5307)"><g class="a19 c2 node n11 p0" transform="translate(-12.8333 16.7001)"><g class="a11 leaf node n6 p0 sample" transform="translate(11 2.89527)"><path class="edge" d="M 0 0 V -2.89527 H -11" /><rect class="sym" height="6" width="6" x="-3" y="-3" /><text class="lab" transform="translate(0 11)">6</text></g><g class="a11 c2 node n10 p0" transform="translate(-11 1.85209)"><g class="a10 leaf node n5 p0 sample" transform="translate(-7.33333 1.04318)"><path class="edge" d="M 0 0 V -1.04318 H 7.33333" /><rect class="sym" height="6" width="6" x="-3" y="-3" /><text class="lab" transform="translate(0 11)">5</text></g><g class="a10 leaf node n7 p0 sample" transform="translate(7.33333 1.04318)"><path class="edge" d="M 0 0 V -1.04318 H -7.33333" /><rect class="sym" height="6" width="6" x="-3" y="-3" /><text class="lab" transform="translate(0 11)">7</text></g><path class="edge" d="M 0 0 V -1.85209 H 11" /><circle class="sym" cx="0" cy="0" r="3" /><text class="lab lft" transform="translate(-3 -7.0)">10</text></g><path class="edge" d="M 0 0 V -16.7001 H 12.8333" /><circle class="sym" cx="0" cy="0" r="3" /><text class="lab lft" transform="translate(-3 -7.0)">11</text></g><g class="a19 c1 node n14 p0" transform="translate(12.8333 8.85815)"><g class="a14 leaf node n9 p0 sample" transform="translate(0.0 10.7372)"><path class="edge" d="M 0 0 V -10.7372 H 0.0" /><rect class="sym" height="6" width="6" x="-3" y="-3" /><text class="lab" transform="translate(0 11)">9</text></g><path class="edge" d="M 0 0 V -8.85815 H -12.8333" /><circle class="sym" cx="0" cy="0" r="3" /><text class="lab rgt" transform="translate(3 -7.0)">14</text></g><path class="edge" d="M 0 0 V -11.5307 H -28.4167" /><circle class="sym" cx="0" cy="0" r="3" /><text class="lab rgt" transform="translate(3 -7.0)">19</text></g><g class="a21 c2 node n20 p0" transform="translate(-28.4167 4.98771)"><g class="a20 c2 node n12 p0" transform="translate(-11 23.0343)"><g class="a12 leaf node n0 p0 sample" transform="translate(-7.33333 3.10404)"><path class="edge" d="M 0 0 V -3.10404 H 7.33333" /><rect class="sym" height="6" width="6" x="-3" y="-3" /><text class="lab" transform="translate(0 11)">0</text></g><g class="a12 leaf node n2 p0 sample" transform="translate(7.33333 3.10404)"><path class="edge" d="M 0 0 V -3.10404 H -7.33333" /><rect class="sym" height="6" width="6" x="-3" y="-3" /><text class="lab" transform="translate(0 11)">2</text></g><path class="edge" d="M 0 0 V -23.0343 H 11" /><circle class="sym" cx="0" cy="0" r="3" /><text class="lab lft" transform="translate(-3 -7.0)">12</text></g><g class="a20 c1 node n16 p0" transform="translate(11 14.9759)"><g class="a16 leaf node n4 p0 sample" transform="translate(0.0 11.1625)"><path class="edge" d="M 0 0 V -11.1625 H 0.0" /><rect class="sym" height="6" width="6" x="-3" y="-3" /><text class="lab" transform="translate(0 11)">4</text></g><path class="edge" d="M 0 0 V -14.9759 H -11" /><circle class="sym" cx="0" cy="0" r="3" /><text class="lab rgt" transform="translate(3 -7.0)">16</text></g><path class="edge" d="M 0 0 V -4.98771 H 28.4167" /><circle class="sym" cx="0" cy="0" r="3" /><text class="lab lft" transform="translate(-3 -7.0)">20</text></g><path class="edge" d="M 0 0 V -63.4739 H 37.125" /><circle class="sym" cx="0" cy="0" r="3" /><text class="lab lft" transform="translate(-3 -7.0)">21</text></g><g class="a24 c2 node n23 p0" transform="translate(37.125 40.9283)"><g class="a23 c1 node n17 p0" transform="translate(11 41.0771)"><g class="a17 leaf node n8 p0 sample" transform="translate(0.0 12.5946)"><path class="edge" d="M 0 0 V -12.5946 H 0.0" /><rect class="sym" height="6" width="6" x="-3" y="-3" /><text class="lab" transform="translate(0 11)">8</text></g><path class="edge" d="M 0 0 V -41.0771 H -11" /><circle class="sym" cx="0" cy="0" r="3" /><text class="lab rgt" transform="translate(3 -7.0)">17</text></g><g class="a23 c2 node n22 p0" transform="translate(-11 21.059)"><g class="a22 leaf node n3 p0 sample" transform="translate(7.33333 32.6127)"><path class="edge" d="M 0 0 V -32.6127 H -7.33333" /><rect class="sym" height="6" width="6" x="-3" y="-3" /><text class="lab" transform="translate(0 11)">3</text></g><g class="a22 c1 node n18 p0" transform="translate(-7.33333 14.751)"><g class="a18 leaf node n1 p0 sample" transform="translate(0.0 17.8617)"><path class="edge" d="M 0 0 V -17.8617 H 0.0" /><rect class="sym" height="6" width="6" x="-3" y="-3" /><text class="lab" transform="translate(0 11)">1</text></g><path class="edge" d="M 0 0 V -14.751 H 7.33333" /><circle class="sym" cx="0" cy="0" r="3" /><text class="lab lft" transform="translate(-3 -7.0)">18</text></g><path class="edge" d="M 0 0 V -21.059 H 11" /><circle class="sym" cx="0" cy="0" r="3" /><text class="lab lft" transform="translate(-3 -7.0)">22</text></g><path class="edge" d="M 0 0 V -40.9283 H -37.125" /><circle class="sym" cx="0" cy="0" r="3" /><text class="lab rgt" transform="translate(3 -7.0)">23</text></g><circle class="sym" cx="0" cy="0" r="3" /><text class="lab" transform="translate(0 -11)">24</text></g></g></g></g></g></svg>
