<svg baseProfile="full" height="200" version="1.1" width="1000" xmlns="http://www.w3.org/2000/svg" xmlns:ev="http://www.w3.org/2001/xml-events" xmlns:xlink="http://www.w3.org/1999/xlink"><defs><style type="text/css"><![CDATA[.background path {fill: #808080; fill-opacity: 0}.background path:nth-child(odd) {fill-opacity: .1}.axes {font-size: 14px}.x-axis .tick .lab {font-weight: bold; dominant-baseline: hanging}.axes, .tree {font-size: 14px; text-anchor: middle}.axes line, .edge {stroke: black; fill: none}.y-axis .grid {stroke: #FAFAFA}.node > .sym {fill: black; stroke: none}.site > .sym {stroke: black}.mut text {fill: red; font-style: italic}.mut.extra text {fill: hotpink}.mut line {fill: none; stroke: none}.mut .sym {fill: none; stroke: red}.mut.extra .sym {stroke: hotpink}.node .mut .sym {stroke-width: 1.5px}.tree text, .tree-sequence text {dominant-baseline: central}.plotbox .lab.lft {text-anchor: end}.plotbox .lab.rgt {text-anchor: start}]]></style></defs><g class="tree-sequence"><g class="background"><path d="M20,0 l192,0 l0,138.2 l-64.5508,25 l0,5 l-127.449,0 l0,-5 l0,-25 l0,-138.2z" /><path d="M212,0 l192,0 l0,138.2 l-152.302,25 l0,5 l-104.249,0 l0,-5 l64.5508,-25 l0,-138.2z" /><path d="M404,0 l192,0 l0,138.2 l-296.117,25 l0,5 l-48.1851,0 l0,-5 l152.302,-25 l0,-138.2z" /><path d="M596,0 l192,0 l0,138.2 l-45.317,25 l0,5 l-442.8,0 l0,-5 l296.117,-25 l0,-138.2z" /><path d="M788,0 l192,0 l0,138.2 l0,25 l0,5 l-237.317,0 l0,-5 l45.317,-25 l0,-138.2z" /></g><g class="axes"><g class="x-axis"><g transform="translate(500 200)"><text class="lab" text-anchor="middle" transform="translate(0 -11)">Genome position</text></g><line x1="20" x2="980" y1="163.2" y2="163.2" /><g class="ticks"><g class="tick" transform="translate(20 163.2)"><line x1="0" x2="0" y1="0" y2="5" /><g transform="translate(0 6)"><text class="lab">0.00</text></g></g><g class="tick" transform="translate(147.449 163.2)"><line x1="0" x2="0" y1="0" y2="5" /><g transform="translate(0 6)"><text class="lab">132.76</text></g></g><g class="tick" transform="translate(251.698 163.2)"><line x1="0" x2="0" y1="0" y2="5" /><g transform="translate(0 6)"><text class="lab">241.35</text></g></g><g class="tick" transform="translate(299.883 163.2)"><line x1="0" x2="0" y1="0" y2="5" /><g transform="translate(0 6)"><text class="lab">291.55</text></g></g><g class="tick" transform="translate(742.683 163.2)"><line x1="0" x2="0" y1="0" y2="5" /><g transform="translate(0 6)"><text class="lab">752.79</text></g></g><g class="tick" transform="translate(980 163.2)"><line x1="0" x2="0" y1="0" y2="5" /><g transform="translate(0 6)"><text class="lab">1000.00</text></g></g></g></g></g><g class="plotbox trees"><g class="tree t0" transform="translate(20 0)"><g class="plotbox"><g class="c2 node n30 p0 root" transform="translate(95.2875 26.8)"><g class="a30 c2 node n27 p0" transform="translate(48.6875 39.8688)"><g class="a27 c1 node n19 p0" transform="translate(20.425 36.8745)"><g class="a19 leaf node n3 p0 sample" transform="translate(0.0 17.8568)"><path class="edge" d="M 0 0 V -17.8568 H 0.0" /><rect class="sym" height="6" width="6" x="-3" y="-3" /><text class="lab" transform="translate(0 11)">3</text></g><path class="edge" d="M 0 0 V -36.8745 H -20.425" /><circle class="sym" cx="0" cy="0" r="3" /><text class="lab rgt" transform="translate(3 -7.0)">19</text></g><g class="a27 c2 node n23 p0" transform="translate(-20.425 27.0093)"><g class="a23 c2 node n15 p0" transform="translate(18.05 21.8967)"><g class="a15 leaf node n5 p0 sample" transform="translate(-7.6 5.82522)"><path class="edge" d="M 0 0 V -5.82522 H 7.6" /><rect class="sym" height="6" width="6" x="-3" y="-3" /><text class="lab" transform="translate(0 11)">5</text></g><g class="a15 c1 node n14 p0" transform="translate(7.6 1.38552)"><g class="a14 c1 node n12 p0" transform="translate(0.0 1.85228)"><g class="a12 leaf node n7 p0 sample" transform="translate(0.0 2.58741)"><path class="edge" d="M 0 0 V -2.58741 H 0.0" /><rect class="sym" height="6" width="6" x="-3" y="-3" /><text class="lab" transform="translate(0 11)">7</text></g><path class="edge" d="M 0 0 V -1.85228 H 0.0" /><circle class="sym" cx="0" cy="0" r="3" /><text class="lab lft" transform="translate(-3 -7.0)">12</text></g><path class="edge" d="M 0 0 V -1.38552 H -7.6" /><circle class="sym" cx="0" cy="0" r="3" /><text class="lab rgt" transform="translate(3 -7.0)">14</text></g><path class="edge" d="M 0 0 V -21.8967 H -18.05" /><circle class="sym" cx="0" cy="0" r="3" /><text class="lab rgt" transform="translate(3 -7.0)">15</text></g><g class="a23 c2 node n21 p0" transform="translate(-18.05 6.39581)"><g class="a21 leaf node n9 p0 sample" transform="translate(13.3 21.3261)"><path class="edge" d="M 0 0 V -21.3261 H -13.3" /><rect class="sym" height="6" width="6" x="-3" y="-3" /><text class="lab" transform="translate(0 11)">9</text></g><g class="a21 c2 node n17 p0" transform="translate(-13.3 10.5816)"><g class="a17 leaf node n8 p0 sample" transform="translate(11.4 10.7446)"><path class="edge" d="M 0 0 V -10.7446 H -11.4" /><rect class="sym" height="6" width="6" x="-3" y="-3" /><text class="lab" transform="translate(0 11)">8</text></g><g class="a17 c2 node n16 p0" transform="translate(-11.4 4.77951)"><g class="a16 leaf node n6 p0 sample" transform="translate(7.6 5.96507)"><path class="edge" d="M 0 0 V -5.96507 H -7.6" /><rect class="sym" height="6" width="6" x="-3" y="-3" /><text class="lab" transform="translate(0 11)">6</text></g><g class="a16 c1 node n10 p0" transform="translate(-7.6 5.60449)"><g class="a10 leaf node n1 p0 sample" transform="translate(0.0 0.360581)"><path class="edge" d="M 0 0 V -0.360581 H 0.0" /><rect class="sym" height="6" width="6" x="-3" y="-3" /><text class="lab" transform="translate(0 11)">1</text></g><path class="edge" d="M 0 0 V -5.60449 H 7.6" /><circle class="sym" cx="0" cy="0" r="3" /><text class="lab lft" transform="translate(-3 -7.0)">10</text></g><path class="edge" d="M 0 0 V -4.77951 H 11.4" /><circle class="sym" cx="0" cy="0" r="3" /><text class="lab lft" transform="translate(-3 -7.0)">16</text></g><path class="edge" d="M 0 0 V -10.5816 H 13.3" /><circle class="sym" cx="0" cy="0" r="3" /><text class="lab lft" transform="translate(-3 -7.0)">17</text></g><path class="edge" d="M 0 0 V -6.39581 H 18.05" /><circle class="sym" cx="0" cy="0" r="3" /><text class="lab lft" transform="translate(-3 -7.0)">21</text></g><path class="edge" d="M 0 0 V -27.0093 H 20.425" /><circle class="sym" cx="0" cy="0" r="3" /><text class="lab lft" transform="translate(-3 -7.0)">23</text></g><path class="edge" d="M 0 0 V -39.8688 H -48.6875" /><circle class="sym" cx="0" cy="0" r="3" /><text class="lab rgt" transform="translate(3 -7.0)">27</text></g><g class="a30 c1 node n29 p0" transform="translate(-48.6875 19.9892)"><g class="a29 c2 node n28 p0" transform="translate(0.0 9.66093)"><g class="a28 c1 node n22 p0" transform="translate(11.4 37.6626)"><g class="a22 leaf node n2 p0 sample" transform="translate(0.0 27.2873)"><path class="edge" d="M 0 0 V -27.2873 H 0.0" /><rect class="sym" height="6" width="6" x="-3" y="-3" /><text class="lab" transform="translate(0 11)">2</text></g><path class="edge" d="M 0 0 V -37.6626 H -11.4" /><circle class="sym" cx="0" cy="0" r="3" /><text class="lab rgt" transform="translate(3 -7.0)">22</text></g><g class="a28 c1 node n25 p0" transform="translate(-11.4 12.0063)"><g class="a25 c1 node n24 p0" transform="translate(0.0 21.7329)"><g class="a24 c2 node n18 p0" transform="translate(0.0 19.1)"><g class="a18 leaf node n0 p0 sample" transform="translate(-7.6 12.1108)"><path class="edge" d="M 0 0 V -12.1108 H 7.6" /><rect class="sym" height="6" width="6" x="-3" y="-3" /><text class="lab" transform="translate(0 11)">0</text></g><g class="a18 leaf node n4 p0 sample" transform="translate(7.6 12.1108)"><path class="edge" d="M 0 0 V -12.1108 H -7.6" /><rect class="sym" height="6" width="6" x="-3" y="-3" /><text class="lab" transform="translate(0 11)">4</text></g><path class="edge" d="M 0 0 V -19.1 H 0.0" /><circle class="sym" cx="0" cy="0" r="3" /><text class="lab lft" transform="translate(-3 -7.0)">18</text></g><path class="edge" d="M 0 0 V -21.7329 H 0.0" /><circle class="sym" cx="0" cy="0" r="3" /><text class="lab lft" transform="translate(-3 -7.0)">24</text></g><path class="edge" d="M 0 0 V -12.0063 H 11.4" /><circle class="sym" cx="0" cy="0" r="3" /><text class="lab lft" transform="translate(-3 -7.0)">25</text></g><path class="edge" d="M 0 0 V -9.66093 H 0.0" /><circle class="sym" cx="0" cy="0" r="3" /><text class="lab lft" transform="translate(-3 -7.0)">28</text></g><path class="edge" d="M 0 0 V -19.9892 H 48.6875" /><circle class="sym" cx="0" cy="0" r="3" /><text class="lab lft" transform="translate(-3 -7.0)">29</text></g><circle class="sym" cx="0" cy="0" r="3" /><text class="lab" transform="translate(0 -11)">30</text></g></g></g><g class="tree t1" transform="translate(212 0)"><g class="plotbox"><g class="c2 node n30 p0 root" transform="translate(95.2875 26.8)"><g class="a30 c2 node n27 p0" transform="translate(48.6875 39.8688)"><g class="a27 c1 node n19 p0" transform="translate(20.425 36.8745)"><g class="a19 leaf node n3 p0 sample" transform="translate(0.0 17.8568)"><path class="edge" d="M 0 0 V -17.8568 H 0.0" /><rect class="sym" height="6" width="6" x="-3" y="-3" /><text class="lab" transform="translate(0 11)">3</text></g><path class="edge" d="M 0 0 V -36.8745 H -20.425" /><circle class="sym" cx="0" cy="0" r="3" /><text class="lab rgt" transform="translate(3 -7.0)">19</text></g><g class="a27 c2 node n23 p0" transform="translate(-20.425 27.0093)"><g class="a23 c2 node n15 p0" transform="translate(18.05 21.8967)"><g class="a15 leaf node n5 p0 sample" transform="translate(-7.6 5.82522)"><path class="edge" d="M 0 0 V -5.82522 H 7.6" /><rect class="sym" height="6" width="6" x="-3" y="-3" /><text class="lab" transform="translate(0 11)">5</text></g><g class="a15 c1 node n14 p0" transform="translate(7.6 1.38552)"><g class="a14 c1 node n12 p0" transform="translate(0.0 1.85228)"><g class="a12 leaf node n7 p0 sample" transform="translate(0.0 2.58741)"><path class="edge" d="M 0 0 V -2.58741 H 0.0" /><rect class="sym" height="6" width="6" x="-3" y="-3" /><text class="lab" transform="translate(0 11)">7</text></g><path class="edge" d="M 0 0 V -1.85228 H 0.0" /><circle class="sym" cx="0" cy="0" r="3" /><text class="lab lft" transform="translate(-3 -7.0)">12</text></g><path class="edge" d="M 0 0 V -1.38552 H -7.6" /><circle class="sym" cx="0" cy="0" r="3" /><text class="lab rgt" transform="translate(3 -7.0)">14</text></g><path class="edge" d="M 0 0 V -21.8967 H -18.05" /><circle class="sym" cx="0" cy="0" r="3" /><text class="lab rgt" transform="translate(3 -7.0)">15</text></g><g class="a23 c2 node n21 p0" transform="translate(-18.05 6.39581)"><g class="a21 leaf node n9 p0 sample" transform="translate(13.3 21.3261)"><path class="edge" d="M 0 0 V -21.3261 H -13.3" /><rect class="sym" height="6" width="6" x="-3" y="-3" /><text class="lab" transform="translate(0 11)">9</text></g><g class="a21 c2 node n17 p0" transform="translate(-13.3 10.5816)"><g class="a17 leaf node n8 p0 sample" transform="translate(11.4 10.7446)"><path class="edge" d="M 0 0 V -10.7446 H -11.4" /><rect class="sym" height="6" width="6" x="-3" y="-3" /><text class="lab" transform="translate(0 11)">8</text></g><g class="a17 c2 node n16 p0" transform="translate(-11.4 4.77951)"><g class="a16 leaf node n6 p0 sample" transform="translate(7.6 5.96507)"><path class="edge" d="M 0 0 V -5.96507 H -7.6" /><rect class="sym" height="6" width="6" x="-3" y="-3" /><text class="lab" transform="translate(0 11)">6</text></g><g class="a16 c1 node n10 p0" transform="translate(-7.6 5.60449)"><g class="a10 leaf node n1 p0 sample" transform="translate(0.0 0.360581)"><path class="edge" d="M 0 0 V -0.360581 H 0.0" /><rect class="sym" height="6" width="6" x="-3" y="-3" /><text class="lab" transform="translate(0 11)">1</text></g><path class="edge" d="M 0 0 V -5.60449 H 7.6" /><circle class="sym" cx="0" cy="0" r="3" /><text class="lab lft" transform="translate(-3 -7.0)">10</text></g><path class="edge" d="M 0 0 V -4.77951 H 11.4" /><circle class="sym" cx="0" cy="0" r="3" /><text class="lab lft" transform="translate(-3 -7.0)">16</text></g><path class="edge" d="M 0 0 V -10.5816 H 13.3" /><circle class="sym" cx="0" cy="0" r="3" /><text class="lab lft" transform="translate(-3 -7.0)">17</text></g><path class="edge" d="M 0 0 V -6.39581 H 18.05" /><circle class="sym" cx="0" cy="0" r="3" /><text class="lab lft" transform="translate(-3 -7.0)">21</text></g><path class="edge" d="M 0 0 V -27.0093 H 20.425" /><circle class="sym" cx="0" cy="0" r="3" /><text class="lab lft" transform="translate(-3 -7.0)">23</text></g><path class="edge" d="M 0 0 V -39.8688 H -48.6875" /><circle class="sym" cx="0" cy="0" r="3" /><text class="lab rgt" transform="translate(3 -7.0)">27</text></g><g class="a30 c2 node n29 p0" transform="translate(-48.6875 19.9892)"><g class="a29 c1 node n28 p0" transform="translate(11.4 9.66093)"><g class="a28 c1 node n22 p0" transform="translate(0.0 37.6626)"><g class="a22 leaf node n2 p0 sample" transform="translate(0.0 27.2873)"><path class="edge" d="M 0 0 V -27.2873 H 0.0" /><rect class="sym" height="6" width="6" x="-3" y="-3" /><text class="lab" transform="translate(0 11)">2</text></g><path class="edge" d="M 0 0 V -37.6626 H 0.0" /><circle class="sym" cx="0" cy="0" r="3" /><text class="lab lft" transform="translate(-3 -7.0)">22</text></g><path class="edge" d="M 0 0 V -9.66093 H -11.4" /><circle class="sym" cx="0" cy="0" r="3" /><text class="lab rgt" transform="translate(3 -7.0)">28</text></g><g class="a29 c1 node n26 p0" transform="translate(-11.4 21.6672)"><g class="a26 c1 node n24 p0" transform="translate(0.0 21.7329)"><g class="a24 c2 node n18 p0" transform="translate(0.0 19.1)"><g class="a18 leaf node n0 p0 sample" transform="translate(-7.6 12.1108)"><path class="edge" d="M 0 0 V -12.1108 H 7.6" /><rect class="sym" height="6" width="6" x="-3" y="-3" /><text class="lab" transform="translate(0 11)">0</text></g><g class="a18 leaf node n4 p0 sample" transform="translate(7.6 12.1108)"><path class="edge" d="M 0 0 V -12.1108 H -7.6" /><rect class="sym" height="6" width="6" x="-3" y="-3" /><text class="lab" transform="translate(0 11)">4</text></g><path class="edge" d="M 0 0 V -19.1 H 0.0" /><circle class="sym" cx="0" cy="0" r="3" /><text class="lab lft" transform="translate(-3 -7.0)">18</text></g><path class="edge" d="M 0 0 V -21.7329 H 0.0" /><circle class="sym" cx="0" cy="0" r="3" /><text class="lab lft" transform="translate(-3 -7.0)">24</text></g><path class="edge" d="M 0 0 V -21.6672 H 11.4" /><circle class="sym" cx="0" cy="0" r="3" /><text class="lab lft" transform="translate(-3 -7.0)">26</text></g><path class="edge" d="M 0 0 V -19.9892 H 48.6875" /><circle class="sym" cx="0" cy="0" r="3" /><text class="lab lft" transform="translate(-3 -7.0)">29</text></g><circle class="sym" cx="0" cy="0" r="3" /><text class="lab" transform="translate(0 -11)">30</text></g></g></g><g class="tree t2" transform="translate(404 0)"><g class="plotbox"><g class="c2 node n30 p0 root" transform="translate(99.325 26.8)"><g class="a30 c1 node n27 p0" transform="translate(39.425 39.8688)"><g class="a27 c2 node n23 p0" transform="translate(0.0 27.0093)"><g class="a23 c2 node n15 p0" transform="translate(18.05 21.8967)"><g class="a15 leaf node n5 p0 sample" transform="translate(-7.6 5.82522)"><path class="edge" d="M 0 0 V -5.82522 H 7.6" /><rect class="sym" height="6" width="6" x="-3" y="-3" /><text class="lab" transform="translate(0 11)">5</text></g><g class="a15 c1 node n14 p0" transform="translate(7.6 1.38552)"><g class="a14 c1 node n12 p0" transform="translate(0.0 1.85228)"><g class="a12 leaf node n7 p0 sample" transform="translate(0.0 2.58741)"><path class="edge" d="M 0 0 V -2.58741 H 0.0" /><rect class="sym" height="6" width="6" x="-3" y="-3" /><text class="lab" transform="translate(0 11)">7</text></g><path class="edge" d="M 0 0 V -1.85228 H 0.0" /><circle class="sym" cx="0" cy="0" r="3" /><text class="lab lft" transform="translate(-3 -7.0)">12</text></g><path class="edge" d="M 0 0 V -1.38552 H -7.6" /><circle class="sym" cx="0" cy="0" r="3" /><text class="lab rgt" transform="translate(3 -7.0)">14</text></g><path class="edge" d="M 0 0 V -21.8967 H -18.05" /><circle class="sym" cx="0" cy="0" r="3" /><text class="lab rgt" transform="translate(3 -7.0)">15</text></g><g class="a23 c2 node n21 p0" transform="translate(-18.05 6.39581)"><g class="a21 leaf node n9 p0 sample" transform="translate(13.3 21.3261)"><path class="edge" d="M 0 0 V -21.3261 H -13.3" /><rect class="sym" height="6" width="6" x="-3" y="-3" /><text class="lab" transform="translate(0 11)">9</text></g><g class="a21 c2 node n17 p0" transform="translate(-13.3 10.5816)"><g class="a17 leaf node n8 p0 sample" transform="translate(11.4 10.7446)"><path class="edge" d="M 0 0 V -10.7446 H -11.4" /><rect class="sym" height="6" width="6" x="-3" y="-3" /><text class="lab" transform="translate(0 11)">8</text></g><g class="a17 c2 node n16 p0" transform="translate(-11.4 4.77951)"><g class="a16 leaf node n6 p0 sample" transform="translate(7.6 5.96507)"><path class="edge" d="M 0 0 V -5.96507 H -7.6" /><rect class="sym" height="6" width="6" x="-3" y="-3" /><text class="lab" transform="translate(0 11)">6</text></g><g class="a16 c1 node n10 p0" transform="translate(-7.6 5.60449)"><g class="a10 leaf node n1 p0 sample" transform="translate(0.0 0.360581)"><path class="edge" d="M 0 0 V -0.360581 H 0.0" /><rect class="sym" height="6" width="6" x="-3" y="-3" /><text class="lab" transform="translate(0 11)">1</text></g><path class="edge" d="M 0 0 V -5.60449 H 7.6" /><circle class="sym" cx="0" cy="0" r="3" /><text class="lab lft" transform="translate(-3 -7.0)">10</text></g><path class="edge" d="M 0 0 V -4.77951 H 11.4" /><circle class="sym" cx="0" cy="0" r="3" /><text class="lab lft" transform="translate(-3 -7.0)">16</text></g><path class="edge" d="M 0 0 V -10.5816 H 13.3" /><circle class="sym" cx="0" cy="0" r="3" /><text class="lab lft" transform="translate(-3 -7.0)">17</text></g><path class="edge" d="M 0 0 V -6.39581 H 18.05" /><circle class="sym" cx="0" cy="0" r="3" /><text class="lab lft" transform="translate(-3 -7.0)">21</text></g><path class="edge" d="M 0 0 V -27.0093 H 0.0" /><circle class="sym" cx="0" cy="0" r="3" /><text class="lab lft" transform="translate(-3 -7.0)">23</text></g><path class="edge" d="M 0 0 V -39.8688 H -39.425" /><circle class="sym" cx="0" cy="0" r="3" /><text class="lab rgt" transform="translate(3 -7.0)">27</text></g><g class="a30 c2 node n29 p0" transform="translate(-39.425 19.9892)"><g class="a29 c1 node n28 p0" transform="translate(13.3 9.66093)"><g class="a28 c1 node n22 p0" transform="translate(0.0 37.6626)"><g class="a22 leaf node n2 p0 sample" transform="translate(0.0 27.2873)"><path class="edge" d="M 0 0 V -27.2873 H 0.0" /><rect class="sym" height="6" width="6" x="-3" y="-3" /><text class="lab" transform="translate(0 11)">2</text></g><path class="edge" d="M 0 0 V -37.6626 H 0.0" /><circle class="sym" cx="0" cy="0" r="3" /><text class="lab lft" transform="translate(-3 -7.0)">22</text></g><path class="edge" d="M 0 0 V -9.66093 H -13.3" /><circle class="sym" cx="0" cy="0" r="3" /><text class="lab rgt" transform="translate(3 -7.0)">28</text></g><g class="a29 c1 node n26 p0" transform="translate(-13.3 21.6672)"><g class="a26 c2 node n24 p0" transform="translate(0.0 21.7329)"><g class="a24 c2 node n18 p0" transform="translate(-11.4 19.1)"><g class="a18 leaf node n0 p0 sample" transform="translate(-7.6 12.1108)"><path class="edge" d="M 0 0 V -12.1108 H 7.6" /><rect class="sym" height="6" width="6" x="-3" y="-3" /><text class="lab" transform="translate(0 11)">0</text></g><g class="a18 leaf node n4 p0 sample" transform="translate(7.6 12.1108)"><path class="edge" d="M 0 0 V -12.1108 H -7.6" /><rect class="sym" height="6" width="6" x="-3" y="-3" /><text class="lab" transform="translate(0 11)">4</text></g><path class="edge" d="M 0 0 V -19.1 H 11.4" /><circle class="sym" cx="0" cy="0" r="3" /><text class="lab lft" transform="translate(-3 -7.0)">18</text></g><g class="a24 c1 node n20 p0" transform="translate(11.4 13.354)"><g class="a20 leaf node n3 p0 sample" transform="translate(0.0 17.8568)"><path class="edge" d="M 0 0 V -17.8568 H 0.0" /><rect class="sym" height="6" width="6" x="-3" y="-3" /><text class="lab" transform="translate(0 11)">3</text></g><path class="edge" d="M 0 0 V -13.354 H -11.4" /><circle class="sym" cx="0" cy="0" r="3" /><text class="lab rgt" transform="translate(3 -7.0)">20</text></g><path class="edge" d="M 0 0 V -21.7329 H 0.0" /><circle class="sym" cx="0" cy="0" r="3" /><text class="lab lft" transform="translate(-3 -7.0)">24</text></g><path class="edge" d="M 0 0 V -21.6672 H 13.3" /><circle class="sym" cx="0" cy="0" r="3" /><text class="lab lft" transform="translate(-3 -7.0)">26</text></g><path class="edge" d="M 0 0 V -19.9892 H 39.425" /><circle class="sym" cx="0" cy="0" r="3" /><text class="lab lft" transform="translate(-3 -7.0)">29</text></g><circle class="sym" cx="0" cy="0" r="3" /><text class="lab" transform="translate(0 -11)">30</text></g></g></g><g class="tree t3" transform="translate(596 0)"><g class="plotbox"><g class="c2 node n30 p0 root" transform="translate(95.05 26.8)"><g class="a30 c1 node n27 p0" transform="translate(35.15 39.8688)"><g class="a27 c2 node n23 p0" transform="translate(0.0 27.0093)"><g class="a23 c2 node n15 p0" transform="translate(-22.8 21.8967)"><g class="a15 leaf node n5 p0 sample" transform="translate(11.4 5.82522)"><path class="edge" d="M 0 0 V -5.82522 H -11.4" /><rect class="sym" height="6" width="6" x="-3" y="-3" /><text class="lab" transform="translate(0 11)">5</text></g><g class="a15 c2 node n14 p0" transform="translate(-11.4 1.38552)"><g class="a14 c1 node n12 p0" transform="translate(7.6 1.85228)"><g class="a12 leaf node n7 p0 sample" transform="translate(0.0 2.58741)"><path class="edge" d="M 0 0 V -2.58741 H 0.0" /><rect class="sym" height="6" width="6" x="-3" y="-3" /><text class="lab" transform="translate(0 11)">7</text></g><path class="edge" d="M 0 0 V -1.85228 H -7.6" /><circle class="sym" cx="0" cy="0" r="3" /><text class="lab rgt" transform="translate(3 -7.0)">12</text></g><g class="a14 c1 node n11 p0" transform="translate(-7.6 4.07911)"><g class="a11 leaf node n1 p0 sample" transform="translate(0.0 0.360581)"><path class="edge" d="M 0 0 V -0.360581 H 0.0" /><rect class="sym" height="6" width="6" x="-3" y="-3" /><text class="lab" transform="translate(0 11)">1</text></g><path class="edge" d="M 0 0 V -4.07911 H 7.6" /><circle class="sym" cx="0" cy="0" r="3" /><text class="lab lft" transform="translate(-3 -7.0)">11</text></g><path class="edge" d="M 0 0 V -1.38552 H 11.4" /><circle class="sym" cx="0" cy="0" r="3" /><text class="lab lft" transform="translate(-3 -7.0)">14</text></g><path class="edge" d="M 0 0 V -21.8967 H 22.8" /><circle class="sym" cx="0" cy="0" r="3" /><text class="lab lft" transform="translate(-3 -7.0)">15</text></g><g class="a23 c2 node n21 p0" transform="translate(22.8 6.39581)"><g class="a21 leaf node n9 p0 sample" transform="translate(11.4 21.3261)"><path class="edge" d="M 0 0 V -21.3261 H -11.4" /><rect class="sym" height="6" width="6" x="-3" y="-3" /><text class="lab" transform="translate(0 11)">9</text></g><g class="a21 c2 node n17 p0" transform="translate(-11.4 10.5816)"><g class="a17 leaf node n8 p0 sample" transform="translate(7.6 10.7446)"><path class="edge" d="M 0 0 V -10.7446 H -7.6" /><rect class="sym" height="6" width="6" x="-3" y="-3" /><text class="lab" transform="translate(0 11)">8</text></g><g class="a17 c1 node n16 p0" transform="translate(-7.6 4.77951)"><g class="a16 leaf node n6 p0 sample" transform="translate(0.0 5.96507)"><path class="edge" d="M 0 0 V -5.96507 H 0.0" /><rect class="sym" height="6" width="6" x="-3" y="-3" /><text class="lab" transform="translate(0 11)">6</text></g><path class="edge" d="M 0 0 V -4.77951 H 7.6" /><circle class="sym" cx="0" cy="0" r="3" /><text class="lab lft" transform="translate(-3 -7.0)">16</text></g><path class="edge" d="M 0 0 V -10.5816 H 11.4" /><circle class="sym" cx="0" cy="0" r="3" /><text class="lab lft" transform="translate(-3 -7.0)">17</text></g><path class="edge" d="M 0 0 V -6.39581 H -22.8" /><circle class="sym" cx="0" cy="0" r="3" /><text class="lab rgt" transform="translate(3 -7.0)">21</text></g><path class="edge" d="M 0 0 V -27.0093 H 0.0" /><circle class="sym" cx="0" cy="0" r="3" /><text class="lab lft" transform="translate(-3 -7.0)">23</text></g><path class="edge" d="M 0 0 V -39.8688 H -35.15" /><circle class="sym" cx="0" cy="0" r="3" /><text class="lab rgt" transform="translate(3 -7.0)">27</text></g><g class="a30 c2 node n29 p0" transform="translate(-35.15 19.9892)"><g class="a29 c1 node n28 p0" transform="translate(13.3 9.66093)"><g class="a28 c1 node n22 p0" transform="translate(0.0 37.6626)"><g class="a22 leaf node n2 p0 sample" transform="translate(0.0 27.2873)"><path class="edge" d="M 0 0 V -27.2873 H 0.0" /><rect class="sym" height="6" width="6" x="-3" y="-3" /><text class="lab" transform="translate(0 11)">2</text></g><path class="edge" d="M 0 0 V -37.6626 H 0.0" /><circle class="sym" cx="0" cy="0" r="3" /><text class="lab lft" transform="translate(-3 -7.0)">22</text></g><path class="edge" d="M 0 0 V -9.66093 H -13.3" /><circle class="sym" cx="0" cy="0" r="3" /><text class="lab rgt" transform="translate(3 -7.0)">28</text></g><g class="a29 c1 node n26 p0" transform="translate(-13.3 21.6672)"><g class="a26 c2 node n24 p0" transform="translate(0.0 21.7329)"><g class="a24 c2 node n18 p0" transform="translate(-11.4 19.1)"><g class="a18 leaf node n0 p0 sample" transform="translate(-7.6 12.1108)"><path class="edge" d="M 0 0 V -12.1108 H 7.6" /><rect class="sym" height="6" width="6" x="-3" y="-3" /><text class="lab" transform="translate(0 11)">0</text></g><g class="a18 leaf node n4 p0 sample" transform="translate(7.6 12.1108)"><path class="edge" d="M 0 0 V -12.1108 H -7.6" /><rect class="sym" height="6" width="6" x="-3" y="-3" /><text class="lab" transform="translate(0 11)">4</text></g><path class="edge" d="M 0 0 V -19.1 H 11.4" /><circle class="sym" cx="0" cy="0" r="3" /><text class="lab lft" transform="translate(-3 -7.0)">18</text></g><g class="a24 c1 node n20 p0" transform="translate(11.4 13.354)"><g class="a20 leaf node n3 p0 sample" transform="translate(0.0 17.8568)"><path class="edge" d="M 0 0 V -17.8568 H 0.0" /><rect class="sym" height="6" width="6" x="-3" y="-3" /><text class="lab" transform="translate(0 11)">3</text></g><path class="edge" d="M 0 0 V -13.354 H -11.4" /><circle class="sym" cx="0" cy="0" r="3" /><text class="lab rgt" transform="translate(3 -7.0)">20</text></g><path class="edge" d="M 0 0 V -21.7329 H 0.0" /><circle class="sym" cx="0" cy="0" r="3" /><text class="lab lft" transform="translate(-3 -7.0)">24</text></g><path class="edge" d="M 0 0 V -21.6672 H 13.3" /><circle class="sym" cx="0" cy="0" r="3" /><text class="lab lft" transform="translate(-3 -7.0)">26</text></g><path class="edge" d="M 0 0 V -19.9892 H 35.15" /><circle class="sym" cx="0" cy="0" r="3" /><text class="lab lft" transform="translate(-3 -7.0)">29</text></g><circle class="sym" cx="0" cy="0" r="3" /><text class="lab" transform="translate(0 -11)">30</text></g></g></g><g class="tree t4" transform="translate(788 0)"><g class="plotbox"><g class="c2 node n30 p0 root" transform="translate(97.9 26.8)"><g class="a30 c1 node n27 p0" transform="translate(34.2 39.8688)"><g class="a27 c2 node n23 p0" transform="translate(0.0 27.0093)"><g class="a23 c2 node n15 p0" transform="translate(-20.9 21.8967)"><g class="a15 leaf node n5 p0 sample" transform="translate(7.6 5.82522)"><path class="edge" d="M 0 0 V -5.82522 H -7.6" /><rect class="sym" height="6" width="6" x="-3" y="-3" /><text class="lab" transform="translate(0 11)">5</text></g><g class="a15 c1 node n14 p0" transform="translate(-7.6 1.38552)"><g class="a14 c1 node n11 p0" transform="translate(0.0 4.07911)"><g class="a11 leaf node n1 p0 sample" transform="translate(0.0 0.360581)"><path class="edge" d="M 0 0 V -0.360581 H 0.0" /><rect class="sym" height="6" width="6" x="-3" y="-3" /><text class="lab" transform="translate(0 11)">1</text></g><path class="edge" d="M 0 0 V -4.07911 H 0.0" /><circle class="sym" cx="0" cy="0" r="3" /><text class="lab lft" transform="translate(-3 -7.0)">11</text></g><path class="edge" d="M 0 0 V -1.38552 H 7.6" /><circle class="sym" cx="0" cy="0" r="3" /><text class="lab lft" transform="translate(-3 -7.0)">14</text></g><path class="edge" d="M 0 0 V -21.8967 H 20.9" /><circle class="sym" cx="0" cy="0" r="3" /><text class="lab lft" transform="translate(-3 -7.0)">15</text></g><g class="a23 c2 node n21 p0" transform="translate(20.9 6.39581)"><g class="a21 leaf node n9 p0 sample" transform="translate(11.4 21.3261)"><path class="edge" d="M 0 0 V -21.3261 H -11.4" /><rect class="sym" height="6" width="6" x="-3" y="-3" /><text class="lab" transform="translate(0 11)">9</text></g><g class="a21 c2 node n17 p0" transform="translate(-11.4 10.5816)"><g class="a17 leaf node n8 p0 sample" transform="translate(7.6 10.7446)"><path class="edge" d="M 0 0 V -10.7446 H -7.6" /><rect class="sym" height="6" width="6" x="-3" y="-3" /><text class="lab" transform="translate(0 11)">8</text></g><g class="a17 c1 node n16 p0" transform="translate(-7.6 4.77951)"><g class="a16 leaf node n6 p0 sample" transform="translate(0.0 5.96507)"><path class="edge" d="M 0 0 V -5.96507 H 0.0" /><rect class="sym" height="6" width="6" x="-3" y="-3" /><text class="lab" transform="translate(0 11)">6</text></g><path class="edge" d="M 0 0 V -4.77951 H 7.6" /><circle class="sym" cx="0" cy="0" r="3" /><text class="lab lft" transform="translate(-3 -7.0)">16</text></g><path class="edge" d="M 0 0 V -10.5816 H 11.4" /><circle class="sym" cx="0" cy="0" r="3" /><text class="lab lft" transform="translate(-3 -7.0)">17</text></g><path class="edge" d="M 0 0 V -6.39581 H -20.9" /><circle class="sym" cx="0" cy="0" r="3" /><text class="lab rgt" transform="translate(3 -7.0)">21</text></g><path class="edge" d="M 0 0 V -27.0093 H 0.0" /><circle class="sym" cx="0" cy="0" r="3" /><text class="lab lft" transform="translate(-3 -7.0)">23</text></g><path class="edge" d="M 0 0 V -39.8688 H -34.2" /><circle class="sym" cx="0" cy="0" r="3" /><text class="lab rgt" transform="translate(3 -7.0)">27</text></g><g class="a30 c2 node n29 p0" transform="translate(-34.2 19.9892)"><g class="a29 c1 node n28 p0" transform="translate(17.1 9.66093)"><g class="a28 c2 node n22 p0" transform="translate(0.0 37.6626)"><g class="a22 leaf node n2 p0 sample" transform="translate(-7.6 27.2873)"><path class="edge" d="M 0 0 V -27.2873 H 7.6" /><rect class="sym" height="6" width="6" x="-3" y="-3" /><text class="lab" transform="translate(0 11)">2</text></g><g class="a22 c1 node n13 p0" transform="translate(7.6 24.6999)"><g class="a13 leaf node n7 p0 sample" transform="translate(0.0 2.58741)"><path class="edge" d="M 0 0 V -2.58741 H 0.0" /><rect class="sym" height="6" width="6" x="-3" y="-3" /><text class="lab" transform="translate(0 11)">7</text></g><path class="edge" d="M 0 0 V -24.6999 H -7.6" /><circle class="sym" cx="0" cy="0" r="3" /><text class="lab rgt" transform="translate(3 -7.0)">13</text></g><path class="edge" d="M 0 0 V -37.6626 H 0.0" /><circle class="sym" cx="0" cy="0" r="3" /><text class="lab lft" transform="translate(-3 -7.0)">22</text></g><path class="edge" d="M 0 0 V -9.66093 H -17.1" /><circle class="sym" cx="0" cy="0" r="3" /><text class="lab rgt" transform="translate(3 -7.0)">28</text></g><g class="a29 c1 node n26 p0" transform="translate(-17.1 21.6672)"><g class="a26 c2 node n24 p0" transform="translate(0.0 21.7329)"><g class="a24 c2 node n18 p0" transform="translate(-11.4 19.1)"><g class="a18 leaf node n0 p0 sample" transform="translate(-7.6 12.1108)"><path class="edge" d="M 0 0 V -12.1108 H 7.6" /><rect class="sym" height="6" width="6" x="-3" y="-3" /><text class="lab" transform="translate(0 11)">0</text></g><g class="a18 leaf node n4 p0 sample" transform="translate(7.6 12.1108)"><path class="edge" d="M 0 0 V -12.1108 H -7.6" /><rect class="sym" height="6" width="6" x="-3" y="-3" /><text class="lab" transform="translate(0 11)">4</text></g><path class="edge" d="M 0 0 V -19.1 H 11.4" /><circle class="sym" cx="0" cy="0" r="3" /><text class="lab lft" transform="translate(-3 -7.0)">18</text></g><g class="a24 c1 node n20 p0" transform="translate(11.4 13.354)"><g class="a20 leaf node n3 p0 sample" transform="translate(0.0 17.8568)"><path class="edge" d="M 0 0 V -17.8568 H 0.0" /><rect class="sym" height="6" width="6" x="-3" y="-3" /><text class="lab" transform="translate(0 11)">3</text></g><path class="edge" d="M 0 0 V -13.354 H -11.4" /><circle class="sym" cx="0" cy="0" r="3" /><text class="lab rgt" transform="translate(3 -7.0)">20</text></g><path class="edge" d="M 0 0 V -21.7329 H 0.0" /><circle class="sym" cx="0" cy="0" r="3" /><text class="lab lft" transform="translate(-3 -7.0)">24</text></g><path class="edge" d="M 0 0 V -21.6672 H 17.1" /><circle class="sym" cx="0" cy="0" r="3" /><text class="lab lft" transform="translate(-3 -7.0)">26</text></g><path class="edge" d="M 0 0 V -19.9892 H 34.2" /><circle class="sym" cx="0" cy="0" r="3" /><text class="lab lft" transform="translate(-3 -7.0)">29</text></g><circle class="sym" cx="0" cy="0" r="3" /><text class="lab" transform="translate(0 -11)">30</text></g></g></g></g></g></svg>
