<svg baseProfile="full" height="200" version="1.1" width="800" xmlns="http://www.w3.org/2000/svg" xmlns:ev="http://www.w3.org/2001/xml-events" xmlns:xlink="http://www.w3.org/1999/xlink"><defs><style type="text/css"><![CDATA[.background path {fill: #808080; fill-opacity: 0}.background path:nth-child(odd) {fill-opacity: .1}.axes {font-size: 14px}.x-axis .tick .lab {font-weight: bold; dominant-baseline: hanging}.axes, .tree {font-size: 14px; text-anchor: middle}.axes line, .edge {stroke: black; fill: none}.y-axis .grid {stroke: #FAFAFA}.node > .sym {fill: black; stroke: none}.site > .sym {stroke: black}.mut text {fill: red; font-style: italic}.mut.extra text {fill: hotpink}.mut line {fill: none; stroke: none}.mut .sym {fill: none; stroke: red}.mut.extra .sym {stroke: hotpink}.node .mut .sym {stroke-width: 1.5px}.tree text, .tree-sequence text {dominant-baseline: central}.plotbox .lab.lft {text-anchor: end}.plotbox .lab.rgt {text-anchor: start}]]></style></defs><g class="tree-sequence"><g class="background"><path d="M20,0 l190,0 l0,138.2 l-178.765,25 l0,5 l-11.2353,0 l0,-5 l0,-25 l0,-138.2z" /><path d="M210,0 l190,0 l0,138.2 l-35.8835,25 l0,5 l-332.881,0 l0,-5 l178.765,-25 l0,-138.2z" /><path d="M400,0 l190,0 l0,138.2 l145.11,25 l0,5 l-370.993,0 l0,-5 l35.8835,-25 l0,-138.2z" /><path d="M590,0 l190,0 l0,138.2 l0,25 l0,5 l-44.8904,0 l0,-5 l-145.11,-25 l0,-138.2z" /></g><g class="axes"><g class="x-axis"><g transform="translate(400 200)"><text class="lab" text-anchor="middle" transform="translate(0 -11)">Genome position</text></g><line x1="20" x2="780" y1="163.2" y2="163.2" /><g class="ticks"><g class="tick" transform="translate(20 163.2)"><line x1="0" x2="0" y1="0" y2="5" /><g transform="translate(0 6)"><text class="lab">0.00</text></g></g><g class="tick" transform="translate(31.2353 163.2)"><line x1="0" x2="0" y1="0" y2="5" /><g transform="translate(0 6)"><text class="lab">14.78</text></g></g><g class="tick" transform="translate(364.116 163.2)"><line x1="0" x2="0" y1="0" y2="5" /><g transform="translate(0 6)"><text class="lab">452.78</text></g></g><g class="tick" transform="translate(735.11 163.2)"><line x1="0" x2="0" y1="0" y2="5" /><g transform="translate(0 6)"><text class="lab">940.93</text></g></g><g class="tick" transform="translate(780 163.2)"><line x1="0" x2="0" y1="0" y2="5" /><g transform="translate(0 6)"><text class="lab">1000.00</text></g></g></g></g></g><g class="plotbox trees"><g class="tree t0" transform="translate(20 0)"><g class="plotbox"><g class="c2 node n27 p0 root" transform="translate(91.4844 26.8)"><g class="a27 c2 node n24 p0" transform="translate(45.2344 30.3932)"><g class="a24 c2 node n16 p0" transform="translate(18.2812 41.8152)"><g class="a16 leaf node n3 p0 sample" transform="translate(-7.5 22.3915)"><path class="edge" d="M 0 0 V -22.3915 H 7.5" /><rect class="sym" height="6" width="6" x="-3" y="-3" /><text class="lab" transform="translate(0 11)">3</text></g><g class="a16 c1 node n13 p0" transform="translate(7.5 10.5513)"><g class="a13 leaf node n7 p0 sample" transform="translate(0.0 11.8402)"><path class="edge" d="M 0 0 V -11.8402 H 0.0" /><rect class="sym" height="6" width="6" x="-3" y="-3" /><text class="lab" transform="translate(0 11)">7</text></g><path class="edge" d="M 0 0 V -10.5513 H -7.5" /><circle class="sym" cx="0" cy="0" r="3" /><text class="lab rgt" transform="translate(3 -7.0)">13</text></g><path class="edge" d="M 0 0 V -41.8152 H -18.2812" /><circle class="sym" cx="0" cy="0" r="3" /><text class="lab rgt" transform="translate(3 -7.0)">16</text></g><g class="a24 c1 node n23 p0" transform="translate(-18.2812 17.038)"><g class="a23 c2 node n18 p0" transform="translate(0.0 17.1333)"><g class="a18 c2 node n15 p0" transform="translate(-14.0625 10.7061)"><g class="a15 leaf node n5 p0 sample" transform="translate(13.125 19.3293)"><path class="edge" d="M 0 0 V -19.3293 H -13.125" /><rect class="sym" height="6" width="6" x="-3" y="-3" /><text class="lab" transform="translate(0 11)">5</text></g><g class="a15 c2 node n12 p0" transform="translate(-13.125 10.0977)"><g class="a12 leaf node n8 p0 sample" transform="translate(11.25 9.23163)"><path class="edge" d="M 0 0 V -9.23163 H -11.25" /><rect class="sym" height="6" width="6" x="-3" y="-3" /><text class="lab" transform="translate(0 11)">8</text></g><g class="a12 c2 node n10 p0" transform="translate(-11.25 8.66209)"><g class="a10 leaf node n2 p0 sample" transform="translate(-7.5 0.569541)"><path class="edge" d="M 0 0 V -0.569541 H 7.5" /><rect class="sym" height="6" width="6" x="-3" y="-3" /><text class="lab" transform="translate(0 11)">2</text></g><g class="a10 leaf node n6 p0 sample" transform="translate(7.5 0.569541)"><path class="edge" d="M 0 0 V -0.569541 H -7.5" /><rect class="sym" height="6" width="6" x="-3" y="-3" /><text class="lab" transform="translate(0 11)">6</text></g><path class="edge" d="M 0 0 V -8.66209 H 11.25" /><circle class="sym" cx="0" cy="0" r="3" /><text class="lab lft" transform="translate(-3 -7.0)">10</text></g><path class="edge" d="M 0 0 V -10.0977 H 13.125" /><circle class="sym" cx="0" cy="0" r="3" /><text class="lab lft" transform="translate(-3 -7.0)">12</text></g><path class="edge" d="M 0 0 V -10.7061 H 14.0625" /><circle class="sym" cx="0" cy="0" r="3" /><text class="lab lft" transform="translate(-3 -7.0)">15</text></g><g class="a18 c1 node n17 p0" transform="translate(14.0625 5.75694)"><g class="a17 leaf node n9 p0 sample" transform="translate(0.0 24.2785)"><path class="edge" d="M 0 0 V -24.2785 H 0.0" /><rect class="sym" height="6" width="6" x="-3" y="-3" /><text class="lab" transform="translate(0 11)">9</text></g><path class="edge" d="M 0 0 V -5.75694 H -14.0625" /><circle class="sym" cx="0" cy="0" r="3" /><text class="lab rgt" transform="translate(3 -7.0)">17</text></g><path class="edge" d="M 0 0 V -17.1333 H 0.0" /><circle class="sym" cx="0" cy="0" r="3" /><text class="lab lft" transform="translate(-3 -7.0)">18</text></g><path class="edge" d="M 0 0 V -17.038 H 18.2812" /><circle class="sym" cx="0" cy="0" r="3" /><text class="lab lft" transform="translate(-3 -7.0)">23</text></g><path class="edge" d="M 0 0 V -30.3932 H -45.2344" /><circle class="sym" cx="0" cy="0" r="3" /><text class="lab rgt" transform="translate(3 -7.0)">24</text></g><g class="a27 c2 node n26 p0" transform="translate(-45.2344 6.24557)"><g class="a26 c1 node n21 p0" transform="translate(-11.25 54.9603)"><g class="a21 c2 node n11 p0" transform="translate(0.0 25.5504)"><g class="a11 leaf node n0 p0 sample" transform="translate(-7.5 7.84373)"><path class="edge" d="M 0 0 V -7.84373 H 7.5" /><rect class="sym" height="6" width="6" x="-3" y="-3" /><text class="lab" transform="translate(0 11)">0</text></g><g class="a11 leaf node n1 p0 sample" transform="translate(7.5 7.84373)"><path class="edge" d="M 0 0 V -7.84373 H -7.5" /><rect class="sym" height="6" width="6" x="-3" y="-3" /><text class="lab" transform="translate(0 11)">1</text></g><path class="edge" d="M 0 0 V -25.5504 H 0.0" /><circle class="sym" cx="0" cy="0" r="3" /><text class="lab lft" transform="translate(-3 -7.0)">11</text></g><path class="edge" d="M 0 0 V -54.9603 H 11.25" /><circle class="sym" cx="0" cy="0" r="3" /><text class="lab lft" transform="translate(-3 -7.0)">21</text></g><g class="a26 c1 node n25 p0" transform="translate(11.25 11.1268)"><g class="a25 c1 node n19 p0" transform="translate(0.0 44.1413)"><g class="a19 leaf node n4 p0 sample" transform="translate(0.0 33.0863)"><path class="edge" d="M 0 0 V -33.0863 H 0.0" /><rect class="sym" height="6" width="6" x="-3" y="-3" /><text class="lab" transform="translate(0 11)">4</text></g><path class="edge" d="M 0 0 V -44.1413 H 0.0" /><circle class="sym" cx="0" cy="0" r="3" /><text class="lab lft" transform="translate(-3 -7.0)">19</text></g><path class="edge" d="M 0 0 V -11.1268 H -11.25" /><circle class="sym" cx="0" cy="0" r="3" /><text class="lab rgt" transform="translate(3 -7.0)">25</text></g><path class="edge" d="M 0 0 V -6.24557 H 45.2344" /><circle class="sym" cx="0" cy="0" r="3" /><text class="lab lft" transform="translate(-3 -7.0)">26</text></g><circle class="sym" cx="0" cy="0" r="3" /><text class="lab" transform="translate(0 -11)">27</text></g></g></g><g class="tree t1" transform="translate(210 0)"><g class="plotbox"><g class="c2 node n27 p0 root" transform="translate(94.2969 26.8)"><g class="a27 c2 node n24 p0" transform="translate(48.0469 30.3932)"><g class="a24 c1 node n16 p0" transform="translate(20.1562 41.8152)"><g class="a16 leaf node n3 p0 sample" transform="translate(0.0 22.3915)"><path class="edge" d="M 0 0 V -22.3915 H 0.0" /><rect class="sym" height="6" width="6" x="-3" y="-3" /><text class="lab" transform="translate(0 11)">3</text></g><path class="edge" d="M 0 0 V -41.8152 H -20.1562" /><circle class="sym" cx="0" cy="0" r="3" /><text class="lab rgt" transform="translate(3 -7.0)">16</text></g><g class="a24 c1 node n23 p0" transform="translate(-20.1562 17.038)"><g class="a23 c2 node n18 p0" transform="translate(0.0 17.1333)"><g class="a18 c2 node n15 p0" transform="translate(-17.8125 10.7061)"><g class="a15 leaf node n5 p0 sample" transform="translate(13.125 19.3293)"><path class="edge" d="M 0 0 V -19.3293 H -13.125" /><rect class="sym" height="6" width="6" x="-3" y="-3" /><text class="lab" transform="translate(0 11)">5</text></g><g class="a15 c2 node n12 p0" transform="translate(-13.125 10.0977)"><g class="a12 leaf node n8 p0 sample" transform="translate(11.25 9.23163)"><path class="edge" d="M 0 0 V -9.23163 H -11.25" /><rect class="sym" height="6" width="6" x="-3" y="-3" /><text class="lab" transform="translate(0 11)">8</text></g><g class="a12 c2 node n10 p0" transform="translate(-11.25 8.66209)"><g class="a10 leaf node n2 p0 sample" transform="translate(-7.5 0.569541)"><path class="edge" d="M 0 0 V -0.569541 H 7.5" /><rect class="sym" height="6" width="6" x="-3" y="-3" /><text class="lab" transform="translate(0 11)">2</text></g><g class="a10 leaf node n6 p0 sample" transform="translate(7.5 0.569541)"><path class="edge" d="M 0 0 V -0.569541 H -7.5" /><rect class="sym" height="6" width="6" x="-3" y="-3" /><text class="lab" transform="translate(0 11)">6</text></g><path class="edge" d="M 0 0 V -8.66209 H 11.25" /><circle class="sym" cx="0" cy="0" r="3" /><text class="lab lft" transform="translate(-3 -7.0)">10</text></g><path class="edge" d="M 0 0 V -10.0977 H 13.125" /><circle class="sym" cx="0" cy="0" r="3" /><text class="lab lft" transform="translate(-3 -7.0)">12</text></g><path class="edge" d="M 0 0 V -10.7061 H 17.8125" /><circle class="sym" cx="0" cy="0" r="3" /><text class="lab lft" transform="translate(-3 -7.0)">15</text></g><g class="a18 c2 node n17 p0" transform="translate(17.8125 5.75694)"><g class="a17 leaf node n9 p0 sample" transform="translate(7.5 24.2785)"><path class="edge" d="M 0 0 V -24.2785 H -7.5" /><rect class="sym" height="6" width="6" x="-3" y="-3" /><text class="lab" transform="translate(0 11)">9</text></g><g class="a17 c1 node n14 p0" transform="translate(-7.5 12.4383)"><g class="a14 leaf node n7 p0 sample" transform="translate(0.0 11.8402)"><path class="edge" d="M 0 0 V -11.8402 H 0.0" /><rect class="sym" height="6" width="6" x="-3" y="-3" /><text class="lab" transform="translate(0 11)">7</text></g><path class="edge" d="M 0 0 V -12.4383 H 7.5" /><circle class="sym" cx="0" cy="0" r="3" /><text class="lab lft" transform="translate(-3 -7.0)">14</text></g><path class="edge" d="M 0 0 V -5.75694 H -17.8125" /><circle class="sym" cx="0" cy="0" r="3" /><text class="lab rgt" transform="translate(3 -7.0)">17</text></g><path class="edge" d="M 0 0 V -17.1333 H 0.0" /><circle class="sym" cx="0" cy="0" r="3" /><text class="lab lft" transform="translate(-3 -7.0)">18</text></g><path class="edge" d="M 0 0 V -17.038 H 20.1562" /><circle class="sym" cx="0" cy="0" r="3" /><text class="lab lft" transform="translate(-3 -7.0)">23</text></g><path class="edge" d="M 0 0 V -30.3932 H -48.0469" /><circle class="sym" cx="0" cy="0" r="3" /><text class="lab rgt" transform="translate(3 -7.0)">24</text></g><g class="a27 c2 node n26 p0" transform="translate(-48.0469 6.24557)"><g class="a26 c1 node n21 p0" transform="translate(-11.25 54.9603)"><g class="a21 c2 node n11 p0" transform="translate(0.0 25.5504)"><g class="a11 leaf node n0 p0 sample" transform="translate(-7.5 7.84373)"><path class="edge" d="M 0 0 V -7.84373 H 7.5" /><rect class="sym" height="6" width="6" x="-3" y="-3" /><text class="lab" transform="translate(0 11)">0</text></g><g class="a11 leaf node n1 p0 sample" transform="translate(7.5 7.84373)"><path class="edge" d="M 0 0 V -7.84373 H -7.5" /><rect class="sym" height="6" width="6" x="-3" y="-3" /><text class="lab" transform="translate(0 11)">1</text></g><path class="edge" d="M 0 0 V -25.5504 H 0.0" /><circle class="sym" cx="0" cy="0" r="3" /><text class="lab lft" transform="translate(-3 -7.0)">11</text></g><path class="edge" d="M 0 0 V -54.9603 H 11.25" /><circle class="sym" cx="0" cy="0" r="3" /><text class="lab lft" transform="translate(-3 -7.0)">21</text></g><g class="a26 c1 node n25 p0" transform="translate(11.25 11.1268)"><g class="a25 c1 node n19 p0" transform="translate(0.0 44.1413)"><g class="a19 leaf node n4 p0 sample" transform="translate(0.0 33.0863)"><path class="edge" d="M 0 0 V -33.0863 H 0.0" /><rect class="sym" height="6" width="6" x="-3" y="-3" /><text class="lab" transform="translate(0 11)">4</text></g><path class="edge" d="M 0 0 V -44.1413 H 0.0" /><circle class="sym" cx="0" cy="0" r="3" /><text class="lab lft" transform="translate(-3 -7.0)">19</text></g><path class="edge" d="M 0 0 V -11.1268 H -11.25" /><circle class="sym" cx="0" cy="0" r="3" /><text class="lab rgt" transform="translate(3 -7.0)">25</text></g><path class="edge" d="M 0 0 V -6.24557 H 48.0469" /><circle class="sym" cx="0" cy="0" r="3" /><text class="lab lft" transform="translate(-3 -7.0)">26</text></g><circle class="sym" cx="0" cy="0" r="3" /><text class="lab" transform="translate(0 -11)">27</text></g></g></g><g class="tree t2" transform="translate(400 0)"><g class="plotbox"><g class="c2 node n27 p0 root" transform="translate(89.9609 26.8)"><g class="a27 c2 node n24 p0" transform="translate(54.9609 30.3932)"><g class="a24 c1 node n16 p0" transform="translate(17.5781 41.8152)"><g class="a16 leaf node n3 p0 sample" transform="translate(0.0 22.3915)"><path class="edge" d="M 0 0 V -22.3915 H 0.0" /><rect class="sym" height="6" width="6" x="-3" y="-3" /><text class="lab" transform="translate(0 11)">3</text></g><path class="edge" d="M 0 0 V -41.8152 H -17.5781" /><circle class="sym" cx="0" cy="0" r="3" /><text class="lab rgt" transform="translate(3 -7.0)">16</text></g><g class="a24 c2 node n23 p0" transform="translate(-17.5781 17.038)"><g class="a23 c2 node n18 p0" transform="translate(-20.1562 17.1333)"><g class="a18 c2 node n15 p0" transform="translate(-17.8125 10.7061)"><g class="a15 leaf node n5 p0 sample" transform="translate(13.125 19.3293)"><path class="edge" d="M 0 0 V -19.3293 H -13.125" /><rect class="sym" height="6" width="6" x="-3" y="-3" /><text class="lab" transform="translate(0 11)">5</text></g><g class="a15 c2 node n12 p0" transform="translate(-13.125 10.0977)"><g class="a12 leaf node n8 p0 sample" transform="translate(11.25 9.23163)"><path class="edge" d="M 0 0 V -9.23163 H -11.25" /><rect class="sym" height="6" width="6" x="-3" y="-3" /><text class="lab" transform="translate(0 11)">8</text></g><g class="a12 c2 node n10 p0" transform="translate(-11.25 8.66209)"><g class="a10 leaf node n2 p0 sample" transform="translate(-7.5 0.569541)"><path class="edge" d="M 0 0 V -0.569541 H 7.5" /><rect class="sym" height="6" width="6" x="-3" y="-3" /><text class="lab" transform="translate(0 11)">2</text></g><g class="a10 leaf node n6 p0 sample" transform="translate(7.5 0.569541)"><path class="edge" d="M 0 0 V -0.569541 H -7.5" /><rect class="sym" height="6" width="6" x="-3" y="-3" /><text class="lab" transform="translate(0 11)">6</text></g><path class="edge" d="M 0 0 V -8.66209 H 11.25" /><circle class="sym" cx="0" cy="0" r="3" /><text class="lab lft" transform="translate(-3 -7.0)">10</text></g><path class="edge" d="M 0 0 V -10.0977 H 13.125" /><circle class="sym" cx="0" cy="0" r="3" /><text class="lab lft" transform="translate(-3 -7.0)">12</text></g><path class="edge" d="M 0 0 V -10.7061 H 17.8125" /><circle class="sym" cx="0" cy="0" r="3" /><text class="lab lft" transform="translate(-3 -7.0)">15</text></g><g class="a18 c2 node n17 p0" transform="translate(17.8125 5.75694)"><g class="a17 leaf node n9 p0 sample" transform="translate(7.5 24.2785)"><path class="edge" d="M 0 0 V -24.2785 H -7.5" /><rect class="sym" height="6" width="6" x="-3" y="-3" /><text class="lab" transform="translate(0 11)">9</text></g><g class="a17 c1 node n14 p0" transform="translate(-7.5 12.4383)"><g class="a14 leaf node n7 p0 sample" transform="translate(0.0 11.8402)"><path class="edge" d="M 0 0 V -11.8402 H 0.0" /><rect class="sym" height="6" width="6" x="-3" y="-3" /><text class="lab" transform="translate(0 11)">7</text></g><path class="edge" d="M 0 0 V -12.4383 H 7.5" /><circle class="sym" cx="0" cy="0" r="3" /><text class="lab lft" transform="translate(-3 -7.0)">14</text></g><path class="edge" d="M 0 0 V -5.75694 H -17.8125" /><circle class="sym" cx="0" cy="0" r="3" /><text class="lab rgt" transform="translate(3 -7.0)">17</text></g><path class="edge" d="M 0 0 V -17.1333 H 20.1562" /><circle class="sym" cx="0" cy="0" r="3" /><text class="lab lft" transform="translate(-3 -7.0)">18</text></g><g class="a23 c1 node n20 p0" transform="translate(20.1562 14.0824)"><g class="a20 leaf node n4 p0 sample" transform="translate(0.0 33.0863)"><path class="edge" d="M 0 0 V -33.0863 H 0.0" /><rect class="sym" height="6" width="6" x="-3" y="-3" /><text class="lab" transform="translate(0 11)">4</text></g><path class="edge" d="M 0 0 V -14.0824 H -20.1562" /><circle class="sym" cx="0" cy="0" r="3" /><text class="lab rgt" transform="translate(3 -7.0)">20</text></g><path class="edge" d="M 0 0 V -17.038 H 17.5781" /><circle class="sym" cx="0" cy="0" r="3" /><text class="lab lft" transform="translate(-3 -7.0)">23</text></g><path class="edge" d="M 0 0 V -30.3932 H -54.9609" /><circle class="sym" cx="0" cy="0" r="3" /><text class="lab rgt" transform="translate(3 -7.0)">24</text></g><g class="a27 c1 node n26 p0" transform="translate(-54.9609 6.24557)"><g class="a26 c1 node n21 p0" transform="translate(0.0 54.9603)"><g class="a21 c2 node n11 p0" transform="translate(0.0 25.5504)"><g class="a11 leaf node n0 p0 sample" transform="translate(-7.5 7.84373)"><path class="edge" d="M 0 0 V -7.84373 H 7.5" /><rect class="sym" height="6" width="6" x="-3" y="-3" /><text class="lab" transform="translate(0 11)">0</text></g><g class="a11 leaf node n1 p0 sample" transform="translate(7.5 7.84373)"><path class="edge" d="M 0 0 V -7.84373 H -7.5" /><rect class="sym" height="6" width="6" x="-3" y="-3" /><text class="lab" transform="translate(0 11)">1</text></g><path class="edge" d="M 0 0 V -25.5504 H 0.0" /><circle class="sym" cx="0" cy="0" r="3" /><text class="lab lft" transform="translate(-3 -7.0)">11</text></g><path class="edge" d="M 0 0 V -54.9603 H 0.0" /><circle class="sym" cx="0" cy="0" r="3" /><text class="lab lft" transform="translate(-3 -7.0)">21</text></g><path class="edge" d="M 0 0 V -6.24557 H 54.9609" /><circle class="sym" cx="0" cy="0" r="3" /><text class="lab lft" transform="translate(-3 -7.0)">26</text></g><circle class="sym" cx="0" cy="0" r="3" /><text class="lab" transform="translate(0 -11)">27</text></g></g></g><g class="tree t3" transform="translate(590 0)"><g class="plotbox"><g class="c2 node n27 p0 root" transform="translate(89.9609 26.8)"><g class="a27 c2 node n24 p0" transform="translate(54.9609 30.3932)"><g class="a24 c1 node n16 p0" transform="translate(17.5781 41.8152)"><g class="a16 leaf node n3 p0 sample" transform="translate(0.0 22.3915)"><path class="edge" d="M 0 0 V -22.3915 H 0.0" /><rect class="sym" height="6" width="6" x="-3" y="-3" /><text class="lab" transform="translate(0 11)">3</text></g><path class="edge" d="M 0 0 V -41.8152 H -17.5781" /><circle class="sym" cx="0" cy="0" r="3" /><text class="lab rgt" transform="translate(3 -7.0)">16</text></g><g class="a24 c2 node n23 p0" transform="translate(-17.5781 17.038)"><g class="a23 c2 node n18 p0" transform="translate(-20.1562 17.1333)"><g class="a18 c2 node n15 p0" transform="translate(-17.8125 10.7061)"><g class="a15 leaf node n5 p0 sample" transform="translate(13.125 19.3293)"><path class="edge" d="M 0 0 V -19.3293 H -13.125" /><rect class="sym" height="6" width="6" x="-3" y="-3" /><text class="lab" transform="translate(0 11)">5</text></g><g class="a15 c2 node n12 p0" transform="translate(-13.125 10.0977)"><g class="a12 leaf node n8 p0 sample" transform="translate(11.25 9.23163)"><path class="edge" d="M 0 0 V -9.23163 H -11.25" /><rect class="sym" height="6" width="6" x="-3" y="-3" /><text class="lab" transform="translate(0 11)">8</text></g><g class="a12 c2 node n10 p0" transform="translate(-11.25 8.66209)"><g class="a10 leaf node n2 p0 sample" transform="translate(-7.5 0.569541)"><path class="edge" d="M 0 0 V -0.569541 H 7.5" /><rect class="sym" height="6" width="6" x="-3" y="-3" /><text class="lab" transform="translate(0 11)">2</text></g><g class="a10 leaf node n6 p0 sample" transform="translate(7.5 0.569541)"><path class="edge" d="M 0 0 V -0.569541 H -7.5" /><rect class="sym" height="6" width="6" x="-3" y="-3" /><text class="lab" transform="translate(0 11)">6</text></g><path class="edge" d="M 0 0 V -8.66209 H 11.25" /><circle class="sym" cx="0" cy="0" r="3" /><text class="lab lft" transform="translate(-3 -7.0)">10</text></g><path class="edge" d="M 0 0 V -10.0977 H 13.125" /><circle class="sym" cx="0" cy="0" r="3" /><text class="lab lft" transform="translate(-3 -7.0)">12</text></g><path class="edge" d="M 0 0 V -10.7061 H 17.8125" /><circle class="sym" cx="0" cy="0" r="3" /><text class="lab lft" transform="translate(-3 -7.0)">15</text></g><g class="a18 c2 node n17 p0" transform="translate(17.8125 5.75694)"><g class="a17 leaf node n9 p0 sample" transform="translate(7.5 24.2785)"><path class="edge" d="M 0 0 V -24.2785 H -7.5" /><rect class="sym" height="6" width="6" x="-3" y="-3" /><text class="lab" transform="translate(0 11)">9</text></g><g class="a17 c1 node n14 p0" transform="translate(-7.5 12.4383)"><g class="a14 leaf node n7 p0 sample" transform="translate(0.0 11.8402)"><path class="edge" d="M 0 0 V -11.8402 H 0.0" /><rect class="sym" height="6" width="6" x="-3" y="-3" /><text class="lab" transform="translate(0 11)">7</text></g><path class="edge" d="M 0 0 V -12.4383 H 7.5" /><circle class="sym" cx="0" cy="0" r="3" /><text class="lab lft" transform="translate(-3 -7.0)">14</text></g><path class="edge" d="M 0 0 V -5.75694 H -17.8125" /><circle class="sym" cx="0" cy="0" r="3" /><text class="lab rgt" transform="translate(3 -7.0)">17</text></g><path class="edge" d="M 0 0 V -17.1333 H 20.1562" /><circle class="sym" cx="0" cy="0" r="3" /><text class="lab lft" transform="translate(-3 -7.0)">18</text></g><g class="a23 c1 node n20 p0" transform="translate(20.1562 14.0824)"><g class="a20 leaf node n4 p0 sample" transform="translate(0.0 33.0863)"><path class="edge" d="M 0 0 V -33.0863 H 0.0" /><rect class="sym" height="6" width="6" x="-3" y="-3" /><text class="lab" transform="translate(0 11)">4</text></g><path class="edge" d="M 0 0 V -14.0824 H -20.1562" /><circle class="sym" cx="0" cy="0" r="3" /><text class="lab rgt" transform="translate(3 -7.0)">20</text></g><path class="edge" d="M 0 0 V -17.038 H 17.5781" /><circle class="sym" cx="0" cy="0" r="3" /><text class="lab lft" transform="translate(-3 -7.0)">23</text></g><path class="edge" d="M 0 0 V -30.3932 H -54.9609" /><circle class="sym" cx="0" cy="0" r="3" /><text class="lab rgt" transform="translate(3 -7.0)">24</text></g><g class="a27 c1 node n26 p0" transform="translate(-54.9609 6.24557)"><g class="a26 c1 node n25 p0" transform="translate(0.0 11.1268)"><g class="a25 c1 node n22 p0" transform="translate(0.0 43.8334)"><g class="a22 c2 node n11 p0" transform="translate(0.0 25.5504)"><g class="a11 leaf node n0 p0 sample" transform="translate(-7.5 7.84373)"><path class="edge" d="M 0 0 V -7.84373 H 7.5" /><rect class="sym" height="6" width="6" x="-3" y="-3" /><text class="lab" transform="translate(0 11)">0</text></g><g class="a11 leaf node n1 p0 sample" transform="translate(7.5 7.84373)"><path class="edge" d="M 0 0 V -7.84373 H -7.5" /><rect class="sym" height="6" width="6" x="-3" y="-3" /><text class="lab" transform="translate(0 11)">1</text></g><path class="edge" d="M 0 0 V -25.5504 H 0.0" /><circle class="sym" cx="0" cy="0" r="3" /><text class="lab lft" transform="translate(-3 -7.0)">11</text></g><path class="edge" d="M 0 0 V -43.8334 H 0.0" /><circle class="sym" cx="0" cy="0" r="3" /><text class="lab lft" transform="translate(-3 -7.0)">22</text></g><path class="edge" d="M 0 0 V -11.1268 H 0.0" /><circle class="sym" cx="0" cy="0" r="3" /><text class="lab lft" transform="translate(-3 -7.0)">25</text></g><path class="edge" d="M 0 0 V -6.24557 H 54.9609" /><circle class="sym" cx="0" cy="0" r="3" /><text class="lab lft" transform="translate(-3 -7.0)">26</text></g><circle class="sym" cx="0" cy="0" r="3" /><text class="lab" transform="translate(0 -11)">27</text></g></g></g></g></g></svg>
