<svg baseProfile="full" height="200" version="1.1" width="600" xmlns="http://www.w3.org/2000/svg" xmlns:ev="http://www.w3.org/2001/xml-events" xmlns:xlink="http://www.w3.org/1999/xlink"><defs><style type="text/css"><![CDATA[.background path {fill: #808080; fill-opacity: 0}.background path:nth-child(odd) {fill-opacity: .1}.axes {font-size: 14px}.x-axis .tick .lab {font-weight: bold; dominant-baseline: hanging}.axes, .tree {font-size: 14px; text-anchor: middle}.axes line, .edge {stroke: black; fill: none}.y-axis .grid {stroke: #FAFAFA}.node > .sym {fill: black; stroke: none}.site > .sym {stroke: black}.mut text {fill: red; font-style: italic}.mut.extra text {fill: hotpink}.mut line {fill: none; stroke: none}.mut .sym {fill: none; stroke: red}.mut.extra .sym {stroke: hotpink}.node .mut .sym {stroke-width: 1.5px}.tree text, .tree-sequence text {dominant-baseline: central}.plotbox .lab.lft {text-anchor: end}.plotbox .lab.rgt {text-anchor: start}]]></style></defs><g class="tree-sequence"><g class="background"><path d="M20,0 l186.667,0 l0,138.2 l-155.16,25 l0,5 l-31.507,0 l0,-5 l0,-25 l0,-138.2z" /><path d="M206.667,0 l186.667,0 l0,138.2 l-56.5208,25 l0,5 l-285.306,0 l0,-5 l155.16,-25 l0,-138.2z" /><path d="M393.333,0 l186.667,0 l0,138.2 l0,25 l0,5 l-243.187,0 l0,-5 l56.5208,-25 l0,-138.2z" /></g><g class="axes"><g class="x-axis"><g transform="translate(300 200)"><text class="lab" text-anchor="middle" transform="translate(0 -11)">Genome position</text></g><line x1="20" x2="580" y1="163.2" y2="163.2" /><g class="ticks"><g class="tick" transform="translate(20 163.2)"><line x1="0" x2="0" y1="0" y2="5" /><g transform="translate(0 6)"><text class="lab">0.00</text></g></g><g class="tick" transform="translate(51.507 163.2)"><line x1="0" x2="0" y1="0" y2="5" /><g transform="translate(0 6)"><text class="lab">56.26</text></g></g><g class="tick" transform="translate(336.813 163.2)"><line x1="0" x2="0" y1="0" y2="5" /><g transform="translate(0 6)"><text class="lab">565.74</text></g></g><g class="tick" transform="translate(580 163.2)"><line x1="0" x2="0" y1="0" y2="5" /><g transform="translate(0 6)"><text class="lab">1000.00</text></g></g></g></g></g><g class="plotbox trees"><g class="tree t0" transform="translate(20 0)"><g class="plotbox"><g class="c2 node n24 p0 root" transform="translate(91.6146 26.8)"><g class="a24 c1 node n22 p0" transform="translate(-53.2812 17.9265)"><g class="a22 c2 node n21 p0" transform="translate(0.0 42.7055)"><g class="a21 leaf node n0 p0 sample" transform="translate(-11 33.9679)"><path class="edge" d="M 0 0 V -33.9679 H 11" /><rect class="sym" height="6" width="6" x="-3" y="-3" /><text class="lab" transform="translate(0 11)">0</text></g><g class="a21 c2 node n20 p0" transform="translate(11 0.583282)"><g class="a20 c1 node n13 p0" transform="translate(-7.33333 15.8644)"><g class="a13 leaf node n7 p0 sample" transform="translate(0.0 17.5202)"><path class="edge" d="M 0 0 V -17.5202 H 0.0" /><rect class="sym" height="6" width="6" x="-3" y="-3" /><text class="lab" transform="translate(0 11)">7</text></g><path class="edge" d="M 0 0 V -15.8644 H 7.33333" /><circle class="sym" cx="0" cy="0" r="3" /><text class="lab lft" transform="translate(-3 -7.0)">13</text></g><g class="a20 c1 node n19 p0" transform="translate(7.33333 5.65039)"><g class="a19 leaf node n9 p0 sample" transform="translate(0.0 27.7343)"><path class="edge" d="M 0 0 V -27.7343 H 0.0" /><rect class="sym" height="6" width="6" x="-3" y="-3" /><text class="lab" transform="translate(0 11)">9</text></g><path class="edge" d="M 0 0 V -5.65039 H -7.33333" /><circle class="sym" cx="0" cy="0" r="3" /><text class="lab rgt" transform="translate(3 -7.0)">19</text></g><path class="edge" d="M 0 0 V -0.583282 H -11" /><circle class="sym" cx="0" cy="0" r="3" /><text class="lab rgt" transform="translate(3 -7.0)">20</text></g><path class="edge" d="M 0 0 V -42.7055 H 0.0" /><circle class="sym" cx="0" cy="0" r="3" /><text class="lab lft" transform="translate(-3 -7.0)">21</text></g><path class="edge" d="M 0 0 V -17.9265 H 53.2812" /><circle class="sym" cx="0" cy="0" r="3" /><text class="lab lft" transform="translate(-3 -7.0)">22</text></g><g class="a24 c2 node n23 p0" transform="translate(53.2812 4.29309)"><g class="a23 leaf node n6 p0 sample" transform="translate(14.4375 90.3069)"><path class="edge" d="M 0 0 V -90.3069 H -14.4375" /><rect class="sym" height="6" width="6" x="-3" y="-3" /><text class="lab" transform="translate(0 11)">6</text></g><g class="a23 c1 node n17 p0" transform="translate(-14.4375 66.6823)"><g class="a17 c2 node n16 p0" transform="translate(0.0 3.83821)"><g class="a16 leaf node n2 p0 sample" transform="translate(14.2083 19.7864)"><path class="edge" d="M 0 0 V -19.7864 H -14.2083" /><rect class="sym" height="6" width="6" x="-3" y="-3" /><text class="lab" transform="translate(0 11)">2</text></g><g class="a16 c2 node n15 p0" transform="translate(-14.2083 0.813002)"><g class="a15 leaf node n8 p0 sample" transform="translate(13.75 18.9734)"><path class="edge" d="M 0 0 V -18.9734 H -13.75" /><rect class="sym" height="6" width="6" x="-3" y="-3" /><text class="lab" transform="translate(0 11)">8</text></g><g class="a15 c2 node n12 p0" transform="translate(-13.75 5.71048)"><g class="a12 leaf node n5 p0 sample" transform="translate(12.8333 13.2629)"><path class="edge" d="M 0 0 V -13.2629 H -12.8333" /><rect class="sym" height="6" width="6" x="-3" y="-3" /><text class="lab" transform="translate(0 11)">5</text></g><g class="a12 c2 node n11 p0" transform="translate(-12.8333 7.08778)"><g class="a11 leaf node n4 p0 sample" transform="translate(11 6.17512)"><path class="edge" d="M 0 0 V -6.17512 H -11" /><rect class="sym" height="6" width="6" x="-3" y="-3" /><text class="lab" transform="translate(0 11)">4</text></g><g class="a11 c2 node n10 p0" transform="translate(-11 4.22002)"><g class="a10 leaf node n1 p0 sample" transform="translate(-7.33333 1.9551)"><path class="edge" d="M 0 0 V -1.9551 H 7.33333" /><rect class="sym" height="6" width="6" x="-3" y="-3" /><text class="lab" transform="translate(0 11)">1</text></g><g class="a10 leaf node n3 p0 sample" transform="translate(7.33333 1.9551)"><path class="edge" d="M 0 0 V -1.9551 H -7.33333" /><rect class="sym" height="6" width="6" x="-3" y="-3" /><text class="lab" transform="translate(0 11)">3</text></g><path class="edge" d="M 0 0 V -4.22002 H 11" /><circle class="sym" cx="0" cy="0" r="3" /><text class="lab lft" transform="translate(-3 -7.0)">10</text></g><path class="edge" d="M 0 0 V -7.08778 H 12.8333" /><circle class="sym" cx="0" cy="0" r="3" /><text class="lab lft" transform="translate(-3 -7.0)">11</text></g><path class="edge" d="M 0 0 V -5.71048 H 13.75" /><circle class="sym" cx="0" cy="0" r="3" /><text class="lab lft" transform="translate(-3 -7.0)">12</text></g><path class="edge" d="M 0 0 V -0.813002 H 14.2083" /><circle class="sym" cx="0" cy="0" r="3" /><text class="lab lft" transform="translate(-3 -7.0)">15</text></g><path class="edge" d="M 0 0 V -3.83821 H 0.0" /><circle class="sym" cx="0" cy="0" r="3" /><text class="lab lft" transform="translate(-3 -7.0)">16</text></g><path class="edge" d="M 0 0 V -66.6823 H 14.4375" /><circle class="sym" cx="0" cy="0" r="3" /><text class="lab lft" transform="translate(-3 -7.0)">17</text></g><path class="edge" d="M 0 0 V -4.29309 H -53.2812" /><circle class="sym" cx="0" cy="0" r="3" /><text class="lab rgt" transform="translate(3 -7.0)">23</text></g><circle class="sym" cx="0" cy="0" r="3" /><text class="lab" transform="translate(0 -11)">24</text></g></g></g><g class="tree t1" transform="translate(206.667 0)"><g class="plotbox"><g class="c2 node n24 p0 root" transform="translate(121.865 26.8)"><g class="a24 c2 node n22 p0" transform="translate(-37.4688 17.9265)"><g class="a22 c2 node n21 p0" transform="translate(-46.0625 42.7055)"><g class="a21 leaf node n0 p0 sample" transform="translate(-11 33.9679)"><path class="edge" d="M 0 0 V -33.9679 H 11" /><rect class="sym" height="6" width="6" x="-3" y="-3" /><text class="lab" transform="translate(0 11)">0</text></g><g class="a21 c2 node n20 p0" transform="translate(11 0.583282)"><g class="a20 c1 node n13 p0" transform="translate(-7.33333 15.8644)"><g class="a13 leaf node n7 p0 sample" transform="translate(0.0 17.5202)"><path class="edge" d="M 0 0 V -17.5202 H 0.0" /><rect class="sym" height="6" width="6" x="-3" y="-3" /><text class="lab" transform="translate(0 11)">7</text></g><path class="edge" d="M 0 0 V -15.8644 H 7.33333" /><circle class="sym" cx="0" cy="0" r="3" /><text class="lab lft" transform="translate(-3 -7.0)">13</text></g><g class="a20 c1 node n19 p0" transform="translate(7.33333 5.65039)"><g class="a19 leaf node n9 p0 sample" transform="translate(0.0 27.7343)"><path class="edge" d="M 0 0 V -27.7343 H 0.0" /><rect class="sym" height="6" width="6" x="-3" y="-3" /><text class="lab" transform="translate(0 11)">9</text></g><path class="edge" d="M 0 0 V -5.65039 H -7.33333" /><circle class="sym" cx="0" cy="0" r="3" /><text class="lab rgt" transform="translate(3 -7.0)">19</text></g><path class="edge" d="M 0 0 V -0.583282 H -11" /><circle class="sym" cx="0" cy="0" r="3" /><text class="lab rgt" transform="translate(3 -7.0)">20</text></g><path class="edge" d="M 0 0 V -42.7055 H 46.0625" /><circle class="sym" cx="0" cy="0" r="3" /><text class="lab lft" transform="translate(-3 -7.0)">21</text></g><g class="a22 c1 node n18 p0" transform="translate(46.0625 53.0489)"><g class="a18 c2 node n16 p0" transform="translate(0.0 3.83821)"><g class="a16 leaf node n2 p0 sample" transform="translate(14.2083 19.7864)"><path class="edge" d="M 0 0 V -19.7864 H -14.2083" /><rect class="sym" height="6" width="6" x="-3" y="-3" /><text class="lab" transform="translate(0 11)">2</text></g><g class="a16 c2 node n15 p0" transform="translate(-14.2083 0.813002)"><g class="a15 leaf node n8 p0 sample" transform="translate(13.75 18.9734)"><path class="edge" d="M 0 0 V -18.9734 H -13.75" /><rect class="sym" height="6" width="6" x="-3" y="-3" /><text class="lab" transform="translate(0 11)">8</text></g><g class="a15 c2 node n12 p0" transform="translate(-13.75 5.71048)"><g class="a12 leaf node n5 p0 sample" transform="translate(12.8333 13.2629)"><path class="edge" d="M 0 0 V -13.2629 H -12.8333" /><rect class="sym" height="6" width="6" x="-3" y="-3" /><text class="lab" transform="translate(0 11)">5</text></g><g class="a12 c2 node n11 p0" transform="translate(-12.8333 7.08778)"><g class="a11 leaf node n4 p0 sample" transform="translate(11 6.17512)"><path class="edge" d="M 0 0 V -6.17512 H -11" /><rect class="sym" height="6" width="6" x="-3" y="-3" /><text class="lab" transform="translate(0 11)">4</text></g><g class="a11 c2 node n10 p0" transform="translate(-11 4.22002)"><g class="a10 leaf node n1 p0 sample" transform="translate(-7.33333 1.9551)"><path class="edge" d="M 0 0 V -1.9551 H 7.33333" /><rect class="sym" height="6" width="6" x="-3" y="-3" /><text class="lab" transform="translate(0 11)">1</text></g><g class="a10 leaf node n3 p0 sample" transform="translate(7.33333 1.9551)"><path class="edge" d="M 0 0 V -1.9551 H -7.33333" /><rect class="sym" height="6" width="6" x="-3" y="-3" /><text class="lab" transform="translate(0 11)">3</text></g><path class="edge" d="M 0 0 V -4.22002 H 11" /><circle class="sym" cx="0" cy="0" r="3" /><text class="lab lft" transform="translate(-3 -7.0)">10</text></g><path class="edge" d="M 0 0 V -7.08778 H 12.8333" /><circle class="sym" cx="0" cy="0" r="3" /><text class="lab lft" transform="translate(-3 -7.0)">11</text></g><path class="edge" d="M 0 0 V -5.71048 H 13.75" /><circle class="sym" cx="0" cy="0" r="3" /><text class="lab lft" transform="translate(-3 -7.0)">12</text></g><path class="edge" d="M 0 0 V -0.813002 H 14.2083" /><circle class="sym" cx="0" cy="0" r="3" /><text class="lab lft" transform="translate(-3 -7.0)">15</text></g><path class="edge" d="M 0 0 V -3.83821 H 0.0" /><circle class="sym" cx="0" cy="0" r="3" /><text class="lab lft" transform="translate(-3 -7.0)">16</text></g><path class="edge" d="M 0 0 V -53.0489 H -46.0625" /><circle class="sym" cx="0" cy="0" r="3" /><text class="lab rgt" transform="translate(3 -7.0)">18</text></g><path class="edge" d="M 0 0 V -17.9265 H 37.4688" /><circle class="sym" cx="0" cy="0" r="3" /><text class="lab lft" transform="translate(-3 -7.0)">22</text></g><g class="a24 c1 node n23 p0" transform="translate(37.4688 4.29309)"><g class="a23 leaf node n6 p0 sample" transform="translate(0.0 90.3069)"><path class="edge" d="M 0 0 V -90.3069 H 0.0" /><rect class="sym" height="6" width="6" x="-3" y="-3" /><text class="lab" transform="translate(0 11)">6</text></g><path class="edge" d="M 0 0 V -4.29309 H -37.4688" /><circle class="sym" cx="0" cy="0" r="3" /><text class="lab rgt" transform="translate(3 -7.0)">23</text></g><circle class="sym" cx="0" cy="0" r="3" /><text class="lab" transform="translate(0 -11)">24</text></g></g></g><g class="tree t2" transform="translate(393.333 0)"><g class="plotbox"><g class="c2 node n24 p0 root" transform="translate(121.865 26.8)"><g class="a24 c2 node n22 p0" transform="translate(-37.4688 17.9265)"><g class="a22 c2 node n21 p0" transform="translate(-46.0625 42.7055)"><g class="a21 leaf node n0 p0 sample" transform="translate(-11 33.9679)"><path class="edge" d="M 0 0 V -33.9679 H 11" /><rect class="sym" height="6" width="6" x="-3" y="-3" /><text class="lab" transform="translate(0 11)">0</text></g><g class="a21 c1 node n20 p0" transform="translate(11 0.583282)"><g class="a20 c2 node n19 p0" transform="translate(0.0 5.65039)"><g class="a19 leaf node n9 p0 sample" transform="translate(7.33333 27.7343)"><path class="edge" d="M 0 0 V -27.7343 H -7.33333" /><rect class="sym" height="6" width="6" x="-3" y="-3" /><text class="lab" transform="translate(0 11)">9</text></g><g class="a19 c1 node n14 p0" transform="translate(-7.33333 10.214)"><g class="a14 leaf node n7 p0 sample" transform="translate(0.0 17.5202)"><path class="edge" d="M 0 0 V -17.5202 H 0.0" /><rect class="sym" height="6" width="6" x="-3" y="-3" /><text class="lab" transform="translate(0 11)">7</text></g><path class="edge" d="M 0 0 V -10.214 H 7.33333" /><circle class="sym" cx="0" cy="0" r="3" /><text class="lab lft" transform="translate(-3 -7.0)">14</text></g><path class="edge" d="M 0 0 V -5.65039 H 0.0" /><circle class="sym" cx="0" cy="0" r="3" /><text class="lab lft" transform="translate(-3 -7.0)">19</text></g><path class="edge" d="M 0 0 V -0.583282 H -11" /><circle class="sym" cx="0" cy="0" r="3" /><text class="lab rgt" transform="translate(3 -7.0)">20</text></g><path class="edge" d="M 0 0 V -42.7055 H 46.0625" /><circle class="sym" cx="0" cy="0" r="3" /><text class="lab lft" transform="translate(-3 -7.0)">21</text></g><g class="a22 c1 node n18 p0" transform="translate(46.0625 53.0489)"><g class="a18 c2 node n16 p0" transform="translate(0.0 3.83821)"><g class="a16 leaf node n2 p0 sample" transform="translate(14.2083 19.7864)"><path class="edge" d="M 0 0 V -19.7864 H -14.2083" /><rect class="sym" height="6" width="6" x="-3" y="-3" /><text class="lab" transform="translate(0 11)">2</text></g><g class="a16 c2 node n15 p0" transform="translate(-14.2083 0.813002)"><g class="a15 leaf node n8 p0 sample" transform="translate(13.75 18.9734)"><path class="edge" d="M 0 0 V -18.9734 H -13.75" /><rect class="sym" height="6" width="6" x="-3" y="-3" /><text class="lab" transform="translate(0 11)">8</text></g><g class="a15 c2 node n12 p0" transform="translate(-13.75 5.71048)"><g class="a12 leaf node n5 p0 sample" transform="translate(12.8333 13.2629)"><path class="edge" d="M 0 0 V -13.2629 H -12.8333" /><rect class="sym" height="6" width="6" x="-3" y="-3" /><text class="lab" transform="translate(0 11)">5</text></g><g class="a12 c2 node n11 p0" transform="translate(-12.8333 7.08778)"><g class="a11 leaf node n4 p0 sample" transform="translate(11 6.17512)"><path class="edge" d="M 0 0 V -6.17512 H -11" /><rect class="sym" height="6" width="6" x="-3" y="-3" /><text class="lab" transform="translate(0 11)">4</text></g><g class="a11 c2 node n10 p0" transform="translate(-11 4.22002)"><g class="a10 leaf node n1 p0 sample" transform="translate(-7.33333 1.9551)"><path class="edge" d="M 0 0 V -1.9551 H 7.33333" /><rect class="sym" height="6" width="6" x="-3" y="-3" /><text class="lab" transform="translate(0 11)">1</text></g><g class="a10 leaf node n3 p0 sample" transform="translate(7.33333 1.9551)"><path class="edge" d="M 0 0 V -1.9551 H -7.33333" /><rect class="sym" height="6" width="6" x="-3" y="-3" /><text class="lab" transform="translate(0 11)">3</text></g><path class="edge" d="M 0 0 V -4.22002 H 11" /><circle class="sym" cx="0" cy="0" r="3" /><text class="lab lft" transform="translate(-3 -7.0)">10</text></g><path class="edge" d="M 0 0 V -7.08778 H 12.8333" /><circle class="sym" cx="0" cy="0" r="3" /><text class="lab lft" transform="translate(-3 -7.0)">11</text></g><path class="edge" d="M 0 0 V -5.71048 H 13.75" /><circle class="sym" cx="0" cy="0" r="3" /><text class="lab lft" transform="translate(-3 -7.0)">12</text></g><path class="edge" d="M 0 0 V -0.813002 H 14.2083" /><circle class="sym" cx="0" cy="0" r="3" /><text class="lab lft" transform="translate(-3 -7.0)">15</text></g><path class="edge" d="M 0 0 V -3.83821 H 0.0" /><circle class="sym" cx="0" cy="0" r="3" /><text class="lab lft" transform="translate(-3 -7.0)">16</text></g><path class="edge" d="M 0 0 V -53.0489 H -46.0625" /><circle class="sym" cx="0" cy="0" r="3" /><text class="lab rgt" transform="translate(3 -7.0)">18</text></g><path class="edge" d="M 0 0 V -17.9265 H 37.4688" /><circle class="sym" cx="0" cy="0" r="3" /><text class="lab lft" transform="translate(-3 -7.0)">22</text></g><g class="a24 c1 node n23 p0" transform="translate(37.4688 4.29309)"><g class="a23 leaf node n6 p0 sample" transform="translate(0.0 90.3069)"><path class="edge" d="M 0 0 V -90.3069 H 0.0" /><rect class="sym" height="6" width="6" x="-3" y="-3" /><text class="lab" transform="translate(0 11)">6</text></g><path class="edge" d="M 0 0 V -4.29309 H -37.4688" /><circle class="sym" cx="0" cy="0" r="3" /><text class="lab rgt" transform="translate(3 -7.0)">23</text></g><circle class="sym" cx="0" cy="0" r="3" /><text class="lab" transform="translate(0 -11)">24</text></g></g></g></g></g></svg>
