<svg baseProfile="full" height="200" version="1.1" width="1400" xmlns="http://www.w3.org/2000/svg" xmlns:ev="http://www.w3.org/2001/xml-events" xmlns:xlink="http://www.w3.org/1999/xlink"><defs><style type="text/css"><![CDATA[.background path {fill: #808080; fill-opacity: 0}.background path:nth-child(odd) {fill-opacity: .1}.axes {font-size: 14px}.x-axis .tick .lab {font-weight: bold; dominant-baseline: hanging}.axes, .tree {font-size: 14px; text-anchor: middle}.axes line, .edge {stroke: black; fill: none}.y-axis .grid {stroke: #FAFAFA}.node > .sym {fill: black; stroke: none}.site > .sym {stroke: black}.mut text {fill: red; font-style: italic}.mut.extra text {fill: hotpink}.mut line {fill: none; stroke: none}.mut .sym {fill: none; stroke: red}.mut.extra .sym {stroke: hotpink}.node .mut .sym {stroke-width: 1.5px}.tree text, .tree-sequence text {dominant-baseline: central}.plotbox .lab.lft {text-anchor: end}.plotbox .lab.rgt {text-anchor: start}]]></style></defs><g class="tree-sequence"><g class="background"><path d="M20,0 l194.286,0 l0,138.2 l139.813,25 l0,5 l-334.098,0 l0,-5 l0,-25 l0,-138.2z" /><path d="M214.286,0 l194.286,0 l0,138.2 l484.488,25 l0,5 l-538.961,0 l0,-5 l-139.813,-25 l0,-138.2z" /><path d="M408.571,0 l194.286,0 l0,138.2 l379.484,25 l0,5 l-89.2817,0 l0,-5 l-484.488,-25 l0,-138.2z" /><path d="M602.857,0 l194.286,0 l0,138.2 l239.752,25 l0,5 l-54.5541,0 l0,-5 l-379.484,-25 l0,-138.2z" /><path d="M797.143,0 l194.286,0 l0,138.2 l79.9194,25 l0,5 l-34.4532,0 l0,-5 l-239.752,-25 l0,-138.2z" /><path d="M991.429,0 l194.286,0 l0,138.2 l169.061,25 l0,5 l-283.428,0 l0,-5 l-79.9194,-25 l0,-138.2z" /><path d="M1185.71,0 l194.286,0 l0,138.2 l0,25 l0,5 l-25.2245,0 l0,-5 l-169.061,-25 l0,-138.2z" /></g><g class="axes"><g class="x-axis"><g transform="translate(700 200)"><text class="lab" text-anchor="middle" transform="translate(0 -11)">Genome position</text></g><line x1="20" x2="1380" y1="163.2" y2="163.2" /><g class="ticks"><g class="tick" transform="translate(20 163.2)"><line x1="0" x2="0" y1="0" y2="5" /><g transform="translate(0 6)"><text class="lab">0.00</text></g></g><g class="tick" transform="translate(354.098 163.2)"><line x1="0" x2="0" y1="0" y2="5" /><g transform="translate(0 6)"><text class="lab">245.66</text></g></g><g class="tick" transform="translate(893.059 163.2)"><line x1="0" x2="0" y1="0" y2="5" /><g transform="translate(0 6)"><text class="lab">641.96</text></g></g><g class="tick" transform="translate(982.341 163.2)"><line x1="0" x2="0" y1="0" y2="5" /><g transform="translate(0 6)"><text class="lab">707.60</text></g></g><g class="tick" transform="translate(1036.89 163.2)"><line x1="0" x2="0" y1="0" y2="5" /><g transform="translate(0 6)"><text class="lab">747.72</text></g></g><g class="tick" transform="translate(1071.35 163.2)"><line x1="0" x2="0" y1="0" y2="5" /><g transform="translate(0 6)"><text class="lab">773.05</text></g></g><g class="tick" transform="translate(1354.78 163.2)"><line x1="0" x2="0" y1="0" y2="5" /><g transform="translate(0 6)"><text class="lab">981.45</text></g></g><g class="tick" transform="translate(1380 163.2)"><line x1="0" x2="0" y1="0" y2="5" /><g transform="translate(0 6)"><text class="lab">1000.00</text></g></g></g></g></g><g class="plotbox trees"><g class="tree t0" transform="translate(20 0)"><g class="plotbox"><g class="c2 node n36 p0 root" transform="translate(130.049 26.8)"><g class="a36 c1 node n34 p0" transform="translate(-36.5223 19.0255)"><g class="a34 c2 node n22 p0" transform="translate(0.0 42.1828)"><g class="a22 c2 node n20 p0" transform="translate(46.0446 21.7904)"><g class="a20 c2 node n14 p0" transform="translate(-11.5714 10.4897)"><g class="a14 leaf node n4 p0 sample" transform="translate(7.71429 1.11152)"><path class="edge" d="M 0 0 V -1.11152 H -7.71429" /><rect class="sym" height="6" width="6" x="-3" y="-3" /><text class="lab" transform="translate(0 11)">4</text></g><g class="a14 c1 node n10 p0" transform="translate(-7.71429 0.766342)"><g class="a10 leaf node n1 p0 sample" transform="translate(0.0 0.345175)"><path class="edge" d="M 0 0 V -0.345175 H 0.0" /><rect class="sym" height="6" width="6" x="-3" y="-3" /><text class="lab" transform="translate(0 11)">1</text></g><path class="edge" d="M 0 0 V -0.766342 H 7.71429" /><circle class="sym" cx="0" cy="0" r="3" /><text class="lab lft" transform="translate(-3 -7.0)">10</text></g><path class="edge" d="M 0 0 V -10.4897 H 11.5714" /><circle class="sym" cx="0" cy="0" r="3" /><text class="lab lft" transform="translate(-3 -7.0)">14</text></g><g class="a20 c1 node n17 p0" transform="translate(11.5714 4.80576)"><g class="a17 leaf node n8 p0 sample" transform="translate(0.0 6.79548)"><path class="edge" d="M 0 0 V -6.79548 H 0.0" /><rect class="sym" height="6" width="6" x="-3" y="-3" /><text class="lab" transform="translate(0 11)">8</text></g><path class="edge" d="M 0 0 V -4.80576 H -11.5714" /><circle class="sym" cx="0" cy="0" r="3" /><text class="lab rgt" transform="translate(3 -7.0)">17</text></g><path class="edge" d="M 0 0 V -21.7904 H -46.0446" /><circle class="sym" cx="0" cy="0" r="3" /><text class="lab rgt" transform="translate(3 -7.0)">20</text></g><g class="a22 c1 node n21 p0" transform="translate(-46.0446 18.3524)"><g class="a21 c2 node n19 p0" transform="translate(0.0 5.24216)"><g class="a19 leaf node n0 p0 sample" transform="translate(-19.7679 9.79709)"><path class="edge" d="M 0 0 V -9.79709 H 19.7679" /><rect class="sym" height="6" width="6" x="-3" y="-3" /><text class="lab" transform="translate(0 11)">0</text></g><g class="a19 c2 node n16 p0" transform="translate(19.7679 6.10965)"><g class="a16 leaf node n2 p0 sample" transform="translate(-24.1071 3.68743)"><path class="edge" d="M 0 0 V -3.68743 H 24.1071" /><rect class="sym" height="6" width="6" x="-3" y="-3" /><text class="lab" transform="translate(0 11)">2</text></g><g class="a16 c2 node n15 p0" transform="translate(24.1071 1.0801)"><g class="a15 leaf node n5 p0 sample" transform="translate(13.5 2.60733)"><path class="edge" d="M 0 0 V -2.60733 H -13.5" /><rect class="sym" height="6" width="6" x="-3" y="-3" /><text class="lab" transform="translate(0 11)">5</text></g><g class="a15 c2 node n13 p0" transform="translate(-13.5 1.61466)"><g class="a13 leaf node n7 p0 sample" transform="translate(11.5714 0.992672)"><path class="edge" d="M 0 0 V -0.992672 H -11.5714" /><rect class="sym" height="6" width="6" x="-3" y="-3" /><text class="lab" transform="translate(0 11)">7</text></g><g class="a13 c2 node n12 p0" transform="translate(-11.5714 0.133263)"><g class="a12 leaf node n3 p0 sample" transform="translate(-7.71429 0.859409)"><path class="edge" d="M 0 0 V -0.859409 H 7.71429" /><rect class="sym" height="6" width="6" x="-3" y="-3" /><text class="lab" transform="translate(0 11)">3</text></g><g class="a12 leaf node n9 p0 sample" transform="translate(7.71429 0.859409)"><path class="edge" d="M 0 0 V -0.859409 H -7.71429" /><rect class="sym" height="6" width="6" x="-3" y="-3" /><text class="lab" transform="translate(0 11)">9</text></g><path class="edge" d="M 0 0 V -0.133263 H 11.5714" /><circle class="sym" cx="0" cy="0" r="3" /><text class="lab lft" transform="translate(-3 -7.0)">12</text></g><path class="edge" d="M 0 0 V -1.61466 H 13.5" /><circle class="sym" cx="0" cy="0" r="3" /><text class="lab lft" transform="translate(-3 -7.0)">13</text></g><path class="edge" d="M 0 0 V -1.0801 H -24.1071" /><circle class="sym" cx="0" cy="0" r="3" /><text class="lab rgt" transform="translate(3 -7.0)">15</text></g><path class="edge" d="M 0 0 V -6.10965 H -19.7679" /><circle class="sym" cx="0" cy="0" r="3" /><text class="lab rgt" transform="translate(3 -7.0)">16</text></g><path class="edge" d="M 0 0 V -5.24216 H 0.0" /><circle class="sym" cx="0" cy="0" r="3" /><text class="lab lft" transform="translate(-3 -7.0)">19</text></g><path class="edge" d="M 0 0 V -18.3524 H 46.0446" /><circle class="sym" cx="0" cy="0" r="3" /><text class="lab lft" transform="translate(-3 -7.0)">21</text></g><path class="edge" d="M 0 0 V -42.1828 H 0.0" /><circle class="sym" cx="0" cy="0" r="3" /><text class="lab lft" transform="translate(-3 -7.0)">22</text></g><path class="edge" d="M 0 0 V -19.0255 H 36.5223" /><circle class="sym" cx="0" cy="0" r="3" /><text class="lab lft" transform="translate(-3 -7.0)">34</text></g><g class="a36 c1 node n35 p0" transform="translate(36.5223 3.16891)"><g class="a35 c1 node n31 p0" transform="translate(0.0 28.385)"><g class="a31 c1 node n25 p0" transform="translate(0.0 17.5588)"><g class="a25 leaf node n6 p0 sample" transform="translate(0.0 45.4873)"><path class="edge" d="M 0 0 V -45.4873 H 0.0" /><rect class="sym" height="6" width="6" x="-3" y="-3" /><text class="lab" transform="translate(0 11)">6</text></g><path class="edge" d="M 0 0 V -17.5588 H 0.0" /><circle class="sym" cx="0" cy="0" r="3" /><text class="lab lft" transform="translate(-3 -7.0)">25</text></g><path class="edge" d="M 0 0 V -28.385 H 0.0" /><circle class="sym" cx="0" cy="0" r="3" /><text class="lab lft" transform="translate(-3 -7.0)">31</text></g><path class="edge" d="M 0 0 V -3.16891 H -36.5223" /><circle class="sym" cx="0" cy="0" r="3" /><text class="lab rgt" transform="translate(3 -7.0)">35</text></g><circle class="sym" cx="0" cy="0" r="3" /><text class="lab" transform="translate(0 -11)">36</text></g></g></g><g class="tree t1" transform="translate(214.286 0)"><g class="plotbox"><g class="c2 node n36 p0 root" transform="translate(130.049 26.8)"><g class="a36 c1 node n34 p0" transform="translate(-36.5223 19.0255)"><g class="a34 c2 node n22 p0" transform="translate(0.0 42.1828)"><g class="a22 c2 node n20 p0" transform="translate(46.0446 21.7904)"><g class="a20 c2 node n14 p0" transform="translate(-11.5714 10.4897)"><g class="a14 leaf node n4 p0 sample" transform="translate(7.71429 1.11152)"><path class="edge" d="M 0 0 V -1.11152 H -7.71429" /><rect class="sym" height="6" width="6" x="-3" y="-3" /><text class="lab" transform="translate(0 11)">4</text></g><g class="a14 c1 node n10 p0" transform="translate(-7.71429 0.766342)"><g class="a10 leaf node n1 p0 sample" transform="translate(0.0 0.345175)"><path class="edge" d="M 0 0 V -0.345175 H 0.0" /><rect class="sym" height="6" width="6" x="-3" y="-3" /><text class="lab" transform="translate(0 11)">1</text></g><path class="edge" d="M 0 0 V -0.766342 H 7.71429" /><circle class="sym" cx="0" cy="0" r="3" /><text class="lab lft" transform="translate(-3 -7.0)">10</text></g><path class="edge" d="M 0 0 V -10.4897 H 11.5714" /><circle class="sym" cx="0" cy="0" r="3" /><text class="lab lft" transform="translate(-3 -7.0)">14</text></g><g class="a20 c1 node n17 p0" transform="translate(11.5714 4.80576)"><g class="a17 leaf node n8 p0 sample" transform="translate(0.0 6.79548)"><path class="edge" d="M 0 0 V -6.79548 H 0.0" /><rect class="sym" height="6" width="6" x="-3" y="-3" /><text class="lab" transform="translate(0 11)">8</text></g><path class="edge" d="M 0 0 V -4.80576 H -11.5714" /><circle class="sym" cx="0" cy="0" r="3" /><text class="lab rgt" transform="translate(3 -7.0)">17</text></g><path class="edge" d="M 0 0 V -21.7904 H -46.0446" /><circle class="sym" cx="0" cy="0" r="3" /><text class="lab rgt" transform="translate(3 -7.0)">20</text></g><g class="a22 c1 node n21 p0" transform="translate(-46.0446 18.3524)"><g class="a21 c2 node n19 p0" transform="translate(0.0 5.24216)"><g class="a19 leaf node n0 p0 sample" transform="translate(-19.7679 9.79709)"><path class="edge" d="M 0 0 V -9.79709 H 19.7679" /><rect class="sym" height="6" width="6" x="-3" y="-3" /><text class="lab" transform="translate(0 11)">0</text></g><g class="a19 c2 node n16 p0" transform="translate(19.7679 6.10965)"><g class="a16 leaf node n2 p0 sample" transform="translate(-24.1071 3.68743)"><path class="edge" d="M 0 0 V -3.68743 H 24.1071" /><rect class="sym" height="6" width="6" x="-3" y="-3" /><text class="lab" transform="translate(0 11)">2</text></g><g class="a16 c2 node n15 p0" transform="translate(24.1071 1.0801)"><g class="a15 leaf node n5 p0 sample" transform="translate(13.5 2.60733)"><path class="edge" d="M 0 0 V -2.60733 H -13.5" /><rect class="sym" height="6" width="6" x="-3" y="-3" /><text class="lab" transform="translate(0 11)">5</text></g><g class="a15 c2 node n13 p0" transform="translate(-13.5 1.61466)"><g class="a13 leaf node n7 p0 sample" transform="translate(11.5714 0.992672)"><path class="edge" d="M 0 0 V -0.992672 H -11.5714" /><rect class="sym" height="6" width="6" x="-3" y="-3" /><text class="lab" transform="translate(0 11)">7</text></g><g class="a13 c2 node n12 p0" transform="translate(-11.5714 0.133263)"><g class="a12 leaf node n3 p0 sample" transform="translate(-7.71429 0.859409)"><path class="edge" d="M 0 0 V -0.859409 H 7.71429" /><rect class="sym" height="6" width="6" x="-3" y="-3" /><text class="lab" transform="translate(0 11)">3</text></g><g class="a12 leaf node n9 p0 sample" transform="translate(7.71429 0.859409)"><path class="edge" d="M 0 0 V -0.859409 H -7.71429" /><rect class="sym" height="6" width="6" x="-3" y="-3" /><text class="lab" transform="translate(0 11)">9</text></g><path class="edge" d="M 0 0 V -0.133263 H 11.5714" /><circle class="sym" cx="0" cy="0" r="3" /><text class="lab lft" transform="translate(-3 -7.0)">12</text></g><path class="edge" d="M 0 0 V -1.61466 H 13.5" /><circle class="sym" cx="0" cy="0" r="3" /><text class="lab lft" transform="translate(-3 -7.0)">13</text></g><path class="edge" d="M 0 0 V -1.0801 H -24.1071" /><circle class="sym" cx="0" cy="0" r="3" /><text class="lab rgt" transform="translate(3 -7.0)">15</text></g><path class="edge" d="M 0 0 V -6.10965 H -19.7679" /><circle class="sym" cx="0" cy="0" r="3" /><text class="lab rgt" transform="translate(3 -7.0)">16</text></g><path class="edge" d="M 0 0 V -5.24216 H 0.0" /><circle class="sym" cx="0" cy="0" r="3" /><text class="lab lft" transform="translate(-3 -7.0)">19</text></g><path class="edge" d="M 0 0 V -18.3524 H 46.0446" /><circle class="sym" cx="0" cy="0" r="3" /><text class="lab lft" transform="translate(-3 -7.0)">21</text></g><path class="edge" d="M 0 0 V -42.1828 H 0.0" /><circle class="sym" cx="0" cy="0" r="3" /><text class="lab lft" transform="translate(-3 -7.0)">22</text></g><path class="edge" d="M 0 0 V -19.0255 H 36.5223" /><circle class="sym" cx="0" cy="0" r="3" /><text class="lab lft" transform="translate(-3 -7.0)">34</text></g><g class="a36 c1 node n35 p0" transform="translate(36.5223 3.16891)"><g class="a35 c1 node n33 p0" transform="translate(0.0 24.0442)"><g class="a33 c1 node n32 p0" transform="translate(0.0 4.34085)"><g class="a32 c1 node n25 p0" transform="translate(0.0 17.5588)"><g class="a25 leaf node n6 p0 sample" transform="translate(0.0 45.4873)"><path class="edge" d="M 0 0 V -45.4873 H 0.0" /><rect class="sym" height="6" width="6" x="-3" y="-3" /><text class="lab" transform="translate(0 11)">6</text></g><path class="edge" d="M 0 0 V -17.5588 H 0.0" /><circle class="sym" cx="0" cy="0" r="3" /><text class="lab lft" transform="translate(-3 -7.0)">25</text></g><path class="edge" d="M 0 0 V -4.34085 H 0.0" /><circle class="sym" cx="0" cy="0" r="3" /><text class="lab lft" transform="translate(-3 -7.0)">32</text></g><path class="edge" d="M 0 0 V -24.0442 H 0.0" /><circle class="sym" cx="0" cy="0" r="3" /><text class="lab lft" transform="translate(-3 -7.0)">33</text></g><path class="edge" d="M 0 0 V -3.16891 H -36.5223" /><circle class="sym" cx="0" cy="0" r="3" /><text class="lab rgt" transform="translate(3 -7.0)">35</text></g><circle class="sym" cx="0" cy="0" r="3" /><text class="lab" transform="translate(0 -11)">36</text></g></g></g><g class="tree t2" transform="translate(408.571 0)"><g class="plotbox"><g class="c2 node n36 p0 root" transform="translate(130.049 26.8)"><g class="a36 c1 node n34 p0" transform="translate(-36.5223 19.0255)"><g class="a34 c2 node n22 p0" transform="translate(0.0 42.1828)"><g class="a22 c2 node n20 p0" transform="translate(46.0446 21.7904)"><g class="a20 c2 node n14 p0" transform="translate(-11.5714 10.4897)"><g class="a14 leaf node n4 p0 sample" transform="translate(7.71429 1.11152)"><path class="edge" d="M 0 0 V -1.11152 H -7.71429" /><rect class="sym" height="6" width="6" x="-3" y="-3" /><text class="lab" transform="translate(0 11)">4</text></g><g class="a14 c1 node n10 p0" transform="translate(-7.71429 0.766342)"><g class="a10 leaf node n1 p0 sample" transform="translate(0.0 0.345175)"><path class="edge" d="M 0 0 V -0.345175 H 0.0" /><rect class="sym" height="6" width="6" x="-3" y="-3" /><text class="lab" transform="translate(0 11)">1</text></g><path class="edge" d="M 0 0 V -0.766342 H 7.71429" /><circle class="sym" cx="0" cy="0" r="3" /><text class="lab lft" transform="translate(-3 -7.0)">10</text></g><path class="edge" d="M 0 0 V -10.4897 H 11.5714" /><circle class="sym" cx="0" cy="0" r="3" /><text class="lab lft" transform="translate(-3 -7.0)">14</text></g><g class="a20 c1 node n17 p0" transform="translate(11.5714 4.80576)"><g class="a17 leaf node n8 p0 sample" transform="translate(0.0 6.79548)"><path class="edge" d="M 0 0 V -6.79548 H 0.0" /><rect class="sym" height="6" width="6" x="-3" y="-3" /><text class="lab" transform="translate(0 11)">8</text></g><path class="edge" d="M 0 0 V -4.80576 H -11.5714" /><circle class="sym" cx="0" cy="0" r="3" /><text class="lab rgt" transform="translate(3 -7.0)">17</text></g><path class="edge" d="M 0 0 V -21.7904 H -46.0446" /><circle class="sym" cx="0" cy="0" r="3" /><text class="lab rgt" transform="translate(3 -7.0)">20</text></g><g class="a22 c1 node n21 p0" transform="translate(-46.0446 18.3524)"><g class="a21 c2 node n19 p0" transform="translate(0.0 5.24216)"><g class="a19 leaf node n0 p0 sample" transform="translate(-19.7679 9.79709)"><path class="edge" d="M 0 0 V -9.79709 H 19.7679" /><rect class="sym" height="6" width="6" x="-3" y="-3" /><text class="lab" transform="translate(0 11)">0</text></g><g class="a19 c2 node n16 p0" transform="translate(19.7679 6.10965)"><g class="a16 leaf node n2 p0 sample" transform="translate(-24.1071 3.68743)"><path class="edge" d="M 0 0 V -3.68743 H 24.1071" /><rect class="sym" height="6" width="6" x="-3" y="-3" /><text class="lab" transform="translate(0 11)">2</text></g><g class="a16 c2 node n15 p0" transform="translate(24.1071 1.0801)"><g class="a15 leaf node n5 p0 sample" transform="translate(13.5 2.60733)"><path class="edge" d="M 0 0 V -2.60733 H -13.5" /><rect class="sym" height="6" width="6" x="-3" y="-3" /><text class="lab" transform="translate(0 11)">5</text></g><g class="a15 c2 node n13 p0" transform="translate(-13.5 1.61466)"><g class="a13 leaf node n7 p0 sample" transform="translate(11.5714 0.992672)"><path class="edge" d="M 0 0 V -0.992672 H -11.5714" /><rect class="sym" height="6" width="6" x="-3" y="-3" /><text class="lab" transform="translate(0 11)">7</text></g><g class="a13 c2 node n12 p0" transform="translate(-11.5714 0.133263)"><g class="a12 leaf node n3 p0 sample" transform="translate(-7.71429 0.859409)"><path class="edge" d="M 0 0 V -0.859409 H 7.71429" /><rect class="sym" height="6" width="6" x="-3" y="-3" /><text class="lab" transform="translate(0 11)">3</text></g><g class="a12 leaf node n9 p0 sample" transform="translate(7.71429 0.859409)"><path class="edge" d="M 0 0 V -0.859409 H -7.71429" /><rect class="sym" height="6" width="6" x="-3" y="-3" /><text class="lab" transform="translate(0 11)">9</text></g><path class="edge" d="M 0 0 V -0.133263 H 11.5714" /><circle class="sym" cx="0" cy="0" r="3" /><text class="lab lft" transform="translate(-3 -7.0)">12</text></g><path class="edge" d="M 0 0 V -1.61466 H 13.5" /><circle class="sym" cx="0" cy="0" r="3" /><text class="lab lft" transform="translate(-3 -7.0)">13</text></g><path class="edge" d="M 0 0 V -1.0801 H -24.1071" /><circle class="sym" cx="0" cy="0" r="3" /><text class="lab rgt" transform="translate(3 -7.0)">15</text></g><path class="edge" d="M 0 0 V -6.10965 H -19.7679" /><circle class="sym" cx="0" cy="0" r="3" /><text class="lab rgt" transform="translate(3 -7.0)">16</text></g><path class="edge" d="M 0 0 V -5.24216 H 0.0" /><circle class="sym" cx="0" cy="0" r="3" /><text class="lab lft" transform="translate(-3 -7.0)">19</text></g><path class="edge" d="M 0 0 V -18.3524 H 46.0446" /><circle class="sym" cx="0" cy="0" r="3" /><text class="lab lft" transform="translate(-3 -7.0)">21</text></g><path class="edge" d="M 0 0 V -42.1828 H 0.0" /><circle class="sym" cx="0" cy="0" r="3" /><text class="lab lft" transform="translate(-3 -7.0)">22</text></g><path class="edge" d="M 0 0 V -19.0255 H 36.5223" /><circle class="sym" cx="0" cy="0" r="3" /><text class="lab lft" transform="translate(-3 -7.0)">34</text></g><g class="a36 c1 node n35 p0" transform="translate(36.5223 3.16891)"><g class="a35 c1 node n33 p0" transform="translate(0.0 24.0442)"><g class="a33 c1 node n26 p0" transform="translate(0.0 21.8996)"><g class="a26 leaf node n6 p0 sample" transform="translate(0.0 45.4873)"><path class="edge" d="M 0 0 V -45.4873 H 0.0" /><rect class="sym" height="6" width="6" x="-3" y="-3" /><text class="lab" transform="translate(0 11)">6</text></g><path class="edge" d="M 0 0 V -21.8996 H 0.0" /><circle class="sym" cx="0" cy="0" r="3" /><text class="lab lft" transform="translate(-3 -7.0)">26</text></g><path class="edge" d="M 0 0 V -24.0442 H 0.0" /><circle class="sym" cx="0" cy="0" r="3" /><text class="lab lft" transform="translate(-3 -7.0)">33</text></g><path class="edge" d="M 0 0 V -3.16891 H -36.5223" /><circle class="sym" cx="0" cy="0" r="3" /><text class="lab rgt" transform="translate(3 -7.0)">35</text></g><circle class="sym" cx="0" cy="0" r="3" /><text class="lab" transform="translate(0 -11)">36</text></g></g></g><g class="tree t3" transform="translate(602.857 0)"><g class="plotbox"><g class="c2 node n36 p0 root" transform="translate(140.114 26.8)"><g class="a36 c1 node n34 p0" transform="translate(-26.4576 19.0255)"><g class="a34 c2 node n22 p0" transform="translate(0.0 42.1828)"><g class="a22 c1 node n20 p0" transform="translate(29.7723 21.7904)"><g class="a20 c2 node n14 p0" transform="translate(0.0 10.4897)"><g class="a14 leaf node n4 p0 sample" transform="translate(7.71429 1.11152)"><path class="edge" d="M 0 0 V -1.11152 H -7.71429" /><rect class="sym" height="6" width="6" x="-3" y="-3" /><text class="lab" transform="translate(0 11)">4</text></g><g class="a14 c1 node n10 p0" transform="translate(-7.71429 0.766342)"><g class="a10 leaf node n1 p0 sample" transform="translate(0.0 0.345175)"><path class="edge" d="M 0 0 V -0.345175 H 0.0" /><rect class="sym" height="6" width="6" x="-3" y="-3" /><text class="lab" transform="translate(0 11)">1</text></g><path class="edge" d="M 0 0 V -0.766342 H 7.71429" /><circle class="sym" cx="0" cy="0" r="3" /><text class="lab lft" transform="translate(-3 -7.0)">10</text></g><path class="edge" d="M 0 0 V -10.4897 H 0.0" /><circle class="sym" cx="0" cy="0" r="3" /><text class="lab lft" transform="translate(-3 -7.0)">14</text></g><path class="edge" d="M 0 0 V -21.7904 H -29.7723" /><circle class="sym" cx="0" cy="0" r="3" /><text class="lab rgt" transform="translate(3 -7.0)">20</text></g><g class="a22 c2 node n21 p0" transform="translate(-29.7723 18.3524)"><g class="a21 c2 node n19 p0" transform="translate(-36.4018 5.24216)"><g class="a19 leaf node n0 p0 sample" transform="translate(-19.7679 9.79709)"><path class="edge" d="M 0 0 V -9.79709 H 19.7679" /><rect class="sym" height="6" width="6" x="-3" y="-3" /><text class="lab" transform="translate(0 11)">0</text></g><g class="a19 c2 node n16 p0" transform="translate(19.7679 6.10965)"><g class="a16 leaf node n2 p0 sample" transform="translate(-24.1071 3.68743)"><path class="edge" d="M 0 0 V -3.68743 H 24.1071" /><rect class="sym" height="6" width="6" x="-3" y="-3" /><text class="lab" transform="translate(0 11)">2</text></g><g class="a16 c2 node n15 p0" transform="translate(24.1071 1.0801)"><g class="a15 leaf node n5 p0 sample" transform="translate(13.5 2.60733)"><path class="edge" d="M 0 0 V -2.60733 H -13.5" /><rect class="sym" height="6" width="6" x="-3" y="-3" /><text class="lab" transform="translate(0 11)">5</text></g><g class="a15 c2 node n13 p0" transform="translate(-13.5 1.61466)"><g class="a13 leaf node n7 p0 sample" transform="translate(11.5714 0.992672)"><path class="edge" d="M 0 0 V -0.992672 H -11.5714" /><rect class="sym" height="6" width="6" x="-3" y="-3" /><text class="lab" transform="translate(0 11)">7</text></g><g class="a13 c2 node n12 p0" transform="translate(-11.5714 0.133263)"><g class="a12 leaf node n3 p0 sample" transform="translate(-7.71429 0.859409)"><path class="edge" d="M 0 0 V -0.859409 H 7.71429" /><rect class="sym" height="6" width="6" x="-3" y="-3" /><text class="lab" transform="translate(0 11)">3</text></g><g class="a12 leaf node n9 p0 sample" transform="translate(7.71429 0.859409)"><path class="edge" d="M 0 0 V -0.859409 H -7.71429" /><rect class="sym" height="6" width="6" x="-3" y="-3" /><text class="lab" transform="translate(0 11)">9</text></g><path class="edge" d="M 0 0 V -0.133263 H 11.5714" /><circle class="sym" cx="0" cy="0" r="3" /><text class="lab lft" transform="translate(-3 -7.0)">12</text></g><path class="edge" d="M 0 0 V -1.61466 H 13.5" /><circle class="sym" cx="0" cy="0" r="3" /><text class="lab lft" transform="translate(-3 -7.0)">13</text></g><path class="edge" d="M 0 0 V -1.0801 H -24.1071" /><circle class="sym" cx="0" cy="0" r="3" /><text class="lab rgt" transform="translate(3 -7.0)">15</text></g><path class="edge" d="M 0 0 V -6.10965 H -19.7679" /><circle class="sym" cx="0" cy="0" r="3" /><text class="lab rgt" transform="translate(3 -7.0)">16</text></g><path class="edge" d="M 0 0 V -5.24216 H 36.4018" /><circle class="sym" cx="0" cy="0" r="3" /><text class="lab lft" transform="translate(-3 -7.0)">19</text></g><g class="a21 c1 node n18 p0" transform="translate(36.4018 8.24376)"><g class="a18 leaf node n8 p0 sample" transform="translate(0.0 6.79548)"><path class="edge" d="M 0 0 V -6.79548 H 0.0" /><rect class="sym" height="6" width="6" x="-3" y="-3" /><text class="lab" transform="translate(0 11)">8</text></g><path class="edge" d="M 0 0 V -8.24376 H -36.4018" /><circle class="sym" cx="0" cy="0" r="3" /><text class="lab rgt" transform="translate(3 -7.0)">18</text></g><path class="edge" d="M 0 0 V -18.3524 H 29.7723" /><circle class="sym" cx="0" cy="0" r="3" /><text class="lab lft" transform="translate(-3 -7.0)">21</text></g><path class="edge" d="M 0 0 V -42.1828 H 0.0" /><circle class="sym" cx="0" cy="0" r="3" /><text class="lab lft" transform="translate(-3 -7.0)">22</text></g><path class="edge" d="M 0 0 V -19.0255 H 26.4576" /><circle class="sym" cx="0" cy="0" r="3" /><text class="lab lft" transform="translate(-3 -7.0)">34</text></g><g class="a36 c1 node n35 p0" transform="translate(26.4576 3.16891)"><g class="a35 c1 node n33 p0" transform="translate(0.0 24.0442)"><g class="a33 c1 node n26 p0" transform="translate(0.0 21.8996)"><g class="a26 leaf node n6 p0 sample" transform="translate(0.0 45.4873)"><path class="edge" d="M 0 0 V -45.4873 H 0.0" /><rect class="sym" height="6" width="6" x="-3" y="-3" /><text class="lab" transform="translate(0 11)">6</text></g><path class="edge" d="M 0 0 V -21.8996 H 0.0" /><circle class="sym" cx="0" cy="0" r="3" /><text class="lab lft" transform="translate(-3 -7.0)">26</text></g><path class="edge" d="M 0 0 V -24.0442 H 0.0" /><circle class="sym" cx="0" cy="0" r="3" /><text class="lab lft" transform="translate(-3 -7.0)">33</text></g><path class="edge" d="M 0 0 V -3.16891 H -26.4576" /><circle class="sym" cx="0" cy="0" r="3" /><text class="lab rgt" transform="translate(3 -7.0)">35</text></g><circle class="sym" cx="0" cy="0" r="3" /><text class="lab" transform="translate(0 -11)">36</text></g></g></g><g class="tree t4" transform="translate(797.143 0)"><g class="plotbox"><g class="c2 node n36 p0 root" transform="translate(148.521 26.8)"><g class="a36 c2 node n34 p0" transform="translate(-18.0502 19.0255)"><g class="a34 c2 node n22 p0" transform="translate(-20.6719 42.1828)"><g class="a22 c1 node n20 p0" transform="translate(25.9152 21.7904)"><g class="a20 c1 node n14 p0" transform="translate(0.0 10.4897)"><g class="a14 leaf node n4 p0 sample" transform="translate(0.0 1.11152)"><path class="edge" d="M 0 0 V -1.11152 H 0.0" /><rect class="sym" height="6" width="6" x="-3" y="-3" /><text class="lab" transform="translate(0 11)">4</text></g><path class="edge" d="M 0 0 V -10.4897 H 0.0" /><circle class="sym" cx="0" cy="0" r="3" /><text class="lab lft" transform="translate(-3 -7.0)">14</text></g><path class="edge" d="M 0 0 V -21.7904 H -25.9152" /><circle class="sym" cx="0" cy="0" r="3" /><text class="lab rgt" transform="translate(3 -7.0)">20</text></g><g class="a22 c2 node n21 p0" transform="translate(-25.9152 18.3524)"><g class="a21 c2 node n19 p0" transform="translate(-36.4018 5.24216)"><g class="a19 leaf node n0 p0 sample" transform="translate(-19.7679 9.79709)"><path class="edge" d="M 0 0 V -9.79709 H 19.7679" /><rect class="sym" height="6" width="6" x="-3" y="-3" /><text class="lab" transform="translate(0 11)">0</text></g><g class="a19 c2 node n16 p0" transform="translate(19.7679 6.10965)"><g class="a16 leaf node n2 p0 sample" transform="translate(-24.1071 3.68743)"><path class="edge" d="M 0 0 V -3.68743 H 24.1071" /><rect class="sym" height="6" width="6" x="-3" y="-3" /><text class="lab" transform="translate(0 11)">2</text></g><g class="a16 c2 node n15 p0" transform="translate(24.1071 1.0801)"><g class="a15 leaf node n5 p0 sample" transform="translate(13.5 2.60733)"><path class="edge" d="M 0 0 V -2.60733 H -13.5" /><rect class="sym" height="6" width="6" x="-3" y="-3" /><text class="lab" transform="translate(0 11)">5</text></g><g class="a15 c2 node n13 p0" transform="translate(-13.5 1.61466)"><g class="a13 leaf node n7 p0 sample" transform="translate(11.5714 0.992672)"><path class="edge" d="M 0 0 V -0.992672 H -11.5714" /><rect class="sym" height="6" width="6" x="-3" y="-3" /><text class="lab" transform="translate(0 11)">7</text></g><g class="a13 c2 node n12 p0" transform="translate(-11.5714 0.133263)"><g class="a12 leaf node n3 p0 sample" transform="translate(-7.71429 0.859409)"><path class="edge" d="M 0 0 V -0.859409 H 7.71429" /><rect class="sym" height="6" width="6" x="-3" y="-3" /><text class="lab" transform="translate(0 11)">3</text></g><g class="a12 leaf node n9 p0 sample" transform="translate(7.71429 0.859409)"><path class="edge" d="M 0 0 V -0.859409 H -7.71429" /><rect class="sym" height="6" width="6" x="-3" y="-3" /><text class="lab" transform="translate(0 11)">9</text></g><path class="edge" d="M 0 0 V -0.133263 H 11.5714" /><circle class="sym" cx="0" cy="0" r="3" /><text class="lab lft" transform="translate(-3 -7.0)">12</text></g><path class="edge" d="M 0 0 V -1.61466 H 13.5" /><circle class="sym" cx="0" cy="0" r="3" /><text class="lab lft" transform="translate(-3 -7.0)">13</text></g><path class="edge" d="M 0 0 V -1.0801 H -24.1071" /><circle class="sym" cx="0" cy="0" r="3" /><text class="lab rgt" transform="translate(3 -7.0)">15</text></g><path class="edge" d="M 0 0 V -6.10965 H -19.7679" /><circle class="sym" cx="0" cy="0" r="3" /><text class="lab rgt" transform="translate(3 -7.0)">16</text></g><path class="edge" d="M 0 0 V -5.24216 H 36.4018" /><circle class="sym" cx="0" cy="0" r="3" /><text class="lab lft" transform="translate(-3 -7.0)">19</text></g><g class="a21 c1 node n18 p0" transform="translate(36.4018 8.24376)"><g class="a18 leaf node n8 p0 sample" transform="translate(0.0 6.79548)"><path class="edge" d="M 0 0 V -6.79548 H 0.0" /><rect class="sym" height="6" width="6" x="-3" y="-3" /><text class="lab" transform="translate(0 11)">8</text></g><path class="edge" d="M 0 0 V -8.24376 H -36.4018" /><circle class="sym" cx="0" cy="0" r="3" /><text class="lab rgt" transform="translate(3 -7.0)">18</text></g><path class="edge" d="M 0 0 V -18.3524 H 25.9152" /><circle class="sym" cx="0" cy="0" r="3" /><text class="lab lft" transform="translate(-3 -7.0)">21</text></g><path class="edge" d="M 0 0 V -42.1828 H 20.6719" /><circle class="sym" cx="0" cy="0" r="3" /><text class="lab lft" transform="translate(-3 -7.0)">22</text></g><g class="a34 c1 node n30 p0" transform="translate(20.6719 13.9378)"><g class="a30 c1 node n29 p0" transform="translate(0.0 1.25628)"><g class="a29 c1 node n23 p0" transform="translate(0.0 15.2252)"><g class="a23 c1 node n11 p0" transform="translate(0.0 44.8099)"><g class="a11 leaf node n1 p0 sample" transform="translate(0.0 0.345175)"><path class="edge" d="M 0 0 V -0.345175 H 0.0" /><rect class="sym" height="6" width="6" x="-3" y="-3" /><text class="lab" transform="translate(0 11)">1</text></g><path class="edge" d="M 0 0 V -44.8099 H 0.0" /><circle class="sym" cx="0" cy="0" r="3" /><text class="lab lft" transform="translate(-3 -7.0)">11</text></g><path class="edge" d="M 0 0 V -15.2252 H 0.0" /><circle class="sym" cx="0" cy="0" r="3" /><text class="lab lft" transform="translate(-3 -7.0)">23</text></g><path class="edge" d="M 0 0 V -1.25628 H 0.0" /><circle class="sym" cx="0" cy="0" r="3" /><text class="lab lft" transform="translate(-3 -7.0)">29</text></g><path class="edge" d="M 0 0 V -13.9378 H -20.6719" /><circle class="sym" cx="0" cy="0" r="3" /><text class="lab rgt" transform="translate(3 -7.0)">30</text></g><path class="edge" d="M 0 0 V -19.0255 H 18.0502" /><circle class="sym" cx="0" cy="0" r="3" /><text class="lab lft" transform="translate(-3 -7.0)">34</text></g><g class="a36 c1 node n35 p0" transform="translate(18.0502 3.16891)"><g class="a35 c1 node n33 p0" transform="translate(0.0 24.0442)"><g class="a33 c1 node n26 p0" transform="translate(0.0 21.8996)"><g class="a26 leaf node n6 p0 sample" transform="translate(0.0 45.4873)"><path class="edge" d="M 0 0 V -45.4873 H 0.0" /><rect class="sym" height="6" width="6" x="-3" y="-3" /><text class="lab" transform="translate(0 11)">6</text></g><path class="edge" d="M 0 0 V -21.8996 H 0.0" /><circle class="sym" cx="0" cy="0" r="3" /><text class="lab lft" transform="translate(-3 -7.0)">26</text></g><path class="edge" d="M 0 0 V -24.0442 H 0.0" /><circle class="sym" cx="0" cy="0" r="3" /><text class="lab lft" transform="translate(-3 -7.0)">33</text></g><path class="edge" d="M 0 0 V -3.16891 H -18.0502" /><circle class="sym" cx="0" cy="0" r="3" /><text class="lab rgt" transform="translate(3 -7.0)">35</text></g><circle class="sym" cx="0" cy="0" r="3" /><text class="lab" transform="translate(0 -11)">36</text></g></g></g><g class="tree t5" transform="translate(991.429 0)"><g class="plotbox"><g class="c2 node n36 p0 root" transform="translate(148.521 26.8)"><g class="a36 c2 node n34 p0" transform="translate(-18.0502 19.0255)"><g class="a34 c2 node n22 p0" transform="translate(-20.6719 42.1828)"><g class="a22 c1 node n20 p0" transform="translate(25.9152 21.7904)"><g class="a20 c1 node n14 p0" transform="translate(0.0 10.4897)"><g class="a14 leaf node n4 p0 sample" transform="translate(0.0 1.11152)"><path class="edge" d="M 0 0 V -1.11152 H 0.0" /><rect class="sym" height="6" width="6" x="-3" y="-3" /><text class="lab" transform="translate(0 11)">4</text></g><path class="edge" d="M 0 0 V -10.4897 H 0.0" /><circle class="sym" cx="0" cy="0" r="3" /><text class="lab lft" transform="translate(-3 -7.0)">14</text></g><path class="edge" d="M 0 0 V -21.7904 H -25.9152" /><circle class="sym" cx="0" cy="0" r="3" /><text class="lab rgt" transform="translate(3 -7.0)">20</text></g><g class="a22 c2 node n21 p0" transform="translate(-25.9152 18.3524)"><g class="a21 c2 node n19 p0" transform="translate(-36.4018 5.24216)"><g class="a19 leaf node n0 p0 sample" transform="translate(-19.7679 9.79709)"><path class="edge" d="M 0 0 V -9.79709 H 19.7679" /><rect class="sym" height="6" width="6" x="-3" y="-3" /><text class="lab" transform="translate(0 11)">0</text></g><g class="a19 c2 node n16 p0" transform="translate(19.7679 6.10965)"><g class="a16 leaf node n2 p0 sample" transform="translate(-24.1071 3.68743)"><path class="edge" d="M 0 0 V -3.68743 H 24.1071" /><rect class="sym" height="6" width="6" x="-3" y="-3" /><text class="lab" transform="translate(0 11)">2</text></g><g class="a16 c2 node n15 p0" transform="translate(24.1071 1.0801)"><g class="a15 leaf node n5 p0 sample" transform="translate(13.5 2.60733)"><path class="edge" d="M 0 0 V -2.60733 H -13.5" /><rect class="sym" height="6" width="6" x="-3" y="-3" /><text class="lab" transform="translate(0 11)">5</text></g><g class="a15 c2 node n13 p0" transform="translate(-13.5 1.61466)"><g class="a13 leaf node n7 p0 sample" transform="translate(11.5714 0.992672)"><path class="edge" d="M 0 0 V -0.992672 H -11.5714" /><rect class="sym" height="6" width="6" x="-3" y="-3" /><text class="lab" transform="translate(0 11)">7</text></g><g class="a13 c2 node n12 p0" transform="translate(-11.5714 0.133263)"><g class="a12 leaf node n3 p0 sample" transform="translate(-7.71429 0.859409)"><path class="edge" d="M 0 0 V -0.859409 H 7.71429" /><rect class="sym" height="6" width="6" x="-3" y="-3" /><text class="lab" transform="translate(0 11)">3</text></g><g class="a12 leaf node n9 p0 sample" transform="translate(7.71429 0.859409)"><path class="edge" d="M 0 0 V -0.859409 H -7.71429" /><rect class="sym" height="6" width="6" x="-3" y="-3" /><text class="lab" transform="translate(0 11)">9</text></g><path class="edge" d="M 0 0 V -0.133263 H 11.5714" /><circle class="sym" cx="0" cy="0" r="3" /><text class="lab lft" transform="translate(-3 -7.0)">12</text></g><path class="edge" d="M 0 0 V -1.61466 H 13.5" /><circle class="sym" cx="0" cy="0" r="3" /><text class="lab lft" transform="translate(-3 -7.0)">13</text></g><path class="edge" d="M 0 0 V -1.0801 H -24.1071" /><circle class="sym" cx="0" cy="0" r="3" /><text class="lab rgt" transform="translate(3 -7.0)">15</text></g><path class="edge" d="M 0 0 V -6.10965 H -19.7679" /><circle class="sym" cx="0" cy="0" r="3" /><text class="lab rgt" transform="translate(3 -7.0)">16</text></g><path class="edge" d="M 0 0 V -5.24216 H 36.4018" /><circle class="sym" cx="0" cy="0" r="3" /><text class="lab lft" transform="translate(-3 -7.0)">19</text></g><g class="a21 c1 node n18 p0" transform="translate(36.4018 8.24376)"><g class="a18 leaf node n8 p0 sample" transform="translate(0.0 6.79548)"><path class="edge" d="M 0 0 V -6.79548 H 0.0" /><rect class="sym" height="6" width="6" x="-3" y="-3" /><text class="lab" transform="translate(0 11)">8</text></g><path class="edge" d="M 0 0 V -8.24376 H -36.4018" /><circle class="sym" cx="0" cy="0" r="3" /><text class="lab rgt" transform="translate(3 -7.0)">18</text></g><path class="edge" d="M 0 0 V -18.3524 H 25.9152" /><circle class="sym" cx="0" cy="0" r="3" /><text class="lab lft" transform="translate(-3 -7.0)">21</text></g><path class="edge" d="M 0 0 V -42.1828 H 20.6719" /><circle class="sym" cx="0" cy="0" r="3" /><text class="lab lft" transform="translate(-3 -7.0)">22</text></g><g class="a34 c1 node n30 p0" transform="translate(20.6719 13.9378)"><g class="a30 c1 node n29 p0" transform="translate(0.0 1.25628)"><g class="a29 c1 node n27 p0" transform="translate(0.0 7.67247)"><g class="a27 c1 node n24 p0" transform="translate(0.0 7.55276)"><g class="a24 c1 node n11 p0" transform="translate(0.0 44.8099)"><g class="a11 leaf node n1 p0 sample" transform="translate(0.0 0.345175)"><path class="edge" d="M 0 0 V -0.345175 H 0.0" /><rect class="sym" height="6" width="6" x="-3" y="-3" /><text class="lab" transform="translate(0 11)">1</text></g><path class="edge" d="M 0 0 V -44.8099 H 0.0" /><circle class="sym" cx="0" cy="0" r="3" /><text class="lab lft" transform="translate(-3 -7.0)">11</text></g><path class="edge" d="M 0 0 V -7.55276 H 0.0" /><circle class="sym" cx="0" cy="0" r="3" /><text class="lab lft" transform="translate(-3 -7.0)">24</text></g><path class="edge" d="M 0 0 V -7.67247 H 0.0" /><circle class="sym" cx="0" cy="0" r="3" /><text class="lab lft" transform="translate(-3 -7.0)">27</text></g><path class="edge" d="M 0 0 V -1.25628 H 0.0" /><circle class="sym" cx="0" cy="0" r="3" /><text class="lab lft" transform="translate(-3 -7.0)">29</text></g><path class="edge" d="M 0 0 V -13.9378 H -20.6719" /><circle class="sym" cx="0" cy="0" r="3" /><text class="lab rgt" transform="translate(3 -7.0)">30</text></g><path class="edge" d="M 0 0 V -19.0255 H 18.0502" /><circle class="sym" cx="0" cy="0" r="3" /><text class="lab lft" transform="translate(-3 -7.0)">34</text></g><g class="a36 c1 node n35 p0" transform="translate(18.0502 3.16891)"><g class="a35 c1 node n33 p0" transform="translate(0.0 24.0442)"><g class="a33 c1 node n26 p0" transform="translate(0.0 21.8996)"><g class="a26 leaf node n6 p0 sample" transform="translate(0.0 45.4873)"><path class="edge" d="M 0 0 V -45.4873 H 0.0" /><rect class="sym" height="6" width="6" x="-3" y="-3" /><text class="lab" transform="translate(0 11)">6</text></g><path class="edge" d="M 0 0 V -21.8996 H 0.0" /><circle class="sym" cx="0" cy="0" r="3" /><text class="lab lft" transform="translate(-3 -7.0)">26</text></g><path class="edge" d="M 0 0 V -24.0442 H 0.0" /><circle class="sym" cx="0" cy="0" r="3" /><text class="lab lft" transform="translate(-3 -7.0)">33</text></g><path class="edge" d="M 0 0 V -3.16891 H -18.0502" /><circle class="sym" cx="0" cy="0" r="3" /><text class="lab rgt" transform="translate(3 -7.0)">35</text></g><circle class="sym" cx="0" cy="0" r="3" /><text class="lab" transform="translate(0 -11)">36</text></g></g></g><g class="tree t6" transform="translate(1185.71 0)"><g class="plotbox"><g class="c2 node n36 p0 root" transform="translate(148.521 26.8)"><g class="a36 c2 node n34 p0" transform="translate(-18.0502 19.0255)"><g class="a34 c2 node n22 p0" transform="translate(-20.6719 42.1828)"><g class="a22 c1 node n20 p0" transform="translate(25.9152 21.7904)"><g class="a20 c1 node n14 p0" transform="translate(0.0 10.4897)"><g class="a14 leaf node n4 p0 sample" transform="translate(0.0 1.11152)"><path class="edge" d="M 0 0 V -1.11152 H 0.0" /><rect class="sym" height="6" width="6" x="-3" y="-3" /><text class="lab" transform="translate(0 11)">4</text></g><path class="edge" d="M 0 0 V -10.4897 H 0.0" /><circle class="sym" cx="0" cy="0" r="3" /><text class="lab lft" transform="translate(-3 -7.0)">14</text></g><path class="edge" d="M 0 0 V -21.7904 H -25.9152" /><circle class="sym" cx="0" cy="0" r="3" /><text class="lab rgt" transform="translate(3 -7.0)">20</text></g><g class="a22 c2 node n21 p0" transform="translate(-25.9152 18.3524)"><g class="a21 c2 node n19 p0" transform="translate(-36.4018 5.24216)"><g class="a19 leaf node n0 p0 sample" transform="translate(-19.7679 9.79709)"><path class="edge" d="M 0 0 V -9.79709 H 19.7679" /><rect class="sym" height="6" width="6" x="-3" y="-3" /><text class="lab" transform="translate(0 11)">0</text></g><g class="a19 c2 node n16 p0" transform="translate(19.7679 6.10965)"><g class="a16 leaf node n2 p0 sample" transform="translate(-24.1071 3.68743)"><path class="edge" d="M 0 0 V -3.68743 H 24.1071" /><rect class="sym" height="6" width="6" x="-3" y="-3" /><text class="lab" transform="translate(0 11)">2</text></g><g class="a16 c2 node n15 p0" transform="translate(24.1071 1.0801)"><g class="a15 leaf node n5 p0 sample" transform="translate(13.5 2.60733)"><path class="edge" d="M 0 0 V -2.60733 H -13.5" /><rect class="sym" height="6" width="6" x="-3" y="-3" /><text class="lab" transform="translate(0 11)">5</text></g><g class="a15 c2 node n13 p0" transform="translate(-13.5 1.61466)"><g class="a13 leaf node n7 p0 sample" transform="translate(11.5714 0.992672)"><path class="edge" d="M 0 0 V -0.992672 H -11.5714" /><rect class="sym" height="6" width="6" x="-3" y="-3" /><text class="lab" transform="translate(0 11)">7</text></g><g class="a13 c2 node n12 p0" transform="translate(-11.5714 0.133263)"><g class="a12 leaf node n3 p0 sample" transform="translate(-7.71429 0.859409)"><path class="edge" d="M 0 0 V -0.859409 H 7.71429" /><rect class="sym" height="6" width="6" x="-3" y="-3" /><text class="lab" transform="translate(0 11)">3</text></g><g class="a12 leaf node n9 p0 sample" transform="translate(7.71429 0.859409)"><path class="edge" d="M 0 0 V -0.859409 H -7.71429" /><rect class="sym" height="6" width="6" x="-3" y="-3" /><text class="lab" transform="translate(0 11)">9</text></g><path class="edge" d="M 0 0 V -0.133263 H 11.5714" /><circle class="sym" cx="0" cy="0" r="3" /><text class="lab lft" transform="translate(-3 -7.0)">12</text></g><path class="edge" d="M 0 0 V -1.61466 H 13.5" /><circle class="sym" cx="0" cy="0" r="3" /><text class="lab lft" transform="translate(-3 -7.0)">13</text></g><path class="edge" d="M 0 0 V -1.0801 H -24.1071" /><circle class="sym" cx="0" cy="0" r="3" /><text class="lab rgt" transform="translate(3 -7.0)">15</text></g><path class="edge" d="M 0 0 V -6.10965 H -19.7679" /><circle class="sym" cx="0" cy="0" r="3" /><text class="lab rgt" transform="translate(3 -7.0)">16</text></g><path class="edge" d="M 0 0 V -5.24216 H 36.4018" /><circle class="sym" cx="0" cy="0" r="3" /><text class="lab lft" transform="translate(-3 -7.0)">19</text></g><g class="a21 c1 node n18 p0" transform="translate(36.4018 8.24376)"><g class="a18 leaf node n8 p0 sample" transform="translate(0.0 6.79548)"><path class="edge" d="M 0 0 V -6.79548 H 0.0" /><rect class="sym" height="6" width="6" x="-3" y="-3" /><text class="lab" transform="translate(0 11)">8</text></g><path class="edge" d="M 0 0 V -8.24376 H -36.4018" /><circle class="sym" cx="0" cy="0" r="3" /><text class="lab rgt" transform="translate(3 -7.0)">18</text></g><path class="edge" d="M 0 0 V -18.3524 H 25.9152" /><circle class="sym" cx="0" cy="0" r="3" /><text class="lab lft" transform="translate(-3 -7.0)">21</text></g><path class="edge" d="M 0 0 V -42.1828 H 20.6719" /><circle class="sym" cx="0" cy="0" r="3" /><text class="lab lft" transform="translate(-3 -7.0)">22</text></g><g class="a34 c1 node n30 p0" transform="translate(20.6719 13.9378)"><g class="a30 c1 node n28 p0" transform="translate(0.0 8.92874)"><g class="a28 c1 node n24 p0" transform="translate(0.0 7.55276)"><g class="a24 c1 node n11 p0" transform="translate(0.0 44.8099)"><g class="a11 leaf node n1 p0 sample" transform="translate(0.0 0.345175)"><path class="edge" d="M 0 0 V -0.345175 H 0.0" /><rect class="sym" height="6" width="6" x="-3" y="-3" /><text class="lab" transform="translate(0 11)">1</text></g><path class="edge" d="M 0 0 V -44.8099 H 0.0" /><circle class="sym" cx="0" cy="0" r="3" /><text class="lab lft" transform="translate(-3 -7.0)">11</text></g><path class="edge" d="M 0 0 V -7.55276 H 0.0" /><circle class="sym" cx="0" cy="0" r="3" /><text class="lab lft" transform="translate(-3 -7.0)">24</text></g><path class="edge" d="M 0 0 V -8.92874 H 0.0" /><circle class="sym" cx="0" cy="0" r="3" /><text class="lab lft" transform="translate(-3 -7.0)">28</text></g><path class="edge" d="M 0 0 V -13.9378 H -20.6719" /><circle class="sym" cx="0" cy="0" r="3" /><text class="lab rgt" transform="translate(3 -7.0)">30</text></g><path class="edge" d="M 0 0 V -19.0255 H 18.0502" /><circle class="sym" cx="0" cy="0" r="3" /><text class="lab lft" transform="translate(-3 -7.0)">34</text></g><g class="a36 c1 node n35 p0" transform="translate(18.0502 3.16891)"><g class="a35 c1 node n33 p0" transform="translate(0.0 24.0442)"><g class="a33 c1 node n26 p0" transform="translate(0.0 21.8996)"><g class="a26 leaf node n6 p0 sample" transform="translate(0.0 45.4873)"><path class="edge" d="M 0 0 V -45.4873 H 0.0" /><rect class="sym" height="6" width="6" x="-3" y="-3" /><text class="lab" transform="translate(0 11)">6</text></g><path class="edge" d="M 0 0 V -21.8996 H 0.0" /><circle class="sym" cx="0" cy="0" r="3" /><text class="lab lft" transform="translate(-3 -7.0)">26</text></g><path class="edge" d="M 0 0 V -24.0442 H 0.0" /><circle class="sym" cx="0" cy="0" r="3" /><text class="lab lft" transform="translate(-3 -7.0)">33</text></g><path class="edge" d="M 0 0 V -3.16891 H -18.0502" /><circle class="sym" cx="0" cy="0" r="3" /><text class="lab rgt" transform="translate(3 -7.0)">35</text></g><circle class="sym" cx="0" cy="0" r="3" /><text class="lab" transform="translate(0 -11)">36</text></g></g></g></g></g></svg>
