<svg baseProfile="full" height="200" version="1.1" width="1000" xmlns="http://www.w3.org/2000/svg" xmlns:ev="http://www.w3.org/2001/xml-events" xmlns:xlink="http://www.w3.org/1999/xlink"><defs><style type="text/css"><![CDATA[.background path {fill: #808080; fill-opacity: 0}.background path:nth-child(odd) {fill-opacity: .1}.axes {font-size: 14px}.x-axis .tick .lab {font-weight: bold; dominant-baseline: hanging}.axes, .tree {font-size: 14px; text-anchor: middle}.axes line, .edge {stroke: black; fill: none}.y-axis .grid {stroke: #FAFAFA}.node > .sym {fill: black; stroke: none}.site > .sym {stroke: black}.mut text {fill: red; font-style: italic}.mut.extra text {fill: hotpink}.mut line {fill: none; stroke: none}.mut .sym {fill: none; stroke: red}.mut.extra .sym {stroke: hotpink}.node .mut .sym {stroke-width: 1.5px}.tree text, .tree-sequence text {dominant-baseline: central}.plotbox .lab.lft {text-anchor: end}.plotbox .lab.rgt {text-anchor: start}]]></style></defs><g class="tree-sequence"><g class="background"><path d="M20,0 l192,0 l0,138.2 l-131.58,25 l0,5 l-60.4196,0 l0,-5 l0,-25 l0,-138.2z" /><path d="M212,0 l192,0 l0,138.2 l69.2004,25 l0,5 l-392.781,0 l0,-5 l131.58,-25 l0,-138.2z" /><path d="M404,0 l192,0 l0,138.2 l36.7347,25 l0,5 l-159.534,0 l0,-5 l-69.2004,-25 l0,-138.2z" /><path d="M596,0 l192,0 l0,138.2 l103.511,25 l0,5 l-258.777,0 l0,-5 l-36.7347,-25 l0,-138.2z" /><path d="M788,0 l192,0 l0,138.2 l0,25 l0,5 l-88.4886,0 l0,-5 l-103.511,-25 l0,-138.2z" /></g><g class="axes"><g class="x-axis"><g transform="translate(500 200)"><text class="lab" text-anchor="middle" transform="translate(0 -11)">Genome position</text></g><line x1="20" x2="980" y1="163.2" y2="163.2" /><g class="ticks"><g class="tick" transform="translate(20 163.2)"><line x1="0" x2="0" y1="0" y2="5" /><g transform="translate(0 6)"><text class="lab">0.00</text></g></g><g class="tick" transform="translate(80.4196 163.2)"><line x1="0" x2="0" y1="0" y2="5" /><g transform="translate(0 6)"><text class="lab">62.94</text></g></g><g class="tick" transform="translate(473.2 163.2)"><line x1="0" x2="0" y1="0" y2="5" /><g transform="translate(0 6)"><text class="lab">472.08</text></g></g><g class="tick" transform="translate(632.735 163.2)"><line x1="0" x2="0" y1="0" y2="5" /><g transform="translate(0 6)"><text class="lab">638.27</text></g></g><g class="tick" transform="translate(891.511 163.2)"><line x1="0" x2="0" y1="0" y2="5" /><g transform="translate(0 6)"><text class="lab">907.82</text></g></g><g class="tick" transform="translate(980 163.2)"><line x1="0" x2="0" y1="0" y2="5" /><g transform="translate(0 6)"><text class="lab">1000.00</text></g></g></g></g></g><g class="plotbox trees"><g class="tree t0" transform="translate(20 0)"><g class="plotbox"><g class="c2 node n30 p0 root" transform="translate(106.925 26.8)"><g class="a30 c1 node n25 p0" transform="translate(-44.175 71.5981)"><g class="a25 c2 node n22 p0" transform="translate(0.0 3.29821)"><g class="a22 c2 node n18 p0" transform="translate(27.55 10.0141)"><g class="a18 leaf node n5 p0 sample" transform="translate(13.3 9.68964)"><path class="edge" d="M 0 0 V -9.68964 H -13.3" /><rect class="sym" height="6" width="6" x="-3" y="-3" /><text class="lab" transform="translate(0 11)">5</text></g><g class="a18 c2 node n11 p0" transform="translate(-13.3 7.77398)"><g class="a11 leaf node n7 p0 sample" transform="translate(11.4 1.91566)"><path class="edge" d="M 0 0 V -1.91566 H -11.4" /><rect class="sym" height="6" width="6" x="-3" y="-3" /><text class="lab" transform="translate(0 11)">7</text></g><g class="a11 c2 node n10 p0" transform="translate(-11.4 1.75544)"><g class="a10 leaf node n2 p0 sample" transform="translate(-7.6 0.160223)"><path class="edge" d="M 0 0 V -0.160223 H 7.6" /><rect class="sym" height="6" width="6" x="-3" y="-3" /><text class="lab" transform="translate(0 11)">2</text></g><g class="a10 leaf node n3 p0 sample" transform="translate(7.6 0.160223)"><path class="edge" d="M 0 0 V -0.160223 H -7.6" /><rect class="sym" height="6" width="6" x="-3" y="-3" /><text class="lab" transform="translate(0 11)">3</text></g><path class="edge" d="M 0 0 V -1.75544 H 11.4" /><circle class="sym" cx="0" cy="0" r="3" /><text class="lab lft" transform="translate(-3 -7.0)">10</text></g><path class="edge" d="M 0 0 V -7.77398 H 13.3" /><circle class="sym" cx="0" cy="0" r="3" /><text class="lab lft" transform="translate(-3 -7.0)">11</text></g><path class="edge" d="M 0 0 V -10.0141 H -27.55" /><circle class="sym" cx="0" cy="0" r="3" /><text class="lab rgt" transform="translate(3 -7.0)">18</text></g><g class="a22 c1 node n20 p0" transform="translate(-27.55 6.27778)"><g class="a20 c2 node n19 p0" transform="translate(0.0 3.13317)"><g class="a19 leaf node n0 p0 sample" transform="translate(-7.6 10.2927)"><path class="edge" d="M 0 0 V -10.2927 H 7.6" /><rect class="sym" height="6" width="6" x="-3" y="-3" /><text class="lab" transform="translate(0 11)">0</text></g><g class="a19 leaf node n8 p0 sample" transform="translate(7.6 10.2927)"><path class="edge" d="M 0 0 V -10.2927 H -7.6" /><rect class="sym" height="6" width="6" x="-3" y="-3" /><text class="lab" transform="translate(0 11)">8</text></g><path class="edge" d="M 0 0 V -3.13317 H 0.0" /><circle class="sym" cx="0" cy="0" r="3" /><text class="lab lft" transform="translate(-3 -7.0)">19</text></g><path class="edge" d="M 0 0 V -6.27778 H 27.55" /><circle class="sym" cx="0" cy="0" r="3" /><text class="lab lft" transform="translate(-3 -7.0)">20</text></g><path class="edge" d="M 0 0 V -3.29821 H 0.0" /><circle class="sym" cx="0" cy="0" r="3" /><text class="lab lft" transform="translate(-3 -7.0)">22</text></g><path class="edge" d="M 0 0 V -71.5981 H 44.175" /><circle class="sym" cx="0" cy="0" r="3" /><text class="lab lft" transform="translate(-3 -7.0)">25</text></g><g class="a30 c2 node n29 p0" transform="translate(44.175 43.0901)"><g class="a29 c1 node n12 p0" transform="translate(13.3 47.5214)"><g class="a12 leaf node n9 p0 sample" transform="translate(0.0 3.98843)"><path class="edge" d="M 0 0 V -3.98843 H 0.0" /><rect class="sym" height="6" width="6" x="-3" y="-3" /><text class="lab" transform="translate(0 11)">9</text></g><path class="edge" d="M 0 0 V -47.5214 H -13.3" /><circle class="sym" cx="0" cy="0" r="3" /><text class="lab rgt" transform="translate(3 -7.0)">12</text></g><g class="a29 c1 node n28 p0" transform="translate(-13.3 3.83946)"><g class="a28 c2 node n27 p0" transform="translate(0.0 4.94434)"><g class="a27 leaf node n4 p0 sample" transform="translate(11.4 42.7261)"><path class="edge" d="M 0 0 V -42.7261 H -11.4" /><rect class="sym" height="6" width="6" x="-3" y="-3" /><text class="lab" transform="translate(0 11)">4</text></g><g class="a27 c1 node n26 p0" transform="translate(-11.4 10.6103)"><g class="a26 c2 node n21 p0" transform="translate(0.0 13.104)"><g class="a21 c1 node n14 p0" transform="translate(7.6 14.5643)"><g class="a14 leaf node n6 p0 sample" transform="translate(0.0 4.44745)"><path class="edge" d="M 0 0 V -4.44745 H 0.0" /><rect class="sym" height="6" width="6" x="-3" y="-3" /><text class="lab" transform="translate(0 11)">6</text></g><path class="edge" d="M 0 0 V -14.5643 H -7.6" /><circle class="sym" cx="0" cy="0" r="3" /><text class="lab rgt" transform="translate(3 -7.0)">14</text></g><g class="a21 c1 node n16 p0" transform="translate(-7.6 10.0584)"><g class="a16 leaf node n1 p0 sample" transform="translate(0.0 8.95338)"><path class="edge" d="M 0 0 V -8.95338 H 0.0" /><rect class="sym" height="6" width="6" x="-3" y="-3" /><text class="lab" transform="translate(0 11)">1</text></g><path class="edge" d="M 0 0 V -10.0584 H 7.6" /><circle class="sym" cx="0" cy="0" r="3" /><text class="lab lft" transform="translate(-3 -7.0)">16</text></g><path class="edge" d="M 0 0 V -13.104 H 0.0" /><circle class="sym" cx="0" cy="0" r="3" /><text class="lab lft" transform="translate(-3 -7.0)">21</text></g><path class="edge" d="M 0 0 V -10.6103 H 11.4" /><circle class="sym" cx="0" cy="0" r="3" /><text class="lab lft" transform="translate(-3 -7.0)">26</text></g><path class="edge" d="M 0 0 V -4.94434 H 0.0" /><circle class="sym" cx="0" cy="0" r="3" /><text class="lab lft" transform="translate(-3 -7.0)">27</text></g><path class="edge" d="M 0 0 V -3.83946 H 13.3" /><circle class="sym" cx="0" cy="0" r="3" /><text class="lab lft" transform="translate(-3 -7.0)">28</text></g><path class="edge" d="M 0 0 V -43.0901 H -44.175" /><circle class="sym" cx="0" cy="0" r="3" /><text class="lab rgt" transform="translate(3 -7.0)">29</text></g><circle class="sym" cx="0" cy="0" r="3" /><text class="lab" transform="translate(0 -11)">30</text></g></g></g><g class="tree t1" transform="translate(212 0)"><g class="plotbox"><g class="c2 node n30 p0 root" transform="translate(114.525 26.8)"><g class="a30 c1 node n25 p0" transform="translate(-38.475 71.5981)"><g class="a25 c2 node n22 p0" transform="translate(0.0 3.29821)"><g class="a22 c2 node n18 p0" transform="translate(29.45 10.0141)"><g class="a18 leaf node n5 p0 sample" transform="translate(13.3 9.68964)"><path class="edge" d="M 0 0 V -9.68964 H -13.3" /><rect class="sym" height="6" width="6" x="-3" y="-3" /><text class="lab" transform="translate(0 11)">5</text></g><g class="a18 c2 node n11 p0" transform="translate(-13.3 7.77398)"><g class="a11 leaf node n7 p0 sample" transform="translate(11.4 1.91566)"><path class="edge" d="M 0 0 V -1.91566 H -11.4" /><rect class="sym" height="6" width="6" x="-3" y="-3" /><text class="lab" transform="translate(0 11)">7</text></g><g class="a11 c2 node n10 p0" transform="translate(-11.4 1.75544)"><g class="a10 leaf node n2 p0 sample" transform="translate(-7.6 0.160223)"><path class="edge" d="M 0 0 V -0.160223 H 7.6" /><rect class="sym" height="6" width="6" x="-3" y="-3" /><text class="lab" transform="translate(0 11)">2</text></g><g class="a10 leaf node n3 p0 sample" transform="translate(7.6 0.160223)"><path class="edge" d="M 0 0 V -0.160223 H -7.6" /><rect class="sym" height="6" width="6" x="-3" y="-3" /><text class="lab" transform="translate(0 11)">3</text></g><path class="edge" d="M 0 0 V -1.75544 H 11.4" /><circle class="sym" cx="0" cy="0" r="3" /><text class="lab lft" transform="translate(-3 -7.0)">10</text></g><path class="edge" d="M 0 0 V -7.77398 H 13.3" /><circle class="sym" cx="0" cy="0" r="3" /><text class="lab lft" transform="translate(-3 -7.0)">11</text></g><path class="edge" d="M 0 0 V -10.0141 H -29.45" /><circle class="sym" cx="0" cy="0" r="3" /><text class="lab rgt" transform="translate(3 -7.0)">18</text></g><g class="a22 c2 node n20 p0" transform="translate(-29.45 6.27778)"><g class="a20 c2 node n19 p0" transform="translate(-11.4 3.13317)"><g class="a19 leaf node n0 p0 sample" transform="translate(-7.6 10.2927)"><path class="edge" d="M 0 0 V -10.2927 H 7.6" /><rect class="sym" height="6" width="6" x="-3" y="-3" /><text class="lab" transform="translate(0 11)">0</text></g><g class="a19 leaf node n8 p0 sample" transform="translate(7.6 10.2927)"><path class="edge" d="M 0 0 V -10.2927 H -7.6" /><rect class="sym" height="6" width="6" x="-3" y="-3" /><text class="lab" transform="translate(0 11)">8</text></g><path class="edge" d="M 0 0 V -3.13317 H 11.4" /><circle class="sym" cx="0" cy="0" r="3" /><text class="lab lft" transform="translate(-3 -7.0)">19</text></g><g class="a20 c1 node n13 p0" transform="translate(11.4 9.43749)"><g class="a13 leaf node n9 p0 sample" transform="translate(0.0 3.98843)"><path class="edge" d="M 0 0 V -3.98843 H 0.0" /><rect class="sym" height="6" width="6" x="-3" y="-3" /><text class="lab" transform="translate(0 11)">9</text></g><path class="edge" d="M 0 0 V -9.43749 H -11.4" /><circle class="sym" cx="0" cy="0" r="3" /><text class="lab rgt" transform="translate(3 -7.0)">13</text></g><path class="edge" d="M 0 0 V -6.27778 H 29.45" /><circle class="sym" cx="0" cy="0" r="3" /><text class="lab lft" transform="translate(-3 -7.0)">20</text></g><path class="edge" d="M 0 0 V -3.29821 H 0.0" /><circle class="sym" cx="0" cy="0" r="3" /><text class="lab lft" transform="translate(-3 -7.0)">22</text></g><path class="edge" d="M 0 0 V -71.5981 H 38.475" /><circle class="sym" cx="0" cy="0" r="3" /><text class="lab lft" transform="translate(-3 -7.0)">25</text></g><g class="a30 c1 node n29 p0" transform="translate(38.475 43.0901)"><g class="a29 c1 node n28 p0" transform="translate(0.0 3.83946)"><g class="a28 c2 node n27 p0" transform="translate(0.0 4.94434)"><g class="a27 leaf node n4 p0 sample" transform="translate(11.4 42.7261)"><path class="edge" d="M 0 0 V -42.7261 H -11.4" /><rect class="sym" height="6" width="6" x="-3" y="-3" /><text class="lab" transform="translate(0 11)">4</text></g><g class="a27 c1 node n26 p0" transform="translate(-11.4 10.6103)"><g class="a26 c2 node n21 p0" transform="translate(0.0 13.104)"><g class="a21 c1 node n14 p0" transform="translate(7.6 14.5643)"><g class="a14 leaf node n6 p0 sample" transform="translate(0.0 4.44745)"><path class="edge" d="M 0 0 V -4.44745 H 0.0" /><rect class="sym" height="6" width="6" x="-3" y="-3" /><text class="lab" transform="translate(0 11)">6</text></g><path class="edge" d="M 0 0 V -14.5643 H -7.6" /><circle class="sym" cx="0" cy="0" r="3" /><text class="lab rgt" transform="translate(3 -7.0)">14</text></g><g class="a21 c1 node n16 p0" transform="translate(-7.6 10.0584)"><g class="a16 leaf node n1 p0 sample" transform="translate(0.0 8.95338)"><path class="edge" d="M 0 0 V -8.95338 H 0.0" /><rect class="sym" height="6" width="6" x="-3" y="-3" /><text class="lab" transform="translate(0 11)">1</text></g><path class="edge" d="M 0 0 V -10.0584 H 7.6" /><circle class="sym" cx="0" cy="0" r="3" /><text class="lab lft" transform="translate(-3 -7.0)">16</text></g><path class="edge" d="M 0 0 V -13.104 H 0.0" /><circle class="sym" cx="0" cy="0" r="3" /><text class="lab lft" transform="translate(-3 -7.0)">21</text></g><path class="edge" d="M 0 0 V -10.6103 H 11.4" /><circle class="sym" cx="0" cy="0" r="3" /><text class="lab lft" transform="translate(-3 -7.0)">26</text></g><path class="edge" d="M 0 0 V -4.94434 H 0.0" /><circle class="sym" cx="0" cy="0" r="3" /><text class="lab lft" transform="translate(-3 -7.0)">27</text></g><path class="edge" d="M 0 0 V -3.83946 H 0.0" /><circle class="sym" cx="0" cy="0" r="3" /><text class="lab lft" transform="translate(-3 -7.0)">28</text></g><path class="edge" d="M 0 0 V -43.0901 H -38.475" /><circle class="sym" cx="0" cy="0" r="3" /><text class="lab rgt" transform="translate(3 -7.0)">29</text></g><circle class="sym" cx="0" cy="0" r="3" /><text class="lab" transform="translate(0 -11)">30</text></g></g></g><g class="tree t2" transform="translate(404 0)"><g class="plotbox"><g class="c2 node n30 p0 root" transform="translate(114.525 26.8)"><g class="a30 c1 node n25 p0" transform="translate(-38.475 71.5981)"><g class="a25 c2 node n22 p0" transform="translate(0.0 3.29821)"><g class="a22 c2 node n18 p0" transform="translate(29.45 10.0141)"><g class="a18 leaf node n5 p0 sample" transform="translate(13.3 9.68964)"><path class="edge" d="M 0 0 V -9.68964 H -13.3" /><rect class="sym" height="6" width="6" x="-3" y="-3" /><text class="lab" transform="translate(0 11)">5</text></g><g class="a18 c2 node n11 p0" transform="translate(-13.3 7.77398)"><g class="a11 leaf node n7 p0 sample" transform="translate(11.4 1.91566)"><path class="edge" d="M 0 0 V -1.91566 H -11.4" /><rect class="sym" height="6" width="6" x="-3" y="-3" /><text class="lab" transform="translate(0 11)">7</text></g><g class="a11 c2 node n10 p0" transform="translate(-11.4 1.75544)"><g class="a10 leaf node n2 p0 sample" transform="translate(-7.6 0.160223)"><path class="edge" d="M 0 0 V -0.160223 H 7.6" /><rect class="sym" height="6" width="6" x="-3" y="-3" /><text class="lab" transform="translate(0 11)">2</text></g><g class="a10 leaf node n3 p0 sample" transform="translate(7.6 0.160223)"><path class="edge" d="M 0 0 V -0.160223 H -7.6" /><rect class="sym" height="6" width="6" x="-3" y="-3" /><text class="lab" transform="translate(0 11)">3</text></g><path class="edge" d="M 0 0 V -1.75544 H 11.4" /><circle class="sym" cx="0" cy="0" r="3" /><text class="lab lft" transform="translate(-3 -7.0)">10</text></g><path class="edge" d="M 0 0 V -7.77398 H 13.3" /><circle class="sym" cx="0" cy="0" r="3" /><text class="lab lft" transform="translate(-3 -7.0)">11</text></g><path class="edge" d="M 0 0 V -10.0141 H -29.45" /><circle class="sym" cx="0" cy="0" r="3" /><text class="lab rgt" transform="translate(3 -7.0)">18</text></g><g class="a22 c2 node n20 p0" transform="translate(-29.45 6.27778)"><g class="a20 c2 node n19 p0" transform="translate(-11.4 3.13317)"><g class="a19 leaf node n0 p0 sample" transform="translate(-7.6 10.2927)"><path class="edge" d="M 0 0 V -10.2927 H 7.6" /><rect class="sym" height="6" width="6" x="-3" y="-3" /><text class="lab" transform="translate(0 11)">0</text></g><g class="a19 leaf node n8 p0 sample" transform="translate(7.6 10.2927)"><path class="edge" d="M 0 0 V -10.2927 H -7.6" /><rect class="sym" height="6" width="6" x="-3" y="-3" /><text class="lab" transform="translate(0 11)">8</text></g><path class="edge" d="M 0 0 V -3.13317 H 11.4" /><circle class="sym" cx="0" cy="0" r="3" /><text class="lab lft" transform="translate(-3 -7.0)">19</text></g><g class="a20 c1 node n13 p0" transform="translate(11.4 9.43749)"><g class="a13 leaf node n9 p0 sample" transform="translate(0.0 3.98843)"><path class="edge" d="M 0 0 V -3.98843 H 0.0" /><rect class="sym" height="6" width="6" x="-3" y="-3" /><text class="lab" transform="translate(0 11)">9</text></g><path class="edge" d="M 0 0 V -9.43749 H -11.4" /><circle class="sym" cx="0" cy="0" r="3" /><text class="lab rgt" transform="translate(3 -7.0)">13</text></g><path class="edge" d="M 0 0 V -6.27778 H 29.45" /><circle class="sym" cx="0" cy="0" r="3" /><text class="lab lft" transform="translate(-3 -7.0)">20</text></g><path class="edge" d="M 0 0 V -3.29821 H 0.0" /><circle class="sym" cx="0" cy="0" r="3" /><text class="lab lft" transform="translate(-3 -7.0)">22</text></g><path class="edge" d="M 0 0 V -71.5981 H 38.475" /><circle class="sym" cx="0" cy="0" r="3" /><text class="lab lft" transform="translate(-3 -7.0)">25</text></g><g class="a30 c1 node n29 p0" transform="translate(38.475 43.0901)"><g class="a29 c2 node n28 p0" transform="translate(0.0 3.83946)"><g class="a28 c2 node n27 p0" transform="translate(-11.4 4.94434)"><g class="a27 leaf node n4 p0 sample" transform="translate(7.6 42.7261)"><path class="edge" d="M 0 0 V -42.7261 H -7.6" /><rect class="sym" height="6" width="6" x="-3" y="-3" /><text class="lab" transform="translate(0 11)">4</text></g><g class="a27 c1 node n26 p0" transform="translate(-7.6 10.6103)"><g class="a26 c1 node n21 p0" transform="translate(0.0 13.104)"><g class="a21 c1 node n16 p0" transform="translate(0.0 10.0584)"><g class="a16 leaf node n1 p0 sample" transform="translate(0.0 8.95338)"><path class="edge" d="M 0 0 V -8.95338 H 0.0" /><rect class="sym" height="6" width="6" x="-3" y="-3" /><text class="lab" transform="translate(0 11)">1</text></g><path class="edge" d="M 0 0 V -10.0584 H 0.0" /><circle class="sym" cx="0" cy="0" r="3" /><text class="lab lft" transform="translate(-3 -7.0)">16</text></g><path class="edge" d="M 0 0 V -13.104 H 0.0" /><circle class="sym" cx="0" cy="0" r="3" /><text class="lab lft" transform="translate(-3 -7.0)">21</text></g><path class="edge" d="M 0 0 V -10.6103 H 7.6" /><circle class="sym" cx="0" cy="0" r="3" /><text class="lab lft" transform="translate(-3 -7.0)">26</text></g><path class="edge" d="M 0 0 V -4.94434 H 11.4" /><circle class="sym" cx="0" cy="0" r="3" /><text class="lab lft" transform="translate(-3 -7.0)">27</text></g><g class="a28 c1 node n23 p0" transform="translate(11.4 25.2848)"><g class="a23 c1 node n15 p0" transform="translate(0.0 17.9382)"><g class="a15 leaf node n6 p0 sample" transform="translate(0.0 4.44745)"><path class="edge" d="M 0 0 V -4.44745 H 0.0" /><rect class="sym" height="6" width="6" x="-3" y="-3" /><text class="lab" transform="translate(0 11)">6</text></g><path class="edge" d="M 0 0 V -17.9382 H 0.0" /><circle class="sym" cx="0" cy="0" r="3" /><text class="lab lft" transform="translate(-3 -7.0)">15</text></g><path class="edge" d="M 0 0 V -25.2848 H -11.4" /><circle class="sym" cx="0" cy="0" r="3" /><text class="lab rgt" transform="translate(3 -7.0)">23</text></g><path class="edge" d="M 0 0 V -3.83946 H 0.0" /><circle class="sym" cx="0" cy="0" r="3" /><text class="lab lft" transform="translate(-3 -7.0)">28</text></g><path class="edge" d="M 0 0 V -43.0901 H -38.475" /><circle class="sym" cx="0" cy="0" r="3" /><text class="lab rgt" transform="translate(3 -7.0)">29</text></g><circle class="sym" cx="0" cy="0" r="3" /><text class="lab" transform="translate(0 -11)">30</text></g></g></g><g class="tree t3" transform="translate(596 0)"><g class="plotbox"><g class="c2 node n30 p0 root" transform="translate(114.525 26.8)"><g class="a30 c1 node n25 p0" transform="translate(-38.475 71.5981)"><g class="a25 c2 node n22 p0" transform="translate(0.0 3.29821)"><g class="a22 c2 node n18 p0" transform="translate(29.45 10.0141)"><g class="a18 leaf node n5 p0 sample" transform="translate(13.3 9.68964)"><path class="edge" d="M 0 0 V -9.68964 H -13.3" /><rect class="sym" height="6" width="6" x="-3" y="-3" /><text class="lab" transform="translate(0 11)">5</text></g><g class="a18 c2 node n11 p0" transform="translate(-13.3 7.77398)"><g class="a11 leaf node n7 p0 sample" transform="translate(11.4 1.91566)"><path class="edge" d="M 0 0 V -1.91566 H -11.4" /><rect class="sym" height="6" width="6" x="-3" y="-3" /><text class="lab" transform="translate(0 11)">7</text></g><g class="a11 c2 node n10 p0" transform="translate(-11.4 1.75544)"><g class="a10 leaf node n2 p0 sample" transform="translate(-7.6 0.160223)"><path class="edge" d="M 0 0 V -0.160223 H 7.6" /><rect class="sym" height="6" width="6" x="-3" y="-3" /><text class="lab" transform="translate(0 11)">2</text></g><g class="a10 leaf node n3 p0 sample" transform="translate(7.6 0.160223)"><path class="edge" d="M 0 0 V -0.160223 H -7.6" /><rect class="sym" height="6" width="6" x="-3" y="-3" /><text class="lab" transform="translate(0 11)">3</text></g><path class="edge" d="M 0 0 V -1.75544 H 11.4" /><circle class="sym" cx="0" cy="0" r="3" /><text class="lab lft" transform="translate(-3 -7.0)">10</text></g><path class="edge" d="M 0 0 V -7.77398 H 13.3" /><circle class="sym" cx="0" cy="0" r="3" /><text class="lab lft" transform="translate(-3 -7.0)">11</text></g><path class="edge" d="M 0 0 V -10.0141 H -29.45" /><circle class="sym" cx="0" cy="0" r="3" /><text class="lab rgt" transform="translate(3 -7.0)">18</text></g><g class="a22 c2 node n20 p0" transform="translate(-29.45 6.27778)"><g class="a20 c2 node n19 p0" transform="translate(-11.4 3.13317)"><g class="a19 leaf node n0 p0 sample" transform="translate(-7.6 10.2927)"><path class="edge" d="M 0 0 V -10.2927 H 7.6" /><rect class="sym" height="6" width="6" x="-3" y="-3" /><text class="lab" transform="translate(0 11)">0</text></g><g class="a19 leaf node n8 p0 sample" transform="translate(7.6 10.2927)"><path class="edge" d="M 0 0 V -10.2927 H -7.6" /><rect class="sym" height="6" width="6" x="-3" y="-3" /><text class="lab" transform="translate(0 11)">8</text></g><path class="edge" d="M 0 0 V -3.13317 H 11.4" /><circle class="sym" cx="0" cy="0" r="3" /><text class="lab lft" transform="translate(-3 -7.0)">19</text></g><g class="a20 c1 node n13 p0" transform="translate(11.4 9.43749)"><g class="a13 leaf node n9 p0 sample" transform="translate(0.0 3.98843)"><path class="edge" d="M 0 0 V -3.98843 H 0.0" /><rect class="sym" height="6" width="6" x="-3" y="-3" /><text class="lab" transform="translate(0 11)">9</text></g><path class="edge" d="M 0 0 V -9.43749 H -11.4" /><circle class="sym" cx="0" cy="0" r="3" /><text class="lab rgt" transform="translate(3 -7.0)">13</text></g><path class="edge" d="M 0 0 V -6.27778 H 29.45" /><circle class="sym" cx="0" cy="0" r="3" /><text class="lab lft" transform="translate(-3 -7.0)">20</text></g><path class="edge" d="M 0 0 V -3.29821 H 0.0" /><circle class="sym" cx="0" cy="0" r="3" /><text class="lab lft" transform="translate(-3 -7.0)">22</text></g><path class="edge" d="M 0 0 V -71.5981 H 38.475" /><circle class="sym" cx="0" cy="0" r="3" /><text class="lab lft" transform="translate(-3 -7.0)">25</text></g><g class="a30 c1 node n29 p0" transform="translate(38.475 43.0901)"><g class="a29 c1 node n28 p0" transform="translate(0.0 3.83946)"><g class="a28 c2 node n27 p0" transform="translate(0.0 4.94434)"><g class="a27 leaf node n4 p0 sample" transform="translate(11.4 42.7261)"><path class="edge" d="M 0 0 V -42.7261 H -11.4" /><rect class="sym" height="6" width="6" x="-3" y="-3" /><text class="lab" transform="translate(0 11)">4</text></g><g class="a27 c2 node n26 p0" transform="translate(-11.4 10.6103)"><g class="a26 c1 node n21 p0" transform="translate(-7.6 13.104)"><g class="a21 c1 node n16 p0" transform="translate(0.0 10.0584)"><g class="a16 leaf node n1 p0 sample" transform="translate(0.0 8.95338)"><path class="edge" d="M 0 0 V -8.95338 H 0.0" /><rect class="sym" height="6" width="6" x="-3" y="-3" /><text class="lab" transform="translate(0 11)">1</text></g><path class="edge" d="M 0 0 V -10.0584 H 0.0" /><circle class="sym" cx="0" cy="0" r="3" /><text class="lab lft" transform="translate(-3 -7.0)">16</text></g><path class="edge" d="M 0 0 V -13.104 H 7.6" /><circle class="sym" cx="0" cy="0" r="3" /><text class="lab lft" transform="translate(-3 -7.0)">21</text></g><g class="a26 c1 node n24 p0" transform="translate(7.6 9.73008)"><g class="a24 c1 node n15 p0" transform="translate(0.0 17.9382)"><g class="a15 leaf node n6 p0 sample" transform="translate(0.0 4.44745)"><path class="edge" d="M 0 0 V -4.44745 H 0.0" /><rect class="sym" height="6" width="6" x="-3" y="-3" /><text class="lab" transform="translate(0 11)">6</text></g><path class="edge" d="M 0 0 V -17.9382 H 0.0" /><circle class="sym" cx="0" cy="0" r="3" /><text class="lab lft" transform="translate(-3 -7.0)">15</text></g><path class="edge" d="M 0 0 V -9.73008 H -7.6" /><circle class="sym" cx="0" cy="0" r="3" /><text class="lab rgt" transform="translate(3 -7.0)">24</text></g><path class="edge" d="M 0 0 V -10.6103 H 11.4" /><circle class="sym" cx="0" cy="0" r="3" /><text class="lab lft" transform="translate(-3 -7.0)">26</text></g><path class="edge" d="M 0 0 V -4.94434 H 0.0" /><circle class="sym" cx="0" cy="0" r="3" /><text class="lab lft" transform="translate(-3 -7.0)">27</text></g><path class="edge" d="M 0 0 V -3.83946 H 0.0" /><circle class="sym" cx="0" cy="0" r="3" /><text class="lab lft" transform="translate(-3 -7.0)">28</text></g><path class="edge" d="M 0 0 V -43.0901 H -38.475" /><circle class="sym" cx="0" cy="0" r="3" /><text class="lab rgt" transform="translate(3 -7.0)">29</text></g><circle class="sym" cx="0" cy="0" r="3" /><text class="lab" transform="translate(0 -11)">30</text></g></g></g><g class="tree t4" transform="translate(788 0)"><g class="plotbox"><g class="c2 node n30 p0 root" transform="translate(130.912 26.8)"><g class="a30 c2 node n25 p0" transform="translate(-25.8875 71.5981)"><g class="a25 c2 node n22 p0" transform="translate(-28.975 3.29821)"><g class="a22 c2 node n18 p0" transform="translate(29.45 10.0141)"><g class="a18 leaf node n5 p0 sample" transform="translate(13.3 9.68964)"><path class="edge" d="M 0 0 V -9.68964 H -13.3" /><rect class="sym" height="6" width="6" x="-3" y="-3" /><text class="lab" transform="translate(0 11)">5</text></g><g class="a18 c2 node n11 p0" transform="translate(-13.3 7.77398)"><g class="a11 leaf node n7 p0 sample" transform="translate(11.4 1.91566)"><path class="edge" d="M 0 0 V -1.91566 H -11.4" /><rect class="sym" height="6" width="6" x="-3" y="-3" /><text class="lab" transform="translate(0 11)">7</text></g><g class="a11 c2 node n10 p0" transform="translate(-11.4 1.75544)"><g class="a10 leaf node n2 p0 sample" transform="translate(-7.6 0.160223)"><path class="edge" d="M 0 0 V -0.160223 H 7.6" /><rect class="sym" height="6" width="6" x="-3" y="-3" /><text class="lab" transform="translate(0 11)">2</text></g><g class="a10 leaf node n3 p0 sample" transform="translate(7.6 0.160223)"><path class="edge" d="M 0 0 V -0.160223 H -7.6" /><rect class="sym" height="6" width="6" x="-3" y="-3" /><text class="lab" transform="translate(0 11)">3</text></g><path class="edge" d="M 0 0 V -1.75544 H 11.4" /><circle class="sym" cx="0" cy="0" r="3" /><text class="lab lft" transform="translate(-3 -7.0)">10</text></g><path class="edge" d="M 0 0 V -7.77398 H 13.3" /><circle class="sym" cx="0" cy="0" r="3" /><text class="lab lft" transform="translate(-3 -7.0)">11</text></g><path class="edge" d="M 0 0 V -10.0141 H -29.45" /><circle class="sym" cx="0" cy="0" r="3" /><text class="lab rgt" transform="translate(3 -7.0)">18</text></g><g class="a22 c2 node n20 p0" transform="translate(-29.45 6.27778)"><g class="a20 c2 node n19 p0" transform="translate(-11.4 3.13317)"><g class="a19 leaf node n0 p0 sample" transform="translate(-7.6 10.2927)"><path class="edge" d="M 0 0 V -10.2927 H 7.6" /><rect class="sym" height="6" width="6" x="-3" y="-3" /><text class="lab" transform="translate(0 11)">0</text></g><g class="a19 leaf node n8 p0 sample" transform="translate(7.6 10.2927)"><path class="edge" d="M 0 0 V -10.2927 H -7.6" /><rect class="sym" height="6" width="6" x="-3" y="-3" /><text class="lab" transform="translate(0 11)">8</text></g><path class="edge" d="M 0 0 V -3.13317 H 11.4" /><circle class="sym" cx="0" cy="0" r="3" /><text class="lab lft" transform="translate(-3 -7.0)">19</text></g><g class="a20 c1 node n13 p0" transform="translate(11.4 9.43749)"><g class="a13 leaf node n9 p0 sample" transform="translate(0.0 3.98843)"><path class="edge" d="M 0 0 V -3.98843 H 0.0" /><rect class="sym" height="6" width="6" x="-3" y="-3" /><text class="lab" transform="translate(0 11)">9</text></g><path class="edge" d="M 0 0 V -9.43749 H -11.4" /><circle class="sym" cx="0" cy="0" r="3" /><text class="lab rgt" transform="translate(3 -7.0)">13</text></g><path class="edge" d="M 0 0 V -6.27778 H 29.45" /><circle class="sym" cx="0" cy="0" r="3" /><text class="lab lft" transform="translate(-3 -7.0)">20</text></g><path class="edge" d="M 0 0 V -3.29821 H 28.975" /><circle class="sym" cx="0" cy="0" r="3" /><text class="lab lft" transform="translate(-3 -7.0)">22</text></g><g class="a25 c1 node n17 p0" transform="translate(28.975 14.0485)"><g class="a17 leaf node n1 p0 sample" transform="translate(0.0 8.95338)"><path class="edge" d="M 0 0 V -8.95338 H 0.0" /><rect class="sym" height="6" width="6" x="-3" y="-3" /><text class="lab" transform="translate(0 11)">1</text></g><path class="edge" d="M 0 0 V -14.0485 H -28.975" /><circle class="sym" cx="0" cy="0" r="3" /><text class="lab rgt" transform="translate(3 -7.0)">17</text></g><path class="edge" d="M 0 0 V -71.5981 H 25.8875" /><circle class="sym" cx="0" cy="0" r="3" /><text class="lab lft" transform="translate(-3 -7.0)">25</text></g><g class="a30 c1 node n29 p0" transform="translate(25.8875 43.0901)"><g class="a29 c1 node n28 p0" transform="translate(0.0 3.83946)"><g class="a28 c2 node n27 p0" transform="translate(0.0 4.94434)"><g class="a27 leaf node n4 p0 sample" transform="translate(-7.6 42.7261)"><path class="edge" d="M 0 0 V -42.7261 H 7.6" /><rect class="sym" height="6" width="6" x="-3" y="-3" /><text class="lab" transform="translate(0 11)">4</text></g><g class="a27 c1 node n26 p0" transform="translate(7.6 10.6103)"><g class="a26 c1 node n24 p0" transform="translate(0.0 9.73008)"><g class="a24 c1 node n15 p0" transform="translate(0.0 17.9382)"><g class="a15 leaf node n6 p0 sample" transform="translate(0.0 4.44745)"><path class="edge" d="M 0 0 V -4.44745 H 0.0" /><rect class="sym" height="6" width="6" x="-3" y="-3" /><text class="lab" transform="translate(0 11)">6</text></g><path class="edge" d="M 0 0 V -17.9382 H 0.0" /><circle class="sym" cx="0" cy="0" r="3" /><text class="lab lft" transform="translate(-3 -7.0)">15</text></g><path class="edge" d="M 0 0 V -9.73008 H 0.0" /><circle class="sym" cx="0" cy="0" r="3" /><text class="lab lft" transform="translate(-3 -7.0)">24</text></g><path class="edge" d="M 0 0 V -10.6103 H -7.6" /><circle class="sym" cx="0" cy="0" r="3" /><text class="lab rgt" transform="translate(3 -7.0)">26</text></g><path class="edge" d="M 0 0 V -4.94434 H 0.0" /><circle class="sym" cx="0" cy="0" r="3" /><text class="lab lft" transform="translate(-3 -7.0)">27</text></g><path class="edge" d="M 0 0 V -3.83946 H 0.0" /><circle class="sym" cx="0" cy="0" r="3" /><text class="lab lft" transform="translate(-3 -7.0)">28</text></g><path class="edge" d="M 0 0 V -43.0901 H -25.8875" /><circle class="sym" cx="0" cy="0" r="3" /><text class="lab rgt" transform="translate(3 -7.0)">29</text></g><circle class="sym" cx="0" cy="0" r="3" /><text class="lab" transform="translate(0 -11)">30</text></g></g></g></g></g></svg>
