<svg baseProfile="full" height="200" version="1.1" width="1000" xmlns="http://www.w3.org/2000/svg" xmlns:ev="http://www.w3.org/2001/xml-events" xmlns:xlink="http://www.w3.org/1999/xlink"><defs><style type="text/css"><![CDATA[.background path {fill: #808080; fill-opacity: 0}.background path:nth-child(odd) {fill-opacity: .1}.axes {font-size: 14px}.x-axis .tick .lab {font-weight: bold; dominant-baseline: hanging}.axes, .tree {font-size: 14px; text-anchor: middle}.axes line, .edge {stroke: black; fill: none}.y-axis .grid {stroke: #FAFAFA}.node > .sym {fill: black; stroke: none}.site > .sym {stroke: black}.mut text {fill: red; font-style: italic}.mut.extra text {fill: hotpink}.mut line {fill: none; stroke: none}.mut .sym {fill: none; stroke: red}.mut.extra .sym {stroke: hotpink}.node .mut .sym {stroke-width: 1.5px}.tree text, .tree-sequence text {dominant-baseline: central}.plotbox .lab.lft {text-anchor: end}.plotbox .lab.rgt {text-anchor: start}]]></style></defs><g class="tree-sequence"><g class="background"><path d="M20,0 l192,0 l0,138.2 l-94.0649,25 l0,5 l-97.9351,0 l0,-5 l0,-25 l0,-138.2z" /><path d="M212,0 l192,0 l0,138.2 l97.5993,25 l0,5 l-383.664,0 l0,-5 l94.0649,-25 l0,-138.2z" /><path d="M404,0 l192,0 l0,138.2 l29.3045,25 l0,5 l-123.705,0 l0,-5 l-97.5993,-25 l0,-138.2z" /><path d="M596,0 l192,0 l0,138.2 l-131.7,25 l0,5 l-30.9956,0 l0,-5 l-29.3045,-25 l0,-138.2z" /><path d="M788,0 l192,0 l0,138.2 l0,25 l0,5 l-323.7,0 l0,-5 l131.7,-25 l0,-138.2z" /></g><g class="axes"><g class="x-axis"><g transform="translate(500 200)"><text class="lab" text-anchor="middle" transform="translate(0 -11)">Genome position</text></g><line x1="20" x2="980" y1="163.2" y2="163.2" /><g class="ticks"><g class="tick" transform="translate(20 163.2)"><line x1="0" x2="0" y1="0" y2="5" /><g transform="translate(0 6)"><text class="lab">0.00</text></g></g><g class="tick" transform="translate(117.935 163.2)"><line x1="0" x2="0" y1="0" y2="5" /><g transform="translate(0 6)"><text class="lab">102.02</text></g></g><g class="tick" transform="translate(501.599 163.2)"><line x1="0" x2="0" y1="0" y2="5" /><g transform="translate(0 6)"><text class="lab">501.67</text></g></g><g class="tick" transform="translate(625.305 163.2)"><line x1="0" x2="0" y1="0" y2="5" /><g transform="translate(0 6)"><text class="lab">630.53</text></g></g><g class="tick" transform="translate(656.3 163.2)"><line x1="0" x2="0" y1="0" y2="5" /><g transform="translate(0 6)"><text class="lab">662.81</text></g></g><g class="tick" transform="translate(980 163.2)"><line x1="0" x2="0" y1="0" y2="5" /><g transform="translate(0 6)"><text class="lab">1000.00</text></g></g></g></g></g><g class="plotbox trees"><g class="tree t0" transform="translate(20 0)"><g class="plotbox"><g class="c2 node n30 p0 root" transform="translate(118.8 26.8)"><g class="a30 c1 node n23 p0" transform="translate(38 61.3017)"><g class="a23 c2 node n20 p0" transform="translate(0.0 12.7086)"><g class="a20 leaf node n5 p0 sample" transform="translate(-7.6 20.5897)"><path class="edge" d="M 0 0 V -20.5897 H 7.6" /><rect class="sym" height="6" width="6" x="-3" y="-3" /><text class="lab" transform="translate(0 11)">5</text></g><g class="a20 leaf node n6 p0 sample" transform="translate(7.6 20.5897)"><path class="edge" d="M 0 0 V -20.5897 H -7.6" /><rect class="sym" height="6" width="6" x="-3" y="-3" /><text class="lab" transform="translate(0 11)">6</text></g><path class="edge" d="M 0 0 V -12.7086 H 0.0" /><circle class="sym" cx="0" cy="0" r="3" /><text class="lab lft" transform="translate(-3 -7.0)">20</text></g><path class="edge" d="M 0 0 V -61.3017 H -38" /><circle class="sym" cx="0" cy="0" r="3" /><text class="lab rgt" transform="translate(3 -7.0)">23</text></g><g class="a30 c2 node n29 p0" transform="translate(-38 47.2236)"><g class="a29 c1 node n27 p0" transform="translate(30.4 3.19208)"><g class="a27 c2 node n19 p0" transform="translate(0.0 25.975)"><g class="a19 c2 node n10 p0" transform="translate(15.2 15.3356)"><g class="a10 leaf node n2 p0 sample" transform="translate(-7.6 2.87372)"><path class="edge" d="M 0 0 V -2.87372 H 7.6" /><rect class="sym" height="6" width="6" x="-3" y="-3" /><text class="lab" transform="translate(0 11)">2</text></g><g class="a10 leaf node n4 p0 sample" transform="translate(7.6 2.87372)"><path class="edge" d="M 0 0 V -2.87372 H -7.6" /><rect class="sym" height="6" width="6" x="-3" y="-3" /><text class="lab" transform="translate(0 11)">4</text></g><path class="edge" d="M 0 0 V -15.3356 H -15.2" /><circle class="sym" cx="0" cy="0" r="3" /><text class="lab rgt" transform="translate(3 -7.0)">10</text></g><g class="a19 c2 node n18 p0" transform="translate(-15.2 1.1837)"><g class="a18 leaf node n9 p0 sample" transform="translate(7.6 17.0256)"><path class="edge" d="M 0 0 V -17.0256 H -7.6" /><rect class="sym" height="6" width="6" x="-3" y="-3" /><text class="lab" transform="translate(0 11)">9</text></g><g class="a18 c1 node n15 p0" transform="translate(-7.6 1.67379)"><g class="a15 leaf node n1 p0 sample" transform="translate(0.0 15.3519)"><path class="edge" d="M 0 0 V -15.3519 H 0.0" /><rect class="sym" height="6" width="6" x="-3" y="-3" /><text class="lab" transform="translate(0 11)">1</text></g><path class="edge" d="M 0 0 V -1.67379 H 7.6" /><circle class="sym" cx="0" cy="0" r="3" /><text class="lab lft" transform="translate(-3 -7.0)">15</text></g><path class="edge" d="M 0 0 V -1.1837 H 15.2" /><circle class="sym" cx="0" cy="0" r="3" /><text class="lab lft" transform="translate(-3 -7.0)">18</text></g><path class="edge" d="M 0 0 V -25.975 H 0.0" /><circle class="sym" cx="0" cy="0" r="3" /><text class="lab lft" transform="translate(-3 -7.0)">19</text></g><path class="edge" d="M 0 0 V -3.19208 H -30.4" /><circle class="sym" cx="0" cy="0" r="3" /><text class="lab rgt" transform="translate(3 -7.0)">27</text></g><g class="a29 c2 node n28 p0" transform="translate(-30.4 2.86246)"><g class="a28 c1 node n24 p0" transform="translate(-15.2 11.0725)"><g class="a24 c1 node n17 p0" transform="translate(0.0 17.4505)"><g class="a17 c2 node n14 p0" transform="translate(0.0 4.33553)"><g class="a14 leaf node n0 p0 sample" transform="translate(-7.6 11.6555)"><path class="edge" d="M 0 0 V -11.6555 H 7.6" /><rect class="sym" height="6" width="6" x="-3" y="-3" /><text class="lab" transform="translate(0 11)">0</text></g><g class="a14 leaf node n8 p0 sample" transform="translate(7.6 11.6555)"><path class="edge" d="M 0 0 V -11.6555 H -7.6" /><rect class="sym" height="6" width="6" x="-3" y="-3" /><text class="lab" transform="translate(0 11)">8</text></g><path class="edge" d="M 0 0 V -4.33553 H 0.0" /><circle class="sym" cx="0" cy="0" r="3" /><text class="lab lft" transform="translate(-3 -7.0)">14</text></g><path class="edge" d="M 0 0 V -17.4505 H 0.0" /><circle class="sym" cx="0" cy="0" r="3" /><text class="lab lft" transform="translate(-3 -7.0)">17</text></g><path class="edge" d="M 0 0 V -11.0725 H 15.2" /><circle class="sym" cx="0" cy="0" r="3" /><text class="lab lft" transform="translate(-3 -7.0)">24</text></g><g class="a28 c1 node n26 p0" transform="translate(15.2 5.55664)"><g class="a26 c1 node n12 p0" transform="translate(0.0 32.5099)"><g class="a12 c2 node n11 p0" transform="translate(0.0 2.71665)"><g class="a11 leaf node n3 p0 sample" transform="translate(-7.6 3.73082)"><path class="edge" d="M 0 0 V -3.73082 H 7.6" /><rect class="sym" height="6" width="6" x="-3" y="-3" /><text class="lab" transform="translate(0 11)">3</text></g><g class="a11 leaf node n7 p0 sample" transform="translate(7.6 3.73082)"><path class="edge" d="M 0 0 V -3.73082 H -7.6" /><rect class="sym" height="6" width="6" x="-3" y="-3" /><text class="lab" transform="translate(0 11)">7</text></g><path class="edge" d="M 0 0 V -2.71665 H 0.0" /><circle class="sym" cx="0" cy="0" r="3" /><text class="lab lft" transform="translate(-3 -7.0)">11</text></g><path class="edge" d="M 0 0 V -32.5099 H 0.0" /><circle class="sym" cx="0" cy="0" r="3" /><text class="lab lft" transform="translate(-3 -7.0)">12</text></g><path class="edge" d="M 0 0 V -5.55664 H -15.2" /><circle class="sym" cx="0" cy="0" r="3" /><text class="lab rgt" transform="translate(3 -7.0)">26</text></g><path class="edge" d="M 0 0 V -2.86246 H 30.4" /><circle class="sym" cx="0" cy="0" r="3" /><text class="lab lft" transform="translate(-3 -7.0)">28</text></g><path class="edge" d="M 0 0 V -47.2236 H 38" /><circle class="sym" cx="0" cy="0" r="3" /><text class="lab lft" transform="translate(-3 -7.0)">29</text></g><circle class="sym" cx="0" cy="0" r="3" /><text class="lab" transform="translate(0 -11)">30</text></g></g></g><g class="tree t1" transform="translate(212 0)"><g class="plotbox"><g class="c2 node n30 p0 root" transform="translate(122.125 26.8)"><g class="a30 c1 node n23 p0" transform="translate(34.675 61.3017)"><g class="a23 c2 node n20 p0" transform="translate(0.0 12.7086)"><g class="a20 leaf node n5 p0 sample" transform="translate(-7.6 20.5897)"><path class="edge" d="M 0 0 V -20.5897 H 7.6" /><rect class="sym" height="6" width="6" x="-3" y="-3" /><text class="lab" transform="translate(0 11)">5</text></g><g class="a20 leaf node n6 p0 sample" transform="translate(7.6 20.5897)"><path class="edge" d="M 0 0 V -20.5897 H -7.6" /><rect class="sym" height="6" width="6" x="-3" y="-3" /><text class="lab" transform="translate(0 11)">6</text></g><path class="edge" d="M 0 0 V -12.7086 H 0.0" /><circle class="sym" cx="0" cy="0" r="3" /><text class="lab lft" transform="translate(-3 -7.0)">20</text></g><path class="edge" d="M 0 0 V -61.3017 H -34.675" /><circle class="sym" cx="0" cy="0" r="3" /><text class="lab rgt" transform="translate(3 -7.0)">23</text></g><g class="a30 c2 node n29 p0" transform="translate(-34.675 47.2236)"><g class="a29 c1 node n27 p0" transform="translate(35.15 3.19208)"><g class="a27 c2 node n19 p0" transform="translate(0.0 25.975)"><g class="a19 c2 node n10 p0" transform="translate(-11.4 15.3356)"><g class="a10 leaf node n2 p0 sample" transform="translate(-7.6 2.87372)"><path class="edge" d="M 0 0 V -2.87372 H 7.6" /><rect class="sym" height="6" width="6" x="-3" y="-3" /><text class="lab" transform="translate(0 11)">2</text></g><g class="a10 leaf node n4 p0 sample" transform="translate(7.6 2.87372)"><path class="edge" d="M 0 0 V -2.87372 H -7.6" /><rect class="sym" height="6" width="6" x="-3" y="-3" /><text class="lab" transform="translate(0 11)">4</text></g><path class="edge" d="M 0 0 V -15.3356 H 11.4" /><circle class="sym" cx="0" cy="0" r="3" /><text class="lab lft" transform="translate(-3 -7.0)">10</text></g><g class="a19 c1 node n18 p0" transform="translate(11.4 1.1837)"><g class="a18 leaf node n9 p0 sample" transform="translate(0.0 17.0256)"><path class="edge" d="M 0 0 V -17.0256 H 0.0" /><rect class="sym" height="6" width="6" x="-3" y="-3" /><text class="lab" transform="translate(0 11)">9</text></g><path class="edge" d="M 0 0 V -1.1837 H -11.4" /><circle class="sym" cx="0" cy="0" r="3" /><text class="lab rgt" transform="translate(3 -7.0)">18</text></g><path class="edge" d="M 0 0 V -25.975 H 0.0" /><circle class="sym" cx="0" cy="0" r="3" /><text class="lab lft" transform="translate(-3 -7.0)">19</text></g><path class="edge" d="M 0 0 V -3.19208 H -35.15" /><circle class="sym" cx="0" cy="0" r="3" /><text class="lab rgt" transform="translate(3 -7.0)">27</text></g><g class="a29 c2 node n28 p0" transform="translate(-35.15 2.86246)"><g class="a28 c1 node n24 p0" transform="translate(-17.1 11.0725)"><g class="a24 c1 node n17 p0" transform="translate(0.0 17.4505)"><g class="a17 c2 node n14 p0" transform="translate(0.0 4.33553)"><g class="a14 leaf node n0 p0 sample" transform="translate(-7.6 11.6555)"><path class="edge" d="M 0 0 V -11.6555 H 7.6" /><rect class="sym" height="6" width="6" x="-3" y="-3" /><text class="lab" transform="translate(0 11)">0</text></g><g class="a14 leaf node n8 p0 sample" transform="translate(7.6 11.6555)"><path class="edge" d="M 0 0 V -11.6555 H -7.6" /><rect class="sym" height="6" width="6" x="-3" y="-3" /><text class="lab" transform="translate(0 11)">8</text></g><path class="edge" d="M 0 0 V -4.33553 H 0.0" /><circle class="sym" cx="0" cy="0" r="3" /><text class="lab lft" transform="translate(-3 -7.0)">14</text></g><path class="edge" d="M 0 0 V -17.4505 H 0.0" /><circle class="sym" cx="0" cy="0" r="3" /><text class="lab lft" transform="translate(-3 -7.0)">17</text></g><path class="edge" d="M 0 0 V -11.0725 H 17.1" /><circle class="sym" cx="0" cy="0" r="3" /><text class="lab lft" transform="translate(-3 -7.0)">24</text></g><g class="a28 c2 node n26 p0" transform="translate(17.1 5.55664)"><g class="a26 c1 node n12 p0" transform="translate(11.4 32.5099)"><g class="a12 c2 node n11 p0" transform="translate(0.0 2.71665)"><g class="a11 leaf node n3 p0 sample" transform="translate(-7.6 3.73082)"><path class="edge" d="M 0 0 V -3.73082 H 7.6" /><rect class="sym" height="6" width="6" x="-3" y="-3" /><text class="lab" transform="translate(0 11)">3</text></g><g class="a11 leaf node n7 p0 sample" transform="translate(7.6 3.73082)"><path class="edge" d="M 0 0 V -3.73082 H -7.6" /><rect class="sym" height="6" width="6" x="-3" y="-3" /><text class="lab" transform="translate(0 11)">7</text></g><path class="edge" d="M 0 0 V -2.71665 H 0.0" /><circle class="sym" cx="0" cy="0" r="3" /><text class="lab lft" transform="translate(-3 -7.0)">11</text></g><path class="edge" d="M 0 0 V -32.5099 H -11.4" /><circle class="sym" cx="0" cy="0" r="3" /><text class="lab rgt" transform="translate(3 -7.0)">12</text></g><g class="a26 c1 node n21 p0" transform="translate(-11.4 5.94029)"><g class="a21 c1 node n16 p0" transform="translate(0.0 17.6652)"><g class="a16 leaf node n1 p0 sample" transform="translate(0.0 15.3519)"><path class="edge" d="M 0 0 V -15.3519 H 0.0" /><rect class="sym" height="6" width="6" x="-3" y="-3" /><text class="lab" transform="translate(0 11)">1</text></g><path class="edge" d="M 0 0 V -17.6652 H 0.0" /><circle class="sym" cx="0" cy="0" r="3" /><text class="lab lft" transform="translate(-3 -7.0)">16</text></g><path class="edge" d="M 0 0 V -5.94029 H 11.4" /><circle class="sym" cx="0" cy="0" r="3" /><text class="lab lft" transform="translate(-3 -7.0)">21</text></g><path class="edge" d="M 0 0 V -5.55664 H -17.1" /><circle class="sym" cx="0" cy="0" r="3" /><text class="lab rgt" transform="translate(3 -7.0)">26</text></g><path class="edge" d="M 0 0 V -2.86246 H 35.15" /><circle class="sym" cx="0" cy="0" r="3" /><text class="lab lft" transform="translate(-3 -7.0)">28</text></g><path class="edge" d="M 0 0 V -47.2236 H 34.675" /><circle class="sym" cx="0" cy="0" r="3" /><text class="lab lft" transform="translate(-3 -7.0)">29</text></g><circle class="sym" cx="0" cy="0" r="3" /><text class="lab" transform="translate(0 -11)">30</text></g></g></g><g class="tree t2" transform="translate(404 0)"><g class="plotbox"><g class="c2 node n30 p0 root" transform="translate(121.175 26.8)"><g class="a30 c1 node n23 p0" transform="translate(35.625 61.3017)"><g class="a23 c2 node n20 p0" transform="translate(0.0 12.7086)"><g class="a20 leaf node n5 p0 sample" transform="translate(-7.6 20.5897)"><path class="edge" d="M 0 0 V -20.5897 H 7.6" /><rect class="sym" height="6" width="6" x="-3" y="-3" /><text class="lab" transform="translate(0 11)">5</text></g><g class="a20 leaf node n6 p0 sample" transform="translate(7.6 20.5897)"><path class="edge" d="M 0 0 V -20.5897 H -7.6" /><rect class="sym" height="6" width="6" x="-3" y="-3" /><text class="lab" transform="translate(0 11)">6</text></g><path class="edge" d="M 0 0 V -12.7086 H 0.0" /><circle class="sym" cx="0" cy="0" r="3" /><text class="lab lft" transform="translate(-3 -7.0)">20</text></g><path class="edge" d="M 0 0 V -61.3017 H -35.625" /><circle class="sym" cx="0" cy="0" r="3" /><text class="lab rgt" transform="translate(3 -7.0)">23</text></g><g class="a30 c2 node n29 p0" transform="translate(-35.625 47.2236)"><g class="a29 c2 node n27 p0" transform="translate(-29.45 3.19208)"><g class="a27 c2 node n19 p0" transform="translate(20.9 25.975)"><g class="a19 c2 node n10 p0" transform="translate(-11.4 15.3356)"><g class="a10 leaf node n2 p0 sample" transform="translate(-7.6 2.87372)"><path class="edge" d="M 0 0 V -2.87372 H 7.6" /><rect class="sym" height="6" width="6" x="-3" y="-3" /><text class="lab" transform="translate(0 11)">2</text></g><g class="a10 leaf node n4 p0 sample" transform="translate(7.6 2.87372)"><path class="edge" d="M 0 0 V -2.87372 H -7.6" /><rect class="sym" height="6" width="6" x="-3" y="-3" /><text class="lab" transform="translate(0 11)">4</text></g><path class="edge" d="M 0 0 V -15.3356 H 11.4" /><circle class="sym" cx="0" cy="0" r="3" /><text class="lab lft" transform="translate(-3 -7.0)">10</text></g><g class="a19 c1 node n18 p0" transform="translate(11.4 1.1837)"><g class="a18 leaf node n9 p0 sample" transform="translate(0.0 17.0256)"><path class="edge" d="M 0 0 V -17.0256 H 0.0" /><rect class="sym" height="6" width="6" x="-3" y="-3" /><text class="lab" transform="translate(0 11)">9</text></g><path class="edge" d="M 0 0 V -1.1837 H -11.4" /><circle class="sym" cx="0" cy="0" r="3" /><text class="lab rgt" transform="translate(3 -7.0)">18</text></g><path class="edge" d="M 0 0 V -25.975 H -20.9" /><circle class="sym" cx="0" cy="0" r="3" /><text class="lab rgt" transform="translate(3 -7.0)">19</text></g><g class="a27 c1 node n25 p0" transform="translate(-20.9 10.7429)"><g class="a25 c1 node n17 p0" transform="translate(0.0 17.4505)"><g class="a17 c2 node n14 p0" transform="translate(0.0 4.33553)"><g class="a14 leaf node n0 p0 sample" transform="translate(-7.6 11.6555)"><path class="edge" d="M 0 0 V -11.6555 H 7.6" /><rect class="sym" height="6" width="6" x="-3" y="-3" /><text class="lab" transform="translate(0 11)">0</text></g><g class="a14 leaf node n8 p0 sample" transform="translate(7.6 11.6555)"><path class="edge" d="M 0 0 V -11.6555 H -7.6" /><rect class="sym" height="6" width="6" x="-3" y="-3" /><text class="lab" transform="translate(0 11)">8</text></g><path class="edge" d="M 0 0 V -4.33553 H 0.0" /><circle class="sym" cx="0" cy="0" r="3" /><text class="lab lft" transform="translate(-3 -7.0)">14</text></g><path class="edge" d="M 0 0 V -17.4505 H 0.0" /><circle class="sym" cx="0" cy="0" r="3" /><text class="lab lft" transform="translate(-3 -7.0)">17</text></g><path class="edge" d="M 0 0 V -10.7429 H 20.9" /><circle class="sym" cx="0" cy="0" r="3" /><text class="lab lft" transform="translate(-3 -7.0)">25</text></g><path class="edge" d="M 0 0 V -3.19208 H 29.45" /><circle class="sym" cx="0" cy="0" r="3" /><text class="lab lft" transform="translate(-3 -7.0)">27</text></g><g class="a29 c1 node n28 p0" transform="translate(29.45 2.86246)"><g class="a28 c2 node n26 p0" transform="translate(0.0 5.55664)"><g class="a26 c1 node n12 p0" transform="translate(11.4 32.5099)"><g class="a12 c2 node n11 p0" transform="translate(0.0 2.71665)"><g class="a11 leaf node n3 p0 sample" transform="translate(-7.6 3.73082)"><path class="edge" d="M 0 0 V -3.73082 H 7.6" /><rect class="sym" height="6" width="6" x="-3" y="-3" /><text class="lab" transform="translate(0 11)">3</text></g><g class="a11 leaf node n7 p0 sample" transform="translate(7.6 3.73082)"><path class="edge" d="M 0 0 V -3.73082 H -7.6" /><rect class="sym" height="6" width="6" x="-3" y="-3" /><text class="lab" transform="translate(0 11)">7</text></g><path class="edge" d="M 0 0 V -2.71665 H 0.0" /><circle class="sym" cx="0" cy="0" r="3" /><text class="lab lft" transform="translate(-3 -7.0)">11</text></g><path class="edge" d="M 0 0 V -32.5099 H -11.4" /><circle class="sym" cx="0" cy="0" r="3" /><text class="lab rgt" transform="translate(3 -7.0)">12</text></g><g class="a26 c1 node n21 p0" transform="translate(-11.4 5.94029)"><g class="a21 c1 node n16 p0" transform="translate(0.0 17.6652)"><g class="a16 leaf node n1 p0 sample" transform="translate(0.0 15.3519)"><path class="edge" d="M 0 0 V -15.3519 H 0.0" /><rect class="sym" height="6" width="6" x="-3" y="-3" /><text class="lab" transform="translate(0 11)">1</text></g><path class="edge" d="M 0 0 V -17.6652 H 0.0" /><circle class="sym" cx="0" cy="0" r="3" /><text class="lab lft" transform="translate(-3 -7.0)">16</text></g><path class="edge" d="M 0 0 V -5.94029 H 11.4" /><circle class="sym" cx="0" cy="0" r="3" /><text class="lab lft" transform="translate(-3 -7.0)">21</text></g><path class="edge" d="M 0 0 V -5.55664 H 0.0" /><circle class="sym" cx="0" cy="0" r="3" /><text class="lab lft" transform="translate(-3 -7.0)">26</text></g><path class="edge" d="M 0 0 V -2.86246 H -29.45" /><circle class="sym" cx="0" cy="0" r="3" /><text class="lab rgt" transform="translate(3 -7.0)">28</text></g><path class="edge" d="M 0 0 V -47.2236 H 35.625" /><circle class="sym" cx="0" cy="0" r="3" /><text class="lab lft" transform="translate(-3 -7.0)">29</text></g><circle class="sym" cx="0" cy="0" r="3" /><text class="lab" transform="translate(0 -11)">30</text></g></g></g><g class="tree t3" transform="translate(596 0)"><g class="plotbox"><g class="c2 node n30 p0 root" transform="translate(114.525 26.8)"><g class="a30 c2 node n23 p0" transform="translate(30.875 61.3017)"><g class="a23 c2 node n20 p0" transform="translate(11.4 12.7086)"><g class="a20 leaf node n5 p0 sample" transform="translate(-7.6 20.5897)"><path class="edge" d="M 0 0 V -20.5897 H 7.6" /><rect class="sym" height="6" width="6" x="-3" y="-3" /><text class="lab" transform="translate(0 11)">5</text></g><g class="a20 leaf node n6 p0 sample" transform="translate(7.6 20.5897)"><path class="edge" d="M 0 0 V -20.5897 H -7.6" /><rect class="sym" height="6" width="6" x="-3" y="-3" /><text class="lab" transform="translate(0 11)">6</text></g><path class="edge" d="M 0 0 V -12.7086 H -11.4" /><circle class="sym" cx="0" cy="0" r="3" /><text class="lab rgt" transform="translate(3 -7.0)">20</text></g><g class="a23 c1 node n22 p0" transform="translate(-11.4 0.281251)"><g class="a22 c1 node n16 p0" transform="translate(0.0 17.6652)"><g class="a16 leaf node n1 p0 sample" transform="translate(0.0 15.3519)"><path class="edge" d="M 0 0 V -15.3519 H 0.0" /><rect class="sym" height="6" width="6" x="-3" y="-3" /><text class="lab" transform="translate(0 11)">1</text></g><path class="edge" d="M 0 0 V -17.6652 H 0.0" /><circle class="sym" cx="0" cy="0" r="3" /><text class="lab lft" transform="translate(-3 -7.0)">16</text></g><path class="edge" d="M 0 0 V -0.281251 H 11.4" /><circle class="sym" cx="0" cy="0" r="3" /><text class="lab lft" transform="translate(-3 -7.0)">22</text></g><path class="edge" d="M 0 0 V -61.3017 H -30.875" /><circle class="sym" cx="0" cy="0" r="3" /><text class="lab rgt" transform="translate(3 -7.0)">23</text></g><g class="a30 c2 node n29 p0" transform="translate(-30.875 47.2236)"><g class="a29 c2 node n27 p0" transform="translate(-27.55 3.19208)"><g class="a27 c2 node n19 p0" transform="translate(20.9 25.975)"><g class="a19 c2 node n10 p0" transform="translate(-11.4 15.3356)"><g class="a10 leaf node n2 p0 sample" transform="translate(-7.6 2.87372)"><path class="edge" d="M 0 0 V -2.87372 H 7.6" /><rect class="sym" height="6" width="6" x="-3" y="-3" /><text class="lab" transform="translate(0 11)">2</text></g><g class="a10 leaf node n4 p0 sample" transform="translate(7.6 2.87372)"><path class="edge" d="M 0 0 V -2.87372 H -7.6" /><rect class="sym" height="6" width="6" x="-3" y="-3" /><text class="lab" transform="translate(0 11)">4</text></g><path class="edge" d="M 0 0 V -15.3356 H 11.4" /><circle class="sym" cx="0" cy="0" r="3" /><text class="lab lft" transform="translate(-3 -7.0)">10</text></g><g class="a19 c1 node n18 p0" transform="translate(11.4 1.1837)"><g class="a18 leaf node n9 p0 sample" transform="translate(0.0 17.0256)"><path class="edge" d="M 0 0 V -17.0256 H 0.0" /><rect class="sym" height="6" width="6" x="-3" y="-3" /><text class="lab" transform="translate(0 11)">9</text></g><path class="edge" d="M 0 0 V -1.1837 H -11.4" /><circle class="sym" cx="0" cy="0" r="3" /><text class="lab rgt" transform="translate(3 -7.0)">18</text></g><path class="edge" d="M 0 0 V -25.975 H -20.9" /><circle class="sym" cx="0" cy="0" r="3" /><text class="lab rgt" transform="translate(3 -7.0)">19</text></g><g class="a27 c1 node n25 p0" transform="translate(-20.9 10.7429)"><g class="a25 c1 node n17 p0" transform="translate(0.0 17.4505)"><g class="a17 c2 node n14 p0" transform="translate(0.0 4.33553)"><g class="a14 leaf node n0 p0 sample" transform="translate(-7.6 11.6555)"><path class="edge" d="M 0 0 V -11.6555 H 7.6" /><rect class="sym" height="6" width="6" x="-3" y="-3" /><text class="lab" transform="translate(0 11)">0</text></g><g class="a14 leaf node n8 p0 sample" transform="translate(7.6 11.6555)"><path class="edge" d="M 0 0 V -11.6555 H -7.6" /><rect class="sym" height="6" width="6" x="-3" y="-3" /><text class="lab" transform="translate(0 11)">8</text></g><path class="edge" d="M 0 0 V -4.33553 H 0.0" /><circle class="sym" cx="0" cy="0" r="3" /><text class="lab lft" transform="translate(-3 -7.0)">14</text></g><path class="edge" d="M 0 0 V -17.4505 H 0.0" /><circle class="sym" cx="0" cy="0" r="3" /><text class="lab lft" transform="translate(-3 -7.0)">17</text></g><path class="edge" d="M 0 0 V -10.7429 H 20.9" /><circle class="sym" cx="0" cy="0" r="3" /><text class="lab lft" transform="translate(-3 -7.0)">25</text></g><path class="edge" d="M 0 0 V -3.19208 H 27.55" /><circle class="sym" cx="0" cy="0" r="3" /><text class="lab lft" transform="translate(-3 -7.0)">27</text></g><g class="a29 c1 node n28 p0" transform="translate(27.55 2.86246)"><g class="a28 c1 node n26 p0" transform="translate(0.0 5.55664)"><g class="a26 c1 node n12 p0" transform="translate(0.0 32.5099)"><g class="a12 c2 node n11 p0" transform="translate(0.0 2.71665)"><g class="a11 leaf node n3 p0 sample" transform="translate(-7.6 3.73082)"><path class="edge" d="M 0 0 V -3.73082 H 7.6" /><rect class="sym" height="6" width="6" x="-3" y="-3" /><text class="lab" transform="translate(0 11)">3</text></g><g class="a11 leaf node n7 p0 sample" transform="translate(7.6 3.73082)"><path class="edge" d="M 0 0 V -3.73082 H -7.6" /><rect class="sym" height="6" width="6" x="-3" y="-3" /><text class="lab" transform="translate(0 11)">7</text></g><path class="edge" d="M 0 0 V -2.71665 H 0.0" /><circle class="sym" cx="0" cy="0" r="3" /><text class="lab lft" transform="translate(-3 -7.0)">11</text></g><path class="edge" d="M 0 0 V -32.5099 H 0.0" /><circle class="sym" cx="0" cy="0" r="3" /><text class="lab lft" transform="translate(-3 -7.0)">12</text></g><path class="edge" d="M 0 0 V -5.55664 H 0.0" /><circle class="sym" cx="0" cy="0" r="3" /><text class="lab lft" transform="translate(-3 -7.0)">26</text></g><path class="edge" d="M 0 0 V -2.86246 H -27.55" /><circle class="sym" cx="0" cy="0" r="3" /><text class="lab rgt" transform="translate(3 -7.0)">28</text></g><path class="edge" d="M 0 0 V -47.2236 H 30.875" /><circle class="sym" cx="0" cy="0" r="3" /><text class="lab lft" transform="translate(-3 -7.0)">29</text></g><circle class="sym" cx="0" cy="0" r="3" /><text class="lab" transform="translate(0 -11)">30</text></g></g></g><g class="tree t4" transform="translate(788 0)"><g class="plotbox"><g class="c2 node n30 p0 root" transform="translate(112.15 26.8)"><g class="a30 c2 node n23 p0" transform="translate(33.25 61.3017)"><g class="a23 c2 node n20 p0" transform="translate(11.4 12.7086)"><g class="a20 leaf node n5 p0 sample" transform="translate(-7.6 20.5897)"><path class="edge" d="M 0 0 V -20.5897 H 7.6" /><rect class="sym" height="6" width="6" x="-3" y="-3" /><text class="lab" transform="translate(0 11)">5</text></g><g class="a20 leaf node n6 p0 sample" transform="translate(7.6 20.5897)"><path class="edge" d="M 0 0 V -20.5897 H -7.6" /><rect class="sym" height="6" width="6" x="-3" y="-3" /><text class="lab" transform="translate(0 11)">6</text></g><path class="edge" d="M 0 0 V -12.7086 H -11.4" /><circle class="sym" cx="0" cy="0" r="3" /><text class="lab rgt" transform="translate(3 -7.0)">20</text></g><g class="a23 c1 node n22 p0" transform="translate(-11.4 0.281251)"><g class="a22 c1 node n16 p0" transform="translate(0.0 17.6652)"><g class="a16 leaf node n1 p0 sample" transform="translate(0.0 15.3519)"><path class="edge" d="M 0 0 V -15.3519 H 0.0" /><rect class="sym" height="6" width="6" x="-3" y="-3" /><text class="lab" transform="translate(0 11)">1</text></g><path class="edge" d="M 0 0 V -17.6652 H 0.0" /><circle class="sym" cx="0" cy="0" r="3" /><text class="lab lft" transform="translate(-3 -7.0)">16</text></g><path class="edge" d="M 0 0 V -0.281251 H 11.4" /><circle class="sym" cx="0" cy="0" r="3" /><text class="lab lft" transform="translate(-3 -7.0)">22</text></g><path class="edge" d="M 0 0 V -61.3017 H -33.25" /><circle class="sym" cx="0" cy="0" r="3" /><text class="lab rgt" transform="translate(3 -7.0)">23</text></g><g class="a30 c1 node n29 p0" transform="translate(-33.25 47.2236)"><g class="a29 c2 node n27 p0" transform="translate(0.0 3.19208)"><g class="a27 c2 node n19 p0" transform="translate(28.5 25.975)"><g class="a19 c2 node n10 p0" transform="translate(-11.4 15.3356)"><g class="a10 leaf node n2 p0 sample" transform="translate(-7.6 2.87372)"><path class="edge" d="M 0 0 V -2.87372 H 7.6" /><rect class="sym" height="6" width="6" x="-3" y="-3" /><text class="lab" transform="translate(0 11)">2</text></g><g class="a10 leaf node n4 p0 sample" transform="translate(7.6 2.87372)"><path class="edge" d="M 0 0 V -2.87372 H -7.6" /><rect class="sym" height="6" width="6" x="-3" y="-3" /><text class="lab" transform="translate(0 11)">4</text></g><path class="edge" d="M 0 0 V -15.3356 H 11.4" /><circle class="sym" cx="0" cy="0" r="3" /><text class="lab lft" transform="translate(-3 -7.0)">10</text></g><g class="a19 c1 node n18 p0" transform="translate(11.4 1.1837)"><g class="a18 leaf node n9 p0 sample" transform="translate(0.0 17.0256)"><path class="edge" d="M 0 0 V -17.0256 H 0.0" /><rect class="sym" height="6" width="6" x="-3" y="-3" /><text class="lab" transform="translate(0 11)">9</text></g><path class="edge" d="M 0 0 V -1.1837 H -11.4" /><circle class="sym" cx="0" cy="0" r="3" /><text class="lab rgt" transform="translate(3 -7.0)">18</text></g><path class="edge" d="M 0 0 V -25.975 H -28.5" /><circle class="sym" cx="0" cy="0" r="3" /><text class="lab rgt" transform="translate(3 -7.0)">19</text></g><g class="a27 c1 node n25 p0" transform="translate(-28.5 10.7429)"><g class="a25 c2 node n17 p0" transform="translate(0.0 17.4505)"><g class="a17 c2 node n14 p0" transform="translate(-15.2 4.33553)"><g class="a14 leaf node n0 p0 sample" transform="translate(-7.6 11.6555)"><path class="edge" d="M 0 0 V -11.6555 H 7.6" /><rect class="sym" height="6" width="6" x="-3" y="-3" /><text class="lab" transform="translate(0 11)">0</text></g><g class="a14 leaf node n8 p0 sample" transform="translate(7.6 11.6555)"><path class="edge" d="M 0 0 V -11.6555 H -7.6" /><rect class="sym" height="6" width="6" x="-3" y="-3" /><text class="lab" transform="translate(0 11)">8</text></g><path class="edge" d="M 0 0 V -4.33553 H 15.2" /><circle class="sym" cx="0" cy="0" r="3" /><text class="lab lft" transform="translate(-3 -7.0)">14</text></g><g class="a17 c1 node n13 p0" transform="translate(15.2 9.54355)"><g class="a13 c2 node n11 p0" transform="translate(0.0 2.71665)"><g class="a11 leaf node n3 p0 sample" transform="translate(-7.6 3.73082)"><path class="edge" d="M 0 0 V -3.73082 H 7.6" /><rect class="sym" height="6" width="6" x="-3" y="-3" /><text class="lab" transform="translate(0 11)">3</text></g><g class="a11 leaf node n7 p0 sample" transform="translate(7.6 3.73082)"><path class="edge" d="M 0 0 V -3.73082 H -7.6" /><rect class="sym" height="6" width="6" x="-3" y="-3" /><text class="lab" transform="translate(0 11)">7</text></g><path class="edge" d="M 0 0 V -2.71665 H 0.0" /><circle class="sym" cx="0" cy="0" r="3" /><text class="lab lft" transform="translate(-3 -7.0)">11</text></g><path class="edge" d="M 0 0 V -9.54355 H -15.2" /><circle class="sym" cx="0" cy="0" r="3" /><text class="lab rgt" transform="translate(3 -7.0)">13</text></g><path class="edge" d="M 0 0 V -17.4505 H 0.0" /><circle class="sym" cx="0" cy="0" r="3" /><text class="lab lft" transform="translate(-3 -7.0)">17</text></g><path class="edge" d="M 0 0 V -10.7429 H 28.5" /><circle class="sym" cx="0" cy="0" r="3" /><text class="lab lft" transform="translate(-3 -7.0)">25</text></g><path class="edge" d="M 0 0 V -3.19208 H 0.0" /><circle class="sym" cx="0" cy="0" r="3" /><text class="lab lft" transform="translate(-3 -7.0)">27</text></g><path class="edge" d="M 0 0 V -47.2236 H 33.25" /><circle class="sym" cx="0" cy="0" r="3" /><text class="lab lft" transform="translate(-3 -7.0)">29</text></g><circle class="sym" cx="0" cy="0" r="3" /><text class="lab" transform="translate(0 -11)">30</text></g></g></g></g></g></svg>
