<svg baseProfile="full" height="200" version="1.1" width="1200" xmlns="http://www.w3.org/2000/svg" xmlns:ev="http://www.w3.org/2001/xml-events" xmlns:xlink="http://www.w3.org/1999/xlink"><defs><style type="text/css"><![CDATA[.background path {fill: #808080; fill-opacity: 0}.background path:nth-child(odd) {fill-opacity: .1}.axes {font-size: 14px}.x-axis .tick .lab {font-weight: bold; dominant-baseline: hanging}.axes, .tree {font-size: 14px; text-anchor: middle}.axes line, .edge {stroke: black; fill: none}.y-axis .grid {stroke: #FAFAFA}.node > .sym {fill: black; stroke: none}.site > .sym {stroke: black}.mut text {fill: red; font-style: italic}.mut.extra text {fill: hotpink}.mut line {fill: none; stroke: none}.mut .sym {fill: none; stroke: red}.mut.extra .sym {stroke: hotpink}.node .mut .sym {stroke-width: 1.5px}.tree text, .tree-sequence text {dominant-baseline: central}.plotbox .lab.lft {text-anchor: end}.plotbox .lab.rgt {text-anchor: start}]]></style></defs><g class="tree-sequence"><g class="background"><path d="M20,0 l193.333,0 l0,138.2 l127.348,25 l0,5 l-320.681,0 l0,-5 l0,-25 l0,-138.2z" /><path d="M213.333,0 l193.333,0 l0,138.2 l107.773,25 l0,5 l-173.759,0 l0,-5 l-127.348,-25 l0,-138.2z" /><path d="M406.667,0 l193.333,0 l0,138.2 l-80.8743,25 l0,5 l-4.68582,0 l0,-5 l-107.773,-25 l0,-138.2z" /><path d="M600,0 l193.333,0 l0,138.2 l132.597,25 l0,5 l-406.805,0 l0,-5 l80.8743,-25 l0,-138.2z" /><path d="M793.333,0 l193.333,0 l0,138.2 l122.798,25 l0,5 l-183.534,0 l0,-5 l-132.597,-25 l0,-138.2z" /><path d="M986.667,0 l193.333,0 l0,138.2 l0,25 l0,5 l-70.5351,0 l0,-5 l-122.798,-25 l0,-138.2z" /></g><g class="axes"><g class="x-axis"><g transform="translate(600 200)"><text class="lab" text-anchor="middle" transform="translate(0 -11)">Genome position</text></g><line x1="20" x2="1180" y1="163.2" y2="163.2" /><g class="ticks"><g class="tick" transform="translate(20 163.2)"><line x1="0" x2="0" y1="0" y2="5" /><g transform="translate(0 6)"><text class="lab">0.00</text></g></g><g class="tick" transform="translate(340.681 163.2)"><line x1="0" x2="0" y1="0" y2="5" /><g transform="translate(0 6)"><text class="lab">276.45</text></g></g><g class="tick" transform="translate(514.44 163.2)"><line x1="0" x2="0" y1="0" y2="5" /><g transform="translate(0 6)"><text class="lab">426.24</text></g></g><g class="tick" transform="translate(519.126 163.2)"><line x1="0" x2="0" y1="0" y2="5" /><g transform="translate(0 6)"><text class="lab">430.28</text></g></g><g class="tick" transform="translate(925.931 163.2)"><line x1="0" x2="0" y1="0" y2="5" /><g transform="translate(0 6)"><text class="lab">780.97</text></g></g><g class="tick" transform="translate(1109.46 163.2)"><line x1="0" x2="0" y1="0" y2="5" /><g transform="translate(0 6)"><text class="lab">939.19</text></g></g><g class="tick" transform="translate(1180 163.2)"><line x1="0" x2="0" y1="0" y2="5" /><g transform="translate(0 6)"><text class="lab">1000.00</text></g></g></g></g></g><g class="plotbox trees"><g class="tree t0" transform="translate(20 0)"><g class="plotbox"><g class="c2 node n33 p0 root" transform="translate(95.9479 26.8)"><g class="a33 c1 node n30 p0" transform="translate(49.1146 45.5167)"><g class="a30 c2 node n27 p0" transform="translate(0.0 3.81442)"><g class="a27 leaf node n2 p0 sample" transform="translate(20.6042 45.2689)"><path class="edge" d="M 0 0 V -45.2689 H -20.6042" /><rect class="sym" height="6" width="6" x="-3" y="-3" /><text class="lab" transform="translate(0 11)">2</text></g><g class="a27 c1 node n25 p0" transform="translate(-20.6042 4.84804)"><g class="a25 c2 node n21 p0" transform="translate(0.0 18.529)"><g class="a21 c2 node n18 p0" transform="translate(-18.2083 5.18846)"><g class="a18 leaf node n5 p0 sample" transform="translate(13.4167 16.7034)"><path class="edge" d="M 0 0 V -16.7034 H -13.4167" /><rect class="sym" height="6" width="6" x="-3" y="-3" /><text class="lab" transform="translate(0 11)">5</text></g><g class="a18 c2 node n14 p0" transform="translate(-13.4167 10.4276)"><g class="a14 leaf node n6 p0 sample" transform="translate(11.5 6.27582)"><path class="edge" d="M 0 0 V -6.27582 H -11.5" /><rect class="sym" height="6" width="6" x="-3" y="-3" /><text class="lab" transform="translate(0 11)">6</text></g><g class="a14 c2 node n11 p0" transform="translate(-11.5 3.72185)"><g class="a11 leaf node n1 p0 sample" transform="translate(-7.66667 2.55397)"><path class="edge" d="M 0 0 V -2.55397 H 7.66667" /><rect class="sym" height="6" width="6" x="-3" y="-3" /><text class="lab" transform="translate(0 11)">1</text></g><g class="a11 leaf node n8 p0 sample" transform="translate(7.66667 2.55397)"><path class="edge" d="M 0 0 V -2.55397 H -7.66667" /><rect class="sym" height="6" width="6" x="-3" y="-3" /><text class="lab" transform="translate(0 11)">8</text></g><path class="edge" d="M 0 0 V -3.72185 H 11.5" /><circle class="sym" cx="0" cy="0" r="3" /><text class="lab lft" transform="translate(-3 -7.0)">11</text></g><path class="edge" d="M 0 0 V -10.4276 H 13.4167" /><circle class="sym" cx="0" cy="0" r="3" /><text class="lab lft" transform="translate(-3 -7.0)">14</text></g><path class="edge" d="M 0 0 V -5.18846 H 18.2083" /><circle class="sym" cx="0" cy="0" r="3" /><text class="lab lft" transform="translate(-3 -7.0)">18</text></g><g class="a21 c1 node n19 p0" transform="translate(18.2083 3.02645)"><g class="a19 c2 node n16 p0" transform="translate(0.0 7.14556)"><g class="a16 leaf node n3 p0 sample" transform="translate(-7.66667 11.7199)"><path class="edge" d="M 0 0 V -11.7199 H 7.66667" /><rect class="sym" height="6" width="6" x="-3" y="-3" /><text class="lab" transform="translate(0 11)">3</text></g><g class="a16 leaf node n9 p0 sample" transform="translate(7.66667 11.7199)"><path class="edge" d="M 0 0 V -11.7199 H -7.66667" /><rect class="sym" height="6" width="6" x="-3" y="-3" /><text class="lab" transform="translate(0 11)">9</text></g><path class="edge" d="M 0 0 V -7.14556 H 0.0" /><circle class="sym" cx="0" cy="0" r="3" /><text class="lab lft" transform="translate(-3 -7.0)">16</text></g><path class="edge" d="M 0 0 V -3.02645 H -18.2083" /><circle class="sym" cx="0" cy="0" r="3" /><text class="lab rgt" transform="translate(3 -7.0)">19</text></g><path class="edge" d="M 0 0 V -18.529 H 0.0" /><circle class="sym" cx="0" cy="0" r="3" /><text class="lab lft" transform="translate(-3 -7.0)">21</text></g><path class="edge" d="M 0 0 V -4.84804 H 20.6042" /><circle class="sym" cx="0" cy="0" r="3" /><text class="lab lft" transform="translate(-3 -7.0)">25</text></g><path class="edge" d="M 0 0 V -3.81442 H 0.0" /><circle class="sym" cx="0" cy="0" r="3" /><text class="lab lft" transform="translate(-3 -7.0)">27</text></g><path class="edge" d="M 0 0 V -45.5167 H -49.1146" /><circle class="sym" cx="0" cy="0" r="3" /><text class="lab rgt" transform="translate(3 -7.0)">30</text></g><g class="a33 c1 node n32 p0" transform="translate(-49.1146 5.60772)"><g class="a32 c1 node n23 p0" transform="translate(0.0 54.4115)"><g class="a23 c1 node n22 p0" transform="translate(0.0 2.45016)"><g class="a22 c1 node n17 p0" transform="translate(0.0 19.9767)"><g class="a17 c2 node n15 p0" transform="translate(0.0 1.37253)"><g class="a15 c2 node n10 p0" transform="translate(-11.5 9.45899)"><g class="a10 leaf node n0 p0 sample" transform="translate(-7.66667 1.32239)"><path class="edge" d="M 0 0 V -1.32239 H 7.66667" /><rect class="sym" height="6" width="6" x="-3" y="-3" /><text class="lab" transform="translate(0 11)">0</text></g><g class="a10 leaf node n7 p0 sample" transform="translate(7.66667 1.32239)"><path class="edge" d="M 0 0 V -1.32239 H -7.66667" /><rect class="sym" height="6" width="6" x="-3" y="-3" /><text class="lab" transform="translate(0 11)">7</text></g><path class="edge" d="M 0 0 V -9.45899 H 11.5" /><circle class="sym" cx="0" cy="0" r="3" /><text class="lab lft" transform="translate(-3 -7.0)">10</text></g><g class="a15 c1 node n12 p0" transform="translate(11.5 6.68701)"><g class="a12 leaf node n4 p0 sample" transform="translate(0.0 4.09437)"><path class="edge" d="M 0 0 V -4.09437 H 0.0" /><rect class="sym" height="6" width="6" x="-3" y="-3" /><text class="lab" transform="translate(0 11)">4</text></g><path class="edge" d="M 0 0 V -6.68701 H -11.5" /><circle class="sym" cx="0" cy="0" r="3" /><text class="lab rgt" transform="translate(3 -7.0)">12</text></g><path class="edge" d="M 0 0 V -1.37253 H 0.0" /><circle class="sym" cx="0" cy="0" r="3" /><text class="lab lft" transform="translate(-3 -7.0)">15</text></g><path class="edge" d="M 0 0 V -19.9767 H 0.0" /><circle class="sym" cx="0" cy="0" r="3" /><text class="lab lft" transform="translate(-3 -7.0)">17</text></g><path class="edge" d="M 0 0 V -2.45016 H 0.0" /><circle class="sym" cx="0" cy="0" r="3" /><text class="lab lft" transform="translate(-3 -7.0)">22</text></g><path class="edge" d="M 0 0 V -54.4115 H 0.0" /><circle class="sym" cx="0" cy="0" r="3" /><text class="lab lft" transform="translate(-3 -7.0)">23</text></g><path class="edge" d="M 0 0 V -5.60772 H 49.1146" /><circle class="sym" cx="0" cy="0" r="3" /><text class="lab lft" transform="translate(-3 -7.0)">32</text></g><circle class="sym" cx="0" cy="0" r="3" /><text class="lab" transform="translate(0 -11)">33</text></g></g></g><g class="tree t1" transform="translate(213.333 0)"><g class="plotbox"><g class="c2 node n33 p0 root" transform="translate(95.9479 26.8)"><g class="a33 c2 node n30 p0" transform="translate(49.1146 45.5167)"><g class="a30 c1 node n27 p0" transform="translate(20.6042 3.81442)"><g class="a27 leaf node n2 p0 sample" transform="translate(0.0 45.2689)"><path class="edge" d="M 0 0 V -45.2689 H 0.0" /><rect class="sym" height="6" width="6" x="-3" y="-3" /><text class="lab" transform="translate(0 11)">2</text></g><path class="edge" d="M 0 0 V -3.81442 H -20.6042" /><circle class="sym" cx="0" cy="0" r="3" /><text class="lab rgt" transform="translate(3 -7.0)">27</text></g><g class="a30 c1 node n26 p0" transform="translate(-20.6042 8.66246)"><g class="a26 c2 node n21 p0" transform="translate(0.0 18.529)"><g class="a21 c2 node n18 p0" transform="translate(-18.2083 5.18846)"><g class="a18 leaf node n5 p0 sample" transform="translate(13.4167 16.7034)"><path class="edge" d="M 0 0 V -16.7034 H -13.4167" /><rect class="sym" height="6" width="6" x="-3" y="-3" /><text class="lab" transform="translate(0 11)">5</text></g><g class="a18 c2 node n14 p0" transform="translate(-13.4167 10.4276)"><g class="a14 leaf node n6 p0 sample" transform="translate(11.5 6.27582)"><path class="edge" d="M 0 0 V -6.27582 H -11.5" /><rect class="sym" height="6" width="6" x="-3" y="-3" /><text class="lab" transform="translate(0 11)">6</text></g><g class="a14 c2 node n11 p0" transform="translate(-11.5 3.72185)"><g class="a11 leaf node n1 p0 sample" transform="translate(-7.66667 2.55397)"><path class="edge" d="M 0 0 V -2.55397 H 7.66667" /><rect class="sym" height="6" width="6" x="-3" y="-3" /><text class="lab" transform="translate(0 11)">1</text></g><g class="a11 leaf node n8 p0 sample" transform="translate(7.66667 2.55397)"><path class="edge" d="M 0 0 V -2.55397 H -7.66667" /><rect class="sym" height="6" width="6" x="-3" y="-3" /><text class="lab" transform="translate(0 11)">8</text></g><path class="edge" d="M 0 0 V -3.72185 H 11.5" /><circle class="sym" cx="0" cy="0" r="3" /><text class="lab lft" transform="translate(-3 -7.0)">11</text></g><path class="edge" d="M 0 0 V -10.4276 H 13.4167" /><circle class="sym" cx="0" cy="0" r="3" /><text class="lab lft" transform="translate(-3 -7.0)">14</text></g><path class="edge" d="M 0 0 V -5.18846 H 18.2083" /><circle class="sym" cx="0" cy="0" r="3" /><text class="lab lft" transform="translate(-3 -7.0)">18</text></g><g class="a21 c1 node n19 p0" transform="translate(18.2083 3.02645)"><g class="a19 c2 node n16 p0" transform="translate(0.0 7.14556)"><g class="a16 leaf node n3 p0 sample" transform="translate(-7.66667 11.7199)"><path class="edge" d="M 0 0 V -11.7199 H 7.66667" /><rect class="sym" height="6" width="6" x="-3" y="-3" /><text class="lab" transform="translate(0 11)">3</text></g><g class="a16 leaf node n9 p0 sample" transform="translate(7.66667 11.7199)"><path class="edge" d="M 0 0 V -11.7199 H -7.66667" /><rect class="sym" height="6" width="6" x="-3" y="-3" /><text class="lab" transform="translate(0 11)">9</text></g><path class="edge" d="M 0 0 V -7.14556 H 0.0" /><circle class="sym" cx="0" cy="0" r="3" /><text class="lab lft" transform="translate(-3 -7.0)">16</text></g><path class="edge" d="M 0 0 V -3.02645 H -18.2083" /><circle class="sym" cx="0" cy="0" r="3" /><text class="lab rgt" transform="translate(3 -7.0)">19</text></g><path class="edge" d="M 0 0 V -18.529 H 0.0" /><circle class="sym" cx="0" cy="0" r="3" /><text class="lab lft" transform="translate(-3 -7.0)">21</text></g><path class="edge" d="M 0 0 V -8.66246 H 20.6042" /><circle class="sym" cx="0" cy="0" r="3" /><text class="lab lft" transform="translate(-3 -7.0)">26</text></g><path class="edge" d="M 0 0 V -45.5167 H -49.1146" /><circle class="sym" cx="0" cy="0" r="3" /><text class="lab rgt" transform="translate(3 -7.0)">30</text></g><g class="a33 c1 node n32 p0" transform="translate(-49.1146 5.60772)"><g class="a32 c1 node n23 p0" transform="translate(0.0 54.4115)"><g class="a23 c1 node n22 p0" transform="translate(0.0 2.45016)"><g class="a22 c1 node n17 p0" transform="translate(0.0 19.9767)"><g class="a17 c2 node n15 p0" transform="translate(0.0 1.37253)"><g class="a15 c2 node n10 p0" transform="translate(-11.5 9.45899)"><g class="a10 leaf node n0 p0 sample" transform="translate(-7.66667 1.32239)"><path class="edge" d="M 0 0 V -1.32239 H 7.66667" /><rect class="sym" height="6" width="6" x="-3" y="-3" /><text class="lab" transform="translate(0 11)">0</text></g><g class="a10 leaf node n7 p0 sample" transform="translate(7.66667 1.32239)"><path class="edge" d="M 0 0 V -1.32239 H -7.66667" /><rect class="sym" height="6" width="6" x="-3" y="-3" /><text class="lab" transform="translate(0 11)">7</text></g><path class="edge" d="M 0 0 V -9.45899 H 11.5" /><circle class="sym" cx="0" cy="0" r="3" /><text class="lab lft" transform="translate(-3 -7.0)">10</text></g><g class="a15 c1 node n12 p0" transform="translate(11.5 6.68701)"><g class="a12 leaf node n4 p0 sample" transform="translate(0.0 4.09437)"><path class="edge" d="M 0 0 V -4.09437 H 0.0" /><rect class="sym" height="6" width="6" x="-3" y="-3" /><text class="lab" transform="translate(0 11)">4</text></g><path class="edge" d="M 0 0 V -6.68701 H -11.5" /><circle class="sym" cx="0" cy="0" r="3" /><text class="lab rgt" transform="translate(3 -7.0)">12</text></g><path class="edge" d="M 0 0 V -1.37253 H 0.0" /><circle class="sym" cx="0" cy="0" r="3" /><text class="lab lft" transform="translate(-3 -7.0)">15</text></g><path class="edge" d="M 0 0 V -19.9767 H 0.0" /><circle class="sym" cx="0" cy="0" r="3" /><text class="lab lft" transform="translate(-3 -7.0)">17</text></g><path class="edge" d="M 0 0 V -2.45016 H 0.0" /><circle class="sym" cx="0" cy="0" r="3" /><text class="lab lft" transform="translate(-3 -7.0)">22</text></g><path class="edge" d="M 0 0 V -54.4115 H 0.0" /><circle class="sym" cx="0" cy="0" r="3" /><text class="lab lft" transform="translate(-3 -7.0)">23</text></g><path class="edge" d="M 0 0 V -5.60772 H 49.1146" /><circle class="sym" cx="0" cy="0" r="3" /><text class="lab lft" transform="translate(-3 -7.0)">32</text></g><circle class="sym" cx="0" cy="0" r="3" /><text class="lab" transform="translate(0 -11)">33</text></g></g></g><g class="tree t2" transform="translate(406.667 0)"><g class="plotbox"><g class="c2 node n33 p0 root" transform="translate(95.9479 26.8)"><g class="a33 c2 node n30 p0" transform="translate(49.1146 45.5167)"><g class="a30 c1 node n27 p0" transform="translate(20.6042 3.81442)"><g class="a27 leaf node n2 p0 sample" transform="translate(0.0 45.2689)"><path class="edge" d="M 0 0 V -45.2689 H 0.0" /><rect class="sym" height="6" width="6" x="-3" y="-3" /><text class="lab" transform="translate(0 11)">2</text></g><path class="edge" d="M 0 0 V -3.81442 H -20.6042" /><circle class="sym" cx="0" cy="0" r="3" /><text class="lab rgt" transform="translate(3 -7.0)">27</text></g><g class="a30 c1 node n26 p0" transform="translate(-20.6042 8.66246)"><g class="a26 c2 node n21 p0" transform="translate(0.0 18.529)"><g class="a21 c2 node n18 p0" transform="translate(-18.2083 5.18846)"><g class="a18 leaf node n5 p0 sample" transform="translate(13.4167 16.7034)"><path class="edge" d="M 0 0 V -16.7034 H -13.4167" /><rect class="sym" height="6" width="6" x="-3" y="-3" /><text class="lab" transform="translate(0 11)">5</text></g><g class="a18 c2 node n14 p0" transform="translate(-13.4167 10.4276)"><g class="a14 leaf node n6 p0 sample" transform="translate(11.5 6.27582)"><path class="edge" d="M 0 0 V -6.27582 H -11.5" /><rect class="sym" height="6" width="6" x="-3" y="-3" /><text class="lab" transform="translate(0 11)">6</text></g><g class="a14 c2 node n11 p0" transform="translate(-11.5 3.72185)"><g class="a11 leaf node n1 p0 sample" transform="translate(-7.66667 2.55397)"><path class="edge" d="M 0 0 V -2.55397 H 7.66667" /><rect class="sym" height="6" width="6" x="-3" y="-3" /><text class="lab" transform="translate(0 11)">1</text></g><g class="a11 leaf node n8 p0 sample" transform="translate(7.66667 2.55397)"><path class="edge" d="M 0 0 V -2.55397 H -7.66667" /><rect class="sym" height="6" width="6" x="-3" y="-3" /><text class="lab" transform="translate(0 11)">8</text></g><path class="edge" d="M 0 0 V -3.72185 H 11.5" /><circle class="sym" cx="0" cy="0" r="3" /><text class="lab lft" transform="translate(-3 -7.0)">11</text></g><path class="edge" d="M 0 0 V -10.4276 H 13.4167" /><circle class="sym" cx="0" cy="0" r="3" /><text class="lab lft" transform="translate(-3 -7.0)">14</text></g><path class="edge" d="M 0 0 V -5.18846 H 18.2083" /><circle class="sym" cx="0" cy="0" r="3" /><text class="lab lft" transform="translate(-3 -7.0)">18</text></g><g class="a21 c1 node n19 p0" transform="translate(18.2083 3.02645)"><g class="a19 c2 node n16 p0" transform="translate(0.0 7.14556)"><g class="a16 leaf node n3 p0 sample" transform="translate(-7.66667 11.7199)"><path class="edge" d="M 0 0 V -11.7199 H 7.66667" /><rect class="sym" height="6" width="6" x="-3" y="-3" /><text class="lab" transform="translate(0 11)">3</text></g><g class="a16 leaf node n9 p0 sample" transform="translate(7.66667 11.7199)"><path class="edge" d="M 0 0 V -11.7199 H -7.66667" /><rect class="sym" height="6" width="6" x="-3" y="-3" /><text class="lab" transform="translate(0 11)">9</text></g><path class="edge" d="M 0 0 V -7.14556 H 0.0" /><circle class="sym" cx="0" cy="0" r="3" /><text class="lab lft" transform="translate(-3 -7.0)">16</text></g><path class="edge" d="M 0 0 V -3.02645 H -18.2083" /><circle class="sym" cx="0" cy="0" r="3" /><text class="lab rgt" transform="translate(3 -7.0)">19</text></g><path class="edge" d="M 0 0 V -18.529 H 0.0" /><circle class="sym" cx="0" cy="0" r="3" /><text class="lab lft" transform="translate(-3 -7.0)">21</text></g><path class="edge" d="M 0 0 V -8.66246 H 20.6042" /><circle class="sym" cx="0" cy="0" r="3" /><text class="lab lft" transform="translate(-3 -7.0)">26</text></g><path class="edge" d="M 0 0 V -45.5167 H -49.1146" /><circle class="sym" cx="0" cy="0" r="3" /><text class="lab rgt" transform="translate(3 -7.0)">30</text></g><g class="a33 c1 node n32 p0" transform="translate(-49.1146 5.60772)"><g class="a32 c1 node n31 p0" transform="translate(0.0 18.2305)"><g class="a31 c1 node n28 p0" transform="translate(0.0 24.1505)"><g class="a28 c1 node n24 p0" transform="translate(0.0 12.0304)"><g class="a24 c1 node n22 p0" transform="translate(0.0 2.45016)"><g class="a22 c1 node n17 p0" transform="translate(0.0 19.9767)"><g class="a17 c2 node n15 p0" transform="translate(0.0 1.37253)"><g class="a15 c2 node n10 p0" transform="translate(-11.5 9.45899)"><g class="a10 leaf node n0 p0 sample" transform="translate(-7.66667 1.32239)"><path class="edge" d="M 0 0 V -1.32239 H 7.66667" /><rect class="sym" height="6" width="6" x="-3" y="-3" /><text class="lab" transform="translate(0 11)">0</text></g><g class="a10 leaf node n7 p0 sample" transform="translate(7.66667 1.32239)"><path class="edge" d="M 0 0 V -1.32239 H -7.66667" /><rect class="sym" height="6" width="6" x="-3" y="-3" /><text class="lab" transform="translate(0 11)">7</text></g><path class="edge" d="M 0 0 V -9.45899 H 11.5" /><circle class="sym" cx="0" cy="0" r="3" /><text class="lab lft" transform="translate(-3 -7.0)">10</text></g><g class="a15 c1 node n12 p0" transform="translate(11.5 6.68701)"><g class="a12 leaf node n4 p0 sample" transform="translate(0.0 4.09437)"><path class="edge" d="M 0 0 V -4.09437 H 0.0" /><rect class="sym" height="6" width="6" x="-3" y="-3" /><text class="lab" transform="translate(0 11)">4</text></g><path class="edge" d="M 0 0 V -6.68701 H -11.5" /><circle class="sym" cx="0" cy="0" r="3" /><text class="lab rgt" transform="translate(3 -7.0)">12</text></g><path class="edge" d="M 0 0 V -1.37253 H 0.0" /><circle class="sym" cx="0" cy="0" r="3" /><text class="lab lft" transform="translate(-3 -7.0)">15</text></g><path class="edge" d="M 0 0 V -19.9767 H 0.0" /><circle class="sym" cx="0" cy="0" r="3" /><text class="lab lft" transform="translate(-3 -7.0)">17</text></g><path class="edge" d="M 0 0 V -2.45016 H 0.0" /><circle class="sym" cx="0" cy="0" r="3" /><text class="lab lft" transform="translate(-3 -7.0)">22</text></g><path class="edge" d="M 0 0 V -12.0304 H 0.0" /><circle class="sym" cx="0" cy="0" r="3" /><text class="lab lft" transform="translate(-3 -7.0)">24</text></g><path class="edge" d="M 0 0 V -24.1505 H 0.0" /><circle class="sym" cx="0" cy="0" r="3" /><text class="lab lft" transform="translate(-3 -7.0)">28</text></g><path class="edge" d="M 0 0 V -18.2305 H 0.0" /><circle class="sym" cx="0" cy="0" r="3" /><text class="lab lft" transform="translate(-3 -7.0)">31</text></g><path class="edge" d="M 0 0 V -5.60772 H 49.1146" /><circle class="sym" cx="0" cy="0" r="3" /><text class="lab lft" transform="translate(-3 -7.0)">32</text></g><circle class="sym" cx="0" cy="0" r="3" /><text class="lab" transform="translate(0 -11)">33</text></g></g></g><g class="tree t3" transform="translate(600 0)"><g class="plotbox"><g class="c2 node n33 p0 root" transform="translate(107.688 26.8)"><g class="a33 c2 node n30 p0" transform="translate(43.6042 45.5167)"><g class="a30 c1 node n27 p0" transform="translate(14.375 3.81442)"><g class="a27 leaf node n2 p0 sample" transform="translate(0.0 45.2689)"><path class="edge" d="M 0 0 V -45.2689 H 0.0" /><rect class="sym" height="6" width="6" x="-3" y="-3" /><text class="lab" transform="translate(0 11)">2</text></g><path class="edge" d="M 0 0 V -3.81442 H -14.375" /><circle class="sym" cx="0" cy="0" r="3" /><text class="lab rgt" transform="translate(3 -7.0)">27</text></g><g class="a30 c1 node n26 p0" transform="translate(-14.375 8.66246)"><g class="a26 c1 node n21 p0" transform="translate(0.0 18.529)"><g class="a21 c2 node n18 p0" transform="translate(0.0 5.18846)"><g class="a18 leaf node n5 p0 sample" transform="translate(13.4167 16.7034)"><path class="edge" d="M 0 0 V -16.7034 H -13.4167" /><rect class="sym" height="6" width="6" x="-3" y="-3" /><text class="lab" transform="translate(0 11)">5</text></g><g class="a18 c2 node n14 p0" transform="translate(-13.4167 10.4276)"><g class="a14 leaf node n6 p0 sample" transform="translate(11.5 6.27582)"><path class="edge" d="M 0 0 V -6.27582 H -11.5" /><rect class="sym" height="6" width="6" x="-3" y="-3" /><text class="lab" transform="translate(0 11)">6</text></g><g class="a14 c2 node n11 p0" transform="translate(-11.5 3.72185)"><g class="a11 leaf node n1 p0 sample" transform="translate(-7.66667 2.55397)"><path class="edge" d="M 0 0 V -2.55397 H 7.66667" /><rect class="sym" height="6" width="6" x="-3" y="-3" /><text class="lab" transform="translate(0 11)">1</text></g><g class="a11 leaf node n8 p0 sample" transform="translate(7.66667 2.55397)"><path class="edge" d="M 0 0 V -2.55397 H -7.66667" /><rect class="sym" height="6" width="6" x="-3" y="-3" /><text class="lab" transform="translate(0 11)">8</text></g><path class="edge" d="M 0 0 V -3.72185 H 11.5" /><circle class="sym" cx="0" cy="0" r="3" /><text class="lab lft" transform="translate(-3 -7.0)">11</text></g><path class="edge" d="M 0 0 V -10.4276 H 13.4167" /><circle class="sym" cx="0" cy="0" r="3" /><text class="lab lft" transform="translate(-3 -7.0)">14</text></g><path class="edge" d="M 0 0 V -5.18846 H 0.0" /><circle class="sym" cx="0" cy="0" r="3" /><text class="lab lft" transform="translate(-3 -7.0)">18</text></g><path class="edge" d="M 0 0 V -18.529 H 0.0" /><circle class="sym" cx="0" cy="0" r="3" /><text class="lab lft" transform="translate(-3 -7.0)">21</text></g><path class="edge" d="M 0 0 V -8.66246 H 14.375" /><circle class="sym" cx="0" cy="0" r="3" /><text class="lab lft" transform="translate(-3 -7.0)">26</text></g><path class="edge" d="M 0 0 V -45.5167 H -43.6042" /><circle class="sym" cx="0" cy="0" r="3" /><text class="lab rgt" transform="translate(3 -7.0)">30</text></g><g class="a33 c1 node n32 p0" transform="translate(-43.6042 5.60772)"><g class="a32 c1 node n31 p0" transform="translate(0.0 18.2305)"><g class="a31 c1 node n28 p0" transform="translate(0.0 24.1505)"><g class="a28 c1 node n24 p0" transform="translate(0.0 12.0304)"><g class="a24 c2 node n22 p0" transform="translate(0.0 2.45016)"><g class="a22 c1 node n17 p0" transform="translate(-17.25 19.9767)"><g class="a17 c2 node n15 p0" transform="translate(0.0 1.37253)"><g class="a15 c2 node n10 p0" transform="translate(-11.5 9.45899)"><g class="a10 leaf node n0 p0 sample" transform="translate(-7.66667 1.32239)"><path class="edge" d="M 0 0 V -1.32239 H 7.66667" /><rect class="sym" height="6" width="6" x="-3" y="-3" /><text class="lab" transform="translate(0 11)">0</text></g><g class="a10 leaf node n7 p0 sample" transform="translate(7.66667 1.32239)"><path class="edge" d="M 0 0 V -1.32239 H -7.66667" /><rect class="sym" height="6" width="6" x="-3" y="-3" /><text class="lab" transform="translate(0 11)">7</text></g><path class="edge" d="M 0 0 V -9.45899 H 11.5" /><circle class="sym" cx="0" cy="0" r="3" /><text class="lab lft" transform="translate(-3 -7.0)">10</text></g><g class="a15 c1 node n12 p0" transform="translate(11.5 6.68701)"><g class="a12 leaf node n4 p0 sample" transform="translate(0.0 4.09437)"><path class="edge" d="M 0 0 V -4.09437 H 0.0" /><rect class="sym" height="6" width="6" x="-3" y="-3" /><text class="lab" transform="translate(0 11)">4</text></g><path class="edge" d="M 0 0 V -6.68701 H -11.5" /><circle class="sym" cx="0" cy="0" r="3" /><text class="lab rgt" transform="translate(3 -7.0)">12</text></g><path class="edge" d="M 0 0 V -1.37253 H 0.0" /><circle class="sym" cx="0" cy="0" r="3" /><text class="lab lft" transform="translate(-3 -7.0)">15</text></g><path class="edge" d="M 0 0 V -19.9767 H 17.25" /><circle class="sym" cx="0" cy="0" r="3" /><text class="lab lft" transform="translate(-3 -7.0)">17</text></g><g class="a22 c1 node n20 p0" transform="translate(17.25 13.2652)"><g class="a20 c2 node n16 p0" transform="translate(0.0 7.14556)"><g class="a16 leaf node n3 p0 sample" transform="translate(-7.66667 11.7199)"><path class="edge" d="M 0 0 V -11.7199 H 7.66667" /><rect class="sym" height="6" width="6" x="-3" y="-3" /><text class="lab" transform="translate(0 11)">3</text></g><g class="a16 leaf node n9 p0 sample" transform="translate(7.66667 11.7199)"><path class="edge" d="M 0 0 V -11.7199 H -7.66667" /><rect class="sym" height="6" width="6" x="-3" y="-3" /><text class="lab" transform="translate(0 11)">9</text></g><path class="edge" d="M 0 0 V -7.14556 H 0.0" /><circle class="sym" cx="0" cy="0" r="3" /><text class="lab lft" transform="translate(-3 -7.0)">16</text></g><path class="edge" d="M 0 0 V -13.2652 H -17.25" /><circle class="sym" cx="0" cy="0" r="3" /><text class="lab rgt" transform="translate(3 -7.0)">20</text></g><path class="edge" d="M 0 0 V -2.45016 H 0.0" /><circle class="sym" cx="0" cy="0" r="3" /><text class="lab lft" transform="translate(-3 -7.0)">22</text></g><path class="edge" d="M 0 0 V -12.0304 H 0.0" /><circle class="sym" cx="0" cy="0" r="3" /><text class="lab lft" transform="translate(-3 -7.0)">24</text></g><path class="edge" d="M 0 0 V -24.1505 H 0.0" /><circle class="sym" cx="0" cy="0" r="3" /><text class="lab lft" transform="translate(-3 -7.0)">28</text></g><path class="edge" d="M 0 0 V -18.2305 H 0.0" /><circle class="sym" cx="0" cy="0" r="3" /><text class="lab lft" transform="translate(-3 -7.0)">31</text></g><path class="edge" d="M 0 0 V -5.60772 H 43.6042" /><circle class="sym" cx="0" cy="0" r="3" /><text class="lab lft" transform="translate(-3 -7.0)">32</text></g><circle class="sym" cx="0" cy="0" r="3" /><text class="lab" transform="translate(0 -11)">33</text></g></g></g><g class="tree t4" transform="translate(793.333 0)"><g class="plotbox"><g class="c2 node n33 p0 root" transform="translate(107.688 26.8)"><g class="a33 c2 node n30 p0" transform="translate(43.6042 45.5167)"><g class="a30 c1 node n27 p0" transform="translate(14.375 3.81442)"><g class="a27 leaf node n2 p0 sample" transform="translate(0.0 45.2689)"><path class="edge" d="M 0 0 V -45.2689 H 0.0" /><rect class="sym" height="6" width="6" x="-3" y="-3" /><text class="lab" transform="translate(0 11)">2</text></g><path class="edge" d="M 0 0 V -3.81442 H -14.375" /><circle class="sym" cx="0" cy="0" r="3" /><text class="lab rgt" transform="translate(3 -7.0)">27</text></g><g class="a30 c1 node n26 p0" transform="translate(-14.375 8.66246)"><g class="a26 c1 node n21 p0" transform="translate(0.0 18.529)"><g class="a21 c2 node n18 p0" transform="translate(0.0 5.18846)"><g class="a18 leaf node n5 p0 sample" transform="translate(13.4167 16.7034)"><path class="edge" d="M 0 0 V -16.7034 H -13.4167" /><rect class="sym" height="6" width="6" x="-3" y="-3" /><text class="lab" transform="translate(0 11)">5</text></g><g class="a18 c2 node n14 p0" transform="translate(-13.4167 10.4276)"><g class="a14 leaf node n6 p0 sample" transform="translate(11.5 6.27582)"><path class="edge" d="M 0 0 V -6.27582 H -11.5" /><rect class="sym" height="6" width="6" x="-3" y="-3" /><text class="lab" transform="translate(0 11)">6</text></g><g class="a14 c2 node n11 p0" transform="translate(-11.5 3.72185)"><g class="a11 leaf node n1 p0 sample" transform="translate(-7.66667 2.55397)"><path class="edge" d="M 0 0 V -2.55397 H 7.66667" /><rect class="sym" height="6" width="6" x="-3" y="-3" /><text class="lab" transform="translate(0 11)">1</text></g><g class="a11 leaf node n8 p0 sample" transform="translate(7.66667 2.55397)"><path class="edge" d="M 0 0 V -2.55397 H -7.66667" /><rect class="sym" height="6" width="6" x="-3" y="-3" /><text class="lab" transform="translate(0 11)">8</text></g><path class="edge" d="M 0 0 V -3.72185 H 11.5" /><circle class="sym" cx="0" cy="0" r="3" /><text class="lab lft" transform="translate(-3 -7.0)">11</text></g><path class="edge" d="M 0 0 V -10.4276 H 13.4167" /><circle class="sym" cx="0" cy="0" r="3" /><text class="lab lft" transform="translate(-3 -7.0)">14</text></g><path class="edge" d="M 0 0 V -5.18846 H 0.0" /><circle class="sym" cx="0" cy="0" r="3" /><text class="lab lft" transform="translate(-3 -7.0)">18</text></g><path class="edge" d="M 0 0 V -18.529 H 0.0" /><circle class="sym" cx="0" cy="0" r="3" /><text class="lab lft" transform="translate(-3 -7.0)">21</text></g><path class="edge" d="M 0 0 V -8.66246 H 14.375" /><circle class="sym" cx="0" cy="0" r="3" /><text class="lab lft" transform="translate(-3 -7.0)">26</text></g><path class="edge" d="M 0 0 V -45.5167 H -43.6042" /><circle class="sym" cx="0" cy="0" r="3" /><text class="lab rgt" transform="translate(3 -7.0)">30</text></g><g class="a33 c1 node n32 p0" transform="translate(-43.6042 5.60772)"><g class="a32 c1 node n31 p0" transform="translate(0.0 18.2305)"><g class="a31 c1 node n28 p0" transform="translate(0.0 24.1505)"><g class="a28 c1 node n24 p0" transform="translate(0.0 12.0304)"><g class="a24 c2 node n22 p0" transform="translate(0.0 2.45016)"><g class="a22 c2 node n17 p0" transform="translate(-17.25 19.9767)"><g class="a17 c1 node n15 p0" transform="translate(-11.5 1.37253)"><g class="a15 c2 node n10 p0" transform="translate(0.0 9.45899)"><g class="a10 leaf node n0 p0 sample" transform="translate(-7.66667 1.32239)"><path class="edge" d="M 0 0 V -1.32239 H 7.66667" /><rect class="sym" height="6" width="6" x="-3" y="-3" /><text class="lab" transform="translate(0 11)">0</text></g><g class="a10 leaf node n7 p0 sample" transform="translate(7.66667 1.32239)"><path class="edge" d="M 0 0 V -1.32239 H -7.66667" /><rect class="sym" height="6" width="6" x="-3" y="-3" /><text class="lab" transform="translate(0 11)">7</text></g><path class="edge" d="M 0 0 V -9.45899 H 0.0" /><circle class="sym" cx="0" cy="0" r="3" /><text class="lab lft" transform="translate(-3 -7.0)">10</text></g><path class="edge" d="M 0 0 V -1.37253 H 11.5" /><circle class="sym" cx="0" cy="0" r="3" /><text class="lab lft" transform="translate(-3 -7.0)">15</text></g><g class="a17 c1 node n13 p0" transform="translate(11.5 8.05954)"><g class="a13 leaf node n4 p0 sample" transform="translate(0.0 4.09437)"><path class="edge" d="M 0 0 V -4.09437 H 0.0" /><rect class="sym" height="6" width="6" x="-3" y="-3" /><text class="lab" transform="translate(0 11)">4</text></g><path class="edge" d="M 0 0 V -8.05954 H -11.5" /><circle class="sym" cx="0" cy="0" r="3" /><text class="lab rgt" transform="translate(3 -7.0)">13</text></g><path class="edge" d="M 0 0 V -19.9767 H 17.25" /><circle class="sym" cx="0" cy="0" r="3" /><text class="lab lft" transform="translate(-3 -7.0)">17</text></g><g class="a22 c1 node n20 p0" transform="translate(17.25 13.2652)"><g class="a20 c2 node n16 p0" transform="translate(0.0 7.14556)"><g class="a16 leaf node n3 p0 sample" transform="translate(-7.66667 11.7199)"><path class="edge" d="M 0 0 V -11.7199 H 7.66667" /><rect class="sym" height="6" width="6" x="-3" y="-3" /><text class="lab" transform="translate(0 11)">3</text></g><g class="a16 leaf node n9 p0 sample" transform="translate(7.66667 11.7199)"><path class="edge" d="M 0 0 V -11.7199 H -7.66667" /><rect class="sym" height="6" width="6" x="-3" y="-3" /><text class="lab" transform="translate(0 11)">9</text></g><path class="edge" d="M 0 0 V -7.14556 H 0.0" /><circle class="sym" cx="0" cy="0" r="3" /><text class="lab lft" transform="translate(-3 -7.0)">16</text></g><path class="edge" d="M 0 0 V -13.2652 H -17.25" /><circle class="sym" cx="0" cy="0" r="3" /><text class="lab rgt" transform="translate(3 -7.0)">20</text></g><path class="edge" d="M 0 0 V -2.45016 H 0.0" /><circle class="sym" cx="0" cy="0" r="3" /><text class="lab lft" transform="translate(-3 -7.0)">22</text></g><path class="edge" d="M 0 0 V -12.0304 H 0.0" /><circle class="sym" cx="0" cy="0" r="3" /><text class="lab lft" transform="translate(-3 -7.0)">24</text></g><path class="edge" d="M 0 0 V -24.1505 H 0.0" /><circle class="sym" cx="0" cy="0" r="3" /><text class="lab lft" transform="translate(-3 -7.0)">28</text></g><path class="edge" d="M 0 0 V -18.2305 H 0.0" /><circle class="sym" cx="0" cy="0" r="3" /><text class="lab lft" transform="translate(-3 -7.0)">31</text></g><path class="edge" d="M 0 0 V -5.60772 H 43.6042" /><circle class="sym" cx="0" cy="0" r="3" /><text class="lab lft" transform="translate(-3 -7.0)">32</text></g><circle class="sym" cx="0" cy="0" r="3" /><text class="lab" transform="translate(0 -11)">33</text></g></g></g><g class="tree t5" transform="translate(986.667 0)"><g class="plotbox"><g class="c2 node n33 p0 root" transform="translate(107.688 26.8)"><g class="a33 c2 node n30 p0" transform="translate(43.6042 45.5167)"><g class="a30 c1 node n27 p0" transform="translate(14.375 3.81442)"><g class="a27 leaf node n2 p0 sample" transform="translate(0.0 45.2689)"><path class="edge" d="M 0 0 V -45.2689 H 0.0" /><rect class="sym" height="6" width="6" x="-3" y="-3" /><text class="lab" transform="translate(0 11)">2</text></g><path class="edge" d="M 0 0 V -3.81442 H -14.375" /><circle class="sym" cx="0" cy="0" r="3" /><text class="lab rgt" transform="translate(3 -7.0)">27</text></g><g class="a30 c1 node n26 p0" transform="translate(-14.375 8.66246)"><g class="a26 c1 node n21 p0" transform="translate(0.0 18.529)"><g class="a21 c2 node n18 p0" transform="translate(0.0 5.18846)"><g class="a18 leaf node n5 p0 sample" transform="translate(13.4167 16.7034)"><path class="edge" d="M 0 0 V -16.7034 H -13.4167" /><rect class="sym" height="6" width="6" x="-3" y="-3" /><text class="lab" transform="translate(0 11)">5</text></g><g class="a18 c2 node n14 p0" transform="translate(-13.4167 10.4276)"><g class="a14 leaf node n6 p0 sample" transform="translate(11.5 6.27582)"><path class="edge" d="M 0 0 V -6.27582 H -11.5" /><rect class="sym" height="6" width="6" x="-3" y="-3" /><text class="lab" transform="translate(0 11)">6</text></g><g class="a14 c2 node n11 p0" transform="translate(-11.5 3.72185)"><g class="a11 leaf node n1 p0 sample" transform="translate(-7.66667 2.55397)"><path class="edge" d="M 0 0 V -2.55397 H 7.66667" /><rect class="sym" height="6" width="6" x="-3" y="-3" /><text class="lab" transform="translate(0 11)">1</text></g><g class="a11 leaf node n8 p0 sample" transform="translate(7.66667 2.55397)"><path class="edge" d="M 0 0 V -2.55397 H -7.66667" /><rect class="sym" height="6" width="6" x="-3" y="-3" /><text class="lab" transform="translate(0 11)">8</text></g><path class="edge" d="M 0 0 V -3.72185 H 11.5" /><circle class="sym" cx="0" cy="0" r="3" /><text class="lab lft" transform="translate(-3 -7.0)">11</text></g><path class="edge" d="M 0 0 V -10.4276 H 13.4167" /><circle class="sym" cx="0" cy="0" r="3" /><text class="lab lft" transform="translate(-3 -7.0)">14</text></g><path class="edge" d="M 0 0 V -5.18846 H 0.0" /><circle class="sym" cx="0" cy="0" r="3" /><text class="lab lft" transform="translate(-3 -7.0)">18</text></g><path class="edge" d="M 0 0 V -18.529 H 0.0" /><circle class="sym" cx="0" cy="0" r="3" /><text class="lab lft" transform="translate(-3 -7.0)">21</text></g><path class="edge" d="M 0 0 V -8.66246 H 14.375" /><circle class="sym" cx="0" cy="0" r="3" /><text class="lab lft" transform="translate(-3 -7.0)">26</text></g><path class="edge" d="M 0 0 V -45.5167 H -43.6042" /><circle class="sym" cx="0" cy="0" r="3" /><text class="lab rgt" transform="translate(3 -7.0)">30</text></g><g class="a33 c1 node n32 p0" transform="translate(-43.6042 5.60772)"><g class="a32 c1 node n31 p0" transform="translate(0.0 18.2305)"><g class="a31 c1 node n29 p0" transform="translate(0.0 24.1505)"><g class="a29 c1 node n24 p0" transform="translate(0.0 12.0304)"><g class="a24 c2 node n22 p0" transform="translate(0.0 2.45016)"><g class="a22 c2 node n17 p0" transform="translate(-17.25 19.9767)"><g class="a17 c1 node n15 p0" transform="translate(-11.5 1.37253)"><g class="a15 c2 node n10 p0" transform="translate(0.0 9.45899)"><g class="a10 leaf node n0 p0 sample" transform="translate(-7.66667 1.32239)"><path class="edge" d="M 0 0 V -1.32239 H 7.66667" /><rect class="sym" height="6" width="6" x="-3" y="-3" /><text class="lab" transform="translate(0 11)">0</text></g><g class="a10 leaf node n7 p0 sample" transform="translate(7.66667 1.32239)"><path class="edge" d="M 0 0 V -1.32239 H -7.66667" /><rect class="sym" height="6" width="6" x="-3" y="-3" /><text class="lab" transform="translate(0 11)">7</text></g><path class="edge" d="M 0 0 V -9.45899 H 0.0" /><circle class="sym" cx="0" cy="0" r="3" /><text class="lab lft" transform="translate(-3 -7.0)">10</text></g><path class="edge" d="M 0 0 V -1.37253 H 11.5" /><circle class="sym" cx="0" cy="0" r="3" /><text class="lab lft" transform="translate(-3 -7.0)">15</text></g><g class="a17 c1 node n13 p0" transform="translate(11.5 8.05954)"><g class="a13 leaf node n4 p0 sample" transform="translate(0.0 4.09437)"><path class="edge" d="M 0 0 V -4.09437 H 0.0" /><rect class="sym" height="6" width="6" x="-3" y="-3" /><text class="lab" transform="translate(0 11)">4</text></g><path class="edge" d="M 0 0 V -8.05954 H -11.5" /><circle class="sym" cx="0" cy="0" r="3" /><text class="lab rgt" transform="translate(3 -7.0)">13</text></g><path class="edge" d="M 0 0 V -19.9767 H 17.25" /><circle class="sym" cx="0" cy="0" r="3" /><text class="lab lft" transform="translate(-3 -7.0)">17</text></g><g class="a22 c1 node n20 p0" transform="translate(17.25 13.2652)"><g class="a20 c2 node n16 p0" transform="translate(0.0 7.14556)"><g class="a16 leaf node n3 p0 sample" transform="translate(-7.66667 11.7199)"><path class="edge" d="M 0 0 V -11.7199 H 7.66667" /><rect class="sym" height="6" width="6" x="-3" y="-3" /><text class="lab" transform="translate(0 11)">3</text></g><g class="a16 leaf node n9 p0 sample" transform="translate(7.66667 11.7199)"><path class="edge" d="M 0 0 V -11.7199 H -7.66667" /><rect class="sym" height="6" width="6" x="-3" y="-3" /><text class="lab" transform="translate(0 11)">9</text></g><path class="edge" d="M 0 0 V -7.14556 H 0.0" /><circle class="sym" cx="0" cy="0" r="3" /><text class="lab lft" transform="translate(-3 -7.0)">16</text></g><path class="edge" d="M 0 0 V -13.2652 H -17.25" /><circle class="sym" cx="0" cy="0" r="3" /><text class="lab rgt" transform="translate(3 -7.0)">20</text></g><path class="edge" d="M 0 0 V -2.45016 H 0.0" /><circle class="sym" cx="0" cy="0" r="3" /><text class="lab lft" transform="translate(-3 -7.0)">22</text></g><path class="edge" d="M 0 0 V -12.0304 H 0.0" /><circle class="sym" cx="0" cy="0" r="3" /><text class="lab lft" transform="translate(-3 -7.0)">24</text></g><path class="edge" d="M 0 0 V -24.1505 H 0.0" /><circle class="sym" cx="0" cy="0" r="3" /><text class="lab lft" transform="translate(-3 -7.0)">29</text></g><path class="edge" d="M 0 0 V -18.2305 H 0.0" /><circle class="sym" cx="0" cy="0" r="3" /><text class="lab lft" transform="translate(-3 -7.0)">31</text></g><path class="edge" d="M 0 0 V -5.60772 H 43.6042" /><circle class="sym" cx="0" cy="0" r="3" /><text class="lab lft" transform="translate(-3 -7.0)">32</text></g><circle class="sym" cx="0" cy="0" r="3" /><text class="lab" transform="translate(0 -11)">33</text></g></g></g></g></g></svg>
