<svg baseProfile="full" height="200" version="1.1" width="1000" xmlns="http://www.w3.org/2000/svg" xmlns:ev="http://www.w3.org/2001/xml-events" xmlns:xlink="http://www.w3.org/1999/xlink"><defs><style type="text/css"><![CDATA[.background path {fill: #808080; fill-opacity: 0}.background path:nth-child(odd) {fill-opacity: .1}.axes {font-size: 14px}.x-axis .tick .lab {font-weight: bold; dominant-baseline: hanging}.axes, .tree {font-size: 14px; text-anchor: middle}.axes line, .edge {stroke: black; fill: none}.y-axis .grid {stroke: #FAFAFA}.node > .sym {fill: black; stroke: none}.site > .sym {stroke: black}.mut text {fill: red; font-style: italic}.mut.extra text {fill: hotpink}.mut line {fill: none; stroke: none}.mut .sym {fill: none; stroke: red}.mut.extra .sym {stroke: hotpink}.node .mut .sym {stroke-width: 1.5px}.tree text, .tree-sequence text {dominant-baseline: central}.plotbox .lab.lft {text-anchor: end}.plotbox .lab.rgt {text-anchor: start}]]></style></defs><g class="tree-sequence"><g class="background"><path d="M20,0 l192,0 l0,138.2 l322.073,25 l0,5 l-514.073,0 l0,-5 l0,-25 l0,-138.2z" /><path d="M212,0 l192,0 l0,138.2 l177.515,25 l0,5 l-47.4417,0 l0,-5 l-322.073,-25 l0,-138.2z" /><path d="M404,0 l192,0 l0,138.2 l5.53818,25 l0,5 l-20.023,0 l0,-5 l-177.515,-25 l0,-138.2z" /><path d="M596,0 l192,0 l0,138.2 l-148.48,25 l0,5 l-37.9816,0 l0,-5 l-5.53818,-25 l0,-138.2z" /><path d="M788,0 l192,0 l0,138.2 l0,25 l0,5 l-340.48,0 l0,-5 l148.48,-25 l0,-138.2z" /></g><g class="axes"><g class="x-axis"><g transform="translate(500 200)"><text class="lab" text-anchor="middle" transform="translate(0 -11)">Genome position</text></g><line x1="20" x2="980" y1="163.2" y2="163.2" /><g class="ticks"><g class="tick" transform="translate(20 163.2)"><line x1="0" x2="0" y1="0" y2="5" /><g transform="translate(0 6)"><text class="lab">0.00</text></g></g><g class="tick" transform="translate(534.073 163.2)"><line x1="0" x2="0" y1="0" y2="5" /><g transform="translate(0 6)"><text class="lab">535.49</text></g></g><g class="tick" transform="translate(581.515 163.2)"><line x1="0" x2="0" y1="0" y2="5" /><g transform="translate(0 6)"><text class="lab">584.91</text></g></g><g class="tick" transform="translate(601.538 163.2)"><line x1="0" x2="0" y1="0" y2="5" /><g transform="translate(0 6)"><text class="lab">605.77</text></g></g><g class="tick" transform="translate(639.52 163.2)"><line x1="0" x2="0" y1="0" y2="5" /><g transform="translate(0 6)"><text class="lab">645.33</text></g></g><g class="tick" transform="translate(980 163.2)"><line x1="0" x2="0" y1="0" y2="5" /><g transform="translate(0 6)"><text class="lab">1000.00</text></g></g></g></g></g><g class="plotbox trees"><g class="tree t0" transform="translate(20 0)"><g class="plotbox"><g class="c2 node n30 p0 root" transform="translate(114.763 26.8)"><g class="a30 c2 node n27 p0" transform="translate(26.8375 31.7954)"><g class="a27 c2 node n13 p0" transform="translate(-15.2 56.2101)"><g class="a13 leaf node n6 p0 sample" transform="translate(-7.6 6.59458)"><path class="edge" d="M 0 0 V -6.59458 H 7.6" /><rect class="sym" height="6" width="6" x="-3" y="-3" /><text class="lab" transform="translate(0 11)">6</text></g><g class="a13 leaf node n7 p0 sample" transform="translate(7.6 6.59458)"><path class="edge" d="M 0 0 V -6.59458 H -7.6" /><rect class="sym" height="6" width="6" x="-3" y="-3" /><text class="lab" transform="translate(0 11)">7</text></g><path class="edge" d="M 0 0 V -56.2101 H 15.2" /><circle class="sym" cx="0" cy="0" r="3" /><text class="lab lft" transform="translate(-3 -7.0)">13</text></g><g class="a27 c2 node n17 p0" transform="translate(15.2 45.8838)"><g class="a17 leaf node n9 p0 sample" transform="translate(7.6 16.9208)"><path class="edge" d="M 0 0 V -16.9208 H -7.6" /><rect class="sym" height="6" width="6" x="-3" y="-3" /><text class="lab" transform="translate(0 11)">9</text></g><g class="a17 c1 node n11 p0" transform="translate(-7.6 12.8133)"><g class="a11 leaf node n8 p0 sample" transform="translate(0.0 4.10754)"><path class="edge" d="M 0 0 V -4.10754 H 0.0" /><rect class="sym" height="6" width="6" x="-3" y="-3" /><text class="lab" transform="translate(0 11)">8</text></g><path class="edge" d="M 0 0 V -12.8133 H 7.6" /><circle class="sym" cx="0" cy="0" r="3" /><text class="lab lft" transform="translate(-3 -7.0)">11</text></g><path class="edge" d="M 0 0 V -45.8838 H -15.2" /><circle class="sym" cx="0" cy="0" r="3" /><text class="lab rgt" transform="translate(3 -7.0)">17</text></g><path class="edge" d="M 0 0 V -31.7954 H -26.8375" /><circle class="sym" cx="0" cy="0" r="3" /><text class="lab rgt" transform="translate(3 -7.0)">27</text></g><g class="a30 c1 node n29 p0" transform="translate(-26.8375 7.38798)"><g class="a29 c2 node n28 p0" transform="translate(0.0 19.2027)"><g class="a28 c1 node n24 p0" transform="translate(15.675 25.5942)"><g class="a24 c1 node n16 p0" transform="translate(0.0 29.2921)"><g class="a16 leaf node n2 p0 sample" transform="translate(0.0 13.123)"><path class="edge" d="M 0 0 V -13.123 H 0.0" /><rect class="sym" height="6" width="6" x="-3" y="-3" /><text class="lab" transform="translate(0 11)">2</text></g><path class="edge" d="M 0 0 V -29.2921 H 0.0" /><circle class="sym" cx="0" cy="0" r="3" /><text class="lab lft" transform="translate(-3 -7.0)">16</text></g><path class="edge" d="M 0 0 V -25.5942 H -15.675" /><circle class="sym" cx="0" cy="0" r="3" /><text class="lab rgt" transform="translate(3 -7.0)">24</text></g><g class="a28 c1 node n25 p0" transform="translate(-15.675 5.94024)"><g class="a25 c2 node n23 p0" transform="translate(0.0 29.6863)"><g class="a23 leaf node n5 p0 sample" transform="translate(16.15 32.3828)"><path class="edge" d="M 0 0 V -32.3828 H -16.15" /><rect class="sym" height="6" width="6" x="-3" y="-3" /><text class="lab" transform="translate(0 11)">5</text></g><g class="a23 c1 node n22 p0" transform="translate(-16.15 2.62636)"><g class="a22 c2 node n21 p0" transform="translate(0.0 2.48007)"><g class="a21 c1 node n14 p0" transform="translate(17.1 16.4957)"><g class="a14 leaf node n1 p0 sample" transform="translate(0.0 10.7807)"><path class="edge" d="M 0 0 V -10.7807 H 0.0" /><rect class="sym" height="6" width="6" x="-3" y="-3" /><text class="lab" transform="translate(0 11)">1</text></g><path class="edge" d="M 0 0 V -16.4957 H -17.1" /><circle class="sym" cx="0" cy="0" r="3" /><text class="lab rgt" transform="translate(3 -7.0)">14</text></g><g class="a21 c2 node n20 p0" transform="translate(-17.1 3.49763)"><g class="a20 leaf node n0 p0 sample" transform="translate(-11.4 23.7787)"><path class="edge" d="M 0 0 V -23.7787 H 11.4" /><rect class="sym" height="6" width="6" x="-3" y="-3" /><text class="lab" transform="translate(0 11)">0</text></g><g class="a20 c2 node n10 p0" transform="translate(11.4 22.6349)"><g class="a10 leaf node n3 p0 sample" transform="translate(-7.6 1.14382)"><path class="edge" d="M 0 0 V -1.14382 H 7.6" /><rect class="sym" height="6" width="6" x="-3" y="-3" /><text class="lab" transform="translate(0 11)">3</text></g><g class="a10 leaf node n4 p0 sample" transform="translate(7.6 1.14382)"><path class="edge" d="M 0 0 V -1.14382 H -7.6" /><rect class="sym" height="6" width="6" x="-3" y="-3" /><text class="lab" transform="translate(0 11)">4</text></g><path class="edge" d="M 0 0 V -22.6349 H -11.4" /><circle class="sym" cx="0" cy="0" r="3" /><text class="lab rgt" transform="translate(3 -7.0)">10</text></g><path class="edge" d="M 0 0 V -3.49763 H 17.1" /><circle class="sym" cx="0" cy="0" r="3" /><text class="lab lft" transform="translate(-3 -7.0)">20</text></g><path class="edge" d="M 0 0 V -2.48007 H 0.0" /><circle class="sym" cx="0" cy="0" r="3" /><text class="lab lft" transform="translate(-3 -7.0)">21</text></g><path class="edge" d="M 0 0 V -2.62636 H 16.15" /><circle class="sym" cx="0" cy="0" r="3" /><text class="lab lft" transform="translate(-3 -7.0)">22</text></g><path class="edge" d="M 0 0 V -29.6863 H 0.0" /><circle class="sym" cx="0" cy="0" r="3" /><text class="lab lft" transform="translate(-3 -7.0)">23</text></g><path class="edge" d="M 0 0 V -5.94024 H 15.675" /><circle class="sym" cx="0" cy="0" r="3" /><text class="lab lft" transform="translate(-3 -7.0)">25</text></g><path class="edge" d="M 0 0 V -19.2027 H 0.0" /><circle class="sym" cx="0" cy="0" r="3" /><text class="lab lft" transform="translate(-3 -7.0)">28</text></g><path class="edge" d="M 0 0 V -7.38798 H 26.8375" /><circle class="sym" cx="0" cy="0" r="3" /><text class="lab lft" transform="translate(-3 -7.0)">29</text></g><circle class="sym" cx="0" cy="0" r="3" /><text class="lab" transform="translate(0 -11)">30</text></g></g></g><g class="tree t1" transform="translate(212 0)"><g class="plotbox"><g class="c2 node n30 p0 root" transform="translate(122.363 26.8)"><g class="a30 c2 node n27 p0" transform="translate(30.6375 31.7954)"><g class="a27 c2 node n13 p0" transform="translate(-11.4 56.2101)"><g class="a13 leaf node n6 p0 sample" transform="translate(-7.6 6.59458)"><path class="edge" d="M 0 0 V -6.59458 H 7.6" /><rect class="sym" height="6" width="6" x="-3" y="-3" /><text class="lab" transform="translate(0 11)">6</text></g><g class="a13 leaf node n7 p0 sample" transform="translate(7.6 6.59458)"><path class="edge" d="M 0 0 V -6.59458 H -7.6" /><rect class="sym" height="6" width="6" x="-3" y="-3" /><text class="lab" transform="translate(0 11)">7</text></g><path class="edge" d="M 0 0 V -56.2101 H 11.4" /><circle class="sym" cx="0" cy="0" r="3" /><text class="lab lft" transform="translate(-3 -7.0)">13</text></g><g class="a27 c1 node n17 p0" transform="translate(11.4 45.8838)"><g class="a17 leaf node n9 p0 sample" transform="translate(0.0 16.9208)"><path class="edge" d="M 0 0 V -16.9208 H 0.0" /><rect class="sym" height="6" width="6" x="-3" y="-3" /><text class="lab" transform="translate(0 11)">9</text></g><path class="edge" d="M 0 0 V -45.8838 H -11.4" /><circle class="sym" cx="0" cy="0" r="3" /><text class="lab rgt" transform="translate(3 -7.0)">17</text></g><path class="edge" d="M 0 0 V -31.7954 H -30.6375" /><circle class="sym" cx="0" cy="0" r="3" /><text class="lab rgt" transform="translate(3 -7.0)">27</text></g><g class="a30 c1 node n29 p0" transform="translate(-30.6375 7.38798)"><g class="a29 c2 node n28 p0" transform="translate(0.0 19.2027)"><g class="a28 c2 node n24 p0" transform="translate(19.475 25.5942)"><g class="a24 c1 node n16 p0" transform="translate(-7.6 29.2921)"><g class="a16 leaf node n2 p0 sample" transform="translate(0.0 13.123)"><path class="edge" d="M 0 0 V -13.123 H 0.0" /><rect class="sym" height="6" width="6" x="-3" y="-3" /><text class="lab" transform="translate(0 11)">2</text></g><path class="edge" d="M 0 0 V -29.2921 H 7.6" /><circle class="sym" cx="0" cy="0" r="3" /><text class="lab lft" transform="translate(-3 -7.0)">16</text></g><g class="a24 c1 node n18 p0" transform="translate(7.6 21.0132)"><g class="a18 c1 node n12 p0" transform="translate(0.0 17.2943)"><g class="a12 leaf node n8 p0 sample" transform="translate(0.0 4.10754)"><path class="edge" d="M 0 0 V -4.10754 H 0.0" /><rect class="sym" height="6" width="6" x="-3" y="-3" /><text class="lab" transform="translate(0 11)">8</text></g><path class="edge" d="M 0 0 V -17.2943 H 0.0" /><circle class="sym" cx="0" cy="0" r="3" /><text class="lab lft" transform="translate(-3 -7.0)">12</text></g><path class="edge" d="M 0 0 V -21.0132 H -7.6" /><circle class="sym" cx="0" cy="0" r="3" /><text class="lab rgt" transform="translate(3 -7.0)">18</text></g><path class="edge" d="M 0 0 V -25.5942 H -19.475" /><circle class="sym" cx="0" cy="0" r="3" /><text class="lab rgt" transform="translate(3 -7.0)">24</text></g><g class="a28 c1 node n25 p0" transform="translate(-19.475 5.94024)"><g class="a25 c2 node n23 p0" transform="translate(0.0 29.6863)"><g class="a23 leaf node n5 p0 sample" transform="translate(16.15 32.3828)"><path class="edge" d="M 0 0 V -32.3828 H -16.15" /><rect class="sym" height="6" width="6" x="-3" y="-3" /><text class="lab" transform="translate(0 11)">5</text></g><g class="a23 c1 node n22 p0" transform="translate(-16.15 2.62636)"><g class="a22 c2 node n21 p0" transform="translate(0.0 2.48007)"><g class="a21 c1 node n14 p0" transform="translate(17.1 16.4957)"><g class="a14 leaf node n1 p0 sample" transform="translate(0.0 10.7807)"><path class="edge" d="M 0 0 V -10.7807 H 0.0" /><rect class="sym" height="6" width="6" x="-3" y="-3" /><text class="lab" transform="translate(0 11)">1</text></g><path class="edge" d="M 0 0 V -16.4957 H -17.1" /><circle class="sym" cx="0" cy="0" r="3" /><text class="lab rgt" transform="translate(3 -7.0)">14</text></g><g class="a21 c2 node n20 p0" transform="translate(-17.1 3.49763)"><g class="a20 leaf node n0 p0 sample" transform="translate(-11.4 23.7787)"><path class="edge" d="M 0 0 V -23.7787 H 11.4" /><rect class="sym" height="6" width="6" x="-3" y="-3" /><text class="lab" transform="translate(0 11)">0</text></g><g class="a20 c2 node n10 p0" transform="translate(11.4 22.6349)"><g class="a10 leaf node n3 p0 sample" transform="translate(-7.6 1.14382)"><path class="edge" d="M 0 0 V -1.14382 H 7.6" /><rect class="sym" height="6" width="6" x="-3" y="-3" /><text class="lab" transform="translate(0 11)">3</text></g><g class="a10 leaf node n4 p0 sample" transform="translate(7.6 1.14382)"><path class="edge" d="M 0 0 V -1.14382 H -7.6" /><rect class="sym" height="6" width="6" x="-3" y="-3" /><text class="lab" transform="translate(0 11)">4</text></g><path class="edge" d="M 0 0 V -22.6349 H -11.4" /><circle class="sym" cx="0" cy="0" r="3" /><text class="lab rgt" transform="translate(3 -7.0)">10</text></g><path class="edge" d="M 0 0 V -3.49763 H 17.1" /><circle class="sym" cx="0" cy="0" r="3" /><text class="lab lft" transform="translate(-3 -7.0)">20</text></g><path class="edge" d="M 0 0 V -2.48007 H 0.0" /><circle class="sym" cx="0" cy="0" r="3" /><text class="lab lft" transform="translate(-3 -7.0)">21</text></g><path class="edge" d="M 0 0 V -2.62636 H 16.15" /><circle class="sym" cx="0" cy="0" r="3" /><text class="lab lft" transform="translate(-3 -7.0)">22</text></g><path class="edge" d="M 0 0 V -29.6863 H 0.0" /><circle class="sym" cx="0" cy="0" r="3" /><text class="lab lft" transform="translate(-3 -7.0)">23</text></g><path class="edge" d="M 0 0 V -5.94024 H 19.475" /><circle class="sym" cx="0" cy="0" r="3" /><text class="lab lft" transform="translate(-3 -7.0)">25</text></g><path class="edge" d="M 0 0 V -19.2027 H 0.0" /><circle class="sym" cx="0" cy="0" r="3" /><text class="lab lft" transform="translate(-3 -7.0)">28</text></g><path class="edge" d="M 0 0 V -7.38798 H 30.6375" /><circle class="sym" cx="0" cy="0" r="3" /><text class="lab lft" transform="translate(-3 -7.0)">29</text></g><circle class="sym" cx="0" cy="0" r="3" /><text class="lab" transform="translate(0 -11)">30</text></g></g></g><g class="tree t2" transform="translate(404 0)"><g class="plotbox"><g class="c2 node n30 p0 root" transform="translate(128.181 26.8)"><g class="a30 c2 node n27 p0" transform="translate(24.8187 31.7954)"><g class="a27 c2 node n13 p0" transform="translate(-11.4 56.2101)"><g class="a13 leaf node n6 p0 sample" transform="translate(-7.6 6.59458)"><path class="edge" d="M 0 0 V -6.59458 H 7.6" /><rect class="sym" height="6" width="6" x="-3" y="-3" /><text class="lab" transform="translate(0 11)">6</text></g><g class="a13 leaf node n7 p0 sample" transform="translate(7.6 6.59458)"><path class="edge" d="M 0 0 V -6.59458 H -7.6" /><rect class="sym" height="6" width="6" x="-3" y="-3" /><text class="lab" transform="translate(0 11)">7</text></g><path class="edge" d="M 0 0 V -56.2101 H 11.4" /><circle class="sym" cx="0" cy="0" r="3" /><text class="lab lft" transform="translate(-3 -7.0)">13</text></g><g class="a27 c1 node n17 p0" transform="translate(11.4 45.8838)"><g class="a17 leaf node n9 p0 sample" transform="translate(0.0 16.9208)"><path class="edge" d="M 0 0 V -16.9208 H 0.0" /><rect class="sym" height="6" width="6" x="-3" y="-3" /><text class="lab" transform="translate(0 11)">9</text></g><path class="edge" d="M 0 0 V -45.8838 H -11.4" /><circle class="sym" cx="0" cy="0" r="3" /><text class="lab rgt" transform="translate(3 -7.0)">17</text></g><path class="edge" d="M 0 0 V -31.7954 H -24.8187" /><circle class="sym" cx="0" cy="0" r="3" /><text class="lab rgt" transform="translate(3 -7.0)">27</text></g><g class="a30 c1 node n29 p0" transform="translate(-24.8187 7.38798)"><g class="a29 c2 node n28 p0" transform="translate(0.0 19.2027)"><g class="a28 c1 node n24 p0" transform="translate(15.4375 25.5942)"><g class="a24 c1 node n16 p0" transform="translate(0.0 29.2921)"><g class="a16 leaf node n2 p0 sample" transform="translate(0.0 13.123)"><path class="edge" d="M 0 0 V -13.123 H 0.0" /><rect class="sym" height="6" width="6" x="-3" y="-3" /><text class="lab" transform="translate(0 11)">2</text></g><path class="edge" d="M 0 0 V -29.2921 H 0.0" /><circle class="sym" cx="0" cy="0" r="3" /><text class="lab lft" transform="translate(-3 -7.0)">16</text></g><path class="edge" d="M 0 0 V -25.5942 H -15.4375" /><circle class="sym" cx="0" cy="0" r="3" /><text class="lab rgt" transform="translate(3 -7.0)">24</text></g><g class="a28 c1 node n25 p0" transform="translate(-15.4375 5.94024)"><g class="a25 c2 node n23 p0" transform="translate(0.0 29.6863)"><g class="a23 leaf node n5 p0 sample" transform="translate(15.675 32.3828)"><path class="edge" d="M 0 0 V -32.3828 H -15.675" /><rect class="sym" height="6" width="6" x="-3" y="-3" /><text class="lab" transform="translate(0 11)">5</text></g><g class="a23 c2 node n22 p0" transform="translate(-15.675 2.62636)"><g class="a22 c2 node n21 p0" transform="translate(-16.15 2.48007)"><g class="a21 c1 node n14 p0" transform="translate(17.1 16.4957)"><g class="a14 leaf node n1 p0 sample" transform="translate(0.0 10.7807)"><path class="edge" d="M 0 0 V -10.7807 H 0.0" /><rect class="sym" height="6" width="6" x="-3" y="-3" /><text class="lab" transform="translate(0 11)">1</text></g><path class="edge" d="M 0 0 V -16.4957 H -17.1" /><circle class="sym" cx="0" cy="0" r="3" /><text class="lab rgt" transform="translate(3 -7.0)">14</text></g><g class="a21 c2 node n20 p0" transform="translate(-17.1 3.49763)"><g class="a20 leaf node n0 p0 sample" transform="translate(-11.4 23.7787)"><path class="edge" d="M 0 0 V -23.7787 H 11.4" /><rect class="sym" height="6" width="6" x="-3" y="-3" /><text class="lab" transform="translate(0 11)">0</text></g><g class="a20 c2 node n10 p0" transform="translate(11.4 22.6349)"><g class="a10 leaf node n3 p0 sample" transform="translate(-7.6 1.14382)"><path class="edge" d="M 0 0 V -1.14382 H 7.6" /><rect class="sym" height="6" width="6" x="-3" y="-3" /><text class="lab" transform="translate(0 11)">3</text></g><g class="a10 leaf node n4 p0 sample" transform="translate(7.6 1.14382)"><path class="edge" d="M 0 0 V -1.14382 H -7.6" /><rect class="sym" height="6" width="6" x="-3" y="-3" /><text class="lab" transform="translate(0 11)">4</text></g><path class="edge" d="M 0 0 V -22.6349 H -11.4" /><circle class="sym" cx="0" cy="0" r="3" /><text class="lab rgt" transform="translate(3 -7.0)">10</text></g><path class="edge" d="M 0 0 V -3.49763 H 17.1" /><circle class="sym" cx="0" cy="0" r="3" /><text class="lab lft" transform="translate(-3 -7.0)">20</text></g><path class="edge" d="M 0 0 V -2.48007 H 16.15" /><circle class="sym" cx="0" cy="0" r="3" /><text class="lab lft" transform="translate(-3 -7.0)">21</text></g><g class="a22 c1 node n19 p0" transform="translate(16.15 8.35452)"><g class="a19 c1 node n12 p0" transform="translate(0.0 17.2943)"><g class="a12 leaf node n8 p0 sample" transform="translate(0.0 4.10754)"><path class="edge" d="M 0 0 V -4.10754 H 0.0" /><rect class="sym" height="6" width="6" x="-3" y="-3" /><text class="lab" transform="translate(0 11)">8</text></g><path class="edge" d="M 0 0 V -17.2943 H 0.0" /><circle class="sym" cx="0" cy="0" r="3" /><text class="lab lft" transform="translate(-3 -7.0)">12</text></g><path class="edge" d="M 0 0 V -8.35452 H -16.15" /><circle class="sym" cx="0" cy="0" r="3" /><text class="lab rgt" transform="translate(3 -7.0)">19</text></g><path class="edge" d="M 0 0 V -2.62636 H 15.675" /><circle class="sym" cx="0" cy="0" r="3" /><text class="lab lft" transform="translate(-3 -7.0)">22</text></g><path class="edge" d="M 0 0 V -29.6863 H 0.0" /><circle class="sym" cx="0" cy="0" r="3" /><text class="lab lft" transform="translate(-3 -7.0)">23</text></g><path class="edge" d="M 0 0 V -5.94024 H 15.4375" /><circle class="sym" cx="0" cy="0" r="3" /><text class="lab lft" transform="translate(-3 -7.0)">25</text></g><path class="edge" d="M 0 0 V -19.2027 H 0.0" /><circle class="sym" cx="0" cy="0" r="3" /><text class="lab lft" transform="translate(-3 -7.0)">28</text></g><path class="edge" d="M 0 0 V -7.38798 H 24.8187" /><circle class="sym" cx="0" cy="0" r="3" /><text class="lab lft" transform="translate(-3 -7.0)">29</text></g><circle class="sym" cx="0" cy="0" r="3" /><text class="lab" transform="translate(0 -11)">30</text></g></g></g><g class="tree t3" transform="translate(596 0)"><g class="plotbox"><g class="c2 node n30 p0 root" transform="translate(128.181 26.8)"><g class="a30 c2 node n27 p0" transform="translate(24.8187 31.7954)"><g class="a27 c2 node n13 p0" transform="translate(-11.4 56.2101)"><g class="a13 leaf node n6 p0 sample" transform="translate(-7.6 6.59458)"><path class="edge" d="M 0 0 V -6.59458 H 7.6" /><rect class="sym" height="6" width="6" x="-3" y="-3" /><text class="lab" transform="translate(0 11)">6</text></g><g class="a13 leaf node n7 p0 sample" transform="translate(7.6 6.59458)"><path class="edge" d="M 0 0 V -6.59458 H -7.6" /><rect class="sym" height="6" width="6" x="-3" y="-3" /><text class="lab" transform="translate(0 11)">7</text></g><path class="edge" d="M 0 0 V -56.2101 H 11.4" /><circle class="sym" cx="0" cy="0" r="3" /><text class="lab lft" transform="translate(-3 -7.0)">13</text></g><g class="a27 c1 node n17 p0" transform="translate(11.4 45.8838)"><g class="a17 leaf node n9 p0 sample" transform="translate(0.0 16.9208)"><path class="edge" d="M 0 0 V -16.9208 H 0.0" /><rect class="sym" height="6" width="6" x="-3" y="-3" /><text class="lab" transform="translate(0 11)">9</text></g><path class="edge" d="M 0 0 V -45.8838 H -11.4" /><circle class="sym" cx="0" cy="0" r="3" /><text class="lab rgt" transform="translate(3 -7.0)">17</text></g><path class="edge" d="M 0 0 V -31.7954 H -24.8187" /><circle class="sym" cx="0" cy="0" r="3" /><text class="lab rgt" transform="translate(3 -7.0)">27</text></g><g class="a30 c2 node n29 p0" transform="translate(-24.8187 7.38798)"><g class="a29 c1 node n28 p0" transform="translate(15.4375 19.2027)"><g class="a28 c1 node n24 p0" transform="translate(0.0 25.5942)"><g class="a24 c1 node n16 p0" transform="translate(0.0 29.2921)"><g class="a16 leaf node n2 p0 sample" transform="translate(0.0 13.123)"><path class="edge" d="M 0 0 V -13.123 H 0.0" /><rect class="sym" height="6" width="6" x="-3" y="-3" /><text class="lab" transform="translate(0 11)">2</text></g><path class="edge" d="M 0 0 V -29.2921 H 0.0" /><circle class="sym" cx="0" cy="0" r="3" /><text class="lab lft" transform="translate(-3 -7.0)">16</text></g><path class="edge" d="M 0 0 V -25.5942 H 0.0" /><circle class="sym" cx="0" cy="0" r="3" /><text class="lab lft" transform="translate(-3 -7.0)">24</text></g><path class="edge" d="M 0 0 V -19.2027 H -15.4375" /><circle class="sym" cx="0" cy="0" r="3" /><text class="lab rgt" transform="translate(3 -7.0)">28</text></g><g class="a29 c1 node n26 p0" transform="translate(-15.4375 25.143)"><g class="a26 c2 node n23 p0" transform="translate(0.0 29.6863)"><g class="a23 leaf node n5 p0 sample" transform="translate(15.675 32.3828)"><path class="edge" d="M 0 0 V -32.3828 H -15.675" /><rect class="sym" height="6" width="6" x="-3" y="-3" /><text class="lab" transform="translate(0 11)">5</text></g><g class="a23 c2 node n22 p0" transform="translate(-15.675 2.62636)"><g class="a22 c2 node n21 p0" transform="translate(-16.15 2.48007)"><g class="a21 c1 node n14 p0" transform="translate(17.1 16.4957)"><g class="a14 leaf node n1 p0 sample" transform="translate(0.0 10.7807)"><path class="edge" d="M 0 0 V -10.7807 H 0.0" /><rect class="sym" height="6" width="6" x="-3" y="-3" /><text class="lab" transform="translate(0 11)">1</text></g><path class="edge" d="M 0 0 V -16.4957 H -17.1" /><circle class="sym" cx="0" cy="0" r="3" /><text class="lab rgt" transform="translate(3 -7.0)">14</text></g><g class="a21 c2 node n20 p0" transform="translate(-17.1 3.49763)"><g class="a20 leaf node n0 p0 sample" transform="translate(-11.4 23.7787)"><path class="edge" d="M 0 0 V -23.7787 H 11.4" /><rect class="sym" height="6" width="6" x="-3" y="-3" /><text class="lab" transform="translate(0 11)">0</text></g><g class="a20 c2 node n10 p0" transform="translate(11.4 22.6349)"><g class="a10 leaf node n3 p0 sample" transform="translate(-7.6 1.14382)"><path class="edge" d="M 0 0 V -1.14382 H 7.6" /><rect class="sym" height="6" width="6" x="-3" y="-3" /><text class="lab" transform="translate(0 11)">3</text></g><g class="a10 leaf node n4 p0 sample" transform="translate(7.6 1.14382)"><path class="edge" d="M 0 0 V -1.14382 H -7.6" /><rect class="sym" height="6" width="6" x="-3" y="-3" /><text class="lab" transform="translate(0 11)">4</text></g><path class="edge" d="M 0 0 V -22.6349 H -11.4" /><circle class="sym" cx="0" cy="0" r="3" /><text class="lab rgt" transform="translate(3 -7.0)">10</text></g><path class="edge" d="M 0 0 V -3.49763 H 17.1" /><circle class="sym" cx="0" cy="0" r="3" /><text class="lab lft" transform="translate(-3 -7.0)">20</text></g><path class="edge" d="M 0 0 V -2.48007 H 16.15" /><circle class="sym" cx="0" cy="0" r="3" /><text class="lab lft" transform="translate(-3 -7.0)">21</text></g><g class="a22 c1 node n19 p0" transform="translate(16.15 8.35452)"><g class="a19 c1 node n12 p0" transform="translate(0.0 17.2943)"><g class="a12 leaf node n8 p0 sample" transform="translate(0.0 4.10754)"><path class="edge" d="M 0 0 V -4.10754 H 0.0" /><rect class="sym" height="6" width="6" x="-3" y="-3" /><text class="lab" transform="translate(0 11)">8</text></g><path class="edge" d="M 0 0 V -17.2943 H 0.0" /><circle class="sym" cx="0" cy="0" r="3" /><text class="lab lft" transform="translate(-3 -7.0)">12</text></g><path class="edge" d="M 0 0 V -8.35452 H -16.15" /><circle class="sym" cx="0" cy="0" r="3" /><text class="lab rgt" transform="translate(3 -7.0)">19</text></g><path class="edge" d="M 0 0 V -2.62636 H 15.675" /><circle class="sym" cx="0" cy="0" r="3" /><text class="lab lft" transform="translate(-3 -7.0)">22</text></g><path class="edge" d="M 0 0 V -29.6863 H 0.0" /><circle class="sym" cx="0" cy="0" r="3" /><text class="lab lft" transform="translate(-3 -7.0)">23</text></g><path class="edge" d="M 0 0 V -25.143 H 15.4375" /><circle class="sym" cx="0" cy="0" r="3" /><text class="lab lft" transform="translate(-3 -7.0)">26</text></g><path class="edge" d="M 0 0 V -7.38798 H 24.8187" /><circle class="sym" cx="0" cy="0" r="3" /><text class="lab lft" transform="translate(-3 -7.0)">29</text></g><circle class="sym" cx="0" cy="0" r="3" /><text class="lab" transform="translate(0 -11)">30</text></g></g></g><g class="tree t4" transform="translate(788 0)"><g class="plotbox"><g class="c2 node n30 p0 root" transform="translate(122.363 26.8)"><g class="a30 c2 node n27 p0" transform="translate(30.6375 31.7954)"><g class="a27 c2 node n13 p0" transform="translate(-11.4 56.2101)"><g class="a13 leaf node n6 p0 sample" transform="translate(-7.6 6.59458)"><path class="edge" d="M 0 0 V -6.59458 H 7.6" /><rect class="sym" height="6" width="6" x="-3" y="-3" /><text class="lab" transform="translate(0 11)">6</text></g><g class="a13 leaf node n7 p0 sample" transform="translate(7.6 6.59458)"><path class="edge" d="M 0 0 V -6.59458 H -7.6" /><rect class="sym" height="6" width="6" x="-3" y="-3" /><text class="lab" transform="translate(0 11)">7</text></g><path class="edge" d="M 0 0 V -56.2101 H 11.4" /><circle class="sym" cx="0" cy="0" r="3" /><text class="lab lft" transform="translate(-3 -7.0)">13</text></g><g class="a27 c1 node n17 p0" transform="translate(11.4 45.8838)"><g class="a17 leaf node n9 p0 sample" transform="translate(0.0 16.9208)"><path class="edge" d="M 0 0 V -16.9208 H 0.0" /><rect class="sym" height="6" width="6" x="-3" y="-3" /><text class="lab" transform="translate(0 11)">9</text></g><path class="edge" d="M 0 0 V -45.8838 H -11.4" /><circle class="sym" cx="0" cy="0" r="3" /><text class="lab rgt" transform="translate(3 -7.0)">17</text></g><path class="edge" d="M 0 0 V -31.7954 H -30.6375" /><circle class="sym" cx="0" cy="0" r="3" /><text class="lab rgt" transform="translate(3 -7.0)">27</text></g><g class="a30 c2 node n29 p0" transform="translate(-30.6375 7.38798)"><g class="a29 c1 node n28 p0" transform="translate(19.475 19.2027)"><g class="a28 c1 node n24 p0" transform="translate(0.0 25.5942)"><g class="a24 c2 node n16 p0" transform="translate(0.0 29.2921)"><g class="a16 leaf node n2 p0 sample" transform="translate(7.6 13.123)"><path class="edge" d="M 0 0 V -13.123 H -7.6" /><rect class="sym" height="6" width="6" x="-3" y="-3" /><text class="lab" transform="translate(0 11)">2</text></g><g class="a16 c1 node n15 p0" transform="translate(-7.6 2.34234)"><g class="a15 leaf node n1 p0 sample" transform="translate(0.0 10.7807)"><path class="edge" d="M 0 0 V -10.7807 H 0.0" /><rect class="sym" height="6" width="6" x="-3" y="-3" /><text class="lab" transform="translate(0 11)">1</text></g><path class="edge" d="M 0 0 V -2.34234 H 7.6" /><circle class="sym" cx="0" cy="0" r="3" /><text class="lab lft" transform="translate(-3 -7.0)">15</text></g><path class="edge" d="M 0 0 V -29.2921 H 0.0" /><circle class="sym" cx="0" cy="0" r="3" /><text class="lab lft" transform="translate(-3 -7.0)">16</text></g><path class="edge" d="M 0 0 V -25.5942 H 0.0" /><circle class="sym" cx="0" cy="0" r="3" /><text class="lab lft" transform="translate(-3 -7.0)">24</text></g><path class="edge" d="M 0 0 V -19.2027 H -19.475" /><circle class="sym" cx="0" cy="0" r="3" /><text class="lab rgt" transform="translate(3 -7.0)">28</text></g><g class="a29 c1 node n26 p0" transform="translate(-19.475 25.143)"><g class="a26 c2 node n23 p0" transform="translate(0.0 29.6863)"><g class="a23 leaf node n5 p0 sample" transform="translate(16.15 32.3828)"><path class="edge" d="M 0 0 V -32.3828 H -16.15" /><rect class="sym" height="6" width="6" x="-3" y="-3" /><text class="lab" transform="translate(0 11)">5</text></g><g class="a23 c2 node n22 p0" transform="translate(-16.15 2.62636)"><g class="a22 c1 node n21 p0" transform="translate(-17.1 2.48007)"><g class="a21 c2 node n20 p0" transform="translate(0.0 3.49763)"><g class="a20 leaf node n0 p0 sample" transform="translate(-11.4 23.7787)"><path class="edge" d="M 0 0 V -23.7787 H 11.4" /><rect class="sym" height="6" width="6" x="-3" y="-3" /><text class="lab" transform="translate(0 11)">0</text></g><g class="a20 c2 node n10 p0" transform="translate(11.4 22.6349)"><g class="a10 leaf node n3 p0 sample" transform="translate(-7.6 1.14382)"><path class="edge" d="M 0 0 V -1.14382 H 7.6" /><rect class="sym" height="6" width="6" x="-3" y="-3" /><text class="lab" transform="translate(0 11)">3</text></g><g class="a10 leaf node n4 p0 sample" transform="translate(7.6 1.14382)"><path class="edge" d="M 0 0 V -1.14382 H -7.6" /><rect class="sym" height="6" width="6" x="-3" y="-3" /><text class="lab" transform="translate(0 11)">4</text></g><path class="edge" d="M 0 0 V -22.6349 H -11.4" /><circle class="sym" cx="0" cy="0" r="3" /><text class="lab rgt" transform="translate(3 -7.0)">10</text></g><path class="edge" d="M 0 0 V -3.49763 H 0.0" /><circle class="sym" cx="0" cy="0" r="3" /><text class="lab lft" transform="translate(-3 -7.0)">20</text></g><path class="edge" d="M 0 0 V -2.48007 H 17.1" /><circle class="sym" cx="0" cy="0" r="3" /><text class="lab lft" transform="translate(-3 -7.0)">21</text></g><g class="a22 c1 node n19 p0" transform="translate(17.1 8.35452)"><g class="a19 c1 node n12 p0" transform="translate(0.0 17.2943)"><g class="a12 leaf node n8 p0 sample" transform="translate(0.0 4.10754)"><path class="edge" d="M 0 0 V -4.10754 H 0.0" /><rect class="sym" height="6" width="6" x="-3" y="-3" /><text class="lab" transform="translate(0 11)">8</text></g><path class="edge" d="M 0 0 V -17.2943 H 0.0" /><circle class="sym" cx="0" cy="0" r="3" /><text class="lab lft" transform="translate(-3 -7.0)">12</text></g><path class="edge" d="M 0 0 V -8.35452 H -17.1" /><circle class="sym" cx="0" cy="0" r="3" /><text class="lab rgt" transform="translate(3 -7.0)">19</text></g><path class="edge" d="M 0 0 V -2.62636 H 16.15" /><circle class="sym" cx="0" cy="0" r="3" /><text class="lab lft" transform="translate(-3 -7.0)">22</text></g><path class="edge" d="M 0 0 V -29.6863 H 0.0" /><circle class="sym" cx="0" cy="0" r="3" /><text class="lab lft" transform="translate(-3 -7.0)">23</text></g><path class="edge" d="M 0 0 V -25.143 H 19.475" /><circle class="sym" cx="0" cy="0" r="3" /><text class="lab lft" transform="translate(-3 -7.0)">26</text></g><path class="edge" d="M 0 0 V -7.38798 H 30.6375" /><circle class="sym" cx="0" cy="0" r="3" /><text class="lab lft" transform="translate(-3 -7.0)">29</text></g><circle class="sym" cx="0" cy="0" r="3" /><text class="lab" transform="translate(0 -11)">30</text></g></g></g></g></g></svg>
