<svg baseProfile="full" height="200" version="1.1" width="1200" xmlns="http://www.w3.org/2000/svg" xmlns:ev="http://www.w3.org/2001/xml-events" xmlns:xlink="http://www.w3.org/1999/xlink"><defs><style type="text/css"><![CDATA[.background path {fill: #808080; fill-opacity: 0}.background path:nth-child(odd) {fill-opacity: .1}.axes {font-size: 14px}.x-axis .tick .lab {font-weight: bold; dominant-baseline: hanging}.axes, .tree {font-size: 14px; text-anchor: middle}.axes line, .edge {stroke: black; fill: none}.y-axis .grid {stroke: #FAFAFA}.node > .sym {fill: black; stroke: none}.site > .sym {stroke: black}.mut text {fill: red; font-style: italic}.mut.extra text {fill: hotpink}.mut line {fill: none; stroke: none}.mut .sym {fill: none; stroke: red}.mut.extra .sym {stroke: hotpink}.node .mut .sym {stroke-width: 1.5px}.tree text, .tree-sequence text {dominant-baseline: central}.plotbox .lab.lft {text-anchor: end}.plotbox .lab.rgt {text-anchor: start}]]></style></defs><g class="tree-sequence"><g class="background"><path d="M20,0 l193.333,0 l0,138.2 l-136.193,25 l0,5 l-57.1404,0 l0,-5 l0,-25 l0,-138.2z" /><path d="M213.333,0 l193.333,0 l0,138.2 l-283.262,25 l0,5 l-46.2638,0 l0,-5 l136.193,-25 l0,-138.2z" /><path d="M406.667,0 l193.333,0 l0,138.2 l-348.288,25 l0,5 l-128.307,0 l0,-5 l283.262,-25 l0,-138.2z" /><path d="M600,0 l193.333,0 l0,138.2 l-73.4545,25 l0,5 l-468.167,0 l0,-5 l348.288,-25 l0,-138.2z" /><path d="M793.333,0 l193.333,0 l0,138.2 l20.6432,25 l0,5 l-287.431,0 l0,-5 l73.4545,-25 l0,-138.2z" /><path d="M986.667,0 l193.333,0 l0,138.2 l0,25 l0,5 l-172.69,0 l0,-5 l-20.6432,-25 l0,-138.2z" /></g><g class="axes"><g class="x-axis"><g transform="translate(600 200)"><text class="lab" text-anchor="middle" transform="translate(0 -11)">Genome position</text></g><line x1="20" x2="1180" y1="163.2" y2="163.2" /><g class="ticks"><g class="tick" transform="translate(20 163.2)"><line x1="0" x2="0" y1="0" y2="5" /><g transform="translate(0 6)"><text class="lab">0.00</text></g></g><g class="tick" transform="translate(77.1404 163.2)"><line x1="0" x2="0" y1="0" y2="5" /><g transform="translate(0 6)"><text class="lab">49.26</text></g></g><g class="tick" transform="translate(123.404 163.2)"><line x1="0" x2="0" y1="0" y2="5" /><g transform="translate(0 6)"><text class="lab">89.14</text></g></g><g class="tick" transform="translate(251.712 163.2)"><line x1="0" x2="0" y1="0" y2="5" /><g transform="translate(0 6)"><text class="lab">199.75</text></g></g><g class="tick" transform="translate(719.879 163.2)"><line x1="0" x2="0" y1="0" y2="5" /><g transform="translate(0 6)"><text class="lab">603.34</text></g></g><g class="tick" transform="translate(1007.31 163.2)"><line x1="0" x2="0" y1="0" y2="5" /><g transform="translate(0 6)"><text class="lab">851.13</text></g></g><g class="tick" transform="translate(1180 163.2)"><line x1="0" x2="0" y1="0" y2="5" /><g transform="translate(0 6)"><text class="lab">1000.00</text></g></g></g></g></g><g class="plotbox trees"><g class="tree t0" transform="translate(20 0)"><g class="plotbox"><g class="c2 node n33 p0 root" transform="translate(123.26 26.8)"><g class="a33 c1 node n30 p0" transform="translate(34.7396 47.6105)"><g class="a30 c2 node n29 p0" transform="translate(0.0 0.627083)"><g class="a29 c1 node n21 p0" transform="translate(7.66667 26.8393)"><g class="a21 c1 node n19 p0" transform="translate(0.0 2.13383)"><g class="a19 leaf node n6 p0 sample" transform="translate(0.0 17.3893)"><path class="edge" d="M 0 0 V -17.3893 H 0.0" /><rect class="sym" height="6" width="6" x="-3" y="-3" /><text class="lab" transform="translate(0 11)">6</text></g><path class="edge" d="M 0 0 V -2.13383 H 0.0" /><circle class="sym" cx="0" cy="0" r="3" /><text class="lab lft" transform="translate(-3 -7.0)">19</text></g><path class="edge" d="M 0 0 V -26.8393 H -7.66667" /><circle class="sym" cx="0" cy="0" r="3" /><text class="lab rgt" transform="translate(3 -7.0)">21</text></g><g class="a29 c1 node n22 p0" transform="translate(-7.66667 23.0261)"><g class="a22 leaf node n4 p0 sample" transform="translate(0.0 23.3364)"><path class="edge" d="M 0 0 V -23.3364 H 0.0" /><rect class="sym" height="6" width="6" x="-3" y="-3" /><text class="lab" transform="translate(0 11)">4</text></g><path class="edge" d="M 0 0 V -23.0261 H 7.66667" /><circle class="sym" cx="0" cy="0" r="3" /><text class="lab lft" transform="translate(-3 -7.0)">22</text></g><path class="edge" d="M 0 0 V -0.627083 H 0.0" /><circle class="sym" cx="0" cy="0" r="3" /><text class="lab lft" transform="translate(-3 -7.0)">29</text></g><path class="edge" d="M 0 0 V -47.6105 H -34.7396" /><circle class="sym" cx="0" cy="0" r="3" /><text class="lab rgt" transform="translate(3 -7.0)">30</text></g><g class="a33 c2 node n32 p0" transform="translate(-34.7396 33.2605)"><g class="a32 c1 node n26 p0" transform="translate(38.8125 33.0413)"><g class="a26 c2 node n17 p0" transform="translate(0.0 15.9912)"><g class="a17 leaf node n2 p0 sample" transform="translate(-7.66667 12.307)"><path class="edge" d="M 0 0 V -12.307 H 7.66667" /><rect class="sym" height="6" width="6" x="-3" y="-3" /><text class="lab" transform="translate(0 11)">2</text></g><g class="a17 leaf node n3 p0 sample" transform="translate(7.66667 12.307)"><path class="edge" d="M 0 0 V -12.307 H -7.66667" /><rect class="sym" height="6" width="6" x="-3" y="-3" /><text class="lab" transform="translate(0 11)">3</text></g><path class="edge" d="M 0 0 V -15.9912 H 0.0" /><circle class="sym" cx="0" cy="0" r="3" /><text class="lab lft" transform="translate(-3 -7.0)">17</text></g><path class="edge" d="M 0 0 V -33.0413 H -38.8125" /><circle class="sym" cx="0" cy="0" r="3" /><text class="lab rgt" transform="translate(3 -7.0)">26</text></g><g class="a32 c1 node n31 p0" transform="translate(-38.8125 0.176384)"><g class="a31 c1 node n27 p0" transform="translate(0.0 16.6978)"><g class="a27 c2 node n25 p0" transform="translate(0.0 18.787)"><g class="a25 c1 node n13 p0" transform="translate(-22.0417 18.402)"><g class="a13 leaf node n0 p0 sample" transform="translate(0.0 7.27621)"><path class="edge" d="M 0 0 V -7.27621 H 0.0" /><rect class="sym" height="6" width="6" x="-3" y="-3" /><text class="lab" transform="translate(0 11)">0</text></g><path class="edge" d="M 0 0 V -18.402 H 22.0417" /><circle class="sym" cx="0" cy="0" r="3" /><text class="lab lft" transform="translate(-3 -7.0)">13</text></g><g class="a25 c1 node n23 p0" transform="translate(22.0417 0.89288)"><g class="a23 c2 node n18 p0" transform="translate(0.0 11.1035)"><g class="a18 c2 node n10 p0" transform="translate(-21.0833 13.3382)"><g class="a10 leaf node n1 p0 sample" transform="translate(-7.66667 0.343669)"><path class="edge" d="M 0 0 V -0.343669 H 7.66667" /><rect class="sym" height="6" width="6" x="-3" y="-3" /><text class="lab" transform="translate(0 11)">1</text></g><g class="a10 leaf node n7 p0 sample" transform="translate(7.66667 0.343669)"><path class="edge" d="M 0 0 V -0.343669 H -7.66667" /><rect class="sym" height="6" width="6" x="-3" y="-3" /><text class="lab" transform="translate(0 11)">7</text></g><path class="edge" d="M 0 0 V -13.3382 H 21.0833" /><circle class="sym" cx="0" cy="0" r="3" /><text class="lab lft" transform="translate(-3 -7.0)">10</text></g><g class="a18 c1 node n15 p0" transform="translate(21.0833 5.87411)"><g class="a15 c2 node n12 p0" transform="translate(0.0 2.72778)"><g class="a12 leaf node n8 p0 sample" transform="translate(11.5 5.08)"><path class="edge" d="M 0 0 V -5.08 H -11.5" /><rect class="sym" height="6" width="6" x="-3" y="-3" /><text class="lab" transform="translate(0 11)">8</text></g><g class="a12 c2 node n11 p0" transform="translate(-11.5 0.758797)"><g class="a11 leaf node n5 p0 sample" transform="translate(-7.66667 4.32121)"><path class="edge" d="M 0 0 V -4.32121 H 7.66667" /><rect class="sym" height="6" width="6" x="-3" y="-3" /><text class="lab" transform="translate(0 11)">5</text></g><g class="a11 leaf node n9 p0 sample" transform="translate(7.66667 4.32121)"><path class="edge" d="M 0 0 V -4.32121 H -7.66667" /><rect class="sym" height="6" width="6" x="-3" y="-3" /><text class="lab" transform="translate(0 11)">9</text></g><path class="edge" d="M 0 0 V -0.758797 H 11.5" /><circle class="sym" cx="0" cy="0" r="3" /><text class="lab lft" transform="translate(-3 -7.0)">11</text></g><path class="edge" d="M 0 0 V -2.72778 H 0.0" /><circle class="sym" cx="0" cy="0" r="3" /><text class="lab lft" transform="translate(-3 -7.0)">12</text></g><path class="edge" d="M 0 0 V -5.87411 H -21.0833" /><circle class="sym" cx="0" cy="0" r="3" /><text class="lab rgt" transform="translate(3 -7.0)">15</text></g><path class="edge" d="M 0 0 V -11.1035 H 0.0" /><circle class="sym" cx="0" cy="0" r="3" /><text class="lab lft" transform="translate(-3 -7.0)">18</text></g><path class="edge" d="M 0 0 V -0.89288 H -22.0417" /><circle class="sym" cx="0" cy="0" r="3" /><text class="lab rgt" transform="translate(3 -7.0)">23</text></g><path class="edge" d="M 0 0 V -18.787 H 0.0" /><circle class="sym" cx="0" cy="0" r="3" /><text class="lab lft" transform="translate(-3 -7.0)">25</text></g><path class="edge" d="M 0 0 V -16.6978 H 0.0" /><circle class="sym" cx="0" cy="0" r="3" /><text class="lab lft" transform="translate(-3 -7.0)">27</text></g><path class="edge" d="M 0 0 V -0.176384 H 38.8125" /><circle class="sym" cx="0" cy="0" r="3" /><text class="lab lft" transform="translate(-3 -7.0)">31</text></g><path class="edge" d="M 0 0 V -33.2605 H 34.7396" /><circle class="sym" cx="0" cy="0" r="3" /><text class="lab lft" transform="translate(-3 -7.0)">32</text></g><circle class="sym" cx="0" cy="0" r="3" /><text class="lab" transform="translate(0 -11)">33</text></g></g></g><g class="tree t1" transform="translate(213.333 0)"><g class="plotbox"><g class="c2 node n33 p0 root" transform="translate(88.5208 26.8)"><g class="a33 c1 node n30 p0" transform="translate(-41.6875 47.6105)"><g class="a30 c2 node n29 p0" transform="translate(0.0 0.627083)"><g class="a29 c2 node n21 p0" transform="translate(-11.5 26.8393)"><g class="a21 c1 node n19 p0" transform="translate(7.66667 2.13383)"><g class="a19 leaf node n6 p0 sample" transform="translate(0.0 17.3893)"><path class="edge" d="M 0 0 V -17.3893 H 0.0" /><rect class="sym" height="6" width="6" x="-3" y="-3" /><text class="lab" transform="translate(0 11)">6</text></g><path class="edge" d="M 0 0 V -2.13383 H -7.66667" /><circle class="sym" cx="0" cy="0" r="3" /><text class="lab rgt" transform="translate(3 -7.0)">19</text></g><g class="a21 c1 node n14 p0" transform="translate(-7.66667 12.2469)"><g class="a14 leaf node n0 p0 sample" transform="translate(0.0 7.27621)"><path class="edge" d="M 0 0 V -7.27621 H 0.0" /><rect class="sym" height="6" width="6" x="-3" y="-3" /><text class="lab" transform="translate(0 11)">0</text></g><path class="edge" d="M 0 0 V -12.2469 H 7.66667" /><circle class="sym" cx="0" cy="0" r="3" /><text class="lab lft" transform="translate(-3 -7.0)">14</text></g><path class="edge" d="M 0 0 V -26.8393 H 11.5" /><circle class="sym" cx="0" cy="0" r="3" /><text class="lab lft" transform="translate(-3 -7.0)">21</text></g><g class="a29 c1 node n22 p0" transform="translate(11.5 23.0261)"><g class="a22 leaf node n4 p0 sample" transform="translate(0.0 23.3364)"><path class="edge" d="M 0 0 V -23.3364 H 0.0" /><rect class="sym" height="6" width="6" x="-3" y="-3" /><text class="lab" transform="translate(0 11)">4</text></g><path class="edge" d="M 0 0 V -23.0261 H -11.5" /><circle class="sym" cx="0" cy="0" r="3" /><text class="lab rgt" transform="translate(3 -7.0)">22</text></g><path class="edge" d="M 0 0 V -0.627083 H 0.0" /><circle class="sym" cx="0" cy="0" r="3" /><text class="lab lft" transform="translate(-3 -7.0)">29</text></g><path class="edge" d="M 0 0 V -47.6105 H 41.6875" /><circle class="sym" cx="0" cy="0" r="3" /><text class="lab lft" transform="translate(-3 -7.0)">30</text></g><g class="a33 c2 node n32 p0" transform="translate(41.6875 33.2605)"><g class="a32 c1 node n26 p0" transform="translate(27.7917 33.0413)"><g class="a26 c2 node n17 p0" transform="translate(0.0 15.9912)"><g class="a17 leaf node n2 p0 sample" transform="translate(-7.66667 12.307)"><path class="edge" d="M 0 0 V -12.307 H 7.66667" /><rect class="sym" height="6" width="6" x="-3" y="-3" /><text class="lab" transform="translate(0 11)">2</text></g><g class="a17 leaf node n3 p0 sample" transform="translate(7.66667 12.307)"><path class="edge" d="M 0 0 V -12.307 H -7.66667" /><rect class="sym" height="6" width="6" x="-3" y="-3" /><text class="lab" transform="translate(0 11)">3</text></g><path class="edge" d="M 0 0 V -15.9912 H 0.0" /><circle class="sym" cx="0" cy="0" r="3" /><text class="lab lft" transform="translate(-3 -7.0)">17</text></g><path class="edge" d="M 0 0 V -33.0413 H -27.7917" /><circle class="sym" cx="0" cy="0" r="3" /><text class="lab rgt" transform="translate(3 -7.0)">26</text></g><g class="a32 c1 node n31 p0" transform="translate(-27.7917 0.176384)"><g class="a31 c1 node n27 p0" transform="translate(0.0 16.6978)"><g class="a27 c1 node n25 p0" transform="translate(0.0 18.787)"><g class="a25 c1 node n23 p0" transform="translate(0.0 0.89288)"><g class="a23 c2 node n18 p0" transform="translate(0.0 11.1035)"><g class="a18 c2 node n10 p0" transform="translate(-21.0833 13.3382)"><g class="a10 leaf node n1 p0 sample" transform="translate(-7.66667 0.343669)"><path class="edge" d="M 0 0 V -0.343669 H 7.66667" /><rect class="sym" height="6" width="6" x="-3" y="-3" /><text class="lab" transform="translate(0 11)">1</text></g><g class="a10 leaf node n7 p0 sample" transform="translate(7.66667 0.343669)"><path class="edge" d="M 0 0 V -0.343669 H -7.66667" /><rect class="sym" height="6" width="6" x="-3" y="-3" /><text class="lab" transform="translate(0 11)">7</text></g><path class="edge" d="M 0 0 V -13.3382 H 21.0833" /><circle class="sym" cx="0" cy="0" r="3" /><text class="lab lft" transform="translate(-3 -7.0)">10</text></g><g class="a18 c1 node n15 p0" transform="translate(21.0833 5.87411)"><g class="a15 c2 node n12 p0" transform="translate(0.0 2.72778)"><g class="a12 leaf node n8 p0 sample" transform="translate(11.5 5.08)"><path class="edge" d="M 0 0 V -5.08 H -11.5" /><rect class="sym" height="6" width="6" x="-3" y="-3" /><text class="lab" transform="translate(0 11)">8</text></g><g class="a12 c2 node n11 p0" transform="translate(-11.5 0.758797)"><g class="a11 leaf node n5 p0 sample" transform="translate(-7.66667 4.32121)"><path class="edge" d="M 0 0 V -4.32121 H 7.66667" /><rect class="sym" height="6" width="6" x="-3" y="-3" /><text class="lab" transform="translate(0 11)">5</text></g><g class="a11 leaf node n9 p0 sample" transform="translate(7.66667 4.32121)"><path class="edge" d="M 0 0 V -4.32121 H -7.66667" /><rect class="sym" height="6" width="6" x="-3" y="-3" /><text class="lab" transform="translate(0 11)">9</text></g><path class="edge" d="M 0 0 V -0.758797 H 11.5" /><circle class="sym" cx="0" cy="0" r="3" /><text class="lab lft" transform="translate(-3 -7.0)">11</text></g><path class="edge" d="M 0 0 V -2.72778 H 0.0" /><circle class="sym" cx="0" cy="0" r="3" /><text class="lab lft" transform="translate(-3 -7.0)">12</text></g><path class="edge" d="M 0 0 V -5.87411 H -21.0833" /><circle class="sym" cx="0" cy="0" r="3" /><text class="lab rgt" transform="translate(3 -7.0)">15</text></g><path class="edge" d="M 0 0 V -11.1035 H 0.0" /><circle class="sym" cx="0" cy="0" r="3" /><text class="lab lft" transform="translate(-3 -7.0)">18</text></g><path class="edge" d="M 0 0 V -0.89288 H 0.0" /><circle class="sym" cx="0" cy="0" r="3" /><text class="lab lft" transform="translate(-3 -7.0)">23</text></g><path class="edge" d="M 0 0 V -18.787 H 0.0" /><circle class="sym" cx="0" cy="0" r="3" /><text class="lab lft" transform="translate(-3 -7.0)">25</text></g><path class="edge" d="M 0 0 V -16.6978 H 0.0" /><circle class="sym" cx="0" cy="0" r="3" /><text class="lab lft" transform="translate(-3 -7.0)">27</text></g><path class="edge" d="M 0 0 V -0.176384 H 27.7917" /><circle class="sym" cx="0" cy="0" r="3" /><text class="lab lft" transform="translate(-3 -7.0)">31</text></g><path class="edge" d="M 0 0 V -33.2605 H -41.6875" /><circle class="sym" cx="0" cy="0" r="3" /><text class="lab rgt" transform="translate(3 -7.0)">32</text></g><circle class="sym" cx="0" cy="0" r="3" /><text class="lab" transform="translate(0 -11)">33</text></g></g></g><g class="tree t2" transform="translate(406.667 0)"><g class="plotbox"><g class="c2 node n33 p0 root" transform="translate(99.0625 26.8)"><g class="a33 c1 node n30 p0" transform="translate(-43.6042 47.6105)"><g class="a30 c2 node n29 p0" transform="translate(0.0 0.627083)"><g class="a29 c2 node n21 p0" transform="translate(-20.125 26.8393)"><g class="a21 c1 node n19 p0" transform="translate(7.66667 2.13383)"><g class="a19 leaf node n6 p0 sample" transform="translate(0.0 17.3893)"><path class="edge" d="M 0 0 V -17.3893 H 0.0" /><rect class="sym" height="6" width="6" x="-3" y="-3" /><text class="lab" transform="translate(0 11)">6</text></g><path class="edge" d="M 0 0 V -2.13383 H -7.66667" /><circle class="sym" cx="0" cy="0" r="3" /><text class="lab rgt" transform="translate(3 -7.0)">19</text></g><g class="a21 c1 node n14 p0" transform="translate(-7.66667 12.2469)"><g class="a14 leaf node n0 p0 sample" transform="translate(0.0 7.27621)"><path class="edge" d="M 0 0 V -7.27621 H 0.0" /><rect class="sym" height="6" width="6" x="-3" y="-3" /><text class="lab" transform="translate(0 11)">0</text></g><path class="edge" d="M 0 0 V -12.2469 H 7.66667" /><circle class="sym" cx="0" cy="0" r="3" /><text class="lab lft" transform="translate(-3 -7.0)">14</text></g><path class="edge" d="M 0 0 V -26.8393 H 20.125" /><circle class="sym" cx="0" cy="0" r="3" /><text class="lab lft" transform="translate(-3 -7.0)">21</text></g><g class="a29 c2 node n22 p0" transform="translate(20.125 23.0261)"><g class="a22 leaf node n4 p0 sample" transform="translate(-17.25 23.3364)"><path class="edge" d="M 0 0 V -23.3364 H 17.25" /><rect class="sym" height="6" width="6" x="-3" y="-3" /><text class="lab" transform="translate(0 11)">4</text></g><g class="a22 c1 node n16 p0" transform="translate(17.25 15.5286)"><g class="a16 c2 node n12 p0" transform="translate(0.0 2.72778)"><g class="a12 leaf node n8 p0 sample" transform="translate(11.5 5.08)"><path class="edge" d="M 0 0 V -5.08 H -11.5" /><rect class="sym" height="6" width="6" x="-3" y="-3" /><text class="lab" transform="translate(0 11)">8</text></g><g class="a12 c2 node n11 p0" transform="translate(-11.5 0.758797)"><g class="a11 leaf node n5 p0 sample" transform="translate(-7.66667 4.32121)"><path class="edge" d="M 0 0 V -4.32121 H 7.66667" /><rect class="sym" height="6" width="6" x="-3" y="-3" /><text class="lab" transform="translate(0 11)">5</text></g><g class="a11 leaf node n9 p0 sample" transform="translate(7.66667 4.32121)"><path class="edge" d="M 0 0 V -4.32121 H -7.66667" /><rect class="sym" height="6" width="6" x="-3" y="-3" /><text class="lab" transform="translate(0 11)">9</text></g><path class="edge" d="M 0 0 V -0.758797 H 11.5" /><circle class="sym" cx="0" cy="0" r="3" /><text class="lab lft" transform="translate(-3 -7.0)">11</text></g><path class="edge" d="M 0 0 V -2.72778 H 0.0" /><circle class="sym" cx="0" cy="0" r="3" /><text class="lab lft" transform="translate(-3 -7.0)">12</text></g><path class="edge" d="M 0 0 V -15.5286 H -17.25" /><circle class="sym" cx="0" cy="0" r="3" /><text class="lab rgt" transform="translate(3 -7.0)">16</text></g><path class="edge" d="M 0 0 V -23.0261 H -20.125" /><circle class="sym" cx="0" cy="0" r="3" /><text class="lab rgt" transform="translate(3 -7.0)">22</text></g><path class="edge" d="M 0 0 V -0.627083 H 0.0" /><circle class="sym" cx="0" cy="0" r="3" /><text class="lab lft" transform="translate(-3 -7.0)">29</text></g><path class="edge" d="M 0 0 V -47.6105 H 43.6042" /><circle class="sym" cx="0" cy="0" r="3" /><text class="lab lft" transform="translate(-3 -7.0)">30</text></g><g class="a33 c2 node n32 p0" transform="translate(43.6042 33.2605)"><g class="a32 c1 node n26 p0" transform="translate(15.3333 33.0413)"><g class="a26 c2 node n17 p0" transform="translate(0.0 15.9912)"><g class="a17 leaf node n2 p0 sample" transform="translate(-7.66667 12.307)"><path class="edge" d="M 0 0 V -12.307 H 7.66667" /><rect class="sym" height="6" width="6" x="-3" y="-3" /><text class="lab" transform="translate(0 11)">2</text></g><g class="a17 leaf node n3 p0 sample" transform="translate(7.66667 12.307)"><path class="edge" d="M 0 0 V -12.307 H -7.66667" /><rect class="sym" height="6" width="6" x="-3" y="-3" /><text class="lab" transform="translate(0 11)">3</text></g><path class="edge" d="M 0 0 V -15.9912 H 0.0" /><circle class="sym" cx="0" cy="0" r="3" /><text class="lab lft" transform="translate(-3 -7.0)">17</text></g><path class="edge" d="M 0 0 V -33.0413 H -15.3333" /><circle class="sym" cx="0" cy="0" r="3" /><text class="lab rgt" transform="translate(3 -7.0)">26</text></g><g class="a32 c1 node n31 p0" transform="translate(-15.3333 0.176384)"><g class="a31 c1 node n27 p0" transform="translate(0.0 16.6978)"><g class="a27 c1 node n25 p0" transform="translate(0.0 18.787)"><g class="a25 c1 node n23 p0" transform="translate(0.0 0.89288)"><g class="a23 c1 node n18 p0" transform="translate(0.0 11.1035)"><g class="a18 c2 node n10 p0" transform="translate(0.0 13.3382)"><g class="a10 leaf node n1 p0 sample" transform="translate(-7.66667 0.343669)"><path class="edge" d="M 0 0 V -0.343669 H 7.66667" /><rect class="sym" height="6" width="6" x="-3" y="-3" /><text class="lab" transform="translate(0 11)">1</text></g><g class="a10 leaf node n7 p0 sample" transform="translate(7.66667 0.343669)"><path class="edge" d="M 0 0 V -0.343669 H -7.66667" /><rect class="sym" height="6" width="6" x="-3" y="-3" /><text class="lab" transform="translate(0 11)">7</text></g><path class="edge" d="M 0 0 V -13.3382 H 0.0" /><circle class="sym" cx="0" cy="0" r="3" /><text class="lab lft" transform="translate(-3 -7.0)">10</text></g><path class="edge" d="M 0 0 V -11.1035 H 0.0" /><circle class="sym" cx="0" cy="0" r="3" /><text class="lab lft" transform="translate(-3 -7.0)">18</text></g><path class="edge" d="M 0 0 V -0.89288 H 0.0" /><circle class="sym" cx="0" cy="0" r="3" /><text class="lab lft" transform="translate(-3 -7.0)">23</text></g><path class="edge" d="M 0 0 V -18.787 H 0.0" /><circle class="sym" cx="0" cy="0" r="3" /><text class="lab lft" transform="translate(-3 -7.0)">25</text></g><path class="edge" d="M 0 0 V -16.6978 H 0.0" /><circle class="sym" cx="0" cy="0" r="3" /><text class="lab lft" transform="translate(-3 -7.0)">27</text></g><path class="edge" d="M 0 0 V -0.176384 H 15.3333" /><circle class="sym" cx="0" cy="0" r="3" /><text class="lab lft" transform="translate(-3 -7.0)">31</text></g><path class="edge" d="M 0 0 V -33.2605 H -43.6042" /><circle class="sym" cx="0" cy="0" r="3" /><text class="lab rgt" transform="translate(3 -7.0)">32</text></g><circle class="sym" cx="0" cy="0" r="3" /><text class="lab" transform="translate(0 -11)">33</text></g></g></g><g class="tree t3" transform="translate(600 0)"><g class="plotbox"><g class="c2 node n33 p0 root" transform="translate(92.3542 26.8)"><g class="a33 c1 node n30 p0" transform="translate(-48.3958 47.6105)"><g class="a30 c2 node n29 p0" transform="translate(0.0 0.627083)"><g class="a29 c1 node n21 p0" transform="translate(-16.2917 26.8393)"><g class="a21 c1 node n14 p0" transform="translate(0.0 12.2469)"><g class="a14 leaf node n0 p0 sample" transform="translate(0.0 7.27621)"><path class="edge" d="M 0 0 V -7.27621 H 0.0" /><rect class="sym" height="6" width="6" x="-3" y="-3" /><text class="lab" transform="translate(0 11)">0</text></g><path class="edge" d="M 0 0 V -12.2469 H 0.0" /><circle class="sym" cx="0" cy="0" r="3" /><text class="lab lft" transform="translate(-3 -7.0)">14</text></g><path class="edge" d="M 0 0 V -26.8393 H 16.2917" /><circle class="sym" cx="0" cy="0" r="3" /><text class="lab lft" transform="translate(-3 -7.0)">21</text></g><g class="a29 c2 node n22 p0" transform="translate(16.2917 23.0261)"><g class="a22 leaf node n4 p0 sample" transform="translate(-17.25 23.3364)"><path class="edge" d="M 0 0 V -23.3364 H 17.25" /><rect class="sym" height="6" width="6" x="-3" y="-3" /><text class="lab" transform="translate(0 11)">4</text></g><g class="a22 c1 node n16 p0" transform="translate(17.25 15.5286)"><g class="a16 c2 node n12 p0" transform="translate(0.0 2.72778)"><g class="a12 leaf node n8 p0 sample" transform="translate(11.5 5.08)"><path class="edge" d="M 0 0 V -5.08 H -11.5" /><rect class="sym" height="6" width="6" x="-3" y="-3" /><text class="lab" transform="translate(0 11)">8</text></g><g class="a12 c2 node n11 p0" transform="translate(-11.5 0.758797)"><g class="a11 leaf node n5 p0 sample" transform="translate(-7.66667 4.32121)"><path class="edge" d="M 0 0 V -4.32121 H 7.66667" /><rect class="sym" height="6" width="6" x="-3" y="-3" /><text class="lab" transform="translate(0 11)">5</text></g><g class="a11 leaf node n9 p0 sample" transform="translate(7.66667 4.32121)"><path class="edge" d="M 0 0 V -4.32121 H -7.66667" /><rect class="sym" height="6" width="6" x="-3" y="-3" /><text class="lab" transform="translate(0 11)">9</text></g><path class="edge" d="M 0 0 V -0.758797 H 11.5" /><circle class="sym" cx="0" cy="0" r="3" /><text class="lab lft" transform="translate(-3 -7.0)">11</text></g><path class="edge" d="M 0 0 V -2.72778 H 0.0" /><circle class="sym" cx="0" cy="0" r="3" /><text class="lab lft" transform="translate(-3 -7.0)">12</text></g><path class="edge" d="M 0 0 V -15.5286 H -17.25" /><circle class="sym" cx="0" cy="0" r="3" /><text class="lab rgt" transform="translate(3 -7.0)">16</text></g><path class="edge" d="M 0 0 V -23.0261 H -16.2917" /><circle class="sym" cx="0" cy="0" r="3" /><text class="lab rgt" transform="translate(3 -7.0)">22</text></g><path class="edge" d="M 0 0 V -0.627083 H 0.0" /><circle class="sym" cx="0" cy="0" r="3" /><text class="lab lft" transform="translate(-3 -7.0)">29</text></g><path class="edge" d="M 0 0 V -47.6105 H 48.3958" /><circle class="sym" cx="0" cy="0" r="3" /><text class="lab lft" transform="translate(-3 -7.0)">30</text></g><g class="a33 c2 node n32 p0" transform="translate(48.3958 33.2605)"><g class="a32 c1 node n26 p0" transform="translate(17.25 33.0413)"><g class="a26 c2 node n17 p0" transform="translate(0.0 15.9912)"><g class="a17 leaf node n2 p0 sample" transform="translate(-7.66667 12.307)"><path class="edge" d="M 0 0 V -12.307 H 7.66667" /><rect class="sym" height="6" width="6" x="-3" y="-3" /><text class="lab" transform="translate(0 11)">2</text></g><g class="a17 leaf node n3 p0 sample" transform="translate(7.66667 12.307)"><path class="edge" d="M 0 0 V -12.307 H -7.66667" /><rect class="sym" height="6" width="6" x="-3" y="-3" /><text class="lab" transform="translate(0 11)">3</text></g><path class="edge" d="M 0 0 V -15.9912 H 0.0" /><circle class="sym" cx="0" cy="0" r="3" /><text class="lab lft" transform="translate(-3 -7.0)">17</text></g><path class="edge" d="M 0 0 V -33.0413 H -17.25" /><circle class="sym" cx="0" cy="0" r="3" /><text class="lab rgt" transform="translate(3 -7.0)">26</text></g><g class="a32 c2 node n31 p0" transform="translate(-17.25 0.176384)"><g class="a31 c1 node n27 p0" transform="translate(-11.5 16.6978)"><g class="a27 c1 node n25 p0" transform="translate(0.0 18.787)"><g class="a25 c1 node n23 p0" transform="translate(0.0 0.89288)"><g class="a23 c1 node n18 p0" transform="translate(0.0 11.1035)"><g class="a18 c2 node n10 p0" transform="translate(0.0 13.3382)"><g class="a10 leaf node n1 p0 sample" transform="translate(-7.66667 0.343669)"><path class="edge" d="M 0 0 V -0.343669 H 7.66667" /><rect class="sym" height="6" width="6" x="-3" y="-3" /><text class="lab" transform="translate(0 11)">1</text></g><g class="a10 leaf node n7 p0 sample" transform="translate(7.66667 0.343669)"><path class="edge" d="M 0 0 V -0.343669 H -7.66667" /><rect class="sym" height="6" width="6" x="-3" y="-3" /><text class="lab" transform="translate(0 11)">7</text></g><path class="edge" d="M 0 0 V -13.3382 H 0.0" /><circle class="sym" cx="0" cy="0" r="3" /><text class="lab lft" transform="translate(-3 -7.0)">10</text></g><path class="edge" d="M 0 0 V -11.1035 H 0.0" /><circle class="sym" cx="0" cy="0" r="3" /><text class="lab lft" transform="translate(-3 -7.0)">18</text></g><path class="edge" d="M 0 0 V -0.89288 H 0.0" /><circle class="sym" cx="0" cy="0" r="3" /><text class="lab lft" transform="translate(-3 -7.0)">23</text></g><path class="edge" d="M 0 0 V -18.787 H 0.0" /><circle class="sym" cx="0" cy="0" r="3" /><text class="lab lft" transform="translate(-3 -7.0)">25</text></g><path class="edge" d="M 0 0 V -16.6978 H 11.5" /><circle class="sym" cx="0" cy="0" r="3" /><text class="lab lft" transform="translate(-3 -7.0)">27</text></g><g class="a31 c1 node n20 p0" transform="translate(11.5 43.7738)"><g class="a20 leaf node n6 p0 sample" transform="translate(0.0 17.3893)"><path class="edge" d="M 0 0 V -17.3893 H 0.0" /><rect class="sym" height="6" width="6" x="-3" y="-3" /><text class="lab" transform="translate(0 11)">6</text></g><path class="edge" d="M 0 0 V -43.7738 H -11.5" /><circle class="sym" cx="0" cy="0" r="3" /><text class="lab rgt" transform="translate(3 -7.0)">20</text></g><path class="edge" d="M 0 0 V -0.176384 H 17.25" /><circle class="sym" cx="0" cy="0" r="3" /><text class="lab lft" transform="translate(-3 -7.0)">31</text></g><path class="edge" d="M 0 0 V -33.2605 H -48.3958" /><circle class="sym" cx="0" cy="0" r="3" /><text class="lab rgt" transform="translate(3 -7.0)">32</text></g><circle class="sym" cx="0" cy="0" r="3" /><text class="lab" transform="translate(0 -11)">33</text></g></g></g><g class="tree t4" transform="translate(793.333 0)"><g class="plotbox"><g class="c2 node n33 p0 root" transform="translate(116.073 26.8)"><g class="a33 c2 node n30 p0" transform="translate(-38.0938 47.6105)"><g class="a30 c2 node n29 p0" transform="translate(-34.0208 0.627083)"><g class="a29 c1 node n21 p0" transform="translate(-16.2917 26.8393)"><g class="a21 c1 node n14 p0" transform="translate(0.0 12.2469)"><g class="a14 leaf node n0 p0 sample" transform="translate(0.0 7.27621)"><path class="edge" d="M 0 0 V -7.27621 H 0.0" /><rect class="sym" height="6" width="6" x="-3" y="-3" /><text class="lab" transform="translate(0 11)">0</text></g><path class="edge" d="M 0 0 V -12.2469 H 0.0" /><circle class="sym" cx="0" cy="0" r="3" /><text class="lab lft" transform="translate(-3 -7.0)">14</text></g><path class="edge" d="M 0 0 V -26.8393 H 16.2917" /><circle class="sym" cx="0" cy="0" r="3" /><text class="lab lft" transform="translate(-3 -7.0)">21</text></g><g class="a29 c2 node n22 p0" transform="translate(16.2917 23.0261)"><g class="a22 leaf node n4 p0 sample" transform="translate(-17.25 23.3364)"><path class="edge" d="M 0 0 V -23.3364 H 17.25" /><rect class="sym" height="6" width="6" x="-3" y="-3" /><text class="lab" transform="translate(0 11)">4</text></g><g class="a22 c1 node n16 p0" transform="translate(17.25 15.5286)"><g class="a16 c2 node n12 p0" transform="translate(0.0 2.72778)"><g class="a12 leaf node n8 p0 sample" transform="translate(11.5 5.08)"><path class="edge" d="M 0 0 V -5.08 H -11.5" /><rect class="sym" height="6" width="6" x="-3" y="-3" /><text class="lab" transform="translate(0 11)">8</text></g><g class="a12 c2 node n11 p0" transform="translate(-11.5 0.758797)"><g class="a11 leaf node n5 p0 sample" transform="translate(-7.66667 4.32121)"><path class="edge" d="M 0 0 V -4.32121 H 7.66667" /><rect class="sym" height="6" width="6" x="-3" y="-3" /><text class="lab" transform="translate(0 11)">5</text></g><g class="a11 leaf node n9 p0 sample" transform="translate(7.66667 4.32121)"><path class="edge" d="M 0 0 V -4.32121 H -7.66667" /><rect class="sym" height="6" width="6" x="-3" y="-3" /><text class="lab" transform="translate(0 11)">9</text></g><path class="edge" d="M 0 0 V -0.758797 H 11.5" /><circle class="sym" cx="0" cy="0" r="3" /><text class="lab lft" transform="translate(-3 -7.0)">11</text></g><path class="edge" d="M 0 0 V -2.72778 H 0.0" /><circle class="sym" cx="0" cy="0" r="3" /><text class="lab lft" transform="translate(-3 -7.0)">12</text></g><path class="edge" d="M 0 0 V -15.5286 H -17.25" /><circle class="sym" cx="0" cy="0" r="3" /><text class="lab rgt" transform="translate(3 -7.0)">16</text></g><path class="edge" d="M 0 0 V -23.0261 H -16.2917" /><circle class="sym" cx="0" cy="0" r="3" /><text class="lab rgt" transform="translate(3 -7.0)">22</text></g><path class="edge" d="M 0 0 V -0.627083 H 34.0208" /><circle class="sym" cx="0" cy="0" r="3" /><text class="lab lft" transform="translate(-3 -7.0)">29</text></g><g class="a30 c1 node n28 p0" transform="translate(34.0208 2.52425)"><g class="a28 c1 node n25 p0" transform="translate(0.0 18.787)"><g class="a25 c1 node n23 p0" transform="translate(0.0 0.89288)"><g class="a23 c1 node n18 p0" transform="translate(0.0 11.1035)"><g class="a18 c2 node n10 p0" transform="translate(0.0 13.3382)"><g class="a10 leaf node n1 p0 sample" transform="translate(-7.66667 0.343669)"><path class="edge" d="M 0 0 V -0.343669 H 7.66667" /><rect class="sym" height="6" width="6" x="-3" y="-3" /><text class="lab" transform="translate(0 11)">1</text></g><g class="a10 leaf node n7 p0 sample" transform="translate(7.66667 0.343669)"><path class="edge" d="M 0 0 V -0.343669 H -7.66667" /><rect class="sym" height="6" width="6" x="-3" y="-3" /><text class="lab" transform="translate(0 11)">7</text></g><path class="edge" d="M 0 0 V -13.3382 H 0.0" /><circle class="sym" cx="0" cy="0" r="3" /><text class="lab lft" transform="translate(-3 -7.0)">10</text></g><path class="edge" d="M 0 0 V -11.1035 H 0.0" /><circle class="sym" cx="0" cy="0" r="3" /><text class="lab lft" transform="translate(-3 -7.0)">18</text></g><path class="edge" d="M 0 0 V -0.89288 H 0.0" /><circle class="sym" cx="0" cy="0" r="3" /><text class="lab lft" transform="translate(-3 -7.0)">23</text></g><path class="edge" d="M 0 0 V -18.787 H 0.0" /><circle class="sym" cx="0" cy="0" r="3" /><text class="lab lft" transform="translate(-3 -7.0)">25</text></g><path class="edge" d="M 0 0 V -2.52425 H -34.0208" /><circle class="sym" cx="0" cy="0" r="3" /><text class="lab rgt" transform="translate(3 -7.0)">28</text></g><path class="edge" d="M 0 0 V -47.6105 H 38.0938" /><circle class="sym" cx="0" cy="0" r="3" /><text class="lab lft" transform="translate(-3 -7.0)">30</text></g><g class="a33 c2 node n32 p0" transform="translate(38.0938 33.2605)"><g class="a32 c1 node n26 p0" transform="translate(-11.5 33.0413)"><g class="a26 c2 node n17 p0" transform="translate(0.0 15.9912)"><g class="a17 leaf node n2 p0 sample" transform="translate(-7.66667 12.307)"><path class="edge" d="M 0 0 V -12.307 H 7.66667" /><rect class="sym" height="6" width="6" x="-3" y="-3" /><text class="lab" transform="translate(0 11)">2</text></g><g class="a17 leaf node n3 p0 sample" transform="translate(7.66667 12.307)"><path class="edge" d="M 0 0 V -12.307 H -7.66667" /><rect class="sym" height="6" width="6" x="-3" y="-3" /><text class="lab" transform="translate(0 11)">3</text></g><path class="edge" d="M 0 0 V -15.9912 H 0.0" /><circle class="sym" cx="0" cy="0" r="3" /><text class="lab lft" transform="translate(-3 -7.0)">17</text></g><path class="edge" d="M 0 0 V -33.0413 H 11.5" /><circle class="sym" cx="0" cy="0" r="3" /><text class="lab lft" transform="translate(-3 -7.0)">26</text></g><g class="a32 c1 node n31 p0" transform="translate(11.5 0.176384)"><g class="a31 c1 node n20 p0" transform="translate(0.0 43.7738)"><g class="a20 leaf node n6 p0 sample" transform="translate(0.0 17.3893)"><path class="edge" d="M 0 0 V -17.3893 H 0.0" /><rect class="sym" height="6" width="6" x="-3" y="-3" /><text class="lab" transform="translate(0 11)">6</text></g><path class="edge" d="M 0 0 V -43.7738 H 0.0" /><circle class="sym" cx="0" cy="0" r="3" /><text class="lab lft" transform="translate(-3 -7.0)">20</text></g><path class="edge" d="M 0 0 V -0.176384 H -11.5" /><circle class="sym" cx="0" cy="0" r="3" /><text class="lab rgt" transform="translate(3 -7.0)">31</text></g><path class="edge" d="M 0 0 V -33.2605 H -38.0938" /><circle class="sym" cx="0" cy="0" r="3" /><text class="lab rgt" transform="translate(3 -7.0)">32</text></g><circle class="sym" cx="0" cy="0" r="3" /><text class="lab" transform="translate(0 -11)">33</text></g></g></g><g class="tree t5" transform="translate(986.667 0)"><g class="plotbox"><g class="c2 node n33 p0 root" transform="translate(95.2292 26.8)"><g class="a33 c1 node n30 p0" transform="translate(-51.2708 47.6105)"><g class="a30 c2 node n29 p0" transform="translate(0.0 0.627083)"><g class="a29 c1 node n21 p0" transform="translate(-16.2917 26.8393)"><g class="a21 c1 node n14 p0" transform="translate(0.0 12.2469)"><g class="a14 leaf node n0 p0 sample" transform="translate(0.0 7.27621)"><path class="edge" d="M 0 0 V -7.27621 H 0.0" /><rect class="sym" height="6" width="6" x="-3" y="-3" /><text class="lab" transform="translate(0 11)">0</text></g><path class="edge" d="M 0 0 V -12.2469 H 0.0" /><circle class="sym" cx="0" cy="0" r="3" /><text class="lab lft" transform="translate(-3 -7.0)">14</text></g><path class="edge" d="M 0 0 V -26.8393 H 16.2917" /><circle class="sym" cx="0" cy="0" r="3" /><text class="lab lft" transform="translate(-3 -7.0)">21</text></g><g class="a29 c2 node n22 p0" transform="translate(16.2917 23.0261)"><g class="a22 leaf node n4 p0 sample" transform="translate(-17.25 23.3364)"><path class="edge" d="M 0 0 V -23.3364 H 17.25" /><rect class="sym" height="6" width="6" x="-3" y="-3" /><text class="lab" transform="translate(0 11)">4</text></g><g class="a22 c1 node n16 p0" transform="translate(17.25 15.5286)"><g class="a16 c2 node n12 p0" transform="translate(0.0 2.72778)"><g class="a12 leaf node n8 p0 sample" transform="translate(11.5 5.08)"><path class="edge" d="M 0 0 V -5.08 H -11.5" /><rect class="sym" height="6" width="6" x="-3" y="-3" /><text class="lab" transform="translate(0 11)">8</text></g><g class="a12 c2 node n11 p0" transform="translate(-11.5 0.758797)"><g class="a11 leaf node n5 p0 sample" transform="translate(-7.66667 4.32121)"><path class="edge" d="M 0 0 V -4.32121 H 7.66667" /><rect class="sym" height="6" width="6" x="-3" y="-3" /><text class="lab" transform="translate(0 11)">5</text></g><g class="a11 leaf node n9 p0 sample" transform="translate(7.66667 4.32121)"><path class="edge" d="M 0 0 V -4.32121 H -7.66667" /><rect class="sym" height="6" width="6" x="-3" y="-3" /><text class="lab" transform="translate(0 11)">9</text></g><path class="edge" d="M 0 0 V -0.758797 H 11.5" /><circle class="sym" cx="0" cy="0" r="3" /><text class="lab lft" transform="translate(-3 -7.0)">11</text></g><path class="edge" d="M 0 0 V -2.72778 H 0.0" /><circle class="sym" cx="0" cy="0" r="3" /><text class="lab lft" transform="translate(-3 -7.0)">12</text></g><path class="edge" d="M 0 0 V -15.5286 H -17.25" /><circle class="sym" cx="0" cy="0" r="3" /><text class="lab rgt" transform="translate(3 -7.0)">16</text></g><path class="edge" d="M 0 0 V -23.0261 H -16.2917" /><circle class="sym" cx="0" cy="0" r="3" /><text class="lab rgt" transform="translate(3 -7.0)">22</text></g><path class="edge" d="M 0 0 V -0.627083 H 0.0" /><circle class="sym" cx="0" cy="0" r="3" /><text class="lab lft" transform="translate(-3 -7.0)">29</text></g><path class="edge" d="M 0 0 V -47.6105 H 51.2708" /><circle class="sym" cx="0" cy="0" r="3" /><text class="lab lft" transform="translate(-3 -7.0)">30</text></g><g class="a33 c2 node n32 p0" transform="translate(51.2708 33.2605)"><g class="a32 c2 node n26 p0" transform="translate(-19.1667 33.0413)"><g class="a26 c2 node n17 p0" transform="translate(15.3333 15.9912)"><g class="a17 leaf node n2 p0 sample" transform="translate(-7.66667 12.307)"><path class="edge" d="M 0 0 V -12.307 H 7.66667" /><rect class="sym" height="6" width="6" x="-3" y="-3" /><text class="lab" transform="translate(0 11)">2</text></g><g class="a17 leaf node n3 p0 sample" transform="translate(7.66667 12.307)"><path class="edge" d="M 0 0 V -12.307 H -7.66667" /><rect class="sym" height="6" width="6" x="-3" y="-3" /><text class="lab" transform="translate(0 11)">3</text></g><path class="edge" d="M 0 0 V -15.9912 H -15.3333" /><circle class="sym" cx="0" cy="0" r="3" /><text class="lab rgt" transform="translate(3 -7.0)">17</text></g><g class="a26 c1 node n24 p0" transform="translate(-15.3333 3.51279)"><g class="a24 c1 node n18 p0" transform="translate(0.0 11.1035)"><g class="a18 c2 node n10 p0" transform="translate(0.0 13.3382)"><g class="a10 leaf node n1 p0 sample" transform="translate(-7.66667 0.343669)"><path class="edge" d="M 0 0 V -0.343669 H 7.66667" /><rect class="sym" height="6" width="6" x="-3" y="-3" /><text class="lab" transform="translate(0 11)">1</text></g><g class="a10 leaf node n7 p0 sample" transform="translate(7.66667 0.343669)"><path class="edge" d="M 0 0 V -0.343669 H -7.66667" /><rect class="sym" height="6" width="6" x="-3" y="-3" /><text class="lab" transform="translate(0 11)">7</text></g><path class="edge" d="M 0 0 V -13.3382 H 0.0" /><circle class="sym" cx="0" cy="0" r="3" /><text class="lab lft" transform="translate(-3 -7.0)">10</text></g><path class="edge" d="M 0 0 V -11.1035 H 0.0" /><circle class="sym" cx="0" cy="0" r="3" /><text class="lab lft" transform="translate(-3 -7.0)">18</text></g><path class="edge" d="M 0 0 V -3.51279 H 15.3333" /><circle class="sym" cx="0" cy="0" r="3" /><text class="lab lft" transform="translate(-3 -7.0)">24</text></g><path class="edge" d="M 0 0 V -33.0413 H 19.1667" /><circle class="sym" cx="0" cy="0" r="3" /><text class="lab lft" transform="translate(-3 -7.0)">26</text></g><g class="a32 c1 node n31 p0" transform="translate(19.1667 0.176384)"><g class="a31 c1 node n20 p0" transform="translate(0.0 43.7738)"><g class="a20 leaf node n6 p0 sample" transform="translate(0.0 17.3893)"><path class="edge" d="M 0 0 V -17.3893 H 0.0" /><rect class="sym" height="6" width="6" x="-3" y="-3" /><text class="lab" transform="translate(0 11)">6</text></g><path class="edge" d="M 0 0 V -43.7738 H 0.0" /><circle class="sym" cx="0" cy="0" r="3" /><text class="lab lft" transform="translate(-3 -7.0)">20</text></g><path class="edge" d="M 0 0 V -0.176384 H -19.1667" /><circle class="sym" cx="0" cy="0" r="3" /><text class="lab rgt" transform="translate(3 -7.0)">31</text></g><path class="edge" d="M 0 0 V -33.2605 H -51.2708" /><circle class="sym" cx="0" cy="0" r="3" /><text class="lab rgt" transform="translate(3 -7.0)">32</text></g><circle class="sym" cx="0" cy="0" r="3" /><text class="lab" transform="translate(0 -11)">33</text></g></g></g></g></g></svg>
