<svg baseProfile="full" height="200" version="1.1" width="800" xmlns="http://www.w3.org/2000/svg" xmlns:ev="http://www.w3.org/2001/xml-events" xmlns:xlink="http://www.w3.org/1999/xlink"><defs><style type="text/css"><![CDATA[.background path {fill: #808080; fill-opacity: 0}.background path:nth-child(odd) {fill-opacity: .1}.axes {font-size: 14px}.x-axis .tick .lab {font-weight: bold; dominant-baseline: hanging}.axes, .tree {font-size: 14px; text-anchor: middle}.axes line, .edge {stroke: black; fill: none}.y-axis .grid {stroke: #FAFAFA}.node > .sym {fill: black; stroke: none}.site > .sym {stroke: black}.mut text {fill: red; font-style: italic}.mut.extra text {fill: hotpink}.mut line {fill: none; stroke: none}.mut .sym {fill: none; stroke: red}.mut.extra .sym {stroke: hotpink}.node .mut .sym {stroke-width: 1.5px}.tree text, .tree-sequence text {dominant-baseline: central}.plotbox .lab.lft {text-anchor: end}.plotbox .lab.rgt {text-anchor: start}]]></style></defs><g class="tree-sequence"><g class="background"><path d="M20,0 l190,0 l0,138.2 l-148.54,25 l0,5 l-41.4598,0 l0,-5 l0,-25 l0,-138.2z" /><path d="M210,0 l190,0 l0,138.2 l247.818,25 l0,5 l-586.358,0 l0,-5 l148.54,-25 l0,-138.2z" /><path d="M400,0 l190,0 l0,138.2 l110.207,25 l0,5 l-52.3888,0 l0,-5 l-247.818,-25 l0,-138.2z" /><path d="M590,0 l190,0 l0,138.2 l0,25 l0,5 l-79.7931,0 l0,-5 l-110.207,-25 l0,-138.2z" /></g><g class="axes"><g class="x-axis"><g transform="translate(400 200)"><text class="lab" text-anchor="middle" transform="translate(0 -11)">Genome position</text></g><line x1="20" x2="780" y1="163.2" y2="163.2" /><g class="ticks"><g class="tick" transform="translate(20 163.2)"><line x1="0" x2="0" y1="0" y2="5" /><g transform="translate(0 6)"><text class="lab">0.00</text></g></g><g class="tick" transform="translate(61.4598 163.2)"><line x1="0" x2="0" y1="0" y2="5" /><g transform="translate(0 6)"><text class="lab">54.55</text></g></g><g class="tick" transform="translate(647.818 163.2)"><line x1="0" x2="0" y1="0" y2="5" /><g transform="translate(0 6)"><text class="lab">826.08</text></g></g><g class="tick" transform="translate(700.207 163.2)"><line x1="0" x2="0" y1="0" y2="5" /><g transform="translate(0 6)"><text class="lab">895.01</text></g></g><g class="tick" transform="translate(780 163.2)"><line x1="0" x2="0" y1="0" y2="5" /><g transform="translate(0 6)"><text class="lab">1000.00</text></g></g></g></g></g><g class="plotbox trees"><g class="tree t0" transform="translate(20 0)"><g class="plotbox"><g class="c2 node n27 p0 root" transform="translate(130.508 26.8)"><g class="a27 c2 node n23 p0" transform="translate(24.4922 56.249)"><g class="a23 leaf node n1 p0 sample" transform="translate(-7.5 38.351)"><path class="edge" d="M 0 0 V -38.351 H 7.5" /><rect class="sym" height="6" width="6" x="-3" y="-3" /><text class="lab" transform="translate(0 11)">1</text></g><g class="a23 c1 node n21 p0" transform="translate(7.5 8.67201)"><g class="a21 c1 node n19 p0" transform="translate(0.0 6.01307)"><g class="a19 leaf node n8 p0 sample" transform="translate(0.0 23.6659)"><path class="edge" d="M 0 0 V -23.6659 H 0.0" /><rect class="sym" height="6" width="6" x="-3" y="-3" /><text class="lab" transform="translate(0 11)">8</text></g><path class="edge" d="M 0 0 V -6.01307 H 0.0" /><circle class="sym" cx="0" cy="0" r="3" /><text class="lab lft" transform="translate(-3 -7.0)">19</text></g><path class="edge" d="M 0 0 V -8.67201 H -7.5" /><circle class="sym" cx="0" cy="0" r="3" /><text class="lab rgt" transform="translate(3 -7.0)">21</text></g><path class="edge" d="M 0 0 V -56.249 H -24.4922" /><circle class="sym" cx="0" cy="0" r="3" /><text class="lab rgt" transform="translate(3 -7.0)">23</text></g><g class="a27 c2 node n26 p0" transform="translate(-24.4922 3.05051)"><g class="a26 c1 node n16 p0" transform="translate(18.9844 70.6518)"><g class="a16 c2 node n13 p0" transform="translate(0.0 11.2584)"><g class="a13 leaf node n6 p0 sample" transform="translate(7.5 9.63932)"><path class="edge" d="M 0 0 V -9.63932 H -7.5" /><rect class="sym" height="6" width="6" x="-3" y="-3" /><text class="lab" transform="translate(0 11)">6</text></g><g class="a13 c1 node n11 p0" transform="translate(-7.5 0.896317)"><g class="a11 leaf node n3 p0 sample" transform="translate(0.0 8.743)"><path class="edge" d="M 0 0 V -8.743 H 0.0" /><rect class="sym" height="6" width="6" x="-3" y="-3" /><text class="lab" transform="translate(0 11)">3</text></g><path class="edge" d="M 0 0 V -0.896317 H 7.5" /><circle class="sym" cx="0" cy="0" r="3" /><text class="lab lft" transform="translate(-3 -7.0)">11</text></g><path class="edge" d="M 0 0 V -11.2584 H 0.0" /><circle class="sym" cx="0" cy="0" r="3" /><text class="lab lft" transform="translate(-3 -7.0)">13</text></g><path class="edge" d="M 0 0 V -70.6518 H -18.9844" /><circle class="sym" cx="0" cy="0" r="3" /><text class="lab rgt" transform="translate(3 -7.0)">16</text></g><g class="a26 c2 node n25 p0" transform="translate(-18.9844 28.8088)"><g class="a25 leaf node n5 p0 sample" transform="translate(15.4688 62.7406)"><path class="edge" d="M 0 0 V -62.7406 H -15.4688" /><rect class="sym" height="6" width="6" x="-3" y="-3" /><text class="lab" transform="translate(0 11)">5</text></g><g class="a25 c2 node n24 p0" transform="translate(-15.4688 15.5231)"><g class="a24 c2 node n18 p0" transform="translate(-15.9375 24.6886)"><g class="a18 c1 node n14 p0" transform="translate(16.875 8.43376)"><g class="a14 leaf node n9 p0 sample" transform="translate(0.0 14.0952)"><path class="edge" d="M 0 0 V -14.0952 H 0.0" /><rect class="sym" height="6" width="6" x="-3" y="-3" /><text class="lab" transform="translate(0 11)">9</text></g><path class="edge" d="M 0 0 V -8.43376 H -16.875" /><circle class="sym" cx="0" cy="0" r="3" /><text class="lab rgt" transform="translate(3 -7.0)">14</text></g><g class="a18 c2 node n15 p0" transform="translate(-16.875 3.93129)"><g class="a15 leaf node n0 p0 sample" transform="translate(-11.25 18.5977)"><path class="edge" d="M 0 0 V -18.5977 H 11.25" /><rect class="sym" height="6" width="6" x="-3" y="-3" /><text class="lab" transform="translate(0 11)">0</text></g><g class="a15 c2 node n10 p0" transform="translate(11.25 17.16)"><g class="a10 leaf node n2 p0 sample" transform="translate(-7.5 1.43772)"><path class="edge" d="M 0 0 V -1.43772 H 7.5" /><rect class="sym" height="6" width="6" x="-3" y="-3" /><text class="lab" transform="translate(0 11)">2</text></g><g class="a10 leaf node n4 p0 sample" transform="translate(7.5 1.43772)"><path class="edge" d="M 0 0 V -1.43772 H -7.5" /><rect class="sym" height="6" width="6" x="-3" y="-3" /><text class="lab" transform="translate(0 11)">4</text></g><path class="edge" d="M 0 0 V -17.16 H -11.25" /><circle class="sym" cx="0" cy="0" r="3" /><text class="lab rgt" transform="translate(3 -7.0)">10</text></g><path class="edge" d="M 0 0 V -3.93129 H 16.875" /><circle class="sym" cx="0" cy="0" r="3" /><text class="lab lft" transform="translate(-3 -7.0)">15</text></g><path class="edge" d="M 0 0 V -24.6886 H 15.9375" /><circle class="sym" cx="0" cy="0" r="3" /><text class="lab lft" transform="translate(-3 -7.0)">18</text></g><g class="a24 c1 node n22 p0" transform="translate(15.9375 9.42385)"><g class="a22 leaf node n7 p0 sample" transform="translate(0.0 37.7937)"><path class="edge" d="M 0 0 V -37.7937 H 0.0" /><rect class="sym" height="6" width="6" x="-3" y="-3" /><text class="lab" transform="translate(0 11)">7</text></g><path class="edge" d="M 0 0 V -9.42385 H -15.9375" /><circle class="sym" cx="0" cy="0" r="3" /><text class="lab rgt" transform="translate(3 -7.0)">22</text></g><path class="edge" d="M 0 0 V -15.5231 H 15.4688" /><circle class="sym" cx="0" cy="0" r="3" /><text class="lab lft" transform="translate(-3 -7.0)">24</text></g><path class="edge" d="M 0 0 V -28.8088 H 18.9844" /><circle class="sym" cx="0" cy="0" r="3" /><text class="lab lft" transform="translate(-3 -7.0)">25</text></g><path class="edge" d="M 0 0 V -3.05051 H 24.4922" /><circle class="sym" cx="0" cy="0" r="3" /><text class="lab lft" transform="translate(-3 -7.0)">26</text></g><circle class="sym" cx="0" cy="0" r="3" /><text class="lab" transform="translate(0 -11)">27</text></g></g></g><g class="tree t1" transform="translate(210 0)"><g class="plotbox"><g class="c2 node n27 p0 root" transform="translate(110.703 26.8)"><g class="a27 c2 node n23 p0" transform="translate(23.6719 56.249)"><g class="a23 leaf node n1 p0 sample" transform="translate(-16.875 38.351)"><path class="edge" d="M 0 0 V -38.351 H 16.875" /><rect class="sym" height="6" width="6" x="-3" y="-3" /><text class="lab" transform="translate(0 11)">1</text></g><g class="a23 c2 node n21 p0" transform="translate(16.875 8.67201)"><g class="a21 c1 node n19 p0" transform="translate(11.25 6.01307)"><g class="a19 leaf node n8 p0 sample" transform="translate(0.0 23.6659)"><path class="edge" d="M 0 0 V -23.6659 H 0.0" /><rect class="sym" height="6" width="6" x="-3" y="-3" /><text class="lab" transform="translate(0 11)">8</text></g><path class="edge" d="M 0 0 V -6.01307 H -11.25" /><circle class="sym" cx="0" cy="0" r="3" /><text class="lab rgt" transform="translate(3 -7.0)">19</text></g><g class="a21 c1 node n17 p0" transform="translate(-11.25 8.78128)"><g class="a17 c2 node n13 p0" transform="translate(0.0 11.2584)"><g class="a13 leaf node n6 p0 sample" transform="translate(7.5 9.63932)"><path class="edge" d="M 0 0 V -9.63932 H -7.5" /><rect class="sym" height="6" width="6" x="-3" y="-3" /><text class="lab" transform="translate(0 11)">6</text></g><g class="a13 c1 node n11 p0" transform="translate(-7.5 0.896317)"><g class="a11 leaf node n3 p0 sample" transform="translate(0.0 8.743)"><path class="edge" d="M 0 0 V -8.743 H 0.0" /><rect class="sym" height="6" width="6" x="-3" y="-3" /><text class="lab" transform="translate(0 11)">3</text></g><path class="edge" d="M 0 0 V -0.896317 H 7.5" /><circle class="sym" cx="0" cy="0" r="3" /><text class="lab lft" transform="translate(-3 -7.0)">11</text></g><path class="edge" d="M 0 0 V -11.2584 H 0.0" /><circle class="sym" cx="0" cy="0" r="3" /><text class="lab lft" transform="translate(-3 -7.0)">13</text></g><path class="edge" d="M 0 0 V -8.78128 H 11.25" /><circle class="sym" cx="0" cy="0" r="3" /><text class="lab lft" transform="translate(-3 -7.0)">17</text></g><path class="edge" d="M 0 0 V -8.67201 H -16.875" /><circle class="sym" cx="0" cy="0" r="3" /><text class="lab rgt" transform="translate(3 -7.0)">21</text></g><path class="edge" d="M 0 0 V -56.249 H -23.6719" /><circle class="sym" cx="0" cy="0" r="3" /><text class="lab rgt" transform="translate(3 -7.0)">23</text></g><g class="a27 c1 node n26 p0" transform="translate(-23.6719 3.05051)"><g class="a26 c2 node n25 p0" transform="translate(0.0 28.8088)"><g class="a25 leaf node n5 p0 sample" transform="translate(15.4688 62.7406)"><path class="edge" d="M 0 0 V -62.7406 H -15.4688" /><rect class="sym" height="6" width="6" x="-3" y="-3" /><text class="lab" transform="translate(0 11)">5</text></g><g class="a25 c2 node n24 p0" transform="translate(-15.4688 15.5231)"><g class="a24 c2 node n18 p0" transform="translate(-15.9375 24.6886)"><g class="a18 c1 node n14 p0" transform="translate(16.875 8.43376)"><g class="a14 leaf node n9 p0 sample" transform="translate(0.0 14.0952)"><path class="edge" d="M 0 0 V -14.0952 H 0.0" /><rect class="sym" height="6" width="6" x="-3" y="-3" /><text class="lab" transform="translate(0 11)">9</text></g><path class="edge" d="M 0 0 V -8.43376 H -16.875" /><circle class="sym" cx="0" cy="0" r="3" /><text class="lab rgt" transform="translate(3 -7.0)">14</text></g><g class="a18 c2 node n15 p0" transform="translate(-16.875 3.93129)"><g class="a15 leaf node n0 p0 sample" transform="translate(-11.25 18.5977)"><path class="edge" d="M 0 0 V -18.5977 H 11.25" /><rect class="sym" height="6" width="6" x="-3" y="-3" /><text class="lab" transform="translate(0 11)">0</text></g><g class="a15 c2 node n10 p0" transform="translate(11.25 17.16)"><g class="a10 leaf node n2 p0 sample" transform="translate(-7.5 1.43772)"><path class="edge" d="M 0 0 V -1.43772 H 7.5" /><rect class="sym" height="6" width="6" x="-3" y="-3" /><text class="lab" transform="translate(0 11)">2</text></g><g class="a10 leaf node n4 p0 sample" transform="translate(7.5 1.43772)"><path class="edge" d="M 0 0 V -1.43772 H -7.5" /><rect class="sym" height="6" width="6" x="-3" y="-3" /><text class="lab" transform="translate(0 11)">4</text></g><path class="edge" d="M 0 0 V -17.16 H -11.25" /><circle class="sym" cx="0" cy="0" r="3" /><text class="lab rgt" transform="translate(3 -7.0)">10</text></g><path class="edge" d="M 0 0 V -3.93129 H 16.875" /><circle class="sym" cx="0" cy="0" r="3" /><text class="lab lft" transform="translate(-3 -7.0)">15</text></g><path class="edge" d="M 0 0 V -24.6886 H 15.9375" /><circle class="sym" cx="0" cy="0" r="3" /><text class="lab lft" transform="translate(-3 -7.0)">18</text></g><g class="a24 c1 node n22 p0" transform="translate(15.9375 9.42385)"><g class="a22 leaf node n7 p0 sample" transform="translate(0.0 37.7937)"><path class="edge" d="M 0 0 V -37.7937 H 0.0" /><rect class="sym" height="6" width="6" x="-3" y="-3" /><text class="lab" transform="translate(0 11)">7</text></g><path class="edge" d="M 0 0 V -9.42385 H -15.9375" /><circle class="sym" cx="0" cy="0" r="3" /><text class="lab rgt" transform="translate(3 -7.0)">22</text></g><path class="edge" d="M 0 0 V -15.5231 H 15.4688" /><circle class="sym" cx="0" cy="0" r="3" /><text class="lab lft" transform="translate(-3 -7.0)">24</text></g><path class="edge" d="M 0 0 V -28.8088 H 0.0" /><circle class="sym" cx="0" cy="0" r="3" /><text class="lab lft" transform="translate(-3 -7.0)">25</text></g><path class="edge" d="M 0 0 V -3.05051 H 23.6719" /><circle class="sym" cx="0" cy="0" r="3" /><text class="lab lft" transform="translate(-3 -7.0)">26</text></g><circle class="sym" cx="0" cy="0" r="3" /><text class="lab" transform="translate(0 -11)">27</text></g></g></g><g class="tree t2" transform="translate(400 0)"><g class="plotbox"><g class="c2 node n27 p0 root" transform="translate(120.078 26.8)"><g class="a27 c2 node n23 p0" transform="translate(23.6719 56.249)"><g class="a23 leaf node n1 p0 sample" transform="translate(-11.25 38.351)"><path class="edge" d="M 0 0 V -38.351 H 11.25" /><rect class="sym" height="6" width="6" x="-3" y="-3" /><text class="lab" transform="translate(0 11)">1</text></g><g class="a23 c1 node n21 p0" transform="translate(11.25 8.67201)"><g class="a21 c1 node n17 p0" transform="translate(0.0 8.78128)"><g class="a17 c2 node n13 p0" transform="translate(0.0 11.2584)"><g class="a13 leaf node n6 p0 sample" transform="translate(7.5 9.63932)"><path class="edge" d="M 0 0 V -9.63932 H -7.5" /><rect class="sym" height="6" width="6" x="-3" y="-3" /><text class="lab" transform="translate(0 11)">6</text></g><g class="a13 c1 node n11 p0" transform="translate(-7.5 0.896317)"><g class="a11 leaf node n3 p0 sample" transform="translate(0.0 8.743)"><path class="edge" d="M 0 0 V -8.743 H 0.0" /><rect class="sym" height="6" width="6" x="-3" y="-3" /><text class="lab" transform="translate(0 11)">3</text></g><path class="edge" d="M 0 0 V -0.896317 H 7.5" /><circle class="sym" cx="0" cy="0" r="3" /><text class="lab lft" transform="translate(-3 -7.0)">11</text></g><path class="edge" d="M 0 0 V -11.2584 H 0.0" /><circle class="sym" cx="0" cy="0" r="3" /><text class="lab lft" transform="translate(-3 -7.0)">13</text></g><path class="edge" d="M 0 0 V -8.78128 H 0.0" /><circle class="sym" cx="0" cy="0" r="3" /><text class="lab lft" transform="translate(-3 -7.0)">17</text></g><path class="edge" d="M 0 0 V -8.67201 H -11.25" /><circle class="sym" cx="0" cy="0" r="3" /><text class="lab rgt" transform="translate(3 -7.0)">21</text></g><path class="edge" d="M 0 0 V -56.249 H -23.6719" /><circle class="sym" cx="0" cy="0" r="3" /><text class="lab rgt" transform="translate(3 -7.0)">23</text></g><g class="a27 c1 node n26 p0" transform="translate(-23.6719 3.05051)"><g class="a26 c2 node n25 p0" transform="translate(0.0 28.8088)"><g class="a25 leaf node n5 p0 sample" transform="translate(21.0938 62.7406)"><path class="edge" d="M 0 0 V -62.7406 H -21.0938" /><rect class="sym" height="6" width="6" x="-3" y="-3" /><text class="lab" transform="translate(0 11)">5</text></g><g class="a25 c2 node n24 p0" transform="translate(-21.0938 15.5231)"><g class="a24 c2 node n18 p0" transform="translate(-19.6875 24.6886)"><g class="a18 c1 node n14 p0" transform="translate(16.875 8.43376)"><g class="a14 leaf node n9 p0 sample" transform="translate(0.0 14.0952)"><path class="edge" d="M 0 0 V -14.0952 H 0.0" /><rect class="sym" height="6" width="6" x="-3" y="-3" /><text class="lab" transform="translate(0 11)">9</text></g><path class="edge" d="M 0 0 V -8.43376 H -16.875" /><circle class="sym" cx="0" cy="0" r="3" /><text class="lab rgt" transform="translate(3 -7.0)">14</text></g><g class="a18 c2 node n15 p0" transform="translate(-16.875 3.93129)"><g class="a15 leaf node n0 p0 sample" transform="translate(-11.25 18.5977)"><path class="edge" d="M 0 0 V -18.5977 H 11.25" /><rect class="sym" height="6" width="6" x="-3" y="-3" /><text class="lab" transform="translate(0 11)">0</text></g><g class="a15 c2 node n10 p0" transform="translate(11.25 17.16)"><g class="a10 leaf node n2 p0 sample" transform="translate(-7.5 1.43772)"><path class="edge" d="M 0 0 V -1.43772 H 7.5" /><rect class="sym" height="6" width="6" x="-3" y="-3" /><text class="lab" transform="translate(0 11)">2</text></g><g class="a10 leaf node n4 p0 sample" transform="translate(7.5 1.43772)"><path class="edge" d="M 0 0 V -1.43772 H -7.5" /><rect class="sym" height="6" width="6" x="-3" y="-3" /><text class="lab" transform="translate(0 11)">4</text></g><path class="edge" d="M 0 0 V -17.16 H -11.25" /><circle class="sym" cx="0" cy="0" r="3" /><text class="lab rgt" transform="translate(3 -7.0)">10</text></g><path class="edge" d="M 0 0 V -3.93129 H 16.875" /><circle class="sym" cx="0" cy="0" r="3" /><text class="lab lft" transform="translate(-3 -7.0)">15</text></g><path class="edge" d="M 0 0 V -24.6886 H 19.6875" /><circle class="sym" cx="0" cy="0" r="3" /><text class="lab lft" transform="translate(-3 -7.0)">18</text></g><g class="a24 c2 node n22 p0" transform="translate(19.6875 9.42385)"><g class="a22 leaf node n7 p0 sample" transform="translate(-7.5 37.7937)"><path class="edge" d="M 0 0 V -37.7937 H 7.5" /><rect class="sym" height="6" width="6" x="-3" y="-3" /><text class="lab" transform="translate(0 11)">7</text></g><g class="a22 c1 node n20 p0" transform="translate(7.5 14.1278)"><g class="a20 leaf node n8 p0 sample" transform="translate(0.0 23.6659)"><path class="edge" d="M 0 0 V -23.6659 H 0.0" /><rect class="sym" height="6" width="6" x="-3" y="-3" /><text class="lab" transform="translate(0 11)">8</text></g><path class="edge" d="M 0 0 V -14.1278 H -7.5" /><circle class="sym" cx="0" cy="0" r="3" /><text class="lab rgt" transform="translate(3 -7.0)">20</text></g><path class="edge" d="M 0 0 V -9.42385 H -19.6875" /><circle class="sym" cx="0" cy="0" r="3" /><text class="lab rgt" transform="translate(3 -7.0)">22</text></g><path class="edge" d="M 0 0 V -15.5231 H 21.0938" /><circle class="sym" cx="0" cy="0" r="3" /><text class="lab lft" transform="translate(-3 -7.0)">24</text></g><path class="edge" d="M 0 0 V -28.8088 H 0.0" /><circle class="sym" cx="0" cy="0" r="3" /><text class="lab lft" transform="translate(-3 -7.0)">25</text></g><path class="edge" d="M 0 0 V -3.05051 H 23.6719" /><circle class="sym" cx="0" cy="0" r="3" /><text class="lab lft" transform="translate(-3 -7.0)">26</text></g><circle class="sym" cx="0" cy="0" r="3" /><text class="lab" transform="translate(0 -11)">27</text></g></g></g><g class="tree t3" transform="translate(590 0)"><g class="plotbox"><g class="c2 node n27 p0 root" transform="translate(131.797 26.8)"><g class="a27 c2 node n23 p0" transform="translate(23.2031 56.249)"><g class="a23 leaf node n1 p0 sample" transform="translate(-7.5 38.351)"><path class="edge" d="M 0 0 V -38.351 H 7.5" /><rect class="sym" height="6" width="6" x="-3" y="-3" /><text class="lab" transform="translate(0 11)">1</text></g><g class="a23 c1 node n21 p0" transform="translate(7.5 8.67201)"><g class="a21 c1 node n17 p0" transform="translate(0.0 8.78128)"><g class="a17 c1 node n13 p0" transform="translate(0.0 11.2584)"><g class="a13 leaf node n6 p0 sample" transform="translate(0.0 9.63932)"><path class="edge" d="M 0 0 V -9.63932 H 0.0" /><rect class="sym" height="6" width="6" x="-3" y="-3" /><text class="lab" transform="translate(0 11)">6</text></g><path class="edge" d="M 0 0 V -11.2584 H 0.0" /><circle class="sym" cx="0" cy="0" r="3" /><text class="lab lft" transform="translate(-3 -7.0)">13</text></g><path class="edge" d="M 0 0 V -8.78128 H 0.0" /><circle class="sym" cx="0" cy="0" r="3" /><text class="lab lft" transform="translate(-3 -7.0)">17</text></g><path class="edge" d="M 0 0 V -8.67201 H -7.5" /><circle class="sym" cx="0" cy="0" r="3" /><text class="lab rgt" transform="translate(3 -7.0)">21</text></g><path class="edge" d="M 0 0 V -56.249 H -23.2031" /><circle class="sym" cx="0" cy="0" r="3" /><text class="lab rgt" transform="translate(3 -7.0)">23</text></g><g class="a27 c1 node n26 p0" transform="translate(-23.2031 3.05051)"><g class="a26 c2 node n25 p0" transform="translate(0.0 28.8088)"><g class="a25 leaf node n5 p0 sample" transform="translate(23.9062 62.7406)"><path class="edge" d="M 0 0 V -62.7406 H -23.9062" /><rect class="sym" height="6" width="6" x="-3" y="-3" /><text class="lab" transform="translate(0 11)">5</text></g><g class="a25 c2 node n24 p0" transform="translate(-23.9062 15.5231)"><g class="a24 c2 node n18 p0" transform="translate(-25.3125 24.6886)"><g class="a18 c2 node n14 p0" transform="translate(20.625 8.43376)"><g class="a14 leaf node n9 p0 sample" transform="translate(7.5 14.0952)"><path class="edge" d="M 0 0 V -14.0952 H -7.5" /><rect class="sym" height="6" width="6" x="-3" y="-3" /><text class="lab" transform="translate(0 11)">9</text></g><g class="a14 c1 node n12 p0" transform="translate(-7.5 5.3522)"><g class="a12 leaf node n3 p0 sample" transform="translate(0.0 8.743)"><path class="edge" d="M 0 0 V -8.743 H 0.0" /><rect class="sym" height="6" width="6" x="-3" y="-3" /><text class="lab" transform="translate(0 11)">3</text></g><path class="edge" d="M 0 0 V -5.3522 H 7.5" /><circle class="sym" cx="0" cy="0" r="3" /><text class="lab lft" transform="translate(-3 -7.0)">12</text></g><path class="edge" d="M 0 0 V -8.43376 H -20.625" /><circle class="sym" cx="0" cy="0" r="3" /><text class="lab rgt" transform="translate(3 -7.0)">14</text></g><g class="a18 c2 node n15 p0" transform="translate(-20.625 3.93129)"><g class="a15 leaf node n0 p0 sample" transform="translate(-11.25 18.5977)"><path class="edge" d="M 0 0 V -18.5977 H 11.25" /><rect class="sym" height="6" width="6" x="-3" y="-3" /><text class="lab" transform="translate(0 11)">0</text></g><g class="a15 c2 node n10 p0" transform="translate(11.25 17.16)"><g class="a10 leaf node n2 p0 sample" transform="translate(-7.5 1.43772)"><path class="edge" d="M 0 0 V -1.43772 H 7.5" /><rect class="sym" height="6" width="6" x="-3" y="-3" /><text class="lab" transform="translate(0 11)">2</text></g><g class="a10 leaf node n4 p0 sample" transform="translate(7.5 1.43772)"><path class="edge" d="M 0 0 V -1.43772 H -7.5" /><rect class="sym" height="6" width="6" x="-3" y="-3" /><text class="lab" transform="translate(0 11)">4</text></g><path class="edge" d="M 0 0 V -17.16 H -11.25" /><circle class="sym" cx="0" cy="0" r="3" /><text class="lab rgt" transform="translate(3 -7.0)">10</text></g><path class="edge" d="M 0 0 V -3.93129 H 20.625" /><circle class="sym" cx="0" cy="0" r="3" /><text class="lab lft" transform="translate(-3 -7.0)">15</text></g><path class="edge" d="M 0 0 V -24.6886 H 25.3125" /><circle class="sym" cx="0" cy="0" r="3" /><text class="lab lft" transform="translate(-3 -7.0)">18</text></g><g class="a24 c2 node n22 p0" transform="translate(25.3125 9.42385)"><g class="a22 leaf node n7 p0 sample" transform="translate(-7.5 37.7937)"><path class="edge" d="M 0 0 V -37.7937 H 7.5" /><rect class="sym" height="6" width="6" x="-3" y="-3" /><text class="lab" transform="translate(0 11)">7</text></g><g class="a22 c1 node n20 p0" transform="translate(7.5 14.1278)"><g class="a20 leaf node n8 p0 sample" transform="translate(0.0 23.6659)"><path class="edge" d="M 0 0 V -23.6659 H 0.0" /><rect class="sym" height="6" width="6" x="-3" y="-3" /><text class="lab" transform="translate(0 11)">8</text></g><path class="edge" d="M 0 0 V -14.1278 H -7.5" /><circle class="sym" cx="0" cy="0" r="3" /><text class="lab rgt" transform="translate(3 -7.0)">20</text></g><path class="edge" d="M 0 0 V -9.42385 H -25.3125" /><circle class="sym" cx="0" cy="0" r="3" /><text class="lab rgt" transform="translate(3 -7.0)">22</text></g><path class="edge" d="M 0 0 V -15.5231 H 23.9062" /><circle class="sym" cx="0" cy="0" r="3" /><text class="lab lft" transform="translate(-3 -7.0)">24</text></g><path class="edge" d="M 0 0 V -28.8088 H 0.0" /><circle class="sym" cx="0" cy="0" r="3" /><text class="lab lft" transform="translate(-3 -7.0)">25</text></g><path class="edge" d="M 0 0 V -3.05051 H 23.2031" /><circle class="sym" cx="0" cy="0" r="3" /><text class="lab lft" transform="translate(-3 -7.0)">26</text></g><circle class="sym" cx="0" cy="0" r="3" /><text class="lab" transform="translate(0 -11)">27</text></g></g></g></g></g></svg>
