<svg baseProfile="full" height="200" version="1.1" width="1200" xmlns="http://www.w3.org/2000/svg" xmlns:ev="http://www.w3.org/2001/xml-events" xmlns:xlink="http://www.w3.org/1999/xlink"><defs><style type="text/css"><![CDATA[.background path {fill: #808080; fill-opacity: 0}.background path:nth-child(odd) {fill-opacity: .1}.axes {font-size: 14px}.x-axis .tick .lab {font-weight: bold; dominant-baseline: hanging}.axes, .tree {font-size: 14px; text-anchor: middle}.axes line, .edge {stroke: black; fill: none}.y-axis .grid {stroke: #FAFAFA}.node > .sym {fill: black; stroke: none}.site > .sym {stroke: black}.mut text {fill: red; font-style: italic}.mut.extra text {fill: hotpink}.mut line {fill: none; stroke: none}.mut .sym {fill: none; stroke: red}.mut.extra .sym {stroke: hotpink}.node .mut .sym {stroke-width: 1.5px}.tree text, .tree-sequence text {dominant-baseline: central}.plotbox .lab.lft {text-anchor: end}.plotbox .lab.rgt {text-anchor: start}]]></style></defs><g class="tree-sequence"><g class="background"><path d="M20,0 l193.333,0 l0,138.2 l57.9027,25 l0,5 l-251.236,0 l0,-5 l0,-25 l0,-138.2z" /><path d="M213.333,0 l193.333,0 l0,138.2 l-13.6989,25 l0,5 l-121.732,0 l0,-5 l-57.9027,-25 l0,-138.2z" /><path d="M406.667,0 l193.333,0 l0,138.2 l-198.754,25 l0,5 l-8.27834,0 l0,-5 l13.6989,-25 l0,-138.2z" /><path d="M600,0 l193.333,0 l0,138.2 l25.4489,25 l0,5 l-417.536,0 l0,-5 l198.754,-25 l0,-138.2z" /><path d="M793.333,0 l193.333,0 l0,138.2 l183.164,25 l0,5 l-351.048,0 l0,-5 l-25.4489,-25 l0,-138.2z" /><path d="M986.667,0 l193.333,0 l0,138.2 l0,25 l0,5 l-10.1693,0 l0,-5 l-183.164,-25 l0,-138.2z" /></g><g class="axes"><g class="x-axis"><g transform="translate(600 200)"><text class="lab" text-anchor="middle" transform="translate(0 -11)">Genome position</text></g><line x1="20" x2="1180" y1="163.2" y2="163.2" /><g class="ticks"><g class="tick" transform="translate(20 163.2)"><line x1="0" x2="0" y1="0" y2="5" /><g transform="translate(0 6)"><text class="lab">0.00</text></g></g><g class="tick" transform="translate(271.236 163.2)"><line x1="0" x2="0" y1="0" y2="5" /><g transform="translate(0 6)"><text class="lab">216.58</text></g></g><g class="tick" transform="translate(392.968 163.2)"><line x1="0" x2="0" y1="0" y2="5" /><g transform="translate(0 6)"><text class="lab">321.52</text></g></g><g class="tick" transform="translate(401.246 163.2)"><line x1="0" x2="0" y1="0" y2="5" /><g transform="translate(0 6)"><text class="lab">328.66</text></g></g><g class="tick" transform="translate(818.782 163.2)"><line x1="0" x2="0" y1="0" y2="5" /><g transform="translate(0 6)"><text class="lab">688.61</text></g></g><g class="tick" transform="translate(1169.83 163.2)"><line x1="0" x2="0" y1="0" y2="5" /><g transform="translate(0 6)"><text class="lab">991.23</text></g></g><g class="tick" transform="translate(1180 163.2)"><line x1="0" x2="0" y1="0" y2="5" /><g transform="translate(0 6)"><text class="lab">1000.00</text></g></g></g></g></g><g class="plotbox trees"><g class="tree t0" transform="translate(20 0)"><g class="plotbox"><g class="c2 node n33 p0 root" transform="translate(135.24 26.8)"><g class="a33 c1 node n24 p0" transform="translate(30.4271 78.149)"><g class="a24 c1 node n15 p0" transform="translate(0.0 7.05674)"><g class="a15 leaf node n8 p0 sample" transform="translate(0.0 9.3943)"><path class="edge" d="M 0 0 V -9.3943 H 0.0" /><rect class="sym" height="6" width="6" x="-3" y="-3" /><text class="lab" transform="translate(0 11)">8</text></g><path class="edge" d="M 0 0 V -7.05674 H 0.0" /><circle class="sym" cx="0" cy="0" r="3" /><text class="lab lft" transform="translate(-3 -7.0)">15</text></g><path class="edge" d="M 0 0 V -78.149 H -30.4271" /><circle class="sym" cx="0" cy="0" r="3" /><text class="lab rgt" transform="translate(3 -7.0)">24</text></g><g class="a33 c2 node n32 p0" transform="translate(-30.4271 62.2866)"><g class="a32 c2 node n27 p0" transform="translate(26.3542 11.8296)"><g class="a27 c1 node n19 p0" transform="translate(-11.5 7.98173)"><g class="a19 leaf node n2 p0 sample" transform="translate(0.0 12.5021)"><path class="edge" d="M 0 0 V -12.5021 H 0.0" /><rect class="sym" height="6" width="6" x="-3" y="-3" /><text class="lab" transform="translate(0 11)">2</text></g><path class="edge" d="M 0 0 V -7.98173 H 11.5" /><circle class="sym" cx="0" cy="0" r="3" /><text class="lab lft" transform="translate(-3 -7.0)">19</text></g><g class="a27 c2 node n26 p0" transform="translate(11.5 1.98279)"><g class="a26 c1 node n21 p0" transform="translate(-7.66667 4.10779)"><g class="a21 c1 node n18 p0" transform="translate(0.0 1.92926)"><g class="a18 leaf node n7 p0 sample" transform="translate(0.0 12.4639)"><path class="edge" d="M 0 0 V -12.4639 H 0.0" /><rect class="sym" height="6" width="6" x="-3" y="-3" /><text class="lab" transform="translate(0 11)">7</text></g><path class="edge" d="M 0 0 V -1.92926 H 0.0" /><circle class="sym" cx="0" cy="0" r="3" /><text class="lab lft" transform="translate(-3 -7.0)">18</text></g><path class="edge" d="M 0 0 V -4.10779 H 7.66667" /><circle class="sym" cx="0" cy="0" r="3" /><text class="lab lft" transform="translate(-3 -7.0)">21</text></g><g class="a26 c1 node n23 p0" transform="translate(7.66667 2.24408)"><g class="a23 c1 node n16 p0" transform="translate(0.0 3.82169)"><g class="a16 leaf node n9 p0 sample" transform="translate(0.0 12.4352)"><path class="edge" d="M 0 0 V -12.4352 H 0.0" /><rect class="sym" height="6" width="6" x="-3" y="-3" /><text class="lab" transform="translate(0 11)">9</text></g><path class="edge" d="M 0 0 V -3.82169 H 0.0" /><circle class="sym" cx="0" cy="0" r="3" /><text class="lab lft" transform="translate(-3 -7.0)">16</text></g><path class="edge" d="M 0 0 V -2.24408 H -7.66667" /><circle class="sym" cx="0" cy="0" r="3" /><text class="lab rgt" transform="translate(3 -7.0)">23</text></g><path class="edge" d="M 0 0 V -1.98279 H -11.5" /><circle class="sym" cx="0" cy="0" r="3" /><text class="lab rgt" transform="translate(3 -7.0)">26</text></g><path class="edge" d="M 0 0 V -11.8296 H -26.3542" /><circle class="sym" cx="0" cy="0" r="3" /><text class="lab rgt" transform="translate(3 -7.0)">27</text></g><g class="a32 c1 node n31 p0" transform="translate(-26.3542 3.46842)"><g class="a31 c2 node n30 p0" transform="translate(0.0 1.33764)"><g class="a30 c2 node n25 p0" transform="translate(-25.875 10.9202)"><g class="a25 c2 node n11 p0" transform="translate(-17.25 14.7548)"><g class="a11 leaf node n0 p0 sample" transform="translate(-7.66667 1.83224)"><path class="edge" d="M 0 0 V -1.83224 H 7.66667" /><rect class="sym" height="6" width="6" x="-3" y="-3" /><text class="lab" transform="translate(0 11)">0</text></g><g class="a11 leaf node n6 p0 sample" transform="translate(7.66667 1.83224)"><path class="edge" d="M 0 0 V -1.83224 H -7.66667" /><rect class="sym" height="6" width="6" x="-3" y="-3" /><text class="lab" transform="translate(0 11)">6</text></g><path class="edge" d="M 0 0 V -14.7548 H 17.25" /><circle class="sym" cx="0" cy="0" r="3" /><text class="lab lft" transform="translate(-3 -7.0)">11</text></g><g class="a25 c1 node n13 p0" transform="translate(17.25 9.66663)"><g class="a13 c2 node n12 p0" transform="translate(0.0 2.47387)"><g class="a12 leaf node n1 p0 sample" transform="translate(-11.5 4.44657)"><path class="edge" d="M 0 0 V -4.44657 H 11.5" /><rect class="sym" height="6" width="6" x="-3" y="-3" /><text class="lab" transform="translate(0 11)">1</text></g><g class="a12 c2 node n10 p0" transform="translate(11.5 3.34228)"><g class="a10 leaf node n3 p0 sample" transform="translate(-7.66667 1.10429)"><path class="edge" d="M 0 0 V -1.10429 H 7.66667" /><rect class="sym" height="6" width="6" x="-3" y="-3" /><text class="lab" transform="translate(0 11)">3</text></g><g class="a10 leaf node n4 p0 sample" transform="translate(7.66667 1.10429)"><path class="edge" d="M 0 0 V -1.10429 H -7.66667" /><rect class="sym" height="6" width="6" x="-3" y="-3" /><text class="lab" transform="translate(0 11)">4</text></g><path class="edge" d="M 0 0 V -3.34228 H -11.5" /><circle class="sym" cx="0" cy="0" r="3" /><text class="lab rgt" transform="translate(3 -7.0)">10</text></g><path class="edge" d="M 0 0 V -2.47387 H 0.0" /><circle class="sym" cx="0" cy="0" r="3" /><text class="lab lft" transform="translate(-3 -7.0)">12</text></g><path class="edge" d="M 0 0 V -9.66663 H -17.25" /><circle class="sym" cx="0" cy="0" r="3" /><text class="lab rgt" transform="translate(3 -7.0)">13</text></g><path class="edge" d="M 0 0 V -10.9202 H 25.875" /><circle class="sym" cx="0" cy="0" r="3" /><text class="lab lft" transform="translate(-3 -7.0)">25</text></g><g class="a30 c1 node n28 p0" transform="translate(25.875 3.74574)"><g class="a28 leaf node n5 p0 sample" transform="translate(0.0 23.7616)"><path class="edge" d="M 0 0 V -23.7616 H 0.0" /><rect class="sym" height="6" width="6" x="-3" y="-3" /><text class="lab" transform="translate(0 11)">5</text></g><path class="edge" d="M 0 0 V -3.74574 H -25.875" /><circle class="sym" cx="0" cy="0" r="3" /><text class="lab rgt" transform="translate(3 -7.0)">28</text></g><path class="edge" d="M 0 0 V -1.33764 H 0.0" /><circle class="sym" cx="0" cy="0" r="3" /><text class="lab lft" transform="translate(-3 -7.0)">30</text></g><path class="edge" d="M 0 0 V -3.46842 H 26.3542" /><circle class="sym" cx="0" cy="0" r="3" /><text class="lab lft" transform="translate(-3 -7.0)">31</text></g><path class="edge" d="M 0 0 V -62.2866 H 30.4271" /><circle class="sym" cx="0" cy="0" r="3" /><text class="lab lft" transform="translate(-3 -7.0)">32</text></g><circle class="sym" cx="0" cy="0" r="3" /><text class="lab" transform="translate(0 -11)">33</text></g></g></g><g class="tree t1" transform="translate(213.333 0)"><g class="plotbox"><g class="c2 node n33 p0 root" transform="translate(107.208 26.8)"><g class="a33 c1 node n24 p0" transform="translate(41.2083 78.149)"><g class="a24 c2 node n15 p0" transform="translate(0.0 7.05674)"><g class="a15 leaf node n8 p0 sample" transform="translate(17.25 9.3943)"><path class="edge" d="M 0 0 V -9.3943 H -17.25" /><rect class="sym" height="6" width="6" x="-3" y="-3" /><text class="lab" transform="translate(0 11)">8</text></g><g class="a15 c1 node n14 p0" transform="translate(-17.25 2.47386)"><g class="a14 c2 node n12 p0" transform="translate(0.0 2.47387)"><g class="a12 leaf node n1 p0 sample" transform="translate(-11.5 4.44657)"><path class="edge" d="M 0 0 V -4.44657 H 11.5" /><rect class="sym" height="6" width="6" x="-3" y="-3" /><text class="lab" transform="translate(0 11)">1</text></g><g class="a12 c2 node n10 p0" transform="translate(11.5 3.34228)"><g class="a10 leaf node n3 p0 sample" transform="translate(-7.66667 1.10429)"><path class="edge" d="M 0 0 V -1.10429 H 7.66667" /><rect class="sym" height="6" width="6" x="-3" y="-3" /><text class="lab" transform="translate(0 11)">3</text></g><g class="a10 leaf node n4 p0 sample" transform="translate(7.66667 1.10429)"><path class="edge" d="M 0 0 V -1.10429 H -7.66667" /><rect class="sym" height="6" width="6" x="-3" y="-3" /><text class="lab" transform="translate(0 11)">4</text></g><path class="edge" d="M 0 0 V -3.34228 H -11.5" /><circle class="sym" cx="0" cy="0" r="3" /><text class="lab rgt" transform="translate(3 -7.0)">10</text></g><path class="edge" d="M 0 0 V -2.47387 H 0.0" /><circle class="sym" cx="0" cy="0" r="3" /><text class="lab lft" transform="translate(-3 -7.0)">12</text></g><path class="edge" d="M 0 0 V -2.47386 H 17.25" /><circle class="sym" cx="0" cy="0" r="3" /><text class="lab lft" transform="translate(-3 -7.0)">14</text></g><path class="edge" d="M 0 0 V -7.05674 H 0.0" /><circle class="sym" cx="0" cy="0" r="3" /><text class="lab lft" transform="translate(-3 -7.0)">15</text></g><path class="edge" d="M 0 0 V -78.149 H -41.2083" /><circle class="sym" cx="0" cy="0" r="3" /><text class="lab rgt" transform="translate(3 -7.0)">24</text></g><g class="a33 c2 node n32 p0" transform="translate(-41.2083 62.2866)"><g class="a32 c2 node n27 p0" transform="translate(19.1667 11.8296)"><g class="a27 c1 node n19 p0" transform="translate(-11.5 7.98173)"><g class="a19 leaf node n2 p0 sample" transform="translate(0.0 12.5021)"><path class="edge" d="M 0 0 V -12.5021 H 0.0" /><rect class="sym" height="6" width="6" x="-3" y="-3" /><text class="lab" transform="translate(0 11)">2</text></g><path class="edge" d="M 0 0 V -7.98173 H 11.5" /><circle class="sym" cx="0" cy="0" r="3" /><text class="lab lft" transform="translate(-3 -7.0)">19</text></g><g class="a27 c2 node n26 p0" transform="translate(11.5 1.98279)"><g class="a26 c1 node n21 p0" transform="translate(-7.66667 4.10779)"><g class="a21 c1 node n18 p0" transform="translate(0.0 1.92926)"><g class="a18 leaf node n7 p0 sample" transform="translate(0.0 12.4639)"><path class="edge" d="M 0 0 V -12.4639 H 0.0" /><rect class="sym" height="6" width="6" x="-3" y="-3" /><text class="lab" transform="translate(0 11)">7</text></g><path class="edge" d="M 0 0 V -1.92926 H 0.0" /><circle class="sym" cx="0" cy="0" r="3" /><text class="lab lft" transform="translate(-3 -7.0)">18</text></g><path class="edge" d="M 0 0 V -4.10779 H 7.66667" /><circle class="sym" cx="0" cy="0" r="3" /><text class="lab lft" transform="translate(-3 -7.0)">21</text></g><g class="a26 c1 node n23 p0" transform="translate(7.66667 2.24408)"><g class="a23 c1 node n16 p0" transform="translate(0.0 3.82169)"><g class="a16 leaf node n9 p0 sample" transform="translate(0.0 12.4352)"><path class="edge" d="M 0 0 V -12.4352 H 0.0" /><rect class="sym" height="6" width="6" x="-3" y="-3" /><text class="lab" transform="translate(0 11)">9</text></g><path class="edge" d="M 0 0 V -3.82169 H 0.0" /><circle class="sym" cx="0" cy="0" r="3" /><text class="lab lft" transform="translate(-3 -7.0)">16</text></g><path class="edge" d="M 0 0 V -2.24408 H -7.66667" /><circle class="sym" cx="0" cy="0" r="3" /><text class="lab rgt" transform="translate(3 -7.0)">23</text></g><path class="edge" d="M 0 0 V -1.98279 H -11.5" /><circle class="sym" cx="0" cy="0" r="3" /><text class="lab rgt" transform="translate(3 -7.0)">26</text></g><path class="edge" d="M 0 0 V -11.8296 H -19.1667" /><circle class="sym" cx="0" cy="0" r="3" /><text class="lab rgt" transform="translate(3 -7.0)">27</text></g><g class="a32 c1 node n31 p0" transform="translate(-19.1667 3.46842)"><g class="a31 c2 node n30 p0" transform="translate(0.0 1.33764)"><g class="a30 c1 node n25 p0" transform="translate(-11.5 10.9202)"><g class="a25 c2 node n11 p0" transform="translate(0.0 14.7548)"><g class="a11 leaf node n0 p0 sample" transform="translate(-7.66667 1.83224)"><path class="edge" d="M 0 0 V -1.83224 H 7.66667" /><rect class="sym" height="6" width="6" x="-3" y="-3" /><text class="lab" transform="translate(0 11)">0</text></g><g class="a11 leaf node n6 p0 sample" transform="translate(7.66667 1.83224)"><path class="edge" d="M 0 0 V -1.83224 H -7.66667" /><rect class="sym" height="6" width="6" x="-3" y="-3" /><text class="lab" transform="translate(0 11)">6</text></g><path class="edge" d="M 0 0 V -14.7548 H 0.0" /><circle class="sym" cx="0" cy="0" r="3" /><text class="lab lft" transform="translate(-3 -7.0)">11</text></g><path class="edge" d="M 0 0 V -10.9202 H 11.5" /><circle class="sym" cx="0" cy="0" r="3" /><text class="lab lft" transform="translate(-3 -7.0)">25</text></g><g class="a30 c1 node n28 p0" transform="translate(11.5 3.74574)"><g class="a28 leaf node n5 p0 sample" transform="translate(0.0 23.7616)"><path class="edge" d="M 0 0 V -23.7616 H 0.0" /><rect class="sym" height="6" width="6" x="-3" y="-3" /><text class="lab" transform="translate(0 11)">5</text></g><path class="edge" d="M 0 0 V -3.74574 H -11.5" /><circle class="sym" cx="0" cy="0" r="3" /><text class="lab rgt" transform="translate(3 -7.0)">28</text></g><path class="edge" d="M 0 0 V -1.33764 H 0.0" /><circle class="sym" cx="0" cy="0" r="3" /><text class="lab lft" transform="translate(-3 -7.0)">30</text></g><path class="edge" d="M 0 0 V -3.46842 H 19.1667" /><circle class="sym" cx="0" cy="0" r="3" /><text class="lab lft" transform="translate(-3 -7.0)">31</text></g><path class="edge" d="M 0 0 V -62.2866 H 41.2083" /><circle class="sym" cx="0" cy="0" r="3" /><text class="lab lft" transform="translate(-3 -7.0)">32</text></g><circle class="sym" cx="0" cy="0" r="3" /><text class="lab" transform="translate(0 -11)">33</text></g></g></g><g class="tree t2" transform="translate(406.667 0)"><g class="plotbox"><g class="c2 node n33 p0 root" transform="translate(106.729 26.8)"><g class="a33 c2 node n24 p0" transform="translate(42.6458 78.149)"><g class="a24 c2 node n15 p0" transform="translate(-16.2917 7.05674)"><g class="a15 leaf node n8 p0 sample" transform="translate(17.25 9.3943)"><path class="edge" d="M 0 0 V -9.3943 H -17.25" /><rect class="sym" height="6" width="6" x="-3" y="-3" /><text class="lab" transform="translate(0 11)">8</text></g><g class="a15 c1 node n14 p0" transform="translate(-17.25 2.47386)"><g class="a14 c2 node n12 p0" transform="translate(0.0 2.47387)"><g class="a12 leaf node n1 p0 sample" transform="translate(-11.5 4.44657)"><path class="edge" d="M 0 0 V -4.44657 H 11.5" /><rect class="sym" height="6" width="6" x="-3" y="-3" /><text class="lab" transform="translate(0 11)">1</text></g><g class="a12 c2 node n10 p0" transform="translate(11.5 3.34228)"><g class="a10 leaf node n3 p0 sample" transform="translate(-7.66667 1.10429)"><path class="edge" d="M 0 0 V -1.10429 H 7.66667" /><rect class="sym" height="6" width="6" x="-3" y="-3" /><text class="lab" transform="translate(0 11)">3</text></g><g class="a10 leaf node n4 p0 sample" transform="translate(7.66667 1.10429)"><path class="edge" d="M 0 0 V -1.10429 H -7.66667" /><rect class="sym" height="6" width="6" x="-3" y="-3" /><text class="lab" transform="translate(0 11)">4</text></g><path class="edge" d="M 0 0 V -3.34228 H -11.5" /><circle class="sym" cx="0" cy="0" r="3" /><text class="lab rgt" transform="translate(3 -7.0)">10</text></g><path class="edge" d="M 0 0 V -2.47387 H 0.0" /><circle class="sym" cx="0" cy="0" r="3" /><text class="lab lft" transform="translate(-3 -7.0)">12</text></g><path class="edge" d="M 0 0 V -2.47386 H 17.25" /><circle class="sym" cx="0" cy="0" r="3" /><text class="lab lft" transform="translate(-3 -7.0)">14</text></g><path class="edge" d="M 0 0 V -7.05674 H 16.2917" /><circle class="sym" cx="0" cy="0" r="3" /><text class="lab lft" transform="translate(-3 -7.0)">15</text></g><g class="a24 c1 node n20 p0" transform="translate(16.2917 3.94898)"><g class="a20 leaf node n2 p0 sample" transform="translate(0.0 12.5021)"><path class="edge" d="M 0 0 V -12.5021 H 0.0" /><rect class="sym" height="6" width="6" x="-3" y="-3" /><text class="lab" transform="translate(0 11)">2</text></g><path class="edge" d="M 0 0 V -3.94898 H -16.2917" /><circle class="sym" cx="0" cy="0" r="3" /><text class="lab rgt" transform="translate(3 -7.0)">20</text></g><path class="edge" d="M 0 0 V -78.149 H -42.6458" /><circle class="sym" cx="0" cy="0" r="3" /><text class="lab rgt" transform="translate(3 -7.0)">24</text></g><g class="a33 c2 node n32 p0" transform="translate(-42.6458 62.2866)"><g class="a32 c1 node n27 p0" transform="translate(17.25 11.8296)"><g class="a27 c2 node n26 p0" transform="translate(0.0 1.98279)"><g class="a26 c1 node n21 p0" transform="translate(-7.66667 4.10779)"><g class="a21 c1 node n18 p0" transform="translate(0.0 1.92926)"><g class="a18 leaf node n7 p0 sample" transform="translate(0.0 12.4639)"><path class="edge" d="M 0 0 V -12.4639 H 0.0" /><rect class="sym" height="6" width="6" x="-3" y="-3" /><text class="lab" transform="translate(0 11)">7</text></g><path class="edge" d="M 0 0 V -1.92926 H 0.0" /><circle class="sym" cx="0" cy="0" r="3" /><text class="lab lft" transform="translate(-3 -7.0)">18</text></g><path class="edge" d="M 0 0 V -4.10779 H 7.66667" /><circle class="sym" cx="0" cy="0" r="3" /><text class="lab lft" transform="translate(-3 -7.0)">21</text></g><g class="a26 c1 node n23 p0" transform="translate(7.66667 2.24408)"><g class="a23 c1 node n16 p0" transform="translate(0.0 3.82169)"><g class="a16 leaf node n9 p0 sample" transform="translate(0.0 12.4352)"><path class="edge" d="M 0 0 V -12.4352 H 0.0" /><rect class="sym" height="6" width="6" x="-3" y="-3" /><text class="lab" transform="translate(0 11)">9</text></g><path class="edge" d="M 0 0 V -3.82169 H 0.0" /><circle class="sym" cx="0" cy="0" r="3" /><text class="lab lft" transform="translate(-3 -7.0)">16</text></g><path class="edge" d="M 0 0 V -2.24408 H -7.66667" /><circle class="sym" cx="0" cy="0" r="3" /><text class="lab rgt" transform="translate(3 -7.0)">23</text></g><path class="edge" d="M 0 0 V -1.98279 H 0.0" /><circle class="sym" cx="0" cy="0" r="3" /><text class="lab lft" transform="translate(-3 -7.0)">26</text></g><path class="edge" d="M 0 0 V -11.8296 H -17.25" /><circle class="sym" cx="0" cy="0" r="3" /><text class="lab rgt" transform="translate(3 -7.0)">27</text></g><g class="a32 c1 node n31 p0" transform="translate(-17.25 3.46842)"><g class="a31 c2 node n30 p0" transform="translate(0.0 1.33764)"><g class="a30 c1 node n25 p0" transform="translate(-11.5 10.9202)"><g class="a25 c2 node n11 p0" transform="translate(0.0 14.7548)"><g class="a11 leaf node n0 p0 sample" transform="translate(-7.66667 1.83224)"><path class="edge" d="M 0 0 V -1.83224 H 7.66667" /><rect class="sym" height="6" width="6" x="-3" y="-3" /><text class="lab" transform="translate(0 11)">0</text></g><g class="a11 leaf node n6 p0 sample" transform="translate(7.66667 1.83224)"><path class="edge" d="M 0 0 V -1.83224 H -7.66667" /><rect class="sym" height="6" width="6" x="-3" y="-3" /><text class="lab" transform="translate(0 11)">6</text></g><path class="edge" d="M 0 0 V -14.7548 H 0.0" /><circle class="sym" cx="0" cy="0" r="3" /><text class="lab lft" transform="translate(-3 -7.0)">11</text></g><path class="edge" d="M 0 0 V -10.9202 H 11.5" /><circle class="sym" cx="0" cy="0" r="3" /><text class="lab lft" transform="translate(-3 -7.0)">25</text></g><g class="a30 c1 node n28 p0" transform="translate(11.5 3.74574)"><g class="a28 leaf node n5 p0 sample" transform="translate(0.0 23.7616)"><path class="edge" d="M 0 0 V -23.7616 H 0.0" /><rect class="sym" height="6" width="6" x="-3" y="-3" /><text class="lab" transform="translate(0 11)">5</text></g><path class="edge" d="M 0 0 V -3.74574 H -11.5" /><circle class="sym" cx="0" cy="0" r="3" /><text class="lab rgt" transform="translate(3 -7.0)">28</text></g><path class="edge" d="M 0 0 V -1.33764 H 0.0" /><circle class="sym" cx="0" cy="0" r="3" /><text class="lab lft" transform="translate(-3 -7.0)">30</text></g><path class="edge" d="M 0 0 V -3.46842 H 17.25" /><circle class="sym" cx="0" cy="0" r="3" /><text class="lab lft" transform="translate(-3 -7.0)">31</text></g><path class="edge" d="M 0 0 V -62.2866 H 42.6458" /><circle class="sym" cx="0" cy="0" r="3" /><text class="lab lft" transform="translate(-3 -7.0)">32</text></g><circle class="sym" cx="0" cy="0" r="3" /><text class="lab" transform="translate(0 -11)">33</text></g></g></g><g class="tree t3" transform="translate(600 0)"><g class="plotbox"><g class="c2 node n33 p0 root" transform="translate(106.729 26.8)"><g class="a33 c2 node n24 p0" transform="translate(42.6458 78.149)"><g class="a24 c2 node n15 p0" transform="translate(-16.2917 7.05674)"><g class="a15 leaf node n8 p0 sample" transform="translate(17.25 9.3943)"><path class="edge" d="M 0 0 V -9.3943 H -17.25" /><rect class="sym" height="6" width="6" x="-3" y="-3" /><text class="lab" transform="translate(0 11)">8</text></g><g class="a15 c1 node n14 p0" transform="translate(-17.25 2.47386)"><g class="a14 c2 node n12 p0" transform="translate(0.0 2.47387)"><g class="a12 leaf node n1 p0 sample" transform="translate(-11.5 4.44657)"><path class="edge" d="M 0 0 V -4.44657 H 11.5" /><rect class="sym" height="6" width="6" x="-3" y="-3" /><text class="lab" transform="translate(0 11)">1</text></g><g class="a12 c2 node n10 p0" transform="translate(11.5 3.34228)"><g class="a10 leaf node n3 p0 sample" transform="translate(-7.66667 1.10429)"><path class="edge" d="M 0 0 V -1.10429 H 7.66667" /><rect class="sym" height="6" width="6" x="-3" y="-3" /><text class="lab" transform="translate(0 11)">3</text></g><g class="a10 leaf node n4 p0 sample" transform="translate(7.66667 1.10429)"><path class="edge" d="M 0 0 V -1.10429 H -7.66667" /><rect class="sym" height="6" width="6" x="-3" y="-3" /><text class="lab" transform="translate(0 11)">4</text></g><path class="edge" d="M 0 0 V -3.34228 H -11.5" /><circle class="sym" cx="0" cy="0" r="3" /><text class="lab rgt" transform="translate(3 -7.0)">10</text></g><path class="edge" d="M 0 0 V -2.47387 H 0.0" /><circle class="sym" cx="0" cy="0" r="3" /><text class="lab lft" transform="translate(-3 -7.0)">12</text></g><path class="edge" d="M 0 0 V -2.47386 H 17.25" /><circle class="sym" cx="0" cy="0" r="3" /><text class="lab lft" transform="translate(-3 -7.0)">14</text></g><path class="edge" d="M 0 0 V -7.05674 H 16.2917" /><circle class="sym" cx="0" cy="0" r="3" /><text class="lab lft" transform="translate(-3 -7.0)">15</text></g><g class="a24 c1 node n20 p0" transform="translate(16.2917 3.94898)"><g class="a20 leaf node n2 p0 sample" transform="translate(0.0 12.5021)"><path class="edge" d="M 0 0 V -12.5021 H 0.0" /><rect class="sym" height="6" width="6" x="-3" y="-3" /><text class="lab" transform="translate(0 11)">2</text></g><path class="edge" d="M 0 0 V -3.94898 H -16.2917" /><circle class="sym" cx="0" cy="0" r="3" /><text class="lab rgt" transform="translate(3 -7.0)">20</text></g><path class="edge" d="M 0 0 V -78.149 H -42.6458" /><circle class="sym" cx="0" cy="0" r="3" /><text class="lab rgt" transform="translate(3 -7.0)">24</text></g><g class="a33 c2 node n32 p0" transform="translate(-42.6458 62.2866)"><g class="a32 c1 node n27 p0" transform="translate(17.25 11.8296)"><g class="a27 c2 node n26 p0" transform="translate(0.0 1.98279)"><g class="a26 c1 node n21 p0" transform="translate(-7.66667 4.10779)"><g class="a21 c1 node n18 p0" transform="translate(0.0 1.92926)"><g class="a18 leaf node n7 p0 sample" transform="translate(0.0 12.4639)"><path class="edge" d="M 0 0 V -12.4639 H 0.0" /><rect class="sym" height="6" width="6" x="-3" y="-3" /><text class="lab" transform="translate(0 11)">7</text></g><path class="edge" d="M 0 0 V -1.92926 H 0.0" /><circle class="sym" cx="0" cy="0" r="3" /><text class="lab lft" transform="translate(-3 -7.0)">18</text></g><path class="edge" d="M 0 0 V -4.10779 H 7.66667" /><circle class="sym" cx="0" cy="0" r="3" /><text class="lab lft" transform="translate(-3 -7.0)">21</text></g><g class="a26 c1 node n23 p0" transform="translate(7.66667 2.24408)"><g class="a23 c1 node n16 p0" transform="translate(0.0 3.82169)"><g class="a16 leaf node n9 p0 sample" transform="translate(0.0 12.4352)"><path class="edge" d="M 0 0 V -12.4352 H 0.0" /><rect class="sym" height="6" width="6" x="-3" y="-3" /><text class="lab" transform="translate(0 11)">9</text></g><path class="edge" d="M 0 0 V -3.82169 H 0.0" /><circle class="sym" cx="0" cy="0" r="3" /><text class="lab lft" transform="translate(-3 -7.0)">16</text></g><path class="edge" d="M 0 0 V -2.24408 H -7.66667" /><circle class="sym" cx="0" cy="0" r="3" /><text class="lab rgt" transform="translate(3 -7.0)">23</text></g><path class="edge" d="M 0 0 V -1.98279 H 0.0" /><circle class="sym" cx="0" cy="0" r="3" /><text class="lab lft" transform="translate(-3 -7.0)">26</text></g><path class="edge" d="M 0 0 V -11.8296 H -17.25" /><circle class="sym" cx="0" cy="0" r="3" /><text class="lab rgt" transform="translate(3 -7.0)">27</text></g><g class="a32 c2 node n31 p0" transform="translate(-17.25 3.46842)"><g class="a31 c1 node n30 p0" transform="translate(-11.5 1.33764)"><g class="a30 c1 node n25 p0" transform="translate(0.0 10.9202)"><g class="a25 c2 node n11 p0" transform="translate(0.0 14.7548)"><g class="a11 leaf node n0 p0 sample" transform="translate(-7.66667 1.83224)"><path class="edge" d="M 0 0 V -1.83224 H 7.66667" /><rect class="sym" height="6" width="6" x="-3" y="-3" /><text class="lab" transform="translate(0 11)">0</text></g><g class="a11 leaf node n6 p0 sample" transform="translate(7.66667 1.83224)"><path class="edge" d="M 0 0 V -1.83224 H -7.66667" /><rect class="sym" height="6" width="6" x="-3" y="-3" /><text class="lab" transform="translate(0 11)">6</text></g><path class="edge" d="M 0 0 V -14.7548 H 0.0" /><circle class="sym" cx="0" cy="0" r="3" /><text class="lab lft" transform="translate(-3 -7.0)">11</text></g><path class="edge" d="M 0 0 V -10.9202 H 0.0" /><circle class="sym" cx="0" cy="0" r="3" /><text class="lab lft" transform="translate(-3 -7.0)">25</text></g><path class="edge" d="M 0 0 V -1.33764 H 11.5" /><circle class="sym" cx="0" cy="0" r="3" /><text class="lab lft" transform="translate(-3 -7.0)">30</text></g><g class="a31 c1 node n29 p0" transform="translate(11.5 5.08338)"><g class="a29 leaf node n5 p0 sample" transform="translate(0.0 23.7616)"><path class="edge" d="M 0 0 V -23.7616 H 0.0" /><rect class="sym" height="6" width="6" x="-3" y="-3" /><text class="lab" transform="translate(0 11)">5</text></g><path class="edge" d="M 0 0 V -5.08338 H -11.5" /><circle class="sym" cx="0" cy="0" r="3" /><text class="lab rgt" transform="translate(3 -7.0)">29</text></g><path class="edge" d="M 0 0 V -3.46842 H 17.25" /><circle class="sym" cx="0" cy="0" r="3" /><text class="lab lft" transform="translate(-3 -7.0)">31</text></g><path class="edge" d="M 0 0 V -62.2866 H 42.6458" /><circle class="sym" cx="0" cy="0" r="3" /><text class="lab lft" transform="translate(-3 -7.0)">32</text></g><circle class="sym" cx="0" cy="0" r="3" /><text class="lab" transform="translate(0 -11)">33</text></g></g></g><g class="tree t4" transform="translate(793.333 0)"><g class="plotbox"><g class="c2 node n33 p0 root" transform="translate(106.729 26.8)"><g class="a33 c2 node n24 p0" transform="translate(42.6458 78.149)"><g class="a24 c2 node n15 p0" transform="translate(-16.2917 7.05674)"><g class="a15 leaf node n8 p0 sample" transform="translate(17.25 9.3943)"><path class="edge" d="M 0 0 V -9.3943 H -17.25" /><rect class="sym" height="6" width="6" x="-3" y="-3" /><text class="lab" transform="translate(0 11)">8</text></g><g class="a15 c1 node n14 p0" transform="translate(-17.25 2.47386)"><g class="a14 c2 node n12 p0" transform="translate(0.0 2.47387)"><g class="a12 leaf node n1 p0 sample" transform="translate(-11.5 4.44657)"><path class="edge" d="M 0 0 V -4.44657 H 11.5" /><rect class="sym" height="6" width="6" x="-3" y="-3" /><text class="lab" transform="translate(0 11)">1</text></g><g class="a12 c2 node n10 p0" transform="translate(11.5 3.34228)"><g class="a10 leaf node n3 p0 sample" transform="translate(-7.66667 1.10429)"><path class="edge" d="M 0 0 V -1.10429 H 7.66667" /><rect class="sym" height="6" width="6" x="-3" y="-3" /><text class="lab" transform="translate(0 11)">3</text></g><g class="a10 leaf node n4 p0 sample" transform="translate(7.66667 1.10429)"><path class="edge" d="M 0 0 V -1.10429 H -7.66667" /><rect class="sym" height="6" width="6" x="-3" y="-3" /><text class="lab" transform="translate(0 11)">4</text></g><path class="edge" d="M 0 0 V -3.34228 H -11.5" /><circle class="sym" cx="0" cy="0" r="3" /><text class="lab rgt" transform="translate(3 -7.0)">10</text></g><path class="edge" d="M 0 0 V -2.47387 H 0.0" /><circle class="sym" cx="0" cy="0" r="3" /><text class="lab lft" transform="translate(-3 -7.0)">12</text></g><path class="edge" d="M 0 0 V -2.47386 H 17.25" /><circle class="sym" cx="0" cy="0" r="3" /><text class="lab lft" transform="translate(-3 -7.0)">14</text></g><path class="edge" d="M 0 0 V -7.05674 H 16.2917" /><circle class="sym" cx="0" cy="0" r="3" /><text class="lab lft" transform="translate(-3 -7.0)">15</text></g><g class="a24 c1 node n20 p0" transform="translate(16.2917 3.94898)"><g class="a20 leaf node n2 p0 sample" transform="translate(0.0 12.5021)"><path class="edge" d="M 0 0 V -12.5021 H 0.0" /><rect class="sym" height="6" width="6" x="-3" y="-3" /><text class="lab" transform="translate(0 11)">2</text></g><path class="edge" d="M 0 0 V -3.94898 H -16.2917" /><circle class="sym" cx="0" cy="0" r="3" /><text class="lab rgt" transform="translate(3 -7.0)">20</text></g><path class="edge" d="M 0 0 V -78.149 H -42.6458" /><circle class="sym" cx="0" cy="0" r="3" /><text class="lab rgt" transform="translate(3 -7.0)">24</text></g><g class="a33 c2 node n32 p0" transform="translate(-42.6458 62.2866)"><g class="a32 c1 node n27 p0" transform="translate(17.25 11.8296)"><g class="a27 c1 node n26 p0" transform="translate(0.0 1.98279)"><g class="a26 c1 node n21 p0" transform="translate(0.0 4.10779)"><g class="a21 c2 node n18 p0" transform="translate(0.0 1.92926)"><g class="a18 leaf node n7 p0 sample" transform="translate(-7.66667 12.4639)"><path class="edge" d="M 0 0 V -12.4639 H 7.66667" /><rect class="sym" height="6" width="6" x="-3" y="-3" /><text class="lab" transform="translate(0 11)">7</text></g><g class="a18 c1 node n17 p0" transform="translate(7.66667 0.0287212)"><g class="a17 leaf node n9 p0 sample" transform="translate(0.0 12.4352)"><path class="edge" d="M 0 0 V -12.4352 H 0.0" /><rect class="sym" height="6" width="6" x="-3" y="-3" /><text class="lab" transform="translate(0 11)">9</text></g><path class="edge" d="M 0 0 V -0.0287212 H -7.66667" /><circle class="sym" cx="0" cy="0" r="3" /><text class="lab rgt" transform="translate(3 -7.0)">17</text></g><path class="edge" d="M 0 0 V -1.92926 H 0.0" /><circle class="sym" cx="0" cy="0" r="3" /><text class="lab lft" transform="translate(-3 -7.0)">18</text></g><path class="edge" d="M 0 0 V -4.10779 H 0.0" /><circle class="sym" cx="0" cy="0" r="3" /><text class="lab lft" transform="translate(-3 -7.0)">21</text></g><path class="edge" d="M 0 0 V -1.98279 H 0.0" /><circle class="sym" cx="0" cy="0" r="3" /><text class="lab lft" transform="translate(-3 -7.0)">26</text></g><path class="edge" d="M 0 0 V -11.8296 H -17.25" /><circle class="sym" cx="0" cy="0" r="3" /><text class="lab rgt" transform="translate(3 -7.0)">27</text></g><g class="a32 c2 node n31 p0" transform="translate(-17.25 3.46842)"><g class="a31 c1 node n30 p0" transform="translate(-11.5 1.33764)"><g class="a30 c1 node n25 p0" transform="translate(0.0 10.9202)"><g class="a25 c2 node n11 p0" transform="translate(0.0 14.7548)"><g class="a11 leaf node n0 p0 sample" transform="translate(-7.66667 1.83224)"><path class="edge" d="M 0 0 V -1.83224 H 7.66667" /><rect class="sym" height="6" width="6" x="-3" y="-3" /><text class="lab" transform="translate(0 11)">0</text></g><g class="a11 leaf node n6 p0 sample" transform="translate(7.66667 1.83224)"><path class="edge" d="M 0 0 V -1.83224 H -7.66667" /><rect class="sym" height="6" width="6" x="-3" y="-3" /><text class="lab" transform="translate(0 11)">6</text></g><path class="edge" d="M 0 0 V -14.7548 H 0.0" /><circle class="sym" cx="0" cy="0" r="3" /><text class="lab lft" transform="translate(-3 -7.0)">11</text></g><path class="edge" d="M 0 0 V -10.9202 H 0.0" /><circle class="sym" cx="0" cy="0" r="3" /><text class="lab lft" transform="translate(-3 -7.0)">25</text></g><path class="edge" d="M 0 0 V -1.33764 H 11.5" /><circle class="sym" cx="0" cy="0" r="3" /><text class="lab lft" transform="translate(-3 -7.0)">30</text></g><g class="a31 c1 node n29 p0" transform="translate(11.5 5.08338)"><g class="a29 leaf node n5 p0 sample" transform="translate(0.0 23.7616)"><path class="edge" d="M 0 0 V -23.7616 H 0.0" /><rect class="sym" height="6" width="6" x="-3" y="-3" /><text class="lab" transform="translate(0 11)">5</text></g><path class="edge" d="M 0 0 V -5.08338 H -11.5" /><circle class="sym" cx="0" cy="0" r="3" /><text class="lab rgt" transform="translate(3 -7.0)">29</text></g><path class="edge" d="M 0 0 V -3.46842 H 17.25" /><circle class="sym" cx="0" cy="0" r="3" /><text class="lab lft" transform="translate(-3 -7.0)">31</text></g><path class="edge" d="M 0 0 V -62.2866 H 42.6458" /><circle class="sym" cx="0" cy="0" r="3" /><text class="lab lft" transform="translate(-3 -7.0)">32</text></g><circle class="sym" cx="0" cy="0" r="3" /><text class="lab" transform="translate(0 -11)">33</text></g></g></g><g class="tree t5" transform="translate(986.667 0)"><g class="plotbox"><g class="c2 node n33 p0 root" transform="translate(106.729 26.8)"><g class="a33 c2 node n24 p0" transform="translate(42.6458 78.149)"><g class="a24 c2 node n15 p0" transform="translate(-16.2917 7.05674)"><g class="a15 leaf node n8 p0 sample" transform="translate(17.25 9.3943)"><path class="edge" d="M 0 0 V -9.3943 H -17.25" /><rect class="sym" height="6" width="6" x="-3" y="-3" /><text class="lab" transform="translate(0 11)">8</text></g><g class="a15 c1 node n14 p0" transform="translate(-17.25 2.47386)"><g class="a14 c2 node n12 p0" transform="translate(0.0 2.47387)"><g class="a12 leaf node n1 p0 sample" transform="translate(-11.5 4.44657)"><path class="edge" d="M 0 0 V -4.44657 H 11.5" /><rect class="sym" height="6" width="6" x="-3" y="-3" /><text class="lab" transform="translate(0 11)">1</text></g><g class="a12 c2 node n10 p0" transform="translate(11.5 3.34228)"><g class="a10 leaf node n3 p0 sample" transform="translate(-7.66667 1.10429)"><path class="edge" d="M 0 0 V -1.10429 H 7.66667" /><rect class="sym" height="6" width="6" x="-3" y="-3" /><text class="lab" transform="translate(0 11)">3</text></g><g class="a10 leaf node n4 p0 sample" transform="translate(7.66667 1.10429)"><path class="edge" d="M 0 0 V -1.10429 H -7.66667" /><rect class="sym" height="6" width="6" x="-3" y="-3" /><text class="lab" transform="translate(0 11)">4</text></g><path class="edge" d="M 0 0 V -3.34228 H -11.5" /><circle class="sym" cx="0" cy="0" r="3" /><text class="lab rgt" transform="translate(3 -7.0)">10</text></g><path class="edge" d="M 0 0 V -2.47387 H 0.0" /><circle class="sym" cx="0" cy="0" r="3" /><text class="lab lft" transform="translate(-3 -7.0)">12</text></g><path class="edge" d="M 0 0 V -2.47386 H 17.25" /><circle class="sym" cx="0" cy="0" r="3" /><text class="lab lft" transform="translate(-3 -7.0)">14</text></g><path class="edge" d="M 0 0 V -7.05674 H 16.2917" /><circle class="sym" cx="0" cy="0" r="3" /><text class="lab lft" transform="translate(-3 -7.0)">15</text></g><g class="a24 c1 node n20 p0" transform="translate(16.2917 3.94898)"><g class="a20 leaf node n2 p0 sample" transform="translate(0.0 12.5021)"><path class="edge" d="M 0 0 V -12.5021 H 0.0" /><rect class="sym" height="6" width="6" x="-3" y="-3" /><text class="lab" transform="translate(0 11)">2</text></g><path class="edge" d="M 0 0 V -3.94898 H -16.2917" /><circle class="sym" cx="0" cy="0" r="3" /><text class="lab rgt" transform="translate(3 -7.0)">20</text></g><path class="edge" d="M 0 0 V -78.149 H -42.6458" /><circle class="sym" cx="0" cy="0" r="3" /><text class="lab rgt" transform="translate(3 -7.0)">24</text></g><g class="a33 c2 node n32 p0" transform="translate(-42.6458 62.2866)"><g class="a32 c1 node n27 p0" transform="translate(17.25 11.8296)"><g class="a27 c1 node n26 p0" transform="translate(0.0 1.98279)"><g class="a26 c1 node n23 p0" transform="translate(0.0 2.24408)"><g class="a23 c1 node n22 p0" transform="translate(0.0 1.86371)"><g class="a22 c2 node n18 p0" transform="translate(0.0 1.92926)"><g class="a18 leaf node n7 p0 sample" transform="translate(-7.66667 12.4639)"><path class="edge" d="M 0 0 V -12.4639 H 7.66667" /><rect class="sym" height="6" width="6" x="-3" y="-3" /><text class="lab" transform="translate(0 11)">7</text></g><g class="a18 c1 node n17 p0" transform="translate(7.66667 0.0287212)"><g class="a17 leaf node n9 p0 sample" transform="translate(0.0 12.4352)"><path class="edge" d="M 0 0 V -12.4352 H 0.0" /><rect class="sym" height="6" width="6" x="-3" y="-3" /><text class="lab" transform="translate(0 11)">9</text></g><path class="edge" d="M 0 0 V -0.0287212 H -7.66667" /><circle class="sym" cx="0" cy="0" r="3" /><text class="lab rgt" transform="translate(3 -7.0)">17</text></g><path class="edge" d="M 0 0 V -1.92926 H 0.0" /><circle class="sym" cx="0" cy="0" r="3" /><text class="lab lft" transform="translate(-3 -7.0)">18</text></g><path class="edge" d="M 0 0 V -1.86371 H 0.0" /><circle class="sym" cx="0" cy="0" r="3" /><text class="lab lft" transform="translate(-3 -7.0)">22</text></g><path class="edge" d="M 0 0 V -2.24408 H 0.0" /><circle class="sym" cx="0" cy="0" r="3" /><text class="lab lft" transform="translate(-3 -7.0)">23</text></g><path class="edge" d="M 0 0 V -1.98279 H 0.0" /><circle class="sym" cx="0" cy="0" r="3" /><text class="lab lft" transform="translate(-3 -7.0)">26</text></g><path class="edge" d="M 0 0 V -11.8296 H -17.25" /><circle class="sym" cx="0" cy="0" r="3" /><text class="lab rgt" transform="translate(3 -7.0)">27</text></g><g class="a32 c2 node n31 p0" transform="translate(-17.25 3.46842)"><g class="a31 c1 node n30 p0" transform="translate(-11.5 1.33764)"><g class="a30 c1 node n25 p0" transform="translate(0.0 10.9202)"><g class="a25 c2 node n11 p0" transform="translate(0.0 14.7548)"><g class="a11 leaf node n0 p0 sample" transform="translate(-7.66667 1.83224)"><path class="edge" d="M 0 0 V -1.83224 H 7.66667" /><rect class="sym" height="6" width="6" x="-3" y="-3" /><text class="lab" transform="translate(0 11)">0</text></g><g class="a11 leaf node n6 p0 sample" transform="translate(7.66667 1.83224)"><path class="edge" d="M 0 0 V -1.83224 H -7.66667" /><rect class="sym" height="6" width="6" x="-3" y="-3" /><text class="lab" transform="translate(0 11)">6</text></g><path class="edge" d="M 0 0 V -14.7548 H 0.0" /><circle class="sym" cx="0" cy="0" r="3" /><text class="lab lft" transform="translate(-3 -7.0)">11</text></g><path class="edge" d="M 0 0 V -10.9202 H 0.0" /><circle class="sym" cx="0" cy="0" r="3" /><text class="lab lft" transform="translate(-3 -7.0)">25</text></g><path class="edge" d="M 0 0 V -1.33764 H 11.5" /><circle class="sym" cx="0" cy="0" r="3" /><text class="lab lft" transform="translate(-3 -7.0)">30</text></g><g class="a31 c1 node n29 p0" transform="translate(11.5 5.08338)"><g class="a29 leaf node n5 p0 sample" transform="translate(0.0 23.7616)"><path class="edge" d="M 0 0 V -23.7616 H 0.0" /><rect class="sym" height="6" width="6" x="-3" y="-3" /><text class="lab" transform="translate(0 11)">5</text></g><path class="edge" d="M 0 0 V -5.08338 H -11.5" /><circle class="sym" cx="0" cy="0" r="3" /><text class="lab rgt" transform="translate(3 -7.0)">29</text></g><path class="edge" d="M 0 0 V -3.46842 H 17.25" /><circle class="sym" cx="0" cy="0" r="3" /><text class="lab lft" transform="translate(-3 -7.0)">31</text></g><path class="edge" d="M 0 0 V -62.2866 H 42.6458" /><circle class="sym" cx="0" cy="0" r="3" /><text class="lab lft" transform="translate(-3 -7.0)">32</text></g><circle class="sym" cx="0" cy="0" r="3" /><text class="lab" transform="translate(0 -11)">33</text></g></g></g></g></g></svg>
