<svg baseProfile="full" height="200" version="1.1" width="1200" xmlns="http://www.w3.org/2000/svg" xmlns:ev="http://www.w3.org/2001/xml-events" xmlns:xlink="http://www.w3.org/1999/xlink"><defs><style type="text/css"><![CDATA[.background path {fill: #808080; fill-opacity: 0}.background path:nth-child(odd) {fill-opacity: .1}.axes {font-size: 14px}.x-axis .tick .lab {font-weight: bold; dominant-baseline: hanging}.axes, .tree {font-size: 14px; text-anchor: middle}.axes line, .edge {stroke: black; fill: none}.y-axis .grid {stroke: #FAFAFA}.node > .sym {fill: black; stroke: none}.site > .sym {stroke: black}.mut text {fill: red; font-style: italic}.mut.extra text {fill: hotpink}.mut line {fill: none; stroke: none}.mut .sym {fill: none; stroke: red}.mut.extra .sym {stroke: hotpink}.node .mut .sym {stroke-width: 1.5px}.tree text, .tree-sequence text {dominant-baseline: central}.plotbox .lab.lft {text-anchor: end}.plotbox .lab.rgt {text-anchor: start}]]></style></defs><g class="tree-sequence"><g class="background"><path d="M20,0 l193.333,0 l0,138.2 l-185.347,25 l0,5 l-7.98664,0 l0,-5 l0,-25 l0,-138.2z" /><path d="M213.333,0 l193.333,0 l0,138.2 l-156.663,25 l0,5 l-222.017,0 l0,-5 l185.347,-25 l0,-138.2z" /><path d="M406.667,0 l193.333,0 l0,138.2 l-296.002,25 l0,5 l-53.9949,0 l0,-5 l156.663,-25 l0,-138.2z" /><path d="M600,0 l193.333,0 l0,138.2 l-219.382,25 l0,5 l-269.953,0 l0,-5 l296.002,-25 l0,-138.2z" /><path d="M793.333,0 l193.333,0 l0,138.2 l-310.108,25 l0,5 l-102.607,0 l0,-5 l219.382,-25 l0,-138.2z" /><path d="M986.667,0 l193.333,0 l0,138.2 l0,25 l0,5 l-503.441,0 l0,-5 l310.108,-25 l0,-138.2z" /></g><g class="axes"><g class="x-axis"><g transform="translate(600 200)"><text class="lab" text-anchor="middle" transform="translate(0 -11)">Genome position</text></g><line x1="20" x2="1180" y1="163.2" y2="163.2" /><g class="ticks"><g class="tick" transform="translate(20 163.2)"><line x1="0" x2="0" y1="0" y2="5" /><g transform="translate(0 6)"><text class="lab">0.00</text></g></g><g class="tick" transform="translate(27.9866 163.2)"><line x1="0" x2="0" y1="0" y2="5" /><g transform="translate(0 6)"><text class="lab">6.89</text></g></g><g class="tick" transform="translate(250.003 163.2)"><line x1="0" x2="0" y1="0" y2="5" /><g transform="translate(0 6)"><text class="lab">198.28</text></g></g><g class="tick" transform="translate(303.998 163.2)"><line x1="0" x2="0" y1="0" y2="5" /><g transform="translate(0 6)"><text class="lab">244.83</text></g></g><g class="tick" transform="translate(573.951 163.2)"><line x1="0" x2="0" y1="0" y2="5" /><g transform="translate(0 6)"><text class="lab">477.54</text></g></g><g class="tick" transform="translate(676.559 163.2)"><line x1="0" x2="0" y1="0" y2="5" /><g transform="translate(0 6)"><text class="lab">566.00</text></g></g><g class="tick" transform="translate(1180 163.2)"><line x1="0" x2="0" y1="0" y2="5" /><g transform="translate(0 6)"><text class="lab">1000.00</text></g></g></g></g></g><g class="plotbox trees"><g class="tree t0" transform="translate(20 0)"><g class="plotbox"><g class="c2 node n33 p0 root" transform="translate(115.354 26.8)"><g class="a33 c2 node n29 p0" transform="translate(-38.8125 42.5147)"><g class="a29 c1 node n27 p0" transform="translate(29.7083 1.8944)"><g class="a27 c1 node n25 p0" transform="translate(0.0 0.818588)"><g class="a25 c2 node n22 p0" transform="translate(0.0 6.49595)"><g class="a22 leaf node n8 p0 sample" transform="translate(13.4167 42.8763)"><path class="edge" d="M 0 0 V -42.8763 H -13.4167" /><rect class="sym" height="6" width="6" x="-3" y="-3" /><text class="lab" transform="translate(0 11)">8</text></g><g class="a22 c1 node n19 p0" transform="translate(-13.4167 12.5458)"><g class="a19 c2 node n11 p0" transform="translate(0.0 29.4515)"><g class="a11 leaf node n3 p0 sample" transform="translate(11.5 0.879091)"><path class="edge" d="M 0 0 V -0.879091 H -11.5" /><rect class="sym" height="6" width="6" x="-3" y="-3" /><text class="lab" transform="translate(0 11)">3</text></g><g class="a11 c2 node n10 p0" transform="translate(-11.5 0.271589)"><g class="a10 leaf node n1 p0 sample" transform="translate(-7.66667 0.607502)"><path class="edge" d="M 0 0 V -0.607502 H 7.66667" /><rect class="sym" height="6" width="6" x="-3" y="-3" /><text class="lab" transform="translate(0 11)">1</text></g><g class="a10 leaf node n6 p0 sample" transform="translate(7.66667 0.607502)"><path class="edge" d="M 0 0 V -0.607502 H -7.66667" /><rect class="sym" height="6" width="6" x="-3" y="-3" /><text class="lab" transform="translate(0 11)">6</text></g><path class="edge" d="M 0 0 V -0.271589 H 11.5" /><circle class="sym" cx="0" cy="0" r="3" /><text class="lab lft" transform="translate(-3 -7.0)">10</text></g><path class="edge" d="M 0 0 V -29.4515 H 0.0" /><circle class="sym" cx="0" cy="0" r="3" /><text class="lab lft" transform="translate(-3 -7.0)">11</text></g><path class="edge" d="M 0 0 V -12.5458 H 13.4167" /><circle class="sym" cx="0" cy="0" r="3" /><text class="lab lft" transform="translate(-3 -7.0)">19</text></g><path class="edge" d="M 0 0 V -6.49595 H 0.0" /><circle class="sym" cx="0" cy="0" r="3" /><text class="lab lft" transform="translate(-3 -7.0)">22</text></g><path class="edge" d="M 0 0 V -0.818588 H 0.0" /><circle class="sym" cx="0" cy="0" r="3" /><text class="lab lft" transform="translate(-3 -7.0)">25</text></g><path class="edge" d="M 0 0 V -1.8944 H -29.7083" /><circle class="sym" cx="0" cy="0" r="3" /><text class="lab rgt" transform="translate(3 -7.0)">27</text></g><g class="a29 c2 node n28 p0" transform="translate(-29.7083 0.427396)"><g class="a28 c1 node n20 p0" transform="translate(11.5 15.4903)"><g class="a20 c1 node n13 p0" transform="translate(0.0 23.9911)"><g class="a13 leaf node n7 p0 sample" transform="translate(0.0 12.1765)"><path class="edge" d="M 0 0 V -12.1765 H 0.0" /><rect class="sym" height="6" width="6" x="-3" y="-3" /><text class="lab" transform="translate(0 11)">7</text></g><path class="edge" d="M 0 0 V -23.9911 H 0.0" /><circle class="sym" cx="0" cy="0" r="3" /><text class="lab lft" transform="translate(-3 -7.0)">13</text></g><path class="edge" d="M 0 0 V -15.4903 H -11.5" /><circle class="sym" cx="0" cy="0" r="3" /><text class="lab rgt" transform="translate(3 -7.0)">20</text></g><g class="a28 c1 node n23 p0" transform="translate(-11.5 7.73554)"><g class="a23 c2 node n16 p0" transform="translate(0.0 23.6549)"><g class="a16 leaf node n0 p0 sample" transform="translate(-7.66667 20.2674)"><path class="edge" d="M 0 0 V -20.2674 H 7.66667" /><rect class="sym" height="6" width="6" x="-3" y="-3" /><text class="lab" transform="translate(0 11)">0</text></g><g class="a16 leaf node n5 p0 sample" transform="translate(7.66667 20.2674)"><path class="edge" d="M 0 0 V -20.2674 H -7.66667" /><rect class="sym" height="6" width="6" x="-3" y="-3" /><text class="lab" transform="translate(0 11)">5</text></g><path class="edge" d="M 0 0 V -23.6549 H 0.0" /><circle class="sym" cx="0" cy="0" r="3" /><text class="lab lft" transform="translate(-3 -7.0)">16</text></g><path class="edge" d="M 0 0 V -7.73554 H 11.5" /><circle class="sym" cx="0" cy="0" r="3" /><text class="lab lft" transform="translate(-3 -7.0)">23</text></g><path class="edge" d="M 0 0 V -0.427396 H 29.7083" /><circle class="sym" cx="0" cy="0" r="3" /><text class="lab lft" transform="translate(-3 -7.0)">28</text></g><path class="edge" d="M 0 0 V -42.5147 H 38.8125" /><circle class="sym" cx="0" cy="0" r="3" /><text class="lab lft" transform="translate(-3 -7.0)">29</text></g><g class="a33 c1 node n32 p0" transform="translate(38.8125 24.0299)"><g class="a32 c2 node n31 p0" transform="translate(0.0 6.15292)"><g class="a31 leaf node n4 p0 sample" transform="translate(11.5 64.4172)"><path class="edge" d="M 0 0 V -64.4172 H -11.5" /><rect class="sym" height="6" width="6" x="-3" y="-3" /><text class="lab" transform="translate(0 11)">4</text></g><g class="a31 c1 node n17 p0" transform="translate(-11.5 40.325)"><g class="a17 c1 node n15 p0" transform="translate(0.0 8.24702)"><g class="a15 c2 node n12 p0" transform="translate(0.0 12.0573)"><g class="a12 leaf node n2 p0 sample" transform="translate(-7.66667 3.78795)"><path class="edge" d="M 0 0 V -3.78795 H 7.66667" /><rect class="sym" height="6" width="6" x="-3" y="-3" /><text class="lab" transform="translate(0 11)">2</text></g><g class="a12 leaf node n9 p0 sample" transform="translate(7.66667 3.78795)"><path class="edge" d="M 0 0 V -3.78795 H -7.66667" /><rect class="sym" height="6" width="6" x="-3" y="-3" /><text class="lab" transform="translate(0 11)">9</text></g><path class="edge" d="M 0 0 V -12.0573 H 0.0" /><circle class="sym" cx="0" cy="0" r="3" /><text class="lab lft" transform="translate(-3 -7.0)">12</text></g><path class="edge" d="M 0 0 V -8.24702 H 0.0" /><circle class="sym" cx="0" cy="0" r="3" /><text class="lab lft" transform="translate(-3 -7.0)">15</text></g><path class="edge" d="M 0 0 V -40.325 H 11.5" /><circle class="sym" cx="0" cy="0" r="3" /><text class="lab lft" transform="translate(-3 -7.0)">17</text></g><path class="edge" d="M 0 0 V -6.15292 H 0.0" /><circle class="sym" cx="0" cy="0" r="3" /><text class="lab lft" transform="translate(-3 -7.0)">31</text></g><path class="edge" d="M 0 0 V -24.0299 H -38.8125" /><circle class="sym" cx="0" cy="0" r="3" /><text class="lab rgt" transform="translate(3 -7.0)">32</text></g><circle class="sym" cx="0" cy="0" r="3" /><text class="lab" transform="translate(0 -11)">33</text></g></g></g><g class="tree t1" transform="translate(213.333 0)"><g class="plotbox"><g class="c2 node n33 p0 root" transform="translate(122.781 26.8)"><g class="a33 c2 node n29 p0" transform="translate(-31.3854 42.5147)"><g class="a29 c2 node n27 p0" transform="translate(-28.2708 1.8944)"><g class="a27 c1 node n25 p0" transform="translate(27.7917 0.818588)"><g class="a25 c2 node n22 p0" transform="translate(0.0 6.49595)"><g class="a22 leaf node n8 p0 sample" transform="translate(13.4167 42.8763)"><path class="edge" d="M 0 0 V -42.8763 H -13.4167" /><rect class="sym" height="6" width="6" x="-3" y="-3" /><text class="lab" transform="translate(0 11)">8</text></g><g class="a22 c1 node n19 p0" transform="translate(-13.4167 12.5458)"><g class="a19 c2 node n11 p0" transform="translate(0.0 29.4515)"><g class="a11 leaf node n3 p0 sample" transform="translate(11.5 0.879091)"><path class="edge" d="M 0 0 V -0.879091 H -11.5" /><rect class="sym" height="6" width="6" x="-3" y="-3" /><text class="lab" transform="translate(0 11)">3</text></g><g class="a11 c2 node n10 p0" transform="translate(-11.5 0.271589)"><g class="a10 leaf node n1 p0 sample" transform="translate(-7.66667 0.607502)"><path class="edge" d="M 0 0 V -0.607502 H 7.66667" /><rect class="sym" height="6" width="6" x="-3" y="-3" /><text class="lab" transform="translate(0 11)">1</text></g><g class="a10 leaf node n6 p0 sample" transform="translate(7.66667 0.607502)"><path class="edge" d="M 0 0 V -0.607502 H -7.66667" /><rect class="sym" height="6" width="6" x="-3" y="-3" /><text class="lab" transform="translate(0 11)">6</text></g><path class="edge" d="M 0 0 V -0.271589 H 11.5" /><circle class="sym" cx="0" cy="0" r="3" /><text class="lab lft" transform="translate(-3 -7.0)">10</text></g><path class="edge" d="M 0 0 V -29.4515 H 0.0" /><circle class="sym" cx="0" cy="0" r="3" /><text class="lab lft" transform="translate(-3 -7.0)">11</text></g><path class="edge" d="M 0 0 V -12.5458 H 13.4167" /><circle class="sym" cx="0" cy="0" r="3" /><text class="lab lft" transform="translate(-3 -7.0)">19</text></g><path class="edge" d="M 0 0 V -6.49595 H 0.0" /><circle class="sym" cx="0" cy="0" r="3" /><text class="lab lft" transform="translate(-3 -7.0)">22</text></g><path class="edge" d="M 0 0 V -0.818588 H -27.7917" /><circle class="sym" cx="0" cy="0" r="3" /><text class="lab rgt" transform="translate(3 -7.0)">25</text></g><g class="a27 c1 node n24 p0" transform="translate(-27.7917 6.26854)"><g class="a24 c2 node n16 p0" transform="translate(0.0 23.6549)"><g class="a16 leaf node n0 p0 sample" transform="translate(-7.66667 20.2674)"><path class="edge" d="M 0 0 V -20.2674 H 7.66667" /><rect class="sym" height="6" width="6" x="-3" y="-3" /><text class="lab" transform="translate(0 11)">0</text></g><g class="a16 leaf node n5 p0 sample" transform="translate(7.66667 20.2674)"><path class="edge" d="M 0 0 V -20.2674 H -7.66667" /><rect class="sym" height="6" width="6" x="-3" y="-3" /><text class="lab" transform="translate(0 11)">5</text></g><path class="edge" d="M 0 0 V -23.6549 H 0.0" /><circle class="sym" cx="0" cy="0" r="3" /><text class="lab lft" transform="translate(-3 -7.0)">16</text></g><path class="edge" d="M 0 0 V -6.26854 H 27.7917" /><circle class="sym" cx="0" cy="0" r="3" /><text class="lab lft" transform="translate(-3 -7.0)">24</text></g><path class="edge" d="M 0 0 V -1.8944 H 28.2708" /><circle class="sym" cx="0" cy="0" r="3" /><text class="lab lft" transform="translate(-3 -7.0)">27</text></g><g class="a29 c1 node n28 p0" transform="translate(28.2708 0.427396)"><g class="a28 c1 node n20 p0" transform="translate(0.0 15.4903)"><g class="a20 c1 node n13 p0" transform="translate(0.0 23.9911)"><g class="a13 leaf node n7 p0 sample" transform="translate(0.0 12.1765)"><path class="edge" d="M 0 0 V -12.1765 H 0.0" /><rect class="sym" height="6" width="6" x="-3" y="-3" /><text class="lab" transform="translate(0 11)">7</text></g><path class="edge" d="M 0 0 V -23.9911 H 0.0" /><circle class="sym" cx="0" cy="0" r="3" /><text class="lab lft" transform="translate(-3 -7.0)">13</text></g><path class="edge" d="M 0 0 V -15.4903 H 0.0" /><circle class="sym" cx="0" cy="0" r="3" /><text class="lab lft" transform="translate(-3 -7.0)">20</text></g><path class="edge" d="M 0 0 V -0.427396 H -28.2708" /><circle class="sym" cx="0" cy="0" r="3" /><text class="lab rgt" transform="translate(3 -7.0)">28</text></g><path class="edge" d="M 0 0 V -42.5147 H 31.3854" /><circle class="sym" cx="0" cy="0" r="3" /><text class="lab lft" transform="translate(-3 -7.0)">29</text></g><g class="a33 c1 node n32 p0" transform="translate(31.3854 24.0299)"><g class="a32 c2 node n31 p0" transform="translate(0.0 6.15292)"><g class="a31 leaf node n4 p0 sample" transform="translate(11.5 64.4172)"><path class="edge" d="M 0 0 V -64.4172 H -11.5" /><rect class="sym" height="6" width="6" x="-3" y="-3" /><text class="lab" transform="translate(0 11)">4</text></g><g class="a31 c1 node n17 p0" transform="translate(-11.5 40.325)"><g class="a17 c1 node n15 p0" transform="translate(0.0 8.24702)"><g class="a15 c2 node n12 p0" transform="translate(0.0 12.0573)"><g class="a12 leaf node n2 p0 sample" transform="translate(-7.66667 3.78795)"><path class="edge" d="M 0 0 V -3.78795 H 7.66667" /><rect class="sym" height="6" width="6" x="-3" y="-3" /><text class="lab" transform="translate(0 11)">2</text></g><g class="a12 leaf node n9 p0 sample" transform="translate(7.66667 3.78795)"><path class="edge" d="M 0 0 V -3.78795 H -7.66667" /><rect class="sym" height="6" width="6" x="-3" y="-3" /><text class="lab" transform="translate(0 11)">9</text></g><path class="edge" d="M 0 0 V -12.0573 H 0.0" /><circle class="sym" cx="0" cy="0" r="3" /><text class="lab lft" transform="translate(-3 -7.0)">12</text></g><path class="edge" d="M 0 0 V -8.24702 H 0.0" /><circle class="sym" cx="0" cy="0" r="3" /><text class="lab lft" transform="translate(-3 -7.0)">15</text></g><path class="edge" d="M 0 0 V -40.325 H 11.5" /><circle class="sym" cx="0" cy="0" r="3" /><text class="lab lft" transform="translate(-3 -7.0)">17</text></g><path class="edge" d="M 0 0 V -6.15292 H 0.0" /><circle class="sym" cx="0" cy="0" r="3" /><text class="lab lft" transform="translate(-3 -7.0)">31</text></g><path class="edge" d="M 0 0 V -24.0299 H -31.3854" /><circle class="sym" cx="0" cy="0" r="3" /><text class="lab rgt" transform="translate(3 -7.0)">32</text></g><circle class="sym" cx="0" cy="0" r="3" /><text class="lab" transform="translate(0 -11)">33</text></g></g></g><g class="tree t2" transform="translate(406.667 0)"><g class="plotbox"><g class="c2 node n33 p0 root" transform="translate(88.5208 26.8)"><g class="a33 c2 node n29 p0" transform="translate(-41.6875 42.5147)"><g class="a29 c1 node n27 p0" transform="translate(-11.5 1.8944)"><g class="a27 c1 node n24 p0" transform="translate(0.0 6.26854)"><g class="a24 c2 node n16 p0" transform="translate(0.0 23.6549)"><g class="a16 leaf node n0 p0 sample" transform="translate(-7.66667 20.2674)"><path class="edge" d="M 0 0 V -20.2674 H 7.66667" /><rect class="sym" height="6" width="6" x="-3" y="-3" /><text class="lab" transform="translate(0 11)">0</text></g><g class="a16 leaf node n5 p0 sample" transform="translate(7.66667 20.2674)"><path class="edge" d="M 0 0 V -20.2674 H -7.66667" /><rect class="sym" height="6" width="6" x="-3" y="-3" /><text class="lab" transform="translate(0 11)">5</text></g><path class="edge" d="M 0 0 V -23.6549 H 0.0" /><circle class="sym" cx="0" cy="0" r="3" /><text class="lab lft" transform="translate(-3 -7.0)">16</text></g><path class="edge" d="M 0 0 V -6.26854 H 0.0" /><circle class="sym" cx="0" cy="0" r="3" /><text class="lab lft" transform="translate(-3 -7.0)">24</text></g><path class="edge" d="M 0 0 V -1.8944 H 11.5" /><circle class="sym" cx="0" cy="0" r="3" /><text class="lab lft" transform="translate(-3 -7.0)">27</text></g><g class="a29 c1 node n28 p0" transform="translate(11.5 0.427396)"><g class="a28 c1 node n20 p0" transform="translate(0.0 15.4903)"><g class="a20 c1 node n13 p0" transform="translate(0.0 23.9911)"><g class="a13 leaf node n7 p0 sample" transform="translate(0.0 12.1765)"><path class="edge" d="M 0 0 V -12.1765 H 0.0" /><rect class="sym" height="6" width="6" x="-3" y="-3" /><text class="lab" transform="translate(0 11)">7</text></g><path class="edge" d="M 0 0 V -23.9911 H 0.0" /><circle class="sym" cx="0" cy="0" r="3" /><text class="lab lft" transform="translate(-3 -7.0)">13</text></g><path class="edge" d="M 0 0 V -15.4903 H 0.0" /><circle class="sym" cx="0" cy="0" r="3" /><text class="lab lft" transform="translate(-3 -7.0)">20</text></g><path class="edge" d="M 0 0 V -0.427396 H -11.5" /><circle class="sym" cx="0" cy="0" r="3" /><text class="lab rgt" transform="translate(3 -7.0)">28</text></g><path class="edge" d="M 0 0 V -42.5147 H 41.6875" /><circle class="sym" cx="0" cy="0" r="3" /><text class="lab lft" transform="translate(-3 -7.0)">29</text></g><g class="a33 c2 node n32 p0" transform="translate(41.6875 24.0299)"><g class="a32 c2 node n31 p0" transform="translate(23.9583 6.15292)"><g class="a31 leaf node n4 p0 sample" transform="translate(11.5 64.4172)"><path class="edge" d="M 0 0 V -64.4172 H -11.5" /><rect class="sym" height="6" width="6" x="-3" y="-3" /><text class="lab" transform="translate(0 11)">4</text></g><g class="a31 c1 node n17 p0" transform="translate(-11.5 40.325)"><g class="a17 c1 node n15 p0" transform="translate(0.0 8.24702)"><g class="a15 c2 node n12 p0" transform="translate(0.0 12.0573)"><g class="a12 leaf node n2 p0 sample" transform="translate(-7.66667 3.78795)"><path class="edge" d="M 0 0 V -3.78795 H 7.66667" /><rect class="sym" height="6" width="6" x="-3" y="-3" /><text class="lab" transform="translate(0 11)">2</text></g><g class="a12 leaf node n9 p0 sample" transform="translate(7.66667 3.78795)"><path class="edge" d="M 0 0 V -3.78795 H -7.66667" /><rect class="sym" height="6" width="6" x="-3" y="-3" /><text class="lab" transform="translate(0 11)">9</text></g><path class="edge" d="M 0 0 V -12.0573 H 0.0" /><circle class="sym" cx="0" cy="0" r="3" /><text class="lab lft" transform="translate(-3 -7.0)">12</text></g><path class="edge" d="M 0 0 V -8.24702 H 0.0" /><circle class="sym" cx="0" cy="0" r="3" /><text class="lab lft" transform="translate(-3 -7.0)">15</text></g><path class="edge" d="M 0 0 V -40.325 H 11.5" /><circle class="sym" cx="0" cy="0" r="3" /><text class="lab lft" transform="translate(-3 -7.0)">17</text></g><path class="edge" d="M 0 0 V -6.15292 H -23.9583" /><circle class="sym" cx="0" cy="0" r="3" /><text class="lab rgt" transform="translate(3 -7.0)">31</text></g><g class="a32 c1 node n30 p0" transform="translate(-23.9583 12.6091)"><g class="a30 c1 node n26 p0" transform="translate(0.0 8.58877)"><g class="a26 c2 node n22 p0" transform="translate(0.0 6.49595)"><g class="a22 leaf node n8 p0 sample" transform="translate(13.4167 42.8763)"><path class="edge" d="M 0 0 V -42.8763 H -13.4167" /><rect class="sym" height="6" width="6" x="-3" y="-3" /><text class="lab" transform="translate(0 11)">8</text></g><g class="a22 c1 node n19 p0" transform="translate(-13.4167 12.5458)"><g class="a19 c2 node n11 p0" transform="translate(0.0 29.4515)"><g class="a11 leaf node n3 p0 sample" transform="translate(11.5 0.879091)"><path class="edge" d="M 0 0 V -0.879091 H -11.5" /><rect class="sym" height="6" width="6" x="-3" y="-3" /><text class="lab" transform="translate(0 11)">3</text></g><g class="a11 c2 node n10 p0" transform="translate(-11.5 0.271589)"><g class="a10 leaf node n1 p0 sample" transform="translate(-7.66667 0.607502)"><path class="edge" d="M 0 0 V -0.607502 H 7.66667" /><rect class="sym" height="6" width="6" x="-3" y="-3" /><text class="lab" transform="translate(0 11)">1</text></g><g class="a10 leaf node n6 p0 sample" transform="translate(7.66667 0.607502)"><path class="edge" d="M 0 0 V -0.607502 H -7.66667" /><rect class="sym" height="6" width="6" x="-3" y="-3" /><text class="lab" transform="translate(0 11)">6</text></g><path class="edge" d="M 0 0 V -0.271589 H 11.5" /><circle class="sym" cx="0" cy="0" r="3" /><text class="lab lft" transform="translate(-3 -7.0)">10</text></g><path class="edge" d="M 0 0 V -29.4515 H 0.0" /><circle class="sym" cx="0" cy="0" r="3" /><text class="lab lft" transform="translate(-3 -7.0)">11</text></g><path class="edge" d="M 0 0 V -12.5458 H 13.4167" /><circle class="sym" cx="0" cy="0" r="3" /><text class="lab lft" transform="translate(-3 -7.0)">19</text></g><path class="edge" d="M 0 0 V -6.49595 H 0.0" /><circle class="sym" cx="0" cy="0" r="3" /><text class="lab lft" transform="translate(-3 -7.0)">22</text></g><path class="edge" d="M 0 0 V -8.58877 H 0.0" /><circle class="sym" cx="0" cy="0" r="3" /><text class="lab lft" transform="translate(-3 -7.0)">26</text></g><path class="edge" d="M 0 0 V -12.6091 H 23.9583" /><circle class="sym" cx="0" cy="0" r="3" /><text class="lab lft" transform="translate(-3 -7.0)">30</text></g><path class="edge" d="M 0 0 V -24.0299 H -41.6875" /><circle class="sym" cx="0" cy="0" r="3" /><text class="lab rgt" transform="translate(3 -7.0)">32</text></g><circle class="sym" cx="0" cy="0" r="3" /><text class="lab" transform="translate(0 -11)">33</text></g></g></g><g class="tree t3" transform="translate(600 0)"><g class="plotbox"><g class="c2 node n33 p0 root" transform="translate(82.5312 26.8)"><g class="a33 c1 node n29 p0" transform="translate(-47.1979 42.5147)"><g class="a29 c1 node n27 p0" transform="translate(0.0 1.8944)"><g class="a27 c1 node n24 p0" transform="translate(0.0 6.26854)"><g class="a24 c2 node n16 p0" transform="translate(0.0 23.6549)"><g class="a16 leaf node n0 p0 sample" transform="translate(-7.66667 20.2674)"><path class="edge" d="M 0 0 V -20.2674 H 7.66667" /><rect class="sym" height="6" width="6" x="-3" y="-3" /><text class="lab" transform="translate(0 11)">0</text></g><g class="a16 leaf node n5 p0 sample" transform="translate(7.66667 20.2674)"><path class="edge" d="M 0 0 V -20.2674 H -7.66667" /><rect class="sym" height="6" width="6" x="-3" y="-3" /><text class="lab" transform="translate(0 11)">5</text></g><path class="edge" d="M 0 0 V -23.6549 H 0.0" /><circle class="sym" cx="0" cy="0" r="3" /><text class="lab lft" transform="translate(-3 -7.0)">16</text></g><path class="edge" d="M 0 0 V -6.26854 H 0.0" /><circle class="sym" cx="0" cy="0" r="3" /><text class="lab lft" transform="translate(-3 -7.0)">24</text></g><path class="edge" d="M 0 0 V -1.8944 H 0.0" /><circle class="sym" cx="0" cy="0" r="3" /><text class="lab lft" transform="translate(-3 -7.0)">27</text></g><path class="edge" d="M 0 0 V -42.5147 H 47.1979" /><circle class="sym" cx="0" cy="0" r="3" /><text class="lab lft" transform="translate(-3 -7.0)">29</text></g><g class="a33 c2 node n32 p0" transform="translate(47.1979 24.0299)"><g class="a32 c2 node n31 p0" transform="translate(24.4375 6.15292)"><g class="a31 leaf node n4 p0 sample" transform="translate(11.5 64.4172)"><path class="edge" d="M 0 0 V -64.4172 H -11.5" /><rect class="sym" height="6" width="6" x="-3" y="-3" /><text class="lab" transform="translate(0 11)">4</text></g><g class="a31 c1 node n17 p0" transform="translate(-11.5 40.325)"><g class="a17 c1 node n15 p0" transform="translate(0.0 8.24702)"><g class="a15 c2 node n12 p0" transform="translate(0.0 12.0573)"><g class="a12 leaf node n2 p0 sample" transform="translate(-7.66667 3.78795)"><path class="edge" d="M 0 0 V -3.78795 H 7.66667" /><rect class="sym" height="6" width="6" x="-3" y="-3" /><text class="lab" transform="translate(0 11)">2</text></g><g class="a12 leaf node n9 p0 sample" transform="translate(7.66667 3.78795)"><path class="edge" d="M 0 0 V -3.78795 H -7.66667" /><rect class="sym" height="6" width="6" x="-3" y="-3" /><text class="lab" transform="translate(0 11)">9</text></g><path class="edge" d="M 0 0 V -12.0573 H 0.0" /><circle class="sym" cx="0" cy="0" r="3" /><text class="lab lft" transform="translate(-3 -7.0)">12</text></g><path class="edge" d="M 0 0 V -8.24702 H 0.0" /><circle class="sym" cx="0" cy="0" r="3" /><text class="lab lft" transform="translate(-3 -7.0)">15</text></g><path class="edge" d="M 0 0 V -40.325 H 11.5" /><circle class="sym" cx="0" cy="0" r="3" /><text class="lab lft" transform="translate(-3 -7.0)">17</text></g><path class="edge" d="M 0 0 V -6.15292 H -24.4375" /><circle class="sym" cx="0" cy="0" r="3" /><text class="lab rgt" transform="translate(3 -7.0)">31</text></g><g class="a32 c2 node n30 p0" transform="translate(-24.4375 12.6091)"><g class="a30 c1 node n26 p0" transform="translate(-14.375 8.58877)"><g class="a26 c2 node n22 p0" transform="translate(0.0 6.49595)"><g class="a22 leaf node n8 p0 sample" transform="translate(13.4167 42.8763)"><path class="edge" d="M 0 0 V -42.8763 H -13.4167" /><rect class="sym" height="6" width="6" x="-3" y="-3" /><text class="lab" transform="translate(0 11)">8</text></g><g class="a22 c1 node n19 p0" transform="translate(-13.4167 12.5458)"><g class="a19 c2 node n11 p0" transform="translate(0.0 29.4515)"><g class="a11 leaf node n3 p0 sample" transform="translate(11.5 0.879091)"><path class="edge" d="M 0 0 V -0.879091 H -11.5" /><rect class="sym" height="6" width="6" x="-3" y="-3" /><text class="lab" transform="translate(0 11)">3</text></g><g class="a11 c2 node n10 p0" transform="translate(-11.5 0.271589)"><g class="a10 leaf node n1 p0 sample" transform="translate(-7.66667 0.607502)"><path class="edge" d="M 0 0 V -0.607502 H 7.66667" /><rect class="sym" height="6" width="6" x="-3" y="-3" /><text class="lab" transform="translate(0 11)">1</text></g><g class="a10 leaf node n6 p0 sample" transform="translate(7.66667 0.607502)"><path class="edge" d="M 0 0 V -0.607502 H -7.66667" /><rect class="sym" height="6" width="6" x="-3" y="-3" /><text class="lab" transform="translate(0 11)">6</text></g><path class="edge" d="M 0 0 V -0.271589 H 11.5" /><circle class="sym" cx="0" cy="0" r="3" /><text class="lab lft" transform="translate(-3 -7.0)">10</text></g><path class="edge" d="M 0 0 V -29.4515 H 0.0" /><circle class="sym" cx="0" cy="0" r="3" /><text class="lab lft" transform="translate(-3 -7.0)">11</text></g><path class="edge" d="M 0 0 V -12.5458 H 13.4167" /><circle class="sym" cx="0" cy="0" r="3" /><text class="lab lft" transform="translate(-3 -7.0)">19</text></g><path class="edge" d="M 0 0 V -6.49595 H 0.0" /><circle class="sym" cx="0" cy="0" r="3" /><text class="lab lft" transform="translate(-3 -7.0)">22</text></g><path class="edge" d="M 0 0 V -8.58877 H 14.375" /><circle class="sym" cx="0" cy="0" r="3" /><text class="lab lft" transform="translate(-3 -7.0)">26</text></g><g class="a30 c1 node n21 p0" transform="translate(14.375 21.7935)"><g class="a21 c1 node n13 p0" transform="translate(0.0 23.9911)"><g class="a13 leaf node n7 p0 sample" transform="translate(0.0 12.1765)"><path class="edge" d="M 0 0 V -12.1765 H 0.0" /><rect class="sym" height="6" width="6" x="-3" y="-3" /><text class="lab" transform="translate(0 11)">7</text></g><path class="edge" d="M 0 0 V -23.9911 H 0.0" /><circle class="sym" cx="0" cy="0" r="3" /><text class="lab lft" transform="translate(-3 -7.0)">13</text></g><path class="edge" d="M 0 0 V -21.7935 H -14.375" /><circle class="sym" cx="0" cy="0" r="3" /><text class="lab rgt" transform="translate(3 -7.0)">21</text></g><path class="edge" d="M 0 0 V -12.6091 H 24.4375" /><circle class="sym" cx="0" cy="0" r="3" /><text class="lab lft" transform="translate(-3 -7.0)">30</text></g><path class="edge" d="M 0 0 V -24.0299 H -47.1979" /><circle class="sym" cx="0" cy="0" r="3" /><text class="lab rgt" transform="translate(3 -7.0)">32</text></g><circle class="sym" cx="0" cy="0" r="3" /><text class="lab" transform="translate(0 -11)">33</text></g></g></g><g class="tree t4" transform="translate(793.333 0)"><g class="plotbox"><g class="c2 node n33 p0 root" transform="translate(92.2344 26.8)"><g class="a33 c1 node n29 p0" transform="translate(-56.901 42.5147)"><g class="a29 c1 node n27 p0" transform="translate(0.0 1.8944)"><g class="a27 c1 node n24 p0" transform="translate(0.0 6.26854)"><g class="a24 c2 node n16 p0" transform="translate(0.0 23.6549)"><g class="a16 leaf node n0 p0 sample" transform="translate(-7.66667 20.2674)"><path class="edge" d="M 0 0 V -20.2674 H 7.66667" /><rect class="sym" height="6" width="6" x="-3" y="-3" /><text class="lab" transform="translate(0 11)">0</text></g><g class="a16 leaf node n5 p0 sample" transform="translate(7.66667 20.2674)"><path class="edge" d="M 0 0 V -20.2674 H -7.66667" /><rect class="sym" height="6" width="6" x="-3" y="-3" /><text class="lab" transform="translate(0 11)">5</text></g><path class="edge" d="M 0 0 V -23.6549 H 0.0" /><circle class="sym" cx="0" cy="0" r="3" /><text class="lab lft" transform="translate(-3 -7.0)">16</text></g><path class="edge" d="M 0 0 V -6.26854 H 0.0" /><circle class="sym" cx="0" cy="0" r="3" /><text class="lab lft" transform="translate(-3 -7.0)">24</text></g><path class="edge" d="M 0 0 V -1.8944 H 0.0" /><circle class="sym" cx="0" cy="0" r="3" /><text class="lab lft" transform="translate(-3 -7.0)">27</text></g><path class="edge" d="M 0 0 V -42.5147 H 56.901" /><circle class="sym" cx="0" cy="0" r="3" /><text class="lab lft" transform="translate(-3 -7.0)">29</text></g><g class="a33 c2 node n32 p0" transform="translate(56.901 24.0299)"><g class="a32 c1 node n31 p0" transform="translate(16.5312 6.15292)"><g class="a31 leaf node n4 p0 sample" transform="translate(0.0 64.4172)"><path class="edge" d="M 0 0 V -64.4172 H 0.0" /><rect class="sym" height="6" width="6" x="-3" y="-3" /><text class="lab" transform="translate(0 11)">4</text></g><path class="edge" d="M 0 0 V -6.15292 H -16.5312" /><circle class="sym" cx="0" cy="0" r="3" /><text class="lab rgt" transform="translate(3 -7.0)">31</text></g><g class="a32 c2 node n30 p0" transform="translate(-16.5312 12.6091)"><g class="a30 c1 node n26 p0" transform="translate(-17.7292 8.58877)"><g class="a26 c2 node n22 p0" transform="translate(0.0 6.49595)"><g class="a22 leaf node n8 p0 sample" transform="translate(20.125 42.8763)"><path class="edge" d="M 0 0 V -42.8763 H -20.125" /><rect class="sym" height="6" width="6" x="-3" y="-3" /><text class="lab" transform="translate(0 11)">8</text></g><g class="a22 c2 node n19 p0" transform="translate(-20.125 12.5458)"><g class="a19 c2 node n11 p0" transform="translate(-17.25 29.4515)"><g class="a11 leaf node n3 p0 sample" transform="translate(11.5 0.879091)"><path class="edge" d="M 0 0 V -0.879091 H -11.5" /><rect class="sym" height="6" width="6" x="-3" y="-3" /><text class="lab" transform="translate(0 11)">3</text></g><g class="a11 c2 node n10 p0" transform="translate(-11.5 0.271589)"><g class="a10 leaf node n1 p0 sample" transform="translate(-7.66667 0.607502)"><path class="edge" d="M 0 0 V -0.607502 H 7.66667" /><rect class="sym" height="6" width="6" x="-3" y="-3" /><text class="lab" transform="translate(0 11)">1</text></g><g class="a10 leaf node n6 p0 sample" transform="translate(7.66667 0.607502)"><path class="edge" d="M 0 0 V -0.607502 H -7.66667" /><rect class="sym" height="6" width="6" x="-3" y="-3" /><text class="lab" transform="translate(0 11)">6</text></g><path class="edge" d="M 0 0 V -0.271589 H 11.5" /><circle class="sym" cx="0" cy="0" r="3" /><text class="lab lft" transform="translate(-3 -7.0)">10</text></g><path class="edge" d="M 0 0 V -29.4515 H 17.25" /><circle class="sym" cx="0" cy="0" r="3" /><text class="lab lft" transform="translate(-3 -7.0)">11</text></g><g class="a19 c1 node n18 p0" transform="translate(17.25 6.23835)"><g class="a18 c1 node n15 p0" transform="translate(0.0 8.24702)"><g class="a15 c2 node n12 p0" transform="translate(0.0 12.0573)"><g class="a12 leaf node n2 p0 sample" transform="translate(-7.66667 3.78795)"><path class="edge" d="M 0 0 V -3.78795 H 7.66667" /><rect class="sym" height="6" width="6" x="-3" y="-3" /><text class="lab" transform="translate(0 11)">2</text></g><g class="a12 leaf node n9 p0 sample" transform="translate(7.66667 3.78795)"><path class="edge" d="M 0 0 V -3.78795 H -7.66667" /><rect class="sym" height="6" width="6" x="-3" y="-3" /><text class="lab" transform="translate(0 11)">9</text></g><path class="edge" d="M 0 0 V -12.0573 H 0.0" /><circle class="sym" cx="0" cy="0" r="3" /><text class="lab lft" transform="translate(-3 -7.0)">12</text></g><path class="edge" d="M 0 0 V -8.24702 H 0.0" /><circle class="sym" cx="0" cy="0" r="3" /><text class="lab lft" transform="translate(-3 -7.0)">15</text></g><path class="edge" d="M 0 0 V -6.23835 H -17.25" /><circle class="sym" cx="0" cy="0" r="3" /><text class="lab rgt" transform="translate(3 -7.0)">18</text></g><path class="edge" d="M 0 0 V -12.5458 H 20.125" /><circle class="sym" cx="0" cy="0" r="3" /><text class="lab lft" transform="translate(-3 -7.0)">19</text></g><path class="edge" d="M 0 0 V -6.49595 H 0.0" /><circle class="sym" cx="0" cy="0" r="3" /><text class="lab lft" transform="translate(-3 -7.0)">22</text></g><path class="edge" d="M 0 0 V -8.58877 H 17.7292" /><circle class="sym" cx="0" cy="0" r="3" /><text class="lab lft" transform="translate(-3 -7.0)">26</text></g><g class="a30 c1 node n21 p0" transform="translate(17.7292 21.7935)"><g class="a21 c1 node n13 p0" transform="translate(0.0 23.9911)"><g class="a13 leaf node n7 p0 sample" transform="translate(0.0 12.1765)"><path class="edge" d="M 0 0 V -12.1765 H 0.0" /><rect class="sym" height="6" width="6" x="-3" y="-3" /><text class="lab" transform="translate(0 11)">7</text></g><path class="edge" d="M 0 0 V -23.9911 H 0.0" /><circle class="sym" cx="0" cy="0" r="3" /><text class="lab lft" transform="translate(-3 -7.0)">13</text></g><path class="edge" d="M 0 0 V -21.7935 H -17.7292" /><circle class="sym" cx="0" cy="0" r="3" /><text class="lab rgt" transform="translate(3 -7.0)">21</text></g><path class="edge" d="M 0 0 V -12.6091 H 16.5312" /><circle class="sym" cx="0" cy="0" r="3" /><text class="lab lft" transform="translate(-3 -7.0)">30</text></g><path class="edge" d="M 0 0 V -24.0299 H -56.901" /><circle class="sym" cx="0" cy="0" r="3" /><text class="lab rgt" transform="translate(3 -7.0)">32</text></g><circle class="sym" cx="0" cy="0" r="3" /><text class="lab" transform="translate(0 -11)">33</text></g></g></g><g class="tree t5" transform="translate(986.667 0)"><g class="plotbox"><g class="c2 node n33 p0 root" transform="translate(90.4375 26.8)"><g class="a33 c1 node n29 p0" transform="translate(-55.1042 42.5147)"><g class="a29 c1 node n27 p0" transform="translate(0.0 1.8944)"><g class="a27 c1 node n24 p0" transform="translate(0.0 6.26854)"><g class="a24 c2 node n16 p0" transform="translate(0.0 23.6549)"><g class="a16 leaf node n0 p0 sample" transform="translate(-7.66667 20.2674)"><path class="edge" d="M 0 0 V -20.2674 H 7.66667" /><rect class="sym" height="6" width="6" x="-3" y="-3" /><text class="lab" transform="translate(0 11)">0</text></g><g class="a16 leaf node n5 p0 sample" transform="translate(7.66667 20.2674)"><path class="edge" d="M 0 0 V -20.2674 H -7.66667" /><rect class="sym" height="6" width="6" x="-3" y="-3" /><text class="lab" transform="translate(0 11)">5</text></g><path class="edge" d="M 0 0 V -23.6549 H 0.0" /><circle class="sym" cx="0" cy="0" r="3" /><text class="lab lft" transform="translate(-3 -7.0)">16</text></g><path class="edge" d="M 0 0 V -6.26854 H 0.0" /><circle class="sym" cx="0" cy="0" r="3" /><text class="lab lft" transform="translate(-3 -7.0)">24</text></g><path class="edge" d="M 0 0 V -1.8944 H 0.0" /><circle class="sym" cx="0" cy="0" r="3" /><text class="lab lft" transform="translate(-3 -7.0)">27</text></g><path class="edge" d="M 0 0 V -42.5147 H 55.1042" /><circle class="sym" cx="0" cy="0" r="3" /><text class="lab lft" transform="translate(-3 -7.0)">29</text></g><g class="a33 c2 node n32 p0" transform="translate(55.1042 24.0299)"><g class="a32 c1 node n31 p0" transform="translate(20.125 6.15292)"><g class="a31 leaf node n4 p0 sample" transform="translate(0.0 64.4172)"><path class="edge" d="M 0 0 V -64.4172 H 0.0" /><rect class="sym" height="6" width="6" x="-3" y="-3" /><text class="lab" transform="translate(0 11)">4</text></g><path class="edge" d="M 0 0 V -6.15292 H -20.125" /><circle class="sym" cx="0" cy="0" r="3" /><text class="lab rgt" transform="translate(3 -7.0)">31</text></g><g class="a32 c1 node n30 p0" transform="translate(-20.125 12.6091)"><g class="a30 c1 node n26 p0" transform="translate(0.0 8.58877)"><g class="a26 c2 node n22 p0" transform="translate(0.0 6.49595)"><g class="a22 leaf node n8 p0 sample" transform="translate(24.9167 42.8763)"><path class="edge" d="M 0 0 V -42.8763 H -24.9167" /><rect class="sym" height="6" width="6" x="-3" y="-3" /><text class="lab" transform="translate(0 11)">8</text></g><g class="a22 c2 node n19 p0" transform="translate(-24.9167 12.5458)"><g class="a19 c2 node n11 p0" transform="translate(-23 29.4515)"><g class="a11 leaf node n3 p0 sample" transform="translate(11.5 0.879091)"><path class="edge" d="M 0 0 V -0.879091 H -11.5" /><rect class="sym" height="6" width="6" x="-3" y="-3" /><text class="lab" transform="translate(0 11)">3</text></g><g class="a11 c2 node n10 p0" transform="translate(-11.5 0.271589)"><g class="a10 leaf node n1 p0 sample" transform="translate(-7.66667 0.607502)"><path class="edge" d="M 0 0 V -0.607502 H 7.66667" /><rect class="sym" height="6" width="6" x="-3" y="-3" /><text class="lab" transform="translate(0 11)">1</text></g><g class="a10 leaf node n6 p0 sample" transform="translate(7.66667 0.607502)"><path class="edge" d="M 0 0 V -0.607502 H -7.66667" /><rect class="sym" height="6" width="6" x="-3" y="-3" /><text class="lab" transform="translate(0 11)">6</text></g><path class="edge" d="M 0 0 V -0.271589 H 11.5" /><circle class="sym" cx="0" cy="0" r="3" /><text class="lab lft" transform="translate(-3 -7.0)">10</text></g><path class="edge" d="M 0 0 V -29.4515 H 23" /><circle class="sym" cx="0" cy="0" r="3" /><text class="lab lft" transform="translate(-3 -7.0)">11</text></g><g class="a19 c1 node n18 p0" transform="translate(23 6.23835)"><g class="a18 c2 node n15 p0" transform="translate(0.0 8.24702)"><g class="a15 c2 node n12 p0" transform="translate(-11.5 12.0573)"><g class="a12 leaf node n2 p0 sample" transform="translate(-7.66667 3.78795)"><path class="edge" d="M 0 0 V -3.78795 H 7.66667" /><rect class="sym" height="6" width="6" x="-3" y="-3" /><text class="lab" transform="translate(0 11)">2</text></g><g class="a12 leaf node n9 p0 sample" transform="translate(7.66667 3.78795)"><path class="edge" d="M 0 0 V -3.78795 H -7.66667" /><rect class="sym" height="6" width="6" x="-3" y="-3" /><text class="lab" transform="translate(0 11)">9</text></g><path class="edge" d="M 0 0 V -12.0573 H 11.5" /><circle class="sym" cx="0" cy="0" r="3" /><text class="lab lft" transform="translate(-3 -7.0)">12</text></g><g class="a15 c1 node n14 p0" transform="translate(11.5 3.66875)"><g class="a14 leaf node n7 p0 sample" transform="translate(0.0 12.1765)"><path class="edge" d="M 0 0 V -12.1765 H 0.0" /><rect class="sym" height="6" width="6" x="-3" y="-3" /><text class="lab" transform="translate(0 11)">7</text></g><path class="edge" d="M 0 0 V -3.66875 H -11.5" /><circle class="sym" cx="0" cy="0" r="3" /><text class="lab rgt" transform="translate(3 -7.0)">14</text></g><path class="edge" d="M 0 0 V -8.24702 H 0.0" /><circle class="sym" cx="0" cy="0" r="3" /><text class="lab lft" transform="translate(-3 -7.0)">15</text></g><path class="edge" d="M 0 0 V -6.23835 H -23" /><circle class="sym" cx="0" cy="0" r="3" /><text class="lab rgt" transform="translate(3 -7.0)">18</text></g><path class="edge" d="M 0 0 V -12.5458 H 24.9167" /><circle class="sym" cx="0" cy="0" r="3" /><text class="lab lft" transform="translate(-3 -7.0)">19</text></g><path class="edge" d="M 0 0 V -6.49595 H 0.0" /><circle class="sym" cx="0" cy="0" r="3" /><text class="lab lft" transform="translate(-3 -7.0)">22</text></g><path class="edge" d="M 0 0 V -8.58877 H 0.0" /><circle class="sym" cx="0" cy="0" r="3" /><text class="lab lft" transform="translate(-3 -7.0)">26</text></g><path class="edge" d="M 0 0 V -12.6091 H 20.125" /><circle class="sym" cx="0" cy="0" r="3" /><text class="lab lft" transform="translate(-3 -7.0)">30</text></g><path class="edge" d="M 0 0 V -24.0299 H -55.1042" /><circle class="sym" cx="0" cy="0" r="3" /><text class="lab rgt" transform="translate(3 -7.0)">32</text></g><circle class="sym" cx="0" cy="0" r="3" /><text class="lab" transform="translate(0 -11)">33</text></g></g></g></g></g></svg>
