<svg baseProfile="full" height="200" version="1.1" width="1000" xmlns="http://www.w3.org/2000/svg" xmlns:ev="http://www.w3.org/2001/xml-events" xmlns:xlink="http://www.w3.org/1999/xlink"><defs><style type="text/css"><![CDATA[.background path {fill: #808080; fill-opacity: 0}.background path:nth-child(odd) {fill-opacity: .1}.axes {font-size: 14px}.x-axis .tick .lab {font-weight: bold; dominant-baseline: hanging}.axes, .tree {font-size: 14px; text-anchor: middle}.axes line, .edge {stroke: black; fill: none}.y-axis .grid {stroke: #FAFAFA}.node > .sym {fill: black; stroke: none}.site > .sym {stroke: black}.mut text {fill: red; font-style: italic}.mut.extra text {fill: hotpink}.mut line {fill: none; stroke: none}.mut .sym {fill: none; stroke: red}.mut.extra .sym {stroke: hotpink}.node .mut .sym {stroke-width: 1.5px}.tree text, .tree-sequence text {dominant-baseline: central}.plotbox .lab.lft {text-anchor: end}.plotbox .lab.rgt {text-anchor: start}]]></style></defs><g class="tree-sequence"><g class="background"><path d="M20,0 l192,0 l0,138.2 l29.5355,25 l0,5 l-221.535,0 l0,-5 l0,-25 l0,-138.2z" /><path d="M212,0 l192,0 l0,138.2 l20.8174,25 l0,5 l-183.282,0 l0,-5 l-29.5355,-25 l0,-138.2z" /><path d="M404,0 l192,0 l0,138.2 l36.9725,25 l0,5 l-208.155,0 l0,-5 l-20.8174,-25 l0,-138.2z" /><path d="M596,0 l192,0 l0,138.2 l-10.6498,25 l0,5 l-144.378,0 l0,-5 l-36.9725,-25 l0,-138.2z" /><path d="M788,0 l192,0 l0,138.2 l0,25 l0,5 l-202.65,0 l0,-5 l10.6498,-25 l0,-138.2z" /></g><g class="axes"><g class="x-axis"><g transform="translate(500 200)"><text class="lab" text-anchor="middle" transform="translate(0 -11)">Genome position</text></g><line x1="20" x2="980" y1="163.2" y2="163.2" /><g class="ticks"><g class="tick" transform="translate(20 163.2)"><line x1="0" x2="0" y1="0" y2="5" /><g transform="translate(0 6)"><text class="lab">0.00</text></g></g><g class="tick" transform="translate(241.535 163.2)"><line x1="0" x2="0" y1="0" y2="5" /><g transform="translate(0 6)"><text class="lab">230.77</text></g></g><g class="tick" transform="translate(424.817 163.2)"><line x1="0" x2="0" y1="0" y2="5" /><g transform="translate(0 6)"><text class="lab">421.68</text></g></g><g class="tick" transform="translate(632.972 163.2)"><line x1="0" x2="0" y1="0" y2="5" /><g transform="translate(0 6)"><text class="lab">638.51</text></g></g><g class="tick" transform="translate(777.35 163.2)"><line x1="0" x2="0" y1="0" y2="5" /><g transform="translate(0 6)"><text class="lab">788.91</text></g></g><g class="tick" transform="translate(980 163.2)"><line x1="0" x2="0" y1="0" y2="5" /><g transform="translate(0 6)"><text class="lab">1000.00</text></g></g></g></g></g><g class="plotbox trees"><g class="tree t0" transform="translate(20 0)"><g class="plotbox"><g class="c2 node n30 p0 root" transform="translate(136.256 26.8)"><g class="a30 c1 node n22 p0" transform="translate(20.5437 56.6156)"><g class="a22 c2 node n13 p0" transform="translate(0.0 29.0025)"><g class="a13 leaf node n2 p0 sample" transform="translate(-7.6 8.9819)"><path class="edge" d="M 0 0 V -8.9819 H 7.6" /><rect class="sym" height="6" width="6" x="-3" y="-3" /><text class="lab" transform="translate(0 11)">2</text></g><g class="a13 leaf node n4 p0 sample" transform="translate(7.6 8.9819)"><path class="edge" d="M 0 0 V -8.9819 H -7.6" /><rect class="sym" height="6" width="6" x="-3" y="-3" /><text class="lab" transform="translate(0 11)">4</text></g><path class="edge" d="M 0 0 V -29.0025 H 0.0" /><circle class="sym" cx="0" cy="0" r="3" /><text class="lab lft" transform="translate(-3 -7.0)">13</text></g><path class="edge" d="M 0 0 V -56.6156 H -20.5437" /><circle class="sym" cx="0" cy="0" r="3" /><text class="lab rgt" transform="translate(3 -7.0)">22</text></g><g class="a30 c2 node n29 p0" transform="translate(-20.5437 17.4251)"><g class="a29 c1 node n19 p0" transform="translate(-18.2875 44.9143)"><g class="a19 c2 node n18 p0" transform="translate(0.0 12.3716)"><g class="a18 c2 node n15 p0" transform="translate(-21.375 9.12439)"><g class="a15 c2 node n12 p0" transform="translate(19.95 4.88101)"><g class="a12 leaf node n6 p0 sample" transform="translate(-7.6 5.88357)"><path class="edge" d="M 0 0 V -5.88357 H 7.6" /><rect class="sym" height="6" width="6" x="-3" y="-3" /><text class="lab" transform="translate(0 11)">6</text></g><g class="a12 leaf node n7 p0 sample" transform="translate(7.6 5.88357)"><path class="edge" d="M 0 0 V -5.88357 H -7.6" /><rect class="sym" height="6" width="6" x="-3" y="-3" /><text class="lab" transform="translate(0 11)">7</text></g><path class="edge" d="M 0 0 V -4.88101 H -19.95" /><circle class="sym" cx="0" cy="0" r="3" /><text class="lab rgt" transform="translate(3 -7.0)">12</text></g><g class="a15 c2 node n14 p0" transform="translate(-19.95 0.0593317)"><g class="a14 leaf node n3 p0 sample" transform="translate(17.1 10.7052)"><path class="edge" d="M 0 0 V -10.7052 H -17.1" /><rect class="sym" height="6" width="6" x="-3" y="-3" /><text class="lab" transform="translate(0 11)">3</text></g><g class="a14 c2 node n11 p0" transform="translate(-17.1 7.06468)"><g class="a11 leaf node n0 p0 sample" transform="translate(-11.4 3.64056)"><path class="edge" d="M 0 0 V -3.64056 H 11.4" /><rect class="sym" height="6" width="6" x="-3" y="-3" /><text class="lab" transform="translate(0 11)">0</text></g><g class="a11 c2 node n10 p0" transform="translate(11.4 1.74379)"><g class="a10 leaf node n5 p0 sample" transform="translate(-7.6 1.89677)"><path class="edge" d="M 0 0 V -1.89677 H 7.6" /><rect class="sym" height="6" width="6" x="-3" y="-3" /><text class="lab" transform="translate(0 11)">5</text></g><g class="a10 leaf node n9 p0 sample" transform="translate(7.6 1.89677)"><path class="edge" d="M 0 0 V -1.89677 H -7.6" /><rect class="sym" height="6" width="6" x="-3" y="-3" /><text class="lab" transform="translate(0 11)">9</text></g><path class="edge" d="M 0 0 V -1.74379 H -11.4" /><circle class="sym" cx="0" cy="0" r="3" /><text class="lab rgt" transform="translate(3 -7.0)">10</text></g><path class="edge" d="M 0 0 V -7.06468 H 17.1" /><circle class="sym" cx="0" cy="0" r="3" /><text class="lab lft" transform="translate(-3 -7.0)">11</text></g><path class="edge" d="M 0 0 V -0.0593317 H 19.95" /><circle class="sym" cx="0" cy="0" r="3" /><text class="lab lft" transform="translate(-3 -7.0)">14</text></g><path class="edge" d="M 0 0 V -9.12439 H 21.375" /><circle class="sym" cx="0" cy="0" r="3" /><text class="lab lft" transform="translate(-3 -7.0)">15</text></g><g class="a18 c1 node n16 p0" transform="translate(21.375 8.23764)"><g class="a16 leaf node n1 p0 sample" transform="translate(0.0 11.6513)"><path class="edge" d="M 0 0 V -11.6513 H 0.0" /><rect class="sym" height="6" width="6" x="-3" y="-3" /><text class="lab" transform="translate(0 11)">1</text></g><path class="edge" d="M 0 0 V -8.23764 H -21.375" /><circle class="sym" cx="0" cy="0" r="3" /><text class="lab rgt" transform="translate(3 -7.0)">16</text></g><path class="edge" d="M 0 0 V -12.3716 H 0.0" /><circle class="sym" cx="0" cy="0" r="3" /><text class="lab lft" transform="translate(-3 -7.0)">18</text></g><path class="edge" d="M 0 0 V -44.9143 H 18.2875" /><circle class="sym" cx="0" cy="0" r="3" /><text class="lab lft" transform="translate(-3 -7.0)">19</text></g><g class="a29 c1 node n28 p0" transform="translate(18.2875 11.3028)"><g class="a28 c1 node n27 p0" transform="translate(0.0 7.82417)"><g class="a27 c1 node n23 p0" transform="translate(0.0 17.3209)"><g class="a23 c1 node n21 p0" transform="translate(0.0 8.30484)"><g class="a21 leaf node n8 p0 sample" transform="translate(0.0 32.4222)"><path class="edge" d="M 0 0 V -32.4222 H 0.0" /><rect class="sym" height="6" width="6" x="-3" y="-3" /><text class="lab" transform="translate(0 11)">8</text></g><path class="edge" d="M 0 0 V -8.30484 H 0.0" /><circle class="sym" cx="0" cy="0" r="3" /><text class="lab lft" transform="translate(-3 -7.0)">21</text></g><path class="edge" d="M 0 0 V -17.3209 H 0.0" /><circle class="sym" cx="0" cy="0" r="3" /><text class="lab lft" transform="translate(-3 -7.0)">23</text></g><path class="edge" d="M 0 0 V -7.82417 H 0.0" /><circle class="sym" cx="0" cy="0" r="3" /><text class="lab lft" transform="translate(-3 -7.0)">27</text></g><path class="edge" d="M 0 0 V -11.3028 H -18.2875" /><circle class="sym" cx="0" cy="0" r="3" /><text class="lab rgt" transform="translate(3 -7.0)">28</text></g><path class="edge" d="M 0 0 V -17.4251 H 20.5437" /><circle class="sym" cx="0" cy="0" r="3" /><text class="lab lft" transform="translate(-3 -7.0)">29</text></g><circle class="sym" cx="0" cy="0" r="3" /><text class="lab" transform="translate(0 -11)">30</text></g></g></g><g class="tree t1" transform="translate(212 0)"><g class="plotbox"><g class="c2 node n30 p0 root" transform="translate(141.956 26.8)"><g class="a30 c2 node n22 p0" transform="translate(-22.4437 56.6156)"><g class="a22 c2 node n13 p0" transform="translate(22.0875 29.0025)"><g class="a13 leaf node n2 p0 sample" transform="translate(-7.6 8.9819)"><path class="edge" d="M 0 0 V -8.9819 H 7.6" /><rect class="sym" height="6" width="6" x="-3" y="-3" /><text class="lab" transform="translate(0 11)">2</text></g><g class="a13 leaf node n4 p0 sample" transform="translate(7.6 8.9819)"><path class="edge" d="M 0 0 V -8.9819 H -7.6" /><rect class="sym" height="6" width="6" x="-3" y="-3" /><text class="lab" transform="translate(0 11)">4</text></g><path class="edge" d="M 0 0 V -29.0025 H -22.0875" /><circle class="sym" cx="0" cy="0" r="3" /><text class="lab rgt" transform="translate(3 -7.0)">13</text></g><g class="a22 c1 node n20 p0" transform="translate(-22.0875 5.72384)"><g class="a20 c2 node n18 p0" transform="translate(0.0 12.3716)"><g class="a18 c2 node n15 p0" transform="translate(-21.375 9.12439)"><g class="a15 c2 node n12 p0" transform="translate(19.95 4.88101)"><g class="a12 leaf node n6 p0 sample" transform="translate(-7.6 5.88357)"><path class="edge" d="M 0 0 V -5.88357 H 7.6" /><rect class="sym" height="6" width="6" x="-3" y="-3" /><text class="lab" transform="translate(0 11)">6</text></g><g class="a12 leaf node n7 p0 sample" transform="translate(7.6 5.88357)"><path class="edge" d="M 0 0 V -5.88357 H -7.6" /><rect class="sym" height="6" width="6" x="-3" y="-3" /><text class="lab" transform="translate(0 11)">7</text></g><path class="edge" d="M 0 0 V -4.88101 H -19.95" /><circle class="sym" cx="0" cy="0" r="3" /><text class="lab rgt" transform="translate(3 -7.0)">12</text></g><g class="a15 c2 node n14 p0" transform="translate(-19.95 0.0593317)"><g class="a14 leaf node n3 p0 sample" transform="translate(17.1 10.7052)"><path class="edge" d="M 0 0 V -10.7052 H -17.1" /><rect class="sym" height="6" width="6" x="-3" y="-3" /><text class="lab" transform="translate(0 11)">3</text></g><g class="a14 c2 node n11 p0" transform="translate(-17.1 7.06468)"><g class="a11 leaf node n0 p0 sample" transform="translate(-11.4 3.64056)"><path class="edge" d="M 0 0 V -3.64056 H 11.4" /><rect class="sym" height="6" width="6" x="-3" y="-3" /><text class="lab" transform="translate(0 11)">0</text></g><g class="a11 c2 node n10 p0" transform="translate(11.4 1.74379)"><g class="a10 leaf node n5 p0 sample" transform="translate(-7.6 1.89677)"><path class="edge" d="M 0 0 V -1.89677 H 7.6" /><rect class="sym" height="6" width="6" x="-3" y="-3" /><text class="lab" transform="translate(0 11)">5</text></g><g class="a10 leaf node n9 p0 sample" transform="translate(7.6 1.89677)"><path class="edge" d="M 0 0 V -1.89677 H -7.6" /><rect class="sym" height="6" width="6" x="-3" y="-3" /><text class="lab" transform="translate(0 11)">9</text></g><path class="edge" d="M 0 0 V -1.74379 H -11.4" /><circle class="sym" cx="0" cy="0" r="3" /><text class="lab rgt" transform="translate(3 -7.0)">10</text></g><path class="edge" d="M 0 0 V -7.06468 H 17.1" /><circle class="sym" cx="0" cy="0" r="3" /><text class="lab lft" transform="translate(-3 -7.0)">11</text></g><path class="edge" d="M 0 0 V -0.0593317 H 19.95" /><circle class="sym" cx="0" cy="0" r="3" /><text class="lab lft" transform="translate(-3 -7.0)">14</text></g><path class="edge" d="M 0 0 V -9.12439 H 21.375" /><circle class="sym" cx="0" cy="0" r="3" /><text class="lab lft" transform="translate(-3 -7.0)">15</text></g><g class="a18 c1 node n16 p0" transform="translate(21.375 8.23764)"><g class="a16 leaf node n1 p0 sample" transform="translate(0.0 11.6513)"><path class="edge" d="M 0 0 V -11.6513 H 0.0" /><rect class="sym" height="6" width="6" x="-3" y="-3" /><text class="lab" transform="translate(0 11)">1</text></g><path class="edge" d="M 0 0 V -8.23764 H -21.375" /><circle class="sym" cx="0" cy="0" r="3" /><text class="lab rgt" transform="translate(3 -7.0)">16</text></g><path class="edge" d="M 0 0 V -12.3716 H 0.0" /><circle class="sym" cx="0" cy="0" r="3" /><text class="lab lft" transform="translate(-3 -7.0)">18</text></g><path class="edge" d="M 0 0 V -5.72384 H 22.0875" /><circle class="sym" cx="0" cy="0" r="3" /><text class="lab lft" transform="translate(-3 -7.0)">20</text></g><path class="edge" d="M 0 0 V -56.6156 H 22.4437" /><circle class="sym" cx="0" cy="0" r="3" /><text class="lab lft" transform="translate(-3 -7.0)">22</text></g><g class="a30 c1 node n29 p0" transform="translate(22.4437 17.4251)"><g class="a29 c1 node n28 p0" transform="translate(0.0 11.3028)"><g class="a28 c1 node n27 p0" transform="translate(0.0 7.82417)"><g class="a27 c1 node n23 p0" transform="translate(0.0 17.3209)"><g class="a23 c1 node n21 p0" transform="translate(0.0 8.30484)"><g class="a21 leaf node n8 p0 sample" transform="translate(0.0 32.4222)"><path class="edge" d="M 0 0 V -32.4222 H 0.0" /><rect class="sym" height="6" width="6" x="-3" y="-3" /><text class="lab" transform="translate(0 11)">8</text></g><path class="edge" d="M 0 0 V -8.30484 H 0.0" /><circle class="sym" cx="0" cy="0" r="3" /><text class="lab lft" transform="translate(-3 -7.0)">21</text></g><path class="edge" d="M 0 0 V -17.3209 H 0.0" /><circle class="sym" cx="0" cy="0" r="3" /><text class="lab lft" transform="translate(-3 -7.0)">23</text></g><path class="edge" d="M 0 0 V -7.82417 H 0.0" /><circle class="sym" cx="0" cy="0" r="3" /><text class="lab lft" transform="translate(-3 -7.0)">27</text></g><path class="edge" d="M 0 0 V -11.3028 H 0.0" /><circle class="sym" cx="0" cy="0" r="3" /><text class="lab lft" transform="translate(-3 -7.0)">28</text></g><path class="edge" d="M 0 0 V -17.4251 H -22.4437" /><circle class="sym" cx="0" cy="0" r="3" /><text class="lab rgt" transform="translate(3 -7.0)">29</text></g><circle class="sym" cx="0" cy="0" r="3" /><text class="lab" transform="translate(0 -11)">30</text></g></g></g><g class="tree t2" transform="translate(404 0)"><g class="plotbox"><g class="c2 node n30 p0 root" transform="translate(129.012 26.8)"><g class="a30 c2 node n22 p0" transform="translate(-27.7875 56.6156)"><g class="a22 c2 node n13 p0" transform="translate(25.175 29.0025)"><g class="a13 leaf node n2 p0 sample" transform="translate(-7.6 8.9819)"><path class="edge" d="M 0 0 V -8.9819 H 7.6" /><rect class="sym" height="6" width="6" x="-3" y="-3" /><text class="lab" transform="translate(0 11)">2</text></g><g class="a13 leaf node n4 p0 sample" transform="translate(7.6 8.9819)"><path class="edge" d="M 0 0 V -8.9819 H -7.6" /><rect class="sym" height="6" width="6" x="-3" y="-3" /><text class="lab" transform="translate(0 11)">4</text></g><path class="edge" d="M 0 0 V -29.0025 H -25.175" /><circle class="sym" cx="0" cy="0" r="3" /><text class="lab rgt" transform="translate(3 -7.0)">13</text></g><g class="a22 c1 node n20 p0" transform="translate(-25.175 5.72384)"><g class="a20 c1 node n18 p0" transform="translate(0.0 12.3716)"><g class="a18 c2 node n15 p0" transform="translate(0.0 9.12439)"><g class="a15 c2 node n12 p0" transform="translate(19.95 4.88101)"><g class="a12 leaf node n6 p0 sample" transform="translate(-7.6 5.88357)"><path class="edge" d="M 0 0 V -5.88357 H 7.6" /><rect class="sym" height="6" width="6" x="-3" y="-3" /><text class="lab" transform="translate(0 11)">6</text></g><g class="a12 leaf node n7 p0 sample" transform="translate(7.6 5.88357)"><path class="edge" d="M 0 0 V -5.88357 H -7.6" /><rect class="sym" height="6" width="6" x="-3" y="-3" /><text class="lab" transform="translate(0 11)">7</text></g><path class="edge" d="M 0 0 V -4.88101 H -19.95" /><circle class="sym" cx="0" cy="0" r="3" /><text class="lab rgt" transform="translate(3 -7.0)">12</text></g><g class="a15 c2 node n14 p0" transform="translate(-19.95 0.0593317)"><g class="a14 leaf node n3 p0 sample" transform="translate(17.1 10.7052)"><path class="edge" d="M 0 0 V -10.7052 H -17.1" /><rect class="sym" height="6" width="6" x="-3" y="-3" /><text class="lab" transform="translate(0 11)">3</text></g><g class="a14 c2 node n11 p0" transform="translate(-17.1 7.06468)"><g class="a11 leaf node n0 p0 sample" transform="translate(-11.4 3.64056)"><path class="edge" d="M 0 0 V -3.64056 H 11.4" /><rect class="sym" height="6" width="6" x="-3" y="-3" /><text class="lab" transform="translate(0 11)">0</text></g><g class="a11 c2 node n10 p0" transform="translate(11.4 1.74379)"><g class="a10 leaf node n5 p0 sample" transform="translate(-7.6 1.89677)"><path class="edge" d="M 0 0 V -1.89677 H 7.6" /><rect class="sym" height="6" width="6" x="-3" y="-3" /><text class="lab" transform="translate(0 11)">5</text></g><g class="a10 leaf node n9 p0 sample" transform="translate(7.6 1.89677)"><path class="edge" d="M 0 0 V -1.89677 H -7.6" /><rect class="sym" height="6" width="6" x="-3" y="-3" /><text class="lab" transform="translate(0 11)">9</text></g><path class="edge" d="M 0 0 V -1.74379 H -11.4" /><circle class="sym" cx="0" cy="0" r="3" /><text class="lab rgt" transform="translate(3 -7.0)">10</text></g><path class="edge" d="M 0 0 V -7.06468 H 17.1" /><circle class="sym" cx="0" cy="0" r="3" /><text class="lab lft" transform="translate(-3 -7.0)">11</text></g><path class="edge" d="M 0 0 V -0.0593317 H 19.95" /><circle class="sym" cx="0" cy="0" r="3" /><text class="lab lft" transform="translate(-3 -7.0)">14</text></g><path class="edge" d="M 0 0 V -9.12439 H 0.0" /><circle class="sym" cx="0" cy="0" r="3" /><text class="lab lft" transform="translate(-3 -7.0)">15</text></g><path class="edge" d="M 0 0 V -12.3716 H 0.0" /><circle class="sym" cx="0" cy="0" r="3" /><text class="lab lft" transform="translate(-3 -7.0)">18</text></g><path class="edge" d="M 0 0 V -5.72384 H 25.175" /><circle class="sym" cx="0" cy="0" r="3" /><text class="lab lft" transform="translate(-3 -7.0)">20</text></g><path class="edge" d="M 0 0 V -56.6156 H 27.7875" /><circle class="sym" cx="0" cy="0" r="3" /><text class="lab lft" transform="translate(-3 -7.0)">22</text></g><g class="a30 c1 node n29 p0" transform="translate(27.7875 17.4251)"><g class="a29 c1 node n28 p0" transform="translate(0.0 11.3028)"><g class="a28 c1 node n27 p0" transform="translate(0.0 7.82417)"><g class="a27 c1 node n23 p0" transform="translate(0.0 17.3209)"><g class="a23 c2 node n21 p0" transform="translate(0.0 8.30484)"><g class="a21 leaf node n8 p0 sample" transform="translate(7.6 32.4222)"><path class="edge" d="M 0 0 V -32.4222 H -7.6" /><rect class="sym" height="6" width="6" x="-3" y="-3" /><text class="lab" transform="translate(0 11)">8</text></g><g class="a21 c1 node n17 p0" transform="translate(-7.6 20.7709)"><g class="a17 leaf node n1 p0 sample" transform="translate(0.0 11.6513)"><path class="edge" d="M 0 0 V -11.6513 H 0.0" /><rect class="sym" height="6" width="6" x="-3" y="-3" /><text class="lab" transform="translate(0 11)">1</text></g><path class="edge" d="M 0 0 V -20.7709 H 7.6" /><circle class="sym" cx="0" cy="0" r="3" /><text class="lab lft" transform="translate(-3 -7.0)">17</text></g><path class="edge" d="M 0 0 V -8.30484 H 0.0" /><circle class="sym" cx="0" cy="0" r="3" /><text class="lab lft" transform="translate(-3 -7.0)">21</text></g><path class="edge" d="M 0 0 V -17.3209 H 0.0" /><circle class="sym" cx="0" cy="0" r="3" /><text class="lab lft" transform="translate(-3 -7.0)">23</text></g><path class="edge" d="M 0 0 V -7.82417 H 0.0" /><circle class="sym" cx="0" cy="0" r="3" /><text class="lab lft" transform="translate(-3 -7.0)">27</text></g><path class="edge" d="M 0 0 V -11.3028 H 0.0" /><circle class="sym" cx="0" cy="0" r="3" /><text class="lab lft" transform="translate(-3 -7.0)">28</text></g><path class="edge" d="M 0 0 V -17.4251 H -27.7875" /><circle class="sym" cx="0" cy="0" r="3" /><text class="lab rgt" transform="translate(3 -7.0)">29</text></g><circle class="sym" cx="0" cy="0" r="3" /><text class="lab" transform="translate(0 -11)">30</text></g></g></g><g class="tree t3" transform="translate(596 0)"><g class="plotbox"><g class="c2 node n30 p0 root" transform="translate(129.012 26.8)"><g class="a30 c2 node n22 p0" transform="translate(-27.7875 56.6156)"><g class="a22 c2 node n13 p0" transform="translate(25.175 29.0025)"><g class="a13 leaf node n2 p0 sample" transform="translate(-7.6 8.9819)"><path class="edge" d="M 0 0 V -8.9819 H 7.6" /><rect class="sym" height="6" width="6" x="-3" y="-3" /><text class="lab" transform="translate(0 11)">2</text></g><g class="a13 leaf node n4 p0 sample" transform="translate(7.6 8.9819)"><path class="edge" d="M 0 0 V -8.9819 H -7.6" /><rect class="sym" height="6" width="6" x="-3" y="-3" /><text class="lab" transform="translate(0 11)">4</text></g><path class="edge" d="M 0 0 V -29.0025 H -25.175" /><circle class="sym" cx="0" cy="0" r="3" /><text class="lab rgt" transform="translate(3 -7.0)">13</text></g><g class="a22 c1 node n20 p0" transform="translate(-25.175 5.72384)"><g class="a20 c1 node n18 p0" transform="translate(0.0 12.3716)"><g class="a18 c2 node n15 p0" transform="translate(0.0 9.12439)"><g class="a15 c2 node n12 p0" transform="translate(19.95 4.88101)"><g class="a12 leaf node n6 p0 sample" transform="translate(-7.6 5.88357)"><path class="edge" d="M 0 0 V -5.88357 H 7.6" /><rect class="sym" height="6" width="6" x="-3" y="-3" /><text class="lab" transform="translate(0 11)">6</text></g><g class="a12 leaf node n7 p0 sample" transform="translate(7.6 5.88357)"><path class="edge" d="M 0 0 V -5.88357 H -7.6" /><rect class="sym" height="6" width="6" x="-3" y="-3" /><text class="lab" transform="translate(0 11)">7</text></g><path class="edge" d="M 0 0 V -4.88101 H -19.95" /><circle class="sym" cx="0" cy="0" r="3" /><text class="lab rgt" transform="translate(3 -7.0)">12</text></g><g class="a15 c2 node n14 p0" transform="translate(-19.95 0.0593317)"><g class="a14 leaf node n3 p0 sample" transform="translate(17.1 10.7052)"><path class="edge" d="M 0 0 V -10.7052 H -17.1" /><rect class="sym" height="6" width="6" x="-3" y="-3" /><text class="lab" transform="translate(0 11)">3</text></g><g class="a14 c2 node n11 p0" transform="translate(-17.1 7.06468)"><g class="a11 leaf node n0 p0 sample" transform="translate(-11.4 3.64056)"><path class="edge" d="M 0 0 V -3.64056 H 11.4" /><rect class="sym" height="6" width="6" x="-3" y="-3" /><text class="lab" transform="translate(0 11)">0</text></g><g class="a11 c2 node n10 p0" transform="translate(11.4 1.74379)"><g class="a10 leaf node n5 p0 sample" transform="translate(-7.6 1.89677)"><path class="edge" d="M 0 0 V -1.89677 H 7.6" /><rect class="sym" height="6" width="6" x="-3" y="-3" /><text class="lab" transform="translate(0 11)">5</text></g><g class="a10 leaf node n9 p0 sample" transform="translate(7.6 1.89677)"><path class="edge" d="M 0 0 V -1.89677 H -7.6" /><rect class="sym" height="6" width="6" x="-3" y="-3" /><text class="lab" transform="translate(0 11)">9</text></g><path class="edge" d="M 0 0 V -1.74379 H -11.4" /><circle class="sym" cx="0" cy="0" r="3" /><text class="lab rgt" transform="translate(3 -7.0)">10</text></g><path class="edge" d="M 0 0 V -7.06468 H 17.1" /><circle class="sym" cx="0" cy="0" r="3" /><text class="lab lft" transform="translate(-3 -7.0)">11</text></g><path class="edge" d="M 0 0 V -0.0593317 H 19.95" /><circle class="sym" cx="0" cy="0" r="3" /><text class="lab lft" transform="translate(-3 -7.0)">14</text></g><path class="edge" d="M 0 0 V -9.12439 H 0.0" /><circle class="sym" cx="0" cy="0" r="3" /><text class="lab lft" transform="translate(-3 -7.0)">15</text></g><path class="edge" d="M 0 0 V -12.3716 H 0.0" /><circle class="sym" cx="0" cy="0" r="3" /><text class="lab lft" transform="translate(-3 -7.0)">18</text></g><path class="edge" d="M 0 0 V -5.72384 H 25.175" /><circle class="sym" cx="0" cy="0" r="3" /><text class="lab lft" transform="translate(-3 -7.0)">20</text></g><path class="edge" d="M 0 0 V -56.6156 H 27.7875" /><circle class="sym" cx="0" cy="0" r="3" /><text class="lab lft" transform="translate(-3 -7.0)">22</text></g><g class="a30 c1 node n29 p0" transform="translate(27.7875 17.4251)"><g class="a29 c1 node n28 p0" transform="translate(0.0 11.3028)"><g class="a28 c1 node n25 p0" transform="translate(0.0 24.4501)"><g class="a25 c1 node n24 p0" transform="translate(0.0 0.694916)"><g class="a24 c2 node n21 p0" transform="translate(0.0 8.30484)"><g class="a21 leaf node n8 p0 sample" transform="translate(7.6 32.4222)"><path class="edge" d="M 0 0 V -32.4222 H -7.6" /><rect class="sym" height="6" width="6" x="-3" y="-3" /><text class="lab" transform="translate(0 11)">8</text></g><g class="a21 c1 node n17 p0" transform="translate(-7.6 20.7709)"><g class="a17 leaf node n1 p0 sample" transform="translate(0.0 11.6513)"><path class="edge" d="M 0 0 V -11.6513 H 0.0" /><rect class="sym" height="6" width="6" x="-3" y="-3" /><text class="lab" transform="translate(0 11)">1</text></g><path class="edge" d="M 0 0 V -20.7709 H 7.6" /><circle class="sym" cx="0" cy="0" r="3" /><text class="lab lft" transform="translate(-3 -7.0)">17</text></g><path class="edge" d="M 0 0 V -8.30484 H 0.0" /><circle class="sym" cx="0" cy="0" r="3" /><text class="lab lft" transform="translate(-3 -7.0)">21</text></g><path class="edge" d="M 0 0 V -0.694916 H 0.0" /><circle class="sym" cx="0" cy="0" r="3" /><text class="lab lft" transform="translate(-3 -7.0)">24</text></g><path class="edge" d="M 0 0 V -24.4501 H 0.0" /><circle class="sym" cx="0" cy="0" r="3" /><text class="lab lft" transform="translate(-3 -7.0)">25</text></g><path class="edge" d="M 0 0 V -11.3028 H 0.0" /><circle class="sym" cx="0" cy="0" r="3" /><text class="lab lft" transform="translate(-3 -7.0)">28</text></g><path class="edge" d="M 0 0 V -17.4251 H -27.7875" /><circle class="sym" cx="0" cy="0" r="3" /><text class="lab rgt" transform="translate(3 -7.0)">29</text></g><circle class="sym" cx="0" cy="0" r="3" /><text class="lab" transform="translate(0 -11)">30</text></g></g></g><g class="tree t4" transform="translate(788 0)"><g class="plotbox"><g class="c2 node n30 p0 root" transform="translate(129.012 26.8)"><g class="a30 c2 node n22 p0" transform="translate(-27.7875 56.6156)"><g class="a22 c2 node n13 p0" transform="translate(25.175 29.0025)"><g class="a13 leaf node n2 p0 sample" transform="translate(-7.6 8.9819)"><path class="edge" d="M 0 0 V -8.9819 H 7.6" /><rect class="sym" height="6" width="6" x="-3" y="-3" /><text class="lab" transform="translate(0 11)">2</text></g><g class="a13 leaf node n4 p0 sample" transform="translate(7.6 8.9819)"><path class="edge" d="M 0 0 V -8.9819 H -7.6" /><rect class="sym" height="6" width="6" x="-3" y="-3" /><text class="lab" transform="translate(0 11)">4</text></g><path class="edge" d="M 0 0 V -29.0025 H -25.175" /><circle class="sym" cx="0" cy="0" r="3" /><text class="lab rgt" transform="translate(3 -7.0)">13</text></g><g class="a22 c1 node n20 p0" transform="translate(-25.175 5.72384)"><g class="a20 c1 node n18 p0" transform="translate(0.0 12.3716)"><g class="a18 c2 node n15 p0" transform="translate(0.0 9.12439)"><g class="a15 c2 node n12 p0" transform="translate(19.95 4.88101)"><g class="a12 leaf node n6 p0 sample" transform="translate(-7.6 5.88357)"><path class="edge" d="M 0 0 V -5.88357 H 7.6" /><rect class="sym" height="6" width="6" x="-3" y="-3" /><text class="lab" transform="translate(0 11)">6</text></g><g class="a12 leaf node n7 p0 sample" transform="translate(7.6 5.88357)"><path class="edge" d="M 0 0 V -5.88357 H -7.6" /><rect class="sym" height="6" width="6" x="-3" y="-3" /><text class="lab" transform="translate(0 11)">7</text></g><path class="edge" d="M 0 0 V -4.88101 H -19.95" /><circle class="sym" cx="0" cy="0" r="3" /><text class="lab rgt" transform="translate(3 -7.0)">12</text></g><g class="a15 c2 node n14 p0" transform="translate(-19.95 0.0593317)"><g class="a14 leaf node n3 p0 sample" transform="translate(17.1 10.7052)"><path class="edge" d="M 0 0 V -10.7052 H -17.1" /><rect class="sym" height="6" width="6" x="-3" y="-3" /><text class="lab" transform="translate(0 11)">3</text></g><g class="a14 c2 node n11 p0" transform="translate(-17.1 7.06468)"><g class="a11 leaf node n0 p0 sample" transform="translate(-11.4 3.64056)"><path class="edge" d="M 0 0 V -3.64056 H 11.4" /><rect class="sym" height="6" width="6" x="-3" y="-3" /><text class="lab" transform="translate(0 11)">0</text></g><g class="a11 c2 node n10 p0" transform="translate(11.4 1.74379)"><g class="a10 leaf node n5 p0 sample" transform="translate(-7.6 1.89677)"><path class="edge" d="M 0 0 V -1.89677 H 7.6" /><rect class="sym" height="6" width="6" x="-3" y="-3" /><text class="lab" transform="translate(0 11)">5</text></g><g class="a10 leaf node n9 p0 sample" transform="translate(7.6 1.89677)"><path class="edge" d="M 0 0 V -1.89677 H -7.6" /><rect class="sym" height="6" width="6" x="-3" y="-3" /><text class="lab" transform="translate(0 11)">9</text></g><path class="edge" d="M 0 0 V -1.74379 H -11.4" /><circle class="sym" cx="0" cy="0" r="3" /><text class="lab rgt" transform="translate(3 -7.0)">10</text></g><path class="edge" d="M 0 0 V -7.06468 H 17.1" /><circle class="sym" cx="0" cy="0" r="3" /><text class="lab lft" transform="translate(-3 -7.0)">11</text></g><path class="edge" d="M 0 0 V -0.0593317 H 19.95" /><circle class="sym" cx="0" cy="0" r="3" /><text class="lab lft" transform="translate(-3 -7.0)">14</text></g><path class="edge" d="M 0 0 V -9.12439 H 0.0" /><circle class="sym" cx="0" cy="0" r="3" /><text class="lab lft" transform="translate(-3 -7.0)">15</text></g><path class="edge" d="M 0 0 V -12.3716 H 0.0" /><circle class="sym" cx="0" cy="0" r="3" /><text class="lab lft" transform="translate(-3 -7.0)">18</text></g><path class="edge" d="M 0 0 V -5.72384 H 25.175" /><circle class="sym" cx="0" cy="0" r="3" /><text class="lab lft" transform="translate(-3 -7.0)">20</text></g><path class="edge" d="M 0 0 V -56.6156 H 27.7875" /><circle class="sym" cx="0" cy="0" r="3" /><text class="lab lft" transform="translate(-3 -7.0)">22</text></g><g class="a30 c1 node n29 p0" transform="translate(27.7875 17.4251)"><g class="a29 c1 node n28 p0" transform="translate(0.0 11.3028)"><g class="a28 c1 node n27 p0" transform="translate(0.0 7.82417)"><g class="a27 c1 node n26 p0" transform="translate(0.0 16.626)"><g class="a26 c1 node n24 p0" transform="translate(0.0 0.694916)"><g class="a24 c2 node n21 p0" transform="translate(0.0 8.30484)"><g class="a21 leaf node n8 p0 sample" transform="translate(7.6 32.4222)"><path class="edge" d="M 0 0 V -32.4222 H -7.6" /><rect class="sym" height="6" width="6" x="-3" y="-3" /><text class="lab" transform="translate(0 11)">8</text></g><g class="a21 c1 node n17 p0" transform="translate(-7.6 20.7709)"><g class="a17 leaf node n1 p0 sample" transform="translate(0.0 11.6513)"><path class="edge" d="M 0 0 V -11.6513 H 0.0" /><rect class="sym" height="6" width="6" x="-3" y="-3" /><text class="lab" transform="translate(0 11)">1</text></g><path class="edge" d="M 0 0 V -20.7709 H 7.6" /><circle class="sym" cx="0" cy="0" r="3" /><text class="lab lft" transform="translate(-3 -7.0)">17</text></g><path class="edge" d="M 0 0 V -8.30484 H 0.0" /><circle class="sym" cx="0" cy="0" r="3" /><text class="lab lft" transform="translate(-3 -7.0)">21</text></g><path class="edge" d="M 0 0 V -0.694916 H 0.0" /><circle class="sym" cx="0" cy="0" r="3" /><text class="lab lft" transform="translate(-3 -7.0)">24</text></g><path class="edge" d="M 0 0 V -16.626 H 0.0" /><circle class="sym" cx="0" cy="0" r="3" /><text class="lab lft" transform="translate(-3 -7.0)">26</text></g><path class="edge" d="M 0 0 V -7.82417 H 0.0" /><circle class="sym" cx="0" cy="0" r="3" /><text class="lab lft" transform="translate(-3 -7.0)">27</text></g><path class="edge" d="M 0 0 V -11.3028 H 0.0" /><circle class="sym" cx="0" cy="0" r="3" /><text class="lab lft" transform="translate(-3 -7.0)">28</text></g><path class="edge" d="M 0 0 V -17.4251 H -27.7875" /><circle class="sym" cx="0" cy="0" r="3" /><text class="lab rgt" transform="translate(3 -7.0)">29</text></g><circle class="sym" cx="0" cy="0" r="3" /><text class="lab" transform="translate(0 -11)">30</text></g></g></g></g></g></svg>
