<svg baseProfile="full" height="200" version="1.1" width="800" xmlns="http://www.w3.org/2000/svg" xmlns:ev="http://www.w3.org/2001/xml-events" xmlns:xlink="http://www.w3.org/1999/xlink"><defs><style type="text/css"><![CDATA[.background path {fill: #808080; fill-opacity: 0}.background path:nth-child(odd) {fill-opacity: .1}.axes {font-size: 14px}.x-axis .tick .lab {font-weight: bold; dominant-baseline: hanging}.axes, .tree {font-size: 14px; text-anchor: middle}.axes line, .edge {stroke: black; fill: none}.y-axis .grid {stroke: #FAFAFA}.node > .sym {fill: black; stroke: none}.site > .sym {stroke: black}.mut text {fill: red; font-style: italic}.mut.extra text {fill: hotpink}.mut line {fill: none; stroke: none}.mut .sym {fill: none; stroke: red}.mut.extra .sym {stroke: hotpink}.node .mut .sym {stroke-width: 1.5px}.tree text, .tree-sequence text {dominant-baseline: central}.plotbox .lab.lft {text-anchor: end}.plotbox .lab.rgt {text-anchor: start}]]></style></defs><g class="tree-sequence"><g class="background"><path d="M20,0 l190,0 l0,138.2 l-49.806,25 l0,5 l-140.194,0 l0,-5 l0,-25 l0,-138.2z" /><path d="M210,0 l190,0 l0,138.2 l-150.723,25 l0,5 l-89.0832,0 l0,-5 l49.806,-25 l0,-138.2z" /><path d="M400,0 l190,0 l0,138.2 l-271.081,25 l0,5 l-69.6414,0 l0,-5 l150.723,-25 l0,-138.2z" /><path d="M590,0 l190,0 l0,138.2 l0,25 l0,5 l-461.081,0 l0,-5 l271.081,-25 l0,-138.2z" /></g><g class="axes"><g class="x-axis"><g transform="translate(400 200)"><text class="lab" text-anchor="middle" transform="translate(0 -11)">Genome position</text></g><line x1="20" x2="780" y1="163.2" y2="163.2" /><g class="ticks"><g class="tick" transform="translate(20 163.2)"><line x1="0" x2="0" y1="0" y2="5" /><g transform="translate(0 6)"><text class="lab">0.00</text></g></g><g class="tick" transform="translate(160.194 163.2)"><line x1="0" x2="0" y1="0" y2="5" /><g transform="translate(0 6)"><text class="lab">184.47</text></g></g><g class="tick" transform="translate(249.277 163.2)"><line x1="0" x2="0" y1="0" y2="5" /><g transform="translate(0 6)"><text class="lab">301.68</text></g></g><g class="tick" transform="translate(318.919 163.2)"><line x1="0" x2="0" y1="0" y2="5" /><g transform="translate(0 6)"><text class="lab">393.31</text></g></g><g class="tick" transform="translate(780 163.2)"><line x1="0" x2="0" y1="0" y2="5" /><g transform="translate(0 6)"><text class="lab">1000.00</text></g></g></g></g></g><g class="plotbox trees"><g class="tree t0" transform="translate(20 0)"><g class="plotbox"><g class="c2 node n27 p0 root" transform="translate(90.3125 26.8)"><g class="a27 c2 node n25 p0" transform="translate(34.6875 38.3143)"><g class="a25 c2 node n20 p0" transform="translate(18.75 27.274)"><g class="a20 leaf node n4 p0 sample" transform="translate(-11.25 29.0117)"><path class="edge" d="M 0 0 V -29.0117 H 11.25" /><rect class="sym" height="6" width="6" x="-3" y="-3" /><text class="lab" transform="translate(0 11)">4</text></g><g class="a20 c1 node n18 p0" transform="translate(11.25 14.7274)"><g class="a18 c2 node n13 p0" transform="translate(0.0 9.49011)"><g class="a13 leaf node n6 p0 sample" transform="translate(-7.5 4.7942)"><path class="edge" d="M 0 0 V -4.7942 H 7.5" /><rect class="sym" height="6" width="6" x="-3" y="-3" /><text class="lab" transform="translate(0 11)">6</text></g><g class="a13 c1 node n10 p0" transform="translate(7.5 2.83309)"><g class="a10 leaf node n8 p0 sample" transform="translate(0.0 1.9611)"><path class="edge" d="M 0 0 V -1.9611 H 0.0" /><rect class="sym" height="6" width="6" x="-3" y="-3" /><text class="lab" transform="translate(0 11)">8</text></g><path class="edge" d="M 0 0 V -2.83309 H -7.5" /><circle class="sym" cx="0" cy="0" r="3" /><text class="lab rgt" transform="translate(3 -7.0)">10</text></g><path class="edge" d="M 0 0 V -9.49011 H 0.0" /><circle class="sym" cx="0" cy="0" r="3" /><text class="lab lft" transform="translate(-3 -7.0)">13</text></g><path class="edge" d="M 0 0 V -14.7274 H -11.25" /><circle class="sym" cx="0" cy="0" r="3" /><text class="lab rgt" transform="translate(3 -7.0)">18</text></g><path class="edge" d="M 0 0 V -27.274 H -18.75" /><circle class="sym" cx="0" cy="0" r="3" /><text class="lab rgt" transform="translate(3 -7.0)">20</text></g><g class="a25 c1 node n23 p0" transform="translate(-18.75 23.0447)"><g class="a23 c2 node n21 p0" transform="translate(0.0 4.10581)"><g class="a21 leaf node n9 p0 sample" transform="translate(11.25 29.1352)"><path class="edge" d="M 0 0 V -29.1352 H -11.25" /><rect class="sym" height="6" width="6" x="-3" y="-3" /><text class="lab" transform="translate(0 11)">9</text></g><g class="a21 c2 node n12 p0" transform="translate(-11.25 26.1077)"><g class="a12 leaf node n3 p0 sample" transform="translate(-7.5 3.02753)"><path class="edge" d="M 0 0 V -3.02753 H 7.5" /><rect class="sym" height="6" width="6" x="-3" y="-3" /><text class="lab" transform="translate(0 11)">3</text></g><g class="a12 leaf node n5 p0 sample" transform="translate(7.5 3.02753)"><path class="edge" d="M 0 0 V -3.02753 H -7.5" /><rect class="sym" height="6" width="6" x="-3" y="-3" /><text class="lab" transform="translate(0 11)">5</text></g><path class="edge" d="M 0 0 V -26.1077 H 11.25" /><circle class="sym" cx="0" cy="0" r="3" /><text class="lab lft" transform="translate(-3 -7.0)">12</text></g><path class="edge" d="M 0 0 V -4.10581 H 0.0" /><circle class="sym" cx="0" cy="0" r="3" /><text class="lab lft" transform="translate(-3 -7.0)">21</text></g><path class="edge" d="M 0 0 V -23.0447 H 18.75" /><circle class="sym" cx="0" cy="0" r="3" /><text class="lab lft" transform="translate(-3 -7.0)">23</text></g><path class="edge" d="M 0 0 V -38.3143 H -34.6875" /><circle class="sym" cx="0" cy="0" r="3" /><text class="lab rgt" transform="translate(3 -7.0)">25</text></g><g class="a27 c1 node n26 p0" transform="translate(-34.6875 31.9524)"><g class="a26 c1 node n24 p0" transform="translate(0.0 24.2186)"><g class="a24 c2 node n22 p0" transform="translate(0.0 7.29112)"><g class="a22 leaf node n1 p0 sample" transform="translate(16.875 31.1379)"><path class="edge" d="M 0 0 V -31.1379 H -16.875" /><rect class="sym" height="6" width="6" x="-3" y="-3" /><text class="lab" transform="translate(0 11)">1</text></g><g class="a22 c2 node n17 p0" transform="translate(-16.875 18.1012)"><g class="a17 leaf node n0 p0 sample" transform="translate(-11.25 13.0367)"><path class="edge" d="M 0 0 V -13.0367 H 11.25" /><rect class="sym" height="6" width="6" x="-3" y="-3" /><text class="lab" transform="translate(0 11)">0</text></g><g class="a17 c2 node n16 p0" transform="translate(11.25 1.89758)"><g class="a16 leaf node n2 p0 sample" transform="translate(-7.5 11.1391)"><path class="edge" d="M 0 0 V -11.1391 H 7.5" /><rect class="sym" height="6" width="6" x="-3" y="-3" /><text class="lab" transform="translate(0 11)">2</text></g><g class="a16 c1 node n14 p0" transform="translate(7.5 4.363)"><g class="a14 leaf node n7 p0 sample" transform="translate(0.0 6.7761)"><path class="edge" d="M 0 0 V -6.7761 H 0.0" /><rect class="sym" height="6" width="6" x="-3" y="-3" /><text class="lab" transform="translate(0 11)">7</text></g><path class="edge" d="M 0 0 V -4.363 H -7.5" /><circle class="sym" cx="0" cy="0" r="3" /><text class="lab rgt" transform="translate(3 -7.0)">14</text></g><path class="edge" d="M 0 0 V -1.89758 H -11.25" /><circle class="sym" cx="0" cy="0" r="3" /><text class="lab rgt" transform="translate(3 -7.0)">16</text></g><path class="edge" d="M 0 0 V -18.1012 H 16.875" /><circle class="sym" cx="0" cy="0" r="3" /><text class="lab lft" transform="translate(-3 -7.0)">17</text></g><path class="edge" d="M 0 0 V -7.29112 H 0.0" /><circle class="sym" cx="0" cy="0" r="3" /><text class="lab lft" transform="translate(-3 -7.0)">22</text></g><path class="edge" d="M 0 0 V -24.2186 H 0.0" /><circle class="sym" cx="0" cy="0" r="3" /><text class="lab lft" transform="translate(-3 -7.0)">24</text></g><path class="edge" d="M 0 0 V -31.9524 H 34.6875" /><circle class="sym" cx="0" cy="0" r="3" /><text class="lab lft" transform="translate(-3 -7.0)">26</text></g><circle class="sym" cx="0" cy="0" r="3" /><text class="lab" transform="translate(0 -11)">27</text></g></g></g><g class="tree t1" transform="translate(210 0)"><g class="plotbox"><g class="c2 node n27 p0 root" transform="translate(99.2188 26.8)"><g class="a27 c2 node n25 p0" transform="translate(43.5938 38.3143)"><g class="a25 c1 node n20 p0" transform="translate(19.6875 27.274)"><g class="a20 leaf node n4 p0 sample" transform="translate(0.0 29.0117)"><path class="edge" d="M 0 0 V -29.0117 H 0.0" /><rect class="sym" height="6" width="6" x="-3" y="-3" /><text class="lab" transform="translate(0 11)">4</text></g><path class="edge" d="M 0 0 V -27.274 H -19.6875" /><circle class="sym" cx="0" cy="0" r="3" /><text class="lab rgt" transform="translate(3 -7.0)">20</text></g><g class="a25 c2 node n23 p0" transform="translate(-19.6875 23.0447)"><g class="a23 c2 node n21 p0" transform="translate(-16.875 4.10581)"><g class="a21 leaf node n9 p0 sample" transform="translate(11.25 29.1352)"><path class="edge" d="M 0 0 V -29.1352 H -11.25" /><rect class="sym" height="6" width="6" x="-3" y="-3" /><text class="lab" transform="translate(0 11)">9</text></g><g class="a21 c2 node n12 p0" transform="translate(-11.25 26.1077)"><g class="a12 leaf node n3 p0 sample" transform="translate(-7.5 3.02753)"><path class="edge" d="M 0 0 V -3.02753 H 7.5" /><rect class="sym" height="6" width="6" x="-3" y="-3" /><text class="lab" transform="translate(0 11)">3</text></g><g class="a12 leaf node n5 p0 sample" transform="translate(7.5 3.02753)"><path class="edge" d="M 0 0 V -3.02753 H -7.5" /><rect class="sym" height="6" width="6" x="-3" y="-3" /><text class="lab" transform="translate(0 11)">5</text></g><path class="edge" d="M 0 0 V -26.1077 H 11.25" /><circle class="sym" cx="0" cy="0" r="3" /><text class="lab lft" transform="translate(-3 -7.0)">12</text></g><path class="edge" d="M 0 0 V -4.10581 H 16.875" /><circle class="sym" cx="0" cy="0" r="3" /><text class="lab lft" transform="translate(-3 -7.0)">21</text></g><g class="a23 c1 node n19 p0" transform="translate(16.875 18.9567)"><g class="a19 c2 node n13 p0" transform="translate(0.0 9.49011)"><g class="a13 leaf node n6 p0 sample" transform="translate(-7.5 4.7942)"><path class="edge" d="M 0 0 V -4.7942 H 7.5" /><rect class="sym" height="6" width="6" x="-3" y="-3" /><text class="lab" transform="translate(0 11)">6</text></g><g class="a13 c1 node n10 p0" transform="translate(7.5 2.83309)"><g class="a10 leaf node n8 p0 sample" transform="translate(0.0 1.9611)"><path class="edge" d="M 0 0 V -1.9611 H 0.0" /><rect class="sym" height="6" width="6" x="-3" y="-3" /><text class="lab" transform="translate(0 11)">8</text></g><path class="edge" d="M 0 0 V -2.83309 H -7.5" /><circle class="sym" cx="0" cy="0" r="3" /><text class="lab rgt" transform="translate(3 -7.0)">10</text></g><path class="edge" d="M 0 0 V -9.49011 H 0.0" /><circle class="sym" cx="0" cy="0" r="3" /><text class="lab lft" transform="translate(-3 -7.0)">13</text></g><path class="edge" d="M 0 0 V -18.9567 H -16.875" /><circle class="sym" cx="0" cy="0" r="3" /><text class="lab rgt" transform="translate(3 -7.0)">19</text></g><path class="edge" d="M 0 0 V -23.0447 H 19.6875" /><circle class="sym" cx="0" cy="0" r="3" /><text class="lab lft" transform="translate(-3 -7.0)">23</text></g><path class="edge" d="M 0 0 V -38.3143 H -43.5938" /><circle class="sym" cx="0" cy="0" r="3" /><text class="lab rgt" transform="translate(3 -7.0)">25</text></g><g class="a27 c1 node n26 p0" transform="translate(-43.5938 31.9524)"><g class="a26 c1 node n24 p0" transform="translate(0.0 24.2186)"><g class="a24 c2 node n22 p0" transform="translate(0.0 7.29112)"><g class="a22 leaf node n1 p0 sample" transform="translate(16.875 31.1379)"><path class="edge" d="M 0 0 V -31.1379 H -16.875" /><rect class="sym" height="6" width="6" x="-3" y="-3" /><text class="lab" transform="translate(0 11)">1</text></g><g class="a22 c2 node n17 p0" transform="translate(-16.875 18.1012)"><g class="a17 leaf node n0 p0 sample" transform="translate(-11.25 13.0367)"><path class="edge" d="M 0 0 V -13.0367 H 11.25" /><rect class="sym" height="6" width="6" x="-3" y="-3" /><text class="lab" transform="translate(0 11)">0</text></g><g class="a17 c2 node n16 p0" transform="translate(11.25 1.89758)"><g class="a16 leaf node n2 p0 sample" transform="translate(-7.5 11.1391)"><path class="edge" d="M 0 0 V -11.1391 H 7.5" /><rect class="sym" height="6" width="6" x="-3" y="-3" /><text class="lab" transform="translate(0 11)">2</text></g><g class="a16 c1 node n14 p0" transform="translate(7.5 4.363)"><g class="a14 leaf node n7 p0 sample" transform="translate(0.0 6.7761)"><path class="edge" d="M 0 0 V -6.7761 H 0.0" /><rect class="sym" height="6" width="6" x="-3" y="-3" /><text class="lab" transform="translate(0 11)">7</text></g><path class="edge" d="M 0 0 V -4.363 H -7.5" /><circle class="sym" cx="0" cy="0" r="3" /><text class="lab rgt" transform="translate(3 -7.0)">14</text></g><path class="edge" d="M 0 0 V -1.89758 H -11.25" /><circle class="sym" cx="0" cy="0" r="3" /><text class="lab rgt" transform="translate(3 -7.0)">16</text></g><path class="edge" d="M 0 0 V -18.1012 H 16.875" /><circle class="sym" cx="0" cy="0" r="3" /><text class="lab lft" transform="translate(-3 -7.0)">17</text></g><path class="edge" d="M 0 0 V -7.29112 H 0.0" /><circle class="sym" cx="0" cy="0" r="3" /><text class="lab lft" transform="translate(-3 -7.0)">22</text></g><path class="edge" d="M 0 0 V -24.2186 H 0.0" /><circle class="sym" cx="0" cy="0" r="3" /><text class="lab lft" transform="translate(-3 -7.0)">24</text></g><path class="edge" d="M 0 0 V -31.9524 H 43.5938" /><circle class="sym" cx="0" cy="0" r="3" /><text class="lab lft" transform="translate(-3 -7.0)">26</text></g><circle class="sym" cx="0" cy="0" r="3" /><text class="lab" transform="translate(0 -11)">27</text></g></g></g><g class="tree t2" transform="translate(400 0)"><g class="plotbox"><g class="c2 node n27 p0 root" transform="translate(110 26.8)"><g class="a27 c2 node n25 p0" transform="translate(38.4375 38.3143)"><g class="a25 c1 node n20 p0" transform="translate(14.0625 27.274)"><g class="a20 leaf node n4 p0 sample" transform="translate(0.0 29.0117)"><path class="edge" d="M 0 0 V -29.0117 H 0.0" /><rect class="sym" height="6" width="6" x="-3" y="-3" /><text class="lab" transform="translate(0 11)">4</text></g><path class="edge" d="M 0 0 V -27.274 H -14.0625" /><circle class="sym" cx="0" cy="0" r="3" /><text class="lab rgt" transform="translate(3 -7.0)">20</text></g><g class="a25 c2 node n23 p0" transform="translate(-14.0625 23.0447)"><g class="a23 c2 node n21 p0" transform="translate(-13.125 4.10581)"><g class="a21 leaf node n9 p0 sample" transform="translate(11.25 29.1352)"><path class="edge" d="M 0 0 V -29.1352 H -11.25" /><rect class="sym" height="6" width="6" x="-3" y="-3" /><text class="lab" transform="translate(0 11)">9</text></g><g class="a21 c2 node n12 p0" transform="translate(-11.25 26.1077)"><g class="a12 leaf node n3 p0 sample" transform="translate(-7.5 3.02753)"><path class="edge" d="M 0 0 V -3.02753 H 7.5" /><rect class="sym" height="6" width="6" x="-3" y="-3" /><text class="lab" transform="translate(0 11)">3</text></g><g class="a12 leaf node n5 p0 sample" transform="translate(7.5 3.02753)"><path class="edge" d="M 0 0 V -3.02753 H -7.5" /><rect class="sym" height="6" width="6" x="-3" y="-3" /><text class="lab" transform="translate(0 11)">5</text></g><path class="edge" d="M 0 0 V -26.1077 H 11.25" /><circle class="sym" cx="0" cy="0" r="3" /><text class="lab lft" transform="translate(-3 -7.0)">12</text></g><path class="edge" d="M 0 0 V -4.10581 H 13.125" /><circle class="sym" cx="0" cy="0" r="3" /><text class="lab lft" transform="translate(-3 -7.0)">21</text></g><g class="a23 c1 node n19 p0" transform="translate(13.125 18.9567)"><g class="a19 c1 node n13 p0" transform="translate(0.0 9.49011)"><g class="a13 leaf node n6 p0 sample" transform="translate(0.0 4.7942)"><path class="edge" d="M 0 0 V -4.7942 H 0.0" /><rect class="sym" height="6" width="6" x="-3" y="-3" /><text class="lab" transform="translate(0 11)">6</text></g><path class="edge" d="M 0 0 V -9.49011 H 0.0" /><circle class="sym" cx="0" cy="0" r="3" /><text class="lab lft" transform="translate(-3 -7.0)">13</text></g><path class="edge" d="M 0 0 V -18.9567 H -13.125" /><circle class="sym" cx="0" cy="0" r="3" /><text class="lab rgt" transform="translate(3 -7.0)">19</text></g><path class="edge" d="M 0 0 V -23.0447 H 14.0625" /><circle class="sym" cx="0" cy="0" r="3" /><text class="lab lft" transform="translate(-3 -7.0)">23</text></g><path class="edge" d="M 0 0 V -38.3143 H -38.4375" /><circle class="sym" cx="0" cy="0" r="3" /><text class="lab rgt" transform="translate(3 -7.0)">25</text></g><g class="a27 c1 node n26 p0" transform="translate(-38.4375 31.9524)"><g class="a26 c2 node n24 p0" transform="translate(0.0 24.2186)"><g class="a24 c2 node n22 p0" transform="translate(-15.9375 7.29112)"><g class="a22 leaf node n1 p0 sample" transform="translate(16.875 31.1379)"><path class="edge" d="M 0 0 V -31.1379 H -16.875" /><rect class="sym" height="6" width="6" x="-3" y="-3" /><text class="lab" transform="translate(0 11)">1</text></g><g class="a22 c2 node n17 p0" transform="translate(-16.875 18.1012)"><g class="a17 leaf node n0 p0 sample" transform="translate(-11.25 13.0367)"><path class="edge" d="M 0 0 V -13.0367 H 11.25" /><rect class="sym" height="6" width="6" x="-3" y="-3" /><text class="lab" transform="translate(0 11)">0</text></g><g class="a17 c2 node n16 p0" transform="translate(11.25 1.89758)"><g class="a16 leaf node n2 p0 sample" transform="translate(-7.5 11.1391)"><path class="edge" d="M 0 0 V -11.1391 H 7.5" /><rect class="sym" height="6" width="6" x="-3" y="-3" /><text class="lab" transform="translate(0 11)">2</text></g><g class="a16 c1 node n14 p0" transform="translate(7.5 4.363)"><g class="a14 leaf node n7 p0 sample" transform="translate(0.0 6.7761)"><path class="edge" d="M 0 0 V -6.7761 H 0.0" /><rect class="sym" height="6" width="6" x="-3" y="-3" /><text class="lab" transform="translate(0 11)">7</text></g><path class="edge" d="M 0 0 V -4.363 H -7.5" /><circle class="sym" cx="0" cy="0" r="3" /><text class="lab rgt" transform="translate(3 -7.0)">14</text></g><path class="edge" d="M 0 0 V -1.89758 H -11.25" /><circle class="sym" cx="0" cy="0" r="3" /><text class="lab rgt" transform="translate(3 -7.0)">16</text></g><path class="edge" d="M 0 0 V -18.1012 H 16.875" /><circle class="sym" cx="0" cy="0" r="3" /><text class="lab lft" transform="translate(-3 -7.0)">17</text></g><path class="edge" d="M 0 0 V -7.29112 H 15.9375" /><circle class="sym" cx="0" cy="0" r="3" /><text class="lab lft" transform="translate(-3 -7.0)">22</text></g><g class="a24 c1 node n11 p0" transform="translate(15.9375 36.4679)"><g class="a11 leaf node n8 p0 sample" transform="translate(0.0 1.9611)"><path class="edge" d="M 0 0 V -1.9611 H 0.0" /><rect class="sym" height="6" width="6" x="-3" y="-3" /><text class="lab" transform="translate(0 11)">8</text></g><path class="edge" d="M 0 0 V -36.4679 H -15.9375" /><circle class="sym" cx="0" cy="0" r="3" /><text class="lab rgt" transform="translate(3 -7.0)">11</text></g><path class="edge" d="M 0 0 V -24.2186 H 0.0" /><circle class="sym" cx="0" cy="0" r="3" /><text class="lab lft" transform="translate(-3 -7.0)">24</text></g><path class="edge" d="M 0 0 V -31.9524 H 38.4375" /><circle class="sym" cx="0" cy="0" r="3" /><text class="lab lft" transform="translate(-3 -7.0)">26</text></g><circle class="sym" cx="0" cy="0" r="3" /><text class="lab" transform="translate(0 -11)">27</text></g></g></g><g class="tree t3" transform="translate(590 0)"><g class="plotbox"><g class="c2 node n27 p0 root" transform="translate(110.938 26.8)"><g class="a27 c2 node n25 p0" transform="translate(37.5 38.3143)"><g class="a25 c1 node n20 p0" transform="translate(14.0625 27.274)"><g class="a20 leaf node n4 p0 sample" transform="translate(0.0 29.0117)"><path class="edge" d="M 0 0 V -29.0117 H 0.0" /><rect class="sym" height="6" width="6" x="-3" y="-3" /><text class="lab" transform="translate(0 11)">4</text></g><path class="edge" d="M 0 0 V -27.274 H -14.0625" /><circle class="sym" cx="0" cy="0" r="3" /><text class="lab rgt" transform="translate(3 -7.0)">20</text></g><g class="a25 c2 node n23 p0" transform="translate(-14.0625 23.0447)"><g class="a23 c2 node n21 p0" transform="translate(-13.125 4.10581)"><g class="a21 leaf node n9 p0 sample" transform="translate(11.25 29.1352)"><path class="edge" d="M 0 0 V -29.1352 H -11.25" /><rect class="sym" height="6" width="6" x="-3" y="-3" /><text class="lab" transform="translate(0 11)">9</text></g><g class="a21 c2 node n12 p0" transform="translate(-11.25 26.1077)"><g class="a12 leaf node n3 p0 sample" transform="translate(-7.5 3.02753)"><path class="edge" d="M 0 0 V -3.02753 H 7.5" /><rect class="sym" height="6" width="6" x="-3" y="-3" /><text class="lab" transform="translate(0 11)">3</text></g><g class="a12 leaf node n5 p0 sample" transform="translate(7.5 3.02753)"><path class="edge" d="M 0 0 V -3.02753 H -7.5" /><rect class="sym" height="6" width="6" x="-3" y="-3" /><text class="lab" transform="translate(0 11)">5</text></g><path class="edge" d="M 0 0 V -26.1077 H 11.25" /><circle class="sym" cx="0" cy="0" r="3" /><text class="lab lft" transform="translate(-3 -7.0)">12</text></g><path class="edge" d="M 0 0 V -4.10581 H 13.125" /><circle class="sym" cx="0" cy="0" r="3" /><text class="lab lft" transform="translate(-3 -7.0)">21</text></g><g class="a23 c1 node n19 p0" transform="translate(13.125 18.9567)"><g class="a19 c1 node n13 p0" transform="translate(0.0 9.49011)"><g class="a13 leaf node n6 p0 sample" transform="translate(0.0 4.7942)"><path class="edge" d="M 0 0 V -4.7942 H 0.0" /><rect class="sym" height="6" width="6" x="-3" y="-3" /><text class="lab" transform="translate(0 11)">6</text></g><path class="edge" d="M 0 0 V -9.49011 H 0.0" /><circle class="sym" cx="0" cy="0" r="3" /><text class="lab lft" transform="translate(-3 -7.0)">13</text></g><path class="edge" d="M 0 0 V -18.9567 H -13.125" /><circle class="sym" cx="0" cy="0" r="3" /><text class="lab rgt" transform="translate(3 -7.0)">19</text></g><path class="edge" d="M 0 0 V -23.0447 H 14.0625" /><circle class="sym" cx="0" cy="0" r="3" /><text class="lab lft" transform="translate(-3 -7.0)">23</text></g><path class="edge" d="M 0 0 V -38.3143 H -37.5" /><circle class="sym" cx="0" cy="0" r="3" /><text class="lab rgt" transform="translate(3 -7.0)">25</text></g><g class="a27 c2 node n26 p0" transform="translate(-37.5 31.9524)"><g class="a26 c2 node n24 p0" transform="translate(-14.0625 24.2186)"><g class="a24 c2 node n22 p0" transform="translate(-13.125 7.29112)"><g class="a22 leaf node n1 p0 sample" transform="translate(11.25 31.1379)"><path class="edge" d="M 0 0 V -31.1379 H -11.25" /><rect class="sym" height="6" width="6" x="-3" y="-3" /><text class="lab" transform="translate(0 11)">1</text></g><g class="a22 c2 node n17 p0" transform="translate(-11.25 18.1012)"><g class="a17 leaf node n0 p0 sample" transform="translate(-7.5 13.0367)"><path class="edge" d="M 0 0 V -13.0367 H 7.5" /><rect class="sym" height="6" width="6" x="-3" y="-3" /><text class="lab" transform="translate(0 11)">0</text></g><g class="a17 c1 node n16 p0" transform="translate(7.5 1.89758)"><g class="a16 leaf node n2 p0 sample" transform="translate(0.0 11.1391)"><path class="edge" d="M 0 0 V -11.1391 H 0.0" /><rect class="sym" height="6" width="6" x="-3" y="-3" /><text class="lab" transform="translate(0 11)">2</text></g><path class="edge" d="M 0 0 V -1.89758 H -7.5" /><circle class="sym" cx="0" cy="0" r="3" /><text class="lab rgt" transform="translate(3 -7.0)">16</text></g><path class="edge" d="M 0 0 V -18.1012 H 11.25" /><circle class="sym" cx="0" cy="0" r="3" /><text class="lab lft" transform="translate(-3 -7.0)">17</text></g><path class="edge" d="M 0 0 V -7.29112 H 13.125" /><circle class="sym" cx="0" cy="0" r="3" /><text class="lab lft" transform="translate(-3 -7.0)">22</text></g><g class="a24 c1 node n11 p0" transform="translate(13.125 36.4679)"><g class="a11 leaf node n8 p0 sample" transform="translate(0.0 1.9611)"><path class="edge" d="M 0 0 V -1.9611 H 0.0" /><rect class="sym" height="6" width="6" x="-3" y="-3" /><text class="lab" transform="translate(0 11)">8</text></g><path class="edge" d="M 0 0 V -36.4679 H -13.125" /><circle class="sym" cx="0" cy="0" r="3" /><text class="lab rgt" transform="translate(3 -7.0)">11</text></g><path class="edge" d="M 0 0 V -24.2186 H 14.0625" /><circle class="sym" cx="0" cy="0" r="3" /><text class="lab lft" transform="translate(-3 -7.0)">24</text></g><g class="a26 c1 node n15 p0" transform="translate(14.0625 55.8715)"><g class="a15 leaf node n7 p0 sample" transform="translate(0.0 6.7761)"><path class="edge" d="M 0 0 V -6.7761 H 0.0" /><rect class="sym" height="6" width="6" x="-3" y="-3" /><text class="lab" transform="translate(0 11)">7</text></g><path class="edge" d="M 0 0 V -55.8715 H -14.0625" /><circle class="sym" cx="0" cy="0" r="3" /><text class="lab rgt" transform="translate(3 -7.0)">15</text></g><path class="edge" d="M 0 0 V -31.9524 H 37.5" /><circle class="sym" cx="0" cy="0" r="3" /><text class="lab lft" transform="translate(-3 -7.0)">26</text></g><circle class="sym" cx="0" cy="0" r="3" /><text class="lab" transform="translate(0 -11)">27</text></g></g></g></g></g></svg>
