<svg baseProfile="full" height="200" version="1.1" width="800" xmlns="http://www.w3.org/2000/svg" xmlns:ev="http://www.w3.org/2001/xml-events" xmlns:xlink="http://www.w3.org/1999/xlink"><defs><style type="text/css"><![CDATA[.background path {fill: #808080; fill-opacity: 0}.background path:nth-child(odd) {fill-opacity: .1}.axes {font-size: 14px}.x-axis .tick .lab {font-weight: bold; dominant-baseline: hanging}.axes, .tree {font-size: 14px; text-anchor: middle}.axes line, .edge {stroke: black; fill: none}.y-axis .grid {stroke: #FAFAFA}.node > .sym {fill: black; stroke: none}.site > .sym {stroke: black}.mut text {fill: red; font-style: italic}.mut.extra text {fill: hotpink}.mut line {fill: none; stroke: none}.mut .sym {fill: none; stroke: red}.mut.extra .sym {stroke: hotpink}.node .mut .sym {stroke-width: 1.5px}.tree text, .tree-sequence text {dominant-baseline: central}.plotbox .lab.lft {text-anchor: end}.plotbox .lab.rgt {text-anchor: start}]]></style></defs><g class="tree-sequence"><g class="background"><path d="M20,0 l190,0 l0,138.2 l288.87,25 l0,5 l-478.87,0 l0,-5 l0,-25 l0,-138.2z" /><path d="M210,0 l190,0 l0,138.2 l222.889,25 l0,5 l-124.019,0 l0,-5 l-288.87,-25 l0,-138.2z" /><path d="M400,0 l190,0 l0,138.2 l104.87,25 l0,5 l-71.9813,0 l0,-5 l-222.889,-25 l0,-138.2z" /><path d="M590,0 l190,0 l0,138.2 l0,25 l0,5 l-85.1297,0 l0,-5 l-104.87,-25 l0,-138.2z" /></g><g class="axes"><g class="x-axis"><g transform="translate(400 200)"><text class="lab" text-anchor="middle" transform="translate(0 -11)">Genome position</text></g><line x1="20" x2="780" y1="163.2" y2="163.2" /><g class="ticks"><g class="tick" transform="translate(20 163.2)"><line x1="0" x2="0" y1="0" y2="5" /><g transform="translate(0 6)"><text class="lab">0.00</text></g></g><g class="tick" transform="translate(498.87 163.2)"><line x1="0" x2="0" y1="0" y2="5" /><g transform="translate(0 6)"><text class="lab">630.09</text></g></g><g class="tick" transform="translate(622.889 163.2)"><line x1="0" x2="0" y1="0" y2="5" /><g transform="translate(0 6)"><text class="lab">793.28</text></g></g><g class="tick" transform="translate(694.87 163.2)"><line x1="0" x2="0" y1="0" y2="5" /><g transform="translate(0 6)"><text class="lab">887.99</text></g></g><g class="tick" transform="translate(780 163.2)"><line x1="0" x2="0" y1="0" y2="5" /><g transform="translate(0 6)"><text class="lab">1000.00</text></g></g></g></g></g><g class="plotbox trees"><g class="tree t0" transform="translate(20 0)"><g class="plotbox"><g class="c2 node n27 p0 root" transform="translate(114.688 26.8)"><g class="a27 c2 node n23 p0" transform="translate(-36.5625 44.9485)"><g class="a23 c2 node n20 p0" transform="translate(-28.125 20.9008)"><g class="a20 c2 node n10 p0" transform="translate(15 27.7429)"><g class="a10 leaf node n2 p0 sample" transform="translate(-7.5 1.00783)"><path class="edge" d="M 0 0 V -1.00783 H 7.5" /><rect class="sym" height="6" width="6" x="-3" y="-3" /><text class="lab" transform="translate(0 11)">2</text></g><g class="a10 leaf node n4 p0 sample" transform="translate(7.5 1.00783)"><path class="edge" d="M 0 0 V -1.00783 H -7.5" /><rect class="sym" height="6" width="6" x="-3" y="-3" /><text class="lab" transform="translate(0 11)">4</text></g><path class="edge" d="M 0 0 V -27.7429 H -15" /><circle class="sym" cx="0" cy="0" r="3" /><text class="lab rgt" transform="translate(3 -7.0)">10</text></g><g class="a20 c1 node n18 p0" transform="translate(-15 11.7638)"><g class="a18 c1 node n15 p0" transform="translate(0.0 5.26444)"><g class="a15 c2 node n13 p0" transform="translate(0.0 5.29404)"><g class="a13 leaf node n0 p0 sample" transform="translate(-7.5 6.42847)"><path class="edge" d="M 0 0 V -6.42847 H 7.5" /><rect class="sym" height="6" width="6" x="-3" y="-3" /><text class="lab" transform="translate(0 11)">0</text></g><g class="a13 leaf node n7 p0 sample" transform="translate(7.5 6.42847)"><path class="edge" d="M 0 0 V -6.42847 H -7.5" /><rect class="sym" height="6" width="6" x="-3" y="-3" /><text class="lab" transform="translate(0 11)">7</text></g><path class="edge" d="M 0 0 V -5.29404 H 0.0" /><circle class="sym" cx="0" cy="0" r="3" /><text class="lab lft" transform="translate(-3 -7.0)">13</text></g><path class="edge" d="M 0 0 V -5.26444 H 0.0" /><circle class="sym" cx="0" cy="0" r="3" /><text class="lab lft" transform="translate(-3 -7.0)">15</text></g><path class="edge" d="M 0 0 V -11.7638 H 15" /><circle class="sym" cx="0" cy="0" r="3" /><text class="lab lft" transform="translate(-3 -7.0)">18</text></g><path class="edge" d="M 0 0 V -20.9008 H 28.125" /><circle class="sym" cx="0" cy="0" r="3" /><text class="lab lft" transform="translate(-3 -7.0)">20</text></g><g class="a23 c2 node n21 p0" transform="translate(28.125 12.9167)"><g class="a21 c2 node n14 p0" transform="translate(-11.25 25.1171)"><g class="a14 leaf node n3 p0 sample" transform="translate(-7.5 11.6177)"><path class="edge" d="M 0 0 V -11.6177 H 7.5" /><rect class="sym" height="6" width="6" x="-3" y="-3" /><text class="lab" transform="translate(0 11)">3</text></g><g class="a14 leaf node n5 p0 sample" transform="translate(7.5 11.6177)"><path class="edge" d="M 0 0 V -11.6177 H -7.5" /><rect class="sym" height="6" width="6" x="-3" y="-3" /><text class="lab" transform="translate(0 11)">5</text></g><path class="edge" d="M 0 0 V -25.1171 H 11.25" /><circle class="sym" cx="0" cy="0" r="3" /><text class="lab lft" transform="translate(-3 -7.0)">14</text></g><g class="a21 c1 node n16 p0" transform="translate(11.25 23.2509)"><g class="a16 leaf node n9 p0 sample" transform="translate(0.0 13.4839)"><path class="edge" d="M 0 0 V -13.4839 H 0.0" /><rect class="sym" height="6" width="6" x="-3" y="-3" /><text class="lab" transform="translate(0 11)">9</text></g><path class="edge" d="M 0 0 V -23.2509 H -11.25" /><circle class="sym" cx="0" cy="0" r="3" /><text class="lab rgt" transform="translate(3 -7.0)">16</text></g><path class="edge" d="M 0 0 V -12.9167 H -28.125" /><circle class="sym" cx="0" cy="0" r="3" /><text class="lab rgt" transform="translate(3 -7.0)">21</text></g><path class="edge" d="M 0 0 V -44.9485 H 36.5625" /><circle class="sym" cx="0" cy="0" r="3" /><text class="lab lft" transform="translate(-3 -7.0)">23</text></g><g class="a27 c2 node n26 p0" transform="translate(36.5625 10.7958)"><g class="a26 c1 node n11 p0" transform="translate(11.25 78.6323)"><g class="a11 leaf node n6 p0 sample" transform="translate(0.0 5.17183)"><path class="edge" d="M 0 0 V -5.17183 H 0.0" /><rect class="sym" height="6" width="6" x="-3" y="-3" /><text class="lab" transform="translate(0 11)">6</text></g><path class="edge" d="M 0 0 V -78.6323 H -11.25" /><circle class="sym" cx="0" cy="0" r="3" /><text class="lab rgt" transform="translate(3 -7.0)">11</text></g><g class="a26 c1 node n25 p0" transform="translate(-11.25 3.12675)"><g class="a25 c2 node n22 p0" transform="translate(0.0 33.0066)"><g class="a22 leaf node n1 p0 sample" transform="translate(-7.5 47.6709)"><path class="edge" d="M 0 0 V -47.6709 H 7.5" /><rect class="sym" height="6" width="6" x="-3" y="-3" /><text class="lab" transform="translate(0 11)">1</text></g><g class="a22 leaf node n8 p0 sample" transform="translate(7.5 47.6709)"><path class="edge" d="M 0 0 V -47.6709 H -7.5" /><rect class="sym" height="6" width="6" x="-3" y="-3" /><text class="lab" transform="translate(0 11)">8</text></g><path class="edge" d="M 0 0 V -33.0066 H 0.0" /><circle class="sym" cx="0" cy="0" r="3" /><text class="lab lft" transform="translate(-3 -7.0)">22</text></g><path class="edge" d="M 0 0 V -3.12675 H 11.25" /><circle class="sym" cx="0" cy="0" r="3" /><text class="lab lft" transform="translate(-3 -7.0)">25</text></g><path class="edge" d="M 0 0 V -10.7958 H -36.5625" /><circle class="sym" cx="0" cy="0" r="3" /><text class="lab rgt" transform="translate(3 -7.0)">26</text></g><circle class="sym" cx="0" cy="0" r="3" /><text class="lab" transform="translate(0 -11)">27</text></g></g></g><g class="tree t1" transform="translate(210 0)"><g class="plotbox"><g class="c2 node n27 p0 root" transform="translate(99.6875 26.8)"><g class="a27 c2 node n23 p0" transform="translate(30.9375 44.9485)"><g class="a23 c1 node n20 p0" transform="translate(-20.625 20.9008)"><g class="a20 c2 node n10 p0" transform="translate(0.0 27.7429)"><g class="a10 leaf node n2 p0 sample" transform="translate(-7.5 1.00783)"><path class="edge" d="M 0 0 V -1.00783 H 7.5" /><rect class="sym" height="6" width="6" x="-3" y="-3" /><text class="lab" transform="translate(0 11)">2</text></g><g class="a10 leaf node n4 p0 sample" transform="translate(7.5 1.00783)"><path class="edge" d="M 0 0 V -1.00783 H -7.5" /><rect class="sym" height="6" width="6" x="-3" y="-3" /><text class="lab" transform="translate(0 11)">4</text></g><path class="edge" d="M 0 0 V -27.7429 H 0.0" /><circle class="sym" cx="0" cy="0" r="3" /><text class="lab lft" transform="translate(-3 -7.0)">10</text></g><path class="edge" d="M 0 0 V -20.9008 H 20.625" /><circle class="sym" cx="0" cy="0" r="3" /><text class="lab lft" transform="translate(-3 -7.0)">20</text></g><g class="a23 c2 node n21 p0" transform="translate(20.625 12.9167)"><g class="a21 c2 node n14 p0" transform="translate(-11.25 25.1171)"><g class="a14 leaf node n3 p0 sample" transform="translate(-7.5 11.6177)"><path class="edge" d="M 0 0 V -11.6177 H 7.5" /><rect class="sym" height="6" width="6" x="-3" y="-3" /><text class="lab" transform="translate(0 11)">3</text></g><g class="a14 leaf node n5 p0 sample" transform="translate(7.5 11.6177)"><path class="edge" d="M 0 0 V -11.6177 H -7.5" /><rect class="sym" height="6" width="6" x="-3" y="-3" /><text class="lab" transform="translate(0 11)">5</text></g><path class="edge" d="M 0 0 V -25.1171 H 11.25" /><circle class="sym" cx="0" cy="0" r="3" /><text class="lab lft" transform="translate(-3 -7.0)">14</text></g><g class="a21 c1 node n16 p0" transform="translate(11.25 23.2509)"><g class="a16 leaf node n9 p0 sample" transform="translate(0.0 13.4839)"><path class="edge" d="M 0 0 V -13.4839 H 0.0" /><rect class="sym" height="6" width="6" x="-3" y="-3" /><text class="lab" transform="translate(0 11)">9</text></g><path class="edge" d="M 0 0 V -23.2509 H -11.25" /><circle class="sym" cx="0" cy="0" r="3" /><text class="lab rgt" transform="translate(3 -7.0)">16</text></g><path class="edge" d="M 0 0 V -12.9167 H -20.625" /><circle class="sym" cx="0" cy="0" r="3" /><text class="lab rgt" transform="translate(3 -7.0)">21</text></g><path class="edge" d="M 0 0 V -44.9485 H -30.9375" /><circle class="sym" cx="0" cy="0" r="3" /><text class="lab rgt" transform="translate(3 -7.0)">23</text></g><g class="a27 c2 node n26 p0" transform="translate(-30.9375 10.7958)"><g class="a26 c1 node n11 p0" transform="translate(18.75 78.6323)"><g class="a11 leaf node n6 p0 sample" transform="translate(0.0 5.17183)"><path class="edge" d="M 0 0 V -5.17183 H 0.0" /><rect class="sym" height="6" width="6" x="-3" y="-3" /><text class="lab" transform="translate(0 11)">6</text></g><path class="edge" d="M 0 0 V -78.6323 H -18.75" /><circle class="sym" cx="0" cy="0" r="3" /><text class="lab rgt" transform="translate(3 -7.0)">11</text></g><g class="a26 c2 node n25 p0" transform="translate(-18.75 3.12675)"><g class="a25 c2 node n22 p0" transform="translate(15 33.0066)"><g class="a22 leaf node n1 p0 sample" transform="translate(-7.5 47.6709)"><path class="edge" d="M 0 0 V -47.6709 H 7.5" /><rect class="sym" height="6" width="6" x="-3" y="-3" /><text class="lab" transform="translate(0 11)">1</text></g><g class="a22 leaf node n8 p0 sample" transform="translate(7.5 47.6709)"><path class="edge" d="M 0 0 V -47.6709 H -7.5" /><rect class="sym" height="6" width="6" x="-3" y="-3" /><text class="lab" transform="translate(0 11)">8</text></g><path class="edge" d="M 0 0 V -33.0066 H -15" /><circle class="sym" cx="0" cy="0" r="3" /><text class="lab rgt" transform="translate(3 -7.0)">22</text></g><g class="a25 c1 node n24 p0" transform="translate(-15 0.639828)"><g class="a24 c1 node n19 p0" transform="translate(0.0 63.0506)"><g class="a19 c1 node n15 p0" transform="translate(0.0 5.26444)"><g class="a15 c2 node n13 p0" transform="translate(0.0 5.29404)"><g class="a13 leaf node n0 p0 sample" transform="translate(-7.5 6.42847)"><path class="edge" d="M 0 0 V -6.42847 H 7.5" /><rect class="sym" height="6" width="6" x="-3" y="-3" /><text class="lab" transform="translate(0 11)">0</text></g><g class="a13 leaf node n7 p0 sample" transform="translate(7.5 6.42847)"><path class="edge" d="M 0 0 V -6.42847 H -7.5" /><rect class="sym" height="6" width="6" x="-3" y="-3" /><text class="lab" transform="translate(0 11)">7</text></g><path class="edge" d="M 0 0 V -5.29404 H 0.0" /><circle class="sym" cx="0" cy="0" r="3" /><text class="lab lft" transform="translate(-3 -7.0)">13</text></g><path class="edge" d="M 0 0 V -5.26444 H 0.0" /><circle class="sym" cx="0" cy="0" r="3" /><text class="lab lft" transform="translate(-3 -7.0)">15</text></g><path class="edge" d="M 0 0 V -63.0506 H 0.0" /><circle class="sym" cx="0" cy="0" r="3" /><text class="lab lft" transform="translate(-3 -7.0)">19</text></g><path class="edge" d="M 0 0 V -0.639828 H 15" /><circle class="sym" cx="0" cy="0" r="3" /><text class="lab lft" transform="translate(-3 -7.0)">24</text></g><path class="edge" d="M 0 0 V -3.12675 H 18.75" /><circle class="sym" cx="0" cy="0" r="3" /><text class="lab lft" transform="translate(-3 -7.0)">25</text></g><path class="edge" d="M 0 0 V -10.7958 H 30.9375" /><circle class="sym" cx="0" cy="0" r="3" /><text class="lab lft" transform="translate(-3 -7.0)">26</text></g><circle class="sym" cx="0" cy="0" r="3" /><text class="lab" transform="translate(0 -11)">27</text></g></g></g><g class="tree t2" transform="translate(400 0)"><g class="plotbox"><g class="c2 node n27 p0 root" transform="translate(96.875 26.8)"><g class="a27 c2 node n23 p0" transform="translate(33.75 44.9485)"><g class="a23 c1 node n20 p0" transform="translate(-20.625 20.9008)"><g class="a20 c2 node n10 p0" transform="translate(0.0 27.7429)"><g class="a10 leaf node n2 p0 sample" transform="translate(-7.5 1.00783)"><path class="edge" d="M 0 0 V -1.00783 H 7.5" /><rect class="sym" height="6" width="6" x="-3" y="-3" /><text class="lab" transform="translate(0 11)">2</text></g><g class="a10 leaf node n4 p0 sample" transform="translate(7.5 1.00783)"><path class="edge" d="M 0 0 V -1.00783 H -7.5" /><rect class="sym" height="6" width="6" x="-3" y="-3" /><text class="lab" transform="translate(0 11)">4</text></g><path class="edge" d="M 0 0 V -27.7429 H 0.0" /><circle class="sym" cx="0" cy="0" r="3" /><text class="lab lft" transform="translate(-3 -7.0)">10</text></g><path class="edge" d="M 0 0 V -20.9008 H 20.625" /><circle class="sym" cx="0" cy="0" r="3" /><text class="lab lft" transform="translate(-3 -7.0)">20</text></g><g class="a23 c2 node n21 p0" transform="translate(20.625 12.9167)"><g class="a21 c2 node n14 p0" transform="translate(-11.25 25.1171)"><g class="a14 leaf node n3 p0 sample" transform="translate(-7.5 11.6177)"><path class="edge" d="M 0 0 V -11.6177 H 7.5" /><rect class="sym" height="6" width="6" x="-3" y="-3" /><text class="lab" transform="translate(0 11)">3</text></g><g class="a14 leaf node n5 p0 sample" transform="translate(7.5 11.6177)"><path class="edge" d="M 0 0 V -11.6177 H -7.5" /><rect class="sym" height="6" width="6" x="-3" y="-3" /><text class="lab" transform="translate(0 11)">5</text></g><path class="edge" d="M 0 0 V -25.1171 H 11.25" /><circle class="sym" cx="0" cy="0" r="3" /><text class="lab lft" transform="translate(-3 -7.0)">14</text></g><g class="a21 c1 node n16 p0" transform="translate(11.25 23.2509)"><g class="a16 leaf node n9 p0 sample" transform="translate(0.0 13.4839)"><path class="edge" d="M 0 0 V -13.4839 H 0.0" /><rect class="sym" height="6" width="6" x="-3" y="-3" /><text class="lab" transform="translate(0 11)">9</text></g><path class="edge" d="M 0 0 V -23.2509 H -11.25" /><circle class="sym" cx="0" cy="0" r="3" /><text class="lab rgt" transform="translate(3 -7.0)">16</text></g><path class="edge" d="M 0 0 V -12.9167 H -20.625" /><circle class="sym" cx="0" cy="0" r="3" /><text class="lab rgt" transform="translate(3 -7.0)">21</text></g><path class="edge" d="M 0 0 V -44.9485 H -33.75" /><circle class="sym" cx="0" cy="0" r="3" /><text class="lab rgt" transform="translate(3 -7.0)">23</text></g><g class="a27 c1 node n26 p0" transform="translate(-33.75 10.7958)"><g class="a26 c2 node n25 p0" transform="translate(0.0 3.12675)"><g class="a25 c2 node n22 p0" transform="translate(16.875 33.0066)"><g class="a22 leaf node n1 p0 sample" transform="translate(-7.5 47.6709)"><path class="edge" d="M 0 0 V -47.6709 H 7.5" /><rect class="sym" height="6" width="6" x="-3" y="-3" /><text class="lab" transform="translate(0 11)">1</text></g><g class="a22 leaf node n8 p0 sample" transform="translate(7.5 47.6709)"><path class="edge" d="M 0 0 V -47.6709 H -7.5" /><rect class="sym" height="6" width="6" x="-3" y="-3" /><text class="lab" transform="translate(0 11)">8</text></g><path class="edge" d="M 0 0 V -33.0066 H -16.875" /><circle class="sym" cx="0" cy="0" r="3" /><text class="lab rgt" transform="translate(3 -7.0)">22</text></g><g class="a25 c1 node n24 p0" transform="translate(-16.875 0.639828)"><g class="a24 c1 node n19 p0" transform="translate(0.0 63.0506)"><g class="a19 c2 node n15 p0" transform="translate(0.0 5.26444)"><g class="a15 c2 node n13 p0" transform="translate(-11.25 5.29404)"><g class="a13 leaf node n0 p0 sample" transform="translate(-7.5 6.42847)"><path class="edge" d="M 0 0 V -6.42847 H 7.5" /><rect class="sym" height="6" width="6" x="-3" y="-3" /><text class="lab" transform="translate(0 11)">0</text></g><g class="a13 leaf node n7 p0 sample" transform="translate(7.5 6.42847)"><path class="edge" d="M 0 0 V -6.42847 H -7.5" /><rect class="sym" height="6" width="6" x="-3" y="-3" /><text class="lab" transform="translate(0 11)">7</text></g><path class="edge" d="M 0 0 V -5.29404 H 11.25" /><circle class="sym" cx="0" cy="0" r="3" /><text class="lab lft" transform="translate(-3 -7.0)">13</text></g><g class="a15 c1 node n12 p0" transform="translate(11.25 6.55067)"><g class="a12 leaf node n6 p0 sample" transform="translate(0.0 5.17183)"><path class="edge" d="M 0 0 V -5.17183 H 0.0" /><rect class="sym" height="6" width="6" x="-3" y="-3" /><text class="lab" transform="translate(0 11)">6</text></g><path class="edge" d="M 0 0 V -6.55067 H -11.25" /><circle class="sym" cx="0" cy="0" r="3" /><text class="lab rgt" transform="translate(3 -7.0)">12</text></g><path class="edge" d="M 0 0 V -5.26444 H 0.0" /><circle class="sym" cx="0" cy="0" r="3" /><text class="lab lft" transform="translate(-3 -7.0)">15</text></g><path class="edge" d="M 0 0 V -63.0506 H 0.0" /><circle class="sym" cx="0" cy="0" r="3" /><text class="lab lft" transform="translate(-3 -7.0)">19</text></g><path class="edge" d="M 0 0 V -0.639828 H 16.875" /><circle class="sym" cx="0" cy="0" r="3" /><text class="lab lft" transform="translate(-3 -7.0)">24</text></g><path class="edge" d="M 0 0 V -3.12675 H 0.0" /><circle class="sym" cx="0" cy="0" r="3" /><text class="lab lft" transform="translate(-3 -7.0)">25</text></g><path class="edge" d="M 0 0 V -10.7958 H 33.75" /><circle class="sym" cx="0" cy="0" r="3" /><text class="lab lft" transform="translate(-3 -7.0)">26</text></g><circle class="sym" cx="0" cy="0" r="3" /><text class="lab" transform="translate(0 -11)">27</text></g></g></g><g class="tree t3" transform="translate(590 0)"><g class="plotbox"><g class="c2 node n27 p0 root" transform="translate(108.594 26.8)"><g class="a27 c2 node n23 p0" transform="translate(31.4062 44.9485)"><g class="a23 c1 node n20 p0" transform="translate(-15 20.9008)"><g class="a20 c2 node n10 p0" transform="translate(0.0 27.7429)"><g class="a10 leaf node n2 p0 sample" transform="translate(-7.5 1.00783)"><path class="edge" d="M 0 0 V -1.00783 H 7.5" /><rect class="sym" height="6" width="6" x="-3" y="-3" /><text class="lab" transform="translate(0 11)">2</text></g><g class="a10 leaf node n4 p0 sample" transform="translate(7.5 1.00783)"><path class="edge" d="M 0 0 V -1.00783 H -7.5" /><rect class="sym" height="6" width="6" x="-3" y="-3" /><text class="lab" transform="translate(0 11)">4</text></g><path class="edge" d="M 0 0 V -27.7429 H 0.0" /><circle class="sym" cx="0" cy="0" r="3" /><text class="lab lft" transform="translate(-3 -7.0)">10</text></g><path class="edge" d="M 0 0 V -20.9008 H 15" /><circle class="sym" cx="0" cy="0" r="3" /><text class="lab lft" transform="translate(-3 -7.0)">20</text></g><g class="a23 c1 node n21 p0" transform="translate(15 12.9167)"><g class="a21 c2 node n14 p0" transform="translate(0.0 25.1171)"><g class="a14 leaf node n3 p0 sample" transform="translate(-7.5 11.6177)"><path class="edge" d="M 0 0 V -11.6177 H 7.5" /><rect class="sym" height="6" width="6" x="-3" y="-3" /><text class="lab" transform="translate(0 11)">3</text></g><g class="a14 leaf node n5 p0 sample" transform="translate(7.5 11.6177)"><path class="edge" d="M 0 0 V -11.6177 H -7.5" /><rect class="sym" height="6" width="6" x="-3" y="-3" /><text class="lab" transform="translate(0 11)">5</text></g><path class="edge" d="M 0 0 V -25.1171 H 0.0" /><circle class="sym" cx="0" cy="0" r="3" /><text class="lab lft" transform="translate(-3 -7.0)">14</text></g><path class="edge" d="M 0 0 V -12.9167 H -15" /><circle class="sym" cx="0" cy="0" r="3" /><text class="lab rgt" transform="translate(3 -7.0)">21</text></g><path class="edge" d="M 0 0 V -44.9485 H -31.4062" /><circle class="sym" cx="0" cy="0" r="3" /><text class="lab rgt" transform="translate(3 -7.0)">23</text></g><g class="a27 c1 node n26 p0" transform="translate(-31.4062 10.7958)"><g class="a26 c2 node n25 p0" transform="translate(0.0 3.12675)"><g class="a25 c2 node n22 p0" transform="translate(17.8125 33.0066)"><g class="a22 leaf node n1 p0 sample" transform="translate(-7.5 47.6709)"><path class="edge" d="M 0 0 V -47.6709 H 7.5" /><rect class="sym" height="6" width="6" x="-3" y="-3" /><text class="lab" transform="translate(0 11)">1</text></g><g class="a22 leaf node n8 p0 sample" transform="translate(7.5 47.6709)"><path class="edge" d="M 0 0 V -47.6709 H -7.5" /><rect class="sym" height="6" width="6" x="-3" y="-3" /><text class="lab" transform="translate(0 11)">8</text></g><path class="edge" d="M 0 0 V -33.0066 H -17.8125" /><circle class="sym" cx="0" cy="0" r="3" /><text class="lab rgt" transform="translate(3 -7.0)">22</text></g><g class="a25 c2 node n24 p0" transform="translate(-17.8125 0.639828)"><g class="a24 c1 node n19 p0" transform="translate(-13.125 63.0506)"><g class="a19 c2 node n15 p0" transform="translate(0.0 5.26444)"><g class="a15 c2 node n13 p0" transform="translate(-11.25 5.29404)"><g class="a13 leaf node n0 p0 sample" transform="translate(-7.5 6.42847)"><path class="edge" d="M 0 0 V -6.42847 H 7.5" /><rect class="sym" height="6" width="6" x="-3" y="-3" /><text class="lab" transform="translate(0 11)">0</text></g><g class="a13 leaf node n7 p0 sample" transform="translate(7.5 6.42847)"><path class="edge" d="M 0 0 V -6.42847 H -7.5" /><rect class="sym" height="6" width="6" x="-3" y="-3" /><text class="lab" transform="translate(0 11)">7</text></g><path class="edge" d="M 0 0 V -5.29404 H 11.25" /><circle class="sym" cx="0" cy="0" r="3" /><text class="lab lft" transform="translate(-3 -7.0)">13</text></g><g class="a15 c1 node n12 p0" transform="translate(11.25 6.55067)"><g class="a12 leaf node n6 p0 sample" transform="translate(0.0 5.17183)"><path class="edge" d="M 0 0 V -5.17183 H 0.0" /><rect class="sym" height="6" width="6" x="-3" y="-3" /><text class="lab" transform="translate(0 11)">6</text></g><path class="edge" d="M 0 0 V -6.55067 H -11.25" /><circle class="sym" cx="0" cy="0" r="3" /><text class="lab rgt" transform="translate(3 -7.0)">12</text></g><path class="edge" d="M 0 0 V -5.26444 H 0.0" /><circle class="sym" cx="0" cy="0" r="3" /><text class="lab lft" transform="translate(-3 -7.0)">15</text></g><path class="edge" d="M 0 0 V -63.0506 H 13.125" /><circle class="sym" cx="0" cy="0" r="3" /><text class="lab lft" transform="translate(-3 -7.0)">19</text></g><g class="a24 c1 node n17 p0" transform="translate(13.125 66.5536)"><g class="a17 leaf node n9 p0 sample" transform="translate(0.0 13.4839)"><path class="edge" d="M 0 0 V -13.4839 H 0.0" /><rect class="sym" height="6" width="6" x="-3" y="-3" /><text class="lab" transform="translate(0 11)">9</text></g><path class="edge" d="M 0 0 V -66.5536 H -13.125" /><circle class="sym" cx="0" cy="0" r="3" /><text class="lab rgt" transform="translate(3 -7.0)">17</text></g><path class="edge" d="M 0 0 V -0.639828 H 17.8125" /><circle class="sym" cx="0" cy="0" r="3" /><text class="lab lft" transform="translate(-3 -7.0)">24</text></g><path class="edge" d="M 0 0 V -3.12675 H 0.0" /><circle class="sym" cx="0" cy="0" r="3" /><text class="lab lft" transform="translate(-3 -7.0)">25</text></g><path class="edge" d="M 0 0 V -10.7958 H 31.4062" /><circle class="sym" cx="0" cy="0" r="3" /><text class="lab lft" transform="translate(-3 -7.0)">26</text></g><circle class="sym" cx="0" cy="0" r="3" /><text class="lab" transform="translate(0 -11)">27</text></g></g></g></g></g></svg>
