<svg baseProfile="full" height="200" version="1.1" width="1200" xmlns="http://www.w3.org/2000/svg" xmlns:ev="http://www.w3.org/2001/xml-events" xmlns:xlink="http://www.w3.org/1999/xlink"><defs><style type="text/css"><![CDATA[.background path {fill: #808080; fill-opacity: 0}.background path:nth-child(odd) {fill-opacity: .1}.axes {font-size: 14px}.x-axis .tick .lab {font-weight: bold; dominant-baseline: hanging}.axes, .tree {font-size: 14px; text-anchor: middle}.axes line, .edge {stroke: black; fill: none}.y-axis .grid {stroke: #FAFAFA}.node > .sym {fill: black; stroke: none}.site > .sym {stroke: black}.mut text {fill: red; font-style: italic}.mut.extra text {fill: hotpink}.mut line {fill: none; stroke: none}.mut .sym {fill: none; stroke: red}.mut.extra .sym {stroke: hotpink}.node .mut .sym {stroke-width: 1.5px}.tree text, .tree-sequence text {dominant-baseline: central}.plotbox .lab.lft {text-anchor: end}.plotbox .lab.rgt {text-anchor: start}]]></style></defs><g class="tree-sequence"><g class="background"><path d="M20,0 l193.333,0 l0,138.2 l-62.0668,25 l0,5 l-131.267,0 l0,-5 l0,-25 l0,-138.2z" /><path d="M213.333,0 l193.333,0 l0,138.2 l-118.298,25 l0,5 l-137.102,0 l0,-5 l62.0668,-25 l0,-138.2z" /><path d="M406.667,0 l193.333,0 l0,138.2 l-282.963,25 l0,5 l-28.6689,0 l0,-5 l118.298,-25 l0,-138.2z" /><path d="M600,0 l193.333,0 l0,138.2 l-311.859,25 l0,5 l-164.437,0 l0,-5 l282.963,-25 l0,-138.2z" /><path d="M793.333,0 l193.333,0 l0,138.2 l-141.264,25 l0,5 l-363.928,0 l0,-5 l311.859,-25 l0,-138.2z" /><path d="M986.667,0 l193.333,0 l0,138.2 l0,25 l0,5 l-334.597,0 l0,-5 l141.264,-25 l0,-138.2z" /></g><g class="axes"><g class="x-axis"><g transform="translate(600 200)"><text class="lab" text-anchor="middle" transform="translate(0 -11)">Genome position</text></g><line x1="20" x2="1180" y1="163.2" y2="163.2" /><g class="ticks"><g class="tick" transform="translate(20 163.2)"><line x1="0" x2="0" y1="0" y2="5" /><g transform="translate(0 6)"><text class="lab">0.00</text></g></g><g class="tick" transform="translate(151.267 163.2)"><line x1="0" x2="0" y1="0" y2="5" /><g transform="translate(0 6)"><text class="lab">113.16</text></g></g><g class="tick" transform="translate(288.368 163.2)"><line x1="0" x2="0" y1="0" y2="5" /><g transform="translate(0 6)"><text class="lab">231.35</text></g></g><g class="tick" transform="translate(317.037 163.2)"><line x1="0" x2="0" y1="0" y2="5" /><g transform="translate(0 6)"><text class="lab">256.07</text></g></g><g class="tick" transform="translate(481.474 163.2)"><line x1="0" x2="0" y1="0" y2="5" /><g transform="translate(0 6)"><text class="lab">397.82</text></g></g><g class="tick" transform="translate(845.403 163.2)"><line x1="0" x2="0" y1="0" y2="5" /><g transform="translate(0 6)"><text class="lab">711.55</text></g></g><g class="tick" transform="translate(1180 163.2)"><line x1="0" x2="0" y1="0" y2="5" /><g transform="translate(0 6)"><text class="lab">1000.00</text></g></g></g></g></g><g class="plotbox trees"><g class="tree t0" transform="translate(20 0)"><g class="plotbox"><g class="c2 node n33 p0 root" transform="translate(91.3958 26.8)"><g class="a33 c2 node n31 p0" transform="translate(27.3125 40.75)"><g class="a31 c1 node n18 p0" transform="translate(-14.375 45.1056)"><g class="a18 c1 node n10 p0" transform="translate(0.0 8.13731)"><g class="a10 leaf node n2 p0 sample" transform="translate(0.0 0.607034)"><path class="edge" d="M 0 0 V -0.607034 H 0.0" /><rect class="sym" height="6" width="6" x="-3" y="-3" /><text class="lab" transform="translate(0 11)">2</text></g><path class="edge" d="M 0 0 V -8.13731 H 0.0" /><circle class="sym" cx="0" cy="0" r="3" /><text class="lab lft" transform="translate(-3 -7.0)">10</text></g><path class="edge" d="M 0 0 V -45.1056 H 14.375" /><circle class="sym" cx="0" cy="0" r="3" /><text class="lab lft" transform="translate(-3 -7.0)">18</text></g><g class="a31 c2 node n27 p0" transform="translate(14.375 14.3021)"><g class="a27 leaf node n4 p0 sample" transform="translate(-13.4167 39.5479)"><path class="edge" d="M 0 0 V -39.5479 H 13.4167" /><rect class="sym" height="6" width="6" x="-3" y="-3" /><text class="lab" transform="translate(0 11)">4</text></g><g class="a27 c1 node n26 p0" transform="translate(13.4167 1.94705)"><g class="a26 c2 node n25 p0" transform="translate(0.0 2.25687)"><g class="a25 c1 node n14 p0" transform="translate(-11.5 30.3345)"><g class="a14 leaf node n5 p0 sample" transform="translate(0.0 5.00945)"><path class="edge" d="M 0 0 V -5.00945 H 0.0" /><rect class="sym" height="6" width="6" x="-3" y="-3" /><text class="lab" transform="translate(0 11)">5</text></g><path class="edge" d="M 0 0 V -30.3345 H 11.5" /><circle class="sym" cx="0" cy="0" r="3" /><text class="lab lft" transform="translate(-3 -7.0)">14</text></g><g class="a25 c1 node n23 p0" transform="translate(11.5 15.3441)"><g class="a23 c2 node n12 p0" transform="translate(0.0 17.9315)"><g class="a12 leaf node n7 p0 sample" transform="translate(-7.66667 2.06836)"><path class="edge" d="M 0 0 V -2.06836 H 7.66667" /><rect class="sym" height="6" width="6" x="-3" y="-3" /><text class="lab" transform="translate(0 11)">7</text></g><g class="a12 leaf node n8 p0 sample" transform="translate(7.66667 2.06836)"><path class="edge" d="M 0 0 V -2.06836 H -7.66667" /><rect class="sym" height="6" width="6" x="-3" y="-3" /><text class="lab" transform="translate(0 11)">8</text></g><path class="edge" d="M 0 0 V -17.9315 H 0.0" /><circle class="sym" cx="0" cy="0" r="3" /><text class="lab lft" transform="translate(-3 -7.0)">12</text></g><path class="edge" d="M 0 0 V -15.3441 H -11.5" /><circle class="sym" cx="0" cy="0" r="3" /><text class="lab rgt" transform="translate(3 -7.0)">23</text></g><path class="edge" d="M 0 0 V -2.25687 H 0.0" /><circle class="sym" cx="0" cy="0" r="3" /><text class="lab lft" transform="translate(-3 -7.0)">25</text></g><path class="edge" d="M 0 0 V -1.94705 H -13.4167" /><circle class="sym" cx="0" cy="0" r="3" /><text class="lab rgt" transform="translate(3 -7.0)">26</text></g><path class="edge" d="M 0 0 V -14.3021 H -14.375" /><circle class="sym" cx="0" cy="0" r="3" /><text class="lab rgt" transform="translate(3 -7.0)">27</text></g><path class="edge" d="M 0 0 V -40.75 H -27.3125" /><circle class="sym" cx="0" cy="0" r="3" /><text class="lab rgt" transform="translate(3 -7.0)">31</text></g><g class="a33 c1 node n32 p0" transform="translate(-27.3125 28.264)"><g class="a32 c2 node n30 p0" transform="translate(0.0 18.8185)"><g class="a30 c2 node n17 p0" transform="translate(17.25 40.3952)"><g class="a17 leaf node n9 p0 sample" transform="translate(7.66667 7.12237)"><path class="edge" d="M 0 0 V -7.12237 H -7.66667" /><rect class="sym" height="6" width="6" x="-3" y="-3" /><text class="lab" transform="translate(0 11)">9</text></g><g class="a17 c1 node n13 p0" transform="translate(-7.66667 3.07374)"><g class="a13 leaf node n1 p0 sample" transform="translate(0.0 4.04863)"><path class="edge" d="M 0 0 V -4.04863 H 0.0" /><rect class="sym" height="6" width="6" x="-3" y="-3" /><text class="lab" transform="translate(0 11)">1</text></g><path class="edge" d="M 0 0 V -3.07374 H 7.66667" /><circle class="sym" cx="0" cy="0" r="3" /><text class="lab lft" transform="translate(-3 -7.0)">13</text></g><path class="edge" d="M 0 0 V -40.3952 H -17.25" /><circle class="sym" cx="0" cy="0" r="3" /><text class="lab rgt" transform="translate(3 -7.0)">17</text></g><g class="a30 c1 node n28 p0" transform="translate(-17.25 2.1825)"><g class="a28 c2 node n24 p0" transform="translate(0.0 14.9546)"><g class="a24 c2 node n16 p0" transform="translate(-11.5 24.8756)"><g class="a16 leaf node n0 p0 sample" transform="translate(-7.66667 5.5049)"><path class="edge" d="M 0 0 V -5.5049 H 7.66667" /><rect class="sym" height="6" width="6" x="-3" y="-3" /><text class="lab" transform="translate(0 11)">0</text></g><g class="a16 leaf node n3 p0 sample" transform="translate(7.66667 5.5049)"><path class="edge" d="M 0 0 V -5.5049 H -7.66667" /><rect class="sym" height="6" width="6" x="-3" y="-3" /><text class="lab" transform="translate(0 11)">3</text></g><path class="edge" d="M 0 0 V -24.8756 H 11.5" /><circle class="sym" cx="0" cy="0" r="3" /><text class="lab lft" transform="translate(-3 -7.0)">16</text></g><g class="a24 c1 node n20 p0" transform="translate(11.5 17.7151)"><g class="a20 leaf node n6 p0 sample" transform="translate(0.0 12.6654)"><path class="edge" d="M 0 0 V -12.6654 H 0.0" /><rect class="sym" height="6" width="6" x="-3" y="-3" /><text class="lab" transform="translate(0 11)">6</text></g><path class="edge" d="M 0 0 V -17.7151 H -11.5" /><circle class="sym" cx="0" cy="0" r="3" /><text class="lab rgt" transform="translate(3 -7.0)">20</text></g><path class="edge" d="M 0 0 V -14.9546 H 0.0" /><circle class="sym" cx="0" cy="0" r="3" /><text class="lab lft" transform="translate(-3 -7.0)">24</text></g><path class="edge" d="M 0 0 V -2.1825 H 17.25" /><circle class="sym" cx="0" cy="0" r="3" /><text class="lab lft" transform="translate(-3 -7.0)">28</text></g><path class="edge" d="M 0 0 V -18.8185 H 0.0" /><circle class="sym" cx="0" cy="0" r="3" /><text class="lab lft" transform="translate(-3 -7.0)">30</text></g><path class="edge" d="M 0 0 V -28.264 H 27.3125" /><circle class="sym" cx="0" cy="0" r="3" /><text class="lab lft" transform="translate(-3 -7.0)">32</text></g><circle class="sym" cx="0" cy="0" r="3" /><text class="lab" transform="translate(0 -11)">33</text></g></g></g><g class="tree t1" transform="translate(213.333 0)"><g class="plotbox"><g class="c2 node n33 p0 root" transform="translate(91.3958 26.8)"><g class="a33 c2 node n31 p0" transform="translate(27.3125 40.75)"><g class="a31 c1 node n18 p0" transform="translate(-14.375 45.1056)"><g class="a18 c1 node n10 p0" transform="translate(0.0 8.13731)"><g class="a10 leaf node n2 p0 sample" transform="translate(0.0 0.607034)"><path class="edge" d="M 0 0 V -0.607034 H 0.0" /><rect class="sym" height="6" width="6" x="-3" y="-3" /><text class="lab" transform="translate(0 11)">2</text></g><path class="edge" d="M 0 0 V -8.13731 H 0.0" /><circle class="sym" cx="0" cy="0" r="3" /><text class="lab lft" transform="translate(-3 -7.0)">10</text></g><path class="edge" d="M 0 0 V -45.1056 H 14.375" /><circle class="sym" cx="0" cy="0" r="3" /><text class="lab lft" transform="translate(-3 -7.0)">18</text></g><g class="a31 c2 node n27 p0" transform="translate(14.375 14.3021)"><g class="a27 leaf node n4 p0 sample" transform="translate(-13.4167 39.5479)"><path class="edge" d="M 0 0 V -39.5479 H 13.4167" /><rect class="sym" height="6" width="6" x="-3" y="-3" /><text class="lab" transform="translate(0 11)">4</text></g><g class="a27 c1 node n26 p0" transform="translate(13.4167 1.94705)"><g class="a26 c2 node n25 p0" transform="translate(0.0 2.25687)"><g class="a25 c1 node n14 p0" transform="translate(-11.5 30.3345)"><g class="a14 leaf node n5 p0 sample" transform="translate(0.0 5.00945)"><path class="edge" d="M 0 0 V -5.00945 H 0.0" /><rect class="sym" height="6" width="6" x="-3" y="-3" /><text class="lab" transform="translate(0 11)">5</text></g><path class="edge" d="M 0 0 V -30.3345 H 11.5" /><circle class="sym" cx="0" cy="0" r="3" /><text class="lab lft" transform="translate(-3 -7.0)">14</text></g><g class="a25 c1 node n23 p0" transform="translate(11.5 15.3441)"><g class="a23 c2 node n12 p0" transform="translate(0.0 17.9315)"><g class="a12 leaf node n7 p0 sample" transform="translate(-7.66667 2.06836)"><path class="edge" d="M 0 0 V -2.06836 H 7.66667" /><rect class="sym" height="6" width="6" x="-3" y="-3" /><text class="lab" transform="translate(0 11)">7</text></g><g class="a12 leaf node n8 p0 sample" transform="translate(7.66667 2.06836)"><path class="edge" d="M 0 0 V -2.06836 H -7.66667" /><rect class="sym" height="6" width="6" x="-3" y="-3" /><text class="lab" transform="translate(0 11)">8</text></g><path class="edge" d="M 0 0 V -17.9315 H 0.0" /><circle class="sym" cx="0" cy="0" r="3" /><text class="lab lft" transform="translate(-3 -7.0)">12</text></g><path class="edge" d="M 0 0 V -15.3441 H -11.5" /><circle class="sym" cx="0" cy="0" r="3" /><text class="lab rgt" transform="translate(3 -7.0)">23</text></g><path class="edge" d="M 0 0 V -2.25687 H 0.0" /><circle class="sym" cx="0" cy="0" r="3" /><text class="lab lft" transform="translate(-3 -7.0)">25</text></g><path class="edge" d="M 0 0 V -1.94705 H -13.4167" /><circle class="sym" cx="0" cy="0" r="3" /><text class="lab rgt" transform="translate(3 -7.0)">26</text></g><path class="edge" d="M 0 0 V -14.3021 H -14.375" /><circle class="sym" cx="0" cy="0" r="3" /><text class="lab rgt" transform="translate(3 -7.0)">27</text></g><path class="edge" d="M 0 0 V -40.75 H -27.3125" /><circle class="sym" cx="0" cy="0" r="3" /><text class="lab rgt" transform="translate(3 -7.0)">31</text></g><g class="a33 c2 node n32 p0" transform="translate(-27.3125 28.264)"><g class="a32 c1 node n30 p0" transform="translate(17.25 18.8185)"><g class="a30 c2 node n17 p0" transform="translate(0.0 40.3952)"><g class="a17 leaf node n9 p0 sample" transform="translate(7.66667 7.12237)"><path class="edge" d="M 0 0 V -7.12237 H -7.66667" /><rect class="sym" height="6" width="6" x="-3" y="-3" /><text class="lab" transform="translate(0 11)">9</text></g><g class="a17 c1 node n13 p0" transform="translate(-7.66667 3.07374)"><g class="a13 leaf node n1 p0 sample" transform="translate(0.0 4.04863)"><path class="edge" d="M 0 0 V -4.04863 H 0.0" /><rect class="sym" height="6" width="6" x="-3" y="-3" /><text class="lab" transform="translate(0 11)">1</text></g><path class="edge" d="M 0 0 V -3.07374 H 7.66667" /><circle class="sym" cx="0" cy="0" r="3" /><text class="lab lft" transform="translate(-3 -7.0)">13</text></g><path class="edge" d="M 0 0 V -40.3952 H 0.0" /><circle class="sym" cx="0" cy="0" r="3" /><text class="lab lft" transform="translate(-3 -7.0)">17</text></g><path class="edge" d="M 0 0 V -18.8185 H -17.25" /><circle class="sym" cx="0" cy="0" r="3" /><text class="lab rgt" transform="translate(3 -7.0)">30</text></g><g class="a32 c1 node n29 p0" transform="translate(-17.25 21.001)"><g class="a29 c2 node n24 p0" transform="translate(0.0 14.9546)"><g class="a24 c2 node n16 p0" transform="translate(-11.5 24.8756)"><g class="a16 leaf node n0 p0 sample" transform="translate(-7.66667 5.5049)"><path class="edge" d="M 0 0 V -5.5049 H 7.66667" /><rect class="sym" height="6" width="6" x="-3" y="-3" /><text class="lab" transform="translate(0 11)">0</text></g><g class="a16 leaf node n3 p0 sample" transform="translate(7.66667 5.5049)"><path class="edge" d="M 0 0 V -5.5049 H -7.66667" /><rect class="sym" height="6" width="6" x="-3" y="-3" /><text class="lab" transform="translate(0 11)">3</text></g><path class="edge" d="M 0 0 V -24.8756 H 11.5" /><circle class="sym" cx="0" cy="0" r="3" /><text class="lab lft" transform="translate(-3 -7.0)">16</text></g><g class="a24 c1 node n20 p0" transform="translate(11.5 17.7151)"><g class="a20 leaf node n6 p0 sample" transform="translate(0.0 12.6654)"><path class="edge" d="M 0 0 V -12.6654 H 0.0" /><rect class="sym" height="6" width="6" x="-3" y="-3" /><text class="lab" transform="translate(0 11)">6</text></g><path class="edge" d="M 0 0 V -17.7151 H -11.5" /><circle class="sym" cx="0" cy="0" r="3" /><text class="lab rgt" transform="translate(3 -7.0)">20</text></g><path class="edge" d="M 0 0 V -14.9546 H 0.0" /><circle class="sym" cx="0" cy="0" r="3" /><text class="lab lft" transform="translate(-3 -7.0)">24</text></g><path class="edge" d="M 0 0 V -21.001 H 17.25" /><circle class="sym" cx="0" cy="0" r="3" /><text class="lab lft" transform="translate(-3 -7.0)">29</text></g><path class="edge" d="M 0 0 V -28.264 H 27.3125" /><circle class="sym" cx="0" cy="0" r="3" /><text class="lab lft" transform="translate(-3 -7.0)">32</text></g><circle class="sym" cx="0" cy="0" r="3" /><text class="lab" transform="translate(0 -11)">33</text></g></g></g><g class="tree t2" transform="translate(406.667 0)"><g class="plotbox"><g class="c2 node n33 p0 root" transform="translate(106.729 26.8)"><g class="a33 c1 node n31 p0" transform="translate(42.6458 40.75)"><g class="a31 c2 node n27 p0" transform="translate(0.0 14.3021)"><g class="a27 leaf node n4 p0 sample" transform="translate(16.2917 39.5479)"><path class="edge" d="M 0 0 V -39.5479 H -16.2917" /><rect class="sym" height="6" width="6" x="-3" y="-3" /><text class="lab" transform="translate(0 11)">4</text></g><g class="a27 c1 node n26 p0" transform="translate(-16.2917 1.94705)"><g class="a26 c2 node n25 p0" transform="translate(0.0 2.25687)"><g class="a25 c1 node n14 p0" transform="translate(17.25 30.3345)"><g class="a14 leaf node n5 p0 sample" transform="translate(0.0 5.00945)"><path class="edge" d="M 0 0 V -5.00945 H 0.0" /><rect class="sym" height="6" width="6" x="-3" y="-3" /><text class="lab" transform="translate(0 11)">5</text></g><path class="edge" d="M 0 0 V -30.3345 H -17.25" /><circle class="sym" cx="0" cy="0" r="3" /><text class="lab rgt" transform="translate(3 -7.0)">14</text></g><g class="a25 c2 node n23 p0" transform="translate(-17.25 15.3441)"><g class="a23 c2 node n12 p0" transform="translate(11.5 17.9315)"><g class="a12 leaf node n7 p0 sample" transform="translate(-7.66667 2.06836)"><path class="edge" d="M 0 0 V -2.06836 H 7.66667" /><rect class="sym" height="6" width="6" x="-3" y="-3" /><text class="lab" transform="translate(0 11)">7</text></g><g class="a12 leaf node n8 p0 sample" transform="translate(7.66667 2.06836)"><path class="edge" d="M 0 0 V -2.06836 H -7.66667" /><rect class="sym" height="6" width="6" x="-3" y="-3" /><text class="lab" transform="translate(0 11)">8</text></g><path class="edge" d="M 0 0 V -17.9315 H -11.5" /><circle class="sym" cx="0" cy="0" r="3" /><text class="lab rgt" transform="translate(3 -7.0)">12</text></g><g class="a23 c1 node n22 p0" transform="translate(-11.5 1.24212)"><g class="a22 c1 node n19 p0" transform="translate(0.0 10.0134)"><g class="a19 c1 node n10 p0" transform="translate(0.0 8.13731)"><g class="a10 leaf node n2 p0 sample" transform="translate(0.0 0.607034)"><path class="edge" d="M 0 0 V -0.607034 H 0.0" /><rect class="sym" height="6" width="6" x="-3" y="-3" /><text class="lab" transform="translate(0 11)">2</text></g><path class="edge" d="M 0 0 V -8.13731 H 0.0" /><circle class="sym" cx="0" cy="0" r="3" /><text class="lab lft" transform="translate(-3 -7.0)">10</text></g><path class="edge" d="M 0 0 V -10.0134 H 0.0" /><circle class="sym" cx="0" cy="0" r="3" /><text class="lab lft" transform="translate(-3 -7.0)">19</text></g><path class="edge" d="M 0 0 V -1.24212 H 11.5" /><circle class="sym" cx="0" cy="0" r="3" /><text class="lab lft" transform="translate(-3 -7.0)">22</text></g><path class="edge" d="M 0 0 V -15.3441 H 17.25" /><circle class="sym" cx="0" cy="0" r="3" /><text class="lab lft" transform="translate(-3 -7.0)">23</text></g><path class="edge" d="M 0 0 V -2.25687 H 0.0" /><circle class="sym" cx="0" cy="0" r="3" /><text class="lab lft" transform="translate(-3 -7.0)">25</text></g><path class="edge" d="M 0 0 V -1.94705 H 16.2917" /><circle class="sym" cx="0" cy="0" r="3" /><text class="lab lft" transform="translate(-3 -7.0)">26</text></g><path class="edge" d="M 0 0 V -14.3021 H 0.0" /><circle class="sym" cx="0" cy="0" r="3" /><text class="lab lft" transform="translate(-3 -7.0)">27</text></g><path class="edge" d="M 0 0 V -40.75 H -42.6458" /><circle class="sym" cx="0" cy="0" r="3" /><text class="lab rgt" transform="translate(3 -7.0)">31</text></g><g class="a33 c2 node n32 p0" transform="translate(-42.6458 28.264)"><g class="a32 c1 node n30 p0" transform="translate(17.25 18.8185)"><g class="a30 c2 node n17 p0" transform="translate(0.0 40.3952)"><g class="a17 leaf node n9 p0 sample" transform="translate(7.66667 7.12237)"><path class="edge" d="M 0 0 V -7.12237 H -7.66667" /><rect class="sym" height="6" width="6" x="-3" y="-3" /><text class="lab" transform="translate(0 11)">9</text></g><g class="a17 c1 node n13 p0" transform="translate(-7.66667 3.07374)"><g class="a13 leaf node n1 p0 sample" transform="translate(0.0 4.04863)"><path class="edge" d="M 0 0 V -4.04863 H 0.0" /><rect class="sym" height="6" width="6" x="-3" y="-3" /><text class="lab" transform="translate(0 11)">1</text></g><path class="edge" d="M 0 0 V -3.07374 H 7.66667" /><circle class="sym" cx="0" cy="0" r="3" /><text class="lab lft" transform="translate(-3 -7.0)">13</text></g><path class="edge" d="M 0 0 V -40.3952 H 0.0" /><circle class="sym" cx="0" cy="0" r="3" /><text class="lab lft" transform="translate(-3 -7.0)">17</text></g><path class="edge" d="M 0 0 V -18.8185 H -17.25" /><circle class="sym" cx="0" cy="0" r="3" /><text class="lab rgt" transform="translate(3 -7.0)">30</text></g><g class="a32 c1 node n29 p0" transform="translate(-17.25 21.001)"><g class="a29 c2 node n24 p0" transform="translate(0.0 14.9546)"><g class="a24 c2 node n16 p0" transform="translate(-11.5 24.8756)"><g class="a16 leaf node n0 p0 sample" transform="translate(-7.66667 5.5049)"><path class="edge" d="M 0 0 V -5.5049 H 7.66667" /><rect class="sym" height="6" width="6" x="-3" y="-3" /><text class="lab" transform="translate(0 11)">0</text></g><g class="a16 leaf node n3 p0 sample" transform="translate(7.66667 5.5049)"><path class="edge" d="M 0 0 V -5.5049 H -7.66667" /><rect class="sym" height="6" width="6" x="-3" y="-3" /><text class="lab" transform="translate(0 11)">3</text></g><path class="edge" d="M 0 0 V -24.8756 H 11.5" /><circle class="sym" cx="0" cy="0" r="3" /><text class="lab lft" transform="translate(-3 -7.0)">16</text></g><g class="a24 c1 node n20 p0" transform="translate(11.5 17.7151)"><g class="a20 leaf node n6 p0 sample" transform="translate(0.0 12.6654)"><path class="edge" d="M 0 0 V -12.6654 H 0.0" /><rect class="sym" height="6" width="6" x="-3" y="-3" /><text class="lab" transform="translate(0 11)">6</text></g><path class="edge" d="M 0 0 V -17.7151 H -11.5" /><circle class="sym" cx="0" cy="0" r="3" /><text class="lab rgt" transform="translate(3 -7.0)">20</text></g><path class="edge" d="M 0 0 V -14.9546 H 0.0" /><circle class="sym" cx="0" cy="0" r="3" /><text class="lab lft" transform="translate(-3 -7.0)">24</text></g><path class="edge" d="M 0 0 V -21.001 H 17.25" /><circle class="sym" cx="0" cy="0" r="3" /><text class="lab lft" transform="translate(-3 -7.0)">29</text></g><path class="edge" d="M 0 0 V -28.264 H 42.6458" /><circle class="sym" cx="0" cy="0" r="3" /><text class="lab lft" transform="translate(-3 -7.0)">32</text></g><circle class="sym" cx="0" cy="0" r="3" /><text class="lab" transform="translate(0 -11)">33</text></g></g></g><g class="tree t3" transform="translate(600 0)"><g class="plotbox"><g class="c2 node n33 p0 root" transform="translate(101.458 26.8)"><g class="a33 c1 node n31 p0" transform="translate(31.625 40.75)"><g class="a31 c2 node n27 p0" transform="translate(0.0 14.3021)"><g class="a27 leaf node n4 p0 sample" transform="translate(-13.4167 39.5479)"><path class="edge" d="M 0 0 V -39.5479 H 13.4167" /><rect class="sym" height="6" width="6" x="-3" y="-3" /><text class="lab" transform="translate(0 11)">4</text></g><g class="a27 c1 node n26 p0" transform="translate(13.4167 1.94705)"><g class="a26 c2 node n25 p0" transform="translate(0.0 2.25687)"><g class="a25 c1 node n14 p0" transform="translate(-11.5 30.3345)"><g class="a14 leaf node n5 p0 sample" transform="translate(0.0 5.00945)"><path class="edge" d="M 0 0 V -5.00945 H 0.0" /><rect class="sym" height="6" width="6" x="-3" y="-3" /><text class="lab" transform="translate(0 11)">5</text></g><path class="edge" d="M 0 0 V -30.3345 H 11.5" /><circle class="sym" cx="0" cy="0" r="3" /><text class="lab lft" transform="translate(-3 -7.0)">14</text></g><g class="a25 c1 node n23 p0" transform="translate(11.5 15.3441)"><g class="a23 c2 node n12 p0" transform="translate(0.0 17.9315)"><g class="a12 leaf node n7 p0 sample" transform="translate(-7.66667 2.06836)"><path class="edge" d="M 0 0 V -2.06836 H 7.66667" /><rect class="sym" height="6" width="6" x="-3" y="-3" /><text class="lab" transform="translate(0 11)">7</text></g><g class="a12 leaf node n8 p0 sample" transform="translate(7.66667 2.06836)"><path class="edge" d="M 0 0 V -2.06836 H -7.66667" /><rect class="sym" height="6" width="6" x="-3" y="-3" /><text class="lab" transform="translate(0 11)">8</text></g><path class="edge" d="M 0 0 V -17.9315 H 0.0" /><circle class="sym" cx="0" cy="0" r="3" /><text class="lab lft" transform="translate(-3 -7.0)">12</text></g><path class="edge" d="M 0 0 V -15.3441 H -11.5" /><circle class="sym" cx="0" cy="0" r="3" /><text class="lab rgt" transform="translate(3 -7.0)">23</text></g><path class="edge" d="M 0 0 V -2.25687 H 0.0" /><circle class="sym" cx="0" cy="0" r="3" /><text class="lab lft" transform="translate(-3 -7.0)">25</text></g><path class="edge" d="M 0 0 V -1.94705 H -13.4167" /><circle class="sym" cx="0" cy="0" r="3" /><text class="lab rgt" transform="translate(3 -7.0)">26</text></g><path class="edge" d="M 0 0 V -14.3021 H 0.0" /><circle class="sym" cx="0" cy="0" r="3" /><text class="lab lft" transform="translate(-3 -7.0)">27</text></g><path class="edge" d="M 0 0 V -40.75 H -31.625" /><circle class="sym" cx="0" cy="0" r="3" /><text class="lab rgt" transform="translate(3 -7.0)">31</text></g><g class="a33 c2 node n32 p0" transform="translate(-31.625 28.264)"><g class="a32 c1 node n30 p0" transform="translate(23 18.8185)"><g class="a30 c2 node n17 p0" transform="translate(0.0 40.3952)"><g class="a17 leaf node n9 p0 sample" transform="translate(11.5 7.12237)"><path class="edge" d="M 0 0 V -7.12237 H -11.5" /><rect class="sym" height="6" width="6" x="-3" y="-3" /><text class="lab" transform="translate(0 11)">9</text></g><g class="a17 c2 node n13 p0" transform="translate(-11.5 3.07374)"><g class="a13 leaf node n1 p0 sample" transform="translate(-7.66667 4.04863)"><path class="edge" d="M 0 0 V -4.04863 H 7.66667" /><rect class="sym" height="6" width="6" x="-3" y="-3" /><text class="lab" transform="translate(0 11)">1</text></g><g class="a13 c1 node n11 p0" transform="translate(7.66667 3.44159)"><g class="a11 leaf node n2 p0 sample" transform="translate(0.0 0.607034)"><path class="edge" d="M 0 0 V -0.607034 H 0.0" /><rect class="sym" height="6" width="6" x="-3" y="-3" /><text class="lab" transform="translate(0 11)">2</text></g><path class="edge" d="M 0 0 V -3.44159 H -7.66667" /><circle class="sym" cx="0" cy="0" r="3" /><text class="lab rgt" transform="translate(3 -7.0)">11</text></g><path class="edge" d="M 0 0 V -3.07374 H 11.5" /><circle class="sym" cx="0" cy="0" r="3" /><text class="lab lft" transform="translate(-3 -7.0)">13</text></g><path class="edge" d="M 0 0 V -40.3952 H 0.0" /><circle class="sym" cx="0" cy="0" r="3" /><text class="lab lft" transform="translate(-3 -7.0)">17</text></g><path class="edge" d="M 0 0 V -18.8185 H -23" /><circle class="sym" cx="0" cy="0" r="3" /><text class="lab rgt" transform="translate(3 -7.0)">30</text></g><g class="a32 c1 node n29 p0" transform="translate(-23 21.001)"><g class="a29 c2 node n24 p0" transform="translate(0.0 14.9546)"><g class="a24 c2 node n16 p0" transform="translate(-11.5 24.8756)"><g class="a16 leaf node n0 p0 sample" transform="translate(-7.66667 5.5049)"><path class="edge" d="M 0 0 V -5.5049 H 7.66667" /><rect class="sym" height="6" width="6" x="-3" y="-3" /><text class="lab" transform="translate(0 11)">0</text></g><g class="a16 leaf node n3 p0 sample" transform="translate(7.66667 5.5049)"><path class="edge" d="M 0 0 V -5.5049 H -7.66667" /><rect class="sym" height="6" width="6" x="-3" y="-3" /><text class="lab" transform="translate(0 11)">3</text></g><path class="edge" d="M 0 0 V -24.8756 H 11.5" /><circle class="sym" cx="0" cy="0" r="3" /><text class="lab lft" transform="translate(-3 -7.0)">16</text></g><g class="a24 c1 node n20 p0" transform="translate(11.5 17.7151)"><g class="a20 leaf node n6 p0 sample" transform="translate(0.0 12.6654)"><path class="edge" d="M 0 0 V -12.6654 H 0.0" /><rect class="sym" height="6" width="6" x="-3" y="-3" /><text class="lab" transform="translate(0 11)">6</text></g><path class="edge" d="M 0 0 V -17.7151 H -11.5" /><circle class="sym" cx="0" cy="0" r="3" /><text class="lab rgt" transform="translate(3 -7.0)">20</text></g><path class="edge" d="M 0 0 V -14.9546 H 0.0" /><circle class="sym" cx="0" cy="0" r="3" /><text class="lab lft" transform="translate(-3 -7.0)">24</text></g><path class="edge" d="M 0 0 V -21.001 H 23" /><circle class="sym" cx="0" cy="0" r="3" /><text class="lab lft" transform="translate(-3 -7.0)">29</text></g><path class="edge" d="M 0 0 V -28.264 H 31.625" /><circle class="sym" cx="0" cy="0" r="3" /><text class="lab lft" transform="translate(-3 -7.0)">32</text></g><circle class="sym" cx="0" cy="0" r="3" /><text class="lab" transform="translate(0 -11)">33</text></g></g></g><g class="tree t4" transform="translate(793.333 0)"><g class="plotbox"><g class="c2 node n33 p0 root" transform="translate(91.3958 26.8)"><g class="a33 c1 node n31 p0" transform="translate(34.9792 40.75)"><g class="a31 c2 node n27 p0" transform="translate(0.0 14.3021)"><g class="a27 leaf node n4 p0 sample" transform="translate(-22.0417 39.5479)"><path class="edge" d="M 0 0 V -39.5479 H 22.0417" /><rect class="sym" height="6" width="6" x="-3" y="-3" /><text class="lab" transform="translate(0 11)">4</text></g><g class="a27 c2 node n26 p0" transform="translate(22.0417 1.94705)"><g class="a26 c2 node n25 p0" transform="translate(-17.25 2.25687)"><g class="a25 c1 node n14 p0" transform="translate(-11.5 30.3345)"><g class="a14 leaf node n5 p0 sample" transform="translate(0.0 5.00945)"><path class="edge" d="M 0 0 V -5.00945 H 0.0" /><rect class="sym" height="6" width="6" x="-3" y="-3" /><text class="lab" transform="translate(0 11)">5</text></g><path class="edge" d="M 0 0 V -30.3345 H 11.5" /><circle class="sym" cx="0" cy="0" r="3" /><text class="lab lft" transform="translate(-3 -7.0)">14</text></g><g class="a25 c1 node n23 p0" transform="translate(11.5 15.3441)"><g class="a23 c2 node n12 p0" transform="translate(0.0 17.9315)"><g class="a12 leaf node n7 p0 sample" transform="translate(-7.66667 2.06836)"><path class="edge" d="M 0 0 V -2.06836 H 7.66667" /><rect class="sym" height="6" width="6" x="-3" y="-3" /><text class="lab" transform="translate(0 11)">7</text></g><g class="a12 leaf node n8 p0 sample" transform="translate(7.66667 2.06836)"><path class="edge" d="M 0 0 V -2.06836 H -7.66667" /><rect class="sym" height="6" width="6" x="-3" y="-3" /><text class="lab" transform="translate(0 11)">8</text></g><path class="edge" d="M 0 0 V -17.9315 H 0.0" /><circle class="sym" cx="0" cy="0" r="3" /><text class="lab lft" transform="translate(-3 -7.0)">12</text></g><path class="edge" d="M 0 0 V -15.3441 H -11.5" /><circle class="sym" cx="0" cy="0" r="3" /><text class="lab rgt" transform="translate(3 -7.0)">23</text></g><path class="edge" d="M 0 0 V -2.25687 H 17.25" /><circle class="sym" cx="0" cy="0" r="3" /><text class="lab lft" transform="translate(-3 -7.0)">25</text></g><g class="a26 c1 node n21 p0" transform="translate(17.25 24.9355)"><g class="a21 leaf node n6 p0 sample" transform="translate(0.0 12.6654)"><path class="edge" d="M 0 0 V -12.6654 H 0.0" /><rect class="sym" height="6" width="6" x="-3" y="-3" /><text class="lab" transform="translate(0 11)">6</text></g><path class="edge" d="M 0 0 V -24.9355 H -17.25" /><circle class="sym" cx="0" cy="0" r="3" /><text class="lab rgt" transform="translate(3 -7.0)">21</text></g><path class="edge" d="M 0 0 V -1.94705 H -22.0417" /><circle class="sym" cx="0" cy="0" r="3" /><text class="lab rgt" transform="translate(3 -7.0)">26</text></g><path class="edge" d="M 0 0 V -14.3021 H 0.0" /><circle class="sym" cx="0" cy="0" r="3" /><text class="lab lft" transform="translate(-3 -7.0)">27</text></g><path class="edge" d="M 0 0 V -40.75 H -34.9792" /><circle class="sym" cx="0" cy="0" r="3" /><text class="lab rgt" transform="translate(3 -7.0)">31</text></g><g class="a33 c2 node n32 p0" transform="translate(-34.9792 28.264)"><g class="a32 c1 node n30 p0" transform="translate(21.0833 18.8185)"><g class="a30 c2 node n17 p0" transform="translate(0.0 40.3952)"><g class="a17 leaf node n9 p0 sample" transform="translate(11.5 7.12237)"><path class="edge" d="M 0 0 V -7.12237 H -11.5" /><rect class="sym" height="6" width="6" x="-3" y="-3" /><text class="lab" transform="translate(0 11)">9</text></g><g class="a17 c2 node n13 p0" transform="translate(-11.5 3.07374)"><g class="a13 leaf node n1 p0 sample" transform="translate(-7.66667 4.04863)"><path class="edge" d="M 0 0 V -4.04863 H 7.66667" /><rect class="sym" height="6" width="6" x="-3" y="-3" /><text class="lab" transform="translate(0 11)">1</text></g><g class="a13 c1 node n11 p0" transform="translate(7.66667 3.44159)"><g class="a11 leaf node n2 p0 sample" transform="translate(0.0 0.607034)"><path class="edge" d="M 0 0 V -0.607034 H 0.0" /><rect class="sym" height="6" width="6" x="-3" y="-3" /><text class="lab" transform="translate(0 11)">2</text></g><path class="edge" d="M 0 0 V -3.44159 H -7.66667" /><circle class="sym" cx="0" cy="0" r="3" /><text class="lab rgt" transform="translate(3 -7.0)">11</text></g><path class="edge" d="M 0 0 V -3.07374 H 11.5" /><circle class="sym" cx="0" cy="0" r="3" /><text class="lab lft" transform="translate(-3 -7.0)">13</text></g><path class="edge" d="M 0 0 V -40.3952 H 0.0" /><circle class="sym" cx="0" cy="0" r="3" /><text class="lab lft" transform="translate(-3 -7.0)">17</text></g><path class="edge" d="M 0 0 V -18.8185 H -21.0833" /><circle class="sym" cx="0" cy="0" r="3" /><text class="lab rgt" transform="translate(3 -7.0)">30</text></g><g class="a32 c1 node n29 p0" transform="translate(-21.0833 21.001)"><g class="a29 c1 node n24 p0" transform="translate(0.0 14.9546)"><g class="a24 c2 node n16 p0" transform="translate(0.0 24.8756)"><g class="a16 leaf node n0 p0 sample" transform="translate(-7.66667 5.5049)"><path class="edge" d="M 0 0 V -5.5049 H 7.66667" /><rect class="sym" height="6" width="6" x="-3" y="-3" /><text class="lab" transform="translate(0 11)">0</text></g><g class="a16 leaf node n3 p0 sample" transform="translate(7.66667 5.5049)"><path class="edge" d="M 0 0 V -5.5049 H -7.66667" /><rect class="sym" height="6" width="6" x="-3" y="-3" /><text class="lab" transform="translate(0 11)">3</text></g><path class="edge" d="M 0 0 V -24.8756 H 0.0" /><circle class="sym" cx="0" cy="0" r="3" /><text class="lab lft" transform="translate(-3 -7.0)">16</text></g><path class="edge" d="M 0 0 V -14.9546 H 0.0" /><circle class="sym" cx="0" cy="0" r="3" /><text class="lab lft" transform="translate(-3 -7.0)">24</text></g><path class="edge" d="M 0 0 V -21.001 H 21.0833" /><circle class="sym" cx="0" cy="0" r="3" /><text class="lab lft" transform="translate(-3 -7.0)">29</text></g><path class="edge" d="M 0 0 V -28.264 H 34.9792" /><circle class="sym" cx="0" cy="0" r="3" /><text class="lab lft" transform="translate(-3 -7.0)">32</text></g><circle class="sym" cx="0" cy="0" r="3" /><text class="lab" transform="translate(0 -11)">33</text></g></g></g><g class="tree t5" transform="translate(986.667 0)"><g class="plotbox"><g class="c2 node n33 p0 root" transform="translate(91.3958 26.8)"><g class="a33 c1 node n31 p0" transform="translate(34.9792 40.75)"><g class="a31 c2 node n27 p0" transform="translate(0.0 14.3021)"><g class="a27 leaf node n4 p0 sample" transform="translate(-22.0417 39.5479)"><path class="edge" d="M 0 0 V -39.5479 H 22.0417" /><rect class="sym" height="6" width="6" x="-3" y="-3" /><text class="lab" transform="translate(0 11)">4</text></g><g class="a27 c2 node n26 p0" transform="translate(22.0417 1.94705)"><g class="a26 c1 node n25 p0" transform="translate(-17.25 2.25687)"><g class="a25 c2 node n23 p0" transform="translate(0.0 15.3441)"><g class="a23 c2 node n12 p0" transform="translate(11.5 17.9315)"><g class="a12 leaf node n7 p0 sample" transform="translate(-7.66667 2.06836)"><path class="edge" d="M 0 0 V -2.06836 H 7.66667" /><rect class="sym" height="6" width="6" x="-3" y="-3" /><text class="lab" transform="translate(0 11)">7</text></g><g class="a12 leaf node n8 p0 sample" transform="translate(7.66667 2.06836)"><path class="edge" d="M 0 0 V -2.06836 H -7.66667" /><rect class="sym" height="6" width="6" x="-3" y="-3" /><text class="lab" transform="translate(0 11)">8</text></g><path class="edge" d="M 0 0 V -17.9315 H -11.5" /><circle class="sym" cx="0" cy="0" r="3" /><text class="lab rgt" transform="translate(3 -7.0)">12</text></g><g class="a23 c1 node n22 p0" transform="translate(-11.5 1.24212)"><g class="a22 c1 node n15 p0" transform="translate(0.0 13.7483)"><g class="a15 leaf node n5 p0 sample" transform="translate(0.0 5.00945)"><path class="edge" d="M 0 0 V -5.00945 H 0.0" /><rect class="sym" height="6" width="6" x="-3" y="-3" /><text class="lab" transform="translate(0 11)">5</text></g><path class="edge" d="M 0 0 V -13.7483 H 0.0" /><circle class="sym" cx="0" cy="0" r="3" /><text class="lab lft" transform="translate(-3 -7.0)">15</text></g><path class="edge" d="M 0 0 V -1.24212 H 11.5" /><circle class="sym" cx="0" cy="0" r="3" /><text class="lab lft" transform="translate(-3 -7.0)">22</text></g><path class="edge" d="M 0 0 V -15.3441 H 0.0" /><circle class="sym" cx="0" cy="0" r="3" /><text class="lab lft" transform="translate(-3 -7.0)">23</text></g><path class="edge" d="M 0 0 V -2.25687 H 17.25" /><circle class="sym" cx="0" cy="0" r="3" /><text class="lab lft" transform="translate(-3 -7.0)">25</text></g><g class="a26 c1 node n21 p0" transform="translate(17.25 24.9355)"><g class="a21 leaf node n6 p0 sample" transform="translate(0.0 12.6654)"><path class="edge" d="M 0 0 V -12.6654 H 0.0" /><rect class="sym" height="6" width="6" x="-3" y="-3" /><text class="lab" transform="translate(0 11)">6</text></g><path class="edge" d="M 0 0 V -24.9355 H -17.25" /><circle class="sym" cx="0" cy="0" r="3" /><text class="lab rgt" transform="translate(3 -7.0)">21</text></g><path class="edge" d="M 0 0 V -1.94705 H -22.0417" /><circle class="sym" cx="0" cy="0" r="3" /><text class="lab rgt" transform="translate(3 -7.0)">26</text></g><path class="edge" d="M 0 0 V -14.3021 H 0.0" /><circle class="sym" cx="0" cy="0" r="3" /><text class="lab lft" transform="translate(-3 -7.0)">27</text></g><path class="edge" d="M 0 0 V -40.75 H -34.9792" /><circle class="sym" cx="0" cy="0" r="3" /><text class="lab rgt" transform="translate(3 -7.0)">31</text></g><g class="a33 c2 node n32 p0" transform="translate(-34.9792 28.264)"><g class="a32 c1 node n30 p0" transform="translate(21.0833 18.8185)"><g class="a30 c2 node n17 p0" transform="translate(0.0 40.3952)"><g class="a17 leaf node n9 p0 sample" transform="translate(11.5 7.12237)"><path class="edge" d="M 0 0 V -7.12237 H -11.5" /><rect class="sym" height="6" width="6" x="-3" y="-3" /><text class="lab" transform="translate(0 11)">9</text></g><g class="a17 c2 node n13 p0" transform="translate(-11.5 3.07374)"><g class="a13 leaf node n1 p0 sample" transform="translate(-7.66667 4.04863)"><path class="edge" d="M 0 0 V -4.04863 H 7.66667" /><rect class="sym" height="6" width="6" x="-3" y="-3" /><text class="lab" transform="translate(0 11)">1</text></g><g class="a13 c1 node n11 p0" transform="translate(7.66667 3.44159)"><g class="a11 leaf node n2 p0 sample" transform="translate(0.0 0.607034)"><path class="edge" d="M 0 0 V -0.607034 H 0.0" /><rect class="sym" height="6" width="6" x="-3" y="-3" /><text class="lab" transform="translate(0 11)">2</text></g><path class="edge" d="M 0 0 V -3.44159 H -7.66667" /><circle class="sym" cx="0" cy="0" r="3" /><text class="lab rgt" transform="translate(3 -7.0)">11</text></g><path class="edge" d="M 0 0 V -3.07374 H 11.5" /><circle class="sym" cx="0" cy="0" r="3" /><text class="lab lft" transform="translate(-3 -7.0)">13</text></g><path class="edge" d="M 0 0 V -40.3952 H 0.0" /><circle class="sym" cx="0" cy="0" r="3" /><text class="lab lft" transform="translate(-3 -7.0)">17</text></g><path class="edge" d="M 0 0 V -18.8185 H -21.0833" /><circle class="sym" cx="0" cy="0" r="3" /><text class="lab rgt" transform="translate(3 -7.0)">30</text></g><g class="a32 c1 node n29 p0" transform="translate(-21.0833 21.001)"><g class="a29 c1 node n24 p0" transform="translate(0.0 14.9546)"><g class="a24 c2 node n16 p0" transform="translate(0.0 24.8756)"><g class="a16 leaf node n0 p0 sample" transform="translate(-7.66667 5.5049)"><path class="edge" d="M 0 0 V -5.5049 H 7.66667" /><rect class="sym" height="6" width="6" x="-3" y="-3" /><text class="lab" transform="translate(0 11)">0</text></g><g class="a16 leaf node n3 p0 sample" transform="translate(7.66667 5.5049)"><path class="edge" d="M 0 0 V -5.5049 H -7.66667" /><rect class="sym" height="6" width="6" x="-3" y="-3" /><text class="lab" transform="translate(0 11)">3</text></g><path class="edge" d="M 0 0 V -24.8756 H 0.0" /><circle class="sym" cx="0" cy="0" r="3" /><text class="lab lft" transform="translate(-3 -7.0)">16</text></g><path class="edge" d="M 0 0 V -14.9546 H 0.0" /><circle class="sym" cx="0" cy="0" r="3" /><text class="lab lft" transform="translate(-3 -7.0)">24</text></g><path class="edge" d="M 0 0 V -21.001 H 21.0833" /><circle class="sym" cx="0" cy="0" r="3" /><text class="lab lft" transform="translate(-3 -7.0)">29</text></g><path class="edge" d="M 0 0 V -28.264 H 34.9792" /><circle class="sym" cx="0" cy="0" r="3" /><text class="lab lft" transform="translate(-3 -7.0)">32</text></g><circle class="sym" cx="0" cy="0" r="3" /><text class="lab" transform="translate(0 -11)">33</text></g></g></g></g></g></svg>
