<svg baseProfile="full" height="200" version="1.1" width="1200" xmlns="http://www.w3.org/2000/svg" xmlns:ev="http://www.w3.org/2001/xml-events" xmlns:xlink="http://www.w3.org/1999/xlink"><defs><style type="text/css"><![CDATA[.background path {fill: #808080; fill-opacity: 0}.background path:nth-child(odd) {fill-opacity: .1}.axes {font-size: 14px}.x-axis .tick .lab {font-weight: bold; dominant-baseline: hanging}.axes, .tree {font-size: 14px; text-anchor: middle}.axes line, .edge {stroke: black; fill: none}.y-axis .grid {stroke: #FAFAFA}.node > .sym {fill: black; stroke: none}.site > .sym {stroke: black}.mut text {fill: red; font-style: italic}.mut.extra text {fill: hotpink}.mut line {fill: none; stroke: none}.mut .sym {fill: none; stroke: red}.mut.extra .sym {stroke: hotpink}.node .mut .sym {stroke-width: 1.5px}.tree text, .tree-sequence text {dominant-baseline: central}.plotbox .lab.lft {text-anchor: end}.plotbox .lab.rgt {text-anchor: start}]]></style></defs><g class="tree-sequence"><g class="background"><path d="M20,0 l193.333,0 l0,138.2 l310.116,25 l0,5 l-503.45,0 l0,-5 l0,-25 l0,-138.2z" /><path d="M213.333,0 l193.333,0 l0,138.2 l249.074,25 l0,5 l-132.291,0 l0,-5 l-310.116,-25 l0,-138.2z" /><path d="M406.667,0 l193.333,0 l0,138.2 l93.6599,25 l0,5 l-37.9189,0 l0,-5 l-249.074,-25 l0,-138.2z" /><path d="M600,0 l193.333,0 l0,138.2 l102.259,25 l0,5 l-201.933,0 l0,-5 l-93.6599,-25 l0,-138.2z" /><path d="M793.333,0 l193.333,0 l0,138.2 l164.413,25 l0,5 l-255.487,0 l0,-5 l-102.259,-25 l0,-138.2z" /><path d="M986.667,0 l193.333,0 l0,138.2 l0,25 l0,5 l-28.9203,0 l0,-5 l-164.413,-25 l0,-138.2z" /></g><g class="axes"><g class="x-axis"><g transform="translate(600 200)"><text class="lab" text-anchor="middle" transform="translate(0 -11)">Genome position</text></g><line x1="20" x2="1180" y1="163.2" y2="163.2" /><g class="ticks"><g class="tick" transform="translate(20 163.2)"><line x1="0" x2="0" y1="0" y2="5" /><g transform="translate(0 6)"><text class="lab">0.00</text></g></g><g class="tick" transform="translate(523.45 163.2)"><line x1="0" x2="0" y1="0" y2="5" /><g transform="translate(0 6)"><text class="lab">434.01</text></g></g><g class="tick" transform="translate(655.741 163.2)"><line x1="0" x2="0" y1="0" y2="5" /><g transform="translate(0 6)"><text class="lab">548.05</text></g></g><g class="tick" transform="translate(693.66 163.2)"><line x1="0" x2="0" y1="0" y2="5" /><g transform="translate(0 6)"><text class="lab">580.74</text></g></g><g class="tick" transform="translate(895.593 163.2)"><line x1="0" x2="0" y1="0" y2="5" /><g transform="translate(0 6)"><text class="lab">754.82</text></g></g><g class="tick" transform="translate(1151.08 163.2)"><line x1="0" x2="0" y1="0" y2="5" /><g transform="translate(0 6)"><text class="lab">975.07</text></g></g><g class="tick" transform="translate(1180 163.2)"><line x1="0" x2="0" y1="0" y2="5" /><g transform="translate(0 6)"><text class="lab">1000.00</text></g></g></g></g></g><g class="plotbox trees"><g class="tree t0" transform="translate(20 0)"><g class="plotbox"><g class="c2 node n33 p0 root" transform="translate(77.2604 26.8)"><g class="a33 leaf node n0 p0 sample" transform="translate(-49.5938 94.6)"><path class="edge" d="M 0 0 V -94.6 H 49.5938" /><rect class="sym" height="6" width="6" x="-3" y="-3" /><text class="lab" transform="translate(0 11)">0</text></g><g class="a33 c2 node n32 p0" transform="translate(49.5938 49.2749)"><g class="a32 c1 node n22 p0" transform="translate(31.1458 37.5709)"><g class="a22 c1 node n20 p0" transform="translate(0.0 2.31607)"><g class="a20 c1 node n11 p0" transform="translate(0.0 4.64966)"><g class="a11 c2 node n10 p0" transform="translate(0.0 0.432489)"><g class="a10 leaf node n3 p0 sample" transform="translate(-7.66667 0.356017)"><path class="edge" d="M 0 0 V -0.356017 H 7.66667" /><rect class="sym" height="6" width="6" x="-3" y="-3" /><text class="lab" transform="translate(0 11)">3</text></g><g class="a10 leaf node n5 p0 sample" transform="translate(7.66667 0.356017)"><path class="edge" d="M 0 0 V -0.356017 H -7.66667" /><rect class="sym" height="6" width="6" x="-3" y="-3" /><text class="lab" transform="translate(0 11)">5</text></g><path class="edge" d="M 0 0 V -0.432489 H 0.0" /><circle class="sym" cx="0" cy="0" r="3" /><text class="lab lft" transform="translate(-3 -7.0)">10</text></g><path class="edge" d="M 0 0 V -4.64966 H 0.0" /><circle class="sym" cx="0" cy="0" r="3" /><text class="lab lft" transform="translate(-3 -7.0)">11</text></g><path class="edge" d="M 0 0 V -2.31607 H 0.0" /><circle class="sym" cx="0" cy="0" r="3" /><text class="lab lft" transform="translate(-3 -7.0)">20</text></g><path class="edge" d="M 0 0 V -37.5709 H -31.1458" /><circle class="sym" cx="0" cy="0" r="3" /><text class="lab rgt" transform="translate(3 -7.0)">22</text></g><g class="a32 c1 node n31 p0" transform="translate(-31.1458 5.78283)"><g class="a31 c2 node n30 p0" transform="translate(0.0 1.03505)"><g class="a30 c2 node n24 p0" transform="translate(-20.125 29.8041)"><g class="a24 leaf node n2 p0 sample" transform="translate(13.4167 8.70311)"><path class="edge" d="M 0 0 V -8.70311 H -13.4167" /><rect class="sym" height="6" width="6" x="-3" y="-3" /><text class="lab" transform="translate(0 11)">2</text></g><g class="a24 c2 node n21 p0" transform="translate(-13.4167 1.28695)"><g class="a21 leaf node n9 p0 sample" transform="translate(11.5 7.41616)"><path class="edge" d="M 0 0 V -7.41616 H -11.5" /><rect class="sym" height="6" width="6" x="-3" y="-3" /><text class="lab" transform="translate(0 11)">9</text></g><g class="a21 c2 node n14 p0" transform="translate(-11.5 4.50151)"><g class="a14 leaf node n1 p0 sample" transform="translate(-7.66667 2.91465)"><path class="edge" d="M 0 0 V -2.91465 H 7.66667" /><rect class="sym" height="6" width="6" x="-3" y="-3" /><text class="lab" transform="translate(0 11)">1</text></g><g class="a14 leaf node n6 p0 sample" transform="translate(7.66667 2.91465)"><path class="edge" d="M 0 0 V -2.91465 H -7.66667" /><rect class="sym" height="6" width="6" x="-3" y="-3" /><text class="lab" transform="translate(0 11)">6</text></g><path class="edge" d="M 0 0 V -4.50151 H 11.5" /><circle class="sym" cx="0" cy="0" r="3" /><text class="lab lft" transform="translate(-3 -7.0)">14</text></g><path class="edge" d="M 0 0 V -1.28695 H 13.4167" /><circle class="sym" cx="0" cy="0" r="3" /><text class="lab lft" transform="translate(-3 -7.0)">21</text></g><path class="edge" d="M 0 0 V -29.8041 H 20.125" /><circle class="sym" cx="0" cy="0" r="3" /><text class="lab lft" transform="translate(-3 -7.0)">24</text></g><g class="a30 c1 node n29 p0" transform="translate(20.125 1.29103)"><g class="a29 c1 node n25 p0" transform="translate(0.0 24.7319)"><g class="a25 c1 node n18 p0" transform="translate(0.0 7.27054)"><g class="a18 c1 node n16 p0" transform="translate(0.0 0.430976)"><g class="a16 c2 node n15 p0" transform="translate(0.0 0.294422)"><g class="a15 leaf node n4 p0 sample" transform="translate(-11.5 4.48831)"><path class="edge" d="M 0 0 V -4.48831 H 11.5" /><rect class="sym" height="6" width="6" x="-3" y="-3" /><text class="lab" transform="translate(0 11)">4</text></g><g class="a15 c2 node n13 p0" transform="translate(11.5 1.73558)"><g class="a13 leaf node n7 p0 sample" transform="translate(-7.66667 2.75272)"><path class="edge" d="M 0 0 V -2.75272 H 7.66667" /><rect class="sym" height="6" width="6" x="-3" y="-3" /><text class="lab" transform="translate(0 11)">7</text></g><g class="a13 leaf node n8 p0 sample" transform="translate(7.66667 2.75272)"><path class="edge" d="M 0 0 V -2.75272 H -7.66667" /><rect class="sym" height="6" width="6" x="-3" y="-3" /><text class="lab" transform="translate(0 11)">8</text></g><path class="edge" d="M 0 0 V -1.73558 H -11.5" /><circle class="sym" cx="0" cy="0" r="3" /><text class="lab rgt" transform="translate(3 -7.0)">13</text></g><path class="edge" d="M 0 0 V -0.294422 H 0.0" /><circle class="sym" cx="0" cy="0" r="3" /><text class="lab lft" transform="translate(-3 -7.0)">15</text></g><path class="edge" d="M 0 0 V -0.430976 H 0.0" /><circle class="sym" cx="0" cy="0" r="3" /><text class="lab lft" transform="translate(-3 -7.0)">16</text></g><path class="edge" d="M 0 0 V -7.27054 H 0.0" /><circle class="sym" cx="0" cy="0" r="3" /><text class="lab lft" transform="translate(-3 -7.0)">18</text></g><path class="edge" d="M 0 0 V -24.7319 H 0.0" /><circle class="sym" cx="0" cy="0" r="3" /><text class="lab lft" transform="translate(-3 -7.0)">25</text></g><path class="edge" d="M 0 0 V -1.29103 H -20.125" /><circle class="sym" cx="0" cy="0" r="3" /><text class="lab rgt" transform="translate(3 -7.0)">29</text></g><path class="edge" d="M 0 0 V -1.03505 H 0.0" /><circle class="sym" cx="0" cy="0" r="3" /><text class="lab lft" transform="translate(-3 -7.0)">30</text></g><path class="edge" d="M 0 0 V -5.78283 H 31.1458" /><circle class="sym" cx="0" cy="0" r="3" /><text class="lab lft" transform="translate(-3 -7.0)">31</text></g><path class="edge" d="M 0 0 V -49.2749 H -49.5938" /><circle class="sym" cx="0" cy="0" r="3" /><text class="lab rgt" transform="translate(3 -7.0)">32</text></g><circle class="sym" cx="0" cy="0" r="3" /><text class="lab" transform="translate(0 -11)">33</text></g></g></g><g class="tree t1" transform="translate(213.333 0)"><g class="plotbox"><g class="c2 node n33 p0 root" transform="translate(65.0417 26.8)"><g class="a33 leaf node n0 p0 sample" transform="translate(-37.375 94.6)"><path class="edge" d="M 0 0 V -94.6 H 37.375" /><rect class="sym" height="6" width="6" x="-3" y="-3" /><text class="lab" transform="translate(0 11)">0</text></g><g class="a33 c1 node n32 p0" transform="translate(37.375 49.2749)"><g class="a32 c1 node n31 p0" transform="translate(0.0 5.78283)"><g class="a31 c2 node n30 p0" transform="translate(0.0 1.03505)"><g class="a30 c2 node n24 p0" transform="translate(-26.8333 29.8041)"><g class="a24 leaf node n2 p0 sample" transform="translate(13.4167 8.70311)"><path class="edge" d="M 0 0 V -8.70311 H -13.4167" /><rect class="sym" height="6" width="6" x="-3" y="-3" /><text class="lab" transform="translate(0 11)">2</text></g><g class="a24 c2 node n21 p0" transform="translate(-13.4167 1.28695)"><g class="a21 leaf node n9 p0 sample" transform="translate(11.5 7.41616)"><path class="edge" d="M 0 0 V -7.41616 H -11.5" /><rect class="sym" height="6" width="6" x="-3" y="-3" /><text class="lab" transform="translate(0 11)">9</text></g><g class="a21 c2 node n14 p0" transform="translate(-11.5 4.50151)"><g class="a14 leaf node n1 p0 sample" transform="translate(-7.66667 2.91465)"><path class="edge" d="M 0 0 V -2.91465 H 7.66667" /><rect class="sym" height="6" width="6" x="-3" y="-3" /><text class="lab" transform="translate(0 11)">1</text></g><g class="a14 leaf node n6 p0 sample" transform="translate(7.66667 2.91465)"><path class="edge" d="M 0 0 V -2.91465 H -7.66667" /><rect class="sym" height="6" width="6" x="-3" y="-3" /><text class="lab" transform="translate(0 11)">6</text></g><path class="edge" d="M 0 0 V -4.50151 H 11.5" /><circle class="sym" cx="0" cy="0" r="3" /><text class="lab lft" transform="translate(-3 -7.0)">14</text></g><path class="edge" d="M 0 0 V -1.28695 H 13.4167" /><circle class="sym" cx="0" cy="0" r="3" /><text class="lab lft" transform="translate(-3 -7.0)">21</text></g><path class="edge" d="M 0 0 V -29.8041 H 26.8333" /><circle class="sym" cx="0" cy="0" r="3" /><text class="lab lft" transform="translate(-3 -7.0)">24</text></g><g class="a30 c2 node n29 p0" transform="translate(26.8333 1.29103)"><g class="a29 c1 node n25 p0" transform="translate(17.25 24.7319)"><g class="a25 c1 node n18 p0" transform="translate(0.0 7.27054)"><g class="a18 c1 node n16 p0" transform="translate(0.0 0.430976)"><g class="a16 c2 node n15 p0" transform="translate(0.0 0.294422)"><g class="a15 leaf node n4 p0 sample" transform="translate(-11.5 4.48831)"><path class="edge" d="M 0 0 V -4.48831 H 11.5" /><rect class="sym" height="6" width="6" x="-3" y="-3" /><text class="lab" transform="translate(0 11)">4</text></g><g class="a15 c2 node n13 p0" transform="translate(11.5 1.73558)"><g class="a13 leaf node n7 p0 sample" transform="translate(-7.66667 2.75272)"><path class="edge" d="M 0 0 V -2.75272 H 7.66667" /><rect class="sym" height="6" width="6" x="-3" y="-3" /><text class="lab" transform="translate(0 11)">7</text></g><g class="a13 leaf node n8 p0 sample" transform="translate(7.66667 2.75272)"><path class="edge" d="M 0 0 V -2.75272 H -7.66667" /><rect class="sym" height="6" width="6" x="-3" y="-3" /><text class="lab" transform="translate(0 11)">8</text></g><path class="edge" d="M 0 0 V -1.73558 H -11.5" /><circle class="sym" cx="0" cy="0" r="3" /><text class="lab rgt" transform="translate(3 -7.0)">13</text></g><path class="edge" d="M 0 0 V -0.294422 H 0.0" /><circle class="sym" cx="0" cy="0" r="3" /><text class="lab lft" transform="translate(-3 -7.0)">15</text></g><path class="edge" d="M 0 0 V -0.430976 H 0.0" /><circle class="sym" cx="0" cy="0" r="3" /><text class="lab lft" transform="translate(-3 -7.0)">16</text></g><path class="edge" d="M 0 0 V -7.27054 H 0.0" /><circle class="sym" cx="0" cy="0" r="3" /><text class="lab lft" transform="translate(-3 -7.0)">18</text></g><path class="edge" d="M 0 0 V -24.7319 H -17.25" /><circle class="sym" cx="0" cy="0" r="3" /><text class="lab rgt" transform="translate(3 -7.0)">25</text></g><g class="a29 c1 node n27 p0" transform="translate(-17.25 17.8199)"><g class="a27 c1 node n26 p0" transform="translate(0.0 2.24205)"><g class="a26 c1 node n23 p0" transform="translate(0.0 9.40003)"><g class="a23 c1 node n20 p0" transform="translate(0.0 2.31607)"><g class="a20 c1 node n11 p0" transform="translate(0.0 4.64966)"><g class="a11 c2 node n10 p0" transform="translate(0.0 0.432489)"><g class="a10 leaf node n3 p0 sample" transform="translate(-7.66667 0.356017)"><path class="edge" d="M 0 0 V -0.356017 H 7.66667" /><rect class="sym" height="6" width="6" x="-3" y="-3" /><text class="lab" transform="translate(0 11)">3</text></g><g class="a10 leaf node n5 p0 sample" transform="translate(7.66667 0.356017)"><path class="edge" d="M 0 0 V -0.356017 H -7.66667" /><rect class="sym" height="6" width="6" x="-3" y="-3" /><text class="lab" transform="translate(0 11)">5</text></g><path class="edge" d="M 0 0 V -0.432489 H 0.0" /><circle class="sym" cx="0" cy="0" r="3" /><text class="lab lft" transform="translate(-3 -7.0)">10</text></g><path class="edge" d="M 0 0 V -4.64966 H 0.0" /><circle class="sym" cx="0" cy="0" r="3" /><text class="lab lft" transform="translate(-3 -7.0)">11</text></g><path class="edge" d="M 0 0 V -2.31607 H 0.0" /><circle class="sym" cx="0" cy="0" r="3" /><text class="lab lft" transform="translate(-3 -7.0)">20</text></g><path class="edge" d="M 0 0 V -9.40003 H 0.0" /><circle class="sym" cx="0" cy="0" r="3" /><text class="lab lft" transform="translate(-3 -7.0)">23</text></g><path class="edge" d="M 0 0 V -2.24205 H 0.0" /><circle class="sym" cx="0" cy="0" r="3" /><text class="lab lft" transform="translate(-3 -7.0)">26</text></g><path class="edge" d="M 0 0 V -17.8199 H 17.25" /><circle class="sym" cx="0" cy="0" r="3" /><text class="lab lft" transform="translate(-3 -7.0)">27</text></g><path class="edge" d="M 0 0 V -1.29103 H -26.8333" /><circle class="sym" cx="0" cy="0" r="3" /><text class="lab rgt" transform="translate(3 -7.0)">29</text></g><path class="edge" d="M 0 0 V -1.03505 H 0.0" /><circle class="sym" cx="0" cy="0" r="3" /><text class="lab lft" transform="translate(-3 -7.0)">30</text></g><path class="edge" d="M 0 0 V -5.78283 H 0.0" /><circle class="sym" cx="0" cy="0" r="3" /><text class="lab lft" transform="translate(-3 -7.0)">31</text></g><path class="edge" d="M 0 0 V -49.2749 H -37.375" /><circle class="sym" cx="0" cy="0" r="3" /><text class="lab rgt" transform="translate(3 -7.0)">32</text></g><circle class="sym" cx="0" cy="0" r="3" /><text class="lab" transform="translate(0 -11)">33</text></g></g></g><g class="tree t2" transform="translate(406.667 0)"><g class="plotbox"><g class="c2 node n33 p0 root" transform="translate(65.0417 26.8)"><g class="a33 leaf node n0 p0 sample" transform="translate(-37.375 94.6)"><path class="edge" d="M 0 0 V -94.6 H 37.375" /><rect class="sym" height="6" width="6" x="-3" y="-3" /><text class="lab" transform="translate(0 11)">0</text></g><g class="a33 c1 node n32 p0" transform="translate(37.375 49.2749)"><g class="a32 c1 node n31 p0" transform="translate(0.0 5.78283)"><g class="a31 c2 node n30 p0" transform="translate(0.0 1.03505)"><g class="a30 c2 node n24 p0" transform="translate(-26.8333 29.8041)"><g class="a24 leaf node n2 p0 sample" transform="translate(13.4167 8.70311)"><path class="edge" d="M 0 0 V -8.70311 H -13.4167" /><rect class="sym" height="6" width="6" x="-3" y="-3" /><text class="lab" transform="translate(0 11)">2</text></g><g class="a24 c2 node n21 p0" transform="translate(-13.4167 1.28695)"><g class="a21 leaf node n9 p0 sample" transform="translate(11.5 7.41616)"><path class="edge" d="M 0 0 V -7.41616 H -11.5" /><rect class="sym" height="6" width="6" x="-3" y="-3" /><text class="lab" transform="translate(0 11)">9</text></g><g class="a21 c2 node n14 p0" transform="translate(-11.5 4.50151)"><g class="a14 leaf node n1 p0 sample" transform="translate(-7.66667 2.91465)"><path class="edge" d="M 0 0 V -2.91465 H 7.66667" /><rect class="sym" height="6" width="6" x="-3" y="-3" /><text class="lab" transform="translate(0 11)">1</text></g><g class="a14 leaf node n6 p0 sample" transform="translate(7.66667 2.91465)"><path class="edge" d="M 0 0 V -2.91465 H -7.66667" /><rect class="sym" height="6" width="6" x="-3" y="-3" /><text class="lab" transform="translate(0 11)">6</text></g><path class="edge" d="M 0 0 V -4.50151 H 11.5" /><circle class="sym" cx="0" cy="0" r="3" /><text class="lab lft" transform="translate(-3 -7.0)">14</text></g><path class="edge" d="M 0 0 V -1.28695 H 13.4167" /><circle class="sym" cx="0" cy="0" r="3" /><text class="lab lft" transform="translate(-3 -7.0)">21</text></g><path class="edge" d="M 0 0 V -29.8041 H 26.8333" /><circle class="sym" cx="0" cy="0" r="3" /><text class="lab lft" transform="translate(-3 -7.0)">24</text></g><g class="a30 c2 node n29 p0" transform="translate(26.8333 1.29103)"><g class="a29 c1 node n25 p0" transform="translate(17.25 24.7319)"><g class="a25 c1 node n18 p0" transform="translate(0.0 7.27054)"><g class="a18 c1 node n16 p0" transform="translate(0.0 0.430976)"><g class="a16 c2 node n15 p0" transform="translate(0.0 0.294422)"><g class="a15 leaf node n4 p0 sample" transform="translate(-11.5 4.48831)"><path class="edge" d="M 0 0 V -4.48831 H 11.5" /><rect class="sym" height="6" width="6" x="-3" y="-3" /><text class="lab" transform="translate(0 11)">4</text></g><g class="a15 c2 node n13 p0" transform="translate(11.5 1.73558)"><g class="a13 leaf node n7 p0 sample" transform="translate(-7.66667 2.75272)"><path class="edge" d="M 0 0 V -2.75272 H 7.66667" /><rect class="sym" height="6" width="6" x="-3" y="-3" /><text class="lab" transform="translate(0 11)">7</text></g><g class="a13 leaf node n8 p0 sample" transform="translate(7.66667 2.75272)"><path class="edge" d="M 0 0 V -2.75272 H -7.66667" /><rect class="sym" height="6" width="6" x="-3" y="-3" /><text class="lab" transform="translate(0 11)">8</text></g><path class="edge" d="M 0 0 V -1.73558 H -11.5" /><circle class="sym" cx="0" cy="0" r="3" /><text class="lab rgt" transform="translate(3 -7.0)">13</text></g><path class="edge" d="M 0 0 V -0.294422 H 0.0" /><circle class="sym" cx="0" cy="0" r="3" /><text class="lab lft" transform="translate(-3 -7.0)">15</text></g><path class="edge" d="M 0 0 V -0.430976 H 0.0" /><circle class="sym" cx="0" cy="0" r="3" /><text class="lab lft" transform="translate(-3 -7.0)">16</text></g><path class="edge" d="M 0 0 V -7.27054 H 0.0" /><circle class="sym" cx="0" cy="0" r="3" /><text class="lab lft" transform="translate(-3 -7.0)">18</text></g><path class="edge" d="M 0 0 V -24.7319 H -17.25" /><circle class="sym" cx="0" cy="0" r="3" /><text class="lab rgt" transform="translate(3 -7.0)">25</text></g><g class="a29 c1 node n27 p0" transform="translate(-17.25 17.8199)"><g class="a27 c1 node n26 p0" transform="translate(0.0 2.24205)"><g class="a26 c1 node n12 p0" transform="translate(0.0 16.3658)"><g class="a12 c2 node n10 p0" transform="translate(0.0 0.432489)"><g class="a10 leaf node n3 p0 sample" transform="translate(-7.66667 0.356017)"><path class="edge" d="M 0 0 V -0.356017 H 7.66667" /><rect class="sym" height="6" width="6" x="-3" y="-3" /><text class="lab" transform="translate(0 11)">3</text></g><g class="a10 leaf node n5 p0 sample" transform="translate(7.66667 0.356017)"><path class="edge" d="M 0 0 V -0.356017 H -7.66667" /><rect class="sym" height="6" width="6" x="-3" y="-3" /><text class="lab" transform="translate(0 11)">5</text></g><path class="edge" d="M 0 0 V -0.432489 H 0.0" /><circle class="sym" cx="0" cy="0" r="3" /><text class="lab lft" transform="translate(-3 -7.0)">10</text></g><path class="edge" d="M 0 0 V -16.3658 H 0.0" /><circle class="sym" cx="0" cy="0" r="3" /><text class="lab lft" transform="translate(-3 -7.0)">12</text></g><path class="edge" d="M 0 0 V -2.24205 H 0.0" /><circle class="sym" cx="0" cy="0" r="3" /><text class="lab lft" transform="translate(-3 -7.0)">26</text></g><path class="edge" d="M 0 0 V -17.8199 H 17.25" /><circle class="sym" cx="0" cy="0" r="3" /><text class="lab lft" transform="translate(-3 -7.0)">27</text></g><path class="edge" d="M 0 0 V -1.29103 H -26.8333" /><circle class="sym" cx="0" cy="0" r="3" /><text class="lab rgt" transform="translate(3 -7.0)">29</text></g><path class="edge" d="M 0 0 V -1.03505 H 0.0" /><circle class="sym" cx="0" cy="0" r="3" /><text class="lab lft" transform="translate(-3 -7.0)">30</text></g><path class="edge" d="M 0 0 V -5.78283 H 0.0" /><circle class="sym" cx="0" cy="0" r="3" /><text class="lab lft" transform="translate(-3 -7.0)">31</text></g><path class="edge" d="M 0 0 V -49.2749 H -37.375" /><circle class="sym" cx="0" cy="0" r="3" /><text class="lab rgt" transform="translate(3 -7.0)">32</text></g><circle class="sym" cx="0" cy="0" r="3" /><text class="lab" transform="translate(0 -11)">33</text></g></g></g><g class="tree t3" transform="translate(600 0)"><g class="plotbox"><g class="c2 node n33 p0 root" transform="translate(65.0417 26.8)"><g class="a33 leaf node n0 p0 sample" transform="translate(-37.375 94.6)"><path class="edge" d="M 0 0 V -94.6 H 37.375" /><rect class="sym" height="6" width="6" x="-3" y="-3" /><text class="lab" transform="translate(0 11)">0</text></g><g class="a33 c1 node n32 p0" transform="translate(37.375 49.2749)"><g class="a32 c1 node n31 p0" transform="translate(0.0 5.78283)"><g class="a31 c2 node n30 p0" transform="translate(0.0 1.03505)"><g class="a30 c2 node n24 p0" transform="translate(-26.8333 29.8041)"><g class="a24 leaf node n2 p0 sample" transform="translate(13.4167 8.70311)"><path class="edge" d="M 0 0 V -8.70311 H -13.4167" /><rect class="sym" height="6" width="6" x="-3" y="-3" /><text class="lab" transform="translate(0 11)">2</text></g><g class="a24 c2 node n21 p0" transform="translate(-13.4167 1.28695)"><g class="a21 leaf node n9 p0 sample" transform="translate(11.5 7.41616)"><path class="edge" d="M 0 0 V -7.41616 H -11.5" /><rect class="sym" height="6" width="6" x="-3" y="-3" /><text class="lab" transform="translate(0 11)">9</text></g><g class="a21 c2 node n14 p0" transform="translate(-11.5 4.50151)"><g class="a14 leaf node n1 p0 sample" transform="translate(-7.66667 2.91465)"><path class="edge" d="M 0 0 V -2.91465 H 7.66667" /><rect class="sym" height="6" width="6" x="-3" y="-3" /><text class="lab" transform="translate(0 11)">1</text></g><g class="a14 leaf node n6 p0 sample" transform="translate(7.66667 2.91465)"><path class="edge" d="M 0 0 V -2.91465 H -7.66667" /><rect class="sym" height="6" width="6" x="-3" y="-3" /><text class="lab" transform="translate(0 11)">6</text></g><path class="edge" d="M 0 0 V -4.50151 H 11.5" /><circle class="sym" cx="0" cy="0" r="3" /><text class="lab lft" transform="translate(-3 -7.0)">14</text></g><path class="edge" d="M 0 0 V -1.28695 H 13.4167" /><circle class="sym" cx="0" cy="0" r="3" /><text class="lab lft" transform="translate(-3 -7.0)">21</text></g><path class="edge" d="M 0 0 V -29.8041 H 26.8333" /><circle class="sym" cx="0" cy="0" r="3" /><text class="lab lft" transform="translate(-3 -7.0)">24</text></g><g class="a30 c1 node n29 p0" transform="translate(26.8333 1.29103)"><g class="a29 c1 node n27 p0" transform="translate(0.0 17.8199)"><g class="a27 c2 node n26 p0" transform="translate(0.0 2.24205)"><g class="a26 c1 node n12 p0" transform="translate(-17.25 16.3658)"><g class="a12 c2 node n10 p0" transform="translate(0.0 0.432489)"><g class="a10 leaf node n3 p0 sample" transform="translate(-7.66667 0.356017)"><path class="edge" d="M 0 0 V -0.356017 H 7.66667" /><rect class="sym" height="6" width="6" x="-3" y="-3" /><text class="lab" transform="translate(0 11)">3</text></g><g class="a10 leaf node n5 p0 sample" transform="translate(7.66667 0.356017)"><path class="edge" d="M 0 0 V -0.356017 H -7.66667" /><rect class="sym" height="6" width="6" x="-3" y="-3" /><text class="lab" transform="translate(0 11)">5</text></g><path class="edge" d="M 0 0 V -0.432489 H 0.0" /><circle class="sym" cx="0" cy="0" r="3" /><text class="lab lft" transform="translate(-3 -7.0)">10</text></g><path class="edge" d="M 0 0 V -16.3658 H 17.25" /><circle class="sym" cx="0" cy="0" r="3" /><text class="lab lft" transform="translate(-3 -7.0)">12</text></g><g class="a26 c1 node n23 p0" transform="translate(17.25 9.40003)"><g class="a23 c1 node n20 p0" transform="translate(0.0 2.31607)"><g class="a20 c1 node n19 p0" transform="translate(0.0 0.224453)"><g class="a19 c1 node n16 p0" transform="translate(0.0 0.430976)"><g class="a16 c2 node n15 p0" transform="translate(0.0 0.294422)"><g class="a15 leaf node n4 p0 sample" transform="translate(-11.5 4.48831)"><path class="edge" d="M 0 0 V -4.48831 H 11.5" /><rect class="sym" height="6" width="6" x="-3" y="-3" /><text class="lab" transform="translate(0 11)">4</text></g><g class="a15 c2 node n13 p0" transform="translate(11.5 1.73558)"><g class="a13 leaf node n7 p0 sample" transform="translate(-7.66667 2.75272)"><path class="edge" d="M 0 0 V -2.75272 H 7.66667" /><rect class="sym" height="6" width="6" x="-3" y="-3" /><text class="lab" transform="translate(0 11)">7</text></g><g class="a13 leaf node n8 p0 sample" transform="translate(7.66667 2.75272)"><path class="edge" d="M 0 0 V -2.75272 H -7.66667" /><rect class="sym" height="6" width="6" x="-3" y="-3" /><text class="lab" transform="translate(0 11)">8</text></g><path class="edge" d="M 0 0 V -1.73558 H -11.5" /><circle class="sym" cx="0" cy="0" r="3" /><text class="lab rgt" transform="translate(3 -7.0)">13</text></g><path class="edge" d="M 0 0 V -0.294422 H 0.0" /><circle class="sym" cx="0" cy="0" r="3" /><text class="lab lft" transform="translate(-3 -7.0)">15</text></g><path class="edge" d="M 0 0 V -0.430976 H 0.0" /><circle class="sym" cx="0" cy="0" r="3" /><text class="lab lft" transform="translate(-3 -7.0)">16</text></g><path class="edge" d="M 0 0 V -0.224453 H 0.0" /><circle class="sym" cx="0" cy="0" r="3" /><text class="lab lft" transform="translate(-3 -7.0)">19</text></g><path class="edge" d="M 0 0 V -2.31607 H 0.0" /><circle class="sym" cx="0" cy="0" r="3" /><text class="lab lft" transform="translate(-3 -7.0)">20</text></g><path class="edge" d="M 0 0 V -9.40003 H -17.25" /><circle class="sym" cx="0" cy="0" r="3" /><text class="lab rgt" transform="translate(3 -7.0)">23</text></g><path class="edge" d="M 0 0 V -2.24205 H 0.0" /><circle class="sym" cx="0" cy="0" r="3" /><text class="lab lft" transform="translate(-3 -7.0)">26</text></g><path class="edge" d="M 0 0 V -17.8199 H 0.0" /><circle class="sym" cx="0" cy="0" r="3" /><text class="lab lft" transform="translate(-3 -7.0)">27</text></g><path class="edge" d="M 0 0 V -1.29103 H -26.8333" /><circle class="sym" cx="0" cy="0" r="3" /><text class="lab rgt" transform="translate(3 -7.0)">29</text></g><path class="edge" d="M 0 0 V -1.03505 H 0.0" /><circle class="sym" cx="0" cy="0" r="3" /><text class="lab lft" transform="translate(-3 -7.0)">30</text></g><path class="edge" d="M 0 0 V -5.78283 H 0.0" /><circle class="sym" cx="0" cy="0" r="3" /><text class="lab lft" transform="translate(-3 -7.0)">31</text></g><path class="edge" d="M 0 0 V -49.2749 H -37.375" /><circle class="sym" cx="0" cy="0" r="3" /><text class="lab rgt" transform="translate(3 -7.0)">32</text></g><circle class="sym" cx="0" cy="0" r="3" /><text class="lab" transform="translate(0 -11)">33</text></g></g></g><g class="tree t4" transform="translate(793.333 0)"><g class="plotbox"><g class="c2 node n33 p0 root" transform="translate(65.0417 26.8)"><g class="a33 leaf node n0 p0 sample" transform="translate(-37.375 94.6)"><path class="edge" d="M 0 0 V -94.6 H 37.375" /><rect class="sym" height="6" width="6" x="-3" y="-3" /><text class="lab" transform="translate(0 11)">0</text></g><g class="a33 c1 node n32 p0" transform="translate(37.375 49.2749)"><g class="a32 c2 node n31 p0" transform="translate(0.0 5.78283)"><g class="a31 c1 node n30 p0" transform="translate(-26.8333 1.03505)"><g class="a30 c2 node n24 p0" transform="translate(0.0 29.8041)"><g class="a24 leaf node n2 p0 sample" transform="translate(13.4167 8.70311)"><path class="edge" d="M 0 0 V -8.70311 H -13.4167" /><rect class="sym" height="6" width="6" x="-3" y="-3" /><text class="lab" transform="translate(0 11)">2</text></g><g class="a24 c2 node n21 p0" transform="translate(-13.4167 1.28695)"><g class="a21 leaf node n9 p0 sample" transform="translate(11.5 7.41616)"><path class="edge" d="M 0 0 V -7.41616 H -11.5" /><rect class="sym" height="6" width="6" x="-3" y="-3" /><text class="lab" transform="translate(0 11)">9</text></g><g class="a21 c2 node n14 p0" transform="translate(-11.5 4.50151)"><g class="a14 leaf node n1 p0 sample" transform="translate(-7.66667 2.91465)"><path class="edge" d="M 0 0 V -2.91465 H 7.66667" /><rect class="sym" height="6" width="6" x="-3" y="-3" /><text class="lab" transform="translate(0 11)">1</text></g><g class="a14 leaf node n6 p0 sample" transform="translate(7.66667 2.91465)"><path class="edge" d="M 0 0 V -2.91465 H -7.66667" /><rect class="sym" height="6" width="6" x="-3" y="-3" /><text class="lab" transform="translate(0 11)">6</text></g><path class="edge" d="M 0 0 V -4.50151 H 11.5" /><circle class="sym" cx="0" cy="0" r="3" /><text class="lab lft" transform="translate(-3 -7.0)">14</text></g><path class="edge" d="M 0 0 V -1.28695 H 13.4167" /><circle class="sym" cx="0" cy="0" r="3" /><text class="lab lft" transform="translate(-3 -7.0)">21</text></g><path class="edge" d="M 0 0 V -29.8041 H 0.0" /><circle class="sym" cx="0" cy="0" r="3" /><text class="lab lft" transform="translate(-3 -7.0)">24</text></g><path class="edge" d="M 0 0 V -1.03505 H 26.8333" /><circle class="sym" cx="0" cy="0" r="3" /><text class="lab lft" transform="translate(-3 -7.0)">30</text></g><g class="a31 c1 node n28 p0" transform="translate(26.8333 20.146)"><g class="a28 c2 node n26 p0" transform="translate(0.0 2.24205)"><g class="a26 c1 node n12 p0" transform="translate(-17.25 16.3658)"><g class="a12 c2 node n10 p0" transform="translate(0.0 0.432489)"><g class="a10 leaf node n3 p0 sample" transform="translate(-7.66667 0.356017)"><path class="edge" d="M 0 0 V -0.356017 H 7.66667" /><rect class="sym" height="6" width="6" x="-3" y="-3" /><text class="lab" transform="translate(0 11)">3</text></g><g class="a10 leaf node n5 p0 sample" transform="translate(7.66667 0.356017)"><path class="edge" d="M 0 0 V -0.356017 H -7.66667" /><rect class="sym" height="6" width="6" x="-3" y="-3" /><text class="lab" transform="translate(0 11)">5</text></g><path class="edge" d="M 0 0 V -0.432489 H 0.0" /><circle class="sym" cx="0" cy="0" r="3" /><text class="lab lft" transform="translate(-3 -7.0)">10</text></g><path class="edge" d="M 0 0 V -16.3658 H 17.25" /><circle class="sym" cx="0" cy="0" r="3" /><text class="lab lft" transform="translate(-3 -7.0)">12</text></g><g class="a26 c1 node n23 p0" transform="translate(17.25 9.40003)"><g class="a23 c1 node n20 p0" transform="translate(0.0 2.31607)"><g class="a20 c1 node n19 p0" transform="translate(0.0 0.224453)"><g class="a19 c1 node n16 p0" transform="translate(0.0 0.430976)"><g class="a16 c2 node n15 p0" transform="translate(0.0 0.294422)"><g class="a15 leaf node n4 p0 sample" transform="translate(-11.5 4.48831)"><path class="edge" d="M 0 0 V -4.48831 H 11.5" /><rect class="sym" height="6" width="6" x="-3" y="-3" /><text class="lab" transform="translate(0 11)">4</text></g><g class="a15 c2 node n13 p0" transform="translate(11.5 1.73558)"><g class="a13 leaf node n7 p0 sample" transform="translate(-7.66667 2.75272)"><path class="edge" d="M 0 0 V -2.75272 H 7.66667" /><rect class="sym" height="6" width="6" x="-3" y="-3" /><text class="lab" transform="translate(0 11)">7</text></g><g class="a13 leaf node n8 p0 sample" transform="translate(7.66667 2.75272)"><path class="edge" d="M 0 0 V -2.75272 H -7.66667" /><rect class="sym" height="6" width="6" x="-3" y="-3" /><text class="lab" transform="translate(0 11)">8</text></g><path class="edge" d="M 0 0 V -1.73558 H -11.5" /><circle class="sym" cx="0" cy="0" r="3" /><text class="lab rgt" transform="translate(3 -7.0)">13</text></g><path class="edge" d="M 0 0 V -0.294422 H 0.0" /><circle class="sym" cx="0" cy="0" r="3" /><text class="lab lft" transform="translate(-3 -7.0)">15</text></g><path class="edge" d="M 0 0 V -0.430976 H 0.0" /><circle class="sym" cx="0" cy="0" r="3" /><text class="lab lft" transform="translate(-3 -7.0)">16</text></g><path class="edge" d="M 0 0 V -0.224453 H 0.0" /><circle class="sym" cx="0" cy="0" r="3" /><text class="lab lft" transform="translate(-3 -7.0)">19</text></g><path class="edge" d="M 0 0 V -2.31607 H 0.0" /><circle class="sym" cx="0" cy="0" r="3" /><text class="lab lft" transform="translate(-3 -7.0)">20</text></g><path class="edge" d="M 0 0 V -9.40003 H -17.25" /><circle class="sym" cx="0" cy="0" r="3" /><text class="lab rgt" transform="translate(3 -7.0)">23</text></g><path class="edge" d="M 0 0 V -2.24205 H 0.0" /><circle class="sym" cx="0" cy="0" r="3" /><text class="lab lft" transform="translate(-3 -7.0)">26</text></g><path class="edge" d="M 0 0 V -20.146 H -26.8333" /><circle class="sym" cx="0" cy="0" r="3" /><text class="lab rgt" transform="translate(3 -7.0)">28</text></g><path class="edge" d="M 0 0 V -5.78283 H 0.0" /><circle class="sym" cx="0" cy="0" r="3" /><text class="lab lft" transform="translate(-3 -7.0)">31</text></g><path class="edge" d="M 0 0 V -49.2749 H -37.375" /><circle class="sym" cx="0" cy="0" r="3" /><text class="lab rgt" transform="translate(3 -7.0)">32</text></g><circle class="sym" cx="0" cy="0" r="3" /><text class="lab" transform="translate(0 -11)">33</text></g></g></g><g class="tree t5" transform="translate(986.667 0)"><g class="plotbox"><g class="c2 node n33 p0 root" transform="translate(77.2604 26.8)"><g class="a33 leaf node n0 p0 sample" transform="translate(-49.5938 94.6)"><path class="edge" d="M 0 0 V -94.6 H 49.5938" /><rect class="sym" height="6" width="6" x="-3" y="-3" /><text class="lab" transform="translate(0 11)">0</text></g><g class="a33 c1 node n32 p0" transform="translate(49.5938 49.2749)"><g class="a32 c2 node n31 p0" transform="translate(0.0 5.78283)"><g class="a31 c2 node n30 p0" transform="translate(-31.1458 1.03505)"><g class="a30 c2 node n24 p0" transform="translate(-20.125 29.8041)"><g class="a24 leaf node n2 p0 sample" transform="translate(13.4167 8.70311)"><path class="edge" d="M 0 0 V -8.70311 H -13.4167" /><rect class="sym" height="6" width="6" x="-3" y="-3" /><text class="lab" transform="translate(0 11)">2</text></g><g class="a24 c2 node n21 p0" transform="translate(-13.4167 1.28695)"><g class="a21 leaf node n9 p0 sample" transform="translate(11.5 7.41616)"><path class="edge" d="M 0 0 V -7.41616 H -11.5" /><rect class="sym" height="6" width="6" x="-3" y="-3" /><text class="lab" transform="translate(0 11)">9</text></g><g class="a21 c2 node n14 p0" transform="translate(-11.5 4.50151)"><g class="a14 leaf node n1 p0 sample" transform="translate(-7.66667 2.91465)"><path class="edge" d="M 0 0 V -2.91465 H 7.66667" /><rect class="sym" height="6" width="6" x="-3" y="-3" /><text class="lab" transform="translate(0 11)">1</text></g><g class="a14 leaf node n6 p0 sample" transform="translate(7.66667 2.91465)"><path class="edge" d="M 0 0 V -2.91465 H -7.66667" /><rect class="sym" height="6" width="6" x="-3" y="-3" /><text class="lab" transform="translate(0 11)">6</text></g><path class="edge" d="M 0 0 V -4.50151 H 11.5" /><circle class="sym" cx="0" cy="0" r="3" /><text class="lab lft" transform="translate(-3 -7.0)">14</text></g><path class="edge" d="M 0 0 V -1.28695 H 13.4167" /><circle class="sym" cx="0" cy="0" r="3" /><text class="lab lft" transform="translate(-3 -7.0)">21</text></g><path class="edge" d="M 0 0 V -29.8041 H 20.125" /><circle class="sym" cx="0" cy="0" r="3" /><text class="lab lft" transform="translate(-3 -7.0)">24</text></g><g class="a30 c1 node n29 p0" transform="translate(20.125 1.29103)"><g class="a29 c1 node n25 p0" transform="translate(0.0 24.7319)"><g class="a25 c1 node n17 p0" transform="translate(0.0 7.70152)"><g class="a17 c2 node n15 p0" transform="translate(0.0 0.294422)"><g class="a15 leaf node n4 p0 sample" transform="translate(-11.5 4.48831)"><path class="edge" d="M 0 0 V -4.48831 H 11.5" /><rect class="sym" height="6" width="6" x="-3" y="-3" /><text class="lab" transform="translate(0 11)">4</text></g><g class="a15 c2 node n13 p0" transform="translate(11.5 1.73558)"><g class="a13 leaf node n7 p0 sample" transform="translate(-7.66667 2.75272)"><path class="edge" d="M 0 0 V -2.75272 H 7.66667" /><rect class="sym" height="6" width="6" x="-3" y="-3" /><text class="lab" transform="translate(0 11)">7</text></g><g class="a13 leaf node n8 p0 sample" transform="translate(7.66667 2.75272)"><path class="edge" d="M 0 0 V -2.75272 H -7.66667" /><rect class="sym" height="6" width="6" x="-3" y="-3" /><text class="lab" transform="translate(0 11)">8</text></g><path class="edge" d="M 0 0 V -1.73558 H -11.5" /><circle class="sym" cx="0" cy="0" r="3" /><text class="lab rgt" transform="translate(3 -7.0)">13</text></g><path class="edge" d="M 0 0 V -0.294422 H 0.0" /><circle class="sym" cx="0" cy="0" r="3" /><text class="lab lft" transform="translate(-3 -7.0)">15</text></g><path class="edge" d="M 0 0 V -7.70152 H 0.0" /><circle class="sym" cx="0" cy="0" r="3" /><text class="lab lft" transform="translate(-3 -7.0)">17</text></g><path class="edge" d="M 0 0 V -24.7319 H 0.0" /><circle class="sym" cx="0" cy="0" r="3" /><text class="lab lft" transform="translate(-3 -7.0)">25</text></g><path class="edge" d="M 0 0 V -1.29103 H -20.125" /><circle class="sym" cx="0" cy="0" r="3" /><text class="lab rgt" transform="translate(3 -7.0)">29</text></g><path class="edge" d="M 0 0 V -1.03505 H 31.1458" /><circle class="sym" cx="0" cy="0" r="3" /><text class="lab lft" transform="translate(-3 -7.0)">30</text></g><g class="a31 c1 node n28 p0" transform="translate(31.1458 20.146)"><g class="a28 c1 node n26 p0" transform="translate(0.0 2.24205)"><g class="a26 c1 node n12 p0" transform="translate(0.0 16.3658)"><g class="a12 c2 node n10 p0" transform="translate(0.0 0.432489)"><g class="a10 leaf node n3 p0 sample" transform="translate(-7.66667 0.356017)"><path class="edge" d="M 0 0 V -0.356017 H 7.66667" /><rect class="sym" height="6" width="6" x="-3" y="-3" /><text class="lab" transform="translate(0 11)">3</text></g><g class="a10 leaf node n5 p0 sample" transform="translate(7.66667 0.356017)"><path class="edge" d="M 0 0 V -0.356017 H -7.66667" /><rect class="sym" height="6" width="6" x="-3" y="-3" /><text class="lab" transform="translate(0 11)">5</text></g><path class="edge" d="M 0 0 V -0.432489 H 0.0" /><circle class="sym" cx="0" cy="0" r="3" /><text class="lab lft" transform="translate(-3 -7.0)">10</text></g><path class="edge" d="M 0 0 V -16.3658 H 0.0" /><circle class="sym" cx="0" cy="0" r="3" /><text class="lab lft" transform="translate(-3 -7.0)">12</text></g><path class="edge" d="M 0 0 V -2.24205 H 0.0" /><circle class="sym" cx="0" cy="0" r="3" /><text class="lab lft" transform="translate(-3 -7.0)">26</text></g><path class="edge" d="M 0 0 V -20.146 H -31.1458" /><circle class="sym" cx="0" cy="0" r="3" /><text class="lab rgt" transform="translate(3 -7.0)">28</text></g><path class="edge" d="M 0 0 V -5.78283 H 0.0" /><circle class="sym" cx="0" cy="0" r="3" /><text class="lab lft" transform="translate(-3 -7.0)">31</text></g><path class="edge" d="M 0 0 V -49.2749 H -49.5938" /><circle class="sym" cx="0" cy="0" r="3" /><text class="lab rgt" transform="translate(3 -7.0)">32</text></g><circle class="sym" cx="0" cy="0" r="3" /><text class="lab" transform="translate(0 -11)">33</text></g></g></g></g></g></svg>
