<svg baseProfile="full" height="200" version="1.1" width="400" xmlns="http://www.w3.org/2000/svg" xmlns:ev="http://www.w3.org/2001/xml-events" xmlns:xlink="http://www.w3.org/1999/xlink"><defs><style type="text/css"><![CDATA[.background path {fill: #808080; fill-opacity: 0}.background path:nth-child(odd) {fill-opacity: .1}.axes {font-size: 14px}.x-axis .tick .lab {font-weight: bold; dominant-baseline: hanging}.axes, .tree {font-size: 14px; text-anchor: middle}.axes line, .edge {stroke: black; fill: none}.y-axis .grid {stroke: #FAFAFA}.node > .sym {fill: black; stroke: none}.site > .sym {stroke: black}.mut text {fill: red; font-style: italic}.mut.extra text {fill: hotpink}.mut line {fill: none; stroke: none}.mut .sym {fill: none; stroke: red}.mut.extra .sym {stroke: hotpink}.node .mut .sym {stroke-width: 1.5px}.tree text, .tree-sequence text {dominant-baseline: central}.plotbox .lab.lft {text-anchor: end}.plotbox .lab.rgt {text-anchor: start}]]></style></defs><g class="tree-sequence"><g class="background"><path d="M20,0 l180,0 l0,138.2 l-21.8924,25 l0,5 l-158.108,0 l0,-5 l0,-25 l0,-138.2z" /><path d="M200,0 l180,0 l0,138.2 l0,25 l0,5 l-201.892,0 l0,-5 l21.8924,-25 l0,-138.2z" /></g><g class="axes"><g class="x-axis"><g transform="translate(200 200)"><text class="lab" text-anchor="middle" transform="translate(0 -11)">Genome position</text></g><line x1="20" x2="380" y1="163.2" y2="163.2" /><g class="ticks"><g class="tick" transform="translate(20 163.2)"><line x1="0" x2="0" y1="0" y2="5" /><g transform="translate(0 6)"><text class="lab">0.00</text></g></g><g class="tick" transform="translate(178.108 163.2)"><line x1="0" x2="0" y1="0" y2="5" /><g transform="translate(0 6)"><text class="lab">439.19</text></g></g><g class="tick" transform="translate(380 163.2)"><line x1="0" x2="0" y1="0" y2="5" /><g transform="translate(0 6)"><text class="lab">1000.00</text></g></g></g></g></g><g class="plotbox trees"><g class="tree t0" transform="translate(20 0)"><g class="plotbox"><g class="c2 node n21 p0 root" transform="translate(110.562 26.8)"><g class="a21 c2 node n19 p0" transform="translate(-31.9375 14.7923)"><g class="a19 c2 node n17 p0" transform="translate(-21.875 27.7445)"><g class="a17 c2 node n14 p0" transform="translate(-12.25 10.4155)"><g class="a14 leaf node n1 p0 sample" transform="translate(10.5 41.6477)"><path class="edge" d="M 0 0 V -41.6477 H -10.5" /><rect class="sym" height="6" width="6" x="-3" y="-3" /><text class="lab" transform="translate(0 11)">1</text></g><g class="a14 c2 node n10 p0" transform="translate(-10.5 41.1087)"><g class="a10 leaf node n0 p0 sample" transform="translate(-7 0.538934)"><path class="edge" d="M 0 0 V -0.538934 H 7" /><rect class="sym" height="6" width="6" x="-3" y="-3" /><text class="lab" transform="translate(0 11)">0</text></g><g class="a10 leaf node n7 p0 sample" transform="translate(7 0.538934)"><path class="edge" d="M 0 0 V -0.538934 H -7" /><rect class="sym" height="6" width="6" x="-3" y="-3" /><text class="lab" transform="translate(0 11)">7</text></g><path class="edge" d="M 0 0 V -41.1087 H 10.5" /><circle class="sym" cx="0" cy="0" r="3" /><text class="lab lft" transform="translate(-3 -7.0)">10</text></g><path class="edge" d="M 0 0 V -10.4155 H 12.25" /><circle class="sym" cx="0" cy="0" r="3" /><text class="lab lft" transform="translate(-3 -7.0)">14</text></g><g class="a17 c1 node n15 p0" transform="translate(12.25 7.60617)"><g class="a15 leaf node n8 p0 sample" transform="translate(0.0 44.457)"><path class="edge" d="M 0 0 V -44.457 H 0.0" /><rect class="sym" height="6" width="6" x="-3" y="-3" /><text class="lab" transform="translate(0 11)">8</text></g><path class="edge" d="M 0 0 V -7.60617 H -12.25" /><circle class="sym" cx="0" cy="0" r="3" /><text class="lab rgt" transform="translate(3 -7.0)">15</text></g><path class="edge" d="M 0 0 V -27.7445 H 21.875" /><circle class="sym" cx="0" cy="0" r="3" /><text class="lab lft" transform="translate(-3 -7.0)">17</text></g><g class="a19 c2 node n18 p0" transform="translate(21.875 23.0304)"><g class="a18 leaf node n6 p0 sample" transform="translate(10.5 56.7774)"><path class="edge" d="M 0 0 V -56.7774 H -10.5" /><rect class="sym" height="6" width="6" x="-3" y="-3" /><text class="lab" transform="translate(0 11)">6</text></g><g class="a18 c2 node n12 p0" transform="translate(-10.5 34.8156)"><g class="a12 leaf node n2 p0 sample" transform="translate(-7 21.9617)"><path class="edge" d="M 0 0 V -21.9617 H 7" /><rect class="sym" height="6" width="6" x="-3" y="-3" /><text class="lab" transform="translate(0 11)">2</text></g><g class="a12 leaf node n3 p0 sample" transform="translate(7 21.9617)"><path class="edge" d="M 0 0 V -21.9617 H -7" /><rect class="sym" height="6" width="6" x="-3" y="-3" /><text class="lab" transform="translate(0 11)">3</text></g><path class="edge" d="M 0 0 V -34.8156 H 10.5" /><circle class="sym" cx="0" cy="0" r="3" /><text class="lab lft" transform="translate(-3 -7.0)">12</text></g><path class="edge" d="M 0 0 V -23.0304 H -21.875" /><circle class="sym" cx="0" cy="0" r="3" /><text class="lab rgt" transform="translate(3 -7.0)">18</text></g><path class="edge" d="M 0 0 V -14.7923 H 31.9375" /><circle class="sym" cx="0" cy="0" r="3" /><text class="lab lft" transform="translate(-3 -7.0)">19</text></g><g class="a21 c1 node n20 p0" transform="translate(31.9375 10.1299)"><g class="a20 c2 node n13 p0" transform="translate(0.0 54.0283)"><g class="a13 leaf node n9 p0 sample" transform="translate(10.5 30.4419)"><path class="edge" d="M 0 0 V -30.4419 H -10.5" /><rect class="sym" height="6" width="6" x="-3" y="-3" /><text class="lab" transform="translate(0 11)">9</text></g><g class="a13 c2 node n11 p0" transform="translate(-10.5 21.2321)"><g class="a11 leaf node n4 p0 sample" transform="translate(-7 9.20977)"><path class="edge" d="M 0 0 V -9.20977 H 7" /><rect class="sym" height="6" width="6" x="-3" y="-3" /><text class="lab" transform="translate(0 11)">4</text></g><g class="a11 leaf node n5 p0 sample" transform="translate(7 9.20977)"><path class="edge" d="M 0 0 V -9.20977 H -7" /><rect class="sym" height="6" width="6" x="-3" y="-3" /><text class="lab" transform="translate(0 11)">5</text></g><path class="edge" d="M 0 0 V -21.2321 H 10.5" /><circle class="sym" cx="0" cy="0" r="3" /><text class="lab lft" transform="translate(-3 -7.0)">11</text></g><path class="edge" d="M 0 0 V -54.0283 H 0.0" /><circle class="sym" cx="0" cy="0" r="3" /><text class="lab lft" transform="translate(-3 -7.0)">13</text></g><path class="edge" d="M 0 0 V -10.1299 H -31.9375" /><circle class="sym" cx="0" cy="0" r="3" /><text class="lab rgt" transform="translate(3 -7.0)">20</text></g><circle class="sym" cx="0" cy="0" r="3" /><text class="lab" transform="translate(0 -11)">21</text></g></g></g><g class="tree t1" transform="translate(200 0)"><g class="plotbox"><g class="c2 node n21 p0 root" transform="translate(103.125 26.8)"><g class="a21 c2 node n19 p0" transform="translate(-37.625 14.7923)"><g class="a19 c1 node n17 p0" transform="translate(-21 27.7445)"><g class="a17 c2 node n14 p0" transform="translate(0.0 10.4155)"><g class="a14 leaf node n1 p0 sample" transform="translate(10.5 41.6477)"><path class="edge" d="M 0 0 V -41.6477 H -10.5" /><rect class="sym" height="6" width="6" x="-3" y="-3" /><text class="lab" transform="translate(0 11)">1</text></g><g class="a14 c2 node n10 p0" transform="translate(-10.5 41.1087)"><g class="a10 leaf node n0 p0 sample" transform="translate(-7 0.538934)"><path class="edge" d="M 0 0 V -0.538934 H 7" /><rect class="sym" height="6" width="6" x="-3" y="-3" /><text class="lab" transform="translate(0 11)">0</text></g><g class="a10 leaf node n7 p0 sample" transform="translate(7 0.538934)"><path class="edge" d="M 0 0 V -0.538934 H -7" /><rect class="sym" height="6" width="6" x="-3" y="-3" /><text class="lab" transform="translate(0 11)">7</text></g><path class="edge" d="M 0 0 V -41.1087 H 10.5" /><circle class="sym" cx="0" cy="0" r="3" /><text class="lab lft" transform="translate(-3 -7.0)">10</text></g><path class="edge" d="M 0 0 V -10.4155 H 0.0" /><circle class="sym" cx="0" cy="0" r="3" /><text class="lab lft" transform="translate(-3 -7.0)">14</text></g><path class="edge" d="M 0 0 V -27.7445 H 21" /><circle class="sym" cx="0" cy="0" r="3" /><text class="lab lft" transform="translate(-3 -7.0)">17</text></g><g class="a19 c2 node n18 p0" transform="translate(21 23.0304)"><g class="a18 leaf node n6 p0 sample" transform="translate(10.5 56.7774)"><path class="edge" d="M 0 0 V -56.7774 H -10.5" /><rect class="sym" height="6" width="6" x="-3" y="-3" /><text class="lab" transform="translate(0 11)">6</text></g><g class="a18 c2 node n12 p0" transform="translate(-10.5 34.8156)"><g class="a12 leaf node n2 p0 sample" transform="translate(-7 21.9617)"><path class="edge" d="M 0 0 V -21.9617 H 7" /><rect class="sym" height="6" width="6" x="-3" y="-3" /><text class="lab" transform="translate(0 11)">2</text></g><g class="a12 leaf node n3 p0 sample" transform="translate(7 21.9617)"><path class="edge" d="M 0 0 V -21.9617 H -7" /><rect class="sym" height="6" width="6" x="-3" y="-3" /><text class="lab" transform="translate(0 11)">3</text></g><path class="edge" d="M 0 0 V -34.8156 H 10.5" /><circle class="sym" cx="0" cy="0" r="3" /><text class="lab lft" transform="translate(-3 -7.0)">12</text></g><path class="edge" d="M 0 0 V -23.0304 H -21" /><circle class="sym" cx="0" cy="0" r="3" /><text class="lab rgt" transform="translate(3 -7.0)">18</text></g><path class="edge" d="M 0 0 V -14.7923 H 37.625" /><circle class="sym" cx="0" cy="0" r="3" /><text class="lab lft" transform="translate(-3 -7.0)">19</text></g><g class="a21 c2 node n20 p0" transform="translate(37.625 10.1299)"><g class="a20 c2 node n13 p0" transform="translate(-12.25 54.0283)"><g class="a13 leaf node n9 p0 sample" transform="translate(10.5 30.4419)"><path class="edge" d="M 0 0 V -30.4419 H -10.5" /><rect class="sym" height="6" width="6" x="-3" y="-3" /><text class="lab" transform="translate(0 11)">9</text></g><g class="a13 c2 node n11 p0" transform="translate(-10.5 21.2321)"><g class="a11 leaf node n4 p0 sample" transform="translate(-7 9.20977)"><path class="edge" d="M 0 0 V -9.20977 H 7" /><rect class="sym" height="6" width="6" x="-3" y="-3" /><text class="lab" transform="translate(0 11)">4</text></g><g class="a11 leaf node n5 p0 sample" transform="translate(7 9.20977)"><path class="edge" d="M 0 0 V -9.20977 H -7" /><rect class="sym" height="6" width="6" x="-3" y="-3" /><text class="lab" transform="translate(0 11)">5</text></g><path class="edge" d="M 0 0 V -21.2321 H 10.5" /><circle class="sym" cx="0" cy="0" r="3" /><text class="lab lft" transform="translate(-3 -7.0)">11</text></g><path class="edge" d="M 0 0 V -54.0283 H 12.25" /><circle class="sym" cx="0" cy="0" r="3" /><text class="lab lft" transform="translate(-3 -7.0)">13</text></g><g class="a20 c1 node n16 p0" transform="translate(12.25 40.0131)"><g class="a16 leaf node n8 p0 sample" transform="translate(0.0 44.457)"><path class="edge" d="M 0 0 V -44.457 H 0.0" /><rect class="sym" height="6" width="6" x="-3" y="-3" /><text class="lab" transform="translate(0 11)">8</text></g><path class="edge" d="M 0 0 V -40.0131 H -12.25" /><circle class="sym" cx="0" cy="0" r="3" /><text class="lab rgt" transform="translate(3 -7.0)">16</text></g><path class="edge" d="M 0 0 V -10.1299 H -37.625" /><circle class="sym" cx="0" cy="0" r="3" /><text class="lab rgt" transform="translate(3 -7.0)">20</text></g><circle class="sym" cx="0" cy="0" r="3" /><text class="lab" transform="translate(0 -11)">21</text></g></g></g></g></g></svg>
