<svg baseProfile="full" height="200" version="1.1" width="800" xmlns="http://www.w3.org/2000/svg" xmlns:ev="http://www.w3.org/2001/xml-events" xmlns:xlink="http://www.w3.org/1999/xlink"><defs><style type="text/css"><![CDATA[.background path {fill: #808080; fill-opacity: 0}.background path:nth-child(odd) {fill-opacity: .1}.axes {font-size: 14px}.x-axis .tick .lab {font-weight: bold; dominant-baseline: hanging}.axes, .tree {font-size: 14px; text-anchor: middle}.axes line, .edge {stroke: black; fill: none}.y-axis .grid {stroke: #FAFAFA}.node > .sym {fill: black; stroke: none}.site > .sym {stroke: black}.mut text {fill: red; font-style: italic}.mut.extra text {fill: hotpink}.mut line {fill: none; stroke: none}.mut .sym {fill: none; stroke: red}.mut.extra .sym {stroke: hotpink}.node .mut .sym {stroke-width: 1.5px}.tree text, .tree-sequence text {dominant-baseline: central}.plotbox .lab.lft {text-anchor: end}.plotbox .lab.rgt {text-anchor: start}]]></style></defs><g class="tree-sequence"><g class="background"><path d="M20,0 l190,0 l0,138.2 l-93.6336,25 l0,5 l-96.3664,0 l0,-5 l0,-25 l0,-138.2z" /><path d="M210,0 l190,0 l0,138.2 l-230.896,25 l0,5 l-52.7377,0 l0,-5 l93.6336,-25 l0,-138.2z" /><path d="M400,0 l190,0 l0,138.2 l173.968,25 l0,5 l-594.864,0 l0,-5 l230.896,-25 l0,-138.2z" /><path d="M590,0 l190,0 l0,138.2 l0,25 l0,5 l-16.0322,0 l0,-5 l-173.968,-25 l0,-138.2z" /></g><g class="axes"><g class="x-axis"><g transform="translate(400 200)"><text class="lab" text-anchor="middle" transform="translate(0 -11)">Genome position</text></g><line x1="20" x2="780" y1="163.2" y2="163.2" /><g class="ticks"><g class="tick" transform="translate(20 163.2)"><line x1="0" x2="0" y1="0" y2="5" /><g transform="translate(0 6)"><text class="lab">0.00</text></g></g><g class="tick" transform="translate(116.366 163.2)"><line x1="0" x2="0" y1="0" y2="5" /><g transform="translate(0 6)"><text class="lab">126.80</text></g></g><g class="tick" transform="translate(169.104 163.2)"><line x1="0" x2="0" y1="0" y2="5" /><g transform="translate(0 6)"><text class="lab">196.19</text></g></g><g class="tick" transform="translate(763.968 163.2)"><line x1="0" x2="0" y1="0" y2="5" /><g transform="translate(0 6)"><text class="lab">978.90</text></g></g><g class="tick" transform="translate(780 163.2)"><line x1="0" x2="0" y1="0" y2="5" /><g transform="translate(0 6)"><text class="lab">1000.00</text></g></g></g></g></g><g class="plotbox trees"><g class="tree t0" transform="translate(20 0)"><g class="plotbox"><g class="c2 node n27 p0 root" transform="translate(115.156 26.8)"><g class="a27 c2 node n25 p0" transform="translate(36.0938 42.8164)"><g class="a25 c1 node n21 p0" transform="translate(11.25 20.6383)"><g class="a21 leaf node n9 p0 sample" transform="translate(0.0 31.1453)"><path class="edge" d="M 0 0 V -31.1453 H 0.0" /><rect class="sym" height="6" width="6" x="-3" y="-3" /><text class="lab" transform="translate(0 11)">9</text></g><path class="edge" d="M 0 0 V -20.6383 H -11.25" /><circle class="sym" cx="0" cy="0" r="3" /><text class="lab rgt" transform="translate(3 -7.0)">21</text></g><g class="a25 c1 node n24 p0" transform="translate(-11.25 9.57204)"><g class="a24 c1 node n17 p0" transform="translate(0.0 28.2766)"><g class="a17 c2 node n12 p0" transform="translate(0.0 11.7501)"><g class="a12 leaf node n4 p0 sample" transform="translate(-7.5 2.18485)"><path class="edge" d="M 0 0 V -2.18485 H 7.5" /><rect class="sym" height="6" width="6" x="-3" y="-3" /><text class="lab" transform="translate(0 11)">4</text></g><g class="a12 leaf node n8 p0 sample" transform="translate(7.5 2.18485)"><path class="edge" d="M 0 0 V -2.18485 H -7.5" /><rect class="sym" height="6" width="6" x="-3" y="-3" /><text class="lab" transform="translate(0 11)">8</text></g><path class="edge" d="M 0 0 V -11.7501 H 0.0" /><circle class="sym" cx="0" cy="0" r="3" /><text class="lab lft" transform="translate(-3 -7.0)">12</text></g><path class="edge" d="M 0 0 V -28.2766 H 0.0" /><circle class="sym" cx="0" cy="0" r="3" /><text class="lab lft" transform="translate(-3 -7.0)">17</text></g><path class="edge" d="M 0 0 V -9.57204 H 11.25" /><circle class="sym" cx="0" cy="0" r="3" /><text class="lab lft" transform="translate(-3 -7.0)">24</text></g><path class="edge" d="M 0 0 V -42.8164 H -36.0938" /><circle class="sym" cx="0" cy="0" r="3" /><text class="lab rgt" transform="translate(3 -7.0)">25</text></g><g class="a27 c2 node n26 p0" transform="translate(-36.0938 41.0223)"><g class="a26 c2 node n20 p0" transform="translate(19.6875 26.8557)"><g class="a20 c1 node n14 p0" transform="translate(-11.25 16.358)"><g class="a14 leaf node n3 p0 sample" transform="translate(0.0 10.364)"><path class="edge" d="M 0 0 V -10.364 H 0.0" /><rect class="sym" height="6" width="6" x="-3" y="-3" /><text class="lab" transform="translate(0 11)">3</text></g><path class="edge" d="M 0 0 V -16.358 H 11.25" /><circle class="sym" cx="0" cy="0" r="3" /><text class="lab lft" transform="translate(-3 -7.0)">14</text></g><g class="a20 c2 node n18 p0" transform="translate(11.25 9.94357)"><g class="a18 leaf node n5 p0 sample" transform="translate(-7.5 16.7785)"><path class="edge" d="M 0 0 V -16.7785 H 7.5" /><rect class="sym" height="6" width="6" x="-3" y="-3" /><text class="lab" transform="translate(0 11)">5</text></g><g class="a18 leaf node n6 p0 sample" transform="translate(7.5 16.7785)"><path class="edge" d="M 0 0 V -16.7785 H -7.5" /><rect class="sym" height="6" width="6" x="-3" y="-3" /><text class="lab" transform="translate(0 11)">6</text></g><path class="edge" d="M 0 0 V -9.94357 H -11.25" /><circle class="sym" cx="0" cy="0" r="3" /><text class="lab rgt" transform="translate(3 -7.0)">18</text></g><path class="edge" d="M 0 0 V -26.8557 H -19.6875" /><circle class="sym" cx="0" cy="0" r="3" /><text class="lab rgt" transform="translate(3 -7.0)">20</text></g><g class="a26 c2 node n23 p0" transform="translate(-19.6875 12.9384)"><g class="a23 leaf node n2 p0 sample" transform="translate(13.125 40.6393)"><path class="edge" d="M 0 0 V -40.6393 H -13.125" /><rect class="sym" height="6" width="6" x="-3" y="-3" /><text class="lab" transform="translate(0 11)">2</text></g><g class="a23 c2 node n19 p0" transform="translate(-13.125 23.8256)"><g class="a19 c2 node n13 p0" transform="translate(-11.25 14.2745)"><g class="a13 leaf node n1 p0 sample" transform="translate(7.5 2.53924)"><path class="edge" d="M 0 0 V -2.53924 H -7.5" /><rect class="sym" height="6" width="6" x="-3" y="-3" /><text class="lab" transform="translate(0 11)">1</text></g><g class="a13 c1 node n10 p0" transform="translate(-7.5 2.25992)"><g class="a10 leaf node n0 p0 sample" transform="translate(0.0 0.279323)"><path class="edge" d="M 0 0 V -0.279323 H 0.0" /><rect class="sym" height="6" width="6" x="-3" y="-3" /><text class="lab" transform="translate(0 11)">0</text></g><path class="edge" d="M 0 0 V -2.25992 H 7.5" /><circle class="sym" cx="0" cy="0" r="3" /><text class="lab lft" transform="translate(-3 -7.0)">10</text></g><path class="edge" d="M 0 0 V -14.2745 H 11.25" /><circle class="sym" cx="0" cy="0" r="3" /><text class="lab lft" transform="translate(-3 -7.0)">13</text></g><g class="a19 c1 node n16 p0" transform="translate(11.25 5.06768)"><g class="a16 leaf node n7 p0 sample" transform="translate(0.0 11.746)"><path class="edge" d="M 0 0 V -11.746 H 0.0" /><rect class="sym" height="6" width="6" x="-3" y="-3" /><text class="lab" transform="translate(0 11)">7</text></g><path class="edge" d="M 0 0 V -5.06768 H -11.25" /><circle class="sym" cx="0" cy="0" r="3" /><text class="lab rgt" transform="translate(3 -7.0)">16</text></g><path class="edge" d="M 0 0 V -23.8256 H 13.125" /><circle class="sym" cx="0" cy="0" r="3" /><text class="lab lft" transform="translate(-3 -7.0)">19</text></g><path class="edge" d="M 0 0 V -12.9384 H 19.6875" /><circle class="sym" cx="0" cy="0" r="3" /><text class="lab lft" transform="translate(-3 -7.0)">23</text></g><path class="edge" d="M 0 0 V -41.0223 H 36.0938" /><circle class="sym" cx="0" cy="0" r="3" /><text class="lab lft" transform="translate(-3 -7.0)">26</text></g><circle class="sym" cx="0" cy="0" r="3" /><text class="lab" transform="translate(0 -11)">27</text></g></g></g><g class="tree t1" transform="translate(210 0)"><g class="plotbox"><g class="c2 node n27 p0 root" transform="translate(115.156 26.8)"><g class="a27 c1 node n25 p0" transform="translate(36.0938 42.8164)"><g class="a25 c2 node n24 p0" transform="translate(0.0 9.57204)"><g class="a24 c1 node n17 p0" transform="translate(-11.25 28.2766)"><g class="a17 c2 node n12 p0" transform="translate(0.0 11.7501)"><g class="a12 leaf node n4 p0 sample" transform="translate(-7.5 2.18485)"><path class="edge" d="M 0 0 V -2.18485 H 7.5" /><rect class="sym" height="6" width="6" x="-3" y="-3" /><text class="lab" transform="translate(0 11)">4</text></g><g class="a12 leaf node n8 p0 sample" transform="translate(7.5 2.18485)"><path class="edge" d="M 0 0 V -2.18485 H -7.5" /><rect class="sym" height="6" width="6" x="-3" y="-3" /><text class="lab" transform="translate(0 11)">8</text></g><path class="edge" d="M 0 0 V -11.7501 H 0.0" /><circle class="sym" cx="0" cy="0" r="3" /><text class="lab lft" transform="translate(-3 -7.0)">12</text></g><path class="edge" d="M 0 0 V -28.2766 H 11.25" /><circle class="sym" cx="0" cy="0" r="3" /><text class="lab lft" transform="translate(-3 -7.0)">17</text></g><g class="a24 c1 node n22 p0" transform="translate(11.25 11.0662)"><g class="a22 leaf node n9 p0 sample" transform="translate(0.0 31.1453)"><path class="edge" d="M 0 0 V -31.1453 H 0.0" /><rect class="sym" height="6" width="6" x="-3" y="-3" /><text class="lab" transform="translate(0 11)">9</text></g><path class="edge" d="M 0 0 V -11.0662 H -11.25" /><circle class="sym" cx="0" cy="0" r="3" /><text class="lab rgt" transform="translate(3 -7.0)">22</text></g><path class="edge" d="M 0 0 V -9.57204 H 0.0" /><circle class="sym" cx="0" cy="0" r="3" /><text class="lab lft" transform="translate(-3 -7.0)">24</text></g><path class="edge" d="M 0 0 V -42.8164 H -36.0938" /><circle class="sym" cx="0" cy="0" r="3" /><text class="lab rgt" transform="translate(3 -7.0)">25</text></g><g class="a27 c2 node n26 p0" transform="translate(-36.0938 41.0223)"><g class="a26 c2 node n20 p0" transform="translate(19.6875 26.8557)"><g class="a20 c1 node n14 p0" transform="translate(-11.25 16.358)"><g class="a14 leaf node n3 p0 sample" transform="translate(0.0 10.364)"><path class="edge" d="M 0 0 V -10.364 H 0.0" /><rect class="sym" height="6" width="6" x="-3" y="-3" /><text class="lab" transform="translate(0 11)">3</text></g><path class="edge" d="M 0 0 V -16.358 H 11.25" /><circle class="sym" cx="0" cy="0" r="3" /><text class="lab lft" transform="translate(-3 -7.0)">14</text></g><g class="a20 c2 node n18 p0" transform="translate(11.25 9.94357)"><g class="a18 leaf node n5 p0 sample" transform="translate(-7.5 16.7785)"><path class="edge" d="M 0 0 V -16.7785 H 7.5" /><rect class="sym" height="6" width="6" x="-3" y="-3" /><text class="lab" transform="translate(0 11)">5</text></g><g class="a18 leaf node n6 p0 sample" transform="translate(7.5 16.7785)"><path class="edge" d="M 0 0 V -16.7785 H -7.5" /><rect class="sym" height="6" width="6" x="-3" y="-3" /><text class="lab" transform="translate(0 11)">6</text></g><path class="edge" d="M 0 0 V -9.94357 H -11.25" /><circle class="sym" cx="0" cy="0" r="3" /><text class="lab rgt" transform="translate(3 -7.0)">18</text></g><path class="edge" d="M 0 0 V -26.8557 H -19.6875" /><circle class="sym" cx="0" cy="0" r="3" /><text class="lab rgt" transform="translate(3 -7.0)">20</text></g><g class="a26 c2 node n23 p0" transform="translate(-19.6875 12.9384)"><g class="a23 leaf node n2 p0 sample" transform="translate(13.125 40.6393)"><path class="edge" d="M 0 0 V -40.6393 H -13.125" /><rect class="sym" height="6" width="6" x="-3" y="-3" /><text class="lab" transform="translate(0 11)">2</text></g><g class="a23 c2 node n19 p0" transform="translate(-13.125 23.8256)"><g class="a19 c2 node n13 p0" transform="translate(-11.25 14.2745)"><g class="a13 leaf node n1 p0 sample" transform="translate(7.5 2.53924)"><path class="edge" d="M 0 0 V -2.53924 H -7.5" /><rect class="sym" height="6" width="6" x="-3" y="-3" /><text class="lab" transform="translate(0 11)">1</text></g><g class="a13 c1 node n10 p0" transform="translate(-7.5 2.25992)"><g class="a10 leaf node n0 p0 sample" transform="translate(0.0 0.279323)"><path class="edge" d="M 0 0 V -0.279323 H 0.0" /><rect class="sym" height="6" width="6" x="-3" y="-3" /><text class="lab" transform="translate(0 11)">0</text></g><path class="edge" d="M 0 0 V -2.25992 H 7.5" /><circle class="sym" cx="0" cy="0" r="3" /><text class="lab lft" transform="translate(-3 -7.0)">10</text></g><path class="edge" d="M 0 0 V -14.2745 H 11.25" /><circle class="sym" cx="0" cy="0" r="3" /><text class="lab lft" transform="translate(-3 -7.0)">13</text></g><g class="a19 c1 node n16 p0" transform="translate(11.25 5.06768)"><g class="a16 leaf node n7 p0 sample" transform="translate(0.0 11.746)"><path class="edge" d="M 0 0 V -11.746 H 0.0" /><rect class="sym" height="6" width="6" x="-3" y="-3" /><text class="lab" transform="translate(0 11)">7</text></g><path class="edge" d="M 0 0 V -5.06768 H -11.25" /><circle class="sym" cx="0" cy="0" r="3" /><text class="lab rgt" transform="translate(3 -7.0)">16</text></g><path class="edge" d="M 0 0 V -23.8256 H 13.125" /><circle class="sym" cx="0" cy="0" r="3" /><text class="lab lft" transform="translate(-3 -7.0)">19</text></g><path class="edge" d="M 0 0 V -12.9384 H 19.6875" /><circle class="sym" cx="0" cy="0" r="3" /><text class="lab lft" transform="translate(-3 -7.0)">23</text></g><path class="edge" d="M 0 0 V -41.0223 H 36.0938" /><circle class="sym" cx="0" cy="0" r="3" /><text class="lab lft" transform="translate(-3 -7.0)">26</text></g><circle class="sym" cx="0" cy="0" r="3" /><text class="lab" transform="translate(0 -11)">27</text></g></g></g><g class="tree t2" transform="translate(400 0)"><g class="plotbox"><g class="c2 node n27 p0 root" transform="translate(115.156 26.8)"><g class="a27 c1 node n25 p0" transform="translate(36.0938 42.8164)"><g class="a25 c2 node n24 p0" transform="translate(0.0 9.57204)"><g class="a24 c1 node n17 p0" transform="translate(-11.25 28.2766)"><g class="a17 c2 node n12 p0" transform="translate(0.0 11.7501)"><g class="a12 leaf node n4 p0 sample" transform="translate(-7.5 2.18485)"><path class="edge" d="M 0 0 V -2.18485 H 7.5" /><rect class="sym" height="6" width="6" x="-3" y="-3" /><text class="lab" transform="translate(0 11)">4</text></g><g class="a12 leaf node n8 p0 sample" transform="translate(7.5 2.18485)"><path class="edge" d="M 0 0 V -2.18485 H -7.5" /><rect class="sym" height="6" width="6" x="-3" y="-3" /><text class="lab" transform="translate(0 11)">8</text></g><path class="edge" d="M 0 0 V -11.7501 H 0.0" /><circle class="sym" cx="0" cy="0" r="3" /><text class="lab lft" transform="translate(-3 -7.0)">12</text></g><path class="edge" d="M 0 0 V -28.2766 H 11.25" /><circle class="sym" cx="0" cy="0" r="3" /><text class="lab lft" transform="translate(-3 -7.0)">17</text></g><g class="a24 c1 node n22 p0" transform="translate(11.25 11.0662)"><g class="a22 leaf node n9 p0 sample" transform="translate(0.0 31.1453)"><path class="edge" d="M 0 0 V -31.1453 H 0.0" /><rect class="sym" height="6" width="6" x="-3" y="-3" /><text class="lab" transform="translate(0 11)">9</text></g><path class="edge" d="M 0 0 V -11.0662 H -11.25" /><circle class="sym" cx="0" cy="0" r="3" /><text class="lab rgt" transform="translate(3 -7.0)">22</text></g><path class="edge" d="M 0 0 V -9.57204 H 0.0" /><circle class="sym" cx="0" cy="0" r="3" /><text class="lab lft" transform="translate(-3 -7.0)">24</text></g><path class="edge" d="M 0 0 V -42.8164 H -36.0938" /><circle class="sym" cx="0" cy="0" r="3" /><text class="lab rgt" transform="translate(3 -7.0)">25</text></g><g class="a27 c2 node n26 p0" transform="translate(-36.0938 41.0223)"><g class="a26 c2 node n20 p0" transform="translate(19.6875 26.8557)"><g class="a20 c1 node n14 p0" transform="translate(-11.25 16.358)"><g class="a14 leaf node n3 p0 sample" transform="translate(0.0 10.364)"><path class="edge" d="M 0 0 V -10.364 H 0.0" /><rect class="sym" height="6" width="6" x="-3" y="-3" /><text class="lab" transform="translate(0 11)">3</text></g><path class="edge" d="M 0 0 V -16.358 H 11.25" /><circle class="sym" cx="0" cy="0" r="3" /><text class="lab lft" transform="translate(-3 -7.0)">14</text></g><g class="a20 c2 node n18 p0" transform="translate(11.25 9.94357)"><g class="a18 leaf node n5 p0 sample" transform="translate(-7.5 16.7785)"><path class="edge" d="M 0 0 V -16.7785 H 7.5" /><rect class="sym" height="6" width="6" x="-3" y="-3" /><text class="lab" transform="translate(0 11)">5</text></g><g class="a18 leaf node n6 p0 sample" transform="translate(7.5 16.7785)"><path class="edge" d="M 0 0 V -16.7785 H -7.5" /><rect class="sym" height="6" width="6" x="-3" y="-3" /><text class="lab" transform="translate(0 11)">6</text></g><path class="edge" d="M 0 0 V -9.94357 H -11.25" /><circle class="sym" cx="0" cy="0" r="3" /><text class="lab rgt" transform="translate(3 -7.0)">18</text></g><path class="edge" d="M 0 0 V -26.8557 H -19.6875" /><circle class="sym" cx="0" cy="0" r="3" /><text class="lab rgt" transform="translate(3 -7.0)">20</text></g><g class="a26 c2 node n23 p0" transform="translate(-19.6875 12.9384)"><g class="a23 leaf node n2 p0 sample" transform="translate(13.125 40.6393)"><path class="edge" d="M 0 0 V -40.6393 H -13.125" /><rect class="sym" height="6" width="6" x="-3" y="-3" /><text class="lab" transform="translate(0 11)">2</text></g><g class="a23 c2 node n19 p0" transform="translate(-13.125 23.8256)"><g class="a19 c1 node n13 p0" transform="translate(11.25 14.2745)"><g class="a13 leaf node n1 p0 sample" transform="translate(0.0 2.53924)"><path class="edge" d="M 0 0 V -2.53924 H 0.0" /><rect class="sym" height="6" width="6" x="-3" y="-3" /><text class="lab" transform="translate(0 11)">1</text></g><path class="edge" d="M 0 0 V -14.2745 H -11.25" /><circle class="sym" cx="0" cy="0" r="3" /><text class="lab rgt" transform="translate(3 -7.0)">13</text></g><g class="a19 c2 node n16 p0" transform="translate(-11.25 5.06768)"><g class="a16 leaf node n7 p0 sample" transform="translate(7.5 11.746)"><path class="edge" d="M 0 0 V -11.746 H -7.5" /><rect class="sym" height="6" width="6" x="-3" y="-3" /><text class="lab" transform="translate(0 11)">7</text></g><g class="a16 c1 node n11 p0" transform="translate(-7.5 11.4667)"><g class="a11 leaf node n0 p0 sample" transform="translate(0.0 0.279323)"><path class="edge" d="M 0 0 V -0.279323 H 0.0" /><rect class="sym" height="6" width="6" x="-3" y="-3" /><text class="lab" transform="translate(0 11)">0</text></g><path class="edge" d="M 0 0 V -11.4667 H 7.5" /><circle class="sym" cx="0" cy="0" r="3" /><text class="lab lft" transform="translate(-3 -7.0)">11</text></g><path class="edge" d="M 0 0 V -5.06768 H 11.25" /><circle class="sym" cx="0" cy="0" r="3" /><text class="lab lft" transform="translate(-3 -7.0)">16</text></g><path class="edge" d="M 0 0 V -23.8256 H 13.125" /><circle class="sym" cx="0" cy="0" r="3" /><text class="lab lft" transform="translate(-3 -7.0)">19</text></g><path class="edge" d="M 0 0 V -12.9384 H 19.6875" /><circle class="sym" cx="0" cy="0" r="3" /><text class="lab lft" transform="translate(-3 -7.0)">23</text></g><path class="edge" d="M 0 0 V -41.0223 H 36.0938" /><circle class="sym" cx="0" cy="0" r="3" /><text class="lab lft" transform="translate(-3 -7.0)">26</text></g><circle class="sym" cx="0" cy="0" r="3" /><text class="lab" transform="translate(0 -11)">27</text></g></g></g><g class="tree t3" transform="translate(590 0)"><g class="plotbox"><g class="c2 node n27 p0 root" transform="translate(111.406 26.8)"><g class="a27 c1 node n25 p0" transform="translate(34.2188 42.8164)"><g class="a25 c2 node n24 p0" transform="translate(0.0 9.57204)"><g class="a24 c2 node n17 p0" transform="translate(-16.875 28.2766)"><g class="a17 c2 node n12 p0" transform="translate(11.25 11.7501)"><g class="a12 leaf node n4 p0 sample" transform="translate(-7.5 2.18485)"><path class="edge" d="M 0 0 V -2.18485 H 7.5" /><rect class="sym" height="6" width="6" x="-3" y="-3" /><text class="lab" transform="translate(0 11)">4</text></g><g class="a12 leaf node n8 p0 sample" transform="translate(7.5 2.18485)"><path class="edge" d="M 0 0 V -2.18485 H -7.5" /><rect class="sym" height="6" width="6" x="-3" y="-3" /><text class="lab" transform="translate(0 11)">8</text></g><path class="edge" d="M 0 0 V -11.7501 H -11.25" /><circle class="sym" cx="0" cy="0" r="3" /><text class="lab rgt" transform="translate(3 -7.0)">12</text></g><g class="a17 c1 node n15 p0" transform="translate(-11.25 3.57092)"><g class="a15 leaf node n3 p0 sample" transform="translate(0.0 10.364)"><path class="edge" d="M 0 0 V -10.364 H 0.0" /><rect class="sym" height="6" width="6" x="-3" y="-3" /><text class="lab" transform="translate(0 11)">3</text></g><path class="edge" d="M 0 0 V -3.57092 H 11.25" /><circle class="sym" cx="0" cy="0" r="3" /><text class="lab lft" transform="translate(-3 -7.0)">15</text></g><path class="edge" d="M 0 0 V -28.2766 H 16.875" /><circle class="sym" cx="0" cy="0" r="3" /><text class="lab lft" transform="translate(-3 -7.0)">17</text></g><g class="a24 c1 node n22 p0" transform="translate(16.875 11.0662)"><g class="a22 leaf node n9 p0 sample" transform="translate(0.0 31.1453)"><path class="edge" d="M 0 0 V -31.1453 H 0.0" /><rect class="sym" height="6" width="6" x="-3" y="-3" /><text class="lab" transform="translate(0 11)">9</text></g><path class="edge" d="M 0 0 V -11.0662 H -16.875" /><circle class="sym" cx="0" cy="0" r="3" /><text class="lab rgt" transform="translate(3 -7.0)">22</text></g><path class="edge" d="M 0 0 V -9.57204 H 0.0" /><circle class="sym" cx="0" cy="0" r="3" /><text class="lab lft" transform="translate(-3 -7.0)">24</text></g><path class="edge" d="M 0 0 V -42.8164 H -34.2188" /><circle class="sym" cx="0" cy="0" r="3" /><text class="lab rgt" transform="translate(3 -7.0)">25</text></g><g class="a27 c2 node n26 p0" transform="translate(-34.2188 41.0223)"><g class="a26 c1 node n20 p0" transform="translate(17.8125 26.8557)"><g class="a20 c2 node n18 p0" transform="translate(0.0 9.94357)"><g class="a18 leaf node n5 p0 sample" transform="translate(-7.5 16.7785)"><path class="edge" d="M 0 0 V -16.7785 H 7.5" /><rect class="sym" height="6" width="6" x="-3" y="-3" /><text class="lab" transform="translate(0 11)">5</text></g><g class="a18 leaf node n6 p0 sample" transform="translate(7.5 16.7785)"><path class="edge" d="M 0 0 V -16.7785 H -7.5" /><rect class="sym" height="6" width="6" x="-3" y="-3" /><text class="lab" transform="translate(0 11)">6</text></g><path class="edge" d="M 0 0 V -9.94357 H 0.0" /><circle class="sym" cx="0" cy="0" r="3" /><text class="lab lft" transform="translate(-3 -7.0)">18</text></g><path class="edge" d="M 0 0 V -26.8557 H -17.8125" /><circle class="sym" cx="0" cy="0" r="3" /><text class="lab rgt" transform="translate(3 -7.0)">20</text></g><g class="a26 c2 node n23 p0" transform="translate(-17.8125 12.9384)"><g class="a23 leaf node n2 p0 sample" transform="translate(13.125 40.6393)"><path class="edge" d="M 0 0 V -40.6393 H -13.125" /><rect class="sym" height="6" width="6" x="-3" y="-3" /><text class="lab" transform="translate(0 11)">2</text></g><g class="a23 c2 node n19 p0" transform="translate(-13.125 23.8256)"><g class="a19 c1 node n13 p0" transform="translate(11.25 14.2745)"><g class="a13 leaf node n1 p0 sample" transform="translate(0.0 2.53924)"><path class="edge" d="M 0 0 V -2.53924 H 0.0" /><rect class="sym" height="6" width="6" x="-3" y="-3" /><text class="lab" transform="translate(0 11)">1</text></g><path class="edge" d="M 0 0 V -14.2745 H -11.25" /><circle class="sym" cx="0" cy="0" r="3" /><text class="lab rgt" transform="translate(3 -7.0)">13</text></g><g class="a19 c2 node n16 p0" transform="translate(-11.25 5.06768)"><g class="a16 leaf node n7 p0 sample" transform="translate(7.5 11.746)"><path class="edge" d="M 0 0 V -11.746 H -7.5" /><rect class="sym" height="6" width="6" x="-3" y="-3" /><text class="lab" transform="translate(0 11)">7</text></g><g class="a16 c1 node n11 p0" transform="translate(-7.5 11.4667)"><g class="a11 leaf node n0 p0 sample" transform="translate(0.0 0.279323)"><path class="edge" d="M 0 0 V -0.279323 H 0.0" /><rect class="sym" height="6" width="6" x="-3" y="-3" /><text class="lab" transform="translate(0 11)">0</text></g><path class="edge" d="M 0 0 V -11.4667 H 7.5" /><circle class="sym" cx="0" cy="0" r="3" /><text class="lab lft" transform="translate(-3 -7.0)">11</text></g><path class="edge" d="M 0 0 V -5.06768 H 11.25" /><circle class="sym" cx="0" cy="0" r="3" /><text class="lab lft" transform="translate(-3 -7.0)">16</text></g><path class="edge" d="M 0 0 V -23.8256 H 13.125" /><circle class="sym" cx="0" cy="0" r="3" /><text class="lab lft" transform="translate(-3 -7.0)">19</text></g><path class="edge" d="M 0 0 V -12.9384 H 17.8125" /><circle class="sym" cx="0" cy="0" r="3" /><text class="lab lft" transform="translate(-3 -7.0)">23</text></g><path class="edge" d="M 0 0 V -41.0223 H 34.2188" /><circle class="sym" cx="0" cy="0" r="3" /><text class="lab lft" transform="translate(-3 -7.0)">26</text></g><circle class="sym" cx="0" cy="0" r="3" /><text class="lab" transform="translate(0 -11)">27</text></g></g></g></g></g></svg>
