<svg baseProfile="full" height="200" version="1.1" width="1400" xmlns="http://www.w3.org/2000/svg" xmlns:ev="http://www.w3.org/2001/xml-events" xmlns:xlink="http://www.w3.org/1999/xlink"><defs><style type="text/css"><![CDATA[.background path {fill: #808080; fill-opacity: 0}.background path:nth-child(odd) {fill-opacity: .1}.axes {font-size: 14px}.x-axis .tick .lab {font-weight: bold; dominant-baseline: hanging}.axes, .tree {font-size: 14px; text-anchor: middle}.axes line, .edge {stroke: black; fill: none}.y-axis .grid {stroke: #FAFAFA}.node > .sym {fill: black; stroke: none}.site > .sym {stroke: black}.mut text {fill: red; font-style: italic}.mut.extra text {fill: hotpink}.mut line {fill: none; stroke: none}.mut .sym {fill: none; stroke: red}.mut.extra .sym {stroke: hotpink}.node .mut .sym {stroke-width: 1.5px}.tree text, .tree-sequence text {dominant-baseline: central}.plotbox .lab.lft {text-anchor: end}.plotbox .lab.rgt {text-anchor: start}]]></style></defs><g class="tree-sequence"><g class="background"><path d="M20,0 l194.286,0 l0,138.2 l-49.6856,25 l0,5 l-144.6,0 l0,-5 l0,-25 l0,-138.2z" /><path d="M214.286,0 l194.286,0 l0,138.2 l-127.305,25 l0,5 l-116.667,0 l0,-5 l49.6856,-25 l0,-138.2z" /><path d="M408.571,0 l194.286,0 l0,138.2 l-121.388,25 l0,5 l-200.202,0 l0,-5 l127.305,-25 l0,-138.2z" /><path d="M602.857,0 l194.286,0 l0,138.2 l108.825,25 l0,5 l-424.499,0 l0,-5 l121.388,-25 l0,-138.2z" /><path d="M797.143,0 l194.286,0 l0,138.2 l-84.7226,25 l0,5 l-0.738404,0 l0,-5 l-108.825,-25 l0,-138.2z" /><path d="M991.429,0 l194.286,0 l0,138.2 l190.434,25 l0,5 l-469.442,0 l0,-5 l84.7226,-25 l0,-138.2z" /><path d="M1185.71,0 l194.286,0 l0,138.2 l0,25 l0,5 l-3.85211,0 l0,-5 l-190.434,-25 l0,-138.2z" /></g><g class="axes"><g class="x-axis"><g transform="translate(700 200)"><text class="lab" text-anchor="middle" transform="translate(0 -11)">Genome position</text></g><line x1="20" x2="1380" y1="163.2" y2="163.2" /><g class="ticks"><g class="tick" transform="translate(20 163.2)"><line x1="0" x2="0" y1="0" y2="5" /><g transform="translate(0 6)"><text class="lab">0.00</text></g></g><g class="tick" transform="translate(164.6 163.2)"><line x1="0" x2="0" y1="0" y2="5" /><g transform="translate(0 6)"><text class="lab">106.32</text></g></g><g class="tick" transform="translate(281.267 163.2)"><line x1="0" x2="0" y1="0" y2="5" /><g transform="translate(0 6)"><text class="lab">192.11</text></g></g><g class="tick" transform="translate(481.469 163.2)"><line x1="0" x2="0" y1="0" y2="5" /><g transform="translate(0 6)"><text class="lab">339.32</text></g></g><g class="tick" transform="translate(905.968 163.2)"><line x1="0" x2="0" y1="0" y2="5" /><g transform="translate(0 6)"><text class="lab">651.45</text></g></g><g class="tick" transform="translate(906.706 163.2)"><line x1="0" x2="0" y1="0" y2="5" /><g transform="translate(0 6)"><text class="lab">651.99</text></g></g><g class="tick" transform="translate(1376.15 163.2)"><line x1="0" x2="0" y1="0" y2="5" /><g transform="translate(0 6)"><text class="lab">997.17</text></g></g><g class="tick" transform="translate(1380 163.2)"><line x1="0" x2="0" y1="0" y2="5" /><g transform="translate(0 6)"><text class="lab">1000.00</text></g></g></g></g></g><g class="plotbox trees"><g class="tree t0" transform="translate(20 0)"><g class="plotbox"><g class="c2 node n36 p0 root" transform="translate(131.134 26.8)"><g class="a36 c1 node n34 p0" transform="translate(27.7232 13.7737)"><g class="a34 c1 node n25 p0" transform="translate(0.0 52.8166)"><g class="a25 c1 node n22 p0" transform="translate(0.0 5.35201)"><g class="a22 c2 node n16 p0" transform="translate(0.0 10.5018)"><g class="a16 leaf node n1 p0 sample" transform="translate(-7.71429 12.1559)"><path class="edge" d="M 0 0 V -12.1559 H 7.71429" /><rect class="sym" height="6" width="6" x="-3" y="-3" /><text class="lab" transform="translate(0 11)">1</text></g><g class="a16 c1 node n12 p0" transform="translate(7.71429 8.31501)"><g class="a12 leaf node n7 p0 sample" transform="translate(0.0 3.84089)"><path class="edge" d="M 0 0 V -3.84089 H 0.0" /><rect class="sym" height="6" width="6" x="-3" y="-3" /><text class="lab" transform="translate(0 11)">7</text></g><path class="edge" d="M 0 0 V -8.31501 H -7.71429" /><circle class="sym" cx="0" cy="0" r="3" /><text class="lab rgt" transform="translate(3 -7.0)">12</text></g><path class="edge" d="M 0 0 V -10.5018 H 0.0" /><circle class="sym" cx="0" cy="0" r="3" /><text class="lab lft" transform="translate(-3 -7.0)">16</text></g><path class="edge" d="M 0 0 V -5.35201 H 0.0" /><circle class="sym" cx="0" cy="0" r="3" /><text class="lab lft" transform="translate(-3 -7.0)">22</text></g><path class="edge" d="M 0 0 V -52.8166 H 0.0" /><circle class="sym" cx="0" cy="0" r="3" /><text class="lab lft" transform="translate(-3 -7.0)">25</text></g><path class="edge" d="M 0 0 V -13.7737 H -27.7232" /><circle class="sym" cx="0" cy="0" r="3" /><text class="lab rgt" transform="translate(3 -7.0)">34</text></g><g class="a36 c1 node n35 p0" transform="translate(-27.7232 2.78472)"><g class="a35 c2 node n31 p0" transform="translate(0.0 46.3686)"><g class="a31 c2 node n29 p0" transform="translate(24.5893 12.234)"><g class="a29 c1 node n26 p0" transform="translate(7.71429 1.94039)"><g class="a26 leaf node n4 p0 sample" transform="translate(0.0 31.2723)"><path class="edge" d="M 0 0 V -31.2723 H 0.0" /><rect class="sym" height="6" width="6" x="-3" y="-3" /><text class="lab" transform="translate(0 11)">4</text></g><path class="edge" d="M 0 0 V -1.94039 H -7.71429" /><circle class="sym" cx="0" cy="0" r="3" /><text class="lab rgt" transform="translate(3 -7.0)">26</text></g><g class="a29 c1 node n28 p0" transform="translate(-7.71429 0.29153)"><g class="a28 c1 node n20 p0" transform="translate(0.0 11.4014)"><g class="a20 leaf node n3 p0 sample" transform="translate(0.0 21.5198)"><path class="edge" d="M 0 0 V -21.5198 H 0.0" /><rect class="sym" height="6" width="6" x="-3" y="-3" /><text class="lab" transform="translate(0 11)">3</text></g><path class="edge" d="M 0 0 V -11.4014 H 0.0" /><circle class="sym" cx="0" cy="0" r="3" /><text class="lab lft" transform="translate(-3 -7.0)">20</text></g><path class="edge" d="M 0 0 V -0.29153 H 7.71429" /><circle class="sym" cx="0" cy="0" r="3" /><text class="lab lft" transform="translate(-3 -7.0)">28</text></g><path class="edge" d="M 0 0 V -12.234 H -24.5893" /><circle class="sym" cx="0" cy="0" r="3" /><text class="lab rgt" transform="translate(3 -7.0)">29</text></g><g class="a31 c2 node n30 p0" transform="translate(-24.5893 4.69412)"><g class="a30 c2 node n23 p0" transform="translate(-18.3214 17.9281)"><g class="a23 leaf node n8 p0 sample" transform="translate(13.5 22.8245)"><path class="edge" d="M 0 0 V -22.8245 H -13.5" /><rect class="sym" height="6" width="6" x="-3" y="-3" /><text class="lab" transform="translate(0 11)">8</text></g><g class="a23 c2 node n19 p0" transform="translate(-13.5 7.26496)"><g class="a19 leaf node n9 p0 sample" transform="translate(11.5714 15.5595)"><path class="edge" d="M 0 0 V -15.5595 H -11.5714" /><rect class="sym" height="6" width="6" x="-3" y="-3" /><text class="lab" transform="translate(0 11)">9</text></g><g class="a19 c2 node n13 p0" transform="translate(-11.5714 9.64127)"><g class="a13 leaf node n0 p0 sample" transform="translate(-7.71429 5.91826)"><path class="edge" d="M 0 0 V -5.91826 H 7.71429" /><rect class="sym" height="6" width="6" x="-3" y="-3" /><text class="lab" transform="translate(0 11)">0</text></g><g class="a13 leaf node n2 p0 sample" transform="translate(7.71429 5.91826)"><path class="edge" d="M 0 0 V -5.91826 H -7.71429" /><rect class="sym" height="6" width="6" x="-3" y="-3" /><text class="lab" transform="translate(0 11)">2</text></g><path class="edge" d="M 0 0 V -9.64127 H 11.5714" /><circle class="sym" cx="0" cy="0" r="3" /><text class="lab lft" transform="translate(-3 -7.0)">13</text></g><path class="edge" d="M 0 0 V -7.26496 H 13.5" /><circle class="sym" cx="0" cy="0" r="3" /><text class="lab lft" transform="translate(-3 -7.0)">19</text></g><path class="edge" d="M 0 0 V -17.9281 H 18.3214" /><circle class="sym" cx="0" cy="0" r="3" /><text class="lab lft" transform="translate(-3 -7.0)">23</text></g><g class="a30 c2 node n24 p0" transform="translate(18.3214 13.6136)"><g class="a24 c1 node n10 p0" transform="translate(-7.71429 24.7107)"><g class="a10 leaf node n5 p0 sample" transform="translate(0.0 2.42836)"><path class="edge" d="M 0 0 V -2.42836 H 0.0" /><rect class="sym" height="6" width="6" x="-3" y="-3" /><text class="lab" transform="translate(0 11)">5</text></g><path class="edge" d="M 0 0 V -24.7107 H 7.71429" /><circle class="sym" cx="0" cy="0" r="3" /><text class="lab lft" transform="translate(-3 -7.0)">10</text></g><g class="a24 c1 node n14 p0" transform="translate(7.71429 20.394)"><g class="a14 leaf node n6 p0 sample" transform="translate(0.0 6.74504)"><path class="edge" d="M 0 0 V -6.74504 H 0.0" /><rect class="sym" height="6" width="6" x="-3" y="-3" /><text class="lab" transform="translate(0 11)">6</text></g><path class="edge" d="M 0 0 V -20.394 H -7.71429" /><circle class="sym" cx="0" cy="0" r="3" /><text class="lab rgt" transform="translate(3 -7.0)">14</text></g><path class="edge" d="M 0 0 V -13.6136 H -18.3214" /><circle class="sym" cx="0" cy="0" r="3" /><text class="lab rgt" transform="translate(3 -7.0)">24</text></g><path class="edge" d="M 0 0 V -4.69412 H 24.5893" /><circle class="sym" cx="0" cy="0" r="3" /><text class="lab lft" transform="translate(-3 -7.0)">30</text></g><path class="edge" d="M 0 0 V -46.3686 H 0.0" /><circle class="sym" cx="0" cy="0" r="3" /><text class="lab lft" transform="translate(-3 -7.0)">31</text></g><path class="edge" d="M 0 0 V -2.78472 H 27.7232" /><circle class="sym" cx="0" cy="0" r="3" /><text class="lab lft" transform="translate(-3 -7.0)">35</text></g><circle class="sym" cx="0" cy="0" r="3" /><text class="lab" transform="translate(0 -11)">36</text></g></g></g><g class="tree t1" transform="translate(214.286 0)"><g class="plotbox"><g class="c2 node n36 p0 root" transform="translate(129.205 26.8)"><g class="a36 c1 node n34 p0" transform="translate(29.6518 13.7737)"><g class="a34 c1 node n25 p0" transform="translate(0.0 52.8166)"><g class="a25 c1 node n22 p0" transform="translate(0.0 5.35201)"><g class="a22 c2 node n16 p0" transform="translate(0.0 10.5018)"><g class="a16 leaf node n1 p0 sample" transform="translate(-7.71429 12.1559)"><path class="edge" d="M 0 0 V -12.1559 H 7.71429" /><rect class="sym" height="6" width="6" x="-3" y="-3" /><text class="lab" transform="translate(0 11)">1</text></g><g class="a16 c1 node n12 p0" transform="translate(7.71429 8.31501)"><g class="a12 leaf node n7 p0 sample" transform="translate(0.0 3.84089)"><path class="edge" d="M 0 0 V -3.84089 H 0.0" /><rect class="sym" height="6" width="6" x="-3" y="-3" /><text class="lab" transform="translate(0 11)">7</text></g><path class="edge" d="M 0 0 V -8.31501 H -7.71429" /><circle class="sym" cx="0" cy="0" r="3" /><text class="lab rgt" transform="translate(3 -7.0)">12</text></g><path class="edge" d="M 0 0 V -10.5018 H 0.0" /><circle class="sym" cx="0" cy="0" r="3" /><text class="lab lft" transform="translate(-3 -7.0)">16</text></g><path class="edge" d="M 0 0 V -5.35201 H 0.0" /><circle class="sym" cx="0" cy="0" r="3" /><text class="lab lft" transform="translate(-3 -7.0)">22</text></g><path class="edge" d="M 0 0 V -52.8166 H 0.0" /><circle class="sym" cx="0" cy="0" r="3" /><text class="lab lft" transform="translate(-3 -7.0)">25</text></g><path class="edge" d="M 0 0 V -13.7737 H -29.6518" /><circle class="sym" cx="0" cy="0" r="3" /><text class="lab rgt" transform="translate(3 -7.0)">34</text></g><g class="a36 c1 node n35 p0" transform="translate(-29.6518 2.78472)"><g class="a35 c2 node n31 p0" transform="translate(0.0 46.3686)"><g class="a31 c2 node n29 p0" transform="translate(24.5893 12.234)"><g class="a29 c1 node n26 p0" transform="translate(11.5714 1.94039)"><g class="a26 leaf node n4 p0 sample" transform="translate(0.0 31.2723)"><path class="edge" d="M 0 0 V -31.2723 H 0.0" /><rect class="sym" height="6" width="6" x="-3" y="-3" /><text class="lab" transform="translate(0 11)">4</text></g><path class="edge" d="M 0 0 V -1.94039 H -11.5714" /><circle class="sym" cx="0" cy="0" r="3" /><text class="lab rgt" transform="translate(3 -7.0)">26</text></g><g class="a29 c2 node n28 p0" transform="translate(-11.5714 0.29153)"><g class="a28 c1 node n20 p0" transform="translate(-7.71429 11.4014)"><g class="a20 leaf node n3 p0 sample" transform="translate(0.0 21.5198)"><path class="edge" d="M 0 0 V -21.5198 H 0.0" /><rect class="sym" height="6" width="6" x="-3" y="-3" /><text class="lab" transform="translate(0 11)">3</text></g><path class="edge" d="M 0 0 V -11.4014 H 7.71429" /><circle class="sym" cx="0" cy="0" r="3" /><text class="lab lft" transform="translate(-3 -7.0)">20</text></g><g class="a28 c1 node n17 p0" transform="translate(7.71429 18.7085)"><g class="a17 c1 node n15 p0" transform="translate(0.0 7.46768)"><g class="a15 leaf node n6 p0 sample" transform="translate(0.0 6.74504)"><path class="edge" d="M 0 0 V -6.74504 H 0.0" /><rect class="sym" height="6" width="6" x="-3" y="-3" /><text class="lab" transform="translate(0 11)">6</text></g><path class="edge" d="M 0 0 V -7.46768 H 0.0" /><circle class="sym" cx="0" cy="0" r="3" /><text class="lab lft" transform="translate(-3 -7.0)">15</text></g><path class="edge" d="M 0 0 V -18.7085 H -7.71429" /><circle class="sym" cx="0" cy="0" r="3" /><text class="lab rgt" transform="translate(3 -7.0)">17</text></g><path class="edge" d="M 0 0 V -0.29153 H 11.5714" /><circle class="sym" cx="0" cy="0" r="3" /><text class="lab lft" transform="translate(-3 -7.0)">28</text></g><path class="edge" d="M 0 0 V -12.234 H -24.5893" /><circle class="sym" cx="0" cy="0" r="3" /><text class="lab rgt" transform="translate(3 -7.0)">29</text></g><g class="a31 c2 node n30 p0" transform="translate(-24.5893 4.69412)"><g class="a30 c2 node n23 p0" transform="translate(-14.4643 17.9281)"><g class="a23 leaf node n8 p0 sample" transform="translate(13.5 22.8245)"><path class="edge" d="M 0 0 V -22.8245 H -13.5" /><rect class="sym" height="6" width="6" x="-3" y="-3" /><text class="lab" transform="translate(0 11)">8</text></g><g class="a23 c2 node n19 p0" transform="translate(-13.5 7.26496)"><g class="a19 leaf node n9 p0 sample" transform="translate(11.5714 15.5595)"><path class="edge" d="M 0 0 V -15.5595 H -11.5714" /><rect class="sym" height="6" width="6" x="-3" y="-3" /><text class="lab" transform="translate(0 11)">9</text></g><g class="a19 c2 node n13 p0" transform="translate(-11.5714 9.64127)"><g class="a13 leaf node n0 p0 sample" transform="translate(-7.71429 5.91826)"><path class="edge" d="M 0 0 V -5.91826 H 7.71429" /><rect class="sym" height="6" width="6" x="-3" y="-3" /><text class="lab" transform="translate(0 11)">0</text></g><g class="a13 leaf node n2 p0 sample" transform="translate(7.71429 5.91826)"><path class="edge" d="M 0 0 V -5.91826 H -7.71429" /><rect class="sym" height="6" width="6" x="-3" y="-3" /><text class="lab" transform="translate(0 11)">2</text></g><path class="edge" d="M 0 0 V -9.64127 H 11.5714" /><circle class="sym" cx="0" cy="0" r="3" /><text class="lab lft" transform="translate(-3 -7.0)">13</text></g><path class="edge" d="M 0 0 V -7.26496 H 13.5" /><circle class="sym" cx="0" cy="0" r="3" /><text class="lab lft" transform="translate(-3 -7.0)">19</text></g><path class="edge" d="M 0 0 V -17.9281 H 14.4643" /><circle class="sym" cx="0" cy="0" r="3" /><text class="lab lft" transform="translate(-3 -7.0)">23</text></g><g class="a30 c1 node n24 p0" transform="translate(14.4643 13.6136)"><g class="a24 c1 node n10 p0" transform="translate(0.0 24.7107)"><g class="a10 leaf node n5 p0 sample" transform="translate(0.0 2.42836)"><path class="edge" d="M 0 0 V -2.42836 H 0.0" /><rect class="sym" height="6" width="6" x="-3" y="-3" /><text class="lab" transform="translate(0 11)">5</text></g><path class="edge" d="M 0 0 V -24.7107 H 0.0" /><circle class="sym" cx="0" cy="0" r="3" /><text class="lab lft" transform="translate(-3 -7.0)">10</text></g><path class="edge" d="M 0 0 V -13.6136 H -14.4643" /><circle class="sym" cx="0" cy="0" r="3" /><text class="lab rgt" transform="translate(3 -7.0)">24</text></g><path class="edge" d="M 0 0 V -4.69412 H 24.5893" /><circle class="sym" cx="0" cy="0" r="3" /><text class="lab lft" transform="translate(-3 -7.0)">30</text></g><path class="edge" d="M 0 0 V -46.3686 H 0.0" /><circle class="sym" cx="0" cy="0" r="3" /><text class="lab lft" transform="translate(-3 -7.0)">31</text></g><path class="edge" d="M 0 0 V -2.78472 H 29.6518" /><circle class="sym" cx="0" cy="0" r="3" /><text class="lab lft" transform="translate(-3 -7.0)">35</text></g><circle class="sym" cx="0" cy="0" r="3" /><text class="lab" transform="translate(0 -11)">36</text></g></g></g><g class="tree t2" transform="translate(408.571 0)"><g class="plotbox"><g class="c2 node n36 p0 root" transform="translate(124.384 26.8)"><g class="a36 c1 node n34 p0" transform="translate(30.6161 13.7737)"><g class="a34 c2 node n25 p0" transform="translate(0.0 52.8166)"><g class="a25 c1 node n22 p0" transform="translate(-11.5714 5.35201)"><g class="a22 c2 node n16 p0" transform="translate(0.0 10.5018)"><g class="a16 leaf node n1 p0 sample" transform="translate(-7.71429 12.1559)"><path class="edge" d="M 0 0 V -12.1559 H 7.71429" /><rect class="sym" height="6" width="6" x="-3" y="-3" /><text class="lab" transform="translate(0 11)">1</text></g><g class="a16 c1 node n12 p0" transform="translate(7.71429 8.31501)"><g class="a12 leaf node n7 p0 sample" transform="translate(0.0 3.84089)"><path class="edge" d="M 0 0 V -3.84089 H 0.0" /><rect class="sym" height="6" width="6" x="-3" y="-3" /><text class="lab" transform="translate(0 11)">7</text></g><path class="edge" d="M 0 0 V -8.31501 H -7.71429" /><circle class="sym" cx="0" cy="0" r="3" /><text class="lab rgt" transform="translate(3 -7.0)">12</text></g><path class="edge" d="M 0 0 V -10.5018 H 0.0" /><circle class="sym" cx="0" cy="0" r="3" /><text class="lab lft" transform="translate(-3 -7.0)">16</text></g><path class="edge" d="M 0 0 V -5.35201 H 11.5714" /><circle class="sym" cx="0" cy="0" r="3" /><text class="lab lft" transform="translate(-3 -7.0)">22</text></g><g class="a25 c1 node n18 p0" transform="translate(11.5714 13.797)"><g class="a18 c1 node n15 p0" transform="translate(0.0 7.46768)"><g class="a15 leaf node n6 p0 sample" transform="translate(0.0 6.74504)"><path class="edge" d="M 0 0 V -6.74504 H 0.0" /><rect class="sym" height="6" width="6" x="-3" y="-3" /><text class="lab" transform="translate(0 11)">6</text></g><path class="edge" d="M 0 0 V -7.46768 H 0.0" /><circle class="sym" cx="0" cy="0" r="3" /><text class="lab lft" transform="translate(-3 -7.0)">15</text></g><path class="edge" d="M 0 0 V -13.797 H -11.5714" /><circle class="sym" cx="0" cy="0" r="3" /><text class="lab rgt" transform="translate(3 -7.0)">18</text></g><path class="edge" d="M 0 0 V -52.8166 H 0.0" /><circle class="sym" cx="0" cy="0" r="3" /><text class="lab lft" transform="translate(-3 -7.0)">25</text></g><path class="edge" d="M 0 0 V -13.7737 H -30.6161" /><circle class="sym" cx="0" cy="0" r="3" /><text class="lab rgt" transform="translate(3 -7.0)">34</text></g><g class="a36 c1 node n35 p0" transform="translate(-30.6161 2.78472)"><g class="a35 c2 node n31 p0" transform="translate(0.0 46.3686)"><g class="a31 c2 node n29 p0" transform="translate(18.8036 12.234)"><g class="a29 c1 node n26 p0" transform="translate(7.71429 1.94039)"><g class="a26 leaf node n4 p0 sample" transform="translate(0.0 31.2723)"><path class="edge" d="M 0 0 V -31.2723 H 0.0" /><rect class="sym" height="6" width="6" x="-3" y="-3" /><text class="lab" transform="translate(0 11)">4</text></g><path class="edge" d="M 0 0 V -1.94039 H -7.71429" /><circle class="sym" cx="0" cy="0" r="3" /><text class="lab rgt" transform="translate(3 -7.0)">26</text></g><g class="a29 c1 node n28 p0" transform="translate(-7.71429 0.29153)"><g class="a28 c1 node n20 p0" transform="translate(0.0 11.4014)"><g class="a20 leaf node n3 p0 sample" transform="translate(0.0 21.5198)"><path class="edge" d="M 0 0 V -21.5198 H 0.0" /><rect class="sym" height="6" width="6" x="-3" y="-3" /><text class="lab" transform="translate(0 11)">3</text></g><path class="edge" d="M 0 0 V -11.4014 H 0.0" /><circle class="sym" cx="0" cy="0" r="3" /><text class="lab lft" transform="translate(-3 -7.0)">20</text></g><path class="edge" d="M 0 0 V -0.29153 H 7.71429" /><circle class="sym" cx="0" cy="0" r="3" /><text class="lab lft" transform="translate(-3 -7.0)">28</text></g><path class="edge" d="M 0 0 V -12.234 H -18.8036" /><circle class="sym" cx="0" cy="0" r="3" /><text class="lab rgt" transform="translate(3 -7.0)">29</text></g><g class="a31 c2 node n30 p0" transform="translate(-18.8036 4.69412)"><g class="a30 c2 node n23 p0" transform="translate(-14.4643 17.9281)"><g class="a23 leaf node n8 p0 sample" transform="translate(13.5 22.8245)"><path class="edge" d="M 0 0 V -22.8245 H -13.5" /><rect class="sym" height="6" width="6" x="-3" y="-3" /><text class="lab" transform="translate(0 11)">8</text></g><g class="a23 c2 node n19 p0" transform="translate(-13.5 7.26496)"><g class="a19 leaf node n9 p0 sample" transform="translate(11.5714 15.5595)"><path class="edge" d="M 0 0 V -15.5595 H -11.5714" /><rect class="sym" height="6" width="6" x="-3" y="-3" /><text class="lab" transform="translate(0 11)">9</text></g><g class="a19 c2 node n13 p0" transform="translate(-11.5714 9.64127)"><g class="a13 leaf node n0 p0 sample" transform="translate(-7.71429 5.91826)"><path class="edge" d="M 0 0 V -5.91826 H 7.71429" /><rect class="sym" height="6" width="6" x="-3" y="-3" /><text class="lab" transform="translate(0 11)">0</text></g><g class="a13 leaf node n2 p0 sample" transform="translate(7.71429 5.91826)"><path class="edge" d="M 0 0 V -5.91826 H -7.71429" /><rect class="sym" height="6" width="6" x="-3" y="-3" /><text class="lab" transform="translate(0 11)">2</text></g><path class="edge" d="M 0 0 V -9.64127 H 11.5714" /><circle class="sym" cx="0" cy="0" r="3" /><text class="lab lft" transform="translate(-3 -7.0)">13</text></g><path class="edge" d="M 0 0 V -7.26496 H 13.5" /><circle class="sym" cx="0" cy="0" r="3" /><text class="lab lft" transform="translate(-3 -7.0)">19</text></g><path class="edge" d="M 0 0 V -17.9281 H 14.4643" /><circle class="sym" cx="0" cy="0" r="3" /><text class="lab lft" transform="translate(-3 -7.0)">23</text></g><g class="a30 c1 node n24 p0" transform="translate(14.4643 13.6136)"><g class="a24 c1 node n10 p0" transform="translate(0.0 24.7107)"><g class="a10 leaf node n5 p0 sample" transform="translate(0.0 2.42836)"><path class="edge" d="M 0 0 V -2.42836 H 0.0" /><rect class="sym" height="6" width="6" x="-3" y="-3" /><text class="lab" transform="translate(0 11)">5</text></g><path class="edge" d="M 0 0 V -24.7107 H 0.0" /><circle class="sym" cx="0" cy="0" r="3" /><text class="lab lft" transform="translate(-3 -7.0)">10</text></g><path class="edge" d="M 0 0 V -13.6136 H -14.4643" /><circle class="sym" cx="0" cy="0" r="3" /><text class="lab rgt" transform="translate(3 -7.0)">24</text></g><path class="edge" d="M 0 0 V -4.69412 H 18.8036" /><circle class="sym" cx="0" cy="0" r="3" /><text class="lab lft" transform="translate(-3 -7.0)">30</text></g><path class="edge" d="M 0 0 V -46.3686 H 0.0" /><circle class="sym" cx="0" cy="0" r="3" /><text class="lab lft" transform="translate(-3 -7.0)">31</text></g><path class="edge" d="M 0 0 V -2.78472 H 30.6161" /><circle class="sym" cx="0" cy="0" r="3" /><text class="lab lft" transform="translate(-3 -7.0)">35</text></g><circle class="sym" cx="0" cy="0" r="3" /><text class="lab" transform="translate(0 -11)">36</text></g></g></g><g class="tree t3" transform="translate(602.857 0)"><g class="plotbox"><g class="c2 node n36 p0 root" transform="translate(121.491 26.8)"><g class="a36 c1 node n34 p0" transform="translate(31.5804 13.7737)"><g class="a34 c2 node n25 p0" transform="translate(0.0 52.8166)"><g class="a25 c2 node n22 p0" transform="translate(-13.5 5.35201)"><g class="a22 c2 node n16 p0" transform="translate(-11.5714 10.5018)"><g class="a16 leaf node n1 p0 sample" transform="translate(-7.71429 12.1559)"><path class="edge" d="M 0 0 V -12.1559 H 7.71429" /><rect class="sym" height="6" width="6" x="-3" y="-3" /><text class="lab" transform="translate(0 11)">1</text></g><g class="a16 c1 node n12 p0" transform="translate(7.71429 8.31501)"><g class="a12 leaf node n7 p0 sample" transform="translate(0.0 3.84089)"><path class="edge" d="M 0 0 V -3.84089 H 0.0" /><rect class="sym" height="6" width="6" x="-3" y="-3" /><text class="lab" transform="translate(0 11)">7</text></g><path class="edge" d="M 0 0 V -8.31501 H -7.71429" /><circle class="sym" cx="0" cy="0" r="3" /><text class="lab rgt" transform="translate(3 -7.0)">12</text></g><path class="edge" d="M 0 0 V -10.5018 H 11.5714" /><circle class="sym" cx="0" cy="0" r="3" /><text class="lab lft" transform="translate(-3 -7.0)">16</text></g><g class="a22 c1 node n21 p0" transform="translate(11.5714 1.13793)"><g class="a21 leaf node n3 p0 sample" transform="translate(0.0 21.5198)"><path class="edge" d="M 0 0 V -21.5198 H 0.0" /><rect class="sym" height="6" width="6" x="-3" y="-3" /><text class="lab" transform="translate(0 11)">3</text></g><path class="edge" d="M 0 0 V -1.13793 H -11.5714" /><circle class="sym" cx="0" cy="0" r="3" /><text class="lab rgt" transform="translate(3 -7.0)">21</text></g><path class="edge" d="M 0 0 V -5.35201 H 13.5" /><circle class="sym" cx="0" cy="0" r="3" /><text class="lab lft" transform="translate(-3 -7.0)">22</text></g><g class="a25 c1 node n18 p0" transform="translate(13.5 13.797)"><g class="a18 c1 node n15 p0" transform="translate(0.0 7.46768)"><g class="a15 leaf node n6 p0 sample" transform="translate(0.0 6.74504)"><path class="edge" d="M 0 0 V -6.74504 H 0.0" /><rect class="sym" height="6" width="6" x="-3" y="-3" /><text class="lab" transform="translate(0 11)">6</text></g><path class="edge" d="M 0 0 V -7.46768 H 0.0" /><circle class="sym" cx="0" cy="0" r="3" /><text class="lab lft" transform="translate(-3 -7.0)">15</text></g><path class="edge" d="M 0 0 V -13.797 H -13.5" /><circle class="sym" cx="0" cy="0" r="3" /><text class="lab rgt" transform="translate(3 -7.0)">18</text></g><path class="edge" d="M 0 0 V -52.8166 H 0.0" /><circle class="sym" cx="0" cy="0" r="3" /><text class="lab lft" transform="translate(-3 -7.0)">25</text></g><path class="edge" d="M 0 0 V -13.7737 H -31.5804" /><circle class="sym" cx="0" cy="0" r="3" /><text class="lab rgt" transform="translate(3 -7.0)">34</text></g><g class="a36 c1 node n35 p0" transform="translate(-31.5804 2.78472)"><g class="a35 c2 node n31 p0" transform="translate(0.0 46.3686)"><g class="a31 c1 node n29 p0" transform="translate(14.9464 12.234)"><g class="a29 c1 node n26 p0" transform="translate(0.0 1.94039)"><g class="a26 leaf node n4 p0 sample" transform="translate(0.0 31.2723)"><path class="edge" d="M 0 0 V -31.2723 H 0.0" /><rect class="sym" height="6" width="6" x="-3" y="-3" /><text class="lab" transform="translate(0 11)">4</text></g><path class="edge" d="M 0 0 V -1.94039 H 0.0" /><circle class="sym" cx="0" cy="0" r="3" /><text class="lab lft" transform="translate(-3 -7.0)">26</text></g><path class="edge" d="M 0 0 V -12.234 H -14.9464" /><circle class="sym" cx="0" cy="0" r="3" /><text class="lab rgt" transform="translate(3 -7.0)">29</text></g><g class="a31 c2 node n30 p0" transform="translate(-14.9464 4.69412)"><g class="a30 c2 node n23 p0" transform="translate(-14.4643 17.9281)"><g class="a23 leaf node n8 p0 sample" transform="translate(13.5 22.8245)"><path class="edge" d="M 0 0 V -22.8245 H -13.5" /><rect class="sym" height="6" width="6" x="-3" y="-3" /><text class="lab" transform="translate(0 11)">8</text></g><g class="a23 c2 node n19 p0" transform="translate(-13.5 7.26496)"><g class="a19 leaf node n9 p0 sample" transform="translate(11.5714 15.5595)"><path class="edge" d="M 0 0 V -15.5595 H -11.5714" /><rect class="sym" height="6" width="6" x="-3" y="-3" /><text class="lab" transform="translate(0 11)">9</text></g><g class="a19 c2 node n13 p0" transform="translate(-11.5714 9.64127)"><g class="a13 leaf node n0 p0 sample" transform="translate(-7.71429 5.91826)"><path class="edge" d="M 0 0 V -5.91826 H 7.71429" /><rect class="sym" height="6" width="6" x="-3" y="-3" /><text class="lab" transform="translate(0 11)">0</text></g><g class="a13 leaf node n2 p0 sample" transform="translate(7.71429 5.91826)"><path class="edge" d="M 0 0 V -5.91826 H -7.71429" /><rect class="sym" height="6" width="6" x="-3" y="-3" /><text class="lab" transform="translate(0 11)">2</text></g><path class="edge" d="M 0 0 V -9.64127 H 11.5714" /><circle class="sym" cx="0" cy="0" r="3" /><text class="lab lft" transform="translate(-3 -7.0)">13</text></g><path class="edge" d="M 0 0 V -7.26496 H 13.5" /><circle class="sym" cx="0" cy="0" r="3" /><text class="lab lft" transform="translate(-3 -7.0)">19</text></g><path class="edge" d="M 0 0 V -17.9281 H 14.4643" /><circle class="sym" cx="0" cy="0" r="3" /><text class="lab lft" transform="translate(-3 -7.0)">23</text></g><g class="a30 c1 node n24 p0" transform="translate(14.4643 13.6136)"><g class="a24 c1 node n10 p0" transform="translate(0.0 24.7107)"><g class="a10 leaf node n5 p0 sample" transform="translate(0.0 2.42836)"><path class="edge" d="M 0 0 V -2.42836 H 0.0" /><rect class="sym" height="6" width="6" x="-3" y="-3" /><text class="lab" transform="translate(0 11)">5</text></g><path class="edge" d="M 0 0 V -24.7107 H 0.0" /><circle class="sym" cx="0" cy="0" r="3" /><text class="lab lft" transform="translate(-3 -7.0)">10</text></g><path class="edge" d="M 0 0 V -13.6136 H -14.4643" /><circle class="sym" cx="0" cy="0" r="3" /><text class="lab rgt" transform="translate(3 -7.0)">24</text></g><path class="edge" d="M 0 0 V -4.69412 H 14.9464" /><circle class="sym" cx="0" cy="0" r="3" /><text class="lab lft" transform="translate(-3 -7.0)">30</text></g><path class="edge" d="M 0 0 V -46.3686 H 0.0" /><circle class="sym" cx="0" cy="0" r="3" /><text class="lab lft" transform="translate(-3 -7.0)">31</text></g><path class="edge" d="M 0 0 V -2.78472 H 31.5804" /><circle class="sym" cx="0" cy="0" r="3" /><text class="lab lft" transform="translate(-3 -7.0)">35</text></g><circle class="sym" cx="0" cy="0" r="3" /><text class="lab" transform="translate(0 -11)">36</text></g></g></g><g class="tree t4" transform="translate(797.143 0)"><g class="plotbox"><g class="c2 node n36 p0 root" transform="translate(112.571 26.8)"><g class="a36 c1 node n34 p0" transform="translate(37.6071 13.7737)"><g class="a34 c2 node n25 p0" transform="translate(0.0 52.8166)"><g class="a25 c2 node n22 p0" transform="translate(-16.3929 5.35201)"><g class="a22 c2 node n16 p0" transform="translate(-17.3571 10.5018)"><g class="a16 leaf node n1 p0 sample" transform="translate(-11.5714 12.1559)"><path class="edge" d="M 0 0 V -12.1559 H 11.5714" /><rect class="sym" height="6" width="6" x="-3" y="-3" /><text class="lab" transform="translate(0 11)">1</text></g><g class="a16 c2 node n12 p0" transform="translate(11.5714 8.31501)"><g class="a12 leaf node n7 p0 sample" transform="translate(7.71429 3.84089)"><path class="edge" d="M 0 0 V -3.84089 H -7.71429" /><rect class="sym" height="6" width="6" x="-3" y="-3" /><text class="lab" transform="translate(0 11)">7</text></g><g class="a12 c1 node n11 p0" transform="translate(-7.71429 1.41253)"><g class="a11 leaf node n5 p0 sample" transform="translate(0.0 2.42836)"><path class="edge" d="M 0 0 V -2.42836 H 0.0" /><rect class="sym" height="6" width="6" x="-3" y="-3" /><text class="lab" transform="translate(0 11)">5</text></g><path class="edge" d="M 0 0 V -1.41253 H 7.71429" /><circle class="sym" cx="0" cy="0" r="3" /><text class="lab lft" transform="translate(-3 -7.0)">11</text></g><path class="edge" d="M 0 0 V -8.31501 H -11.5714" /><circle class="sym" cx="0" cy="0" r="3" /><text class="lab rgt" transform="translate(3 -7.0)">12</text></g><path class="edge" d="M 0 0 V -10.5018 H 17.3571" /><circle class="sym" cx="0" cy="0" r="3" /><text class="lab lft" transform="translate(-3 -7.0)">16</text></g><g class="a22 c1 node n21 p0" transform="translate(17.3571 1.13793)"><g class="a21 leaf node n3 p0 sample" transform="translate(0.0 21.5198)"><path class="edge" d="M 0 0 V -21.5198 H 0.0" /><rect class="sym" height="6" width="6" x="-3" y="-3" /><text class="lab" transform="translate(0 11)">3</text></g><path class="edge" d="M 0 0 V -1.13793 H -17.3571" /><circle class="sym" cx="0" cy="0" r="3" /><text class="lab rgt" transform="translate(3 -7.0)">21</text></g><path class="edge" d="M 0 0 V -5.35201 H 16.3929" /><circle class="sym" cx="0" cy="0" r="3" /><text class="lab lft" transform="translate(-3 -7.0)">22</text></g><g class="a25 c1 node n18 p0" transform="translate(16.3929 13.797)"><g class="a18 c1 node n15 p0" transform="translate(0.0 7.46768)"><g class="a15 leaf node n6 p0 sample" transform="translate(0.0 6.74504)"><path class="edge" d="M 0 0 V -6.74504 H 0.0" /><rect class="sym" height="6" width="6" x="-3" y="-3" /><text class="lab" transform="translate(0 11)">6</text></g><path class="edge" d="M 0 0 V -7.46768 H 0.0" /><circle class="sym" cx="0" cy="0" r="3" /><text class="lab lft" transform="translate(-3 -7.0)">15</text></g><path class="edge" d="M 0 0 V -13.797 H -16.3929" /><circle class="sym" cx="0" cy="0" r="3" /><text class="lab rgt" transform="translate(3 -7.0)">18</text></g><path class="edge" d="M 0 0 V -52.8166 H 0.0" /><circle class="sym" cx="0" cy="0" r="3" /><text class="lab lft" transform="translate(-3 -7.0)">25</text></g><path class="edge" d="M 0 0 V -13.7737 H -37.6071" /><circle class="sym" cx="0" cy="0" r="3" /><text class="lab rgt" transform="translate(3 -7.0)">34</text></g><g class="a36 c1 node n35 p0" transform="translate(-37.6071 2.78472)"><g class="a35 c2 node n31 p0" transform="translate(0.0 46.3686)"><g class="a31 c1 node n29 p0" transform="translate(14.4643 12.234)"><g class="a29 c1 node n26 p0" transform="translate(0.0 1.94039)"><g class="a26 leaf node n4 p0 sample" transform="translate(0.0 31.2723)"><path class="edge" d="M 0 0 V -31.2723 H 0.0" /><rect class="sym" height="6" width="6" x="-3" y="-3" /><text class="lab" transform="translate(0 11)">4</text></g><path class="edge" d="M 0 0 V -1.94039 H 0.0" /><circle class="sym" cx="0" cy="0" r="3" /><text class="lab lft" transform="translate(-3 -7.0)">26</text></g><path class="edge" d="M 0 0 V -12.234 H -14.4643" /><circle class="sym" cx="0" cy="0" r="3" /><text class="lab rgt" transform="translate(3 -7.0)">29</text></g><g class="a31 c1 node n30 p0" transform="translate(-14.4643 4.69412)"><g class="a30 c2 node n23 p0" transform="translate(0.0 17.9281)"><g class="a23 leaf node n8 p0 sample" transform="translate(13.5 22.8245)"><path class="edge" d="M 0 0 V -22.8245 H -13.5" /><rect class="sym" height="6" width="6" x="-3" y="-3" /><text class="lab" transform="translate(0 11)">8</text></g><g class="a23 c2 node n19 p0" transform="translate(-13.5 7.26496)"><g class="a19 leaf node n9 p0 sample" transform="translate(11.5714 15.5595)"><path class="edge" d="M 0 0 V -15.5595 H -11.5714" /><rect class="sym" height="6" width="6" x="-3" y="-3" /><text class="lab" transform="translate(0 11)">9</text></g><g class="a19 c2 node n13 p0" transform="translate(-11.5714 9.64127)"><g class="a13 leaf node n0 p0 sample" transform="translate(-7.71429 5.91826)"><path class="edge" d="M 0 0 V -5.91826 H 7.71429" /><rect class="sym" height="6" width="6" x="-3" y="-3" /><text class="lab" transform="translate(0 11)">0</text></g><g class="a13 leaf node n2 p0 sample" transform="translate(7.71429 5.91826)"><path class="edge" d="M 0 0 V -5.91826 H -7.71429" /><rect class="sym" height="6" width="6" x="-3" y="-3" /><text class="lab" transform="translate(0 11)">2</text></g><path class="edge" d="M 0 0 V -9.64127 H 11.5714" /><circle class="sym" cx="0" cy="0" r="3" /><text class="lab lft" transform="translate(-3 -7.0)">13</text></g><path class="edge" d="M 0 0 V -7.26496 H 13.5" /><circle class="sym" cx="0" cy="0" r="3" /><text class="lab lft" transform="translate(-3 -7.0)">19</text></g><path class="edge" d="M 0 0 V -17.9281 H 0.0" /><circle class="sym" cx="0" cy="0" r="3" /><text class="lab lft" transform="translate(-3 -7.0)">23</text></g><path class="edge" d="M 0 0 V -4.69412 H 14.4643" /><circle class="sym" cx="0" cy="0" r="3" /><text class="lab lft" transform="translate(-3 -7.0)">30</text></g><path class="edge" d="M 0 0 V -46.3686 H 0.0" /><circle class="sym" cx="0" cy="0" r="3" /><text class="lab lft" transform="translate(-3 -7.0)">31</text></g><path class="edge" d="M 0 0 V -2.78472 H 37.6071" /><circle class="sym" cx="0" cy="0" r="3" /><text class="lab lft" transform="translate(-3 -7.0)">35</text></g><circle class="sym" cx="0" cy="0" r="3" /><text class="lab" transform="translate(0 -11)">36</text></g></g></g><g class="tree t5" transform="translate(991.429 0)"><g class="plotbox"><g class="c2 node n36 p0 root" transform="translate(112.571 26.8)"><g class="a36 c1 node n34 p0" transform="translate(37.6071 13.7737)"><g class="a34 c2 node n25 p0" transform="translate(0.0 52.8166)"><g class="a25 c2 node n22 p0" transform="translate(-16.3929 5.35201)"><g class="a22 c2 node n16 p0" transform="translate(-17.3571 10.5018)"><g class="a16 leaf node n1 p0 sample" transform="translate(-11.5714 12.1559)"><path class="edge" d="M 0 0 V -12.1559 H 11.5714" /><rect class="sym" height="6" width="6" x="-3" y="-3" /><text class="lab" transform="translate(0 11)">1</text></g><g class="a16 c2 node n12 p0" transform="translate(11.5714 8.31501)"><g class="a12 leaf node n7 p0 sample" transform="translate(7.71429 3.84089)"><path class="edge" d="M 0 0 V -3.84089 H -7.71429" /><rect class="sym" height="6" width="6" x="-3" y="-3" /><text class="lab" transform="translate(0 11)">7</text></g><g class="a12 c1 node n11 p0" transform="translate(-7.71429 1.41253)"><g class="a11 leaf node n5 p0 sample" transform="translate(0.0 2.42836)"><path class="edge" d="M 0 0 V -2.42836 H 0.0" /><rect class="sym" height="6" width="6" x="-3" y="-3" /><text class="lab" transform="translate(0 11)">5</text></g><path class="edge" d="M 0 0 V -1.41253 H 7.71429" /><circle class="sym" cx="0" cy="0" r="3" /><text class="lab lft" transform="translate(-3 -7.0)">11</text></g><path class="edge" d="M 0 0 V -8.31501 H -11.5714" /><circle class="sym" cx="0" cy="0" r="3" /><text class="lab rgt" transform="translate(3 -7.0)">12</text></g><path class="edge" d="M 0 0 V -10.5018 H 17.3571" /><circle class="sym" cx="0" cy="0" r="3" /><text class="lab lft" transform="translate(-3 -7.0)">16</text></g><g class="a22 c1 node n21 p0" transform="translate(17.3571 1.13793)"><g class="a21 leaf node n3 p0 sample" transform="translate(0.0 21.5198)"><path class="edge" d="M 0 0 V -21.5198 H 0.0" /><rect class="sym" height="6" width="6" x="-3" y="-3" /><text class="lab" transform="translate(0 11)">3</text></g><path class="edge" d="M 0 0 V -1.13793 H -17.3571" /><circle class="sym" cx="0" cy="0" r="3" /><text class="lab rgt" transform="translate(3 -7.0)">21</text></g><path class="edge" d="M 0 0 V -5.35201 H 16.3929" /><circle class="sym" cx="0" cy="0" r="3" /><text class="lab lft" transform="translate(-3 -7.0)">22</text></g><g class="a25 c1 node n18 p0" transform="translate(16.3929 13.797)"><g class="a18 c1 node n15 p0" transform="translate(0.0 7.46768)"><g class="a15 leaf node n6 p0 sample" transform="translate(0.0 6.74504)"><path class="edge" d="M 0 0 V -6.74504 H 0.0" /><rect class="sym" height="6" width="6" x="-3" y="-3" /><text class="lab" transform="translate(0 11)">6</text></g><path class="edge" d="M 0 0 V -7.46768 H 0.0" /><circle class="sym" cx="0" cy="0" r="3" /><text class="lab lft" transform="translate(-3 -7.0)">15</text></g><path class="edge" d="M 0 0 V -13.797 H -16.3929" /><circle class="sym" cx="0" cy="0" r="3" /><text class="lab rgt" transform="translate(3 -7.0)">18</text></g><path class="edge" d="M 0 0 V -52.8166 H 0.0" /><circle class="sym" cx="0" cy="0" r="3" /><text class="lab lft" transform="translate(-3 -7.0)">25</text></g><path class="edge" d="M 0 0 V -13.7737 H -37.6071" /><circle class="sym" cx="0" cy="0" r="3" /><text class="lab rgt" transform="translate(3 -7.0)">34</text></g><g class="a36 c2 node n35 p0" transform="translate(-37.6071 2.78472)"><g class="a35 c1 node n31 p0" transform="translate(-14.4643 46.3686)"><g class="a31 c1 node n30 p0" transform="translate(0.0 4.69412)"><g class="a30 c2 node n23 p0" transform="translate(0.0 17.9281)"><g class="a23 leaf node n8 p0 sample" transform="translate(13.5 22.8245)"><path class="edge" d="M 0 0 V -22.8245 H -13.5" /><rect class="sym" height="6" width="6" x="-3" y="-3" /><text class="lab" transform="translate(0 11)">8</text></g><g class="a23 c2 node n19 p0" transform="translate(-13.5 7.26496)"><g class="a19 leaf node n9 p0 sample" transform="translate(11.5714 15.5595)"><path class="edge" d="M 0 0 V -15.5595 H -11.5714" /><rect class="sym" height="6" width="6" x="-3" y="-3" /><text class="lab" transform="translate(0 11)">9</text></g><g class="a19 c2 node n13 p0" transform="translate(-11.5714 9.64127)"><g class="a13 leaf node n0 p0 sample" transform="translate(-7.71429 5.91826)"><path class="edge" d="M 0 0 V -5.91826 H 7.71429" /><rect class="sym" height="6" width="6" x="-3" y="-3" /><text class="lab" transform="translate(0 11)">0</text></g><g class="a13 leaf node n2 p0 sample" transform="translate(7.71429 5.91826)"><path class="edge" d="M 0 0 V -5.91826 H -7.71429" /><rect class="sym" height="6" width="6" x="-3" y="-3" /><text class="lab" transform="translate(0 11)">2</text></g><path class="edge" d="M 0 0 V -9.64127 H 11.5714" /><circle class="sym" cx="0" cy="0" r="3" /><text class="lab lft" transform="translate(-3 -7.0)">13</text></g><path class="edge" d="M 0 0 V -7.26496 H 13.5" /><circle class="sym" cx="0" cy="0" r="3" /><text class="lab lft" transform="translate(-3 -7.0)">19</text></g><path class="edge" d="M 0 0 V -17.9281 H 0.0" /><circle class="sym" cx="0" cy="0" r="3" /><text class="lab lft" transform="translate(-3 -7.0)">23</text></g><path class="edge" d="M 0 0 V -4.69412 H 0.0" /><circle class="sym" cx="0" cy="0" r="3" /><text class="lab lft" transform="translate(-3 -7.0)">30</text></g><path class="edge" d="M 0 0 V -46.3686 H 14.4643" /><circle class="sym" cx="0" cy="0" r="3" /><text class="lab lft" transform="translate(-3 -7.0)">31</text></g><g class="a35 c1 node n32 p0" transform="translate(14.4643 24.322)"><g class="a32 c1 node n27 p0" transform="translate(0.0 36.2209)"><g class="a27 leaf node n4 p0 sample" transform="translate(0.0 31.2723)"><path class="edge" d="M 0 0 V -31.2723 H 0.0" /><rect class="sym" height="6" width="6" x="-3" y="-3" /><text class="lab" transform="translate(0 11)">4</text></g><path class="edge" d="M 0 0 V -36.2209 H 0.0" /><circle class="sym" cx="0" cy="0" r="3" /><text class="lab lft" transform="translate(-3 -7.0)">27</text></g><path class="edge" d="M 0 0 V -24.322 H -14.4643" /><circle class="sym" cx="0" cy="0" r="3" /><text class="lab rgt" transform="translate(3 -7.0)">32</text></g><path class="edge" d="M 0 0 V -2.78472 H 37.6071" /><circle class="sym" cx="0" cy="0" r="3" /><text class="lab lft" transform="translate(-3 -7.0)">35</text></g><circle class="sym" cx="0" cy="0" r="3" /><text class="lab" transform="translate(0 -11)">36</text></g></g></g><g class="tree t6" transform="translate(1185.71 0)"><g class="plotbox"><g class="c2 node n36 p0 root" transform="translate(105.58 26.8)"><g class="a36 c2 node n34 p0" transform="translate(45.0804 13.7737)"><g class="a34 c2 node n25 p0" transform="translate(-15.9107 52.8166)"><g class="a25 c2 node n22 p0" transform="translate(-16.3929 5.35201)"><g class="a22 c2 node n16 p0" transform="translate(-17.3571 10.5018)"><g class="a16 leaf node n1 p0 sample" transform="translate(-11.5714 12.1559)"><path class="edge" d="M 0 0 V -12.1559 H 11.5714" /><rect class="sym" height="6" width="6" x="-3" y="-3" /><text class="lab" transform="translate(0 11)">1</text></g><g class="a16 c2 node n12 p0" transform="translate(11.5714 8.31501)"><g class="a12 leaf node n7 p0 sample" transform="translate(7.71429 3.84089)"><path class="edge" d="M 0 0 V -3.84089 H -7.71429" /><rect class="sym" height="6" width="6" x="-3" y="-3" /><text class="lab" transform="translate(0 11)">7</text></g><g class="a12 c1 node n11 p0" transform="translate(-7.71429 1.41253)"><g class="a11 leaf node n5 p0 sample" transform="translate(0.0 2.42836)"><path class="edge" d="M 0 0 V -2.42836 H 0.0" /><rect class="sym" height="6" width="6" x="-3" y="-3" /><text class="lab" transform="translate(0 11)">5</text></g><path class="edge" d="M 0 0 V -1.41253 H 7.71429" /><circle class="sym" cx="0" cy="0" r="3" /><text class="lab lft" transform="translate(-3 -7.0)">11</text></g><path class="edge" d="M 0 0 V -8.31501 H -11.5714" /><circle class="sym" cx="0" cy="0" r="3" /><text class="lab rgt" transform="translate(3 -7.0)">12</text></g><path class="edge" d="M 0 0 V -10.5018 H 17.3571" /><circle class="sym" cx="0" cy="0" r="3" /><text class="lab lft" transform="translate(-3 -7.0)">16</text></g><g class="a22 c1 node n21 p0" transform="translate(17.3571 1.13793)"><g class="a21 leaf node n3 p0 sample" transform="translate(0.0 21.5198)"><path class="edge" d="M 0 0 V -21.5198 H 0.0" /><rect class="sym" height="6" width="6" x="-3" y="-3" /><text class="lab" transform="translate(0 11)">3</text></g><path class="edge" d="M 0 0 V -1.13793 H -17.3571" /><circle class="sym" cx="0" cy="0" r="3" /><text class="lab rgt" transform="translate(3 -7.0)">21</text></g><path class="edge" d="M 0 0 V -5.35201 H 16.3929" /><circle class="sym" cx="0" cy="0" r="3" /><text class="lab lft" transform="translate(-3 -7.0)">22</text></g><g class="a25 c1 node n18 p0" transform="translate(16.3929 13.797)"><g class="a18 c1 node n15 p0" transform="translate(0.0 7.46768)"><g class="a15 leaf node n6 p0 sample" transform="translate(0.0 6.74504)"><path class="edge" d="M 0 0 V -6.74504 H 0.0" /><rect class="sym" height="6" width="6" x="-3" y="-3" /><text class="lab" transform="translate(0 11)">6</text></g><path class="edge" d="M 0 0 V -7.46768 H 0.0" /><circle class="sym" cx="0" cy="0" r="3" /><text class="lab lft" transform="translate(-3 -7.0)">15</text></g><path class="edge" d="M 0 0 V -13.797 H -16.3929" /><circle class="sym" cx="0" cy="0" r="3" /><text class="lab rgt" transform="translate(3 -7.0)">18</text></g><path class="edge" d="M 0 0 V -52.8166 H 15.9107" /><circle class="sym" cx="0" cy="0" r="3" /><text class="lab lft" transform="translate(-3 -7.0)">25</text></g><g class="a34 c1 node n33 p0" transform="translate(15.9107 13.3331)"><g class="a33 c1 node n27 p0" transform="translate(0.0 36.2209)"><g class="a27 leaf node n4 p0 sample" transform="translate(0.0 31.2723)"><path class="edge" d="M 0 0 V -31.2723 H 0.0" /><rect class="sym" height="6" width="6" x="-3" y="-3" /><text class="lab" transform="translate(0 11)">4</text></g><path class="edge" d="M 0 0 V -36.2209 H 0.0" /><circle class="sym" cx="0" cy="0" r="3" /><text class="lab lft" transform="translate(-3 -7.0)">27</text></g><path class="edge" d="M 0 0 V -13.3331 H -15.9107" /><circle class="sym" cx="0" cy="0" r="3" /><text class="lab rgt" transform="translate(3 -7.0)">33</text></g><path class="edge" d="M 0 0 V -13.7737 H -45.0804" /><circle class="sym" cx="0" cy="0" r="3" /><text class="lab rgt" transform="translate(3 -7.0)">34</text></g><g class="a36 c1 node n35 p0" transform="translate(-45.0804 2.78472)"><g class="a35 c1 node n31 p0" transform="translate(0.0 46.3686)"><g class="a31 c1 node n30 p0" transform="translate(0.0 4.69412)"><g class="a30 c2 node n23 p0" transform="translate(0.0 17.9281)"><g class="a23 leaf node n8 p0 sample" transform="translate(13.5 22.8245)"><path class="edge" d="M 0 0 V -22.8245 H -13.5" /><rect class="sym" height="6" width="6" x="-3" y="-3" /><text class="lab" transform="translate(0 11)">8</text></g><g class="a23 c2 node n19 p0" transform="translate(-13.5 7.26496)"><g class="a19 leaf node n9 p0 sample" transform="translate(11.5714 15.5595)"><path class="edge" d="M 0 0 V -15.5595 H -11.5714" /><rect class="sym" height="6" width="6" x="-3" y="-3" /><text class="lab" transform="translate(0 11)">9</text></g><g class="a19 c2 node n13 p0" transform="translate(-11.5714 9.64127)"><g class="a13 leaf node n0 p0 sample" transform="translate(-7.71429 5.91826)"><path class="edge" d="M 0 0 V -5.91826 H 7.71429" /><rect class="sym" height="6" width="6" x="-3" y="-3" /><text class="lab" transform="translate(0 11)">0</text></g><g class="a13 leaf node n2 p0 sample" transform="translate(7.71429 5.91826)"><path class="edge" d="M 0 0 V -5.91826 H -7.71429" /><rect class="sym" height="6" width="6" x="-3" y="-3" /><text class="lab" transform="translate(0 11)">2</text></g><path class="edge" d="M 0 0 V -9.64127 H 11.5714" /><circle class="sym" cx="0" cy="0" r="3" /><text class="lab lft" transform="translate(-3 -7.0)">13</text></g><path class="edge" d="M 0 0 V -7.26496 H 13.5" /><circle class="sym" cx="0" cy="0" r="3" /><text class="lab lft" transform="translate(-3 -7.0)">19</text></g><path class="edge" d="M 0 0 V -17.9281 H 0.0" /><circle class="sym" cx="0" cy="0" r="3" /><text class="lab lft" transform="translate(-3 -7.0)">23</text></g><path class="edge" d="M 0 0 V -4.69412 H 0.0" /><circle class="sym" cx="0" cy="0" r="3" /><text class="lab lft" transform="translate(-3 -7.0)">30</text></g><path class="edge" d="M 0 0 V -46.3686 H 0.0" /><circle class="sym" cx="0" cy="0" r="3" /><text class="lab lft" transform="translate(-3 -7.0)">31</text></g><path class="edge" d="M 0 0 V -2.78472 H 45.0804" /><circle class="sym" cx="0" cy="0" r="3" /><text class="lab lft" transform="translate(-3 -7.0)">35</text></g><circle class="sym" cx="0" cy="0" r="3" /><text class="lab" transform="translate(0 -11)">36</text></g></g></g></g></g></svg>
