<svg baseProfile="full" height="200" version="1.1" width="800" xmlns="http://www.w3.org/2000/svg" xmlns:ev="http://www.w3.org/2001/xml-events" xmlns:xlink="http://www.w3.org/1999/xlink"><defs><style type="text/css"><![CDATA[.background path {fill: #808080; fill-opacity: 0}.background path:nth-child(odd) {fill-opacity: .1}.axes {font-size: 14px}.x-axis .tick .lab {font-weight: bold; dominant-baseline: hanging}.axes, .tree {font-size: 14px; text-anchor: middle}.axes line, .edge {stroke: black; fill: none}.y-axis .grid {stroke: #FAFAFA}.node > .sym {fill: black; stroke: none}.site > .sym {stroke: black}.mut text {fill: red; font-style: italic}.mut.extra text {fill: hotpink}.mut line {fill: none; stroke: none}.mut .sym {fill: none; stroke: red}.mut.extra .sym {stroke: hotpink}.node .mut .sym {stroke-width: 1.5px}.tree text, .tree-sequence text {dominant-baseline: central}.plotbox .lab.lft {text-anchor: end}.plotbox .lab.rgt {text-anchor: start}]]></style></defs><g class="tree-sequence"><g class="background"><path d="M20,0 l190,0 l0,138.2 l-29.2842,25 l0,5 l-160.716,0 l0,-5 l0,-25 l0,-138.2z" /><path d="M210,0 l190,0 l0,138.2 l208.67,25 l0,5 l-427.954,0 l0,-5 l29.2842,-25 l0,-138.2z" /><path d="M400,0 l190,0 l0,138.2 l49.2914,25 l0,5 l-30.6213,0 l0,-5 l-208.67,-25 l0,-138.2z" /><path d="M590,0 l190,0 l0,138.2 l0,25 l0,5 l-140.709,0 l0,-5 l-49.2914,-25 l0,-138.2z" /></g><g class="axes"><g class="x-axis"><g transform="translate(400 200)"><text class="lab" text-anchor="middle" transform="translate(0 -11)">Genome position</text></g><line x1="20" x2="780" y1="163.2" y2="163.2" /><g class="ticks"><g class="tick" transform="translate(20 163.2)"><line x1="0" x2="0" y1="0" y2="5" /><g transform="translate(0 6)"><text class="lab">0.00</text></g></g><g class="tick" transform="translate(180.716 163.2)"><line x1="0" x2="0" y1="0" y2="5" /><g transform="translate(0 6)"><text class="lab">211.47</text></g></g><g class="tick" transform="translate(608.67 163.2)"><line x1="0" x2="0" y1="0" y2="5" /><g transform="translate(0 6)"><text class="lab">774.57</text></g></g><g class="tick" transform="translate(639.291 163.2)"><line x1="0" x2="0" y1="0" y2="5" /><g transform="translate(0 6)"><text class="lab">814.86</text></g></g><g class="tick" transform="translate(780 163.2)"><line x1="0" x2="0" y1="0" y2="5" /><g transform="translate(0 6)"><text class="lab">1000.00</text></g></g></g></g></g><g class="plotbox trees"><g class="tree t0" transform="translate(20 0)"><g class="plotbox"><g class="c2 node n27 p0 root" transform="translate(135.078 26.8)"><g class="a27 c1 node n24 p0" transform="translate(27.4219 60.0519)"><g class="a24 c1 node n22 p0" transform="translate(0.0 12.4855)"><g class="a22 c1 node n14 p0" transform="translate(0.0 17.4196)"><g class="a14 leaf node n9 p0 sample" transform="translate(0.0 4.64292)"><path class="edge" d="M 0 0 V -4.64292 H 0.0" /><rect class="sym" height="6" width="6" x="-3" y="-3" /><text class="lab" transform="translate(0 11)">9</text></g><path class="edge" d="M 0 0 V -17.4196 H 0.0" /><circle class="sym" cx="0" cy="0" r="3" /><text class="lab lft" transform="translate(-3 -7.0)">14</text></g><path class="edge" d="M 0 0 V -12.4855 H 0.0" /><circle class="sym" cx="0" cy="0" r="3" /><text class="lab lft" transform="translate(-3 -7.0)">22</text></g><path class="edge" d="M 0 0 V -60.0519 H -27.4219" /><circle class="sym" cx="0" cy="0" r="3" /><text class="lab rgt" transform="translate(3 -7.0)">24</text></g><g class="a27 c2 node n26 p0" transform="translate(-27.4219 41.9443)"><g class="a26 c2 node n20 p0" transform="translate(-32.3438 40.9)"><g class="a20 c2 node n16 p0" transform="translate(29.0625 5.4192)"><g class="a16 leaf node n4 p0 sample" transform="translate(13.125 6.33647)"><path class="edge" d="M 0 0 V -6.33647 H -13.125" /><rect class="sym" height="6" width="6" x="-3" y="-3" /><text class="lab" transform="translate(0 11)">4</text></g><g class="a16 c2 node n13 p0" transform="translate(-13.125 2.38453)"><g class="a13 leaf node n5 p0 sample" transform="translate(11.25 3.95194)"><path class="edge" d="M 0 0 V -3.95194 H -11.25" /><rect class="sym" height="6" width="6" x="-3" y="-3" /><text class="lab" transform="translate(0 11)">5</text></g><g class="a13 c2 node n10 p0" transform="translate(-11.25 2.28194)"><g class="a10 leaf node n2 p0 sample" transform="translate(-7.5 1.67)"><path class="edge" d="M 0 0 V -1.67 H 7.5" /><rect class="sym" height="6" width="6" x="-3" y="-3" /><text class="lab" transform="translate(0 11)">2</text></g><g class="a10 leaf node n3 p0 sample" transform="translate(7.5 1.67)"><path class="edge" d="M 0 0 V -1.67 H -7.5" /><rect class="sym" height="6" width="6" x="-3" y="-3" /><text class="lab" transform="translate(0 11)">3</text></g><path class="edge" d="M 0 0 V -2.28194 H 11.25" /><circle class="sym" cx="0" cy="0" r="3" /><text class="lab lft" transform="translate(-3 -7.0)">10</text></g><path class="edge" d="M 0 0 V -2.38453 H 13.125" /><circle class="sym" cx="0" cy="0" r="3" /><text class="lab lft" transform="translate(-3 -7.0)">13</text></g><path class="edge" d="M 0 0 V -5.4192 H -29.0625" /><circle class="sym" cx="0" cy="0" r="3" /><text class="lab rgt" transform="translate(3 -7.0)">16</text></g><g class="a20 c2 node n18 p0" transform="translate(-29.0625 0.139223)"><g class="a18 leaf node n7 p0 sample" transform="translate(11.25 11.6165)"><path class="edge" d="M 0 0 V -11.6165 H -11.25" /><rect class="sym" height="6" width="6" x="-3" y="-3" /><text class="lab" transform="translate(0 11)">7</text></g><g class="a18 c2 node n17 p0" transform="translate(-11.25 5.15769)"><g class="a17 leaf node n1 p0 sample" transform="translate(7.5 6.45876)"><path class="edge" d="M 0 0 V -6.45876 H -7.5" /><rect class="sym" height="6" width="6" x="-3" y="-3" /><text class="lab" transform="translate(0 11)">1</text></g><g class="a17 c1 node n11 p0" transform="translate(-7.5 2.69418)"><g class="a11 leaf node n0 p0 sample" transform="translate(0.0 3.76458)"><path class="edge" d="M 0 0 V -3.76458 H 0.0" /><rect class="sym" height="6" width="6" x="-3" y="-3" /><text class="lab" transform="translate(0 11)">0</text></g><path class="edge" d="M 0 0 V -2.69418 H 7.5" /><circle class="sym" cx="0" cy="0" r="3" /><text class="lab lft" transform="translate(-3 -7.0)">11</text></g><path class="edge" d="M 0 0 V -5.15769 H 11.25" /><circle class="sym" cx="0" cy="0" r="3" /><text class="lab lft" transform="translate(-3 -7.0)">17</text></g><path class="edge" d="M 0 0 V -0.139223 H 29.0625" /><circle class="sym" cx="0" cy="0" r="3" /><text class="lab lft" transform="translate(-3 -7.0)">18</text></g><path class="edge" d="M 0 0 V -40.9 H 32.3438" /><circle class="sym" cx="0" cy="0" r="3" /><text class="lab lft" transform="translate(-3 -7.0)">20</text></g><g class="a26 c1 node n25 p0" transform="translate(32.3438 8.35094)"><g class="a25 c2 node n19 p0" transform="translate(0.0 32.5765)"><g class="a19 leaf node n6 p0 sample" transform="translate(-7.5 11.7282)"><path class="edge" d="M 0 0 V -11.7282 H 7.5" /><rect class="sym" height="6" width="6" x="-3" y="-3" /><text class="lab" transform="translate(0 11)">6</text></g><g class="a19 leaf node n8 p0 sample" transform="translate(7.5 11.7282)"><path class="edge" d="M 0 0 V -11.7282 H -7.5" /><rect class="sym" height="6" width="6" x="-3" y="-3" /><text class="lab" transform="translate(0 11)">8</text></g><path class="edge" d="M 0 0 V -32.5765 H 0.0" /><circle class="sym" cx="0" cy="0" r="3" /><text class="lab lft" transform="translate(-3 -7.0)">19</text></g><path class="edge" d="M 0 0 V -8.35094 H -32.3438" /><circle class="sym" cx="0" cy="0" r="3" /><text class="lab rgt" transform="translate(3 -7.0)">25</text></g><path class="edge" d="M 0 0 V -41.9443 H 27.4219" /><circle class="sym" cx="0" cy="0" r="3" /><text class="lab lft" transform="translate(-3 -7.0)">26</text></g><circle class="sym" cx="0" cy="0" r="3" /><text class="lab" transform="translate(0 -11)">27</text></g></g></g><g class="tree t1" transform="translate(210 0)"><g class="plotbox"><g class="c2 node n27 p0 root" transform="translate(79.2969 26.8)"><g class="a27 c2 node n24 p0" transform="translate(-44.2969 60.0519)"><g class="a24 c1 node n22 p0" transform="translate(7.5 12.4855)"><g class="a22 c1 node n14 p0" transform="translate(0.0 17.4196)"><g class="a14 leaf node n9 p0 sample" transform="translate(0.0 4.64292)"><path class="edge" d="M 0 0 V -4.64292 H 0.0" /><rect class="sym" height="6" width="6" x="-3" y="-3" /><text class="lab" transform="translate(0 11)">9</text></g><path class="edge" d="M 0 0 V -17.4196 H 0.0" /><circle class="sym" cx="0" cy="0" r="3" /><text class="lab lft" transform="translate(-3 -7.0)">14</text></g><path class="edge" d="M 0 0 V -12.4855 H -7.5" /><circle class="sym" cx="0" cy="0" r="3" /><text class="lab rgt" transform="translate(3 -7.0)">22</text></g><g class="a24 c1 node n21 p0" transform="translate(-7.5 15.1573)"><g class="a21 c1 node n12 p0" transform="translate(0.0 15.6262)"><g class="a12 leaf node n0 p0 sample" transform="translate(0.0 3.76458)"><path class="edge" d="M 0 0 V -3.76458 H 0.0" /><rect class="sym" height="6" width="6" x="-3" y="-3" /><text class="lab" transform="translate(0 11)">0</text></g><path class="edge" d="M 0 0 V -15.6262 H 0.0" /><circle class="sym" cx="0" cy="0" r="3" /><text class="lab lft" transform="translate(-3 -7.0)">12</text></g><path class="edge" d="M 0 0 V -15.1573 H 7.5" /><circle class="sym" cx="0" cy="0" r="3" /><text class="lab lft" transform="translate(-3 -7.0)">21</text></g><path class="edge" d="M 0 0 V -60.0519 H 44.2969" /><circle class="sym" cx="0" cy="0" r="3" /><text class="lab lft" transform="translate(-3 -7.0)">24</text></g><g class="a27 c2 node n26 p0" transform="translate(44.2969 41.9443)"><g class="a26 c2 node n20 p0" transform="translate(-31.4062 40.9)"><g class="a20 c2 node n16 p0" transform="translate(27.1875 5.4192)"><g class="a16 leaf node n4 p0 sample" transform="translate(13.125 6.33647)"><path class="edge" d="M 0 0 V -6.33647 H -13.125" /><rect class="sym" height="6" width="6" x="-3" y="-3" /><text class="lab" transform="translate(0 11)">4</text></g><g class="a16 c2 node n13 p0" transform="translate(-13.125 2.38453)"><g class="a13 leaf node n5 p0 sample" transform="translate(11.25 3.95194)"><path class="edge" d="M 0 0 V -3.95194 H -11.25" /><rect class="sym" height="6" width="6" x="-3" y="-3" /><text class="lab" transform="translate(0 11)">5</text></g><g class="a13 c2 node n10 p0" transform="translate(-11.25 2.28194)"><g class="a10 leaf node n2 p0 sample" transform="translate(-7.5 1.67)"><path class="edge" d="M 0 0 V -1.67 H 7.5" /><rect class="sym" height="6" width="6" x="-3" y="-3" /><text class="lab" transform="translate(0 11)">2</text></g><g class="a10 leaf node n3 p0 sample" transform="translate(7.5 1.67)"><path class="edge" d="M 0 0 V -1.67 H -7.5" /><rect class="sym" height="6" width="6" x="-3" y="-3" /><text class="lab" transform="translate(0 11)">3</text></g><path class="edge" d="M 0 0 V -2.28194 H 11.25" /><circle class="sym" cx="0" cy="0" r="3" /><text class="lab lft" transform="translate(-3 -7.0)">10</text></g><path class="edge" d="M 0 0 V -2.38453 H 13.125" /><circle class="sym" cx="0" cy="0" r="3" /><text class="lab lft" transform="translate(-3 -7.0)">13</text></g><path class="edge" d="M 0 0 V -5.4192 H -27.1875" /><circle class="sym" cx="0" cy="0" r="3" /><text class="lab rgt" transform="translate(3 -7.0)">16</text></g><g class="a20 c2 node n18 p0" transform="translate(-27.1875 0.139223)"><g class="a18 leaf node n7 p0 sample" transform="translate(7.5 11.6165)"><path class="edge" d="M 0 0 V -11.6165 H -7.5" /><rect class="sym" height="6" width="6" x="-3" y="-3" /><text class="lab" transform="translate(0 11)">7</text></g><g class="a18 c1 node n17 p0" transform="translate(-7.5 5.15769)"><g class="a17 leaf node n1 p0 sample" transform="translate(0.0 6.45876)"><path class="edge" d="M 0 0 V -6.45876 H 0.0" /><rect class="sym" height="6" width="6" x="-3" y="-3" /><text class="lab" transform="translate(0 11)">1</text></g><path class="edge" d="M 0 0 V -5.15769 H 7.5" /><circle class="sym" cx="0" cy="0" r="3" /><text class="lab lft" transform="translate(-3 -7.0)">17</text></g><path class="edge" d="M 0 0 V -0.139223 H 27.1875" /><circle class="sym" cx="0" cy="0" r="3" /><text class="lab lft" transform="translate(-3 -7.0)">18</text></g><path class="edge" d="M 0 0 V -40.9 H 31.4062" /><circle class="sym" cx="0" cy="0" r="3" /><text class="lab lft" transform="translate(-3 -7.0)">20</text></g><g class="a26 c1 node n25 p0" transform="translate(31.4062 8.35094)"><g class="a25 c2 node n19 p0" transform="translate(0.0 32.5765)"><g class="a19 leaf node n6 p0 sample" transform="translate(-7.5 11.7282)"><path class="edge" d="M 0 0 V -11.7282 H 7.5" /><rect class="sym" height="6" width="6" x="-3" y="-3" /><text class="lab" transform="translate(0 11)">6</text></g><g class="a19 leaf node n8 p0 sample" transform="translate(7.5 11.7282)"><path class="edge" d="M 0 0 V -11.7282 H -7.5" /><rect class="sym" height="6" width="6" x="-3" y="-3" /><text class="lab" transform="translate(0 11)">8</text></g><path class="edge" d="M 0 0 V -32.5765 H 0.0" /><circle class="sym" cx="0" cy="0" r="3" /><text class="lab lft" transform="translate(-3 -7.0)">19</text></g><path class="edge" d="M 0 0 V -8.35094 H -31.4062" /><circle class="sym" cx="0" cy="0" r="3" /><text class="lab rgt" transform="translate(3 -7.0)">25</text></g><path class="edge" d="M 0 0 V -41.9443 H -44.2969" /><circle class="sym" cx="0" cy="0" r="3" /><text class="lab rgt" transform="translate(3 -7.0)">26</text></g><circle class="sym" cx="0" cy="0" r="3" /><text class="lab" transform="translate(0 -11)">27</text></g></g></g><g class="tree t2" transform="translate(400 0)"><g class="plotbox"><g class="c2 node n27 p0 root" transform="translate(70.8594 26.8)"><g class="a27 c1 node n24 p0" transform="translate(-43.3594 60.0519)"><g class="a24 c1 node n21 p0" transform="translate(0.0 15.1573)"><g class="a21 c1 node n12 p0" transform="translate(0.0 15.6262)"><g class="a12 leaf node n0 p0 sample" transform="translate(0.0 3.76458)"><path class="edge" d="M 0 0 V -3.76458 H 0.0" /><rect class="sym" height="6" width="6" x="-3" y="-3" /><text class="lab" transform="translate(0 11)">0</text></g><path class="edge" d="M 0 0 V -15.6262 H 0.0" /><circle class="sym" cx="0" cy="0" r="3" /><text class="lab lft" transform="translate(-3 -7.0)">12</text></g><path class="edge" d="M 0 0 V -15.1573 H 0.0" /><circle class="sym" cx="0" cy="0" r="3" /><text class="lab lft" transform="translate(-3 -7.0)">21</text></g><path class="edge" d="M 0 0 V -60.0519 H 43.3594" /><circle class="sym" cx="0" cy="0" r="3" /><text class="lab lft" transform="translate(-3 -7.0)">24</text></g><g class="a27 c2 node n26 p0" transform="translate(43.3594 41.9443)"><g class="a26 c2 node n20 p0" transform="translate(-37.0312 40.9)"><g class="a20 c2 node n16 p0" transform="translate(27.1875 5.4192)"><g class="a16 leaf node n4 p0 sample" transform="translate(13.125 6.33647)"><path class="edge" d="M 0 0 V -6.33647 H -13.125" /><rect class="sym" height="6" width="6" x="-3" y="-3" /><text class="lab" transform="translate(0 11)">4</text></g><g class="a16 c2 node n13 p0" transform="translate(-13.125 2.38453)"><g class="a13 leaf node n5 p0 sample" transform="translate(11.25 3.95194)"><path class="edge" d="M 0 0 V -3.95194 H -11.25" /><rect class="sym" height="6" width="6" x="-3" y="-3" /><text class="lab" transform="translate(0 11)">5</text></g><g class="a13 c2 node n10 p0" transform="translate(-11.25 2.28194)"><g class="a10 leaf node n2 p0 sample" transform="translate(-7.5 1.67)"><path class="edge" d="M 0 0 V -1.67 H 7.5" /><rect class="sym" height="6" width="6" x="-3" y="-3" /><text class="lab" transform="translate(0 11)">2</text></g><g class="a10 leaf node n3 p0 sample" transform="translate(7.5 1.67)"><path class="edge" d="M 0 0 V -1.67 H -7.5" /><rect class="sym" height="6" width="6" x="-3" y="-3" /><text class="lab" transform="translate(0 11)">3</text></g><path class="edge" d="M 0 0 V -2.28194 H 11.25" /><circle class="sym" cx="0" cy="0" r="3" /><text class="lab lft" transform="translate(-3 -7.0)">10</text></g><path class="edge" d="M 0 0 V -2.38453 H 13.125" /><circle class="sym" cx="0" cy="0" r="3" /><text class="lab lft" transform="translate(-3 -7.0)">13</text></g><path class="edge" d="M 0 0 V -5.4192 H -27.1875" /><circle class="sym" cx="0" cy="0" r="3" /><text class="lab rgt" transform="translate(3 -7.0)">16</text></g><g class="a20 c2 node n18 p0" transform="translate(-27.1875 0.139223)"><g class="a18 leaf node n7 p0 sample" transform="translate(7.5 11.6165)"><path class="edge" d="M 0 0 V -11.6165 H -7.5" /><rect class="sym" height="6" width="6" x="-3" y="-3" /><text class="lab" transform="translate(0 11)">7</text></g><g class="a18 c1 node n17 p0" transform="translate(-7.5 5.15769)"><g class="a17 leaf node n1 p0 sample" transform="translate(0.0 6.45876)"><path class="edge" d="M 0 0 V -6.45876 H 0.0" /><rect class="sym" height="6" width="6" x="-3" y="-3" /><text class="lab" transform="translate(0 11)">1</text></g><path class="edge" d="M 0 0 V -5.15769 H 7.5" /><circle class="sym" cx="0" cy="0" r="3" /><text class="lab lft" transform="translate(-3 -7.0)">17</text></g><path class="edge" d="M 0 0 V -0.139223 H 27.1875" /><circle class="sym" cx="0" cy="0" r="3" /><text class="lab lft" transform="translate(-3 -7.0)">18</text></g><path class="edge" d="M 0 0 V -40.9 H 37.0312" /><circle class="sym" cx="0" cy="0" r="3" /><text class="lab lft" transform="translate(-3 -7.0)">20</text></g><g class="a26 c2 node n25 p0" transform="translate(37.0312 8.35094)"><g class="a25 c2 node n19 p0" transform="translate(-11.25 32.5765)"><g class="a19 leaf node n6 p0 sample" transform="translate(-7.5 11.7282)"><path class="edge" d="M 0 0 V -11.7282 H 7.5" /><rect class="sym" height="6" width="6" x="-3" y="-3" /><text class="lab" transform="translate(0 11)">6</text></g><g class="a19 leaf node n8 p0 sample" transform="translate(7.5 11.7282)"><path class="edge" d="M 0 0 V -11.7282 H -7.5" /><rect class="sym" height="6" width="6" x="-3" y="-3" /><text class="lab" transform="translate(0 11)">8</text></g><path class="edge" d="M 0 0 V -32.5765 H 11.25" /><circle class="sym" cx="0" cy="0" r="3" /><text class="lab lft" transform="translate(-3 -7.0)">19</text></g><g class="a25 c1 node n23 p0" transform="translate(11.25 22.2422)"><g class="a23 c1 node n14 p0" transform="translate(0.0 17.4196)"><g class="a14 leaf node n9 p0 sample" transform="translate(0.0 4.64292)"><path class="edge" d="M 0 0 V -4.64292 H 0.0" /><rect class="sym" height="6" width="6" x="-3" y="-3" /><text class="lab" transform="translate(0 11)">9</text></g><path class="edge" d="M 0 0 V -17.4196 H 0.0" /><circle class="sym" cx="0" cy="0" r="3" /><text class="lab lft" transform="translate(-3 -7.0)">14</text></g><path class="edge" d="M 0 0 V -22.2422 H -11.25" /><circle class="sym" cx="0" cy="0" r="3" /><text class="lab rgt" transform="translate(3 -7.0)">23</text></g><path class="edge" d="M 0 0 V -8.35094 H -37.0312" /><circle class="sym" cx="0" cy="0" r="3" /><text class="lab rgt" transform="translate(3 -7.0)">25</text></g><path class="edge" d="M 0 0 V -41.9443 H -43.3594" /><circle class="sym" cx="0" cy="0" r="3" /><text class="lab rgt" transform="translate(3 -7.0)">26</text></g><circle class="sym" cx="0" cy="0" r="3" /><text class="lab" transform="translate(0 -11)">27</text></g></g></g><g class="tree t3" transform="translate(590 0)"><g class="plotbox"><g class="c2 node n27 p0 root" transform="translate(79.2969 26.8)"><g class="a27 c1 node n24 p0" transform="translate(-44.2969 60.0519)"><g class="a24 c2 node n21 p0" transform="translate(0.0 15.1573)"><g class="a21 c1 node n12 p0" transform="translate(-7.5 15.6262)"><g class="a12 leaf node n0 p0 sample" transform="translate(0.0 3.76458)"><path class="edge" d="M 0 0 V -3.76458 H 0.0" /><rect class="sym" height="6" width="6" x="-3" y="-3" /><text class="lab" transform="translate(0 11)">0</text></g><path class="edge" d="M 0 0 V -15.6262 H 7.5" /><circle class="sym" cx="0" cy="0" r="3" /><text class="lab lft" transform="translate(-3 -7.0)">12</text></g><g class="a21 c1 node n15 p0" transform="translate(7.5 14.7479)"><g class="a15 leaf node n9 p0 sample" transform="translate(0.0 4.64292)"><path class="edge" d="M 0 0 V -4.64292 H 0.0" /><rect class="sym" height="6" width="6" x="-3" y="-3" /><text class="lab" transform="translate(0 11)">9</text></g><path class="edge" d="M 0 0 V -14.7479 H -7.5" /><circle class="sym" cx="0" cy="0" r="3" /><text class="lab rgt" transform="translate(3 -7.0)">15</text></g><path class="edge" d="M 0 0 V -15.1573 H 0.0" /><circle class="sym" cx="0" cy="0" r="3" /><text class="lab lft" transform="translate(-3 -7.0)">21</text></g><path class="edge" d="M 0 0 V -60.0519 H 44.2969" /><circle class="sym" cx="0" cy="0" r="3" /><text class="lab lft" transform="translate(-3 -7.0)">24</text></g><g class="a27 c2 node n26 p0" transform="translate(44.2969 41.9443)"><g class="a26 c2 node n20 p0" transform="translate(-31.4062 40.9)"><g class="a20 c2 node n16 p0" transform="translate(27.1875 5.4192)"><g class="a16 leaf node n4 p0 sample" transform="translate(13.125 6.33647)"><path class="edge" d="M 0 0 V -6.33647 H -13.125" /><rect class="sym" height="6" width="6" x="-3" y="-3" /><text class="lab" transform="translate(0 11)">4</text></g><g class="a16 c2 node n13 p0" transform="translate(-13.125 2.38453)"><g class="a13 leaf node n5 p0 sample" transform="translate(11.25 3.95194)"><path class="edge" d="M 0 0 V -3.95194 H -11.25" /><rect class="sym" height="6" width="6" x="-3" y="-3" /><text class="lab" transform="translate(0 11)">5</text></g><g class="a13 c2 node n10 p0" transform="translate(-11.25 2.28194)"><g class="a10 leaf node n2 p0 sample" transform="translate(-7.5 1.67)"><path class="edge" d="M 0 0 V -1.67 H 7.5" /><rect class="sym" height="6" width="6" x="-3" y="-3" /><text class="lab" transform="translate(0 11)">2</text></g><g class="a10 leaf node n3 p0 sample" transform="translate(7.5 1.67)"><path class="edge" d="M 0 0 V -1.67 H -7.5" /><rect class="sym" height="6" width="6" x="-3" y="-3" /><text class="lab" transform="translate(0 11)">3</text></g><path class="edge" d="M 0 0 V -2.28194 H 11.25" /><circle class="sym" cx="0" cy="0" r="3" /><text class="lab lft" transform="translate(-3 -7.0)">10</text></g><path class="edge" d="M 0 0 V -2.38453 H 13.125" /><circle class="sym" cx="0" cy="0" r="3" /><text class="lab lft" transform="translate(-3 -7.0)">13</text></g><path class="edge" d="M 0 0 V -5.4192 H -27.1875" /><circle class="sym" cx="0" cy="0" r="3" /><text class="lab rgt" transform="translate(3 -7.0)">16</text></g><g class="a20 c2 node n18 p0" transform="translate(-27.1875 0.139223)"><g class="a18 leaf node n7 p0 sample" transform="translate(7.5 11.6165)"><path class="edge" d="M 0 0 V -11.6165 H -7.5" /><rect class="sym" height="6" width="6" x="-3" y="-3" /><text class="lab" transform="translate(0 11)">7</text></g><g class="a18 c1 node n17 p0" transform="translate(-7.5 5.15769)"><g class="a17 leaf node n1 p0 sample" transform="translate(0.0 6.45876)"><path class="edge" d="M 0 0 V -6.45876 H 0.0" /><rect class="sym" height="6" width="6" x="-3" y="-3" /><text class="lab" transform="translate(0 11)">1</text></g><path class="edge" d="M 0 0 V -5.15769 H 7.5" /><circle class="sym" cx="0" cy="0" r="3" /><text class="lab lft" transform="translate(-3 -7.0)">17</text></g><path class="edge" d="M 0 0 V -0.139223 H 27.1875" /><circle class="sym" cx="0" cy="0" r="3" /><text class="lab lft" transform="translate(-3 -7.0)">18</text></g><path class="edge" d="M 0 0 V -40.9 H 31.4062" /><circle class="sym" cx="0" cy="0" r="3" /><text class="lab lft" transform="translate(-3 -7.0)">20</text></g><g class="a26 c1 node n25 p0" transform="translate(31.4062 8.35094)"><g class="a25 c2 node n19 p0" transform="translate(0.0 32.5765)"><g class="a19 leaf node n6 p0 sample" transform="translate(-7.5 11.7282)"><path class="edge" d="M 0 0 V -11.7282 H 7.5" /><rect class="sym" height="6" width="6" x="-3" y="-3" /><text class="lab" transform="translate(0 11)">6</text></g><g class="a19 leaf node n8 p0 sample" transform="translate(7.5 11.7282)"><path class="edge" d="M 0 0 V -11.7282 H -7.5" /><rect class="sym" height="6" width="6" x="-3" y="-3" /><text class="lab" transform="translate(0 11)">8</text></g><path class="edge" d="M 0 0 V -32.5765 H 0.0" /><circle class="sym" cx="0" cy="0" r="3" /><text class="lab lft" transform="translate(-3 -7.0)">19</text></g><path class="edge" d="M 0 0 V -8.35094 H -31.4062" /><circle class="sym" cx="0" cy="0" r="3" /><text class="lab rgt" transform="translate(3 -7.0)">25</text></g><path class="edge" d="M 0 0 V -41.9443 H -44.2969" /><circle class="sym" cx="0" cy="0" r="3" /><text class="lab rgt" transform="translate(3 -7.0)">26</text></g><circle class="sym" cx="0" cy="0" r="3" /><text class="lab" transform="translate(0 -11)">27</text></g></g></g></g></g></svg>
