<svg baseProfile="full" height="200" version="1.1" width="1200" xmlns="http://www.w3.org/2000/svg" xmlns:ev="http://www.w3.org/2001/xml-events" xmlns:xlink="http://www.w3.org/1999/xlink"><defs><style type="text/css"><![CDATA[.background path {fill: #808080; fill-opacity: 0}.background path:nth-child(odd) {fill-opacity: .1}.axes {font-size: 14px}.x-axis .tick .lab {font-weight: bold; dominant-baseline: hanging}.axes, .tree {font-size: 14px; text-anchor: middle}.axes line, .edge {stroke: black; fill: none}.y-axis .grid {stroke: #FAFAFA}.node > .sym {fill: black; stroke: none}.site > .sym {stroke: black}.mut text {fill: red; font-style: italic}.mut.extra text {fill: hotpink}.mut line {fill: none; stroke: none}.mut .sym {fill: none; stroke: red}.mut.extra .sym {stroke: hotpink}.node .mut .sym {stroke-width: 1.5px}.tree text, .tree-sequence text {dominant-baseline: central}.plotbox .lab.lft {text-anchor: end}.plotbox .lab.rgt {text-anchor: start}]]></style></defs><g class="tree-sequence"><g class="background"><path d="M20,0 l193.333,0 l0,138.2 l-114.346,25 l0,5 l-78.9878,0 l0,-5 l0,-25 l0,-138.2z" /><path d="M213.333,0 l193.333,0 l0,138.2 l-3.25104,25 l0,5 l-304.428,0 l0,-5 l114.346,-25 l0,-138.2z" /><path d="M406.667,0 l193.333,0 l0,138.2 l132.521,25 l0,5 l-329.106,0 l0,-5 l3.25104,-25 l0,-138.2z" /><path d="M600,0 l193.333,0 l0,138.2 l-39.2885,25 l0,5 l-21.5235,0 l0,-5 l-132.521,-25 l0,-138.2z" /><path d="M793.333,0 l193.333,0 l0,138.2 l-51.6933,25 l0,5 l-180.928,0 l0,-5 l39.2885,-25 l0,-138.2z" /><path d="M986.667,0 l193.333,0 l0,138.2 l0,25 l0,5 l-245.027,0 l0,-5 l51.6933,-25 l0,-138.2z" /></g><g class="axes"><g class="x-axis"><g transform="translate(600 200)"><text class="lab" text-anchor="middle" transform="translate(0 -11)">Genome position</text></g><line x1="20" x2="1180" y1="163.2" y2="163.2" /><g class="ticks"><g class="tick" transform="translate(20 163.2)"><line x1="0" x2="0" y1="0" y2="5" /><g transform="translate(0 6)"><text class="lab">0.00</text></g></g><g class="tick" transform="translate(98.9878 163.2)"><line x1="0" x2="0" y1="0" y2="5" /><g transform="translate(0 6)"><text class="lab">68.09</text></g></g><g class="tick" transform="translate(403.416 163.2)"><line x1="0" x2="0" y1="0" y2="5" /><g transform="translate(0 6)"><text class="lab">330.53</text></g></g><g class="tick" transform="translate(732.521 163.2)"><line x1="0" x2="0" y1="0" y2="5" /><g transform="translate(0 6)"><text class="lab">614.24</text></g></g><g class="tick" transform="translate(754.045 163.2)"><line x1="0" x2="0" y1="0" y2="5" /><g transform="translate(0 6)"><text class="lab">632.80</text></g></g><g class="tick" transform="translate(934.973 163.2)"><line x1="0" x2="0" y1="0" y2="5" /><g transform="translate(0 6)"><text class="lab">788.77</text></g></g><g class="tick" transform="translate(1180 163.2)"><line x1="0" x2="0" y1="0" y2="5" /><g transform="translate(0 6)"><text class="lab">1000.00</text></g></g></g></g></g><g class="plotbox trees"><g class="tree t0" transform="translate(20 0)"><g class="plotbox"><g class="c2 node n33 p0 root" transform="translate(97.625 26.8)"><g class="a33 c1 node n30 p0" transform="translate(37.375 30.9674)"><g class="a30 c2 node n28 p0" transform="translate(0.0 7.5965)"><g class="a28 c1 node n17 p0" transform="translate(23 39.3745)"><g class="a17 c2 node n15 p0" transform="translate(0.0 8.47238)"><g class="a15 leaf node n4 p0 sample" transform="translate(-7.66667 8.18922)"><path class="edge" d="M 0 0 V -8.18922 H 7.66667" /><rect class="sym" height="6" width="6" x="-3" y="-3" /><text class="lab" transform="translate(0 11)">4</text></g><g class="a15 leaf node n5 p0 sample" transform="translate(7.66667 8.18922)"><path class="edge" d="M 0 0 V -8.18922 H -7.66667" /><rect class="sym" height="6" width="6" x="-3" y="-3" /><text class="lab" transform="translate(0 11)">5</text></g><path class="edge" d="M 0 0 V -8.47238 H 0.0" /><circle class="sym" cx="0" cy="0" r="3" /><text class="lab lft" transform="translate(-3 -7.0)">15</text></g><path class="edge" d="M 0 0 V -39.3745 H -23" /><circle class="sym" cx="0" cy="0" r="3" /><text class="lab rgt" transform="translate(3 -7.0)">17</text></g><g class="a28 c1 node n25 p0" transform="translate(-23 3.9136)"><g class="a25 c2 node n18 p0" transform="translate(0.0 29.2205)"><g class="a18 c2 node n12 p0" transform="translate(15.3333 18.4274)"><g class="a12 leaf node n2 p0 sample" transform="translate(-7.66667 4.47458)"><path class="edge" d="M 0 0 V -4.47458 H 7.66667" /><rect class="sym" height="6" width="6" x="-3" y="-3" /><text class="lab" transform="translate(0 11)">2</text></g><g class="a12 leaf node n3 p0 sample" transform="translate(7.66667 4.47458)"><path class="edge" d="M 0 0 V -4.47458 H -7.66667" /><rect class="sym" height="6" width="6" x="-3" y="-3" /><text class="lab" transform="translate(0 11)">3</text></g><path class="edge" d="M 0 0 V -18.4274 H -15.3333" /><circle class="sym" cx="0" cy="0" r="3" /><text class="lab rgt" transform="translate(3 -7.0)">12</text></g><g class="a18 c2 node n16 p0" transform="translate(-15.3333 9.53702)"><g class="a16 leaf node n6 p0 sample" transform="translate(7.66667 13.365)"><path class="edge" d="M 0 0 V -13.365 H -7.66667" /><rect class="sym" height="6" width="6" x="-3" y="-3" /><text class="lab" transform="translate(0 11)">6</text></g><g class="a16 c1 node n10 p0" transform="translate(-7.66667 12.2133)"><g class="a10 leaf node n1 p0 sample" transform="translate(0.0 1.15168)"><path class="edge" d="M 0 0 V -1.15168 H 0.0" /><rect class="sym" height="6" width="6" x="-3" y="-3" /><text class="lab" transform="translate(0 11)">1</text></g><path class="edge" d="M 0 0 V -12.2133 H 7.66667" /><circle class="sym" cx="0" cy="0" r="3" /><text class="lab lft" transform="translate(-3 -7.0)">10</text></g><path class="edge" d="M 0 0 V -9.53702 H 15.3333" /><circle class="sym" cx="0" cy="0" r="3" /><text class="lab lft" transform="translate(-3 -7.0)">16</text></g><path class="edge" d="M 0 0 V -29.2205 H 0.0" /><circle class="sym" cx="0" cy="0" r="3" /><text class="lab lft" transform="translate(-3 -7.0)">18</text></g><path class="edge" d="M 0 0 V -3.9136 H 23" /><circle class="sym" cx="0" cy="0" r="3" /><text class="lab lft" transform="translate(-3 -7.0)">25</text></g><path class="edge" d="M 0 0 V -7.5965 H 0.0" /><circle class="sym" cx="0" cy="0" r="3" /><text class="lab lft" transform="translate(-3 -7.0)">28</text></g><path class="edge" d="M 0 0 V -30.9674 H -37.375" /><circle class="sym" cx="0" cy="0" r="3" /><text class="lab rgt" transform="translate(3 -7.0)">30</text></g><g class="a33 c2 node n32 p0" transform="translate(-37.375 20.1959)"><g class="a32 c2 node n27 p0" transform="translate(-13.4167 20.3928)"><g class="a27 c1 node n21 p0" transform="translate(-11.5 18.6578)"><g class="a21 c1 node n20 p0" transform="translate(0.0 1.27654)"><g class="a20 c2 node n19 p0" transform="translate(0.0 1.74669)"><g class="a19 leaf node n0 p0 sample" transform="translate(-7.66667 32.3304)"><path class="edge" d="M 0 0 V -32.3304 H 7.66667" /><rect class="sym" height="6" width="6" x="-3" y="-3" /><text class="lab" transform="translate(0 11)">0</text></g><g class="a19 leaf node n9 p0 sample" transform="translate(7.66667 32.3304)"><path class="edge" d="M 0 0 V -32.3304 H -7.66667" /><rect class="sym" height="6" width="6" x="-3" y="-3" /><text class="lab" transform="translate(0 11)">9</text></g><path class="edge" d="M 0 0 V -1.74669 H 0.0" /><circle class="sym" cx="0" cy="0" r="3" /><text class="lab lft" transform="translate(-3 -7.0)">19</text></g><path class="edge" d="M 0 0 V -1.27654 H 0.0" /><circle class="sym" cx="0" cy="0" r="3" /><text class="lab lft" transform="translate(-3 -7.0)">20</text></g><path class="edge" d="M 0 0 V -18.6578 H 11.5" /><circle class="sym" cx="0" cy="0" r="3" /><text class="lab lft" transform="translate(-3 -7.0)">21</text></g><g class="a27 c1 node n23 p0" transform="translate(11.5 7.13603)"><g class="a23 leaf node n7 p0 sample" transform="translate(0.0 46.8753)"><path class="edge" d="M 0 0 V -46.8753 H 0.0" /><rect class="sym" height="6" width="6" x="-3" y="-3" /><text class="lab" transform="translate(0 11)">7</text></g><path class="edge" d="M 0 0 V -7.13603 H -11.5" /><circle class="sym" cx="0" cy="0" r="3" /><text class="lab rgt" transform="translate(3 -7.0)">23</text></g><path class="edge" d="M 0 0 V -20.3928 H 13.4167" /><circle class="sym" cx="0" cy="0" r="3" /><text class="lab lft" transform="translate(-3 -7.0)">27</text></g><g class="a32 c1 node n31 p0" transform="translate(13.4167 9.66112)"><g class="a31 leaf node n8 p0 sample" transform="translate(0.0 64.743)"><path class="edge" d="M 0 0 V -64.743 H 0.0" /><rect class="sym" height="6" width="6" x="-3" y="-3" /><text class="lab" transform="translate(0 11)">8</text></g><path class="edge" d="M 0 0 V -9.66112 H -13.4167" /><circle class="sym" cx="0" cy="0" r="3" /><text class="lab rgt" transform="translate(3 -7.0)">31</text></g><path class="edge" d="M 0 0 V -20.1959 H 37.375" /><circle class="sym" cx="0" cy="0" r="3" /><text class="lab lft" transform="translate(-3 -7.0)">32</text></g><circle class="sym" cx="0" cy="0" r="3" /><text class="lab" transform="translate(0 -11)">33</text></g></g></g><g class="tree t1" transform="translate(213.333 0)"><g class="plotbox"><g class="c2 node n33 p0 root" transform="translate(97.625 26.8)"><g class="a33 c1 node n30 p0" transform="translate(37.375 30.9674)"><g class="a30 c2 node n28 p0" transform="translate(0.0 7.5965)"><g class="a28 c1 node n17 p0" transform="translate(23 39.3745)"><g class="a17 c2 node n15 p0" transform="translate(0.0 8.47238)"><g class="a15 leaf node n4 p0 sample" transform="translate(-7.66667 8.18922)"><path class="edge" d="M 0 0 V -8.18922 H 7.66667" /><rect class="sym" height="6" width="6" x="-3" y="-3" /><text class="lab" transform="translate(0 11)">4</text></g><g class="a15 leaf node n5 p0 sample" transform="translate(7.66667 8.18922)"><path class="edge" d="M 0 0 V -8.18922 H -7.66667" /><rect class="sym" height="6" width="6" x="-3" y="-3" /><text class="lab" transform="translate(0 11)">5</text></g><path class="edge" d="M 0 0 V -8.47238 H 0.0" /><circle class="sym" cx="0" cy="0" r="3" /><text class="lab lft" transform="translate(-3 -7.0)">15</text></g><path class="edge" d="M 0 0 V -39.3745 H -23" /><circle class="sym" cx="0" cy="0" r="3" /><text class="lab rgt" transform="translate(3 -7.0)">17</text></g><g class="a28 c1 node n25 p0" transform="translate(-23 3.9136)"><g class="a25 c2 node n18 p0" transform="translate(0.0 29.2205)"><g class="a18 c2 node n12 p0" transform="translate(15.3333 18.4274)"><g class="a12 leaf node n2 p0 sample" transform="translate(-7.66667 4.47458)"><path class="edge" d="M 0 0 V -4.47458 H 7.66667" /><rect class="sym" height="6" width="6" x="-3" y="-3" /><text class="lab" transform="translate(0 11)">2</text></g><g class="a12 leaf node n3 p0 sample" transform="translate(7.66667 4.47458)"><path class="edge" d="M 0 0 V -4.47458 H -7.66667" /><rect class="sym" height="6" width="6" x="-3" y="-3" /><text class="lab" transform="translate(0 11)">3</text></g><path class="edge" d="M 0 0 V -18.4274 H -15.3333" /><circle class="sym" cx="0" cy="0" r="3" /><text class="lab rgt" transform="translate(3 -7.0)">12</text></g><g class="a18 c2 node n16 p0" transform="translate(-15.3333 9.53702)"><g class="a16 leaf node n6 p0 sample" transform="translate(7.66667 13.365)"><path class="edge" d="M 0 0 V -13.365 H -7.66667" /><rect class="sym" height="6" width="6" x="-3" y="-3" /><text class="lab" transform="translate(0 11)">6</text></g><g class="a16 c1 node n10 p0" transform="translate(-7.66667 12.2133)"><g class="a10 leaf node n1 p0 sample" transform="translate(0.0 1.15168)"><path class="edge" d="M 0 0 V -1.15168 H 0.0" /><rect class="sym" height="6" width="6" x="-3" y="-3" /><text class="lab" transform="translate(0 11)">1</text></g><path class="edge" d="M 0 0 V -12.2133 H 7.66667" /><circle class="sym" cx="0" cy="0" r="3" /><text class="lab lft" transform="translate(-3 -7.0)">10</text></g><path class="edge" d="M 0 0 V -9.53702 H 15.3333" /><circle class="sym" cx="0" cy="0" r="3" /><text class="lab lft" transform="translate(-3 -7.0)">16</text></g><path class="edge" d="M 0 0 V -29.2205 H 0.0" /><circle class="sym" cx="0" cy="0" r="3" /><text class="lab lft" transform="translate(-3 -7.0)">18</text></g><path class="edge" d="M 0 0 V -3.9136 H 23" /><circle class="sym" cx="0" cy="0" r="3" /><text class="lab lft" transform="translate(-3 -7.0)">25</text></g><path class="edge" d="M 0 0 V -7.5965 H 0.0" /><circle class="sym" cx="0" cy="0" r="3" /><text class="lab lft" transform="translate(-3 -7.0)">28</text></g><path class="edge" d="M 0 0 V -30.9674 H -37.375" /><circle class="sym" cx="0" cy="0" r="3" /><text class="lab rgt" transform="translate(3 -7.0)">30</text></g><g class="a33 c2 node n32 p0" transform="translate(-37.375 20.1959)"><g class="a32 c1 node n27 p0" transform="translate(13.4167 20.3928)"><g class="a27 c1 node n23 p0" transform="translate(0.0 7.13603)"><g class="a23 leaf node n7 p0 sample" transform="translate(0.0 46.8753)"><path class="edge" d="M 0 0 V -46.8753 H 0.0" /><rect class="sym" height="6" width="6" x="-3" y="-3" /><text class="lab" transform="translate(0 11)">7</text></g><path class="edge" d="M 0 0 V -7.13603 H 0.0" /><circle class="sym" cx="0" cy="0" r="3" /><text class="lab lft" transform="translate(-3 -7.0)">23</text></g><path class="edge" d="M 0 0 V -20.3928 H -13.4167" /><circle class="sym" cx="0" cy="0" r="3" /><text class="lab rgt" transform="translate(3 -7.0)">27</text></g><g class="a32 c2 node n31 p0" transform="translate(-13.4167 9.66112)"><g class="a31 leaf node n8 p0 sample" transform="translate(11.5 64.743)"><path class="edge" d="M 0 0 V -64.743 H -11.5" /><rect class="sym" height="6" width="6" x="-3" y="-3" /><text class="lab" transform="translate(0 11)">8</text></g><g class="a31 c1 node n29 p0" transform="translate(-11.5 4.98747)"><g class="a29 c1 node n22 p0" transform="translate(0.0 24.4019)"><g class="a22 c1 node n20 p0" transform="translate(0.0 1.27654)"><g class="a20 c2 node n19 p0" transform="translate(0.0 1.74669)"><g class="a19 leaf node n0 p0 sample" transform="translate(-7.66667 32.3304)"><path class="edge" d="M 0 0 V -32.3304 H 7.66667" /><rect class="sym" height="6" width="6" x="-3" y="-3" /><text class="lab" transform="translate(0 11)">0</text></g><g class="a19 leaf node n9 p0 sample" transform="translate(7.66667 32.3304)"><path class="edge" d="M 0 0 V -32.3304 H -7.66667" /><rect class="sym" height="6" width="6" x="-3" y="-3" /><text class="lab" transform="translate(0 11)">9</text></g><path class="edge" d="M 0 0 V -1.74669 H 0.0" /><circle class="sym" cx="0" cy="0" r="3" /><text class="lab lft" transform="translate(-3 -7.0)">19</text></g><path class="edge" d="M 0 0 V -1.27654 H 0.0" /><circle class="sym" cx="0" cy="0" r="3" /><text class="lab lft" transform="translate(-3 -7.0)">20</text></g><path class="edge" d="M 0 0 V -24.4019 H 0.0" /><circle class="sym" cx="0" cy="0" r="3" /><text class="lab lft" transform="translate(-3 -7.0)">22</text></g><path class="edge" d="M 0 0 V -4.98747 H 11.5" /><circle class="sym" cx="0" cy="0" r="3" /><text class="lab lft" transform="translate(-3 -7.0)">29</text></g><path class="edge" d="M 0 0 V -9.66112 H 13.4167" /><circle class="sym" cx="0" cy="0" r="3" /><text class="lab lft" transform="translate(-3 -7.0)">31</text></g><path class="edge" d="M 0 0 V -20.1959 H 37.375" /><circle class="sym" cx="0" cy="0" r="3" /><text class="lab lft" transform="translate(-3 -7.0)">32</text></g><circle class="sym" cx="0" cy="0" r="3" /><text class="lab" transform="translate(0 -11)">33</text></g></g></g><g class="tree t2" transform="translate(406.667 0)"><g class="plotbox"><g class="c2 node n33 p0 root" transform="translate(93.7917 26.8)"><g class="a33 c1 node n30 p0" transform="translate(33.5417 30.9674)"><g class="a30 c2 node n28 p0" transform="translate(0.0 7.5965)"><g class="a28 c2 node n17 p0" transform="translate(-26.8333 39.3745)"><g class="a17 c2 node n15 p0" transform="translate(11.5 8.47238)"><g class="a15 leaf node n4 p0 sample" transform="translate(-7.66667 8.18922)"><path class="edge" d="M 0 0 V -8.18922 H 7.66667" /><rect class="sym" height="6" width="6" x="-3" y="-3" /><text class="lab" transform="translate(0 11)">4</text></g><g class="a15 leaf node n5 p0 sample" transform="translate(7.66667 8.18922)"><path class="edge" d="M 0 0 V -8.18922 H -7.66667" /><rect class="sym" height="6" width="6" x="-3" y="-3" /><text class="lab" transform="translate(0 11)">5</text></g><path class="edge" d="M 0 0 V -8.47238 H -11.5" /><circle class="sym" cx="0" cy="0" r="3" /><text class="lab rgt" transform="translate(3 -7.0)">15</text></g><g class="a17 c1 node n13 p0" transform="translate(-11.5 10.3683)"><g class="a13 c1 node n11 p0" transform="translate(0.0 5.14164)"><g class="a11 leaf node n1 p0 sample" transform="translate(0.0 1.15168)"><path class="edge" d="M 0 0 V -1.15168 H 0.0" /><rect class="sym" height="6" width="6" x="-3" y="-3" /><text class="lab" transform="translate(0 11)">1</text></g><path class="edge" d="M 0 0 V -5.14164 H 0.0" /><circle class="sym" cx="0" cy="0" r="3" /><text class="lab lft" transform="translate(-3 -7.0)">11</text></g><path class="edge" d="M 0 0 V -10.3683 H 11.5" /><circle class="sym" cx="0" cy="0" r="3" /><text class="lab lft" transform="translate(-3 -7.0)">13</text></g><path class="edge" d="M 0 0 V -39.3745 H 26.8333" /><circle class="sym" cx="0" cy="0" r="3" /><text class="lab lft" transform="translate(-3 -7.0)">17</text></g><g class="a28 c1 node n25 p0" transform="translate(26.8333 3.9136)"><g class="a25 c2 node n18 p0" transform="translate(0.0 29.2205)"><g class="a18 c2 node n12 p0" transform="translate(-11.5 18.4274)"><g class="a12 leaf node n2 p0 sample" transform="translate(-7.66667 4.47458)"><path class="edge" d="M 0 0 V -4.47458 H 7.66667" /><rect class="sym" height="6" width="6" x="-3" y="-3" /><text class="lab" transform="translate(0 11)">2</text></g><g class="a12 leaf node n3 p0 sample" transform="translate(7.66667 4.47458)"><path class="edge" d="M 0 0 V -4.47458 H -7.66667" /><rect class="sym" height="6" width="6" x="-3" y="-3" /><text class="lab" transform="translate(0 11)">3</text></g><path class="edge" d="M 0 0 V -18.4274 H 11.5" /><circle class="sym" cx="0" cy="0" r="3" /><text class="lab lft" transform="translate(-3 -7.0)">12</text></g><g class="a18 c1 node n16 p0" transform="translate(11.5 9.53702)"><g class="a16 leaf node n6 p0 sample" transform="translate(0.0 13.365)"><path class="edge" d="M 0 0 V -13.365 H 0.0" /><rect class="sym" height="6" width="6" x="-3" y="-3" /><text class="lab" transform="translate(0 11)">6</text></g><path class="edge" d="M 0 0 V -9.53702 H -11.5" /><circle class="sym" cx="0" cy="0" r="3" /><text class="lab rgt" transform="translate(3 -7.0)">16</text></g><path class="edge" d="M 0 0 V -29.2205 H 0.0" /><circle class="sym" cx="0" cy="0" r="3" /><text class="lab lft" transform="translate(-3 -7.0)">18</text></g><path class="edge" d="M 0 0 V -3.9136 H -26.8333" /><circle class="sym" cx="0" cy="0" r="3" /><text class="lab rgt" transform="translate(3 -7.0)">25</text></g><path class="edge" d="M 0 0 V -7.5965 H 0.0" /><circle class="sym" cx="0" cy="0" r="3" /><text class="lab lft" transform="translate(-3 -7.0)">28</text></g><path class="edge" d="M 0 0 V -30.9674 H -33.5417" /><circle class="sym" cx="0" cy="0" r="3" /><text class="lab rgt" transform="translate(3 -7.0)">30</text></g><g class="a33 c2 node n32 p0" transform="translate(-33.5417 20.1959)"><g class="a32 c1 node n27 p0" transform="translate(13.4167 20.3928)"><g class="a27 c1 node n23 p0" transform="translate(0.0 7.13603)"><g class="a23 leaf node n7 p0 sample" transform="translate(0.0 46.8753)"><path class="edge" d="M 0 0 V -46.8753 H 0.0" /><rect class="sym" height="6" width="6" x="-3" y="-3" /><text class="lab" transform="translate(0 11)">7</text></g><path class="edge" d="M 0 0 V -7.13603 H 0.0" /><circle class="sym" cx="0" cy="0" r="3" /><text class="lab lft" transform="translate(-3 -7.0)">23</text></g><path class="edge" d="M 0 0 V -20.3928 H -13.4167" /><circle class="sym" cx="0" cy="0" r="3" /><text class="lab rgt" transform="translate(3 -7.0)">27</text></g><g class="a32 c2 node n31 p0" transform="translate(-13.4167 9.66112)"><g class="a31 leaf node n8 p0 sample" transform="translate(11.5 64.743)"><path class="edge" d="M 0 0 V -64.743 H -11.5" /><rect class="sym" height="6" width="6" x="-3" y="-3" /><text class="lab" transform="translate(0 11)">8</text></g><g class="a31 c1 node n29 p0" transform="translate(-11.5 4.98747)"><g class="a29 c1 node n22 p0" transform="translate(0.0 24.4019)"><g class="a22 c1 node n20 p0" transform="translate(0.0 1.27654)"><g class="a20 c2 node n19 p0" transform="translate(0.0 1.74669)"><g class="a19 leaf node n0 p0 sample" transform="translate(-7.66667 32.3304)"><path class="edge" d="M 0 0 V -32.3304 H 7.66667" /><rect class="sym" height="6" width="6" x="-3" y="-3" /><text class="lab" transform="translate(0 11)">0</text></g><g class="a19 leaf node n9 p0 sample" transform="translate(7.66667 32.3304)"><path class="edge" d="M 0 0 V -32.3304 H -7.66667" /><rect class="sym" height="6" width="6" x="-3" y="-3" /><text class="lab" transform="translate(0 11)">9</text></g><path class="edge" d="M 0 0 V -1.74669 H 0.0" /><circle class="sym" cx="0" cy="0" r="3" /><text class="lab lft" transform="translate(-3 -7.0)">19</text></g><path class="edge" d="M 0 0 V -1.27654 H 0.0" /><circle class="sym" cx="0" cy="0" r="3" /><text class="lab lft" transform="translate(-3 -7.0)">20</text></g><path class="edge" d="M 0 0 V -24.4019 H 0.0" /><circle class="sym" cx="0" cy="0" r="3" /><text class="lab lft" transform="translate(-3 -7.0)">22</text></g><path class="edge" d="M 0 0 V -4.98747 H 11.5" /><circle class="sym" cx="0" cy="0" r="3" /><text class="lab lft" transform="translate(-3 -7.0)">29</text></g><path class="edge" d="M 0 0 V -9.66112 H 13.4167" /><circle class="sym" cx="0" cy="0" r="3" /><text class="lab lft" transform="translate(-3 -7.0)">31</text></g><path class="edge" d="M 0 0 V -20.1959 H 33.5417" /><circle class="sym" cx="0" cy="0" r="3" /><text class="lab lft" transform="translate(-3 -7.0)">32</text></g><circle class="sym" cx="0" cy="0" r="3" /><text class="lab" transform="translate(0 -11)">33</text></g></g></g><g class="tree t3" transform="translate(600 0)"><g class="plotbox"><g class="c2 node n33 p0 root" transform="translate(107.688 26.8)"><g class="a33 c1 node n30 p0" transform="translate(33.0625 30.9674)"><g class="a30 c2 node n28 p0" transform="translate(0.0 7.5965)"><g class="a28 c1 node n17 p0" transform="translate(17.25 39.3745)"><g class="a17 c2 node n15 p0" transform="translate(0.0 8.47238)"><g class="a15 leaf node n4 p0 sample" transform="translate(-7.66667 8.18922)"><path class="edge" d="M 0 0 V -8.18922 H 7.66667" /><rect class="sym" height="6" width="6" x="-3" y="-3" /><text class="lab" transform="translate(0 11)">4</text></g><g class="a15 leaf node n5 p0 sample" transform="translate(7.66667 8.18922)"><path class="edge" d="M 0 0 V -8.18922 H -7.66667" /><rect class="sym" height="6" width="6" x="-3" y="-3" /><text class="lab" transform="translate(0 11)">5</text></g><path class="edge" d="M 0 0 V -8.47238 H 0.0" /><circle class="sym" cx="0" cy="0" r="3" /><text class="lab lft" transform="translate(-3 -7.0)">15</text></g><path class="edge" d="M 0 0 V -39.3745 H -17.25" /><circle class="sym" cx="0" cy="0" r="3" /><text class="lab rgt" transform="translate(3 -7.0)">17</text></g><g class="a28 c1 node n25 p0" transform="translate(-17.25 3.9136)"><g class="a25 c2 node n18 p0" transform="translate(0.0 29.2205)"><g class="a18 c2 node n12 p0" transform="translate(-11.5 18.4274)"><g class="a12 leaf node n2 p0 sample" transform="translate(-7.66667 4.47458)"><path class="edge" d="M 0 0 V -4.47458 H 7.66667" /><rect class="sym" height="6" width="6" x="-3" y="-3" /><text class="lab" transform="translate(0 11)">2</text></g><g class="a12 leaf node n3 p0 sample" transform="translate(7.66667 4.47458)"><path class="edge" d="M 0 0 V -4.47458 H -7.66667" /><rect class="sym" height="6" width="6" x="-3" y="-3" /><text class="lab" transform="translate(0 11)">3</text></g><path class="edge" d="M 0 0 V -18.4274 H 11.5" /><circle class="sym" cx="0" cy="0" r="3" /><text class="lab lft" transform="translate(-3 -7.0)">12</text></g><g class="a18 c1 node n16 p0" transform="translate(11.5 9.53702)"><g class="a16 leaf node n6 p0 sample" transform="translate(0.0 13.365)"><path class="edge" d="M 0 0 V -13.365 H 0.0" /><rect class="sym" height="6" width="6" x="-3" y="-3" /><text class="lab" transform="translate(0 11)">6</text></g><path class="edge" d="M 0 0 V -9.53702 H -11.5" /><circle class="sym" cx="0" cy="0" r="3" /><text class="lab rgt" transform="translate(3 -7.0)">16</text></g><path class="edge" d="M 0 0 V -29.2205 H 0.0" /><circle class="sym" cx="0" cy="0" r="3" /><text class="lab lft" transform="translate(-3 -7.0)">18</text></g><path class="edge" d="M 0 0 V -3.9136 H 17.25" /><circle class="sym" cx="0" cy="0" r="3" /><text class="lab lft" transform="translate(-3 -7.0)">25</text></g><path class="edge" d="M 0 0 V -7.5965 H 0.0" /><circle class="sym" cx="0" cy="0" r="3" /><text class="lab lft" transform="translate(-3 -7.0)">28</text></g><path class="edge" d="M 0 0 V -30.9674 H -33.0625" /><circle class="sym" cx="0" cy="0" r="3" /><text class="lab rgt" transform="translate(3 -7.0)">30</text></g><g class="a33 c2 node n32 p0" transform="translate(-33.0625 20.1959)"><g class="a32 c1 node n27 p0" transform="translate(14.375 20.3928)"><g class="a27 c1 node n23 p0" transform="translate(0.0 7.13603)"><g class="a23 leaf node n7 p0 sample" transform="translate(0.0 46.8753)"><path class="edge" d="M 0 0 V -46.8753 H 0.0" /><rect class="sym" height="6" width="6" x="-3" y="-3" /><text class="lab" transform="translate(0 11)">7</text></g><path class="edge" d="M 0 0 V -7.13603 H 0.0" /><circle class="sym" cx="0" cy="0" r="3" /><text class="lab lft" transform="translate(-3 -7.0)">23</text></g><path class="edge" d="M 0 0 V -20.3928 H -14.375" /><circle class="sym" cx="0" cy="0" r="3" /><text class="lab rgt" transform="translate(3 -7.0)">27</text></g><g class="a32 c2 node n31 p0" transform="translate(-14.375 9.66112)"><g class="a31 leaf node n8 p0 sample" transform="translate(13.4167 64.743)"><path class="edge" d="M 0 0 V -64.743 H -13.4167" /><rect class="sym" height="6" width="6" x="-3" y="-3" /><text class="lab" transform="translate(0 11)">8</text></g><g class="a31 c1 node n29 p0" transform="translate(-13.4167 4.98747)"><g class="a29 c1 node n22 p0" transform="translate(0.0 24.4019)"><g class="a22 c2 node n20 p0" transform="translate(0.0 1.27654)"><g class="a20 c2 node n19 p0" transform="translate(-11.5 1.74669)"><g class="a19 leaf node n0 p0 sample" transform="translate(-7.66667 32.3304)"><path class="edge" d="M 0 0 V -32.3304 H 7.66667" /><rect class="sym" height="6" width="6" x="-3" y="-3" /><text class="lab" transform="translate(0 11)">0</text></g><g class="a19 leaf node n9 p0 sample" transform="translate(7.66667 32.3304)"><path class="edge" d="M 0 0 V -32.3304 H -7.66667" /><rect class="sym" height="6" width="6" x="-3" y="-3" /><text class="lab" transform="translate(0 11)">9</text></g><path class="edge" d="M 0 0 V -1.74669 H 11.5" /><circle class="sym" cx="0" cy="0" r="3" /><text class="lab lft" transform="translate(-3 -7.0)">19</text></g><g class="a20 c1 node n14 p0" transform="translate(11.5 27.7837)"><g class="a14 c1 node n11 p0" transform="translate(0.0 5.14164)"><g class="a11 leaf node n1 p0 sample" transform="translate(0.0 1.15168)"><path class="edge" d="M 0 0 V -1.15168 H 0.0" /><rect class="sym" height="6" width="6" x="-3" y="-3" /><text class="lab" transform="translate(0 11)">1</text></g><path class="edge" d="M 0 0 V -5.14164 H 0.0" /><circle class="sym" cx="0" cy="0" r="3" /><text class="lab lft" transform="translate(-3 -7.0)">11</text></g><path class="edge" d="M 0 0 V -27.7837 H -11.5" /><circle class="sym" cx="0" cy="0" r="3" /><text class="lab rgt" transform="translate(3 -7.0)">14</text></g><path class="edge" d="M 0 0 V -1.27654 H 0.0" /><circle class="sym" cx="0" cy="0" r="3" /><text class="lab lft" transform="translate(-3 -7.0)">20</text></g><path class="edge" d="M 0 0 V -24.4019 H 0.0" /><circle class="sym" cx="0" cy="0" r="3" /><text class="lab lft" transform="translate(-3 -7.0)">22</text></g><path class="edge" d="M 0 0 V -4.98747 H 13.4167" /><circle class="sym" cx="0" cy="0" r="3" /><text class="lab lft" transform="translate(-3 -7.0)">29</text></g><path class="edge" d="M 0 0 V -9.66112 H 14.375" /><circle class="sym" cx="0" cy="0" r="3" /><text class="lab lft" transform="translate(-3 -7.0)">31</text></g><path class="edge" d="M 0 0 V -20.1959 H 33.0625" /><circle class="sym" cx="0" cy="0" r="3" /><text class="lab lft" transform="translate(-3 -7.0)">32</text></g><circle class="sym" cx="0" cy="0" r="3" /><text class="lab" transform="translate(0 -11)">33</text></g></g></g><g class="tree t4" transform="translate(793.333 0)"><g class="plotbox"><g class="c2 node n33 p0 root" transform="translate(107.688 26.8)"><g class="a33 c2 node n30 p0" transform="translate(33.0625 30.9674)"><g class="a30 c1 node n28 p0" transform="translate(17.25 7.5965)"><g class="a28 c1 node n17 p0" transform="translate(0.0 39.3745)"><g class="a17 c2 node n15 p0" transform="translate(0.0 8.47238)"><g class="a15 leaf node n4 p0 sample" transform="translate(-7.66667 8.18922)"><path class="edge" d="M 0 0 V -8.18922 H 7.66667" /><rect class="sym" height="6" width="6" x="-3" y="-3" /><text class="lab" transform="translate(0 11)">4</text></g><g class="a15 leaf node n5 p0 sample" transform="translate(7.66667 8.18922)"><path class="edge" d="M 0 0 V -8.18922 H -7.66667" /><rect class="sym" height="6" width="6" x="-3" y="-3" /><text class="lab" transform="translate(0 11)">5</text></g><path class="edge" d="M 0 0 V -8.47238 H 0.0" /><circle class="sym" cx="0" cy="0" r="3" /><text class="lab lft" transform="translate(-3 -7.0)">15</text></g><path class="edge" d="M 0 0 V -39.3745 H 0.0" /><circle class="sym" cx="0" cy="0" r="3" /><text class="lab lft" transform="translate(-3 -7.0)">17</text></g><path class="edge" d="M 0 0 V -7.5965 H -17.25" /><circle class="sym" cx="0" cy="0" r="3" /><text class="lab rgt" transform="translate(3 -7.0)">28</text></g><g class="a30 c1 node n26 p0" transform="translate(-17.25 11.5101)"><g class="a26 c2 node n18 p0" transform="translate(0.0 29.2205)"><g class="a18 c2 node n12 p0" transform="translate(-11.5 18.4274)"><g class="a12 leaf node n2 p0 sample" transform="translate(-7.66667 4.47458)"><path class="edge" d="M 0 0 V -4.47458 H 7.66667" /><rect class="sym" height="6" width="6" x="-3" y="-3" /><text class="lab" transform="translate(0 11)">2</text></g><g class="a12 leaf node n3 p0 sample" transform="translate(7.66667 4.47458)"><path class="edge" d="M 0 0 V -4.47458 H -7.66667" /><rect class="sym" height="6" width="6" x="-3" y="-3" /><text class="lab" transform="translate(0 11)">3</text></g><path class="edge" d="M 0 0 V -18.4274 H 11.5" /><circle class="sym" cx="0" cy="0" r="3" /><text class="lab lft" transform="translate(-3 -7.0)">12</text></g><g class="a18 c1 node n16 p0" transform="translate(11.5 9.53702)"><g class="a16 leaf node n6 p0 sample" transform="translate(0.0 13.365)"><path class="edge" d="M 0 0 V -13.365 H 0.0" /><rect class="sym" height="6" width="6" x="-3" y="-3" /><text class="lab" transform="translate(0 11)">6</text></g><path class="edge" d="M 0 0 V -9.53702 H -11.5" /><circle class="sym" cx="0" cy="0" r="3" /><text class="lab rgt" transform="translate(3 -7.0)">16</text></g><path class="edge" d="M 0 0 V -29.2205 H 0.0" /><circle class="sym" cx="0" cy="0" r="3" /><text class="lab lft" transform="translate(-3 -7.0)">18</text></g><path class="edge" d="M 0 0 V -11.5101 H 17.25" /><circle class="sym" cx="0" cy="0" r="3" /><text class="lab lft" transform="translate(-3 -7.0)">26</text></g><path class="edge" d="M 0 0 V -30.9674 H -33.0625" /><circle class="sym" cx="0" cy="0" r="3" /><text class="lab rgt" transform="translate(3 -7.0)">30</text></g><g class="a33 c2 node n32 p0" transform="translate(-33.0625 20.1959)"><g class="a32 c1 node n27 p0" transform="translate(14.375 20.3928)"><g class="a27 c1 node n23 p0" transform="translate(0.0 7.13603)"><g class="a23 leaf node n7 p0 sample" transform="translate(0.0 46.8753)"><path class="edge" d="M 0 0 V -46.8753 H 0.0" /><rect class="sym" height="6" width="6" x="-3" y="-3" /><text class="lab" transform="translate(0 11)">7</text></g><path class="edge" d="M 0 0 V -7.13603 H 0.0" /><circle class="sym" cx="0" cy="0" r="3" /><text class="lab lft" transform="translate(-3 -7.0)">23</text></g><path class="edge" d="M 0 0 V -20.3928 H -14.375" /><circle class="sym" cx="0" cy="0" r="3" /><text class="lab rgt" transform="translate(3 -7.0)">27</text></g><g class="a32 c2 node n31 p0" transform="translate(-14.375 9.66112)"><g class="a31 leaf node n8 p0 sample" transform="translate(13.4167 64.743)"><path class="edge" d="M 0 0 V -64.743 H -13.4167" /><rect class="sym" height="6" width="6" x="-3" y="-3" /><text class="lab" transform="translate(0 11)">8</text></g><g class="a31 c1 node n29 p0" transform="translate(-13.4167 4.98747)"><g class="a29 c1 node n22 p0" transform="translate(0.0 24.4019)"><g class="a22 c2 node n20 p0" transform="translate(0.0 1.27654)"><g class="a20 c2 node n19 p0" transform="translate(-11.5 1.74669)"><g class="a19 leaf node n0 p0 sample" transform="translate(-7.66667 32.3304)"><path class="edge" d="M 0 0 V -32.3304 H 7.66667" /><rect class="sym" height="6" width="6" x="-3" y="-3" /><text class="lab" transform="translate(0 11)">0</text></g><g class="a19 leaf node n9 p0 sample" transform="translate(7.66667 32.3304)"><path class="edge" d="M 0 0 V -32.3304 H -7.66667" /><rect class="sym" height="6" width="6" x="-3" y="-3" /><text class="lab" transform="translate(0 11)">9</text></g><path class="edge" d="M 0 0 V -1.74669 H 11.5" /><circle class="sym" cx="0" cy="0" r="3" /><text class="lab lft" transform="translate(-3 -7.0)">19</text></g><g class="a20 c1 node n14 p0" transform="translate(11.5 27.7837)"><g class="a14 c1 node n11 p0" transform="translate(0.0 5.14164)"><g class="a11 leaf node n1 p0 sample" transform="translate(0.0 1.15168)"><path class="edge" d="M 0 0 V -1.15168 H 0.0" /><rect class="sym" height="6" width="6" x="-3" y="-3" /><text class="lab" transform="translate(0 11)">1</text></g><path class="edge" d="M 0 0 V -5.14164 H 0.0" /><circle class="sym" cx="0" cy="0" r="3" /><text class="lab lft" transform="translate(-3 -7.0)">11</text></g><path class="edge" d="M 0 0 V -27.7837 H -11.5" /><circle class="sym" cx="0" cy="0" r="3" /><text class="lab rgt" transform="translate(3 -7.0)">14</text></g><path class="edge" d="M 0 0 V -1.27654 H 0.0" /><circle class="sym" cx="0" cy="0" r="3" /><text class="lab lft" transform="translate(-3 -7.0)">20</text></g><path class="edge" d="M 0 0 V -24.4019 H 0.0" /><circle class="sym" cx="0" cy="0" r="3" /><text class="lab lft" transform="translate(-3 -7.0)">22</text></g><path class="edge" d="M 0 0 V -4.98747 H 13.4167" /><circle class="sym" cx="0" cy="0" r="3" /><text class="lab lft" transform="translate(-3 -7.0)">29</text></g><path class="edge" d="M 0 0 V -9.66112 H 14.375" /><circle class="sym" cx="0" cy="0" r="3" /><text class="lab lft" transform="translate(-3 -7.0)">31</text></g><path class="edge" d="M 0 0 V -20.1959 H 33.0625" /><circle class="sym" cx="0" cy="0" r="3" /><text class="lab lft" transform="translate(-3 -7.0)">32</text></g><circle class="sym" cx="0" cy="0" r="3" /><text class="lab" transform="translate(0 -11)">33</text></g></g></g><g class="tree t5" transform="translate(986.667 0)"><g class="plotbox"><g class="c2 node n33 p0 root" transform="translate(107.688 26.8)"><g class="a33 c2 node n30 p0" transform="translate(33.0625 30.9674)"><g class="a30 c1 node n28 p0" transform="translate(17.25 7.5965)"><g class="a28 c1 node n17 p0" transform="translate(0.0 39.3745)"><g class="a17 c2 node n15 p0" transform="translate(0.0 8.47238)"><g class="a15 leaf node n4 p0 sample" transform="translate(-7.66667 8.18922)"><path class="edge" d="M 0 0 V -8.18922 H 7.66667" /><rect class="sym" height="6" width="6" x="-3" y="-3" /><text class="lab" transform="translate(0 11)">4</text></g><g class="a15 leaf node n5 p0 sample" transform="translate(7.66667 8.18922)"><path class="edge" d="M 0 0 V -8.18922 H -7.66667" /><rect class="sym" height="6" width="6" x="-3" y="-3" /><text class="lab" transform="translate(0 11)">5</text></g><path class="edge" d="M 0 0 V -8.47238 H 0.0" /><circle class="sym" cx="0" cy="0" r="3" /><text class="lab lft" transform="translate(-3 -7.0)">15</text></g><path class="edge" d="M 0 0 V -39.3745 H 0.0" /><circle class="sym" cx="0" cy="0" r="3" /><text class="lab lft" transform="translate(-3 -7.0)">17</text></g><path class="edge" d="M 0 0 V -7.5965 H -17.25" /><circle class="sym" cx="0" cy="0" r="3" /><text class="lab rgt" transform="translate(3 -7.0)">28</text></g><g class="a30 c1 node n26 p0" transform="translate(-17.25 11.5101)"><g class="a26 c2 node n18 p0" transform="translate(0.0 29.2205)"><g class="a18 c2 node n12 p0" transform="translate(-11.5 18.4274)"><g class="a12 leaf node n2 p0 sample" transform="translate(-7.66667 4.47458)"><path class="edge" d="M 0 0 V -4.47458 H 7.66667" /><rect class="sym" height="6" width="6" x="-3" y="-3" /><text class="lab" transform="translate(0 11)">2</text></g><g class="a12 leaf node n3 p0 sample" transform="translate(7.66667 4.47458)"><path class="edge" d="M 0 0 V -4.47458 H -7.66667" /><rect class="sym" height="6" width="6" x="-3" y="-3" /><text class="lab" transform="translate(0 11)">3</text></g><path class="edge" d="M 0 0 V -18.4274 H 11.5" /><circle class="sym" cx="0" cy="0" r="3" /><text class="lab lft" transform="translate(-3 -7.0)">12</text></g><g class="a18 c1 node n16 p0" transform="translate(11.5 9.53702)"><g class="a16 leaf node n6 p0 sample" transform="translate(0.0 13.365)"><path class="edge" d="M 0 0 V -13.365 H 0.0" /><rect class="sym" height="6" width="6" x="-3" y="-3" /><text class="lab" transform="translate(0 11)">6</text></g><path class="edge" d="M 0 0 V -9.53702 H -11.5" /><circle class="sym" cx="0" cy="0" r="3" /><text class="lab rgt" transform="translate(3 -7.0)">16</text></g><path class="edge" d="M 0 0 V -29.2205 H 0.0" /><circle class="sym" cx="0" cy="0" r="3" /><text class="lab lft" transform="translate(-3 -7.0)">18</text></g><path class="edge" d="M 0 0 V -11.5101 H 17.25" /><circle class="sym" cx="0" cy="0" r="3" /><text class="lab lft" transform="translate(-3 -7.0)">26</text></g><path class="edge" d="M 0 0 V -30.9674 H -33.0625" /><circle class="sym" cx="0" cy="0" r="3" /><text class="lab rgt" transform="translate(3 -7.0)">30</text></g><g class="a33 c1 node n32 p0" transform="translate(-33.0625 20.1959)"><g class="a32 c2 node n31 p0" transform="translate(0.0 9.66112)"><g class="a31 leaf node n8 p0 sample" transform="translate(14.375 64.743)"><path class="edge" d="M 0 0 V -64.743 H -14.375" /><rect class="sym" height="6" width="6" x="-3" y="-3" /><text class="lab" transform="translate(0 11)">8</text></g><g class="a31 c2 node n29 p0" transform="translate(-14.375 4.98747)"><g class="a29 c1 node n22 p0" transform="translate(-13.4167 24.4019)"><g class="a22 c2 node n20 p0" transform="translate(0.0 1.27654)"><g class="a20 c2 node n19 p0" transform="translate(-11.5 1.74669)"><g class="a19 leaf node n0 p0 sample" transform="translate(-7.66667 32.3304)"><path class="edge" d="M 0 0 V -32.3304 H 7.66667" /><rect class="sym" height="6" width="6" x="-3" y="-3" /><text class="lab" transform="translate(0 11)">0</text></g><g class="a19 leaf node n9 p0 sample" transform="translate(7.66667 32.3304)"><path class="edge" d="M 0 0 V -32.3304 H -7.66667" /><rect class="sym" height="6" width="6" x="-3" y="-3" /><text class="lab" transform="translate(0 11)">9</text></g><path class="edge" d="M 0 0 V -1.74669 H 11.5" /><circle class="sym" cx="0" cy="0" r="3" /><text class="lab lft" transform="translate(-3 -7.0)">19</text></g><g class="a20 c1 node n14 p0" transform="translate(11.5 27.7837)"><g class="a14 c1 node n11 p0" transform="translate(0.0 5.14164)"><g class="a11 leaf node n1 p0 sample" transform="translate(0.0 1.15168)"><path class="edge" d="M 0 0 V -1.15168 H 0.0" /><rect class="sym" height="6" width="6" x="-3" y="-3" /><text class="lab" transform="translate(0 11)">1</text></g><path class="edge" d="M 0 0 V -5.14164 H 0.0" /><circle class="sym" cx="0" cy="0" r="3" /><text class="lab lft" transform="translate(-3 -7.0)">11</text></g><path class="edge" d="M 0 0 V -27.7837 H -11.5" /><circle class="sym" cx="0" cy="0" r="3" /><text class="lab rgt" transform="translate(3 -7.0)">14</text></g><path class="edge" d="M 0 0 V -1.27654 H 0.0" /><circle class="sym" cx="0" cy="0" r="3" /><text class="lab lft" transform="translate(-3 -7.0)">20</text></g><path class="edge" d="M 0 0 V -24.4019 H 13.4167" /><circle class="sym" cx="0" cy="0" r="3" /><text class="lab lft" transform="translate(-3 -7.0)">22</text></g><g class="a29 c1 node n24 p0" transform="translate(13.4167 12.8802)"><g class="a24 leaf node n7 p0 sample" transform="translate(0.0 46.8753)"><path class="edge" d="M 0 0 V -46.8753 H 0.0" /><rect class="sym" height="6" width="6" x="-3" y="-3" /><text class="lab" transform="translate(0 11)">7</text></g><path class="edge" d="M 0 0 V -12.8802 H -13.4167" /><circle class="sym" cx="0" cy="0" r="3" /><text class="lab rgt" transform="translate(3 -7.0)">24</text></g><path class="edge" d="M 0 0 V -4.98747 H 14.375" /><circle class="sym" cx="0" cy="0" r="3" /><text class="lab lft" transform="translate(-3 -7.0)">29</text></g><path class="edge" d="M 0 0 V -9.66112 H 0.0" /><circle class="sym" cx="0" cy="0" r="3" /><text class="lab lft" transform="translate(-3 -7.0)">31</text></g><path class="edge" d="M 0 0 V -20.1959 H 33.0625" /><circle class="sym" cx="0" cy="0" r="3" /><text class="lab lft" transform="translate(-3 -7.0)">32</text></g><circle class="sym" cx="0" cy="0" r="3" /><text class="lab" transform="translate(0 -11)">33</text></g></g></g></g></g></svg>
