<svg baseProfile="full" height="200" version="1.1" width="800" xmlns="http://www.w3.org/2000/svg" xmlns:ev="http://www.w3.org/2001/xml-events" xmlns:xlink="http://www.w3.org/1999/xlink"><defs><style type="text/css"><![CDATA[.background path {fill: #808080; fill-opacity: 0}.background path:nth-child(odd) {fill-opacity: .1}.axes {font-size: 14px}.x-axis .tick .lab {font-weight: bold; dominant-baseline: hanging}.axes, .tree {font-size: 14px; text-anchor: middle}.axes line, .edge {stroke: black; fill: none}.y-axis .grid {stroke: #FAFAFA}.node > .sym {fill: black; stroke: none}.site > .sym {stroke: black}.mut text {fill: red; font-style: italic}.mut.extra text {fill: hotpink}.mut line {fill: none; stroke: none}.mut .sym {fill: none; stroke: red}.mut.extra .sym {stroke: hotpink}.node .mut .sym {stroke-width: 1.5px}.tree text, .tree-sequence text {dominant-baseline: central}.plotbox .lab.lft {text-anchor: end}.plotbox .lab.rgt {text-anchor: start}]]></style></defs><g class="tree-sequence"><g class="background"><path d="M20,0 l190,0 l0,138.2 l-113.923,25 l0,5 l-76.0769,0 l0,-5 l0,-25 l0,-138.2z" /><path d="M210,0 l190,0 l0,138.2 l-270.753,25 l0,5 l-33.1697,0 l0,-5 l113.923,-25 l0,-138.2z" /><path d="M400,0 l190,0 l0,138.2 l-125.175,25 l0,5 l-335.579,0 l0,-5 l270.753,-25 l0,-138.2z" /><path d="M590,0 l190,0 l0,138.2 l0,25 l0,5 l-315.175,0 l0,-5 l125.175,-25 l0,-138.2z" /></g><g class="axes"><g class="x-axis"><g transform="translate(400 200)"><text class="lab" text-anchor="middle" transform="translate(0 -11)">Genome position</text></g><line x1="20" x2="780" y1="163.2" y2="163.2" /><g class="ticks"><g class="tick" transform="translate(20 163.2)"><line x1="0" x2="0" y1="0" y2="5" /><g transform="translate(0 6)"><text class="lab">0.00</text></g></g><g class="tick" transform="translate(96.0769 163.2)"><line x1="0" x2="0" y1="0" y2="5" /><g transform="translate(0 6)"><text class="lab">100.10</text></g></g><g class="tick" transform="translate(129.247 163.2)"><line x1="0" x2="0" y1="0" y2="5" /><g transform="translate(0 6)"><text class="lab">143.75</text></g></g><g class="tick" transform="translate(464.825 163.2)"><line x1="0" x2="0" y1="0" y2="5" /><g transform="translate(0 6)"><text class="lab">585.30</text></g></g><g class="tick" transform="translate(780 163.2)"><line x1="0" x2="0" y1="0" y2="5" /><g transform="translate(0 6)"><text class="lab">1000.00</text></g></g></g></g></g><g class="plotbox trees"><g class="tree t0" transform="translate(20 0)"><g class="plotbox"><g class="c2 node n27 p0 root" transform="translate(104.844 26.8)"><g class="a27 c2 node n25 p0" transform="translate(-36.0938 12.426)"><g class="a25 c1 node n20 p0" transform="translate(18.75 50.5974)"><g class="a20 c1 node n17 p0" transform="translate(0.0 21.0344)"><g class="a17 leaf node n2 p0 sample" transform="translate(0.0 10.5422)"><path class="edge" d="M 0 0 V -10.5422 H 0.0" /><rect class="sym" height="6" width="6" x="-3" y="-3" /><text class="lab" transform="translate(0 11)">2</text></g><path class="edge" d="M 0 0 V -21.0344 H 0.0" /><circle class="sym" cx="0" cy="0" r="3" /><text class="lab lft" transform="translate(-3 -7.0)">17</text></g><path class="edge" d="M 0 0 V -50.5974 H -18.75" /><circle class="sym" cx="0" cy="0" r="3" /><text class="lab rgt" transform="translate(3 -7.0)">20</text></g><g class="a25 c2 node n23 p0" transform="translate(-18.75 47.4256)"><g class="a23 c1 node n14 p0" transform="translate(-15 28.7685)"><g class="a14 c2 node n10 p0" transform="translate(0.0 3.72775)"><g class="a10 leaf node n0 p0 sample" transform="translate(-7.5 2.25213)"><path class="edge" d="M 0 0 V -2.25213 H 7.5" /><rect class="sym" height="6" width="6" x="-3" y="-3" /><text class="lab" transform="translate(0 11)">0</text></g><g class="a10 leaf node n3 p0 sample" transform="translate(7.5 2.25213)"><path class="edge" d="M 0 0 V -2.25213 H -7.5" /><rect class="sym" height="6" width="6" x="-3" y="-3" /><text class="lab" transform="translate(0 11)">3</text></g><path class="edge" d="M 0 0 V -3.72775 H 0.0" /><circle class="sym" cx="0" cy="0" r="3" /><text class="lab lft" transform="translate(-3 -7.0)">10</text></g><path class="edge" d="M 0 0 V -28.7685 H 15" /><circle class="sym" cx="0" cy="0" r="3" /><text class="lab lft" transform="translate(-3 -7.0)">14</text></g><g class="a23 c2 node n18 p0" transform="translate(15 20.4765)"><g class="a18 leaf node n6 p0 sample" transform="translate(-7.5 14.2719)"><path class="edge" d="M 0 0 V -14.2719 H 7.5" /><rect class="sym" height="6" width="6" x="-3" y="-3" /><text class="lab" transform="translate(0 11)">6</text></g><g class="a18 c1 node n11 p0" transform="translate(7.5 10.8865)"><g class="a11 leaf node n9 p0 sample" transform="translate(0.0 3.38541)"><path class="edge" d="M 0 0 V -3.38541 H 0.0" /><rect class="sym" height="6" width="6" x="-3" y="-3" /><text class="lab" transform="translate(0 11)">9</text></g><path class="edge" d="M 0 0 V -10.8865 H -7.5" /><circle class="sym" cx="0" cy="0" r="3" /><text class="lab rgt" transform="translate(3 -7.0)">11</text></g><path class="edge" d="M 0 0 V -20.4765 H -15" /><circle class="sym" cx="0" cy="0" r="3" /><text class="lab rgt" transform="translate(3 -7.0)">18</text></g><path class="edge" d="M 0 0 V -47.4256 H 18.75" /><circle class="sym" cx="0" cy="0" r="3" /><text class="lab lft" transform="translate(-3 -7.0)">23</text></g><path class="edge" d="M 0 0 V -12.426 H 36.0938" /><circle class="sym" cx="0" cy="0" r="3" /><text class="lab lft" transform="translate(-3 -7.0)">25</text></g><g class="a27 c1 node n26 p0" transform="translate(36.0938 6.92827)"><g class="a26 c2 node n24 p0" transform="translate(0.0 42.1039)"><g class="a24 leaf node n5 p0 sample" transform="translate(21.5625 45.5679)"><path class="edge" d="M 0 0 V -45.5679 H -21.5625" /><rect class="sym" height="6" width="6" x="-3" y="-3" /><text class="lab" transform="translate(0 11)">5</text></g><g class="a24 c1 node n22 p0" transform="translate(-21.5625 12.7466)"><g class="a22 c2 node n19 p0" transform="translate(0.0 18.053)"><g class="a19 leaf node n1 p0 sample" transform="translate(-16.875 14.7683)"><path class="edge" d="M 0 0 V -14.7683 H 16.875" /><rect class="sym" height="6" width="6" x="-3" y="-3" /><text class="lab" transform="translate(0 11)">1</text></g><g class="a19 c2 node n16 p0" transform="translate(16.875 6.56131)"><g class="a16 leaf node n7 p0 sample" transform="translate(11.25 8.20696)"><path class="edge" d="M 0 0 V -8.20696 H -11.25" /><rect class="sym" height="6" width="6" x="-3" y="-3" /><text class="lab" transform="translate(0 11)">7</text></g><g class="a16 c2 node n13 p0" transform="translate(-11.25 2.62889)"><g class="a13 leaf node n4 p0 sample" transform="translate(-7.5 5.57807)"><path class="edge" d="M 0 0 V -5.57807 H 7.5" /><rect class="sym" height="6" width="6" x="-3" y="-3" /><text class="lab" transform="translate(0 11)">4</text></g><g class="a13 leaf node n8 p0 sample" transform="translate(7.5 5.57807)"><path class="edge" d="M 0 0 V -5.57807 H -7.5" /><rect class="sym" height="6" width="6" x="-3" y="-3" /><text class="lab" transform="translate(0 11)">8</text></g><path class="edge" d="M 0 0 V -2.62889 H 11.25" /><circle class="sym" cx="0" cy="0" r="3" /><text class="lab lft" transform="translate(-3 -7.0)">13</text></g><path class="edge" d="M 0 0 V -6.56131 H -16.875" /><circle class="sym" cx="0" cy="0" r="3" /><text class="lab rgt" transform="translate(3 -7.0)">16</text></g><path class="edge" d="M 0 0 V -18.053 H 0.0" /><circle class="sym" cx="0" cy="0" r="3" /><text class="lab lft" transform="translate(-3 -7.0)">19</text></g><path class="edge" d="M 0 0 V -12.7466 H 21.5625" /><circle class="sym" cx="0" cy="0" r="3" /><text class="lab lft" transform="translate(-3 -7.0)">22</text></g><path class="edge" d="M 0 0 V -42.1039 H 0.0" /><circle class="sym" cx="0" cy="0" r="3" /><text class="lab lft" transform="translate(-3 -7.0)">24</text></g><path class="edge" d="M 0 0 V -6.92827 H -36.0938" /><circle class="sym" cx="0" cy="0" r="3" /><text class="lab rgt" transform="translate(3 -7.0)">26</text></g><circle class="sym" cx="0" cy="0" r="3" /><text class="lab" transform="translate(0 -11)">27</text></g></g></g><g class="tree t1" transform="translate(210 0)"><g class="plotbox"><g class="c2 node n27 p0 root" transform="translate(101.797 26.8)"><g class="a27 c2 node n25 p0" transform="translate(-42.4219 12.426)"><g class="a25 c1 node n20 p0" transform="translate(13.125 50.5974)"><g class="a20 c1 node n17 p0" transform="translate(0.0 21.0344)"><g class="a17 leaf node n2 p0 sample" transform="translate(0.0 10.5422)"><path class="edge" d="M 0 0 V -10.5422 H 0.0" /><rect class="sym" height="6" width="6" x="-3" y="-3" /><text class="lab" transform="translate(0 11)">2</text></g><path class="edge" d="M 0 0 V -21.0344 H 0.0" /><circle class="sym" cx="0" cy="0" r="3" /><text class="lab lft" transform="translate(-3 -7.0)">17</text></g><path class="edge" d="M 0 0 V -50.5974 H -13.125" /><circle class="sym" cx="0" cy="0" r="3" /><text class="lab rgt" transform="translate(3 -7.0)">20</text></g><g class="a25 c2 node n23 p0" transform="translate(-13.125 47.4256)"><g class="a23 c1 node n14 p0" transform="translate(-11.25 28.7685)"><g class="a14 c2 node n10 p0" transform="translate(0.0 3.72775)"><g class="a10 leaf node n0 p0 sample" transform="translate(-7.5 2.25213)"><path class="edge" d="M 0 0 V -2.25213 H 7.5" /><rect class="sym" height="6" width="6" x="-3" y="-3" /><text class="lab" transform="translate(0 11)">0</text></g><g class="a10 leaf node n3 p0 sample" transform="translate(7.5 2.25213)"><path class="edge" d="M 0 0 V -2.25213 H -7.5" /><rect class="sym" height="6" width="6" x="-3" y="-3" /><text class="lab" transform="translate(0 11)">3</text></g><path class="edge" d="M 0 0 V -3.72775 H 0.0" /><circle class="sym" cx="0" cy="0" r="3" /><text class="lab lft" transform="translate(-3 -7.0)">10</text></g><path class="edge" d="M 0 0 V -28.7685 H 11.25" /><circle class="sym" cx="0" cy="0" r="3" /><text class="lab lft" transform="translate(-3 -7.0)">14</text></g><g class="a23 c1 node n18 p0" transform="translate(11.25 20.4765)"><g class="a18 leaf node n6 p0 sample" transform="translate(0.0 14.2719)"><path class="edge" d="M 0 0 V -14.2719 H 0.0" /><rect class="sym" height="6" width="6" x="-3" y="-3" /><text class="lab" transform="translate(0 11)">6</text></g><path class="edge" d="M 0 0 V -20.4765 H -11.25" /><circle class="sym" cx="0" cy="0" r="3" /><text class="lab rgt" transform="translate(3 -7.0)">18</text></g><path class="edge" d="M 0 0 V -47.4256 H 13.125" /><circle class="sym" cx="0" cy="0" r="3" /><text class="lab lft" transform="translate(-3 -7.0)">23</text></g><path class="edge" d="M 0 0 V -12.426 H 42.4219" /><circle class="sym" cx="0" cy="0" r="3" /><text class="lab lft" transform="translate(-3 -7.0)">25</text></g><g class="a27 c1 node n26 p0" transform="translate(42.4219 6.92827)"><g class="a26 c2 node n24 p0" transform="translate(0.0 42.1039)"><g class="a24 leaf node n5 p0 sample" transform="translate(18.2812 45.5679)"><path class="edge" d="M 0 0 V -45.5679 H -18.2812" /><rect class="sym" height="6" width="6" x="-3" y="-3" /><text class="lab" transform="translate(0 11)">5</text></g><g class="a24 c2 node n22 p0" transform="translate(-18.2812 12.7466)"><g class="a22 c2 node n19 p0" transform="translate(-21.5625 18.053)"><g class="a19 leaf node n1 p0 sample" transform="translate(-16.875 14.7683)"><path class="edge" d="M 0 0 V -14.7683 H 16.875" /><rect class="sym" height="6" width="6" x="-3" y="-3" /><text class="lab" transform="translate(0 11)">1</text></g><g class="a19 c2 node n16 p0" transform="translate(16.875 6.56131)"><g class="a16 leaf node n7 p0 sample" transform="translate(11.25 8.20696)"><path class="edge" d="M 0 0 V -8.20696 H -11.25" /><rect class="sym" height="6" width="6" x="-3" y="-3" /><text class="lab" transform="translate(0 11)">7</text></g><g class="a16 c2 node n13 p0" transform="translate(-11.25 2.62889)"><g class="a13 leaf node n4 p0 sample" transform="translate(-7.5 5.57807)"><path class="edge" d="M 0 0 V -5.57807 H 7.5" /><rect class="sym" height="6" width="6" x="-3" y="-3" /><text class="lab" transform="translate(0 11)">4</text></g><g class="a13 leaf node n8 p0 sample" transform="translate(7.5 5.57807)"><path class="edge" d="M 0 0 V -5.57807 H -7.5" /><rect class="sym" height="6" width="6" x="-3" y="-3" /><text class="lab" transform="translate(0 11)">8</text></g><path class="edge" d="M 0 0 V -2.62889 H 11.25" /><circle class="sym" cx="0" cy="0" r="3" /><text class="lab lft" transform="translate(-3 -7.0)">13</text></g><path class="edge" d="M 0 0 V -6.56131 H -16.875" /><circle class="sym" cx="0" cy="0" r="3" /><text class="lab rgt" transform="translate(3 -7.0)">16</text></g><path class="edge" d="M 0 0 V -18.053 H 21.5625" /><circle class="sym" cx="0" cy="0" r="3" /><text class="lab lft" transform="translate(-3 -7.0)">19</text></g><g class="a22 c1 node n12 p0" transform="translate(21.5625 29.4359)"><g class="a12 leaf node n9 p0 sample" transform="translate(0.0 3.38541)"><path class="edge" d="M 0 0 V -3.38541 H 0.0" /><rect class="sym" height="6" width="6" x="-3" y="-3" /><text class="lab" transform="translate(0 11)">9</text></g><path class="edge" d="M 0 0 V -29.4359 H -21.5625" /><circle class="sym" cx="0" cy="0" r="3" /><text class="lab rgt" transform="translate(3 -7.0)">12</text></g><path class="edge" d="M 0 0 V -12.7466 H 18.2812" /><circle class="sym" cx="0" cy="0" r="3" /><text class="lab lft" transform="translate(-3 -7.0)">22</text></g><path class="edge" d="M 0 0 V -42.1039 H 0.0" /><circle class="sym" cx="0" cy="0" r="3" /><text class="lab lft" transform="translate(-3 -7.0)">24</text></g><path class="edge" d="M 0 0 V -6.92827 H -42.4219" /><circle class="sym" cx="0" cy="0" r="3" /><text class="lab rgt" transform="translate(3 -7.0)">26</text></g><circle class="sym" cx="0" cy="0" r="3" /><text class="lab" transform="translate(0 -11)">27</text></g></g></g><g class="tree t2" transform="translate(400 0)"><g class="plotbox"><g class="c2 node n27 p0 root" transform="translate(96.0547 26.8)"><g class="a27 c1 node n25 p0" transform="translate(-49.8047 12.426)"><g class="a25 c2 node n23 p0" transform="translate(0.0 47.4256)"><g class="a23 c1 node n14 p0" transform="translate(-11.25 28.7685)"><g class="a14 c2 node n10 p0" transform="translate(0.0 3.72775)"><g class="a10 leaf node n0 p0 sample" transform="translate(-7.5 2.25213)"><path class="edge" d="M 0 0 V -2.25213 H 7.5" /><rect class="sym" height="6" width="6" x="-3" y="-3" /><text class="lab" transform="translate(0 11)">0</text></g><g class="a10 leaf node n3 p0 sample" transform="translate(7.5 2.25213)"><path class="edge" d="M 0 0 V -2.25213 H -7.5" /><rect class="sym" height="6" width="6" x="-3" y="-3" /><text class="lab" transform="translate(0 11)">3</text></g><path class="edge" d="M 0 0 V -3.72775 H 0.0" /><circle class="sym" cx="0" cy="0" r="3" /><text class="lab lft" transform="translate(-3 -7.0)">10</text></g><path class="edge" d="M 0 0 V -28.7685 H 11.25" /><circle class="sym" cx="0" cy="0" r="3" /><text class="lab lft" transform="translate(-3 -7.0)">14</text></g><g class="a23 c1 node n18 p0" transform="translate(11.25 20.4765)"><g class="a18 leaf node n6 p0 sample" transform="translate(0.0 14.2719)"><path class="edge" d="M 0 0 V -14.2719 H 0.0" /><rect class="sym" height="6" width="6" x="-3" y="-3" /><text class="lab" transform="translate(0 11)">6</text></g><path class="edge" d="M 0 0 V -20.4765 H -11.25" /><circle class="sym" cx="0" cy="0" r="3" /><text class="lab rgt" transform="translate(3 -7.0)">18</text></g><path class="edge" d="M 0 0 V -47.4256 H 0.0" /><circle class="sym" cx="0" cy="0" r="3" /><text class="lab lft" transform="translate(-3 -7.0)">23</text></g><path class="edge" d="M 0 0 V -12.426 H 49.8047" /><circle class="sym" cx="0" cy="0" r="3" /><text class="lab lft" transform="translate(-3 -7.0)">25</text></g><g class="a27 c2 node n26 p0" transform="translate(49.8047 6.92827)"><g class="a26 c2 node n24 p0" transform="translate(-16.6406 42.1039)"><g class="a24 leaf node n5 p0 sample" transform="translate(18.2812 45.5679)"><path class="edge" d="M 0 0 V -45.5679 H -18.2812" /><rect class="sym" height="6" width="6" x="-3" y="-3" /><text class="lab" transform="translate(0 11)">5</text></g><g class="a24 c2 node n22 p0" transform="translate(-18.2812 12.7466)"><g class="a22 c2 node n19 p0" transform="translate(-21.5625 18.053)"><g class="a19 leaf node n1 p0 sample" transform="translate(-16.875 14.7683)"><path class="edge" d="M 0 0 V -14.7683 H 16.875" /><rect class="sym" height="6" width="6" x="-3" y="-3" /><text class="lab" transform="translate(0 11)">1</text></g><g class="a19 c2 node n16 p0" transform="translate(16.875 6.56131)"><g class="a16 leaf node n7 p0 sample" transform="translate(11.25 8.20696)"><path class="edge" d="M 0 0 V -8.20696 H -11.25" /><rect class="sym" height="6" width="6" x="-3" y="-3" /><text class="lab" transform="translate(0 11)">7</text></g><g class="a16 c2 node n13 p0" transform="translate(-11.25 2.62889)"><g class="a13 leaf node n4 p0 sample" transform="translate(-7.5 5.57807)"><path class="edge" d="M 0 0 V -5.57807 H 7.5" /><rect class="sym" height="6" width="6" x="-3" y="-3" /><text class="lab" transform="translate(0 11)">4</text></g><g class="a13 leaf node n8 p0 sample" transform="translate(7.5 5.57807)"><path class="edge" d="M 0 0 V -5.57807 H -7.5" /><rect class="sym" height="6" width="6" x="-3" y="-3" /><text class="lab" transform="translate(0 11)">8</text></g><path class="edge" d="M 0 0 V -2.62889 H 11.25" /><circle class="sym" cx="0" cy="0" r="3" /><text class="lab lft" transform="translate(-3 -7.0)">13</text></g><path class="edge" d="M 0 0 V -6.56131 H -16.875" /><circle class="sym" cx="0" cy="0" r="3" /><text class="lab rgt" transform="translate(3 -7.0)">16</text></g><path class="edge" d="M 0 0 V -18.053 H 21.5625" /><circle class="sym" cx="0" cy="0" r="3" /><text class="lab lft" transform="translate(-3 -7.0)">19</text></g><g class="a22 c1 node n12 p0" transform="translate(21.5625 29.4359)"><g class="a12 leaf node n9 p0 sample" transform="translate(0.0 3.38541)"><path class="edge" d="M 0 0 V -3.38541 H 0.0" /><rect class="sym" height="6" width="6" x="-3" y="-3" /><text class="lab" transform="translate(0 11)">9</text></g><path class="edge" d="M 0 0 V -29.4359 H -21.5625" /><circle class="sym" cx="0" cy="0" r="3" /><text class="lab rgt" transform="translate(3 -7.0)">12</text></g><path class="edge" d="M 0 0 V -12.7466 H 18.2812" /><circle class="sym" cx="0" cy="0" r="3" /><text class="lab lft" transform="translate(-3 -7.0)">22</text></g><path class="edge" d="M 0 0 V -42.1039 H 16.6406" /><circle class="sym" cx="0" cy="0" r="3" /><text class="lab lft" transform="translate(-3 -7.0)">24</text></g><g class="a26 c1 node n21 p0" transform="translate(16.6406 56.0951)"><g class="a21 c1 node n17 p0" transform="translate(0.0 21.0344)"><g class="a17 leaf node n2 p0 sample" transform="translate(0.0 10.5422)"><path class="edge" d="M 0 0 V -10.5422 H 0.0" /><rect class="sym" height="6" width="6" x="-3" y="-3" /><text class="lab" transform="translate(0 11)">2</text></g><path class="edge" d="M 0 0 V -21.0344 H 0.0" /><circle class="sym" cx="0" cy="0" r="3" /><text class="lab lft" transform="translate(-3 -7.0)">17</text></g><path class="edge" d="M 0 0 V -56.0951 H -16.6406" /><circle class="sym" cx="0" cy="0" r="3" /><text class="lab rgt" transform="translate(3 -7.0)">21</text></g><path class="edge" d="M 0 0 V -6.92827 H -49.8047" /><circle class="sym" cx="0" cy="0" r="3" /><text class="lab rgt" transform="translate(3 -7.0)">26</text></g><circle class="sym" cx="0" cy="0" r="3" /><text class="lab" transform="translate(0 -11)">27</text></g></g></g><g class="tree t3" transform="translate(590 0)"><g class="plotbox"><g class="c2 node n27 p0 root" transform="translate(125.117 26.8)"><g class="a27 c1 node n25 p0" transform="translate(37.3828 12.426)"><g class="a25 c1 node n23 p0" transform="translate(0.0 47.4256)"><g class="a23 c1 node n18 p0" transform="translate(0.0 20.4765)"><g class="a18 leaf node n6 p0 sample" transform="translate(0.0 14.2719)"><path class="edge" d="M 0 0 V -14.2719 H 0.0" /><rect class="sym" height="6" width="6" x="-3" y="-3" /><text class="lab" transform="translate(0 11)">6</text></g><path class="edge" d="M 0 0 V -20.4765 H 0.0" /><circle class="sym" cx="0" cy="0" r="3" /><text class="lab lft" transform="translate(-3 -7.0)">18</text></g><path class="edge" d="M 0 0 V -47.4256 H 0.0" /><circle class="sym" cx="0" cy="0" r="3" /><text class="lab lft" transform="translate(-3 -7.0)">23</text></g><path class="edge" d="M 0 0 V -12.426 H -37.3828" /><circle class="sym" cx="0" cy="0" r="3" /><text class="lab rgt" transform="translate(3 -7.0)">25</text></g><g class="a27 c2 node n26 p0" transform="translate(-37.3828 6.92827)"><g class="a26 c2 node n24 p0" transform="translate(41.4844 42.1039)"><g class="a24 leaf node n5 p0 sample" transform="translate(18.2812 45.5679)"><path class="edge" d="M 0 0 V -45.5679 H -18.2812" /><rect class="sym" height="6" width="6" x="-3" y="-3" /><text class="lab" transform="translate(0 11)">5</text></g><g class="a24 c2 node n22 p0" transform="translate(-18.2812 12.7466)"><g class="a22 c2 node n19 p0" transform="translate(-21.5625 18.053)"><g class="a19 leaf node n1 p0 sample" transform="translate(-16.875 14.7683)"><path class="edge" d="M 0 0 V -14.7683 H 16.875" /><rect class="sym" height="6" width="6" x="-3" y="-3" /><text class="lab" transform="translate(0 11)">1</text></g><g class="a19 c2 node n16 p0" transform="translate(16.875 6.56131)"><g class="a16 leaf node n7 p0 sample" transform="translate(11.25 8.20696)"><path class="edge" d="M 0 0 V -8.20696 H -11.25" /><rect class="sym" height="6" width="6" x="-3" y="-3" /><text class="lab" transform="translate(0 11)">7</text></g><g class="a16 c2 node n13 p0" transform="translate(-11.25 2.62889)"><g class="a13 leaf node n4 p0 sample" transform="translate(-7.5 5.57807)"><path class="edge" d="M 0 0 V -5.57807 H 7.5" /><rect class="sym" height="6" width="6" x="-3" y="-3" /><text class="lab" transform="translate(0 11)">4</text></g><g class="a13 leaf node n8 p0 sample" transform="translate(7.5 5.57807)"><path class="edge" d="M 0 0 V -5.57807 H -7.5" /><rect class="sym" height="6" width="6" x="-3" y="-3" /><text class="lab" transform="translate(0 11)">8</text></g><path class="edge" d="M 0 0 V -2.62889 H 11.25" /><circle class="sym" cx="0" cy="0" r="3" /><text class="lab lft" transform="translate(-3 -7.0)">13</text></g><path class="edge" d="M 0 0 V -6.56131 H -16.875" /><circle class="sym" cx="0" cy="0" r="3" /><text class="lab rgt" transform="translate(3 -7.0)">16</text></g><path class="edge" d="M 0 0 V -18.053 H 21.5625" /><circle class="sym" cx="0" cy="0" r="3" /><text class="lab lft" transform="translate(-3 -7.0)">19</text></g><g class="a22 c1 node n12 p0" transform="translate(21.5625 29.4359)"><g class="a12 leaf node n9 p0 sample" transform="translate(0.0 3.38541)"><path class="edge" d="M 0 0 V -3.38541 H 0.0" /><rect class="sym" height="6" width="6" x="-3" y="-3" /><text class="lab" transform="translate(0 11)">9</text></g><path class="edge" d="M 0 0 V -29.4359 H -21.5625" /><circle class="sym" cx="0" cy="0" r="3" /><text class="lab rgt" transform="translate(3 -7.0)">12</text></g><path class="edge" d="M 0 0 V -12.7466 H 18.2812" /><circle class="sym" cx="0" cy="0" r="3" /><text class="lab lft" transform="translate(-3 -7.0)">22</text></g><path class="edge" d="M 0 0 V -42.1039 H -41.4844" /><circle class="sym" cx="0" cy="0" r="3" /><text class="lab rgt" transform="translate(3 -7.0)">24</text></g><g class="a26 c1 node n21 p0" transform="translate(-41.4844 56.0951)"><g class="a21 c2 node n17 p0" transform="translate(0.0 21.0344)"><g class="a17 leaf node n2 p0 sample" transform="translate(11.25 10.5422)"><path class="edge" d="M 0 0 V -10.5422 H -11.25" /><rect class="sym" height="6" width="6" x="-3" y="-3" /><text class="lab" transform="translate(0 11)">2</text></g><g class="a17 c1 node n15 p0" transform="translate(-11.25 4.56231)"><g class="a15 c2 node n10 p0" transform="translate(0.0 3.72775)"><g class="a10 leaf node n0 p0 sample" transform="translate(-7.5 2.25213)"><path class="edge" d="M 0 0 V -2.25213 H 7.5" /><rect class="sym" height="6" width="6" x="-3" y="-3" /><text class="lab" transform="translate(0 11)">0</text></g><g class="a10 leaf node n3 p0 sample" transform="translate(7.5 2.25213)"><path class="edge" d="M 0 0 V -2.25213 H -7.5" /><rect class="sym" height="6" width="6" x="-3" y="-3" /><text class="lab" transform="translate(0 11)">3</text></g><path class="edge" d="M 0 0 V -3.72775 H 0.0" /><circle class="sym" cx="0" cy="0" r="3" /><text class="lab lft" transform="translate(-3 -7.0)">10</text></g><path class="edge" d="M 0 0 V -4.56231 H 11.25" /><circle class="sym" cx="0" cy="0" r="3" /><text class="lab lft" transform="translate(-3 -7.0)">15</text></g><path class="edge" d="M 0 0 V -21.0344 H 0.0" /><circle class="sym" cx="0" cy="0" r="3" /><text class="lab lft" transform="translate(-3 -7.0)">17</text></g><path class="edge" d="M 0 0 V -56.0951 H 41.4844" /><circle class="sym" cx="0" cy="0" r="3" /><text class="lab lft" transform="translate(-3 -7.0)">21</text></g><path class="edge" d="M 0 0 V -6.92827 H 37.3828" /><circle class="sym" cx="0" cy="0" r="3" /><text class="lab lft" transform="translate(-3 -7.0)">26</text></g><circle class="sym" cx="0" cy="0" r="3" /><text class="lab" transform="translate(0 -11)">27</text></g></g></g></g></g></svg>
