<svg baseProfile="full" height="200" version="1.1" width="1200" xmlns="http://www.w3.org/2000/svg" xmlns:ev="http://www.w3.org/2001/xml-events" xmlns:xlink="http://www.w3.org/1999/xlink"><defs><style type="text/css"><![CDATA[.background path {fill: #808080; fill-opacity: 0}.background path:nth-child(odd) {fill-opacity: .1}.axes {font-size: 14px}.x-axis .tick .lab {font-weight: bold; dominant-baseline: hanging}.axes, .tree {font-size: 14px; text-anchor: middle}.axes line, .edge {stroke: black; fill: none}.y-axis .grid {stroke: #FAFAFA}.node > .sym {fill: black; stroke: none}.site > .sym {stroke: black}.mut text {fill: red; font-style: italic}.mut.extra text {fill: hotpink}.mut line {fill: none; stroke: none}.mut .sym {fill: none; stroke: red}.mut.extra .sym {stroke: hotpink}.node .mut .sym {stroke-width: 1.5px}.tree text, .tree-sequence text {dominant-baseline: central}.plotbox .lab.lft {text-anchor: end}.plotbox .lab.rgt {text-anchor: start}]]></style></defs><g class="tree-sequence"><g class="background"><path d="M20,0 l193.333,0 l0,138.2 l-73.4495,25 l0,5 l-119.884,0 l0,-5 l0,-25 l0,-138.2z" /><path d="M213.333,0 l193.333,0 l0,138.2 l-7.84783,25 l0,5 l-258.935,0 l0,-5 l73.4495,-25 l0,-138.2z" /><path d="M406.667,0 l193.333,0 l0,138.2 l86.6853,25 l0,5 l-287.867,0 l0,-5 l7.84783,-25 l0,-138.2z" /><path d="M600,0 l193.333,0 l0,138.2 l181.01,25 l0,5 l-287.658,0 l0,-5 l-86.6853,-25 l0,-138.2z" /><path d="M793.333,0 l193.333,0 l0,138.2 l99.5935,25 l0,5 l-111.916,0 l0,-5 l-181.01,-25 l0,-138.2z" /><path d="M986.667,0 l193.333,0 l0,138.2 l0,25 l0,5 l-93.7398,0 l0,-5 l-99.5935,-25 l0,-138.2z" /></g><g class="axes"><g class="x-axis"><g transform="translate(600 200)"><text class="lab" text-anchor="middle" transform="translate(0 -11)">Genome position</text></g><line x1="20" x2="1180" y1="163.2" y2="163.2" /><g class="ticks"><g class="tick" transform="translate(20 163.2)"><line x1="0" x2="0" y1="0" y2="5" /><g transform="translate(0 6)"><text class="lab">0.00</text></g></g><g class="tick" transform="translate(139.884 163.2)"><line x1="0" x2="0" y1="0" y2="5" /><g transform="translate(0 6)"><text class="lab">103.35</text></g></g><g class="tick" transform="translate(398.819 163.2)"><line x1="0" x2="0" y1="0" y2="5" /><g transform="translate(0 6)"><text class="lab">326.57</text></g></g><g class="tick" transform="translate(686.685 163.2)"><line x1="0" x2="0" y1="0" y2="5" /><g transform="translate(0 6)"><text class="lab">574.73</text></g></g><g class="tick" transform="translate(974.344 163.2)"><line x1="0" x2="0" y1="0" y2="5" /><g transform="translate(0 6)"><text class="lab">822.71</text></g></g><g class="tick" transform="translate(1086.26 163.2)"><line x1="0" x2="0" y1="0" y2="5" /><g transform="translate(0 6)"><text class="lab">919.19</text></g></g><g class="tick" transform="translate(1180 163.2)"><line x1="0" x2="0" y1="0" y2="5" /><g transform="translate(0 6)"><text class="lab">1000.00</text></g></g></g></g></g><g class="plotbox trees"><g class="tree t0" transform="translate(20 0)"><g class="plotbox"><g class="c2 node n33 p0 root" transform="translate(146.26 26.8)"><g class="a33 c1 node n26 p0" transform="translate(19.4062 59.9925)"><g class="a26 leaf node n9 p0 sample" transform="translate(0.0 34.6075)"><path class="edge" d="M 0 0 V -34.6075 H 0.0" /><rect class="sym" height="6" width="6" x="-3" y="-3" /><text class="lab" transform="translate(0 11)">9</text></g><path class="edge" d="M 0 0 V -59.9925 H -19.4062" /><circle class="sym" cx="0" cy="0" r="3" /><text class="lab rgt" transform="translate(3 -7.0)">26</text></g><g class="a33 c2 node n32 p0" transform="translate(-19.4063 20.3534)"><g class="a32 c1 node n29 p0" transform="translate(-23.4792 17.9276)"><g class="a29 c2 node n28 p0" transform="translate(0.0 4.7299)"><g class="a28 c1 node n21 p0" transform="translate(31.625 24.1466)"><g class="a21 leaf node n3 p0 sample" transform="translate(0.0 27.4425)"><path class="edge" d="M 0 0 V -27.4425 H 0.0" /><rect class="sym" height="6" width="6" x="-3" y="-3" /><text class="lab" transform="translate(0 11)">3</text></g><path class="edge" d="M 0 0 V -24.1466 H -31.625" /><circle class="sym" cx="0" cy="0" r="3" /><text class="lab rgt" transform="translate(3 -7.0)">21</text></g><g class="a28 c1 node n24 p0" transform="translate(-31.625 18.2939)"><g class="a24 c2 node n20 p0" transform="translate(0.0 6.80727)"><g class="a20 c2 node n18 p0" transform="translate(24.9167 13.123)"><g class="a18 c1 node n14 p0" transform="translate(-15.3333 5.28026)"><g class="a14 c2 node n12 p0" transform="translate(0.0 4.76753)"><g class="a12 leaf node n1 p0 sample" transform="translate(-7.66667 3.31715)"><path class="edge" d="M 0 0 V -3.31715 H 7.66667" /><rect class="sym" height="6" width="6" x="-3" y="-3" /><text class="lab" transform="translate(0 11)">1</text></g><g class="a12 leaf node n5 p0 sample" transform="translate(7.66667 3.31715)"><path class="edge" d="M 0 0 V -3.31715 H -7.66667" /><rect class="sym" height="6" width="6" x="-3" y="-3" /><text class="lab" transform="translate(0 11)">5</text></g><path class="edge" d="M 0 0 V -4.76753 H 0.0" /><circle class="sym" cx="0" cy="0" r="3" /><text class="lab lft" transform="translate(-3 -7.0)">12</text></g><path class="edge" d="M 0 0 V -5.28026 H 15.3333" /><circle class="sym" cx="0" cy="0" r="3" /><text class="lab lft" transform="translate(-3 -7.0)">14</text></g><g class="a18 c2 node n16 p0" transform="translate(15.3333 4.20262)"><g class="a16 leaf node n4 p0 sample" transform="translate(-7.66667 9.16231)"><path class="edge" d="M 0 0 V -9.16231 H 7.66667" /><rect class="sym" height="6" width="6" x="-3" y="-3" /><text class="lab" transform="translate(0 11)">4</text></g><g class="a16 leaf node n6 p0 sample" transform="translate(7.66667 9.16231)"><path class="edge" d="M 0 0 V -9.16231 H -7.66667" /><rect class="sym" height="6" width="6" x="-3" y="-3" /><text class="lab" transform="translate(0 11)">6</text></g><path class="edge" d="M 0 0 V -4.20262 H -15.3333" /><circle class="sym" cx="0" cy="0" r="3" /><text class="lab rgt" transform="translate(3 -7.0)">16</text></g><path class="edge" d="M 0 0 V -13.123 H -24.9167" /><circle class="sym" cx="0" cy="0" r="3" /><text class="lab rgt" transform="translate(3 -7.0)">18</text></g><g class="a20 c2 node n19 p0" transform="translate(-24.9167 4.55988)"><g class="a19 leaf node n7 p0 sample" transform="translate(11.5 21.9281)"><path class="edge" d="M 0 0 V -21.9281 H -11.5" /><rect class="sym" height="6" width="6" x="-3" y="-3" /><text class="lab" transform="translate(0 11)">7</text></g><g class="a19 c1 node n17 p0" transform="translate(-11.5 11.7987)"><g class="a17 c2 node n13 p0" transform="translate(0.0 4.25338)"><g class="a13 leaf node n2 p0 sample" transform="translate(7.66667 5.87601)"><path class="edge" d="M 0 0 V -5.87601 H -7.66667" /><rect class="sym" height="6" width="6" x="-3" y="-3" /><text class="lab" transform="translate(0 11)">2</text></g><g class="a13 c1 node n10 p0" transform="translate(-7.66667 5.75601)"><g class="a10 leaf node n0 p0 sample" transform="translate(0.0 0.120003)"><path class="edge" d="M 0 0 V -0.120003 H 0.0" /><rect class="sym" height="6" width="6" x="-3" y="-3" /><text class="lab" transform="translate(0 11)">0</text></g><path class="edge" d="M 0 0 V -5.75601 H 7.66667" /><circle class="sym" cx="0" cy="0" r="3" /><text class="lab lft" transform="translate(-3 -7.0)">10</text></g><path class="edge" d="M 0 0 V -4.25338 H 0.0" /><circle class="sym" cx="0" cy="0" r="3" /><text class="lab lft" transform="translate(-3 -7.0)">13</text></g><path class="edge" d="M 0 0 V -11.7987 H 11.5" /><circle class="sym" cx="0" cy="0" r="3" /><text class="lab lft" transform="translate(-3 -7.0)">17</text></g><path class="edge" d="M 0 0 V -4.55988 H 24.9167" /><circle class="sym" cx="0" cy="0" r="3" /><text class="lab lft" transform="translate(-3 -7.0)">19</text></g><path class="edge" d="M 0 0 V -6.80727 H 0.0" /><circle class="sym" cx="0" cy="0" r="3" /><text class="lab lft" transform="translate(-3 -7.0)">20</text></g><path class="edge" d="M 0 0 V -18.2939 H 31.625" /><circle class="sym" cx="0" cy="0" r="3" /><text class="lab lft" transform="translate(-3 -7.0)">24</text></g><path class="edge" d="M 0 0 V -4.7299 H 0.0" /><circle class="sym" cx="0" cy="0" r="3" /><text class="lab lft" transform="translate(-3 -7.0)">28</text></g><path class="edge" d="M 0 0 V -17.9276 H 23.4792" /><circle class="sym" cx="0" cy="0" r="3" /><text class="lab lft" transform="translate(-3 -7.0)">29</text></g><g class="a32 c1 node n31 p0" transform="translate(23.4792 3.35012)"><g class="a31 c1 node n27 p0" transform="translate(0.0 30.1174)"><g class="a27 c1 node n23 p0" transform="translate(0.0 12.5066)"><g class="a23 leaf node n8 p0 sample" transform="translate(0.0 28.2724)"><path class="edge" d="M 0 0 V -28.2724 H 0.0" /><rect class="sym" height="6" width="6" x="-3" y="-3" /><text class="lab" transform="translate(0 11)">8</text></g><path class="edge" d="M 0 0 V -12.5066 H 0.0" /><circle class="sym" cx="0" cy="0" r="3" /><text class="lab lft" transform="translate(-3 -7.0)">23</text></g><path class="edge" d="M 0 0 V -30.1174 H 0.0" /><circle class="sym" cx="0" cy="0" r="3" /><text class="lab lft" transform="translate(-3 -7.0)">27</text></g><path class="edge" d="M 0 0 V -3.35012 H -23.4792" /><circle class="sym" cx="0" cy="0" r="3" /><text class="lab rgt" transform="translate(3 -7.0)">31</text></g><path class="edge" d="M 0 0 V -20.3534 H 19.4063" /><circle class="sym" cx="0" cy="0" r="3" /><text class="lab lft" transform="translate(-3 -7.0)">32</text></g><circle class="sym" cx="0" cy="0" r="3" /><text class="lab" transform="translate(0 -11)">33</text></g></g></g><g class="tree t1" transform="translate(213.333 0)"><g class="plotbox"><g class="c2 node n33 p0 root" transform="translate(148.656 26.8)"><g class="a33 c1 node n26 p0" transform="translate(17.0104 59.9925)"><g class="a26 leaf node n9 p0 sample" transform="translate(0.0 34.6075)"><path class="edge" d="M 0 0 V -34.6075 H 0.0" /><rect class="sym" height="6" width="6" x="-3" y="-3" /><text class="lab" transform="translate(0 11)">9</text></g><path class="edge" d="M 0 0 V -59.9925 H -17.0104" /><circle class="sym" cx="0" cy="0" r="3" /><text class="lab rgt" transform="translate(3 -7.0)">26</text></g><g class="a33 c2 node n32 p0" transform="translate(-17.0104 20.3534)"><g class="a32 c1 node n29 p0" transform="translate(-18.6875 17.9276)"><g class="a29 c2 node n28 p0" transform="translate(0.0 4.7299)"><g class="a28 c1 node n21 p0" transform="translate(22.0417 24.1466)"><g class="a21 leaf node n3 p0 sample" transform="translate(0.0 27.4425)"><path class="edge" d="M 0 0 V -27.4425 H 0.0" /><rect class="sym" height="6" width="6" x="-3" y="-3" /><text class="lab" transform="translate(0 11)">3</text></g><path class="edge" d="M 0 0 V -24.1466 H -22.0417" /><circle class="sym" cx="0" cy="0" r="3" /><text class="lab rgt" transform="translate(3 -7.0)">21</text></g><g class="a28 c1 node n24 p0" transform="translate(-22.0417 18.2939)"><g class="a24 c2 node n20 p0" transform="translate(0.0 6.80727)"><g class="a20 c1 node n18 p0" transform="translate(21.0833 13.123)"><g class="a18 c2 node n16 p0" transform="translate(0.0 4.20262)"><g class="a16 leaf node n4 p0 sample" transform="translate(-7.66667 9.16231)"><path class="edge" d="M 0 0 V -9.16231 H 7.66667" /><rect class="sym" height="6" width="6" x="-3" y="-3" /><text class="lab" transform="translate(0 11)">4</text></g><g class="a16 leaf node n6 p0 sample" transform="translate(7.66667 9.16231)"><path class="edge" d="M 0 0 V -9.16231 H -7.66667" /><rect class="sym" height="6" width="6" x="-3" y="-3" /><text class="lab" transform="translate(0 11)">6</text></g><path class="edge" d="M 0 0 V -4.20262 H 0.0" /><circle class="sym" cx="0" cy="0" r="3" /><text class="lab lft" transform="translate(-3 -7.0)">16</text></g><path class="edge" d="M 0 0 V -13.123 H -21.0833" /><circle class="sym" cx="0" cy="0" r="3" /><text class="lab rgt" transform="translate(3 -7.0)">18</text></g><g class="a20 c2 node n19 p0" transform="translate(-21.0833 4.55988)"><g class="a19 leaf node n7 p0 sample" transform="translate(19.1667 21.9281)"><path class="edge" d="M 0 0 V -21.9281 H -19.1667" /><rect class="sym" height="6" width="6" x="-3" y="-3" /><text class="lab" transform="translate(0 11)">7</text></g><g class="a19 c2 node n17 p0" transform="translate(-19.1667 11.7987)"><g class="a17 c2 node n13 p0" transform="translate(-15.3333 4.25338)"><g class="a13 leaf node n2 p0 sample" transform="translate(7.66667 5.87601)"><path class="edge" d="M 0 0 V -5.87601 H -7.66667" /><rect class="sym" height="6" width="6" x="-3" y="-3" /><text class="lab" transform="translate(0 11)">2</text></g><g class="a13 c1 node n10 p0" transform="translate(-7.66667 5.75601)"><g class="a10 leaf node n0 p0 sample" transform="translate(0.0 0.120003)"><path class="edge" d="M 0 0 V -0.120003 H 0.0" /><rect class="sym" height="6" width="6" x="-3" y="-3" /><text class="lab" transform="translate(0 11)">0</text></g><path class="edge" d="M 0 0 V -5.75601 H 7.66667" /><circle class="sym" cx="0" cy="0" r="3" /><text class="lab lft" transform="translate(-3 -7.0)">10</text></g><path class="edge" d="M 0 0 V -4.25338 H 15.3333" /><circle class="sym" cx="0" cy="0" r="3" /><text class="lab lft" transform="translate(-3 -7.0)">13</text></g><g class="a17 c1 node n15 p0" transform="translate(15.3333 2.04471)"><g class="a15 c2 node n12 p0" transform="translate(0.0 4.76753)"><g class="a12 leaf node n1 p0 sample" transform="translate(-7.66667 3.31715)"><path class="edge" d="M 0 0 V -3.31715 H 7.66667" /><rect class="sym" height="6" width="6" x="-3" y="-3" /><text class="lab" transform="translate(0 11)">1</text></g><g class="a12 leaf node n5 p0 sample" transform="translate(7.66667 3.31715)"><path class="edge" d="M 0 0 V -3.31715 H -7.66667" /><rect class="sym" height="6" width="6" x="-3" y="-3" /><text class="lab" transform="translate(0 11)">5</text></g><path class="edge" d="M 0 0 V -4.76753 H 0.0" /><circle class="sym" cx="0" cy="0" r="3" /><text class="lab lft" transform="translate(-3 -7.0)">12</text></g><path class="edge" d="M 0 0 V -2.04471 H -15.3333" /><circle class="sym" cx="0" cy="0" r="3" /><text class="lab rgt" transform="translate(3 -7.0)">15</text></g><path class="edge" d="M 0 0 V -11.7987 H 19.1667" /><circle class="sym" cx="0" cy="0" r="3" /><text class="lab lft" transform="translate(-3 -7.0)">17</text></g><path class="edge" d="M 0 0 V -4.55988 H 21.0833" /><circle class="sym" cx="0" cy="0" r="3" /><text class="lab lft" transform="translate(-3 -7.0)">19</text></g><path class="edge" d="M 0 0 V -6.80727 H 0.0" /><circle class="sym" cx="0" cy="0" r="3" /><text class="lab lft" transform="translate(-3 -7.0)">20</text></g><path class="edge" d="M 0 0 V -18.2939 H 22.0417" /><circle class="sym" cx="0" cy="0" r="3" /><text class="lab lft" transform="translate(-3 -7.0)">24</text></g><path class="edge" d="M 0 0 V -4.7299 H 0.0" /><circle class="sym" cx="0" cy="0" r="3" /><text class="lab lft" transform="translate(-3 -7.0)">28</text></g><path class="edge" d="M 0 0 V -17.9276 H 18.6875" /><circle class="sym" cx="0" cy="0" r="3" /><text class="lab lft" transform="translate(-3 -7.0)">29</text></g><g class="a32 c1 node n31 p0" transform="translate(18.6875 3.35012)"><g class="a31 c1 node n27 p0" transform="translate(0.0 30.1174)"><g class="a27 c1 node n23 p0" transform="translate(0.0 12.5066)"><g class="a23 leaf node n8 p0 sample" transform="translate(0.0 28.2724)"><path class="edge" d="M 0 0 V -28.2724 H 0.0" /><rect class="sym" height="6" width="6" x="-3" y="-3" /><text class="lab" transform="translate(0 11)">8</text></g><path class="edge" d="M 0 0 V -12.5066 H 0.0" /><circle class="sym" cx="0" cy="0" r="3" /><text class="lab lft" transform="translate(-3 -7.0)">23</text></g><path class="edge" d="M 0 0 V -30.1174 H 0.0" /><circle class="sym" cx="0" cy="0" r="3" /><text class="lab lft" transform="translate(-3 -7.0)">27</text></g><path class="edge" d="M 0 0 V -3.35012 H -18.6875" /><circle class="sym" cx="0" cy="0" r="3" /><text class="lab rgt" transform="translate(3 -7.0)">31</text></g><path class="edge" d="M 0 0 V -20.3534 H 17.0104" /><circle class="sym" cx="0" cy="0" r="3" /><text class="lab lft" transform="translate(-3 -7.0)">32</text></g><circle class="sym" cx="0" cy="0" r="3" /><text class="lab" transform="translate(0 -11)">33</text></g></g></g><g class="tree t2" transform="translate(406.667 0)"><g class="plotbox"><g class="c2 node n33 p0 root" transform="translate(148.656 26.8)"><g class="a33 c1 node n26 p0" transform="translate(17.0104 59.9925)"><g class="a26 leaf node n9 p0 sample" transform="translate(0.0 34.6075)"><path class="edge" d="M 0 0 V -34.6075 H 0.0" /><rect class="sym" height="6" width="6" x="-3" y="-3" /><text class="lab" transform="translate(0 11)">9</text></g><path class="edge" d="M 0 0 V -59.9925 H -17.0104" /><circle class="sym" cx="0" cy="0" r="3" /><text class="lab rgt" transform="translate(3 -7.0)">26</text></g><g class="a33 c1 node n32 p0" transform="translate(-17.0104 20.3534)"><g class="a32 c2 node n31 p0" transform="translate(0.0 3.35012)"><g class="a31 c1 node n27 p0" transform="translate(18.6875 30.1174)"><g class="a27 c1 node n23 p0" transform="translate(0.0 12.5066)"><g class="a23 leaf node n8 p0 sample" transform="translate(0.0 28.2724)"><path class="edge" d="M 0 0 V -28.2724 H 0.0" /><rect class="sym" height="6" width="6" x="-3" y="-3" /><text class="lab" transform="translate(0 11)">8</text></g><path class="edge" d="M 0 0 V -12.5066 H 0.0" /><circle class="sym" cx="0" cy="0" r="3" /><text class="lab lft" transform="translate(-3 -7.0)">23</text></g><path class="edge" d="M 0 0 V -30.1174 H -18.6875" /><circle class="sym" cx="0" cy="0" r="3" /><text class="lab rgt" transform="translate(3 -7.0)">27</text></g><g class="a31 c1 node n30 p0" transform="translate(-18.6875 14.5775)"><g class="a30 c2 node n28 p0" transform="translate(0.0 4.7299)"><g class="a28 c1 node n21 p0" transform="translate(22.0417 24.1466)"><g class="a21 leaf node n3 p0 sample" transform="translate(0.0 27.4425)"><path class="edge" d="M 0 0 V -27.4425 H 0.0" /><rect class="sym" height="6" width="6" x="-3" y="-3" /><text class="lab" transform="translate(0 11)">3</text></g><path class="edge" d="M 0 0 V -24.1466 H -22.0417" /><circle class="sym" cx="0" cy="0" r="3" /><text class="lab rgt" transform="translate(3 -7.0)">21</text></g><g class="a28 c1 node n24 p0" transform="translate(-22.0417 18.2939)"><g class="a24 c2 node n20 p0" transform="translate(0.0 6.80727)"><g class="a20 c1 node n18 p0" transform="translate(21.0833 13.123)"><g class="a18 c2 node n16 p0" transform="translate(0.0 4.20262)"><g class="a16 leaf node n4 p0 sample" transform="translate(-7.66667 9.16231)"><path class="edge" d="M 0 0 V -9.16231 H 7.66667" /><rect class="sym" height="6" width="6" x="-3" y="-3" /><text class="lab" transform="translate(0 11)">4</text></g><g class="a16 leaf node n6 p0 sample" transform="translate(7.66667 9.16231)"><path class="edge" d="M 0 0 V -9.16231 H -7.66667" /><rect class="sym" height="6" width="6" x="-3" y="-3" /><text class="lab" transform="translate(0 11)">6</text></g><path class="edge" d="M 0 0 V -4.20262 H 0.0" /><circle class="sym" cx="0" cy="0" r="3" /><text class="lab lft" transform="translate(-3 -7.0)">16</text></g><path class="edge" d="M 0 0 V -13.123 H -21.0833" /><circle class="sym" cx="0" cy="0" r="3" /><text class="lab rgt" transform="translate(3 -7.0)">18</text></g><g class="a20 c2 node n19 p0" transform="translate(-21.0833 4.55988)"><g class="a19 leaf node n7 p0 sample" transform="translate(19.1667 21.9281)"><path class="edge" d="M 0 0 V -21.9281 H -19.1667" /><rect class="sym" height="6" width="6" x="-3" y="-3" /><text class="lab" transform="translate(0 11)">7</text></g><g class="a19 c2 node n17 p0" transform="translate(-19.1667 11.7987)"><g class="a17 c2 node n13 p0" transform="translate(-15.3333 4.25338)"><g class="a13 leaf node n2 p0 sample" transform="translate(7.66667 5.87601)"><path class="edge" d="M 0 0 V -5.87601 H -7.66667" /><rect class="sym" height="6" width="6" x="-3" y="-3" /><text class="lab" transform="translate(0 11)">2</text></g><g class="a13 c1 node n10 p0" transform="translate(-7.66667 5.75601)"><g class="a10 leaf node n0 p0 sample" transform="translate(0.0 0.120003)"><path class="edge" d="M 0 0 V -0.120003 H 0.0" /><rect class="sym" height="6" width="6" x="-3" y="-3" /><text class="lab" transform="translate(0 11)">0</text></g><path class="edge" d="M 0 0 V -5.75601 H 7.66667" /><circle class="sym" cx="0" cy="0" r="3" /><text class="lab lft" transform="translate(-3 -7.0)">10</text></g><path class="edge" d="M 0 0 V -4.25338 H 15.3333" /><circle class="sym" cx="0" cy="0" r="3" /><text class="lab lft" transform="translate(-3 -7.0)">13</text></g><g class="a17 c1 node n15 p0" transform="translate(15.3333 2.04471)"><g class="a15 c2 node n12 p0" transform="translate(0.0 4.76753)"><g class="a12 leaf node n1 p0 sample" transform="translate(-7.66667 3.31715)"><path class="edge" d="M 0 0 V -3.31715 H 7.66667" /><rect class="sym" height="6" width="6" x="-3" y="-3" /><text class="lab" transform="translate(0 11)">1</text></g><g class="a12 leaf node n5 p0 sample" transform="translate(7.66667 3.31715)"><path class="edge" d="M 0 0 V -3.31715 H -7.66667" /><rect class="sym" height="6" width="6" x="-3" y="-3" /><text class="lab" transform="translate(0 11)">5</text></g><path class="edge" d="M 0 0 V -4.76753 H 0.0" /><circle class="sym" cx="0" cy="0" r="3" /><text class="lab lft" transform="translate(-3 -7.0)">12</text></g><path class="edge" d="M 0 0 V -2.04471 H -15.3333" /><circle class="sym" cx="0" cy="0" r="3" /><text class="lab rgt" transform="translate(3 -7.0)">15</text></g><path class="edge" d="M 0 0 V -11.7987 H 19.1667" /><circle class="sym" cx="0" cy="0" r="3" /><text class="lab lft" transform="translate(-3 -7.0)">17</text></g><path class="edge" d="M 0 0 V -4.55988 H 21.0833" /><circle class="sym" cx="0" cy="0" r="3" /><text class="lab lft" transform="translate(-3 -7.0)">19</text></g><path class="edge" d="M 0 0 V -6.80727 H 0.0" /><circle class="sym" cx="0" cy="0" r="3" /><text class="lab lft" transform="translate(-3 -7.0)">20</text></g><path class="edge" d="M 0 0 V -18.2939 H 22.0417" /><circle class="sym" cx="0" cy="0" r="3" /><text class="lab lft" transform="translate(-3 -7.0)">24</text></g><path class="edge" d="M 0 0 V -4.7299 H 0.0" /><circle class="sym" cx="0" cy="0" r="3" /><text class="lab lft" transform="translate(-3 -7.0)">28</text></g><path class="edge" d="M 0 0 V -14.5775 H 18.6875" /><circle class="sym" cx="0" cy="0" r="3" /><text class="lab lft" transform="translate(-3 -7.0)">30</text></g><path class="edge" d="M 0 0 V -3.35012 H 0.0" /><circle class="sym" cx="0" cy="0" r="3" /><text class="lab lft" transform="translate(-3 -7.0)">31</text></g><path class="edge" d="M 0 0 V -20.3534 H 17.0104" /><circle class="sym" cx="0" cy="0" r="3" /><text class="lab lft" transform="translate(-3 -7.0)">32</text></g><circle class="sym" cx="0" cy="0" r="3" /><text class="lab" transform="translate(0 -11)">33</text></g></g></g><g class="tree t3" transform="translate(600 0)"><g class="plotbox"><g class="c2 node n33 p0 root" transform="translate(141.229 26.8)"><g class="a33 c1 node n26 p0" transform="translate(24.4375 59.9925)"><g class="a26 leaf node n9 p0 sample" transform="translate(0.0 34.6075)"><path class="edge" d="M 0 0 V -34.6075 H 0.0" /><rect class="sym" height="6" width="6" x="-3" y="-3" /><text class="lab" transform="translate(0 11)">9</text></g><path class="edge" d="M 0 0 V -59.9925 H -24.4375" /><circle class="sym" cx="0" cy="0" r="3" /><text class="lab rgt" transform="translate(3 -7.0)">26</text></g><g class="a33 c1 node n32 p0" transform="translate(-24.4375 20.3534)"><g class="a32 c2 node n31 p0" transform="translate(0.0 3.35012)"><g class="a31 c1 node n27 p0" transform="translate(25.875 30.1174)"><g class="a27 c2 node n23 p0" transform="translate(0.0 12.5066)"><g class="a23 leaf node n8 p0 sample" transform="translate(7.66667 28.2724)"><path class="edge" d="M 0 0 V -28.2724 H -7.66667" /><rect class="sym" height="6" width="6" x="-3" y="-3" /><text class="lab" transform="translate(0 11)">8</text></g><g class="a23 c1 node n22 p0" transform="translate(-7.66667 0.829941)"><g class="a22 leaf node n3 p0 sample" transform="translate(0.0 27.4425)"><path class="edge" d="M 0 0 V -27.4425 H 0.0" /><rect class="sym" height="6" width="6" x="-3" y="-3" /><text class="lab" transform="translate(0 11)">3</text></g><path class="edge" d="M 0 0 V -0.829941 H 7.66667" /><circle class="sym" cx="0" cy="0" r="3" /><text class="lab lft" transform="translate(-3 -7.0)">22</text></g><path class="edge" d="M 0 0 V -12.5066 H 0.0" /><circle class="sym" cx="0" cy="0" r="3" /><text class="lab lft" transform="translate(-3 -7.0)">23</text></g><path class="edge" d="M 0 0 V -30.1174 H -25.875" /><circle class="sym" cx="0" cy="0" r="3" /><text class="lab rgt" transform="translate(3 -7.0)">27</text></g><g class="a31 c1 node n30 p0" transform="translate(-25.875 14.5775)"><g class="a30 c1 node n28 p0" transform="translate(0.0 4.7299)"><g class="a28 c1 node n24 p0" transform="translate(0.0 18.2939)"><g class="a24 c2 node n20 p0" transform="translate(0.0 6.80727)"><g class="a20 c1 node n18 p0" transform="translate(21.0833 13.123)"><g class="a18 c2 node n16 p0" transform="translate(0.0 4.20262)"><g class="a16 leaf node n4 p0 sample" transform="translate(-7.66667 9.16231)"><path class="edge" d="M 0 0 V -9.16231 H 7.66667" /><rect class="sym" height="6" width="6" x="-3" y="-3" /><text class="lab" transform="translate(0 11)">4</text></g><g class="a16 leaf node n6 p0 sample" transform="translate(7.66667 9.16231)"><path class="edge" d="M 0 0 V -9.16231 H -7.66667" /><rect class="sym" height="6" width="6" x="-3" y="-3" /><text class="lab" transform="translate(0 11)">6</text></g><path class="edge" d="M 0 0 V -4.20262 H 0.0" /><circle class="sym" cx="0" cy="0" r="3" /><text class="lab lft" transform="translate(-3 -7.0)">16</text></g><path class="edge" d="M 0 0 V -13.123 H -21.0833" /><circle class="sym" cx="0" cy="0" r="3" /><text class="lab rgt" transform="translate(3 -7.0)">18</text></g><g class="a20 c2 node n19 p0" transform="translate(-21.0833 4.55988)"><g class="a19 leaf node n7 p0 sample" transform="translate(19.1667 21.9281)"><path class="edge" d="M 0 0 V -21.9281 H -19.1667" /><rect class="sym" height="6" width="6" x="-3" y="-3" /><text class="lab" transform="translate(0 11)">7</text></g><g class="a19 c2 node n17 p0" transform="translate(-19.1667 11.7987)"><g class="a17 c2 node n13 p0" transform="translate(-15.3333 4.25338)"><g class="a13 leaf node n2 p0 sample" transform="translate(7.66667 5.87601)"><path class="edge" d="M 0 0 V -5.87601 H -7.66667" /><rect class="sym" height="6" width="6" x="-3" y="-3" /><text class="lab" transform="translate(0 11)">2</text></g><g class="a13 c1 node n10 p0" transform="translate(-7.66667 5.75601)"><g class="a10 leaf node n0 p0 sample" transform="translate(0.0 0.120003)"><path class="edge" d="M 0 0 V -0.120003 H 0.0" /><rect class="sym" height="6" width="6" x="-3" y="-3" /><text class="lab" transform="translate(0 11)">0</text></g><path class="edge" d="M 0 0 V -5.75601 H 7.66667" /><circle class="sym" cx="0" cy="0" r="3" /><text class="lab lft" transform="translate(-3 -7.0)">10</text></g><path class="edge" d="M 0 0 V -4.25338 H 15.3333" /><circle class="sym" cx="0" cy="0" r="3" /><text class="lab lft" transform="translate(-3 -7.0)">13</text></g><g class="a17 c1 node n15 p0" transform="translate(15.3333 2.04471)"><g class="a15 c2 node n12 p0" transform="translate(0.0 4.76753)"><g class="a12 leaf node n1 p0 sample" transform="translate(-7.66667 3.31715)"><path class="edge" d="M 0 0 V -3.31715 H 7.66667" /><rect class="sym" height="6" width="6" x="-3" y="-3" /><text class="lab" transform="translate(0 11)">1</text></g><g class="a12 leaf node n5 p0 sample" transform="translate(7.66667 3.31715)"><path class="edge" d="M 0 0 V -3.31715 H -7.66667" /><rect class="sym" height="6" width="6" x="-3" y="-3" /><text class="lab" transform="translate(0 11)">5</text></g><path class="edge" d="M 0 0 V -4.76753 H 0.0" /><circle class="sym" cx="0" cy="0" r="3" /><text class="lab lft" transform="translate(-3 -7.0)">12</text></g><path class="edge" d="M 0 0 V -2.04471 H -15.3333" /><circle class="sym" cx="0" cy="0" r="3" /><text class="lab rgt" transform="translate(3 -7.0)">15</text></g><path class="edge" d="M 0 0 V -11.7987 H 19.1667" /><circle class="sym" cx="0" cy="0" r="3" /><text class="lab lft" transform="translate(-3 -7.0)">17</text></g><path class="edge" d="M 0 0 V -4.55988 H 21.0833" /><circle class="sym" cx="0" cy="0" r="3" /><text class="lab lft" transform="translate(-3 -7.0)">19</text></g><path class="edge" d="M 0 0 V -6.80727 H 0.0" /><circle class="sym" cx="0" cy="0" r="3" /><text class="lab lft" transform="translate(-3 -7.0)">20</text></g><path class="edge" d="M 0 0 V -18.2939 H 0.0" /><circle class="sym" cx="0" cy="0" r="3" /><text class="lab lft" transform="translate(-3 -7.0)">24</text></g><path class="edge" d="M 0 0 V -4.7299 H 0.0" /><circle class="sym" cx="0" cy="0" r="3" /><text class="lab lft" transform="translate(-3 -7.0)">28</text></g><path class="edge" d="M 0 0 V -14.5775 H 25.875" /><circle class="sym" cx="0" cy="0" r="3" /><text class="lab lft" transform="translate(-3 -7.0)">30</text></g><path class="edge" d="M 0 0 V -3.35012 H 0.0" /><circle class="sym" cx="0" cy="0" r="3" /><text class="lab lft" transform="translate(-3 -7.0)">31</text></g><path class="edge" d="M 0 0 V -20.3534 H 24.4375" /><circle class="sym" cx="0" cy="0" r="3" /><text class="lab lft" transform="translate(-3 -7.0)">32</text></g><circle class="sym" cx="0" cy="0" r="3" /><text class="lab" transform="translate(0 -11)">33</text></g></g></g><g class="tree t4" transform="translate(793.333 0)"><g class="plotbox"><g class="c2 node n33 p0 root" transform="translate(84.4479 26.8)"><g class="a33 c2 node n26 p0" transform="translate(-49.1146 59.9925)"><g class="a26 leaf node n9 p0 sample" transform="translate(7.66667 34.6075)"><path class="edge" d="M 0 0 V -34.6075 H -7.66667" /><rect class="sym" height="6" width="6" x="-3" y="-3" /><text class="lab" transform="translate(0 11)">9</text></g><g class="a26 c1 node n11 p0" transform="translate(-7.66667 34.4875)"><g class="a11 leaf node n0 p0 sample" transform="translate(0.0 0.120003)"><path class="edge" d="M 0 0 V -0.120003 H 0.0" /><rect class="sym" height="6" width="6" x="-3" y="-3" /><text class="lab" transform="translate(0 11)">0</text></g><path class="edge" d="M 0 0 V -34.4875 H 7.66667" /><circle class="sym" cx="0" cy="0" r="3" /><text class="lab lft" transform="translate(-3 -7.0)">11</text></g><path class="edge" d="M 0 0 V -59.9925 H 49.1146" /><circle class="sym" cx="0" cy="0" r="3" /><text class="lab lft" transform="translate(-3 -7.0)">26</text></g><g class="a33 c1 node n32 p0" transform="translate(49.1146 20.3534)"><g class="a32 c2 node n31 p0" transform="translate(0.0 3.35012)"><g class="a31 c1 node n27 p0" transform="translate(24.4375 30.1174)"><g class="a27 c2 node n23 p0" transform="translate(0.0 12.5066)"><g class="a23 leaf node n8 p0 sample" transform="translate(7.66667 28.2724)"><path class="edge" d="M 0 0 V -28.2724 H -7.66667" /><rect class="sym" height="6" width="6" x="-3" y="-3" /><text class="lab" transform="translate(0 11)">8</text></g><g class="a23 c1 node n22 p0" transform="translate(-7.66667 0.829941)"><g class="a22 leaf node n3 p0 sample" transform="translate(0.0 27.4425)"><path class="edge" d="M 0 0 V -27.4425 H 0.0" /><rect class="sym" height="6" width="6" x="-3" y="-3" /><text class="lab" transform="translate(0 11)">3</text></g><path class="edge" d="M 0 0 V -0.829941 H 7.66667" /><circle class="sym" cx="0" cy="0" r="3" /><text class="lab lft" transform="translate(-3 -7.0)">22</text></g><path class="edge" d="M 0 0 V -12.5066 H 0.0" /><circle class="sym" cx="0" cy="0" r="3" /><text class="lab lft" transform="translate(-3 -7.0)">23</text></g><path class="edge" d="M 0 0 V -30.1174 H -24.4375" /><circle class="sym" cx="0" cy="0" r="3" /><text class="lab rgt" transform="translate(3 -7.0)">27</text></g><g class="a31 c1 node n30 p0" transform="translate(-24.4375 14.5775)"><g class="a30 c1 node n28 p0" transform="translate(0.0 4.7299)"><g class="a28 c1 node n24 p0" transform="translate(0.0 18.2939)"><g class="a24 c2 node n20 p0" transform="translate(0.0 6.80727)"><g class="a20 c1 node n18 p0" transform="translate(18.2083 13.123)"><g class="a18 c2 node n16 p0" transform="translate(0.0 4.20262)"><g class="a16 leaf node n4 p0 sample" transform="translate(-7.66667 9.16231)"><path class="edge" d="M 0 0 V -9.16231 H 7.66667" /><rect class="sym" height="6" width="6" x="-3" y="-3" /><text class="lab" transform="translate(0 11)">4</text></g><g class="a16 leaf node n6 p0 sample" transform="translate(7.66667 9.16231)"><path class="edge" d="M 0 0 V -9.16231 H -7.66667" /><rect class="sym" height="6" width="6" x="-3" y="-3" /><text class="lab" transform="translate(0 11)">6</text></g><path class="edge" d="M 0 0 V -4.20262 H 0.0" /><circle class="sym" cx="0" cy="0" r="3" /><text class="lab lft" transform="translate(-3 -7.0)">16</text></g><path class="edge" d="M 0 0 V -13.123 H -18.2083" /><circle class="sym" cx="0" cy="0" r="3" /><text class="lab rgt" transform="translate(3 -7.0)">18</text></g><g class="a20 c2 node n19 p0" transform="translate(-18.2083 4.55988)"><g class="a19 leaf node n7 p0 sample" transform="translate(13.4167 21.9281)"><path class="edge" d="M 0 0 V -21.9281 H -13.4167" /><rect class="sym" height="6" width="6" x="-3" y="-3" /><text class="lab" transform="translate(0 11)">7</text></g><g class="a19 c2 node n17 p0" transform="translate(-13.4167 11.7987)"><g class="a17 c1 node n13 p0" transform="translate(11.5 4.25338)"><g class="a13 leaf node n2 p0 sample" transform="translate(0.0 5.87601)"><path class="edge" d="M 0 0 V -5.87601 H 0.0" /><rect class="sym" height="6" width="6" x="-3" y="-3" /><text class="lab" transform="translate(0 11)">2</text></g><path class="edge" d="M 0 0 V -4.25338 H -11.5" /><circle class="sym" cx="0" cy="0" r="3" /><text class="lab rgt" transform="translate(3 -7.0)">13</text></g><g class="a17 c1 node n15 p0" transform="translate(-11.5 2.04471)"><g class="a15 c2 node n12 p0" transform="translate(0.0 4.76753)"><g class="a12 leaf node n1 p0 sample" transform="translate(-7.66667 3.31715)"><path class="edge" d="M 0 0 V -3.31715 H 7.66667" /><rect class="sym" height="6" width="6" x="-3" y="-3" /><text class="lab" transform="translate(0 11)">1</text></g><g class="a12 leaf node n5 p0 sample" transform="translate(7.66667 3.31715)"><path class="edge" d="M 0 0 V -3.31715 H -7.66667" /><rect class="sym" height="6" width="6" x="-3" y="-3" /><text class="lab" transform="translate(0 11)">5</text></g><path class="edge" d="M 0 0 V -4.76753 H 0.0" /><circle class="sym" cx="0" cy="0" r="3" /><text class="lab lft" transform="translate(-3 -7.0)">12</text></g><path class="edge" d="M 0 0 V -2.04471 H 11.5" /><circle class="sym" cx="0" cy="0" r="3" /><text class="lab lft" transform="translate(-3 -7.0)">15</text></g><path class="edge" d="M 0 0 V -11.7987 H 13.4167" /><circle class="sym" cx="0" cy="0" r="3" /><text class="lab lft" transform="translate(-3 -7.0)">17</text></g><path class="edge" d="M 0 0 V -4.55988 H 18.2083" /><circle class="sym" cx="0" cy="0" r="3" /><text class="lab lft" transform="translate(-3 -7.0)">19</text></g><path class="edge" d="M 0 0 V -6.80727 H 0.0" /><circle class="sym" cx="0" cy="0" r="3" /><text class="lab lft" transform="translate(-3 -7.0)">20</text></g><path class="edge" d="M 0 0 V -18.2939 H 0.0" /><circle class="sym" cx="0" cy="0" r="3" /><text class="lab lft" transform="translate(-3 -7.0)">24</text></g><path class="edge" d="M 0 0 V -4.7299 H 0.0" /><circle class="sym" cx="0" cy="0" r="3" /><text class="lab lft" transform="translate(-3 -7.0)">28</text></g><path class="edge" d="M 0 0 V -14.5775 H 24.4375" /><circle class="sym" cx="0" cy="0" r="3" /><text class="lab lft" transform="translate(-3 -7.0)">30</text></g><path class="edge" d="M 0 0 V -3.35012 H 0.0" /><circle class="sym" cx="0" cy="0" r="3" /><text class="lab lft" transform="translate(-3 -7.0)">31</text></g><path class="edge" d="M 0 0 V -20.3534 H -49.1146" /><circle class="sym" cx="0" cy="0" r="3" /><text class="lab rgt" transform="translate(3 -7.0)">32</text></g><circle class="sym" cx="0" cy="0" r="3" /><text class="lab" transform="translate(0 -11)">33</text></g></g></g><g class="tree t5" transform="translate(986.667 0)"><g class="plotbox"><g class="c2 node n33 p0 root" transform="translate(84.4479 26.8)"><g class="a33 c2 node n26 p0" transform="translate(-49.1146 59.9925)"><g class="a26 leaf node n9 p0 sample" transform="translate(7.66667 34.6075)"><path class="edge" d="M 0 0 V -34.6075 H -7.66667" /><rect class="sym" height="6" width="6" x="-3" y="-3" /><text class="lab" transform="translate(0 11)">9</text></g><g class="a26 c1 node n11 p0" transform="translate(-7.66667 34.4875)"><g class="a11 leaf node n0 p0 sample" transform="translate(0.0 0.120003)"><path class="edge" d="M 0 0 V -0.120003 H 0.0" /><rect class="sym" height="6" width="6" x="-3" y="-3" /><text class="lab" transform="translate(0 11)">0</text></g><path class="edge" d="M 0 0 V -34.4875 H 7.66667" /><circle class="sym" cx="0" cy="0" r="3" /><text class="lab lft" transform="translate(-3 -7.0)">11</text></g><path class="edge" d="M 0 0 V -59.9925 H 49.1146" /><circle class="sym" cx="0" cy="0" r="3" /><text class="lab lft" transform="translate(-3 -7.0)">26</text></g><g class="a33 c1 node n32 p0" transform="translate(49.1146 20.3534)"><g class="a32 c1 node n31 p0" transform="translate(0.0 3.35012)"><g class="a31 c2 node n27 p0" transform="translate(0.0 30.1174)"><g class="a27 c2 node n23 p0" transform="translate(24.4375 12.5066)"><g class="a23 leaf node n8 p0 sample" transform="translate(7.66667 28.2724)"><path class="edge" d="M 0 0 V -28.2724 H -7.66667" /><rect class="sym" height="6" width="6" x="-3" y="-3" /><text class="lab" transform="translate(0 11)">8</text></g><g class="a23 c1 node n22 p0" transform="translate(-7.66667 0.829941)"><g class="a22 leaf node n3 p0 sample" transform="translate(0.0 27.4425)"><path class="edge" d="M 0 0 V -27.4425 H 0.0" /><rect class="sym" height="6" width="6" x="-3" y="-3" /><text class="lab" transform="translate(0 11)">3</text></g><path class="edge" d="M 0 0 V -0.829941 H 7.66667" /><circle class="sym" cx="0" cy="0" r="3" /><text class="lab lft" transform="translate(-3 -7.0)">22</text></g><path class="edge" d="M 0 0 V -12.5066 H -24.4375" /><circle class="sym" cx="0" cy="0" r="3" /><text class="lab rgt" transform="translate(3 -7.0)">23</text></g><g class="a27 c1 node n25 p0" transform="translate(-24.4375 7.48383)"><g class="a25 c2 node n20 p0" transform="translate(0.0 6.80727)"><g class="a20 c1 node n18 p0" transform="translate(18.2083 13.123)"><g class="a18 c2 node n16 p0" transform="translate(0.0 4.20262)"><g class="a16 leaf node n4 p0 sample" transform="translate(-7.66667 9.16231)"><path class="edge" d="M 0 0 V -9.16231 H 7.66667" /><rect class="sym" height="6" width="6" x="-3" y="-3" /><text class="lab" transform="translate(0 11)">4</text></g><g class="a16 leaf node n6 p0 sample" transform="translate(7.66667 9.16231)"><path class="edge" d="M 0 0 V -9.16231 H -7.66667" /><rect class="sym" height="6" width="6" x="-3" y="-3" /><text class="lab" transform="translate(0 11)">6</text></g><path class="edge" d="M 0 0 V -4.20262 H 0.0" /><circle class="sym" cx="0" cy="0" r="3" /><text class="lab lft" transform="translate(-3 -7.0)">16</text></g><path class="edge" d="M 0 0 V -13.123 H -18.2083" /><circle class="sym" cx="0" cy="0" r="3" /><text class="lab rgt" transform="translate(3 -7.0)">18</text></g><g class="a20 c2 node n19 p0" transform="translate(-18.2083 4.55988)"><g class="a19 leaf node n7 p0 sample" transform="translate(13.4167 21.9281)"><path class="edge" d="M 0 0 V -21.9281 H -13.4167" /><rect class="sym" height="6" width="6" x="-3" y="-3" /><text class="lab" transform="translate(0 11)">7</text></g><g class="a19 c2 node n17 p0" transform="translate(-13.4167 11.7987)"><g class="a17 c1 node n13 p0" transform="translate(11.5 4.25338)"><g class="a13 leaf node n2 p0 sample" transform="translate(0.0 5.87601)"><path class="edge" d="M 0 0 V -5.87601 H 0.0" /><rect class="sym" height="6" width="6" x="-3" y="-3" /><text class="lab" transform="translate(0 11)">2</text></g><path class="edge" d="M 0 0 V -4.25338 H -11.5" /><circle class="sym" cx="0" cy="0" r="3" /><text class="lab rgt" transform="translate(3 -7.0)">13</text></g><g class="a17 c1 node n15 p0" transform="translate(-11.5 2.04471)"><g class="a15 c2 node n12 p0" transform="translate(0.0 4.76753)"><g class="a12 leaf node n1 p0 sample" transform="translate(-7.66667 3.31715)"><path class="edge" d="M 0 0 V -3.31715 H 7.66667" /><rect class="sym" height="6" width="6" x="-3" y="-3" /><text class="lab" transform="translate(0 11)">1</text></g><g class="a12 leaf node n5 p0 sample" transform="translate(7.66667 3.31715)"><path class="edge" d="M 0 0 V -3.31715 H -7.66667" /><rect class="sym" height="6" width="6" x="-3" y="-3" /><text class="lab" transform="translate(0 11)">5</text></g><path class="edge" d="M 0 0 V -4.76753 H 0.0" /><circle class="sym" cx="0" cy="0" r="3" /><text class="lab lft" transform="translate(-3 -7.0)">12</text></g><path class="edge" d="M 0 0 V -2.04471 H 11.5" /><circle class="sym" cx="0" cy="0" r="3" /><text class="lab lft" transform="translate(-3 -7.0)">15</text></g><path class="edge" d="M 0 0 V -11.7987 H 13.4167" /><circle class="sym" cx="0" cy="0" r="3" /><text class="lab lft" transform="translate(-3 -7.0)">17</text></g><path class="edge" d="M 0 0 V -4.55988 H 18.2083" /><circle class="sym" cx="0" cy="0" r="3" /><text class="lab lft" transform="translate(-3 -7.0)">19</text></g><path class="edge" d="M 0 0 V -6.80727 H 0.0" /><circle class="sym" cx="0" cy="0" r="3" /><text class="lab lft" transform="translate(-3 -7.0)">20</text></g><path class="edge" d="M 0 0 V -7.48383 H 24.4375" /><circle class="sym" cx="0" cy="0" r="3" /><text class="lab lft" transform="translate(-3 -7.0)">25</text></g><path class="edge" d="M 0 0 V -30.1174 H 0.0" /><circle class="sym" cx="0" cy="0" r="3" /><text class="lab lft" transform="translate(-3 -7.0)">27</text></g><path class="edge" d="M 0 0 V -3.35012 H 0.0" /><circle class="sym" cx="0" cy="0" r="3" /><text class="lab lft" transform="translate(-3 -7.0)">31</text></g><path class="edge" d="M 0 0 V -20.3534 H -49.1146" /><circle class="sym" cx="0" cy="0" r="3" /><text class="lab rgt" transform="translate(3 -7.0)">32</text></g><circle class="sym" cx="0" cy="0" r="3" /><text class="lab" transform="translate(0 -11)">33</text></g></g></g></g></g></svg>
