<svg baseProfile="full" height="200" version="1.1" width="800" xmlns="http://www.w3.org/2000/svg" xmlns:ev="http://www.w3.org/2001/xml-events" xmlns:xlink="http://www.w3.org/1999/xlink"><defs><style type="text/css"><![CDATA[.background path {fill: #808080; fill-opacity: 0}.background path:nth-child(odd) {fill-opacity: .1}.axes {font-size: 14px}.x-axis .tick .lab {font-weight: bold; dominant-baseline: hanging}.axes, .tree {font-size: 14px; text-anchor: middle}.axes line, .edge {stroke: black; fill: none}.y-axis .grid {stroke: #FAFAFA}.node > .sym {fill: black; stroke: none}.site > .sym {stroke: black}.mut text {fill: red; font-style: italic}.mut.extra text {fill: hotpink}.mut line {fill: none; stroke: none}.mut .sym {fill: none; stroke: red}.mut.extra .sym {stroke: hotpink}.node .mut .sym {stroke-width: 1.5px}.tree text, .tree-sequence text {dominant-baseline: central}.plotbox .lab.lft {text-anchor: end}.plotbox .lab.rgt {text-anchor: start}]]></style></defs><g class="tree-sequence"><g class="background"><path d="M20,0 l190,0 l0,138.2 l-169.701,25 l0,5 l-20.299,0 l0,-5 l0,-25 l0,-138.2z" /><path d="M210,0 l190,0 l0,138.2 l-322.328,25 l0,5 l-37.3731,0 l0,-5 l169.701,-25 l0,-138.2z" /><path d="M400,0 l190,0 l0,138.2 l-236.37,25 l0,5 l-275.958,0 l0,-5 l322.328,-25 l0,-138.2z" /><path d="M590,0 l190,0 l0,138.2 l0,25 l0,5 l-426.37,0 l0,-5 l236.37,-25 l0,-138.2z" /></g><g class="axes"><g class="x-axis"><g transform="translate(400 200)"><text class="lab" text-anchor="middle" transform="translate(0 -11)">Genome position</text></g><line x1="20" x2="780" y1="163.2" y2="163.2" /><g class="ticks"><g class="tick" transform="translate(20 163.2)"><line x1="0" x2="0" y1="0" y2="5" /><g transform="translate(0 6)"><text class="lab">0.00</text></g></g><g class="tick" transform="translate(40.299 163.2)"><line x1="0" x2="0" y1="0" y2="5" /><g transform="translate(0 6)"><text class="lab">26.71</text></g></g><g class="tick" transform="translate(77.6721 163.2)"><line x1="0" x2="0" y1="0" y2="5" /><g transform="translate(0 6)"><text class="lab">75.88</text></g></g><g class="tick" transform="translate(353.63 163.2)"><line x1="0" x2="0" y1="0" y2="5" /><g transform="translate(0 6)"><text class="lab">438.99</text></g></g><g class="tick" transform="translate(780 163.2)"><line x1="0" x2="0" y1="0" y2="5" /><g transform="translate(0 6)"><text class="lab">1000.00</text></g></g></g></g></g><g class="plotbox trees"><g class="tree t0" transform="translate(20 0)"><g class="plotbox"><g class="c2 node n27 p0 root" transform="translate(103.906 26.8)"><g class="a27 c2 node n19 p0" transform="translate(-44.5312 65.0975)"><g class="a19 c2 node n10 p0" transform="translate(20.625 28.1198)"><g class="a10 leaf node n6 p0 sample" transform="translate(-7.5 1.38271)"><path class="edge" d="M 0 0 V -1.38271 H 7.5" /><rect class="sym" height="6" width="6" x="-3" y="-3" /><text class="lab" transform="translate(0 11)">6</text></g><g class="a10 leaf node n7 p0 sample" transform="translate(7.5 1.38271)"><path class="edge" d="M 0 0 V -1.38271 H -7.5" /><rect class="sym" height="6" width="6" x="-3" y="-3" /><text class="lab" transform="translate(0 11)">7</text></g><path class="edge" d="M 0 0 V -28.1198 H -20.625" /><circle class="sym" cx="0" cy="0" r="3" /><text class="lab rgt" transform="translate(3 -7.0)">10</text></g><g class="a19 c2 node n15 p0" transform="translate(-20.625 16.509)"><g class="a15 leaf node n0 p0 sample" transform="translate(-11.25 12.9936)"><path class="edge" d="M 0 0 V -12.9936 H 11.25" /><rect class="sym" height="6" width="6" x="-3" y="-3" /><text class="lab" transform="translate(0 11)">0</text></g><g class="a15 c2 node n13 p0" transform="translate(11.25 4.75095)"><g class="a13 leaf node n4 p0 sample" transform="translate(7.5 8.24261)"><path class="edge" d="M 0 0 V -8.24261 H -7.5" /><rect class="sym" height="6" width="6" x="-3" y="-3" /><text class="lab" transform="translate(0 11)">4</text></g><g class="a13 c1 node n11 p0" transform="translate(-7.5 3.09939)"><g class="a11 leaf node n2 p0 sample" transform="translate(0.0 5.14322)"><path class="edge" d="M 0 0 V -5.14322 H 0.0" /><rect class="sym" height="6" width="6" x="-3" y="-3" /><text class="lab" transform="translate(0 11)">2</text></g><path class="edge" d="M 0 0 V -3.09939 H 7.5" /><circle class="sym" cx="0" cy="0" r="3" /><text class="lab lft" transform="translate(-3 -7.0)">11</text></g><path class="edge" d="M 0 0 V -4.75095 H -11.25" /><circle class="sym" cx="0" cy="0" r="3" /><text class="lab rgt" transform="translate(3 -7.0)">13</text></g><path class="edge" d="M 0 0 V -16.509 H 20.625" /><circle class="sym" cx="0" cy="0" r="3" /><text class="lab lft" transform="translate(-3 -7.0)">15</text></g><path class="edge" d="M 0 0 V -65.0975 H 44.5312" /><circle class="sym" cx="0" cy="0" r="3" /><text class="lab lft" transform="translate(-3 -7.0)">19</text></g><g class="a27 c1 node n26 p0" transform="translate(44.5312 10.3928)"><g class="a26 c1 node n25 p0" transform="translate(0.0 10.2642)"><g class="a25 c2 node n24 p0" transform="translate(0.0 3.00621)"><g class="a24 c1 node n20 p0" transform="translate(-14.0625 31.9374)"><g class="a20 c2 node n18 p0" transform="translate(0.0 17.4164)"><g class="a18 leaf node n3 p0 sample" transform="translate(13.125 21.583)"><path class="edge" d="M 0 0 V -21.583 H -13.125" /><rect class="sym" height="6" width="6" x="-3" y="-3" /><text class="lab" transform="translate(0 11)">3</text></g><g class="a18 c2 node n17 p0" transform="translate(-13.125 6.21949)"><g class="a17 c1 node n14 p0" transform="translate(11.25 6.4823)"><g class="a14 leaf node n8 p0 sample" transform="translate(0.0 8.88126)"><path class="edge" d="M 0 0 V -8.88126 H 0.0" /><rect class="sym" height="6" width="6" x="-3" y="-3" /><text class="lab" transform="translate(0 11)">8</text></g><path class="edge" d="M 0 0 V -6.4823 H -11.25" /><circle class="sym" cx="0" cy="0" r="3" /><text class="lab rgt" transform="translate(3 -7.0)">14</text></g><g class="a17 c2 node n16 p0" transform="translate(-11.25 0.776898)"><g class="a16 leaf node n1 p0 sample" transform="translate(-7.5 14.5867)"><path class="edge" d="M 0 0 V -14.5867 H 7.5" /><rect class="sym" height="6" width="6" x="-3" y="-3" /><text class="lab" transform="translate(0 11)">1</text></g><g class="a16 leaf node n9 p0 sample" transform="translate(7.5 14.5867)"><path class="edge" d="M 0 0 V -14.5867 H -7.5" /><rect class="sym" height="6" width="6" x="-3" y="-3" /><text class="lab" transform="translate(0 11)">9</text></g><path class="edge" d="M 0 0 V -0.776898 H 11.25" /><circle class="sym" cx="0" cy="0" r="3" /><text class="lab lft" transform="translate(-3 -7.0)">16</text></g><path class="edge" d="M 0 0 V -6.21949 H 13.125" /><circle class="sym" cx="0" cy="0" r="3" /><text class="lab lft" transform="translate(-3 -7.0)">17</text></g><path class="edge" d="M 0 0 V -17.4164 H 0.0" /><circle class="sym" cx="0" cy="0" r="3" /><text class="lab lft" transform="translate(-3 -7.0)">18</text></g><path class="edge" d="M 0 0 V -31.9374 H 14.0625" /><circle class="sym" cx="0" cy="0" r="3" /><text class="lab lft" transform="translate(-3 -7.0)">20</text></g><g class="a24 c1 node n22 p0" transform="translate(14.0625 6.7363)"><g class="a22 leaf node n5 p0 sample" transform="translate(0.0 64.2006)"><path class="edge" d="M 0 0 V -64.2006 H 0.0" /><rect class="sym" height="6" width="6" x="-3" y="-3" /><text class="lab" transform="translate(0 11)">5</text></g><path class="edge" d="M 0 0 V -6.7363 H -14.0625" /><circle class="sym" cx="0" cy="0" r="3" /><text class="lab rgt" transform="translate(3 -7.0)">22</text></g><path class="edge" d="M 0 0 V -3.00621 H 0.0" /><circle class="sym" cx="0" cy="0" r="3" /><text class="lab lft" transform="translate(-3 -7.0)">24</text></g><path class="edge" d="M 0 0 V -10.2642 H 0.0" /><circle class="sym" cx="0" cy="0" r="3" /><text class="lab lft" transform="translate(-3 -7.0)">25</text></g><path class="edge" d="M 0 0 V -10.3928 H -44.5312" /><circle class="sym" cx="0" cy="0" r="3" /><text class="lab rgt" transform="translate(3 -7.0)">26</text></g><circle class="sym" cx="0" cy="0" r="3" /><text class="lab" transform="translate(0 -11)">27</text></g></g></g><g class="tree t1" transform="translate(210 0)"><g class="plotbox"><g class="c2 node n27 p0 root" transform="translate(103.906 26.8)"><g class="a27 c2 node n19 p0" transform="translate(-44.5312 65.0975)"><g class="a19 c2 node n10 p0" transform="translate(20.625 28.1198)"><g class="a10 leaf node n6 p0 sample" transform="translate(-7.5 1.38271)"><path class="edge" d="M 0 0 V -1.38271 H 7.5" /><rect class="sym" height="6" width="6" x="-3" y="-3" /><text class="lab" transform="translate(0 11)">6</text></g><g class="a10 leaf node n7 p0 sample" transform="translate(7.5 1.38271)"><path class="edge" d="M 0 0 V -1.38271 H -7.5" /><rect class="sym" height="6" width="6" x="-3" y="-3" /><text class="lab" transform="translate(0 11)">7</text></g><path class="edge" d="M 0 0 V -28.1198 H -20.625" /><circle class="sym" cx="0" cy="0" r="3" /><text class="lab rgt" transform="translate(3 -7.0)">10</text></g><g class="a19 c2 node n15 p0" transform="translate(-20.625 16.509)"><g class="a15 leaf node n0 p0 sample" transform="translate(-11.25 12.9936)"><path class="edge" d="M 0 0 V -12.9936 H 11.25" /><rect class="sym" height="6" width="6" x="-3" y="-3" /><text class="lab" transform="translate(0 11)">0</text></g><g class="a15 c2 node n13 p0" transform="translate(11.25 4.75095)"><g class="a13 leaf node n4 p0 sample" transform="translate(7.5 8.24261)"><path class="edge" d="M 0 0 V -8.24261 H -7.5" /><rect class="sym" height="6" width="6" x="-3" y="-3" /><text class="lab" transform="translate(0 11)">4</text></g><g class="a13 c1 node n11 p0" transform="translate(-7.5 3.09939)"><g class="a11 leaf node n2 p0 sample" transform="translate(0.0 5.14322)"><path class="edge" d="M 0 0 V -5.14322 H 0.0" /><rect class="sym" height="6" width="6" x="-3" y="-3" /><text class="lab" transform="translate(0 11)">2</text></g><path class="edge" d="M 0 0 V -3.09939 H 7.5" /><circle class="sym" cx="0" cy="0" r="3" /><text class="lab lft" transform="translate(-3 -7.0)">11</text></g><path class="edge" d="M 0 0 V -4.75095 H -11.25" /><circle class="sym" cx="0" cy="0" r="3" /><text class="lab rgt" transform="translate(3 -7.0)">13</text></g><path class="edge" d="M 0 0 V -16.509 H 20.625" /><circle class="sym" cx="0" cy="0" r="3" /><text class="lab lft" transform="translate(-3 -7.0)">15</text></g><path class="edge" d="M 0 0 V -65.0975 H 44.5312" /><circle class="sym" cx="0" cy="0" r="3" /><text class="lab lft" transform="translate(-3 -7.0)">19</text></g><g class="a27 c2 node n26 p0" transform="translate(44.5312 10.3928)"><g class="a26 c1 node n25 p0" transform="translate(14.0625 10.2642)"><g class="a25 c1 node n24 p0" transform="translate(0.0 3.00621)"><g class="a24 c1 node n22 p0" transform="translate(0.0 6.7363)"><g class="a22 leaf node n5 p0 sample" transform="translate(0.0 64.2006)"><path class="edge" d="M 0 0 V -64.2006 H 0.0" /><rect class="sym" height="6" width="6" x="-3" y="-3" /><text class="lab" transform="translate(0 11)">5</text></g><path class="edge" d="M 0 0 V -6.7363 H 0.0" /><circle class="sym" cx="0" cy="0" r="3" /><text class="lab lft" transform="translate(-3 -7.0)">22</text></g><path class="edge" d="M 0 0 V -3.00621 H 0.0" /><circle class="sym" cx="0" cy="0" r="3" /><text class="lab lft" transform="translate(-3 -7.0)">24</text></g><path class="edge" d="M 0 0 V -10.2642 H -14.0625" /><circle class="sym" cx="0" cy="0" r="3" /><text class="lab rgt" transform="translate(3 -7.0)">25</text></g><g class="a26 c1 node n21 p0" transform="translate(-14.0625 45.2078)"><g class="a21 c2 node n18 p0" transform="translate(0.0 17.4164)"><g class="a18 leaf node n3 p0 sample" transform="translate(13.125 21.583)"><path class="edge" d="M 0 0 V -21.583 H -13.125" /><rect class="sym" height="6" width="6" x="-3" y="-3" /><text class="lab" transform="translate(0 11)">3</text></g><g class="a18 c2 node n17 p0" transform="translate(-13.125 6.21949)"><g class="a17 c1 node n14 p0" transform="translate(11.25 6.4823)"><g class="a14 leaf node n8 p0 sample" transform="translate(0.0 8.88126)"><path class="edge" d="M 0 0 V -8.88126 H 0.0" /><rect class="sym" height="6" width="6" x="-3" y="-3" /><text class="lab" transform="translate(0 11)">8</text></g><path class="edge" d="M 0 0 V -6.4823 H -11.25" /><circle class="sym" cx="0" cy="0" r="3" /><text class="lab rgt" transform="translate(3 -7.0)">14</text></g><g class="a17 c2 node n16 p0" transform="translate(-11.25 0.776898)"><g class="a16 leaf node n1 p0 sample" transform="translate(-7.5 14.5867)"><path class="edge" d="M 0 0 V -14.5867 H 7.5" /><rect class="sym" height="6" width="6" x="-3" y="-3" /><text class="lab" transform="translate(0 11)">1</text></g><g class="a16 leaf node n9 p0 sample" transform="translate(7.5 14.5867)"><path class="edge" d="M 0 0 V -14.5867 H -7.5" /><rect class="sym" height="6" width="6" x="-3" y="-3" /><text class="lab" transform="translate(0 11)">9</text></g><path class="edge" d="M 0 0 V -0.776898 H 11.25" /><circle class="sym" cx="0" cy="0" r="3" /><text class="lab lft" transform="translate(-3 -7.0)">16</text></g><path class="edge" d="M 0 0 V -6.21949 H 13.125" /><circle class="sym" cx="0" cy="0" r="3" /><text class="lab lft" transform="translate(-3 -7.0)">17</text></g><path class="edge" d="M 0 0 V -17.4164 H 0.0" /><circle class="sym" cx="0" cy="0" r="3" /><text class="lab lft" transform="translate(-3 -7.0)">18</text></g><path class="edge" d="M 0 0 V -45.2078 H 14.0625" /><circle class="sym" cx="0" cy="0" r="3" /><text class="lab lft" transform="translate(-3 -7.0)">21</text></g><path class="edge" d="M 0 0 V -10.3928 H -44.5312" /><circle class="sym" cx="0" cy="0" r="3" /><text class="lab rgt" transform="translate(3 -7.0)">26</text></g><circle class="sym" cx="0" cy="0" r="3" /><text class="lab" transform="translate(0 -11)">27</text></g></g></g><g class="tree t2" transform="translate(400 0)"><g class="plotbox"><g class="c2 node n27 p0 root" transform="translate(97.8125 26.8)"><g class="a27 c2 node n19 p0" transform="translate(-47.8125 65.0975)"><g class="a19 c2 node n10 p0" transform="translate(15 28.1198)"><g class="a10 leaf node n6 p0 sample" transform="translate(-7.5 1.38271)"><path class="edge" d="M 0 0 V -1.38271 H 7.5" /><rect class="sym" height="6" width="6" x="-3" y="-3" /><text class="lab" transform="translate(0 11)">6</text></g><g class="a10 leaf node n7 p0 sample" transform="translate(7.5 1.38271)"><path class="edge" d="M 0 0 V -1.38271 H -7.5" /><rect class="sym" height="6" width="6" x="-3" y="-3" /><text class="lab" transform="translate(0 11)">7</text></g><path class="edge" d="M 0 0 V -28.1198 H -15" /><circle class="sym" cx="0" cy="0" r="3" /><text class="lab rgt" transform="translate(3 -7.0)">10</text></g><g class="a19 c2 node n15 p0" transform="translate(-15 16.509)"><g class="a15 leaf node n0 p0 sample" transform="translate(-7.5 12.9936)"><path class="edge" d="M 0 0 V -12.9936 H 7.5" /><rect class="sym" height="6" width="6" x="-3" y="-3" /><text class="lab" transform="translate(0 11)">0</text></g><g class="a15 c1 node n13 p0" transform="translate(7.5 4.75095)"><g class="a13 leaf node n4 p0 sample" transform="translate(0.0 8.24261)"><path class="edge" d="M 0 0 V -8.24261 H 0.0" /><rect class="sym" height="6" width="6" x="-3" y="-3" /><text class="lab" transform="translate(0 11)">4</text></g><path class="edge" d="M 0 0 V -4.75095 H -7.5" /><circle class="sym" cx="0" cy="0" r="3" /><text class="lab rgt" transform="translate(3 -7.0)">13</text></g><path class="edge" d="M 0 0 V -16.509 H 15" /><circle class="sym" cx="0" cy="0" r="3" /><text class="lab lft" transform="translate(-3 -7.0)">15</text></g><path class="edge" d="M 0 0 V -65.0975 H 47.8125" /><circle class="sym" cx="0" cy="0" r="3" /><text class="lab lft" transform="translate(-3 -7.0)">19</text></g><g class="a27 c2 node n26 p0" transform="translate(47.8125 10.3928)"><g class="a26 c1 node n25 p0" transform="translate(16.875 10.2642)"><g class="a25 c1 node n24 p0" transform="translate(0.0 3.00621)"><g class="a24 c1 node n22 p0" transform="translate(0.0 6.7363)"><g class="a22 leaf node n5 p0 sample" transform="translate(0.0 64.2006)"><path class="edge" d="M 0 0 V -64.2006 H 0.0" /><rect class="sym" height="6" width="6" x="-3" y="-3" /><text class="lab" transform="translate(0 11)">5</text></g><path class="edge" d="M 0 0 V -6.7363 H 0.0" /><circle class="sym" cx="0" cy="0" r="3" /><text class="lab lft" transform="translate(-3 -7.0)">22</text></g><path class="edge" d="M 0 0 V -3.00621 H 0.0" /><circle class="sym" cx="0" cy="0" r="3" /><text class="lab lft" transform="translate(-3 -7.0)">24</text></g><path class="edge" d="M 0 0 V -10.2642 H -16.875" /><circle class="sym" cx="0" cy="0" r="3" /><text class="lab rgt" transform="translate(3 -7.0)">25</text></g><g class="a26 c1 node n21 p0" transform="translate(-16.875 45.2078)"><g class="a21 c2 node n18 p0" transform="translate(0.0 17.4164)"><g class="a18 leaf node n3 p0 sample" transform="translate(18.75 21.583)"><path class="edge" d="M 0 0 V -21.583 H -18.75" /><rect class="sym" height="6" width="6" x="-3" y="-3" /><text class="lab" transform="translate(0 11)">3</text></g><g class="a18 c2 node n17 p0" transform="translate(-18.75 6.21949)"><g class="a17 c2 node n14 p0" transform="translate(15 6.4823)"><g class="a14 leaf node n8 p0 sample" transform="translate(7.5 8.88126)"><path class="edge" d="M 0 0 V -8.88126 H -7.5" /><rect class="sym" height="6" width="6" x="-3" y="-3" /><text class="lab" transform="translate(0 11)">8</text></g><g class="a14 c1 node n12 p0" transform="translate(-7.5 3.73805)"><g class="a12 leaf node n2 p0 sample" transform="translate(0.0 5.14322)"><path class="edge" d="M 0 0 V -5.14322 H 0.0" /><rect class="sym" height="6" width="6" x="-3" y="-3" /><text class="lab" transform="translate(0 11)">2</text></g><path class="edge" d="M 0 0 V -3.73805 H 7.5" /><circle class="sym" cx="0" cy="0" r="3" /><text class="lab lft" transform="translate(-3 -7.0)">12</text></g><path class="edge" d="M 0 0 V -6.4823 H -15" /><circle class="sym" cx="0" cy="0" r="3" /><text class="lab rgt" transform="translate(3 -7.0)">14</text></g><g class="a17 c2 node n16 p0" transform="translate(-15 0.776898)"><g class="a16 leaf node n1 p0 sample" transform="translate(-7.5 14.5867)"><path class="edge" d="M 0 0 V -14.5867 H 7.5" /><rect class="sym" height="6" width="6" x="-3" y="-3" /><text class="lab" transform="translate(0 11)">1</text></g><g class="a16 leaf node n9 p0 sample" transform="translate(7.5 14.5867)"><path class="edge" d="M 0 0 V -14.5867 H -7.5" /><rect class="sym" height="6" width="6" x="-3" y="-3" /><text class="lab" transform="translate(0 11)">9</text></g><path class="edge" d="M 0 0 V -0.776898 H 15" /><circle class="sym" cx="0" cy="0" r="3" /><text class="lab lft" transform="translate(-3 -7.0)">16</text></g><path class="edge" d="M 0 0 V -6.21949 H 18.75" /><circle class="sym" cx="0" cy="0" r="3" /><text class="lab lft" transform="translate(-3 -7.0)">17</text></g><path class="edge" d="M 0 0 V -17.4164 H 0.0" /><circle class="sym" cx="0" cy="0" r="3" /><text class="lab lft" transform="translate(-3 -7.0)">18</text></g><path class="edge" d="M 0 0 V -45.2078 H 16.875" /><circle class="sym" cx="0" cy="0" r="3" /><text class="lab lft" transform="translate(-3 -7.0)">21</text></g><path class="edge" d="M 0 0 V -10.3928 H -47.8125" /><circle class="sym" cx="0" cy="0" r="3" /><text class="lab rgt" transform="translate(3 -7.0)">26</text></g><circle class="sym" cx="0" cy="0" r="3" /><text class="lab" transform="translate(0 -11)">27</text></g></g></g><g class="tree t3" transform="translate(590 0)"><g class="plotbox"><g class="c2 node n27 p0 root" transform="translate(97.8125 26.8)"><g class="a27 c2 node n19 p0" transform="translate(-47.8125 65.0975)"><g class="a19 c2 node n10 p0" transform="translate(15 28.1198)"><g class="a10 leaf node n6 p0 sample" transform="translate(-7.5 1.38271)"><path class="edge" d="M 0 0 V -1.38271 H 7.5" /><rect class="sym" height="6" width="6" x="-3" y="-3" /><text class="lab" transform="translate(0 11)">6</text></g><g class="a10 leaf node n7 p0 sample" transform="translate(7.5 1.38271)"><path class="edge" d="M 0 0 V -1.38271 H -7.5" /><rect class="sym" height="6" width="6" x="-3" y="-3" /><text class="lab" transform="translate(0 11)">7</text></g><path class="edge" d="M 0 0 V -28.1198 H -15" /><circle class="sym" cx="0" cy="0" r="3" /><text class="lab rgt" transform="translate(3 -7.0)">10</text></g><g class="a19 c2 node n15 p0" transform="translate(-15 16.509)"><g class="a15 leaf node n0 p0 sample" transform="translate(-7.5 12.9936)"><path class="edge" d="M 0 0 V -12.9936 H 7.5" /><rect class="sym" height="6" width="6" x="-3" y="-3" /><text class="lab" transform="translate(0 11)">0</text></g><g class="a15 c1 node n13 p0" transform="translate(7.5 4.75095)"><g class="a13 leaf node n4 p0 sample" transform="translate(0.0 8.24261)"><path class="edge" d="M 0 0 V -8.24261 H 0.0" /><rect class="sym" height="6" width="6" x="-3" y="-3" /><text class="lab" transform="translate(0 11)">4</text></g><path class="edge" d="M 0 0 V -4.75095 H -7.5" /><circle class="sym" cx="0" cy="0" r="3" /><text class="lab rgt" transform="translate(3 -7.0)">13</text></g><path class="edge" d="M 0 0 V -16.509 H 15" /><circle class="sym" cx="0" cy="0" r="3" /><text class="lab lft" transform="translate(-3 -7.0)">15</text></g><path class="edge" d="M 0 0 V -65.0975 H 47.8125" /><circle class="sym" cx="0" cy="0" r="3" /><text class="lab lft" transform="translate(-3 -7.0)">19</text></g><g class="a27 c2 node n26 p0" transform="translate(47.8125 10.3928)"><g class="a26 c1 node n25 p0" transform="translate(16.875 10.2642)"><g class="a25 c1 node n23 p0" transform="translate(0.0 9.74251)"><g class="a23 leaf node n5 p0 sample" transform="translate(0.0 64.2006)"><path class="edge" d="M 0 0 V -64.2006 H 0.0" /><rect class="sym" height="6" width="6" x="-3" y="-3" /><text class="lab" transform="translate(0 11)">5</text></g><path class="edge" d="M 0 0 V -9.74251 H 0.0" /><circle class="sym" cx="0" cy="0" r="3" /><text class="lab lft" transform="translate(-3 -7.0)">23</text></g><path class="edge" d="M 0 0 V -10.2642 H -16.875" /><circle class="sym" cx="0" cy="0" r="3" /><text class="lab rgt" transform="translate(3 -7.0)">25</text></g><g class="a26 c1 node n21 p0" transform="translate(-16.875 45.2078)"><g class="a21 c2 node n18 p0" transform="translate(0.0 17.4164)"><g class="a18 leaf node n3 p0 sample" transform="translate(18.75 21.583)"><path class="edge" d="M 0 0 V -21.583 H -18.75" /><rect class="sym" height="6" width="6" x="-3" y="-3" /><text class="lab" transform="translate(0 11)">3</text></g><g class="a18 c2 node n17 p0" transform="translate(-18.75 6.21949)"><g class="a17 c2 node n14 p0" transform="translate(15 6.4823)"><g class="a14 leaf node n8 p0 sample" transform="translate(7.5 8.88126)"><path class="edge" d="M 0 0 V -8.88126 H -7.5" /><rect class="sym" height="6" width="6" x="-3" y="-3" /><text class="lab" transform="translate(0 11)">8</text></g><g class="a14 c1 node n12 p0" transform="translate(-7.5 3.73805)"><g class="a12 leaf node n2 p0 sample" transform="translate(0.0 5.14322)"><path class="edge" d="M 0 0 V -5.14322 H 0.0" /><rect class="sym" height="6" width="6" x="-3" y="-3" /><text class="lab" transform="translate(0 11)">2</text></g><path class="edge" d="M 0 0 V -3.73805 H 7.5" /><circle class="sym" cx="0" cy="0" r="3" /><text class="lab lft" transform="translate(-3 -7.0)">12</text></g><path class="edge" d="M 0 0 V -6.4823 H -15" /><circle class="sym" cx="0" cy="0" r="3" /><text class="lab rgt" transform="translate(3 -7.0)">14</text></g><g class="a17 c2 node n16 p0" transform="translate(-15 0.776898)"><g class="a16 leaf node n1 p0 sample" transform="translate(-7.5 14.5867)"><path class="edge" d="M 0 0 V -14.5867 H 7.5" /><rect class="sym" height="6" width="6" x="-3" y="-3" /><text class="lab" transform="translate(0 11)">1</text></g><g class="a16 leaf node n9 p0 sample" transform="translate(7.5 14.5867)"><path class="edge" d="M 0 0 V -14.5867 H -7.5" /><rect class="sym" height="6" width="6" x="-3" y="-3" /><text class="lab" transform="translate(0 11)">9</text></g><path class="edge" d="M 0 0 V -0.776898 H 15" /><circle class="sym" cx="0" cy="0" r="3" /><text class="lab lft" transform="translate(-3 -7.0)">16</text></g><path class="edge" d="M 0 0 V -6.21949 H 18.75" /><circle class="sym" cx="0" cy="0" r="3" /><text class="lab lft" transform="translate(-3 -7.0)">17</text></g><path class="edge" d="M 0 0 V -17.4164 H 0.0" /><circle class="sym" cx="0" cy="0" r="3" /><text class="lab lft" transform="translate(-3 -7.0)">18</text></g><path class="edge" d="M 0 0 V -45.2078 H 16.875" /><circle class="sym" cx="0" cy="0" r="3" /><text class="lab lft" transform="translate(-3 -7.0)">21</text></g><path class="edge" d="M 0 0 V -10.3928 H -47.8125" /><circle class="sym" cx="0" cy="0" r="3" /><text class="lab rgt" transform="translate(3 -7.0)">26</text></g><circle class="sym" cx="0" cy="0" r="3" /><text class="lab" transform="translate(0 -11)">27</text></g></g></g></g></g></svg>
