<svg baseProfile="full" height="200" version="1.1" width="600" xmlns="http://www.w3.org/2000/svg" xmlns:ev="http://www.w3.org/2001/xml-events" xmlns:xlink="http://www.w3.org/1999/xlink"><defs><style type="text/css"><![CDATA[.background path {fill: #808080; fill-opacity: 0}.background path:nth-child(odd) {fill-opacity: .1}.axes {font-size: 14px}.x-axis .tick .lab {font-weight: bold; dominant-baseline: hanging}.axes, .tree {font-size: 14px; text-anchor: middle}.axes line, .edge {stroke: black; fill: none}.y-axis .grid {stroke: #FAFAFA}.node > .sym {fill: black; stroke: none}.site > .sym {stroke: black}.mut text {fill: red; font-style: italic}.mut.extra text {fill: hotpink}.mut line {fill: none; stroke: none}.mut .sym {fill: none; stroke: red}.mut.extra .sym {stroke: hotpink}.node .mut .sym {stroke-width: 1.5px}.tree text, .tree-sequence text {dominant-baseline: central}.plotbox .lab.lft {text-anchor: end}.plotbox .lab.rgt {text-anchor: start}]]></style></defs><g class="tree-sequence"><g class="background"><path d="M20,0 l186.667,0 l0,138.2 l196.703,25 l0,5 l-383.37,0 l0,-5 l0,-25 l0,-138.2z" /><path d="M206.667,0 l186.667,0 l0,138.2 l93.9327,25 l0,5 l-83.896,0 l0,-5 l-196.703,-25 l0,-138.2z" /><path d="M393.333,0 l186.667,0 l0,138.2 l0,25 l0,5 l-92.7339,0 l0,-5 l-93.9327,-25 l0,-138.2z" /></g><g class="axes"><g class="x-axis"><g transform="translate(300 200)"><text class="lab" text-anchor="middle" transform="translate(0 -11)">Genome position</text></g><line x1="20" x2="580" y1="163.2" y2="163.2" /><g class="ticks"><g class="tick" transform="translate(20 163.2)"><line x1="0" x2="0" y1="0" y2="5" /><g transform="translate(0 6)"><text class="lab">0.00</text></g></g><g class="tick" transform="translate(403.37 163.2)"><line x1="0" x2="0" y1="0" y2="5" /><g transform="translate(0 6)"><text class="lab">684.59</text></g></g><g class="tick" transform="translate(487.266 163.2)"><line x1="0" x2="0" y1="0" y2="5" /><g transform="translate(0 6)"><text class="lab">834.40</text></g></g><g class="tick" transform="translate(580 163.2)"><line x1="0" x2="0" y1="0" y2="5" /><g transform="translate(0 6)"><text class="lab">1000.00</text></g></g></g></g></g><g class="plotbox trees"><g class="tree t0" transform="translate(20 0)"><g class="plotbox"><g class="c2 node n24 p0 root" transform="translate(123.583 26.8)"><g class="a24 c1 node n16 p0" transform="translate(35.75 84.6243)"><g class="a16 leaf node n1 p0 sample" transform="translate(0.0 9.97569)"><path class="edge" d="M 0 0 V -9.97569 H 0.0" /><rect class="sym" height="6" width="6" x="-3" y="-3" /><text class="lab" transform="translate(0 11)">1</text></g><path class="edge" d="M 0 0 V -84.6243 H -35.75" /><circle class="sym" cx="0" cy="0" r="3" /><text class="lab rgt" transform="translate(3 -7.0)">16</text></g><g class="a24 c1 node n23 p0" transform="translate(-35.75 66.8729)"><g class="a23 c2 node n22 p0" transform="translate(0.0 0.776847)"><g class="a22 c2 node n20 p0" transform="translate(29.3333 7.14111)"><g class="a20 c2 node n10 p0" transform="translate(20.1667 18.7823)"><g class="a10 leaf node n4 p0 sample" transform="translate(-7.33333 1.02681)"><path class="edge" d="M 0 0 V -1.02681 H 7.33333" /><rect class="sym" height="6" width="6" x="-3" y="-3" /><text class="lab" transform="translate(0 11)">4</text></g><g class="a10 leaf node n7 p0 sample" transform="translate(7.33333 1.02681)"><path class="edge" d="M 0 0 V -1.02681 H -7.33333" /><rect class="sym" height="6" width="6" x="-3" y="-3" /><text class="lab" transform="translate(0 11)">7</text></g><path class="edge" d="M 0 0 V -18.7823 H -20.1667" /><circle class="sym" cx="0" cy="0" r="3" /><text class="lab rgt" transform="translate(3 -7.0)">10</text></g><g class="a20 c2 node n19 p0" transform="translate(-20.1667 3.94885)"><g class="a19 leaf node n2 p0 sample" transform="translate(-11 15.8603)"><path class="edge" d="M 0 0 V -15.8603 H 11" /><rect class="sym" height="6" width="6" x="-3" y="-3" /><text class="lab" transform="translate(0 11)">2</text></g><g class="a19 c2 node n11 p0" transform="translate(11 13.1256)"><g class="a11 leaf node n8 p0 sample" transform="translate(-7.33333 2.73467)"><path class="edge" d="M 0 0 V -2.73467 H 7.33333" /><rect class="sym" height="6" width="6" x="-3" y="-3" /><text class="lab" transform="translate(0 11)">8</text></g><g class="a11 leaf node n9 p0 sample" transform="translate(7.33333 2.73467)"><path class="edge" d="M 0 0 V -2.73467 H -7.33333" /><rect class="sym" height="6" width="6" x="-3" y="-3" /><text class="lab" transform="translate(0 11)">9</text></g><path class="edge" d="M 0 0 V -13.1256 H -11" /><circle class="sym" cx="0" cy="0" r="3" /><text class="lab rgt" transform="translate(3 -7.0)">11</text></g><path class="edge" d="M 0 0 V -3.94885 H 20.1667" /><circle class="sym" cx="0" cy="0" r="3" /><text class="lab lft" transform="translate(-3 -7.0)">19</text></g><path class="edge" d="M 0 0 V -7.14111 H -29.3333" /><circle class="sym" cx="0" cy="0" r="3" /><text class="lab rgt" transform="translate(3 -7.0)">20</text></g><g class="a22 c2 node n21 p0" transform="translate(-29.3333 4.60542)"><g class="a21 c1 node n12 p0" transform="translate(12.8333 16.3461)"><g class="a12 leaf node n3 p0 sample" transform="translate(0.0 5.99872)"><path class="edge" d="M 0 0 V -5.99872 H 0.0" /><rect class="sym" height="6" width="6" x="-3" y="-3" /><text class="lab" transform="translate(0 11)">3</text></g><path class="edge" d="M 0 0 V -16.3461 H -12.8333" /><circle class="sym" cx="0" cy="0" r="3" /><text class="lab rgt" transform="translate(3 -7.0)">12</text></g><g class="a21 c2 node n18 p0" transform="translate(-12.8333 10.5644)"><g class="a18 leaf node n6 p0 sample" transform="translate(11 11.7804)"><path class="edge" d="M 0 0 V -11.7804 H -11" /><rect class="sym" height="6" width="6" x="-3" y="-3" /><text class="lab" transform="translate(0 11)">6</text></g><g class="a18 c2 node n17 p0" transform="translate(-11 0.277844)"><g class="a17 leaf node n0 p0 sample" transform="translate(-7.33333 11.5026)"><path class="edge" d="M 0 0 V -11.5026 H 7.33333" /><rect class="sym" height="6" width="6" x="-3" y="-3" /><text class="lab" transform="translate(0 11)">0</text></g><g class="a17 c1 node n14 p0" transform="translate(7.33333 1.6153)"><g class="a14 leaf node n5 p0 sample" transform="translate(0.0 9.88727)"><path class="edge" d="M 0 0 V -9.88727 H 0.0" /><rect class="sym" height="6" width="6" x="-3" y="-3" /><text class="lab" transform="translate(0 11)">5</text></g><path class="edge" d="M 0 0 V -1.6153 H -7.33333" /><circle class="sym" cx="0" cy="0" r="3" /><text class="lab rgt" transform="translate(3 -7.0)">14</text></g><path class="edge" d="M 0 0 V -0.277844 H 11" /><circle class="sym" cx="0" cy="0" r="3" /><text class="lab lft" transform="translate(-3 -7.0)">17</text></g><path class="edge" d="M 0 0 V -10.5644 H 12.8333" /><circle class="sym" cx="0" cy="0" r="3" /><text class="lab lft" transform="translate(-3 -7.0)">18</text></g><path class="edge" d="M 0 0 V -4.60542 H 29.3333" /><circle class="sym" cx="0" cy="0" r="3" /><text class="lab lft" transform="translate(-3 -7.0)">21</text></g><path class="edge" d="M 0 0 V -0.776847 H 0.0" /><circle class="sym" cx="0" cy="0" r="3" /><text class="lab lft" transform="translate(-3 -7.0)">22</text></g><path class="edge" d="M 0 0 V -66.8729 H 35.75" /><circle class="sym" cx="0" cy="0" r="3" /><text class="lab lft" transform="translate(-3 -7.0)">23</text></g><circle class="sym" cx="0" cy="0" r="3" /><text class="lab" transform="translate(0 -11)">24</text></g></g></g><g class="tree t1" transform="translate(206.667 0)"><g class="plotbox"><g class="c2 node n24 p0 root" transform="translate(113.042 26.8)"><g class="a24 c2 node n16 p0" transform="translate(38.9583 84.6243)"><g class="a16 leaf node n1 p0 sample" transform="translate(-7.33333 9.97569)"><path class="edge" d="M 0 0 V -9.97569 H 7.33333" /><rect class="sym" height="6" width="6" x="-3" y="-3" /><text class="lab" transform="translate(0 11)">1</text></g><g class="a16 c1 node n13 p0" transform="translate(7.33333 3.97696)"><g class="a13 leaf node n3 p0 sample" transform="translate(0.0 5.99872)"><path class="edge" d="M 0 0 V -5.99872 H 0.0" /><rect class="sym" height="6" width="6" x="-3" y="-3" /><text class="lab" transform="translate(0 11)">3</text></g><path class="edge" d="M 0 0 V -3.97696 H -7.33333" /><circle class="sym" cx="0" cy="0" r="3" /><text class="lab rgt" transform="translate(3 -7.0)">13</text></g><path class="edge" d="M 0 0 V -84.6243 H -38.9583" /><circle class="sym" cx="0" cy="0" r="3" /><text class="lab rgt" transform="translate(3 -7.0)">16</text></g><g class="a24 c1 node n23 p0" transform="translate(-38.9583 66.8729)"><g class="a23 c2 node n22 p0" transform="translate(0.0 0.776847)"><g class="a22 c2 node n20 p0" transform="translate(28.4167 7.14111)"><g class="a20 c2 node n10 p0" transform="translate(20.1667 18.7823)"><g class="a10 leaf node n4 p0 sample" transform="translate(-7.33333 1.02681)"><path class="edge" d="M 0 0 V -1.02681 H 7.33333" /><rect class="sym" height="6" width="6" x="-3" y="-3" /><text class="lab" transform="translate(0 11)">4</text></g><g class="a10 leaf node n7 p0 sample" transform="translate(7.33333 1.02681)"><path class="edge" d="M 0 0 V -1.02681 H -7.33333" /><rect class="sym" height="6" width="6" x="-3" y="-3" /><text class="lab" transform="translate(0 11)">7</text></g><path class="edge" d="M 0 0 V -18.7823 H -20.1667" /><circle class="sym" cx="0" cy="0" r="3" /><text class="lab rgt" transform="translate(3 -7.0)">10</text></g><g class="a20 c2 node n19 p0" transform="translate(-20.1667 3.94885)"><g class="a19 leaf node n2 p0 sample" transform="translate(-11 15.8603)"><path class="edge" d="M 0 0 V -15.8603 H 11" /><rect class="sym" height="6" width="6" x="-3" y="-3" /><text class="lab" transform="translate(0 11)">2</text></g><g class="a19 c2 node n11 p0" transform="translate(11 13.1256)"><g class="a11 leaf node n8 p0 sample" transform="translate(-7.33333 2.73467)"><path class="edge" d="M 0 0 V -2.73467 H 7.33333" /><rect class="sym" height="6" width="6" x="-3" y="-3" /><text class="lab" transform="translate(0 11)">8</text></g><g class="a11 leaf node n9 p0 sample" transform="translate(7.33333 2.73467)"><path class="edge" d="M 0 0 V -2.73467 H -7.33333" /><rect class="sym" height="6" width="6" x="-3" y="-3" /><text class="lab" transform="translate(0 11)">9</text></g><path class="edge" d="M 0 0 V -13.1256 H -11" /><circle class="sym" cx="0" cy="0" r="3" /><text class="lab rgt" transform="translate(3 -7.0)">11</text></g><path class="edge" d="M 0 0 V -3.94885 H 20.1667" /><circle class="sym" cx="0" cy="0" r="3" /><text class="lab lft" transform="translate(-3 -7.0)">19</text></g><path class="edge" d="M 0 0 V -7.14111 H -28.4167" /><circle class="sym" cx="0" cy="0" r="3" /><text class="lab rgt" transform="translate(3 -7.0)">20</text></g><g class="a22 c1 node n21 p0" transform="translate(-28.4167 4.60542)"><g class="a21 c2 node n18 p0" transform="translate(0.0 10.5644)"><g class="a18 leaf node n6 p0 sample" transform="translate(11 11.7804)"><path class="edge" d="M 0 0 V -11.7804 H -11" /><rect class="sym" height="6" width="6" x="-3" y="-3" /><text class="lab" transform="translate(0 11)">6</text></g><g class="a18 c2 node n17 p0" transform="translate(-11 0.277844)"><g class="a17 leaf node n0 p0 sample" transform="translate(-7.33333 11.5026)"><path class="edge" d="M 0 0 V -11.5026 H 7.33333" /><rect class="sym" height="6" width="6" x="-3" y="-3" /><text class="lab" transform="translate(0 11)">0</text></g><g class="a17 c1 node n14 p0" transform="translate(7.33333 1.6153)"><g class="a14 leaf node n5 p0 sample" transform="translate(0.0 9.88727)"><path class="edge" d="M 0 0 V -9.88727 H 0.0" /><rect class="sym" height="6" width="6" x="-3" y="-3" /><text class="lab" transform="translate(0 11)">5</text></g><path class="edge" d="M 0 0 V -1.6153 H -7.33333" /><circle class="sym" cx="0" cy="0" r="3" /><text class="lab rgt" transform="translate(3 -7.0)">14</text></g><path class="edge" d="M 0 0 V -0.277844 H 11" /><circle class="sym" cx="0" cy="0" r="3" /><text class="lab lft" transform="translate(-3 -7.0)">17</text></g><path class="edge" d="M 0 0 V -10.5644 H 0.0" /><circle class="sym" cx="0" cy="0" r="3" /><text class="lab lft" transform="translate(-3 -7.0)">18</text></g><path class="edge" d="M 0 0 V -4.60542 H 28.4167" /><circle class="sym" cx="0" cy="0" r="3" /><text class="lab lft" transform="translate(-3 -7.0)">21</text></g><path class="edge" d="M 0 0 V -0.776847 H 0.0" /><circle class="sym" cx="0" cy="0" r="3" /><text class="lab lft" transform="translate(-3 -7.0)">22</text></g><path class="edge" d="M 0 0 V -66.8729 H 38.9583" /><circle class="sym" cx="0" cy="0" r="3" /><text class="lab lft" transform="translate(-3 -7.0)">23</text></g><circle class="sym" cx="0" cy="0" r="3" /><text class="lab" transform="translate(0 -11)">24</text></g></g></g><g class="tree t2" transform="translate(393.333 0)"><g class="plotbox"><g class="c2 node n24 p0 root" transform="translate(123.812 26.8)"><g class="a24 c2 node n16 p0" transform="translate(28.1875 84.6243)"><g class="a16 leaf node n1 p0 sample" transform="translate(-7.33333 9.97569)"><path class="edge" d="M 0 0 V -9.97569 H 7.33333" /><rect class="sym" height="6" width="6" x="-3" y="-3" /><text class="lab" transform="translate(0 11)">1</text></g><g class="a16 c1 node n13 p0" transform="translate(7.33333 3.97696)"><g class="a13 leaf node n3 p0 sample" transform="translate(0.0 5.99872)"><path class="edge" d="M 0 0 V -5.99872 H 0.0" /><rect class="sym" height="6" width="6" x="-3" y="-3" /><text class="lab" transform="translate(0 11)">3</text></g><path class="edge" d="M 0 0 V -3.97696 H -7.33333" /><circle class="sym" cx="0" cy="0" r="3" /><text class="lab rgt" transform="translate(3 -7.0)">13</text></g><path class="edge" d="M 0 0 V -84.6243 H -28.1875" /><circle class="sym" cx="0" cy="0" r="3" /><text class="lab rgt" transform="translate(3 -7.0)">16</text></g><g class="a24 c2 node n23 p0" transform="translate(-28.1875 66.8729)"><g class="a23 c2 node n22 p0" transform="translate(-34.375 0.776847)"><g class="a22 c2 node n20 p0" transform="translate(26.5833 7.14111)"><g class="a20 c2 node n10 p0" transform="translate(20.1667 18.7823)"><g class="a10 leaf node n4 p0 sample" transform="translate(-7.33333 1.02681)"><path class="edge" d="M 0 0 V -1.02681 H 7.33333" /><rect class="sym" height="6" width="6" x="-3" y="-3" /><text class="lab" transform="translate(0 11)">4</text></g><g class="a10 leaf node n7 p0 sample" transform="translate(7.33333 1.02681)"><path class="edge" d="M 0 0 V -1.02681 H -7.33333" /><rect class="sym" height="6" width="6" x="-3" y="-3" /><text class="lab" transform="translate(0 11)">7</text></g><path class="edge" d="M 0 0 V -18.7823 H -20.1667" /><circle class="sym" cx="0" cy="0" r="3" /><text class="lab rgt" transform="translate(3 -7.0)">10</text></g><g class="a20 c2 node n19 p0" transform="translate(-20.1667 3.94885)"><g class="a19 leaf node n2 p0 sample" transform="translate(-11 15.8603)"><path class="edge" d="M 0 0 V -15.8603 H 11" /><rect class="sym" height="6" width="6" x="-3" y="-3" /><text class="lab" transform="translate(0 11)">2</text></g><g class="a19 c2 node n11 p0" transform="translate(11 13.1256)"><g class="a11 leaf node n8 p0 sample" transform="translate(-7.33333 2.73467)"><path class="edge" d="M 0 0 V -2.73467 H 7.33333" /><rect class="sym" height="6" width="6" x="-3" y="-3" /><text class="lab" transform="translate(0 11)">8</text></g><g class="a11 leaf node n9 p0 sample" transform="translate(7.33333 2.73467)"><path class="edge" d="M 0 0 V -2.73467 H -7.33333" /><rect class="sym" height="6" width="6" x="-3" y="-3" /><text class="lab" transform="translate(0 11)">9</text></g><path class="edge" d="M 0 0 V -13.1256 H -11" /><circle class="sym" cx="0" cy="0" r="3" /><text class="lab rgt" transform="translate(3 -7.0)">11</text></g><path class="edge" d="M 0 0 V -3.94885 H 20.1667" /><circle class="sym" cx="0" cy="0" r="3" /><text class="lab lft" transform="translate(-3 -7.0)">19</text></g><path class="edge" d="M 0 0 V -7.14111 H -26.5833" /><circle class="sym" cx="0" cy="0" r="3" /><text class="lab rgt" transform="translate(3 -7.0)">20</text></g><g class="a22 c1 node n21 p0" transform="translate(-26.5833 4.60542)"><g class="a21 c2 node n18 p0" transform="translate(0.0 10.5644)"><g class="a18 leaf node n6 p0 sample" transform="translate(7.33333 11.7804)"><path class="edge" d="M 0 0 V -11.7804 H -7.33333" /><rect class="sym" height="6" width="6" x="-3" y="-3" /><text class="lab" transform="translate(0 11)">6</text></g><g class="a18 c1 node n17 p0" transform="translate(-7.33333 0.277844)"><g class="a17 leaf node n0 p0 sample" transform="translate(0.0 11.5026)"><path class="edge" d="M 0 0 V -11.5026 H 0.0" /><rect class="sym" height="6" width="6" x="-3" y="-3" /><text class="lab" transform="translate(0 11)">0</text></g><path class="edge" d="M 0 0 V -0.277844 H 7.33333" /><circle class="sym" cx="0" cy="0" r="3" /><text class="lab lft" transform="translate(-3 -7.0)">17</text></g><path class="edge" d="M 0 0 V -10.5644 H 0.0" /><circle class="sym" cx="0" cy="0" r="3" /><text class="lab lft" transform="translate(-3 -7.0)">18</text></g><path class="edge" d="M 0 0 V -4.60542 H 26.5833" /><circle class="sym" cx="0" cy="0" r="3" /><text class="lab lft" transform="translate(-3 -7.0)">21</text></g><path class="edge" d="M 0 0 V -0.776847 H 34.375" /><circle class="sym" cx="0" cy="0" r="3" /><text class="lab lft" transform="translate(-3 -7.0)">22</text></g><g class="a23 c1 node n15 p0" transform="translate(34.375 17.8398)"><g class="a15 leaf node n5 p0 sample" transform="translate(0.0 9.88727)"><path class="edge" d="M 0 0 V -9.88727 H 0.0" /><rect class="sym" height="6" width="6" x="-3" y="-3" /><text class="lab" transform="translate(0 11)">5</text></g><path class="edge" d="M 0 0 V -17.8398 H -34.375" /><circle class="sym" cx="0" cy="0" r="3" /><text class="lab rgt" transform="translate(3 -7.0)">15</text></g><path class="edge" d="M 0 0 V -66.8729 H 28.1875" /><circle class="sym" cx="0" cy="0" r="3" /><text class="lab lft" transform="translate(-3 -7.0)">23</text></g><circle class="sym" cx="0" cy="0" r="3" /><text class="lab" transform="translate(0 -11)">24</text></g></g></g></g></g></svg>
