<svg baseProfile="full" height="200" version="1.1" width="800" xmlns="http://www.w3.org/2000/svg" xmlns:ev="http://www.w3.org/2001/xml-events" xmlns:xlink="http://www.w3.org/1999/xlink"><defs><style type="text/css"><![CDATA[.background path {fill: #808080; fill-opacity: 0}.background path:nth-child(odd) {fill-opacity: .1}.axes {font-size: 14px}.x-axis .tick .lab {font-weight: bold; dominant-baseline: hanging}.axes, .tree {font-size: 14px; text-anchor: middle}.axes line, .edge {stroke: black; fill: none}.y-axis .grid {stroke: #FAFAFA}.node > .sym {fill: black; stroke: none}.site > .sym {stroke: black}.mut text {fill: red; font-style: italic}.mut.extra text {fill: hotpink}.mut line {fill: none; stroke: none}.mut .sym {fill: none; stroke: red}.mut.extra .sym {stroke: hotpink}.node .mut .sym {stroke-width: 1.5px}.tree text, .tree-sequence text {dominant-baseline: central}.plotbox .lab.lft {text-anchor: end}.plotbox .lab.rgt {text-anchor: start}]]></style></defs><g class="tree-sequence"><g class="background"><path d="M20,0 l190,0 l0,138.2 l-114.609,25 l0,5 l-75.3908,0 l0,-5 l0,-25 l0,-138.2z" /><path d="M210,0 l190,0 l0,138.2 l69.5684,25 l0,5 l-374.178,0 l0,-5 l114.609,-25 l0,-138.2z" /><path d="M400,0 l190,0 l0,138.2 l-108.465,25 l0,5 l-11.9667,0 l0,-5 l-69.5684,-25 l0,-138.2z" /><path d="M590,0 l190,0 l0,138.2 l0,25 l0,5 l-298.465,0 l0,-5 l108.465,-25 l0,-138.2z" /></g><g class="axes"><g class="x-axis"><g transform="translate(400 200)"><text class="lab" text-anchor="middle" transform="translate(0 -11)">Genome position</text></g><line x1="20" x2="780" y1="163.2" y2="163.2" /><g class="ticks"><g class="tick" transform="translate(20 163.2)"><line x1="0" x2="0" y1="0" y2="5" /><g transform="translate(0 6)"><text class="lab">0.00</text></g></g><g class="tick" transform="translate(95.3908 163.2)"><line x1="0" x2="0" y1="0" y2="5" /><g transform="translate(0 6)"><text class="lab">99.20</text></g></g><g class="tick" transform="translate(469.568 163.2)"><line x1="0" x2="0" y1="0" y2="5" /><g transform="translate(0 6)"><text class="lab">591.54</text></g></g><g class="tick" transform="translate(481.535 163.2)"><line x1="0" x2="0" y1="0" y2="5" /><g transform="translate(0 6)"><text class="lab">607.28</text></g></g><g class="tick" transform="translate(780 163.2)"><line x1="0" x2="0" y1="0" y2="5" /><g transform="translate(0 6)"><text class="lab">1000.00</text></g></g></g></g></g><g class="plotbox trees"><g class="tree t0" transform="translate(20 0)"><g class="plotbox"><g class="c2 node n27 p0 root" transform="translate(123.125 26.8)"><g class="a27 c1 node n23 p0" transform="translate(31.875 47.0298)"><g class="a23 c2 node n17 p0" transform="translate(0.0 25.4624)"><g class="a17 leaf node n2 p0 sample" transform="translate(-7.5 22.1078)"><path class="edge" d="M 0 0 V -22.1078 H 7.5" /><rect class="sym" height="6" width="6" x="-3" y="-3" /><text class="lab" transform="translate(0 11)">2</text></g><g class="a17 leaf node n8 p0 sample" transform="translate(7.5 22.1078)"><path class="edge" d="M 0 0 V -22.1078 H -7.5" /><rect class="sym" height="6" width="6" x="-3" y="-3" /><text class="lab" transform="translate(0 11)">8</text></g><path class="edge" d="M 0 0 V -25.4624 H 0.0" /><circle class="sym" cx="0" cy="0" r="3" /><text class="lab lft" transform="translate(-3 -7.0)">17</text></g><path class="edge" d="M 0 0 V -47.0298 H -31.875" /><circle class="sym" cx="0" cy="0" r="3" /><text class="lab rgt" transform="translate(3 -7.0)">23</text></g><g class="a27 c2 node n26 p0" transform="translate(-31.875 13.335)"><g class="a26 c2 node n22 p0" transform="translate(-22.5 37.9081)"><g class="a22 c2 node n20 p0" transform="translate(-18.75 11.0122)"><g class="a20 c1 node n13 p0" transform="translate(15 15.8032)"><g class="a13 c2 node n12 p0" transform="translate(0.0 6.90738)"><g class="a12 leaf node n7 p0 sample" transform="translate(-7.5 9.63407)"><path class="edge" d="M 0 0 V -9.63407 H 7.5" /><rect class="sym" height="6" width="6" x="-3" y="-3" /><text class="lab" transform="translate(0 11)">7</text></g><g class="a12 leaf node n9 p0 sample" transform="translate(7.5 9.63407)"><path class="edge" d="M 0 0 V -9.63407 H -7.5" /><rect class="sym" height="6" width="6" x="-3" y="-3" /><text class="lab" transform="translate(0 11)">9</text></g><path class="edge" d="M 0 0 V -6.90738 H 0.0" /><circle class="sym" cx="0" cy="0" r="3" /><text class="lab lft" transform="translate(-3 -7.0)">12</text></g><path class="edge" d="M 0 0 V -15.8032 H -15" /><circle class="sym" cx="0" cy="0" r="3" /><text class="lab rgt" transform="translate(3 -7.0)">13</text></g><g class="a20 c2 node n16 p0" transform="translate(-15 13.4679)"><g class="a16 leaf node n0 p0 sample" transform="translate(-7.5 18.8767)"><path class="edge" d="M 0 0 V -18.8767 H 7.5" /><rect class="sym" height="6" width="6" x="-3" y="-3" /><text class="lab" transform="translate(0 11)">0</text></g><g class="a16 c1 node n10 p0" transform="translate(7.5 18.4395)"><g class="a10 leaf node n1 p0 sample" transform="translate(0.0 0.437204)"><path class="edge" d="M 0 0 V -0.437204 H 0.0" /><rect class="sym" height="6" width="6" x="-3" y="-3" /><text class="lab" transform="translate(0 11)">1</text></g><path class="edge" d="M 0 0 V -18.4395 H -7.5" /><circle class="sym" cx="0" cy="0" r="3" /><text class="lab rgt" transform="translate(3 -7.0)">10</text></g><path class="edge" d="M 0 0 V -13.4679 H 15" /><circle class="sym" cx="0" cy="0" r="3" /><text class="lab lft" transform="translate(-3 -7.0)">16</text></g><path class="edge" d="M 0 0 V -11.0122 H 18.75" /><circle class="sym" cx="0" cy="0" r="3" /><text class="lab lft" transform="translate(-3 -7.0)">20</text></g><g class="a22 c1 node n21 p0" transform="translate(18.75 6.44725)"><g class="a21 leaf node n6 p0 sample" transform="translate(0.0 36.9096)"><path class="edge" d="M 0 0 V -36.9096 H 0.0" /><rect class="sym" height="6" width="6" x="-3" y="-3" /><text class="lab" transform="translate(0 11)">6</text></g><path class="edge" d="M 0 0 V -6.44725 H -18.75" /><circle class="sym" cx="0" cy="0" r="3" /><text class="lab rgt" transform="translate(3 -7.0)">21</text></g><path class="edge" d="M 0 0 V -37.9081 H 22.5" /><circle class="sym" cx="0" cy="0" r="3" /><text class="lab lft" transform="translate(-3 -7.0)">22</text></g><g class="a26 c1 node n25 p0" transform="translate(22.5 9.66448)"><g class="a25 c2 node n24 p0" transform="translate(0.0 5.54648)"><g class="a24 leaf node n3 p0 sample" transform="translate(-11.25 66.054)"><path class="edge" d="M 0 0 V -66.054 H 11.25" /><rect class="sym" height="6" width="6" x="-3" y="-3" /><text class="lab" transform="translate(0 11)">3</text></g><g class="a24 c2 node n15 p0" transform="translate(11.25 47.4858)"><g class="a15 leaf node n4 p0 sample" transform="translate(-7.5 18.5683)"><path class="edge" d="M 0 0 V -18.5683 H 7.5" /><rect class="sym" height="6" width="6" x="-3" y="-3" /><text class="lab" transform="translate(0 11)">4</text></g><g class="a15 leaf node n5 p0 sample" transform="translate(7.5 18.5683)"><path class="edge" d="M 0 0 V -18.5683 H -7.5" /><rect class="sym" height="6" width="6" x="-3" y="-3" /><text class="lab" transform="translate(0 11)">5</text></g><path class="edge" d="M 0 0 V -47.4858 H -11.25" /><circle class="sym" cx="0" cy="0" r="3" /><text class="lab rgt" transform="translate(3 -7.0)">15</text></g><path class="edge" d="M 0 0 V -5.54648 H 0.0" /><circle class="sym" cx="0" cy="0" r="3" /><text class="lab lft" transform="translate(-3 -7.0)">24</text></g><path class="edge" d="M 0 0 V -9.66448 H -22.5" /><circle class="sym" cx="0" cy="0" r="3" /><text class="lab rgt" transform="translate(3 -7.0)">25</text></g><path class="edge" d="M 0 0 V -13.335 H 31.875" /><circle class="sym" cx="0" cy="0" r="3" /><text class="lab lft" transform="translate(-3 -7.0)">26</text></g><circle class="sym" cx="0" cy="0" r="3" /><text class="lab" transform="translate(0 -11)">27</text></g></g></g><g class="tree t1" transform="translate(210 0)"><g class="plotbox"><g class="c2 node n27 p0 root" transform="translate(116.562 26.8)"><g class="a27 c1 node n23 p0" transform="translate(38.4375 47.0298)"><g class="a23 c2 node n17 p0" transform="translate(0.0 25.4624)"><g class="a17 leaf node n2 p0 sample" transform="translate(-7.5 22.1078)"><path class="edge" d="M 0 0 V -22.1078 H 7.5" /><rect class="sym" height="6" width="6" x="-3" y="-3" /><text class="lab" transform="translate(0 11)">2</text></g><g class="a17 leaf node n8 p0 sample" transform="translate(7.5 22.1078)"><path class="edge" d="M 0 0 V -22.1078 H -7.5" /><rect class="sym" height="6" width="6" x="-3" y="-3" /><text class="lab" transform="translate(0 11)">8</text></g><path class="edge" d="M 0 0 V -25.4624 H 0.0" /><circle class="sym" cx="0" cy="0" r="3" /><text class="lab lft" transform="translate(-3 -7.0)">17</text></g><path class="edge" d="M 0 0 V -47.0298 H -38.4375" /><circle class="sym" cx="0" cy="0" r="3" /><text class="lab rgt" transform="translate(3 -7.0)">23</text></g><g class="a27 c2 node n26 p0" transform="translate(-38.4375 13.335)"><g class="a26 c2 node n22 p0" transform="translate(-22.5 37.9081)"><g class="a22 c2 node n20 p0" transform="translate(-16.875 11.0122)"><g class="a20 c1 node n13 p0" transform="translate(11.25 15.8032)"><g class="a13 c2 node n12 p0" transform="translate(0.0 6.90738)"><g class="a12 leaf node n7 p0 sample" transform="translate(-7.5 9.63407)"><path class="edge" d="M 0 0 V -9.63407 H 7.5" /><rect class="sym" height="6" width="6" x="-3" y="-3" /><text class="lab" transform="translate(0 11)">7</text></g><g class="a12 leaf node n9 p0 sample" transform="translate(7.5 9.63407)"><path class="edge" d="M 0 0 V -9.63407 H -7.5" /><rect class="sym" height="6" width="6" x="-3" y="-3" /><text class="lab" transform="translate(0 11)">9</text></g><path class="edge" d="M 0 0 V -6.90738 H 0.0" /><circle class="sym" cx="0" cy="0" r="3" /><text class="lab lft" transform="translate(-3 -7.0)">12</text></g><path class="edge" d="M 0 0 V -15.8032 H -11.25" /><circle class="sym" cx="0" cy="0" r="3" /><text class="lab rgt" transform="translate(3 -7.0)">13</text></g><g class="a20 c1 node n16 p0" transform="translate(-11.25 13.4679)"><g class="a16 leaf node n0 p0 sample" transform="translate(0.0 18.8767)"><path class="edge" d="M 0 0 V -18.8767 H 0.0" /><rect class="sym" height="6" width="6" x="-3" y="-3" /><text class="lab" transform="translate(0 11)">0</text></g><path class="edge" d="M 0 0 V -13.4679 H 11.25" /><circle class="sym" cx="0" cy="0" r="3" /><text class="lab lft" transform="translate(-3 -7.0)">16</text></g><path class="edge" d="M 0 0 V -11.0122 H 16.875" /><circle class="sym" cx="0" cy="0" r="3" /><text class="lab lft" transform="translate(-3 -7.0)">20</text></g><g class="a22 c1 node n21 p0" transform="translate(16.875 6.44725)"><g class="a21 leaf node n6 p0 sample" transform="translate(0.0 36.9096)"><path class="edge" d="M 0 0 V -36.9096 H 0.0" /><rect class="sym" height="6" width="6" x="-3" y="-3" /><text class="lab" transform="translate(0 11)">6</text></g><path class="edge" d="M 0 0 V -6.44725 H -16.875" /><circle class="sym" cx="0" cy="0" r="3" /><text class="lab rgt" transform="translate(3 -7.0)">21</text></g><path class="edge" d="M 0 0 V -37.9081 H 22.5" /><circle class="sym" cx="0" cy="0" r="3" /><text class="lab lft" transform="translate(-3 -7.0)">22</text></g><g class="a26 c2 node n25 p0" transform="translate(22.5 9.66448)"><g class="a25 c2 node n24 p0" transform="translate(13.125 5.54648)"><g class="a24 leaf node n3 p0 sample" transform="translate(-11.25 66.054)"><path class="edge" d="M 0 0 V -66.054 H 11.25" /><rect class="sym" height="6" width="6" x="-3" y="-3" /><text class="lab" transform="translate(0 11)">3</text></g><g class="a24 c2 node n15 p0" transform="translate(11.25 47.4858)"><g class="a15 leaf node n4 p0 sample" transform="translate(-7.5 18.5683)"><path class="edge" d="M 0 0 V -18.5683 H 7.5" /><rect class="sym" height="6" width="6" x="-3" y="-3" /><text class="lab" transform="translate(0 11)">4</text></g><g class="a15 leaf node n5 p0 sample" transform="translate(7.5 18.5683)"><path class="edge" d="M 0 0 V -18.5683 H -7.5" /><rect class="sym" height="6" width="6" x="-3" y="-3" /><text class="lab" transform="translate(0 11)">5</text></g><path class="edge" d="M 0 0 V -47.4858 H -11.25" /><circle class="sym" cx="0" cy="0" r="3" /><text class="lab rgt" transform="translate(3 -7.0)">15</text></g><path class="edge" d="M 0 0 V -5.54648 H -13.125" /><circle class="sym" cx="0" cy="0" r="3" /><text class="lab rgt" transform="translate(3 -7.0)">24</text></g><g class="a25 c1 node n18 p0" transform="translate(-13.125 46.2656)"><g class="a18 c1 node n11 p0" transform="translate(0.0 24.8977)"><g class="a11 leaf node n1 p0 sample" transform="translate(0.0 0.437204)"><path class="edge" d="M 0 0 V -0.437204 H 0.0" /><rect class="sym" height="6" width="6" x="-3" y="-3" /><text class="lab" transform="translate(0 11)">1</text></g><path class="edge" d="M 0 0 V -24.8977 H 0.0" /><circle class="sym" cx="0" cy="0" r="3" /><text class="lab lft" transform="translate(-3 -7.0)">11</text></g><path class="edge" d="M 0 0 V -46.2656 H 13.125" /><circle class="sym" cx="0" cy="0" r="3" /><text class="lab lft" transform="translate(-3 -7.0)">18</text></g><path class="edge" d="M 0 0 V -9.66448 H -22.5" /><circle class="sym" cx="0" cy="0" r="3" /><text class="lab rgt" transform="translate(3 -7.0)">25</text></g><path class="edge" d="M 0 0 V -13.335 H 38.4375" /><circle class="sym" cx="0" cy="0" r="3" /><text class="lab lft" transform="translate(-3 -7.0)">26</text></g><circle class="sym" cx="0" cy="0" r="3" /><text class="lab" transform="translate(0 -11)">27</text></g></g></g><g class="tree t2" transform="translate(400 0)"><g class="plotbox"><g class="c2 node n27 p0 root" transform="translate(96.4062 26.8)"><g class="a27 c2 node n23 p0" transform="translate(43.5938 47.0298)"><g class="a23 c2 node n17 p0" transform="translate(-15 25.4624)"><g class="a17 leaf node n2 p0 sample" transform="translate(-7.5 22.1078)"><path class="edge" d="M 0 0 V -22.1078 H 7.5" /><rect class="sym" height="6" width="6" x="-3" y="-3" /><text class="lab" transform="translate(0 11)">2</text></g><g class="a17 leaf node n8 p0 sample" transform="translate(7.5 22.1078)"><path class="edge" d="M 0 0 V -22.1078 H -7.5" /><rect class="sym" height="6" width="6" x="-3" y="-3" /><text class="lab" transform="translate(0 11)">8</text></g><path class="edge" d="M 0 0 V -25.4624 H 15" /><circle class="sym" cx="0" cy="0" r="3" /><text class="lab lft" transform="translate(-3 -7.0)">17</text></g><g class="a23 c1 node n14 p0" transform="translate(15 31.0288)"><g class="a14 c2 node n12 p0" transform="translate(0.0 6.90738)"><g class="a12 leaf node n7 p0 sample" transform="translate(-7.5 9.63407)"><path class="edge" d="M 0 0 V -9.63407 H 7.5" /><rect class="sym" height="6" width="6" x="-3" y="-3" /><text class="lab" transform="translate(0 11)">7</text></g><g class="a12 leaf node n9 p0 sample" transform="translate(7.5 9.63407)"><path class="edge" d="M 0 0 V -9.63407 H -7.5" /><rect class="sym" height="6" width="6" x="-3" y="-3" /><text class="lab" transform="translate(0 11)">9</text></g><path class="edge" d="M 0 0 V -6.90738 H 0.0" /><circle class="sym" cx="0" cy="0" r="3" /><text class="lab lft" transform="translate(-3 -7.0)">12</text></g><path class="edge" d="M 0 0 V -31.0288 H -15" /><circle class="sym" cx="0" cy="0" r="3" /><text class="lab rgt" transform="translate(3 -7.0)">14</text></g><path class="edge" d="M 0 0 V -47.0298 H -43.5938" /><circle class="sym" cx="0" cy="0" r="3" /><text class="lab rgt" transform="translate(3 -7.0)">23</text></g><g class="a27 c2 node n26 p0" transform="translate(-43.5938 13.335)"><g class="a26 c2 node n22 p0" transform="translate(-17.8125 37.9081)"><g class="a22 c1 node n20 p0" transform="translate(-7.5 11.0122)"><g class="a20 c1 node n16 p0" transform="translate(0.0 13.4679)"><g class="a16 leaf node n0 p0 sample" transform="translate(0.0 18.8767)"><path class="edge" d="M 0 0 V -18.8767 H 0.0" /><rect class="sym" height="6" width="6" x="-3" y="-3" /><text class="lab" transform="translate(0 11)">0</text></g><path class="edge" d="M 0 0 V -13.4679 H 0.0" /><circle class="sym" cx="0" cy="0" r="3" /><text class="lab lft" transform="translate(-3 -7.0)">16</text></g><path class="edge" d="M 0 0 V -11.0122 H 7.5" /><circle class="sym" cx="0" cy="0" r="3" /><text class="lab lft" transform="translate(-3 -7.0)">20</text></g><g class="a22 c1 node n21 p0" transform="translate(7.5 6.44725)"><g class="a21 leaf node n6 p0 sample" transform="translate(0.0 36.9096)"><path class="edge" d="M 0 0 V -36.9096 H 0.0" /><rect class="sym" height="6" width="6" x="-3" y="-3" /><text class="lab" transform="translate(0 11)">6</text></g><path class="edge" d="M 0 0 V -6.44725 H -7.5" /><circle class="sym" cx="0" cy="0" r="3" /><text class="lab rgt" transform="translate(3 -7.0)">21</text></g><path class="edge" d="M 0 0 V -37.9081 H 17.8125" /><circle class="sym" cx="0" cy="0" r="3" /><text class="lab lft" transform="translate(-3 -7.0)">22</text></g><g class="a26 c2 node n25 p0" transform="translate(17.8125 9.66448)"><g class="a25 c2 node n24 p0" transform="translate(13.125 5.54648)"><g class="a24 leaf node n3 p0 sample" transform="translate(-11.25 66.054)"><path class="edge" d="M 0 0 V -66.054 H 11.25" /><rect class="sym" height="6" width="6" x="-3" y="-3" /><text class="lab" transform="translate(0 11)">3</text></g><g class="a24 c2 node n15 p0" transform="translate(11.25 47.4858)"><g class="a15 leaf node n4 p0 sample" transform="translate(-7.5 18.5683)"><path class="edge" d="M 0 0 V -18.5683 H 7.5" /><rect class="sym" height="6" width="6" x="-3" y="-3" /><text class="lab" transform="translate(0 11)">4</text></g><g class="a15 leaf node n5 p0 sample" transform="translate(7.5 18.5683)"><path class="edge" d="M 0 0 V -18.5683 H -7.5" /><rect class="sym" height="6" width="6" x="-3" y="-3" /><text class="lab" transform="translate(0 11)">5</text></g><path class="edge" d="M 0 0 V -47.4858 H -11.25" /><circle class="sym" cx="0" cy="0" r="3" /><text class="lab rgt" transform="translate(3 -7.0)">15</text></g><path class="edge" d="M 0 0 V -5.54648 H -13.125" /><circle class="sym" cx="0" cy="0" r="3" /><text class="lab rgt" transform="translate(3 -7.0)">24</text></g><g class="a25 c1 node n18 p0" transform="translate(-13.125 46.2656)"><g class="a18 c1 node n11 p0" transform="translate(0.0 24.8977)"><g class="a11 leaf node n1 p0 sample" transform="translate(0.0 0.437204)"><path class="edge" d="M 0 0 V -0.437204 H 0.0" /><rect class="sym" height="6" width="6" x="-3" y="-3" /><text class="lab" transform="translate(0 11)">1</text></g><path class="edge" d="M 0 0 V -24.8977 H 0.0" /><circle class="sym" cx="0" cy="0" r="3" /><text class="lab lft" transform="translate(-3 -7.0)">11</text></g><path class="edge" d="M 0 0 V -46.2656 H 13.125" /><circle class="sym" cx="0" cy="0" r="3" /><text class="lab lft" transform="translate(-3 -7.0)">18</text></g><path class="edge" d="M 0 0 V -9.66448 H -17.8125" /><circle class="sym" cx="0" cy="0" r="3" /><text class="lab rgt" transform="translate(3 -7.0)">25</text></g><path class="edge" d="M 0 0 V -13.335 H 43.5938" /><circle class="sym" cx="0" cy="0" r="3" /><text class="lab lft" transform="translate(-3 -7.0)">26</text></g><circle class="sym" cx="0" cy="0" r="3" /><text class="lab" transform="translate(0 -11)">27</text></g></g></g><g class="tree t3" transform="translate(590 0)"><g class="plotbox"><g class="c2 node n27 p0 root" transform="translate(100.625 26.8)"><g class="a27 c2 node n23 p0" transform="translate(39.375 47.0298)"><g class="a23 c2 node n17 p0" transform="translate(-15 25.4624)"><g class="a17 leaf node n2 p0 sample" transform="translate(-7.5 22.1078)"><path class="edge" d="M 0 0 V -22.1078 H 7.5" /><rect class="sym" height="6" width="6" x="-3" y="-3" /><text class="lab" transform="translate(0 11)">2</text></g><g class="a17 leaf node n8 p0 sample" transform="translate(7.5 22.1078)"><path class="edge" d="M 0 0 V -22.1078 H -7.5" /><rect class="sym" height="6" width="6" x="-3" y="-3" /><text class="lab" transform="translate(0 11)">8</text></g><path class="edge" d="M 0 0 V -25.4624 H 15" /><circle class="sym" cx="0" cy="0" r="3" /><text class="lab lft" transform="translate(-3 -7.0)">17</text></g><g class="a23 c1 node n14 p0" transform="translate(15 31.0288)"><g class="a14 c2 node n12 p0" transform="translate(0.0 6.90738)"><g class="a12 leaf node n7 p0 sample" transform="translate(-7.5 9.63407)"><path class="edge" d="M 0 0 V -9.63407 H 7.5" /><rect class="sym" height="6" width="6" x="-3" y="-3" /><text class="lab" transform="translate(0 11)">7</text></g><g class="a12 leaf node n9 p0 sample" transform="translate(7.5 9.63407)"><path class="edge" d="M 0 0 V -9.63407 H -7.5" /><rect class="sym" height="6" width="6" x="-3" y="-3" /><text class="lab" transform="translate(0 11)">9</text></g><path class="edge" d="M 0 0 V -6.90738 H 0.0" /><circle class="sym" cx="0" cy="0" r="3" /><text class="lab lft" transform="translate(-3 -7.0)">12</text></g><path class="edge" d="M 0 0 V -31.0288 H -15" /><circle class="sym" cx="0" cy="0" r="3" /><text class="lab rgt" transform="translate(3 -7.0)">14</text></g><path class="edge" d="M 0 0 V -47.0298 H -39.375" /><circle class="sym" cx="0" cy="0" r="3" /><text class="lab rgt" transform="translate(3 -7.0)">23</text></g><g class="a27 c2 node n26 p0" transform="translate(-39.375 13.335)"><g class="a26 c2 node n22 p0" transform="translate(-22.5 37.9081)"><g class="a22 c1 node n20 p0" transform="translate(-11.25 11.0122)"><g class="a20 c1 node n16 p0" transform="translate(0.0 13.4679)"><g class="a16 leaf node n0 p0 sample" transform="translate(0.0 18.8767)"><path class="edge" d="M 0 0 V -18.8767 H 0.0" /><rect class="sym" height="6" width="6" x="-3" y="-3" /><text class="lab" transform="translate(0 11)">0</text></g><path class="edge" d="M 0 0 V -13.4679 H 0.0" /><circle class="sym" cx="0" cy="0" r="3" /><text class="lab lft" transform="translate(-3 -7.0)">16</text></g><path class="edge" d="M 0 0 V -11.0122 H 11.25" /><circle class="sym" cx="0" cy="0" r="3" /><text class="lab lft" transform="translate(-3 -7.0)">20</text></g><g class="a22 c2 node n21 p0" transform="translate(11.25 6.44725)"><g class="a21 leaf node n6 p0 sample" transform="translate(7.5 36.9096)"><path class="edge" d="M 0 0 V -36.9096 H -7.5" /><rect class="sym" height="6" width="6" x="-3" y="-3" /><text class="lab" transform="translate(0 11)">6</text></g><g class="a21 c1 node n19 p0" transform="translate(-7.5 11.5747)"><g class="a19 c1 node n11 p0" transform="translate(0.0 24.8977)"><g class="a11 leaf node n1 p0 sample" transform="translate(0.0 0.437204)"><path class="edge" d="M 0 0 V -0.437204 H 0.0" /><rect class="sym" height="6" width="6" x="-3" y="-3" /><text class="lab" transform="translate(0 11)">1</text></g><path class="edge" d="M 0 0 V -24.8977 H 0.0" /><circle class="sym" cx="0" cy="0" r="3" /><text class="lab lft" transform="translate(-3 -7.0)">11</text></g><path class="edge" d="M 0 0 V -11.5747 H 7.5" /><circle class="sym" cx="0" cy="0" r="3" /><text class="lab lft" transform="translate(-3 -7.0)">19</text></g><path class="edge" d="M 0 0 V -6.44725 H -11.25" /><circle class="sym" cx="0" cy="0" r="3" /><text class="lab rgt" transform="translate(3 -7.0)">21</text></g><path class="edge" d="M 0 0 V -37.9081 H 22.5" /><circle class="sym" cx="0" cy="0" r="3" /><text class="lab lft" transform="translate(-3 -7.0)">22</text></g><g class="a26 c1 node n25 p0" transform="translate(22.5 9.66448)"><g class="a25 c2 node n24 p0" transform="translate(0.0 5.54648)"><g class="a24 leaf node n3 p0 sample" transform="translate(-11.25 66.054)"><path class="edge" d="M 0 0 V -66.054 H 11.25" /><rect class="sym" height="6" width="6" x="-3" y="-3" /><text class="lab" transform="translate(0 11)">3</text></g><g class="a24 c2 node n15 p0" transform="translate(11.25 47.4858)"><g class="a15 leaf node n4 p0 sample" transform="translate(-7.5 18.5683)"><path class="edge" d="M 0 0 V -18.5683 H 7.5" /><rect class="sym" height="6" width="6" x="-3" y="-3" /><text class="lab" transform="translate(0 11)">4</text></g><g class="a15 leaf node n5 p0 sample" transform="translate(7.5 18.5683)"><path class="edge" d="M 0 0 V -18.5683 H -7.5" /><rect class="sym" height="6" width="6" x="-3" y="-3" /><text class="lab" transform="translate(0 11)">5</text></g><path class="edge" d="M 0 0 V -47.4858 H -11.25" /><circle class="sym" cx="0" cy="0" r="3" /><text class="lab rgt" transform="translate(3 -7.0)">15</text></g><path class="edge" d="M 0 0 V -5.54648 H 0.0" /><circle class="sym" cx="0" cy="0" r="3" /><text class="lab lft" transform="translate(-3 -7.0)">24</text></g><path class="edge" d="M 0 0 V -9.66448 H -22.5" /><circle class="sym" cx="0" cy="0" r="3" /><text class="lab rgt" transform="translate(3 -7.0)">25</text></g><path class="edge" d="M 0 0 V -13.335 H 39.375" /><circle class="sym" cx="0" cy="0" r="3" /><text class="lab lft" transform="translate(-3 -7.0)">26</text></g><circle class="sym" cx="0" cy="0" r="3" /><text class="lab" transform="translate(0 -11)">27</text></g></g></g></g></g></svg>
