<svg baseProfile="full" height="200" version="1.1" width="1200" xmlns="http://www.w3.org/2000/svg" xmlns:ev="http://www.w3.org/2001/xml-events" xmlns:xlink="http://www.w3.org/1999/xlink"><defs><style type="text/css"><![CDATA[.background path {fill: #808080; fill-opacity: 0}.background path:nth-child(odd) {fill-opacity: .1}.axes {font-size: 14px}.x-axis .tick .lab {font-weight: bold; dominant-baseline: hanging}.axes, .tree {font-size: 14px; text-anchor: middle}.axes line, .edge {stroke: black; fill: none}.y-axis .grid {stroke: #FAFAFA}.node > .sym {fill: black; stroke: none}.site > .sym {stroke: black}.mut text {fill: red; font-style: italic}.mut.extra text {fill: hotpink}.mut line {fill: none; stroke: none}.mut .sym {fill: none; stroke: red}.mut.extra .sym {stroke: hotpink}.node .mut .sym {stroke-width: 1.5px}.tree text, .tree-sequence text {dominant-baseline: central}.plotbox .lab.lft {text-anchor: end}.plotbox .lab.rgt {text-anchor: start}]]></style></defs><g class="tree-sequence"><g class="background"><path d="M20,0 l193.333,0 l0,138.2 l-80.0721,25 l0,5 l-113.261,0 l0,-5 l0,-25 l0,-138.2z" /><path d="M213.333,0 l193.333,0 l0,138.2 l78.9749,25 l0,5 l-352.38,0 l0,-5 l80.0721,-25 l0,-138.2z" /><path d="M406.667,0 l193.333,0 l0,138.2 l85.6118,25 l0,5 l-199.97,0 l0,-5 l-78.9749,-25 l0,-138.2z" /><path d="M600,0 l193.333,0 l0,138.2 l224.184,25 l0,5 l-331.906,0 l0,-5 l-85.6118,-25 l0,-138.2z" /><path d="M793.333,0 l193.333,0 l0,138.2 l63.5351,25 l0,5 l-32.6844,0 l0,-5 l-224.184,-25 l0,-138.2z" /><path d="M986.667,0 l193.333,0 l0,138.2 l0,25 l0,5 l-129.798,0 l0,-5 l-63.5351,-25 l0,-138.2z" /></g><g class="axes"><g class="x-axis"><g transform="translate(600 200)"><text class="lab" text-anchor="middle" transform="translate(0 -11)">Genome position</text></g><line x1="20" x2="1180" y1="163.2" y2="163.2" /><g class="ticks"><g class="tick" transform="translate(20 163.2)"><line x1="0" x2="0" y1="0" y2="5" /><g transform="translate(0 6)"><text class="lab">0.00</text></g></g><g class="tick" transform="translate(133.261 163.2)"><line x1="0" x2="0" y1="0" y2="5" /><g transform="translate(0 6)"><text class="lab">97.64</text></g></g><g class="tick" transform="translate(485.642 163.2)"><line x1="0" x2="0" y1="0" y2="5" /><g transform="translate(0 6)"><text class="lab">401.42</text></g></g><g class="tick" transform="translate(685.612 163.2)"><line x1="0" x2="0" y1="0" y2="5" /><g transform="translate(0 6)"><text class="lab">573.80</text></g></g><g class="tick" transform="translate(1017.52 163.2)"><line x1="0" x2="0" y1="0" y2="5" /><g transform="translate(0 6)"><text class="lab">859.93</text></g></g><g class="tick" transform="translate(1050.2 163.2)"><line x1="0" x2="0" y1="0" y2="5" /><g transform="translate(0 6)"><text class="lab">888.11</text></g></g><g class="tick" transform="translate(1180 163.2)"><line x1="0" x2="0" y1="0" y2="5" /><g transform="translate(0 6)"><text class="lab">1000.00</text></g></g></g></g></g><g class="plotbox trees"><g class="tree t0" transform="translate(20 0)"><g class="plotbox"><g class="c2 node n33 p0 root" transform="translate(78.9375 26.8)"><g class="a33 c1 node n30 p0" transform="translate(-39.7708 52.0265)"><g class="a30 c2 node n27 p0" transform="translate(0.0 8.93963)"><g class="a27 leaf node n0 p0 sample" transform="translate(-11.5 33.6339)"><path class="edge" d="M 0 0 V -33.6339 H 11.5" /><rect class="sym" height="6" width="6" x="-3" y="-3" /><text class="lab" transform="translate(0 11)">0</text></g><g class="a27 c1 node n21 p0" transform="translate(11.5 7.94588)"><g class="a21 c2 node n11 p0" transform="translate(0.0 18.25)"><g class="a11 leaf node n3 p0 sample" transform="translate(-7.66667 7.43799)"><path class="edge" d="M 0 0 V -7.43799 H 7.66667" /><rect class="sym" height="6" width="6" x="-3" y="-3" /><text class="lab" transform="translate(0 11)">3</text></g><g class="a11 leaf node n9 p0 sample" transform="translate(7.66667 7.43799)"><path class="edge" d="M 0 0 V -7.43799 H -7.66667" /><rect class="sym" height="6" width="6" x="-3" y="-3" /><text class="lab" transform="translate(0 11)">9</text></g><path class="edge" d="M 0 0 V -18.25 H 0.0" /><circle class="sym" cx="0" cy="0" r="3" /><text class="lab lft" transform="translate(-3 -7.0)">11</text></g><path class="edge" d="M 0 0 V -7.94588 H -11.5" /><circle class="sym" cx="0" cy="0" r="3" /><text class="lab rgt" transform="translate(3 -7.0)">21</text></g><path class="edge" d="M 0 0 V -8.93963 H 0.0" /><circle class="sym" cx="0" cy="0" r="3" /><text class="lab lft" transform="translate(-3 -7.0)">27</text></g><path class="edge" d="M 0 0 V -52.0265 H 39.7708" /><circle class="sym" cx="0" cy="0" r="3" /><text class="lab lft" transform="translate(-3 -7.0)">30</text></g><g class="a33 c2 node n32 p0" transform="translate(39.7708 34.6244)"><g class="a32 c1 node n28 p0" transform="translate(33.5417 25.1133)"><g class="a28 c2 node n20 p0" transform="translate(0.0 10.7143)"><g class="a20 c1 node n16 p0" transform="translate(13.4167 2.90308)"><g class="a16 leaf node n7 p0 sample" transform="translate(0.0 21.245)"><path class="edge" d="M 0 0 V -21.245 H 0.0" /><rect class="sym" height="6" width="6" x="-3" y="-3" /><text class="lab" transform="translate(0 11)">7</text></g><path class="edge" d="M 0 0 V -2.90308 H -13.4167" /><circle class="sym" cx="0" cy="0" r="3" /><text class="lab rgt" transform="translate(3 -7.0)">16</text></g><g class="a20 c1 node n18 p0" transform="translate(-13.4167 1.89225)"><g class="a18 c2 node n15 p0" transform="translate(0.0 1.54296)"><g class="a15 leaf node n8 p0 sample" transform="translate(11.5 20.7129)"><path class="edge" d="M 0 0 V -20.7129 H -11.5" /><rect class="sym" height="6" width="6" x="-3" y="-3" /><text class="lab" transform="translate(0 11)">8</text></g><g class="a15 c2 node n10 p0" transform="translate(-11.5 18.9298)"><g class="a10 leaf node n4 p0 sample" transform="translate(-7.66667 1.7831)"><path class="edge" d="M 0 0 V -1.7831 H 7.66667" /><rect class="sym" height="6" width="6" x="-3" y="-3" /><text class="lab" transform="translate(0 11)">4</text></g><g class="a10 leaf node n6 p0 sample" transform="translate(7.66667 1.7831)"><path class="edge" d="M 0 0 V -1.7831 H -7.66667" /><rect class="sym" height="6" width="6" x="-3" y="-3" /><text class="lab" transform="translate(0 11)">6</text></g><path class="edge" d="M 0 0 V -18.9298 H 11.5" /><circle class="sym" cx="0" cy="0" r="3" /><text class="lab lft" transform="translate(-3 -7.0)">10</text></g><path class="edge" d="M 0 0 V -1.54296 H 0.0" /><circle class="sym" cx="0" cy="0" r="3" /><text class="lab lft" transform="translate(-3 -7.0)">15</text></g><path class="edge" d="M 0 0 V -1.89225 H 13.4167" /><circle class="sym" cx="0" cy="0" r="3" /><text class="lab lft" transform="translate(-3 -7.0)">18</text></g><path class="edge" d="M 0 0 V -10.7143 H 0.0" /><circle class="sym" cx="0" cy="0" r="3" /><text class="lab lft" transform="translate(-3 -7.0)">20</text></g><path class="edge" d="M 0 0 V -25.1133 H -33.5417" /><circle class="sym" cx="0" cy="0" r="3" /><text class="lab rgt" transform="translate(3 -7.0)">28</text></g><g class="a32 c1 node n31 p0" transform="translate(-33.5417 5.83902)"><g class="a31 c1 node n29 p0" transform="translate(0.0 15.2203)"><g class="a29 c2 node n23 p0" transform="translate(0.0 11.2107)"><g class="a23 leaf node n1 p0 sample" transform="translate(-11.5 27.7055)"><path class="edge" d="M 0 0 V -27.7055 H 11.5" /><rect class="sym" height="6" width="6" x="-3" y="-3" /><text class="lab" transform="translate(0 11)">1</text></g><g class="a23 c1 node n13 p0" transform="translate(11.5 15.8095)"><g class="a13 c2 node n12 p0" transform="translate(0.0 2.48456)"><g class="a12 leaf node n2 p0 sample" transform="translate(-7.66667 9.41152)"><path class="edge" d="M 0 0 V -9.41152 H 7.66667" /><rect class="sym" height="6" width="6" x="-3" y="-3" /><text class="lab" transform="translate(0 11)">2</text></g><g class="a12 leaf node n5 p0 sample" transform="translate(7.66667 9.41152)"><path class="edge" d="M 0 0 V -9.41152 H -7.66667" /><rect class="sym" height="6" width="6" x="-3" y="-3" /><text class="lab" transform="translate(0 11)">5</text></g><path class="edge" d="M 0 0 V -2.48456 H 0.0" /><circle class="sym" cx="0" cy="0" r="3" /><text class="lab lft" transform="translate(-3 -7.0)">12</text></g><path class="edge" d="M 0 0 V -15.8095 H -11.5" /><circle class="sym" cx="0" cy="0" r="3" /><text class="lab rgt" transform="translate(3 -7.0)">13</text></g><path class="edge" d="M 0 0 V -11.2107 H 0.0" /><circle class="sym" cx="0" cy="0" r="3" /><text class="lab lft" transform="translate(-3 -7.0)">23</text></g><path class="edge" d="M 0 0 V -15.2203 H 0.0" /><circle class="sym" cx="0" cy="0" r="3" /><text class="lab lft" transform="translate(-3 -7.0)">29</text></g><path class="edge" d="M 0 0 V -5.83902 H 33.5417" /><circle class="sym" cx="0" cy="0" r="3" /><text class="lab lft" transform="translate(-3 -7.0)">31</text></g><path class="edge" d="M 0 0 V -34.6244 H -39.7708" /><circle class="sym" cx="0" cy="0" r="3" /><text class="lab rgt" transform="translate(3 -7.0)">32</text></g><circle class="sym" cx="0" cy="0" r="3" /><text class="lab" transform="translate(0 -11)">33</text></g></g></g><g class="tree t1" transform="translate(213.333 0)"><g class="plotbox"><g class="c2 node n33 p0 root" transform="translate(89 26.8)"><g class="a33 c1 node n30 p0" transform="translate(-49.8333 52.0265)"><g class="a30 c2 node n27 p0" transform="translate(0.0 8.93963)"><g class="a27 leaf node n0 p0 sample" transform="translate(-11.5 33.6339)"><path class="edge" d="M 0 0 V -33.6339 H 11.5" /><rect class="sym" height="6" width="6" x="-3" y="-3" /><text class="lab" transform="translate(0 11)">0</text></g><g class="a27 c1 node n21 p0" transform="translate(11.5 7.94588)"><g class="a21 c2 node n11 p0" transform="translate(0.0 18.25)"><g class="a11 leaf node n3 p0 sample" transform="translate(-7.66667 7.43799)"><path class="edge" d="M 0 0 V -7.43799 H 7.66667" /><rect class="sym" height="6" width="6" x="-3" y="-3" /><text class="lab" transform="translate(0 11)">3</text></g><g class="a11 leaf node n9 p0 sample" transform="translate(7.66667 7.43799)"><path class="edge" d="M 0 0 V -7.43799 H -7.66667" /><rect class="sym" height="6" width="6" x="-3" y="-3" /><text class="lab" transform="translate(0 11)">9</text></g><path class="edge" d="M 0 0 V -18.25 H 0.0" /><circle class="sym" cx="0" cy="0" r="3" /><text class="lab lft" transform="translate(-3 -7.0)">11</text></g><path class="edge" d="M 0 0 V -7.94588 H -11.5" /><circle class="sym" cx="0" cy="0" r="3" /><text class="lab rgt" transform="translate(3 -7.0)">21</text></g><path class="edge" d="M 0 0 V -8.93963 H 0.0" /><circle class="sym" cx="0" cy="0" r="3" /><text class="lab lft" transform="translate(-3 -7.0)">27</text></g><path class="edge" d="M 0 0 V -52.0265 H 49.8333" /><circle class="sym" cx="0" cy="0" r="3" /><text class="lab lft" transform="translate(-3 -7.0)">30</text></g><g class="a33 c2 node n32 p0" transform="translate(49.8333 34.6244)"><g class="a32 c1 node n28 p0" transform="translate(26.8333 25.1133)"><g class="a28 c1 node n20 p0" transform="translate(0.0 10.7143)"><g class="a20 c1 node n16 p0" transform="translate(0.0 2.90308)"><g class="a16 leaf node n7 p0 sample" transform="translate(0.0 21.245)"><path class="edge" d="M 0 0 V -21.245 H 0.0" /><rect class="sym" height="6" width="6" x="-3" y="-3" /><text class="lab" transform="translate(0 11)">7</text></g><path class="edge" d="M 0 0 V -2.90308 H 0.0" /><circle class="sym" cx="0" cy="0" r="3" /><text class="lab lft" transform="translate(-3 -7.0)">16</text></g><path class="edge" d="M 0 0 V -10.7143 H 0.0" /><circle class="sym" cx="0" cy="0" r="3" /><text class="lab lft" transform="translate(-3 -7.0)">20</text></g><path class="edge" d="M 0 0 V -25.1133 H -26.8333" /><circle class="sym" cx="0" cy="0" r="3" /><text class="lab rgt" transform="translate(3 -7.0)">28</text></g><g class="a32 c2 node n31 p0" transform="translate(-26.8333 5.83902)"><g class="a31 c1 node n29 p0" transform="translate(-26.8333 15.2203)"><g class="a29 c2 node n23 p0" transform="translate(0.0 11.2107)"><g class="a23 leaf node n1 p0 sample" transform="translate(-11.5 27.7055)"><path class="edge" d="M 0 0 V -27.7055 H 11.5" /><rect class="sym" height="6" width="6" x="-3" y="-3" /><text class="lab" transform="translate(0 11)">1</text></g><g class="a23 c1 node n13 p0" transform="translate(11.5 15.8095)"><g class="a13 c2 node n12 p0" transform="translate(0.0 2.48456)"><g class="a12 leaf node n2 p0 sample" transform="translate(-7.66667 9.41152)"><path class="edge" d="M 0 0 V -9.41152 H 7.66667" /><rect class="sym" height="6" width="6" x="-3" y="-3" /><text class="lab" transform="translate(0 11)">2</text></g><g class="a12 leaf node n5 p0 sample" transform="translate(7.66667 9.41152)"><path class="edge" d="M 0 0 V -9.41152 H -7.66667" /><rect class="sym" height="6" width="6" x="-3" y="-3" /><text class="lab" transform="translate(0 11)">5</text></g><path class="edge" d="M 0 0 V -2.48456 H 0.0" /><circle class="sym" cx="0" cy="0" r="3" /><text class="lab lft" transform="translate(-3 -7.0)">12</text></g><path class="edge" d="M 0 0 V -15.8095 H -11.5" /><circle class="sym" cx="0" cy="0" r="3" /><text class="lab rgt" transform="translate(3 -7.0)">13</text></g><path class="edge" d="M 0 0 V -11.2107 H 0.0" /><circle class="sym" cx="0" cy="0" r="3" /><text class="lab lft" transform="translate(-3 -7.0)">23</text></g><path class="edge" d="M 0 0 V -15.2203 H 26.8333" /><circle class="sym" cx="0" cy="0" r="3" /><text class="lab lft" transform="translate(-3 -7.0)">29</text></g><g class="a31 c1 node n24 p0" transform="translate(26.8333 24.7211)"><g class="a24 c1 node n19 p0" transform="translate(0.0 7.15967)"><g class="a19 c2 node n15 p0" transform="translate(0.0 1.54296)"><g class="a15 leaf node n8 p0 sample" transform="translate(11.5 20.7129)"><path class="edge" d="M 0 0 V -20.7129 H -11.5" /><rect class="sym" height="6" width="6" x="-3" y="-3" /><text class="lab" transform="translate(0 11)">8</text></g><g class="a15 c2 node n10 p0" transform="translate(-11.5 18.9298)"><g class="a10 leaf node n4 p0 sample" transform="translate(-7.66667 1.7831)"><path class="edge" d="M 0 0 V -1.7831 H 7.66667" /><rect class="sym" height="6" width="6" x="-3" y="-3" /><text class="lab" transform="translate(0 11)">4</text></g><g class="a10 leaf node n6 p0 sample" transform="translate(7.66667 1.7831)"><path class="edge" d="M 0 0 V -1.7831 H -7.66667" /><rect class="sym" height="6" width="6" x="-3" y="-3" /><text class="lab" transform="translate(0 11)">6</text></g><path class="edge" d="M 0 0 V -18.9298 H 11.5" /><circle class="sym" cx="0" cy="0" r="3" /><text class="lab lft" transform="translate(-3 -7.0)">10</text></g><path class="edge" d="M 0 0 V -1.54296 H 0.0" /><circle class="sym" cx="0" cy="0" r="3" /><text class="lab lft" transform="translate(-3 -7.0)">15</text></g><path class="edge" d="M 0 0 V -7.15967 H 0.0" /><circle class="sym" cx="0" cy="0" r="3" /><text class="lab lft" transform="translate(-3 -7.0)">19</text></g><path class="edge" d="M 0 0 V -24.7211 H -26.8333" /><circle class="sym" cx="0" cy="0" r="3" /><text class="lab rgt" transform="translate(3 -7.0)">24</text></g><path class="edge" d="M 0 0 V -5.83902 H 26.8333" /><circle class="sym" cx="0" cy="0" r="3" /><text class="lab lft" transform="translate(-3 -7.0)">31</text></g><path class="edge" d="M 0 0 V -34.6244 H -49.8333" /><circle class="sym" cx="0" cy="0" r="3" /><text class="lab rgt" transform="translate(3 -7.0)">32</text></g><circle class="sym" cx="0" cy="0" r="3" /><text class="lab" transform="translate(0 -11)">33</text></g></g></g><g class="tree t2" transform="translate(406.667 0)"><g class="plotbox"><g class="c2 node n33 p0 root" transform="translate(83.7292 26.8)"><g class="a33 c1 node n30 p0" transform="translate(-44.5625 52.0265)"><g class="a30 c2 node n27 p0" transform="translate(0.0 8.93963)"><g class="a27 leaf node n0 p0 sample" transform="translate(-11.5 33.6339)"><path class="edge" d="M 0 0 V -33.6339 H 11.5" /><rect class="sym" height="6" width="6" x="-3" y="-3" /><text class="lab" transform="translate(0 11)">0</text></g><g class="a27 c1 node n21 p0" transform="translate(11.5 7.94588)"><g class="a21 c2 node n11 p0" transform="translate(0.0 18.25)"><g class="a11 leaf node n3 p0 sample" transform="translate(-7.66667 7.43799)"><path class="edge" d="M 0 0 V -7.43799 H 7.66667" /><rect class="sym" height="6" width="6" x="-3" y="-3" /><text class="lab" transform="translate(0 11)">3</text></g><g class="a11 leaf node n9 p0 sample" transform="translate(7.66667 7.43799)"><path class="edge" d="M 0 0 V -7.43799 H -7.66667" /><rect class="sym" height="6" width="6" x="-3" y="-3" /><text class="lab" transform="translate(0 11)">9</text></g><path class="edge" d="M 0 0 V -18.25 H 0.0" /><circle class="sym" cx="0" cy="0" r="3" /><text class="lab lft" transform="translate(-3 -7.0)">11</text></g><path class="edge" d="M 0 0 V -7.94588 H -11.5" /><circle class="sym" cx="0" cy="0" r="3" /><text class="lab rgt" transform="translate(3 -7.0)">21</text></g><path class="edge" d="M 0 0 V -8.93963 H 0.0" /><circle class="sym" cx="0" cy="0" r="3" /><text class="lab lft" transform="translate(-3 -7.0)">27</text></g><path class="edge" d="M 0 0 V -52.0265 H 44.5625" /><circle class="sym" cx="0" cy="0" r="3" /><text class="lab lft" transform="translate(-3 -7.0)">30</text></g><g class="a33 c1 node n32 p0" transform="translate(44.5625 34.6244)"><g class="a32 c2 node n31 p0" transform="translate(0.0 5.83902)"><g class="a31 c2 node n29 p0" transform="translate(-25.875 15.2203)"><g class="a29 c2 node n23 p0" transform="translate(-17.25 11.2107)"><g class="a23 leaf node n1 p0 sample" transform="translate(-11.5 27.7055)"><path class="edge" d="M 0 0 V -27.7055 H 11.5" /><rect class="sym" height="6" width="6" x="-3" y="-3" /><text class="lab" transform="translate(0 11)">1</text></g><g class="a23 c1 node n13 p0" transform="translate(11.5 15.8095)"><g class="a13 c2 node n12 p0" transform="translate(0.0 2.48456)"><g class="a12 leaf node n2 p0 sample" transform="translate(-7.66667 9.41152)"><path class="edge" d="M 0 0 V -9.41152 H 7.66667" /><rect class="sym" height="6" width="6" x="-3" y="-3" /><text class="lab" transform="translate(0 11)">2</text></g><g class="a12 leaf node n5 p0 sample" transform="translate(7.66667 9.41152)"><path class="edge" d="M 0 0 V -9.41152 H -7.66667" /><rect class="sym" height="6" width="6" x="-3" y="-3" /><text class="lab" transform="translate(0 11)">5</text></g><path class="edge" d="M 0 0 V -2.48456 H 0.0" /><circle class="sym" cx="0" cy="0" r="3" /><text class="lab lft" transform="translate(-3 -7.0)">12</text></g><path class="edge" d="M 0 0 V -15.8095 H -11.5" /><circle class="sym" cx="0" cy="0" r="3" /><text class="lab rgt" transform="translate(3 -7.0)">13</text></g><path class="edge" d="M 0 0 V -11.2107 H 17.25" /><circle class="sym" cx="0" cy="0" r="3" /><text class="lab lft" transform="translate(-3 -7.0)">23</text></g><g class="a29 c1 node n26 p0" transform="translate(17.25 7.70377)"><g class="a26 c1 node n17 p0" transform="translate(0.0 9.9675)"><g class="a17 leaf node n7 p0 sample" transform="translate(0.0 21.245)"><path class="edge" d="M 0 0 V -21.245 H 0.0" /><rect class="sym" height="6" width="6" x="-3" y="-3" /><text class="lab" transform="translate(0 11)">7</text></g><path class="edge" d="M 0 0 V -9.9675 H 0.0" /><circle class="sym" cx="0" cy="0" r="3" /><text class="lab lft" transform="translate(-3 -7.0)">17</text></g><path class="edge" d="M 0 0 V -7.70377 H -17.25" /><circle class="sym" cx="0" cy="0" r="3" /><text class="lab rgt" transform="translate(3 -7.0)">26</text></g><path class="edge" d="M 0 0 V -15.2203 H 25.875" /><circle class="sym" cx="0" cy="0" r="3" /><text class="lab lft" transform="translate(-3 -7.0)">29</text></g><g class="a31 c1 node n24 p0" transform="translate(25.875 24.7211)"><g class="a24 c1 node n19 p0" transform="translate(0.0 7.15967)"><g class="a19 c2 node n15 p0" transform="translate(0.0 1.54296)"><g class="a15 leaf node n8 p0 sample" transform="translate(11.5 20.7129)"><path class="edge" d="M 0 0 V -20.7129 H -11.5" /><rect class="sym" height="6" width="6" x="-3" y="-3" /><text class="lab" transform="translate(0 11)">8</text></g><g class="a15 c2 node n10 p0" transform="translate(-11.5 18.9298)"><g class="a10 leaf node n4 p0 sample" transform="translate(-7.66667 1.7831)"><path class="edge" d="M 0 0 V -1.7831 H 7.66667" /><rect class="sym" height="6" width="6" x="-3" y="-3" /><text class="lab" transform="translate(0 11)">4</text></g><g class="a10 leaf node n6 p0 sample" transform="translate(7.66667 1.7831)"><path class="edge" d="M 0 0 V -1.7831 H -7.66667" /><rect class="sym" height="6" width="6" x="-3" y="-3" /><text class="lab" transform="translate(0 11)">6</text></g><path class="edge" d="M 0 0 V -18.9298 H 11.5" /><circle class="sym" cx="0" cy="0" r="3" /><text class="lab lft" transform="translate(-3 -7.0)">10</text></g><path class="edge" d="M 0 0 V -1.54296 H 0.0" /><circle class="sym" cx="0" cy="0" r="3" /><text class="lab lft" transform="translate(-3 -7.0)">15</text></g><path class="edge" d="M 0 0 V -7.15967 H 0.0" /><circle class="sym" cx="0" cy="0" r="3" /><text class="lab lft" transform="translate(-3 -7.0)">19</text></g><path class="edge" d="M 0 0 V -24.7211 H -25.875" /><circle class="sym" cx="0" cy="0" r="3" /><text class="lab rgt" transform="translate(3 -7.0)">24</text></g><path class="edge" d="M 0 0 V -5.83902 H 0.0" /><circle class="sym" cx="0" cy="0" r="3" /><text class="lab lft" transform="translate(-3 -7.0)">31</text></g><path class="edge" d="M 0 0 V -34.6244 H -44.5625" /><circle class="sym" cx="0" cy="0" r="3" /><text class="lab rgt" transform="translate(3 -7.0)">32</text></g><circle class="sym" cx="0" cy="0" r="3" /><text class="lab" transform="translate(0 -11)">33</text></g></g></g><g class="tree t3" transform="translate(600 0)"><g class="plotbox"><g class="c2 node n33 p0 root" transform="translate(72.7083 26.8)"><g class="a33 c1 node n30 p0" transform="translate(-45.0417 52.0265)"><g class="a30 c1 node n27 p0" transform="translate(0.0 8.93963)"><g class="a27 leaf node n0 p0 sample" transform="translate(0.0 33.6339)"><path class="edge" d="M 0 0 V -33.6339 H 0.0" /><rect class="sym" height="6" width="6" x="-3" y="-3" /><text class="lab" transform="translate(0 11)">0</text></g><path class="edge" d="M 0 0 V -8.93963 H 0.0" /><circle class="sym" cx="0" cy="0" r="3" /><text class="lab lft" transform="translate(-3 -7.0)">27</text></g><path class="edge" d="M 0 0 V -52.0265 H 45.0417" /><circle class="sym" cx="0" cy="0" r="3" /><text class="lab lft" transform="translate(-3 -7.0)">30</text></g><g class="a33 c1 node n32 p0" transform="translate(45.0417 34.6244)"><g class="a32 c2 node n31 p0" transform="translate(0.0 5.83902)"><g class="a31 c2 node n29 p0" transform="translate(-36.4167 15.2203)"><g class="a29 c2 node n23 p0" transform="translate(-26.8333 11.2107)"><g class="a23 leaf node n1 p0 sample" transform="translate(-11.5 27.7055)"><path class="edge" d="M 0 0 V -27.7055 H 11.5" /><rect class="sym" height="6" width="6" x="-3" y="-3" /><text class="lab" transform="translate(0 11)">1</text></g><g class="a23 c1 node n13 p0" transform="translate(11.5 15.8095)"><g class="a13 c2 node n12 p0" transform="translate(0.0 2.48456)"><g class="a12 leaf node n2 p0 sample" transform="translate(-7.66667 9.41152)"><path class="edge" d="M 0 0 V -9.41152 H 7.66667" /><rect class="sym" height="6" width="6" x="-3" y="-3" /><text class="lab" transform="translate(0 11)">2</text></g><g class="a12 leaf node n5 p0 sample" transform="translate(7.66667 9.41152)"><path class="edge" d="M 0 0 V -9.41152 H -7.66667" /><rect class="sym" height="6" width="6" x="-3" y="-3" /><text class="lab" transform="translate(0 11)">5</text></g><path class="edge" d="M 0 0 V -2.48456 H 0.0" /><circle class="sym" cx="0" cy="0" r="3" /><text class="lab lft" transform="translate(-3 -7.0)">12</text></g><path class="edge" d="M 0 0 V -15.8095 H -11.5" /><circle class="sym" cx="0" cy="0" r="3" /><text class="lab rgt" transform="translate(3 -7.0)">13</text></g><path class="edge" d="M 0 0 V -11.2107 H 26.8333" /><circle class="sym" cx="0" cy="0" r="3" /><text class="lab lft" transform="translate(-3 -7.0)">23</text></g><g class="a29 c2 node n26 p0" transform="translate(26.8333 7.70377)"><g class="a26 c1 node n17 p0" transform="translate(11.5 9.9675)"><g class="a17 leaf node n7 p0 sample" transform="translate(0.0 21.245)"><path class="edge" d="M 0 0 V -21.245 H 0.0" /><rect class="sym" height="6" width="6" x="-3" y="-3" /><text class="lab" transform="translate(0 11)">7</text></g><path class="edge" d="M 0 0 V -9.9675 H -11.5" /><circle class="sym" cx="0" cy="0" r="3" /><text class="lab rgt" transform="translate(3 -7.0)">17</text></g><g class="a26 c1 node n22 p0" transform="translate(-11.5 5.52449)"><g class="a22 c2 node n11 p0" transform="translate(0.0 18.25)"><g class="a11 leaf node n3 p0 sample" transform="translate(-7.66667 7.43799)"><path class="edge" d="M 0 0 V -7.43799 H 7.66667" /><rect class="sym" height="6" width="6" x="-3" y="-3" /><text class="lab" transform="translate(0 11)">3</text></g><g class="a11 leaf node n9 p0 sample" transform="translate(7.66667 7.43799)"><path class="edge" d="M 0 0 V -7.43799 H -7.66667" /><rect class="sym" height="6" width="6" x="-3" y="-3" /><text class="lab" transform="translate(0 11)">9</text></g><path class="edge" d="M 0 0 V -18.25 H 0.0" /><circle class="sym" cx="0" cy="0" r="3" /><text class="lab lft" transform="translate(-3 -7.0)">11</text></g><path class="edge" d="M 0 0 V -5.52449 H 11.5" /><circle class="sym" cx="0" cy="0" r="3" /><text class="lab lft" transform="translate(-3 -7.0)">22</text></g><path class="edge" d="M 0 0 V -7.70377 H -26.8333" /><circle class="sym" cx="0" cy="0" r="3" /><text class="lab rgt" transform="translate(3 -7.0)">26</text></g><path class="edge" d="M 0 0 V -15.2203 H 36.4167" /><circle class="sym" cx="0" cy="0" r="3" /><text class="lab lft" transform="translate(-3 -7.0)">29</text></g><g class="a31 c1 node n24 p0" transform="translate(36.4167 24.7211)"><g class="a24 c1 node n19 p0" transform="translate(0.0 7.15967)"><g class="a19 c2 node n15 p0" transform="translate(0.0 1.54296)"><g class="a15 leaf node n8 p0 sample" transform="translate(11.5 20.7129)"><path class="edge" d="M 0 0 V -20.7129 H -11.5" /><rect class="sym" height="6" width="6" x="-3" y="-3" /><text class="lab" transform="translate(0 11)">8</text></g><g class="a15 c2 node n10 p0" transform="translate(-11.5 18.9298)"><g class="a10 leaf node n4 p0 sample" transform="translate(-7.66667 1.7831)"><path class="edge" d="M 0 0 V -1.7831 H 7.66667" /><rect class="sym" height="6" width="6" x="-3" y="-3" /><text class="lab" transform="translate(0 11)">4</text></g><g class="a10 leaf node n6 p0 sample" transform="translate(7.66667 1.7831)"><path class="edge" d="M 0 0 V -1.7831 H -7.66667" /><rect class="sym" height="6" width="6" x="-3" y="-3" /><text class="lab" transform="translate(0 11)">6</text></g><path class="edge" d="M 0 0 V -18.9298 H 11.5" /><circle class="sym" cx="0" cy="0" r="3" /><text class="lab lft" transform="translate(-3 -7.0)">10</text></g><path class="edge" d="M 0 0 V -1.54296 H 0.0" /><circle class="sym" cx="0" cy="0" r="3" /><text class="lab lft" transform="translate(-3 -7.0)">15</text></g><path class="edge" d="M 0 0 V -7.15967 H 0.0" /><circle class="sym" cx="0" cy="0" r="3" /><text class="lab lft" transform="translate(-3 -7.0)">19</text></g><path class="edge" d="M 0 0 V -24.7211 H -36.4167" /><circle class="sym" cx="0" cy="0" r="3" /><text class="lab rgt" transform="translate(3 -7.0)">24</text></g><path class="edge" d="M 0 0 V -5.83902 H 0.0" /><circle class="sym" cx="0" cy="0" r="3" /><text class="lab lft" transform="translate(-3 -7.0)">31</text></g><path class="edge" d="M 0 0 V -34.6244 H -45.0417" /><circle class="sym" cx="0" cy="0" r="3" /><text class="lab rgt" transform="translate(3 -7.0)">32</text></g><circle class="sym" cx="0" cy="0" r="3" /><text class="lab" transform="translate(0 -11)">33</text></g></g></g><g class="tree t4" transform="translate(793.333 0)"><g class="plotbox"><g class="c2 node n33 p0 root" transform="translate(86.125 26.8)"><g class="a33 c2 node n30 p0" transform="translate(-41.2083 52.0265)"><g class="a30 c1 node n27 p0" transform="translate(-17.25 8.93963)"><g class="a27 leaf node n0 p0 sample" transform="translate(0.0 33.6339)"><path class="edge" d="M 0 0 V -33.6339 H 0.0" /><rect class="sym" height="6" width="6" x="-3" y="-3" /><text class="lab" transform="translate(0 11)">0</text></g><path class="edge" d="M 0 0 V -8.93963 H 17.25" /><circle class="sym" cx="0" cy="0" r="3" /><text class="lab lft" transform="translate(-3 -7.0)">27</text></g><g class="a30 c1 node n25 p0" transform="translate(17.25 13.158)"><g class="a25 c1 node n19 p0" transform="translate(0.0 7.15967)"><g class="a19 c2 node n15 p0" transform="translate(0.0 1.54296)"><g class="a15 leaf node n8 p0 sample" transform="translate(11.5 20.7129)"><path class="edge" d="M 0 0 V -20.7129 H -11.5" /><rect class="sym" height="6" width="6" x="-3" y="-3" /><text class="lab" transform="translate(0 11)">8</text></g><g class="a15 c2 node n10 p0" transform="translate(-11.5 18.9298)"><g class="a10 leaf node n4 p0 sample" transform="translate(-7.66667 1.7831)"><path class="edge" d="M 0 0 V -1.7831 H 7.66667" /><rect class="sym" height="6" width="6" x="-3" y="-3" /><text class="lab" transform="translate(0 11)">4</text></g><g class="a10 leaf node n6 p0 sample" transform="translate(7.66667 1.7831)"><path class="edge" d="M 0 0 V -1.7831 H -7.66667" /><rect class="sym" height="6" width="6" x="-3" y="-3" /><text class="lab" transform="translate(0 11)">6</text></g><path class="edge" d="M 0 0 V -18.9298 H 11.5" /><circle class="sym" cx="0" cy="0" r="3" /><text class="lab lft" transform="translate(-3 -7.0)">10</text></g><path class="edge" d="M 0 0 V -1.54296 H 0.0" /><circle class="sym" cx="0" cy="0" r="3" /><text class="lab lft" transform="translate(-3 -7.0)">15</text></g><path class="edge" d="M 0 0 V -7.15967 H 0.0" /><circle class="sym" cx="0" cy="0" r="3" /><text class="lab lft" transform="translate(-3 -7.0)">19</text></g><path class="edge" d="M 0 0 V -13.158 H -17.25" /><circle class="sym" cx="0" cy="0" r="3" /><text class="lab rgt" transform="translate(3 -7.0)">25</text></g><path class="edge" d="M 0 0 V -52.0265 H 41.2083" /><circle class="sym" cx="0" cy="0" r="3" /><text class="lab lft" transform="translate(-3 -7.0)">30</text></g><g class="a33 c1 node n32 p0" transform="translate(41.2083 34.6244)"><g class="a32 c1 node n31 p0" transform="translate(0.0 5.83902)"><g class="a31 c2 node n29 p0" transform="translate(0.0 15.2203)"><g class="a29 c2 node n23 p0" transform="translate(-26.8333 11.2107)"><g class="a23 leaf node n1 p0 sample" transform="translate(-11.5 27.7055)"><path class="edge" d="M 0 0 V -27.7055 H 11.5" /><rect class="sym" height="6" width="6" x="-3" y="-3" /><text class="lab" transform="translate(0 11)">1</text></g><g class="a23 c1 node n13 p0" transform="translate(11.5 15.8095)"><g class="a13 c2 node n12 p0" transform="translate(0.0 2.48456)"><g class="a12 leaf node n2 p0 sample" transform="translate(-7.66667 9.41152)"><path class="edge" d="M 0 0 V -9.41152 H 7.66667" /><rect class="sym" height="6" width="6" x="-3" y="-3" /><text class="lab" transform="translate(0 11)">2</text></g><g class="a12 leaf node n5 p0 sample" transform="translate(7.66667 9.41152)"><path class="edge" d="M 0 0 V -9.41152 H -7.66667" /><rect class="sym" height="6" width="6" x="-3" y="-3" /><text class="lab" transform="translate(0 11)">5</text></g><path class="edge" d="M 0 0 V -2.48456 H 0.0" /><circle class="sym" cx="0" cy="0" r="3" /><text class="lab lft" transform="translate(-3 -7.0)">12</text></g><path class="edge" d="M 0 0 V -15.8095 H -11.5" /><circle class="sym" cx="0" cy="0" r="3" /><text class="lab rgt" transform="translate(3 -7.0)">13</text></g><path class="edge" d="M 0 0 V -11.2107 H 26.8333" /><circle class="sym" cx="0" cy="0" r="3" /><text class="lab lft" transform="translate(-3 -7.0)">23</text></g><g class="a29 c2 node n26 p0" transform="translate(26.8333 7.70377)"><g class="a26 c1 node n17 p0" transform="translate(11.5 9.9675)"><g class="a17 leaf node n7 p0 sample" transform="translate(0.0 21.245)"><path class="edge" d="M 0 0 V -21.245 H 0.0" /><rect class="sym" height="6" width="6" x="-3" y="-3" /><text class="lab" transform="translate(0 11)">7</text></g><path class="edge" d="M 0 0 V -9.9675 H -11.5" /><circle class="sym" cx="0" cy="0" r="3" /><text class="lab rgt" transform="translate(3 -7.0)">17</text></g><g class="a26 c1 node n22 p0" transform="translate(-11.5 5.52449)"><g class="a22 c2 node n11 p0" transform="translate(0.0 18.25)"><g class="a11 leaf node n3 p0 sample" transform="translate(-7.66667 7.43799)"><path class="edge" d="M 0 0 V -7.43799 H 7.66667" /><rect class="sym" height="6" width="6" x="-3" y="-3" /><text class="lab" transform="translate(0 11)">3</text></g><g class="a11 leaf node n9 p0 sample" transform="translate(7.66667 7.43799)"><path class="edge" d="M 0 0 V -7.43799 H -7.66667" /><rect class="sym" height="6" width="6" x="-3" y="-3" /><text class="lab" transform="translate(0 11)">9</text></g><path class="edge" d="M 0 0 V -18.25 H 0.0" /><circle class="sym" cx="0" cy="0" r="3" /><text class="lab lft" transform="translate(-3 -7.0)">11</text></g><path class="edge" d="M 0 0 V -5.52449 H 11.5" /><circle class="sym" cx="0" cy="0" r="3" /><text class="lab lft" transform="translate(-3 -7.0)">22</text></g><path class="edge" d="M 0 0 V -7.70377 H -26.8333" /><circle class="sym" cx="0" cy="0" r="3" /><text class="lab rgt" transform="translate(3 -7.0)">26</text></g><path class="edge" d="M 0 0 V -15.2203 H 0.0" /><circle class="sym" cx="0" cy="0" r="3" /><text class="lab lft" transform="translate(-3 -7.0)">29</text></g><path class="edge" d="M 0 0 V -5.83902 H 0.0" /><circle class="sym" cx="0" cy="0" r="3" /><text class="lab lft" transform="translate(-3 -7.0)">31</text></g><path class="edge" d="M 0 0 V -34.6244 H -41.2083" /><circle class="sym" cx="0" cy="0" r="3" /><text class="lab rgt" transform="translate(3 -7.0)">32</text></g><circle class="sym" cx="0" cy="0" r="3" /><text class="lab" transform="translate(0 -11)">33</text></g></g></g><g class="tree t5" transform="translate(986.667 0)"><g class="plotbox"><g class="c2 node n33 p0 root" transform="translate(88.5208 26.8)"><g class="a33 c2 node n30 p0" transform="translate(-43.6042 52.0265)"><g class="a30 c1 node n27 p0" transform="translate(-17.25 8.93963)"><g class="a27 leaf node n0 p0 sample" transform="translate(0.0 33.6339)"><path class="edge" d="M 0 0 V -33.6339 H 0.0" /><rect class="sym" height="6" width="6" x="-3" y="-3" /><text class="lab" transform="translate(0 11)">0</text></g><path class="edge" d="M 0 0 V -8.93963 H 17.25" /><circle class="sym" cx="0" cy="0" r="3" /><text class="lab lft" transform="translate(-3 -7.0)">27</text></g><g class="a30 c1 node n25 p0" transform="translate(17.25 13.158)"><g class="a25 c1 node n19 p0" transform="translate(0.0 7.15967)"><g class="a19 c2 node n15 p0" transform="translate(0.0 1.54296)"><g class="a15 leaf node n8 p0 sample" transform="translate(11.5 20.7129)"><path class="edge" d="M 0 0 V -20.7129 H -11.5" /><rect class="sym" height="6" width="6" x="-3" y="-3" /><text class="lab" transform="translate(0 11)">8</text></g><g class="a15 c2 node n10 p0" transform="translate(-11.5 18.9298)"><g class="a10 leaf node n4 p0 sample" transform="translate(-7.66667 1.7831)"><path class="edge" d="M 0 0 V -1.7831 H 7.66667" /><rect class="sym" height="6" width="6" x="-3" y="-3" /><text class="lab" transform="translate(0 11)">4</text></g><g class="a10 leaf node n6 p0 sample" transform="translate(7.66667 1.7831)"><path class="edge" d="M 0 0 V -1.7831 H -7.66667" /><rect class="sym" height="6" width="6" x="-3" y="-3" /><text class="lab" transform="translate(0 11)">6</text></g><path class="edge" d="M 0 0 V -18.9298 H 11.5" /><circle class="sym" cx="0" cy="0" r="3" /><text class="lab lft" transform="translate(-3 -7.0)">10</text></g><path class="edge" d="M 0 0 V -1.54296 H 0.0" /><circle class="sym" cx="0" cy="0" r="3" /><text class="lab lft" transform="translate(-3 -7.0)">15</text></g><path class="edge" d="M 0 0 V -7.15967 H 0.0" /><circle class="sym" cx="0" cy="0" r="3" /><text class="lab lft" transform="translate(-3 -7.0)">19</text></g><path class="edge" d="M 0 0 V -13.158 H -17.25" /><circle class="sym" cx="0" cy="0" r="3" /><text class="lab rgt" transform="translate(3 -7.0)">25</text></g><path class="edge" d="M 0 0 V -52.0265 H 43.6042" /><circle class="sym" cx="0" cy="0" r="3" /><text class="lab lft" transform="translate(-3 -7.0)">30</text></g><g class="a33 c2 node n32 p0" transform="translate(43.6042 34.6244)"><g class="a32 c1 node n31 p0" transform="translate(-25.875 5.83902)"><g class="a31 c2 node n29 p0" transform="translate(0.0 15.2203)"><g class="a29 c1 node n23 p0" transform="translate(-17.25 11.2107)"><g class="a23 leaf node n1 p0 sample" transform="translate(0.0 27.7055)"><path class="edge" d="M 0 0 V -27.7055 H 0.0" /><rect class="sym" height="6" width="6" x="-3" y="-3" /><text class="lab" transform="translate(0 11)">1</text></g><path class="edge" d="M 0 0 V -11.2107 H 17.25" /><circle class="sym" cx="0" cy="0" r="3" /><text class="lab lft" transform="translate(-3 -7.0)">23</text></g><g class="a29 c2 node n26 p0" transform="translate(17.25 7.70377)"><g class="a26 c1 node n17 p0" transform="translate(11.5 9.9675)"><g class="a17 leaf node n7 p0 sample" transform="translate(0.0 21.245)"><path class="edge" d="M 0 0 V -21.245 H 0.0" /><rect class="sym" height="6" width="6" x="-3" y="-3" /><text class="lab" transform="translate(0 11)">7</text></g><path class="edge" d="M 0 0 V -9.9675 H -11.5" /><circle class="sym" cx="0" cy="0" r="3" /><text class="lab rgt" transform="translate(3 -7.0)">17</text></g><g class="a26 c1 node n22 p0" transform="translate(-11.5 5.52449)"><g class="a22 c2 node n11 p0" transform="translate(0.0 18.25)"><g class="a11 leaf node n3 p0 sample" transform="translate(-7.66667 7.43799)"><path class="edge" d="M 0 0 V -7.43799 H 7.66667" /><rect class="sym" height="6" width="6" x="-3" y="-3" /><text class="lab" transform="translate(0 11)">3</text></g><g class="a11 leaf node n9 p0 sample" transform="translate(7.66667 7.43799)"><path class="edge" d="M 0 0 V -7.43799 H -7.66667" /><rect class="sym" height="6" width="6" x="-3" y="-3" /><text class="lab" transform="translate(0 11)">9</text></g><path class="edge" d="M 0 0 V -18.25 H 0.0" /><circle class="sym" cx="0" cy="0" r="3" /><text class="lab lft" transform="translate(-3 -7.0)">11</text></g><path class="edge" d="M 0 0 V -5.52449 H 11.5" /><circle class="sym" cx="0" cy="0" r="3" /><text class="lab lft" transform="translate(-3 -7.0)">22</text></g><path class="edge" d="M 0 0 V -7.70377 H -17.25" /><circle class="sym" cx="0" cy="0" r="3" /><text class="lab rgt" transform="translate(3 -7.0)">26</text></g><path class="edge" d="M 0 0 V -15.2203 H 0.0" /><circle class="sym" cx="0" cy="0" r="3" /><text class="lab lft" transform="translate(-3 -7.0)">29</text></g><path class="edge" d="M 0 0 V -5.83902 H 25.875" /><circle class="sym" cx="0" cy="0" r="3" /><text class="lab lft" transform="translate(-3 -7.0)">31</text></g><g class="a32 c1 node n28 p0" transform="translate(25.875 25.1133)"><g class="a28 c1 node n14 p0" transform="translate(0.0 22.9663)"><g class="a14 c2 node n12 p0" transform="translate(0.0 2.48456)"><g class="a12 leaf node n2 p0 sample" transform="translate(-7.66667 9.41152)"><path class="edge" d="M 0 0 V -9.41152 H 7.66667" /><rect class="sym" height="6" width="6" x="-3" y="-3" /><text class="lab" transform="translate(0 11)">2</text></g><g class="a12 leaf node n5 p0 sample" transform="translate(7.66667 9.41152)"><path class="edge" d="M 0 0 V -9.41152 H -7.66667" /><rect class="sym" height="6" width="6" x="-3" y="-3" /><text class="lab" transform="translate(0 11)">5</text></g><path class="edge" d="M 0 0 V -2.48456 H 0.0" /><circle class="sym" cx="0" cy="0" r="3" /><text class="lab lft" transform="translate(-3 -7.0)">12</text></g><path class="edge" d="M 0 0 V -22.9663 H 0.0" /><circle class="sym" cx="0" cy="0" r="3" /><text class="lab lft" transform="translate(-3 -7.0)">14</text></g><path class="edge" d="M 0 0 V -25.1133 H -25.875" /><circle class="sym" cx="0" cy="0" r="3" /><text class="lab rgt" transform="translate(3 -7.0)">28</text></g><path class="edge" d="M 0 0 V -34.6244 H -43.6042" /><circle class="sym" cx="0" cy="0" r="3" /><text class="lab rgt" transform="translate(3 -7.0)">32</text></g><circle class="sym" cx="0" cy="0" r="3" /><text class="lab" transform="translate(0 -11)">33</text></g></g></g></g></g></svg>
