<svg baseProfile="full" height="200" version="1.1" width="1000" xmlns="http://www.w3.org/2000/svg" xmlns:ev="http://www.w3.org/2001/xml-events" xmlns:xlink="http://www.w3.org/1999/xlink"><defs><style type="text/css"><![CDATA[.background path {fill: #808080; fill-opacity: 0}.background path:nth-child(odd) {fill-opacity: .1}.axes {font-size: 14px}.x-axis .tick .lab {font-weight: bold; dominant-baseline: hanging}.axes, .tree {font-size: 14px; text-anchor: middle}.axes line, .edge {stroke: black; fill: none}.y-axis .grid {stroke: #FAFAFA}.node > .sym {fill: black; stroke: none}.site > .sym {stroke: black}.mut text {fill: red; font-style: italic}.mut.extra text {fill: hotpink}.mut line {fill: none; stroke: none}.mut .sym {fill: none; stroke: red}.mut.extra .sym {stroke: hotpink}.node .mut .sym {stroke-width: 1.5px}.tree text, .tree-sequence text {dominant-baseline: central}.plotbox .lab.lft {text-anchor: end}.plotbox .lab.rgt {text-anchor: start}]]></style></defs><g class="tree-sequence"><g class="background"><path d="M20,0 l192,0 l0,138.2 l-167.695,25 l0,5 l-24.3055,0 l0,-5 l0,-25 l0,-138.2z" /><path d="M212,0 l192,0 l0,138.2 l-324.275,25 l0,5 l-35.4191,0 l0,-5 l167.695,-25 l0,-138.2z" /><path d="M404,0 l192,0 l0,138.2 l-380.011,25 l0,5 l-136.264,0 l0,-5 l324.275,-25 l0,-138.2z" /><path d="M596,0 l192,0 l0,138.2 l-520.87,25 l0,5 l-51.1413,0 l0,-5 l380.011,-25 l0,-138.2z" /><path d="M788,0 l192,0 l0,138.2 l0,25 l0,5 l-712.87,0 l0,-5 l520.87,-25 l0,-138.2z" /></g><g class="axes"><g class="x-axis"><g transform="translate(500 200)"><text class="lab" text-anchor="middle" transform="translate(0 -11)">Genome position</text></g><line x1="20" x2="980" y1="163.2" y2="163.2" /><g class="ticks"><g class="tick" transform="translate(20 163.2)"><line x1="0" x2="0" y1="0" y2="5" /><g transform="translate(0 6)"><text class="lab">0.00</text></g></g><g class="tick" transform="translate(44.3055 163.2)"><line x1="0" x2="0" y1="0" y2="5" /><g transform="translate(0 6)"><text class="lab">25.32</text></g></g><g class="tick" transform="translate(79.7246 163.2)"><line x1="0" x2="0" y1="0" y2="5" /><g transform="translate(0 6)"><text class="lab">62.21</text></g></g><g class="tick" transform="translate(215.989 163.2)"><line x1="0" x2="0" y1="0" y2="5" /><g transform="translate(0 6)"><text class="lab">204.15</text></g></g><g class="tick" transform="translate(267.13 163.2)"><line x1="0" x2="0" y1="0" y2="5" /><g transform="translate(0 6)"><text class="lab">257.43</text></g></g><g class="tick" transform="translate(980 163.2)"><line x1="0" x2="0" y1="0" y2="5" /><g transform="translate(0 6)"><text class="lab">1000.00</text></g></g></g></g></g><g class="plotbox trees"><g class="tree t0" transform="translate(20 0)"><g class="plotbox"><g class="c2 node n30 p0 root" transform="translate(129.488 26.8)"><g class="a30 c1 node n24 p0" transform="translate(27.3125 53.197)"><g class="a24 c2 node n13 p0" transform="translate(0.0 36.2412)"><g class="a13 leaf node n3 p0 sample" transform="translate(-7.6 5.16179)"><path class="edge" d="M 0 0 V -5.16179 H 7.6" /><rect class="sym" height="6" width="6" x="-3" y="-3" /><text class="lab" transform="translate(0 11)">3</text></g><g class="a13 leaf node n9 p0 sample" transform="translate(7.6 5.16179)"><path class="edge" d="M 0 0 V -5.16179 H -7.6" /><rect class="sym" height="6" width="6" x="-3" y="-3" /><text class="lab" transform="translate(0 11)">9</text></g><path class="edge" d="M 0 0 V -36.2412 H 0.0" /><circle class="sym" cx="0" cy="0" r="3" /><text class="lab lft" transform="translate(-3 -7.0)">13</text></g><path class="edge" d="M 0 0 V -53.197 H -27.3125" /><circle class="sym" cx="0" cy="0" r="3" /><text class="lab rgt" transform="translate(3 -7.0)">24</text></g><g class="a30 c2 node n29 p0" transform="translate(-27.3125 36.2555)"><g class="a29 c1 node n15 p0" transform="translate(24.225 45.6018)"><g class="a15 c2 node n10 p0" transform="translate(0.0 9.12483)"><g class="a10 leaf node n7 p0 sample" transform="translate(-7.6 3.61796)"><path class="edge" d="M 0 0 V -3.61796 H 7.6" /><rect class="sym" height="6" width="6" x="-3" y="-3" /><text class="lab" transform="translate(0 11)">7</text></g><g class="a10 leaf node n8 p0 sample" transform="translate(7.6 3.61796)"><path class="edge" d="M 0 0 V -3.61796 H -7.6" /><rect class="sym" height="6" width="6" x="-3" y="-3" /><text class="lab" transform="translate(0 11)">8</text></g><path class="edge" d="M 0 0 V -9.12483 H 0.0" /><circle class="sym" cx="0" cy="0" r="3" /><text class="lab lft" transform="translate(-3 -7.0)">10</text></g><path class="edge" d="M 0 0 V -45.6018 H -24.225" /><circle class="sym" cx="0" cy="0" r="3" /><text class="lab rgt" transform="translate(3 -7.0)">15</text></g><g class="a29 c1 node n28 p0" transform="translate(-24.225 6.07606)"><g class="a28 c2 node n27 p0" transform="translate(0.0 7.05861)"><g class="a27 c2 node n17 p0" transform="translate(18.05 25.6522)"><g class="a17 leaf node n1 p0 sample" transform="translate(-7.6 19.5577)"><path class="edge" d="M 0 0 V -19.5577 H 7.6" /><rect class="sym" height="6" width="6" x="-3" y="-3" /><text class="lab" transform="translate(0 11)">1</text></g><g class="a17 c1 node n11 p0" transform="translate(7.6 15.4275)"><g class="a11 leaf node n2 p0 sample" transform="translate(0.0 4.13015)"><path class="edge" d="M 0 0 V -4.13015 H 0.0" /><rect class="sym" height="6" width="6" x="-3" y="-3" /><text class="lab" transform="translate(0 11)">2</text></g><path class="edge" d="M 0 0 V -15.4275 H -7.6" /><circle class="sym" cx="0" cy="0" r="3" /><text class="lab rgt" transform="translate(3 -7.0)">11</text></g><path class="edge" d="M 0 0 V -25.6522 H -18.05" /><circle class="sym" cx="0" cy="0" r="3" /><text class="lab rgt" transform="translate(3 -7.0)">17</text></g><g class="a27 c2 node n26 p0" transform="translate(-18.05 0.81986)"><g class="a26 c2 node n21 p0" transform="translate(-13.3 19.5881)"><g class="a21 c1 node n18 p0" transform="translate(11.4 3.66266)"><g class="a18 c1 node n14 p0" transform="translate(0.0 11.4048)"><g class="a14 leaf node n4 p0 sample" transform="translate(0.0 9.73442)"><path class="edge" d="M 0 0 V -9.73442 H 0.0" /><rect class="sym" height="6" width="6" x="-3" y="-3" /><text class="lab" transform="translate(0 11)">4</text></g><path class="edge" d="M 0 0 V -11.4048 H 0.0" /><circle class="sym" cx="0" cy="0" r="3" /><text class="lab lft" transform="translate(-3 -7.0)">14</text></g><path class="edge" d="M 0 0 V -3.66266 H -11.4" /><circle class="sym" cx="0" cy="0" r="3" /><text class="lab rgt" transform="translate(3 -7.0)">18</text></g><g class="a21 c2 node n20 p0" transform="translate(-11.4 2.0208)"><g class="a20 leaf node n0 p0 sample" transform="translate(-7.6 22.7811)"><path class="edge" d="M 0 0 V -22.7811 H 7.6" /><rect class="sym" height="6" width="6" x="-3" y="-3" /><text class="lab" transform="translate(0 11)">0</text></g><g class="a20 leaf node n6 p0 sample" transform="translate(7.6 22.7811)"><path class="edge" d="M 0 0 V -22.7811 H -7.6" /><rect class="sym" height="6" width="6" x="-3" y="-3" /><text class="lab" transform="translate(0 11)">6</text></g><path class="edge" d="M 0 0 V -2.0208 H 11.4" /><circle class="sym" cx="0" cy="0" r="3" /><text class="lab lft" transform="translate(-3 -7.0)">20</text></g><path class="edge" d="M 0 0 V -19.5881 H 13.3" /><circle class="sym" cx="0" cy="0" r="3" /><text class="lab lft" transform="translate(-3 -7.0)">21</text></g><g class="a26 c1 node n25 p0" transform="translate(13.3 2.35194)"><g class="a25 leaf node n5 p0 sample" transform="translate(0.0 42.0381)"><path class="edge" d="M 0 0 V -42.0381 H 0.0" /><rect class="sym" height="6" width="6" x="-3" y="-3" /><text class="lab" transform="translate(0 11)">5</text></g><path class="edge" d="M 0 0 V -2.35194 H -13.3" /><circle class="sym" cx="0" cy="0" r="3" /><text class="lab rgt" transform="translate(3 -7.0)">25</text></g><path class="edge" d="M 0 0 V -0.81986 H 18.05" /><circle class="sym" cx="0" cy="0" r="3" /><text class="lab lft" transform="translate(-3 -7.0)">26</text></g><path class="edge" d="M 0 0 V -7.05861 H 0.0" /><circle class="sym" cx="0" cy="0" r="3" /><text class="lab lft" transform="translate(-3 -7.0)">27</text></g><path class="edge" d="M 0 0 V -6.07606 H 24.225" /><circle class="sym" cx="0" cy="0" r="3" /><text class="lab lft" transform="translate(-3 -7.0)">28</text></g><path class="edge" d="M 0 0 V -36.2555 H 27.3125" /><circle class="sym" cx="0" cy="0" r="3" /><text class="lab lft" transform="translate(-3 -7.0)">29</text></g><circle class="sym" cx="0" cy="0" r="3" /><text class="lab" transform="translate(0 -11)">30</text></g></g></g><g class="tree t1" transform="translate(212 0)"><g class="plotbox"><g class="c2 node n30 p0 root" transform="translate(120.225 26.8)"><g class="a30 c2 node n24 p0" transform="translate(32.775 53.197)"><g class="a24 c2 node n13 p0" transform="translate(-11.4 36.2412)"><g class="a13 leaf node n3 p0 sample" transform="translate(-7.6 5.16179)"><path class="edge" d="M 0 0 V -5.16179 H 7.6" /><rect class="sym" height="6" width="6" x="-3" y="-3" /><text class="lab" transform="translate(0 11)">3</text></g><g class="a13 leaf node n9 p0 sample" transform="translate(7.6 5.16179)"><path class="edge" d="M 0 0 V -5.16179 H -7.6" /><rect class="sym" height="6" width="6" x="-3" y="-3" /><text class="lab" transform="translate(0 11)">9</text></g><path class="edge" d="M 0 0 V -36.2412 H 11.4" /><circle class="sym" cx="0" cy="0" r="3" /><text class="lab lft" transform="translate(-3 -7.0)">13</text></g><g class="a24 c1 node n22 p0" transform="translate(11.4 13.5141)"><g class="a22 c1 node n19 p0" transform="translate(0.0 6.74961)"><g class="a19 c1 node n14 p0" transform="translate(0.0 11.4048)"><g class="a14 leaf node n4 p0 sample" transform="translate(0.0 9.73442)"><path class="edge" d="M 0 0 V -9.73442 H 0.0" /><rect class="sym" height="6" width="6" x="-3" y="-3" /><text class="lab" transform="translate(0 11)">4</text></g><path class="edge" d="M 0 0 V -11.4048 H 0.0" /><circle class="sym" cx="0" cy="0" r="3" /><text class="lab lft" transform="translate(-3 -7.0)">14</text></g><path class="edge" d="M 0 0 V -6.74961 H 0.0" /><circle class="sym" cx="0" cy="0" r="3" /><text class="lab lft" transform="translate(-3 -7.0)">19</text></g><path class="edge" d="M 0 0 V -13.5141 H -11.4" /><circle class="sym" cx="0" cy="0" r="3" /><text class="lab rgt" transform="translate(3 -7.0)">22</text></g><path class="edge" d="M 0 0 V -53.197 H -32.775" /><circle class="sym" cx="0" cy="0" r="3" /><text class="lab rgt" transform="translate(3 -7.0)">24</text></g><g class="a30 c2 node n29 p0" transform="translate(-32.775 36.2555)"><g class="a29 c1 node n15 p0" transform="translate(23.75 45.6018)"><g class="a15 c2 node n10 p0" transform="translate(0.0 9.12483)"><g class="a10 leaf node n7 p0 sample" transform="translate(-7.6 3.61796)"><path class="edge" d="M 0 0 V -3.61796 H 7.6" /><rect class="sym" height="6" width="6" x="-3" y="-3" /><text class="lab" transform="translate(0 11)">7</text></g><g class="a10 leaf node n8 p0 sample" transform="translate(7.6 3.61796)"><path class="edge" d="M 0 0 V -3.61796 H -7.6" /><rect class="sym" height="6" width="6" x="-3" y="-3" /><text class="lab" transform="translate(0 11)">8</text></g><path class="edge" d="M 0 0 V -9.12483 H 0.0" /><circle class="sym" cx="0" cy="0" r="3" /><text class="lab lft" transform="translate(-3 -7.0)">10</text></g><path class="edge" d="M 0 0 V -45.6018 H -23.75" /><circle class="sym" cx="0" cy="0" r="3" /><text class="lab rgt" transform="translate(3 -7.0)">15</text></g><g class="a29 c1 node n28 p0" transform="translate(-23.75 6.07606)"><g class="a28 c2 node n27 p0" transform="translate(0.0 7.05861)"><g class="a27 c2 node n17 p0" transform="translate(17.1 25.6522)"><g class="a17 leaf node n1 p0 sample" transform="translate(-7.6 19.5577)"><path class="edge" d="M 0 0 V -19.5577 H 7.6" /><rect class="sym" height="6" width="6" x="-3" y="-3" /><text class="lab" transform="translate(0 11)">1</text></g><g class="a17 c1 node n11 p0" transform="translate(7.6 15.4275)"><g class="a11 leaf node n2 p0 sample" transform="translate(0.0 4.13015)"><path class="edge" d="M 0 0 V -4.13015 H 0.0" /><rect class="sym" height="6" width="6" x="-3" y="-3" /><text class="lab" transform="translate(0 11)">2</text></g><path class="edge" d="M 0 0 V -15.4275 H -7.6" /><circle class="sym" cx="0" cy="0" r="3" /><text class="lab rgt" transform="translate(3 -7.0)">11</text></g><path class="edge" d="M 0 0 V -25.6522 H -17.1" /><circle class="sym" cx="0" cy="0" r="3" /><text class="lab rgt" transform="translate(3 -7.0)">17</text></g><g class="a27 c2 node n26 p0" transform="translate(-17.1 0.81986)"><g class="a26 c1 node n21 p0" transform="translate(-11.4 19.5881)"><g class="a21 c2 node n20 p0" transform="translate(0.0 2.0208)"><g class="a20 leaf node n0 p0 sample" transform="translate(-7.6 22.7811)"><path class="edge" d="M 0 0 V -22.7811 H 7.6" /><rect class="sym" height="6" width="6" x="-3" y="-3" /><text class="lab" transform="translate(0 11)">0</text></g><g class="a20 leaf node n6 p0 sample" transform="translate(7.6 22.7811)"><path class="edge" d="M 0 0 V -22.7811 H -7.6" /><rect class="sym" height="6" width="6" x="-3" y="-3" /><text class="lab" transform="translate(0 11)">6</text></g><path class="edge" d="M 0 0 V -2.0208 H 0.0" /><circle class="sym" cx="0" cy="0" r="3" /><text class="lab lft" transform="translate(-3 -7.0)">20</text></g><path class="edge" d="M 0 0 V -19.5881 H 11.4" /><circle class="sym" cx="0" cy="0" r="3" /><text class="lab lft" transform="translate(-3 -7.0)">21</text></g><g class="a26 c1 node n25 p0" transform="translate(11.4 2.35194)"><g class="a25 leaf node n5 p0 sample" transform="translate(0.0 42.0381)"><path class="edge" d="M 0 0 V -42.0381 H 0.0" /><rect class="sym" height="6" width="6" x="-3" y="-3" /><text class="lab" transform="translate(0 11)">5</text></g><path class="edge" d="M 0 0 V -2.35194 H -11.4" /><circle class="sym" cx="0" cy="0" r="3" /><text class="lab rgt" transform="translate(3 -7.0)">25</text></g><path class="edge" d="M 0 0 V -0.81986 H 17.1" /><circle class="sym" cx="0" cy="0" r="3" /><text class="lab lft" transform="translate(-3 -7.0)">26</text></g><path class="edge" d="M 0 0 V -7.05861 H 0.0" /><circle class="sym" cx="0" cy="0" r="3" /><text class="lab lft" transform="translate(-3 -7.0)">27</text></g><path class="edge" d="M 0 0 V -6.07606 H 23.75" /><circle class="sym" cx="0" cy="0" r="3" /><text class="lab lft" transform="translate(-3 -7.0)">28</text></g><path class="edge" d="M 0 0 V -36.2555 H 32.775" /><circle class="sym" cx="0" cy="0" r="3" /><text class="lab lft" transform="translate(-3 -7.0)">29</text></g><circle class="sym" cx="0" cy="0" r="3" /><text class="lab" transform="translate(0 -11)">30</text></g></g></g><g class="tree t2" transform="translate(404 0)"><g class="plotbox"><g class="c2 node n30 p0 root" transform="translate(120.225 26.8)"><g class="a30 c2 node n24 p0" transform="translate(32.775 53.197)"><g class="a24 c2 node n13 p0" transform="translate(-11.4 36.2412)"><g class="a13 leaf node n3 p0 sample" transform="translate(-7.6 5.16179)"><path class="edge" d="M 0 0 V -5.16179 H 7.6" /><rect class="sym" height="6" width="6" x="-3" y="-3" /><text class="lab" transform="translate(0 11)">3</text></g><g class="a13 leaf node n9 p0 sample" transform="translate(7.6 5.16179)"><path class="edge" d="M 0 0 V -5.16179 H -7.6" /><rect class="sym" height="6" width="6" x="-3" y="-3" /><text class="lab" transform="translate(0 11)">9</text></g><path class="edge" d="M 0 0 V -36.2412 H 11.4" /><circle class="sym" cx="0" cy="0" r="3" /><text class="lab lft" transform="translate(-3 -7.0)">13</text></g><g class="a24 c1 node n22 p0" transform="translate(11.4 13.5141)"><g class="a22 c1 node n19 p0" transform="translate(0.0 6.74961)"><g class="a19 c1 node n14 p0" transform="translate(0.0 11.4048)"><g class="a14 leaf node n4 p0 sample" transform="translate(0.0 9.73442)"><path class="edge" d="M 0 0 V -9.73442 H 0.0" /><rect class="sym" height="6" width="6" x="-3" y="-3" /><text class="lab" transform="translate(0 11)">4</text></g><path class="edge" d="M 0 0 V -11.4048 H 0.0" /><circle class="sym" cx="0" cy="0" r="3" /><text class="lab lft" transform="translate(-3 -7.0)">14</text></g><path class="edge" d="M 0 0 V -6.74961 H 0.0" /><circle class="sym" cx="0" cy="0" r="3" /><text class="lab lft" transform="translate(-3 -7.0)">19</text></g><path class="edge" d="M 0 0 V -13.5141 H -11.4" /><circle class="sym" cx="0" cy="0" r="3" /><text class="lab rgt" transform="translate(3 -7.0)">22</text></g><path class="edge" d="M 0 0 V -53.197 H -32.775" /><circle class="sym" cx="0" cy="0" r="3" /><text class="lab rgt" transform="translate(3 -7.0)">24</text></g><g class="a30 c1 node n29 p0" transform="translate(-32.775 36.2555)"><g class="a29 c2 node n28 p0" transform="translate(0.0 6.07606)"><g class="a28 c2 node n27 p0" transform="translate(-23.75 7.05861)"><g class="a27 c2 node n17 p0" transform="translate(17.1 25.6522)"><g class="a17 leaf node n1 p0 sample" transform="translate(-7.6 19.5577)"><path class="edge" d="M 0 0 V -19.5577 H 7.6" /><rect class="sym" height="6" width="6" x="-3" y="-3" /><text class="lab" transform="translate(0 11)">1</text></g><g class="a17 c1 node n11 p0" transform="translate(7.6 15.4275)"><g class="a11 leaf node n2 p0 sample" transform="translate(0.0 4.13015)"><path class="edge" d="M 0 0 V -4.13015 H 0.0" /><rect class="sym" height="6" width="6" x="-3" y="-3" /><text class="lab" transform="translate(0 11)">2</text></g><path class="edge" d="M 0 0 V -15.4275 H -7.6" /><circle class="sym" cx="0" cy="0" r="3" /><text class="lab rgt" transform="translate(3 -7.0)">11</text></g><path class="edge" d="M 0 0 V -25.6522 H -17.1" /><circle class="sym" cx="0" cy="0" r="3" /><text class="lab rgt" transform="translate(3 -7.0)">17</text></g><g class="a27 c2 node n26 p0" transform="translate(-17.1 0.81986)"><g class="a26 c1 node n21 p0" transform="translate(-11.4 19.5881)"><g class="a21 c2 node n20 p0" transform="translate(0.0 2.0208)"><g class="a20 leaf node n0 p0 sample" transform="translate(-7.6 22.7811)"><path class="edge" d="M 0 0 V -22.7811 H 7.6" /><rect class="sym" height="6" width="6" x="-3" y="-3" /><text class="lab" transform="translate(0 11)">0</text></g><g class="a20 leaf node n6 p0 sample" transform="translate(7.6 22.7811)"><path class="edge" d="M 0 0 V -22.7811 H -7.6" /><rect class="sym" height="6" width="6" x="-3" y="-3" /><text class="lab" transform="translate(0 11)">6</text></g><path class="edge" d="M 0 0 V -2.0208 H 0.0" /><circle class="sym" cx="0" cy="0" r="3" /><text class="lab lft" transform="translate(-3 -7.0)">20</text></g><path class="edge" d="M 0 0 V -19.5881 H 11.4" /><circle class="sym" cx="0" cy="0" r="3" /><text class="lab lft" transform="translate(-3 -7.0)">21</text></g><g class="a26 c1 node n25 p0" transform="translate(11.4 2.35194)"><g class="a25 leaf node n5 p0 sample" transform="translate(0.0 42.0381)"><path class="edge" d="M 0 0 V -42.0381 H 0.0" /><rect class="sym" height="6" width="6" x="-3" y="-3" /><text class="lab" transform="translate(0 11)">5</text></g><path class="edge" d="M 0 0 V -2.35194 H -11.4" /><circle class="sym" cx="0" cy="0" r="3" /><text class="lab rgt" transform="translate(3 -7.0)">25</text></g><path class="edge" d="M 0 0 V -0.81986 H 17.1" /><circle class="sym" cx="0" cy="0" r="3" /><text class="lab lft" transform="translate(-3 -7.0)">26</text></g><path class="edge" d="M 0 0 V -7.05861 H 23.75" /><circle class="sym" cx="0" cy="0" r="3" /><text class="lab lft" transform="translate(-3 -7.0)">27</text></g><g class="a28 c1 node n16 p0" transform="translate(23.75 39.5257)"><g class="a16 c2 node n10 p0" transform="translate(0.0 9.12483)"><g class="a10 leaf node n7 p0 sample" transform="translate(-7.6 3.61796)"><path class="edge" d="M 0 0 V -3.61796 H 7.6" /><rect class="sym" height="6" width="6" x="-3" y="-3" /><text class="lab" transform="translate(0 11)">7</text></g><g class="a10 leaf node n8 p0 sample" transform="translate(7.6 3.61796)"><path class="edge" d="M 0 0 V -3.61796 H -7.6" /><rect class="sym" height="6" width="6" x="-3" y="-3" /><text class="lab" transform="translate(0 11)">8</text></g><path class="edge" d="M 0 0 V -9.12483 H 0.0" /><circle class="sym" cx="0" cy="0" r="3" /><text class="lab lft" transform="translate(-3 -7.0)">10</text></g><path class="edge" d="M 0 0 V -39.5257 H -23.75" /><circle class="sym" cx="0" cy="0" r="3" /><text class="lab rgt" transform="translate(3 -7.0)">16</text></g><path class="edge" d="M 0 0 V -6.07606 H 0.0" /><circle class="sym" cx="0" cy="0" r="3" /><text class="lab lft" transform="translate(-3 -7.0)">28</text></g><path class="edge" d="M 0 0 V -36.2555 H 32.775" /><circle class="sym" cx="0" cy="0" r="3" /><text class="lab lft" transform="translate(-3 -7.0)">29</text></g><circle class="sym" cx="0" cy="0" r="3" /><text class="lab" transform="translate(0 -11)">30</text></g></g></g><g class="tree t3" transform="translate(596 0)"><g class="plotbox"><g class="c2 node n30 p0 root" transform="translate(109.775 26.8)"><g class="a30 c2 node n24 p0" transform="translate(31.825 53.197)"><g class="a24 c2 node n13 p0" transform="translate(15.2 36.2412)"><g class="a13 leaf node n3 p0 sample" transform="translate(-7.6 5.16179)"><path class="edge" d="M 0 0 V -5.16179 H 7.6" /><rect class="sym" height="6" width="6" x="-3" y="-3" /><text class="lab" transform="translate(0 11)">3</text></g><g class="a13 leaf node n9 p0 sample" transform="translate(7.6 5.16179)"><path class="edge" d="M 0 0 V -5.16179 H -7.6" /><rect class="sym" height="6" width="6" x="-3" y="-3" /><text class="lab" transform="translate(0 11)">9</text></g><path class="edge" d="M 0 0 V -36.2412 H -15.2" /><circle class="sym" cx="0" cy="0" r="3" /><text class="lab rgt" transform="translate(3 -7.0)">13</text></g><g class="a24 c1 node n22 p0" transform="translate(-15.2 13.5141)"><g class="a22 c1 node n19 p0" transform="translate(0.0 6.74961)"><g class="a19 c2 node n14 p0" transform="translate(0.0 11.4048)"><g class="a14 leaf node n4 p0 sample" transform="translate(7.6 9.73442)"><path class="edge" d="M 0 0 V -9.73442 H -7.6" /><rect class="sym" height="6" width="6" x="-3" y="-3" /><text class="lab" transform="translate(0 11)">4</text></g><g class="a14 c1 node n12 p0" transform="translate(-7.6 5.60427)"><g class="a12 leaf node n2 p0 sample" transform="translate(0.0 4.13015)"><path class="edge" d="M 0 0 V -4.13015 H 0.0" /><rect class="sym" height="6" width="6" x="-3" y="-3" /><text class="lab" transform="translate(0 11)">2</text></g><path class="edge" d="M 0 0 V -5.60427 H 7.6" /><circle class="sym" cx="0" cy="0" r="3" /><text class="lab lft" transform="translate(-3 -7.0)">12</text></g><path class="edge" d="M 0 0 V -11.4048 H 0.0" /><circle class="sym" cx="0" cy="0" r="3" /><text class="lab lft" transform="translate(-3 -7.0)">14</text></g><path class="edge" d="M 0 0 V -6.74961 H 0.0" /><circle class="sym" cx="0" cy="0" r="3" /><text class="lab lft" transform="translate(-3 -7.0)">19</text></g><path class="edge" d="M 0 0 V -13.5141 H 15.2" /><circle class="sym" cx="0" cy="0" r="3" /><text class="lab lft" transform="translate(-3 -7.0)">22</text></g><path class="edge" d="M 0 0 V -53.197 H -31.825" /><circle class="sym" cx="0" cy="0" r="3" /><text class="lab rgt" transform="translate(3 -7.0)">24</text></g><g class="a30 c1 node n29 p0" transform="translate(-31.825 36.2555)"><g class="a29 c2 node n28 p0" transform="translate(0.0 6.07606)"><g class="a28 c2 node n27 p0" transform="translate(-18.05 7.05861)"><g class="a27 c1 node n17 p0" transform="translate(13.3 25.6522)"><g class="a17 leaf node n1 p0 sample" transform="translate(0.0 19.5577)"><path class="edge" d="M 0 0 V -19.5577 H 0.0" /><rect class="sym" height="6" width="6" x="-3" y="-3" /><text class="lab" transform="translate(0 11)">1</text></g><path class="edge" d="M 0 0 V -25.6522 H -13.3" /><circle class="sym" cx="0" cy="0" r="3" /><text class="lab rgt" transform="translate(3 -7.0)">17</text></g><g class="a27 c2 node n26 p0" transform="translate(-13.3 0.81986)"><g class="a26 c1 node n21 p0" transform="translate(-11.4 19.5881)"><g class="a21 c2 node n20 p0" transform="translate(0.0 2.0208)"><g class="a20 leaf node n0 p0 sample" transform="translate(-7.6 22.7811)"><path class="edge" d="M 0 0 V -22.7811 H 7.6" /><rect class="sym" height="6" width="6" x="-3" y="-3" /><text class="lab" transform="translate(0 11)">0</text></g><g class="a20 leaf node n6 p0 sample" transform="translate(7.6 22.7811)"><path class="edge" d="M 0 0 V -22.7811 H -7.6" /><rect class="sym" height="6" width="6" x="-3" y="-3" /><text class="lab" transform="translate(0 11)">6</text></g><path class="edge" d="M 0 0 V -2.0208 H 0.0" /><circle class="sym" cx="0" cy="0" r="3" /><text class="lab lft" transform="translate(-3 -7.0)">20</text></g><path class="edge" d="M 0 0 V -19.5881 H 11.4" /><circle class="sym" cx="0" cy="0" r="3" /><text class="lab lft" transform="translate(-3 -7.0)">21</text></g><g class="a26 c1 node n25 p0" transform="translate(11.4 2.35194)"><g class="a25 leaf node n5 p0 sample" transform="translate(0.0 42.0381)"><path class="edge" d="M 0 0 V -42.0381 H 0.0" /><rect class="sym" height="6" width="6" x="-3" y="-3" /><text class="lab" transform="translate(0 11)">5</text></g><path class="edge" d="M 0 0 V -2.35194 H -11.4" /><circle class="sym" cx="0" cy="0" r="3" /><text class="lab rgt" transform="translate(3 -7.0)">25</text></g><path class="edge" d="M 0 0 V -0.81986 H 13.3" /><circle class="sym" cx="0" cy="0" r="3" /><text class="lab lft" transform="translate(-3 -7.0)">26</text></g><path class="edge" d="M 0 0 V -7.05861 H 18.05" /><circle class="sym" cx="0" cy="0" r="3" /><text class="lab lft" transform="translate(-3 -7.0)">27</text></g><g class="a28 c1 node n16 p0" transform="translate(18.05 39.5257)"><g class="a16 c2 node n10 p0" transform="translate(0.0 9.12483)"><g class="a10 leaf node n7 p0 sample" transform="translate(-7.6 3.61796)"><path class="edge" d="M 0 0 V -3.61796 H 7.6" /><rect class="sym" height="6" width="6" x="-3" y="-3" /><text class="lab" transform="translate(0 11)">7</text></g><g class="a10 leaf node n8 p0 sample" transform="translate(7.6 3.61796)"><path class="edge" d="M 0 0 V -3.61796 H -7.6" /><rect class="sym" height="6" width="6" x="-3" y="-3" /><text class="lab" transform="translate(0 11)">8</text></g><path class="edge" d="M 0 0 V -9.12483 H 0.0" /><circle class="sym" cx="0" cy="0" r="3" /><text class="lab lft" transform="translate(-3 -7.0)">10</text></g><path class="edge" d="M 0 0 V -39.5257 H -18.05" /><circle class="sym" cx="0" cy="0" r="3" /><text class="lab rgt" transform="translate(3 -7.0)">16</text></g><path class="edge" d="M 0 0 V -6.07606 H 0.0" /><circle class="sym" cx="0" cy="0" r="3" /><text class="lab lft" transform="translate(-3 -7.0)">28</text></g><path class="edge" d="M 0 0 V -36.2555 H 31.825" /><circle class="sym" cx="0" cy="0" r="3" /><text class="lab lft" transform="translate(-3 -7.0)">29</text></g><circle class="sym" cx="0" cy="0" r="3" /><text class="lab" transform="translate(0 -11)">30</text></g></g></g><g class="tree t4" transform="translate(788 0)"><g class="plotbox"><g class="c2 node n30 p0 root" transform="translate(129.962 26.8)"><g class="a30 c1 node n24 p0" transform="translate(26.8375 53.197)"><g class="a24 c2 node n13 p0" transform="translate(0.0 36.2412)"><g class="a13 leaf node n3 p0 sample" transform="translate(-7.6 5.16179)"><path class="edge" d="M 0 0 V -5.16179 H 7.6" /><rect class="sym" height="6" width="6" x="-3" y="-3" /><text class="lab" transform="translate(0 11)">3</text></g><g class="a13 leaf node n9 p0 sample" transform="translate(7.6 5.16179)"><path class="edge" d="M 0 0 V -5.16179 H -7.6" /><rect class="sym" height="6" width="6" x="-3" y="-3" /><text class="lab" transform="translate(0 11)">9</text></g><path class="edge" d="M 0 0 V -36.2412 H 0.0" /><circle class="sym" cx="0" cy="0" r="3" /><text class="lab lft" transform="translate(-3 -7.0)">13</text></g><path class="edge" d="M 0 0 V -53.197 H -26.8375" /><circle class="sym" cx="0" cy="0" r="3" /><text class="lab rgt" transform="translate(3 -7.0)">24</text></g><g class="a30 c1 node n29 p0" transform="translate(-26.8375 36.2555)"><g class="a29 c2 node n28 p0" transform="translate(0.0 6.07606)"><g class="a28 c2 node n27 p0" transform="translate(-23.275 7.05861)"><g class="a27 c1 node n17 p0" transform="translate(23.75 25.6522)"><g class="a17 leaf node n1 p0 sample" transform="translate(0.0 19.5577)"><path class="edge" d="M 0 0 V -19.5577 H 0.0" /><rect class="sym" height="6" width="6" x="-3" y="-3" /><text class="lab" transform="translate(0 11)">1</text></g><path class="edge" d="M 0 0 V -25.6522 H -23.75" /><circle class="sym" cx="0" cy="0" r="3" /><text class="lab rgt" transform="translate(3 -7.0)">17</text></g><g class="a27 c2 node n26 p0" transform="translate(-23.75 0.81986)"><g class="a26 c1 node n21 p0" transform="translate(-20.9 19.5881)"><g class="a21 c2 node n20 p0" transform="translate(0.0 2.0208)"><g class="a20 leaf node n0 p0 sample" transform="translate(-7.6 22.7811)"><path class="edge" d="M 0 0 V -22.7811 H 7.6" /><rect class="sym" height="6" width="6" x="-3" y="-3" /><text class="lab" transform="translate(0 11)">0</text></g><g class="a20 leaf node n6 p0 sample" transform="translate(7.6 22.7811)"><path class="edge" d="M 0 0 V -22.7811 H -7.6" /><rect class="sym" height="6" width="6" x="-3" y="-3" /><text class="lab" transform="translate(0 11)">6</text></g><path class="edge" d="M 0 0 V -2.0208 H 0.0" /><circle class="sym" cx="0" cy="0" r="3" /><text class="lab lft" transform="translate(-3 -7.0)">20</text></g><path class="edge" d="M 0 0 V -19.5881 H 20.9" /><circle class="sym" cx="0" cy="0" r="3" /><text class="lab lft" transform="translate(-3 -7.0)">21</text></g><g class="a26 c2 node n25 p0" transform="translate(20.9 2.35194)"><g class="a25 leaf node n5 p0 sample" transform="translate(11.4 42.0381)"><path class="edge" d="M 0 0 V -42.0381 H -11.4" /><rect class="sym" height="6" width="6" x="-3" y="-3" /><text class="lab" transform="translate(0 11)">5</text></g><g class="a25 c1 node n23 p0" transform="translate(-11.4 14.1492)"><g class="a23 c1 node n19 p0" transform="translate(0.0 6.74961)"><g class="a19 c2 node n14 p0" transform="translate(0.0 11.4048)"><g class="a14 leaf node n4 p0 sample" transform="translate(7.6 9.73442)"><path class="edge" d="M 0 0 V -9.73442 H -7.6" /><rect class="sym" height="6" width="6" x="-3" y="-3" /><text class="lab" transform="translate(0 11)">4</text></g><g class="a14 c1 node n12 p0" transform="translate(-7.6 5.60427)"><g class="a12 leaf node n2 p0 sample" transform="translate(0.0 4.13015)"><path class="edge" d="M 0 0 V -4.13015 H 0.0" /><rect class="sym" height="6" width="6" x="-3" y="-3" /><text class="lab" transform="translate(0 11)">2</text></g><path class="edge" d="M 0 0 V -5.60427 H 7.6" /><circle class="sym" cx="0" cy="0" r="3" /><text class="lab lft" transform="translate(-3 -7.0)">12</text></g><path class="edge" d="M 0 0 V -11.4048 H 0.0" /><circle class="sym" cx="0" cy="0" r="3" /><text class="lab lft" transform="translate(-3 -7.0)">14</text></g><path class="edge" d="M 0 0 V -6.74961 H 0.0" /><circle class="sym" cx="0" cy="0" r="3" /><text class="lab lft" transform="translate(-3 -7.0)">19</text></g><path class="edge" d="M 0 0 V -14.1492 H 11.4" /><circle class="sym" cx="0" cy="0" r="3" /><text class="lab lft" transform="translate(-3 -7.0)">23</text></g><path class="edge" d="M 0 0 V -2.35194 H -20.9" /><circle class="sym" cx="0" cy="0" r="3" /><text class="lab rgt" transform="translate(3 -7.0)">25</text></g><path class="edge" d="M 0 0 V -0.81986 H 23.75" /><circle class="sym" cx="0" cy="0" r="3" /><text class="lab lft" transform="translate(-3 -7.0)">26</text></g><path class="edge" d="M 0 0 V -7.05861 H 23.275" /><circle class="sym" cx="0" cy="0" r="3" /><text class="lab lft" transform="translate(-3 -7.0)">27</text></g><g class="a28 c1 node n16 p0" transform="translate(23.275 39.5257)"><g class="a16 c2 node n10 p0" transform="translate(0.0 9.12483)"><g class="a10 leaf node n7 p0 sample" transform="translate(-7.6 3.61796)"><path class="edge" d="M 0 0 V -3.61796 H 7.6" /><rect class="sym" height="6" width="6" x="-3" y="-3" /><text class="lab" transform="translate(0 11)">7</text></g><g class="a10 leaf node n8 p0 sample" transform="translate(7.6 3.61796)"><path class="edge" d="M 0 0 V -3.61796 H -7.6" /><rect class="sym" height="6" width="6" x="-3" y="-3" /><text class="lab" transform="translate(0 11)">8</text></g><path class="edge" d="M 0 0 V -9.12483 H 0.0" /><circle class="sym" cx="0" cy="0" r="3" /><text class="lab lft" transform="translate(-3 -7.0)">10</text></g><path class="edge" d="M 0 0 V -39.5257 H -23.275" /><circle class="sym" cx="0" cy="0" r="3" /><text class="lab rgt" transform="translate(3 -7.0)">16</text></g><path class="edge" d="M 0 0 V -6.07606 H 0.0" /><circle class="sym" cx="0" cy="0" r="3" /><text class="lab lft" transform="translate(-3 -7.0)">28</text></g><path class="edge" d="M 0 0 V -36.2555 H 26.8375" /><circle class="sym" cx="0" cy="0" r="3" /><text class="lab lft" transform="translate(-3 -7.0)">29</text></g><circle class="sym" cx="0" cy="0" r="3" /><text class="lab" transform="translate(0 -11)">30</text></g></g></g></g></g></svg>
