<svg baseProfile="full" height="200" version="1.1" width="1200" xmlns="http://www.w3.org/2000/svg" xmlns:ev="http://www.w3.org/2001/xml-events" xmlns:xlink="http://www.w3.org/1999/xlink"><defs><style type="text/css"><![CDATA[.background path {fill: #808080; fill-opacity: 0}.background path:nth-child(odd) {fill-opacity: .1}.axes {font-size: 14px}.x-axis .tick .lab {font-weight: bold; dominant-baseline: hanging}.axes, .tree {font-size: 14px; text-anchor: middle}.axes line, .edge {stroke: black; fill: none}.y-axis .grid {stroke: #FAFAFA}.node > .sym {fill: black; stroke: none}.site > .sym {stroke: black}.mut text {fill: red; font-style: italic}.mut.extra text {fill: hotpink}.mut line {fill: none; stroke: none}.mut .sym {fill: none; stroke: red}.mut.extra .sym {stroke: hotpink}.node .mut .sym {stroke-width: 1.5px}.tree text, .tree-sequence text {dominant-baseline: central}.plotbox .lab.lft {text-anchor: end}.plotbox .lab.rgt {text-anchor: start}]]></style></defs><g class="tree-sequence"><g class="background"><path d="M20,0 l193.333,0 l0,138.2 l300.4,25 l0,5 l-493.733,0 l0,-5 l0,-25 l0,-138.2z" /><path d="M213.333,0 l193.333,0 l0,138.2 l386.992,25 l0,5 l-279.926,0 l0,-5 l-300.4,-25 l0,-138.2z" /><path d="M406.667,0 l193.333,0 l0,138.2 l318.15,25 l0,5 l-124.491,0 l0,-5 l-386.992,-25 l0,-138.2z" /><path d="M600,0 l193.333,0 l0,138.2 l160.043,25 l0,5 l-35.2264,0 l0,-5 l-318.15,-25 l0,-138.2z" /><path d="M793.333,0 l193.333,0 l0,138.2 l176.439,25 l0,5 l-209.729,0 l0,-5 l-160.043,-25 l0,-138.2z" /><path d="M986.667,0 l193.333,0 l0,138.2 l0,25 l0,5 l-16.8944,0 l0,-5 l-176.439,-25 l0,-138.2z" /></g><g class="axes"><g class="x-axis"><g transform="translate(600 200)"><text class="lab" text-anchor="middle" transform="translate(0 -11)">Genome position</text></g><line x1="20" x2="1180" y1="163.2" y2="163.2" /><g class="ticks"><g class="tick" transform="translate(20 163.2)"><line x1="0" x2="0" y1="0" y2="5" /><g transform="translate(0 6)"><text class="lab">0.00</text></g></g><g class="tick" transform="translate(513.733 163.2)"><line x1="0" x2="0" y1="0" y2="5" /><g transform="translate(0 6)"><text class="lab">425.63</text></g></g><g class="tick" transform="translate(793.658 163.2)"><line x1="0" x2="0" y1="0" y2="5" /><g transform="translate(0 6)"><text class="lab">666.95</text></g></g><g class="tick" transform="translate(918.15 163.2)"><line x1="0" x2="0" y1="0" y2="5" /><g transform="translate(0 6)"><text class="lab">774.27</text></g></g><g class="tick" transform="translate(953.376 163.2)"><line x1="0" x2="0" y1="0" y2="5" /><g transform="translate(0 6)"><text class="lab">804.63</text></g></g><g class="tick" transform="translate(1163.11 163.2)"><line x1="0" x2="0" y1="0" y2="5" /><g transform="translate(0 6)"><text class="lab">985.44</text></g></g><g class="tick" transform="translate(1180 163.2)"><line x1="0" x2="0" y1="0" y2="5" /><g transform="translate(0 6)"><text class="lab">1000.00</text></g></g></g></g></g><g class="plotbox trees"><g class="tree t0" transform="translate(20 0)"><g class="plotbox"><g class="c2 node n33 p0 root" transform="translate(112.958 26.8)"><g class="a33 c1 node n31 p0" transform="translate(45.0417 13.8238)"><g class="a31 c2 node n24 p0" transform="translate(0.0 58.4349)"><g class="a24 c1 node n17 p0" transform="translate(7.66667 14.2219)"><g class="a17 leaf node n6 p0 sample" transform="translate(0.0 8.11946)"><path class="edge" d="M 0 0 V -8.11946 H 0.0" /><rect class="sym" height="6" width="6" x="-3" y="-3" /><text class="lab" transform="translate(0 11)">6</text></g><path class="edge" d="M 0 0 V -14.2219 H -7.66667" /><circle class="sym" cx="0" cy="0" r="3" /><text class="lab rgt" transform="translate(3 -7.0)">17</text></g><g class="a24 c1 node n20 p0" transform="translate(-7.66667 7.08409)"><g class="a20 leaf node n5 p0 sample" transform="translate(0.0 15.2573)"><path class="edge" d="M 0 0 V -15.2573 H 0.0" /><rect class="sym" height="6" width="6" x="-3" y="-3" /><text class="lab" transform="translate(0 11)">5</text></g><path class="edge" d="M 0 0 V -7.08409 H 7.66667" /><circle class="sym" cx="0" cy="0" r="3" /><text class="lab lft" transform="translate(-3 -7.0)">20</text></g><path class="edge" d="M 0 0 V -58.4349 H 0.0" /><circle class="sym" cx="0" cy="0" r="3" /><text class="lab lft" transform="translate(-3 -7.0)">24</text></g><path class="edge" d="M 0 0 V -13.8238 H -45.0417" /><circle class="sym" cx="0" cy="0" r="3" /><text class="lab rgt" transform="translate(3 -7.0)">31</text></g><g class="a33 c2 node n32 p0" transform="translate(-45.0417 7.34019)"><g class="a32 c1 node n28 p0" transform="translate(-40.25 31.1551)"><g class="a28 c1 node n26 p0" transform="translate(0.0 18.3642)"><g class="a26 leaf node n0 p0 sample" transform="translate(0.0 37.7405)"><path class="edge" d="M 0 0 V -37.7405 H 0.0" /><rect class="sym" height="6" width="6" x="-3" y="-3" /><text class="lab" transform="translate(0 11)">0</text></g><path class="edge" d="M 0 0 V -18.3642 H 0.0" /><circle class="sym" cx="0" cy="0" r="3" /><text class="lab lft" transform="translate(-3 -7.0)">26</text></g><path class="edge" d="M 0 0 V -31.1551 H 40.25" /><circle class="sym" cx="0" cy="0" r="3" /><text class="lab lft" transform="translate(-3 -7.0)">28</text></g><g class="a32 c1 node n29 p0" transform="translate(40.25 8.43221)"><g class="a29 c1 node n27 p0" transform="translate(0.0 24.599)"><g class="a27 c2 node n25 p0" transform="translate(0.0 28.2608)"><g class="a25 leaf node n4 p0 sample" transform="translate(26.8333 25.9677)"><path class="edge" d="M 0 0 V -25.9677 H -26.8333" /><rect class="sym" height="6" width="6" x="-3" y="-3" /><text class="lab" transform="translate(0 11)">4</text></g><g class="a25 c1 node n22 p0" transform="translate(-26.8333 7.63539)"><g class="a22 c2 node n21 p0" transform="translate(0.0 2.77004)"><g class="a21 c1 node n15 p0" transform="translate(-19.1667 8.70251)"><g class="a15 c2 node n14 p0" transform="translate(0.0 1.66597)"><g class="a14 leaf node n9 p0 sample" transform="translate(11.5 5.19383)"><path class="edge" d="M 0 0 V -5.19383 H -11.5" /><rect class="sym" height="6" width="6" x="-3" y="-3" /><text class="lab" transform="translate(0 11)">9</text></g><g class="a14 c2 node n12 p0" transform="translate(-11.5 3.35962)"><g class="a12 leaf node n1 p0 sample" transform="translate(-7.66667 1.83421)"><path class="edge" d="M 0 0 V -1.83421 H 7.66667" /><rect class="sym" height="6" width="6" x="-3" y="-3" /><text class="lab" transform="translate(0 11)">1</text></g><g class="a12 leaf node n2 p0 sample" transform="translate(7.66667 1.83421)"><path class="edge" d="M 0 0 V -1.83421 H -7.66667" /><rect class="sym" height="6" width="6" x="-3" y="-3" /><text class="lab" transform="translate(0 11)">2</text></g><path class="edge" d="M 0 0 V -3.35962 H 11.5" /><circle class="sym" cx="0" cy="0" r="3" /><text class="lab lft" transform="translate(-3 -7.0)">12</text></g><path class="edge" d="M 0 0 V -1.66597 H 0.0" /><circle class="sym" cx="0" cy="0" r="3" /><text class="lab lft" transform="translate(-3 -7.0)">14</text></g><path class="edge" d="M 0 0 V -8.70251 H 19.1667" /><circle class="sym" cx="0" cy="0" r="3" /><text class="lab lft" transform="translate(-3 -7.0)">15</text></g><g class="a21 c2 node n19 p0" transform="translate(19.1667 2.11003)"><g class="a19 leaf node n3 p0 sample" transform="translate(-11.5 13.4523)"><path class="edge" d="M 0 0 V -13.4523 H 11.5" /><rect class="sym" height="6" width="6" x="-3" y="-3" /><text class="lab" transform="translate(0 11)">3</text></g><g class="a19 c2 node n13 p0" transform="translate(11.5 9.53957)"><g class="a13 leaf node n7 p0 sample" transform="translate(-7.66667 3.91271)"><path class="edge" d="M 0 0 V -3.91271 H 7.66667" /><rect class="sym" height="6" width="6" x="-3" y="-3" /><text class="lab" transform="translate(0 11)">7</text></g><g class="a13 c1 node n10 p0" transform="translate(7.66667 3.61434)"><g class="a10 leaf node n8 p0 sample" transform="translate(0.0 0.29837)"><path class="edge" d="M 0 0 V -0.29837 H 0.0" /><rect class="sym" height="6" width="6" x="-3" y="-3" /><text class="lab" transform="translate(0 11)">8</text></g><path class="edge" d="M 0 0 V -3.61434 H -7.66667" /><circle class="sym" cx="0" cy="0" r="3" /><text class="lab rgt" transform="translate(3 -7.0)">10</text></g><path class="edge" d="M 0 0 V -9.53957 H -11.5" /><circle class="sym" cx="0" cy="0" r="3" /><text class="lab rgt" transform="translate(3 -7.0)">13</text></g><path class="edge" d="M 0 0 V -2.11003 H -19.1667" /><circle class="sym" cx="0" cy="0" r="3" /><text class="lab rgt" transform="translate(3 -7.0)">19</text></g><path class="edge" d="M 0 0 V -2.77004 H 0.0" /><circle class="sym" cx="0" cy="0" r="3" /><text class="lab lft" transform="translate(-3 -7.0)">21</text></g><path class="edge" d="M 0 0 V -7.63539 H 26.8333" /><circle class="sym" cx="0" cy="0" r="3" /><text class="lab lft" transform="translate(-3 -7.0)">22</text></g><path class="edge" d="M 0 0 V -28.2608 H 0.0" /><circle class="sym" cx="0" cy="0" r="3" /><text class="lab lft" transform="translate(-3 -7.0)">25</text></g><path class="edge" d="M 0 0 V -24.599 H 0.0" /><circle class="sym" cx="0" cy="0" r="3" /><text class="lab lft" transform="translate(-3 -7.0)">27</text></g><path class="edge" d="M 0 0 V -8.43221 H -40.25" /><circle class="sym" cx="0" cy="0" r="3" /><text class="lab rgt" transform="translate(3 -7.0)">29</text></g><path class="edge" d="M 0 0 V -7.34019 H 45.0417" /><circle class="sym" cx="0" cy="0" r="3" /><text class="lab lft" transform="translate(-3 -7.0)">32</text></g><circle class="sym" cx="0" cy="0" r="3" /><text class="lab" transform="translate(0 -11)">33</text></g></g></g><g class="tree t1" transform="translate(213.333 0)"><g class="plotbox"><g class="c2 node n33 p0 root" transform="translate(100.5 26.8)"><g class="a33 c1 node n31 p0" transform="translate(50.7917 13.8238)"><g class="a31 c2 node n24 p0" transform="translate(0.0 58.4349)"><g class="a24 c1 node n17 p0" transform="translate(14.375 14.2219)"><g class="a17 leaf node n6 p0 sample" transform="translate(0.0 8.11946)"><path class="edge" d="M 0 0 V -8.11946 H 0.0" /><rect class="sym" height="6" width="6" x="-3" y="-3" /><text class="lab" transform="translate(0 11)">6</text></g><path class="edge" d="M 0 0 V -14.2219 H -14.375" /><circle class="sym" cx="0" cy="0" r="3" /><text class="lab rgt" transform="translate(3 -7.0)">17</text></g><g class="a24 c2 node n20 p0" transform="translate(-14.375 7.08409)"><g class="a20 leaf node n5 p0 sample" transform="translate(13.4167 15.2573)"><path class="edge" d="M 0 0 V -15.2573 H -13.4167" /><rect class="sym" height="6" width="6" x="-3" y="-3" /><text class="lab" transform="translate(0 11)">5</text></g><g class="a20 c1 node n16 p0" transform="translate(-13.4167 8.39747)"><g class="a16 c2 node n14 p0" transform="translate(0.0 1.66597)"><g class="a14 leaf node n9 p0 sample" transform="translate(11.5 5.19383)"><path class="edge" d="M 0 0 V -5.19383 H -11.5" /><rect class="sym" height="6" width="6" x="-3" y="-3" /><text class="lab" transform="translate(0 11)">9</text></g><g class="a14 c2 node n12 p0" transform="translate(-11.5 3.35962)"><g class="a12 leaf node n1 p0 sample" transform="translate(-7.66667 1.83421)"><path class="edge" d="M 0 0 V -1.83421 H 7.66667" /><rect class="sym" height="6" width="6" x="-3" y="-3" /><text class="lab" transform="translate(0 11)">1</text></g><g class="a12 leaf node n2 p0 sample" transform="translate(7.66667 1.83421)"><path class="edge" d="M 0 0 V -1.83421 H -7.66667" /><rect class="sym" height="6" width="6" x="-3" y="-3" /><text class="lab" transform="translate(0 11)">2</text></g><path class="edge" d="M 0 0 V -3.35962 H 11.5" /><circle class="sym" cx="0" cy="0" r="3" /><text class="lab lft" transform="translate(-3 -7.0)">12</text></g><path class="edge" d="M 0 0 V -1.66597 H 0.0" /><circle class="sym" cx="0" cy="0" r="3" /><text class="lab lft" transform="translate(-3 -7.0)">14</text></g><path class="edge" d="M 0 0 V -8.39747 H 13.4167" /><circle class="sym" cx="0" cy="0" r="3" /><text class="lab lft" transform="translate(-3 -7.0)">16</text></g><path class="edge" d="M 0 0 V -7.08409 H 14.375" /><circle class="sym" cx="0" cy="0" r="3" /><text class="lab lft" transform="translate(-3 -7.0)">20</text></g><path class="edge" d="M 0 0 V -58.4349 H 0.0" /><circle class="sym" cx="0" cy="0" r="3" /><text class="lab lft" transform="translate(-3 -7.0)">24</text></g><path class="edge" d="M 0 0 V -13.8238 H -50.7917" /><circle class="sym" cx="0" cy="0" r="3" /><text class="lab rgt" transform="translate(3 -7.0)">31</text></g><g class="a33 c2 node n32 p0" transform="translate(-50.7917 7.34019)"><g class="a32 c1 node n28 p0" transform="translate(-22.0417 31.1551)"><g class="a28 c1 node n26 p0" transform="translate(0.0 18.3642)"><g class="a26 leaf node n0 p0 sample" transform="translate(0.0 37.7405)"><path class="edge" d="M 0 0 V -37.7405 H 0.0" /><rect class="sym" height="6" width="6" x="-3" y="-3" /><text class="lab" transform="translate(0 11)">0</text></g><path class="edge" d="M 0 0 V -18.3642 H 0.0" /><circle class="sym" cx="0" cy="0" r="3" /><text class="lab lft" transform="translate(-3 -7.0)">26</text></g><path class="edge" d="M 0 0 V -31.1551 H 22.0417" /><circle class="sym" cx="0" cy="0" r="3" /><text class="lab lft" transform="translate(-3 -7.0)">28</text></g><g class="a32 c1 node n29 p0" transform="translate(22.0417 8.43221)"><g class="a29 c1 node n27 p0" transform="translate(0.0 24.599)"><g class="a27 c2 node n25 p0" transform="translate(0.0 28.2608)"><g class="a25 leaf node n4 p0 sample" transform="translate(17.25 25.9677)"><path class="edge" d="M 0 0 V -25.9677 H -17.25" /><rect class="sym" height="6" width="6" x="-3" y="-3" /><text class="lab" transform="translate(0 11)">4</text></g><g class="a25 c1 node n22 p0" transform="translate(-17.25 7.63539)"><g class="a22 c1 node n21 p0" transform="translate(0.0 2.77004)"><g class="a21 c2 node n19 p0" transform="translate(0.0 2.11003)"><g class="a19 leaf node n3 p0 sample" transform="translate(-11.5 13.4523)"><path class="edge" d="M 0 0 V -13.4523 H 11.5" /><rect class="sym" height="6" width="6" x="-3" y="-3" /><text class="lab" transform="translate(0 11)">3</text></g><g class="a19 c2 node n13 p0" transform="translate(11.5 9.53957)"><g class="a13 leaf node n7 p0 sample" transform="translate(-7.66667 3.91271)"><path class="edge" d="M 0 0 V -3.91271 H 7.66667" /><rect class="sym" height="6" width="6" x="-3" y="-3" /><text class="lab" transform="translate(0 11)">7</text></g><g class="a13 c1 node n10 p0" transform="translate(7.66667 3.61434)"><g class="a10 leaf node n8 p0 sample" transform="translate(0.0 0.29837)"><path class="edge" d="M 0 0 V -0.29837 H 0.0" /><rect class="sym" height="6" width="6" x="-3" y="-3" /><text class="lab" transform="translate(0 11)">8</text></g><path class="edge" d="M 0 0 V -3.61434 H -7.66667" /><circle class="sym" cx="0" cy="0" r="3" /><text class="lab rgt" transform="translate(3 -7.0)">10</text></g><path class="edge" d="M 0 0 V -9.53957 H -11.5" /><circle class="sym" cx="0" cy="0" r="3" /><text class="lab rgt" transform="translate(3 -7.0)">13</text></g><path class="edge" d="M 0 0 V -2.11003 H 0.0" /><circle class="sym" cx="0" cy="0" r="3" /><text class="lab lft" transform="translate(-3 -7.0)">19</text></g><path class="edge" d="M 0 0 V -2.77004 H 0.0" /><circle class="sym" cx="0" cy="0" r="3" /><text class="lab lft" transform="translate(-3 -7.0)">21</text></g><path class="edge" d="M 0 0 V -7.63539 H 17.25" /><circle class="sym" cx="0" cy="0" r="3" /><text class="lab lft" transform="translate(-3 -7.0)">22</text></g><path class="edge" d="M 0 0 V -28.2608 H 0.0" /><circle class="sym" cx="0" cy="0" r="3" /><text class="lab lft" transform="translate(-3 -7.0)">25</text></g><path class="edge" d="M 0 0 V -24.599 H 0.0" /><circle class="sym" cx="0" cy="0" r="3" /><text class="lab lft" transform="translate(-3 -7.0)">27</text></g><path class="edge" d="M 0 0 V -8.43221 H -22.0417" /><circle class="sym" cx="0" cy="0" r="3" /><text class="lab rgt" transform="translate(3 -7.0)">29</text></g><path class="edge" d="M 0 0 V -7.34019 H 50.7917" /><circle class="sym" cx="0" cy="0" r="3" /><text class="lab lft" transform="translate(-3 -7.0)">32</text></g><circle class="sym" cx="0" cy="0" r="3" /><text class="lab" transform="translate(0 -11)">33</text></g></g></g><g class="tree t2" transform="translate(406.667 0)"><g class="plotbox"><g class="c2 node n33 p0 root" transform="translate(73.4271 26.8)"><g class="a33 c2 node n31 p0" transform="translate(45.7604 13.8238)"><g class="a31 c2 node n24 p0" transform="translate(-29.2292 58.4349)"><g class="a24 c1 node n17 p0" transform="translate(14.375 14.2219)"><g class="a17 leaf node n6 p0 sample" transform="translate(0.0 8.11946)"><path class="edge" d="M 0 0 V -8.11946 H 0.0" /><rect class="sym" height="6" width="6" x="-3" y="-3" /><text class="lab" transform="translate(0 11)">6</text></g><path class="edge" d="M 0 0 V -14.2219 H -14.375" /><circle class="sym" cx="0" cy="0" r="3" /><text class="lab rgt" transform="translate(3 -7.0)">17</text></g><g class="a24 c2 node n20 p0" transform="translate(-14.375 7.08409)"><g class="a20 leaf node n5 p0 sample" transform="translate(13.4167 15.2573)"><path class="edge" d="M 0 0 V -15.2573 H -13.4167" /><rect class="sym" height="6" width="6" x="-3" y="-3" /><text class="lab" transform="translate(0 11)">5</text></g><g class="a20 c1 node n16 p0" transform="translate(-13.4167 8.39747)"><g class="a16 c2 node n14 p0" transform="translate(0.0 1.66597)"><g class="a14 leaf node n9 p0 sample" transform="translate(11.5 5.19383)"><path class="edge" d="M 0 0 V -5.19383 H -11.5" /><rect class="sym" height="6" width="6" x="-3" y="-3" /><text class="lab" transform="translate(0 11)">9</text></g><g class="a14 c2 node n12 p0" transform="translate(-11.5 3.35962)"><g class="a12 leaf node n1 p0 sample" transform="translate(-7.66667 1.83421)"><path class="edge" d="M 0 0 V -1.83421 H 7.66667" /><rect class="sym" height="6" width="6" x="-3" y="-3" /><text class="lab" transform="translate(0 11)">1</text></g><g class="a12 leaf node n2 p0 sample" transform="translate(7.66667 1.83421)"><path class="edge" d="M 0 0 V -1.83421 H -7.66667" /><rect class="sym" height="6" width="6" x="-3" y="-3" /><text class="lab" transform="translate(0 11)">2</text></g><path class="edge" d="M 0 0 V -3.35962 H 11.5" /><circle class="sym" cx="0" cy="0" r="3" /><text class="lab lft" transform="translate(-3 -7.0)">12</text></g><path class="edge" d="M 0 0 V -1.66597 H 0.0" /><circle class="sym" cx="0" cy="0" r="3" /><text class="lab lft" transform="translate(-3 -7.0)">14</text></g><path class="edge" d="M 0 0 V -8.39747 H 13.4167" /><circle class="sym" cx="0" cy="0" r="3" /><text class="lab lft" transform="translate(-3 -7.0)">16</text></g><path class="edge" d="M 0 0 V -7.08409 H 14.375" /><circle class="sym" cx="0" cy="0" r="3" /><text class="lab lft" transform="translate(-3 -7.0)">20</text></g><path class="edge" d="M 0 0 V -58.4349 H 29.2292" /><circle class="sym" cx="0" cy="0" r="3" /><text class="lab lft" transform="translate(-3 -7.0)">24</text></g><g class="a31 c1 node n30 p0" transform="translate(29.2292 1.9486)"><g class="a30 c1 node n27 p0" transform="translate(0.0 24.599)"><g class="a27 c2 node n25 p0" transform="translate(0.0 28.2608)"><g class="a25 leaf node n4 p0 sample" transform="translate(17.25 25.9677)"><path class="edge" d="M 0 0 V -25.9677 H -17.25" /><rect class="sym" height="6" width="6" x="-3" y="-3" /><text class="lab" transform="translate(0 11)">4</text></g><g class="a25 c1 node n22 p0" transform="translate(-17.25 7.63539)"><g class="a22 c1 node n21 p0" transform="translate(0.0 2.77004)"><g class="a21 c2 node n19 p0" transform="translate(0.0 2.11003)"><g class="a19 leaf node n3 p0 sample" transform="translate(-11.5 13.4523)"><path class="edge" d="M 0 0 V -13.4523 H 11.5" /><rect class="sym" height="6" width="6" x="-3" y="-3" /><text class="lab" transform="translate(0 11)">3</text></g><g class="a19 c2 node n13 p0" transform="translate(11.5 9.53957)"><g class="a13 leaf node n7 p0 sample" transform="translate(-7.66667 3.91271)"><path class="edge" d="M 0 0 V -3.91271 H 7.66667" /><rect class="sym" height="6" width="6" x="-3" y="-3" /><text class="lab" transform="translate(0 11)">7</text></g><g class="a13 c1 node n10 p0" transform="translate(7.66667 3.61434)"><g class="a10 leaf node n8 p0 sample" transform="translate(0.0 0.29837)"><path class="edge" d="M 0 0 V -0.29837 H 0.0" /><rect class="sym" height="6" width="6" x="-3" y="-3" /><text class="lab" transform="translate(0 11)">8</text></g><path class="edge" d="M 0 0 V -3.61434 H -7.66667" /><circle class="sym" cx="0" cy="0" r="3" /><text class="lab rgt" transform="translate(3 -7.0)">10</text></g><path class="edge" d="M 0 0 V -9.53957 H -11.5" /><circle class="sym" cx="0" cy="0" r="3" /><text class="lab rgt" transform="translate(3 -7.0)">13</text></g><path class="edge" d="M 0 0 V -2.11003 H 0.0" /><circle class="sym" cx="0" cy="0" r="3" /><text class="lab lft" transform="translate(-3 -7.0)">19</text></g><path class="edge" d="M 0 0 V -2.77004 H 0.0" /><circle class="sym" cx="0" cy="0" r="3" /><text class="lab lft" transform="translate(-3 -7.0)">21</text></g><path class="edge" d="M 0 0 V -7.63539 H 17.25" /><circle class="sym" cx="0" cy="0" r="3" /><text class="lab lft" transform="translate(-3 -7.0)">22</text></g><path class="edge" d="M 0 0 V -28.2608 H 0.0" /><circle class="sym" cx="0" cy="0" r="3" /><text class="lab lft" transform="translate(-3 -7.0)">25</text></g><path class="edge" d="M 0 0 V -24.599 H 0.0" /><circle class="sym" cx="0" cy="0" r="3" /><text class="lab lft" transform="translate(-3 -7.0)">27</text></g><path class="edge" d="M 0 0 V -1.9486 H -29.2292" /><circle class="sym" cx="0" cy="0" r="3" /><text class="lab rgt" transform="translate(3 -7.0)">30</text></g><path class="edge" d="M 0 0 V -13.8238 H -45.7604" /><circle class="sym" cx="0" cy="0" r="3" /><text class="lab rgt" transform="translate(3 -7.0)">31</text></g><g class="a33 c1 node n32 p0" transform="translate(-45.7604 7.34019)"><g class="a32 c1 node n28 p0" transform="translate(0.0 31.1551)"><g class="a28 c1 node n26 p0" transform="translate(0.0 18.3642)"><g class="a26 leaf node n0 p0 sample" transform="translate(0.0 37.7405)"><path class="edge" d="M 0 0 V -37.7405 H 0.0" /><rect class="sym" height="6" width="6" x="-3" y="-3" /><text class="lab" transform="translate(0 11)">0</text></g><path class="edge" d="M 0 0 V -18.3642 H 0.0" /><circle class="sym" cx="0" cy="0" r="3" /><text class="lab lft" transform="translate(-3 -7.0)">26</text></g><path class="edge" d="M 0 0 V -31.1551 H 0.0" /><circle class="sym" cx="0" cy="0" r="3" /><text class="lab lft" transform="translate(-3 -7.0)">28</text></g><path class="edge" d="M 0 0 V -7.34019 H 45.7604" /><circle class="sym" cx="0" cy="0" r="3" /><text class="lab lft" transform="translate(-3 -7.0)">32</text></g><circle class="sym" cx="0" cy="0" r="3" /><text class="lab" transform="translate(0 -11)">33</text></g></g></g><g class="tree t3" transform="translate(600 0)"><g class="plotbox"><g class="c2 node n33 p0 root" transform="translate(95.9479 26.8)"><g class="a33 c2 node n31 p0" transform="translate(54.8646 13.8238)"><g class="a31 c2 node n24 p0" transform="translate(-14.8542 58.4349)"><g class="a24 c1 node n17 p0" transform="translate(14.375 14.2219)"><g class="a17 leaf node n6 p0 sample" transform="translate(0.0 8.11946)"><path class="edge" d="M 0 0 V -8.11946 H 0.0" /><rect class="sym" height="6" width="6" x="-3" y="-3" /><text class="lab" transform="translate(0 11)">6</text></g><path class="edge" d="M 0 0 V -14.2219 H -14.375" /><circle class="sym" cx="0" cy="0" r="3" /><text class="lab rgt" transform="translate(3 -7.0)">17</text></g><g class="a24 c2 node n20 p0" transform="translate(-14.375 7.08409)"><g class="a20 leaf node n5 p0 sample" transform="translate(13.4167 15.2573)"><path class="edge" d="M 0 0 V -15.2573 H -13.4167" /><rect class="sym" height="6" width="6" x="-3" y="-3" /><text class="lab" transform="translate(0 11)">5</text></g><g class="a20 c1 node n16 p0" transform="translate(-13.4167 8.39747)"><g class="a16 c2 node n14 p0" transform="translate(0.0 1.66597)"><g class="a14 leaf node n9 p0 sample" transform="translate(11.5 5.19383)"><path class="edge" d="M 0 0 V -5.19383 H -11.5" /><rect class="sym" height="6" width="6" x="-3" y="-3" /><text class="lab" transform="translate(0 11)">9</text></g><g class="a14 c2 node n12 p0" transform="translate(-11.5 3.35962)"><g class="a12 leaf node n1 p0 sample" transform="translate(-7.66667 1.83421)"><path class="edge" d="M 0 0 V -1.83421 H 7.66667" /><rect class="sym" height="6" width="6" x="-3" y="-3" /><text class="lab" transform="translate(0 11)">1</text></g><g class="a12 leaf node n2 p0 sample" transform="translate(7.66667 1.83421)"><path class="edge" d="M 0 0 V -1.83421 H -7.66667" /><rect class="sym" height="6" width="6" x="-3" y="-3" /><text class="lab" transform="translate(0 11)">2</text></g><path class="edge" d="M 0 0 V -3.35962 H 11.5" /><circle class="sym" cx="0" cy="0" r="3" /><text class="lab lft" transform="translate(-3 -7.0)">12</text></g><path class="edge" d="M 0 0 V -1.66597 H 0.0" /><circle class="sym" cx="0" cy="0" r="3" /><text class="lab lft" transform="translate(-3 -7.0)">14</text></g><path class="edge" d="M 0 0 V -8.39747 H 13.4167" /><circle class="sym" cx="0" cy="0" r="3" /><text class="lab lft" transform="translate(-3 -7.0)">16</text></g><path class="edge" d="M 0 0 V -7.08409 H 14.375" /><circle class="sym" cx="0" cy="0" r="3" /><text class="lab lft" transform="translate(-3 -7.0)">20</text></g><path class="edge" d="M 0 0 V -58.4349 H 14.8542" /><circle class="sym" cx="0" cy="0" r="3" /><text class="lab lft" transform="translate(-3 -7.0)">24</text></g><g class="a31 c1 node n30 p0" transform="translate(14.8542 1.9486)"><g class="a30 c1 node n27 p0" transform="translate(0.0 24.599)"><g class="a27 c1 node n25 p0" transform="translate(0.0 28.2608)"><g class="a25 leaf node n4 p0 sample" transform="translate(0.0 25.9677)"><path class="edge" d="M 0 0 V -25.9677 H 0.0" /><rect class="sym" height="6" width="6" x="-3" y="-3" /><text class="lab" transform="translate(0 11)">4</text></g><path class="edge" d="M 0 0 V -28.2608 H 0.0" /><circle class="sym" cx="0" cy="0" r="3" /><text class="lab lft" transform="translate(-3 -7.0)">25</text></g><path class="edge" d="M 0 0 V -24.599 H 0.0" /><circle class="sym" cx="0" cy="0" r="3" /><text class="lab lft" transform="translate(-3 -7.0)">27</text></g><path class="edge" d="M 0 0 V -1.9486 H -14.8542" /><circle class="sym" cx="0" cy="0" r="3" /><text class="lab rgt" transform="translate(3 -7.0)">30</text></g><path class="edge" d="M 0 0 V -13.8238 H -54.8646" /><circle class="sym" cx="0" cy="0" r="3" /><text class="lab rgt" transform="translate(3 -7.0)">31</text></g><g class="a33 c1 node n32 p0" transform="translate(-54.8646 7.34019)"><g class="a32 c1 node n28 p0" transform="translate(0.0 31.1551)"><g class="a28 c2 node n26 p0" transform="translate(0.0 18.3642)"><g class="a26 leaf node n0 p0 sample" transform="translate(-13.4167 37.7405)"><path class="edge" d="M 0 0 V -37.7405 H 13.4167" /><rect class="sym" height="6" width="6" x="-3" y="-3" /><text class="lab" transform="translate(0 11)">0</text></g><g class="a26 c1 node n23 p0" transform="translate(13.4167 19.4082)"><g class="a23 c1 node n21 p0" transform="translate(0.0 2.77004)"><g class="a21 c2 node n19 p0" transform="translate(0.0 2.11003)"><g class="a19 leaf node n3 p0 sample" transform="translate(-11.5 13.4523)"><path class="edge" d="M 0 0 V -13.4523 H 11.5" /><rect class="sym" height="6" width="6" x="-3" y="-3" /><text class="lab" transform="translate(0 11)">3</text></g><g class="a19 c2 node n13 p0" transform="translate(11.5 9.53957)"><g class="a13 leaf node n7 p0 sample" transform="translate(-7.66667 3.91271)"><path class="edge" d="M 0 0 V -3.91271 H 7.66667" /><rect class="sym" height="6" width="6" x="-3" y="-3" /><text class="lab" transform="translate(0 11)">7</text></g><g class="a13 c1 node n10 p0" transform="translate(7.66667 3.61434)"><g class="a10 leaf node n8 p0 sample" transform="translate(0.0 0.29837)"><path class="edge" d="M 0 0 V -0.29837 H 0.0" /><rect class="sym" height="6" width="6" x="-3" y="-3" /><text class="lab" transform="translate(0 11)">8</text></g><path class="edge" d="M 0 0 V -3.61434 H -7.66667" /><circle class="sym" cx="0" cy="0" r="3" /><text class="lab rgt" transform="translate(3 -7.0)">10</text></g><path class="edge" d="M 0 0 V -9.53957 H -11.5" /><circle class="sym" cx="0" cy="0" r="3" /><text class="lab rgt" transform="translate(3 -7.0)">13</text></g><path class="edge" d="M 0 0 V -2.11003 H 0.0" /><circle class="sym" cx="0" cy="0" r="3" /><text class="lab lft" transform="translate(-3 -7.0)">19</text></g><path class="edge" d="M 0 0 V -2.77004 H 0.0" /><circle class="sym" cx="0" cy="0" r="3" /><text class="lab lft" transform="translate(-3 -7.0)">21</text></g><path class="edge" d="M 0 0 V -19.4082 H -13.4167" /><circle class="sym" cx="0" cy="0" r="3" /><text class="lab rgt" transform="translate(3 -7.0)">23</text></g><path class="edge" d="M 0 0 V -18.3642 H 0.0" /><circle class="sym" cx="0" cy="0" r="3" /><text class="lab lft" transform="translate(-3 -7.0)">26</text></g><path class="edge" d="M 0 0 V -31.1551 H 0.0" /><circle class="sym" cx="0" cy="0" r="3" /><text class="lab lft" transform="translate(-3 -7.0)">28</text></g><path class="edge" d="M 0 0 V -7.34019 H 54.8646" /><circle class="sym" cx="0" cy="0" r="3" /><text class="lab lft" transform="translate(-3 -7.0)">32</text></g><circle class="sym" cx="0" cy="0" r="3" /><text class="lab" transform="translate(0 -11)">33</text></g></g></g><g class="tree t4" transform="translate(793.333 0)"><g class="plotbox"><g class="c2 node n33 p0 root" transform="translate(90.4375 26.8)"><g class="a33 c2 node n31 p0" transform="translate(49.3542 13.8238)"><g class="a31 c1 node n24 p0" transform="translate(-18.2083 58.4349)"><g class="a24 c2 node n20 p0" transform="translate(0.0 7.08409)"><g class="a20 leaf node n5 p0 sample" transform="translate(13.4167 15.2573)"><path class="edge" d="M 0 0 V -15.2573 H -13.4167" /><rect class="sym" height="6" width="6" x="-3" y="-3" /><text class="lab" transform="translate(0 11)">5</text></g><g class="a20 c1 node n16 p0" transform="translate(-13.4167 8.39747)"><g class="a16 c2 node n14 p0" transform="translate(0.0 1.66597)"><g class="a14 leaf node n9 p0 sample" transform="translate(11.5 5.19383)"><path class="edge" d="M 0 0 V -5.19383 H -11.5" /><rect class="sym" height="6" width="6" x="-3" y="-3" /><text class="lab" transform="translate(0 11)">9</text></g><g class="a14 c2 node n12 p0" transform="translate(-11.5 3.35962)"><g class="a12 leaf node n1 p0 sample" transform="translate(-7.66667 1.83421)"><path class="edge" d="M 0 0 V -1.83421 H 7.66667" /><rect class="sym" height="6" width="6" x="-3" y="-3" /><text class="lab" transform="translate(0 11)">1</text></g><g class="a12 leaf node n2 p0 sample" transform="translate(7.66667 1.83421)"><path class="edge" d="M 0 0 V -1.83421 H -7.66667" /><rect class="sym" height="6" width="6" x="-3" y="-3" /><text class="lab" transform="translate(0 11)">2</text></g><path class="edge" d="M 0 0 V -3.35962 H 11.5" /><circle class="sym" cx="0" cy="0" r="3" /><text class="lab lft" transform="translate(-3 -7.0)">12</text></g><path class="edge" d="M 0 0 V -1.66597 H 0.0" /><circle class="sym" cx="0" cy="0" r="3" /><text class="lab lft" transform="translate(-3 -7.0)">14</text></g><path class="edge" d="M 0 0 V -8.39747 H 13.4167" /><circle class="sym" cx="0" cy="0" r="3" /><text class="lab lft" transform="translate(-3 -7.0)">16</text></g><path class="edge" d="M 0 0 V -7.08409 H 0.0" /><circle class="sym" cx="0" cy="0" r="3" /><text class="lab lft" transform="translate(-3 -7.0)">20</text></g><path class="edge" d="M 0 0 V -58.4349 H 18.2083" /><circle class="sym" cx="0" cy="0" r="3" /><text class="lab lft" transform="translate(-3 -7.0)">24</text></g><g class="a31 c1 node n30 p0" transform="translate(18.2083 1.9486)"><g class="a30 c2 node n27 p0" transform="translate(0.0 24.599)"><g class="a27 c1 node n25 p0" transform="translate(-7.66667 28.2608)"><g class="a25 leaf node n4 p0 sample" transform="translate(0.0 25.9677)"><path class="edge" d="M 0 0 V -25.9677 H 0.0" /><rect class="sym" height="6" width="6" x="-3" y="-3" /><text class="lab" transform="translate(0 11)">4</text></g><path class="edge" d="M 0 0 V -28.2608 H 7.66667" /><circle class="sym" cx="0" cy="0" r="3" /><text class="lab lft" transform="translate(-3 -7.0)">25</text></g><g class="a27 c1 node n18 p0" transform="translate(7.66667 46.1091)"><g class="a18 leaf node n6 p0 sample" transform="translate(0.0 8.11946)"><path class="edge" d="M 0 0 V -8.11946 H 0.0" /><rect class="sym" height="6" width="6" x="-3" y="-3" /><text class="lab" transform="translate(0 11)">6</text></g><path class="edge" d="M 0 0 V -46.1091 H -7.66667" /><circle class="sym" cx="0" cy="0" r="3" /><text class="lab rgt" transform="translate(3 -7.0)">18</text></g><path class="edge" d="M 0 0 V -24.599 H 0.0" /><circle class="sym" cx="0" cy="0" r="3" /><text class="lab lft" transform="translate(-3 -7.0)">27</text></g><path class="edge" d="M 0 0 V -1.9486 H -18.2083" /><circle class="sym" cx="0" cy="0" r="3" /><text class="lab rgt" transform="translate(3 -7.0)">30</text></g><path class="edge" d="M 0 0 V -13.8238 H -49.3542" /><circle class="sym" cx="0" cy="0" r="3" /><text class="lab rgt" transform="translate(3 -7.0)">31</text></g><g class="a33 c1 node n32 p0" transform="translate(-49.3542 7.34019)"><g class="a32 c1 node n28 p0" transform="translate(0.0 31.1551)"><g class="a28 c2 node n26 p0" transform="translate(0.0 18.3642)"><g class="a26 leaf node n0 p0 sample" transform="translate(-13.4167 37.7405)"><path class="edge" d="M 0 0 V -37.7405 H 13.4167" /><rect class="sym" height="6" width="6" x="-3" y="-3" /><text class="lab" transform="translate(0 11)">0</text></g><g class="a26 c1 node n23 p0" transform="translate(13.4167 19.4082)"><g class="a23 c1 node n21 p0" transform="translate(0.0 2.77004)"><g class="a21 c2 node n19 p0" transform="translate(0.0 2.11003)"><g class="a19 leaf node n3 p0 sample" transform="translate(-11.5 13.4523)"><path class="edge" d="M 0 0 V -13.4523 H 11.5" /><rect class="sym" height="6" width="6" x="-3" y="-3" /><text class="lab" transform="translate(0 11)">3</text></g><g class="a19 c2 node n13 p0" transform="translate(11.5 9.53957)"><g class="a13 leaf node n7 p0 sample" transform="translate(-7.66667 3.91271)"><path class="edge" d="M 0 0 V -3.91271 H 7.66667" /><rect class="sym" height="6" width="6" x="-3" y="-3" /><text class="lab" transform="translate(0 11)">7</text></g><g class="a13 c1 node n10 p0" transform="translate(7.66667 3.61434)"><g class="a10 leaf node n8 p0 sample" transform="translate(0.0 0.29837)"><path class="edge" d="M 0 0 V -0.29837 H 0.0" /><rect class="sym" height="6" width="6" x="-3" y="-3" /><text class="lab" transform="translate(0 11)">8</text></g><path class="edge" d="M 0 0 V -3.61434 H -7.66667" /><circle class="sym" cx="0" cy="0" r="3" /><text class="lab rgt" transform="translate(3 -7.0)">10</text></g><path class="edge" d="M 0 0 V -9.53957 H -11.5" /><circle class="sym" cx="0" cy="0" r="3" /><text class="lab rgt" transform="translate(3 -7.0)">13</text></g><path class="edge" d="M 0 0 V -2.11003 H 0.0" /><circle class="sym" cx="0" cy="0" r="3" /><text class="lab lft" transform="translate(-3 -7.0)">19</text></g><path class="edge" d="M 0 0 V -2.77004 H 0.0" /><circle class="sym" cx="0" cy="0" r="3" /><text class="lab lft" transform="translate(-3 -7.0)">21</text></g><path class="edge" d="M 0 0 V -19.4082 H -13.4167" /><circle class="sym" cx="0" cy="0" r="3" /><text class="lab rgt" transform="translate(3 -7.0)">23</text></g><path class="edge" d="M 0 0 V -18.3642 H 0.0" /><circle class="sym" cx="0" cy="0" r="3" /><text class="lab lft" transform="translate(-3 -7.0)">26</text></g><path class="edge" d="M 0 0 V -31.1551 H 0.0" /><circle class="sym" cx="0" cy="0" r="3" /><text class="lab lft" transform="translate(-3 -7.0)">28</text></g><path class="edge" d="M 0 0 V -7.34019 H 49.3542" /><circle class="sym" cx="0" cy="0" r="3" /><text class="lab lft" transform="translate(-3 -7.0)">32</text></g><circle class="sym" cx="0" cy="0" r="3" /><text class="lab" transform="translate(0 -11)">33</text></g></g></g><g class="tree t5" transform="translate(986.667 0)"><g class="plotbox"><g class="c2 node n33 p0 root" transform="translate(98.1042 26.8)"><g class="a33 c2 node n31 p0" transform="translate(41.6875 13.8238)"><g class="a31 c1 node n24 p0" transform="translate(-18.2083 58.4349)"><g class="a24 c2 node n20 p0" transform="translate(0.0 7.08409)"><g class="a20 leaf node n5 p0 sample" transform="translate(13.4167 15.2573)"><path class="edge" d="M 0 0 V -15.2573 H -13.4167" /><rect class="sym" height="6" width="6" x="-3" y="-3" /><text class="lab" transform="translate(0 11)">5</text></g><g class="a20 c1 node n16 p0" transform="translate(-13.4167 8.39747)"><g class="a16 c2 node n14 p0" transform="translate(0.0 1.66597)"><g class="a14 leaf node n9 p0 sample" transform="translate(11.5 5.19383)"><path class="edge" d="M 0 0 V -5.19383 H -11.5" /><rect class="sym" height="6" width="6" x="-3" y="-3" /><text class="lab" transform="translate(0 11)">9</text></g><g class="a14 c2 node n12 p0" transform="translate(-11.5 3.35962)"><g class="a12 leaf node n1 p0 sample" transform="translate(-7.66667 1.83421)"><path class="edge" d="M 0 0 V -1.83421 H 7.66667" /><rect class="sym" height="6" width="6" x="-3" y="-3" /><text class="lab" transform="translate(0 11)">1</text></g><g class="a12 leaf node n2 p0 sample" transform="translate(7.66667 1.83421)"><path class="edge" d="M 0 0 V -1.83421 H -7.66667" /><rect class="sym" height="6" width="6" x="-3" y="-3" /><text class="lab" transform="translate(0 11)">2</text></g><path class="edge" d="M 0 0 V -3.35962 H 11.5" /><circle class="sym" cx="0" cy="0" r="3" /><text class="lab lft" transform="translate(-3 -7.0)">12</text></g><path class="edge" d="M 0 0 V -1.66597 H 0.0" /><circle class="sym" cx="0" cy="0" r="3" /><text class="lab lft" transform="translate(-3 -7.0)">14</text></g><path class="edge" d="M 0 0 V -8.39747 H 13.4167" /><circle class="sym" cx="0" cy="0" r="3" /><text class="lab lft" transform="translate(-3 -7.0)">16</text></g><path class="edge" d="M 0 0 V -7.08409 H 0.0" /><circle class="sym" cx="0" cy="0" r="3" /><text class="lab lft" transform="translate(-3 -7.0)">20</text></g><path class="edge" d="M 0 0 V -58.4349 H 18.2083" /><circle class="sym" cx="0" cy="0" r="3" /><text class="lab lft" transform="translate(-3 -7.0)">24</text></g><g class="a31 c1 node n30 p0" transform="translate(18.2083 1.9486)"><g class="a30 c2 node n27 p0" transform="translate(0.0 24.599)"><g class="a27 c1 node n25 p0" transform="translate(-7.66667 28.2608)"><g class="a25 leaf node n4 p0 sample" transform="translate(0.0 25.9677)"><path class="edge" d="M 0 0 V -25.9677 H 0.0" /><rect class="sym" height="6" width="6" x="-3" y="-3" /><text class="lab" transform="translate(0 11)">4</text></g><path class="edge" d="M 0 0 V -28.2608 H 7.66667" /><circle class="sym" cx="0" cy="0" r="3" /><text class="lab lft" transform="translate(-3 -7.0)">25</text></g><g class="a27 c1 node n18 p0" transform="translate(7.66667 46.1091)"><g class="a18 leaf node n6 p0 sample" transform="translate(0.0 8.11946)"><path class="edge" d="M 0 0 V -8.11946 H 0.0" /><rect class="sym" height="6" width="6" x="-3" y="-3" /><text class="lab" transform="translate(0 11)">6</text></g><path class="edge" d="M 0 0 V -46.1091 H -7.66667" /><circle class="sym" cx="0" cy="0" r="3" /><text class="lab rgt" transform="translate(3 -7.0)">18</text></g><path class="edge" d="M 0 0 V -24.599 H 0.0" /><circle class="sym" cx="0" cy="0" r="3" /><text class="lab lft" transform="translate(-3 -7.0)">27</text></g><path class="edge" d="M 0 0 V -1.9486 H -18.2083" /><circle class="sym" cx="0" cy="0" r="3" /><text class="lab rgt" transform="translate(3 -7.0)">30</text></g><path class="edge" d="M 0 0 V -13.8238 H -41.6875" /><circle class="sym" cx="0" cy="0" r="3" /><text class="lab rgt" transform="translate(3 -7.0)">31</text></g><g class="a33 c1 node n32 p0" transform="translate(-41.6875 7.34019)"><g class="a32 c2 node n28 p0" transform="translate(0.0 31.1551)"><g class="a28 c2 node n26 p0" transform="translate(-17.25 18.3642)"><g class="a26 leaf node n0 p0 sample" transform="translate(-11.5 37.7405)"><path class="edge" d="M 0 0 V -37.7405 H 11.5" /><rect class="sym" height="6" width="6" x="-3" y="-3" /><text class="lab" transform="translate(0 11)">0</text></g><g class="a26 c1 node n23 p0" transform="translate(11.5 19.4082)"><g class="a23 c1 node n21 p0" transform="translate(0.0 2.77004)"><g class="a21 c2 node n19 p0" transform="translate(0.0 2.11003)"><g class="a19 leaf node n3 p0 sample" transform="translate(-7.66667 13.4523)"><path class="edge" d="M 0 0 V -13.4523 H 7.66667" /><rect class="sym" height="6" width="6" x="-3" y="-3" /><text class="lab" transform="translate(0 11)">3</text></g><g class="a19 c1 node n13 p0" transform="translate(7.66667 9.53957)"><g class="a13 leaf node n7 p0 sample" transform="translate(0.0 3.91271)"><path class="edge" d="M 0 0 V -3.91271 H 0.0" /><rect class="sym" height="6" width="6" x="-3" y="-3" /><text class="lab" transform="translate(0 11)">7</text></g><path class="edge" d="M 0 0 V -9.53957 H -7.66667" /><circle class="sym" cx="0" cy="0" r="3" /><text class="lab rgt" transform="translate(3 -7.0)">13</text></g><path class="edge" d="M 0 0 V -2.11003 H 0.0" /><circle class="sym" cx="0" cy="0" r="3" /><text class="lab lft" transform="translate(-3 -7.0)">19</text></g><path class="edge" d="M 0 0 V -2.77004 H 0.0" /><circle class="sym" cx="0" cy="0" r="3" /><text class="lab lft" transform="translate(-3 -7.0)">21</text></g><path class="edge" d="M 0 0 V -19.4082 H -11.5" /><circle class="sym" cx="0" cy="0" r="3" /><text class="lab rgt" transform="translate(3 -7.0)">23</text></g><path class="edge" d="M 0 0 V -18.3642 H 17.25" /><circle class="sym" cx="0" cy="0" r="3" /><text class="lab lft" transform="translate(-3 -7.0)">26</text></g><g class="a28 c1 node n11 p0" transform="translate(17.25 55.8064)"><g class="a11 leaf node n8 p0 sample" transform="translate(0.0 0.29837)"><path class="edge" d="M 0 0 V -0.29837 H 0.0" /><rect class="sym" height="6" width="6" x="-3" y="-3" /><text class="lab" transform="translate(0 11)">8</text></g><path class="edge" d="M 0 0 V -55.8064 H -17.25" /><circle class="sym" cx="0" cy="0" r="3" /><text class="lab rgt" transform="translate(3 -7.0)">11</text></g><path class="edge" d="M 0 0 V -31.1551 H 0.0" /><circle class="sym" cx="0" cy="0" r="3" /><text class="lab lft" transform="translate(-3 -7.0)">28</text></g><path class="edge" d="M 0 0 V -7.34019 H 41.6875" /><circle class="sym" cx="0" cy="0" r="3" /><text class="lab lft" transform="translate(-3 -7.0)">32</text></g><circle class="sym" cx="0" cy="0" r="3" /><text class="lab" transform="translate(0 -11)">33</text></g></g></g></g></g></svg>
