<svg baseProfile="full" height="200" version="1.1" width="1200" xmlns="http://www.w3.org/2000/svg" xmlns:ev="http://www.w3.org/2001/xml-events" xmlns:xlink="http://www.w3.org/1999/xlink"><defs><style type="text/css"><![CDATA[.background path {fill: #808080; fill-opacity: 0}.background path:nth-child(odd) {fill-opacity: .1}.axes {font-size: 14px}.x-axis .tick .lab {font-weight: bold; dominant-baseline: hanging}.axes, .tree {font-size: 14px; text-anchor: middle}.axes line, .edge {stroke: black; fill: none}.y-axis .grid {stroke: #FAFAFA}.node > .sym {fill: black; stroke: none}.site > .sym {stroke: black}.mut text {fill: red; font-style: italic}.mut.extra text {fill: hotpink}.mut line {fill: none; stroke: none}.mut .sym {fill: none; stroke: red}.mut.extra .sym {stroke: hotpink}.node .mut .sym {stroke-width: 1.5px}.tree text, .tree-sequence text {dominant-baseline: central}.plotbox .lab.lft {text-anchor: end}.plotbox .lab.rgt {text-anchor: start}]]></style></defs><g class="tree-sequence"><g class="background"><path d="M20,0 l193.333,0 l0,138.2 l-132.853,25 l0,5 l-60.4806,0 l0,-5 l0,-25 l0,-138.2z" /><path d="M213.333,0 l193.333,0 l0,138.2 l-231.468,25 l0,5 l-94.7183,0 l0,-5 l132.853,-25 l0,-138.2z" /><path d="M406.667,0 l193.333,0 l0,138.2 l-387.003,25 l0,5 l-37.7981,0 l0,-5 l231.468,-25 l0,-138.2z" /><path d="M600,0 l193.333,0 l0,138.2 l-274.777,25 l0,5 l-305.559,0 l0,-5 l387.003,-25 l0,-138.2z" /><path d="M793.333,0 l193.333,0 l0,138.2 l15.7057,25 l0,5 l-483.816,0 l0,-5 l274.777,-25 l0,-138.2z" /><path d="M986.667,0 l193.333,0 l0,138.2 l0,25 l0,5 l-177.628,0 l0,-5 l-15.7057,-25 l0,-138.2z" /></g><g class="axes"><g class="x-axis"><g transform="translate(600 200)"><text class="lab" text-anchor="middle" transform="translate(0 -11)">Genome position</text></g><line x1="20" x2="1180" y1="163.2" y2="163.2" /><g class="ticks"><g class="tick" transform="translate(20 163.2)"><line x1="0" x2="0" y1="0" y2="5" /><g transform="translate(0 6)"><text class="lab">0.00</text></g></g><g class="tick" transform="translate(80.4806 163.2)"><line x1="0" x2="0" y1="0" y2="5" /><g transform="translate(0 6)"><text class="lab">52.14</text></g></g><g class="tick" transform="translate(175.199 163.2)"><line x1="0" x2="0" y1="0" y2="5" /><g transform="translate(0 6)"><text class="lab">133.79</text></g></g><g class="tick" transform="translate(212.997 163.2)"><line x1="0" x2="0" y1="0" y2="5" /><g transform="translate(0 6)"><text class="lab">166.38</text></g></g><g class="tick" transform="translate(518.556 163.2)"><line x1="0" x2="0" y1="0" y2="5" /><g transform="translate(0 6)"><text class="lab">429.79</text></g></g><g class="tick" transform="translate(1002.37 163.2)"><line x1="0" x2="0" y1="0" y2="5" /><g transform="translate(0 6)"><text class="lab">846.87</text></g></g><g class="tick" transform="translate(1180 163.2)"><line x1="0" x2="0" y1="0" y2="5" /><g transform="translate(0 6)"><text class="lab">1000.00</text></g></g></g></g></g><g class="plotbox trees"><g class="tree t0" transform="translate(20 0)"><g class="plotbox"><g class="c2 node n33 p0 root" transform="translate(139.073 26.8)"><g class="a33 c1 node n31 p0" transform="translate(26.5938 7.59536)"><g class="a31 c1 node n20 p0" transform="translate(0.0 42.1471)"><g class="a20 leaf node n8 p0 sample" transform="translate(0.0 44.8575)"><path class="edge" d="M 0 0 V -44.8575 H 0.0" /><rect class="sym" height="6" width="6" x="-3" y="-3" /><text class="lab" transform="translate(0 11)">8</text></g><path class="edge" d="M 0 0 V -42.1471 H 0.0" /><circle class="sym" cx="0" cy="0" r="3" /><text class="lab lft" transform="translate(-3 -7.0)">20</text></g><path class="edge" d="M 0 0 V -7.59536 H -26.5938" /><circle class="sym" cx="0" cy="0" r="3" /><text class="lab rgt" transform="translate(3 -7.0)">31</text></g><g class="a33 c1 node n32 p0" transform="translate(-26.5938 5.05579)"><g class="a32 c2 node n30 p0" transform="translate(0.0 5.18394)"><g class="a30 c1 node n13 p0" transform="translate(37.8542 83.6273)"><g class="a13 leaf node n2 p0 sample" transform="translate(0.0 0.732991)"><path class="edge" d="M 0 0 V -0.732991 H 0.0" /><rect class="sym" height="6" width="6" x="-3" y="-3" /><text class="lab" transform="translate(0 11)">2</text></g><path class="edge" d="M 0 0 V -83.6273 H -37.8542" /><circle class="sym" cx="0" cy="0" r="3" /><text class="lab rgt" transform="translate(3 -7.0)">13</text></g><g class="a30 c2 node n29 p0" transform="translate(-37.8542 9.62228)"><g class="a29 c1 node n26 p0" transform="translate(-27.7917 8.42986)"><g class="a26 c1 node n24 p0" transform="translate(0.0 0.43425)"><g class="a24 c2 node n23 p0" transform="translate(0.0 16.3236)"><g class="a23 c2 node n19 p0" transform="translate(-11.5 14.5849)"><g class="a19 leaf node n0 p0 sample" transform="translate(-7.66667 34.9653)"><path class="edge" d="M 0 0 V -34.9653 H 7.66667" /><rect class="sym" height="6" width="6" x="-3" y="-3" /><text class="lab" transform="translate(0 11)">0</text></g><g class="a19 c1 node n10 p0" transform="translate(7.66667 34.3628)"><g class="a10 leaf node n6 p0 sample" transform="translate(0.0 0.602477)"><path class="edge" d="M 0 0 V -0.602477 H 0.0" /><rect class="sym" height="6" width="6" x="-3" y="-3" /><text class="lab" transform="translate(0 11)">6</text></g><path class="edge" d="M 0 0 V -34.3628 H -7.66667" /><circle class="sym" cx="0" cy="0" r="3" /><text class="lab rgt" transform="translate(3 -7.0)">10</text></g><path class="edge" d="M 0 0 V -14.5849 H 11.5" /><circle class="sym" cx="0" cy="0" r="3" /><text class="lab lft" transform="translate(-3 -7.0)">19</text></g><g class="a23 c1 node n21 p0" transform="translate(11.5 4.06096)"><g class="a21 c1 node n18 p0" transform="translate(0.0 33.3026)"><g class="a18 leaf node n5 p0 sample" transform="translate(0.0 12.1867)"><path class="edge" d="M 0 0 V -12.1867 H 0.0" /><rect class="sym" height="6" width="6" x="-3" y="-3" /><text class="lab" transform="translate(0 11)">5</text></g><path class="edge" d="M 0 0 V -33.3026 H 0.0" /><circle class="sym" cx="0" cy="0" r="3" /><text class="lab lft" transform="translate(-3 -7.0)">18</text></g><path class="edge" d="M 0 0 V -4.06096 H -11.5" /><circle class="sym" cx="0" cy="0" r="3" /><text class="lab rgt" transform="translate(3 -7.0)">21</text></g><path class="edge" d="M 0 0 V -16.3236 H 0.0" /><circle class="sym" cx="0" cy="0" r="3" /><text class="lab lft" transform="translate(-3 -7.0)">23</text></g><path class="edge" d="M 0 0 V -0.43425 H 0.0" /><circle class="sym" cx="0" cy="0" r="3" /><text class="lab lft" transform="translate(-3 -7.0)">24</text></g><path class="edge" d="M 0 0 V -8.42986 H 27.7917" /><circle class="sym" cx="0" cy="0" r="3" /><text class="lab lft" transform="translate(-3 -7.0)">26</text></g><g class="a29 c1 node n27 p0" transform="translate(27.7917 4.14109)"><g class="a27 c2 node n17 p0" transform="translate(0.0 59.1671)"><g class="a17 c2 node n12 p0" transform="translate(-21.0833 10.8011)"><g class="a12 leaf node n1 p0 sample" transform="translate(-7.66667 0.628752)"><path class="edge" d="M 0 0 V -0.628752 H 7.66667" /><rect class="sym" height="6" width="6" x="-3" y="-3" /><text class="lab" transform="translate(0 11)">1</text></g><g class="a12 leaf node n9 p0 sample" transform="translate(7.66667 0.628752)"><path class="edge" d="M 0 0 V -0.628752 H -7.66667" /><rect class="sym" height="6" width="6" x="-3" y="-3" /><text class="lab" transform="translate(0 11)">9</text></g><path class="edge" d="M 0 0 V -10.8011 H 21.0833" /><circle class="sym" cx="0" cy="0" r="3" /><text class="lab lft" transform="translate(-3 -7.0)">12</text></g><g class="a17 c2 node n16 p0" transform="translate(21.0833 6.70037)"><g class="a16 leaf node n7 p0 sample" transform="translate(11.5 4.72947)"><path class="edge" d="M 0 0 V -4.72947 H -11.5" /><rect class="sym" height="6" width="6" x="-3" y="-3" /><text class="lab" transform="translate(0 11)">7</text></g><g class="a16 c2 node n15 p0" transform="translate(-11.5 3.08977)"><g class="a15 leaf node n3 p0 sample" transform="translate(-7.66667 1.6397)"><path class="edge" d="M 0 0 V -1.6397 H 7.66667" /><rect class="sym" height="6" width="6" x="-3" y="-3" /><text class="lab" transform="translate(0 11)">3</text></g><g class="a15 leaf node n4 p0 sample" transform="translate(7.66667 1.6397)"><path class="edge" d="M 0 0 V -1.6397 H -7.66667" /><rect class="sym" height="6" width="6" x="-3" y="-3" /><text class="lab" transform="translate(0 11)">4</text></g><path class="edge" d="M 0 0 V -3.08977 H 11.5" /><circle class="sym" cx="0" cy="0" r="3" /><text class="lab lft" transform="translate(-3 -7.0)">15</text></g><path class="edge" d="M 0 0 V -6.70037 H -21.0833" /><circle class="sym" cx="0" cy="0" r="3" /><text class="lab rgt" transform="translate(3 -7.0)">16</text></g><path class="edge" d="M 0 0 V -59.1671 H 0.0" /><circle class="sym" cx="0" cy="0" r="3" /><text class="lab lft" transform="translate(-3 -7.0)">17</text></g><path class="edge" d="M 0 0 V -4.14109 H -27.7917" /><circle class="sym" cx="0" cy="0" r="3" /><text class="lab rgt" transform="translate(3 -7.0)">27</text></g><path class="edge" d="M 0 0 V -9.62228 H 37.8542" /><circle class="sym" cx="0" cy="0" r="3" /><text class="lab lft" transform="translate(-3 -7.0)">29</text></g><path class="edge" d="M 0 0 V -5.18394 H 0.0" /><circle class="sym" cx="0" cy="0" r="3" /><text class="lab lft" transform="translate(-3 -7.0)">30</text></g><path class="edge" d="M 0 0 V -5.05579 H 26.5938" /><circle class="sym" cx="0" cy="0" r="3" /><text class="lab lft" transform="translate(-3 -7.0)">32</text></g><circle class="sym" cx="0" cy="0" r="3" /><text class="lab" transform="translate(0 -11)">33</text></g></g></g><g class="tree t1" transform="translate(213.333 0)"><g class="plotbox"><g class="c2 node n33 p0 root" transform="translate(138.115 26.8)"><g class="a33 c1 node n31 p0" transform="translate(27.5521 7.59536)"><g class="a31 c1 node n20 p0" transform="translate(0.0 42.1471)"><g class="a20 leaf node n8 p0 sample" transform="translate(0.0 44.8575)"><path class="edge" d="M 0 0 V -44.8575 H 0.0" /><rect class="sym" height="6" width="6" x="-3" y="-3" /><text class="lab" transform="translate(0 11)">8</text></g><path class="edge" d="M 0 0 V -42.1471 H 0.0" /><circle class="sym" cx="0" cy="0" r="3" /><text class="lab lft" transform="translate(-3 -7.0)">20</text></g><path class="edge" d="M 0 0 V -7.59536 H -27.5521" /><circle class="sym" cx="0" cy="0" r="3" /><text class="lab rgt" transform="translate(3 -7.0)">31</text></g><g class="a33 c1 node n32 p0" transform="translate(-27.5521 5.05579)"><g class="a32 c2 node n30 p0" transform="translate(0.0 5.18394)"><g class="a30 c1 node n13 p0" transform="translate(39.7708 83.6273)"><g class="a13 leaf node n2 p0 sample" transform="translate(0.0 0.732991)"><path class="edge" d="M 0 0 V -0.732991 H 0.0" /><rect class="sym" height="6" width="6" x="-3" y="-3" /><text class="lab" transform="translate(0 11)">2</text></g><path class="edge" d="M 0 0 V -83.6273 H -39.7708" /><circle class="sym" cx="0" cy="0" r="3" /><text class="lab rgt" transform="translate(3 -7.0)">13</text></g><g class="a30 c2 node n29 p0" transform="translate(-39.7708 9.62228)"><g class="a29 c1 node n26 p0" transform="translate(-31.625 8.42986)"><g class="a26 c1 node n24 p0" transform="translate(0.0 0.43425)"><g class="a24 c2 node n23 p0" transform="translate(0.0 16.3236)"><g class="a23 c1 node n19 p0" transform="translate(-11.5 14.5849)"><g class="a19 leaf node n0 p0 sample" transform="translate(0.0 34.9653)"><path class="edge" d="M 0 0 V -34.9653 H 0.0" /><rect class="sym" height="6" width="6" x="-3" y="-3" /><text class="lab" transform="translate(0 11)">0</text></g><path class="edge" d="M 0 0 V -14.5849 H 11.5" /><circle class="sym" cx="0" cy="0" r="3" /><text class="lab lft" transform="translate(-3 -7.0)">19</text></g><g class="a23 c1 node n21 p0" transform="translate(11.5 4.06096)"><g class="a21 c2 node n18 p0" transform="translate(0.0 33.3026)"><g class="a18 leaf node n5 p0 sample" transform="translate(-7.66667 12.1867)"><path class="edge" d="M 0 0 V -12.1867 H 7.66667" /><rect class="sym" height="6" width="6" x="-3" y="-3" /><text class="lab" transform="translate(0 11)">5</text></g><g class="a18 c1 node n11 p0" transform="translate(7.66667 11.5842)"><g class="a11 leaf node n6 p0 sample" transform="translate(0.0 0.602477)"><path class="edge" d="M 0 0 V -0.602477 H 0.0" /><rect class="sym" height="6" width="6" x="-3" y="-3" /><text class="lab" transform="translate(0 11)">6</text></g><path class="edge" d="M 0 0 V -11.5842 H -7.66667" /><circle class="sym" cx="0" cy="0" r="3" /><text class="lab rgt" transform="translate(3 -7.0)">11</text></g><path class="edge" d="M 0 0 V -33.3026 H 0.0" /><circle class="sym" cx="0" cy="0" r="3" /><text class="lab lft" transform="translate(-3 -7.0)">18</text></g><path class="edge" d="M 0 0 V -4.06096 H -11.5" /><circle class="sym" cx="0" cy="0" r="3" /><text class="lab rgt" transform="translate(3 -7.0)">21</text></g><path class="edge" d="M 0 0 V -16.3236 H 0.0" /><circle class="sym" cx="0" cy="0" r="3" /><text class="lab lft" transform="translate(-3 -7.0)">23</text></g><path class="edge" d="M 0 0 V -0.43425 H 0.0" /><circle class="sym" cx="0" cy="0" r="3" /><text class="lab lft" transform="translate(-3 -7.0)">24</text></g><path class="edge" d="M 0 0 V -8.42986 H 31.625" /><circle class="sym" cx="0" cy="0" r="3" /><text class="lab lft" transform="translate(-3 -7.0)">26</text></g><g class="a29 c1 node n27 p0" transform="translate(31.625 4.14109)"><g class="a27 c2 node n17 p0" transform="translate(0.0 59.1671)"><g class="a17 c2 node n12 p0" transform="translate(-21.0833 10.8011)"><g class="a12 leaf node n1 p0 sample" transform="translate(-7.66667 0.628752)"><path class="edge" d="M 0 0 V -0.628752 H 7.66667" /><rect class="sym" height="6" width="6" x="-3" y="-3" /><text class="lab" transform="translate(0 11)">1</text></g><g class="a12 leaf node n9 p0 sample" transform="translate(7.66667 0.628752)"><path class="edge" d="M 0 0 V -0.628752 H -7.66667" /><rect class="sym" height="6" width="6" x="-3" y="-3" /><text class="lab" transform="translate(0 11)">9</text></g><path class="edge" d="M 0 0 V -10.8011 H 21.0833" /><circle class="sym" cx="0" cy="0" r="3" /><text class="lab lft" transform="translate(-3 -7.0)">12</text></g><g class="a17 c2 node n16 p0" transform="translate(21.0833 6.70037)"><g class="a16 leaf node n7 p0 sample" transform="translate(11.5 4.72947)"><path class="edge" d="M 0 0 V -4.72947 H -11.5" /><rect class="sym" height="6" width="6" x="-3" y="-3" /><text class="lab" transform="translate(0 11)">7</text></g><g class="a16 c2 node n15 p0" transform="translate(-11.5 3.08977)"><g class="a15 leaf node n3 p0 sample" transform="translate(-7.66667 1.6397)"><path class="edge" d="M 0 0 V -1.6397 H 7.66667" /><rect class="sym" height="6" width="6" x="-3" y="-3" /><text class="lab" transform="translate(0 11)">3</text></g><g class="a15 leaf node n4 p0 sample" transform="translate(7.66667 1.6397)"><path class="edge" d="M 0 0 V -1.6397 H -7.66667" /><rect class="sym" height="6" width="6" x="-3" y="-3" /><text class="lab" transform="translate(0 11)">4</text></g><path class="edge" d="M 0 0 V -3.08977 H 11.5" /><circle class="sym" cx="0" cy="0" r="3" /><text class="lab lft" transform="translate(-3 -7.0)">15</text></g><path class="edge" d="M 0 0 V -6.70037 H -21.0833" /><circle class="sym" cx="0" cy="0" r="3" /><text class="lab rgt" transform="translate(3 -7.0)">16</text></g><path class="edge" d="M 0 0 V -59.1671 H 0.0" /><circle class="sym" cx="0" cy="0" r="3" /><text class="lab lft" transform="translate(-3 -7.0)">17</text></g><path class="edge" d="M 0 0 V -4.14109 H -31.625" /><circle class="sym" cx="0" cy="0" r="3" /><text class="lab rgt" transform="translate(3 -7.0)">27</text></g><path class="edge" d="M 0 0 V -9.62228 H 39.7708" /><circle class="sym" cx="0" cy="0" r="3" /><text class="lab lft" transform="translate(-3 -7.0)">29</text></g><path class="edge" d="M 0 0 V -5.18394 H 0.0" /><circle class="sym" cx="0" cy="0" r="3" /><text class="lab lft" transform="translate(-3 -7.0)">30</text></g><path class="edge" d="M 0 0 V -5.05579 H 27.5521" /><circle class="sym" cx="0" cy="0" r="3" /><text class="lab lft" transform="translate(-3 -7.0)">32</text></g><circle class="sym" cx="0" cy="0" r="3" /><text class="lab" transform="translate(0 -11)">33</text></g></g></g><g class="tree t2" transform="translate(406.667 0)"><g class="plotbox"><g class="c2 node n33 p0 root" transform="translate(114.396 26.8)"><g class="a33 c1 node n31 p0" transform="translate(43.6042 7.59536)"><g class="a31 c2 node n20 p0" transform="translate(0.0 42.1471)"><g class="a20 leaf node n8 p0 sample" transform="translate(7.66667 44.8575)"><path class="edge" d="M 0 0 V -44.8575 H -7.66667" /><rect class="sym" height="6" width="6" x="-3" y="-3" /><text class="lab" transform="translate(0 11)">8</text></g><g class="a20 c1 node n14 p0" transform="translate(-7.66667 44.1245)"><g class="a14 leaf node n2 p0 sample" transform="translate(0.0 0.732991)"><path class="edge" d="M 0 0 V -0.732991 H 0.0" /><rect class="sym" height="6" width="6" x="-3" y="-3" /><text class="lab" transform="translate(0 11)">2</text></g><path class="edge" d="M 0 0 V -44.1245 H 7.66667" /><circle class="sym" cx="0" cy="0" r="3" /><text class="lab lft" transform="translate(-3 -7.0)">14</text></g><path class="edge" d="M 0 0 V -42.1471 H 0.0" /><circle class="sym" cx="0" cy="0" r="3" /><text class="lab lft" transform="translate(-3 -7.0)">20</text></g><path class="edge" d="M 0 0 V -7.59536 H -43.6042" /><circle class="sym" cx="0" cy="0" r="3" /><text class="lab rgt" transform="translate(3 -7.0)">31</text></g><g class="a33 c1 node n32 p0" transform="translate(-43.6042 5.05579)"><g class="a32 c1 node n30 p0" transform="translate(0.0 5.18394)"><g class="a30 c2 node n29 p0" transform="translate(0.0 9.62228)"><g class="a29 c1 node n26 p0" transform="translate(-31.625 8.42986)"><g class="a26 c1 node n24 p0" transform="translate(0.0 0.43425)"><g class="a24 c2 node n23 p0" transform="translate(0.0 16.3236)"><g class="a23 c1 node n19 p0" transform="translate(-11.5 14.5849)"><g class="a19 leaf node n0 p0 sample" transform="translate(0.0 34.9653)"><path class="edge" d="M 0 0 V -34.9653 H 0.0" /><rect class="sym" height="6" width="6" x="-3" y="-3" /><text class="lab" transform="translate(0 11)">0</text></g><path class="edge" d="M 0 0 V -14.5849 H 11.5" /><circle class="sym" cx="0" cy="0" r="3" /><text class="lab lft" transform="translate(-3 -7.0)">19</text></g><g class="a23 c1 node n21 p0" transform="translate(11.5 4.06096)"><g class="a21 c2 node n18 p0" transform="translate(0.0 33.3026)"><g class="a18 leaf node n5 p0 sample" transform="translate(-7.66667 12.1867)"><path class="edge" d="M 0 0 V -12.1867 H 7.66667" /><rect class="sym" height="6" width="6" x="-3" y="-3" /><text class="lab" transform="translate(0 11)">5</text></g><g class="a18 c1 node n11 p0" transform="translate(7.66667 11.5842)"><g class="a11 leaf node n6 p0 sample" transform="translate(0.0 0.602477)"><path class="edge" d="M 0 0 V -0.602477 H 0.0" /><rect class="sym" height="6" width="6" x="-3" y="-3" /><text class="lab" transform="translate(0 11)">6</text></g><path class="edge" d="M 0 0 V -11.5842 H -7.66667" /><circle class="sym" cx="0" cy="0" r="3" /><text class="lab rgt" transform="translate(3 -7.0)">11</text></g><path class="edge" d="M 0 0 V -33.3026 H 0.0" /><circle class="sym" cx="0" cy="0" r="3" /><text class="lab lft" transform="translate(-3 -7.0)">18</text></g><path class="edge" d="M 0 0 V -4.06096 H -11.5" /><circle class="sym" cx="0" cy="0" r="3" /><text class="lab rgt" transform="translate(3 -7.0)">21</text></g><path class="edge" d="M 0 0 V -16.3236 H 0.0" /><circle class="sym" cx="0" cy="0" r="3" /><text class="lab lft" transform="translate(-3 -7.0)">23</text></g><path class="edge" d="M 0 0 V -0.43425 H 0.0" /><circle class="sym" cx="0" cy="0" r="3" /><text class="lab lft" transform="translate(-3 -7.0)">24</text></g><path class="edge" d="M 0 0 V -8.42986 H 31.625" /><circle class="sym" cx="0" cy="0" r="3" /><text class="lab lft" transform="translate(-3 -7.0)">26</text></g><g class="a29 c1 node n27 p0" transform="translate(31.625 4.14109)"><g class="a27 c2 node n17 p0" transform="translate(0.0 59.1671)"><g class="a17 c2 node n12 p0" transform="translate(-21.0833 10.8011)"><g class="a12 leaf node n1 p0 sample" transform="translate(-7.66667 0.628752)"><path class="edge" d="M 0 0 V -0.628752 H 7.66667" /><rect class="sym" height="6" width="6" x="-3" y="-3" /><text class="lab" transform="translate(0 11)">1</text></g><g class="a12 leaf node n9 p0 sample" transform="translate(7.66667 0.628752)"><path class="edge" d="M 0 0 V -0.628752 H -7.66667" /><rect class="sym" height="6" width="6" x="-3" y="-3" /><text class="lab" transform="translate(0 11)">9</text></g><path class="edge" d="M 0 0 V -10.8011 H 21.0833" /><circle class="sym" cx="0" cy="0" r="3" /><text class="lab lft" transform="translate(-3 -7.0)">12</text></g><g class="a17 c2 node n16 p0" transform="translate(21.0833 6.70037)"><g class="a16 leaf node n7 p0 sample" transform="translate(11.5 4.72947)"><path class="edge" d="M 0 0 V -4.72947 H -11.5" /><rect class="sym" height="6" width="6" x="-3" y="-3" /><text class="lab" transform="translate(0 11)">7</text></g><g class="a16 c2 node n15 p0" transform="translate(-11.5 3.08977)"><g class="a15 leaf node n3 p0 sample" transform="translate(-7.66667 1.6397)"><path class="edge" d="M 0 0 V -1.6397 H 7.66667" /><rect class="sym" height="6" width="6" x="-3" y="-3" /><text class="lab" transform="translate(0 11)">3</text></g><g class="a15 leaf node n4 p0 sample" transform="translate(7.66667 1.6397)"><path class="edge" d="M 0 0 V -1.6397 H -7.66667" /><rect class="sym" height="6" width="6" x="-3" y="-3" /><text class="lab" transform="translate(0 11)">4</text></g><path class="edge" d="M 0 0 V -3.08977 H 11.5" /><circle class="sym" cx="0" cy="0" r="3" /><text class="lab lft" transform="translate(-3 -7.0)">15</text></g><path class="edge" d="M 0 0 V -6.70037 H -21.0833" /><circle class="sym" cx="0" cy="0" r="3" /><text class="lab rgt" transform="translate(3 -7.0)">16</text></g><path class="edge" d="M 0 0 V -59.1671 H 0.0" /><circle class="sym" cx="0" cy="0" r="3" /><text class="lab lft" transform="translate(-3 -7.0)">17</text></g><path class="edge" d="M 0 0 V -4.14109 H -31.625" /><circle class="sym" cx="0" cy="0" r="3" /><text class="lab rgt" transform="translate(3 -7.0)">27</text></g><path class="edge" d="M 0 0 V -9.62228 H 0.0" /><circle class="sym" cx="0" cy="0" r="3" /><text class="lab lft" transform="translate(-3 -7.0)">29</text></g><path class="edge" d="M 0 0 V -5.18394 H 0.0" /><circle class="sym" cx="0" cy="0" r="3" /><text class="lab lft" transform="translate(-3 -7.0)">30</text></g><path class="edge" d="M 0 0 V -5.05579 H 43.6042" /><circle class="sym" cx="0" cy="0" r="3" /><text class="lab lft" transform="translate(-3 -7.0)">32</text></g><circle class="sym" cx="0" cy="0" r="3" /><text class="lab" transform="translate(0 -11)">33</text></g></g></g><g class="tree t3" transform="translate(600 0)"><g class="plotbox"><g class="c2 node n33 p0 root" transform="translate(114.396 26.8)"><g class="a33 c1 node n31 p0" transform="translate(43.6042 7.59536)"><g class="a31 c2 node n20 p0" transform="translate(0.0 42.1471)"><g class="a20 leaf node n8 p0 sample" transform="translate(7.66667 44.8575)"><path class="edge" d="M 0 0 V -44.8575 H -7.66667" /><rect class="sym" height="6" width="6" x="-3" y="-3" /><text class="lab" transform="translate(0 11)">8</text></g><g class="a20 c1 node n14 p0" transform="translate(-7.66667 44.1245)"><g class="a14 leaf node n2 p0 sample" transform="translate(0.0 0.732991)"><path class="edge" d="M 0 0 V -0.732991 H 0.0" /><rect class="sym" height="6" width="6" x="-3" y="-3" /><text class="lab" transform="translate(0 11)">2</text></g><path class="edge" d="M 0 0 V -44.1245 H 7.66667" /><circle class="sym" cx="0" cy="0" r="3" /><text class="lab lft" transform="translate(-3 -7.0)">14</text></g><path class="edge" d="M 0 0 V -42.1471 H 0.0" /><circle class="sym" cx="0" cy="0" r="3" /><text class="lab lft" transform="translate(-3 -7.0)">20</text></g><path class="edge" d="M 0 0 V -7.59536 H -43.6042" /><circle class="sym" cx="0" cy="0" r="3" /><text class="lab rgt" transform="translate(3 -7.0)">31</text></g><g class="a33 c1 node n32 p0" transform="translate(-43.6042 5.05579)"><g class="a32 c1 node n30 p0" transform="translate(0.0 5.18394)"><g class="a30 c2 node n29 p0" transform="translate(0.0 9.62228)"><g class="a29 c2 node n26 p0" transform="translate(-31.625 8.42986)"><g class="a26 c1 node n24 p0" transform="translate(-11.5 0.43425)"><g class="a24 c1 node n23 p0" transform="translate(0.0 16.3236)"><g class="a23 c1 node n19 p0" transform="translate(0.0 14.5849)"><g class="a19 leaf node n0 p0 sample" transform="translate(0.0 34.9653)"><path class="edge" d="M 0 0 V -34.9653 H 0.0" /><rect class="sym" height="6" width="6" x="-3" y="-3" /><text class="lab" transform="translate(0 11)">0</text></g><path class="edge" d="M 0 0 V -14.5849 H 0.0" /><circle class="sym" cx="0" cy="0" r="3" /><text class="lab lft" transform="translate(-3 -7.0)">19</text></g><path class="edge" d="M 0 0 V -16.3236 H 0.0" /><circle class="sym" cx="0" cy="0" r="3" /><text class="lab lft" transform="translate(-3 -7.0)">23</text></g><path class="edge" d="M 0 0 V -0.43425 H 11.5" /><circle class="sym" cx="0" cy="0" r="3" /><text class="lab lft" transform="translate(-3 -7.0)">24</text></g><g class="a26 c1 node n22 p0" transform="translate(11.5 20.8188)"><g class="a22 c2 node n18 p0" transform="translate(0.0 33.3026)"><g class="a18 leaf node n5 p0 sample" transform="translate(-7.66667 12.1867)"><path class="edge" d="M 0 0 V -12.1867 H 7.66667" /><rect class="sym" height="6" width="6" x="-3" y="-3" /><text class="lab" transform="translate(0 11)">5</text></g><g class="a18 c1 node n11 p0" transform="translate(7.66667 11.5842)"><g class="a11 leaf node n6 p0 sample" transform="translate(0.0 0.602477)"><path class="edge" d="M 0 0 V -0.602477 H 0.0" /><rect class="sym" height="6" width="6" x="-3" y="-3" /><text class="lab" transform="translate(0 11)">6</text></g><path class="edge" d="M 0 0 V -11.5842 H -7.66667" /><circle class="sym" cx="0" cy="0" r="3" /><text class="lab rgt" transform="translate(3 -7.0)">11</text></g><path class="edge" d="M 0 0 V -33.3026 H 0.0" /><circle class="sym" cx="0" cy="0" r="3" /><text class="lab lft" transform="translate(-3 -7.0)">18</text></g><path class="edge" d="M 0 0 V -20.8188 H -11.5" /><circle class="sym" cx="0" cy="0" r="3" /><text class="lab rgt" transform="translate(3 -7.0)">22</text></g><path class="edge" d="M 0 0 V -8.42986 H 31.625" /><circle class="sym" cx="0" cy="0" r="3" /><text class="lab lft" transform="translate(-3 -7.0)">26</text></g><g class="a29 c1 node n27 p0" transform="translate(31.625 4.14109)"><g class="a27 c2 node n17 p0" transform="translate(0.0 59.1671)"><g class="a17 c2 node n12 p0" transform="translate(-21.0833 10.8011)"><g class="a12 leaf node n1 p0 sample" transform="translate(-7.66667 0.628752)"><path class="edge" d="M 0 0 V -0.628752 H 7.66667" /><rect class="sym" height="6" width="6" x="-3" y="-3" /><text class="lab" transform="translate(0 11)">1</text></g><g class="a12 leaf node n9 p0 sample" transform="translate(7.66667 0.628752)"><path class="edge" d="M 0 0 V -0.628752 H -7.66667" /><rect class="sym" height="6" width="6" x="-3" y="-3" /><text class="lab" transform="translate(0 11)">9</text></g><path class="edge" d="M 0 0 V -10.8011 H 21.0833" /><circle class="sym" cx="0" cy="0" r="3" /><text class="lab lft" transform="translate(-3 -7.0)">12</text></g><g class="a17 c2 node n16 p0" transform="translate(21.0833 6.70037)"><g class="a16 leaf node n7 p0 sample" transform="translate(11.5 4.72947)"><path class="edge" d="M 0 0 V -4.72947 H -11.5" /><rect class="sym" height="6" width="6" x="-3" y="-3" /><text class="lab" transform="translate(0 11)">7</text></g><g class="a16 c2 node n15 p0" transform="translate(-11.5 3.08977)"><g class="a15 leaf node n3 p0 sample" transform="translate(-7.66667 1.6397)"><path class="edge" d="M 0 0 V -1.6397 H 7.66667" /><rect class="sym" height="6" width="6" x="-3" y="-3" /><text class="lab" transform="translate(0 11)">3</text></g><g class="a15 leaf node n4 p0 sample" transform="translate(7.66667 1.6397)"><path class="edge" d="M 0 0 V -1.6397 H -7.66667" /><rect class="sym" height="6" width="6" x="-3" y="-3" /><text class="lab" transform="translate(0 11)">4</text></g><path class="edge" d="M 0 0 V -3.08977 H 11.5" /><circle class="sym" cx="0" cy="0" r="3" /><text class="lab lft" transform="translate(-3 -7.0)">15</text></g><path class="edge" d="M 0 0 V -6.70037 H -21.0833" /><circle class="sym" cx="0" cy="0" r="3" /><text class="lab rgt" transform="translate(3 -7.0)">16</text></g><path class="edge" d="M 0 0 V -59.1671 H 0.0" /><circle class="sym" cx="0" cy="0" r="3" /><text class="lab lft" transform="translate(-3 -7.0)">17</text></g><path class="edge" d="M 0 0 V -4.14109 H -31.625" /><circle class="sym" cx="0" cy="0" r="3" /><text class="lab rgt" transform="translate(3 -7.0)">27</text></g><path class="edge" d="M 0 0 V -9.62228 H 0.0" /><circle class="sym" cx="0" cy="0" r="3" /><text class="lab lft" transform="translate(-3 -7.0)">29</text></g><path class="edge" d="M 0 0 V -5.18394 H 0.0" /><circle class="sym" cx="0" cy="0" r="3" /><text class="lab lft" transform="translate(-3 -7.0)">30</text></g><path class="edge" d="M 0 0 V -5.05579 H 43.6042" /><circle class="sym" cx="0" cy="0" r="3" /><text class="lab lft" transform="translate(-3 -7.0)">32</text></g><circle class="sym" cx="0" cy="0" r="3" /><text class="lab" transform="translate(0 -11)">33</text></g></g></g><g class="tree t4" transform="translate(793.333 0)"><g class="plotbox"><g class="c2 node n33 p0 root" transform="translate(114.396 26.8)"><g class="a33 c1 node n31 p0" transform="translate(43.6042 7.59536)"><g class="a31 c2 node n20 p0" transform="translate(0.0 42.1471)"><g class="a20 leaf node n8 p0 sample" transform="translate(7.66667 44.8575)"><path class="edge" d="M 0 0 V -44.8575 H -7.66667" /><rect class="sym" height="6" width="6" x="-3" y="-3" /><text class="lab" transform="translate(0 11)">8</text></g><g class="a20 c1 node n14 p0" transform="translate(-7.66667 44.1245)"><g class="a14 leaf node n2 p0 sample" transform="translate(0.0 0.732991)"><path class="edge" d="M 0 0 V -0.732991 H 0.0" /><rect class="sym" height="6" width="6" x="-3" y="-3" /><text class="lab" transform="translate(0 11)">2</text></g><path class="edge" d="M 0 0 V -44.1245 H 7.66667" /><circle class="sym" cx="0" cy="0" r="3" /><text class="lab lft" transform="translate(-3 -7.0)">14</text></g><path class="edge" d="M 0 0 V -42.1471 H 0.0" /><circle class="sym" cx="0" cy="0" r="3" /><text class="lab lft" transform="translate(-3 -7.0)">20</text></g><path class="edge" d="M 0 0 V -7.59536 H -43.6042" /><circle class="sym" cx="0" cy="0" r="3" /><text class="lab rgt" transform="translate(3 -7.0)">31</text></g><g class="a33 c2 node n32 p0" transform="translate(-43.6042 5.05579)"><g class="a32 c1 node n30 p0" transform="translate(-31.625 5.18394)"><g class="a30 c1 node n29 p0" transform="translate(0.0 9.62228)"><g class="a29 c2 node n26 p0" transform="translate(0.0 8.42986)"><g class="a26 c1 node n24 p0" transform="translate(-11.5 0.43425)"><g class="a24 c1 node n23 p0" transform="translate(0.0 16.3236)"><g class="a23 c1 node n19 p0" transform="translate(0.0 14.5849)"><g class="a19 leaf node n0 p0 sample" transform="translate(0.0 34.9653)"><path class="edge" d="M 0 0 V -34.9653 H 0.0" /><rect class="sym" height="6" width="6" x="-3" y="-3" /><text class="lab" transform="translate(0 11)">0</text></g><path class="edge" d="M 0 0 V -14.5849 H 0.0" /><circle class="sym" cx="0" cy="0" r="3" /><text class="lab lft" transform="translate(-3 -7.0)">19</text></g><path class="edge" d="M 0 0 V -16.3236 H 0.0" /><circle class="sym" cx="0" cy="0" r="3" /><text class="lab lft" transform="translate(-3 -7.0)">23</text></g><path class="edge" d="M 0 0 V -0.43425 H 11.5" /><circle class="sym" cx="0" cy="0" r="3" /><text class="lab lft" transform="translate(-3 -7.0)">24</text></g><g class="a26 c1 node n22 p0" transform="translate(11.5 20.8188)"><g class="a22 c2 node n18 p0" transform="translate(0.0 33.3026)"><g class="a18 leaf node n5 p0 sample" transform="translate(-7.66667 12.1867)"><path class="edge" d="M 0 0 V -12.1867 H 7.66667" /><rect class="sym" height="6" width="6" x="-3" y="-3" /><text class="lab" transform="translate(0 11)">5</text></g><g class="a18 c1 node n11 p0" transform="translate(7.66667 11.5842)"><g class="a11 leaf node n6 p0 sample" transform="translate(0.0 0.602477)"><path class="edge" d="M 0 0 V -0.602477 H 0.0" /><rect class="sym" height="6" width="6" x="-3" y="-3" /><text class="lab" transform="translate(0 11)">6</text></g><path class="edge" d="M 0 0 V -11.5842 H -7.66667" /><circle class="sym" cx="0" cy="0" r="3" /><text class="lab rgt" transform="translate(3 -7.0)">11</text></g><path class="edge" d="M 0 0 V -33.3026 H 0.0" /><circle class="sym" cx="0" cy="0" r="3" /><text class="lab lft" transform="translate(-3 -7.0)">18</text></g><path class="edge" d="M 0 0 V -20.8188 H -11.5" /><circle class="sym" cx="0" cy="0" r="3" /><text class="lab rgt" transform="translate(3 -7.0)">22</text></g><path class="edge" d="M 0 0 V -8.42986 H 0.0" /><circle class="sym" cx="0" cy="0" r="3" /><text class="lab lft" transform="translate(-3 -7.0)">26</text></g><path class="edge" d="M 0 0 V -9.62228 H 0.0" /><circle class="sym" cx="0" cy="0" r="3" /><text class="lab lft" transform="translate(-3 -7.0)">29</text></g><path class="edge" d="M 0 0 V -5.18394 H 31.625" /><circle class="sym" cx="0" cy="0" r="3" /><text class="lab lft" transform="translate(-3 -7.0)">30</text></g><g class="a32 c1 node n28 p0" transform="translate(31.625 18.9473)"><g class="a28 c2 node n17 p0" transform="translate(0.0 59.1671)"><g class="a17 c2 node n12 p0" transform="translate(-21.0833 10.8011)"><g class="a12 leaf node n1 p0 sample" transform="translate(-7.66667 0.628752)"><path class="edge" d="M 0 0 V -0.628752 H 7.66667" /><rect class="sym" height="6" width="6" x="-3" y="-3" /><text class="lab" transform="translate(0 11)">1</text></g><g class="a12 leaf node n9 p0 sample" transform="translate(7.66667 0.628752)"><path class="edge" d="M 0 0 V -0.628752 H -7.66667" /><rect class="sym" height="6" width="6" x="-3" y="-3" /><text class="lab" transform="translate(0 11)">9</text></g><path class="edge" d="M 0 0 V -10.8011 H 21.0833" /><circle class="sym" cx="0" cy="0" r="3" /><text class="lab lft" transform="translate(-3 -7.0)">12</text></g><g class="a17 c2 node n16 p0" transform="translate(21.0833 6.70037)"><g class="a16 leaf node n7 p0 sample" transform="translate(11.5 4.72947)"><path class="edge" d="M 0 0 V -4.72947 H -11.5" /><rect class="sym" height="6" width="6" x="-3" y="-3" /><text class="lab" transform="translate(0 11)">7</text></g><g class="a16 c2 node n15 p0" transform="translate(-11.5 3.08977)"><g class="a15 leaf node n3 p0 sample" transform="translate(-7.66667 1.6397)"><path class="edge" d="M 0 0 V -1.6397 H 7.66667" /><rect class="sym" height="6" width="6" x="-3" y="-3" /><text class="lab" transform="translate(0 11)">3</text></g><g class="a15 leaf node n4 p0 sample" transform="translate(7.66667 1.6397)"><path class="edge" d="M 0 0 V -1.6397 H -7.66667" /><rect class="sym" height="6" width="6" x="-3" y="-3" /><text class="lab" transform="translate(0 11)">4</text></g><path class="edge" d="M 0 0 V -3.08977 H 11.5" /><circle class="sym" cx="0" cy="0" r="3" /><text class="lab lft" transform="translate(-3 -7.0)">15</text></g><path class="edge" d="M 0 0 V -6.70037 H -21.0833" /><circle class="sym" cx="0" cy="0" r="3" /><text class="lab rgt" transform="translate(3 -7.0)">16</text></g><path class="edge" d="M 0 0 V -59.1671 H 0.0" /><circle class="sym" cx="0" cy="0" r="3" /><text class="lab lft" transform="translate(-3 -7.0)">17</text></g><path class="edge" d="M 0 0 V -18.9473 H -31.625" /><circle class="sym" cx="0" cy="0" r="3" /><text class="lab rgt" transform="translate(3 -7.0)">28</text></g><path class="edge" d="M 0 0 V -5.05579 H 43.6042" /><circle class="sym" cx="0" cy="0" r="3" /><text class="lab lft" transform="translate(-3 -7.0)">32</text></g><circle class="sym" cx="0" cy="0" r="3" /><text class="lab" transform="translate(0 -11)">33</text></g></g></g><g class="tree t5" transform="translate(986.667 0)"><g class="plotbox"><g class="c2 node n33 p0 root" transform="translate(84.6875 26.8)"><g class="a33 c2 node n31 p0" transform="translate(-45.5208 7.59536)"><g class="a31 c2 node n20 p0" transform="translate(11.5 42.1471)"><g class="a20 leaf node n8 p0 sample" transform="translate(7.66667 44.8575)"><path class="edge" d="M 0 0 V -44.8575 H -7.66667" /><rect class="sym" height="6" width="6" x="-3" y="-3" /><text class="lab" transform="translate(0 11)">8</text></g><g class="a20 c1 node n14 p0" transform="translate(-7.66667 44.1245)"><g class="a14 leaf node n2 p0 sample" transform="translate(0.0 0.732991)"><path class="edge" d="M 0 0 V -0.732991 H 0.0" /><rect class="sym" height="6" width="6" x="-3" y="-3" /><text class="lab" transform="translate(0 11)">2</text></g><path class="edge" d="M 0 0 V -44.1245 H 7.66667" /><circle class="sym" cx="0" cy="0" r="3" /><text class="lab lft" transform="translate(-3 -7.0)">14</text></g><path class="edge" d="M 0 0 V -42.1471 H -11.5" /><circle class="sym" cx="0" cy="0" r="3" /><text class="lab rgt" transform="translate(3 -7.0)">20</text></g><g class="a31 c1 node n25 p0" transform="translate(-11.5 21.1308)"><g class="a25 c1 node n23 p0" transform="translate(0.0 16.3236)"><g class="a23 c1 node n19 p0" transform="translate(0.0 14.5849)"><g class="a19 leaf node n0 p0 sample" transform="translate(0.0 34.9653)"><path class="edge" d="M 0 0 V -34.9653 H 0.0" /><rect class="sym" height="6" width="6" x="-3" y="-3" /><text class="lab" transform="translate(0 11)">0</text></g><path class="edge" d="M 0 0 V -14.5849 H 0.0" /><circle class="sym" cx="0" cy="0" r="3" /><text class="lab lft" transform="translate(-3 -7.0)">19</text></g><path class="edge" d="M 0 0 V -16.3236 H 0.0" /><circle class="sym" cx="0" cy="0" r="3" /><text class="lab lft" transform="translate(-3 -7.0)">23</text></g><path class="edge" d="M 0 0 V -21.1308 H 11.5" /><circle class="sym" cx="0" cy="0" r="3" /><text class="lab lft" transform="translate(-3 -7.0)">25</text></g><path class="edge" d="M 0 0 V -7.59536 H 45.5208" /><circle class="sym" cx="0" cy="0" r="3" /><text class="lab lft" transform="translate(-3 -7.0)">31</text></g><g class="a33 c2 node n32 p0" transform="translate(45.5208 5.05579)"><g class="a32 c1 node n30 p0" transform="translate(27.7917 5.18394)"><g class="a30 c1 node n29 p0" transform="translate(0.0 9.62228)"><g class="a29 c1 node n26 p0" transform="translate(0.0 8.42986)"><g class="a26 c1 node n22 p0" transform="translate(0.0 20.8188)"><g class="a22 c2 node n18 p0" transform="translate(0.0 33.3026)"><g class="a18 leaf node n5 p0 sample" transform="translate(-7.66667 12.1867)"><path class="edge" d="M 0 0 V -12.1867 H 7.66667" /><rect class="sym" height="6" width="6" x="-3" y="-3" /><text class="lab" transform="translate(0 11)">5</text></g><g class="a18 c1 node n11 p0" transform="translate(7.66667 11.5842)"><g class="a11 leaf node n6 p0 sample" transform="translate(0.0 0.602477)"><path class="edge" d="M 0 0 V -0.602477 H 0.0" /><rect class="sym" height="6" width="6" x="-3" y="-3" /><text class="lab" transform="translate(0 11)">6</text></g><path class="edge" d="M 0 0 V -11.5842 H -7.66667" /><circle class="sym" cx="0" cy="0" r="3" /><text class="lab rgt" transform="translate(3 -7.0)">11</text></g><path class="edge" d="M 0 0 V -33.3026 H 0.0" /><circle class="sym" cx="0" cy="0" r="3" /><text class="lab lft" transform="translate(-3 -7.0)">18</text></g><path class="edge" d="M 0 0 V -20.8188 H 0.0" /><circle class="sym" cx="0" cy="0" r="3" /><text class="lab lft" transform="translate(-3 -7.0)">22</text></g><path class="edge" d="M 0 0 V -8.42986 H 0.0" /><circle class="sym" cx="0" cy="0" r="3" /><text class="lab lft" transform="translate(-3 -7.0)">26</text></g><path class="edge" d="M 0 0 V -9.62228 H 0.0" /><circle class="sym" cx="0" cy="0" r="3" /><text class="lab lft" transform="translate(-3 -7.0)">29</text></g><path class="edge" d="M 0 0 V -5.18394 H -27.7917" /><circle class="sym" cx="0" cy="0" r="3" /><text class="lab rgt" transform="translate(3 -7.0)">30</text></g><g class="a32 c1 node n28 p0" transform="translate(-27.7917 18.9473)"><g class="a28 c2 node n17 p0" transform="translate(0.0 59.1671)"><g class="a17 c2 node n12 p0" transform="translate(-21.0833 10.8011)"><g class="a12 leaf node n1 p0 sample" transform="translate(-7.66667 0.628752)"><path class="edge" d="M 0 0 V -0.628752 H 7.66667" /><rect class="sym" height="6" width="6" x="-3" y="-3" /><text class="lab" transform="translate(0 11)">1</text></g><g class="a12 leaf node n9 p0 sample" transform="translate(7.66667 0.628752)"><path class="edge" d="M 0 0 V -0.628752 H -7.66667" /><rect class="sym" height="6" width="6" x="-3" y="-3" /><text class="lab" transform="translate(0 11)">9</text></g><path class="edge" d="M 0 0 V -10.8011 H 21.0833" /><circle class="sym" cx="0" cy="0" r="3" /><text class="lab lft" transform="translate(-3 -7.0)">12</text></g><g class="a17 c2 node n16 p0" transform="translate(21.0833 6.70037)"><g class="a16 leaf node n7 p0 sample" transform="translate(11.5 4.72947)"><path class="edge" d="M 0 0 V -4.72947 H -11.5" /><rect class="sym" height="6" width="6" x="-3" y="-3" /><text class="lab" transform="translate(0 11)">7</text></g><g class="a16 c2 node n15 p0" transform="translate(-11.5 3.08977)"><g class="a15 leaf node n3 p0 sample" transform="translate(-7.66667 1.6397)"><path class="edge" d="M 0 0 V -1.6397 H 7.66667" /><rect class="sym" height="6" width="6" x="-3" y="-3" /><text class="lab" transform="translate(0 11)">3</text></g><g class="a15 leaf node n4 p0 sample" transform="translate(7.66667 1.6397)"><path class="edge" d="M 0 0 V -1.6397 H -7.66667" /><rect class="sym" height="6" width="6" x="-3" y="-3" /><text class="lab" transform="translate(0 11)">4</text></g><path class="edge" d="M 0 0 V -3.08977 H 11.5" /><circle class="sym" cx="0" cy="0" r="3" /><text class="lab lft" transform="translate(-3 -7.0)">15</text></g><path class="edge" d="M 0 0 V -6.70037 H -21.0833" /><circle class="sym" cx="0" cy="0" r="3" /><text class="lab rgt" transform="translate(3 -7.0)">16</text></g><path class="edge" d="M 0 0 V -59.1671 H 0.0" /><circle class="sym" cx="0" cy="0" r="3" /><text class="lab lft" transform="translate(-3 -7.0)">17</text></g><path class="edge" d="M 0 0 V -18.9473 H 27.7917" /><circle class="sym" cx="0" cy="0" r="3" /><text class="lab lft" transform="translate(-3 -7.0)">28</text></g><path class="edge" d="M 0 0 V -5.05579 H -45.5208" /><circle class="sym" cx="0" cy="0" r="3" /><text class="lab rgt" transform="translate(3 -7.0)">32</text></g><circle class="sym" cx="0" cy="0" r="3" /><text class="lab" transform="translate(0 -11)">33</text></g></g></g></g></g></svg>
