<svg baseProfile="full" height="200" version="1.1" width="800" xmlns="http://www.w3.org/2000/svg" xmlns:ev="http://www.w3.org/2001/xml-events" xmlns:xlink="http://www.w3.org/1999/xlink"><defs><style type="text/css"><![CDATA[.background path {fill: #808080; fill-opacity: 0}.background path:nth-child(odd) {fill-opacity: .1}.axes {font-size: 14px}.x-axis .tick .lab {font-weight: bold; dominant-baseline: hanging}.axes, .tree {font-size: 14px; text-anchor: middle}.axes line, .edge {stroke: black; fill: none}.y-axis .grid {stroke: #FAFAFA}.node > .sym {fill: black; stroke: none}.site > .sym {stroke: black}.mut text {fill: red; font-style: italic}.mut.extra text {fill: hotpink}.mut line {fill: none; stroke: none}.mut .sym {fill: none; stroke: red}.mut.extra .sym {stroke: hotpink}.node .mut .sym {stroke-width: 1.5px}.tree text, .tree-sequence text {dominant-baseline: central}.plotbox .lab.lft {text-anchor: end}.plotbox .lab.rgt {text-anchor: start}]]></style></defs><g class="tree-sequence"><g class="background"><path d="M20,0 l190,0 l0,138.2 l-60.4045,25 l0,5 l-129.596,0 l0,-5 l0,-25 l0,-138.2z" /><path d="M210,0 l190,0 l0,138.2 l-206.463,25 l0,5 l-43.9412,0 l0,-5 l60.4045,-25 l0,-138.2z" /><path d="M400,0 l190,0 l0,138.2 l119.005,25 l0,5 l-515.469,0 l0,-5 l206.463,-25 l0,-138.2z" /><path d="M590,0 l190,0 l0,138.2 l0,25 l0,5 l-70.9945,0 l0,-5 l-119.005,-25 l0,-138.2z" /></g><g class="axes"><g class="x-axis"><g transform="translate(400 200)"><text class="lab" text-anchor="middle" transform="translate(0 -11)">Genome position</text></g><line x1="20" x2="780" y1="163.2" y2="163.2" /><g class="ticks"><g class="tick" transform="translate(20 163.2)"><line x1="0" x2="0" y1="0" y2="5" /><g transform="translate(0 6)"><text class="lab">0.00</text></g></g><g class="tick" transform="translate(149.596 163.2)"><line x1="0" x2="0" y1="0" y2="5" /><g transform="translate(0 6)"><text class="lab">170.52</text></g></g><g class="tick" transform="translate(193.537 163.2)"><line x1="0" x2="0" y1="0" y2="5" /><g transform="translate(0 6)"><text class="lab">228.34</text></g></g><g class="tick" transform="translate(709.005 163.2)"><line x1="0" x2="0" y1="0" y2="5" /><g transform="translate(0 6)"><text class="lab">906.59</text></g></g><g class="tick" transform="translate(780 163.2)"><line x1="0" x2="0" y1="0" y2="5" /><g transform="translate(0 6)"><text class="lab">1000.00</text></g></g></g></g></g><g class="plotbox trees"><g class="tree t0" transform="translate(20 0)"><g class="plotbox"><g class="c2 node n27 p0 root" transform="translate(76.7188 26.8)"><g class="a27 c2 node n19 p0" transform="translate(-41.7188 65.0515)"><g class="a19 leaf node n0 p0 sample" transform="translate(-7.5 29.5485)"><path class="edge" d="M 0 0 V -29.5485 H 7.5" /><rect class="sym" height="6" width="6" x="-3" y="-3" /><text class="lab" transform="translate(0 11)">0</text></g><g class="a19 c1 node n16 p0" transform="translate(7.5 14.7269)"><g class="a16 leaf node n6 p0 sample" transform="translate(0.0 14.8217)"><path class="edge" d="M 0 0 V -14.8217 H 0.0" /><rect class="sym" height="6" width="6" x="-3" y="-3" /><text class="lab" transform="translate(0 11)">6</text></g><path class="edge" d="M 0 0 V -14.7269 H -7.5" /><circle class="sym" cx="0" cy="0" r="3" /><text class="lab rgt" transform="translate(3 -7.0)">16</text></g><path class="edge" d="M 0 0 V -65.0515 H 41.7188" /><circle class="sym" cx="0" cy="0" r="3" /><text class="lab lft" transform="translate(-3 -7.0)">19</text></g><g class="a27 c1 node n26 p0" transform="translate(41.7188 29.0454)"><g class="a26 c2 node n24 p0" transform="translate(0.0 6.60774)"><g class="a24 c2 node n20 p0" transform="translate(32.8125 23.5225)"><g class="a20 c1 node n12 p0" transform="translate(-11.25 32.8934)"><g class="a12 c2 node n11 p0" transform="translate(0.0 1.16151)"><g class="a11 leaf node n4 p0 sample" transform="translate(-7.5 1.36951)"><path class="edge" d="M 0 0 V -1.36951 H 7.5" /><rect class="sym" height="6" width="6" x="-3" y="-3" /><text class="lab" transform="translate(0 11)">4</text></g><g class="a11 leaf node n9 p0 sample" transform="translate(7.5 1.36951)"><path class="edge" d="M 0 0 V -1.36951 H -7.5" /><rect class="sym" height="6" width="6" x="-3" y="-3" /><text class="lab" transform="translate(0 11)">9</text></g><path class="edge" d="M 0 0 V -1.16151 H 0.0" /><circle class="sym" cx="0" cy="0" r="3" /><text class="lab lft" transform="translate(-3 -7.0)">11</text></g><path class="edge" d="M 0 0 V -32.8934 H 11.25" /><circle class="sym" cx="0" cy="0" r="3" /><text class="lab lft" transform="translate(-3 -7.0)">12</text></g><g class="a20 c1 node n14 p0" transform="translate(11.25 24.7683)"><g class="a14 leaf node n7 p0 sample" transform="translate(0.0 10.6561)"><path class="edge" d="M 0 0 V -10.6561 H 0.0" /><rect class="sym" height="6" width="6" x="-3" y="-3" /><text class="lab" transform="translate(0 11)">7</text></g><path class="edge" d="M 0 0 V -24.7683 H -11.25" /><circle class="sym" cx="0" cy="0" r="3" /><text class="lab rgt" transform="translate(3 -7.0)">14</text></g><path class="edge" d="M 0 0 V -23.5225 H -32.8125" /><circle class="sym" cx="0" cy="0" r="3" /><text class="lab rgt" transform="translate(3 -7.0)">20</text></g><g class="a24 c2 node n23 p0" transform="translate(-32.8125 19.0625)"><g class="a23 c2 node n17 p0" transform="translate(20.625 22.0967)"><g class="a17 leaf node n5 p0 sample" transform="translate(11.25 17.7877)"><path class="edge" d="M 0 0 V -17.7877 H -11.25" /><rect class="sym" height="6" width="6" x="-3" y="-3" /><text class="lab" transform="translate(0 11)">5</text></g><g class="a17 c2 node n10 p0" transform="translate(-11.25 16.9178)"><g class="a10 leaf node n3 p0 sample" transform="translate(-7.5 0.869946)"><path class="edge" d="M 0 0 V -0.869946 H 7.5" /><rect class="sym" height="6" width="6" x="-3" y="-3" /><text class="lab" transform="translate(0 11)">3</text></g><g class="a10 leaf node n8 p0 sample" transform="translate(7.5 0.869946)"><path class="edge" d="M 0 0 V -0.869946 H -7.5" /><rect class="sym" height="6" width="6" x="-3" y="-3" /><text class="lab" transform="translate(0 11)">8</text></g><path class="edge" d="M 0 0 V -16.9178 H 11.25" /><circle class="sym" cx="0" cy="0" r="3" /><text class="lab lft" transform="translate(-3 -7.0)">10</text></g><path class="edge" d="M 0 0 V -22.0967 H -20.625" /><circle class="sym" cx="0" cy="0" r="3" /><text class="lab rgt" transform="translate(3 -7.0)">17</text></g><g class="a23 c1 node n21 p0" transform="translate(-20.625 0.365804)"><g class="a21 c2 node n18 p0" transform="translate(0.0 17.4682)"><g class="a18 leaf node n1 p0 sample" transform="translate(-7.5 22.0504)"><path class="edge" d="M 0 0 V -22.0504 H 7.5" /><rect class="sym" height="6" width="6" x="-3" y="-3" /><text class="lab" transform="translate(0 11)">1</text></g><g class="a18 leaf node n2 p0 sample" transform="translate(7.5 22.0504)"><path class="edge" d="M 0 0 V -22.0504 H -7.5" /><rect class="sym" height="6" width="6" x="-3" y="-3" /><text class="lab" transform="translate(0 11)">2</text></g><path class="edge" d="M 0 0 V -17.4682 H 0.0" /><circle class="sym" cx="0" cy="0" r="3" /><text class="lab lft" transform="translate(-3 -7.0)">18</text></g><path class="edge" d="M 0 0 V -0.365804 H 20.625" /><circle class="sym" cx="0" cy="0" r="3" /><text class="lab lft" transform="translate(-3 -7.0)">21</text></g><path class="edge" d="M 0 0 V -19.0625 H 32.8125" /><circle class="sym" cx="0" cy="0" r="3" /><text class="lab lft" transform="translate(-3 -7.0)">23</text></g><path class="edge" d="M 0 0 V -6.60774 H 0.0" /><circle class="sym" cx="0" cy="0" r="3" /><text class="lab lft" transform="translate(-3 -7.0)">24</text></g><path class="edge" d="M 0 0 V -29.0454 H -41.7188" /><circle class="sym" cx="0" cy="0" r="3" /><text class="lab rgt" transform="translate(3 -7.0)">26</text></g><circle class="sym" cx="0" cy="0" r="3" /><text class="lab" transform="translate(0 -11)">27</text></g></g></g><g class="tree t1" transform="translate(210 0)"><g class="plotbox"><g class="c2 node n27 p0 root" transform="translate(65.9375 26.8)"><g class="a27 c2 node n19 p0" transform="translate(-30.9375 65.0515)"><g class="a19 leaf node n0 p0 sample" transform="translate(-7.5 29.5485)"><path class="edge" d="M 0 0 V -29.5485 H 7.5" /><rect class="sym" height="6" width="6" x="-3" y="-3" /><text class="lab" transform="translate(0 11)">0</text></g><g class="a19 c1 node n16 p0" transform="translate(7.5 14.7269)"><g class="a16 leaf node n6 p0 sample" transform="translate(0.0 14.8217)"><path class="edge" d="M 0 0 V -14.8217 H 0.0" /><rect class="sym" height="6" width="6" x="-3" y="-3" /><text class="lab" transform="translate(0 11)">6</text></g><path class="edge" d="M 0 0 V -14.7269 H -7.5" /><circle class="sym" cx="0" cy="0" r="3" /><text class="lab rgt" transform="translate(3 -7.0)">16</text></g><path class="edge" d="M 0 0 V -65.0515 H 30.9375" /><circle class="sym" cx="0" cy="0" r="3" /><text class="lab lft" transform="translate(-3 -7.0)">19</text></g><g class="a27 c2 node n26 p0" transform="translate(30.9375 29.0454)"><g class="a26 c2 node n24 p0" transform="translate(31.875 6.60774)"><g class="a24 c2 node n20 p0" transform="translate(22.5 23.5225)"><g class="a20 c1 node n12 p0" transform="translate(-11.25 32.8934)"><g class="a12 c2 node n11 p0" transform="translate(0.0 1.16151)"><g class="a11 leaf node n4 p0 sample" transform="translate(-7.5 1.36951)"><path class="edge" d="M 0 0 V -1.36951 H 7.5" /><rect class="sym" height="6" width="6" x="-3" y="-3" /><text class="lab" transform="translate(0 11)">4</text></g><g class="a11 leaf node n9 p0 sample" transform="translate(7.5 1.36951)"><path class="edge" d="M 0 0 V -1.36951 H -7.5" /><rect class="sym" height="6" width="6" x="-3" y="-3" /><text class="lab" transform="translate(0 11)">9</text></g><path class="edge" d="M 0 0 V -1.16151 H 0.0" /><circle class="sym" cx="0" cy="0" r="3" /><text class="lab lft" transform="translate(-3 -7.0)">11</text></g><path class="edge" d="M 0 0 V -32.8934 H 11.25" /><circle class="sym" cx="0" cy="0" r="3" /><text class="lab lft" transform="translate(-3 -7.0)">12</text></g><g class="a20 c1 node n14 p0" transform="translate(11.25 24.7683)"><g class="a14 leaf node n7 p0 sample" transform="translate(0.0 10.6561)"><path class="edge" d="M 0 0 V -10.6561 H 0.0" /><rect class="sym" height="6" width="6" x="-3" y="-3" /><text class="lab" transform="translate(0 11)">7</text></g><path class="edge" d="M 0 0 V -24.7683 H -11.25" /><circle class="sym" cx="0" cy="0" r="3" /><text class="lab rgt" transform="translate(3 -7.0)">14</text></g><path class="edge" d="M 0 0 V -23.5225 H -22.5" /><circle class="sym" cx="0" cy="0" r="3" /><text class="lab rgt" transform="translate(3 -7.0)">20</text></g><g class="a24 c1 node n23 p0" transform="translate(-22.5 19.0625)"><g class="a23 c2 node n17 p0" transform="translate(0.0 22.0967)"><g class="a17 leaf node n5 p0 sample" transform="translate(11.25 17.7877)"><path class="edge" d="M 0 0 V -17.7877 H -11.25" /><rect class="sym" height="6" width="6" x="-3" y="-3" /><text class="lab" transform="translate(0 11)">5</text></g><g class="a17 c2 node n10 p0" transform="translate(-11.25 16.9178)"><g class="a10 leaf node n3 p0 sample" transform="translate(-7.5 0.869946)"><path class="edge" d="M 0 0 V -0.869946 H 7.5" /><rect class="sym" height="6" width="6" x="-3" y="-3" /><text class="lab" transform="translate(0 11)">3</text></g><g class="a10 leaf node n8 p0 sample" transform="translate(7.5 0.869946)"><path class="edge" d="M 0 0 V -0.869946 H -7.5" /><rect class="sym" height="6" width="6" x="-3" y="-3" /><text class="lab" transform="translate(0 11)">8</text></g><path class="edge" d="M 0 0 V -16.9178 H 11.25" /><circle class="sym" cx="0" cy="0" r="3" /><text class="lab lft" transform="translate(-3 -7.0)">10</text></g><path class="edge" d="M 0 0 V -22.0967 H 0.0" /><circle class="sym" cx="0" cy="0" r="3" /><text class="lab lft" transform="translate(-3 -7.0)">17</text></g><path class="edge" d="M 0 0 V -19.0625 H 22.5" /><circle class="sym" cx="0" cy="0" r="3" /><text class="lab lft" transform="translate(-3 -7.0)">23</text></g><path class="edge" d="M 0 0 V -6.60774 H -31.875" /><circle class="sym" cx="0" cy="0" r="3" /><text class="lab rgt" transform="translate(3 -7.0)">24</text></g><g class="a26 c1 node n25 p0" transform="translate(-31.875 4.69569)"><g class="a25 c1 node n22 p0" transform="translate(0.0 21.3403)"><g class="a22 c2 node n18 p0" transform="translate(0.0 17.4682)"><g class="a18 leaf node n1 p0 sample" transform="translate(-7.5 22.0504)"><path class="edge" d="M 0 0 V -22.0504 H 7.5" /><rect class="sym" height="6" width="6" x="-3" y="-3" /><text class="lab" transform="translate(0 11)">1</text></g><g class="a18 leaf node n2 p0 sample" transform="translate(7.5 22.0504)"><path class="edge" d="M 0 0 V -22.0504 H -7.5" /><rect class="sym" height="6" width="6" x="-3" y="-3" /><text class="lab" transform="translate(0 11)">2</text></g><path class="edge" d="M 0 0 V -17.4682 H 0.0" /><circle class="sym" cx="0" cy="0" r="3" /><text class="lab lft" transform="translate(-3 -7.0)">18</text></g><path class="edge" d="M 0 0 V -21.3403 H 0.0" /><circle class="sym" cx="0" cy="0" r="3" /><text class="lab lft" transform="translate(-3 -7.0)">22</text></g><path class="edge" d="M 0 0 V -4.69569 H 31.875" /><circle class="sym" cx="0" cy="0" r="3" /><text class="lab lft" transform="translate(-3 -7.0)">25</text></g><path class="edge" d="M 0 0 V -29.0454 H -30.9375" /><circle class="sym" cx="0" cy="0" r="3" /><text class="lab rgt" transform="translate(3 -7.0)">26</text></g><circle class="sym" cx="0" cy="0" r="3" /><text class="lab" transform="translate(0 -11)">27</text></g></g></g><g class="tree t2" transform="translate(400 0)"><g class="plotbox"><g class="c2 node n27 p0 root" transform="translate(83.2812 26.8)"><g class="a27 c2 node n19 p0" transform="translate(-38.9062 65.0515)"><g class="a19 leaf node n0 p0 sample" transform="translate(-16.875 29.5485)"><path class="edge" d="M 0 0 V -29.5485 H 16.875" /><rect class="sym" height="6" width="6" x="-3" y="-3" /><text class="lab" transform="translate(0 11)">0</text></g><g class="a19 c2 node n16 p0" transform="translate(16.875 14.7269)"><g class="a16 leaf node n6 p0 sample" transform="translate(11.25 14.8217)"><path class="edge" d="M 0 0 V -14.8217 H -11.25" /><rect class="sym" height="6" width="6" x="-3" y="-3" /><text class="lab" transform="translate(0 11)">6</text></g><g class="a16 c1 node n13 p0" transform="translate(-11.25 12.2906)"><g class="a13 c2 node n11 p0" transform="translate(0.0 1.16151)"><g class="a11 leaf node n4 p0 sample" transform="translate(-7.5 1.36951)"><path class="edge" d="M 0 0 V -1.36951 H 7.5" /><rect class="sym" height="6" width="6" x="-3" y="-3" /><text class="lab" transform="translate(0 11)">4</text></g><g class="a11 leaf node n9 p0 sample" transform="translate(7.5 1.36951)"><path class="edge" d="M 0 0 V -1.36951 H -7.5" /><rect class="sym" height="6" width="6" x="-3" y="-3" /><text class="lab" transform="translate(0 11)">9</text></g><path class="edge" d="M 0 0 V -1.16151 H 0.0" /><circle class="sym" cx="0" cy="0" r="3" /><text class="lab lft" transform="translate(-3 -7.0)">11</text></g><path class="edge" d="M 0 0 V -12.2906 H 11.25" /><circle class="sym" cx="0" cy="0" r="3" /><text class="lab lft" transform="translate(-3 -7.0)">13</text></g><path class="edge" d="M 0 0 V -14.7269 H -16.875" /><circle class="sym" cx="0" cy="0" r="3" /><text class="lab rgt" transform="translate(3 -7.0)">16</text></g><path class="edge" d="M 0 0 V -65.0515 H 38.9062" /><circle class="sym" cx="0" cy="0" r="3" /><text class="lab lft" transform="translate(-3 -7.0)">19</text></g><g class="a27 c2 node n26 p0" transform="translate(38.9062 29.0454)"><g class="a26 c2 node n24 p0" transform="translate(27.1875 6.60774)"><g class="a24 c1 node n20 p0" transform="translate(13.125 23.5225)"><g class="a20 c1 node n14 p0" transform="translate(0.0 24.7683)"><g class="a14 leaf node n7 p0 sample" transform="translate(0.0 10.6561)"><path class="edge" d="M 0 0 V -10.6561 H 0.0" /><rect class="sym" height="6" width="6" x="-3" y="-3" /><text class="lab" transform="translate(0 11)">7</text></g><path class="edge" d="M 0 0 V -24.7683 H 0.0" /><circle class="sym" cx="0" cy="0" r="3" /><text class="lab lft" transform="translate(-3 -7.0)">14</text></g><path class="edge" d="M 0 0 V -23.5225 H -13.125" /><circle class="sym" cx="0" cy="0" r="3" /><text class="lab rgt" transform="translate(3 -7.0)">20</text></g><g class="a24 c1 node n23 p0" transform="translate(-13.125 19.0625)"><g class="a23 c2 node n17 p0" transform="translate(0.0 22.0967)"><g class="a17 leaf node n5 p0 sample" transform="translate(11.25 17.7877)"><path class="edge" d="M 0 0 V -17.7877 H -11.25" /><rect class="sym" height="6" width="6" x="-3" y="-3" /><text class="lab" transform="translate(0 11)">5</text></g><g class="a17 c2 node n10 p0" transform="translate(-11.25 16.9178)"><g class="a10 leaf node n3 p0 sample" transform="translate(-7.5 0.869946)"><path class="edge" d="M 0 0 V -0.869946 H 7.5" /><rect class="sym" height="6" width="6" x="-3" y="-3" /><text class="lab" transform="translate(0 11)">3</text></g><g class="a10 leaf node n8 p0 sample" transform="translate(7.5 0.869946)"><path class="edge" d="M 0 0 V -0.869946 H -7.5" /><rect class="sym" height="6" width="6" x="-3" y="-3" /><text class="lab" transform="translate(0 11)">8</text></g><path class="edge" d="M 0 0 V -16.9178 H 11.25" /><circle class="sym" cx="0" cy="0" r="3" /><text class="lab lft" transform="translate(-3 -7.0)">10</text></g><path class="edge" d="M 0 0 V -22.0967 H 0.0" /><circle class="sym" cx="0" cy="0" r="3" /><text class="lab lft" transform="translate(-3 -7.0)">17</text></g><path class="edge" d="M 0 0 V -19.0625 H 13.125" /><circle class="sym" cx="0" cy="0" r="3" /><text class="lab lft" transform="translate(-3 -7.0)">23</text></g><path class="edge" d="M 0 0 V -6.60774 H -27.1875" /><circle class="sym" cx="0" cy="0" r="3" /><text class="lab rgt" transform="translate(3 -7.0)">24</text></g><g class="a26 c1 node n25 p0" transform="translate(-27.1875 4.69569)"><g class="a25 c1 node n22 p0" transform="translate(0.0 21.3403)"><g class="a22 c2 node n18 p0" transform="translate(0.0 17.4682)"><g class="a18 leaf node n1 p0 sample" transform="translate(-7.5 22.0504)"><path class="edge" d="M 0 0 V -22.0504 H 7.5" /><rect class="sym" height="6" width="6" x="-3" y="-3" /><text class="lab" transform="translate(0 11)">1</text></g><g class="a18 leaf node n2 p0 sample" transform="translate(7.5 22.0504)"><path class="edge" d="M 0 0 V -22.0504 H -7.5" /><rect class="sym" height="6" width="6" x="-3" y="-3" /><text class="lab" transform="translate(0 11)">2</text></g><path class="edge" d="M 0 0 V -17.4682 H 0.0" /><circle class="sym" cx="0" cy="0" r="3" /><text class="lab lft" transform="translate(-3 -7.0)">18</text></g><path class="edge" d="M 0 0 V -21.3403 H 0.0" /><circle class="sym" cx="0" cy="0" r="3" /><text class="lab lft" transform="translate(-3 -7.0)">22</text></g><path class="edge" d="M 0 0 V -4.69569 H 27.1875" /><circle class="sym" cx="0" cy="0" r="3" /><text class="lab lft" transform="translate(-3 -7.0)">25</text></g><path class="edge" d="M 0 0 V -29.0454 H -38.9062" /><circle class="sym" cx="0" cy="0" r="3" /><text class="lab rgt" transform="translate(3 -7.0)">26</text></g><circle class="sym" cx="0" cy="0" r="3" /><text class="lab" transform="translate(0 -11)">27</text></g></g></g><g class="tree t3" transform="translate(590 0)"><g class="plotbox"><g class="c2 node n27 p0 root" transform="translate(86.5625 26.8)"><g class="a27 c2 node n19 p0" transform="translate(-42.1875 65.0515)"><g class="a19 leaf node n0 p0 sample" transform="translate(-16.875 29.5485)"><path class="edge" d="M 0 0 V -29.5485 H 16.875" /><rect class="sym" height="6" width="6" x="-3" y="-3" /><text class="lab" transform="translate(0 11)">0</text></g><g class="a19 c2 node n16 p0" transform="translate(16.875 14.7269)"><g class="a16 leaf node n6 p0 sample" transform="translate(11.25 14.8217)"><path class="edge" d="M 0 0 V -14.8217 H -11.25" /><rect class="sym" height="6" width="6" x="-3" y="-3" /><text class="lab" transform="translate(0 11)">6</text></g><g class="a16 c1 node n13 p0" transform="translate(-11.25 12.2906)"><g class="a13 c2 node n11 p0" transform="translate(0.0 1.16151)"><g class="a11 leaf node n4 p0 sample" transform="translate(-7.5 1.36951)"><path class="edge" d="M 0 0 V -1.36951 H 7.5" /><rect class="sym" height="6" width="6" x="-3" y="-3" /><text class="lab" transform="translate(0 11)">4</text></g><g class="a11 leaf node n9 p0 sample" transform="translate(7.5 1.36951)"><path class="edge" d="M 0 0 V -1.36951 H -7.5" /><rect class="sym" height="6" width="6" x="-3" y="-3" /><text class="lab" transform="translate(0 11)">9</text></g><path class="edge" d="M 0 0 V -1.16151 H 0.0" /><circle class="sym" cx="0" cy="0" r="3" /><text class="lab lft" transform="translate(-3 -7.0)">11</text></g><path class="edge" d="M 0 0 V -12.2906 H 11.25" /><circle class="sym" cx="0" cy="0" r="3" /><text class="lab lft" transform="translate(-3 -7.0)">13</text></g><path class="edge" d="M 0 0 V -14.7269 H -16.875" /><circle class="sym" cx="0" cy="0" r="3" /><text class="lab rgt" transform="translate(3 -7.0)">16</text></g><path class="edge" d="M 0 0 V -65.0515 H 42.1875" /><circle class="sym" cx="0" cy="0" r="3" /><text class="lab lft" transform="translate(-3 -7.0)">19</text></g><g class="a27 c2 node n26 p0" transform="translate(42.1875 29.0454)"><g class="a26 c1 node n24 p0" transform="translate(22.5 6.60774)"><g class="a24 c1 node n23 p0" transform="translate(0.0 19.0625)"><g class="a23 c2 node n17 p0" transform="translate(0.0 22.0967)"><g class="a17 leaf node n5 p0 sample" transform="translate(11.25 17.7877)"><path class="edge" d="M 0 0 V -17.7877 H -11.25" /><rect class="sym" height="6" width="6" x="-3" y="-3" /><text class="lab" transform="translate(0 11)">5</text></g><g class="a17 c2 node n10 p0" transform="translate(-11.25 16.9178)"><g class="a10 leaf node n3 p0 sample" transform="translate(-7.5 0.869946)"><path class="edge" d="M 0 0 V -0.869946 H 7.5" /><rect class="sym" height="6" width="6" x="-3" y="-3" /><text class="lab" transform="translate(0 11)">3</text></g><g class="a10 leaf node n8 p0 sample" transform="translate(7.5 0.869946)"><path class="edge" d="M 0 0 V -0.869946 H -7.5" /><rect class="sym" height="6" width="6" x="-3" y="-3" /><text class="lab" transform="translate(0 11)">8</text></g><path class="edge" d="M 0 0 V -16.9178 H 11.25" /><circle class="sym" cx="0" cy="0" r="3" /><text class="lab lft" transform="translate(-3 -7.0)">10</text></g><path class="edge" d="M 0 0 V -22.0967 H 0.0" /><circle class="sym" cx="0" cy="0" r="3" /><text class="lab lft" transform="translate(-3 -7.0)">17</text></g><path class="edge" d="M 0 0 V -19.0625 H 0.0" /><circle class="sym" cx="0" cy="0" r="3" /><text class="lab lft" transform="translate(-3 -7.0)">23</text></g><path class="edge" d="M 0 0 V -6.60774 H -22.5" /><circle class="sym" cx="0" cy="0" r="3" /><text class="lab rgt" transform="translate(3 -7.0)">24</text></g><g class="a26 c2 node n25 p0" transform="translate(-22.5 4.69569)"><g class="a25 c1 node n22 p0" transform="translate(-11.25 21.3403)"><g class="a22 c2 node n18 p0" transform="translate(0.0 17.4682)"><g class="a18 leaf node n1 p0 sample" transform="translate(-7.5 22.0504)"><path class="edge" d="M 0 0 V -22.0504 H 7.5" /><rect class="sym" height="6" width="6" x="-3" y="-3" /><text class="lab" transform="translate(0 11)">1</text></g><g class="a18 leaf node n2 p0 sample" transform="translate(7.5 22.0504)"><path class="edge" d="M 0 0 V -22.0504 H -7.5" /><rect class="sym" height="6" width="6" x="-3" y="-3" /><text class="lab" transform="translate(0 11)">2</text></g><path class="edge" d="M 0 0 V -17.4682 H 0.0" /><circle class="sym" cx="0" cy="0" r="3" /><text class="lab lft" transform="translate(-3 -7.0)">18</text></g><path class="edge" d="M 0 0 V -21.3403 H 11.25" /><circle class="sym" cx="0" cy="0" r="3" /><text class="lab lft" transform="translate(-3 -7.0)">22</text></g><g class="a25 c1 node n15 p0" transform="translate(11.25 50.2028)"><g class="a15 leaf node n7 p0 sample" transform="translate(0.0 10.6561)"><path class="edge" d="M 0 0 V -10.6561 H 0.0" /><rect class="sym" height="6" width="6" x="-3" y="-3" /><text class="lab" transform="translate(0 11)">7</text></g><path class="edge" d="M 0 0 V -50.2028 H -11.25" /><circle class="sym" cx="0" cy="0" r="3" /><text class="lab rgt" transform="translate(3 -7.0)">15</text></g><path class="edge" d="M 0 0 V -4.69569 H 22.5" /><circle class="sym" cx="0" cy="0" r="3" /><text class="lab lft" transform="translate(-3 -7.0)">25</text></g><path class="edge" d="M 0 0 V -29.0454 H -42.1875" /><circle class="sym" cx="0" cy="0" r="3" /><text class="lab rgt" transform="translate(3 -7.0)">26</text></g><circle class="sym" cx="0" cy="0" r="3" /><text class="lab" transform="translate(0 -11)">27</text></g></g></g></g></g></svg>
