<svg baseProfile="full" height="200" version="1.1" width="1200" xmlns="http://www.w3.org/2000/svg" xmlns:ev="http://www.w3.org/2001/xml-events" xmlns:xlink="http://www.w3.org/1999/xlink"><defs><style type="text/css"><![CDATA[.background path {fill: #808080; fill-opacity: 0}.background path:nth-child(odd) {fill-opacity: .1}.axes {font-size: 14px}.x-axis .tick .lab {font-weight: bold; dominant-baseline: hanging}.axes, .tree {font-size: 14px; text-anchor: middle}.axes line, .edge {stroke: black; fill: none}.y-axis .grid {stroke: #FAFAFA}.node > .sym {fill: black; stroke: none}.site > .sym {stroke: black}.mut text {fill: red; font-style: italic}.mut.extra text {fill: hotpink}.mut line {fill: none; stroke: none}.mut .sym {fill: none; stroke: red}.mut.extra .sym {stroke: hotpink}.node .mut .sym {stroke-width: 1.5px}.tree text, .tree-sequence text {dominant-baseline: central}.plotbox .lab.lft {text-anchor: end}.plotbox .lab.rgt {text-anchor: start}]]></style></defs><g class="tree-sequence"><g class="background"><path d="M20,0 l193.333,0 l0,138.2 l45.6691,25 l0,5 l-239.002,0 l0,-5 l0,-25 l0,-138.2z" /><path d="M213.333,0 l193.333,0 l0,138.2 l-57.4346,25 l0,5 l-90.2296,0 l0,-5 l-45.6691,-25 l0,-138.2z" /><path d="M406.667,0 l193.333,0 l0,138.2 l-182.687,25 l0,5 l-68.0812,0 l0,-5 l57.4346,-25 l0,-138.2z" /><path d="M600,0 l193.333,0 l0,138.2 l3.91958,25 l0,5 l-379.94,0 l0,-5 l182.687,-25 l0,-138.2z" /><path d="M793.333,0 l193.333,0 l0,138.2 l-185.982,25 l0,5 l-3.43213,0 l0,-5 l-3.91958,-25 l0,-138.2z" /><path d="M986.667,0 l193.333,0 l0,138.2 l0,25 l0,5 l-379.315,0 l0,-5 l185.982,-25 l0,-138.2z" /></g><g class="axes"><g class="x-axis"><g transform="translate(600 200)"><text class="lab" text-anchor="middle" transform="translate(0 -11)">Genome position</text></g><line x1="20" x2="1180" y1="163.2" y2="163.2" /><g class="ticks"><g class="tick" transform="translate(20 163.2)"><line x1="0" x2="0" y1="0" y2="5" /><g transform="translate(0 6)"><text class="lab">0.00</text></g></g><g class="tick" transform="translate(259.002 163.2)"><line x1="0" x2="0" y1="0" y2="5" /><g transform="translate(0 6)"><text class="lab">206.04</text></g></g><g class="tick" transform="translate(349.232 163.2)"><line x1="0" x2="0" y1="0" y2="5" /><g transform="translate(0 6)"><text class="lab">283.82</text></g></g><g class="tick" transform="translate(417.313 163.2)"><line x1="0" x2="0" y1="0" y2="5" /><g transform="translate(0 6)"><text class="lab">342.51</text></g></g><g class="tick" transform="translate(797.253 163.2)"><line x1="0" x2="0" y1="0" y2="5" /><g transform="translate(0 6)"><text class="lab">670.05</text></g></g><g class="tick" transform="translate(800.685 163.2)"><line x1="0" x2="0" y1="0" y2="5" /><g transform="translate(0 6)"><text class="lab">673.00</text></g></g><g class="tick" transform="translate(1180 163.2)"><line x1="0" x2="0" y1="0" y2="5" /><g transform="translate(0 6)"><text class="lab">1000.00</text></g></g></g></g></g><g class="plotbox trees"><g class="tree t0" transform="translate(20 0)"><g class="plotbox"><g class="c2 node n33 p0 root" transform="translate(114.396 26.8)"><g class="a33 c2 node n31 p0" transform="translate(32.1042 31.4547)"><g class="a31 c2 node n25 p0" transform="translate(11.5 38.7081)"><g class="a25 c1 node n10 p0" transform="translate(7.66667 22.4239)"><g class="a10 leaf node n9 p0 sample" transform="translate(0.0 2.01335)"><path class="edge" d="M 0 0 V -2.01335 H 0.0" /><rect class="sym" height="6" width="6" x="-3" y="-3" /><text class="lab" transform="translate(0 11)">9</text></g><path class="edge" d="M 0 0 V -22.4239 H -7.66667" /><circle class="sym" cx="0" cy="0" r="3" /><text class="lab rgt" transform="translate(3 -7.0)">10</text></g><g class="a25 c1 node n14 p0" transform="translate(-7.66667 20.2242)"><g class="a14 leaf node n8 p0 sample" transform="translate(0.0 4.21298)"><path class="edge" d="M 0 0 V -4.21298 H 0.0" /><rect class="sym" height="6" width="6" x="-3" y="-3" /><text class="lab" transform="translate(0 11)">8</text></g><path class="edge" d="M 0 0 V -20.2242 H 7.66667" /><circle class="sym" cx="0" cy="0" r="3" /><text class="lab lft" transform="translate(-3 -7.0)">14</text></g><path class="edge" d="M 0 0 V -38.7081 H -11.5" /><circle class="sym" cx="0" cy="0" r="3" /><text class="lab rgt" transform="translate(3 -7.0)">25</text></g><g class="a31 c1 node n30 p0" transform="translate(-11.5 6.02385)"><g class="a30 c1 node n23 p0" transform="translate(0.0 41.8011)"><g class="a23 leaf node n5 p0 sample" transform="translate(0.0 15.3203)"><path class="edge" d="M 0 0 V -15.3203 H 0.0" /><rect class="sym" height="6" width="6" x="-3" y="-3" /><text class="lab" transform="translate(0 11)">5</text></g><path class="edge" d="M 0 0 V -41.8011 H 0.0" /><circle class="sym" cx="0" cy="0" r="3" /><text class="lab lft" transform="translate(-3 -7.0)">23</text></g><path class="edge" d="M 0 0 V -6.02385 H 11.5" /><circle class="sym" cx="0" cy="0" r="3" /><text class="lab lft" transform="translate(-3 -7.0)">30</text></g><path class="edge" d="M 0 0 V -31.4547 H -32.1042" /><circle class="sym" cx="0" cy="0" r="3" /><text class="lab rgt" transform="translate(3 -7.0)">31</text></g><g class="a33 c2 node n32 p0" transform="translate(-32.1042 4.36153)"><g class="a32 c1 node n28 p0" transform="translate(25.875 57.2198)"><g class="a28 c2 node n26 p0" transform="translate(0.0 5.33188)"><g class="a26 leaf node n4 p0 sample" transform="translate(11.5 27.6868)"><path class="edge" d="M 0 0 V -27.6868 H -11.5" /><rect class="sym" height="6" width="6" x="-3" y="-3" /><text class="lab" transform="translate(0 11)">4</text></g><g class="a26 c2 node n20 p0" transform="translate(-11.5 15.8012)"><g class="a20 leaf node n1 p0 sample" transform="translate(-7.66667 11.8857)"><path class="edge" d="M 0 0 V -11.8857 H 7.66667" /><rect class="sym" height="6" width="6" x="-3" y="-3" /><text class="lab" transform="translate(0 11)">1</text></g><g class="a20 leaf node n7 p0 sample" transform="translate(7.66667 11.8857)"><path class="edge" d="M 0 0 V -11.8857 H -7.66667" /><rect class="sym" height="6" width="6" x="-3" y="-3" /><text class="lab" transform="translate(0 11)">7</text></g><path class="edge" d="M 0 0 V -15.8012 H 11.5" /><circle class="sym" cx="0" cy="0" r="3" /><text class="lab lft" transform="translate(-3 -7.0)">20</text></g><path class="edge" d="M 0 0 V -5.33188 H 0.0" /><circle class="sym" cx="0" cy="0" r="3" /><text class="lab lft" transform="translate(-3 -7.0)">26</text></g><path class="edge" d="M 0 0 V -57.2198 H -25.875" /><circle class="sym" cx="0" cy="0" r="3" /><text class="lab rgt" transform="translate(3 -7.0)">28</text></g><g class="a32 c2 node n29 p0" transform="translate(-25.875 54.548)"><g class="a29 c1 node n18 p0" transform="translate(17.25 25.9356)"><g class="a18 leaf node n3 p0 sample" transform="translate(0.0 9.75493)"><path class="edge" d="M 0 0 V -9.75493 H 0.0" /><rect class="sym" height="6" width="6" x="-3" y="-3" /><text class="lab" transform="translate(0 11)">3</text></g><path class="edge" d="M 0 0 V -25.9356 H -17.25" /><circle class="sym" cx="0" cy="0" r="3" /><text class="lab rgt" transform="translate(3 -7.0)">18</text></g><g class="a29 c2 node n27 p0" transform="translate(-17.25 3.64188)"><g class="a27 c1 node n17 p0" transform="translate(-11.5 22.7791)"><g class="a17 leaf node n0 p0 sample" transform="translate(0.0 9.26955)"><path class="edge" d="M 0 0 V -9.26955 H 0.0" /><rect class="sym" height="6" width="6" x="-3" y="-3" /><text class="lab" transform="translate(0 11)">0</text></g><path class="edge" d="M 0 0 V -22.7791 H 11.5" /><circle class="sym" cx="0" cy="0" r="3" /><text class="lab lft" transform="translate(-3 -7.0)">17</text></g><g class="a27 c2 node n22 p0" transform="translate(11.5 18.4175)"><g class="a22 c1 node n12 p0" transform="translate(-7.66667 9.63876)"><g class="a12 leaf node n2 p0 sample" transform="translate(0.0 3.9924)"><path class="edge" d="M 0 0 V -3.9924 H 0.0" /><rect class="sym" height="6" width="6" x="-3" y="-3" /><text class="lab" transform="translate(0 11)">2</text></g><path class="edge" d="M 0 0 V -9.63876 H 7.66667" /><circle class="sym" cx="0" cy="0" r="3" /><text class="lab lft" transform="translate(-3 -7.0)">12</text></g><g class="a22 c1 node n16 p0" transform="translate(7.66667 8.75194)"><g class="a16 leaf node n6 p0 sample" transform="translate(0.0 4.87921)"><path class="edge" d="M 0 0 V -4.87921 H 0.0" /><rect class="sym" height="6" width="6" x="-3" y="-3" /><text class="lab" transform="translate(0 11)">6</text></g><path class="edge" d="M 0 0 V -8.75194 H -7.66667" /><circle class="sym" cx="0" cy="0" r="3" /><text class="lab rgt" transform="translate(3 -7.0)">16</text></g><path class="edge" d="M 0 0 V -18.4175 H -11.5" /><circle class="sym" cx="0" cy="0" r="3" /><text class="lab rgt" transform="translate(3 -7.0)">22</text></g><path class="edge" d="M 0 0 V -3.64188 H 17.25" /><circle class="sym" cx="0" cy="0" r="3" /><text class="lab lft" transform="translate(-3 -7.0)">27</text></g><path class="edge" d="M 0 0 V -54.548 H 25.875" /><circle class="sym" cx="0" cy="0" r="3" /><text class="lab lft" transform="translate(-3 -7.0)">29</text></g><path class="edge" d="M 0 0 V -4.36153 H 32.1042" /><circle class="sym" cx="0" cy="0" r="3" /><text class="lab lft" transform="translate(-3 -7.0)">32</text></g><circle class="sym" cx="0" cy="0" r="3" /><text class="lab" transform="translate(0 -11)">33</text></g></g></g><g class="tree t1" transform="translate(213.333 0)"><g class="plotbox"><g class="c2 node n33 p0 root" transform="translate(104.333 26.8)"><g class="a33 c2 node n31 p0" transform="translate(38.3333 31.4547)"><g class="a31 c2 node n25 p0" transform="translate(15.3333 38.7081)"><g class="a25 c1 node n10 p0" transform="translate(7.66667 22.4239)"><g class="a10 leaf node n9 p0 sample" transform="translate(0.0 2.01335)"><path class="edge" d="M 0 0 V -2.01335 H 0.0" /><rect class="sym" height="6" width="6" x="-3" y="-3" /><text class="lab" transform="translate(0 11)">9</text></g><path class="edge" d="M 0 0 V -22.4239 H -7.66667" /><circle class="sym" cx="0" cy="0" r="3" /><text class="lab rgt" transform="translate(3 -7.0)">10</text></g><g class="a25 c1 node n14 p0" transform="translate(-7.66667 20.2242)"><g class="a14 leaf node n8 p0 sample" transform="translate(0.0 4.21298)"><path class="edge" d="M 0 0 V -4.21298 H 0.0" /><rect class="sym" height="6" width="6" x="-3" y="-3" /><text class="lab" transform="translate(0 11)">8</text></g><path class="edge" d="M 0 0 V -20.2242 H 7.66667" /><circle class="sym" cx="0" cy="0" r="3" /><text class="lab lft" transform="translate(-3 -7.0)">14</text></g><path class="edge" d="M 0 0 V -38.7081 H -15.3333" /><circle class="sym" cx="0" cy="0" r="3" /><text class="lab rgt" transform="translate(3 -7.0)">25</text></g><g class="a31 c2 node n30 p0" transform="translate(-15.3333 6.02385)"><g class="a30 c1 node n23 p0" transform="translate(7.66667 41.8011)"><g class="a23 leaf node n5 p0 sample" transform="translate(0.0 15.3203)"><path class="edge" d="M 0 0 V -15.3203 H 0.0" /><rect class="sym" height="6" width="6" x="-3" y="-3" /><text class="lab" transform="translate(0 11)">5</text></g><path class="edge" d="M 0 0 V -41.8011 H -7.66667" /><circle class="sym" cx="0" cy="0" r="3" /><text class="lab rgt" transform="translate(3 -7.0)">23</text></g><g class="a30 c1 node n21 p0" transform="translate(-7.66667 44.3424)"><g class="a21 c1 node n19 p0" transform="translate(0.0 3.02414)"><g class="a19 leaf node n3 p0 sample" transform="translate(0.0 9.75493)"><path class="edge" d="M 0 0 V -9.75493 H 0.0" /><rect class="sym" height="6" width="6" x="-3" y="-3" /><text class="lab" transform="translate(0 11)">3</text></g><path class="edge" d="M 0 0 V -3.02414 H 0.0" /><circle class="sym" cx="0" cy="0" r="3" /><text class="lab lft" transform="translate(-3 -7.0)">19</text></g><path class="edge" d="M 0 0 V -44.3424 H 7.66667" /><circle class="sym" cx="0" cy="0" r="3" /><text class="lab lft" transform="translate(-3 -7.0)">21</text></g><path class="edge" d="M 0 0 V -6.02385 H 15.3333" /><circle class="sym" cx="0" cy="0" r="3" /><text class="lab lft" transform="translate(-3 -7.0)">30</text></g><path class="edge" d="M 0 0 V -31.4547 H -38.3333" /><circle class="sym" cx="0" cy="0" r="3" /><text class="lab rgt" transform="translate(3 -7.0)">31</text></g><g class="a33 c2 node n32 p0" transform="translate(-38.3333 4.36153)"><g class="a32 c1 node n28 p0" transform="translate(26.8333 57.2198)"><g class="a28 c2 node n26 p0" transform="translate(0.0 5.33188)"><g class="a26 leaf node n4 p0 sample" transform="translate(11.5 27.6868)"><path class="edge" d="M 0 0 V -27.6868 H -11.5" /><rect class="sym" height="6" width="6" x="-3" y="-3" /><text class="lab" transform="translate(0 11)">4</text></g><g class="a26 c2 node n20 p0" transform="translate(-11.5 15.8012)"><g class="a20 leaf node n1 p0 sample" transform="translate(-7.66667 11.8857)"><path class="edge" d="M 0 0 V -11.8857 H 7.66667" /><rect class="sym" height="6" width="6" x="-3" y="-3" /><text class="lab" transform="translate(0 11)">1</text></g><g class="a20 leaf node n7 p0 sample" transform="translate(7.66667 11.8857)"><path class="edge" d="M 0 0 V -11.8857 H -7.66667" /><rect class="sym" height="6" width="6" x="-3" y="-3" /><text class="lab" transform="translate(0 11)">7</text></g><path class="edge" d="M 0 0 V -15.8012 H 11.5" /><circle class="sym" cx="0" cy="0" r="3" /><text class="lab lft" transform="translate(-3 -7.0)">20</text></g><path class="edge" d="M 0 0 V -5.33188 H 0.0" /><circle class="sym" cx="0" cy="0" r="3" /><text class="lab lft" transform="translate(-3 -7.0)">26</text></g><path class="edge" d="M 0 0 V -57.2198 H -26.8333" /><circle class="sym" cx="0" cy="0" r="3" /><text class="lab rgt" transform="translate(3 -7.0)">28</text></g><g class="a32 c1 node n29 p0" transform="translate(-26.8333 54.548)"><g class="a29 c2 node n27 p0" transform="translate(0.0 3.64188)"><g class="a27 c1 node n17 p0" transform="translate(-11.5 22.7791)"><g class="a17 leaf node n0 p0 sample" transform="translate(0.0 9.26955)"><path class="edge" d="M 0 0 V -9.26955 H 0.0" /><rect class="sym" height="6" width="6" x="-3" y="-3" /><text class="lab" transform="translate(0 11)">0</text></g><path class="edge" d="M 0 0 V -22.7791 H 11.5" /><circle class="sym" cx="0" cy="0" r="3" /><text class="lab lft" transform="translate(-3 -7.0)">17</text></g><g class="a27 c2 node n22 p0" transform="translate(11.5 18.4175)"><g class="a22 c1 node n12 p0" transform="translate(-7.66667 9.63876)"><g class="a12 leaf node n2 p0 sample" transform="translate(0.0 3.9924)"><path class="edge" d="M 0 0 V -3.9924 H 0.0" /><rect class="sym" height="6" width="6" x="-3" y="-3" /><text class="lab" transform="translate(0 11)">2</text></g><path class="edge" d="M 0 0 V -9.63876 H 7.66667" /><circle class="sym" cx="0" cy="0" r="3" /><text class="lab lft" transform="translate(-3 -7.0)">12</text></g><g class="a22 c1 node n16 p0" transform="translate(7.66667 8.75194)"><g class="a16 leaf node n6 p0 sample" transform="translate(0.0 4.87921)"><path class="edge" d="M 0 0 V -4.87921 H 0.0" /><rect class="sym" height="6" width="6" x="-3" y="-3" /><text class="lab" transform="translate(0 11)">6</text></g><path class="edge" d="M 0 0 V -8.75194 H -7.66667" /><circle class="sym" cx="0" cy="0" r="3" /><text class="lab rgt" transform="translate(3 -7.0)">16</text></g><path class="edge" d="M 0 0 V -18.4175 H -11.5" /><circle class="sym" cx="0" cy="0" r="3" /><text class="lab rgt" transform="translate(3 -7.0)">22</text></g><path class="edge" d="M 0 0 V -3.64188 H 0.0" /><circle class="sym" cx="0" cy="0" r="3" /><text class="lab lft" transform="translate(-3 -7.0)">27</text></g><path class="edge" d="M 0 0 V -54.548 H 26.8333" /><circle class="sym" cx="0" cy="0" r="3" /><text class="lab lft" transform="translate(-3 -7.0)">29</text></g><path class="edge" d="M 0 0 V -4.36153 H 38.3333" /><circle class="sym" cx="0" cy="0" r="3" /><text class="lab lft" transform="translate(-3 -7.0)">32</text></g><circle class="sym" cx="0" cy="0" r="3" /><text class="lab" transform="translate(0 -11)">33</text></g></g></g><g class="tree t2" transform="translate(406.667 0)"><g class="plotbox"><g class="c2 node n33 p0 root" transform="translate(114.396 26.8)"><g class="a33 c2 node n31 p0" transform="translate(39.7708 31.4547)"><g class="a31 c1 node n25 p0" transform="translate(11.5 38.7081)"><g class="a25 c1 node n14 p0" transform="translate(0.0 20.2242)"><g class="a14 leaf node n8 p0 sample" transform="translate(0.0 4.21298)"><path class="edge" d="M 0 0 V -4.21298 H 0.0" /><rect class="sym" height="6" width="6" x="-3" y="-3" /><text class="lab" transform="translate(0 11)">8</text></g><path class="edge" d="M 0 0 V -20.2242 H 0.0" /><circle class="sym" cx="0" cy="0" r="3" /><text class="lab lft" transform="translate(-3 -7.0)">14</text></g><path class="edge" d="M 0 0 V -38.7081 H -11.5" /><circle class="sym" cx="0" cy="0" r="3" /><text class="lab rgt" transform="translate(3 -7.0)">25</text></g><g class="a31 c2 node n30 p0" transform="translate(-11.5 6.02385)"><g class="a30 c1 node n23 p0" transform="translate(7.66667 41.8011)"><g class="a23 leaf node n5 p0 sample" transform="translate(0.0 15.3203)"><path class="edge" d="M 0 0 V -15.3203 H 0.0" /><rect class="sym" height="6" width="6" x="-3" y="-3" /><text class="lab" transform="translate(0 11)">5</text></g><path class="edge" d="M 0 0 V -41.8011 H -7.66667" /><circle class="sym" cx="0" cy="0" r="3" /><text class="lab rgt" transform="translate(3 -7.0)">23</text></g><g class="a30 c1 node n21 p0" transform="translate(-7.66667 44.3424)"><g class="a21 c1 node n19 p0" transform="translate(0.0 3.02414)"><g class="a19 leaf node n3 p0 sample" transform="translate(0.0 9.75493)"><path class="edge" d="M 0 0 V -9.75493 H 0.0" /><rect class="sym" height="6" width="6" x="-3" y="-3" /><text class="lab" transform="translate(0 11)">3</text></g><path class="edge" d="M 0 0 V -3.02414 H 0.0" /><circle class="sym" cx="0" cy="0" r="3" /><text class="lab lft" transform="translate(-3 -7.0)">19</text></g><path class="edge" d="M 0 0 V -44.3424 H 7.66667" /><circle class="sym" cx="0" cy="0" r="3" /><text class="lab lft" transform="translate(-3 -7.0)">21</text></g><path class="edge" d="M 0 0 V -6.02385 H 11.5" /><circle class="sym" cx="0" cy="0" r="3" /><text class="lab lft" transform="translate(-3 -7.0)">30</text></g><path class="edge" d="M 0 0 V -31.4547 H -39.7708" /><circle class="sym" cx="0" cy="0" r="3" /><text class="lab rgt" transform="translate(3 -7.0)">31</text></g><g class="a33 c2 node n32 p0" transform="translate(-39.7708 4.36153)"><g class="a32 c1 node n28 p0" transform="translate(33.5417 57.2198)"><g class="a28 c2 node n26 p0" transform="translate(0.0 5.33188)"><g class="a26 leaf node n4 p0 sample" transform="translate(11.5 27.6868)"><path class="edge" d="M 0 0 V -27.6868 H -11.5" /><rect class="sym" height="6" width="6" x="-3" y="-3" /><text class="lab" transform="translate(0 11)">4</text></g><g class="a26 c2 node n20 p0" transform="translate(-11.5 15.8012)"><g class="a20 leaf node n1 p0 sample" transform="translate(-7.66667 11.8857)"><path class="edge" d="M 0 0 V -11.8857 H 7.66667" /><rect class="sym" height="6" width="6" x="-3" y="-3" /><text class="lab" transform="translate(0 11)">1</text></g><g class="a20 leaf node n7 p0 sample" transform="translate(7.66667 11.8857)"><path class="edge" d="M 0 0 V -11.8857 H -7.66667" /><rect class="sym" height="6" width="6" x="-3" y="-3" /><text class="lab" transform="translate(0 11)">7</text></g><path class="edge" d="M 0 0 V -15.8012 H 11.5" /><circle class="sym" cx="0" cy="0" r="3" /><text class="lab lft" transform="translate(-3 -7.0)">20</text></g><path class="edge" d="M 0 0 V -5.33188 H 0.0" /><circle class="sym" cx="0" cy="0" r="3" /><text class="lab lft" transform="translate(-3 -7.0)">26</text></g><path class="edge" d="M 0 0 V -57.2198 H -33.5417" /><circle class="sym" cx="0" cy="0" r="3" /><text class="lab rgt" transform="translate(3 -7.0)">28</text></g><g class="a32 c1 node n29 p0" transform="translate(-33.5417 54.548)"><g class="a29 c2 node n27 p0" transform="translate(0.0 3.64188)"><g class="a27 c1 node n17 p0" transform="translate(-13.4167 22.7791)"><g class="a17 leaf node n0 p0 sample" transform="translate(0.0 9.26955)"><path class="edge" d="M 0 0 V -9.26955 H 0.0" /><rect class="sym" height="6" width="6" x="-3" y="-3" /><text class="lab" transform="translate(0 11)">0</text></g><path class="edge" d="M 0 0 V -22.7791 H 13.4167" /><circle class="sym" cx="0" cy="0" r="3" /><text class="lab lft" transform="translate(-3 -7.0)">17</text></g><g class="a27 c2 node n22 p0" transform="translate(13.4167 18.4175)"><g class="a22 c1 node n12 p0" transform="translate(-11.5 9.63876)"><g class="a12 leaf node n2 p0 sample" transform="translate(0.0 3.9924)"><path class="edge" d="M 0 0 V -3.9924 H 0.0" /><rect class="sym" height="6" width="6" x="-3" y="-3" /><text class="lab" transform="translate(0 11)">2</text></g><path class="edge" d="M 0 0 V -9.63876 H 11.5" /><circle class="sym" cx="0" cy="0" r="3" /><text class="lab lft" transform="translate(-3 -7.0)">12</text></g><g class="a22 c2 node n16 p0" transform="translate(11.5 8.75194)"><g class="a16 leaf node n6 p0 sample" transform="translate(-7.66667 4.87921)"><path class="edge" d="M 0 0 V -4.87921 H 7.66667" /><rect class="sym" height="6" width="6" x="-3" y="-3" /><text class="lab" transform="translate(0 11)">6</text></g><g class="a16 c1 node n11 p0" transform="translate(7.66667 2.86586)"><g class="a11 leaf node n9 p0 sample" transform="translate(0.0 2.01335)"><path class="edge" d="M 0 0 V -2.01335 H 0.0" /><rect class="sym" height="6" width="6" x="-3" y="-3" /><text class="lab" transform="translate(0 11)">9</text></g><path class="edge" d="M 0 0 V -2.86586 H -7.66667" /><circle class="sym" cx="0" cy="0" r="3" /><text class="lab rgt" transform="translate(3 -7.0)">11</text></g><path class="edge" d="M 0 0 V -8.75194 H -11.5" /><circle class="sym" cx="0" cy="0" r="3" /><text class="lab rgt" transform="translate(3 -7.0)">16</text></g><path class="edge" d="M 0 0 V -18.4175 H -13.4167" /><circle class="sym" cx="0" cy="0" r="3" /><text class="lab rgt" transform="translate(3 -7.0)">22</text></g><path class="edge" d="M 0 0 V -3.64188 H 0.0" /><circle class="sym" cx="0" cy="0" r="3" /><text class="lab lft" transform="translate(-3 -7.0)">27</text></g><path class="edge" d="M 0 0 V -54.548 H 33.5417" /><circle class="sym" cx="0" cy="0" r="3" /><text class="lab lft" transform="translate(-3 -7.0)">29</text></g><path class="edge" d="M 0 0 V -4.36153 H 39.7708" /><circle class="sym" cx="0" cy="0" r="3" /><text class="lab lft" transform="translate(-3 -7.0)">32</text></g><circle class="sym" cx="0" cy="0" r="3" /><text class="lab" transform="translate(0 -11)">33</text></g></g></g><g class="tree t3" transform="translate(600 0)"><g class="plotbox"><g class="c2 node n33 p0 root" transform="translate(119.667 26.8)"><g class="a33 c2 node n31 p0" transform="translate(38.3333 31.4547)"><g class="a31 c1 node n25 p0" transform="translate(7.66667 38.7081)"><g class="a25 c1 node n14 p0" transform="translate(0.0 20.2242)"><g class="a14 leaf node n8 p0 sample" transform="translate(0.0 4.21298)"><path class="edge" d="M 0 0 V -4.21298 H 0.0" /><rect class="sym" height="6" width="6" x="-3" y="-3" /><text class="lab" transform="translate(0 11)">8</text></g><path class="edge" d="M 0 0 V -20.2242 H 0.0" /><circle class="sym" cx="0" cy="0" r="3" /><text class="lab lft" transform="translate(-3 -7.0)">14</text></g><path class="edge" d="M 0 0 V -38.7081 H -7.66667" /><circle class="sym" cx="0" cy="0" r="3" /><text class="lab rgt" transform="translate(3 -7.0)">25</text></g><g class="a31 c1 node n30 p0" transform="translate(-7.66667 6.02385)"><g class="a30 c1 node n21 p0" transform="translate(0.0 44.3424)"><g class="a21 c1 node n19 p0" transform="translate(0.0 3.02414)"><g class="a19 leaf node n3 p0 sample" transform="translate(0.0 9.75493)"><path class="edge" d="M 0 0 V -9.75493 H 0.0" /><rect class="sym" height="6" width="6" x="-3" y="-3" /><text class="lab" transform="translate(0 11)">3</text></g><path class="edge" d="M 0 0 V -3.02414 H 0.0" /><circle class="sym" cx="0" cy="0" r="3" /><text class="lab lft" transform="translate(-3 -7.0)">19</text></g><path class="edge" d="M 0 0 V -44.3424 H 0.0" /><circle class="sym" cx="0" cy="0" r="3" /><text class="lab lft" transform="translate(-3 -7.0)">21</text></g><path class="edge" d="M 0 0 V -6.02385 H 7.66667" /><circle class="sym" cx="0" cy="0" r="3" /><text class="lab lft" transform="translate(-3 -7.0)">30</text></g><path class="edge" d="M 0 0 V -31.4547 H -38.3333" /><circle class="sym" cx="0" cy="0" r="3" /><text class="lab rgt" transform="translate(3 -7.0)">31</text></g><g class="a33 c2 node n32 p0" transform="translate(-38.3333 4.36153)"><g class="a32 c2 node n28 p0" transform="translate(40.25 57.2198)"><g class="a28 c2 node n26 p0" transform="translate(-13.4167 5.33188)"><g class="a26 leaf node n4 p0 sample" transform="translate(11.5 27.6868)"><path class="edge" d="M 0 0 V -27.6868 H -11.5" /><rect class="sym" height="6" width="6" x="-3" y="-3" /><text class="lab" transform="translate(0 11)">4</text></g><g class="a26 c2 node n20 p0" transform="translate(-11.5 15.8012)"><g class="a20 leaf node n1 p0 sample" transform="translate(-7.66667 11.8857)"><path class="edge" d="M 0 0 V -11.8857 H 7.66667" /><rect class="sym" height="6" width="6" x="-3" y="-3" /><text class="lab" transform="translate(0 11)">1</text></g><g class="a20 leaf node n7 p0 sample" transform="translate(7.66667 11.8857)"><path class="edge" d="M 0 0 V -11.8857 H -7.66667" /><rect class="sym" height="6" width="6" x="-3" y="-3" /><text class="lab" transform="translate(0 11)">7</text></g><path class="edge" d="M 0 0 V -15.8012 H 11.5" /><circle class="sym" cx="0" cy="0" r="3" /><text class="lab lft" transform="translate(-3 -7.0)">20</text></g><path class="edge" d="M 0 0 V -5.33188 H 13.4167" /><circle class="sym" cx="0" cy="0" r="3" /><text class="lab lft" transform="translate(-3 -7.0)">26</text></g><g class="a28 c1 node n24 p0" transform="translate(13.4167 17.6984)"><g class="a24 leaf node n5 p0 sample" transform="translate(0.0 15.3203)"><path class="edge" d="M 0 0 V -15.3203 H 0.0" /><rect class="sym" height="6" width="6" x="-3" y="-3" /><text class="lab" transform="translate(0 11)">5</text></g><path class="edge" d="M 0 0 V -17.6984 H -13.4167" /><circle class="sym" cx="0" cy="0" r="3" /><text class="lab rgt" transform="translate(3 -7.0)">24</text></g><path class="edge" d="M 0 0 V -57.2198 H -40.25" /><circle class="sym" cx="0" cy="0" r="3" /><text class="lab rgt" transform="translate(3 -7.0)">28</text></g><g class="a32 c1 node n29 p0" transform="translate(-40.25 54.548)"><g class="a29 c2 node n27 p0" transform="translate(0.0 3.64188)"><g class="a27 c1 node n17 p0" transform="translate(-13.4167 22.7791)"><g class="a17 leaf node n0 p0 sample" transform="translate(0.0 9.26955)"><path class="edge" d="M 0 0 V -9.26955 H 0.0" /><rect class="sym" height="6" width="6" x="-3" y="-3" /><text class="lab" transform="translate(0 11)">0</text></g><path class="edge" d="M 0 0 V -22.7791 H 13.4167" /><circle class="sym" cx="0" cy="0" r="3" /><text class="lab lft" transform="translate(-3 -7.0)">17</text></g><g class="a27 c2 node n22 p0" transform="translate(13.4167 18.4175)"><g class="a22 c1 node n12 p0" transform="translate(-11.5 9.63876)"><g class="a12 leaf node n2 p0 sample" transform="translate(0.0 3.9924)"><path class="edge" d="M 0 0 V -3.9924 H 0.0" /><rect class="sym" height="6" width="6" x="-3" y="-3" /><text class="lab" transform="translate(0 11)">2</text></g><path class="edge" d="M 0 0 V -9.63876 H 11.5" /><circle class="sym" cx="0" cy="0" r="3" /><text class="lab lft" transform="translate(-3 -7.0)">12</text></g><g class="a22 c2 node n16 p0" transform="translate(11.5 8.75194)"><g class="a16 leaf node n6 p0 sample" transform="translate(-7.66667 4.87921)"><path class="edge" d="M 0 0 V -4.87921 H 7.66667" /><rect class="sym" height="6" width="6" x="-3" y="-3" /><text class="lab" transform="translate(0 11)">6</text></g><g class="a16 c1 node n11 p0" transform="translate(7.66667 2.86586)"><g class="a11 leaf node n9 p0 sample" transform="translate(0.0 2.01335)"><path class="edge" d="M 0 0 V -2.01335 H 0.0" /><rect class="sym" height="6" width="6" x="-3" y="-3" /><text class="lab" transform="translate(0 11)">9</text></g><path class="edge" d="M 0 0 V -2.86586 H -7.66667" /><circle class="sym" cx="0" cy="0" r="3" /><text class="lab rgt" transform="translate(3 -7.0)">11</text></g><path class="edge" d="M 0 0 V -8.75194 H -11.5" /><circle class="sym" cx="0" cy="0" r="3" /><text class="lab rgt" transform="translate(3 -7.0)">16</text></g><path class="edge" d="M 0 0 V -18.4175 H -13.4167" /><circle class="sym" cx="0" cy="0" r="3" /><text class="lab rgt" transform="translate(3 -7.0)">22</text></g><path class="edge" d="M 0 0 V -3.64188 H 0.0" /><circle class="sym" cx="0" cy="0" r="3" /><text class="lab lft" transform="translate(-3 -7.0)">27</text></g><path class="edge" d="M 0 0 V -54.548 H 40.25" /><circle class="sym" cx="0" cy="0" r="3" /><text class="lab lft" transform="translate(-3 -7.0)">29</text></g><path class="edge" d="M 0 0 V -4.36153 H 38.3333" /><circle class="sym" cx="0" cy="0" r="3" /><text class="lab lft" transform="translate(-3 -7.0)">32</text></g><circle class="sym" cx="0" cy="0" r="3" /><text class="lab" transform="translate(0 -11)">33</text></g></g></g><g class="tree t4" transform="translate(793.333 0)"><g class="plotbox"><g class="c2 node n33 p0 root" transform="translate(113.438 26.8)"><g class="a33 c2 node n31 p0" transform="translate(40.7292 31.4547)"><g class="a31 c1 node n25 p0" transform="translate(11.5 38.7081)"><g class="a25 c1 node n14 p0" transform="translate(0.0 20.2242)"><g class="a14 leaf node n8 p0 sample" transform="translate(0.0 4.21298)"><path class="edge" d="M 0 0 V -4.21298 H 0.0" /><rect class="sym" height="6" width="6" x="-3" y="-3" /><text class="lab" transform="translate(0 11)">8</text></g><path class="edge" d="M 0 0 V -20.2242 H 0.0" /><circle class="sym" cx="0" cy="0" r="3" /><text class="lab lft" transform="translate(-3 -7.0)">14</text></g><path class="edge" d="M 0 0 V -38.7081 H -11.5" /><circle class="sym" cx="0" cy="0" r="3" /><text class="lab rgt" transform="translate(3 -7.0)">25</text></g><g class="a31 c1 node n30 p0" transform="translate(-11.5 6.02385)"><g class="a30 c2 node n21 p0" transform="translate(0.0 44.3424)"><g class="a21 c1 node n19 p0" transform="translate(7.66667 3.02414)"><g class="a19 leaf node n3 p0 sample" transform="translate(0.0 9.75493)"><path class="edge" d="M 0 0 V -9.75493 H 0.0" /><rect class="sym" height="6" width="6" x="-3" y="-3" /><text class="lab" transform="translate(0 11)">3</text></g><path class="edge" d="M 0 0 V -3.02414 H -7.66667" /><circle class="sym" cx="0" cy="0" r="3" /><text class="lab rgt" transform="translate(3 -7.0)">19</text></g><g class="a21 c1 node n13 p0" transform="translate(-7.66667 8.78668)"><g class="a13 leaf node n2 p0 sample" transform="translate(0.0 3.9924)"><path class="edge" d="M 0 0 V -3.9924 H 0.0" /><rect class="sym" height="6" width="6" x="-3" y="-3" /><text class="lab" transform="translate(0 11)">2</text></g><path class="edge" d="M 0 0 V -8.78668 H 7.66667" /><circle class="sym" cx="0" cy="0" r="3" /><text class="lab lft" transform="translate(-3 -7.0)">13</text></g><path class="edge" d="M 0 0 V -44.3424 H 0.0" /><circle class="sym" cx="0" cy="0" r="3" /><text class="lab lft" transform="translate(-3 -7.0)">21</text></g><path class="edge" d="M 0 0 V -6.02385 H 11.5" /><circle class="sym" cx="0" cy="0" r="3" /><text class="lab lft" transform="translate(-3 -7.0)">30</text></g><path class="edge" d="M 0 0 V -31.4547 H -40.7292" /><circle class="sym" cx="0" cy="0" r="3" /><text class="lab rgt" transform="translate(3 -7.0)">31</text></g><g class="a33 c2 node n32 p0" transform="translate(-40.7292 4.36153)"><g class="a32 c2 node n28 p0" transform="translate(33.5417 57.2198)"><g class="a28 c2 node n26 p0" transform="translate(-13.4167 5.33188)"><g class="a26 leaf node n4 p0 sample" transform="translate(11.5 27.6868)"><path class="edge" d="M 0 0 V -27.6868 H -11.5" /><rect class="sym" height="6" width="6" x="-3" y="-3" /><text class="lab" transform="translate(0 11)">4</text></g><g class="a26 c2 node n20 p0" transform="translate(-11.5 15.8012)"><g class="a20 leaf node n1 p0 sample" transform="translate(-7.66667 11.8857)"><path class="edge" d="M 0 0 V -11.8857 H 7.66667" /><rect class="sym" height="6" width="6" x="-3" y="-3" /><text class="lab" transform="translate(0 11)">1</text></g><g class="a20 leaf node n7 p0 sample" transform="translate(7.66667 11.8857)"><path class="edge" d="M 0 0 V -11.8857 H -7.66667" /><rect class="sym" height="6" width="6" x="-3" y="-3" /><text class="lab" transform="translate(0 11)">7</text></g><path class="edge" d="M 0 0 V -15.8012 H 11.5" /><circle class="sym" cx="0" cy="0" r="3" /><text class="lab lft" transform="translate(-3 -7.0)">20</text></g><path class="edge" d="M 0 0 V -5.33188 H 13.4167" /><circle class="sym" cx="0" cy="0" r="3" /><text class="lab lft" transform="translate(-3 -7.0)">26</text></g><g class="a28 c1 node n24 p0" transform="translate(13.4167 17.6984)"><g class="a24 leaf node n5 p0 sample" transform="translate(0.0 15.3203)"><path class="edge" d="M 0 0 V -15.3203 H 0.0" /><rect class="sym" height="6" width="6" x="-3" y="-3" /><text class="lab" transform="translate(0 11)">5</text></g><path class="edge" d="M 0 0 V -17.6984 H -13.4167" /><circle class="sym" cx="0" cy="0" r="3" /><text class="lab rgt" transform="translate(3 -7.0)">24</text></g><path class="edge" d="M 0 0 V -57.2198 H -33.5417" /><circle class="sym" cx="0" cy="0" r="3" /><text class="lab rgt" transform="translate(3 -7.0)">28</text></g><g class="a32 c1 node n29 p0" transform="translate(-33.5417 54.548)"><g class="a29 c2 node n27 p0" transform="translate(0.0 3.64188)"><g class="a27 c1 node n17 p0" transform="translate(-11.5 22.7791)"><g class="a17 leaf node n0 p0 sample" transform="translate(0.0 9.26955)"><path class="edge" d="M 0 0 V -9.26955 H 0.0" /><rect class="sym" height="6" width="6" x="-3" y="-3" /><text class="lab" transform="translate(0 11)">0</text></g><path class="edge" d="M 0 0 V -22.7791 H 11.5" /><circle class="sym" cx="0" cy="0" r="3" /><text class="lab lft" transform="translate(-3 -7.0)">17</text></g><g class="a27 c1 node n22 p0" transform="translate(11.5 18.4175)"><g class="a22 c2 node n16 p0" transform="translate(0.0 8.75194)"><g class="a16 leaf node n6 p0 sample" transform="translate(-7.66667 4.87921)"><path class="edge" d="M 0 0 V -4.87921 H 7.66667" /><rect class="sym" height="6" width="6" x="-3" y="-3" /><text class="lab" transform="translate(0 11)">6</text></g><g class="a16 c1 node n11 p0" transform="translate(7.66667 2.86586)"><g class="a11 leaf node n9 p0 sample" transform="translate(0.0 2.01335)"><path class="edge" d="M 0 0 V -2.01335 H 0.0" /><rect class="sym" height="6" width="6" x="-3" y="-3" /><text class="lab" transform="translate(0 11)">9</text></g><path class="edge" d="M 0 0 V -2.86586 H -7.66667" /><circle class="sym" cx="0" cy="0" r="3" /><text class="lab rgt" transform="translate(3 -7.0)">11</text></g><path class="edge" d="M 0 0 V -8.75194 H 0.0" /><circle class="sym" cx="0" cy="0" r="3" /><text class="lab lft" transform="translate(-3 -7.0)">16</text></g><path class="edge" d="M 0 0 V -18.4175 H -11.5" /><circle class="sym" cx="0" cy="0" r="3" /><text class="lab rgt" transform="translate(3 -7.0)">22</text></g><path class="edge" d="M 0 0 V -3.64188 H 0.0" /><circle class="sym" cx="0" cy="0" r="3" /><text class="lab lft" transform="translate(-3 -7.0)">27</text></g><path class="edge" d="M 0 0 V -54.548 H 33.5417" /><circle class="sym" cx="0" cy="0" r="3" /><text class="lab lft" transform="translate(-3 -7.0)">29</text></g><path class="edge" d="M 0 0 V -4.36153 H 40.7292" /><circle class="sym" cx="0" cy="0" r="3" /><text class="lab lft" transform="translate(-3 -7.0)">32</text></g><circle class="sym" cx="0" cy="0" r="3" /><text class="lab" transform="translate(0 -11)">33</text></g></g></g><g class="tree t5" transform="translate(986.667 0)"><g class="plotbox"><g class="c2 node n33 p0 root" transform="translate(122.062 26.8)"><g class="a33 c1 node n31 p0" transform="translate(35.9375 31.4547)"><g class="a31 c1 node n30 p0" transform="translate(0.0 6.02385)"><g class="a30 c2 node n21 p0" transform="translate(0.0 44.3424)"><g class="a21 c1 node n19 p0" transform="translate(7.66667 3.02414)"><g class="a19 leaf node n3 p0 sample" transform="translate(0.0 9.75493)"><path class="edge" d="M 0 0 V -9.75493 H 0.0" /><rect class="sym" height="6" width="6" x="-3" y="-3" /><text class="lab" transform="translate(0 11)">3</text></g><path class="edge" d="M 0 0 V -3.02414 H -7.66667" /><circle class="sym" cx="0" cy="0" r="3" /><text class="lab rgt" transform="translate(3 -7.0)">19</text></g><g class="a21 c1 node n13 p0" transform="translate(-7.66667 8.78668)"><g class="a13 leaf node n2 p0 sample" transform="translate(0.0 3.9924)"><path class="edge" d="M 0 0 V -3.9924 H 0.0" /><rect class="sym" height="6" width="6" x="-3" y="-3" /><text class="lab" transform="translate(0 11)">2</text></g><path class="edge" d="M 0 0 V -8.78668 H 7.66667" /><circle class="sym" cx="0" cy="0" r="3" /><text class="lab lft" transform="translate(-3 -7.0)">13</text></g><path class="edge" d="M 0 0 V -44.3424 H 0.0" /><circle class="sym" cx="0" cy="0" r="3" /><text class="lab lft" transform="translate(-3 -7.0)">21</text></g><path class="edge" d="M 0 0 V -6.02385 H 0.0" /><circle class="sym" cx="0" cy="0" r="3" /><text class="lab lft" transform="translate(-3 -7.0)">30</text></g><path class="edge" d="M 0 0 V -31.4547 H -35.9375" /><circle class="sym" cx="0" cy="0" r="3" /><text class="lab rgt" transform="translate(3 -7.0)">31</text></g><g class="a33 c2 node n32 p0" transform="translate(-35.9375 4.36153)"><g class="a32 c2 node n28 p0" transform="translate(35.4583 57.2198)"><g class="a28 c2 node n26 p0" transform="translate(-13.4167 5.33188)"><g class="a26 leaf node n4 p0 sample" transform="translate(11.5 27.6868)"><path class="edge" d="M 0 0 V -27.6868 H -11.5" /><rect class="sym" height="6" width="6" x="-3" y="-3" /><text class="lab" transform="translate(0 11)">4</text></g><g class="a26 c2 node n20 p0" transform="translate(-11.5 15.8012)"><g class="a20 leaf node n1 p0 sample" transform="translate(-7.66667 11.8857)"><path class="edge" d="M 0 0 V -11.8857 H 7.66667" /><rect class="sym" height="6" width="6" x="-3" y="-3" /><text class="lab" transform="translate(0 11)">1</text></g><g class="a20 leaf node n7 p0 sample" transform="translate(7.66667 11.8857)"><path class="edge" d="M 0 0 V -11.8857 H -7.66667" /><rect class="sym" height="6" width="6" x="-3" y="-3" /><text class="lab" transform="translate(0 11)">7</text></g><path class="edge" d="M 0 0 V -15.8012 H 11.5" /><circle class="sym" cx="0" cy="0" r="3" /><text class="lab lft" transform="translate(-3 -7.0)">20</text></g><path class="edge" d="M 0 0 V -5.33188 H 13.4167" /><circle class="sym" cx="0" cy="0" r="3" /><text class="lab lft" transform="translate(-3 -7.0)">26</text></g><g class="a28 c1 node n24 p0" transform="translate(13.4167 17.6984)"><g class="a24 leaf node n5 p0 sample" transform="translate(0.0 15.3203)"><path class="edge" d="M 0 0 V -15.3203 H 0.0" /><rect class="sym" height="6" width="6" x="-3" y="-3" /><text class="lab" transform="translate(0 11)">5</text></g><path class="edge" d="M 0 0 V -17.6984 H -13.4167" /><circle class="sym" cx="0" cy="0" r="3" /><text class="lab rgt" transform="translate(3 -7.0)">24</text></g><path class="edge" d="M 0 0 V -57.2198 H -35.4583" /><circle class="sym" cx="0" cy="0" r="3" /><text class="lab rgt" transform="translate(3 -7.0)">28</text></g><g class="a32 c1 node n29 p0" transform="translate(-35.4583 54.548)"><g class="a29 c2 node n27 p0" transform="translate(0.0 3.64188)"><g class="a27 c2 node n17 p0" transform="translate(-15.3333 22.7791)"><g class="a17 leaf node n0 p0 sample" transform="translate(-7.66667 9.26955)"><path class="edge" d="M 0 0 V -9.26955 H 7.66667" /><rect class="sym" height="6" width="6" x="-3" y="-3" /><text class="lab" transform="translate(0 11)">0</text></g><g class="a17 c1 node n15 p0" transform="translate(7.66667 5.05657)"><g class="a15 leaf node n8 p0 sample" transform="translate(0.0 4.21298)"><path class="edge" d="M 0 0 V -4.21298 H 0.0" /><rect class="sym" height="6" width="6" x="-3" y="-3" /><text class="lab" transform="translate(0 11)">8</text></g><path class="edge" d="M 0 0 V -5.05657 H -7.66667" /><circle class="sym" cx="0" cy="0" r="3" /><text class="lab rgt" transform="translate(3 -7.0)">15</text></g><path class="edge" d="M 0 0 V -22.7791 H 15.3333" /><circle class="sym" cx="0" cy="0" r="3" /><text class="lab lft" transform="translate(-3 -7.0)">17</text></g><g class="a27 c1 node n22 p0" transform="translate(15.3333 18.4175)"><g class="a22 c2 node n16 p0" transform="translate(0.0 8.75194)"><g class="a16 leaf node n6 p0 sample" transform="translate(-7.66667 4.87921)"><path class="edge" d="M 0 0 V -4.87921 H 7.66667" /><rect class="sym" height="6" width="6" x="-3" y="-3" /><text class="lab" transform="translate(0 11)">6</text></g><g class="a16 c1 node n11 p0" transform="translate(7.66667 2.86586)"><g class="a11 leaf node n9 p0 sample" transform="translate(0.0 2.01335)"><path class="edge" d="M 0 0 V -2.01335 H 0.0" /><rect class="sym" height="6" width="6" x="-3" y="-3" /><text class="lab" transform="translate(0 11)">9</text></g><path class="edge" d="M 0 0 V -2.86586 H -7.66667" /><circle class="sym" cx="0" cy="0" r="3" /><text class="lab rgt" transform="translate(3 -7.0)">11</text></g><path class="edge" d="M 0 0 V -8.75194 H 0.0" /><circle class="sym" cx="0" cy="0" r="3" /><text class="lab lft" transform="translate(-3 -7.0)">16</text></g><path class="edge" d="M 0 0 V -18.4175 H -15.3333" /><circle class="sym" cx="0" cy="0" r="3" /><text class="lab rgt" transform="translate(3 -7.0)">22</text></g><path class="edge" d="M 0 0 V -3.64188 H 0.0" /><circle class="sym" cx="0" cy="0" r="3" /><text class="lab lft" transform="translate(-3 -7.0)">27</text></g><path class="edge" d="M 0 0 V -54.548 H 35.4583" /><circle class="sym" cx="0" cy="0" r="3" /><text class="lab lft" transform="translate(-3 -7.0)">29</text></g><path class="edge" d="M 0 0 V -4.36153 H 35.9375" /><circle class="sym" cx="0" cy="0" r="3" /><text class="lab lft" transform="translate(-3 -7.0)">32</text></g><circle class="sym" cx="0" cy="0" r="3" /><text class="lab" transform="translate(0 -11)">33</text></g></g></g></g></g></svg>
