<svg baseProfile="full" height="200" version="1.1" width="800" xmlns="http://www.w3.org/2000/svg" xmlns:ev="http://www.w3.org/2001/xml-events" xmlns:xlink="http://www.w3.org/1999/xlink"><defs><style type="text/css"><![CDATA[.background path {fill: #808080; fill-opacity: 0}.background path:nth-child(odd) {fill-opacity: .1}.axes {font-size: 14px}.x-axis .tick .lab {font-weight: bold; dominant-baseline: hanging}.axes, .tree {font-size: 14px; text-anchor: middle}.axes line, .edge {stroke: black; fill: none}.y-axis .grid {stroke: #FAFAFA}.node > .sym {fill: black; stroke: none}.site > .sym {stroke: black}.mut text {fill: red; font-style: italic}.mut.extra text {fill: hotpink}.mut line {fill: none; stroke: none}.mut .sym {fill: none; stroke: red}.mut.extra .sym {stroke: hotpink}.node .mut .sym {stroke-width: 1.5px}.tree text, .tree-sequence text {dominant-baseline: central}.plotbox .lab.lft {text-anchor: end}.plotbox .lab.rgt {text-anchor: start}]]></style></defs><g class="tree-sequence"><g class="background"><path d="M20,0 l190,0 l0,138.2 l-42.7489,25 l0,5 l-147.251,0 l0,-5 l0,-25 l0,-138.2z" /><path d="M210,0 l190,0 l0,138.2 l-203.283,25 l0,5 l-29.466,0 l0,-5 l42.7489,-25 l0,-138.2z" /><path d="M400,0 l190,0 l0,138.2 l-165.334,25 l0,5 l-227.948,0 l0,-5 l203.283,-25 l0,-138.2z" /><path d="M590,0 l190,0 l0,138.2 l0,25 l0,5 l-355.334,0 l0,-5 l165.334,-25 l0,-138.2z" /></g><g class="axes"><g class="x-axis"><g transform="translate(400 200)"><text class="lab" text-anchor="middle" transform="translate(0 -11)">Genome position</text></g><line x1="20" x2="780" y1="163.2" y2="163.2" /><g class="ticks"><g class="tick" transform="translate(20 163.2)"><line x1="0" x2="0" y1="0" y2="5" /><g transform="translate(0 6)"><text class="lab">0.00</text></g></g><g class="tick" transform="translate(167.251 163.2)"><line x1="0" x2="0" y1="0" y2="5" /><g transform="translate(0 6)"><text class="lab">193.75</text></g></g><g class="tick" transform="translate(196.717 163.2)"><line x1="0" x2="0" y1="0" y2="5" /><g transform="translate(0 6)"><text class="lab">232.52</text></g></g><g class="tick" transform="translate(424.666 163.2)"><line x1="0" x2="0" y1="0" y2="5" /><g transform="translate(0 6)"><text class="lab">532.45</text></g></g><g class="tick" transform="translate(780 163.2)"><line x1="0" x2="0" y1="0" y2="5" /><g transform="translate(0 6)"><text class="lab">1000.00</text></g></g></g></g></g><g class="plotbox trees"><g class="tree t0" transform="translate(20 0)"><g class="plotbox"><g class="c2 node n27 p0 root" transform="translate(126.172 26.8)"><g class="a27 c1 node n24 p0" transform="translate(28.8281 77.8921)"><g class="a24 c2 node n13 p0" transform="translate(0.0 15.49)"><g class="a13 leaf node n4 p0 sample" transform="translate(-7.5 1.21792)"><path class="edge" d="M 0 0 V -1.21792 H 7.5" /><rect class="sym" height="6" width="6" x="-3" y="-3" /><text class="lab" transform="translate(0 11)">4</text></g><g class="a13 leaf node n8 p0 sample" transform="translate(7.5 1.21792)"><path class="edge" d="M 0 0 V -1.21792 H -7.5" /><rect class="sym" height="6" width="6" x="-3" y="-3" /><text class="lab" transform="translate(0 11)">8</text></g><path class="edge" d="M 0 0 V -15.49 H 0.0" /><circle class="sym" cx="0" cy="0" r="3" /><text class="lab lft" transform="translate(-3 -7.0)">13</text></g><path class="edge" d="M 0 0 V -77.8921 H -28.8281" /><circle class="sym" cx="0" cy="0" r="3" /><text class="lab rgt" transform="translate(3 -7.0)">24</text></g><g class="a27 c2 node n26 p0" transform="translate(-28.8281 40.6161)"><g class="a26 c2 node n23 p0" transform="translate(-23.9062 45.6853)"><g class="a23 leaf node n9 p0 sample" transform="translate(14.0625 8.29863)"><path class="edge" d="M 0 0 V -8.29863 H -14.0625" /><rect class="sym" height="6" width="6" x="-3" y="-3" /><text class="lab" transform="translate(0 11)">9</text></g><g class="a23 c2 node n19 p0" transform="translate(-14.0625 1.54757)"><g class="a19 c1 node n14 p0" transform="translate(13.125 4.38209)"><g class="a14 leaf node n5 p0 sample" transform="translate(0.0 2.36898)"><path class="edge" d="M 0 0 V -2.36898 H 0.0" /><rect class="sym" height="6" width="6" x="-3" y="-3" /><text class="lab" transform="translate(0 11)">5</text></g><path class="edge" d="M 0 0 V -4.38209 H -13.125" /><circle class="sym" cx="0" cy="0" r="3" /><text class="lab rgt" transform="translate(3 -7.0)">14</text></g><g class="a19 c2 node n18 p0" transform="translate(-13.125 1.33598)"><g class="a18 c1 node n15 p0" transform="translate(11.25 2.22202)"><g class="a15 leaf node n6 p0 sample" transform="translate(0.0 3.19307)"><path class="edge" d="M 0 0 V -3.19307 H 0.0" /><rect class="sym" height="6" width="6" x="-3" y="-3" /><text class="lab" transform="translate(0 11)">6</text></g><path class="edge" d="M 0 0 V -2.22202 H -11.25" /><circle class="sym" cx="0" cy="0" r="3" /><text class="lab rgt" transform="translate(3 -7.0)">15</text></g><g class="a18 c2 node n17 p0" transform="translate(-11.25 0.0650215)"><g class="a17 leaf node n0 p0 sample" transform="translate(-7.5 5.35006)"><path class="edge" d="M 0 0 V -5.35006 H 7.5" /><rect class="sym" height="6" width="6" x="-3" y="-3" /><text class="lab" transform="translate(0 11)">0</text></g><g class="a17 leaf node n3 p0 sample" transform="translate(7.5 5.35006)"><path class="edge" d="M 0 0 V -5.35006 H -7.5" /><rect class="sym" height="6" width="6" x="-3" y="-3" /><text class="lab" transform="translate(0 11)">3</text></g><path class="edge" d="M 0 0 V -0.0650215 H 11.25" /><circle class="sym" cx="0" cy="0" r="3" /><text class="lab lft" transform="translate(-3 -7.0)">17</text></g><path class="edge" d="M 0 0 V -1.33598 H 13.125" /><circle class="sym" cx="0" cy="0" r="3" /><text class="lab lft" transform="translate(-3 -7.0)">18</text></g><path class="edge" d="M 0 0 V -1.54757 H 14.0625" /><circle class="sym" cx="0" cy="0" r="3" /><text class="lab lft" transform="translate(-3 -7.0)">19</text></g><path class="edge" d="M 0 0 V -45.6853 H 23.9062" /><circle class="sym" cx="0" cy="0" r="3" /><text class="lab lft" transform="translate(-3 -7.0)">23</text></g><g class="a26 c2 node n25 p0" transform="translate(23.9062 36.4397)"><g class="a25 c2 node n12 p0" transform="translate(-11.25 16.9816)"><g class="a12 leaf node n1 p0 sample" transform="translate(-7.5 0.562676)"><path class="edge" d="M 0 0 V -0.562676 H 7.5" /><rect class="sym" height="6" width="6" x="-3" y="-3" /><text class="lab" transform="translate(0 11)">1</text></g><g class="a12 leaf node n7 p0 sample" transform="translate(7.5 0.562676)"><path class="edge" d="M 0 0 V -0.562676 H -7.5" /><rect class="sym" height="6" width="6" x="-3" y="-3" /><text class="lab" transform="translate(0 11)">7</text></g><path class="edge" d="M 0 0 V -16.9816 H 11.25" /><circle class="sym" cx="0" cy="0" r="3" /><text class="lab lft" transform="translate(-3 -7.0)">12</text></g><g class="a25 c1 node n22 p0" transform="translate(11.25 10.2539)"><g class="a22 c1 node n10 p0" transform="translate(0.0 6.97105)"><g class="a10 leaf node n2 p0 sample" transform="translate(0.0 0.319366)"><path class="edge" d="M 0 0 V -0.319366 H 0.0" /><rect class="sym" height="6" width="6" x="-3" y="-3" /><text class="lab" transform="translate(0 11)">2</text></g><path class="edge" d="M 0 0 V -6.97105 H 0.0" /><circle class="sym" cx="0" cy="0" r="3" /><text class="lab lft" transform="translate(-3 -7.0)">10</text></g><path class="edge" d="M 0 0 V -10.2539 H -11.25" /><circle class="sym" cx="0" cy="0" r="3" /><text class="lab rgt" transform="translate(3 -7.0)">22</text></g><path class="edge" d="M 0 0 V -36.4397 H -23.9062" /><circle class="sym" cx="0" cy="0" r="3" /><text class="lab rgt" transform="translate(3 -7.0)">25</text></g><path class="edge" d="M 0 0 V -40.6161 H 28.8281" /><circle class="sym" cx="0" cy="0" r="3" /><text class="lab lft" transform="translate(-3 -7.0)">26</text></g><circle class="sym" cx="0" cy="0" r="3" /><text class="lab" transform="translate(0 -11)">27</text></g></g></g><g class="tree t1" transform="translate(210 0)"><g class="plotbox"><g class="c2 node n27 p0 root" transform="translate(119.844 26.8)"><g class="a27 c1 node n24 p0" transform="translate(35.1562 77.8921)"><g class="a24 c2 node n13 p0" transform="translate(0.0 15.49)"><g class="a13 leaf node n4 p0 sample" transform="translate(-7.5 1.21792)"><path class="edge" d="M 0 0 V -1.21792 H 7.5" /><rect class="sym" height="6" width="6" x="-3" y="-3" /><text class="lab" transform="translate(0 11)">4</text></g><g class="a13 leaf node n8 p0 sample" transform="translate(7.5 1.21792)"><path class="edge" d="M 0 0 V -1.21792 H -7.5" /><rect class="sym" height="6" width="6" x="-3" y="-3" /><text class="lab" transform="translate(0 11)">8</text></g><path class="edge" d="M 0 0 V -15.49 H 0.0" /><circle class="sym" cx="0" cy="0" r="3" /><text class="lab lft" transform="translate(-3 -7.0)">13</text></g><path class="edge" d="M 0 0 V -77.8921 H -35.1562" /><circle class="sym" cx="0" cy="0" r="3" /><text class="lab rgt" transform="translate(3 -7.0)">24</text></g><g class="a27 c2 node n26 p0" transform="translate(-35.1562 40.6161)"><g class="a26 c2 node n23 p0" transform="translate(-25.3125 45.6853)"><g class="a23 leaf node n9 p0 sample" transform="translate(13.125 8.29863)"><path class="edge" d="M 0 0 V -8.29863 H -13.125" /><rect class="sym" height="6" width="6" x="-3" y="-3" /><text class="lab" transform="translate(0 11)">9</text></g><g class="a23 c2 node n19 p0" transform="translate(-13.125 1.54757)"><g class="a19 c1 node n14 p0" transform="translate(11.25 4.38209)"><g class="a14 leaf node n5 p0 sample" transform="translate(0.0 2.36898)"><path class="edge" d="M 0 0 V -2.36898 H 0.0" /><rect class="sym" height="6" width="6" x="-3" y="-3" /><text class="lab" transform="translate(0 11)">5</text></g><path class="edge" d="M 0 0 V -4.38209 H -11.25" /><circle class="sym" cx="0" cy="0" r="3" /><text class="lab rgt" transform="translate(3 -7.0)">14</text></g><g class="a19 c1 node n18 p0" transform="translate(-11.25 1.33598)"><g class="a18 c2 node n17 p0" transform="translate(0.0 0.0650215)"><g class="a17 leaf node n0 p0 sample" transform="translate(-7.5 5.35006)"><path class="edge" d="M 0 0 V -5.35006 H 7.5" /><rect class="sym" height="6" width="6" x="-3" y="-3" /><text class="lab" transform="translate(0 11)">0</text></g><g class="a17 leaf node n3 p0 sample" transform="translate(7.5 5.35006)"><path class="edge" d="M 0 0 V -5.35006 H -7.5" /><rect class="sym" height="6" width="6" x="-3" y="-3" /><text class="lab" transform="translate(0 11)">3</text></g><path class="edge" d="M 0 0 V -0.0650215 H 0.0" /><circle class="sym" cx="0" cy="0" r="3" /><text class="lab lft" transform="translate(-3 -7.0)">17</text></g><path class="edge" d="M 0 0 V -1.33598 H 11.25" /><circle class="sym" cx="0" cy="0" r="3" /><text class="lab lft" transform="translate(-3 -7.0)">18</text></g><path class="edge" d="M 0 0 V -1.54757 H 13.125" /><circle class="sym" cx="0" cy="0" r="3" /><text class="lab lft" transform="translate(-3 -7.0)">19</text></g><path class="edge" d="M 0 0 V -45.6853 H 25.3125" /><circle class="sym" cx="0" cy="0" r="3" /><text class="lab lft" transform="translate(-3 -7.0)">23</text></g><g class="a26 c2 node n25 p0" transform="translate(25.3125 36.4397)"><g class="a25 c2 node n12 p0" transform="translate(-15 16.9816)"><g class="a12 leaf node n1 p0 sample" transform="translate(-7.5 0.562676)"><path class="edge" d="M 0 0 V -0.562676 H 7.5" /><rect class="sym" height="6" width="6" x="-3" y="-3" /><text class="lab" transform="translate(0 11)">1</text></g><g class="a12 leaf node n7 p0 sample" transform="translate(7.5 0.562676)"><path class="edge" d="M 0 0 V -0.562676 H -7.5" /><rect class="sym" height="6" width="6" x="-3" y="-3" /><text class="lab" transform="translate(0 11)">7</text></g><path class="edge" d="M 0 0 V -16.9816 H 15" /><circle class="sym" cx="0" cy="0" r="3" /><text class="lab lft" transform="translate(-3 -7.0)">12</text></g><g class="a25 c2 node n22 p0" transform="translate(15 10.2539)"><g class="a22 c1 node n10 p0" transform="translate(-7.5 6.97105)"><g class="a10 leaf node n2 p0 sample" transform="translate(0.0 0.319366)"><path class="edge" d="M 0 0 V -0.319366 H 0.0" /><rect class="sym" height="6" width="6" x="-3" y="-3" /><text class="lab" transform="translate(0 11)">2</text></g><path class="edge" d="M 0 0 V -6.97105 H 7.5" /><circle class="sym" cx="0" cy="0" r="3" /><text class="lab lft" transform="translate(-3 -7.0)">10</text></g><g class="a22 c1 node n20 p0" transform="translate(7.5 0.510731)"><g class="a20 c1 node n16 p0" transform="translate(0.0 3.58662)"><g class="a16 leaf node n6 p0 sample" transform="translate(0.0 3.19307)"><path class="edge" d="M 0 0 V -3.19307 H 0.0" /><rect class="sym" height="6" width="6" x="-3" y="-3" /><text class="lab" transform="translate(0 11)">6</text></g><path class="edge" d="M 0 0 V -3.58662 H 0.0" /><circle class="sym" cx="0" cy="0" r="3" /><text class="lab lft" transform="translate(-3 -7.0)">16</text></g><path class="edge" d="M 0 0 V -0.510731 H -7.5" /><circle class="sym" cx="0" cy="0" r="3" /><text class="lab rgt" transform="translate(3 -7.0)">20</text></g><path class="edge" d="M 0 0 V -10.2539 H -15" /><circle class="sym" cx="0" cy="0" r="3" /><text class="lab rgt" transform="translate(3 -7.0)">22</text></g><path class="edge" d="M 0 0 V -36.4397 H -25.3125" /><circle class="sym" cx="0" cy="0" r="3" /><text class="lab rgt" transform="translate(3 -7.0)">25</text></g><path class="edge" d="M 0 0 V -40.6161 H 35.1562" /><circle class="sym" cx="0" cy="0" r="3" /><text class="lab lft" transform="translate(-3 -7.0)">26</text></g><circle class="sym" cx="0" cy="0" r="3" /><text class="lab" transform="translate(0 -11)">27</text></g></g></g><g class="tree t2" transform="translate(400 0)"><g class="plotbox"><g class="c2 node n27 p0 root" transform="translate(125 26.8)"><g class="a27 c1 node n24 p0" transform="translate(30 77.8921)"><g class="a24 c2 node n13 p0" transform="translate(0.0 15.49)"><g class="a13 leaf node n4 p0 sample" transform="translate(-7.5 1.21792)"><path class="edge" d="M 0 0 V -1.21792 H 7.5" /><rect class="sym" height="6" width="6" x="-3" y="-3" /><text class="lab" transform="translate(0 11)">4</text></g><g class="a13 leaf node n8 p0 sample" transform="translate(7.5 1.21792)"><path class="edge" d="M 0 0 V -1.21792 H -7.5" /><rect class="sym" height="6" width="6" x="-3" y="-3" /><text class="lab" transform="translate(0 11)">8</text></g><path class="edge" d="M 0 0 V -15.49 H 0.0" /><circle class="sym" cx="0" cy="0" r="3" /><text class="lab lft" transform="translate(-3 -7.0)">13</text></g><path class="edge" d="M 0 0 V -77.8921 H -30" /><circle class="sym" cx="0" cy="0" r="3" /><text class="lab rgt" transform="translate(3 -7.0)">24</text></g><g class="a27 c2 node n26 p0" transform="translate(-30 40.6161)"><g class="a26 c2 node n23 p0" transform="translate(-26.25 45.6853)"><g class="a23 leaf node n9 p0 sample" transform="translate(18.75 8.29863)"><path class="edge" d="M 0 0 V -8.29863 H -18.75" /><rect class="sym" height="6" width="6" x="-3" y="-3" /><text class="lab" transform="translate(0 11)">9</text></g><g class="a23 c2 node n19 p0" transform="translate(-18.75 1.54757)"><g class="a19 c2 node n14 p0" transform="translate(15 4.38209)"><g class="a14 leaf node n5 p0 sample" transform="translate(7.5 2.36898)"><path class="edge" d="M 0 0 V -2.36898 H -7.5" /><rect class="sym" height="6" width="6" x="-3" y="-3" /><text class="lab" transform="translate(0 11)">5</text></g><g class="a14 c1 node n11 p0" transform="translate(-7.5 2.04961)"><g class="a11 leaf node n2 p0 sample" transform="translate(0.0 0.319366)"><path class="edge" d="M 0 0 V -0.319366 H 0.0" /><rect class="sym" height="6" width="6" x="-3" y="-3" /><text class="lab" transform="translate(0 11)">2</text></g><path class="edge" d="M 0 0 V -2.04961 H 7.5" /><circle class="sym" cx="0" cy="0" r="3" /><text class="lab lft" transform="translate(-3 -7.0)">11</text></g><path class="edge" d="M 0 0 V -4.38209 H -15" /><circle class="sym" cx="0" cy="0" r="3" /><text class="lab rgt" transform="translate(3 -7.0)">14</text></g><g class="a19 c1 node n18 p0" transform="translate(-15 1.33598)"><g class="a18 c2 node n17 p0" transform="translate(0.0 0.0650215)"><g class="a17 leaf node n0 p0 sample" transform="translate(-7.5 5.35006)"><path class="edge" d="M 0 0 V -5.35006 H 7.5" /><rect class="sym" height="6" width="6" x="-3" y="-3" /><text class="lab" transform="translate(0 11)">0</text></g><g class="a17 leaf node n3 p0 sample" transform="translate(7.5 5.35006)"><path class="edge" d="M 0 0 V -5.35006 H -7.5" /><rect class="sym" height="6" width="6" x="-3" y="-3" /><text class="lab" transform="translate(0 11)">3</text></g><path class="edge" d="M 0 0 V -0.0650215 H 0.0" /><circle class="sym" cx="0" cy="0" r="3" /><text class="lab lft" transform="translate(-3 -7.0)">17</text></g><path class="edge" d="M 0 0 V -1.33598 H 15" /><circle class="sym" cx="0" cy="0" r="3" /><text class="lab lft" transform="translate(-3 -7.0)">18</text></g><path class="edge" d="M 0 0 V -1.54757 H 18.75" /><circle class="sym" cx="0" cy="0" r="3" /><text class="lab lft" transform="translate(-3 -7.0)">19</text></g><path class="edge" d="M 0 0 V -45.6853 H 26.25" /><circle class="sym" cx="0" cy="0" r="3" /><text class="lab lft" transform="translate(-3 -7.0)">23</text></g><g class="a26 c2 node n25 p0" transform="translate(26.25 36.4397)"><g class="a25 c2 node n12 p0" transform="translate(-11.25 16.9816)"><g class="a12 leaf node n1 p0 sample" transform="translate(-7.5 0.562676)"><path class="edge" d="M 0 0 V -0.562676 H 7.5" /><rect class="sym" height="6" width="6" x="-3" y="-3" /><text class="lab" transform="translate(0 11)">1</text></g><g class="a12 leaf node n7 p0 sample" transform="translate(7.5 0.562676)"><path class="edge" d="M 0 0 V -0.562676 H -7.5" /><rect class="sym" height="6" width="6" x="-3" y="-3" /><text class="lab" transform="translate(0 11)">7</text></g><path class="edge" d="M 0 0 V -16.9816 H 11.25" /><circle class="sym" cx="0" cy="0" r="3" /><text class="lab lft" transform="translate(-3 -7.0)">12</text></g><g class="a25 c1 node n22 p0" transform="translate(11.25 10.2539)"><g class="a22 c1 node n20 p0" transform="translate(0.0 0.510731)"><g class="a20 c1 node n16 p0" transform="translate(0.0 3.58662)"><g class="a16 leaf node n6 p0 sample" transform="translate(0.0 3.19307)"><path class="edge" d="M 0 0 V -3.19307 H 0.0" /><rect class="sym" height="6" width="6" x="-3" y="-3" /><text class="lab" transform="translate(0 11)">6</text></g><path class="edge" d="M 0 0 V -3.58662 H 0.0" /><circle class="sym" cx="0" cy="0" r="3" /><text class="lab lft" transform="translate(-3 -7.0)">16</text></g><path class="edge" d="M 0 0 V -0.510731 H 0.0" /><circle class="sym" cx="0" cy="0" r="3" /><text class="lab lft" transform="translate(-3 -7.0)">20</text></g><path class="edge" d="M 0 0 V -10.2539 H -11.25" /><circle class="sym" cx="0" cy="0" r="3" /><text class="lab rgt" transform="translate(3 -7.0)">22</text></g><path class="edge" d="M 0 0 V -36.4397 H -26.25" /><circle class="sym" cx="0" cy="0" r="3" /><text class="lab rgt" transform="translate(3 -7.0)">25</text></g><path class="edge" d="M 0 0 V -40.6161 H 30" /><circle class="sym" cx="0" cy="0" r="3" /><text class="lab lft" transform="translate(-3 -7.0)">26</text></g><circle class="sym" cx="0" cy="0" r="3" /><text class="lab" transform="translate(0 -11)">27</text></g></g></g><g class="tree t3" transform="translate(590 0)"><g class="plotbox"><g class="c2 node n27 p0 root" transform="translate(120.312 26.8)"><g class="a27 c2 node n24 p0" transform="translate(30.9375 77.8921)"><g class="a24 c2 node n13 p0" transform="translate(-11.25 15.49)"><g class="a13 leaf node n4 p0 sample" transform="translate(-7.5 1.21792)"><path class="edge" d="M 0 0 V -1.21792 H 7.5" /><rect class="sym" height="6" width="6" x="-3" y="-3" /><text class="lab" transform="translate(0 11)">4</text></g><g class="a13 leaf node n8 p0 sample" transform="translate(7.5 1.21792)"><path class="edge" d="M 0 0 V -1.21792 H -7.5" /><rect class="sym" height="6" width="6" x="-3" y="-3" /><text class="lab" transform="translate(0 11)">8</text></g><path class="edge" d="M 0 0 V -15.49 H 11.25" /><circle class="sym" cx="0" cy="0" r="3" /><text class="lab lft" transform="translate(-3 -7.0)">13</text></g><g class="a24 c1 node n21 p0" transform="translate(11.25 9.92818)"><g class="a21 c1 node n16 p0" transform="translate(0.0 3.58662)"><g class="a16 leaf node n6 p0 sample" transform="translate(0.0 3.19307)"><path class="edge" d="M 0 0 V -3.19307 H 0.0" /><rect class="sym" height="6" width="6" x="-3" y="-3" /><text class="lab" transform="translate(0 11)">6</text></g><path class="edge" d="M 0 0 V -3.58662 H 0.0" /><circle class="sym" cx="0" cy="0" r="3" /><text class="lab lft" transform="translate(-3 -7.0)">16</text></g><path class="edge" d="M 0 0 V -9.92818 H -11.25" /><circle class="sym" cx="0" cy="0" r="3" /><text class="lab rgt" transform="translate(3 -7.0)">21</text></g><path class="edge" d="M 0 0 V -77.8921 H -30.9375" /><circle class="sym" cx="0" cy="0" r="3" /><text class="lab rgt" transform="translate(3 -7.0)">24</text></g><g class="a27 c2 node n26 p0" transform="translate(-30.9375 40.6161)"><g class="a26 c2 node n23 p0" transform="translate(-20.625 45.6853)"><g class="a23 leaf node n9 p0 sample" transform="translate(18.75 8.29863)"><path class="edge" d="M 0 0 V -8.29863 H -18.75" /><rect class="sym" height="6" width="6" x="-3" y="-3" /><text class="lab" transform="translate(0 11)">9</text></g><g class="a23 c2 node n19 p0" transform="translate(-18.75 1.54757)"><g class="a19 c2 node n14 p0" transform="translate(15 4.38209)"><g class="a14 leaf node n5 p0 sample" transform="translate(7.5 2.36898)"><path class="edge" d="M 0 0 V -2.36898 H -7.5" /><rect class="sym" height="6" width="6" x="-3" y="-3" /><text class="lab" transform="translate(0 11)">5</text></g><g class="a14 c1 node n11 p0" transform="translate(-7.5 2.04961)"><g class="a11 leaf node n2 p0 sample" transform="translate(0.0 0.319366)"><path class="edge" d="M 0 0 V -0.319366 H 0.0" /><rect class="sym" height="6" width="6" x="-3" y="-3" /><text class="lab" transform="translate(0 11)">2</text></g><path class="edge" d="M 0 0 V -2.04961 H 7.5" /><circle class="sym" cx="0" cy="0" r="3" /><text class="lab lft" transform="translate(-3 -7.0)">11</text></g><path class="edge" d="M 0 0 V -4.38209 H -15" /><circle class="sym" cx="0" cy="0" r="3" /><text class="lab rgt" transform="translate(3 -7.0)">14</text></g><g class="a19 c1 node n18 p0" transform="translate(-15 1.33598)"><g class="a18 c2 node n17 p0" transform="translate(0.0 0.0650215)"><g class="a17 leaf node n0 p0 sample" transform="translate(-7.5 5.35006)"><path class="edge" d="M 0 0 V -5.35006 H 7.5" /><rect class="sym" height="6" width="6" x="-3" y="-3" /><text class="lab" transform="translate(0 11)">0</text></g><g class="a17 leaf node n3 p0 sample" transform="translate(7.5 5.35006)"><path class="edge" d="M 0 0 V -5.35006 H -7.5" /><rect class="sym" height="6" width="6" x="-3" y="-3" /><text class="lab" transform="translate(0 11)">3</text></g><path class="edge" d="M 0 0 V -0.0650215 H 0.0" /><circle class="sym" cx="0" cy="0" r="3" /><text class="lab lft" transform="translate(-3 -7.0)">17</text></g><path class="edge" d="M 0 0 V -1.33598 H 15" /><circle class="sym" cx="0" cy="0" r="3" /><text class="lab lft" transform="translate(-3 -7.0)">18</text></g><path class="edge" d="M 0 0 V -1.54757 H 18.75" /><circle class="sym" cx="0" cy="0" r="3" /><text class="lab lft" transform="translate(-3 -7.0)">19</text></g><path class="edge" d="M 0 0 V -45.6853 H 20.625" /><circle class="sym" cx="0" cy="0" r="3" /><text class="lab lft" transform="translate(-3 -7.0)">23</text></g><g class="a26 c1 node n25 p0" transform="translate(20.625 36.4397)"><g class="a25 c2 node n12 p0" transform="translate(0.0 16.9816)"><g class="a12 leaf node n1 p0 sample" transform="translate(-7.5 0.562676)"><path class="edge" d="M 0 0 V -0.562676 H 7.5" /><rect class="sym" height="6" width="6" x="-3" y="-3" /><text class="lab" transform="translate(0 11)">1</text></g><g class="a12 leaf node n7 p0 sample" transform="translate(7.5 0.562676)"><path class="edge" d="M 0 0 V -0.562676 H -7.5" /><rect class="sym" height="6" width="6" x="-3" y="-3" /><text class="lab" transform="translate(0 11)">7</text></g><path class="edge" d="M 0 0 V -16.9816 H 0.0" /><circle class="sym" cx="0" cy="0" r="3" /><text class="lab lft" transform="translate(-3 -7.0)">12</text></g><path class="edge" d="M 0 0 V -36.4397 H -20.625" /><circle class="sym" cx="0" cy="0" r="3" /><text class="lab rgt" transform="translate(3 -7.0)">25</text></g><path class="edge" d="M 0 0 V -40.6161 H 30.9375" /><circle class="sym" cx="0" cy="0" r="3" /><text class="lab lft" transform="translate(-3 -7.0)">26</text></g><circle class="sym" cx="0" cy="0" r="3" /><text class="lab" transform="translate(0 -11)">27</text></g></g></g></g></g></svg>
