<svg baseProfile="full" height="200" version="1.1" width="600" xmlns="http://www.w3.org/2000/svg" xmlns:ev="http://www.w3.org/2001/xml-events" xmlns:xlink="http://www.w3.org/1999/xlink"><defs><style type="text/css"><![CDATA[.background path {fill: #808080; fill-opacity: 0}.background path:nth-child(odd) {fill-opacity: .1}.axes {font-size: 14px}.x-axis .tick .lab {font-weight: bold; dominant-baseline: hanging}.axes, .tree {font-size: 14px; text-anchor: middle}.axes line, .edge {stroke: black; fill: none}.y-axis .grid {stroke: #FAFAFA}.node > .sym {fill: black; stroke: none}.site > .sym {stroke: black}.mut text {fill: red; font-style: italic}.mut.extra text {fill: hotpink}.mut line {fill: none; stroke: none}.mut .sym {fill: none; stroke: red}.mut.extra .sym {stroke: hotpink}.node .mut .sym {stroke-width: 1.5px}.tree text, .tree-sequence text {dominant-baseline: central}.plotbox .lab.lft {text-anchor: end}.plotbox .lab.rgt {text-anchor: start}]]></style></defs><g class="tree-sequence"><g class="background"><path d="M20,0 l186.667,0 l0,138.2 l21.8854,25 l0,5 l-208.552,0 l0,-5 l0,-25 l0,-138.2z" /><path d="M206.667,0 l186.667,0 l0,138.2 l-34.2087,25 l0,5 l-130.573,0 l0,-5 l-21.8854,-25 l0,-138.2z" /><path d="M393.333,0 l186.667,0 l0,138.2 l0,25 l0,5 l-220.875,0 l0,-5 l34.2087,-25 l0,-138.2z" /></g><g class="axes"><g class="x-axis"><g transform="translate(300 200)"><text class="lab" text-anchor="middle" transform="translate(0 -11)">Genome position</text></g><line x1="20" x2="580" y1="163.2" y2="163.2" /><g class="ticks"><g class="tick" transform="translate(20 163.2)"><line x1="0" x2="0" y1="0" y2="5" /><g transform="translate(0 6)"><text class="lab">0.00</text></g></g><g class="tick" transform="translate(228.552 163.2)"><line x1="0" x2="0" y1="0" y2="5" /><g transform="translate(0 6)"><text class="lab">372.41</text></g></g><g class="tick" transform="translate(359.125 163.2)"><line x1="0" x2="0" y1="0" y2="5" /><g transform="translate(0 6)"><text class="lab">605.58</text></g></g><g class="tick" transform="translate(580 163.2)"><line x1="0" x2="0" y1="0" y2="5" /><g transform="translate(0 6)"><text class="lab">1000.00</text></g></g></g></g></g><g class="plotbox trees"><g class="tree t0" transform="translate(20 0)"><g class="plotbox"><g class="c2 node n24 p0 root" transform="translate(113.958 26.8)"><g class="a24 c2 node n20 p0" transform="translate(38.0417 60.8005)"><g class="a20 leaf node n5 p0 sample" transform="translate(-7.33333 33.7995)"><path class="edge" d="M 0 0 V -33.7995 H 7.33333" /><rect class="sym" height="6" width="6" x="-3" y="-3" /><text class="lab" transform="translate(0 11)">5</text></g><g class="a20 c1 node n14 p0" transform="translate(7.33333 20.9884)"><g class="a14 leaf node n9 p0 sample" transform="translate(0.0 12.8111)"><path class="edge" d="M 0 0 V -12.8111 H 0.0" /><rect class="sym" height="6" width="6" x="-3" y="-3" /><text class="lab" transform="translate(0 11)">9</text></g><path class="edge" d="M 0 0 V -20.9884 H -7.33333" /><circle class="sym" cx="0" cy="0" r="3" /><text class="lab rgt" transform="translate(3 -7.0)">14</text></g><path class="edge" d="M 0 0 V -60.8005 H -38.0417" /><circle class="sym" cx="0" cy="0" r="3" /><text class="lab rgt" transform="translate(3 -7.0)">20</text></g><g class="a24 c2 node n23 p0" transform="translate(-38.0417 23.4883)"><g class="a23 c1 node n18 p0" transform="translate(-30.25 52.4649)"><g class="a18 c2 node n17 p0" transform="translate(0.0 0.638141)"><g class="a17 leaf node n6 p0 sample" transform="translate(11 18.0087)"><path class="edge" d="M 0 0 V -18.0087 H -11" /><rect class="sym" height="6" width="6" x="-3" y="-3" /><text class="lab" transform="translate(0 11)">6</text></g><g class="a17 c2 node n10 p0" transform="translate(-11 17.0437)"><g class="a10 leaf node n0 p0 sample" transform="translate(-7.33333 0.964942)"><path class="edge" d="M 0 0 V -0.964942 H 7.33333" /><rect class="sym" height="6" width="6" x="-3" y="-3" /><text class="lab" transform="translate(0 11)">0</text></g><g class="a10 leaf node n2 p0 sample" transform="translate(7.33333 0.964942)"><path class="edge" d="M 0 0 V -0.964942 H -7.33333" /><rect class="sym" height="6" width="6" x="-3" y="-3" /><text class="lab" transform="translate(0 11)">2</text></g><path class="edge" d="M 0 0 V -17.0437 H 11" /><circle class="sym" cx="0" cy="0" r="3" /><text class="lab lft" transform="translate(-3 -7.0)">10</text></g><path class="edge" d="M 0 0 V -0.638141 H 0.0" /><circle class="sym" cx="0" cy="0" r="3" /><text class="lab lft" transform="translate(-3 -7.0)">17</text></g><path class="edge" d="M 0 0 V -52.4649 H 30.25" /><circle class="sym" cx="0" cy="0" r="3" /><text class="lab lft" transform="translate(-3 -7.0)">18</text></g><g class="a23 c2 node n22 p0" transform="translate(30.25 18.5571)"><g class="a22 c2 node n19 p0" transform="translate(-16.5 19.7032)"><g class="a19 leaf node n7 p0 sample" transform="translate(11 32.8514)"><path class="edge" d="M 0 0 V -32.8514 H -11" /><rect class="sym" height="6" width="6" x="-3" y="-3" /><text class="lab" transform="translate(0 11)">7</text></g><g class="a19 c2 node n11 p0" transform="translate(-11 30.5942)"><g class="a11 leaf node n1 p0 sample" transform="translate(-7.33333 2.2572)"><path class="edge" d="M 0 0 V -2.2572 H 7.33333" /><rect class="sym" height="6" width="6" x="-3" y="-3" /><text class="lab" transform="translate(0 11)">1</text></g><g class="a11 leaf node n3 p0 sample" transform="translate(7.33333 2.2572)"><path class="edge" d="M 0 0 V -2.2572 H -7.33333" /><rect class="sym" height="6" width="6" x="-3" y="-3" /><text class="lab" transform="translate(0 11)">3</text></g><path class="edge" d="M 0 0 V -30.5942 H 11" /><circle class="sym" cx="0" cy="0" r="3" /><text class="lab lft" transform="translate(-3 -7.0)">11</text></g><path class="edge" d="M 0 0 V -19.7032 H 16.5" /><circle class="sym" cx="0" cy="0" r="3" /><text class="lab lft" transform="translate(-3 -7.0)">19</text></g><g class="a22 c2 node n21 p0" transform="translate(16.5 6.29764)"><g class="a21 c1 node n12 p0" transform="translate(7.33333 39.2042)"><g class="a12 leaf node n8 p0 sample" transform="translate(0.0 7.05276)"><path class="edge" d="M 0 0 V -7.05276 H 0.0" /><rect class="sym" height="6" width="6" x="-3" y="-3" /><text class="lab" transform="translate(0 11)">8</text></g><path class="edge" d="M 0 0 V -39.2042 H -7.33333" /><circle class="sym" cx="0" cy="0" r="3" /><text class="lab rgt" transform="translate(3 -7.0)">12</text></g><g class="a21 c1 node n15 p0" transform="translate(-7.33333 33.1778)"><g class="a15 leaf node n4 p0 sample" transform="translate(0.0 13.0791)"><path class="edge" d="M 0 0 V -13.0791 H 0.0" /><rect class="sym" height="6" width="6" x="-3" y="-3" /><text class="lab" transform="translate(0 11)">4</text></g><path class="edge" d="M 0 0 V -33.1778 H 7.33333" /><circle class="sym" cx="0" cy="0" r="3" /><text class="lab lft" transform="translate(-3 -7.0)">15</text></g><path class="edge" d="M 0 0 V -6.29764 H -16.5" /><circle class="sym" cx="0" cy="0" r="3" /><text class="lab rgt" transform="translate(3 -7.0)">21</text></g><path class="edge" d="M 0 0 V -18.5571 H -30.25" /><circle class="sym" cx="0" cy="0" r="3" /><text class="lab rgt" transform="translate(3 -7.0)">22</text></g><path class="edge" d="M 0 0 V -23.4883 H 38.0417" /><circle class="sym" cx="0" cy="0" r="3" /><text class="lab lft" transform="translate(-3 -7.0)">23</text></g><circle class="sym" cx="0" cy="0" r="3" /><text class="lab" transform="translate(0 -11)">24</text></g></g></g><g class="tree t1" transform="translate(206.667 0)"><g class="plotbox"><g class="c2 node n24 p0 root" transform="translate(107.542 26.8)"><g class="a24 c2 node n20 p0" transform="translate(33.4583 60.8005)"><g class="a20 leaf node n5 p0 sample" transform="translate(-11 33.7995)"><path class="edge" d="M 0 0 V -33.7995 H 11" /><rect class="sym" height="6" width="6" x="-3" y="-3" /><text class="lab" transform="translate(0 11)">5</text></g><g class="a20 c2 node n14 p0" transform="translate(11 20.9884)"><g class="a14 leaf node n9 p0 sample" transform="translate(7.33333 12.8111)"><path class="edge" d="M 0 0 V -12.8111 H -7.33333" /><rect class="sym" height="6" width="6" x="-3" y="-3" /><text class="lab" transform="translate(0 11)">9</text></g><g class="a14 c1 node n13 p0" transform="translate(-7.33333 5.75831)"><g class="a13 leaf node n8 p0 sample" transform="translate(0.0 7.05276)"><path class="edge" d="M 0 0 V -7.05276 H 0.0" /><rect class="sym" height="6" width="6" x="-3" y="-3" /><text class="lab" transform="translate(0 11)">8</text></g><path class="edge" d="M 0 0 V -5.75831 H 7.33333" /><circle class="sym" cx="0" cy="0" r="3" /><text class="lab lft" transform="translate(-3 -7.0)">13</text></g><path class="edge" d="M 0 0 V -20.9884 H -11" /><circle class="sym" cx="0" cy="0" r="3" /><text class="lab rgt" transform="translate(3 -7.0)">14</text></g><path class="edge" d="M 0 0 V -60.8005 H -33.4583" /><circle class="sym" cx="0" cy="0" r="3" /><text class="lab rgt" transform="translate(3 -7.0)">20</text></g><g class="a24 c2 node n23 p0" transform="translate(-33.4583 23.4883)"><g class="a23 c1 node n18 p0" transform="translate(-28.4167 52.4649)"><g class="a18 c2 node n17 p0" transform="translate(0.0 0.638141)"><g class="a17 leaf node n6 p0 sample" transform="translate(11 18.0087)"><path class="edge" d="M 0 0 V -18.0087 H -11" /><rect class="sym" height="6" width="6" x="-3" y="-3" /><text class="lab" transform="translate(0 11)">6</text></g><g class="a17 c2 node n10 p0" transform="translate(-11 17.0437)"><g class="a10 leaf node n0 p0 sample" transform="translate(-7.33333 0.964942)"><path class="edge" d="M 0 0 V -0.964942 H 7.33333" /><rect class="sym" height="6" width="6" x="-3" y="-3" /><text class="lab" transform="translate(0 11)">0</text></g><g class="a10 leaf node n2 p0 sample" transform="translate(7.33333 0.964942)"><path class="edge" d="M 0 0 V -0.964942 H -7.33333" /><rect class="sym" height="6" width="6" x="-3" y="-3" /><text class="lab" transform="translate(0 11)">2</text></g><path class="edge" d="M 0 0 V -17.0437 H 11" /><circle class="sym" cx="0" cy="0" r="3" /><text class="lab lft" transform="translate(-3 -7.0)">10</text></g><path class="edge" d="M 0 0 V -0.638141 H 0.0" /><circle class="sym" cx="0" cy="0" r="3" /><text class="lab lft" transform="translate(-3 -7.0)">17</text></g><path class="edge" d="M 0 0 V -52.4649 H 28.4167" /><circle class="sym" cx="0" cy="0" r="3" /><text class="lab lft" transform="translate(-3 -7.0)">18</text></g><g class="a23 c2 node n22 p0" transform="translate(28.4167 18.5571)"><g class="a22 c2 node n19 p0" transform="translate(-12.8333 19.7032)"><g class="a19 leaf node n7 p0 sample" transform="translate(11 32.8514)"><path class="edge" d="M 0 0 V -32.8514 H -11" /><rect class="sym" height="6" width="6" x="-3" y="-3" /><text class="lab" transform="translate(0 11)">7</text></g><g class="a19 c2 node n11 p0" transform="translate(-11 30.5942)"><g class="a11 leaf node n1 p0 sample" transform="translate(-7.33333 2.2572)"><path class="edge" d="M 0 0 V -2.2572 H 7.33333" /><rect class="sym" height="6" width="6" x="-3" y="-3" /><text class="lab" transform="translate(0 11)">1</text></g><g class="a11 leaf node n3 p0 sample" transform="translate(7.33333 2.2572)"><path class="edge" d="M 0 0 V -2.2572 H -7.33333" /><rect class="sym" height="6" width="6" x="-3" y="-3" /><text class="lab" transform="translate(0 11)">3</text></g><path class="edge" d="M 0 0 V -30.5942 H 11" /><circle class="sym" cx="0" cy="0" r="3" /><text class="lab lft" transform="translate(-3 -7.0)">11</text></g><path class="edge" d="M 0 0 V -19.7032 H 12.8333" /><circle class="sym" cx="0" cy="0" r="3" /><text class="lab lft" transform="translate(-3 -7.0)">19</text></g><g class="a22 c1 node n21 p0" transform="translate(12.8333 6.29764)"><g class="a21 c1 node n15 p0" transform="translate(0.0 33.1778)"><g class="a15 leaf node n4 p0 sample" transform="translate(0.0 13.0791)"><path class="edge" d="M 0 0 V -13.0791 H 0.0" /><rect class="sym" height="6" width="6" x="-3" y="-3" /><text class="lab" transform="translate(0 11)">4</text></g><path class="edge" d="M 0 0 V -33.1778 H 0.0" /><circle class="sym" cx="0" cy="0" r="3" /><text class="lab lft" transform="translate(-3 -7.0)">15</text></g><path class="edge" d="M 0 0 V -6.29764 H -12.8333" /><circle class="sym" cx="0" cy="0" r="3" /><text class="lab rgt" transform="translate(3 -7.0)">21</text></g><path class="edge" d="M 0 0 V -18.5571 H -28.4167" /><circle class="sym" cx="0" cy="0" r="3" /><text class="lab rgt" transform="translate(3 -7.0)">22</text></g><path class="edge" d="M 0 0 V -23.4883 H 33.4583" /><circle class="sym" cx="0" cy="0" r="3" /><text class="lab lft" transform="translate(-3 -7.0)">23</text></g><circle class="sym" cx="0" cy="0" r="3" /><text class="lab" transform="translate(0 -11)">24</text></g></g></g><g class="tree t2" transform="translate(393.333 0)"><g class="plotbox"><g class="c2 node n24 p0 root" transform="translate(111.208 26.8)"><g class="a24 c2 node n20 p0" transform="translate(29.7917 60.8005)"><g class="a20 leaf node n5 p0 sample" transform="translate(-11 33.7995)"><path class="edge" d="M 0 0 V -33.7995 H 11" /><rect class="sym" height="6" width="6" x="-3" y="-3" /><text class="lab" transform="translate(0 11)">5</text></g><g class="a20 c2 node n14 p0" transform="translate(11 20.9884)"><g class="a14 leaf node n9 p0 sample" transform="translate(7.33333 12.8111)"><path class="edge" d="M 0 0 V -12.8111 H -7.33333" /><rect class="sym" height="6" width="6" x="-3" y="-3" /><text class="lab" transform="translate(0 11)">9</text></g><g class="a14 c1 node n13 p0" transform="translate(-7.33333 5.75831)"><g class="a13 leaf node n8 p0 sample" transform="translate(0.0 7.05276)"><path class="edge" d="M 0 0 V -7.05276 H 0.0" /><rect class="sym" height="6" width="6" x="-3" y="-3" /><text class="lab" transform="translate(0 11)">8</text></g><path class="edge" d="M 0 0 V -5.75831 H 7.33333" /><circle class="sym" cx="0" cy="0" r="3" /><text class="lab lft" transform="translate(-3 -7.0)">13</text></g><path class="edge" d="M 0 0 V -20.9884 H -11" /><circle class="sym" cx="0" cy="0" r="3" /><text class="lab rgt" transform="translate(3 -7.0)">14</text></g><path class="edge" d="M 0 0 V -60.8005 H -29.7917" /><circle class="sym" cx="0" cy="0" r="3" /><text class="lab rgt" transform="translate(3 -7.0)">20</text></g><g class="a24 c2 node n23 p0" transform="translate(-29.7917 23.4883)"><g class="a23 c2 node n18 p0" transform="translate(-22.9167 52.4649)"><g class="a18 c2 node n17 p0" transform="translate(-12.8333 0.638141)"><g class="a17 leaf node n6 p0 sample" transform="translate(11 18.0087)"><path class="edge" d="M 0 0 V -18.0087 H -11" /><rect class="sym" height="6" width="6" x="-3" y="-3" /><text class="lab" transform="translate(0 11)">6</text></g><g class="a17 c2 node n10 p0" transform="translate(-11 17.0437)"><g class="a10 leaf node n0 p0 sample" transform="translate(-7.33333 0.964942)"><path class="edge" d="M 0 0 V -0.964942 H 7.33333" /><rect class="sym" height="6" width="6" x="-3" y="-3" /><text class="lab" transform="translate(0 11)">0</text></g><g class="a10 leaf node n2 p0 sample" transform="translate(7.33333 0.964942)"><path class="edge" d="M 0 0 V -0.964942 H -7.33333" /><rect class="sym" height="6" width="6" x="-3" y="-3" /><text class="lab" transform="translate(0 11)">2</text></g><path class="edge" d="M 0 0 V -17.0437 H 11" /><circle class="sym" cx="0" cy="0" r="3" /><text class="lab lft" transform="translate(-3 -7.0)">10</text></g><path class="edge" d="M 0 0 V -0.638141 H 12.8333" /><circle class="sym" cx="0" cy="0" r="3" /><text class="lab lft" transform="translate(-3 -7.0)">17</text></g><g class="a18 c1 node n16 p0" transform="translate(12.8333 5.56772)"><g class="a16 leaf node n4 p0 sample" transform="translate(0.0 13.0791)"><path class="edge" d="M 0 0 V -13.0791 H 0.0" /><rect class="sym" height="6" width="6" x="-3" y="-3" /><text class="lab" transform="translate(0 11)">4</text></g><path class="edge" d="M 0 0 V -5.56772 H -12.8333" /><circle class="sym" cx="0" cy="0" r="3" /><text class="lab rgt" transform="translate(3 -7.0)">16</text></g><path class="edge" d="M 0 0 V -52.4649 H 22.9167" /><circle class="sym" cx="0" cy="0" r="3" /><text class="lab lft" transform="translate(-3 -7.0)">18</text></g><g class="a23 c1 node n22 p0" transform="translate(22.9167 18.5571)"><g class="a22 c2 node n19 p0" transform="translate(0.0 19.7032)"><g class="a19 leaf node n7 p0 sample" transform="translate(11 32.8514)"><path class="edge" d="M 0 0 V -32.8514 H -11" /><rect class="sym" height="6" width="6" x="-3" y="-3" /><text class="lab" transform="translate(0 11)">7</text></g><g class="a19 c2 node n11 p0" transform="translate(-11 30.5942)"><g class="a11 leaf node n1 p0 sample" transform="translate(-7.33333 2.2572)"><path class="edge" d="M 0 0 V -2.2572 H 7.33333" /><rect class="sym" height="6" width="6" x="-3" y="-3" /><text class="lab" transform="translate(0 11)">1</text></g><g class="a11 leaf node n3 p0 sample" transform="translate(7.33333 2.2572)"><path class="edge" d="M 0 0 V -2.2572 H -7.33333" /><rect class="sym" height="6" width="6" x="-3" y="-3" /><text class="lab" transform="translate(0 11)">3</text></g><path class="edge" d="M 0 0 V -30.5942 H 11" /><circle class="sym" cx="0" cy="0" r="3" /><text class="lab lft" transform="translate(-3 -7.0)">11</text></g><path class="edge" d="M 0 0 V -19.7032 H 0.0" /><circle class="sym" cx="0" cy="0" r="3" /><text class="lab lft" transform="translate(-3 -7.0)">19</text></g><path class="edge" d="M 0 0 V -18.5571 H -22.9167" /><circle class="sym" cx="0" cy="0" r="3" /><text class="lab rgt" transform="translate(3 -7.0)">22</text></g><path class="edge" d="M 0 0 V -23.4883 H 29.7917" /><circle class="sym" cx="0" cy="0" r="3" /><text class="lab lft" transform="translate(-3 -7.0)">23</text></g><circle class="sym" cx="0" cy="0" r="3" /><text class="lab" transform="translate(0 -11)">24</text></g></g></g></g></g></svg>
