<svg baseProfile="full" height="200" version="1.1" width="800" xmlns="http://www.w3.org/2000/svg" xmlns:ev="http://www.w3.org/2001/xml-events" xmlns:xlink="http://www.w3.org/1999/xlink"><defs><style type="text/css"><![CDATA[.background path {fill: #808080; fill-opacity: 0}.background path:nth-child(odd) {fill-opacity: .1}.axes {font-size: 14px}.x-axis .tick .lab {font-weight: bold; dominant-baseline: hanging}.axes, .tree {font-size: 14px; text-anchor: middle}.axes line, .edge {stroke: black; fill: none}.y-axis .grid {stroke: #FAFAFA}.node > .sym {fill: black; stroke: none}.site > .sym {stroke: black}.mut text {fill: red; font-style: italic}.mut.extra text {fill: hotpink}.mut line {fill: none; stroke: none}.mut .sym {fill: none; stroke: red}.mut.extra .sym {stroke: hotpink}.node .mut .sym {stroke-width: 1.5px}.tree text, .tree-sequence text {dominant-baseline: central}.plotbox .lab.lft {text-anchor: end}.plotbox .lab.rgt {text-anchor: start}]]></style></defs><g class="tree-sequence"><g class="background"><path d="M20,0 l190,0 l0,138.2 l223.24,25 l0,5 l-413.24,0 l0,-5 l0,-25 l0,-138.2z" /><path d="M210,0 l190,0 l0,138.2 l50.0369,25 l0,5 l-16.7974,0 l0,-5 l-223.24,-25 l0,-138.2z" /><path d="M400,0 l190,0 l0,138.2 l169.519,25 l0,5 l-309.482,0 l0,-5 l-50.0369,-25 l0,-138.2z" /><path d="M590,0 l190,0 l0,138.2 l0,25 l0,5 l-20.4814,0 l0,-5 l-169.519,-25 l0,-138.2z" /></g><g class="axes"><g class="x-axis"><g transform="translate(400 200)"><text class="lab" text-anchor="middle" transform="translate(0 -11)">Genome position</text></g><line x1="20" x2="780" y1="163.2" y2="163.2" /><g class="ticks"><g class="tick" transform="translate(20 163.2)"><line x1="0" x2="0" y1="0" y2="5" /><g transform="translate(0 6)"><text class="lab">0.00</text></g></g><g class="tick" transform="translate(433.24 163.2)"><line x1="0" x2="0" y1="0" y2="5" /><g transform="translate(0 6)"><text class="lab">543.74</text></g></g><g class="tick" transform="translate(450.037 163.2)"><line x1="0" x2="0" y1="0" y2="5" /><g transform="translate(0 6)"><text class="lab">565.84</text></g></g><g class="tick" transform="translate(759.519 163.2)"><line x1="0" x2="0" y1="0" y2="5" /><g transform="translate(0 6)"><text class="lab">973.05</text></g></g><g class="tick" transform="translate(780 163.2)"><line x1="0" x2="0" y1="0" y2="5" /><g transform="translate(0 6)"><text class="lab">1000.00</text></g></g></g></g></g><g class="plotbox trees"><g class="tree t0" transform="translate(20 0)"><g class="plotbox"><g class="c2 node n27 p0 root" transform="translate(126.875 26.8)"><g class="a27 c1 node n25 p0" transform="translate(35.625 43.394)"><g class="a25 leaf node n3 p0 sample" transform="translate(0.0 51.206)"><path class="edge" d="M 0 0 V -51.206 H 0.0" /><rect class="sym" height="6" width="6" x="-3" y="-3" /><text class="lab" transform="translate(0 11)">3</text></g><path class="edge" d="M 0 0 V -43.394 H -35.625" /><circle class="sym" cx="0" cy="0" r="3" /><text class="lab rgt" transform="translate(3 -7.0)">25</text></g><g class="a27 c2 node n26 p0" transform="translate(-35.625 34.6842)"><g class="a26 c2 node n23 p0" transform="translate(-31.875 27.929)"><g class="a23 c1 node n16 p0" transform="translate(13.125 18.1214)"><g class="a16 leaf node n2 p0 sample" transform="translate(0.0 13.8653)"><path class="edge" d="M 0 0 V -13.8653 H 0.0" /><rect class="sym" height="6" width="6" x="-3" y="-3" /><text class="lab" transform="translate(0 11)">2</text></g><path class="edge" d="M 0 0 V -18.1214 H -13.125" /><circle class="sym" cx="0" cy="0" r="3" /><text class="lab rgt" transform="translate(3 -7.0)">16</text></g><g class="a23 c1 node n20 p0" transform="translate(-13.125 5.00068)"><g class="a20 c2 node n15 p0" transform="translate(0.0 13.9047)"><g class="a15 leaf node n5 p0 sample" transform="translate(11.25 13.0813)"><path class="edge" d="M 0 0 V -13.0813 H -11.25" /><rect class="sym" height="6" width="6" x="-3" y="-3" /><text class="lab" transform="translate(0 11)">5</text></g><g class="a15 c2 node n14 p0" transform="translate(-11.25 0.0713154)"><g class="a14 leaf node n0 p0 sample" transform="translate(-7.5 13.01)"><path class="edge" d="M 0 0 V -13.01 H 7.5" /><rect class="sym" height="6" width="6" x="-3" y="-3" /><text class="lab" transform="translate(0 11)">0</text></g><g class="a14 c1 node n12 p0" transform="translate(7.5 6.4565)"><g class="a12 leaf node n7 p0 sample" transform="translate(0.0 6.55349)"><path class="edge" d="M 0 0 V -6.55349 H 0.0" /><rect class="sym" height="6" width="6" x="-3" y="-3" /><text class="lab" transform="translate(0 11)">7</text></g><path class="edge" d="M 0 0 V -6.4565 H -7.5" /><circle class="sym" cx="0" cy="0" r="3" /><text class="lab rgt" transform="translate(3 -7.0)">12</text></g><path class="edge" d="M 0 0 V -0.0713154 H 11.25" /><circle class="sym" cx="0" cy="0" r="3" /><text class="lab lft" transform="translate(-3 -7.0)">14</text></g><path class="edge" d="M 0 0 V -13.9047 H 0.0" /><circle class="sym" cx="0" cy="0" r="3" /><text class="lab lft" transform="translate(-3 -7.0)">15</text></g><path class="edge" d="M 0 0 V -5.00068 H 13.125" /><circle class="sym" cx="0" cy="0" r="3" /><text class="lab lft" transform="translate(-3 -7.0)">20</text></g><path class="edge" d="M 0 0 V -27.929 H 31.875" /><circle class="sym" cx="0" cy="0" r="3" /><text class="lab lft" transform="translate(-3 -7.0)">23</text></g><g class="a26 c2 node n24 p0" transform="translate(31.875 19.3586)"><g class="a24 c1 node n19 p0" transform="translate(16.875 13.6242)"><g class="a19 c2 node n10 p0" transform="translate(0.0 25.7246)"><g class="a10 leaf node n4 p0 sample" transform="translate(-7.5 1.20837)"><path class="edge" d="M 0 0 V -1.20837 H 7.5" /><rect class="sym" height="6" width="6" x="-3" y="-3" /><text class="lab" transform="translate(0 11)">4</text></g><g class="a10 leaf node n9 p0 sample" transform="translate(7.5 1.20837)"><path class="edge" d="M 0 0 V -1.20837 H -7.5" /><rect class="sym" height="6" width="6" x="-3" y="-3" /><text class="lab" transform="translate(0 11)">9</text></g><path class="edge" d="M 0 0 V -25.7246 H 0.0" /><circle class="sym" cx="0" cy="0" r="3" /><text class="lab lft" transform="translate(-3 -7.0)">10</text></g><path class="edge" d="M 0 0 V -13.6242 H -16.875" /><circle class="sym" cx="0" cy="0" r="3" /><text class="lab rgt" transform="translate(3 -7.0)">19</text></g><g class="a24 c1 node n21 p0" transform="translate(-16.875 12.4896)"><g class="a21 c2 node n18 p0" transform="translate(0.0 3.97084)"><g class="a18 leaf node n8 p0 sample" transform="translate(11.25 24.0967)"><path class="edge" d="M 0 0 V -24.0967 H -11.25" /><rect class="sym" height="6" width="6" x="-3" y="-3" /><text class="lab" transform="translate(0 11)">8</text></g><g class="a18 c2 node n11 p0" transform="translate(-11.25 17.5901)"><g class="a11 leaf node n1 p0 sample" transform="translate(-7.5 6.50657)"><path class="edge" d="M 0 0 V -6.50657 H 7.5" /><rect class="sym" height="6" width="6" x="-3" y="-3" /><text class="lab" transform="translate(0 11)">1</text></g><g class="a11 leaf node n6 p0 sample" transform="translate(7.5 6.50657)"><path class="edge" d="M 0 0 V -6.50657 H -7.5" /><rect class="sym" height="6" width="6" x="-3" y="-3" /><text class="lab" transform="translate(0 11)">6</text></g><path class="edge" d="M 0 0 V -17.5901 H 11.25" /><circle class="sym" cx="0" cy="0" r="3" /><text class="lab lft" transform="translate(-3 -7.0)">11</text></g><path class="edge" d="M 0 0 V -3.97084 H 0.0" /><circle class="sym" cx="0" cy="0" r="3" /><text class="lab lft" transform="translate(-3 -7.0)">18</text></g><path class="edge" d="M 0 0 V -12.4896 H 16.875" /><circle class="sym" cx="0" cy="0" r="3" /><text class="lab lft" transform="translate(-3 -7.0)">21</text></g><path class="edge" d="M 0 0 V -19.3586 H -31.875" /><circle class="sym" cx="0" cy="0" r="3" /><text class="lab rgt" transform="translate(3 -7.0)">24</text></g><path class="edge" d="M 0 0 V -34.6842 H 35.625" /><circle class="sym" cx="0" cy="0" r="3" /><text class="lab lft" transform="translate(-3 -7.0)">26</text></g><circle class="sym" cx="0" cy="0" r="3" /><text class="lab" transform="translate(0 -11)">27</text></g></g></g><g class="tree t1" transform="translate(210 0)"><g class="plotbox"><g class="c2 node n27 p0 root" transform="translate(113.281 26.8)"><g class="a27 c2 node n25 p0" transform="translate(36.0938 43.394)"><g class="a25 leaf node n3 p0 sample" transform="translate(13.125 51.206)"><path class="edge" d="M 0 0 V -51.206 H -13.125" /><rect class="sym" height="6" width="6" x="-3" y="-3" /><text class="lab" transform="translate(0 11)">3</text></g><g class="a25 c1 node n22 p0" transform="translate(-13.125 23.1385)"><g class="a22 c2 node n18 p0" transform="translate(0.0 3.97084)"><g class="a18 leaf node n8 p0 sample" transform="translate(11.25 24.0967)"><path class="edge" d="M 0 0 V -24.0967 H -11.25" /><rect class="sym" height="6" width="6" x="-3" y="-3" /><text class="lab" transform="translate(0 11)">8</text></g><g class="a18 c2 node n11 p0" transform="translate(-11.25 17.5901)"><g class="a11 leaf node n1 p0 sample" transform="translate(-7.5 6.50657)"><path class="edge" d="M 0 0 V -6.50657 H 7.5" /><rect class="sym" height="6" width="6" x="-3" y="-3" /><text class="lab" transform="translate(0 11)">1</text></g><g class="a11 leaf node n6 p0 sample" transform="translate(7.5 6.50657)"><path class="edge" d="M 0 0 V -6.50657 H -7.5" /><rect class="sym" height="6" width="6" x="-3" y="-3" /><text class="lab" transform="translate(0 11)">6</text></g><path class="edge" d="M 0 0 V -17.5901 H 11.25" /><circle class="sym" cx="0" cy="0" r="3" /><text class="lab lft" transform="translate(-3 -7.0)">11</text></g><path class="edge" d="M 0 0 V -3.97084 H 0.0" /><circle class="sym" cx="0" cy="0" r="3" /><text class="lab lft" transform="translate(-3 -7.0)">18</text></g><path class="edge" d="M 0 0 V -23.1385 H 13.125" /><circle class="sym" cx="0" cy="0" r="3" /><text class="lab lft" transform="translate(-3 -7.0)">22</text></g><path class="edge" d="M 0 0 V -43.394 H -36.0938" /><circle class="sym" cx="0" cy="0" r="3" /><text class="lab rgt" transform="translate(3 -7.0)">25</text></g><g class="a27 c2 node n26 p0" transform="translate(-36.0938 34.6842)"><g class="a26 c2 node n23 p0" transform="translate(-17.8125 27.929)"><g class="a23 c1 node n16 p0" transform="translate(13.125 18.1214)"><g class="a16 leaf node n2 p0 sample" transform="translate(0.0 13.8653)"><path class="edge" d="M 0 0 V -13.8653 H 0.0" /><rect class="sym" height="6" width="6" x="-3" y="-3" /><text class="lab" transform="translate(0 11)">2</text></g><path class="edge" d="M 0 0 V -18.1214 H -13.125" /><circle class="sym" cx="0" cy="0" r="3" /><text class="lab rgt" transform="translate(3 -7.0)">16</text></g><g class="a23 c1 node n20 p0" transform="translate(-13.125 5.00068)"><g class="a20 c2 node n15 p0" transform="translate(0.0 13.9047)"><g class="a15 leaf node n5 p0 sample" transform="translate(11.25 13.0813)"><path class="edge" d="M 0 0 V -13.0813 H -11.25" /><rect class="sym" height="6" width="6" x="-3" y="-3" /><text class="lab" transform="translate(0 11)">5</text></g><g class="a15 c2 node n14 p0" transform="translate(-11.25 0.0713154)"><g class="a14 leaf node n0 p0 sample" transform="translate(-7.5 13.01)"><path class="edge" d="M 0 0 V -13.01 H 7.5" /><rect class="sym" height="6" width="6" x="-3" y="-3" /><text class="lab" transform="translate(0 11)">0</text></g><g class="a14 c1 node n12 p0" transform="translate(7.5 6.4565)"><g class="a12 leaf node n7 p0 sample" transform="translate(0.0 6.55349)"><path class="edge" d="M 0 0 V -6.55349 H 0.0" /><rect class="sym" height="6" width="6" x="-3" y="-3" /><text class="lab" transform="translate(0 11)">7</text></g><path class="edge" d="M 0 0 V -6.4565 H -7.5" /><circle class="sym" cx="0" cy="0" r="3" /><text class="lab rgt" transform="translate(3 -7.0)">12</text></g><path class="edge" d="M 0 0 V -0.0713154 H 11.25" /><circle class="sym" cx="0" cy="0" r="3" /><text class="lab lft" transform="translate(-3 -7.0)">14</text></g><path class="edge" d="M 0 0 V -13.9047 H 0.0" /><circle class="sym" cx="0" cy="0" r="3" /><text class="lab lft" transform="translate(-3 -7.0)">15</text></g><path class="edge" d="M 0 0 V -5.00068 H 13.125" /><circle class="sym" cx="0" cy="0" r="3" /><text class="lab lft" transform="translate(-3 -7.0)">20</text></g><path class="edge" d="M 0 0 V -27.929 H 17.8125" /><circle class="sym" cx="0" cy="0" r="3" /><text class="lab lft" transform="translate(-3 -7.0)">23</text></g><g class="a26 c1 node n24 p0" transform="translate(17.8125 19.3586)"><g class="a24 c1 node n19 p0" transform="translate(0.0 13.6242)"><g class="a19 c2 node n10 p0" transform="translate(0.0 25.7246)"><g class="a10 leaf node n4 p0 sample" transform="translate(-7.5 1.20837)"><path class="edge" d="M 0 0 V -1.20837 H 7.5" /><rect class="sym" height="6" width="6" x="-3" y="-3" /><text class="lab" transform="translate(0 11)">4</text></g><g class="a10 leaf node n9 p0 sample" transform="translate(7.5 1.20837)"><path class="edge" d="M 0 0 V -1.20837 H -7.5" /><rect class="sym" height="6" width="6" x="-3" y="-3" /><text class="lab" transform="translate(0 11)">9</text></g><path class="edge" d="M 0 0 V -25.7246 H 0.0" /><circle class="sym" cx="0" cy="0" r="3" /><text class="lab lft" transform="translate(-3 -7.0)">10</text></g><path class="edge" d="M 0 0 V -13.6242 H 0.0" /><circle class="sym" cx="0" cy="0" r="3" /><text class="lab lft" transform="translate(-3 -7.0)">19</text></g><path class="edge" d="M 0 0 V -19.3586 H -17.8125" /><circle class="sym" cx="0" cy="0" r="3" /><text class="lab rgt" transform="translate(3 -7.0)">24</text></g><path class="edge" d="M 0 0 V -34.6842 H 36.0938" /><circle class="sym" cx="0" cy="0" r="3" /><text class="lab lft" transform="translate(-3 -7.0)">26</text></g><circle class="sym" cx="0" cy="0" r="3" /><text class="lab" transform="translate(0 -11)">27</text></g></g></g><g class="tree t2" transform="translate(400 0)"><g class="plotbox"><g class="c2 node n27 p0 root" transform="translate(113.281 26.8)"><g class="a27 c2 node n25 p0" transform="translate(36.0938 43.394)"><g class="a25 leaf node n3 p0 sample" transform="translate(13.125 51.206)"><path class="edge" d="M 0 0 V -51.206 H -13.125" /><rect class="sym" height="6" width="6" x="-3" y="-3" /><text class="lab" transform="translate(0 11)">3</text></g><g class="a25 c1 node n22 p0" transform="translate(-13.125 23.1385)"><g class="a22 c2 node n18 p0" transform="translate(0.0 3.97084)"><g class="a18 leaf node n8 p0 sample" transform="translate(11.25 24.0967)"><path class="edge" d="M 0 0 V -24.0967 H -11.25" /><rect class="sym" height="6" width="6" x="-3" y="-3" /><text class="lab" transform="translate(0 11)">8</text></g><g class="a18 c2 node n11 p0" transform="translate(-11.25 17.5901)"><g class="a11 leaf node n1 p0 sample" transform="translate(-7.5 6.50657)"><path class="edge" d="M 0 0 V -6.50657 H 7.5" /><rect class="sym" height="6" width="6" x="-3" y="-3" /><text class="lab" transform="translate(0 11)">1</text></g><g class="a11 leaf node n6 p0 sample" transform="translate(7.5 6.50657)"><path class="edge" d="M 0 0 V -6.50657 H -7.5" /><rect class="sym" height="6" width="6" x="-3" y="-3" /><text class="lab" transform="translate(0 11)">6</text></g><path class="edge" d="M 0 0 V -17.5901 H 11.25" /><circle class="sym" cx="0" cy="0" r="3" /><text class="lab lft" transform="translate(-3 -7.0)">11</text></g><path class="edge" d="M 0 0 V -3.97084 H 0.0" /><circle class="sym" cx="0" cy="0" r="3" /><text class="lab lft" transform="translate(-3 -7.0)">18</text></g><path class="edge" d="M 0 0 V -23.1385 H 13.125" /><circle class="sym" cx="0" cy="0" r="3" /><text class="lab lft" transform="translate(-3 -7.0)">22</text></g><path class="edge" d="M 0 0 V -43.394 H -36.0938" /><circle class="sym" cx="0" cy="0" r="3" /><text class="lab rgt" transform="translate(3 -7.0)">25</text></g><g class="a27 c2 node n26 p0" transform="translate(-36.0938 34.6842)"><g class="a26 c2 node n23 p0" transform="translate(-17.8125 27.929)"><g class="a23 c1 node n16 p0" transform="translate(13.125 18.1214)"><g class="a16 leaf node n2 p0 sample" transform="translate(0.0 13.8653)"><path class="edge" d="M 0 0 V -13.8653 H 0.0" /><rect class="sym" height="6" width="6" x="-3" y="-3" /><text class="lab" transform="translate(0 11)">2</text></g><path class="edge" d="M 0 0 V -18.1214 H -13.125" /><circle class="sym" cx="0" cy="0" r="3" /><text class="lab rgt" transform="translate(3 -7.0)">16</text></g><g class="a23 c2 node n20 p0" transform="translate(-13.125 5.00068)"><g class="a20 c2 node n15 p0" transform="translate(-11.25 13.9047)"><g class="a15 leaf node n5 p0 sample" transform="translate(7.5 13.0813)"><path class="edge" d="M 0 0 V -13.0813 H -7.5" /><rect class="sym" height="6" width="6" x="-3" y="-3" /><text class="lab" transform="translate(0 11)">5</text></g><g class="a15 c1 node n14 p0" transform="translate(-7.5 0.0713154)"><g class="a14 leaf node n0 p0 sample" transform="translate(0.0 13.01)"><path class="edge" d="M 0 0 V -13.01 H 0.0" /><rect class="sym" height="6" width="6" x="-3" y="-3" /><text class="lab" transform="translate(0 11)">0</text></g><path class="edge" d="M 0 0 V -0.0713154 H 7.5" /><circle class="sym" cx="0" cy="0" r="3" /><text class="lab lft" transform="translate(-3 -7.0)">14</text></g><path class="edge" d="M 0 0 V -13.9047 H 11.25" /><circle class="sym" cx="0" cy="0" r="3" /><text class="lab lft" transform="translate(-3 -7.0)">15</text></g><g class="a20 c1 node n13 p0" transform="translate(11.25 20.4325)"><g class="a13 leaf node n7 p0 sample" transform="translate(0.0 6.55349)"><path class="edge" d="M 0 0 V -6.55349 H 0.0" /><rect class="sym" height="6" width="6" x="-3" y="-3" /><text class="lab" transform="translate(0 11)">7</text></g><path class="edge" d="M 0 0 V -20.4325 H -11.25" /><circle class="sym" cx="0" cy="0" r="3" /><text class="lab rgt" transform="translate(3 -7.0)">13</text></g><path class="edge" d="M 0 0 V -5.00068 H 13.125" /><circle class="sym" cx="0" cy="0" r="3" /><text class="lab lft" transform="translate(-3 -7.0)">20</text></g><path class="edge" d="M 0 0 V -27.929 H 17.8125" /><circle class="sym" cx="0" cy="0" r="3" /><text class="lab lft" transform="translate(-3 -7.0)">23</text></g><g class="a26 c1 node n24 p0" transform="translate(17.8125 19.3586)"><g class="a24 c1 node n19 p0" transform="translate(0.0 13.6242)"><g class="a19 c2 node n10 p0" transform="translate(0.0 25.7246)"><g class="a10 leaf node n4 p0 sample" transform="translate(-7.5 1.20837)"><path class="edge" d="M 0 0 V -1.20837 H 7.5" /><rect class="sym" height="6" width="6" x="-3" y="-3" /><text class="lab" transform="translate(0 11)">4</text></g><g class="a10 leaf node n9 p0 sample" transform="translate(7.5 1.20837)"><path class="edge" d="M 0 0 V -1.20837 H -7.5" /><rect class="sym" height="6" width="6" x="-3" y="-3" /><text class="lab" transform="translate(0 11)">9</text></g><path class="edge" d="M 0 0 V -25.7246 H 0.0" /><circle class="sym" cx="0" cy="0" r="3" /><text class="lab lft" transform="translate(-3 -7.0)">10</text></g><path class="edge" d="M 0 0 V -13.6242 H 0.0" /><circle class="sym" cx="0" cy="0" r="3" /><text class="lab lft" transform="translate(-3 -7.0)">19</text></g><path class="edge" d="M 0 0 V -19.3586 H -17.8125" /><circle class="sym" cx="0" cy="0" r="3" /><text class="lab rgt" transform="translate(3 -7.0)">24</text></g><path class="edge" d="M 0 0 V -34.6842 H 36.0938" /><circle class="sym" cx="0" cy="0" r="3" /><text class="lab lft" transform="translate(-3 -7.0)">26</text></g><circle class="sym" cx="0" cy="0" r="3" /><text class="lab" transform="translate(0 -11)">27</text></g></g></g><g class="tree t3" transform="translate(590 0)"><g class="plotbox"><g class="c2 node n27 p0 root" transform="translate(107.188 26.8)"><g class="a27 c2 node n25 p0" transform="translate(42.1875 43.394)"><g class="a25 leaf node n3 p0 sample" transform="translate(13.125 51.206)"><path class="edge" d="M 0 0 V -51.206 H -13.125" /><rect class="sym" height="6" width="6" x="-3" y="-3" /><text class="lab" transform="translate(0 11)">3</text></g><g class="a25 c1 node n22 p0" transform="translate(-13.125 23.1385)"><g class="a22 c2 node n18 p0" transform="translate(0.0 3.97084)"><g class="a18 leaf node n8 p0 sample" transform="translate(11.25 24.0967)"><path class="edge" d="M 0 0 V -24.0967 H -11.25" /><rect class="sym" height="6" width="6" x="-3" y="-3" /><text class="lab" transform="translate(0 11)">8</text></g><g class="a18 c2 node n11 p0" transform="translate(-11.25 17.5901)"><g class="a11 leaf node n1 p0 sample" transform="translate(-7.5 6.50657)"><path class="edge" d="M 0 0 V -6.50657 H 7.5" /><rect class="sym" height="6" width="6" x="-3" y="-3" /><text class="lab" transform="translate(0 11)">1</text></g><g class="a11 leaf node n6 p0 sample" transform="translate(7.5 6.50657)"><path class="edge" d="M 0 0 V -6.50657 H -7.5" /><rect class="sym" height="6" width="6" x="-3" y="-3" /><text class="lab" transform="translate(0 11)">6</text></g><path class="edge" d="M 0 0 V -17.5901 H 11.25" /><circle class="sym" cx="0" cy="0" r="3" /><text class="lab lft" transform="translate(-3 -7.0)">11</text></g><path class="edge" d="M 0 0 V -3.97084 H 0.0" /><circle class="sym" cx="0" cy="0" r="3" /><text class="lab lft" transform="translate(-3 -7.0)">18</text></g><path class="edge" d="M 0 0 V -23.1385 H 13.125" /><circle class="sym" cx="0" cy="0" r="3" /><text class="lab lft" transform="translate(-3 -7.0)">22</text></g><path class="edge" d="M 0 0 V -43.394 H -42.1875" /><circle class="sym" cx="0" cy="0" r="3" /><text class="lab rgt" transform="translate(3 -7.0)">25</text></g><g class="a27 c2 node n26 p0" transform="translate(-42.1875 34.6842)"><g class="a26 c1 node n23 p0" transform="translate(-18.75 27.929)"><g class="a23 c2 node n20 p0" transform="translate(0.0 5.00068)"><g class="a20 c2 node n15 p0" transform="translate(-11.25 13.9047)"><g class="a15 leaf node n5 p0 sample" transform="translate(7.5 13.0813)"><path class="edge" d="M 0 0 V -13.0813 H -7.5" /><rect class="sym" height="6" width="6" x="-3" y="-3" /><text class="lab" transform="translate(0 11)">5</text></g><g class="a15 c1 node n14 p0" transform="translate(-7.5 0.0713154)"><g class="a14 leaf node n0 p0 sample" transform="translate(0.0 13.01)"><path class="edge" d="M 0 0 V -13.01 H 0.0" /><rect class="sym" height="6" width="6" x="-3" y="-3" /><text class="lab" transform="translate(0 11)">0</text></g><path class="edge" d="M 0 0 V -0.0713154 H 7.5" /><circle class="sym" cx="0" cy="0" r="3" /><text class="lab lft" transform="translate(-3 -7.0)">14</text></g><path class="edge" d="M 0 0 V -13.9047 H 11.25" /><circle class="sym" cx="0" cy="0" r="3" /><text class="lab lft" transform="translate(-3 -7.0)">15</text></g><g class="a20 c1 node n13 p0" transform="translate(11.25 20.4325)"><g class="a13 leaf node n7 p0 sample" transform="translate(0.0 6.55349)"><path class="edge" d="M 0 0 V -6.55349 H 0.0" /><rect class="sym" height="6" width="6" x="-3" y="-3" /><text class="lab" transform="translate(0 11)">7</text></g><path class="edge" d="M 0 0 V -20.4325 H -11.25" /><circle class="sym" cx="0" cy="0" r="3" /><text class="lab rgt" transform="translate(3 -7.0)">13</text></g><path class="edge" d="M 0 0 V -5.00068 H 0.0" /><circle class="sym" cx="0" cy="0" r="3" /><text class="lab lft" transform="translate(-3 -7.0)">20</text></g><path class="edge" d="M 0 0 V -27.929 H 18.75" /><circle class="sym" cx="0" cy="0" r="3" /><text class="lab lft" transform="translate(-3 -7.0)">23</text></g><g class="a26 c1 node n24 p0" transform="translate(18.75 19.3586)"><g class="a24 c2 node n19 p0" transform="translate(0.0 13.6242)"><g class="a19 c2 node n10 p0" transform="translate(11.25 25.7246)"><g class="a10 leaf node n4 p0 sample" transform="translate(-7.5 1.20837)"><path class="edge" d="M 0 0 V -1.20837 H 7.5" /><rect class="sym" height="6" width="6" x="-3" y="-3" /><text class="lab" transform="translate(0 11)">4</text></g><g class="a10 leaf node n9 p0 sample" transform="translate(7.5 1.20837)"><path class="edge" d="M 0 0 V -1.20837 H -7.5" /><rect class="sym" height="6" width="6" x="-3" y="-3" /><text class="lab" transform="translate(0 11)">9</text></g><path class="edge" d="M 0 0 V -25.7246 H -11.25" /><circle class="sym" cx="0" cy="0" r="3" /><text class="lab rgt" transform="translate(3 -7.0)">10</text></g><g class="a19 c1 node n17 p0" transform="translate(-11.25 13.0677)"><g class="a17 leaf node n2 p0 sample" transform="translate(0.0 13.8653)"><path class="edge" d="M 0 0 V -13.8653 H 0.0" /><rect class="sym" height="6" width="6" x="-3" y="-3" /><text class="lab" transform="translate(0 11)">2</text></g><path class="edge" d="M 0 0 V -13.0677 H 11.25" /><circle class="sym" cx="0" cy="0" r="3" /><text class="lab lft" transform="translate(-3 -7.0)">17</text></g><path class="edge" d="M 0 0 V -13.6242 H 0.0" /><circle class="sym" cx="0" cy="0" r="3" /><text class="lab lft" transform="translate(-3 -7.0)">19</text></g><path class="edge" d="M 0 0 V -19.3586 H -18.75" /><circle class="sym" cx="0" cy="0" r="3" /><text class="lab rgt" transform="translate(3 -7.0)">24</text></g><path class="edge" d="M 0 0 V -34.6842 H 42.1875" /><circle class="sym" cx="0" cy="0" r="3" /><text class="lab lft" transform="translate(-3 -7.0)">26</text></g><circle class="sym" cx="0" cy="0" r="3" /><text class="lab" transform="translate(0 -11)">27</text></g></g></g></g></g></svg>
