<svg baseProfile="full" height="200" version="1.1" width="1000" xmlns="http://www.w3.org/2000/svg" xmlns:ev="http://www.w3.org/2001/xml-events" xmlns:xlink="http://www.w3.org/1999/xlink"><defs><style type="text/css"><![CDATA[.background path {fill: #808080; fill-opacity: 0}.background path:nth-child(odd) {fill-opacity: .1}.axes {font-size: 14px}.x-axis .tick .lab {font-weight: bold; dominant-baseline: hanging}.axes, .tree {font-size: 14px; text-anchor: middle}.axes line, .edge {stroke: black; fill: none}.y-axis .grid {stroke: #FAFAFA}.node > .sym {fill: black; stroke: none}.site > .sym {stroke: black}.mut text {fill: red; font-style: italic}.mut.extra text {fill: hotpink}.mut line {fill: none; stroke: none}.mut .sym {fill: none; stroke: red}.mut.extra .sym {stroke: hotpink}.node .mut .sym {stroke-width: 1.5px}.tree text, .tree-sequence text {dominant-baseline: central}.plotbox .lab.lft {text-anchor: end}.plotbox .lab.rgt {text-anchor: start}]]></style></defs><g class="tree-sequence"><g class="background"><path d="M20,0 l192,0 l0,138.2 l-162.025,25 l0,5 l-29.975,0 l0,-5 l0,-25 l0,-138.2z" /><path d="M212,0 l192,0 l0,138.2 l128.334,25 l0,5 l-482.359,0 l0,-5 l162.025,-25 l0,-138.2z" /><path d="M404,0 l192,0 l0,138.2 l73.064,25 l0,5 l-136.73,0 l0,-5 l-128.334,-25 l0,-138.2z" /><path d="M596,0 l192,0 l0,138.2 l48.4942,25 l0,5 l-167.43,0 l0,-5 l-73.064,-25 l0,-138.2z" /><path d="M788,0 l192,0 l0,138.2 l0,25 l0,5 l-143.506,0 l0,-5 l-48.4942,-25 l0,-138.2z" /></g><g class="axes"><g class="x-axis"><g transform="translate(500 200)"><text class="lab" text-anchor="middle" transform="translate(0 -11)">Genome position</text></g><line x1="20" x2="980" y1="163.2" y2="163.2" /><g class="ticks"><g class="tick" transform="translate(20 163.2)"><line x1="0" x2="0" y1="0" y2="5" /><g transform="translate(0 6)"><text class="lab">0.00</text></g></g><g class="tick" transform="translate(49.975 163.2)"><line x1="0" x2="0" y1="0" y2="5" /><g transform="translate(0 6)"><text class="lab">31.22</text></g></g><g class="tick" transform="translate(532.334 163.2)"><line x1="0" x2="0" y1="0" y2="5" /><g transform="translate(0 6)"><text class="lab">533.68</text></g></g><g class="tick" transform="translate(669.064 163.2)"><line x1="0" x2="0" y1="0" y2="5" /><g transform="translate(0 6)"><text class="lab">676.11</text></g></g><g class="tick" transform="translate(836.494 163.2)"><line x1="0" x2="0" y1="0" y2="5" /><g transform="translate(0 6)"><text class="lab">850.51</text></g></g><g class="tick" transform="translate(980 163.2)"><line x1="0" x2="0" y1="0" y2="5" /><g transform="translate(0 6)"><text class="lab">1000.00</text></g></g></g></g></g><g class="plotbox trees"><g class="tree t0" transform="translate(20 0)"><g class="plotbox"><g class="c2 node n30 p0 root" transform="translate(93.15 26.8)"><g class="a30 c2 node n27 p0" transform="translate(-37.05 11.2912)"><g class="a27 c1 node n21 p0" transform="translate(17.1 41.2147)"><g class="a21 leaf node n2 p0 sample" transform="translate(0.0 42.094)"><path class="edge" d="M 0 0 V -42.094 H 0.0" /><rect class="sym" height="6" width="6" x="-3" y="-3" /><text class="lab" transform="translate(0 11)">2</text></g><path class="edge" d="M 0 0 V -41.2147 H -17.1" /><circle class="sym" cx="0" cy="0" r="3" /><text class="lab rgt" transform="translate(3 -7.0)">21</text></g><g class="a27 c1 node n22 p0" transform="translate(-17.1 40.7216)"><g class="a22 c2 node n11 p0" transform="translate(0.0 31.8452)"><g class="a11 leaf node n0 p0 sample" transform="translate(-11.4 10.7419)"><path class="edge" d="M 0 0 V -10.7419 H 11.4" /><rect class="sym" height="6" width="6" x="-3" y="-3" /><text class="lab" transform="translate(0 11)">0</text></g><g class="a11 c2 node n10 p0" transform="translate(11.4 2.8816)"><g class="a10 leaf node n1 p0 sample" transform="translate(-7.6 7.86032)"><path class="edge" d="M 0 0 V -7.86032 H 7.6" /><rect class="sym" height="6" width="6" x="-3" y="-3" /><text class="lab" transform="translate(0 11)">1</text></g><g class="a10 leaf node n3 p0 sample" transform="translate(7.6 7.86032)"><path class="edge" d="M 0 0 V -7.86032 H -7.6" /><rect class="sym" height="6" width="6" x="-3" y="-3" /><text class="lab" transform="translate(0 11)">3</text></g><path class="edge" d="M 0 0 V -2.8816 H -11.4" /><circle class="sym" cx="0" cy="0" r="3" /><text class="lab rgt" transform="translate(3 -7.0)">10</text></g><path class="edge" d="M 0 0 V -31.8452 H 0.0" /><circle class="sym" cx="0" cy="0" r="3" /><text class="lab lft" transform="translate(-3 -7.0)">11</text></g><path class="edge" d="M 0 0 V -40.7216 H 17.1" /><circle class="sym" cx="0" cy="0" r="3" /><text class="lab lft" transform="translate(-3 -7.0)">22</text></g><path class="edge" d="M 0 0 V -11.2912 H 37.05" /><circle class="sym" cx="0" cy="0" r="3" /><text class="lab lft" transform="translate(-3 -7.0)">27</text></g><g class="a30 c2 node n29 p0" transform="translate(37.05 6.20648)"><g class="a29 c1 node n23 p0" transform="translate(22.8 41.2248)"><g class="a23 c2 node n13 p0" transform="translate(0.0 25.7857)"><g class="a13 leaf node n9 p0 sample" transform="translate(11.4 21.383)"><path class="edge" d="M 0 0 V -21.383 H -11.4" /><rect class="sym" height="6" width="6" x="-3" y="-3" /><text class="lab" transform="translate(0 11)">9</text></g><g class="a13 c2 node n12 p0" transform="translate(-11.4 1.68407)"><g class="a12 leaf node n5 p0 sample" transform="translate(-7.6 19.6989)"><path class="edge" d="M 0 0 V -19.6989 H 7.6" /><rect class="sym" height="6" width="6" x="-3" y="-3" /><text class="lab" transform="translate(0 11)">5</text></g><g class="a12 leaf node n7 p0 sample" transform="translate(7.6 19.6989)"><path class="edge" d="M 0 0 V -19.6989 H -7.6" /><rect class="sym" height="6" width="6" x="-3" y="-3" /><text class="lab" transform="translate(0 11)">7</text></g><path class="edge" d="M 0 0 V -1.68407 H 11.4" /><circle class="sym" cx="0" cy="0" r="3" /><text class="lab lft" transform="translate(-3 -7.0)">12</text></g><path class="edge" d="M 0 0 V -25.7857 H 0.0" /><circle class="sym" cx="0" cy="0" r="3" /><text class="lab lft" transform="translate(-3 -7.0)">13</text></g><path class="edge" d="M 0 0 V -41.2248 H -22.8" /><circle class="sym" cx="0" cy="0" r="3" /><text class="lab rgt" transform="translate(3 -7.0)">23</text></g><g class="a29 c1 node n28 p0" transform="translate(-22.8 3.85547)"><g class="a28 c2 node n25 p0" transform="translate(0.0 33.4182)"><g class="a25 c1 node n16 p0" transform="translate(11.4 26.2945)"><g class="a16 leaf node n8 p0 sample" transform="translate(0.0 24.8253)"><path class="edge" d="M 0 0 V -24.8253 H 0.0" /><rect class="sym" height="6" width="6" x="-3" y="-3" /><text class="lab" transform="translate(0 11)">8</text></g><path class="edge" d="M 0 0 V -26.2945 H -11.4" /><circle class="sym" cx="0" cy="0" r="3" /><text class="lab rgt" transform="translate(3 -7.0)">16</text></g><g class="a25 c1 node n19 p0" transform="translate(-11.4 10.7552)"><g class="a19 c2 node n18 p0" transform="translate(0.0 8.8691)"><g class="a18 leaf node n4 p0 sample" transform="translate(-7.6 31.4956)"><path class="edge" d="M 0 0 V -31.4956 H 7.6" /><rect class="sym" height="6" width="6" x="-3" y="-3" /><text class="lab" transform="translate(0 11)">4</text></g><g class="a18 c1 node n14 p0" transform="translate(7.6 8.46814)"><g class="a14 leaf node n6 p0 sample" transform="translate(0.0 23.0274)"><path class="edge" d="M 0 0 V -23.0274 H 0.0" /><rect class="sym" height="6" width="6" x="-3" y="-3" /><text class="lab" transform="translate(0 11)">6</text></g><path class="edge" d="M 0 0 V -8.46814 H -7.6" /><circle class="sym" cx="0" cy="0" r="3" /><text class="lab rgt" transform="translate(3 -7.0)">14</text></g><path class="edge" d="M 0 0 V -8.8691 H 0.0" /><circle class="sym" cx="0" cy="0" r="3" /><text class="lab lft" transform="translate(-3 -7.0)">18</text></g><path class="edge" d="M 0 0 V -10.7552 H 11.4" /><circle class="sym" cx="0" cy="0" r="3" /><text class="lab lft" transform="translate(-3 -7.0)">19</text></g><path class="edge" d="M 0 0 V -33.4182 H 0.0" /><circle class="sym" cx="0" cy="0" r="3" /><text class="lab lft" transform="translate(-3 -7.0)">25</text></g><path class="edge" d="M 0 0 V -3.85547 H 22.8" /><circle class="sym" cx="0" cy="0" r="3" /><text class="lab lft" transform="translate(-3 -7.0)">28</text></g><path class="edge" d="M 0 0 V -6.20648 H -37.05" /><circle class="sym" cx="0" cy="0" r="3" /><text class="lab rgt" transform="translate(3 -7.0)">29</text></g><circle class="sym" cx="0" cy="0" r="3" /><text class="lab" transform="translate(0 -11)">30</text></g></g></g><g class="tree t1" transform="translate(212 0)"><g class="plotbox"><g class="c2 node n30 p0 root" transform="translate(93.15 26.8)"><g class="a30 c2 node n27 p0" transform="translate(-37.05 11.2912)"><g class="a27 c1 node n21 p0" transform="translate(17.1 41.2147)"><g class="a21 leaf node n2 p0 sample" transform="translate(0.0 42.094)"><path class="edge" d="M 0 0 V -42.094 H 0.0" /><rect class="sym" height="6" width="6" x="-3" y="-3" /><text class="lab" transform="translate(0 11)">2</text></g><path class="edge" d="M 0 0 V -41.2147 H -17.1" /><circle class="sym" cx="0" cy="0" r="3" /><text class="lab rgt" transform="translate(3 -7.0)">21</text></g><g class="a27 c1 node n22 p0" transform="translate(-17.1 40.7216)"><g class="a22 c2 node n11 p0" transform="translate(0.0 31.8452)"><g class="a11 leaf node n0 p0 sample" transform="translate(-11.4 10.7419)"><path class="edge" d="M 0 0 V -10.7419 H 11.4" /><rect class="sym" height="6" width="6" x="-3" y="-3" /><text class="lab" transform="translate(0 11)">0</text></g><g class="a11 c2 node n10 p0" transform="translate(11.4 2.8816)"><g class="a10 leaf node n1 p0 sample" transform="translate(-7.6 7.86032)"><path class="edge" d="M 0 0 V -7.86032 H 7.6" /><rect class="sym" height="6" width="6" x="-3" y="-3" /><text class="lab" transform="translate(0 11)">1</text></g><g class="a10 leaf node n3 p0 sample" transform="translate(7.6 7.86032)"><path class="edge" d="M 0 0 V -7.86032 H -7.6" /><rect class="sym" height="6" width="6" x="-3" y="-3" /><text class="lab" transform="translate(0 11)">3</text></g><path class="edge" d="M 0 0 V -2.8816 H -11.4" /><circle class="sym" cx="0" cy="0" r="3" /><text class="lab rgt" transform="translate(3 -7.0)">10</text></g><path class="edge" d="M 0 0 V -31.8452 H 0.0" /><circle class="sym" cx="0" cy="0" r="3" /><text class="lab lft" transform="translate(-3 -7.0)">11</text></g><path class="edge" d="M 0 0 V -40.7216 H 17.1" /><circle class="sym" cx="0" cy="0" r="3" /><text class="lab lft" transform="translate(-3 -7.0)">22</text></g><path class="edge" d="M 0 0 V -11.2912 H 37.05" /><circle class="sym" cx="0" cy="0" r="3" /><text class="lab lft" transform="translate(-3 -7.0)">27</text></g><g class="a30 c1 node n29 p0" transform="translate(37.05 6.20648)"><g class="a29 c2 node n28 p0" transform="translate(0.0 3.85547)"><g class="a28 c2 node n25 p0" transform="translate(-22.8 33.4182)"><g class="a25 c1 node n16 p0" transform="translate(11.4 26.2945)"><g class="a16 leaf node n8 p0 sample" transform="translate(0.0 24.8253)"><path class="edge" d="M 0 0 V -24.8253 H 0.0" /><rect class="sym" height="6" width="6" x="-3" y="-3" /><text class="lab" transform="translate(0 11)">8</text></g><path class="edge" d="M 0 0 V -26.2945 H -11.4" /><circle class="sym" cx="0" cy="0" r="3" /><text class="lab rgt" transform="translate(3 -7.0)">16</text></g><g class="a25 c1 node n19 p0" transform="translate(-11.4 10.7552)"><g class="a19 c2 node n18 p0" transform="translate(0.0 8.8691)"><g class="a18 leaf node n4 p0 sample" transform="translate(-7.6 31.4956)"><path class="edge" d="M 0 0 V -31.4956 H 7.6" /><rect class="sym" height="6" width="6" x="-3" y="-3" /><text class="lab" transform="translate(0 11)">4</text></g><g class="a18 c1 node n14 p0" transform="translate(7.6 8.46814)"><g class="a14 leaf node n6 p0 sample" transform="translate(0.0 23.0274)"><path class="edge" d="M 0 0 V -23.0274 H 0.0" /><rect class="sym" height="6" width="6" x="-3" y="-3" /><text class="lab" transform="translate(0 11)">6</text></g><path class="edge" d="M 0 0 V -8.46814 H -7.6" /><circle class="sym" cx="0" cy="0" r="3" /><text class="lab rgt" transform="translate(3 -7.0)">14</text></g><path class="edge" d="M 0 0 V -8.8691 H 0.0" /><circle class="sym" cx="0" cy="0" r="3" /><text class="lab lft" transform="translate(-3 -7.0)">18</text></g><path class="edge" d="M 0 0 V -10.7552 H 11.4" /><circle class="sym" cx="0" cy="0" r="3" /><text class="lab lft" transform="translate(-3 -7.0)">19</text></g><path class="edge" d="M 0 0 V -33.4182 H 22.8" /><circle class="sym" cx="0" cy="0" r="3" /><text class="lab lft" transform="translate(-3 -7.0)">25</text></g><g class="a28 c1 node n26 p0" transform="translate(22.8 24.774)"><g class="a26 c1 node n24 p0" transform="translate(0.0 12.5953)"><g class="a24 c2 node n13 p0" transform="translate(0.0 25.7857)"><g class="a13 leaf node n9 p0 sample" transform="translate(11.4 21.383)"><path class="edge" d="M 0 0 V -21.383 H -11.4" /><rect class="sym" height="6" width="6" x="-3" y="-3" /><text class="lab" transform="translate(0 11)">9</text></g><g class="a13 c2 node n12 p0" transform="translate(-11.4 1.68407)"><g class="a12 leaf node n5 p0 sample" transform="translate(-7.6 19.6989)"><path class="edge" d="M 0 0 V -19.6989 H 7.6" /><rect class="sym" height="6" width="6" x="-3" y="-3" /><text class="lab" transform="translate(0 11)">5</text></g><g class="a12 leaf node n7 p0 sample" transform="translate(7.6 19.6989)"><path class="edge" d="M 0 0 V -19.6989 H -7.6" /><rect class="sym" height="6" width="6" x="-3" y="-3" /><text class="lab" transform="translate(0 11)">7</text></g><path class="edge" d="M 0 0 V -1.68407 H 11.4" /><circle class="sym" cx="0" cy="0" r="3" /><text class="lab lft" transform="translate(-3 -7.0)">12</text></g><path class="edge" d="M 0 0 V -25.7857 H 0.0" /><circle class="sym" cx="0" cy="0" r="3" /><text class="lab lft" transform="translate(-3 -7.0)">13</text></g><path class="edge" d="M 0 0 V -12.5953 H 0.0" /><circle class="sym" cx="0" cy="0" r="3" /><text class="lab lft" transform="translate(-3 -7.0)">24</text></g><path class="edge" d="M 0 0 V -24.774 H -22.8" /><circle class="sym" cx="0" cy="0" r="3" /><text class="lab rgt" transform="translate(3 -7.0)">26</text></g><path class="edge" d="M 0 0 V -3.85547 H 0.0" /><circle class="sym" cx="0" cy="0" r="3" /><text class="lab lft" transform="translate(-3 -7.0)">28</text></g><path class="edge" d="M 0 0 V -6.20648 H -37.05" /><circle class="sym" cx="0" cy="0" r="3" /><text class="lab rgt" transform="translate(3 -7.0)">29</text></g><circle class="sym" cx="0" cy="0" r="3" /><text class="lab" transform="translate(0 -11)">30</text></g></g></g><g class="tree t2" transform="translate(404 0)"><g class="plotbox"><g class="c2 node n30 p0 root" transform="translate(96 26.8)"><g class="a30 c2 node n27 p0" transform="translate(-36.1 11.2912)"><g class="a27 c2 node n21 p0" transform="translate(20.9 41.2147)"><g class="a21 leaf node n2 p0 sample" transform="translate(-7.6 42.094)"><path class="edge" d="M 0 0 V -42.094 H 7.6" /><rect class="sym" height="6" width="6" x="-3" y="-3" /><text class="lab" transform="translate(0 11)">2</text></g><g class="a21 c1 node n17 p0" transform="translate(7.6 17.2687)"><g class="a17 leaf node n8 p0 sample" transform="translate(0.0 24.8253)"><path class="edge" d="M 0 0 V -24.8253 H 0.0" /><rect class="sym" height="6" width="6" x="-3" y="-3" /><text class="lab" transform="translate(0 11)">8</text></g><path class="edge" d="M 0 0 V -17.2687 H -7.6" /><circle class="sym" cx="0" cy="0" r="3" /><text class="lab rgt" transform="translate(3 -7.0)">17</text></g><path class="edge" d="M 0 0 V -41.2147 H -20.9" /><circle class="sym" cx="0" cy="0" r="3" /><text class="lab rgt" transform="translate(3 -7.0)">21</text></g><g class="a27 c1 node n22 p0" transform="translate(-20.9 40.7216)"><g class="a22 c2 node n11 p0" transform="translate(0.0 31.8452)"><g class="a11 leaf node n0 p0 sample" transform="translate(-11.4 10.7419)"><path class="edge" d="M 0 0 V -10.7419 H 11.4" /><rect class="sym" height="6" width="6" x="-3" y="-3" /><text class="lab" transform="translate(0 11)">0</text></g><g class="a11 c2 node n10 p0" transform="translate(11.4 2.8816)"><g class="a10 leaf node n1 p0 sample" transform="translate(-7.6 7.86032)"><path class="edge" d="M 0 0 V -7.86032 H 7.6" /><rect class="sym" height="6" width="6" x="-3" y="-3" /><text class="lab" transform="translate(0 11)">1</text></g><g class="a10 leaf node n3 p0 sample" transform="translate(7.6 7.86032)"><path class="edge" d="M 0 0 V -7.86032 H -7.6" /><rect class="sym" height="6" width="6" x="-3" y="-3" /><text class="lab" transform="translate(0 11)">3</text></g><path class="edge" d="M 0 0 V -2.8816 H -11.4" /><circle class="sym" cx="0" cy="0" r="3" /><text class="lab rgt" transform="translate(3 -7.0)">10</text></g><path class="edge" d="M 0 0 V -31.8452 H 0.0" /><circle class="sym" cx="0" cy="0" r="3" /><text class="lab lft" transform="translate(-3 -7.0)">11</text></g><path class="edge" d="M 0 0 V -40.7216 H 20.9" /><circle class="sym" cx="0" cy="0" r="3" /><text class="lab lft" transform="translate(-3 -7.0)">22</text></g><path class="edge" d="M 0 0 V -11.2912 H 36.1" /><circle class="sym" cx="0" cy="0" r="3" /><text class="lab lft" transform="translate(-3 -7.0)">27</text></g><g class="a30 c1 node n29 p0" transform="translate(36.1 6.20648)"><g class="a29 c2 node n28 p0" transform="translate(0.0 3.85547)"><g class="a28 c1 node n25 p0" transform="translate(-20.9 33.4182)"><g class="a25 c1 node n19 p0" transform="translate(0.0 10.7552)"><g class="a19 c2 node n18 p0" transform="translate(0.0 8.8691)"><g class="a18 leaf node n4 p0 sample" transform="translate(-7.6 31.4956)"><path class="edge" d="M 0 0 V -31.4956 H 7.6" /><rect class="sym" height="6" width="6" x="-3" y="-3" /><text class="lab" transform="translate(0 11)">4</text></g><g class="a18 c1 node n14 p0" transform="translate(7.6 8.46814)"><g class="a14 leaf node n6 p0 sample" transform="translate(0.0 23.0274)"><path class="edge" d="M 0 0 V -23.0274 H 0.0" /><rect class="sym" height="6" width="6" x="-3" y="-3" /><text class="lab" transform="translate(0 11)">6</text></g><path class="edge" d="M 0 0 V -8.46814 H -7.6" /><circle class="sym" cx="0" cy="0" r="3" /><text class="lab rgt" transform="translate(3 -7.0)">14</text></g><path class="edge" d="M 0 0 V -8.8691 H 0.0" /><circle class="sym" cx="0" cy="0" r="3" /><text class="lab lft" transform="translate(-3 -7.0)">18</text></g><path class="edge" d="M 0 0 V -10.7552 H 0.0" /><circle class="sym" cx="0" cy="0" r="3" /><text class="lab lft" transform="translate(-3 -7.0)">19</text></g><path class="edge" d="M 0 0 V -33.4182 H 20.9" /><circle class="sym" cx="0" cy="0" r="3" /><text class="lab lft" transform="translate(-3 -7.0)">25</text></g><g class="a28 c1 node n26 p0" transform="translate(20.9 24.774)"><g class="a26 c1 node n24 p0" transform="translate(0.0 12.5953)"><g class="a24 c2 node n13 p0" transform="translate(0.0 25.7857)"><g class="a13 leaf node n9 p0 sample" transform="translate(11.4 21.383)"><path class="edge" d="M 0 0 V -21.383 H -11.4" /><rect class="sym" height="6" width="6" x="-3" y="-3" /><text class="lab" transform="translate(0 11)">9</text></g><g class="a13 c2 node n12 p0" transform="translate(-11.4 1.68407)"><g class="a12 leaf node n5 p0 sample" transform="translate(-7.6 19.6989)"><path class="edge" d="M 0 0 V -19.6989 H 7.6" /><rect class="sym" height="6" width="6" x="-3" y="-3" /><text class="lab" transform="translate(0 11)">5</text></g><g class="a12 leaf node n7 p0 sample" transform="translate(7.6 19.6989)"><path class="edge" d="M 0 0 V -19.6989 H -7.6" /><rect class="sym" height="6" width="6" x="-3" y="-3" /><text class="lab" transform="translate(0 11)">7</text></g><path class="edge" d="M 0 0 V -1.68407 H 11.4" /><circle class="sym" cx="0" cy="0" r="3" /><text class="lab lft" transform="translate(-3 -7.0)">12</text></g><path class="edge" d="M 0 0 V -25.7857 H 0.0" /><circle class="sym" cx="0" cy="0" r="3" /><text class="lab lft" transform="translate(-3 -7.0)">13</text></g><path class="edge" d="M 0 0 V -12.5953 H 0.0" /><circle class="sym" cx="0" cy="0" r="3" /><text class="lab lft" transform="translate(-3 -7.0)">24</text></g><path class="edge" d="M 0 0 V -24.774 H -20.9" /><circle class="sym" cx="0" cy="0" r="3" /><text class="lab rgt" transform="translate(3 -7.0)">26</text></g><path class="edge" d="M 0 0 V -3.85547 H 0.0" /><circle class="sym" cx="0" cy="0" r="3" /><text class="lab lft" transform="translate(-3 -7.0)">28</text></g><path class="edge" d="M 0 0 V -6.20648 H -36.1" /><circle class="sym" cx="0" cy="0" r="3" /><text class="lab rgt" transform="translate(3 -7.0)">29</text></g><circle class="sym" cx="0" cy="0" r="3" /><text class="lab" transform="translate(0 -11)">30</text></g></g></g><g class="tree t3" transform="translate(596 0)"><g class="plotbox"><g class="c2 node n30 p0 root" transform="translate(96 26.8)"><g class="a30 c2 node n27 p0" transform="translate(-36.1 11.2912)"><g class="a27 c2 node n21 p0" transform="translate(20.9 41.2147)"><g class="a21 leaf node n2 p0 sample" transform="translate(-7.6 42.094)"><path class="edge" d="M 0 0 V -42.094 H 7.6" /><rect class="sym" height="6" width="6" x="-3" y="-3" /><text class="lab" transform="translate(0 11)">2</text></g><g class="a21 c1 node n17 p0" transform="translate(7.6 17.2687)"><g class="a17 leaf node n8 p0 sample" transform="translate(0.0 24.8253)"><path class="edge" d="M 0 0 V -24.8253 H 0.0" /><rect class="sym" height="6" width="6" x="-3" y="-3" /><text class="lab" transform="translate(0 11)">8</text></g><path class="edge" d="M 0 0 V -17.2687 H -7.6" /><circle class="sym" cx="0" cy="0" r="3" /><text class="lab rgt" transform="translate(3 -7.0)">17</text></g><path class="edge" d="M 0 0 V -41.2147 H -20.9" /><circle class="sym" cx="0" cy="0" r="3" /><text class="lab rgt" transform="translate(3 -7.0)">21</text></g><g class="a27 c1 node n22 p0" transform="translate(-20.9 40.7216)"><g class="a22 c2 node n11 p0" transform="translate(0.0 31.8452)"><g class="a11 leaf node n0 p0 sample" transform="translate(-11.4 10.7419)"><path class="edge" d="M 0 0 V -10.7419 H 11.4" /><rect class="sym" height="6" width="6" x="-3" y="-3" /><text class="lab" transform="translate(0 11)">0</text></g><g class="a11 c2 node n10 p0" transform="translate(11.4 2.8816)"><g class="a10 leaf node n1 p0 sample" transform="translate(-7.6 7.86032)"><path class="edge" d="M 0 0 V -7.86032 H 7.6" /><rect class="sym" height="6" width="6" x="-3" y="-3" /><text class="lab" transform="translate(0 11)">1</text></g><g class="a10 leaf node n3 p0 sample" transform="translate(7.6 7.86032)"><path class="edge" d="M 0 0 V -7.86032 H -7.6" /><rect class="sym" height="6" width="6" x="-3" y="-3" /><text class="lab" transform="translate(0 11)">3</text></g><path class="edge" d="M 0 0 V -2.8816 H -11.4" /><circle class="sym" cx="0" cy="0" r="3" /><text class="lab rgt" transform="translate(3 -7.0)">10</text></g><path class="edge" d="M 0 0 V -31.8452 H 0.0" /><circle class="sym" cx="0" cy="0" r="3" /><text class="lab lft" transform="translate(-3 -7.0)">11</text></g><path class="edge" d="M 0 0 V -40.7216 H 20.9" /><circle class="sym" cx="0" cy="0" r="3" /><text class="lab lft" transform="translate(-3 -7.0)">22</text></g><path class="edge" d="M 0 0 V -11.2912 H 36.1" /><circle class="sym" cx="0" cy="0" r="3" /><text class="lab lft" transform="translate(-3 -7.0)">27</text></g><g class="a30 c1 node n29 p0" transform="translate(36.1 6.20648)"><g class="a29 c1 node n28 p0" transform="translate(0.0 3.85547)"><g class="a28 c2 node n26 p0" transform="translate(0.0 24.774)"><g class="a26 c1 node n24 p0" transform="translate(20.9 12.5953)"><g class="a24 c2 node n13 p0" transform="translate(0.0 25.7857)"><g class="a13 leaf node n9 p0 sample" transform="translate(11.4 21.383)"><path class="edge" d="M 0 0 V -21.383 H -11.4" /><rect class="sym" height="6" width="6" x="-3" y="-3" /><text class="lab" transform="translate(0 11)">9</text></g><g class="a13 c2 node n12 p0" transform="translate(-11.4 1.68407)"><g class="a12 leaf node n5 p0 sample" transform="translate(-7.6 19.6989)"><path class="edge" d="M 0 0 V -19.6989 H 7.6" /><rect class="sym" height="6" width="6" x="-3" y="-3" /><text class="lab" transform="translate(0 11)">5</text></g><g class="a12 leaf node n7 p0 sample" transform="translate(7.6 19.6989)"><path class="edge" d="M 0 0 V -19.6989 H -7.6" /><rect class="sym" height="6" width="6" x="-3" y="-3" /><text class="lab" transform="translate(0 11)">7</text></g><path class="edge" d="M 0 0 V -1.68407 H 11.4" /><circle class="sym" cx="0" cy="0" r="3" /><text class="lab lft" transform="translate(-3 -7.0)">12</text></g><path class="edge" d="M 0 0 V -25.7857 H 0.0" /><circle class="sym" cx="0" cy="0" r="3" /><text class="lab lft" transform="translate(-3 -7.0)">13</text></g><path class="edge" d="M 0 0 V -12.5953 H -20.9" /><circle class="sym" cx="0" cy="0" r="3" /><text class="lab rgt" transform="translate(3 -7.0)">24</text></g><g class="a26 c1 node n20 p0" transform="translate(-20.9 19.3994)"><g class="a20 c2 node n18 p0" transform="translate(0.0 8.8691)"><g class="a18 leaf node n4 p0 sample" transform="translate(-7.6 31.4956)"><path class="edge" d="M 0 0 V -31.4956 H 7.6" /><rect class="sym" height="6" width="6" x="-3" y="-3" /><text class="lab" transform="translate(0 11)">4</text></g><g class="a18 c1 node n14 p0" transform="translate(7.6 8.46814)"><g class="a14 leaf node n6 p0 sample" transform="translate(0.0 23.0274)"><path class="edge" d="M 0 0 V -23.0274 H 0.0" /><rect class="sym" height="6" width="6" x="-3" y="-3" /><text class="lab" transform="translate(0 11)">6</text></g><path class="edge" d="M 0 0 V -8.46814 H -7.6" /><circle class="sym" cx="0" cy="0" r="3" /><text class="lab rgt" transform="translate(3 -7.0)">14</text></g><path class="edge" d="M 0 0 V -8.8691 H 0.0" /><circle class="sym" cx="0" cy="0" r="3" /><text class="lab lft" transform="translate(-3 -7.0)">18</text></g><path class="edge" d="M 0 0 V -19.3994 H 20.9" /><circle class="sym" cx="0" cy="0" r="3" /><text class="lab lft" transform="translate(-3 -7.0)">20</text></g><path class="edge" d="M 0 0 V -24.774 H 0.0" /><circle class="sym" cx="0" cy="0" r="3" /><text class="lab lft" transform="translate(-3 -7.0)">26</text></g><path class="edge" d="M 0 0 V -3.85547 H 0.0" /><circle class="sym" cx="0" cy="0" r="3" /><text class="lab lft" transform="translate(-3 -7.0)">28</text></g><path class="edge" d="M 0 0 V -6.20648 H -36.1" /><circle class="sym" cx="0" cy="0" r="3" /><text class="lab rgt" transform="translate(3 -7.0)">29</text></g><circle class="sym" cx="0" cy="0" r="3" /><text class="lab" transform="translate(0 -11)">30</text></g></g></g><g class="tree t4" transform="translate(788 0)"><g class="plotbox"><g class="c2 node n30 p0 root" transform="translate(105.975 26.8)"><g class="a30 c2 node n27 p0" transform="translate(-29.925 11.2912)"><g class="a27 c2 node n21 p0" transform="translate(19.95 41.2147)"><g class="a21 leaf node n2 p0 sample" transform="translate(-7.6 42.094)"><path class="edge" d="M 0 0 V -42.094 H 7.6" /><rect class="sym" height="6" width="6" x="-3" y="-3" /><text class="lab" transform="translate(0 11)">2</text></g><g class="a21 c1 node n17 p0" transform="translate(7.6 17.2687)"><g class="a17 leaf node n8 p0 sample" transform="translate(0.0 24.8253)"><path class="edge" d="M 0 0 V -24.8253 H 0.0" /><rect class="sym" height="6" width="6" x="-3" y="-3" /><text class="lab" transform="translate(0 11)">8</text></g><path class="edge" d="M 0 0 V -17.2687 H -7.6" /><circle class="sym" cx="0" cy="0" r="3" /><text class="lab rgt" transform="translate(3 -7.0)">17</text></g><path class="edge" d="M 0 0 V -41.2147 H -19.95" /><circle class="sym" cx="0" cy="0" r="3" /><text class="lab rgt" transform="translate(3 -7.0)">21</text></g><g class="a27 c2 node n22 p0" transform="translate(-19.95 40.7216)"><g class="a22 c2 node n11 p0" transform="translate(-17.1 31.8452)"><g class="a11 leaf node n0 p0 sample" transform="translate(-11.4 10.7419)"><path class="edge" d="M 0 0 V -10.7419 H 11.4" /><rect class="sym" height="6" width="6" x="-3" y="-3" /><text class="lab" transform="translate(0 11)">0</text></g><g class="a11 c2 node n10 p0" transform="translate(11.4 2.8816)"><g class="a10 leaf node n1 p0 sample" transform="translate(-7.6 7.86032)"><path class="edge" d="M 0 0 V -7.86032 H 7.6" /><rect class="sym" height="6" width="6" x="-3" y="-3" /><text class="lab" transform="translate(0 11)">1</text></g><g class="a10 leaf node n3 p0 sample" transform="translate(7.6 7.86032)"><path class="edge" d="M 0 0 V -7.86032 H -7.6" /><rect class="sym" height="6" width="6" x="-3" y="-3" /><text class="lab" transform="translate(0 11)">3</text></g><path class="edge" d="M 0 0 V -2.8816 H -11.4" /><circle class="sym" cx="0" cy="0" r="3" /><text class="lab rgt" transform="translate(3 -7.0)">10</text></g><path class="edge" d="M 0 0 V -31.8452 H 17.1" /><circle class="sym" cx="0" cy="0" r="3" /><text class="lab lft" transform="translate(-3 -7.0)">11</text></g><g class="a22 c1 node n15 p0" transform="translate(17.1 19.5597)"><g class="a15 leaf node n6 p0 sample" transform="translate(0.0 23.0274)"><path class="edge" d="M 0 0 V -23.0274 H 0.0" /><rect class="sym" height="6" width="6" x="-3" y="-3" /><text class="lab" transform="translate(0 11)">6</text></g><path class="edge" d="M 0 0 V -19.5597 H -17.1" /><circle class="sym" cx="0" cy="0" r="3" /><text class="lab rgt" transform="translate(3 -7.0)">15</text></g><path class="edge" d="M 0 0 V -40.7216 H 19.95" /><circle class="sym" cx="0" cy="0" r="3" /><text class="lab lft" transform="translate(-3 -7.0)">22</text></g><path class="edge" d="M 0 0 V -11.2912 H 29.925" /><circle class="sym" cx="0" cy="0" r="3" /><text class="lab lft" transform="translate(-3 -7.0)">27</text></g><g class="a30 c1 node n29 p0" transform="translate(29.925 6.20648)"><g class="a29 c1 node n28 p0" transform="translate(0.0 3.85547)"><g class="a28 c2 node n26 p0" transform="translate(0.0 24.774)"><g class="a26 c1 node n24 p0" transform="translate(17.1 12.5953)"><g class="a24 c2 node n13 p0" transform="translate(0.0 25.7857)"><g class="a13 leaf node n9 p0 sample" transform="translate(11.4 21.383)"><path class="edge" d="M 0 0 V -21.383 H -11.4" /><rect class="sym" height="6" width="6" x="-3" y="-3" /><text class="lab" transform="translate(0 11)">9</text></g><g class="a13 c2 node n12 p0" transform="translate(-11.4 1.68407)"><g class="a12 leaf node n5 p0 sample" transform="translate(-7.6 19.6989)"><path class="edge" d="M 0 0 V -19.6989 H 7.6" /><rect class="sym" height="6" width="6" x="-3" y="-3" /><text class="lab" transform="translate(0 11)">5</text></g><g class="a12 leaf node n7 p0 sample" transform="translate(7.6 19.6989)"><path class="edge" d="M 0 0 V -19.6989 H -7.6" /><rect class="sym" height="6" width="6" x="-3" y="-3" /><text class="lab" transform="translate(0 11)">7</text></g><path class="edge" d="M 0 0 V -1.68407 H 11.4" /><circle class="sym" cx="0" cy="0" r="3" /><text class="lab lft" transform="translate(-3 -7.0)">12</text></g><path class="edge" d="M 0 0 V -25.7857 H 0.0" /><circle class="sym" cx="0" cy="0" r="3" /><text class="lab lft" transform="translate(-3 -7.0)">13</text></g><path class="edge" d="M 0 0 V -12.5953 H -17.1" /><circle class="sym" cx="0" cy="0" r="3" /><text class="lab rgt" transform="translate(3 -7.0)">24</text></g><g class="a26 c1 node n20 p0" transform="translate(-17.1 19.3994)"><g class="a20 c1 node n18 p0" transform="translate(0.0 8.8691)"><g class="a18 leaf node n4 p0 sample" transform="translate(0.0 31.4956)"><path class="edge" d="M 0 0 V -31.4956 H 0.0" /><rect class="sym" height="6" width="6" x="-3" y="-3" /><text class="lab" transform="translate(0 11)">4</text></g><path class="edge" d="M 0 0 V -8.8691 H 0.0" /><circle class="sym" cx="0" cy="0" r="3" /><text class="lab lft" transform="translate(-3 -7.0)">18</text></g><path class="edge" d="M 0 0 V -19.3994 H 17.1" /><circle class="sym" cx="0" cy="0" r="3" /><text class="lab lft" transform="translate(-3 -7.0)">20</text></g><path class="edge" d="M 0 0 V -24.774 H 0.0" /><circle class="sym" cx="0" cy="0" r="3" /><text class="lab lft" transform="translate(-3 -7.0)">26</text></g><path class="edge" d="M 0 0 V -3.85547 H 0.0" /><circle class="sym" cx="0" cy="0" r="3" /><text class="lab lft" transform="translate(-3 -7.0)">28</text></g><path class="edge" d="M 0 0 V -6.20648 H -29.925" /><circle class="sym" cx="0" cy="0" r="3" /><text class="lab rgt" transform="translate(3 -7.0)">29</text></g><circle class="sym" cx="0" cy="0" r="3" /><text class="lab" transform="translate(0 -11)">30</text></g></g></g></g></g></svg>
