<svg baseProfile="full" height="200" version="1.1" width="800" xmlns="http://www.w3.org/2000/svg" xmlns:ev="http://www.w3.org/2001/xml-events" xmlns:xlink="http://www.w3.org/1999/xlink"><defs><style type="text/css"><![CDATA[.background path {fill: #808080; fill-opacity: 0}.background path:nth-child(odd) {fill-opacity: .1}.axes {font-size: 14px}.x-axis .tick .lab {font-weight: bold; dominant-baseline: hanging}.axes, .tree {font-size: 14px; text-anchor: middle}.axes line, .edge {stroke: black; fill: none}.y-axis .grid {stroke: #FAFAFA}.node > .sym {fill: black; stroke: none}.site > .sym {stroke: black}.mut text {fill: red; font-style: italic}.mut.extra text {fill: hotpink}.mut line {fill: none; stroke: none}.mut .sym {fill: none; stroke: red}.mut.extra .sym {stroke: hotpink}.node .mut .sym {stroke-width: 1.5px}.tree text, .tree-sequence text {dominant-baseline: central}.plotbox .lab.lft {text-anchor: end}.plotbox .lab.rgt {text-anchor: start}]]></style></defs><g class="tree-sequence"><g class="background"><path d="M20,0 l190,0 l0,138.2 l-150.766,25 l0,5 l-39.2341,0 l0,-5 l0,-25 l0,-138.2z" /><path d="M210,0 l190,0 l0,138.2 l260.738,25 l0,5 l-601.504,0 l0,-5 l150.766,-25 l0,-138.2z" /><path d="M400,0 l190,0 l0,138.2 l113.625,25 l0,5 l-42.8878,0 l0,-5 l-260.738,-25 l0,-138.2z" /><path d="M590,0 l190,0 l0,138.2 l0,25 l0,5 l-76.3746,0 l0,-5 l-113.625,-25 l0,-138.2z" /></g><g class="axes"><g class="x-axis"><g transform="translate(400 200)"><text class="lab" text-anchor="middle" transform="translate(0 -11)">Genome position</text></g><line x1="20" x2="780" y1="163.2" y2="163.2" /><g class="ticks"><g class="tick" transform="translate(20 163.2)"><line x1="0" x2="0" y1="0" y2="5" /><g transform="translate(0 6)"><text class="lab">0.00</text></g></g><g class="tick" transform="translate(59.2341 163.2)"><line x1="0" x2="0" y1="0" y2="5" /><g transform="translate(0 6)"><text class="lab">51.62</text></g></g><g class="tick" transform="translate(660.738 163.2)"><line x1="0" x2="0" y1="0" y2="5" /><g transform="translate(0 6)"><text class="lab">843.08</text></g></g><g class="tick" transform="translate(703.625 163.2)"><line x1="0" x2="0" y1="0" y2="5" /><g transform="translate(0 6)"><text class="lab">899.51</text></g></g><g class="tick" transform="translate(780 163.2)"><line x1="0" x2="0" y1="0" y2="5" /><g transform="translate(0 6)"><text class="lab">1000.00</text></g></g></g></g></g><g class="plotbox trees"><g class="tree t0" transform="translate(20 0)"><g class="plotbox"><g class="c2 node n27 p0 root" transform="translate(96.4062 26.8)"><g class="a27 c1 node n25 p0" transform="translate(46.4062 24.8248)"><g class="a25 c2 node n22 p0" transform="translate(0.0 20.6255)"><g class="a22 leaf node n6 p0 sample" transform="translate(19.6875 49.1496)"><path class="edge" d="M 0 0 V -49.1496 H -19.6875" /><rect class="sym" height="6" width="6" x="-3" y="-3" /><text class="lab" transform="translate(0 11)">6</text></g><g class="a22 c2 node n15 p0" transform="translate(-19.6875 34.0118)"><g class="a15 c2 node n11 p0" transform="translate(-16.875 11.0081)"><g class="a11 leaf node n5 p0 sample" transform="translate(11.25 4.1297)"><path class="edge" d="M 0 0 V -4.1297 H -11.25" /><rect class="sym" height="6" width="6" x="-3" y="-3" /><text class="lab" transform="translate(0 11)">5</text></g><g class="a11 c2 node n10 p0" transform="translate(-11.25 1.62628)"><g class="a10 leaf node n2 p0 sample" transform="translate(-7.5 2.50342)"><path class="edge" d="M 0 0 V -2.50342 H 7.5" /><rect class="sym" height="6" width="6" x="-3" y="-3" /><text class="lab" transform="translate(0 11)">2</text></g><g class="a10 leaf node n4 p0 sample" transform="translate(7.5 2.50342)"><path class="edge" d="M 0 0 V -2.50342 H -7.5" /><rect class="sym" height="6" width="6" x="-3" y="-3" /><text class="lab" transform="translate(0 11)">4</text></g><path class="edge" d="M 0 0 V -1.62628 H 11.25" /><circle class="sym" cx="0" cy="0" r="3" /><text class="lab lft" transform="translate(-3 -7.0)">10</text></g><path class="edge" d="M 0 0 V -11.0081 H 16.875" /><circle class="sym" cx="0" cy="0" r="3" /><text class="lab lft" transform="translate(-3 -7.0)">11</text></g><g class="a15 c2 node n14 p0" transform="translate(16.875 0.90118)"><g class="a14 leaf node n8 p0 sample" transform="translate(-7.5 14.2366)"><path class="edge" d="M 0 0 V -14.2366 H 7.5" /><rect class="sym" height="6" width="6" x="-3" y="-3" /><text class="lab" transform="translate(0 11)">8</text></g><g class="a14 leaf node n9 p0 sample" transform="translate(7.5 14.2366)"><path class="edge" d="M 0 0 V -14.2366 H -7.5" /><rect class="sym" height="6" width="6" x="-3" y="-3" /><text class="lab" transform="translate(0 11)">9</text></g><path class="edge" d="M 0 0 V -0.90118 H -16.875" /><circle class="sym" cx="0" cy="0" r="3" /><text class="lab rgt" transform="translate(3 -7.0)">14</text></g><path class="edge" d="M 0 0 V -34.0118 H 19.6875" /><circle class="sym" cx="0" cy="0" r="3" /><text class="lab lft" transform="translate(-3 -7.0)">15</text></g><path class="edge" d="M 0 0 V -20.6255 H 0.0" /><circle class="sym" cx="0" cy="0" r="3" /><text class="lab lft" transform="translate(-3 -7.0)">22</text></g><path class="edge" d="M 0 0 V -24.8248 H -46.4062" /><circle class="sym" cx="0" cy="0" r="3" /><text class="lab rgt" transform="translate(3 -7.0)">25</text></g><g class="a27 c2 node n26 p0" transform="translate(-46.4062 8.22941)"><g class="a26 c1 node n19 p0" transform="translate(-15 45.2947)"><g class="a19 c2 node n16 p0" transform="translate(0.0 24.6897)"><g class="a16 leaf node n0 p0 sample" transform="translate(-7.5 16.3862)"><path class="edge" d="M 0 0 V -16.3862 H 7.5" /><rect class="sym" height="6" width="6" x="-3" y="-3" /><text class="lab" transform="translate(0 11)">0</text></g><g class="a16 leaf node n7 p0 sample" transform="translate(7.5 16.3862)"><path class="edge" d="M 0 0 V -16.3862 H -7.5" /><rect class="sym" height="6" width="6" x="-3" y="-3" /><text class="lab" transform="translate(0 11)">7</text></g><path class="edge" d="M 0 0 V -24.6897 H 0.0" /><circle class="sym" cx="0" cy="0" r="3" /><text class="lab lft" transform="translate(-3 -7.0)">16</text></g><path class="edge" d="M 0 0 V -45.2947 H 15" /><circle class="sym" cx="0" cy="0" r="3" /><text class="lab lft" transform="translate(-3 -7.0)">19</text></g><g class="a26 c2 node n24 p0" transform="translate(15 28.5502)"><g class="a24 leaf node n3 p0 sample" transform="translate(7.5 57.8204)"><path class="edge" d="M 0 0 V -57.8204 H -7.5" /><rect class="sym" height="6" width="6" x="-3" y="-3" /><text class="lab" transform="translate(0 11)">3</text></g><g class="a24 c1 node n23 p0" transform="translate(-7.5 0.63229)"><g class="a23 c1 node n12 p0" transform="translate(0.0 44.6023)"><g class="a12 leaf node n1 p0 sample" transform="translate(0.0 12.5858)"><path class="edge" d="M 0 0 V -12.5858 H 0.0" /><rect class="sym" height="6" width="6" x="-3" y="-3" /><text class="lab" transform="translate(0 11)">1</text></g><path class="edge" d="M 0 0 V -44.6023 H 0.0" /><circle class="sym" cx="0" cy="0" r="3" /><text class="lab lft" transform="translate(-3 -7.0)">12</text></g><path class="edge" d="M 0 0 V -0.63229 H 7.5" /><circle class="sym" cx="0" cy="0" r="3" /><text class="lab lft" transform="translate(-3 -7.0)">23</text></g><path class="edge" d="M 0 0 V -28.5502 H -15" /><circle class="sym" cx="0" cy="0" r="3" /><text class="lab rgt" transform="translate(3 -7.0)">24</text></g><path class="edge" d="M 0 0 V -8.22941 H 46.4062" /><circle class="sym" cx="0" cy="0" r="3" /><text class="lab lft" transform="translate(-3 -7.0)">26</text></g><circle class="sym" cx="0" cy="0" r="3" /><text class="lab" transform="translate(0 -11)">27</text></g></g></g><g class="tree t1" transform="translate(210 0)"><g class="plotbox"><g class="c2 node n27 p0 root" transform="translate(76.9531 26.8)"><g class="a27 c2 node n25 p0" transform="translate(30.7031 24.8248)"><g class="a25 c2 node n22 p0" transform="translate(35.1562 20.6255)"><g class="a22 leaf node n6 p0 sample" transform="translate(19.6875 49.1496)"><path class="edge" d="M 0 0 V -49.1496 H -19.6875" /><rect class="sym" height="6" width="6" x="-3" y="-3" /><text class="lab" transform="translate(0 11)">6</text></g><g class="a22 c2 node n15 p0" transform="translate(-19.6875 34.0118)"><g class="a15 c2 node n11 p0" transform="translate(-16.875 11.0081)"><g class="a11 leaf node n5 p0 sample" transform="translate(11.25 4.1297)"><path class="edge" d="M 0 0 V -4.1297 H -11.25" /><rect class="sym" height="6" width="6" x="-3" y="-3" /><text class="lab" transform="translate(0 11)">5</text></g><g class="a11 c2 node n10 p0" transform="translate(-11.25 1.62628)"><g class="a10 leaf node n2 p0 sample" transform="translate(-7.5 2.50342)"><path class="edge" d="M 0 0 V -2.50342 H 7.5" /><rect class="sym" height="6" width="6" x="-3" y="-3" /><text class="lab" transform="translate(0 11)">2</text></g><g class="a10 leaf node n4 p0 sample" transform="translate(7.5 2.50342)"><path class="edge" d="M 0 0 V -2.50342 H -7.5" /><rect class="sym" height="6" width="6" x="-3" y="-3" /><text class="lab" transform="translate(0 11)">4</text></g><path class="edge" d="M 0 0 V -1.62628 H 11.25" /><circle class="sym" cx="0" cy="0" r="3" /><text class="lab lft" transform="translate(-3 -7.0)">10</text></g><path class="edge" d="M 0 0 V -11.0081 H 16.875" /><circle class="sym" cx="0" cy="0" r="3" /><text class="lab lft" transform="translate(-3 -7.0)">11</text></g><g class="a15 c2 node n14 p0" transform="translate(16.875 0.90118)"><g class="a14 leaf node n8 p0 sample" transform="translate(-7.5 14.2366)"><path class="edge" d="M 0 0 V -14.2366 H 7.5" /><rect class="sym" height="6" width="6" x="-3" y="-3" /><text class="lab" transform="translate(0 11)">8</text></g><g class="a14 leaf node n9 p0 sample" transform="translate(7.5 14.2366)"><path class="edge" d="M 0 0 V -14.2366 H -7.5" /><rect class="sym" height="6" width="6" x="-3" y="-3" /><text class="lab" transform="translate(0 11)">9</text></g><path class="edge" d="M 0 0 V -0.90118 H -16.875" /><circle class="sym" cx="0" cy="0" r="3" /><text class="lab rgt" transform="translate(3 -7.0)">14</text></g><path class="edge" d="M 0 0 V -34.0118 H 19.6875" /><circle class="sym" cx="0" cy="0" r="3" /><text class="lab lft" transform="translate(-3 -7.0)">15</text></g><path class="edge" d="M 0 0 V -20.6255 H -35.1562" /><circle class="sym" cx="0" cy="0" r="3" /><text class="lab rgt" transform="translate(3 -7.0)">22</text></g><g class="a25 c1 node n21 p0" transform="translate(-35.1562 24.8502)"><g class="a21 c1 node n17 p0" transform="translate(0.0 13.4456)"><g class="a17 c1 node n13 p0" transform="translate(0.0 18.8936)"><g class="a13 leaf node n1 p0 sample" transform="translate(0.0 12.5858)"><path class="edge" d="M 0 0 V -12.5858 H 0.0" /><rect class="sym" height="6" width="6" x="-3" y="-3" /><text class="lab" transform="translate(0 11)">1</text></g><path class="edge" d="M 0 0 V -18.8936 H 0.0" /><circle class="sym" cx="0" cy="0" r="3" /><text class="lab lft" transform="translate(-3 -7.0)">13</text></g><path class="edge" d="M 0 0 V -13.4456 H 0.0" /><circle class="sym" cx="0" cy="0" r="3" /><text class="lab lft" transform="translate(-3 -7.0)">17</text></g><path class="edge" d="M 0 0 V -24.8502 H 35.1562" /><circle class="sym" cx="0" cy="0" r="3" /><text class="lab lft" transform="translate(-3 -7.0)">21</text></g><path class="edge" d="M 0 0 V -24.8248 H -30.7031" /><circle class="sym" cx="0" cy="0" r="3" /><text class="lab rgt" transform="translate(3 -7.0)">25</text></g><g class="a27 c2 node n26 p0" transform="translate(-30.7031 8.22941)"><g class="a26 c1 node n19 p0" transform="translate(-11.25 45.2947)"><g class="a19 c2 node n16 p0" transform="translate(0.0 24.6897)"><g class="a16 leaf node n0 p0 sample" transform="translate(-7.5 16.3862)"><path class="edge" d="M 0 0 V -16.3862 H 7.5" /><rect class="sym" height="6" width="6" x="-3" y="-3" /><text class="lab" transform="translate(0 11)">0</text></g><g class="a16 leaf node n7 p0 sample" transform="translate(7.5 16.3862)"><path class="edge" d="M 0 0 V -16.3862 H -7.5" /><rect class="sym" height="6" width="6" x="-3" y="-3" /><text class="lab" transform="translate(0 11)">7</text></g><path class="edge" d="M 0 0 V -24.6897 H 0.0" /><circle class="sym" cx="0" cy="0" r="3" /><text class="lab lft" transform="translate(-3 -7.0)">16</text></g><path class="edge" d="M 0 0 V -45.2947 H 11.25" /><circle class="sym" cx="0" cy="0" r="3" /><text class="lab lft" transform="translate(-3 -7.0)">19</text></g><g class="a26 c1 node n24 p0" transform="translate(11.25 28.5502)"><g class="a24 leaf node n3 p0 sample" transform="translate(0.0 57.8204)"><path class="edge" d="M 0 0 V -57.8204 H 0.0" /><rect class="sym" height="6" width="6" x="-3" y="-3" /><text class="lab" transform="translate(0 11)">3</text></g><path class="edge" d="M 0 0 V -28.5502 H -11.25" /><circle class="sym" cx="0" cy="0" r="3" /><text class="lab rgt" transform="translate(3 -7.0)">24</text></g><path class="edge" d="M 0 0 V -8.22941 H 30.7031" /><circle class="sym" cx="0" cy="0" r="3" /><text class="lab lft" transform="translate(-3 -7.0)">26</text></g><circle class="sym" cx="0" cy="0" r="3" /><text class="lab" transform="translate(0 -11)">27</text></g></g></g><g class="tree t2" transform="translate(400 0)"><g class="plotbox"><g class="c2 node n27 p0 root" transform="translate(124.766 26.8)"><g class="a27 c2 node n25 p0" transform="translate(-37.7344 24.8248)"><g class="a25 c2 node n22 p0" transform="translate(40.7812 20.6255)"><g class="a22 leaf node n6 p0 sample" transform="translate(19.6875 49.1496)"><path class="edge" d="M 0 0 V -49.1496 H -19.6875" /><rect class="sym" height="6" width="6" x="-3" y="-3" /><text class="lab" transform="translate(0 11)">6</text></g><g class="a22 c2 node n15 p0" transform="translate(-19.6875 34.0118)"><g class="a15 c2 node n11 p0" transform="translate(-16.875 11.0081)"><g class="a11 leaf node n5 p0 sample" transform="translate(11.25 4.1297)"><path class="edge" d="M 0 0 V -4.1297 H -11.25" /><rect class="sym" height="6" width="6" x="-3" y="-3" /><text class="lab" transform="translate(0 11)">5</text></g><g class="a11 c2 node n10 p0" transform="translate(-11.25 1.62628)"><g class="a10 leaf node n2 p0 sample" transform="translate(-7.5 2.50342)"><path class="edge" d="M 0 0 V -2.50342 H 7.5" /><rect class="sym" height="6" width="6" x="-3" y="-3" /><text class="lab" transform="translate(0 11)">2</text></g><g class="a10 leaf node n4 p0 sample" transform="translate(7.5 2.50342)"><path class="edge" d="M 0 0 V -2.50342 H -7.5" /><rect class="sym" height="6" width="6" x="-3" y="-3" /><text class="lab" transform="translate(0 11)">4</text></g><path class="edge" d="M 0 0 V -1.62628 H 11.25" /><circle class="sym" cx="0" cy="0" r="3" /><text class="lab lft" transform="translate(-3 -7.0)">10</text></g><path class="edge" d="M 0 0 V -11.0081 H 16.875" /><circle class="sym" cx="0" cy="0" r="3" /><text class="lab lft" transform="translate(-3 -7.0)">11</text></g><g class="a15 c2 node n14 p0" transform="translate(16.875 0.90118)"><g class="a14 leaf node n8 p0 sample" transform="translate(-7.5 14.2366)"><path class="edge" d="M 0 0 V -14.2366 H 7.5" /><rect class="sym" height="6" width="6" x="-3" y="-3" /><text class="lab" transform="translate(0 11)">8</text></g><g class="a14 leaf node n9 p0 sample" transform="translate(7.5 14.2366)"><path class="edge" d="M 0 0 V -14.2366 H -7.5" /><rect class="sym" height="6" width="6" x="-3" y="-3" /><text class="lab" transform="translate(0 11)">9</text></g><path class="edge" d="M 0 0 V -0.90118 H -16.875" /><circle class="sym" cx="0" cy="0" r="3" /><text class="lab rgt" transform="translate(3 -7.0)">14</text></g><path class="edge" d="M 0 0 V -34.0118 H 19.6875" /><circle class="sym" cx="0" cy="0" r="3" /><text class="lab lft" transform="translate(-3 -7.0)">15</text></g><path class="edge" d="M 0 0 V -20.6255 H -40.7812" /><circle class="sym" cx="0" cy="0" r="3" /><text class="lab rgt" transform="translate(3 -7.0)">22</text></g><g class="a25 c2 node n21 p0" transform="translate(-40.7812 24.8502)"><g class="a21 c1 node n17 p0" transform="translate(11.25 13.4456)"><g class="a17 c1 node n13 p0" transform="translate(0.0 18.8936)"><g class="a13 leaf node n1 p0 sample" transform="translate(0.0 12.5858)"><path class="edge" d="M 0 0 V -12.5858 H 0.0" /><rect class="sym" height="6" width="6" x="-3" y="-3" /><text class="lab" transform="translate(0 11)">1</text></g><path class="edge" d="M 0 0 V -18.8936 H 0.0" /><circle class="sym" cx="0" cy="0" r="3" /><text class="lab lft" transform="translate(-3 -7.0)">13</text></g><path class="edge" d="M 0 0 V -13.4456 H -11.25" /><circle class="sym" cx="0" cy="0" r="3" /><text class="lab rgt" transform="translate(3 -7.0)">17</text></g><g class="a21 c1 node n20 p0" transform="translate(-11.25 3.84905)"><g class="a20 c2 node n16 p0" transform="translate(0.0 24.6897)"><g class="a16 leaf node n0 p0 sample" transform="translate(-7.5 16.3862)"><path class="edge" d="M 0 0 V -16.3862 H 7.5" /><rect class="sym" height="6" width="6" x="-3" y="-3" /><text class="lab" transform="translate(0 11)">0</text></g><g class="a16 leaf node n7 p0 sample" transform="translate(7.5 16.3862)"><path class="edge" d="M 0 0 V -16.3862 H -7.5" /><rect class="sym" height="6" width="6" x="-3" y="-3" /><text class="lab" transform="translate(0 11)">7</text></g><path class="edge" d="M 0 0 V -24.6897 H 0.0" /><circle class="sym" cx="0" cy="0" r="3" /><text class="lab lft" transform="translate(-3 -7.0)">16</text></g><path class="edge" d="M 0 0 V -3.84905 H 11.25" /><circle class="sym" cx="0" cy="0" r="3" /><text class="lab lft" transform="translate(-3 -7.0)">20</text></g><path class="edge" d="M 0 0 V -24.8502 H 40.7812" /><circle class="sym" cx="0" cy="0" r="3" /><text class="lab lft" transform="translate(-3 -7.0)">21</text></g><path class="edge" d="M 0 0 V -24.8248 H 37.7344" /><circle class="sym" cx="0" cy="0" r="3" /><text class="lab lft" transform="translate(-3 -7.0)">25</text></g><g class="a27 c1 node n26 p0" transform="translate(37.7344 8.22941)"><g class="a26 c1 node n24 p0" transform="translate(0.0 28.5502)"><g class="a24 leaf node n3 p0 sample" transform="translate(0.0 57.8204)"><path class="edge" d="M 0 0 V -57.8204 H 0.0" /><rect class="sym" height="6" width="6" x="-3" y="-3" /><text class="lab" transform="translate(0 11)">3</text></g><path class="edge" d="M 0 0 V -28.5502 H 0.0" /><circle class="sym" cx="0" cy="0" r="3" /><text class="lab lft" transform="translate(-3 -7.0)">24</text></g><path class="edge" d="M 0 0 V -8.22941 H -37.7344" /><circle class="sym" cx="0" cy="0" r="3" /><text class="lab rgt" transform="translate(3 -7.0)">26</text></g><circle class="sym" cx="0" cy="0" r="3" /><text class="lab" transform="translate(0 -11)">27</text></g></g></g><g class="tree t3" transform="translate(590 0)"><g class="plotbox"><g class="c2 node n27 p0 root" transform="translate(114.453 26.8)"><g class="a27 c2 node n25 p0" transform="translate(-40.5469 24.8248)"><g class="a25 c2 node n22 p0" transform="translate(38.9062 20.6255)"><g class="a22 leaf node n6 p0 sample" transform="translate(19.6875 49.1496)"><path class="edge" d="M 0 0 V -49.1496 H -19.6875" /><rect class="sym" height="6" width="6" x="-3" y="-3" /><text class="lab" transform="translate(0 11)">6</text></g><g class="a22 c2 node n15 p0" transform="translate(-19.6875 34.0118)"><g class="a15 c2 node n11 p0" transform="translate(-16.875 11.0081)"><g class="a11 leaf node n5 p0 sample" transform="translate(11.25 4.1297)"><path class="edge" d="M 0 0 V -4.1297 H -11.25" /><rect class="sym" height="6" width="6" x="-3" y="-3" /><text class="lab" transform="translate(0 11)">5</text></g><g class="a11 c2 node n10 p0" transform="translate(-11.25 1.62628)"><g class="a10 leaf node n2 p0 sample" transform="translate(-7.5 2.50342)"><path class="edge" d="M 0 0 V -2.50342 H 7.5" /><rect class="sym" height="6" width="6" x="-3" y="-3" /><text class="lab" transform="translate(0 11)">2</text></g><g class="a10 leaf node n4 p0 sample" transform="translate(7.5 2.50342)"><path class="edge" d="M 0 0 V -2.50342 H -7.5" /><rect class="sym" height="6" width="6" x="-3" y="-3" /><text class="lab" transform="translate(0 11)">4</text></g><path class="edge" d="M 0 0 V -1.62628 H 11.25" /><circle class="sym" cx="0" cy="0" r="3" /><text class="lab lft" transform="translate(-3 -7.0)">10</text></g><path class="edge" d="M 0 0 V -11.0081 H 16.875" /><circle class="sym" cx="0" cy="0" r="3" /><text class="lab lft" transform="translate(-3 -7.0)">11</text></g><g class="a15 c2 node n14 p0" transform="translate(16.875 0.90118)"><g class="a14 leaf node n8 p0 sample" transform="translate(-7.5 14.2366)"><path class="edge" d="M 0 0 V -14.2366 H 7.5" /><rect class="sym" height="6" width="6" x="-3" y="-3" /><text class="lab" transform="translate(0 11)">8</text></g><g class="a14 leaf node n9 p0 sample" transform="translate(7.5 14.2366)"><path class="edge" d="M 0 0 V -14.2366 H -7.5" /><rect class="sym" height="6" width="6" x="-3" y="-3" /><text class="lab" transform="translate(0 11)">9</text></g><path class="edge" d="M 0 0 V -0.90118 H -16.875" /><circle class="sym" cx="0" cy="0" r="3" /><text class="lab rgt" transform="translate(3 -7.0)">14</text></g><path class="edge" d="M 0 0 V -34.0118 H 19.6875" /><circle class="sym" cx="0" cy="0" r="3" /><text class="lab lft" transform="translate(-3 -7.0)">15</text></g><path class="edge" d="M 0 0 V -20.6255 H -38.9062" /><circle class="sym" cx="0" cy="0" r="3" /><text class="lab rgt" transform="translate(3 -7.0)">22</text></g><g class="a25 c1 node n21 p0" transform="translate(-38.9062 24.8502)"><g class="a21 c1 node n20 p0" transform="translate(0.0 3.84905)"><g class="a20 c2 node n16 p0" transform="translate(0.0 24.6897)"><g class="a16 leaf node n0 p0 sample" transform="translate(-7.5 16.3862)"><path class="edge" d="M 0 0 V -16.3862 H 7.5" /><rect class="sym" height="6" width="6" x="-3" y="-3" /><text class="lab" transform="translate(0 11)">0</text></g><g class="a16 leaf node n7 p0 sample" transform="translate(7.5 16.3862)"><path class="edge" d="M 0 0 V -16.3862 H -7.5" /><rect class="sym" height="6" width="6" x="-3" y="-3" /><text class="lab" transform="translate(0 11)">7</text></g><path class="edge" d="M 0 0 V -24.6897 H 0.0" /><circle class="sym" cx="0" cy="0" r="3" /><text class="lab lft" transform="translate(-3 -7.0)">16</text></g><path class="edge" d="M 0 0 V -3.84905 H 0.0" /><circle class="sym" cx="0" cy="0" r="3" /><text class="lab lft" transform="translate(-3 -7.0)">20</text></g><path class="edge" d="M 0 0 V -24.8502 H 38.9062" /><circle class="sym" cx="0" cy="0" r="3" /><text class="lab lft" transform="translate(-3 -7.0)">21</text></g><path class="edge" d="M 0 0 V -24.8248 H 40.5469" /><circle class="sym" cx="0" cy="0" r="3" /><text class="lab lft" transform="translate(-3 -7.0)">25</text></g><g class="a27 c1 node n26 p0" transform="translate(40.5469 8.22941)"><g class="a26 c2 node n24 p0" transform="translate(0.0 28.5502)"><g class="a24 leaf node n3 p0 sample" transform="translate(7.5 57.8204)"><path class="edge" d="M 0 0 V -57.8204 H -7.5" /><rect class="sym" height="6" width="6" x="-3" y="-3" /><text class="lab" transform="translate(0 11)">3</text></g><g class="a24 c1 node n23 p0" transform="translate(-7.5 0.63229)"><g class="a23 c1 node n18 p0" transform="translate(0.0 25.7087)"><g class="a18 c1 node n13 p0" transform="translate(0.0 18.8936)"><g class="a13 leaf node n1 p0 sample" transform="translate(0.0 12.5858)"><path class="edge" d="M 0 0 V -12.5858 H 0.0" /><rect class="sym" height="6" width="6" x="-3" y="-3" /><text class="lab" transform="translate(0 11)">1</text></g><path class="edge" d="M 0 0 V -18.8936 H 0.0" /><circle class="sym" cx="0" cy="0" r="3" /><text class="lab lft" transform="translate(-3 -7.0)">13</text></g><path class="edge" d="M 0 0 V -25.7087 H 0.0" /><circle class="sym" cx="0" cy="0" r="3" /><text class="lab lft" transform="translate(-3 -7.0)">18</text></g><path class="edge" d="M 0 0 V -0.63229 H 7.5" /><circle class="sym" cx="0" cy="0" r="3" /><text class="lab lft" transform="translate(-3 -7.0)">23</text></g><path class="edge" d="M 0 0 V -28.5502 H 0.0" /><circle class="sym" cx="0" cy="0" r="3" /><text class="lab lft" transform="translate(-3 -7.0)">24</text></g><path class="edge" d="M 0 0 V -8.22941 H -40.5469" /><circle class="sym" cx="0" cy="0" r="3" /><text class="lab rgt" transform="translate(3 -7.0)">26</text></g><circle class="sym" cx="0" cy="0" r="3" /><text class="lab" transform="translate(0 -11)">27</text></g></g></g></g></g></svg>
