<svg baseProfile="full" height="200" version="1.1" width="600" xmlns="http://www.w3.org/2000/svg" xmlns:ev="http://www.w3.org/2001/xml-events" xmlns:xlink="http://www.w3.org/1999/xlink"><defs><style type="text/css"><![CDATA[.background path {fill: #808080; fill-opacity: 0}.background path:nth-child(odd) {fill-opacity: .1}.axes {font-size: 14px}.x-axis .tick .lab {font-weight: bold; dominant-baseline: hanging}.axes, .tree {font-size: 14px; text-anchor: middle}.axes line, .edge {stroke: black; fill: none}.y-axis .grid {stroke: #FAFAFA}.node > .sym {fill: black; stroke: none}.site > .sym {stroke: black}.mut text {fill: red; font-style: italic}.mut.extra text {fill: hotpink}.mut line {fill: none; stroke: none}.mut .sym {fill: none; stroke: red}.mut.extra .sym {stroke: hotpink}.node .mut .sym {stroke-width: 1.5px}.tree text, .tree-sequence text {dominant-baseline: central}.plotbox .lab.lft {text-anchor: end}.plotbox .lab.rgt {text-anchor: start}]]></style></defs><g class="tree-sequence"><g class="background"><path d="M20,0 l186.667,0 l0,138.2 l-108.475,25 l0,5 l-78.192,0 l0,-5 l0,-25 l0,-138.2z" /><path d="M206.667,0 l186.667,0 l0,138.2 l37.817,25 l0,5 l-332.958,0 l0,-5 l108.475,-25 l0,-138.2z" /><path d="M393.333,0 l186.667,0 l0,138.2 l0,25 l0,5 l-148.85,0 l0,-5 l-37.817,-25 l0,-138.2z" /></g><g class="axes"><g class="x-axis"><g transform="translate(300 200)"><text class="lab" text-anchor="middle" transform="translate(0 -11)">Genome position</text></g><line x1="20" x2="580" y1="163.2" y2="163.2" /><g class="ticks"><g class="tick" transform="translate(20 163.2)"><line x1="0" x2="0" y1="0" y2="5" /><g transform="translate(0 6)"><text class="lab">0.00</text></g></g><g class="tick" transform="translate(98.192 163.2)"><line x1="0" x2="0" y1="0" y2="5" /><g transform="translate(0 6)"><text class="lab">139.63</text></g></g><g class="tick" transform="translate(431.15 163.2)"><line x1="0" x2="0" y1="0" y2="5" /><g transform="translate(0 6)"><text class="lab">734.20</text></g></g><g class="tick" transform="translate(580 163.2)"><line x1="0" x2="0" y1="0" y2="5" /><g transform="translate(0 6)"><text class="lab">1000.00</text></g></g></g></g></g><g class="plotbox trees"><g class="tree t0" transform="translate(20 0)"><g class="plotbox"><g class="c2 node n24 p0 root" transform="translate(96.5417 26.8)"><g class="a24 c2 node n21 p0" transform="translate(38.0417 42.4832)"><g class="a21 c2 node n19 p0" transform="translate(17.4167 12.7039)"><g class="a19 leaf node n9 p0 sample" transform="translate(7.33333 39.4129)"><path class="edge" d="M 0 0 V -39.4129 H -7.33333" /><rect class="sym" height="6" width="6" x="-3" y="-3" /><text class="lab" transform="translate(0 11)">9</text></g><g class="a19 c1 node n18 p0" transform="translate(-7.33333 0.107073)"><g class="a18 leaf node n5 p0 sample" transform="translate(0.0 39.3059)"><path class="edge" d="M 0 0 V -39.3059 H 0.0" /><rect class="sym" height="6" width="6" x="-3" y="-3" /><text class="lab" transform="translate(0 11)">5</text></g><path class="edge" d="M 0 0 V -0.107073 H 7.33333" /><circle class="sym" cx="0" cy="0" r="3" /><text class="lab lft" transform="translate(-3 -7.0)">18</text></g><path class="edge" d="M 0 0 V -12.7039 H -17.4167" /><circle class="sym" cx="0" cy="0" r="3" /><text class="lab rgt" transform="translate(3 -7.0)">19</text></g><g class="a21 c2 node n20 p0" transform="translate(-17.4167 3.28157)"><g class="a20 leaf node n3 p0 sample" transform="translate(12.8333 48.8352)"><path class="edge" d="M 0 0 V -48.8352 H -12.8333" /><rect class="sym" height="6" width="6" x="-3" y="-3" /><text class="lab" transform="translate(0 11)">3</text></g><g class="a20 c2 node n15 p0" transform="translate(-12.8333 28.8505)"><g class="a15 leaf node n7 p0 sample" transform="translate(11 19.9847)"><path class="edge" d="M 0 0 V -19.9847 H -11" /><rect class="sym" height="6" width="6" x="-3" y="-3" /><text class="lab" transform="translate(0 11)">7</text></g><g class="a15 c2 node n11 p0" transform="translate(-11 12.8714)"><g class="a11 leaf node n2 p0 sample" transform="translate(-7.33333 7.11331)"><path class="edge" d="M 0 0 V -7.11331 H 7.33333" /><rect class="sym" height="6" width="6" x="-3" y="-3" /><text class="lab" transform="translate(0 11)">2</text></g><g class="a11 leaf node n8 p0 sample" transform="translate(7.33333 7.11331)"><path class="edge" d="M 0 0 V -7.11331 H -7.33333" /><rect class="sym" height="6" width="6" x="-3" y="-3" /><text class="lab" transform="translate(0 11)">8</text></g><path class="edge" d="M 0 0 V -12.8714 H 11" /><circle class="sym" cx="0" cy="0" r="3" /><text class="lab lft" transform="translate(-3 -7.0)">11</text></g><path class="edge" d="M 0 0 V -28.8505 H 12.8333" /><circle class="sym" cx="0" cy="0" r="3" /><text class="lab lft" transform="translate(-3 -7.0)">15</text></g><path class="edge" d="M 0 0 V -3.28157 H 17.4167" /><circle class="sym" cx="0" cy="0" r="3" /><text class="lab lft" transform="translate(-3 -7.0)">20</text></g><path class="edge" d="M 0 0 V -42.4832 H -38.0417" /><circle class="sym" cx="0" cy="0" r="3" /><text class="lab rgt" transform="translate(3 -7.0)">21</text></g><g class="a24 c2 node n23 p0" transform="translate(-38.0417 7.31045)"><g class="a23 leaf node n1 p0 sample" transform="translate(12.8333 87.2896)"><path class="edge" d="M 0 0 V -87.2896 H -12.8333" /><rect class="sym" height="6" width="6" x="-3" y="-3" /><text class="lab" transform="translate(0 11)">1</text></g><g class="a23 c1 node n22 p0" transform="translate(-12.8333 0.939715)"><g class="a22 c1 node n16 p0" transform="translate(0.0 54.0916)"><g class="a16 c1 node n13 p0" transform="translate(0.0 14.1383)"><g class="a13 c2 node n12 p0" transform="translate(0.0 10.8319)"><g class="a12 leaf node n4 p0 sample" transform="translate(11 7.28804)"><path class="edge" d="M 0 0 V -7.28804 H -11" /><rect class="sym" height="6" width="6" x="-3" y="-3" /><text class="lab" transform="translate(0 11)">4</text></g><g class="a12 c2 node n10 p0" transform="translate(-11 4.38834)"><g class="a10 leaf node n0 p0 sample" transform="translate(-7.33333 2.8997)"><path class="edge" d="M 0 0 V -2.8997 H 7.33333" /><rect class="sym" height="6" width="6" x="-3" y="-3" /><text class="lab" transform="translate(0 11)">0</text></g><g class="a10 leaf node n6 p0 sample" transform="translate(7.33333 2.8997)"><path class="edge" d="M 0 0 V -2.8997 H -7.33333" /><rect class="sym" height="6" width="6" x="-3" y="-3" /><text class="lab" transform="translate(0 11)">6</text></g><path class="edge" d="M 0 0 V -4.38834 H 11" /><circle class="sym" cx="0" cy="0" r="3" /><text class="lab lft" transform="translate(-3 -7.0)">10</text></g><path class="edge" d="M 0 0 V -10.8319 H 0.0" /><circle class="sym" cx="0" cy="0" r="3" /><text class="lab lft" transform="translate(-3 -7.0)">12</text></g><path class="edge" d="M 0 0 V -14.1383 H 0.0" /><circle class="sym" cx="0" cy="0" r="3" /><text class="lab lft" transform="translate(-3 -7.0)">13</text></g><path class="edge" d="M 0 0 V -54.0916 H 0.0" /><circle class="sym" cx="0" cy="0" r="3" /><text class="lab lft" transform="translate(-3 -7.0)">16</text></g><path class="edge" d="M 0 0 V -0.939715 H 12.8333" /><circle class="sym" cx="0" cy="0" r="3" /><text class="lab lft" transform="translate(-3 -7.0)">22</text></g><path class="edge" d="M 0 0 V -7.31045 H 38.0417" /><circle class="sym" cx="0" cy="0" r="3" /><text class="lab lft" transform="translate(-3 -7.0)">23</text></g><circle class="sym" cx="0" cy="0" r="3" /><text class="lab" transform="translate(0 -11)">24</text></g></g></g><g class="tree t1" transform="translate(206.667 0)"><g class="plotbox"><g class="c2 node n24 p0 root" transform="translate(130.688 26.8)"><g class="a24 c2 node n21 p0" transform="translate(-28.6458 42.4832)"><g class="a21 c2 node n19 p0" transform="translate(-29.7917 12.7039)"><g class="a19 leaf node n9 p0 sample" transform="translate(13.75 39.4129)"><path class="edge" d="M 0 0 V -39.4129 H -13.75" /><rect class="sym" height="6" width="6" x="-3" y="-3" /><text class="lab" transform="translate(0 11)">9</text></g><g class="a19 c2 node n18 p0" transform="translate(-13.75 0.107073)"><g class="a18 leaf node n5 p0 sample" transform="translate(12.8333 39.3059)"><path class="edge" d="M 0 0 V -39.3059 H -12.8333" /><rect class="sym" height="6" width="6" x="-3" y="-3" /><text class="lab" transform="translate(0 11)">5</text></g><g class="a18 c1 node n17 p0" transform="translate(-12.8333 7.04767)"><g class="a17 c1 node n13 p0" transform="translate(0.0 14.1383)"><g class="a13 c2 node n12 p0" transform="translate(0.0 10.8319)"><g class="a12 leaf node n4 p0 sample" transform="translate(11 7.28804)"><path class="edge" d="M 0 0 V -7.28804 H -11" /><rect class="sym" height="6" width="6" x="-3" y="-3" /><text class="lab" transform="translate(0 11)">4</text></g><g class="a12 c2 node n10 p0" transform="translate(-11 4.38834)"><g class="a10 leaf node n0 p0 sample" transform="translate(-7.33333 2.8997)"><path class="edge" d="M 0 0 V -2.8997 H 7.33333" /><rect class="sym" height="6" width="6" x="-3" y="-3" /><text class="lab" transform="translate(0 11)">0</text></g><g class="a10 leaf node n6 p0 sample" transform="translate(7.33333 2.8997)"><path class="edge" d="M 0 0 V -2.8997 H -7.33333" /><rect class="sym" height="6" width="6" x="-3" y="-3" /><text class="lab" transform="translate(0 11)">6</text></g><path class="edge" d="M 0 0 V -4.38834 H 11" /><circle class="sym" cx="0" cy="0" r="3" /><text class="lab lft" transform="translate(-3 -7.0)">10</text></g><path class="edge" d="M 0 0 V -10.8319 H 0.0" /><circle class="sym" cx="0" cy="0" r="3" /><text class="lab lft" transform="translate(-3 -7.0)">12</text></g><path class="edge" d="M 0 0 V -14.1383 H 0.0" /><circle class="sym" cx="0" cy="0" r="3" /><text class="lab lft" transform="translate(-3 -7.0)">13</text></g><path class="edge" d="M 0 0 V -7.04767 H 12.8333" /><circle class="sym" cx="0" cy="0" r="3" /><text class="lab lft" transform="translate(-3 -7.0)">17</text></g><path class="edge" d="M 0 0 V -0.107073 H 13.75" /><circle class="sym" cx="0" cy="0" r="3" /><text class="lab lft" transform="translate(-3 -7.0)">18</text></g><path class="edge" d="M 0 0 V -12.7039 H 29.7917" /><circle class="sym" cx="0" cy="0" r="3" /><text class="lab lft" transform="translate(-3 -7.0)">19</text></g><g class="a21 c2 node n20 p0" transform="translate(29.7917 3.28157)"><g class="a20 leaf node n3 p0 sample" transform="translate(12.8333 48.8352)"><path class="edge" d="M 0 0 V -48.8352 H -12.8333" /><rect class="sym" height="6" width="6" x="-3" y="-3" /><text class="lab" transform="translate(0 11)">3</text></g><g class="a20 c2 node n15 p0" transform="translate(-12.8333 28.8505)"><g class="a15 leaf node n7 p0 sample" transform="translate(11 19.9847)"><path class="edge" d="M 0 0 V -19.9847 H -11" /><rect class="sym" height="6" width="6" x="-3" y="-3" /><text class="lab" transform="translate(0 11)">7</text></g><g class="a15 c2 node n11 p0" transform="translate(-11 12.8714)"><g class="a11 leaf node n2 p0 sample" transform="translate(-7.33333 7.11331)"><path class="edge" d="M 0 0 V -7.11331 H 7.33333" /><rect class="sym" height="6" width="6" x="-3" y="-3" /><text class="lab" transform="translate(0 11)">2</text></g><g class="a11 leaf node n8 p0 sample" transform="translate(7.33333 7.11331)"><path class="edge" d="M 0 0 V -7.11331 H -7.33333" /><rect class="sym" height="6" width="6" x="-3" y="-3" /><text class="lab" transform="translate(0 11)">8</text></g><path class="edge" d="M 0 0 V -12.8714 H 11" /><circle class="sym" cx="0" cy="0" r="3" /><text class="lab lft" transform="translate(-3 -7.0)">11</text></g><path class="edge" d="M 0 0 V -28.8505 H 12.8333" /><circle class="sym" cx="0" cy="0" r="3" /><text class="lab lft" transform="translate(-3 -7.0)">15</text></g><path class="edge" d="M 0 0 V -3.28157 H -29.7917" /><circle class="sym" cx="0" cy="0" r="3" /><text class="lab rgt" transform="translate(3 -7.0)">20</text></g><path class="edge" d="M 0 0 V -42.4832 H 28.6458" /><circle class="sym" cx="0" cy="0" r="3" /><text class="lab lft" transform="translate(-3 -7.0)">21</text></g><g class="a24 c1 node n23 p0" transform="translate(28.6458 7.31045)"><g class="a23 leaf node n1 p0 sample" transform="translate(0.0 87.2896)"><path class="edge" d="M 0 0 V -87.2896 H 0.0" /><rect class="sym" height="6" width="6" x="-3" y="-3" /><text class="lab" transform="translate(0 11)">1</text></g><path class="edge" d="M 0 0 V -7.31045 H -28.6458" /><circle class="sym" cx="0" cy="0" r="3" /><text class="lab rgt" transform="translate(3 -7.0)">23</text></g><circle class="sym" cx="0" cy="0" r="3" /><text class="lab" transform="translate(0 -11)">24</text></g></g></g><g class="tree t2" transform="translate(393.333 0)"><g class="plotbox"><g class="c2 node n24 p0 root" transform="translate(96.5417 26.8)"><g class="a24 c2 node n21 p0" transform="translate(38.0417 42.4832)"><g class="a21 c2 node n19 p0" transform="translate(17.4167 12.7039)"><g class="a19 leaf node n9 p0 sample" transform="translate(7.33333 39.4129)"><path class="edge" d="M 0 0 V -39.4129 H -7.33333" /><rect class="sym" height="6" width="6" x="-3" y="-3" /><text class="lab" transform="translate(0 11)">9</text></g><g class="a19 c1 node n18 p0" transform="translate(-7.33333 0.107073)"><g class="a18 leaf node n5 p0 sample" transform="translate(0.0 39.3059)"><path class="edge" d="M 0 0 V -39.3059 H 0.0" /><rect class="sym" height="6" width="6" x="-3" y="-3" /><text class="lab" transform="translate(0 11)">5</text></g><path class="edge" d="M 0 0 V -0.107073 H 7.33333" /><circle class="sym" cx="0" cy="0" r="3" /><text class="lab lft" transform="translate(-3 -7.0)">18</text></g><path class="edge" d="M 0 0 V -12.7039 H -17.4167" /><circle class="sym" cx="0" cy="0" r="3" /><text class="lab rgt" transform="translate(3 -7.0)">19</text></g><g class="a21 c2 node n20 p0" transform="translate(-17.4167 3.28157)"><g class="a20 leaf node n3 p0 sample" transform="translate(12.8333 48.8352)"><path class="edge" d="M 0 0 V -48.8352 H -12.8333" /><rect class="sym" height="6" width="6" x="-3" y="-3" /><text class="lab" transform="translate(0 11)">3</text></g><g class="a20 c2 node n15 p0" transform="translate(-12.8333 28.8505)"><g class="a15 leaf node n7 p0 sample" transform="translate(11 19.9847)"><path class="edge" d="M 0 0 V -19.9847 H -11" /><rect class="sym" height="6" width="6" x="-3" y="-3" /><text class="lab" transform="translate(0 11)">7</text></g><g class="a15 c2 node n11 p0" transform="translate(-11 12.8714)"><g class="a11 leaf node n2 p0 sample" transform="translate(-7.33333 7.11331)"><path class="edge" d="M 0 0 V -7.11331 H 7.33333" /><rect class="sym" height="6" width="6" x="-3" y="-3" /><text class="lab" transform="translate(0 11)">2</text></g><g class="a11 leaf node n8 p0 sample" transform="translate(7.33333 7.11331)"><path class="edge" d="M 0 0 V -7.11331 H -7.33333" /><rect class="sym" height="6" width="6" x="-3" y="-3" /><text class="lab" transform="translate(0 11)">8</text></g><path class="edge" d="M 0 0 V -12.8714 H 11" /><circle class="sym" cx="0" cy="0" r="3" /><text class="lab lft" transform="translate(-3 -7.0)">11</text></g><path class="edge" d="M 0 0 V -28.8505 H 12.8333" /><circle class="sym" cx="0" cy="0" r="3" /><text class="lab lft" transform="translate(-3 -7.0)">15</text></g><path class="edge" d="M 0 0 V -3.28157 H 17.4167" /><circle class="sym" cx="0" cy="0" r="3" /><text class="lab lft" transform="translate(-3 -7.0)">20</text></g><path class="edge" d="M 0 0 V -42.4832 H -38.0417" /><circle class="sym" cx="0" cy="0" r="3" /><text class="lab rgt" transform="translate(3 -7.0)">21</text></g><g class="a24 c2 node n23 p0" transform="translate(-38.0417 7.31045)"><g class="a23 leaf node n1 p0 sample" transform="translate(12.8333 87.2896)"><path class="edge" d="M 0 0 V -87.2896 H -12.8333" /><rect class="sym" height="6" width="6" x="-3" y="-3" /><text class="lab" transform="translate(0 11)">1</text></g><g class="a23 c1 node n22 p0" transform="translate(-12.8333 0.939715)"><g class="a22 c1 node n14 p0" transform="translate(0.0 68.2299)"><g class="a14 c2 node n12 p0" transform="translate(0.0 10.8319)"><g class="a12 leaf node n4 p0 sample" transform="translate(11 7.28804)"><path class="edge" d="M 0 0 V -7.28804 H -11" /><rect class="sym" height="6" width="6" x="-3" y="-3" /><text class="lab" transform="translate(0 11)">4</text></g><g class="a12 c2 node n10 p0" transform="translate(-11 4.38834)"><g class="a10 leaf node n0 p0 sample" transform="translate(-7.33333 2.8997)"><path class="edge" d="M 0 0 V -2.8997 H 7.33333" /><rect class="sym" height="6" width="6" x="-3" y="-3" /><text class="lab" transform="translate(0 11)">0</text></g><g class="a10 leaf node n6 p0 sample" transform="translate(7.33333 2.8997)"><path class="edge" d="M 0 0 V -2.8997 H -7.33333" /><rect class="sym" height="6" width="6" x="-3" y="-3" /><text class="lab" transform="translate(0 11)">6</text></g><path class="edge" d="M 0 0 V -4.38834 H 11" /><circle class="sym" cx="0" cy="0" r="3" /><text class="lab lft" transform="translate(-3 -7.0)">10</text></g><path class="edge" d="M 0 0 V -10.8319 H 0.0" /><circle class="sym" cx="0" cy="0" r="3" /><text class="lab lft" transform="translate(-3 -7.0)">12</text></g><path class="edge" d="M 0 0 V -68.2299 H 0.0" /><circle class="sym" cx="0" cy="0" r="3" /><text class="lab lft" transform="translate(-3 -7.0)">14</text></g><path class="edge" d="M 0 0 V -0.939715 H 12.8333" /><circle class="sym" cx="0" cy="0" r="3" /><text class="lab lft" transform="translate(-3 -7.0)">22</text></g><path class="edge" d="M 0 0 V -7.31045 H 38.0417" /><circle class="sym" cx="0" cy="0" r="3" /><text class="lab lft" transform="translate(-3 -7.0)">23</text></g><circle class="sym" cx="0" cy="0" r="3" /><text class="lab" transform="translate(0 -11)">24</text></g></g></g></g></g></svg>
