<svg baseProfile="full" height="200" version="1.1" width="1200" xmlns="http://www.w3.org/2000/svg" xmlns:ev="http://www.w3.org/2001/xml-events" xmlns:xlink="http://www.w3.org/1999/xlink"><defs><style type="text/css"><![CDATA[.background path {fill: #808080; fill-opacity: 0}.background path:nth-child(odd) {fill-opacity: .1}.axes {font-size: 14px}.x-axis .tick .lab {font-weight: bold; dominant-baseline: hanging}.axes, .tree {font-size: 14px; text-anchor: middle}.axes line, .edge {stroke: black; fill: none}.y-axis .grid {stroke: #FAFAFA}.node > .sym {fill: black; stroke: none}.site > .sym {stroke: black}.mut text {fill: red; font-style: italic}.mut.extra text {fill: hotpink}.mut line {fill: none; stroke: none}.mut .sym {fill: none; stroke: red}.mut.extra .sym {stroke: hotpink}.node .mut .sym {stroke-width: 1.5px}.tree text, .tree-sequence text {dominant-baseline: central}.plotbox .lab.lft {text-anchor: end}.plotbox .lab.rgt {text-anchor: start}]]></style></defs><g class="tree-sequence"><g class="background"><path d="M20,0 l193.333,0 l0,138.2 l307.295,25 l0,5 l-500.628,0 l0,-5 l0,-25 l0,-138.2z" /><path d="M213.333,0 l193.333,0 l0,138.2 l303.915,25 l0,5 l-189.954,0 l0,-5 l-307.295,-25 l0,-138.2z" /><path d="M406.667,0 l193.333,0 l0,138.2 l250.158,25 l0,5 l-139.576,0 l0,-5 l-303.915,-25 l0,-138.2z" /><path d="M600,0 l193.333,0 l0,138.2 l202.605,25 l0,5 l-145.78,0 l0,-5 l-250.158,-25 l0,-138.2z" /><path d="M793.333,0 l193.333,0 l0,138.2 l131.338,25 l0,5 l-122.067,0 l0,-5 l-202.605,-25 l0,-138.2z" /><path d="M986.667,0 l193.333,0 l0,138.2 l0,25 l0,5 l-61.9953,0 l0,-5 l-131.338,-25 l0,-138.2z" /></g><g class="axes"><g class="x-axis"><g transform="translate(600 200)"><text class="lab" text-anchor="middle" transform="translate(0 -11)">Genome position</text></g><line x1="20" x2="1180" y1="163.2" y2="163.2" /><g class="ticks"><g class="tick" transform="translate(20 163.2)"><line x1="0" x2="0" y1="0" y2="5" /><g transform="translate(0 6)"><text class="lab">0.00</text></g></g><g class="tick" transform="translate(520.628 163.2)"><line x1="0" x2="0" y1="0" y2="5" /><g transform="translate(0 6)"><text class="lab">431.58</text></g></g><g class="tick" transform="translate(710.582 163.2)"><line x1="0" x2="0" y1="0" y2="5" /><g transform="translate(0 6)"><text class="lab">595.33</text></g></g><g class="tick" transform="translate(850.158 163.2)"><line x1="0" x2="0" y1="0" y2="5" /><g transform="translate(0 6)"><text class="lab">715.65</text></g></g><g class="tick" transform="translate(995.938 163.2)"><line x1="0" x2="0" y1="0" y2="5" /><g transform="translate(0 6)"><text class="lab">841.33</text></g></g><g class="tick" transform="translate(1118 163.2)"><line x1="0" x2="0" y1="0" y2="5" /><g transform="translate(0 6)"><text class="lab">946.56</text></g></g><g class="tick" transform="translate(1180 163.2)"><line x1="0" x2="0" y1="0" y2="5" /><g transform="translate(0 6)"><text class="lab">1000.00</text></g></g></g></g></g><g class="plotbox trees"><g class="tree t0" transform="translate(20 0)"><g class="plotbox"><g class="c2 node n33 p0 root" transform="translate(119.188 26.8)"><g class="a33 c1 node n30 p0" transform="translate(34.9792 8.85807)"><g class="a30 c2 node n24 p0" transform="translate(0.0 52.9634)"><g class="a24 leaf node n6 p0 sample" transform="translate(11.5 32.7785)"><path class="edge" d="M 0 0 V -32.7785 H -11.5" /><rect class="sym" height="6" width="6" x="-3" y="-3" /><text class="lab" transform="translate(0 11)">6</text></g><g class="a24 c2 node n10 p0" transform="translate(-11.5 32.4678)"><g class="a10 leaf node n1 p0 sample" transform="translate(-7.66667 0.310681)"><path class="edge" d="M 0 0 V -0.310681 H 7.66667" /><rect class="sym" height="6" width="6" x="-3" y="-3" /><text class="lab" transform="translate(0 11)">1</text></g><g class="a10 leaf node n2 p0 sample" transform="translate(7.66667 0.310681)"><path class="edge" d="M 0 0 V -0.310681 H -7.66667" /><rect class="sym" height="6" width="6" x="-3" y="-3" /><text class="lab" transform="translate(0 11)">2</text></g><path class="edge" d="M 0 0 V -32.4678 H 11.5" /><circle class="sym" cx="0" cy="0" r="3" /><text class="lab lft" transform="translate(-3 -7.0)">10</text></g><path class="edge" d="M 0 0 V -52.9634 H 0.0" /><circle class="sym" cx="0" cy="0" r="3" /><text class="lab lft" transform="translate(-3 -7.0)">24</text></g><path class="edge" d="M 0 0 V -8.85807 H -34.9792" /><circle class="sym" cx="0" cy="0" r="3" /><text class="lab rgt" transform="translate(3 -7.0)">30</text></g><g class="a33 c2 node n32 p0" transform="translate(-34.9792 2.55523)"><g class="a32 c1 node n29 p0" transform="translate(23.9583 7.11719)"><g class="a29 c1 node n26 p0" transform="translate(0.0 29.4321)"><g class="a26 c2 node n20 p0" transform="translate(0.0 37.3865)"><g class="a20 c1 node n13 p0" transform="translate(-11.5 13.8173)"><g class="a13 c2 node n12 p0" transform="translate(0.0 1.52419)"><g class="a12 leaf node n3 p0 sample" transform="translate(-7.66667 2.76753)"><path class="edge" d="M 0 0 V -2.76753 H 7.66667" /><rect class="sym" height="6" width="6" x="-3" y="-3" /><text class="lab" transform="translate(0 11)">3</text></g><g class="a12 leaf node n8 p0 sample" transform="translate(7.66667 2.76753)"><path class="edge" d="M 0 0 V -2.76753 H -7.66667" /><rect class="sym" height="6" width="6" x="-3" y="-3" /><text class="lab" transform="translate(0 11)">8</text></g><path class="edge" d="M 0 0 V -1.52419 H 0.0" /><circle class="sym" cx="0" cy="0" r="3" /><text class="lab lft" transform="translate(-3 -7.0)">12</text></g><path class="edge" d="M 0 0 V -13.8173 H 11.5" /><circle class="sym" cx="0" cy="0" r="3" /><text class="lab lft" transform="translate(-3 -7.0)">13</text></g><g class="a20 c1 node n18 p0" transform="translate(11.5 3.46828)"><g class="a18 c1 node n16 p0" transform="translate(0.0 4.68895)"><g class="a16 leaf node n7 p0 sample" transform="translate(0.0 9.9518)"><path class="edge" d="M 0 0 V -9.9518 H 0.0" /><rect class="sym" height="6" width="6" x="-3" y="-3" /><text class="lab" transform="translate(0 11)">7</text></g><path class="edge" d="M 0 0 V -4.68895 H 0.0" /><circle class="sym" cx="0" cy="0" r="3" /><text class="lab lft" transform="translate(-3 -7.0)">16</text></g><path class="edge" d="M 0 0 V -3.46828 H -11.5" /><circle class="sym" cx="0" cy="0" r="3" /><text class="lab rgt" transform="translate(3 -7.0)">18</text></g><path class="edge" d="M 0 0 V -37.3865 H 0.0" /><circle class="sym" cx="0" cy="0" r="3" /><text class="lab lft" transform="translate(-3 -7.0)">20</text></g><path class="edge" d="M 0 0 V -29.4321 H 0.0" /><circle class="sym" cx="0" cy="0" r="3" /><text class="lab lft" transform="translate(-3 -7.0)">26</text></g><path class="edge" d="M 0 0 V -7.11719 H -23.9583" /><circle class="sym" cx="0" cy="0" r="3" /><text class="lab rgt" transform="translate(3 -7.0)">29</text></g><g class="a32 c2 node n31 p0" transform="translate(-23.9583 2.94046)"><g class="a31 c2 node n25 p0" transform="translate(-13.4167 50.092)"><g class="a25 c2 node n11 p0" transform="translate(-11.5 38.1763)"><g class="a11 leaf node n0 p0 sample" transform="translate(-7.66667 0.83605)"><path class="edge" d="M 0 0 V -0.83605 H 7.66667" /><rect class="sym" height="6" width="6" x="-3" y="-3" /><text class="lab" transform="translate(0 11)">0</text></g><g class="a11 leaf node n9 p0 sample" transform="translate(7.66667 0.83605)"><path class="edge" d="M 0 0 V -0.83605 H -7.66667" /><rect class="sym" height="6" width="6" x="-3" y="-3" /><text class="lab" transform="translate(0 11)">9</text></g><path class="edge" d="M 0 0 V -38.1763 H 11.5" /><circle class="sym" cx="0" cy="0" r="3" /><text class="lab lft" transform="translate(-3 -7.0)">11</text></g><g class="a25 c1 node n21 p0" transform="translate(11.5 15.7384)"><g class="a21 leaf node n5 p0 sample" transform="translate(0.0 23.274)"><path class="edge" d="M 0 0 V -23.274 H 0.0" /><rect class="sym" height="6" width="6" x="-3" y="-3" /><text class="lab" transform="translate(0 11)">5</text></g><path class="edge" d="M 0 0 V -15.7384 H -11.5" /><circle class="sym" cx="0" cy="0" r="3" /><text class="lab rgt" transform="translate(3 -7.0)">21</text></g><path class="edge" d="M 0 0 V -50.092 H 13.4167" /><circle class="sym" cx="0" cy="0" r="3" /><text class="lab lft" transform="translate(-3 -7.0)">25</text></g><g class="a31 c1 node n27 p0" transform="translate(13.4167 30.8664)"><g class="a27 c1 node n15 p0" transform="translate(0.0 50.0077)"><g class="a15 leaf node n4 p0 sample" transform="translate(0.0 8.23015)"><path class="edge" d="M 0 0 V -8.23015 H 0.0" /><rect class="sym" height="6" width="6" x="-3" y="-3" /><text class="lab" transform="translate(0 11)">4</text></g><path class="edge" d="M 0 0 V -50.0077 H 0.0" /><circle class="sym" cx="0" cy="0" r="3" /><text class="lab lft" transform="translate(-3 -7.0)">15</text></g><path class="edge" d="M 0 0 V -30.8664 H -13.4167" /><circle class="sym" cx="0" cy="0" r="3" /><text class="lab rgt" transform="translate(3 -7.0)">27</text></g><path class="edge" d="M 0 0 V -2.94046 H 23.9583" /><circle class="sym" cx="0" cy="0" r="3" /><text class="lab lft" transform="translate(-3 -7.0)">31</text></g><path class="edge" d="M 0 0 V -2.55523 H 34.9792" /><circle class="sym" cx="0" cy="0" r="3" /><text class="lab lft" transform="translate(-3 -7.0)">32</text></g><circle class="sym" cx="0" cy="0" r="3" /><text class="lab" transform="translate(0 -11)">33</text></g></g></g><g class="tree t1" transform="translate(213.333 0)"><g class="plotbox"><g class="c2 node n33 p0 root" transform="translate(111.042 26.8)"><g class="a33 c2 node n30 p0" transform="translate(41.2083 8.85807)"><g class="a30 c2 node n24 p0" transform="translate(-13.4167 52.9634)"><g class="a24 leaf node n6 p0 sample" transform="translate(11.5 32.7785)"><path class="edge" d="M 0 0 V -32.7785 H -11.5" /><rect class="sym" height="6" width="6" x="-3" y="-3" /><text class="lab" transform="translate(0 11)">6</text></g><g class="a24 c2 node n10 p0" transform="translate(-11.5 32.4678)"><g class="a10 leaf node n1 p0 sample" transform="translate(-7.66667 0.310681)"><path class="edge" d="M 0 0 V -0.310681 H 7.66667" /><rect class="sym" height="6" width="6" x="-3" y="-3" /><text class="lab" transform="translate(0 11)">1</text></g><g class="a10 leaf node n2 p0 sample" transform="translate(7.66667 0.310681)"><path class="edge" d="M 0 0 V -0.310681 H -7.66667" /><rect class="sym" height="6" width="6" x="-3" y="-3" /><text class="lab" transform="translate(0 11)">2</text></g><path class="edge" d="M 0 0 V -32.4678 H 11.5" /><circle class="sym" cx="0" cy="0" r="3" /><text class="lab lft" transform="translate(-3 -7.0)">10</text></g><path class="edge" d="M 0 0 V -52.9634 H 13.4167" /><circle class="sym" cx="0" cy="0" r="3" /><text class="lab lft" transform="translate(-3 -7.0)">24</text></g><g class="a30 c1 node n28 p0" transform="translate(13.4167 27.504)"><g class="a28 c1 node n15 p0" transform="translate(0.0 50.0077)"><g class="a15 leaf node n4 p0 sample" transform="translate(0.0 8.23015)"><path class="edge" d="M 0 0 V -8.23015 H 0.0" /><rect class="sym" height="6" width="6" x="-3" y="-3" /><text class="lab" transform="translate(0 11)">4</text></g><path class="edge" d="M 0 0 V -50.0077 H 0.0" /><circle class="sym" cx="0" cy="0" r="3" /><text class="lab lft" transform="translate(-3 -7.0)">15</text></g><path class="edge" d="M 0 0 V -27.504 H -13.4167" /><circle class="sym" cx="0" cy="0" r="3" /><text class="lab rgt" transform="translate(3 -7.0)">28</text></g><path class="edge" d="M 0 0 V -8.85807 H -41.2083" /><circle class="sym" cx="0" cy="0" r="3" /><text class="lab rgt" transform="translate(3 -7.0)">30</text></g><g class="a33 c2 node n32 p0" transform="translate(-41.2083 2.55523)"><g class="a32 c1 node n29 p0" transform="translate(23 7.11719)"><g class="a29 c1 node n26 p0" transform="translate(0.0 29.4321)"><g class="a26 c2 node n20 p0" transform="translate(0.0 37.3865)"><g class="a20 c1 node n13 p0" transform="translate(-11.5 13.8173)"><g class="a13 c2 node n12 p0" transform="translate(0.0 1.52419)"><g class="a12 leaf node n3 p0 sample" transform="translate(-7.66667 2.76753)"><path class="edge" d="M 0 0 V -2.76753 H 7.66667" /><rect class="sym" height="6" width="6" x="-3" y="-3" /><text class="lab" transform="translate(0 11)">3</text></g><g class="a12 leaf node n8 p0 sample" transform="translate(7.66667 2.76753)"><path class="edge" d="M 0 0 V -2.76753 H -7.66667" /><rect class="sym" height="6" width="6" x="-3" y="-3" /><text class="lab" transform="translate(0 11)">8</text></g><path class="edge" d="M 0 0 V -1.52419 H 0.0" /><circle class="sym" cx="0" cy="0" r="3" /><text class="lab lft" transform="translate(-3 -7.0)">12</text></g><path class="edge" d="M 0 0 V -13.8173 H 11.5" /><circle class="sym" cx="0" cy="0" r="3" /><text class="lab lft" transform="translate(-3 -7.0)">13</text></g><g class="a20 c1 node n18 p0" transform="translate(11.5 3.46828)"><g class="a18 c1 node n16 p0" transform="translate(0.0 4.68895)"><g class="a16 leaf node n7 p0 sample" transform="translate(0.0 9.9518)"><path class="edge" d="M 0 0 V -9.9518 H 0.0" /><rect class="sym" height="6" width="6" x="-3" y="-3" /><text class="lab" transform="translate(0 11)">7</text></g><path class="edge" d="M 0 0 V -4.68895 H 0.0" /><circle class="sym" cx="0" cy="0" r="3" /><text class="lab lft" transform="translate(-3 -7.0)">16</text></g><path class="edge" d="M 0 0 V -3.46828 H -11.5" /><circle class="sym" cx="0" cy="0" r="3" /><text class="lab rgt" transform="translate(3 -7.0)">18</text></g><path class="edge" d="M 0 0 V -37.3865 H 0.0" /><circle class="sym" cx="0" cy="0" r="3" /><text class="lab lft" transform="translate(-3 -7.0)">20</text></g><path class="edge" d="M 0 0 V -29.4321 H 0.0" /><circle class="sym" cx="0" cy="0" r="3" /><text class="lab lft" transform="translate(-3 -7.0)">26</text></g><path class="edge" d="M 0 0 V -7.11719 H -23" /><circle class="sym" cx="0" cy="0" r="3" /><text class="lab rgt" transform="translate(3 -7.0)">29</text></g><g class="a32 c1 node n31 p0" transform="translate(-23 2.94046)"><g class="a31 c2 node n25 p0" transform="translate(0.0 50.092)"><g class="a25 c2 node n11 p0" transform="translate(-11.5 38.1763)"><g class="a11 leaf node n0 p0 sample" transform="translate(-7.66667 0.83605)"><path class="edge" d="M 0 0 V -0.83605 H 7.66667" /><rect class="sym" height="6" width="6" x="-3" y="-3" /><text class="lab" transform="translate(0 11)">0</text></g><g class="a11 leaf node n9 p0 sample" transform="translate(7.66667 0.83605)"><path class="edge" d="M 0 0 V -0.83605 H -7.66667" /><rect class="sym" height="6" width="6" x="-3" y="-3" /><text class="lab" transform="translate(0 11)">9</text></g><path class="edge" d="M 0 0 V -38.1763 H 11.5" /><circle class="sym" cx="0" cy="0" r="3" /><text class="lab lft" transform="translate(-3 -7.0)">11</text></g><g class="a25 c1 node n21 p0" transform="translate(11.5 15.7384)"><g class="a21 leaf node n5 p0 sample" transform="translate(0.0 23.274)"><path class="edge" d="M 0 0 V -23.274 H 0.0" /><rect class="sym" height="6" width="6" x="-3" y="-3" /><text class="lab" transform="translate(0 11)">5</text></g><path class="edge" d="M 0 0 V -15.7384 H -11.5" /><circle class="sym" cx="0" cy="0" r="3" /><text class="lab rgt" transform="translate(3 -7.0)">21</text></g><path class="edge" d="M 0 0 V -50.092 H 0.0" /><circle class="sym" cx="0" cy="0" r="3" /><text class="lab lft" transform="translate(-3 -7.0)">25</text></g><path class="edge" d="M 0 0 V -2.94046 H 23" /><circle class="sym" cx="0" cy="0" r="3" /><text class="lab lft" transform="translate(-3 -7.0)">31</text></g><path class="edge" d="M 0 0 V -2.55523 H 41.2083" /><circle class="sym" cx="0" cy="0" r="3" /><text class="lab lft" transform="translate(-3 -7.0)">32</text></g><circle class="sym" cx="0" cy="0" r="3" /><text class="lab" transform="translate(0 -11)">33</text></g></g></g><g class="tree t2" transform="translate(406.667 0)"><g class="plotbox"><g class="c2 node n33 p0 root" transform="translate(95.7083 26.8)"><g class="a33 c2 node n30 p0" transform="translate(35.4583 8.85807)"><g class="a30 c2 node n24 p0" transform="translate(-23 52.9634)"><g class="a24 leaf node n6 p0 sample" transform="translate(11.5 32.7785)"><path class="edge" d="M 0 0 V -32.7785 H -11.5" /><rect class="sym" height="6" width="6" x="-3" y="-3" /><text class="lab" transform="translate(0 11)">6</text></g><g class="a24 c2 node n10 p0" transform="translate(-11.5 32.4678)"><g class="a10 leaf node n1 p0 sample" transform="translate(-7.66667 0.310681)"><path class="edge" d="M 0 0 V -0.310681 H 7.66667" /><rect class="sym" height="6" width="6" x="-3" y="-3" /><text class="lab" transform="translate(0 11)">1</text></g><g class="a10 leaf node n2 p0 sample" transform="translate(7.66667 0.310681)"><path class="edge" d="M 0 0 V -0.310681 H -7.66667" /><rect class="sym" height="6" width="6" x="-3" y="-3" /><text class="lab" transform="translate(0 11)">2</text></g><path class="edge" d="M 0 0 V -32.4678 H 11.5" /><circle class="sym" cx="0" cy="0" r="3" /><text class="lab lft" transform="translate(-3 -7.0)">10</text></g><path class="edge" d="M 0 0 V -52.9634 H 23" /><circle class="sym" cx="0" cy="0" r="3" /><text class="lab lft" transform="translate(-3 -7.0)">24</text></g><g class="a30 c1 node n28 p0" transform="translate(23 27.504)"><g class="a28 c2 node n15 p0" transform="translate(0.0 50.0077)"><g class="a15 leaf node n4 p0 sample" transform="translate(11.5 8.23015)"><path class="edge" d="M 0 0 V -8.23015 H -11.5" /><rect class="sym" height="6" width="6" x="-3" y="-3" /><text class="lab" transform="translate(0 11)">4</text></g><g class="a15 c1 node n14 p0" transform="translate(-11.5 3.93844)"><g class="a14 c2 node n12 p0" transform="translate(0.0 1.52419)"><g class="a12 leaf node n3 p0 sample" transform="translate(-7.66667 2.76753)"><path class="edge" d="M 0 0 V -2.76753 H 7.66667" /><rect class="sym" height="6" width="6" x="-3" y="-3" /><text class="lab" transform="translate(0 11)">3</text></g><g class="a12 leaf node n8 p0 sample" transform="translate(7.66667 2.76753)"><path class="edge" d="M 0 0 V -2.76753 H -7.66667" /><rect class="sym" height="6" width="6" x="-3" y="-3" /><text class="lab" transform="translate(0 11)">8</text></g><path class="edge" d="M 0 0 V -1.52419 H 0.0" /><circle class="sym" cx="0" cy="0" r="3" /><text class="lab lft" transform="translate(-3 -7.0)">12</text></g><path class="edge" d="M 0 0 V -3.93844 H 11.5" /><circle class="sym" cx="0" cy="0" r="3" /><text class="lab lft" transform="translate(-3 -7.0)">14</text></g><path class="edge" d="M 0 0 V -50.0077 H 0.0" /><circle class="sym" cx="0" cy="0" r="3" /><text class="lab lft" transform="translate(-3 -7.0)">15</text></g><path class="edge" d="M 0 0 V -27.504 H -23" /><circle class="sym" cx="0" cy="0" r="3" /><text class="lab rgt" transform="translate(3 -7.0)">28</text></g><path class="edge" d="M 0 0 V -8.85807 H -35.4583" /><circle class="sym" cx="0" cy="0" r="3" /><text class="lab rgt" transform="translate(3 -7.0)">30</text></g><g class="a33 c2 node n32 p0" transform="translate(-35.4583 2.55523)"><g class="a32 c1 node n29 p0" transform="translate(13.4167 7.11719)"><g class="a29 c1 node n26 p0" transform="translate(0.0 29.4321)"><g class="a26 c1 node n20 p0" transform="translate(0.0 37.3865)"><g class="a20 c1 node n18 p0" transform="translate(0.0 3.46828)"><g class="a18 c1 node n16 p0" transform="translate(0.0 4.68895)"><g class="a16 leaf node n7 p0 sample" transform="translate(0.0 9.9518)"><path class="edge" d="M 0 0 V -9.9518 H 0.0" /><rect class="sym" height="6" width="6" x="-3" y="-3" /><text class="lab" transform="translate(0 11)">7</text></g><path class="edge" d="M 0 0 V -4.68895 H 0.0" /><circle class="sym" cx="0" cy="0" r="3" /><text class="lab lft" transform="translate(-3 -7.0)">16</text></g><path class="edge" d="M 0 0 V -3.46828 H 0.0" /><circle class="sym" cx="0" cy="0" r="3" /><text class="lab lft" transform="translate(-3 -7.0)">18</text></g><path class="edge" d="M 0 0 V -37.3865 H 0.0" /><circle class="sym" cx="0" cy="0" r="3" /><text class="lab lft" transform="translate(-3 -7.0)">20</text></g><path class="edge" d="M 0 0 V -29.4321 H 0.0" /><circle class="sym" cx="0" cy="0" r="3" /><text class="lab lft" transform="translate(-3 -7.0)">26</text></g><path class="edge" d="M 0 0 V -7.11719 H -13.4167" /><circle class="sym" cx="0" cy="0" r="3" /><text class="lab rgt" transform="translate(3 -7.0)">29</text></g><g class="a32 c1 node n31 p0" transform="translate(-13.4167 2.94046)"><g class="a31 c2 node n25 p0" transform="translate(0.0 50.092)"><g class="a25 c2 node n11 p0" transform="translate(-11.5 38.1763)"><g class="a11 leaf node n0 p0 sample" transform="translate(-7.66667 0.83605)"><path class="edge" d="M 0 0 V -0.83605 H 7.66667" /><rect class="sym" height="6" width="6" x="-3" y="-3" /><text class="lab" transform="translate(0 11)">0</text></g><g class="a11 leaf node n9 p0 sample" transform="translate(7.66667 0.83605)"><path class="edge" d="M 0 0 V -0.83605 H -7.66667" /><rect class="sym" height="6" width="6" x="-3" y="-3" /><text class="lab" transform="translate(0 11)">9</text></g><path class="edge" d="M 0 0 V -38.1763 H 11.5" /><circle class="sym" cx="0" cy="0" r="3" /><text class="lab lft" transform="translate(-3 -7.0)">11</text></g><g class="a25 c1 node n21 p0" transform="translate(11.5 15.7384)"><g class="a21 leaf node n5 p0 sample" transform="translate(0.0 23.274)"><path class="edge" d="M 0 0 V -23.274 H 0.0" /><rect class="sym" height="6" width="6" x="-3" y="-3" /><text class="lab" transform="translate(0 11)">5</text></g><path class="edge" d="M 0 0 V -15.7384 H -11.5" /><circle class="sym" cx="0" cy="0" r="3" /><text class="lab rgt" transform="translate(3 -7.0)">21</text></g><path class="edge" d="M 0 0 V -50.092 H 0.0" /><circle class="sym" cx="0" cy="0" r="3" /><text class="lab lft" transform="translate(-3 -7.0)">25</text></g><path class="edge" d="M 0 0 V -2.94046 H 13.4167" /><circle class="sym" cx="0" cy="0" r="3" /><text class="lab lft" transform="translate(-3 -7.0)">31</text></g><path class="edge" d="M 0 0 V -2.55523 H 35.4583" /><circle class="sym" cx="0" cy="0" r="3" /><text class="lab lft" transform="translate(-3 -7.0)">32</text></g><circle class="sym" cx="0" cy="0" r="3" /><text class="lab" transform="translate(0 -11)">33</text></g></g></g><g class="tree t3" transform="translate(600 0)"><g class="plotbox"><g class="c2 node n33 p0 root" transform="translate(95.7083 26.8)"><g class="a33 c2 node n30 p0" transform="translate(35.4583 8.85807)"><g class="a30 c2 node n24 p0" transform="translate(-23 52.9634)"><g class="a24 leaf node n6 p0 sample" transform="translate(11.5 32.7785)"><path class="edge" d="M 0 0 V -32.7785 H -11.5" /><rect class="sym" height="6" width="6" x="-3" y="-3" /><text class="lab" transform="translate(0 11)">6</text></g><g class="a24 c2 node n10 p0" transform="translate(-11.5 32.4678)"><g class="a10 leaf node n1 p0 sample" transform="translate(-7.66667 0.310681)"><path class="edge" d="M 0 0 V -0.310681 H 7.66667" /><rect class="sym" height="6" width="6" x="-3" y="-3" /><text class="lab" transform="translate(0 11)">1</text></g><g class="a10 leaf node n2 p0 sample" transform="translate(7.66667 0.310681)"><path class="edge" d="M 0 0 V -0.310681 H -7.66667" /><rect class="sym" height="6" width="6" x="-3" y="-3" /><text class="lab" transform="translate(0 11)">2</text></g><path class="edge" d="M 0 0 V -32.4678 H 11.5" /><circle class="sym" cx="0" cy="0" r="3" /><text class="lab lft" transform="translate(-3 -7.0)">10</text></g><path class="edge" d="M 0 0 V -52.9634 H 23" /><circle class="sym" cx="0" cy="0" r="3" /><text class="lab lft" transform="translate(-3 -7.0)">24</text></g><g class="a30 c1 node n28 p0" transform="translate(23 27.504)"><g class="a28 c2 node n15 p0" transform="translate(0.0 50.0077)"><g class="a15 leaf node n4 p0 sample" transform="translate(11.5 8.23015)"><path class="edge" d="M 0 0 V -8.23015 H -11.5" /><rect class="sym" height="6" width="6" x="-3" y="-3" /><text class="lab" transform="translate(0 11)">4</text></g><g class="a15 c1 node n14 p0" transform="translate(-11.5 3.93844)"><g class="a14 c2 node n12 p0" transform="translate(0.0 1.52419)"><g class="a12 leaf node n3 p0 sample" transform="translate(-7.66667 2.76753)"><path class="edge" d="M 0 0 V -2.76753 H 7.66667" /><rect class="sym" height="6" width="6" x="-3" y="-3" /><text class="lab" transform="translate(0 11)">3</text></g><g class="a12 leaf node n8 p0 sample" transform="translate(7.66667 2.76753)"><path class="edge" d="M 0 0 V -2.76753 H -7.66667" /><rect class="sym" height="6" width="6" x="-3" y="-3" /><text class="lab" transform="translate(0 11)">8</text></g><path class="edge" d="M 0 0 V -1.52419 H 0.0" /><circle class="sym" cx="0" cy="0" r="3" /><text class="lab lft" transform="translate(-3 -7.0)">12</text></g><path class="edge" d="M 0 0 V -3.93844 H 11.5" /><circle class="sym" cx="0" cy="0" r="3" /><text class="lab lft" transform="translate(-3 -7.0)">14</text></g><path class="edge" d="M 0 0 V -50.0077 H 0.0" /><circle class="sym" cx="0" cy="0" r="3" /><text class="lab lft" transform="translate(-3 -7.0)">15</text></g><path class="edge" d="M 0 0 V -27.504 H -23" /><circle class="sym" cx="0" cy="0" r="3" /><text class="lab rgt" transform="translate(3 -7.0)">28</text></g><path class="edge" d="M 0 0 V -8.85807 H -35.4583" /><circle class="sym" cx="0" cy="0" r="3" /><text class="lab rgt" transform="translate(3 -7.0)">30</text></g><g class="a33 c2 node n32 p0" transform="translate(-35.4583 2.55523)"><g class="a32 c1 node n29 p0" transform="translate(13.4167 7.11719)"><g class="a29 c1 node n26 p0" transform="translate(0.0 29.4321)"><g class="a26 c1 node n22 p0" transform="translate(0.0 26.2999)"><g class="a22 c1 node n19 p0" transform="translate(0.0 14.5549)"><g class="a19 c1 node n16 p0" transform="translate(0.0 4.68895)"><g class="a16 leaf node n7 p0 sample" transform="translate(0.0 9.9518)"><path class="edge" d="M 0 0 V -9.9518 H 0.0" /><rect class="sym" height="6" width="6" x="-3" y="-3" /><text class="lab" transform="translate(0 11)">7</text></g><path class="edge" d="M 0 0 V -4.68895 H 0.0" /><circle class="sym" cx="0" cy="0" r="3" /><text class="lab lft" transform="translate(-3 -7.0)">16</text></g><path class="edge" d="M 0 0 V -14.5549 H 0.0" /><circle class="sym" cx="0" cy="0" r="3" /><text class="lab lft" transform="translate(-3 -7.0)">19</text></g><path class="edge" d="M 0 0 V -26.2999 H 0.0" /><circle class="sym" cx="0" cy="0" r="3" /><text class="lab lft" transform="translate(-3 -7.0)">22</text></g><path class="edge" d="M 0 0 V -29.4321 H 0.0" /><circle class="sym" cx="0" cy="0" r="3" /><text class="lab lft" transform="translate(-3 -7.0)">26</text></g><path class="edge" d="M 0 0 V -7.11719 H -13.4167" /><circle class="sym" cx="0" cy="0" r="3" /><text class="lab rgt" transform="translate(3 -7.0)">29</text></g><g class="a32 c1 node n31 p0" transform="translate(-13.4167 2.94046)"><g class="a31 c2 node n25 p0" transform="translate(0.0 50.092)"><g class="a25 c2 node n11 p0" transform="translate(-11.5 38.1763)"><g class="a11 leaf node n0 p0 sample" transform="translate(-7.66667 0.83605)"><path class="edge" d="M 0 0 V -0.83605 H 7.66667" /><rect class="sym" height="6" width="6" x="-3" y="-3" /><text class="lab" transform="translate(0 11)">0</text></g><g class="a11 leaf node n9 p0 sample" transform="translate(7.66667 0.83605)"><path class="edge" d="M 0 0 V -0.83605 H -7.66667" /><rect class="sym" height="6" width="6" x="-3" y="-3" /><text class="lab" transform="translate(0 11)">9</text></g><path class="edge" d="M 0 0 V -38.1763 H 11.5" /><circle class="sym" cx="0" cy="0" r="3" /><text class="lab lft" transform="translate(-3 -7.0)">11</text></g><g class="a25 c1 node n21 p0" transform="translate(11.5 15.7384)"><g class="a21 leaf node n5 p0 sample" transform="translate(0.0 23.274)"><path class="edge" d="M 0 0 V -23.274 H 0.0" /><rect class="sym" height="6" width="6" x="-3" y="-3" /><text class="lab" transform="translate(0 11)">5</text></g><path class="edge" d="M 0 0 V -15.7384 H -11.5" /><circle class="sym" cx="0" cy="0" r="3" /><text class="lab rgt" transform="translate(3 -7.0)">21</text></g><path class="edge" d="M 0 0 V -50.092 H 0.0" /><circle class="sym" cx="0" cy="0" r="3" /><text class="lab lft" transform="translate(-3 -7.0)">25</text></g><path class="edge" d="M 0 0 V -2.94046 H 13.4167" /><circle class="sym" cx="0" cy="0" r="3" /><text class="lab lft" transform="translate(-3 -7.0)">31</text></g><path class="edge" d="M 0 0 V -2.55523 H 35.4583" /><circle class="sym" cx="0" cy="0" r="3" /><text class="lab lft" transform="translate(-3 -7.0)">32</text></g><circle class="sym" cx="0" cy="0" r="3" /><text class="lab" transform="translate(0 -11)">33</text></g></g></g><g class="tree t4" transform="translate(793.333 0)"><g class="plotbox"><g class="c2 node n33 p0 root" transform="translate(95.7083 26.8)"><g class="a33 c2 node n30 p0" transform="translate(35.4583 8.85807)"><g class="a30 c2 node n24 p0" transform="translate(-23 52.9634)"><g class="a24 leaf node n6 p0 sample" transform="translate(11.5 32.7785)"><path class="edge" d="M 0 0 V -32.7785 H -11.5" /><rect class="sym" height="6" width="6" x="-3" y="-3" /><text class="lab" transform="translate(0 11)">6</text></g><g class="a24 c2 node n10 p0" transform="translate(-11.5 32.4678)"><g class="a10 leaf node n1 p0 sample" transform="translate(-7.66667 0.310681)"><path class="edge" d="M 0 0 V -0.310681 H 7.66667" /><rect class="sym" height="6" width="6" x="-3" y="-3" /><text class="lab" transform="translate(0 11)">1</text></g><g class="a10 leaf node n2 p0 sample" transform="translate(7.66667 0.310681)"><path class="edge" d="M 0 0 V -0.310681 H -7.66667" /><rect class="sym" height="6" width="6" x="-3" y="-3" /><text class="lab" transform="translate(0 11)">2</text></g><path class="edge" d="M 0 0 V -32.4678 H 11.5" /><circle class="sym" cx="0" cy="0" r="3" /><text class="lab lft" transform="translate(-3 -7.0)">10</text></g><path class="edge" d="M 0 0 V -52.9634 H 23" /><circle class="sym" cx="0" cy="0" r="3" /><text class="lab lft" transform="translate(-3 -7.0)">24</text></g><g class="a30 c1 node n28 p0" transform="translate(23 27.504)"><g class="a28 c2 node n15 p0" transform="translate(0.0 50.0077)"><g class="a15 leaf node n4 p0 sample" transform="translate(11.5 8.23015)"><path class="edge" d="M 0 0 V -8.23015 H -11.5" /><rect class="sym" height="6" width="6" x="-3" y="-3" /><text class="lab" transform="translate(0 11)">4</text></g><g class="a15 c1 node n14 p0" transform="translate(-11.5 3.93844)"><g class="a14 c2 node n12 p0" transform="translate(0.0 1.52419)"><g class="a12 leaf node n3 p0 sample" transform="translate(-7.66667 2.76753)"><path class="edge" d="M 0 0 V -2.76753 H 7.66667" /><rect class="sym" height="6" width="6" x="-3" y="-3" /><text class="lab" transform="translate(0 11)">3</text></g><g class="a12 leaf node n8 p0 sample" transform="translate(7.66667 2.76753)"><path class="edge" d="M 0 0 V -2.76753 H -7.66667" /><rect class="sym" height="6" width="6" x="-3" y="-3" /><text class="lab" transform="translate(0 11)">8</text></g><path class="edge" d="M 0 0 V -1.52419 H 0.0" /><circle class="sym" cx="0" cy="0" r="3" /><text class="lab lft" transform="translate(-3 -7.0)">12</text></g><path class="edge" d="M 0 0 V -3.93844 H 11.5" /><circle class="sym" cx="0" cy="0" r="3" /><text class="lab lft" transform="translate(-3 -7.0)">14</text></g><path class="edge" d="M 0 0 V -50.0077 H 0.0" /><circle class="sym" cx="0" cy="0" r="3" /><text class="lab lft" transform="translate(-3 -7.0)">15</text></g><path class="edge" d="M 0 0 V -27.504 H -23" /><circle class="sym" cx="0" cy="0" r="3" /><text class="lab rgt" transform="translate(3 -7.0)">28</text></g><path class="edge" d="M 0 0 V -8.85807 H -35.4583" /><circle class="sym" cx="0" cy="0" r="3" /><text class="lab rgt" transform="translate(3 -7.0)">30</text></g><g class="a33 c2 node n32 p0" transform="translate(-35.4583 2.55523)"><g class="a32 c1 node n29 p0" transform="translate(13.4167 7.11719)"><g class="a29 c1 node n23 p0" transform="translate(0.0 55.7319)"><g class="a23 c1 node n19 p0" transform="translate(0.0 14.5549)"><g class="a19 c1 node n16 p0" transform="translate(0.0 4.68895)"><g class="a16 leaf node n7 p0 sample" transform="translate(0.0 9.9518)"><path class="edge" d="M 0 0 V -9.9518 H 0.0" /><rect class="sym" height="6" width="6" x="-3" y="-3" /><text class="lab" transform="translate(0 11)">7</text></g><path class="edge" d="M 0 0 V -4.68895 H 0.0" /><circle class="sym" cx="0" cy="0" r="3" /><text class="lab lft" transform="translate(-3 -7.0)">16</text></g><path class="edge" d="M 0 0 V -14.5549 H 0.0" /><circle class="sym" cx="0" cy="0" r="3" /><text class="lab lft" transform="translate(-3 -7.0)">19</text></g><path class="edge" d="M 0 0 V -55.7319 H 0.0" /><circle class="sym" cx="0" cy="0" r="3" /><text class="lab lft" transform="translate(-3 -7.0)">23</text></g><path class="edge" d="M 0 0 V -7.11719 H -13.4167" /><circle class="sym" cx="0" cy="0" r="3" /><text class="lab rgt" transform="translate(3 -7.0)">29</text></g><g class="a32 c1 node n31 p0" transform="translate(-13.4167 2.94046)"><g class="a31 c2 node n25 p0" transform="translate(0.0 50.092)"><g class="a25 c2 node n11 p0" transform="translate(-11.5 38.1763)"><g class="a11 leaf node n0 p0 sample" transform="translate(-7.66667 0.83605)"><path class="edge" d="M 0 0 V -0.83605 H 7.66667" /><rect class="sym" height="6" width="6" x="-3" y="-3" /><text class="lab" transform="translate(0 11)">0</text></g><g class="a11 leaf node n9 p0 sample" transform="translate(7.66667 0.83605)"><path class="edge" d="M 0 0 V -0.83605 H -7.66667" /><rect class="sym" height="6" width="6" x="-3" y="-3" /><text class="lab" transform="translate(0 11)">9</text></g><path class="edge" d="M 0 0 V -38.1763 H 11.5" /><circle class="sym" cx="0" cy="0" r="3" /><text class="lab lft" transform="translate(-3 -7.0)">11</text></g><g class="a25 c1 node n21 p0" transform="translate(11.5 15.7384)"><g class="a21 leaf node n5 p0 sample" transform="translate(0.0 23.274)"><path class="edge" d="M 0 0 V -23.274 H 0.0" /><rect class="sym" height="6" width="6" x="-3" y="-3" /><text class="lab" transform="translate(0 11)">5</text></g><path class="edge" d="M 0 0 V -15.7384 H -11.5" /><circle class="sym" cx="0" cy="0" r="3" /><text class="lab rgt" transform="translate(3 -7.0)">21</text></g><path class="edge" d="M 0 0 V -50.092 H 0.0" /><circle class="sym" cx="0" cy="0" r="3" /><text class="lab lft" transform="translate(-3 -7.0)">25</text></g><path class="edge" d="M 0 0 V -2.94046 H 13.4167" /><circle class="sym" cx="0" cy="0" r="3" /><text class="lab lft" transform="translate(-3 -7.0)">31</text></g><path class="edge" d="M 0 0 V -2.55523 H 35.4583" /><circle class="sym" cx="0" cy="0" r="3" /><text class="lab lft" transform="translate(-3 -7.0)">32</text></g><circle class="sym" cx="0" cy="0" r="3" /><text class="lab" transform="translate(0 -11)">33</text></g></g></g><g class="tree t5" transform="translate(986.667 0)"><g class="plotbox"><g class="c2 node n33 p0 root" transform="translate(90.9167 26.8)"><g class="a33 c2 node n30 p0" transform="translate(40.25 8.85807)"><g class="a30 c2 node n24 p0" transform="translate(-23 52.9634)"><g class="a24 leaf node n6 p0 sample" transform="translate(11.5 32.7785)"><path class="edge" d="M 0 0 V -32.7785 H -11.5" /><rect class="sym" height="6" width="6" x="-3" y="-3" /><text class="lab" transform="translate(0 11)">6</text></g><g class="a24 c2 node n10 p0" transform="translate(-11.5 32.4678)"><g class="a10 leaf node n1 p0 sample" transform="translate(-7.66667 0.310681)"><path class="edge" d="M 0 0 V -0.310681 H 7.66667" /><rect class="sym" height="6" width="6" x="-3" y="-3" /><text class="lab" transform="translate(0 11)">1</text></g><g class="a10 leaf node n2 p0 sample" transform="translate(7.66667 0.310681)"><path class="edge" d="M 0 0 V -0.310681 H -7.66667" /><rect class="sym" height="6" width="6" x="-3" y="-3" /><text class="lab" transform="translate(0 11)">2</text></g><path class="edge" d="M 0 0 V -32.4678 H 11.5" /><circle class="sym" cx="0" cy="0" r="3" /><text class="lab lft" transform="translate(-3 -7.0)">10</text></g><path class="edge" d="M 0 0 V -52.9634 H 23" /><circle class="sym" cx="0" cy="0" r="3" /><text class="lab lft" transform="translate(-3 -7.0)">24</text></g><g class="a30 c1 node n28 p0" transform="translate(23 27.504)"><g class="a28 c2 node n15 p0" transform="translate(0.0 50.0077)"><g class="a15 leaf node n4 p0 sample" transform="translate(11.5 8.23015)"><path class="edge" d="M 0 0 V -8.23015 H -11.5" /><rect class="sym" height="6" width="6" x="-3" y="-3" /><text class="lab" transform="translate(0 11)">4</text></g><g class="a15 c1 node n14 p0" transform="translate(-11.5 3.93844)"><g class="a14 c2 node n12 p0" transform="translate(0.0 1.52419)"><g class="a12 leaf node n3 p0 sample" transform="translate(-7.66667 2.76753)"><path class="edge" d="M 0 0 V -2.76753 H 7.66667" /><rect class="sym" height="6" width="6" x="-3" y="-3" /><text class="lab" transform="translate(0 11)">3</text></g><g class="a12 leaf node n8 p0 sample" transform="translate(7.66667 2.76753)"><path class="edge" d="M 0 0 V -2.76753 H -7.66667" /><rect class="sym" height="6" width="6" x="-3" y="-3" /><text class="lab" transform="translate(0 11)">8</text></g><path class="edge" d="M 0 0 V -1.52419 H 0.0" /><circle class="sym" cx="0" cy="0" r="3" /><text class="lab lft" transform="translate(-3 -7.0)">12</text></g><path class="edge" d="M 0 0 V -3.93844 H 11.5" /><circle class="sym" cx="0" cy="0" r="3" /><text class="lab lft" transform="translate(-3 -7.0)">14</text></g><path class="edge" d="M 0 0 V -50.0077 H 0.0" /><circle class="sym" cx="0" cy="0" r="3" /><text class="lab lft" transform="translate(-3 -7.0)">15</text></g><path class="edge" d="M 0 0 V -27.504 H -23" /><circle class="sym" cx="0" cy="0" r="3" /><text class="lab rgt" transform="translate(3 -7.0)">28</text></g><path class="edge" d="M 0 0 V -8.85807 H -40.25" /><circle class="sym" cx="0" cy="0" r="3" /><text class="lab rgt" transform="translate(3 -7.0)">30</text></g><g class="a33 c1 node n32 p0" transform="translate(-40.25 2.55523)"><g class="a32 c1 node n31 p0" transform="translate(0.0 2.94046)"><g class="a31 c2 node n25 p0" transform="translate(0.0 50.092)"><g class="a25 c2 node n11 p0" transform="translate(-15.3333 38.1763)"><g class="a11 leaf node n0 p0 sample" transform="translate(-7.66667 0.83605)"><path class="edge" d="M 0 0 V -0.83605 H 7.66667" /><rect class="sym" height="6" width="6" x="-3" y="-3" /><text class="lab" transform="translate(0 11)">0</text></g><g class="a11 leaf node n9 p0 sample" transform="translate(7.66667 0.83605)"><path class="edge" d="M 0 0 V -0.83605 H -7.66667" /><rect class="sym" height="6" width="6" x="-3" y="-3" /><text class="lab" transform="translate(0 11)">9</text></g><path class="edge" d="M 0 0 V -38.1763 H 15.3333" /><circle class="sym" cx="0" cy="0" r="3" /><text class="lab lft" transform="translate(-3 -7.0)">11</text></g><g class="a25 c2 node n21 p0" transform="translate(15.3333 15.7384)"><g class="a21 leaf node n5 p0 sample" transform="translate(-7.66667 23.274)"><path class="edge" d="M 0 0 V -23.274 H 7.66667" /><rect class="sym" height="6" width="6" x="-3" y="-3" /><text class="lab" transform="translate(0 11)">5</text></g><g class="a21 c1 node n17 p0" transform="translate(7.66667 13.3222)"><g class="a17 leaf node n7 p0 sample" transform="translate(0.0 9.9518)"><path class="edge" d="M 0 0 V -9.9518 H 0.0" /><rect class="sym" height="6" width="6" x="-3" y="-3" /><text class="lab" transform="translate(0 11)">7</text></g><path class="edge" d="M 0 0 V -13.3222 H -7.66667" /><circle class="sym" cx="0" cy="0" r="3" /><text class="lab rgt" transform="translate(3 -7.0)">17</text></g><path class="edge" d="M 0 0 V -15.7384 H -15.3333" /><circle class="sym" cx="0" cy="0" r="3" /><text class="lab rgt" transform="translate(3 -7.0)">21</text></g><path class="edge" d="M 0 0 V -50.092 H 0.0" /><circle class="sym" cx="0" cy="0" r="3" /><text class="lab lft" transform="translate(-3 -7.0)">25</text></g><path class="edge" d="M 0 0 V -2.94046 H 0.0" /><circle class="sym" cx="0" cy="0" r="3" /><text class="lab lft" transform="translate(-3 -7.0)">31</text></g><path class="edge" d="M 0 0 V -2.55523 H 40.25" /><circle class="sym" cx="0" cy="0" r="3" /><text class="lab lft" transform="translate(-3 -7.0)">32</text></g><circle class="sym" cx="0" cy="0" r="3" /><text class="lab" transform="translate(0 -11)">33</text></g></g></g></g></g></svg>
