<svg baseProfile="full" height="200" version="1.1" width="1000" xmlns="http://www.w3.org/2000/svg" xmlns:ev="http://www.w3.org/2001/xml-events" xmlns:xlink="http://www.w3.org/1999/xlink"><defs><style type="text/css"><![CDATA[.background path {fill: #808080; fill-opacity: 0}.background path:nth-child(odd) {fill-opacity: .1}.axes {font-size: 14px}.x-axis .tick .lab {font-weight: bold; dominant-baseline: hanging}.axes, .tree {font-size: 14px; text-anchor: middle}.axes line, .edge {stroke: black; fill: none}.y-axis .grid {stroke: #FAFAFA}.node > .sym {fill: black; stroke: none}.site > .sym {stroke: black}.mut text {fill: red; font-style: italic}.mut.extra text {fill: hotpink}.mut line {fill: none; stroke: none}.mut .sym {fill: none; stroke: red}.mut.extra .sym {stroke: hotpink}.node .mut .sym {stroke-width: 1.5px}.tree text, .tree-sequence text {dominant-baseline: central}.plotbox .lab.lft {text-anchor: end}.plotbox .lab.rgt {text-anchor: start}]]></style></defs><g class="tree-sequence"><g class="background"><path d="M20,0 l192,0 l0,138.2 l30.4963,25 l0,5 l-222.496,0 l0,-5 l0,-25 l0,-138.2z" /><path d="M212,0 l192,0 l0,138.2 l53.6367,25 l0,5 l-215.14,0 l0,-5 l-30.4963,-25 l0,-138.2z" /><path d="M404,0 l192,0 l0,138.2 l66.0439,25 l0,5 l-204.407,0 l0,-5 l-53.6367,-25 l0,-138.2z" /><path d="M596,0 l192,0 l0,138.2 l-95.4127,25 l0,5 l-30.5434,0 l0,-5 l-66.0439,-25 l0,-138.2z" /><path d="M788,0 l192,0 l0,138.2 l0,25 l0,5 l-287.413,0 l0,-5 l95.4127,-25 l0,-138.2z" /></g><g class="axes"><g class="x-axis"><g transform="translate(500 200)"><text class="lab" text-anchor="middle" transform="translate(0 -11)">Genome position</text></g><line x1="20" x2="980" y1="163.2" y2="163.2" /><g class="ticks"><g class="tick" transform="translate(20 163.2)"><line x1="0" x2="0" y1="0" y2="5" /><g transform="translate(0 6)"><text class="lab">0.00</text></g></g><g class="tick" transform="translate(242.496 163.2)"><line x1="0" x2="0" y1="0" y2="5" /><g transform="translate(0 6)"><text class="lab">231.77</text></g></g><g class="tick" transform="translate(457.637 163.2)"><line x1="0" x2="0" y1="0" y2="5" /><g transform="translate(0 6)"><text class="lab">455.87</text></g></g><g class="tick" transform="translate(662.044 163.2)"><line x1="0" x2="0" y1="0" y2="5" /><g transform="translate(0 6)"><text class="lab">668.80</text></g></g><g class="tick" transform="translate(692.587 163.2)"><line x1="0" x2="0" y1="0" y2="5" /><g transform="translate(0 6)"><text class="lab">700.61</text></g></g><g class="tick" transform="translate(980 163.2)"><line x1="0" x2="0" y1="0" y2="5" /><g transform="translate(0 6)"><text class="lab">1000.00</text></g></g></g></g></g><g class="plotbox trees"><g class="tree t0" transform="translate(20 0)"><g class="plotbox"><g class="c2 node n30 p0 root" transform="translate(132.337 26.8)"><g class="a30 c1 node n27 p0" transform="translate(32.0625 34.6352)"><g class="a27 c1 node n16 p0" transform="translate(0.0 28.788)"><g class="a16 leaf node n6 p0 sample" transform="translate(0.0 31.1768)"><path class="edge" d="M 0 0 V -31.1768 H 0.0" /><rect class="sym" height="6" width="6" x="-3" y="-3" /><text class="lab" transform="translate(0 11)">6</text></g><path class="edge" d="M 0 0 V -28.788 H 0.0" /><circle class="sym" cx="0" cy="0" r="3" /><text class="lab lft" transform="translate(-3 -7.0)">16</text></g><path class="edge" d="M 0 0 V -34.6352 H -32.0625" /><circle class="sym" cx="0" cy="0" r="3" /><text class="lab rgt" transform="translate(3 -7.0)">27</text></g><g class="a30 c2 node n29 p0" transform="translate(-32.0625 5.98703)"><g class="a29 c2 node n25 p0" transform="translate(26.125 34.1494)"><g class="a25 c1 node n21 p0" transform="translate(15.2 13.617)"><g class="a21 c1 node n14 p0" transform="translate(0.0 26.7588)"><g class="a14 c2 node n13 p0" transform="translate(0.0 11.4694)"><g class="a13 leaf node n5 p0 sample" transform="translate(-7.6 2.61832)"><path class="edge" d="M 0 0 V -2.61832 H 7.6" /><rect class="sym" height="6" width="6" x="-3" y="-3" /><text class="lab" transform="translate(0 11)">5</text></g><g class="a13 leaf node n8 p0 sample" transform="translate(7.6 2.61832)"><path class="edge" d="M 0 0 V -2.61832 H -7.6" /><rect class="sym" height="6" width="6" x="-3" y="-3" /><text class="lab" transform="translate(0 11)">8</text></g><path class="edge" d="M 0 0 V -11.4694 H 0.0" /><circle class="sym" cx="0" cy="0" r="3" /><text class="lab lft" transform="translate(-3 -7.0)">13</text></g><path class="edge" d="M 0 0 V -26.7588 H 0.0" /><circle class="sym" cx="0" cy="0" r="3" /><text class="lab lft" transform="translate(-3 -7.0)">14</text></g><path class="edge" d="M 0 0 V -13.617 H -15.2" /><circle class="sym" cx="0" cy="0" r="3" /><text class="lab rgt" transform="translate(3 -7.0)">21</text></g><g class="a25 c1 node n23 p0" transform="translate(-15.2 2.47027)"><g class="a23 c2 node n12 p0" transform="translate(0.0 49.6074)"><g class="a12 leaf node n3 p0 sample" transform="translate(-7.6 2.38595)"><path class="edge" d="M 0 0 V -2.38595 H 7.6" /><rect class="sym" height="6" width="6" x="-3" y="-3" /><text class="lab" transform="translate(0 11)">3</text></g><g class="a12 leaf node n7 p0 sample" transform="translate(7.6 2.38595)"><path class="edge" d="M 0 0 V -2.38595 H -7.6" /><rect class="sym" height="6" width="6" x="-3" y="-3" /><text class="lab" transform="translate(0 11)">7</text></g><path class="edge" d="M 0 0 V -49.6074 H 0.0" /><circle class="sym" cx="0" cy="0" r="3" /><text class="lab lft" transform="translate(-3 -7.0)">12</text></g><path class="edge" d="M 0 0 V -2.47027 H 15.2" /><circle class="sym" cx="0" cy="0" r="3" /><text class="lab lft" transform="translate(-3 -7.0)">23</text></g><path class="edge" d="M 0 0 V -34.1494 H -26.125" /><circle class="sym" cx="0" cy="0" r="3" /><text class="lab rgt" transform="translate(3 -7.0)">25</text></g><g class="a29 c2 node n28 p0" transform="translate(-26.125 16.2342)"><g class="a28 leaf node n1 p0 sample" transform="translate(14.25 72.3788)"><path class="edge" d="M 0 0 V -72.3788 H -14.25" /><rect class="sym" height="6" width="6" x="-3" y="-3" /><text class="lab" transform="translate(0 11)">1</text></g><g class="a28 c1 node n26 p0" transform="translate(-14.25 15.0561)"><g class="a26 c2 node n22 p0" transform="translate(0.0 14.0962)"><g class="a22 c2 node n11 p0" transform="translate(-13.3 42.1533)"><g class="a11 leaf node n4 p0 sample" transform="translate(11.4 1.07317)"><path class="edge" d="M 0 0 V -1.07317 H -11.4" /><rect class="sym" height="6" width="6" x="-3" y="-3" /><text class="lab" transform="translate(0 11)">4</text></g><g class="a11 c2 node n10 p0" transform="translate(-11.4 0.606382)"><g class="a10 leaf node n0 p0 sample" transform="translate(-7.6 0.466792)"><path class="edge" d="M 0 0 V -0.466792 H 7.6" /><rect class="sym" height="6" width="6" x="-3" y="-3" /><text class="lab" transform="translate(0 11)">0</text></g><g class="a10 leaf node n9 p0 sample" transform="translate(7.6 0.466792)"><path class="edge" d="M 0 0 V -0.466792 H -7.6" /><rect class="sym" height="6" width="6" x="-3" y="-3" /><text class="lab" transform="translate(0 11)">9</text></g><path class="edge" d="M 0 0 V -0.606382 H 11.4" /><circle class="sym" cx="0" cy="0" r="3" /><text class="lab lft" transform="translate(-3 -7.0)">10</text></g><path class="edge" d="M 0 0 V -42.1533 H 13.3" /><circle class="sym" cx="0" cy="0" r="3" /><text class="lab lft" transform="translate(-3 -7.0)">11</text></g><g class="a22 c1 node n19 p0" transform="translate(13.3 6.32295)"><g class="a19 c1 node n18 p0" transform="translate(0.0 1.05699)"><g class="a18 leaf node n2 p0 sample" transform="translate(0.0 35.8465)"><path class="edge" d="M 0 0 V -35.8465 H 0.0" /><rect class="sym" height="6" width="6" x="-3" y="-3" /><text class="lab" transform="translate(0 11)">2</text></g><path class="edge" d="M 0 0 V -1.05699 H 0.0" /><circle class="sym" cx="0" cy="0" r="3" /><text class="lab lft" transform="translate(-3 -7.0)">18</text></g><path class="edge" d="M 0 0 V -6.32295 H -13.3" /><circle class="sym" cx="0" cy="0" r="3" /><text class="lab rgt" transform="translate(3 -7.0)">19</text></g><path class="edge" d="M 0 0 V -14.0962 H 0.0" /><circle class="sym" cx="0" cy="0" r="3" /><text class="lab lft" transform="translate(-3 -7.0)">22</text></g><path class="edge" d="M 0 0 V -15.0561 H 14.25" /><circle class="sym" cx="0" cy="0" r="3" /><text class="lab lft" transform="translate(-3 -7.0)">26</text></g><path class="edge" d="M 0 0 V -16.2342 H 26.125" /><circle class="sym" cx="0" cy="0" r="3" /><text class="lab lft" transform="translate(-3 -7.0)">28</text></g><path class="edge" d="M 0 0 V -5.98703 H 32.0625" /><circle class="sym" cx="0" cy="0" r="3" /><text class="lab lft" transform="translate(-3 -7.0)">29</text></g><circle class="sym" cx="0" cy="0" r="3" /><text class="lab" transform="translate(0 -11)">30</text></g></g></g><g class="tree t1" transform="translate(212 0)"><g class="plotbox"><g class="c2 node n30 p0 root" transform="translate(122.838 26.8)"><g class="a30 c2 node n27 p0" transform="translate(30.1625 34.6352)"><g class="a27 c1 node n16 p0" transform="translate(11.4 28.788)"><g class="a16 leaf node n6 p0 sample" transform="translate(0.0 31.1768)"><path class="edge" d="M 0 0 V -31.1768 H 0.0" /><rect class="sym" height="6" width="6" x="-3" y="-3" /><text class="lab" transform="translate(0 11)">6</text></g><path class="edge" d="M 0 0 V -28.788 H -11.4" /><circle class="sym" cx="0" cy="0" r="3" /><text class="lab rgt" transform="translate(3 -7.0)">16</text></g><g class="a27 c1 node n15 p0" transform="translate(-11.4 45.8771)"><g class="a15 c2 node n13 p0" transform="translate(0.0 11.4694)"><g class="a13 leaf node n5 p0 sample" transform="translate(-7.6 2.61832)"><path class="edge" d="M 0 0 V -2.61832 H 7.6" /><rect class="sym" height="6" width="6" x="-3" y="-3" /><text class="lab" transform="translate(0 11)">5</text></g><g class="a13 leaf node n8 p0 sample" transform="translate(7.6 2.61832)"><path class="edge" d="M 0 0 V -2.61832 H -7.6" /><rect class="sym" height="6" width="6" x="-3" y="-3" /><text class="lab" transform="translate(0 11)">8</text></g><path class="edge" d="M 0 0 V -11.4694 H 0.0" /><circle class="sym" cx="0" cy="0" r="3" /><text class="lab lft" transform="translate(-3 -7.0)">13</text></g><path class="edge" d="M 0 0 V -45.8771 H 11.4" /><circle class="sym" cx="0" cy="0" r="3" /><text class="lab lft" transform="translate(-3 -7.0)">15</text></g><path class="edge" d="M 0 0 V -34.6352 H -30.1625" /><circle class="sym" cx="0" cy="0" r="3" /><text class="lab rgt" transform="translate(3 -7.0)">27</text></g><g class="a30 c2 node n29 p0" transform="translate(-30.1625 5.98703)"><g class="a29 c1 node n25 p0" transform="translate(18.525 34.1494)"><g class="a25 c1 node n23 p0" transform="translate(0.0 2.47027)"><g class="a23 c2 node n12 p0" transform="translate(0.0 49.6074)"><g class="a12 leaf node n3 p0 sample" transform="translate(-7.6 2.38595)"><path class="edge" d="M 0 0 V -2.38595 H 7.6" /><rect class="sym" height="6" width="6" x="-3" y="-3" /><text class="lab" transform="translate(0 11)">3</text></g><g class="a12 leaf node n7 p0 sample" transform="translate(7.6 2.38595)"><path class="edge" d="M 0 0 V -2.38595 H -7.6" /><rect class="sym" height="6" width="6" x="-3" y="-3" /><text class="lab" transform="translate(0 11)">7</text></g><path class="edge" d="M 0 0 V -49.6074 H 0.0" /><circle class="sym" cx="0" cy="0" r="3" /><text class="lab lft" transform="translate(-3 -7.0)">12</text></g><path class="edge" d="M 0 0 V -2.47027 H 0.0" /><circle class="sym" cx="0" cy="0" r="3" /><text class="lab lft" transform="translate(-3 -7.0)">23</text></g><path class="edge" d="M 0 0 V -34.1494 H -18.525" /><circle class="sym" cx="0" cy="0" r="3" /><text class="lab rgt" transform="translate(3 -7.0)">25</text></g><g class="a29 c2 node n28 p0" transform="translate(-18.525 16.2342)"><g class="a28 leaf node n1 p0 sample" transform="translate(14.25 72.3788)"><path class="edge" d="M 0 0 V -72.3788 H -14.25" /><rect class="sym" height="6" width="6" x="-3" y="-3" /><text class="lab" transform="translate(0 11)">1</text></g><g class="a28 c1 node n26 p0" transform="translate(-14.25 15.0561)"><g class="a26 c2 node n22 p0" transform="translate(0.0 14.0962)"><g class="a22 c2 node n11 p0" transform="translate(-13.3 42.1533)"><g class="a11 leaf node n4 p0 sample" transform="translate(11.4 1.07317)"><path class="edge" d="M 0 0 V -1.07317 H -11.4" /><rect class="sym" height="6" width="6" x="-3" y="-3" /><text class="lab" transform="translate(0 11)">4</text></g><g class="a11 c2 node n10 p0" transform="translate(-11.4 0.606382)"><g class="a10 leaf node n0 p0 sample" transform="translate(-7.6 0.466792)"><path class="edge" d="M 0 0 V -0.466792 H 7.6" /><rect class="sym" height="6" width="6" x="-3" y="-3" /><text class="lab" transform="translate(0 11)">0</text></g><g class="a10 leaf node n9 p0 sample" transform="translate(7.6 0.466792)"><path class="edge" d="M 0 0 V -0.466792 H -7.6" /><rect class="sym" height="6" width="6" x="-3" y="-3" /><text class="lab" transform="translate(0 11)">9</text></g><path class="edge" d="M 0 0 V -0.606382 H 11.4" /><circle class="sym" cx="0" cy="0" r="3" /><text class="lab lft" transform="translate(-3 -7.0)">10</text></g><path class="edge" d="M 0 0 V -42.1533 H 13.3" /><circle class="sym" cx="0" cy="0" r="3" /><text class="lab lft" transform="translate(-3 -7.0)">11</text></g><g class="a22 c1 node n19 p0" transform="translate(13.3 6.32295)"><g class="a19 c1 node n18 p0" transform="translate(0.0 1.05699)"><g class="a18 leaf node n2 p0 sample" transform="translate(0.0 35.8465)"><path class="edge" d="M 0 0 V -35.8465 H 0.0" /><rect class="sym" height="6" width="6" x="-3" y="-3" /><text class="lab" transform="translate(0 11)">2</text></g><path class="edge" d="M 0 0 V -1.05699 H 0.0" /><circle class="sym" cx="0" cy="0" r="3" /><text class="lab lft" transform="translate(-3 -7.0)">18</text></g><path class="edge" d="M 0 0 V -6.32295 H -13.3" /><circle class="sym" cx="0" cy="0" r="3" /><text class="lab rgt" transform="translate(3 -7.0)">19</text></g><path class="edge" d="M 0 0 V -14.0962 H 0.0" /><circle class="sym" cx="0" cy="0" r="3" /><text class="lab lft" transform="translate(-3 -7.0)">22</text></g><path class="edge" d="M 0 0 V -15.0561 H 14.25" /><circle class="sym" cx="0" cy="0" r="3" /><text class="lab lft" transform="translate(-3 -7.0)">26</text></g><path class="edge" d="M 0 0 V -16.2342 H 18.525" /><circle class="sym" cx="0" cy="0" r="3" /><text class="lab lft" transform="translate(-3 -7.0)">28</text></g><path class="edge" d="M 0 0 V -5.98703 H 30.1625" /><circle class="sym" cx="0" cy="0" r="3" /><text class="lab lft" transform="translate(-3 -7.0)">29</text></g><circle class="sym" cx="0" cy="0" r="3" /><text class="lab" transform="translate(0 -11)">30</text></g></g></g><g class="tree t2" transform="translate(404 0)"><g class="plotbox"><g class="c2 node n30 p0 root" transform="translate(116.425 26.8)"><g class="a30 c2 node n27 p0" transform="translate(36.575 34.6352)"><g class="a27 c1 node n16 p0" transform="translate(11.4 28.788)"><g class="a16 leaf node n6 p0 sample" transform="translate(0.0 31.1768)"><path class="edge" d="M 0 0 V -31.1768 H 0.0" /><rect class="sym" height="6" width="6" x="-3" y="-3" /><text class="lab" transform="translate(0 11)">6</text></g><path class="edge" d="M 0 0 V -28.788 H -11.4" /><circle class="sym" cx="0" cy="0" r="3" /><text class="lab rgt" transform="translate(3 -7.0)">16</text></g><g class="a27 c1 node n15 p0" transform="translate(-11.4 45.8771)"><g class="a15 c2 node n13 p0" transform="translate(0.0 11.4694)"><g class="a13 leaf node n5 p0 sample" transform="translate(-7.6 2.61832)"><path class="edge" d="M 0 0 V -2.61832 H 7.6" /><rect class="sym" height="6" width="6" x="-3" y="-3" /><text class="lab" transform="translate(0 11)">5</text></g><g class="a13 leaf node n8 p0 sample" transform="translate(7.6 2.61832)"><path class="edge" d="M 0 0 V -2.61832 H -7.6" /><rect class="sym" height="6" width="6" x="-3" y="-3" /><text class="lab" transform="translate(0 11)">8</text></g><path class="edge" d="M 0 0 V -11.4694 H 0.0" /><circle class="sym" cx="0" cy="0" r="3" /><text class="lab lft" transform="translate(-3 -7.0)">13</text></g><path class="edge" d="M 0 0 V -45.8771 H 11.4" /><circle class="sym" cx="0" cy="0" r="3" /><text class="lab lft" transform="translate(-3 -7.0)">15</text></g><path class="edge" d="M 0 0 V -34.6352 H -36.575" /><circle class="sym" cx="0" cy="0" r="3" /><text class="lab rgt" transform="translate(3 -7.0)">27</text></g><g class="a30 c2 node n29 p0" transform="translate(-36.575 5.98703)"><g class="a29 c2 node n25 p0" transform="translate(19.95 34.1494)"><g class="a25 c1 node n23 p0" transform="translate(11.4 2.47027)"><g class="a23 c2 node n12 p0" transform="translate(0.0 49.6074)"><g class="a12 leaf node n3 p0 sample" transform="translate(-7.6 2.38595)"><path class="edge" d="M 0 0 V -2.38595 H 7.6" /><rect class="sym" height="6" width="6" x="-3" y="-3" /><text class="lab" transform="translate(0 11)">3</text></g><g class="a12 leaf node n7 p0 sample" transform="translate(7.6 2.38595)"><path class="edge" d="M 0 0 V -2.38595 H -7.6" /><rect class="sym" height="6" width="6" x="-3" y="-3" /><text class="lab" transform="translate(0 11)">7</text></g><path class="edge" d="M 0 0 V -49.6074 H 0.0" /><circle class="sym" cx="0" cy="0" r="3" /><text class="lab lft" transform="translate(-3 -7.0)">12</text></g><path class="edge" d="M 0 0 V -2.47027 H -11.4" /><circle class="sym" cx="0" cy="0" r="3" /><text class="lab rgt" transform="translate(3 -7.0)">23</text></g><g class="a25 c1 node n21 p0" transform="translate(-11.4 13.617)"><g class="a21 c1 node n20 p0" transform="translate(0.0 3.94301)"><g class="a20 c1 node n18 p0" transform="translate(0.0 1.05699)"><g class="a18 leaf node n2 p0 sample" transform="translate(0.0 35.8465)"><path class="edge" d="M 0 0 V -35.8465 H 0.0" /><rect class="sym" height="6" width="6" x="-3" y="-3" /><text class="lab" transform="translate(0 11)">2</text></g><path class="edge" d="M 0 0 V -1.05699 H 0.0" /><circle class="sym" cx="0" cy="0" r="3" /><text class="lab lft" transform="translate(-3 -7.0)">18</text></g><path class="edge" d="M 0 0 V -3.94301 H 0.0" /><circle class="sym" cx="0" cy="0" r="3" /><text class="lab lft" transform="translate(-3 -7.0)">20</text></g><path class="edge" d="M 0 0 V -13.617 H 11.4" /><circle class="sym" cx="0" cy="0" r="3" /><text class="lab lft" transform="translate(-3 -7.0)">21</text></g><path class="edge" d="M 0 0 V -34.1494 H -19.95" /><circle class="sym" cx="0" cy="0" r="3" /><text class="lab rgt" transform="translate(3 -7.0)">25</text></g><g class="a29 c2 node n28 p0" transform="translate(-19.95 16.2342)"><g class="a28 leaf node n1 p0 sample" transform="translate(13.3 72.3788)"><path class="edge" d="M 0 0 V -72.3788 H -13.3" /><rect class="sym" height="6" width="6" x="-3" y="-3" /><text class="lab" transform="translate(0 11)">1</text></g><g class="a28 c1 node n26 p0" transform="translate(-13.3 15.0561)"><g class="a26 c1 node n22 p0" transform="translate(0.0 14.0962)"><g class="a22 c2 node n11 p0" transform="translate(0.0 42.1533)"><g class="a11 leaf node n4 p0 sample" transform="translate(11.4 1.07317)"><path class="edge" d="M 0 0 V -1.07317 H -11.4" /><rect class="sym" height="6" width="6" x="-3" y="-3" /><text class="lab" transform="translate(0 11)">4</text></g><g class="a11 c2 node n10 p0" transform="translate(-11.4 0.606382)"><g class="a10 leaf node n0 p0 sample" transform="translate(-7.6 0.466792)"><path class="edge" d="M 0 0 V -0.466792 H 7.6" /><rect class="sym" height="6" width="6" x="-3" y="-3" /><text class="lab" transform="translate(0 11)">0</text></g><g class="a10 leaf node n9 p0 sample" transform="translate(7.6 0.466792)"><path class="edge" d="M 0 0 V -0.466792 H -7.6" /><rect class="sym" height="6" width="6" x="-3" y="-3" /><text class="lab" transform="translate(0 11)">9</text></g><path class="edge" d="M 0 0 V -0.606382 H 11.4" /><circle class="sym" cx="0" cy="0" r="3" /><text class="lab lft" transform="translate(-3 -7.0)">10</text></g><path class="edge" d="M 0 0 V -42.1533 H 0.0" /><circle class="sym" cx="0" cy="0" r="3" /><text class="lab lft" transform="translate(-3 -7.0)">11</text></g><path class="edge" d="M 0 0 V -14.0962 H 0.0" /><circle class="sym" cx="0" cy="0" r="3" /><text class="lab lft" transform="translate(-3 -7.0)">22</text></g><path class="edge" d="M 0 0 V -15.0561 H 13.3" /><circle class="sym" cx="0" cy="0" r="3" /><text class="lab lft" transform="translate(-3 -7.0)">26</text></g><path class="edge" d="M 0 0 V -16.2342 H 19.95" /><circle class="sym" cx="0" cy="0" r="3" /><text class="lab lft" transform="translate(-3 -7.0)">28</text></g><path class="edge" d="M 0 0 V -5.98703 H 36.575" /><circle class="sym" cx="0" cy="0" r="3" /><text class="lab lft" transform="translate(-3 -7.0)">29</text></g><circle class="sym" cx="0" cy="0" r="3" /><text class="lab" transform="translate(0 -11)">30</text></g></g></g><g class="tree t3" transform="translate(596 0)"><g class="plotbox"><g class="c2 node n30 p0 root" transform="translate(121.175 26.8)"><g class="a30 c1 node n27 p0" transform="translate(35.625 34.6352)"><g class="a27 c1 node n15 p0" transform="translate(0.0 45.8771)"><g class="a15 c2 node n13 p0" transform="translate(0.0 11.4694)"><g class="a13 leaf node n5 p0 sample" transform="translate(-7.6 2.61832)"><path class="edge" d="M 0 0 V -2.61832 H 7.6" /><rect class="sym" height="6" width="6" x="-3" y="-3" /><text class="lab" transform="translate(0 11)">5</text></g><g class="a13 leaf node n8 p0 sample" transform="translate(7.6 2.61832)"><path class="edge" d="M 0 0 V -2.61832 H -7.6" /><rect class="sym" height="6" width="6" x="-3" y="-3" /><text class="lab" transform="translate(0 11)">8</text></g><path class="edge" d="M 0 0 V -11.4694 H 0.0" /><circle class="sym" cx="0" cy="0" r="3" /><text class="lab lft" transform="translate(-3 -7.0)">13</text></g><path class="edge" d="M 0 0 V -45.8771 H 0.0" /><circle class="sym" cx="0" cy="0" r="3" /><text class="lab lft" transform="translate(-3 -7.0)">15</text></g><path class="edge" d="M 0 0 V -34.6352 H -35.625" /><circle class="sym" cx="0" cy="0" r="3" /><text class="lab rgt" transform="translate(3 -7.0)">27</text></g><g class="a30 c2 node n29 p0" transform="translate(-35.625 5.98703)"><g class="a29 c2 node n25 p0" transform="translate(25.65 34.1494)"><g class="a25 c1 node n23 p0" transform="translate(15.2 2.47027)"><g class="a23 c2 node n12 p0" transform="translate(0.0 49.6074)"><g class="a12 leaf node n3 p0 sample" transform="translate(-7.6 2.38595)"><path class="edge" d="M 0 0 V -2.38595 H 7.6" /><rect class="sym" height="6" width="6" x="-3" y="-3" /><text class="lab" transform="translate(0 11)">3</text></g><g class="a12 leaf node n7 p0 sample" transform="translate(7.6 2.38595)"><path class="edge" d="M 0 0 V -2.38595 H -7.6" /><rect class="sym" height="6" width="6" x="-3" y="-3" /><text class="lab" transform="translate(0 11)">7</text></g><path class="edge" d="M 0 0 V -49.6074 H 0.0" /><circle class="sym" cx="0" cy="0" r="3" /><text class="lab lft" transform="translate(-3 -7.0)">12</text></g><path class="edge" d="M 0 0 V -2.47027 H -15.2" /><circle class="sym" cx="0" cy="0" r="3" /><text class="lab rgt" transform="translate(3 -7.0)">23</text></g><g class="a25 c1 node n21 p0" transform="translate(-15.2 13.617)"><g class="a21 c1 node n20 p0" transform="translate(0.0 3.94301)"><g class="a20 c2 node n18 p0" transform="translate(0.0 1.05699)"><g class="a18 leaf node n2 p0 sample" transform="translate(-7.6 35.8465)"><path class="edge" d="M 0 0 V -35.8465 H 7.6" /><rect class="sym" height="6" width="6" x="-3" y="-3" /><text class="lab" transform="translate(0 11)">2</text></g><g class="a18 c1 node n17 p0" transform="translate(7.6 4.66977)"><g class="a17 leaf node n6 p0 sample" transform="translate(0.0 31.1768)"><path class="edge" d="M 0 0 V -31.1768 H 0.0" /><rect class="sym" height="6" width="6" x="-3" y="-3" /><text class="lab" transform="translate(0 11)">6</text></g><path class="edge" d="M 0 0 V -4.66977 H -7.6" /><circle class="sym" cx="0" cy="0" r="3" /><text class="lab rgt" transform="translate(3 -7.0)">17</text></g><path class="edge" d="M 0 0 V -1.05699 H 0.0" /><circle class="sym" cx="0" cy="0" r="3" /><text class="lab lft" transform="translate(-3 -7.0)">18</text></g><path class="edge" d="M 0 0 V -3.94301 H 0.0" /><circle class="sym" cx="0" cy="0" r="3" /><text class="lab lft" transform="translate(-3 -7.0)">20</text></g><path class="edge" d="M 0 0 V -13.617 H 15.2" /><circle class="sym" cx="0" cy="0" r="3" /><text class="lab lft" transform="translate(-3 -7.0)">21</text></g><path class="edge" d="M 0 0 V -34.1494 H -25.65" /><circle class="sym" cx="0" cy="0" r="3" /><text class="lab rgt" transform="translate(3 -7.0)">25</text></g><g class="a29 c2 node n28 p0" transform="translate(-25.65 16.2342)"><g class="a28 leaf node n1 p0 sample" transform="translate(13.3 72.3788)"><path class="edge" d="M 0 0 V -72.3788 H -13.3" /><rect class="sym" height="6" width="6" x="-3" y="-3" /><text class="lab" transform="translate(0 11)">1</text></g><g class="a28 c1 node n26 p0" transform="translate(-13.3 15.0561)"><g class="a26 c1 node n22 p0" transform="translate(0.0 14.0962)"><g class="a22 c2 node n11 p0" transform="translate(0.0 42.1533)"><g class="a11 leaf node n4 p0 sample" transform="translate(11.4 1.07317)"><path class="edge" d="M 0 0 V -1.07317 H -11.4" /><rect class="sym" height="6" width="6" x="-3" y="-3" /><text class="lab" transform="translate(0 11)">4</text></g><g class="a11 c2 node n10 p0" transform="translate(-11.4 0.606382)"><g class="a10 leaf node n0 p0 sample" transform="translate(-7.6 0.466792)"><path class="edge" d="M 0 0 V -0.466792 H 7.6" /><rect class="sym" height="6" width="6" x="-3" y="-3" /><text class="lab" transform="translate(0 11)">0</text></g><g class="a10 leaf node n9 p0 sample" transform="translate(7.6 0.466792)"><path class="edge" d="M 0 0 V -0.466792 H -7.6" /><rect class="sym" height="6" width="6" x="-3" y="-3" /><text class="lab" transform="translate(0 11)">9</text></g><path class="edge" d="M 0 0 V -0.606382 H 11.4" /><circle class="sym" cx="0" cy="0" r="3" /><text class="lab lft" transform="translate(-3 -7.0)">10</text></g><path class="edge" d="M 0 0 V -42.1533 H 0.0" /><circle class="sym" cx="0" cy="0" r="3" /><text class="lab lft" transform="translate(-3 -7.0)">11</text></g><path class="edge" d="M 0 0 V -14.0962 H 0.0" /><circle class="sym" cx="0" cy="0" r="3" /><text class="lab lft" transform="translate(-3 -7.0)">22</text></g><path class="edge" d="M 0 0 V -15.0561 H 13.3" /><circle class="sym" cx="0" cy="0" r="3" /><text class="lab lft" transform="translate(-3 -7.0)">26</text></g><path class="edge" d="M 0 0 V -16.2342 H 25.65" /><circle class="sym" cx="0" cy="0" r="3" /><text class="lab lft" transform="translate(-3 -7.0)">28</text></g><path class="edge" d="M 0 0 V -5.98703 H 35.625" /><circle class="sym" cx="0" cy="0" r="3" /><text class="lab lft" transform="translate(-3 -7.0)">29</text></g><circle class="sym" cx="0" cy="0" r="3" /><text class="lab" transform="translate(0 -11)">30</text></g></g></g><g class="tree t4" transform="translate(788 0)"><g class="plotbox"><g class="c2 node n30 p0 root" transform="translate(130.912 26.8)"><g class="a30 c1 node n27 p0" transform="translate(25.8875 34.6352)"><g class="a27 c1 node n15 p0" transform="translate(0.0 45.8771)"><g class="a15 c2 node n13 p0" transform="translate(0.0 11.4694)"><g class="a13 leaf node n5 p0 sample" transform="translate(-7.6 2.61832)"><path class="edge" d="M 0 0 V -2.61832 H 7.6" /><rect class="sym" height="6" width="6" x="-3" y="-3" /><text class="lab" transform="translate(0 11)">5</text></g><g class="a13 leaf node n8 p0 sample" transform="translate(7.6 2.61832)"><path class="edge" d="M 0 0 V -2.61832 H -7.6" /><rect class="sym" height="6" width="6" x="-3" y="-3" /><text class="lab" transform="translate(0 11)">8</text></g><path class="edge" d="M 0 0 V -11.4694 H 0.0" /><circle class="sym" cx="0" cy="0" r="3" /><text class="lab lft" transform="translate(-3 -7.0)">13</text></g><path class="edge" d="M 0 0 V -45.8771 H 0.0" /><circle class="sym" cx="0" cy="0" r="3" /><text class="lab lft" transform="translate(-3 -7.0)">15</text></g><path class="edge" d="M 0 0 V -34.6352 H -25.8875" /><circle class="sym" cx="0" cy="0" r="3" /><text class="lab rgt" transform="translate(3 -7.0)">27</text></g><g class="a30 c2 node n29 p0" transform="translate(-25.8875 5.98703)"><g class="a29 c1 node n25 p0" transform="translate(21.375 34.1494)"><g class="a25 c1 node n21 p0" transform="translate(0.0 13.617)"><g class="a21 c1 node n20 p0" transform="translate(0.0 3.94301)"><g class="a20 c2 node n18 p0" transform="translate(0.0 1.05699)"><g class="a18 leaf node n2 p0 sample" transform="translate(-7.6 35.8465)"><path class="edge" d="M 0 0 V -35.8465 H 7.6" /><rect class="sym" height="6" width="6" x="-3" y="-3" /><text class="lab" transform="translate(0 11)">2</text></g><g class="a18 c1 node n17 p0" transform="translate(7.6 4.66977)"><g class="a17 leaf node n6 p0 sample" transform="translate(0.0 31.1768)"><path class="edge" d="M 0 0 V -31.1768 H 0.0" /><rect class="sym" height="6" width="6" x="-3" y="-3" /><text class="lab" transform="translate(0 11)">6</text></g><path class="edge" d="M 0 0 V -4.66977 H -7.6" /><circle class="sym" cx="0" cy="0" r="3" /><text class="lab rgt" transform="translate(3 -7.0)">17</text></g><path class="edge" d="M 0 0 V -1.05699 H 0.0" /><circle class="sym" cx="0" cy="0" r="3" /><text class="lab lft" transform="translate(-3 -7.0)">18</text></g><path class="edge" d="M 0 0 V -3.94301 H 0.0" /><circle class="sym" cx="0" cy="0" r="3" /><text class="lab lft" transform="translate(-3 -7.0)">20</text></g><path class="edge" d="M 0 0 V -13.617 H 0.0" /><circle class="sym" cx="0" cy="0" r="3" /><text class="lab lft" transform="translate(-3 -7.0)">21</text></g><path class="edge" d="M 0 0 V -34.1494 H -21.375" /><circle class="sym" cx="0" cy="0" r="3" /><text class="lab rgt" transform="translate(3 -7.0)">25</text></g><g class="a29 c2 node n28 p0" transform="translate(-21.375 16.2342)"><g class="a28 leaf node n1 p0 sample" transform="translate(19.95 72.3788)"><path class="edge" d="M 0 0 V -72.3788 H -19.95" /><rect class="sym" height="6" width="6" x="-3" y="-3" /><text class="lab" transform="translate(0 11)">1</text></g><g class="a28 c2 node n26 p0" transform="translate(-19.95 15.0561)"><g class="a26 c1 node n22 p0" transform="translate(-17.1 14.0962)"><g class="a22 c2 node n11 p0" transform="translate(0.0 42.1533)"><g class="a11 leaf node n4 p0 sample" transform="translate(11.4 1.07317)"><path class="edge" d="M 0 0 V -1.07317 H -11.4" /><rect class="sym" height="6" width="6" x="-3" y="-3" /><text class="lab" transform="translate(0 11)">4</text></g><g class="a11 c2 node n10 p0" transform="translate(-11.4 0.606382)"><g class="a10 leaf node n0 p0 sample" transform="translate(-7.6 0.466792)"><path class="edge" d="M 0 0 V -0.466792 H 7.6" /><rect class="sym" height="6" width="6" x="-3" y="-3" /><text class="lab" transform="translate(0 11)">0</text></g><g class="a10 leaf node n9 p0 sample" transform="translate(7.6 0.466792)"><path class="edge" d="M 0 0 V -0.466792 H -7.6" /><rect class="sym" height="6" width="6" x="-3" y="-3" /><text class="lab" transform="translate(0 11)">9</text></g><path class="edge" d="M 0 0 V -0.606382 H 11.4" /><circle class="sym" cx="0" cy="0" r="3" /><text class="lab lft" transform="translate(-3 -7.0)">10</text></g><path class="edge" d="M 0 0 V -42.1533 H 0.0" /><circle class="sym" cx="0" cy="0" r="3" /><text class="lab lft" transform="translate(-3 -7.0)">11</text></g><path class="edge" d="M 0 0 V -14.0962 H 17.1" /><circle class="sym" cx="0" cy="0" r="3" /><text class="lab lft" transform="translate(-3 -7.0)">22</text></g><g class="a26 c1 node n24 p0" transform="translate(17.1 5.32935)"><g class="a24 c2 node n12 p0" transform="translate(0.0 49.6074)"><g class="a12 leaf node n3 p0 sample" transform="translate(-7.6 2.38595)"><path class="edge" d="M 0 0 V -2.38595 H 7.6" /><rect class="sym" height="6" width="6" x="-3" y="-3" /><text class="lab" transform="translate(0 11)">3</text></g><g class="a12 leaf node n7 p0 sample" transform="translate(7.6 2.38595)"><path class="edge" d="M 0 0 V -2.38595 H -7.6" /><rect class="sym" height="6" width="6" x="-3" y="-3" /><text class="lab" transform="translate(0 11)">7</text></g><path class="edge" d="M 0 0 V -49.6074 H 0.0" /><circle class="sym" cx="0" cy="0" r="3" /><text class="lab lft" transform="translate(-3 -7.0)">12</text></g><path class="edge" d="M 0 0 V -5.32935 H -17.1" /><circle class="sym" cx="0" cy="0" r="3" /><text class="lab rgt" transform="translate(3 -7.0)">24</text></g><path class="edge" d="M 0 0 V -15.0561 H 19.95" /><circle class="sym" cx="0" cy="0" r="3" /><text class="lab lft" transform="translate(-3 -7.0)">26</text></g><path class="edge" d="M 0 0 V -16.2342 H 21.375" /><circle class="sym" cx="0" cy="0" r="3" /><text class="lab lft" transform="translate(-3 -7.0)">28</text></g><path class="edge" d="M 0 0 V -5.98703 H 25.8875" /><circle class="sym" cx="0" cy="0" r="3" /><text class="lab lft" transform="translate(-3 -7.0)">29</text></g><circle class="sym" cx="0" cy="0" r="3" /><text class="lab" transform="translate(0 -11)">30</text></g></g></g></g></g></svg>
