<svg baseProfile="full" height="200" version="1.1" width="1000" xmlns="http://www.w3.org/2000/svg" xmlns:ev="http://www.w3.org/2001/xml-events" xmlns:xlink="http://www.w3.org/1999/xlink"><defs><style type="text/css"><![CDATA[.background path {fill: #808080; fill-opacity: 0}.background path:nth-child(odd) {fill-opacity: .1}.axes {font-size: 14px}.x-axis .tick .lab {font-weight: bold; dominant-baseline: hanging}.axes, .tree {font-size: 14px; text-anchor: middle}.axes line, .edge {stroke: black; fill: none}.y-axis .grid {stroke: #FAFAFA}.node > .sym {fill: black; stroke: none}.site > .sym {stroke: black}.mut text {fill: red; font-style: italic}.mut.extra text {fill: hotpink}.mut line {fill: none; stroke: none}.mut .sym {fill: none; stroke: red}.mut.extra .sym {stroke: hotpink}.node .mut .sym {stroke-width: 1.5px}.tree text, .tree-sequence text {dominant-baseline: central}.plotbox .lab.lft {text-anchor: end}.plotbox .lab.rgt {text-anchor: start}]]></style></defs><g class="tree-sequence"><g class="background"><path d="M20,0 l192,0 l0,138.2 l-140.342,25 l0,5 l-51.6577,0 l0,-5 l0,-25 l0,-138.2z" /><path d="M212,0 l192,0 l0,138.2 l-266.985,25 l0,5 l-65.3574,0 l0,-5 l140.342,-25 l0,-138.2z" /><path d="M404,0 l192,0 l0,138.2 l-33.6216,25 l0,5 l-425.363,0 l0,-5 l266.985,-25 l0,-138.2z" /><path d="M596,0 l192,0 l0,138.2 l-33.571,25 l0,5 l-192.051,0 l0,-5 l33.6216,-25 l0,-138.2z" /><path d="M788,0 l192,0 l0,138.2 l0,25 l0,5 l-225.571,0 l0,-5 l33.571,-25 l0,-138.2z" /></g><g class="axes"><g class="x-axis"><g transform="translate(500 200)"><text class="lab" text-anchor="middle" transform="translate(0 -11)">Genome position</text></g><line x1="20" x2="980" y1="163.2" y2="163.2" /><g class="ticks"><g class="tick" transform="translate(20 163.2)"><line x1="0" x2="0" y1="0" y2="5" /><g transform="translate(0 6)"><text class="lab">0.00</text></g></g><g class="tick" transform="translate(71.6577 163.2)"><line x1="0" x2="0" y1="0" y2="5" /><g transform="translate(0 6)"><text class="lab">53.81</text></g></g><g class="tick" transform="translate(137.015 163.2)"><line x1="0" x2="0" y1="0" y2="5" /><g transform="translate(0 6)"><text class="lab">121.89</text></g></g><g class="tick" transform="translate(562.378 163.2)"><line x1="0" x2="0" y1="0" y2="5" /><g transform="translate(0 6)"><text class="lab">564.98</text></g></g><g class="tick" transform="translate(754.429 163.2)"><line x1="0" x2="0" y1="0" y2="5" /><g transform="translate(0 6)"><text class="lab">765.03</text></g></g><g class="tick" transform="translate(980 163.2)"><line x1="0" x2="0" y1="0" y2="5" /><g transform="translate(0 6)"><text class="lab">1000.00</text></g></g></g></g></g><g class="plotbox trees"><g class="tree t0" transform="translate(20 0)"><g class="plotbox"><g class="c2 node n30 p0 root" transform="translate(125.687 26.8)"><g class="a30 c1 node n25 p0" transform="translate(38.7125 45.2345)"><g class="a25 leaf node n2 p0 sample" transform="translate(0.0 49.3655)"><path class="edge" d="M 0 0 V -49.3655 H 0.0" /><rect class="sym" height="6" width="6" x="-3" y="-3" /><text class="lab" transform="translate(0 11)">2</text></g><path class="edge" d="M 0 0 V -45.2345 H -38.7125" /><circle class="sym" cx="0" cy="0" r="3" /><text class="lab rgt" transform="translate(3 -7.0)">25</text></g><g class="a30 c1 node n29 p0" transform="translate(-38.7125 0.783984)"><g class="a29 c2 node n28 p0" transform="translate(0.0 20.8016)"><g class="a28 c1 node n18 p0" transform="translate(46.075 60.5573)"><g class="a18 c1 node n17 p0" transform="translate(0.0 1.00943)"><g class="a17 c2 node n16 p0" transform="translate(0.0 0.793439)"><g class="a16 leaf node n8 p0 sample" transform="translate(16.15 10.6542)"><path class="edge" d="M 0 0 V -10.6542 H -16.15" /><rect class="sym" height="6" width="6" x="-3" y="-3" /><text class="lab" transform="translate(0 11)">8</text></g><g class="a16 c2 node n13 p0" transform="translate(-16.15 4.15693)"><g class="a13 leaf node n6 p0 sample" transform="translate(17.1 6.49732)"><path class="edge" d="M 0 0 V -6.49732 H -17.1" /><rect class="sym" height="6" width="6" x="-3" y="-3" /><text class="lab" transform="translate(0 11)">6</text></g><g class="a13 c2 node n12 p0" transform="translate(-17.1 2.15729)"><g class="a12 leaf node n3 p0 sample" transform="translate(-11.4 4.34003)"><path class="edge" d="M 0 0 V -4.34003 H 11.4" /><rect class="sym" height="6" width="6" x="-3" y="-3" /><text class="lab" transform="translate(0 11)">3</text></g><g class="a12 c2 node n11 p0" transform="translate(11.4 0.677303)"><g class="a11 leaf node n5 p0 sample" transform="translate(-7.6 3.66273)"><path class="edge" d="M 0 0 V -3.66273 H 7.6" /><rect class="sym" height="6" width="6" x="-3" y="-3" /><text class="lab" transform="translate(0 11)">5</text></g><g class="a11 leaf node n7 p0 sample" transform="translate(7.6 3.66273)"><path class="edge" d="M 0 0 V -3.66273 H -7.6" /><rect class="sym" height="6" width="6" x="-3" y="-3" /><text class="lab" transform="translate(0 11)">7</text></g><path class="edge" d="M 0 0 V -0.677303 H -11.4" /><circle class="sym" cx="0" cy="0" r="3" /><text class="lab rgt" transform="translate(3 -7.0)">11</text></g><path class="edge" d="M 0 0 V -2.15729 H 17.1" /><circle class="sym" cx="0" cy="0" r="3" /><text class="lab lft" transform="translate(-3 -7.0)">12</text></g><path class="edge" d="M 0 0 V -4.15693 H 16.15" /><circle class="sym" cx="0" cy="0" r="3" /><text class="lab lft" transform="translate(-3 -7.0)">13</text></g><path class="edge" d="M 0 0 V -0.793439 H 0.0" /><circle class="sym" cx="0" cy="0" r="3" /><text class="lab lft" transform="translate(-3 -7.0)">16</text></g><path class="edge" d="M 0 0 V -1.00943 H 0.0" /><circle class="sym" cx="0" cy="0" r="3" /><text class="lab lft" transform="translate(-3 -7.0)">17</text></g><path class="edge" d="M 0 0 V -60.5573 H -46.075" /><circle class="sym" cx="0" cy="0" r="3" /><text class="lab rgt" transform="translate(3 -7.0)">18</text></g><g class="a28 c1 node n26 p0" transform="translate(-46.075 3.76068)"><g class="a26 c2 node n24 p0" transform="translate(0.0 28.0347)"><g class="a24 leaf node n0 p0 sample" transform="translate(-13.3 41.219)"><path class="edge" d="M 0 0 V -41.219 H 13.3" /><rect class="sym" height="6" width="6" x="-3" y="-3" /><text class="lab" transform="translate(0 11)">0</text></g><g class="a24 c2 node n20 p0" transform="translate(13.3 24.7211)"><g class="a20 c2 node n10 p0" transform="translate(11.4 14.3758)"><g class="a10 leaf node n4 p0 sample" transform="translate(-7.6 2.12202)"><path class="edge" d="M 0 0 V -2.12202 H 7.6" /><rect class="sym" height="6" width="6" x="-3" y="-3" /><text class="lab" transform="translate(0 11)">4</text></g><g class="a10 leaf node n9 p0 sample" transform="translate(7.6 2.12202)"><path class="edge" d="M 0 0 V -2.12202 H -7.6" /><rect class="sym" height="6" width="6" x="-3" y="-3" /><text class="lab" transform="translate(0 11)">9</text></g><path class="edge" d="M 0 0 V -14.3758 H -11.4" /><circle class="sym" cx="0" cy="0" r="3" /><text class="lab rgt" transform="translate(3 -7.0)">10</text></g><g class="a20 c1 node n14 p0" transform="translate(-11.4 8.94959)"><g class="a14 leaf node n1 p0 sample" transform="translate(0.0 7.54827)"><path class="edge" d="M 0 0 V -7.54827 H 0.0" /><rect class="sym" height="6" width="6" x="-3" y="-3" /><text class="lab" transform="translate(0 11)">1</text></g><path class="edge" d="M 0 0 V -8.94959 H 11.4" /><circle class="sym" cx="0" cy="0" r="3" /><text class="lab lft" transform="translate(-3 -7.0)">14</text></g><path class="edge" d="M 0 0 V -24.7211 H -13.3" /><circle class="sym" cx="0" cy="0" r="3" /><text class="lab rgt" transform="translate(3 -7.0)">20</text></g><path class="edge" d="M 0 0 V -28.0347 H 0.0" /><circle class="sym" cx="0" cy="0" r="3" /><text class="lab lft" transform="translate(-3 -7.0)">24</text></g><path class="edge" d="M 0 0 V -3.76068 H 46.075" /><circle class="sym" cx="0" cy="0" r="3" /><text class="lab lft" transform="translate(-3 -7.0)">26</text></g><path class="edge" d="M 0 0 V -20.8016 H 0.0" /><circle class="sym" cx="0" cy="0" r="3" /><text class="lab lft" transform="translate(-3 -7.0)">28</text></g><path class="edge" d="M 0 0 V -0.783984 H 38.7125" /><circle class="sym" cx="0" cy="0" r="3" /><text class="lab lft" transform="translate(-3 -7.0)">29</text></g><circle class="sym" cx="0" cy="0" r="3" /><text class="lab" transform="translate(0 -11)">30</text></g></g></g><g class="tree t1" transform="translate(212 0)"><g class="plotbox"><g class="c2 node n30 p0 root" transform="translate(79.6125 26.8)"><g class="a30 c2 node n25 p0" transform="translate(38.7125 45.2345)"><g class="a25 leaf node n2 p0 sample" transform="translate(-29.925 49.3655)"><path class="edge" d="M 0 0 V -49.3655 H 29.925" /><rect class="sym" height="6" width="6" x="-3" y="-3" /><text class="lab" transform="translate(0 11)">2</text></g><g class="a25 c1 node n23 p0" transform="translate(29.925 12.3154)"><g class="a23 c1 node n21 p0" transform="translate(0.0 11.2541)"><g class="a21 c1 node n19 p0" transform="translate(0.0 13.3389)"><g class="a19 c1 node n17 p0" transform="translate(0.0 1.00943)"><g class="a17 c2 node n16 p0" transform="translate(0.0 0.793439)"><g class="a16 leaf node n8 p0 sample" transform="translate(16.15 10.6542)"><path class="edge" d="M 0 0 V -10.6542 H -16.15" /><rect class="sym" height="6" width="6" x="-3" y="-3" /><text class="lab" transform="translate(0 11)">8</text></g><g class="a16 c2 node n13 p0" transform="translate(-16.15 4.15693)"><g class="a13 leaf node n6 p0 sample" transform="translate(17.1 6.49732)"><path class="edge" d="M 0 0 V -6.49732 H -17.1" /><rect class="sym" height="6" width="6" x="-3" y="-3" /><text class="lab" transform="translate(0 11)">6</text></g><g class="a13 c2 node n12 p0" transform="translate(-17.1 2.15729)"><g class="a12 leaf node n3 p0 sample" transform="translate(-11.4 4.34003)"><path class="edge" d="M 0 0 V -4.34003 H 11.4" /><rect class="sym" height="6" width="6" x="-3" y="-3" /><text class="lab" transform="translate(0 11)">3</text></g><g class="a12 c2 node n11 p0" transform="translate(11.4 0.677303)"><g class="a11 leaf node n5 p0 sample" transform="translate(-7.6 3.66273)"><path class="edge" d="M 0 0 V -3.66273 H 7.6" /><rect class="sym" height="6" width="6" x="-3" y="-3" /><text class="lab" transform="translate(0 11)">5</text></g><g class="a11 leaf node n7 p0 sample" transform="translate(7.6 3.66273)"><path class="edge" d="M 0 0 V -3.66273 H -7.6" /><rect class="sym" height="6" width="6" x="-3" y="-3" /><text class="lab" transform="translate(0 11)">7</text></g><path class="edge" d="M 0 0 V -0.677303 H -11.4" /><circle class="sym" cx="0" cy="0" r="3" /><text class="lab rgt" transform="translate(3 -7.0)">11</text></g><path class="edge" d="M 0 0 V -2.15729 H 17.1" /><circle class="sym" cx="0" cy="0" r="3" /><text class="lab lft" transform="translate(-3 -7.0)">12</text></g><path class="edge" d="M 0 0 V -4.15693 H 16.15" /><circle class="sym" cx="0" cy="0" r="3" /><text class="lab lft" transform="translate(-3 -7.0)">13</text></g><path class="edge" d="M 0 0 V -0.793439 H 0.0" /><circle class="sym" cx="0" cy="0" r="3" /><text class="lab lft" transform="translate(-3 -7.0)">16</text></g><path class="edge" d="M 0 0 V -1.00943 H 0.0" /><circle class="sym" cx="0" cy="0" r="3" /><text class="lab lft" transform="translate(-3 -7.0)">17</text></g><path class="edge" d="M 0 0 V -13.3389 H 0.0" /><circle class="sym" cx="0" cy="0" r="3" /><text class="lab lft" transform="translate(-3 -7.0)">19</text></g><path class="edge" d="M 0 0 V -11.2541 H 0.0" /><circle class="sym" cx="0" cy="0" r="3" /><text class="lab lft" transform="translate(-3 -7.0)">21</text></g><path class="edge" d="M 0 0 V -12.3154 H -29.925" /><circle class="sym" cx="0" cy="0" r="3" /><text class="lab rgt" transform="translate(3 -7.0)">23</text></g><path class="edge" d="M 0 0 V -45.2345 H -38.7125" /><circle class="sym" cx="0" cy="0" r="3" /><text class="lab rgt" transform="translate(3 -7.0)">25</text></g><g class="a30 c1 node n29 p0" transform="translate(-38.7125 0.783984)"><g class="a29 c1 node n28 p0" transform="translate(0.0 20.8016)"><g class="a28 c1 node n26 p0" transform="translate(0.0 3.76068)"><g class="a26 c2 node n24 p0" transform="translate(0.0 28.0347)"><g class="a24 leaf node n0 p0 sample" transform="translate(-13.3 41.219)"><path class="edge" d="M 0 0 V -41.219 H 13.3" /><rect class="sym" height="6" width="6" x="-3" y="-3" /><text class="lab" transform="translate(0 11)">0</text></g><g class="a24 c2 node n20 p0" transform="translate(13.3 24.7211)"><g class="a20 c2 node n10 p0" transform="translate(11.4 14.3758)"><g class="a10 leaf node n4 p0 sample" transform="translate(-7.6 2.12202)"><path class="edge" d="M 0 0 V -2.12202 H 7.6" /><rect class="sym" height="6" width="6" x="-3" y="-3" /><text class="lab" transform="translate(0 11)">4</text></g><g class="a10 leaf node n9 p0 sample" transform="translate(7.6 2.12202)"><path class="edge" d="M 0 0 V -2.12202 H -7.6" /><rect class="sym" height="6" width="6" x="-3" y="-3" /><text class="lab" transform="translate(0 11)">9</text></g><path class="edge" d="M 0 0 V -14.3758 H -11.4" /><circle class="sym" cx="0" cy="0" r="3" /><text class="lab rgt" transform="translate(3 -7.0)">10</text></g><g class="a20 c1 node n14 p0" transform="translate(-11.4 8.94959)"><g class="a14 leaf node n1 p0 sample" transform="translate(0.0 7.54827)"><path class="edge" d="M 0 0 V -7.54827 H 0.0" /><rect class="sym" height="6" width="6" x="-3" y="-3" /><text class="lab" transform="translate(0 11)">1</text></g><path class="edge" d="M 0 0 V -8.94959 H 11.4" /><circle class="sym" cx="0" cy="0" r="3" /><text class="lab lft" transform="translate(-3 -7.0)">14</text></g><path class="edge" d="M 0 0 V -24.7211 H -13.3" /><circle class="sym" cx="0" cy="0" r="3" /><text class="lab rgt" transform="translate(3 -7.0)">20</text></g><path class="edge" d="M 0 0 V -28.0347 H 0.0" /><circle class="sym" cx="0" cy="0" r="3" /><text class="lab lft" transform="translate(-3 -7.0)">24</text></g><path class="edge" d="M 0 0 V -3.76068 H 0.0" /><circle class="sym" cx="0" cy="0" r="3" /><text class="lab lft" transform="translate(-3 -7.0)">26</text></g><path class="edge" d="M 0 0 V -20.8016 H 0.0" /><circle class="sym" cx="0" cy="0" r="3" /><text class="lab lft" transform="translate(-3 -7.0)">28</text></g><path class="edge" d="M 0 0 V -0.783984 H 38.7125" /><circle class="sym" cx="0" cy="0" r="3" /><text class="lab lft" transform="translate(-3 -7.0)">29</text></g><circle class="sym" cx="0" cy="0" r="3" /><text class="lab" transform="translate(0 -11)">30</text></g></g></g><g class="tree t2" transform="translate(404 0)"><g class="plotbox"><g class="c2 node n30 p0 root" transform="translate(79.6125 26.8)"><g class="a30 c2 node n25 p0" transform="translate(38.7125 45.2345)"><g class="a25 leaf node n2 p0 sample" transform="translate(-29.925 49.3655)"><path class="edge" d="M 0 0 V -49.3655 H 29.925" /><rect class="sym" height="6" width="6" x="-3" y="-3" /><text class="lab" transform="translate(0 11)">2</text></g><g class="a25 c1 node n23 p0" transform="translate(29.925 12.3154)"><g class="a23 c1 node n22 p0" transform="translate(0.0 11.2541)"><g class="a22 c1 node n19 p0" transform="translate(0.0 13.3389)"><g class="a19 c1 node n17 p0" transform="translate(0.0 1.00943)"><g class="a17 c2 node n16 p0" transform="translate(0.0 0.793439)"><g class="a16 leaf node n8 p0 sample" transform="translate(16.15 10.6542)"><path class="edge" d="M 0 0 V -10.6542 H -16.15" /><rect class="sym" height="6" width="6" x="-3" y="-3" /><text class="lab" transform="translate(0 11)">8</text></g><g class="a16 c2 node n13 p0" transform="translate(-16.15 4.15693)"><g class="a13 leaf node n6 p0 sample" transform="translate(17.1 6.49732)"><path class="edge" d="M 0 0 V -6.49732 H -17.1" /><rect class="sym" height="6" width="6" x="-3" y="-3" /><text class="lab" transform="translate(0 11)">6</text></g><g class="a13 c2 node n12 p0" transform="translate(-17.1 2.15729)"><g class="a12 leaf node n3 p0 sample" transform="translate(-11.4 4.34003)"><path class="edge" d="M 0 0 V -4.34003 H 11.4" /><rect class="sym" height="6" width="6" x="-3" y="-3" /><text class="lab" transform="translate(0 11)">3</text></g><g class="a12 c2 node n11 p0" transform="translate(11.4 0.677303)"><g class="a11 leaf node n5 p0 sample" transform="translate(-7.6 3.66273)"><path class="edge" d="M 0 0 V -3.66273 H 7.6" /><rect class="sym" height="6" width="6" x="-3" y="-3" /><text class="lab" transform="translate(0 11)">5</text></g><g class="a11 leaf node n7 p0 sample" transform="translate(7.6 3.66273)"><path class="edge" d="M 0 0 V -3.66273 H -7.6" /><rect class="sym" height="6" width="6" x="-3" y="-3" /><text class="lab" transform="translate(0 11)">7</text></g><path class="edge" d="M 0 0 V -0.677303 H -11.4" /><circle class="sym" cx="0" cy="0" r="3" /><text class="lab rgt" transform="translate(3 -7.0)">11</text></g><path class="edge" d="M 0 0 V -2.15729 H 17.1" /><circle class="sym" cx="0" cy="0" r="3" /><text class="lab lft" transform="translate(-3 -7.0)">12</text></g><path class="edge" d="M 0 0 V -4.15693 H 16.15" /><circle class="sym" cx="0" cy="0" r="3" /><text class="lab lft" transform="translate(-3 -7.0)">13</text></g><path class="edge" d="M 0 0 V -0.793439 H 0.0" /><circle class="sym" cx="0" cy="0" r="3" /><text class="lab lft" transform="translate(-3 -7.0)">16</text></g><path class="edge" d="M 0 0 V -1.00943 H 0.0" /><circle class="sym" cx="0" cy="0" r="3" /><text class="lab lft" transform="translate(-3 -7.0)">17</text></g><path class="edge" d="M 0 0 V -13.3389 H 0.0" /><circle class="sym" cx="0" cy="0" r="3" /><text class="lab lft" transform="translate(-3 -7.0)">19</text></g><path class="edge" d="M 0 0 V -11.2541 H 0.0" /><circle class="sym" cx="0" cy="0" r="3" /><text class="lab lft" transform="translate(-3 -7.0)">22</text></g><path class="edge" d="M 0 0 V -12.3154 H -29.925" /><circle class="sym" cx="0" cy="0" r="3" /><text class="lab rgt" transform="translate(3 -7.0)">23</text></g><path class="edge" d="M 0 0 V -45.2345 H -38.7125" /><circle class="sym" cx="0" cy="0" r="3" /><text class="lab rgt" transform="translate(3 -7.0)">25</text></g><g class="a30 c1 node n29 p0" transform="translate(-38.7125 0.783984)"><g class="a29 c1 node n28 p0" transform="translate(0.0 20.8016)"><g class="a28 c1 node n26 p0" transform="translate(0.0 3.76068)"><g class="a26 c2 node n24 p0" transform="translate(0.0 28.0347)"><g class="a24 leaf node n0 p0 sample" transform="translate(-13.3 41.219)"><path class="edge" d="M 0 0 V -41.219 H 13.3" /><rect class="sym" height="6" width="6" x="-3" y="-3" /><text class="lab" transform="translate(0 11)">0</text></g><g class="a24 c2 node n20 p0" transform="translate(13.3 24.7211)"><g class="a20 c2 node n10 p0" transform="translate(11.4 14.3758)"><g class="a10 leaf node n4 p0 sample" transform="translate(-7.6 2.12202)"><path class="edge" d="M 0 0 V -2.12202 H 7.6" /><rect class="sym" height="6" width="6" x="-3" y="-3" /><text class="lab" transform="translate(0 11)">4</text></g><g class="a10 leaf node n9 p0 sample" transform="translate(7.6 2.12202)"><path class="edge" d="M 0 0 V -2.12202 H -7.6" /><rect class="sym" height="6" width="6" x="-3" y="-3" /><text class="lab" transform="translate(0 11)">9</text></g><path class="edge" d="M 0 0 V -14.3758 H -11.4" /><circle class="sym" cx="0" cy="0" r="3" /><text class="lab rgt" transform="translate(3 -7.0)">10</text></g><g class="a20 c1 node n14 p0" transform="translate(-11.4 8.94959)"><g class="a14 leaf node n1 p0 sample" transform="translate(0.0 7.54827)"><path class="edge" d="M 0 0 V -7.54827 H 0.0" /><rect class="sym" height="6" width="6" x="-3" y="-3" /><text class="lab" transform="translate(0 11)">1</text></g><path class="edge" d="M 0 0 V -8.94959 H 11.4" /><circle class="sym" cx="0" cy="0" r="3" /><text class="lab lft" transform="translate(-3 -7.0)">14</text></g><path class="edge" d="M 0 0 V -24.7211 H -13.3" /><circle class="sym" cx="0" cy="0" r="3" /><text class="lab rgt" transform="translate(3 -7.0)">20</text></g><path class="edge" d="M 0 0 V -28.0347 H 0.0" /><circle class="sym" cx="0" cy="0" r="3" /><text class="lab lft" transform="translate(-3 -7.0)">24</text></g><path class="edge" d="M 0 0 V -3.76068 H 0.0" /><circle class="sym" cx="0" cy="0" r="3" /><text class="lab lft" transform="translate(-3 -7.0)">26</text></g><path class="edge" d="M 0 0 V -20.8016 H 0.0" /><circle class="sym" cx="0" cy="0" r="3" /><text class="lab lft" transform="translate(-3 -7.0)">28</text></g><path class="edge" d="M 0 0 V -0.783984 H 38.7125" /><circle class="sym" cx="0" cy="0" r="3" /><text class="lab lft" transform="translate(-3 -7.0)">29</text></g><circle class="sym" cx="0" cy="0" r="3" /><text class="lab" transform="translate(0 -11)">30</text></g></g></g><g class="tree t3" transform="translate(596 0)"><g class="plotbox"><g class="c2 node n30 p0 root" transform="translate(79.6125 26.8)"><g class="a30 c2 node n25 p0" transform="translate(38.7125 45.2345)"><g class="a25 leaf node n2 p0 sample" transform="translate(-29.925 49.3655)"><path class="edge" d="M 0 0 V -49.3655 H 29.925" /><rect class="sym" height="6" width="6" x="-3" y="-3" /><text class="lab" transform="translate(0 11)">2</text></g><g class="a25 c1 node n23 p0" transform="translate(29.925 12.3154)"><g class="a23 c1 node n22 p0" transform="translate(0.0 11.2541)"><g class="a22 c1 node n19 p0" transform="translate(0.0 13.3389)"><g class="a19 c1 node n17 p0" transform="translate(0.0 1.00943)"><g class="a17 c2 node n16 p0" transform="translate(0.0 0.793439)"><g class="a16 leaf node n8 p0 sample" transform="translate(16.15 10.6542)"><path class="edge" d="M 0 0 V -10.6542 H -16.15" /><rect class="sym" height="6" width="6" x="-3" y="-3" /><text class="lab" transform="translate(0 11)">8</text></g><g class="a16 c2 node n13 p0" transform="translate(-16.15 4.15693)"><g class="a13 leaf node n6 p0 sample" transform="translate(17.1 6.49732)"><path class="edge" d="M 0 0 V -6.49732 H -17.1" /><rect class="sym" height="6" width="6" x="-3" y="-3" /><text class="lab" transform="translate(0 11)">6</text></g><g class="a13 c2 node n12 p0" transform="translate(-17.1 2.15729)"><g class="a12 leaf node n3 p0 sample" transform="translate(-11.4 4.34003)"><path class="edge" d="M 0 0 V -4.34003 H 11.4" /><rect class="sym" height="6" width="6" x="-3" y="-3" /><text class="lab" transform="translate(0 11)">3</text></g><g class="a12 c2 node n11 p0" transform="translate(11.4 0.677303)"><g class="a11 leaf node n5 p0 sample" transform="translate(-7.6 3.66273)"><path class="edge" d="M 0 0 V -3.66273 H 7.6" /><rect class="sym" height="6" width="6" x="-3" y="-3" /><text class="lab" transform="translate(0 11)">5</text></g><g class="a11 leaf node n7 p0 sample" transform="translate(7.6 3.66273)"><path class="edge" d="M 0 0 V -3.66273 H -7.6" /><rect class="sym" height="6" width="6" x="-3" y="-3" /><text class="lab" transform="translate(0 11)">7</text></g><path class="edge" d="M 0 0 V -0.677303 H -11.4" /><circle class="sym" cx="0" cy="0" r="3" /><text class="lab rgt" transform="translate(3 -7.0)">11</text></g><path class="edge" d="M 0 0 V -2.15729 H 17.1" /><circle class="sym" cx="0" cy="0" r="3" /><text class="lab lft" transform="translate(-3 -7.0)">12</text></g><path class="edge" d="M 0 0 V -4.15693 H 16.15" /><circle class="sym" cx="0" cy="0" r="3" /><text class="lab lft" transform="translate(-3 -7.0)">13</text></g><path class="edge" d="M 0 0 V -0.793439 H 0.0" /><circle class="sym" cx="0" cy="0" r="3" /><text class="lab lft" transform="translate(-3 -7.0)">16</text></g><path class="edge" d="M 0 0 V -1.00943 H 0.0" /><circle class="sym" cx="0" cy="0" r="3" /><text class="lab lft" transform="translate(-3 -7.0)">17</text></g><path class="edge" d="M 0 0 V -13.3389 H 0.0" /><circle class="sym" cx="0" cy="0" r="3" /><text class="lab lft" transform="translate(-3 -7.0)">19</text></g><path class="edge" d="M 0 0 V -11.2541 H 0.0" /><circle class="sym" cx="0" cy="0" r="3" /><text class="lab lft" transform="translate(-3 -7.0)">22</text></g><path class="edge" d="M 0 0 V -12.3154 H -29.925" /><circle class="sym" cx="0" cy="0" r="3" /><text class="lab rgt" transform="translate(3 -7.0)">23</text></g><path class="edge" d="M 0 0 V -45.2345 H -38.7125" /><circle class="sym" cx="0" cy="0" r="3" /><text class="lab rgt" transform="translate(3 -7.0)">25</text></g><g class="a30 c1 node n29 p0" transform="translate(-38.7125 0.783984)"><g class="a29 c1 node n27 p0" transform="translate(0.0 24.5623)"><g class="a27 c2 node n24 p0" transform="translate(0.0 28.0347)"><g class="a24 leaf node n0 p0 sample" transform="translate(-13.3 41.219)"><path class="edge" d="M 0 0 V -41.219 H 13.3" /><rect class="sym" height="6" width="6" x="-3" y="-3" /><text class="lab" transform="translate(0 11)">0</text></g><g class="a24 c2 node n20 p0" transform="translate(13.3 24.7211)"><g class="a20 c2 node n10 p0" transform="translate(11.4 14.3758)"><g class="a10 leaf node n4 p0 sample" transform="translate(-7.6 2.12202)"><path class="edge" d="M 0 0 V -2.12202 H 7.6" /><rect class="sym" height="6" width="6" x="-3" y="-3" /><text class="lab" transform="translate(0 11)">4</text></g><g class="a10 leaf node n9 p0 sample" transform="translate(7.6 2.12202)"><path class="edge" d="M 0 0 V -2.12202 H -7.6" /><rect class="sym" height="6" width="6" x="-3" y="-3" /><text class="lab" transform="translate(0 11)">9</text></g><path class="edge" d="M 0 0 V -14.3758 H -11.4" /><circle class="sym" cx="0" cy="0" r="3" /><text class="lab rgt" transform="translate(3 -7.0)">10</text></g><g class="a20 c1 node n14 p0" transform="translate(-11.4 8.94959)"><g class="a14 leaf node n1 p0 sample" transform="translate(0.0 7.54827)"><path class="edge" d="M 0 0 V -7.54827 H 0.0" /><rect class="sym" height="6" width="6" x="-3" y="-3" /><text class="lab" transform="translate(0 11)">1</text></g><path class="edge" d="M 0 0 V -8.94959 H 11.4" /><circle class="sym" cx="0" cy="0" r="3" /><text class="lab lft" transform="translate(-3 -7.0)">14</text></g><path class="edge" d="M 0 0 V -24.7211 H -13.3" /><circle class="sym" cx="0" cy="0" r="3" /><text class="lab rgt" transform="translate(3 -7.0)">20</text></g><path class="edge" d="M 0 0 V -28.0347 H 0.0" /><circle class="sym" cx="0" cy="0" r="3" /><text class="lab lft" transform="translate(-3 -7.0)">24</text></g><path class="edge" d="M 0 0 V -24.5623 H 0.0" /><circle class="sym" cx="0" cy="0" r="3" /><text class="lab lft" transform="translate(-3 -7.0)">27</text></g><path class="edge" d="M 0 0 V -0.783984 H 38.7125" /><circle class="sym" cx="0" cy="0" r="3" /><text class="lab lft" transform="translate(-3 -7.0)">29</text></g><circle class="sym" cx="0" cy="0" r="3" /><text class="lab" transform="translate(0 -11)">30</text></g></g></g><g class="tree t4" transform="translate(788 0)"><g class="plotbox"><g class="c2 node n30 p0 root" transform="translate(86.3812 26.8)"><g class="a30 c2 node n25 p0" transform="translate(47.3812 45.2345)"><g class="a25 leaf node n2 p0 sample" transform="translate(30.6375 49.3655)"><path class="edge" d="M 0 0 V -49.3655 H -30.6375" /><rect class="sym" height="6" width="6" x="-3" y="-3" /><text class="lab" transform="translate(0 11)">2</text></g><g class="a25 c1 node n23 p0" transform="translate(-30.6375 12.3154)"><g class="a23 c1 node n22 p0" transform="translate(0.0 11.2541)"><g class="a22 c1 node n19 p0" transform="translate(0.0 13.3389)"><g class="a19 c2 node n17 p0" transform="translate(0.0 1.00943)"><g class="a17 c2 node n16 p0" transform="translate(29.925 0.793439)"><g class="a16 leaf node n8 p0 sample" transform="translate(16.15 10.6542)"><path class="edge" d="M 0 0 V -10.6542 H -16.15" /><rect class="sym" height="6" width="6" x="-3" y="-3" /><text class="lab" transform="translate(0 11)">8</text></g><g class="a16 c2 node n13 p0" transform="translate(-16.15 4.15693)"><g class="a13 leaf node n6 p0 sample" transform="translate(17.1 6.49732)"><path class="edge" d="M 0 0 V -6.49732 H -17.1" /><rect class="sym" height="6" width="6" x="-3" y="-3" /><text class="lab" transform="translate(0 11)">6</text></g><g class="a13 c2 node n12 p0" transform="translate(-17.1 2.15729)"><g class="a12 leaf node n3 p0 sample" transform="translate(-11.4 4.34003)"><path class="edge" d="M 0 0 V -4.34003 H 11.4" /><rect class="sym" height="6" width="6" x="-3" y="-3" /><text class="lab" transform="translate(0 11)">3</text></g><g class="a12 c2 node n11 p0" transform="translate(11.4 0.677303)"><g class="a11 leaf node n5 p0 sample" transform="translate(-7.6 3.66273)"><path class="edge" d="M 0 0 V -3.66273 H 7.6" /><rect class="sym" height="6" width="6" x="-3" y="-3" /><text class="lab" transform="translate(0 11)">5</text></g><g class="a11 leaf node n7 p0 sample" transform="translate(7.6 3.66273)"><path class="edge" d="M 0 0 V -3.66273 H -7.6" /><rect class="sym" height="6" width="6" x="-3" y="-3" /><text class="lab" transform="translate(0 11)">7</text></g><path class="edge" d="M 0 0 V -0.677303 H -11.4" /><circle class="sym" cx="0" cy="0" r="3" /><text class="lab rgt" transform="translate(3 -7.0)">11</text></g><path class="edge" d="M 0 0 V -2.15729 H 17.1" /><circle class="sym" cx="0" cy="0" r="3" /><text class="lab lft" transform="translate(-3 -7.0)">12</text></g><path class="edge" d="M 0 0 V -4.15693 H 16.15" /><circle class="sym" cx="0" cy="0" r="3" /><text class="lab lft" transform="translate(-3 -7.0)">13</text></g><path class="edge" d="M 0 0 V -0.793439 H -29.925" /><circle class="sym" cx="0" cy="0" r="3" /><text class="lab rgt" transform="translate(3 -7.0)">16</text></g><g class="a17 c1 node n15 p0" transform="translate(-29.925 3.89941)"><g class="a15 leaf node n1 p0 sample" transform="translate(0.0 7.54827)"><path class="edge" d="M 0 0 V -7.54827 H 0.0" /><rect class="sym" height="6" width="6" x="-3" y="-3" /><text class="lab" transform="translate(0 11)">1</text></g><path class="edge" d="M 0 0 V -3.89941 H 29.925" /><circle class="sym" cx="0" cy="0" r="3" /><text class="lab lft" transform="translate(-3 -7.0)">15</text></g><path class="edge" d="M 0 0 V -1.00943 H 0.0" /><circle class="sym" cx="0" cy="0" r="3" /><text class="lab lft" transform="translate(-3 -7.0)">17</text></g><path class="edge" d="M 0 0 V -13.3389 H 0.0" /><circle class="sym" cx="0" cy="0" r="3" /><text class="lab lft" transform="translate(-3 -7.0)">19</text></g><path class="edge" d="M 0 0 V -11.2541 H 0.0" /><circle class="sym" cx="0" cy="0" r="3" /><text class="lab lft" transform="translate(-3 -7.0)">22</text></g><path class="edge" d="M 0 0 V -12.3154 H 30.6375" /><circle class="sym" cx="0" cy="0" r="3" /><text class="lab lft" transform="translate(-3 -7.0)">23</text></g><path class="edge" d="M 0 0 V -45.2345 H -47.3812" /><circle class="sym" cx="0" cy="0" r="3" /><text class="lab rgt" transform="translate(3 -7.0)">25</text></g><g class="a30 c1 node n29 p0" transform="translate(-47.3812 0.783984)"><g class="a29 c1 node n27 p0" transform="translate(0.0 24.5623)"><g class="a27 c2 node n24 p0" transform="translate(0.0 28.0347)"><g class="a24 leaf node n0 p0 sample" transform="translate(-11.4 41.219)"><path class="edge" d="M 0 0 V -41.219 H 11.4" /><rect class="sym" height="6" width="6" x="-3" y="-3" /><text class="lab" transform="translate(0 11)">0</text></g><g class="a24 c1 node n20 p0" transform="translate(11.4 24.7211)"><g class="a20 c2 node n10 p0" transform="translate(0.0 14.3758)"><g class="a10 leaf node n4 p0 sample" transform="translate(-7.6 2.12202)"><path class="edge" d="M 0 0 V -2.12202 H 7.6" /><rect class="sym" height="6" width="6" x="-3" y="-3" /><text class="lab" transform="translate(0 11)">4</text></g><g class="a10 leaf node n9 p0 sample" transform="translate(7.6 2.12202)"><path class="edge" d="M 0 0 V -2.12202 H -7.6" /><rect class="sym" height="6" width="6" x="-3" y="-3" /><text class="lab" transform="translate(0 11)">9</text></g><path class="edge" d="M 0 0 V -14.3758 H 0.0" /><circle class="sym" cx="0" cy="0" r="3" /><text class="lab lft" transform="translate(-3 -7.0)">10</text></g><path class="edge" d="M 0 0 V -24.7211 H -11.4" /><circle class="sym" cx="0" cy="0" r="3" /><text class="lab rgt" transform="translate(3 -7.0)">20</text></g><path class="edge" d="M 0 0 V -28.0347 H 0.0" /><circle class="sym" cx="0" cy="0" r="3" /><text class="lab lft" transform="translate(-3 -7.0)">24</text></g><path class="edge" d="M 0 0 V -24.5623 H 0.0" /><circle class="sym" cx="0" cy="0" r="3" /><text class="lab lft" transform="translate(-3 -7.0)">27</text></g><path class="edge" d="M 0 0 V -0.783984 H 47.3812" /><circle class="sym" cx="0" cy="0" r="3" /><text class="lab lft" transform="translate(-3 -7.0)">29</text></g><circle class="sym" cx="0" cy="0" r="3" /><text class="lab" transform="translate(0 -11)">30</text></g></g></g></g></g></svg>
