<svg baseProfile="full" height="200" version="1.1" width="400" xmlns="http://www.w3.org/2000/svg" xmlns:ev="http://www.w3.org/2001/xml-events" xmlns:xlink="http://www.w3.org/1999/xlink"><defs><style type="text/css"><![CDATA[.background path {fill: #808080; fill-opacity: 0}.background path:nth-child(odd) {fill-opacity: .1}.axes {font-size: 14px}.x-axis .tick .lab {font-weight: bold; dominant-baseline: hanging}.axes, .tree {font-size: 14px; text-anchor: middle}.axes line, .edge {stroke: black; fill: none}.y-axis .grid {stroke: #FAFAFA}.node > .sym {fill: black; stroke: none}.site > .sym {stroke: black}.mut text {fill: red; font-style: italic}.mut.extra text {fill: hotpink}.mut line {fill: none; stroke: none}.mut .sym {fill: none; stroke: red}.mut.extra .sym {stroke: hotpink}.node .mut .sym {stroke-width: 1.5px}.tree text, .tree-sequence text {dominant-baseline: central}.plotbox .lab.lft {text-anchor: end}.plotbox .lab.rgt {text-anchor: start}]]></style></defs><g class="tree-sequence"><g class="background"><path d="M20,0 l180,0 l0,138.2 l-150.499,25 l0,5 l-29.5013,0 l0,-5 l0,-25 l0,-138.2z" /><path d="M200,0 l180,0 l0,138.2 l0,25 l0,5 l-330.499,0 l0,-5 l150.499,-25 l0,-138.2z" /></g><g class="axes"><g class="x-axis"><g transform="translate(200 200)"><text class="lab" text-anchor="middle" transform="translate(0 -11)">Genome position</text></g><line x1="20" x2="380" y1="163.2" y2="163.2" /><g class="ticks"><g class="tick" transform="translate(20 163.2)"><line x1="0" x2="0" y1="0" y2="5" /><g transform="translate(0 6)"><text class="lab">0.00</text></g></g><g class="tick" transform="translate(49.5013 163.2)"><line x1="0" x2="0" y1="0" y2="5" /><g transform="translate(0 6)"><text class="lab">81.95</text></g></g><g class="tick" transform="translate(380 163.2)"><line x1="0" x2="0" y1="0" y2="5" /><g transform="translate(0 6)"><text class="lab">1000.00</text></g></g></g></g></g><g class="plotbox trees"><g class="tree t0" transform="translate(20 0)"><g class="plotbox"><g class="c2 node n21 p0 root" transform="translate(114.938 26.8)"><g class="a21 c2 node n19 p0" transform="translate(-31.0625 30.1956)"><g class="a19 c1 node n17 p0" transform="translate(30.625 22.4763)"><g class="a17 c2 node n13 p0" transform="translate(0.0 33.4751)"><g class="a13 leaf node n9 p0 sample" transform="translate(10.5 8.45301)"><path class="edge" d="M 0 0 V -8.45301 H -10.5" /><rect class="sym" height="6" width="6" x="-3" y="-3" /><text class="lab" transform="translate(0 11)">9</text></g><g class="a13 c2 node n12 p0" transform="translate(-10.5 4.83858)"><g class="a12 leaf node n4 p0 sample" transform="translate(-7 3.61444)"><path class="edge" d="M 0 0 V -3.61444 H 7" /><rect class="sym" height="6" width="6" x="-3" y="-3" /><text class="lab" transform="translate(0 11)">4</text></g><g class="a12 leaf node n7 p0 sample" transform="translate(7 3.61444)"><path class="edge" d="M 0 0 V -3.61444 H -7" /><rect class="sym" height="6" width="6" x="-3" y="-3" /><text class="lab" transform="translate(0 11)">7</text></g><path class="edge" d="M 0 0 V -4.83858 H 10.5" /><circle class="sym" cx="0" cy="0" r="3" /><text class="lab lft" transform="translate(-3 -7.0)">12</text></g><path class="edge" d="M 0 0 V -33.4751 H 0.0" /><circle class="sym" cx="0" cy="0" r="3" /><text class="lab lft" transform="translate(-3 -7.0)">13</text></g><path class="edge" d="M 0 0 V -22.4763 H -30.625" /><circle class="sym" cx="0" cy="0" r="3" /><text class="lab rgt" transform="translate(3 -7.0)">17</text></g><g class="a19 c2 node n18 p0" transform="translate(-30.625 21.7199)"><g class="a18 c2 node n10 p0" transform="translate(-19.25 41.2247)"><g class="a10 leaf node n0 p0 sample" transform="translate(-7 1.45981)"><path class="edge" d="M 0 0 V -1.45981 H 7" /><rect class="sym" height="6" width="6" x="-3" y="-3" /><text class="lab" transform="translate(0 11)">0</text></g><g class="a10 leaf node n3 p0 sample" transform="translate(7 1.45981)"><path class="edge" d="M 0 0 V -1.45981 H -7" /><rect class="sym" height="6" width="6" x="-3" y="-3" /><text class="lab" transform="translate(0 11)">3</text></g><path class="edge" d="M 0 0 V -41.2247 H 19.25" /><circle class="sym" cx="0" cy="0" r="3" /><text class="lab lft" transform="translate(-3 -7.0)">10</text></g><g class="a18 c2 node n14 p0" transform="translate(19.25 19.7761)"><g class="a14 leaf node n5 p0 sample" transform="translate(10.5 22.9085)"><path class="edge" d="M 0 0 V -22.9085 H -10.5" /><rect class="sym" height="6" width="6" x="-3" y="-3" /><text class="lab" transform="translate(0 11)">5</text></g><g class="a14 c2 node n11 p0" transform="translate(-10.5 20.6926)"><g class="a11 leaf node n1 p0 sample" transform="translate(-7 2.21587)"><path class="edge" d="M 0 0 V -2.21587 H 7" /><rect class="sym" height="6" width="6" x="-3" y="-3" /><text class="lab" transform="translate(0 11)">1</text></g><g class="a11 leaf node n2 p0 sample" transform="translate(7 2.21587)"><path class="edge" d="M 0 0 V -2.21587 H -7" /><rect class="sym" height="6" width="6" x="-3" y="-3" /><text class="lab" transform="translate(0 11)">2</text></g><path class="edge" d="M 0 0 V -20.6926 H 10.5" /><circle class="sym" cx="0" cy="0" r="3" /><text class="lab lft" transform="translate(-3 -7.0)">11</text></g><path class="edge" d="M 0 0 V -19.7761 H -19.25" /><circle class="sym" cx="0" cy="0" r="3" /><text class="lab rgt" transform="translate(3 -7.0)">14</text></g><path class="edge" d="M 0 0 V -21.7199 H 30.625" /><circle class="sym" cx="0" cy="0" r="3" /><text class="lab lft" transform="translate(-3 -7.0)">18</text></g><path class="edge" d="M 0 0 V -30.1956 H 31.0625" /><circle class="sym" cx="0" cy="0" r="3" /><text class="lab lft" transform="translate(-3 -7.0)">19</text></g><g class="a21 c2 node n20 p0" transform="translate(31.0625 14.6002)"><g class="a20 leaf node n6 p0 sample" transform="translate(-7 79.9998)"><path class="edge" d="M 0 0 V -79.9998 H 7" /><rect class="sym" height="6" width="6" x="-3" y="-3" /><text class="lab" transform="translate(0 11)">6</text></g><g class="a20 c1 node n15 p0" transform="translate(7 45.9933)"><g class="a15 leaf node n8 p0 sample" transform="translate(0.0 34.0065)"><path class="edge" d="M 0 0 V -34.0065 H 0.0" /><rect class="sym" height="6" width="6" x="-3" y="-3" /><text class="lab" transform="translate(0 11)">8</text></g><path class="edge" d="M 0 0 V -45.9933 H -7" /><circle class="sym" cx="0" cy="0" r="3" /><text class="lab rgt" transform="translate(3 -7.0)">15</text></g><path class="edge" d="M 0 0 V -14.6002 H -31.0625" /><circle class="sym" cx="0" cy="0" r="3" /><text class="lab rgt" transform="translate(3 -7.0)">20</text></g><circle class="sym" cx="0" cy="0" r="3" /><text class="lab" transform="translate(0 -11)">21</text></g></g></g><g class="tree t1" transform="translate(200 0)"><g class="plotbox"><g class="c2 node n21 p0 root" transform="translate(121.5 26.8)"><g class="a21 c2 node n19 p0" transform="translate(-31.5 30.1956)"><g class="a19 c2 node n17 p0" transform="translate(36.75 22.4763)"><g class="a17 c2 node n13 p0" transform="translate(-12.25 33.4751)"><g class="a13 leaf node n9 p0 sample" transform="translate(10.5 8.45301)"><path class="edge" d="M 0 0 V -8.45301 H -10.5" /><rect class="sym" height="6" width="6" x="-3" y="-3" /><text class="lab" transform="translate(0 11)">9</text></g><g class="a13 c2 node n12 p0" transform="translate(-10.5 4.83858)"><g class="a12 leaf node n4 p0 sample" transform="translate(-7 3.61444)"><path class="edge" d="M 0 0 V -3.61444 H 7" /><rect class="sym" height="6" width="6" x="-3" y="-3" /><text class="lab" transform="translate(0 11)">4</text></g><g class="a12 leaf node n7 p0 sample" transform="translate(7 3.61444)"><path class="edge" d="M 0 0 V -3.61444 H -7" /><rect class="sym" height="6" width="6" x="-3" y="-3" /><text class="lab" transform="translate(0 11)">7</text></g><path class="edge" d="M 0 0 V -4.83858 H 10.5" /><circle class="sym" cx="0" cy="0" r="3" /><text class="lab lft" transform="translate(-3 -7.0)">12</text></g><path class="edge" d="M 0 0 V -33.4751 H 12.25" /><circle class="sym" cx="0" cy="0" r="3" /><text class="lab lft" transform="translate(-3 -7.0)">13</text></g><g class="a17 c1 node n16 p0" transform="translate(12.25 7.92162)"><g class="a16 leaf node n8 p0 sample" transform="translate(0.0 34.0065)"><path class="edge" d="M 0 0 V -34.0065 H 0.0" /><rect class="sym" height="6" width="6" x="-3" y="-3" /><text class="lab" transform="translate(0 11)">8</text></g><path class="edge" d="M 0 0 V -7.92162 H -12.25" /><circle class="sym" cx="0" cy="0" r="3" /><text class="lab rgt" transform="translate(3 -7.0)">16</text></g><path class="edge" d="M 0 0 V -22.4763 H -36.75" /><circle class="sym" cx="0" cy="0" r="3" /><text class="lab rgt" transform="translate(3 -7.0)">17</text></g><g class="a19 c2 node n18 p0" transform="translate(-36.75 21.7199)"><g class="a18 c2 node n10 p0" transform="translate(-19.25 41.2247)"><g class="a10 leaf node n0 p0 sample" transform="translate(-7 1.45981)"><path class="edge" d="M 0 0 V -1.45981 H 7" /><rect class="sym" height="6" width="6" x="-3" y="-3" /><text class="lab" transform="translate(0 11)">0</text></g><g class="a10 leaf node n3 p0 sample" transform="translate(7 1.45981)"><path class="edge" d="M 0 0 V -1.45981 H -7" /><rect class="sym" height="6" width="6" x="-3" y="-3" /><text class="lab" transform="translate(0 11)">3</text></g><path class="edge" d="M 0 0 V -41.2247 H 19.25" /><circle class="sym" cx="0" cy="0" r="3" /><text class="lab lft" transform="translate(-3 -7.0)">10</text></g><g class="a18 c2 node n14 p0" transform="translate(19.25 19.7761)"><g class="a14 leaf node n5 p0 sample" transform="translate(10.5 22.9085)"><path class="edge" d="M 0 0 V -22.9085 H -10.5" /><rect class="sym" height="6" width="6" x="-3" y="-3" /><text class="lab" transform="translate(0 11)">5</text></g><g class="a14 c2 node n11 p0" transform="translate(-10.5 20.6926)"><g class="a11 leaf node n1 p0 sample" transform="translate(-7 2.21587)"><path class="edge" d="M 0 0 V -2.21587 H 7" /><rect class="sym" height="6" width="6" x="-3" y="-3" /><text class="lab" transform="translate(0 11)">1</text></g><g class="a11 leaf node n2 p0 sample" transform="translate(7 2.21587)"><path class="edge" d="M 0 0 V -2.21587 H -7" /><rect class="sym" height="6" width="6" x="-3" y="-3" /><text class="lab" transform="translate(0 11)">2</text></g><path class="edge" d="M 0 0 V -20.6926 H 10.5" /><circle class="sym" cx="0" cy="0" r="3" /><text class="lab lft" transform="translate(-3 -7.0)">11</text></g><path class="edge" d="M 0 0 V -19.7761 H -19.25" /><circle class="sym" cx="0" cy="0" r="3" /><text class="lab rgt" transform="translate(3 -7.0)">14</text></g><path class="edge" d="M 0 0 V -21.7199 H 36.75" /><circle class="sym" cx="0" cy="0" r="3" /><text class="lab lft" transform="translate(-3 -7.0)">18</text></g><path class="edge" d="M 0 0 V -30.1956 H 31.5" /><circle class="sym" cx="0" cy="0" r="3" /><text class="lab lft" transform="translate(-3 -7.0)">19</text></g><g class="a21 c1 node n20 p0" transform="translate(31.5 14.6002)"><g class="a20 leaf node n6 p0 sample" transform="translate(0.0 79.9998)"><path class="edge" d="M 0 0 V -79.9998 H 0.0" /><rect class="sym" height="6" width="6" x="-3" y="-3" /><text class="lab" transform="translate(0 11)">6</text></g><path class="edge" d="M 0 0 V -14.6002 H -31.5" /><circle class="sym" cx="0" cy="0" r="3" /><text class="lab rgt" transform="translate(3 -7.0)">20</text></g><circle class="sym" cx="0" cy="0" r="3" /><text class="lab" transform="translate(0 -11)">21</text></g></g></g></g></g></svg>
