<svg baseProfile="full" height="200" version="1.1" width="800" xmlns="http://www.w3.org/2000/svg" xmlns:ev="http://www.w3.org/2001/xml-events" xmlns:xlink="http://www.w3.org/1999/xlink"><defs><style type="text/css"><![CDATA[.background path {fill: #808080; fill-opacity: 0}.background path:nth-child(odd) {fill-opacity: .1}.axes {font-size: 14px}.x-axis .tick .lab {font-weight: bold; dominant-baseline: hanging}.axes, .tree {font-size: 14px; text-anchor: middle}.axes line, .edge {stroke: black; fill: none}.y-axis .grid {stroke: #FAFAFA}.node > .sym {fill: black; stroke: none}.site > .sym {stroke: black}.mut text {fill: red; font-style: italic}.mut.extra text {fill: hotpink}.mut line {fill: none; stroke: none}.mut .sym {fill: none; stroke: red}.mut.extra .sym {stroke: hotpink}.node .mut .sym {stroke-width: 1.5px}.tree text, .tree-sequence text {dominant-baseline: central}.plotbox .lab.lft {text-anchor: end}.plotbox .lab.rgt {text-anchor: start}]]></style></defs><g class="tree-sequence"><g class="background"><path d="M20,0 l190,0 l0,138.2 l-149.661,25 l0,5 l-40.3387,0 l0,-5 l0,-25 l0,-138.2z" /><path d="M210,0 l190,0 l0,138.2 l-323.667,25 l0,5 l-15.9948,0 l0,-5 l149.661,-25 l0,-138.2z" /><path d="M400,0 l190,0 l0,138.2 l14.495,25 l0,5 l-528.162,0 l0,-5 l323.667,-25 l0,-138.2z" /><path d="M590,0 l190,0 l0,138.2 l0,25 l0,5 l-175.505,0 l0,-5 l-14.495,-25 l0,-138.2z" /></g><g class="axes"><g class="x-axis"><g transform="translate(400 200)"><text class="lab" text-anchor="middle" transform="translate(0 -11)">Genome position</text></g><line x1="20" x2="780" y1="163.2" y2="163.2" /><g class="ticks"><g class="tick" transform="translate(20 163.2)"><line x1="0" x2="0" y1="0" y2="5" /><g transform="translate(0 6)"><text class="lab">0.00</text></g></g><g class="tick" transform="translate(60.3387 163.2)"><line x1="0" x2="0" y1="0" y2="5" /><g transform="translate(0 6)"><text class="lab">53.08</text></g></g><g class="tick" transform="translate(76.3335 163.2)"><line x1="0" x2="0" y1="0" y2="5" /><g transform="translate(0 6)"><text class="lab">74.12</text></g></g><g class="tick" transform="translate(604.495 163.2)"><line x1="0" x2="0" y1="0" y2="5" /><g transform="translate(0 6)"><text class="lab">769.07</text></g></g><g class="tick" transform="translate(780 163.2)"><line x1="0" x2="0" y1="0" y2="5" /><g transform="translate(0 6)"><text class="lab">1000.00</text></g></g></g></g></g><g class="plotbox trees"><g class="tree t0" transform="translate(20 0)"><g class="plotbox"><g class="c2 node n27 p0 root" transform="translate(114.219 26.8)"><g class="a27 c1 node n25 p0" transform="translate(48.2812 25.8335)"><g class="a25 leaf node n9 p0 sample" transform="translate(0.0 68.7665)"><path class="edge" d="M 0 0 V -68.7665 H 0.0" /><rect class="sym" height="6" width="6" x="-3" y="-3" /><text class="lab" transform="translate(0 11)">9</text></g><path class="edge" d="M 0 0 V -25.8335 H -48.2812" /><circle class="sym" cx="0" cy="0" r="3" /><text class="lab rgt" transform="translate(3 -7.0)">25</text></g><g class="a27 c2 node n26 p0" transform="translate(-48.2812 17.6207)"><g class="a26 c1 node n20 p0" transform="translate(-30.9375 56.6022)"><g class="a20 c2 node n17 p0" transform="translate(0.0 11.9553)"><g class="a17 leaf node n0 p0 sample" transform="translate(-7.5 8.42181)"><path class="edge" d="M 0 0 V -8.42181 H 7.5" /><rect class="sym" height="6" width="6" x="-3" y="-3" /><text class="lab" transform="translate(0 11)">0</text></g><g class="a17 leaf node n8 p0 sample" transform="translate(7.5 8.42181)"><path class="edge" d="M 0 0 V -8.42181 H -7.5" /><rect class="sym" height="6" width="6" x="-3" y="-3" /><text class="lab" transform="translate(0 11)">8</text></g><path class="edge" d="M 0 0 V -11.9553 H 0.0" /><circle class="sym" cx="0" cy="0" r="3" /><text class="lab lft" transform="translate(-3 -7.0)">17</text></g><path class="edge" d="M 0 0 V -56.6022 H 30.9375" /><circle class="sym" cx="0" cy="0" r="3" /><text class="lab lft" transform="translate(-3 -7.0)">20</text></g><g class="a26 c2 node n24 p0" transform="translate(30.9375 19.012)"><g class="a24 c1 node n11 p0" transform="translate(-31.875 56.5322)"><g class="a11 c2 node n10 p0" transform="translate(0.0 1.43166)"><g class="a10 leaf node n1 p0 sample" transform="translate(-7.5 0.00340369)"><path class="edge" d="M 0 0 V -0.00340369 H 7.5" /><rect class="sym" height="6" width="6" x="-3" y="-3" /><text class="lab" transform="translate(0 11)">1</text></g><g class="a10 leaf node n3 p0 sample" transform="translate(7.5 0.00340369)"><path class="edge" d="M 0 0 V -0.00340369 H -7.5" /><rect class="sym" height="6" width="6" x="-3" y="-3" /><text class="lab" transform="translate(0 11)">3</text></g><path class="edge" d="M 0 0 V -1.43166 H 0.0" /><circle class="sym" cx="0" cy="0" r="3" /><text class="lab lft" transform="translate(-3 -7.0)">10</text></g><path class="edge" d="M 0 0 V -56.5322 H 31.875" /><circle class="sym" cx="0" cy="0" r="3" /><text class="lab lft" transform="translate(-3 -7.0)">11</text></g><g class="a24 c1 node n22 p0" transform="translate(31.875 9.65684)"><g class="a22 c2 node n21 p0" transform="translate(0.0 25.1133)"><g class="a21 leaf node n4 p0 sample" transform="translate(18.75 23.1971)"><path class="edge" d="M 0 0 V -23.1971 H -18.75" /><rect class="sym" height="6" width="6" x="-3" y="-3" /><text class="lab" transform="translate(0 11)">4</text></g><g class="a21 c2 node n19 p0" transform="translate(-18.75 5.26588)"><g class="a19 c2 node n16 p0" transform="translate(15 10.8258)"><g class="a16 c1 node n13 p0" transform="translate(-7.5 5.6569)"><g class="a13 leaf node n5 p0 sample" transform="translate(0.0 1.44858)"><path class="edge" d="M 0 0 V -1.44858 H 0.0" /><rect class="sym" height="6" width="6" x="-3" y="-3" /><text class="lab" transform="translate(0 11)">5</text></g><path class="edge" d="M 0 0 V -5.6569 H 7.5" /><circle class="sym" cx="0" cy="0" r="3" /><text class="lab lft" transform="translate(-3 -7.0)">13</text></g><g class="a16 c1 node n14 p0" transform="translate(7.5 5.30651)"><g class="a14 leaf node n7 p0 sample" transform="translate(0.0 1.79897)"><path class="edge" d="M 0 0 V -1.79897 H 0.0" /><rect class="sym" height="6" width="6" x="-3" y="-3" /><text class="lab" transform="translate(0 11)">7</text></g><path class="edge" d="M 0 0 V -5.30651 H -7.5" /><circle class="sym" cx="0" cy="0" r="3" /><text class="lab rgt" transform="translate(3 -7.0)">14</text></g><path class="edge" d="M 0 0 V -10.8258 H -15" /><circle class="sym" cx="0" cy="0" r="3" /><text class="lab rgt" transform="translate(3 -7.0)">16</text></g><g class="a19 c2 node n18 p0" transform="translate(-15 7.20084)"><g class="a18 leaf node n2 p0 sample" transform="translate(-7.5 10.7304)"><path class="edge" d="M 0 0 V -10.7304 H 7.5" /><rect class="sym" height="6" width="6" x="-3" y="-3" /><text class="lab" transform="translate(0 11)">2</text></g><g class="a18 leaf node n6 p0 sample" transform="translate(7.5 10.7304)"><path class="edge" d="M 0 0 V -10.7304 H -7.5" /><rect class="sym" height="6" width="6" x="-3" y="-3" /><text class="lab" transform="translate(0 11)">6</text></g><path class="edge" d="M 0 0 V -7.20084 H 15" /><circle class="sym" cx="0" cy="0" r="3" /><text class="lab lft" transform="translate(-3 -7.0)">18</text></g><path class="edge" d="M 0 0 V -5.26588 H 18.75" /><circle class="sym" cx="0" cy="0" r="3" /><text class="lab lft" transform="translate(-3 -7.0)">19</text></g><path class="edge" d="M 0 0 V -25.1133 H 0.0" /><circle class="sym" cx="0" cy="0" r="3" /><text class="lab lft" transform="translate(-3 -7.0)">21</text></g><path class="edge" d="M 0 0 V -9.65684 H -31.875" /><circle class="sym" cx="0" cy="0" r="3" /><text class="lab rgt" transform="translate(3 -7.0)">22</text></g><path class="edge" d="M 0 0 V -19.012 H -30.9375" /><circle class="sym" cx="0" cy="0" r="3" /><text class="lab rgt" transform="translate(3 -7.0)">24</text></g><path class="edge" d="M 0 0 V -17.6207 H 48.2812" /><circle class="sym" cx="0" cy="0" r="3" /><text class="lab lft" transform="translate(-3 -7.0)">26</text></g><circle class="sym" cx="0" cy="0" r="3" /><text class="lab" transform="translate(0 -11)">27</text></g></g></g><g class="tree t1" transform="translate(210 0)"><g class="plotbox"><g class="c2 node n27 p0 root" transform="translate(97.8125 26.8)"><g class="a27 c2 node n25 p0" transform="translate(47.8125 25.8335)"><g class="a25 leaf node n9 p0 sample" transform="translate(16.875 68.7665)"><path class="edge" d="M 0 0 V -68.7665 H -16.875" /><rect class="sym" height="6" width="6" x="-3" y="-3" /><text class="lab" transform="translate(0 11)">9</text></g><g class="a25 c1 node n23 p0" transform="translate(-16.875 20.4561)"><g class="a23 c2 node n21 p0" transform="translate(0.0 25.1133)"><g class="a21 leaf node n4 p0 sample" transform="translate(18.75 23.1971)"><path class="edge" d="M 0 0 V -23.1971 H -18.75" /><rect class="sym" height="6" width="6" x="-3" y="-3" /><text class="lab" transform="translate(0 11)">4</text></g><g class="a21 c2 node n19 p0" transform="translate(-18.75 5.26588)"><g class="a19 c2 node n16 p0" transform="translate(15 10.8258)"><g class="a16 c1 node n13 p0" transform="translate(-7.5 5.6569)"><g class="a13 leaf node n5 p0 sample" transform="translate(0.0 1.44858)"><path class="edge" d="M 0 0 V -1.44858 H 0.0" /><rect class="sym" height="6" width="6" x="-3" y="-3" /><text class="lab" transform="translate(0 11)">5</text></g><path class="edge" d="M 0 0 V -5.6569 H 7.5" /><circle class="sym" cx="0" cy="0" r="3" /><text class="lab lft" transform="translate(-3 -7.0)">13</text></g><g class="a16 c1 node n14 p0" transform="translate(7.5 5.30651)"><g class="a14 leaf node n7 p0 sample" transform="translate(0.0 1.79897)"><path class="edge" d="M 0 0 V -1.79897 H 0.0" /><rect class="sym" height="6" width="6" x="-3" y="-3" /><text class="lab" transform="translate(0 11)">7</text></g><path class="edge" d="M 0 0 V -5.30651 H -7.5" /><circle class="sym" cx="0" cy="0" r="3" /><text class="lab rgt" transform="translate(3 -7.0)">14</text></g><path class="edge" d="M 0 0 V -10.8258 H -15" /><circle class="sym" cx="0" cy="0" r="3" /><text class="lab rgt" transform="translate(3 -7.0)">16</text></g><g class="a19 c2 node n18 p0" transform="translate(-15 7.20084)"><g class="a18 leaf node n2 p0 sample" transform="translate(-7.5 10.7304)"><path class="edge" d="M 0 0 V -10.7304 H 7.5" /><rect class="sym" height="6" width="6" x="-3" y="-3" /><text class="lab" transform="translate(0 11)">2</text></g><g class="a18 leaf node n6 p0 sample" transform="translate(7.5 10.7304)"><path class="edge" d="M 0 0 V -10.7304 H -7.5" /><rect class="sym" height="6" width="6" x="-3" y="-3" /><text class="lab" transform="translate(0 11)">6</text></g><path class="edge" d="M 0 0 V -7.20084 H 15" /><circle class="sym" cx="0" cy="0" r="3" /><text class="lab lft" transform="translate(-3 -7.0)">18</text></g><path class="edge" d="M 0 0 V -5.26588 H 18.75" /><circle class="sym" cx="0" cy="0" r="3" /><text class="lab lft" transform="translate(-3 -7.0)">19</text></g><path class="edge" d="M 0 0 V -25.1133 H 0.0" /><circle class="sym" cx="0" cy="0" r="3" /><text class="lab lft" transform="translate(-3 -7.0)">21</text></g><path class="edge" d="M 0 0 V -20.4561 H 16.875" /><circle class="sym" cx="0" cy="0" r="3" /><text class="lab lft" transform="translate(-3 -7.0)">23</text></g><path class="edge" d="M 0 0 V -25.8335 H -47.8125" /><circle class="sym" cx="0" cy="0" r="3" /><text class="lab rgt" transform="translate(3 -7.0)">25</text></g><g class="a27 c2 node n26 p0" transform="translate(-47.8125 17.6207)"><g class="a26 c1 node n20 p0" transform="translate(-15 56.6022)"><g class="a20 c2 node n17 p0" transform="translate(0.0 11.9553)"><g class="a17 leaf node n0 p0 sample" transform="translate(-7.5 8.42181)"><path class="edge" d="M 0 0 V -8.42181 H 7.5" /><rect class="sym" height="6" width="6" x="-3" y="-3" /><text class="lab" transform="translate(0 11)">0</text></g><g class="a17 leaf node n8 p0 sample" transform="translate(7.5 8.42181)"><path class="edge" d="M 0 0 V -8.42181 H -7.5" /><rect class="sym" height="6" width="6" x="-3" y="-3" /><text class="lab" transform="translate(0 11)">8</text></g><path class="edge" d="M 0 0 V -11.9553 H 0.0" /><circle class="sym" cx="0" cy="0" r="3" /><text class="lab lft" transform="translate(-3 -7.0)">17</text></g><path class="edge" d="M 0 0 V -56.6022 H 15" /><circle class="sym" cx="0" cy="0" r="3" /><text class="lab lft" transform="translate(-3 -7.0)">20</text></g><g class="a26 c1 node n24 p0" transform="translate(15 19.012)"><g class="a24 c1 node n11 p0" transform="translate(0.0 56.5322)"><g class="a11 c2 node n10 p0" transform="translate(0.0 1.43166)"><g class="a10 leaf node n1 p0 sample" transform="translate(-7.5 0.00340369)"><path class="edge" d="M 0 0 V -0.00340369 H 7.5" /><rect class="sym" height="6" width="6" x="-3" y="-3" /><text class="lab" transform="translate(0 11)">1</text></g><g class="a10 leaf node n3 p0 sample" transform="translate(7.5 0.00340369)"><path class="edge" d="M 0 0 V -0.00340369 H -7.5" /><rect class="sym" height="6" width="6" x="-3" y="-3" /><text class="lab" transform="translate(0 11)">3</text></g><path class="edge" d="M 0 0 V -1.43166 H 0.0" /><circle class="sym" cx="0" cy="0" r="3" /><text class="lab lft" transform="translate(-3 -7.0)">10</text></g><path class="edge" d="M 0 0 V -56.5322 H 0.0" /><circle class="sym" cx="0" cy="0" r="3" /><text class="lab lft" transform="translate(-3 -7.0)">11</text></g><path class="edge" d="M 0 0 V -19.012 H -15" /><circle class="sym" cx="0" cy="0" r="3" /><text class="lab rgt" transform="translate(3 -7.0)">24</text></g><path class="edge" d="M 0 0 V -17.6207 H 47.8125" /><circle class="sym" cx="0" cy="0" r="3" /><text class="lab lft" transform="translate(-3 -7.0)">26</text></g><circle class="sym" cx="0" cy="0" r="3" /><text class="lab" transform="translate(0 -11)">27</text></g></g></g><g class="tree t2" transform="translate(400 0)"><g class="plotbox"><g class="c2 node n27 p0 root" transform="translate(89.9609 26.8)"><g class="a27 c2 node n25 p0" transform="translate(54.9609 25.8335)"><g class="a25 leaf node n9 p0 sample" transform="translate(17.5781 68.7665)"><path class="edge" d="M 0 0 V -68.7665 H -17.5781" /><rect class="sym" height="6" width="6" x="-3" y="-3" /><text class="lab" transform="translate(0 11)">9</text></g><g class="a25 c1 node n23 p0" transform="translate(-17.5781 20.4561)"><g class="a23 c2 node n21 p0" transform="translate(0.0 25.1133)"><g class="a21 leaf node n4 p0 sample" transform="translate(20.1562 23.1971)"><path class="edge" d="M 0 0 V -23.1971 H -20.1562" /><rect class="sym" height="6" width="6" x="-3" y="-3" /><text class="lab" transform="translate(0 11)">4</text></g><g class="a21 c2 node n19 p0" transform="translate(-20.1562 5.26588)"><g class="a19 c2 node n16 p0" transform="translate(-17.8125 10.8258)"><g class="a16 c2 node n13 p0" transform="translate(-13.125 5.6569)"><g class="a13 leaf node n5 p0 sample" transform="translate(11.25 1.44858)"><path class="edge" d="M 0 0 V -1.44858 H -11.25" /><rect class="sym" height="6" width="6" x="-3" y="-3" /><text class="lab" transform="translate(0 11)">5</text></g><g class="a13 c1 node n12 p0" transform="translate(-11.25 0.0135192)"><g class="a12 c2 node n10 p0" transform="translate(0.0 1.43166)"><g class="a10 leaf node n1 p0 sample" transform="translate(-7.5 0.00340369)"><path class="edge" d="M 0 0 V -0.00340369 H 7.5" /><rect class="sym" height="6" width="6" x="-3" y="-3" /><text class="lab" transform="translate(0 11)">1</text></g><g class="a10 leaf node n3 p0 sample" transform="translate(7.5 0.00340369)"><path class="edge" d="M 0 0 V -0.00340369 H -7.5" /><rect class="sym" height="6" width="6" x="-3" y="-3" /><text class="lab" transform="translate(0 11)">3</text></g><path class="edge" d="M 0 0 V -1.43166 H 0.0" /><circle class="sym" cx="0" cy="0" r="3" /><text class="lab lft" transform="translate(-3 -7.0)">10</text></g><path class="edge" d="M 0 0 V -0.0135192 H 11.25" /><circle class="sym" cx="0" cy="0" r="3" /><text class="lab lft" transform="translate(-3 -7.0)">12</text></g><path class="edge" d="M 0 0 V -5.6569 H 13.125" /><circle class="sym" cx="0" cy="0" r="3" /><text class="lab lft" transform="translate(-3 -7.0)">13</text></g><g class="a16 c1 node n14 p0" transform="translate(13.125 5.30651)"><g class="a14 leaf node n7 p0 sample" transform="translate(0.0 1.79897)"><path class="edge" d="M 0 0 V -1.79897 H 0.0" /><rect class="sym" height="6" width="6" x="-3" y="-3" /><text class="lab" transform="translate(0 11)">7</text></g><path class="edge" d="M 0 0 V -5.30651 H -13.125" /><circle class="sym" cx="0" cy="0" r="3" /><text class="lab rgt" transform="translate(3 -7.0)">14</text></g><path class="edge" d="M 0 0 V -10.8258 H 17.8125" /><circle class="sym" cx="0" cy="0" r="3" /><text class="lab lft" transform="translate(-3 -7.0)">16</text></g><g class="a19 c2 node n18 p0" transform="translate(17.8125 7.20084)"><g class="a18 leaf node n2 p0 sample" transform="translate(-7.5 10.7304)"><path class="edge" d="M 0 0 V -10.7304 H 7.5" /><rect class="sym" height="6" width="6" x="-3" y="-3" /><text class="lab" transform="translate(0 11)">2</text></g><g class="a18 leaf node n6 p0 sample" transform="translate(7.5 10.7304)"><path class="edge" d="M 0 0 V -10.7304 H -7.5" /><rect class="sym" height="6" width="6" x="-3" y="-3" /><text class="lab" transform="translate(0 11)">6</text></g><path class="edge" d="M 0 0 V -7.20084 H -17.8125" /><circle class="sym" cx="0" cy="0" r="3" /><text class="lab rgt" transform="translate(3 -7.0)">18</text></g><path class="edge" d="M 0 0 V -5.26588 H 20.1562" /><circle class="sym" cx="0" cy="0" r="3" /><text class="lab lft" transform="translate(-3 -7.0)">19</text></g><path class="edge" d="M 0 0 V -25.1133 H 0.0" /><circle class="sym" cx="0" cy="0" r="3" /><text class="lab lft" transform="translate(-3 -7.0)">21</text></g><path class="edge" d="M 0 0 V -20.4561 H 17.5781" /><circle class="sym" cx="0" cy="0" r="3" /><text class="lab lft" transform="translate(-3 -7.0)">23</text></g><path class="edge" d="M 0 0 V -25.8335 H -54.9609" /><circle class="sym" cx="0" cy="0" r="3" /><text class="lab rgt" transform="translate(3 -7.0)">25</text></g><g class="a27 c1 node n26 p0" transform="translate(-54.9609 17.6207)"><g class="a26 c1 node n20 p0" transform="translate(0.0 56.6022)"><g class="a20 c2 node n17 p0" transform="translate(0.0 11.9553)"><g class="a17 leaf node n0 p0 sample" transform="translate(-7.5 8.42181)"><path class="edge" d="M 0 0 V -8.42181 H 7.5" /><rect class="sym" height="6" width="6" x="-3" y="-3" /><text class="lab" transform="translate(0 11)">0</text></g><g class="a17 leaf node n8 p0 sample" transform="translate(7.5 8.42181)"><path class="edge" d="M 0 0 V -8.42181 H -7.5" /><rect class="sym" height="6" width="6" x="-3" y="-3" /><text class="lab" transform="translate(0 11)">8</text></g><path class="edge" d="M 0 0 V -11.9553 H 0.0" /><circle class="sym" cx="0" cy="0" r="3" /><text class="lab lft" transform="translate(-3 -7.0)">17</text></g><path class="edge" d="M 0 0 V -56.6022 H 0.0" /><circle class="sym" cx="0" cy="0" r="3" /><text class="lab lft" transform="translate(-3 -7.0)">20</text></g><path class="edge" d="M 0 0 V -17.6207 H 54.9609" /><circle class="sym" cx="0" cy="0" r="3" /><text class="lab lft" transform="translate(-3 -7.0)">26</text></g><circle class="sym" cx="0" cy="0" r="3" /><text class="lab" transform="translate(0 -11)">27</text></g></g></g><g class="tree t3" transform="translate(590 0)"><g class="plotbox"><g class="c2 node n27 p0 root" transform="translate(95.7031 26.8)"><g class="a27 c2 node n25 p0" transform="translate(49.4531 25.8335)"><g class="a25 leaf node n9 p0 sample" transform="translate(17.3438 68.7665)"><path class="edge" d="M 0 0 V -68.7665 H -17.3438" /><rect class="sym" height="6" width="6" x="-3" y="-3" /><text class="lab" transform="translate(0 11)">9</text></g><g class="a25 c1 node n23 p0" transform="translate(-17.3438 20.4561)"><g class="a23 c2 node n21 p0" transform="translate(0.0 25.1133)"><g class="a21 leaf node n4 p0 sample" transform="translate(19.6875 23.1971)"><path class="edge" d="M 0 0 V -23.1971 H -19.6875" /><rect class="sym" height="6" width="6" x="-3" y="-3" /><text class="lab" transform="translate(0 11)">4</text></g><g class="a21 c2 node n19 p0" transform="translate(-19.6875 5.26588)"><g class="a19 c1 node n16 p0" transform="translate(-16.875 10.8258)"><g class="a16 c2 node n13 p0" transform="translate(0.0 5.6569)"><g class="a13 leaf node n5 p0 sample" transform="translate(11.25 1.44858)"><path class="edge" d="M 0 0 V -1.44858 H -11.25" /><rect class="sym" height="6" width="6" x="-3" y="-3" /><text class="lab" transform="translate(0 11)">5</text></g><g class="a13 c1 node n12 p0" transform="translate(-11.25 0.0135192)"><g class="a12 c2 node n10 p0" transform="translate(0.0 1.43166)"><g class="a10 leaf node n1 p0 sample" transform="translate(-7.5 0.00340369)"><path class="edge" d="M 0 0 V -0.00340369 H 7.5" /><rect class="sym" height="6" width="6" x="-3" y="-3" /><text class="lab" transform="translate(0 11)">1</text></g><g class="a10 leaf node n3 p0 sample" transform="translate(7.5 0.00340369)"><path class="edge" d="M 0 0 V -0.00340369 H -7.5" /><rect class="sym" height="6" width="6" x="-3" y="-3" /><text class="lab" transform="translate(0 11)">3</text></g><path class="edge" d="M 0 0 V -1.43166 H 0.0" /><circle class="sym" cx="0" cy="0" r="3" /><text class="lab lft" transform="translate(-3 -7.0)">10</text></g><path class="edge" d="M 0 0 V -0.0135192 H 11.25" /><circle class="sym" cx="0" cy="0" r="3" /><text class="lab lft" transform="translate(-3 -7.0)">12</text></g><path class="edge" d="M 0 0 V -5.6569 H 0.0" /><circle class="sym" cx="0" cy="0" r="3" /><text class="lab lft" transform="translate(-3 -7.0)">13</text></g><path class="edge" d="M 0 0 V -10.8258 H 16.875" /><circle class="sym" cx="0" cy="0" r="3" /><text class="lab lft" transform="translate(-3 -7.0)">16</text></g><g class="a19 c2 node n18 p0" transform="translate(16.875 7.20084)"><g class="a18 leaf node n2 p0 sample" transform="translate(-7.5 10.7304)"><path class="edge" d="M 0 0 V -10.7304 H 7.5" /><rect class="sym" height="6" width="6" x="-3" y="-3" /><text class="lab" transform="translate(0 11)">2</text></g><g class="a18 leaf node n6 p0 sample" transform="translate(7.5 10.7304)"><path class="edge" d="M 0 0 V -10.7304 H -7.5" /><rect class="sym" height="6" width="6" x="-3" y="-3" /><text class="lab" transform="translate(0 11)">6</text></g><path class="edge" d="M 0 0 V -7.20084 H -16.875" /><circle class="sym" cx="0" cy="0" r="3" /><text class="lab rgt" transform="translate(3 -7.0)">18</text></g><path class="edge" d="M 0 0 V -5.26588 H 19.6875" /><circle class="sym" cx="0" cy="0" r="3" /><text class="lab lft" transform="translate(-3 -7.0)">19</text></g><path class="edge" d="M 0 0 V -25.1133 H 0.0" /><circle class="sym" cx="0" cy="0" r="3" /><text class="lab lft" transform="translate(-3 -7.0)">21</text></g><path class="edge" d="M 0 0 V -20.4561 H 17.3438" /><circle class="sym" cx="0" cy="0" r="3" /><text class="lab lft" transform="translate(-3 -7.0)">23</text></g><path class="edge" d="M 0 0 V -25.8335 H -49.4531" /><circle class="sym" cx="0" cy="0" r="3" /><text class="lab rgt" transform="translate(3 -7.0)">25</text></g><g class="a27 c1 node n26 p0" transform="translate(-49.4531 17.6207)"><g class="a26 c2 node n20 p0" transform="translate(0.0 56.6022)"><g class="a20 c2 node n17 p0" transform="translate(-11.25 11.9553)"><g class="a17 leaf node n0 p0 sample" transform="translate(-7.5 8.42181)"><path class="edge" d="M 0 0 V -8.42181 H 7.5" /><rect class="sym" height="6" width="6" x="-3" y="-3" /><text class="lab" transform="translate(0 11)">0</text></g><g class="a17 leaf node n8 p0 sample" transform="translate(7.5 8.42181)"><path class="edge" d="M 0 0 V -8.42181 H -7.5" /><rect class="sym" height="6" width="6" x="-3" y="-3" /><text class="lab" transform="translate(0 11)">8</text></g><path class="edge" d="M 0 0 V -11.9553 H 11.25" /><circle class="sym" cx="0" cy="0" r="3" /><text class="lab lft" transform="translate(-3 -7.0)">17</text></g><g class="a20 c1 node n15 p0" transform="translate(11.25 18.5781)"><g class="a15 leaf node n7 p0 sample" transform="translate(0.0 1.79897)"><path class="edge" d="M 0 0 V -1.79897 H 0.0" /><rect class="sym" height="6" width="6" x="-3" y="-3" /><text class="lab" transform="translate(0 11)">7</text></g><path class="edge" d="M 0 0 V -18.5781 H -11.25" /><circle class="sym" cx="0" cy="0" r="3" /><text class="lab rgt" transform="translate(3 -7.0)">15</text></g><path class="edge" d="M 0 0 V -56.6022 H 0.0" /><circle class="sym" cx="0" cy="0" r="3" /><text class="lab lft" transform="translate(-3 -7.0)">20</text></g><path class="edge" d="M 0 0 V -17.6207 H 49.4531" /><circle class="sym" cx="0" cy="0" r="3" /><text class="lab lft" transform="translate(-3 -7.0)">26</text></g><circle class="sym" cx="0" cy="0" r="3" /><text class="lab" transform="translate(0 -11)">27</text></g></g></g></g></g></svg>
