<svg baseProfile="full" height="200" version="1.1" width="1000" xmlns="http://www.w3.org/2000/svg" xmlns:ev="http://www.w3.org/2001/xml-events" xmlns:xlink="http://www.w3.org/1999/xlink"><defs><style type="text/css"><![CDATA[.background path {fill: #808080; fill-opacity: 0}.background path:nth-child(odd) {fill-opacity: .1}.axes {font-size: 14px}.x-axis .tick .lab {font-weight: bold; dominant-baseline: hanging}.axes, .tree {font-size: 14px; text-anchor: middle}.axes line, .edge {stroke: black; fill: none}.y-axis .grid {stroke: #FAFAFA}.node > .sym {fill: black; stroke: none}.site > .sym {stroke: black}.mut text {fill: red; font-style: italic}.mut.extra text {fill: hotpink}.mut line {fill: none; stroke: none}.mut .sym {fill: none; stroke: red}.mut.extra .sym {stroke: hotpink}.node .mut .sym {stroke-width: 1.5px}.tree text, .tree-sequence text {dominant-baseline: central}.plotbox .lab.lft {text-anchor: end}.plotbox .lab.rgt {text-anchor: start}]]></style></defs><g class="tree-sequence"><g class="background"><path d="M20,0 l192,0 l0,138.2 l-161.79,25 l0,5 l-30.2102,0 l0,-5 l0,-25 l0,-138.2z" /><path d="M212,0 l192,0 l0,138.2 l-256.521,25 l0,5 l-97.2689,0 l0,-5 l161.79,-25 l0,-138.2z" /><path d="M404,0 l192,0 l0,138.2 l16.0469,25 l0,5 l-464.568,0 l0,-5 l256.521,-25 l0,-138.2z" /><path d="M596,0 l192,0 l0,138.2 l-172.492,25 l0,5 l-3.46136,0 l0,-5 l-16.0469,-25 l0,-138.2z" /><path d="M788,0 l192,0 l0,138.2 l0,25 l0,5 l-364.492,0 l0,-5 l172.492,-25 l0,-138.2z" /></g><g class="axes"><g class="x-axis"><g transform="translate(500 200)"><text class="lab" text-anchor="middle" transform="translate(0 -11)">Genome position</text></g><line x1="20" x2="980" y1="163.2" y2="163.2" /><g class="ticks"><g class="tick" transform="translate(20 163.2)"><line x1="0" x2="0" y1="0" y2="5" /><g transform="translate(0 6)"><text class="lab">0.00</text></g></g><g class="tick" transform="translate(50.2102 163.2)"><line x1="0" x2="0" y1="0" y2="5" /><g transform="translate(0 6)"><text class="lab">31.47</text></g></g><g class="tick" transform="translate(147.479 163.2)"><line x1="0" x2="0" y1="0" y2="5" /><g transform="translate(0 6)"><text class="lab">132.79</text></g></g><g class="tick" transform="translate(612.047 163.2)"><line x1="0" x2="0" y1="0" y2="5" /><g transform="translate(0 6)"><text class="lab">616.72</text></g></g><g class="tick" transform="translate(615.508 163.2)"><line x1="0" x2="0" y1="0" y2="5" /><g transform="translate(0 6)"><text class="lab">620.32</text></g></g><g class="tick" transform="translate(980 163.2)"><line x1="0" x2="0" y1="0" y2="5" /><g transform="translate(0 6)"><text class="lab">1000.00</text></g></g></g></g></g><g class="plotbox trees"><g class="tree t0" transform="translate(20 0)"><g class="plotbox"><g class="c2 node n30 p0 root" transform="translate(106.925 26.8)"><g class="a30 c2 node n28 p0" transform="translate(-38.475 63.8517)"><g class="a28 c2 node n16 p0" transform="translate(-21.85 21.7122)"><g class="a16 leaf node n4 p0 sample" transform="translate(11.4 9.03609)"><path class="edge" d="M 0 0 V -9.03609 H -11.4" /><rect class="sym" height="6" width="6" x="-3" y="-3" /><text class="lab" transform="translate(0 11)">4</text></g><g class="a16 c2 node n13 p0" transform="translate(-11.4 3.94035)"><g class="a13 leaf node n0 p0 sample" transform="translate(-7.6 5.09575)"><path class="edge" d="M 0 0 V -5.09575 H 7.6" /><rect class="sym" height="6" width="6" x="-3" y="-3" /><text class="lab" transform="translate(0 11)">0</text></g><g class="a13 leaf node n1 p0 sample" transform="translate(7.6 5.09575)"><path class="edge" d="M 0 0 V -5.09575 H -7.6" /><rect class="sym" height="6" width="6" x="-3" y="-3" /><text class="lab" transform="translate(0 11)">1</text></g><path class="edge" d="M 0 0 V -3.94035 H 11.4" /><circle class="sym" cx="0" cy="0" r="3" /><text class="lab lft" transform="translate(-3 -7.0)">13</text></g><path class="edge" d="M 0 0 V -21.7122 H 21.85" /><circle class="sym" cx="0" cy="0" r="3" /><text class="lab lft" transform="translate(-3 -7.0)">16</text></g><g class="a28 c2 node n26 p0" transform="translate(21.85 16.3687)"><g class="a26 leaf node n2 p0 sample" transform="translate(-17.1 14.3796)"><path class="edge" d="M 0 0 V -14.3796 H 17.1" /><rect class="sym" height="6" width="6" x="-3" y="-3" /><text class="lab" transform="translate(0 11)">2</text></g><g class="a26 c2 node n24 p0" transform="translate(17.1 0.477673)"><g class="a24 c2 node n12 p0" transform="translate(-11.4 10.3303)"><g class="a12 leaf node n5 p0 sample" transform="translate(-7.6 3.57158)"><path class="edge" d="M 0 0 V -3.57158 H 7.6" /><rect class="sym" height="6" width="6" x="-3" y="-3" /><text class="lab" transform="translate(0 11)">5</text></g><g class="a12 leaf node n8 p0 sample" transform="translate(7.6 3.57158)"><path class="edge" d="M 0 0 V -3.57158 H -7.6" /><rect class="sym" height="6" width="6" x="-3" y="-3" /><text class="lab" transform="translate(0 11)">8</text></g><path class="edge" d="M 0 0 V -10.3303 H 11.4" /><circle class="sym" cx="0" cy="0" r="3" /><text class="lab lft" transform="translate(-3 -7.0)">12</text></g><g class="a24 c1 node n14 p0" transform="translate(11.4 8.61392)"><g class="a14 leaf node n6 p0 sample" transform="translate(0.0 5.288)"><path class="edge" d="M 0 0 V -5.288 H 0.0" /><rect class="sym" height="6" width="6" x="-3" y="-3" /><text class="lab" transform="translate(0 11)">6</text></g><path class="edge" d="M 0 0 V -8.61392 H -11.4" /><circle class="sym" cx="0" cy="0" r="3" /><text class="lab rgt" transform="translate(3 -7.0)">14</text></g><path class="edge" d="M 0 0 V -0.477673 H -17.1" /><circle class="sym" cx="0" cy="0" r="3" /><text class="lab rgt" transform="translate(3 -7.0)">24</text></g><path class="edge" d="M 0 0 V -16.3687 H -21.85" /><circle class="sym" cx="0" cy="0" r="3" /><text class="lab rgt" transform="translate(3 -7.0)">26</text></g><path class="edge" d="M 0 0 V -63.8517 H 38.475" /><circle class="sym" cx="0" cy="0" r="3" /><text class="lab lft" transform="translate(-3 -7.0)">28</text></g><g class="a30 c1 node n29 p0" transform="translate(38.475 32.6602)"><g class="a29 c1 node n27 p0" transform="translate(0.0 38.2966)"><g class="a27 c2 node n25 p0" transform="translate(0.0 9.48087)"><g class="a25 c2 node n19 p0" transform="translate(11.4 4.09079)"><g class="a19 leaf node n9 p0 sample" transform="translate(7.6 10.0715)"><path class="edge" d="M 0 0 V -10.0715 H -7.6" /><rect class="sym" height="6" width="6" x="-3" y="-3" /><text class="lab" transform="translate(0 11)">9</text></g><g class="a19 c1 node n10 p0" transform="translate(-7.6 7.21148)"><g class="a10 leaf node n7 p0 sample" transform="translate(0.0 2.85998)"><path class="edge" d="M 0 0 V -2.85998 H 0.0" /><rect class="sym" height="6" width="6" x="-3" y="-3" /><text class="lab" transform="translate(0 11)">7</text></g><path class="edge" d="M 0 0 V -7.21148 H 7.6" /><circle class="sym" cx="0" cy="0" r="3" /><text class="lab lft" transform="translate(-3 -7.0)">10</text></g><path class="edge" d="M 0 0 V -4.09079 H -11.4" /><circle class="sym" cx="0" cy="0" r="3" /><text class="lab rgt" transform="translate(3 -7.0)">19</text></g><g class="a25 c1 node n22 p0" transform="translate(-11.4 2.4921)"><g class="a22 c1 node n20 p0" transform="translate(0.0 0.435395)"><g class="a20 c1 node n17 p0" transform="translate(0.0 1.47025)"><g class="a17 leaf node n3 p0 sample" transform="translate(0.0 9.76451)"><path class="edge" d="M 0 0 V -9.76451 H 0.0" /><rect class="sym" height="6" width="6" x="-3" y="-3" /><text class="lab" transform="translate(0 11)">3</text></g><path class="edge" d="M 0 0 V -1.47025 H 0.0" /><circle class="sym" cx="0" cy="0" r="3" /><text class="lab lft" transform="translate(-3 -7.0)">17</text></g><path class="edge" d="M 0 0 V -0.435395 H 0.0" /><circle class="sym" cx="0" cy="0" r="3" /><text class="lab lft" transform="translate(-3 -7.0)">20</text></g><path class="edge" d="M 0 0 V -2.4921 H 11.4" /><circle class="sym" cx="0" cy="0" r="3" /><text class="lab lft" transform="translate(-3 -7.0)">22</text></g><path class="edge" d="M 0 0 V -9.48087 H 0.0" /><circle class="sym" cx="0" cy="0" r="3" /><text class="lab lft" transform="translate(-3 -7.0)">25</text></g><path class="edge" d="M 0 0 V -38.2966 H 0.0" /><circle class="sym" cx="0" cy="0" r="3" /><text class="lab lft" transform="translate(-3 -7.0)">27</text></g><path class="edge" d="M 0 0 V -32.6602 H -38.475" /><circle class="sym" cx="0" cy="0" r="3" /><text class="lab rgt" transform="translate(3 -7.0)">29</text></g><circle class="sym" cx="0" cy="0" r="3" /><text class="lab" transform="translate(0 -11)">30</text></g></g></g><g class="tree t1" transform="translate(212 0)"><g class="plotbox"><g class="c2 node n30 p0 root" transform="translate(110.725 26.8)"><g class="a30 c2 node n28 p0" transform="translate(-42.275 63.8517)"><g class="a28 c2 node n16 p0" transform="translate(-21.85 21.7122)"><g class="a16 leaf node n4 p0 sample" transform="translate(11.4 9.03609)"><path class="edge" d="M 0 0 V -9.03609 H -11.4" /><rect class="sym" height="6" width="6" x="-3" y="-3" /><text class="lab" transform="translate(0 11)">4</text></g><g class="a16 c2 node n13 p0" transform="translate(-11.4 3.94035)"><g class="a13 leaf node n0 p0 sample" transform="translate(-7.6 5.09575)"><path class="edge" d="M 0 0 V -5.09575 H 7.6" /><rect class="sym" height="6" width="6" x="-3" y="-3" /><text class="lab" transform="translate(0 11)">0</text></g><g class="a13 leaf node n1 p0 sample" transform="translate(7.6 5.09575)"><path class="edge" d="M 0 0 V -5.09575 H -7.6" /><rect class="sym" height="6" width="6" x="-3" y="-3" /><text class="lab" transform="translate(0 11)">1</text></g><path class="edge" d="M 0 0 V -3.94035 H 11.4" /><circle class="sym" cx="0" cy="0" r="3" /><text class="lab lft" transform="translate(-3 -7.0)">13</text></g><path class="edge" d="M 0 0 V -21.7122 H 21.85" /><circle class="sym" cx="0" cy="0" r="3" /><text class="lab lft" transform="translate(-3 -7.0)">16</text></g><g class="a28 c2 node n26 p0" transform="translate(21.85 16.3687)"><g class="a26 leaf node n2 p0 sample" transform="translate(-17.1 14.3796)"><path class="edge" d="M 0 0 V -14.3796 H 17.1" /><rect class="sym" height="6" width="6" x="-3" y="-3" /><text class="lab" transform="translate(0 11)">2</text></g><g class="a26 c2 node n24 p0" transform="translate(17.1 0.477673)"><g class="a24 c2 node n12 p0" transform="translate(-11.4 10.3303)"><g class="a12 leaf node n5 p0 sample" transform="translate(-7.6 3.57158)"><path class="edge" d="M 0 0 V -3.57158 H 7.6" /><rect class="sym" height="6" width="6" x="-3" y="-3" /><text class="lab" transform="translate(0 11)">5</text></g><g class="a12 leaf node n8 p0 sample" transform="translate(7.6 3.57158)"><path class="edge" d="M 0 0 V -3.57158 H -7.6" /><rect class="sym" height="6" width="6" x="-3" y="-3" /><text class="lab" transform="translate(0 11)">8</text></g><path class="edge" d="M 0 0 V -10.3303 H 11.4" /><circle class="sym" cx="0" cy="0" r="3" /><text class="lab lft" transform="translate(-3 -7.0)">12</text></g><g class="a24 c1 node n14 p0" transform="translate(11.4 8.61392)"><g class="a14 leaf node n6 p0 sample" transform="translate(0.0 5.288)"><path class="edge" d="M 0 0 V -5.288 H 0.0" /><rect class="sym" height="6" width="6" x="-3" y="-3" /><text class="lab" transform="translate(0 11)">6</text></g><path class="edge" d="M 0 0 V -8.61392 H -11.4" /><circle class="sym" cx="0" cy="0" r="3" /><text class="lab rgt" transform="translate(3 -7.0)">14</text></g><path class="edge" d="M 0 0 V -0.477673 H -17.1" /><circle class="sym" cx="0" cy="0" r="3" /><text class="lab rgt" transform="translate(3 -7.0)">24</text></g><path class="edge" d="M 0 0 V -16.3687 H -21.85" /><circle class="sym" cx="0" cy="0" r="3" /><text class="lab rgt" transform="translate(3 -7.0)">26</text></g><path class="edge" d="M 0 0 V -63.8517 H 42.275" /><circle class="sym" cx="0" cy="0" r="3" /><text class="lab lft" transform="translate(-3 -7.0)">28</text></g><g class="a30 c1 node n29 p0" transform="translate(42.275 32.6602)"><g class="a29 c1 node n27 p0" transform="translate(0.0 38.2966)"><g class="a27 c2 node n25 p0" transform="translate(0.0 9.48087)"><g class="a25 c1 node n19 p0" transform="translate(11.4 4.09079)"><g class="a19 leaf node n9 p0 sample" transform="translate(0.0 10.0715)"><path class="edge" d="M 0 0 V -10.0715 H 0.0" /><rect class="sym" height="6" width="6" x="-3" y="-3" /><text class="lab" transform="translate(0 11)">9</text></g><path class="edge" d="M 0 0 V -4.09079 H -11.4" /><circle class="sym" cx="0" cy="0" r="3" /><text class="lab rgt" transform="translate(3 -7.0)">19</text></g><g class="a25 c2 node n22 p0" transform="translate(-11.4 2.4921)"><g class="a22 c1 node n20 p0" transform="translate(-7.6 0.435395)"><g class="a20 c1 node n17 p0" transform="translate(0.0 1.47025)"><g class="a17 leaf node n3 p0 sample" transform="translate(0.0 9.76451)"><path class="edge" d="M 0 0 V -9.76451 H 0.0" /><rect class="sym" height="6" width="6" x="-3" y="-3" /><text class="lab" transform="translate(0 11)">3</text></g><path class="edge" d="M 0 0 V -1.47025 H 0.0" /><circle class="sym" cx="0" cy="0" r="3" /><text class="lab lft" transform="translate(-3 -7.0)">17</text></g><path class="edge" d="M 0 0 V -0.435395 H 7.6" /><circle class="sym" cx="0" cy="0" r="3" /><text class="lab lft" transform="translate(-3 -7.0)">20</text></g><g class="a22 c1 node n11 p0" transform="translate(7.6 8.81017)"><g class="a11 leaf node n7 p0 sample" transform="translate(0.0 2.85998)"><path class="edge" d="M 0 0 V -2.85998 H 0.0" /><rect class="sym" height="6" width="6" x="-3" y="-3" /><text class="lab" transform="translate(0 11)">7</text></g><path class="edge" d="M 0 0 V -8.81017 H -7.6" /><circle class="sym" cx="0" cy="0" r="3" /><text class="lab rgt" transform="translate(3 -7.0)">11</text></g><path class="edge" d="M 0 0 V -2.4921 H 11.4" /><circle class="sym" cx="0" cy="0" r="3" /><text class="lab lft" transform="translate(-3 -7.0)">22</text></g><path class="edge" d="M 0 0 V -9.48087 H 0.0" /><circle class="sym" cx="0" cy="0" r="3" /><text class="lab lft" transform="translate(-3 -7.0)">25</text></g><path class="edge" d="M 0 0 V -38.2966 H 0.0" /><circle class="sym" cx="0" cy="0" r="3" /><text class="lab lft" transform="translate(-3 -7.0)">27</text></g><path class="edge" d="M 0 0 V -32.6602 H -42.275" /><circle class="sym" cx="0" cy="0" r="3" /><text class="lab rgt" transform="translate(3 -7.0)">29</text></g><circle class="sym" cx="0" cy="0" r="3" /><text class="lab" transform="translate(0 -11)">30</text></g></g></g><g class="tree t2" transform="translate(404 0)"><g class="plotbox"><g class="c2 node n30 p0 root" transform="translate(106.925 26.8)"><g class="a30 c2 node n28 p0" transform="translate(-38.475 63.8517)"><g class="a28 c2 node n16 p0" transform="translate(-21.85 21.7122)"><g class="a16 leaf node n4 p0 sample" transform="translate(11.4 9.03609)"><path class="edge" d="M 0 0 V -9.03609 H -11.4" /><rect class="sym" height="6" width="6" x="-3" y="-3" /><text class="lab" transform="translate(0 11)">4</text></g><g class="a16 c2 node n13 p0" transform="translate(-11.4 3.94035)"><g class="a13 leaf node n0 p0 sample" transform="translate(-7.6 5.09575)"><path class="edge" d="M 0 0 V -5.09575 H 7.6" /><rect class="sym" height="6" width="6" x="-3" y="-3" /><text class="lab" transform="translate(0 11)">0</text></g><g class="a13 leaf node n1 p0 sample" transform="translate(7.6 5.09575)"><path class="edge" d="M 0 0 V -5.09575 H -7.6" /><rect class="sym" height="6" width="6" x="-3" y="-3" /><text class="lab" transform="translate(0 11)">1</text></g><path class="edge" d="M 0 0 V -3.94035 H 11.4" /><circle class="sym" cx="0" cy="0" r="3" /><text class="lab lft" transform="translate(-3 -7.0)">13</text></g><path class="edge" d="M 0 0 V -21.7122 H 21.85" /><circle class="sym" cx="0" cy="0" r="3" /><text class="lab lft" transform="translate(-3 -7.0)">16</text></g><g class="a28 c2 node n26 p0" transform="translate(21.85 16.3687)"><g class="a26 leaf node n2 p0 sample" transform="translate(-17.1 14.3796)"><path class="edge" d="M 0 0 V -14.3796 H 17.1" /><rect class="sym" height="6" width="6" x="-3" y="-3" /><text class="lab" transform="translate(0 11)">2</text></g><g class="a26 c2 node n24 p0" transform="translate(17.1 0.477673)"><g class="a24 c2 node n12 p0" transform="translate(-11.4 10.3303)"><g class="a12 leaf node n5 p0 sample" transform="translate(-7.6 3.57158)"><path class="edge" d="M 0 0 V -3.57158 H 7.6" /><rect class="sym" height="6" width="6" x="-3" y="-3" /><text class="lab" transform="translate(0 11)">5</text></g><g class="a12 leaf node n8 p0 sample" transform="translate(7.6 3.57158)"><path class="edge" d="M 0 0 V -3.57158 H -7.6" /><rect class="sym" height="6" width="6" x="-3" y="-3" /><text class="lab" transform="translate(0 11)">8</text></g><path class="edge" d="M 0 0 V -10.3303 H 11.4" /><circle class="sym" cx="0" cy="0" r="3" /><text class="lab lft" transform="translate(-3 -7.0)">12</text></g><g class="a24 c1 node n14 p0" transform="translate(11.4 8.61392)"><g class="a14 leaf node n6 p0 sample" transform="translate(0.0 5.288)"><path class="edge" d="M 0 0 V -5.288 H 0.0" /><rect class="sym" height="6" width="6" x="-3" y="-3" /><text class="lab" transform="translate(0 11)">6</text></g><path class="edge" d="M 0 0 V -8.61392 H -11.4" /><circle class="sym" cx="0" cy="0" r="3" /><text class="lab rgt" transform="translate(3 -7.0)">14</text></g><path class="edge" d="M 0 0 V -0.477673 H -17.1" /><circle class="sym" cx="0" cy="0" r="3" /><text class="lab rgt" transform="translate(3 -7.0)">24</text></g><path class="edge" d="M 0 0 V -16.3687 H -21.85" /><circle class="sym" cx="0" cy="0" r="3" /><text class="lab rgt" transform="translate(3 -7.0)">26</text></g><path class="edge" d="M 0 0 V -63.8517 H 38.475" /><circle class="sym" cx="0" cy="0" r="3" /><text class="lab lft" transform="translate(-3 -7.0)">28</text></g><g class="a30 c2 node n29 p0" transform="translate(38.475 32.6602)"><g class="a29 c1 node n27 p0" transform="translate(11.4 38.2966)"><g class="a27 c2 node n25 p0" transform="translate(0.0 9.48087)"><g class="a25 c1 node n19 p0" transform="translate(7.6 4.09079)"><g class="a19 leaf node n9 p0 sample" transform="translate(0.0 10.0715)"><path class="edge" d="M 0 0 V -10.0715 H 0.0" /><rect class="sym" height="6" width="6" x="-3" y="-3" /><text class="lab" transform="translate(0 11)">9</text></g><path class="edge" d="M 0 0 V -4.09079 H -7.6" /><circle class="sym" cx="0" cy="0" r="3" /><text class="lab rgt" transform="translate(3 -7.0)">19</text></g><g class="a25 c1 node n22 p0" transform="translate(-7.6 2.4921)"><g class="a22 c1 node n11 p0" transform="translate(0.0 8.81017)"><g class="a11 leaf node n7 p0 sample" transform="translate(0.0 2.85998)"><path class="edge" d="M 0 0 V -2.85998 H 0.0" /><rect class="sym" height="6" width="6" x="-3" y="-3" /><text class="lab" transform="translate(0 11)">7</text></g><path class="edge" d="M 0 0 V -8.81017 H 0.0" /><circle class="sym" cx="0" cy="0" r="3" /><text class="lab lft" transform="translate(-3 -7.0)">11</text></g><path class="edge" d="M 0 0 V -2.4921 H 7.6" /><circle class="sym" cx="0" cy="0" r="3" /><text class="lab lft" transform="translate(-3 -7.0)">22</text></g><path class="edge" d="M 0 0 V -9.48087 H 0.0" /><circle class="sym" cx="0" cy="0" r="3" /><text class="lab lft" transform="translate(-3 -7.0)">25</text></g><path class="edge" d="M 0 0 V -38.2966 H -11.4" /><circle class="sym" cx="0" cy="0" r="3" /><text class="lab rgt" transform="translate(3 -7.0)">27</text></g><g class="a29 c1 node n23 p0" transform="translate(-11.4 50.0575)"><g class="a23 c1 node n21 p0" transform="translate(0.0 0.647557)"><g class="a21 c1 node n17 p0" transform="translate(0.0 1.47025)"><g class="a17 leaf node n3 p0 sample" transform="translate(0.0 9.76451)"><path class="edge" d="M 0 0 V -9.76451 H 0.0" /><rect class="sym" height="6" width="6" x="-3" y="-3" /><text class="lab" transform="translate(0 11)">3</text></g><path class="edge" d="M 0 0 V -1.47025 H 0.0" /><circle class="sym" cx="0" cy="0" r="3" /><text class="lab lft" transform="translate(-3 -7.0)">17</text></g><path class="edge" d="M 0 0 V -0.647557 H 0.0" /><circle class="sym" cx="0" cy="0" r="3" /><text class="lab lft" transform="translate(-3 -7.0)">21</text></g><path class="edge" d="M 0 0 V -50.0575 H 11.4" /><circle class="sym" cx="0" cy="0" r="3" /><text class="lab lft" transform="translate(-3 -7.0)">23</text></g><path class="edge" d="M 0 0 V -32.6602 H -38.475" /><circle class="sym" cx="0" cy="0" r="3" /><text class="lab rgt" transform="translate(3 -7.0)">29</text></g><circle class="sym" cx="0" cy="0" r="3" /><text class="lab" transform="translate(0 -11)">30</text></g></g></g><g class="tree t3" transform="translate(596 0)"><g class="plotbox"><g class="c2 node n30 p0 root" transform="translate(106.925 26.8)"><g class="a30 c2 node n28 p0" transform="translate(-38.475 63.8517)"><g class="a28 c2 node n16 p0" transform="translate(-21.85 21.7122)"><g class="a16 leaf node n4 p0 sample" transform="translate(11.4 9.03609)"><path class="edge" d="M 0 0 V -9.03609 H -11.4" /><rect class="sym" height="6" width="6" x="-3" y="-3" /><text class="lab" transform="translate(0 11)">4</text></g><g class="a16 c2 node n13 p0" transform="translate(-11.4 3.94035)"><g class="a13 leaf node n0 p0 sample" transform="translate(-7.6 5.09575)"><path class="edge" d="M 0 0 V -5.09575 H 7.6" /><rect class="sym" height="6" width="6" x="-3" y="-3" /><text class="lab" transform="translate(0 11)">0</text></g><g class="a13 leaf node n1 p0 sample" transform="translate(7.6 5.09575)"><path class="edge" d="M 0 0 V -5.09575 H -7.6" /><rect class="sym" height="6" width="6" x="-3" y="-3" /><text class="lab" transform="translate(0 11)">1</text></g><path class="edge" d="M 0 0 V -3.94035 H 11.4" /><circle class="sym" cx="0" cy="0" r="3" /><text class="lab lft" transform="translate(-3 -7.0)">13</text></g><path class="edge" d="M 0 0 V -21.7122 H 21.85" /><circle class="sym" cx="0" cy="0" r="3" /><text class="lab lft" transform="translate(-3 -7.0)">16</text></g><g class="a28 c2 node n26 p0" transform="translate(21.85 16.3687)"><g class="a26 leaf node n2 p0 sample" transform="translate(-17.1 14.3796)"><path class="edge" d="M 0 0 V -14.3796 H 17.1" /><rect class="sym" height="6" width="6" x="-3" y="-3" /><text class="lab" transform="translate(0 11)">2</text></g><g class="a26 c2 node n24 p0" transform="translate(17.1 0.477673)"><g class="a24 c2 node n12 p0" transform="translate(-11.4 10.3303)"><g class="a12 leaf node n5 p0 sample" transform="translate(-7.6 3.57158)"><path class="edge" d="M 0 0 V -3.57158 H 7.6" /><rect class="sym" height="6" width="6" x="-3" y="-3" /><text class="lab" transform="translate(0 11)">5</text></g><g class="a12 leaf node n8 p0 sample" transform="translate(7.6 3.57158)"><path class="edge" d="M 0 0 V -3.57158 H -7.6" /><rect class="sym" height="6" width="6" x="-3" y="-3" /><text class="lab" transform="translate(0 11)">8</text></g><path class="edge" d="M 0 0 V -10.3303 H 11.4" /><circle class="sym" cx="0" cy="0" r="3" /><text class="lab lft" transform="translate(-3 -7.0)">12</text></g><g class="a24 c1 node n14 p0" transform="translate(11.4 8.61392)"><g class="a14 leaf node n6 p0 sample" transform="translate(0.0 5.288)"><path class="edge" d="M 0 0 V -5.288 H 0.0" /><rect class="sym" height="6" width="6" x="-3" y="-3" /><text class="lab" transform="translate(0 11)">6</text></g><path class="edge" d="M 0 0 V -8.61392 H -11.4" /><circle class="sym" cx="0" cy="0" r="3" /><text class="lab rgt" transform="translate(3 -7.0)">14</text></g><path class="edge" d="M 0 0 V -0.477673 H -17.1" /><circle class="sym" cx="0" cy="0" r="3" /><text class="lab rgt" transform="translate(3 -7.0)">24</text></g><path class="edge" d="M 0 0 V -16.3687 H -21.85" /><circle class="sym" cx="0" cy="0" r="3" /><text class="lab rgt" transform="translate(3 -7.0)">26</text></g><path class="edge" d="M 0 0 V -63.8517 H 38.475" /><circle class="sym" cx="0" cy="0" r="3" /><text class="lab lft" transform="translate(-3 -7.0)">28</text></g><g class="a30 c2 node n29 p0" transform="translate(38.475 32.6602)"><g class="a29 c1 node n27 p0" transform="translate(11.4 38.2966)"><g class="a27 c2 node n25 p0" transform="translate(0.0 9.48087)"><g class="a25 c1 node n19 p0" transform="translate(7.6 4.09079)"><g class="a19 leaf node n9 p0 sample" transform="translate(0.0 10.0715)"><path class="edge" d="M 0 0 V -10.0715 H 0.0" /><rect class="sym" height="6" width="6" x="-3" y="-3" /><text class="lab" transform="translate(0 11)">9</text></g><path class="edge" d="M 0 0 V -4.09079 H -7.6" /><circle class="sym" cx="0" cy="0" r="3" /><text class="lab rgt" transform="translate(3 -7.0)">19</text></g><g class="a25 c1 node n22 p0" transform="translate(-7.6 2.4921)"><g class="a22 c1 node n11 p0" transform="translate(0.0 8.81017)"><g class="a11 leaf node n7 p0 sample" transform="translate(0.0 2.85998)"><path class="edge" d="M 0 0 V -2.85998 H 0.0" /><rect class="sym" height="6" width="6" x="-3" y="-3" /><text class="lab" transform="translate(0 11)">7</text></g><path class="edge" d="M 0 0 V -8.81017 H 0.0" /><circle class="sym" cx="0" cy="0" r="3" /><text class="lab lft" transform="translate(-3 -7.0)">11</text></g><path class="edge" d="M 0 0 V -2.4921 H 7.6" /><circle class="sym" cx="0" cy="0" r="3" /><text class="lab lft" transform="translate(-3 -7.0)">22</text></g><path class="edge" d="M 0 0 V -9.48087 H 0.0" /><circle class="sym" cx="0" cy="0" r="3" /><text class="lab lft" transform="translate(-3 -7.0)">25</text></g><path class="edge" d="M 0 0 V -38.2966 H -11.4" /><circle class="sym" cx="0" cy="0" r="3" /><text class="lab rgt" transform="translate(3 -7.0)">27</text></g><g class="a29 c1 node n23 p0" transform="translate(-11.4 50.0575)"><g class="a23 c1 node n18 p0" transform="translate(0.0 2.11781)"><g class="a18 leaf node n3 p0 sample" transform="translate(0.0 9.76451)"><path class="edge" d="M 0 0 V -9.76451 H 0.0" /><rect class="sym" height="6" width="6" x="-3" y="-3" /><text class="lab" transform="translate(0 11)">3</text></g><path class="edge" d="M 0 0 V -2.11781 H 0.0" /><circle class="sym" cx="0" cy="0" r="3" /><text class="lab lft" transform="translate(-3 -7.0)">18</text></g><path class="edge" d="M 0 0 V -50.0575 H 11.4" /><circle class="sym" cx="0" cy="0" r="3" /><text class="lab lft" transform="translate(-3 -7.0)">23</text></g><path class="edge" d="M 0 0 V -32.6602 H -38.475" /><circle class="sym" cx="0" cy="0" r="3" /><text class="lab rgt" transform="translate(3 -7.0)">29</text></g><circle class="sym" cx="0" cy="0" r="3" /><text class="lab" transform="translate(0 -11)">30</text></g></g></g><g class="tree t4" transform="translate(788 0)"><g class="plotbox"><g class="c2 node n30 p0 root" transform="translate(98.85 26.8)"><g class="a30 c2 node n28 p0" transform="translate(-33.25 63.8517)"><g class="a28 c2 node n16 p0" transform="translate(-19 21.7122)"><g class="a16 leaf node n4 p0 sample" transform="translate(11.4 9.03609)"><path class="edge" d="M 0 0 V -9.03609 H -11.4" /><rect class="sym" height="6" width="6" x="-3" y="-3" /><text class="lab" transform="translate(0 11)">4</text></g><g class="a16 c2 node n13 p0" transform="translate(-11.4 3.94035)"><g class="a13 leaf node n0 p0 sample" transform="translate(-7.6 5.09575)"><path class="edge" d="M 0 0 V -5.09575 H 7.6" /><rect class="sym" height="6" width="6" x="-3" y="-3" /><text class="lab" transform="translate(0 11)">0</text></g><g class="a13 leaf node n1 p0 sample" transform="translate(7.6 5.09575)"><path class="edge" d="M 0 0 V -5.09575 H -7.6" /><rect class="sym" height="6" width="6" x="-3" y="-3" /><text class="lab" transform="translate(0 11)">1</text></g><path class="edge" d="M 0 0 V -3.94035 H 11.4" /><circle class="sym" cx="0" cy="0" r="3" /><text class="lab lft" transform="translate(-3 -7.0)">13</text></g><path class="edge" d="M 0 0 V -21.7122 H 19" /><circle class="sym" cx="0" cy="0" r="3" /><text class="lab lft" transform="translate(-3 -7.0)">16</text></g><g class="a28 c2 node n26 p0" transform="translate(19 16.3687)"><g class="a26 leaf node n2 p0 sample" transform="translate(-11.4 14.3796)"><path class="edge" d="M 0 0 V -14.3796 H 11.4" /><rect class="sym" height="6" width="6" x="-3" y="-3" /><text class="lab" transform="translate(0 11)">2</text></g><g class="a26 c1 node n24 p0" transform="translate(11.4 0.477673)"><g class="a24 c2 node n12 p0" transform="translate(0.0 10.3303)"><g class="a12 leaf node n5 p0 sample" transform="translate(-7.6 3.57158)"><path class="edge" d="M 0 0 V -3.57158 H 7.6" /><rect class="sym" height="6" width="6" x="-3" y="-3" /><text class="lab" transform="translate(0 11)">5</text></g><g class="a12 leaf node n8 p0 sample" transform="translate(7.6 3.57158)"><path class="edge" d="M 0 0 V -3.57158 H -7.6" /><rect class="sym" height="6" width="6" x="-3" y="-3" /><text class="lab" transform="translate(0 11)">8</text></g><path class="edge" d="M 0 0 V -10.3303 H 0.0" /><circle class="sym" cx="0" cy="0" r="3" /><text class="lab lft" transform="translate(-3 -7.0)">12</text></g><path class="edge" d="M 0 0 V -0.477673 H -11.4" /><circle class="sym" cx="0" cy="0" r="3" /><text class="lab rgt" transform="translate(3 -7.0)">24</text></g><path class="edge" d="M 0 0 V -16.3687 H -19" /><circle class="sym" cx="0" cy="0" r="3" /><text class="lab rgt" transform="translate(3 -7.0)">26</text></g><path class="edge" d="M 0 0 V -63.8517 H 33.25" /><circle class="sym" cx="0" cy="0" r="3" /><text class="lab lft" transform="translate(-3 -7.0)">28</text></g><g class="a30 c2 node n29 p0" transform="translate(33.25 32.6602)"><g class="a29 c2 node n27 p0" transform="translate(13.3 38.2966)"><g class="a27 c2 node n25 p0" transform="translate(11.4 9.48087)"><g class="a25 c1 node n19 p0" transform="translate(7.6 4.09079)"><g class="a19 leaf node n9 p0 sample" transform="translate(0.0 10.0715)"><path class="edge" d="M 0 0 V -10.0715 H 0.0" /><rect class="sym" height="6" width="6" x="-3" y="-3" /><text class="lab" transform="translate(0 11)">9</text></g><path class="edge" d="M 0 0 V -4.09079 H -7.6" /><circle class="sym" cx="0" cy="0" r="3" /><text class="lab rgt" transform="translate(3 -7.0)">19</text></g><g class="a25 c1 node n22 p0" transform="translate(-7.6 2.4921)"><g class="a22 c1 node n11 p0" transform="translate(0.0 8.81017)"><g class="a11 leaf node n7 p0 sample" transform="translate(0.0 2.85998)"><path class="edge" d="M 0 0 V -2.85998 H 0.0" /><rect class="sym" height="6" width="6" x="-3" y="-3" /><text class="lab" transform="translate(0 11)">7</text></g><path class="edge" d="M 0 0 V -8.81017 H 0.0" /><circle class="sym" cx="0" cy="0" r="3" /><text class="lab lft" transform="translate(-3 -7.0)">11</text></g><path class="edge" d="M 0 0 V -2.4921 H 7.6" /><circle class="sym" cx="0" cy="0" r="3" /><text class="lab lft" transform="translate(-3 -7.0)">22</text></g><path class="edge" d="M 0 0 V -9.48087 H -11.4" /><circle class="sym" cx="0" cy="0" r="3" /><text class="lab rgt" transform="translate(3 -7.0)">25</text></g><g class="a27 c1 node n15 p0" transform="translate(-11.4 18.3551)"><g class="a15 leaf node n6 p0 sample" transform="translate(0.0 5.288)"><path class="edge" d="M 0 0 V -5.288 H 0.0" /><rect class="sym" height="6" width="6" x="-3" y="-3" /><text class="lab" transform="translate(0 11)">6</text></g><path class="edge" d="M 0 0 V -18.3551 H 11.4" /><circle class="sym" cx="0" cy="0" r="3" /><text class="lab lft" transform="translate(-3 -7.0)">15</text></g><path class="edge" d="M 0 0 V -38.2966 H -13.3" /><circle class="sym" cx="0" cy="0" r="3" /><text class="lab rgt" transform="translate(3 -7.0)">27</text></g><g class="a29 c1 node n23 p0" transform="translate(-13.3 50.0575)"><g class="a23 c1 node n18 p0" transform="translate(0.0 2.11781)"><g class="a18 leaf node n3 p0 sample" transform="translate(0.0 9.76451)"><path class="edge" d="M 0 0 V -9.76451 H 0.0" /><rect class="sym" height="6" width="6" x="-3" y="-3" /><text class="lab" transform="translate(0 11)">3</text></g><path class="edge" d="M 0 0 V -2.11781 H 0.0" /><circle class="sym" cx="0" cy="0" r="3" /><text class="lab lft" transform="translate(-3 -7.0)">18</text></g><path class="edge" d="M 0 0 V -50.0575 H 13.3" /><circle class="sym" cx="0" cy="0" r="3" /><text class="lab lft" transform="translate(-3 -7.0)">23</text></g><path class="edge" d="M 0 0 V -32.6602 H -33.25" /><circle class="sym" cx="0" cy="0" r="3" /><text class="lab rgt" transform="translate(3 -7.0)">29</text></g><circle class="sym" cx="0" cy="0" r="3" /><text class="lab" transform="translate(0 -11)">30</text></g></g></g></g></g></svg>
