<svg baseProfile="full" height="200" version="1.1" width="1000" xmlns="http://www.w3.org/2000/svg" xmlns:ev="http://www.w3.org/2001/xml-events" xmlns:xlink="http://www.w3.org/1999/xlink"><defs><style type="text/css"><![CDATA[.background path {fill: #808080; fill-opacity: 0}.background path:nth-child(odd) {fill-opacity: .1}.axes {font-size: 14px}.x-axis .tick .lab {font-weight: bold; dominant-baseline: hanging}.axes, .tree {font-size: 14px; text-anchor: middle}.axes line, .edge {stroke: black; fill: none}.y-axis .grid {stroke: #FAFAFA}.node > .sym {fill: black; stroke: none}.site > .sym {stroke: black}.mut text {fill: red; font-style: italic}.mut.extra text {fill: hotpink}.mut line {fill: none; stroke: none}.mut .sym {fill: none; stroke: red}.mut.extra .sym {stroke: hotpink}.node .mut .sym {stroke-width: 1.5px}.tree text, .tree-sequence text {dominant-baseline: central}.plotbox .lab.lft {text-anchor: end}.plotbox .lab.rgt {text-anchor: start}]]></style></defs><g class="tree-sequence"><g class="background"><path d="M20,0 l192,0 l0,138.2 l159.377,25 l0,5 l-351.377,0 l0,-5 l0,-25 l0,-138.2z" /><path d="M212,0 l192,0 l0,138.2 l205.492,25 l0,5 l-238.115,0 l0,-5 l-159.377,-25 l0,-138.2z" /><path d="M404,0 l192,0 l0,138.2 l230.877,25 l0,5 l-217.385,0 l0,-5 l-205.492,-25 l0,-138.2z" /><path d="M596,0 l192,0 l0,138.2 l106.75,25 l0,5 l-67.8734,0 l0,-5 l-230.877,-25 l0,-138.2z" /><path d="M788,0 l192,0 l0,138.2 l0,25 l0,5 l-85.2498,0 l0,-5 l-106.75,-25 l0,-138.2z" /></g><g class="axes"><g class="x-axis"><g transform="translate(500 200)"><text class="lab" text-anchor="middle" transform="translate(0 -11)">Genome position</text></g><line x1="20" x2="980" y1="163.2" y2="163.2" /><g class="ticks"><g class="tick" transform="translate(20 163.2)"><line x1="0" x2="0" y1="0" y2="5" /><g transform="translate(0 6)"><text class="lab">0.00</text></g></g><g class="tick" transform="translate(371.377 163.2)"><line x1="0" x2="0" y1="0" y2="5" /><g transform="translate(0 6)"><text class="lab">366.02</text></g></g><g class="tick" transform="translate(609.492 163.2)"><line x1="0" x2="0" y1="0" y2="5" /><g transform="translate(0 6)"><text class="lab">614.05</text></g></g><g class="tick" transform="translate(826.877 163.2)"><line x1="0" x2="0" y1="0" y2="5" /><g transform="translate(0 6)"><text class="lab">840.50</text></g></g><g class="tick" transform="translate(894.75 163.2)"><line x1="0" x2="0" y1="0" y2="5" /><g transform="translate(0 6)"><text class="lab">911.20</text></g></g><g class="tick" transform="translate(980 163.2)"><line x1="0" x2="0" y1="0" y2="5" /><g transform="translate(0 6)"><text class="lab">1000.00</text></g></g></g></g></g><g class="plotbox trees"><g class="tree t0" transform="translate(20 0)"><g class="plotbox"><g class="c2 node n30 p0 root" transform="translate(103.6 26.8)"><g class="a30 c1 node n28 p0" transform="translate(-38 53.188)"><g class="a28 c2 node n26 p0" transform="translate(0.0 17.2379)"><g class="a26 c1 node n19 p0" transform="translate(-26.6 12.5002)"><g class="a19 c2 node n16 p0" transform="translate(0.0 9.75424)"><g class="a16 c1 node n10 p0" transform="translate(-11.4 1.84312)"><g class="a10 leaf node n0 p0 sample" transform="translate(0.0 0.0765457)"><path class="edge" d="M 0 0 V -0.0765457 H 0.0" /><rect class="sym" height="6" width="6" x="-3" y="-3" /><text class="lab" transform="translate(0 11)">0</text></g><path class="edge" d="M 0 0 V -1.84312 H 11.4" /><circle class="sym" cx="0" cy="0" r="3" /><text class="lab lft" transform="translate(-3 -7.0)">10</text></g><g class="a16 c2 node n12 p0" transform="translate(11.4 1.36488)"><g class="a12 leaf node n4 p0 sample" transform="translate(-7.6 0.554781)"><path class="edge" d="M 0 0 V -0.554781 H 7.6" /><rect class="sym" height="6" width="6" x="-3" y="-3" /><text class="lab" transform="translate(0 11)">4</text></g><g class="a12 leaf node n8 p0 sample" transform="translate(7.6 0.554781)"><path class="edge" d="M 0 0 V -0.554781 H -7.6" /><rect class="sym" height="6" width="6" x="-3" y="-3" /><text class="lab" transform="translate(0 11)">8</text></g><path class="edge" d="M 0 0 V -1.36488 H -11.4" /><circle class="sym" cx="0" cy="0" r="3" /><text class="lab rgt" transform="translate(3 -7.0)">12</text></g><path class="edge" d="M 0 0 V -9.75424 H 0.0" /><circle class="sym" cx="0" cy="0" r="3" /><text class="lab lft" transform="translate(-3 -7.0)">16</text></g><path class="edge" d="M 0 0 V -12.5002 H 26.6" /><circle class="sym" cx="0" cy="0" r="3" /><text class="lab lft" transform="translate(-3 -7.0)">19</text></g><g class="a26 c1 node n22 p0" transform="translate(26.6 0.935959)"><g class="a22 c2 node n18 p0" transform="translate(0.0 15.1621)"><g class="a18 leaf node n7 p0 sample" transform="translate(11.4 8.0761)"><path class="edge" d="M 0 0 V -8.0761 H -11.4" /><rect class="sym" height="6" width="6" x="-3" y="-3" /><text class="lab" transform="translate(0 11)">7</text></g><g class="a18 c2 node n13 p0" transform="translate(-11.4 7.06534)"><g class="a13 leaf node n2 p0 sample" transform="translate(-7.6 1.01075)"><path class="edge" d="M 0 0 V -1.01075 H 7.6" /><rect class="sym" height="6" width="6" x="-3" y="-3" /><text class="lab" transform="translate(0 11)">2</text></g><g class="a13 leaf node n5 p0 sample" transform="translate(7.6 1.01075)"><path class="edge" d="M 0 0 V -1.01075 H -7.6" /><rect class="sym" height="6" width="6" x="-3" y="-3" /><text class="lab" transform="translate(0 11)">5</text></g><path class="edge" d="M 0 0 V -7.06534 H 11.4" /><circle class="sym" cx="0" cy="0" r="3" /><text class="lab lft" transform="translate(-3 -7.0)">13</text></g><path class="edge" d="M 0 0 V -15.1621 H 0.0" /><circle class="sym" cx="0" cy="0" r="3" /><text class="lab lft" transform="translate(-3 -7.0)">18</text></g><path class="edge" d="M 0 0 V -0.935959 H -26.6" /><circle class="sym" cx="0" cy="0" r="3" /><text class="lab rgt" transform="translate(3 -7.0)">22</text></g><path class="edge" d="M 0 0 V -17.2379 H 0.0" /><circle class="sym" cx="0" cy="0" r="3" /><text class="lab lft" transform="translate(-3 -7.0)">26</text></g><path class="edge" d="M 0 0 V -53.188 H 38" /><circle class="sym" cx="0" cy="0" r="3" /><text class="lab lft" transform="translate(-3 -7.0)">28</text></g><g class="a30 c1 node n29 p0" transform="translate(38 40.919)"><g class="a29 c1 node n27 p0" transform="translate(0.0 29.3824)"><g class="a27 c2 node n21 p0" transform="translate(0.0 4.30082)"><g class="a21 c2 node n17 p0" transform="translate(-15.2 13.7729)"><g class="a17 leaf node n3 p0 sample" transform="translate(7.6 6.22484)"><path class="edge" d="M 0 0 V -6.22484 H -7.6" /><rect class="sym" height="6" width="6" x="-3" y="-3" /><text class="lab" transform="translate(0 11)">3</text></g><g class="a17 c1 node n14 p0" transform="translate(-7.6 4.95543)"><g class="a14 leaf node n1 p0 sample" transform="translate(0.0 1.26941)"><path class="edge" d="M 0 0 V -1.26941 H 0.0" /><rect class="sym" height="6" width="6" x="-3" y="-3" /><text class="lab" transform="translate(0 11)">1</text></g><path class="edge" d="M 0 0 V -4.95543 H 7.6" /><circle class="sym" cx="0" cy="0" r="3" /><text class="lab lft" transform="translate(-3 -7.0)">14</text></g><path class="edge" d="M 0 0 V -13.7729 H 15.2" /><circle class="sym" cx="0" cy="0" r="3" /><text class="lab lft" transform="translate(-3 -7.0)">17</text></g><g class="a21 c2 node n20 p0" transform="translate(15.2 5.7999)"><g class="a20 leaf node n6 p0 sample" transform="translate(-7.6 14.1979)"><path class="edge" d="M 0 0 V -14.1979 H 7.6" /><rect class="sym" height="6" width="6" x="-3" y="-3" /><text class="lab" transform="translate(0 11)">6</text></g><g class="a20 leaf node n9 p0 sample" transform="translate(7.6 14.1979)"><path class="edge" d="M 0 0 V -14.1979 H -7.6" /><rect class="sym" height="6" width="6" x="-3" y="-3" /><text class="lab" transform="translate(0 11)">9</text></g><path class="edge" d="M 0 0 V -5.7999 H -15.2" /><circle class="sym" cx="0" cy="0" r="3" /><text class="lab rgt" transform="translate(3 -7.0)">20</text></g><path class="edge" d="M 0 0 V -4.30082 H 0.0" /><circle class="sym" cx="0" cy="0" r="3" /><text class="lab lft" transform="translate(-3 -7.0)">21</text></g><path class="edge" d="M 0 0 V -29.3824 H 0.0" /><circle class="sym" cx="0" cy="0" r="3" /><text class="lab lft" transform="translate(-3 -7.0)">27</text></g><path class="edge" d="M 0 0 V -40.919 H -38" /><circle class="sym" cx="0" cy="0" r="3" /><text class="lab rgt" transform="translate(3 -7.0)">29</text></g><circle class="sym" cx="0" cy="0" r="3" /><text class="lab" transform="translate(0 -11)">30</text></g></g></g><g class="tree t1" transform="translate(212 0)"><g class="plotbox"><g class="c2 node n30 p0 root" transform="translate(98.85 26.8)"><g class="a30 c1 node n28 p0" transform="translate(-33.25 53.188)"><g class="a28 c2 node n26 p0" transform="translate(0.0 17.2379)"><g class="a26 c1 node n19 p0" transform="translate(-26.6 12.5002)"><g class="a19 c2 node n16 p0" transform="translate(0.0 9.75424)"><g class="a16 c1 node n10 p0" transform="translate(-11.4 1.84312)"><g class="a10 leaf node n0 p0 sample" transform="translate(0.0 0.0765457)"><path class="edge" d="M 0 0 V -0.0765457 H 0.0" /><rect class="sym" height="6" width="6" x="-3" y="-3" /><text class="lab" transform="translate(0 11)">0</text></g><path class="edge" d="M 0 0 V -1.84312 H 11.4" /><circle class="sym" cx="0" cy="0" r="3" /><text class="lab lft" transform="translate(-3 -7.0)">10</text></g><g class="a16 c2 node n12 p0" transform="translate(11.4 1.36488)"><g class="a12 leaf node n4 p0 sample" transform="translate(-7.6 0.554781)"><path class="edge" d="M 0 0 V -0.554781 H 7.6" /><rect class="sym" height="6" width="6" x="-3" y="-3" /><text class="lab" transform="translate(0 11)">4</text></g><g class="a12 leaf node n8 p0 sample" transform="translate(7.6 0.554781)"><path class="edge" d="M 0 0 V -0.554781 H -7.6" /><rect class="sym" height="6" width="6" x="-3" y="-3" /><text class="lab" transform="translate(0 11)">8</text></g><path class="edge" d="M 0 0 V -1.36488 H -11.4" /><circle class="sym" cx="0" cy="0" r="3" /><text class="lab rgt" transform="translate(3 -7.0)">12</text></g><path class="edge" d="M 0 0 V -9.75424 H 0.0" /><circle class="sym" cx="0" cy="0" r="3" /><text class="lab lft" transform="translate(-3 -7.0)">16</text></g><path class="edge" d="M 0 0 V -12.5002 H 26.6" /><circle class="sym" cx="0" cy="0" r="3" /><text class="lab lft" transform="translate(-3 -7.0)">19</text></g><g class="a26 c1 node n22 p0" transform="translate(26.6 0.935959)"><g class="a22 c2 node n18 p0" transform="translate(0.0 15.1621)"><g class="a18 leaf node n7 p0 sample" transform="translate(11.4 8.0761)"><path class="edge" d="M 0 0 V -8.0761 H -11.4" /><rect class="sym" height="6" width="6" x="-3" y="-3" /><text class="lab" transform="translate(0 11)">7</text></g><g class="a18 c2 node n13 p0" transform="translate(-11.4 7.06534)"><g class="a13 leaf node n2 p0 sample" transform="translate(-7.6 1.01075)"><path class="edge" d="M 0 0 V -1.01075 H 7.6" /><rect class="sym" height="6" width="6" x="-3" y="-3" /><text class="lab" transform="translate(0 11)">2</text></g><g class="a13 leaf node n5 p0 sample" transform="translate(7.6 1.01075)"><path class="edge" d="M 0 0 V -1.01075 H -7.6" /><rect class="sym" height="6" width="6" x="-3" y="-3" /><text class="lab" transform="translate(0 11)">5</text></g><path class="edge" d="M 0 0 V -7.06534 H 11.4" /><circle class="sym" cx="0" cy="0" r="3" /><text class="lab lft" transform="translate(-3 -7.0)">13</text></g><path class="edge" d="M 0 0 V -15.1621 H 0.0" /><circle class="sym" cx="0" cy="0" r="3" /><text class="lab lft" transform="translate(-3 -7.0)">18</text></g><path class="edge" d="M 0 0 V -0.935959 H -26.6" /><circle class="sym" cx="0" cy="0" r="3" /><text class="lab rgt" transform="translate(3 -7.0)">22</text></g><path class="edge" d="M 0 0 V -17.2379 H 0.0" /><circle class="sym" cx="0" cy="0" r="3" /><text class="lab lft" transform="translate(-3 -7.0)">26</text></g><path class="edge" d="M 0 0 V -53.188 H 33.25" /><circle class="sym" cx="0" cy="0" r="3" /><text class="lab lft" transform="translate(-3 -7.0)">28</text></g><g class="a30 c1 node n29 p0" transform="translate(33.25 40.919)"><g class="a29 c2 node n27 p0" transform="translate(0.0 29.3824)"><g class="a27 c2 node n21 p0" transform="translate(13.3 4.30082)"><g class="a21 c1 node n17 p0" transform="translate(-11.4 13.7729)"><g class="a17 leaf node n3 p0 sample" transform="translate(0.0 6.22484)"><path class="edge" d="M 0 0 V -6.22484 H 0.0" /><rect class="sym" height="6" width="6" x="-3" y="-3" /><text class="lab" transform="translate(0 11)">3</text></g><path class="edge" d="M 0 0 V -13.7729 H 11.4" /><circle class="sym" cx="0" cy="0" r="3" /><text class="lab lft" transform="translate(-3 -7.0)">17</text></g><g class="a21 c2 node n20 p0" transform="translate(11.4 5.7999)"><g class="a20 leaf node n6 p0 sample" transform="translate(-7.6 14.1979)"><path class="edge" d="M 0 0 V -14.1979 H 7.6" /><rect class="sym" height="6" width="6" x="-3" y="-3" /><text class="lab" transform="translate(0 11)">6</text></g><g class="a20 leaf node n9 p0 sample" transform="translate(7.6 14.1979)"><path class="edge" d="M 0 0 V -14.1979 H -7.6" /><rect class="sym" height="6" width="6" x="-3" y="-3" /><text class="lab" transform="translate(0 11)">9</text></g><path class="edge" d="M 0 0 V -5.7999 H -11.4" /><circle class="sym" cx="0" cy="0" r="3" /><text class="lab rgt" transform="translate(3 -7.0)">20</text></g><path class="edge" d="M 0 0 V -4.30082 H -13.3" /><circle class="sym" cx="0" cy="0" r="3" /><text class="lab rgt" transform="translate(3 -7.0)">21</text></g><g class="a27 c1 node n24 p0" transform="translate(-13.3 0.714972)"><g class="a24 c1 node n15 p0" transform="translate(0.0 22.3142)"><g class="a15 leaf node n1 p0 sample" transform="translate(0.0 1.26941)"><path class="edge" d="M 0 0 V -1.26941 H 0.0" /><rect class="sym" height="6" width="6" x="-3" y="-3" /><text class="lab" transform="translate(0 11)">1</text></g><path class="edge" d="M 0 0 V -22.3142 H 0.0" /><circle class="sym" cx="0" cy="0" r="3" /><text class="lab lft" transform="translate(-3 -7.0)">15</text></g><path class="edge" d="M 0 0 V -0.714972 H 13.3" /><circle class="sym" cx="0" cy="0" r="3" /><text class="lab lft" transform="translate(-3 -7.0)">24</text></g><path class="edge" d="M 0 0 V -29.3824 H 0.0" /><circle class="sym" cx="0" cy="0" r="3" /><text class="lab lft" transform="translate(-3 -7.0)">27</text></g><path class="edge" d="M 0 0 V -40.919 H -33.25" /><circle class="sym" cx="0" cy="0" r="3" /><text class="lab rgt" transform="translate(3 -7.0)">29</text></g><circle class="sym" cx="0" cy="0" r="3" /><text class="lab" transform="translate(0 -11)">30</text></g></g></g><g class="tree t2" transform="translate(404 0)"><g class="plotbox"><g class="c2 node n30 p0 root" transform="translate(79.375 26.8)"><g class="a30 c1 node n28 p0" transform="translate(-40.375 53.188)"><g class="a28 c1 node n26 p0" transform="translate(0.0 17.2379)"><g class="a26 c1 node n19 p0" transform="translate(0.0 12.5002)"><g class="a19 c2 node n16 p0" transform="translate(0.0 9.75424)"><g class="a16 c1 node n10 p0" transform="translate(-11.4 1.84312)"><g class="a10 leaf node n0 p0 sample" transform="translate(0.0 0.0765457)"><path class="edge" d="M 0 0 V -0.0765457 H 0.0" /><rect class="sym" height="6" width="6" x="-3" y="-3" /><text class="lab" transform="translate(0 11)">0</text></g><path class="edge" d="M 0 0 V -1.84312 H 11.4" /><circle class="sym" cx="0" cy="0" r="3" /><text class="lab lft" transform="translate(-3 -7.0)">10</text></g><g class="a16 c2 node n12 p0" transform="translate(11.4 1.36488)"><g class="a12 leaf node n4 p0 sample" transform="translate(-7.6 0.554781)"><path class="edge" d="M 0 0 V -0.554781 H 7.6" /><rect class="sym" height="6" width="6" x="-3" y="-3" /><text class="lab" transform="translate(0 11)">4</text></g><g class="a12 leaf node n8 p0 sample" transform="translate(7.6 0.554781)"><path class="edge" d="M 0 0 V -0.554781 H -7.6" /><rect class="sym" height="6" width="6" x="-3" y="-3" /><text class="lab" transform="translate(0 11)">8</text></g><path class="edge" d="M 0 0 V -1.36488 H -11.4" /><circle class="sym" cx="0" cy="0" r="3" /><text class="lab rgt" transform="translate(3 -7.0)">12</text></g><path class="edge" d="M 0 0 V -9.75424 H 0.0" /><circle class="sym" cx="0" cy="0" r="3" /><text class="lab lft" transform="translate(-3 -7.0)">16</text></g><path class="edge" d="M 0 0 V -12.5002 H 0.0" /><circle class="sym" cx="0" cy="0" r="3" /><text class="lab lft" transform="translate(-3 -7.0)">19</text></g><path class="edge" d="M 0 0 V -17.2379 H 0.0" /><circle class="sym" cx="0" cy="0" r="3" /><text class="lab lft" transform="translate(-3 -7.0)">26</text></g><path class="edge" d="M 0 0 V -53.188 H 40.375" /><circle class="sym" cx="0" cy="0" r="3" /><text class="lab lft" transform="translate(-3 -7.0)">28</text></g><g class="a30 c2 node n29 p0" transform="translate(40.375 40.919)"><g class="a29 c2 node n27 p0" transform="translate(-33.25 29.3824)"><g class="a27 c2 node n21 p0" transform="translate(13.3 4.30082)"><g class="a21 c1 node n17 p0" transform="translate(-11.4 13.7729)"><g class="a17 leaf node n3 p0 sample" transform="translate(0.0 6.22484)"><path class="edge" d="M 0 0 V -6.22484 H 0.0" /><rect class="sym" height="6" width="6" x="-3" y="-3" /><text class="lab" transform="translate(0 11)">3</text></g><path class="edge" d="M 0 0 V -13.7729 H 11.4" /><circle class="sym" cx="0" cy="0" r="3" /><text class="lab lft" transform="translate(-3 -7.0)">17</text></g><g class="a21 c2 node n20 p0" transform="translate(11.4 5.7999)"><g class="a20 leaf node n6 p0 sample" transform="translate(-7.6 14.1979)"><path class="edge" d="M 0 0 V -14.1979 H 7.6" /><rect class="sym" height="6" width="6" x="-3" y="-3" /><text class="lab" transform="translate(0 11)">6</text></g><g class="a20 leaf node n9 p0 sample" transform="translate(7.6 14.1979)"><path class="edge" d="M 0 0 V -14.1979 H -7.6" /><rect class="sym" height="6" width="6" x="-3" y="-3" /><text class="lab" transform="translate(0 11)">9</text></g><path class="edge" d="M 0 0 V -5.7999 H -11.4" /><circle class="sym" cx="0" cy="0" r="3" /><text class="lab rgt" transform="translate(3 -7.0)">20</text></g><path class="edge" d="M 0 0 V -4.30082 H -13.3" /><circle class="sym" cx="0" cy="0" r="3" /><text class="lab rgt" transform="translate(3 -7.0)">21</text></g><g class="a27 c1 node n24 p0" transform="translate(-13.3 0.714972)"><g class="a24 c1 node n15 p0" transform="translate(0.0 22.3142)"><g class="a15 leaf node n1 p0 sample" transform="translate(0.0 1.26941)"><path class="edge" d="M 0 0 V -1.26941 H 0.0" /><rect class="sym" height="6" width="6" x="-3" y="-3" /><text class="lab" transform="translate(0 11)">1</text></g><path class="edge" d="M 0 0 V -22.3142 H 0.0" /><circle class="sym" cx="0" cy="0" r="3" /><text class="lab lft" transform="translate(-3 -7.0)">15</text></g><path class="edge" d="M 0 0 V -0.714972 H 13.3" /><circle class="sym" cx="0" cy="0" r="3" /><text class="lab lft" transform="translate(-3 -7.0)">24</text></g><path class="edge" d="M 0 0 V -29.3824 H 33.25" /><circle class="sym" cx="0" cy="0" r="3" /><text class="lab lft" transform="translate(-3 -7.0)">27</text></g><g class="a29 c1 node n23 p0" transform="translate(33.25 30.4428)"><g class="a23 c2 node n18 p0" transform="translate(0.0 15.1621)"><g class="a18 leaf node n7 p0 sample" transform="translate(11.4 8.0761)"><path class="edge" d="M 0 0 V -8.0761 H -11.4" /><rect class="sym" height="6" width="6" x="-3" y="-3" /><text class="lab" transform="translate(0 11)">7</text></g><g class="a18 c2 node n13 p0" transform="translate(-11.4 7.06534)"><g class="a13 leaf node n2 p0 sample" transform="translate(-7.6 1.01075)"><path class="edge" d="M 0 0 V -1.01075 H 7.6" /><rect class="sym" height="6" width="6" x="-3" y="-3" /><text class="lab" transform="translate(0 11)">2</text></g><g class="a13 leaf node n5 p0 sample" transform="translate(7.6 1.01075)"><path class="edge" d="M 0 0 V -1.01075 H -7.6" /><rect class="sym" height="6" width="6" x="-3" y="-3" /><text class="lab" transform="translate(0 11)">5</text></g><path class="edge" d="M 0 0 V -7.06534 H 11.4" /><circle class="sym" cx="0" cy="0" r="3" /><text class="lab lft" transform="translate(-3 -7.0)">13</text></g><path class="edge" d="M 0 0 V -15.1621 H 0.0" /><circle class="sym" cx="0" cy="0" r="3" /><text class="lab lft" transform="translate(-3 -7.0)">18</text></g><path class="edge" d="M 0 0 V -30.4428 H -33.25" /><circle class="sym" cx="0" cy="0" r="3" /><text class="lab rgt" transform="translate(3 -7.0)">23</text></g><path class="edge" d="M 0 0 V -40.919 H -40.375" /><circle class="sym" cx="0" cy="0" r="3" /><text class="lab rgt" transform="translate(3 -7.0)">29</text></g><circle class="sym" cx="0" cy="0" r="3" /><text class="lab" transform="translate(0 -11)">30</text></g></g></g><g class="tree t3" transform="translate(596 0)"><g class="plotbox"><g class="c2 node n30 p0 root" transform="translate(79.375 26.8)"><g class="a30 c1 node n28 p0" transform="translate(-40.375 53.188)"><g class="a28 c1 node n26 p0" transform="translate(0.0 17.2379)"><g class="a26 c2 node n19 p0" transform="translate(0.0 12.5002)"><g class="a19 c1 node n16 p0" transform="translate(11.4 9.75424)"><g class="a16 c2 node n12 p0" transform="translate(0.0 1.36488)"><g class="a12 leaf node n4 p0 sample" transform="translate(-7.6 0.554781)"><path class="edge" d="M 0 0 V -0.554781 H 7.6" /><rect class="sym" height="6" width="6" x="-3" y="-3" /><text class="lab" transform="translate(0 11)">4</text></g><g class="a12 leaf node n8 p0 sample" transform="translate(7.6 0.554781)"><path class="edge" d="M 0 0 V -0.554781 H -7.6" /><rect class="sym" height="6" width="6" x="-3" y="-3" /><text class="lab" transform="translate(0 11)">8</text></g><path class="edge" d="M 0 0 V -1.36488 H 0.0" /><circle class="sym" cx="0" cy="0" r="3" /><text class="lab lft" transform="translate(-3 -7.0)">12</text></g><path class="edge" d="M 0 0 V -9.75424 H -11.4" /><circle class="sym" cx="0" cy="0" r="3" /><text class="lab rgt" transform="translate(3 -7.0)">16</text></g><g class="a19 c1 node n11 p0" transform="translate(-11.4 11.5974)"><g class="a11 leaf node n0 p0 sample" transform="translate(0.0 0.0765457)"><path class="edge" d="M 0 0 V -0.0765457 H 0.0" /><rect class="sym" height="6" width="6" x="-3" y="-3" /><text class="lab" transform="translate(0 11)">0</text></g><path class="edge" d="M 0 0 V -11.5974 H 11.4" /><circle class="sym" cx="0" cy="0" r="3" /><text class="lab lft" transform="translate(-3 -7.0)">11</text></g><path class="edge" d="M 0 0 V -12.5002 H 0.0" /><circle class="sym" cx="0" cy="0" r="3" /><text class="lab lft" transform="translate(-3 -7.0)">19</text></g><path class="edge" d="M 0 0 V -17.2379 H 0.0" /><circle class="sym" cx="0" cy="0" r="3" /><text class="lab lft" transform="translate(-3 -7.0)">26</text></g><path class="edge" d="M 0 0 V -53.188 H 40.375" /><circle class="sym" cx="0" cy="0" r="3" /><text class="lab lft" transform="translate(-3 -7.0)">28</text></g><g class="a30 c2 node n29 p0" transform="translate(40.375 40.919)"><g class="a29 c2 node n27 p0" transform="translate(-33.25 29.3824)"><g class="a27 c2 node n21 p0" transform="translate(13.3 4.30082)"><g class="a21 c1 node n17 p0" transform="translate(-11.4 13.7729)"><g class="a17 leaf node n3 p0 sample" transform="translate(0.0 6.22484)"><path class="edge" d="M 0 0 V -6.22484 H 0.0" /><rect class="sym" height="6" width="6" x="-3" y="-3" /><text class="lab" transform="translate(0 11)">3</text></g><path class="edge" d="M 0 0 V -13.7729 H 11.4" /><circle class="sym" cx="0" cy="0" r="3" /><text class="lab lft" transform="translate(-3 -7.0)">17</text></g><g class="a21 c2 node n20 p0" transform="translate(11.4 5.7999)"><g class="a20 leaf node n6 p0 sample" transform="translate(-7.6 14.1979)"><path class="edge" d="M 0 0 V -14.1979 H 7.6" /><rect class="sym" height="6" width="6" x="-3" y="-3" /><text class="lab" transform="translate(0 11)">6</text></g><g class="a20 leaf node n9 p0 sample" transform="translate(7.6 14.1979)"><path class="edge" d="M 0 0 V -14.1979 H -7.6" /><rect class="sym" height="6" width="6" x="-3" y="-3" /><text class="lab" transform="translate(0 11)">9</text></g><path class="edge" d="M 0 0 V -5.7999 H -11.4" /><circle class="sym" cx="0" cy="0" r="3" /><text class="lab rgt" transform="translate(3 -7.0)">20</text></g><path class="edge" d="M 0 0 V -4.30082 H -13.3" /><circle class="sym" cx="0" cy="0" r="3" /><text class="lab rgt" transform="translate(3 -7.0)">21</text></g><g class="a27 c1 node n24 p0" transform="translate(-13.3 0.714972)"><g class="a24 c1 node n15 p0" transform="translate(0.0 22.3142)"><g class="a15 leaf node n1 p0 sample" transform="translate(0.0 1.26941)"><path class="edge" d="M 0 0 V -1.26941 H 0.0" /><rect class="sym" height="6" width="6" x="-3" y="-3" /><text class="lab" transform="translate(0 11)">1</text></g><path class="edge" d="M 0 0 V -22.3142 H 0.0" /><circle class="sym" cx="0" cy="0" r="3" /><text class="lab lft" transform="translate(-3 -7.0)">15</text></g><path class="edge" d="M 0 0 V -0.714972 H 13.3" /><circle class="sym" cx="0" cy="0" r="3" /><text class="lab lft" transform="translate(-3 -7.0)">24</text></g><path class="edge" d="M 0 0 V -29.3824 H 33.25" /><circle class="sym" cx="0" cy="0" r="3" /><text class="lab lft" transform="translate(-3 -7.0)">27</text></g><g class="a29 c1 node n23 p0" transform="translate(33.25 30.4428)"><g class="a23 c2 node n18 p0" transform="translate(0.0 15.1621)"><g class="a18 leaf node n7 p0 sample" transform="translate(11.4 8.0761)"><path class="edge" d="M 0 0 V -8.0761 H -11.4" /><rect class="sym" height="6" width="6" x="-3" y="-3" /><text class="lab" transform="translate(0 11)">7</text></g><g class="a18 c2 node n13 p0" transform="translate(-11.4 7.06534)"><g class="a13 leaf node n2 p0 sample" transform="translate(-7.6 1.01075)"><path class="edge" d="M 0 0 V -1.01075 H 7.6" /><rect class="sym" height="6" width="6" x="-3" y="-3" /><text class="lab" transform="translate(0 11)">2</text></g><g class="a13 leaf node n5 p0 sample" transform="translate(7.6 1.01075)"><path class="edge" d="M 0 0 V -1.01075 H -7.6" /><rect class="sym" height="6" width="6" x="-3" y="-3" /><text class="lab" transform="translate(0 11)">5</text></g><path class="edge" d="M 0 0 V -7.06534 H 11.4" /><circle class="sym" cx="0" cy="0" r="3" /><text class="lab lft" transform="translate(-3 -7.0)">13</text></g><path class="edge" d="M 0 0 V -15.1621 H 0.0" /><circle class="sym" cx="0" cy="0" r="3" /><text class="lab lft" transform="translate(-3 -7.0)">18</text></g><path class="edge" d="M 0 0 V -30.4428 H -33.25" /><circle class="sym" cx="0" cy="0" r="3" /><text class="lab rgt" transform="translate(3 -7.0)">23</text></g><path class="edge" d="M 0 0 V -40.919 H -40.375" /><circle class="sym" cx="0" cy="0" r="3" /><text class="lab rgt" transform="translate(3 -7.0)">29</text></g><circle class="sym" cx="0" cy="0" r="3" /><text class="lab" transform="translate(0 -11)">30</text></g></g></g><g class="tree t4" transform="translate(788 0)"><g class="plotbox"><g class="c2 node n30 p0 root" transform="translate(91.25 26.8)"><g class="a30 c2 node n28 p0" transform="translate(-35.15 53.188)"><g class="a28 c1 node n26 p0" transform="translate(-17.1 17.2379)"><g class="a26 c2 node n19 p0" transform="translate(0.0 12.5002)"><g class="a19 c1 node n16 p0" transform="translate(11.4 9.75424)"><g class="a16 c2 node n12 p0" transform="translate(0.0 1.36488)"><g class="a12 leaf node n4 p0 sample" transform="translate(-7.6 0.554781)"><path class="edge" d="M 0 0 V -0.554781 H 7.6" /><rect class="sym" height="6" width="6" x="-3" y="-3" /><text class="lab" transform="translate(0 11)">4</text></g><g class="a12 leaf node n8 p0 sample" transform="translate(7.6 0.554781)"><path class="edge" d="M 0 0 V -0.554781 H -7.6" /><rect class="sym" height="6" width="6" x="-3" y="-3" /><text class="lab" transform="translate(0 11)">8</text></g><path class="edge" d="M 0 0 V -1.36488 H 0.0" /><circle class="sym" cx="0" cy="0" r="3" /><text class="lab lft" transform="translate(-3 -7.0)">12</text></g><path class="edge" d="M 0 0 V -9.75424 H -11.4" /><circle class="sym" cx="0" cy="0" r="3" /><text class="lab rgt" transform="translate(3 -7.0)">16</text></g><g class="a19 c1 node n11 p0" transform="translate(-11.4 11.5974)"><g class="a11 leaf node n0 p0 sample" transform="translate(0.0 0.0765457)"><path class="edge" d="M 0 0 V -0.0765457 H 0.0" /><rect class="sym" height="6" width="6" x="-3" y="-3" /><text class="lab" transform="translate(0 11)">0</text></g><path class="edge" d="M 0 0 V -11.5974 H 11.4" /><circle class="sym" cx="0" cy="0" r="3" /><text class="lab lft" transform="translate(-3 -7.0)">11</text></g><path class="edge" d="M 0 0 V -12.5002 H 0.0" /><circle class="sym" cx="0" cy="0" r="3" /><text class="lab lft" transform="translate(-3 -7.0)">19</text></g><path class="edge" d="M 0 0 V -17.2379 H 17.1" /><circle class="sym" cx="0" cy="0" r="3" /><text class="lab lft" transform="translate(-3 -7.0)">26</text></g><g class="a28 c1 node n25 p0" transform="translate(17.1 17.8284)"><g class="a25 c1 node n15 p0" transform="translate(0.0 22.3142)"><g class="a15 leaf node n1 p0 sample" transform="translate(0.0 1.26941)"><path class="edge" d="M 0 0 V -1.26941 H 0.0" /><rect class="sym" height="6" width="6" x="-3" y="-3" /><text class="lab" transform="translate(0 11)">1</text></g><path class="edge" d="M 0 0 V -22.3142 H 0.0" /><circle class="sym" cx="0" cy="0" r="3" /><text class="lab lft" transform="translate(-3 -7.0)">15</text></g><path class="edge" d="M 0 0 V -17.8284 H -17.1" /><circle class="sym" cx="0" cy="0" r="3" /><text class="lab rgt" transform="translate(3 -7.0)">25</text></g><path class="edge" d="M 0 0 V -53.188 H 35.15" /><circle class="sym" cx="0" cy="0" r="3" /><text class="lab lft" transform="translate(-3 -7.0)">28</text></g><g class="a30 c2 node n29 p0" transform="translate(35.15 40.919)"><g class="a29 c1 node n27 p0" transform="translate(19 29.3824)"><g class="a27 c2 node n21 p0" transform="translate(0.0 4.30082)"><g class="a21 c1 node n17 p0" transform="translate(-11.4 13.7729)"><g class="a17 leaf node n3 p0 sample" transform="translate(0.0 6.22484)"><path class="edge" d="M 0 0 V -6.22484 H 0.0" /><rect class="sym" height="6" width="6" x="-3" y="-3" /><text class="lab" transform="translate(0 11)">3</text></g><path class="edge" d="M 0 0 V -13.7729 H 11.4" /><circle class="sym" cx="0" cy="0" r="3" /><text class="lab lft" transform="translate(-3 -7.0)">17</text></g><g class="a21 c2 node n20 p0" transform="translate(11.4 5.7999)"><g class="a20 leaf node n6 p0 sample" transform="translate(-7.6 14.1979)"><path class="edge" d="M 0 0 V -14.1979 H 7.6" /><rect class="sym" height="6" width="6" x="-3" y="-3" /><text class="lab" transform="translate(0 11)">6</text></g><g class="a20 leaf node n9 p0 sample" transform="translate(7.6 14.1979)"><path class="edge" d="M 0 0 V -14.1979 H -7.6" /><rect class="sym" height="6" width="6" x="-3" y="-3" /><text class="lab" transform="translate(0 11)">9</text></g><path class="edge" d="M 0 0 V -5.7999 H -11.4" /><circle class="sym" cx="0" cy="0" r="3" /><text class="lab rgt" transform="translate(3 -7.0)">20</text></g><path class="edge" d="M 0 0 V -4.30082 H 0.0" /><circle class="sym" cx="0" cy="0" r="3" /><text class="lab lft" transform="translate(-3 -7.0)">21</text></g><path class="edge" d="M 0 0 V -29.3824 H -19" /><circle class="sym" cx="0" cy="0" r="3" /><text class="lab rgt" transform="translate(3 -7.0)">27</text></g><g class="a29 c1 node n23 p0" transform="translate(-19 30.4428)"><g class="a23 c2 node n18 p0" transform="translate(0.0 15.1621)"><g class="a18 leaf node n7 p0 sample" transform="translate(11.4 8.0761)"><path class="edge" d="M 0 0 V -8.0761 H -11.4" /><rect class="sym" height="6" width="6" x="-3" y="-3" /><text class="lab" transform="translate(0 11)">7</text></g><g class="a18 c2 node n13 p0" transform="translate(-11.4 7.06534)"><g class="a13 leaf node n2 p0 sample" transform="translate(-7.6 1.01075)"><path class="edge" d="M 0 0 V -1.01075 H 7.6" /><rect class="sym" height="6" width="6" x="-3" y="-3" /><text class="lab" transform="translate(0 11)">2</text></g><g class="a13 leaf node n5 p0 sample" transform="translate(7.6 1.01075)"><path class="edge" d="M 0 0 V -1.01075 H -7.6" /><rect class="sym" height="6" width="6" x="-3" y="-3" /><text class="lab" transform="translate(0 11)">5</text></g><path class="edge" d="M 0 0 V -7.06534 H 11.4" /><circle class="sym" cx="0" cy="0" r="3" /><text class="lab lft" transform="translate(-3 -7.0)">13</text></g><path class="edge" d="M 0 0 V -15.1621 H 0.0" /><circle class="sym" cx="0" cy="0" r="3" /><text class="lab lft" transform="translate(-3 -7.0)">18</text></g><path class="edge" d="M 0 0 V -30.4428 H 19" /><circle class="sym" cx="0" cy="0" r="3" /><text class="lab lft" transform="translate(-3 -7.0)">23</text></g><path class="edge" d="M 0 0 V -40.919 H -35.15" /><circle class="sym" cx="0" cy="0" r="3" /><text class="lab rgt" transform="translate(3 -7.0)">29</text></g><circle class="sym" cx="0" cy="0" r="3" /><text class="lab" transform="translate(0 -11)">30</text></g></g></g></g></g></svg>
