<svg baseProfile="full" height="200" version="1.1" width="600" xmlns="http://www.w3.org/2000/svg" xmlns:ev="http://www.w3.org/2001/xml-events" xmlns:xlink="http://www.w3.org/1999/xlink"><defs><style type="text/css"><![CDATA[.background path {fill: #808080; fill-opacity: 0}.background path:nth-child(odd) {fill-opacity: .1}.axes {font-size: 14px}.x-axis .tick .lab {font-weight: bold; dominant-baseline: hanging}.axes, .tree {font-size: 14px; text-anchor: middle}.axes line, .edge {stroke: black; fill: none}.y-axis .grid {stroke: #FAFAFA}.node > .sym {fill: black; stroke: none}.site > .sym {stroke: black}.mut text {fill: red; font-style: italic}.mut.extra text {fill: hotpink}.mut line {fill: none; stroke: none}.mut .sym {fill: none; stroke: red}.mut.extra .sym {stroke: hotpink}.node .mut .sym {stroke-width: 1.5px}.tree text, .tree-sequence text {dominant-baseline: central}.plotbox .lab.lft {text-anchor: end}.plotbox .lab.rgt {text-anchor: start}]]></style></defs><g class="tree-sequence"><g class="background"><path d="M20,0 l186.667,0 l0,138.2 l-142.477,25 l0,5 l-44.1897,0 l0,-5 l0,-25 l0,-138.2z" /><path d="M206.667,0 l186.667,0 l0,138.2 l-99.014,25 l0,5 l-230.13,0 l0,-5 l142.477,-25 l0,-138.2z" /><path d="M393.333,0 l186.667,0 l0,138.2 l0,25 l0,5 l-285.681,0 l0,-5 l99.014,-25 l0,-138.2z" /></g><g class="axes"><g class="x-axis"><g transform="translate(300 200)"><text class="lab" text-anchor="middle" transform="translate(0 -11)">Genome position</text></g><line x1="20" x2="580" y1="163.2" y2="163.2" /><g class="ticks"><g class="tick" transform="translate(20 163.2)"><line x1="0" x2="0" y1="0" y2="5" /><g transform="translate(0 6)"><text class="lab">0.00</text></g></g><g class="tick" transform="translate(64.1897 163.2)"><line x1="0" x2="0" y1="0" y2="5" /><g transform="translate(0 6)"><text class="lab">78.91</text></g></g><g class="tick" transform="translate(294.319 163.2)"><line x1="0" x2="0" y1="0" y2="5" /><g transform="translate(0 6)"><text class="lab">489.86</text></g></g><g class="tick" transform="translate(580 163.2)"><line x1="0" x2="0" y1="0" y2="5" /><g transform="translate(0 6)"><text class="lab">1000.00</text></g></g></g></g></g><g class="plotbox trees"><g class="tree t0" transform="translate(20 0)"><g class="plotbox"><g class="c2 node n24 p0 root" transform="translate(90.8125 26.8)"><g class="a24 c2 node n22 p0" transform="translate(45.1458 16.8621)"><g class="a22 leaf node n5 p0 sample" transform="translate(23.375 77.7379)"><path class="edge" d="M 0 0 V -77.7379 H -23.375" /><rect class="sym" height="6" width="6" x="-3" y="-3" /><text class="lab" transform="translate(0 11)">5</text></g><g class="a22 c2 node n20 p0" transform="translate(-23.375 41.7613)"><g class="a20 c2 node n12 p0" transform="translate(24.75 32.7299)"><g class="a12 leaf node n6 p0 sample" transform="translate(-7.33333 3.24672)"><path class="edge" d="M 0 0 V -3.24672 H 7.33333" /><rect class="sym" height="6" width="6" x="-3" y="-3" /><text class="lab" transform="translate(0 11)">6</text></g><g class="a12 leaf node n9 p0 sample" transform="translate(7.33333 3.24672)"><path class="edge" d="M 0 0 V -3.24672 H -7.33333" /><rect class="sym" height="6" width="6" x="-3" y="-3" /><text class="lab" transform="translate(0 11)">9</text></g><path class="edge" d="M 0 0 V -32.7299 H -24.75" /><circle class="sym" cx="0" cy="0" r="3" /><text class="lab rgt" transform="translate(3 -7.0)">12</text></g><g class="a20 c2 node n19 p0" transform="translate(-24.75 2.81259)"><g class="a19 leaf node n1 p0 sample" transform="translate(-16.5 33.164)"><path class="edge" d="M 0 0 V -33.164 H 16.5" /><rect class="sym" height="6" width="6" x="-3" y="-3" /><text class="lab" transform="translate(0 11)">1</text></g><g class="a19 c2 node n17 p0" transform="translate(16.5 9.74959)"><g class="a17 c2 node n13 p0" transform="translate(-11 14.0845)"><g class="a13 leaf node n2 p0 sample" transform="translate(-7.33333 9.32998)"><path class="edge" d="M 0 0 V -9.32998 H 7.33333" /><rect class="sym" height="6" width="6" x="-3" y="-3" /><text class="lab" transform="translate(0 11)">2</text></g><g class="a13 leaf node n3 p0 sample" transform="translate(7.33333 9.32998)"><path class="edge" d="M 0 0 V -9.32998 H -7.33333" /><rect class="sym" height="6" width="6" x="-3" y="-3" /><text class="lab" transform="translate(0 11)">3</text></g><path class="edge" d="M 0 0 V -14.0845 H 11" /><circle class="sym" cx="0" cy="0" r="3" /><text class="lab lft" transform="translate(-3 -7.0)">13</text></g><g class="a17 c1 node n14 p0" transform="translate(11 8.0831)"><g class="a14 leaf node n7 p0 sample" transform="translate(0.0 15.3313)"><path class="edge" d="M 0 0 V -15.3313 H 0.0" /><rect class="sym" height="6" width="6" x="-3" y="-3" /><text class="lab" transform="translate(0 11)">7</text></g><path class="edge" d="M 0 0 V -8.0831 H -11" /><circle class="sym" cx="0" cy="0" r="3" /><text class="lab rgt" transform="translate(3 -7.0)">14</text></g><path class="edge" d="M 0 0 V -9.74959 H -16.5" /><circle class="sym" cx="0" cy="0" r="3" /><text class="lab rgt" transform="translate(3 -7.0)">17</text></g><path class="edge" d="M 0 0 V -2.81259 H 24.75" /><circle class="sym" cx="0" cy="0" r="3" /><text class="lab lft" transform="translate(-3 -7.0)">19</text></g><path class="edge" d="M 0 0 V -41.7613 H 23.375" /><circle class="sym" cx="0" cy="0" r="3" /><text class="lab lft" transform="translate(-3 -7.0)">20</text></g><path class="edge" d="M 0 0 V -16.8621 H -45.1458" /><circle class="sym" cx="0" cy="0" r="3" /><text class="lab rgt" transform="translate(3 -7.0)">22</text></g><g class="a24 c1 node n23 p0" transform="translate(-45.1458 14.8015)"><g class="a23 c2 node n21 p0" transform="translate(0.0 10.2375)"><g class="a21 leaf node n4 p0 sample" transform="translate(11 69.561)"><path class="edge" d="M 0 0 V -69.561 H -11" /><rect class="sym" height="6" width="6" x="-3" y="-3" /><text class="lab" transform="translate(0 11)">4</text></g><g class="a21 c2 node n18 p0" transform="translate(-11 36.5667)"><g class="a18 c1 node n10 p0" transform="translate(-7.33333 30.0574)"><g class="a10 leaf node n0 p0 sample" transform="translate(0.0 2.93692)"><path class="edge" d="M 0 0 V -2.93692 H 0.0" /><rect class="sym" height="6" width="6" x="-3" y="-3" /><text class="lab" transform="translate(0 11)">0</text></g><path class="edge" d="M 0 0 V -30.0574 H 7.33333" /><circle class="sym" cx="0" cy="0" r="3" /><text class="lab lft" transform="translate(-3 -7.0)">10</text></g><g class="a18 c1 node n16 p0" transform="translate(7.33333 16.802)"><g class="a16 leaf node n8 p0 sample" transform="translate(0.0 16.1924)"><path class="edge" d="M 0 0 V -16.1924 H 0.0" /><rect class="sym" height="6" width="6" x="-3" y="-3" /><text class="lab" transform="translate(0 11)">8</text></g><path class="edge" d="M 0 0 V -16.802 H -7.33333" /><circle class="sym" cx="0" cy="0" r="3" /><text class="lab rgt" transform="translate(3 -7.0)">16</text></g><path class="edge" d="M 0 0 V -36.5667 H 11" /><circle class="sym" cx="0" cy="0" r="3" /><text class="lab lft" transform="translate(-3 -7.0)">18</text></g><path class="edge" d="M 0 0 V -10.2375 H 0.0" /><circle class="sym" cx="0" cy="0" r="3" /><text class="lab lft" transform="translate(-3 -7.0)">21</text></g><path class="edge" d="M 0 0 V -14.8015 H 45.1458" /><circle class="sym" cx="0" cy="0" r="3" /><text class="lab lft" transform="translate(-3 -7.0)">23</text></g><circle class="sym" cx="0" cy="0" r="3" /><text class="lab" transform="translate(0 -11)">24</text></g></g></g><g class="tree t1" transform="translate(206.667 0)"><g class="plotbox"><g class="c2 node n24 p0 root" transform="translate(87.1458 26.8)"><g class="a24 c2 node n22 p0" transform="translate(48.8125 16.8621)"><g class="a22 leaf node n5 p0 sample" transform="translate(23.375 77.7379)"><path class="edge" d="M 0 0 V -77.7379 H -23.375" /><rect class="sym" height="6" width="6" x="-3" y="-3" /><text class="lab" transform="translate(0 11)">5</text></g><g class="a22 c2 node n20 p0" transform="translate(-23.375 41.7613)"><g class="a20 c2 node n12 p0" transform="translate(24.75 32.7299)"><g class="a12 leaf node n6 p0 sample" transform="translate(-7.33333 3.24672)"><path class="edge" d="M 0 0 V -3.24672 H 7.33333" /><rect class="sym" height="6" width="6" x="-3" y="-3" /><text class="lab" transform="translate(0 11)">6</text></g><g class="a12 leaf node n9 p0 sample" transform="translate(7.33333 3.24672)"><path class="edge" d="M 0 0 V -3.24672 H -7.33333" /><rect class="sym" height="6" width="6" x="-3" y="-3" /><text class="lab" transform="translate(0 11)">9</text></g><path class="edge" d="M 0 0 V -32.7299 H -24.75" /><circle class="sym" cx="0" cy="0" r="3" /><text class="lab rgt" transform="translate(3 -7.0)">12</text></g><g class="a20 c2 node n19 p0" transform="translate(-24.75 2.81259)"><g class="a19 leaf node n1 p0 sample" transform="translate(-16.5 33.164)"><path class="edge" d="M 0 0 V -33.164 H 16.5" /><rect class="sym" height="6" width="6" x="-3" y="-3" /><text class="lab" transform="translate(0 11)">1</text></g><g class="a19 c2 node n17 p0" transform="translate(16.5 9.74959)"><g class="a17 c2 node n13 p0" transform="translate(-11 14.0845)"><g class="a13 leaf node n2 p0 sample" transform="translate(-7.33333 9.32998)"><path class="edge" d="M 0 0 V -9.32998 H 7.33333" /><rect class="sym" height="6" width="6" x="-3" y="-3" /><text class="lab" transform="translate(0 11)">2</text></g><g class="a13 leaf node n3 p0 sample" transform="translate(7.33333 9.32998)"><path class="edge" d="M 0 0 V -9.32998 H -7.33333" /><rect class="sym" height="6" width="6" x="-3" y="-3" /><text class="lab" transform="translate(0 11)">3</text></g><path class="edge" d="M 0 0 V -14.0845 H 11" /><circle class="sym" cx="0" cy="0" r="3" /><text class="lab lft" transform="translate(-3 -7.0)">13</text></g><g class="a17 c1 node n14 p0" transform="translate(11 8.0831)"><g class="a14 leaf node n7 p0 sample" transform="translate(0.0 15.3313)"><path class="edge" d="M 0 0 V -15.3313 H 0.0" /><rect class="sym" height="6" width="6" x="-3" y="-3" /><text class="lab" transform="translate(0 11)">7</text></g><path class="edge" d="M 0 0 V -8.0831 H -11" /><circle class="sym" cx="0" cy="0" r="3" /><text class="lab rgt" transform="translate(3 -7.0)">14</text></g><path class="edge" d="M 0 0 V -9.74959 H -16.5" /><circle class="sym" cx="0" cy="0" r="3" /><text class="lab rgt" transform="translate(3 -7.0)">17</text></g><path class="edge" d="M 0 0 V -2.81259 H 24.75" /><circle class="sym" cx="0" cy="0" r="3" /><text class="lab lft" transform="translate(-3 -7.0)">19</text></g><path class="edge" d="M 0 0 V -41.7613 H 23.375" /><circle class="sym" cx="0" cy="0" r="3" /><text class="lab lft" transform="translate(-3 -7.0)">20</text></g><path class="edge" d="M 0 0 V -16.8621 H -48.8125" /><circle class="sym" cx="0" cy="0" r="3" /><text class="lab rgt" transform="translate(3 -7.0)">22</text></g><g class="a24 c2 node n23 p0" transform="translate(-48.8125 14.8015)"><g class="a23 c2 node n21 p0" transform="translate(11 10.2375)"><g class="a21 leaf node n4 p0 sample" transform="translate(-7.33333 69.561)"><path class="edge" d="M 0 0 V -69.561 H 7.33333" /><rect class="sym" height="6" width="6" x="-3" y="-3" /><text class="lab" transform="translate(0 11)">4</text></g><g class="a21 c1 node n18 p0" transform="translate(7.33333 36.5667)"><g class="a18 c1 node n16 p0" transform="translate(0.0 16.802)"><g class="a16 leaf node n8 p0 sample" transform="translate(0.0 16.1924)"><path class="edge" d="M 0 0 V -16.1924 H 0.0" /><rect class="sym" height="6" width="6" x="-3" y="-3" /><text class="lab" transform="translate(0 11)">8</text></g><path class="edge" d="M 0 0 V -16.802 H 0.0" /><circle class="sym" cx="0" cy="0" r="3" /><text class="lab lft" transform="translate(-3 -7.0)">16</text></g><path class="edge" d="M 0 0 V -36.5667 H -7.33333" /><circle class="sym" cx="0" cy="0" r="3" /><text class="lab rgt" transform="translate(3 -7.0)">18</text></g><path class="edge" d="M 0 0 V -10.2375 H -11" /><circle class="sym" cx="0" cy="0" r="3" /><text class="lab rgt" transform="translate(3 -7.0)">21</text></g><g class="a23 c1 node n11 p0" transform="translate(-11 76.8616)"><g class="a11 leaf node n0 p0 sample" transform="translate(0.0 2.93692)"><path class="edge" d="M 0 0 V -2.93692 H 0.0" /><rect class="sym" height="6" width="6" x="-3" y="-3" /><text class="lab" transform="translate(0 11)">0</text></g><path class="edge" d="M 0 0 V -76.8616 H 11" /><circle class="sym" cx="0" cy="0" r="3" /><text class="lab lft" transform="translate(-3 -7.0)">11</text></g><path class="edge" d="M 0 0 V -14.8015 H 48.8125" /><circle class="sym" cx="0" cy="0" r="3" /><text class="lab lft" transform="translate(-3 -7.0)">23</text></g><circle class="sym" cx="0" cy="0" r="3" /><text class="lab" transform="translate(0 -11)">24</text></g></g></g><g class="tree t2" transform="translate(393.333 0)"><g class="plotbox"><g class="c2 node n24 p0 root" transform="translate(89.2083 26.8)"><g class="a24 c2 node n22 p0" transform="translate(49.0417 16.8621)"><g class="a22 leaf node n5 p0 sample" transform="translate(21.0833 77.7379)"><path class="edge" d="M 0 0 V -77.7379 H -21.0833" /><rect class="sym" height="6" width="6" x="-3" y="-3" /><text class="lab" transform="translate(0 11)">5</text></g><g class="a22 c2 node n20 p0" transform="translate(-21.0833 41.7613)"><g class="a20 c2 node n12 p0" transform="translate(20.1667 32.7299)"><g class="a12 leaf node n6 p0 sample" transform="translate(-7.33333 3.24672)"><path class="edge" d="M 0 0 V -3.24672 H 7.33333" /><rect class="sym" height="6" width="6" x="-3" y="-3" /><text class="lab" transform="translate(0 11)">6</text></g><g class="a12 leaf node n9 p0 sample" transform="translate(7.33333 3.24672)"><path class="edge" d="M 0 0 V -3.24672 H -7.33333" /><rect class="sym" height="6" width="6" x="-3" y="-3" /><text class="lab" transform="translate(0 11)">9</text></g><path class="edge" d="M 0 0 V -32.7299 H -20.1667" /><circle class="sym" cx="0" cy="0" r="3" /><text class="lab rgt" transform="translate(3 -7.0)">12</text></g><g class="a20 c2 node n19 p0" transform="translate(-20.1667 2.81259)"><g class="a19 leaf node n1 p0 sample" transform="translate(-11 33.164)"><path class="edge" d="M 0 0 V -33.164 H 11" /><rect class="sym" height="6" width="6" x="-3" y="-3" /><text class="lab" transform="translate(0 11)">1</text></g><g class="a19 c1 node n17 p0" transform="translate(11 9.74959)"><g class="a17 c2 node n13 p0" transform="translate(0.0 14.0845)"><g class="a13 leaf node n2 p0 sample" transform="translate(-7.33333 9.32998)"><path class="edge" d="M 0 0 V -9.32998 H 7.33333" /><rect class="sym" height="6" width="6" x="-3" y="-3" /><text class="lab" transform="translate(0 11)">2</text></g><g class="a13 leaf node n3 p0 sample" transform="translate(7.33333 9.32998)"><path class="edge" d="M 0 0 V -9.32998 H -7.33333" /><rect class="sym" height="6" width="6" x="-3" y="-3" /><text class="lab" transform="translate(0 11)">3</text></g><path class="edge" d="M 0 0 V -14.0845 H 0.0" /><circle class="sym" cx="0" cy="0" r="3" /><text class="lab lft" transform="translate(-3 -7.0)">13</text></g><path class="edge" d="M 0 0 V -9.74959 H -11" /><circle class="sym" cx="0" cy="0" r="3" /><text class="lab rgt" transform="translate(3 -7.0)">17</text></g><path class="edge" d="M 0 0 V -2.81259 H 20.1667" /><circle class="sym" cx="0" cy="0" r="3" /><text class="lab lft" transform="translate(-3 -7.0)">19</text></g><path class="edge" d="M 0 0 V -41.7613 H 21.0833" /><circle class="sym" cx="0" cy="0" r="3" /><text class="lab lft" transform="translate(-3 -7.0)">20</text></g><path class="edge" d="M 0 0 V -16.8621 H -49.0417" /><circle class="sym" cx="0" cy="0" r="3" /><text class="lab rgt" transform="translate(3 -7.0)">22</text></g><g class="a24 c2 node n23 p0" transform="translate(-49.0417 14.8015)"><g class="a23 c2 node n21 p0" transform="translate(12.8333 10.2375)"><g class="a21 leaf node n4 p0 sample" transform="translate(-11 69.561)"><path class="edge" d="M 0 0 V -69.561 H 11" /><rect class="sym" height="6" width="6" x="-3" y="-3" /><text class="lab" transform="translate(0 11)">4</text></g><g class="a21 c1 node n18 p0" transform="translate(11 36.5667)"><g class="a18 c2 node n16 p0" transform="translate(0.0 16.802)"><g class="a16 leaf node n8 p0 sample" transform="translate(7.33333 16.1924)"><path class="edge" d="M 0 0 V -16.1924 H -7.33333" /><rect class="sym" height="6" width="6" x="-3" y="-3" /><text class="lab" transform="translate(0 11)">8</text></g><g class="a16 c1 node n15 p0" transform="translate(-7.33333 0.861029)"><g class="a15 leaf node n7 p0 sample" transform="translate(0.0 15.3313)"><path class="edge" d="M 0 0 V -15.3313 H 0.0" /><rect class="sym" height="6" width="6" x="-3" y="-3" /><text class="lab" transform="translate(0 11)">7</text></g><path class="edge" d="M 0 0 V -0.861029 H 7.33333" /><circle class="sym" cx="0" cy="0" r="3" /><text class="lab lft" transform="translate(-3 -7.0)">15</text></g><path class="edge" d="M 0 0 V -16.802 H 0.0" /><circle class="sym" cx="0" cy="0" r="3" /><text class="lab lft" transform="translate(-3 -7.0)">16</text></g><path class="edge" d="M 0 0 V -36.5667 H -11" /><circle class="sym" cx="0" cy="0" r="3" /><text class="lab rgt" transform="translate(3 -7.0)">18</text></g><path class="edge" d="M 0 0 V -10.2375 H -12.8333" /><circle class="sym" cx="0" cy="0" r="3" /><text class="lab rgt" transform="translate(3 -7.0)">21</text></g><g class="a23 c1 node n11 p0" transform="translate(-12.8333 76.8616)"><g class="a11 leaf node n0 p0 sample" transform="translate(0.0 2.93692)"><path class="edge" d="M 0 0 V -2.93692 H 0.0" /><rect class="sym" height="6" width="6" x="-3" y="-3" /><text class="lab" transform="translate(0 11)">0</text></g><path class="edge" d="M 0 0 V -76.8616 H 12.8333" /><circle class="sym" cx="0" cy="0" r="3" /><text class="lab lft" transform="translate(-3 -7.0)">11</text></g><path class="edge" d="M 0 0 V -14.8015 H 49.0417" /><circle class="sym" cx="0" cy="0" r="3" /><text class="lab lft" transform="translate(-3 -7.0)">23</text></g><circle class="sym" cx="0" cy="0" r="3" /><text class="lab" transform="translate(0 -11)">24</text></g></g></g></g></g></svg>
