<svg baseProfile="full" height="200" version="1.1" width="600" xmlns="http://www.w3.org/2000/svg" xmlns:ev="http://www.w3.org/2001/xml-events" xmlns:xlink="http://www.w3.org/1999/xlink"><defs><style type="text/css"><![CDATA[.background path {fill: #808080; fill-opacity: 0}.background path:nth-child(odd) {fill-opacity: .1}.axes {font-size: 14px}.x-axis .tick .lab {font-weight: bold; dominant-baseline: hanging}.axes, .tree {font-size: 14px; text-anchor: middle}.axes line, .edge {stroke: black; fill: none}.y-axis .grid {stroke: #FAFAFA}.node > .sym {fill: black; stroke: none}.site > .sym {stroke: black}.mut text {fill: red; font-style: italic}.mut.extra text {fill: hotpink}.mut line {fill: none; stroke: none}.mut .sym {fill: none; stroke: red}.mut.extra .sym {stroke: hotpink}.node .mut .sym {stroke-width: 1.5px}.tree text, .tree-sequence text {dominant-baseline: central}.plotbox .lab.lft {text-anchor: end}.plotbox .lab.rgt {text-anchor: start}]]></style></defs><g class="tree-sequence"><g class="background"><path d="M20,0 l186.667,0 l0,138.2 l128.641,25 l0,5 l-315.308,0 l0,-5 l0,-25 l0,-138.2z" /><path d="M206.667,0 l186.667,0 l0,138.2 l164.348,25 l0,5 l-222.373,0 l0,-5 l-128.641,-25 l0,-138.2z" /><path d="M393.333,0 l186.667,0 l0,138.2 l0,25 l0,5 l-22.3187,0 l0,-5 l-164.348,-25 l0,-138.2z" /></g><g class="axes"><g class="x-axis"><g transform="translate(300 200)"><text class="lab" text-anchor="middle" transform="translate(0 -11)">Genome position</text></g><line x1="20" x2="580" y1="163.2" y2="163.2" /><g class="ticks"><g class="tick" transform="translate(20 163.2)"><line x1="0" x2="0" y1="0" y2="5" /><g transform="translate(0 6)"><text class="lab">0.00</text></g></g><g class="tick" transform="translate(335.308 163.2)"><line x1="0" x2="0" y1="0" y2="5" /><g transform="translate(0 6)"><text class="lab">563.05</text></g></g><g class="tick" transform="translate(557.681 163.2)"><line x1="0" x2="0" y1="0" y2="5" /><g transform="translate(0 6)"><text class="lab">960.15</text></g></g><g class="tick" transform="translate(580 163.2)"><line x1="0" x2="0" y1="0" y2="5" /><g transform="translate(0 6)"><text class="lab">1000.00</text></g></g></g></g></g><g class="plotbox trees"><g class="tree t0" transform="translate(20 0)"><g class="plotbox"><g class="c2 node n24 p0 root" transform="translate(103.875 26.8)"><g class="a24 c1 node n22 p0" transform="translate(44.4583 7.34503)"><g class="a22 c1 node n21 p0" transform="translate(0.0 0.10712)"><g class="a21 c2 node n15 p0" transform="translate(0.0 71.4461)"><g class="a15 leaf node n8 p0 sample" transform="translate(11 15.7018)"><path class="edge" d="M 0 0 V -15.7018 H -11" /><rect class="sym" height="6" width="6" x="-3" y="-3" /><text class="lab" transform="translate(0 11)">8</text></g><g class="a15 c2 node n10 p0" transform="translate(-11 15.4671)"><g class="a10 leaf node n5 p0 sample" transform="translate(-7.33333 0.234659)"><path class="edge" d="M 0 0 V -0.234659 H 7.33333" /><rect class="sym" height="6" width="6" x="-3" y="-3" /><text class="lab" transform="translate(0 11)">5</text></g><g class="a10 leaf node n7 p0 sample" transform="translate(7.33333 0.234659)"><path class="edge" d="M 0 0 V -0.234659 H -7.33333" /><rect class="sym" height="6" width="6" x="-3" y="-3" /><text class="lab" transform="translate(0 11)">7</text></g><path class="edge" d="M 0 0 V -15.4671 H 11" /><circle class="sym" cx="0" cy="0" r="3" /><text class="lab lft" transform="translate(-3 -7.0)">10</text></g><path class="edge" d="M 0 0 V -71.4461 H 0.0" /><circle class="sym" cx="0" cy="0" r="3" /><text class="lab lft" transform="translate(-3 -7.0)">15</text></g><path class="edge" d="M 0 0 V -0.10712 H 0.0" /><circle class="sym" cx="0" cy="0" r="3" /><text class="lab lft" transform="translate(-3 -7.0)">21</text></g><path class="edge" d="M 0 0 V -7.34503 H -44.4583" /><circle class="sym" cx="0" cy="0" r="3" /><text class="lab rgt" transform="translate(3 -7.0)">22</text></g><g class="a24 c2 node n23 p0" transform="translate(-44.4583 2.60229)"><g class="a23 c2 node n12 p0" transform="translate(-24.75 88.0652)"><g class="a12 leaf node n0 p0 sample" transform="translate(-7.33333 3.93252)"><path class="edge" d="M 0 0 V -3.93252 H 7.33333" /><rect class="sym" height="6" width="6" x="-3" y="-3" /><text class="lab" transform="translate(0 11)">0</text></g><g class="a12 leaf node n3 p0 sample" transform="translate(7.33333 3.93252)"><path class="edge" d="M 0 0 V -3.93252 H -7.33333" /><rect class="sym" height="6" width="6" x="-3" y="-3" /><text class="lab" transform="translate(0 11)">3</text></g><path class="edge" d="M 0 0 V -88.0652 H 24.75" /><circle class="sym" cx="0" cy="0" r="3" /><text class="lab lft" transform="translate(-3 -7.0)">12</text></g><g class="a23 c1 node n19 p0" transform="translate(24.75 11.2243)"><g class="a19 c1 node n17 p0" transform="translate(0.0 28.5191)"><g class="a17 c2 node n16 p0" transform="translate(0.0 34.6734)"><g class="a16 c2 node n13 p0" transform="translate(-20.1667 12.4076)"><g class="a13 leaf node n1 p0 sample" transform="translate(-7.33333 5.17334)"><path class="edge" d="M 0 0 V -5.17334 H 7.33333" /><rect class="sym" height="6" width="6" x="-3" y="-3" /><text class="lab" transform="translate(0 11)">1</text></g><g class="a13 leaf node n9 p0 sample" transform="translate(7.33333 5.17334)"><path class="edge" d="M 0 0 V -5.17334 H -7.33333" /><rect class="sym" height="6" width="6" x="-3" y="-3" /><text class="lab" transform="translate(0 11)">9</text></g><path class="edge" d="M 0 0 V -12.4076 H 20.1667" /><circle class="sym" cx="0" cy="0" r="3" /><text class="lab lft" transform="translate(-3 -7.0)">13</text></g><g class="a16 c2 node n14 p0" transform="translate(20.1667 12.1911)"><g class="a14 leaf node n6 p0 sample" transform="translate(11 5.38981)"><path class="edge" d="M 0 0 V -5.38981 H -11" /><rect class="sym" height="6" width="6" x="-3" y="-3" /><text class="lab" transform="translate(0 11)">6</text></g><g class="a14 c2 node n11 p0" transform="translate(-11 4.9977)"><g class="a11 leaf node n2 p0 sample" transform="translate(-7.33333 0.392107)"><path class="edge" d="M 0 0 V -0.392107 H 7.33333" /><rect class="sym" height="6" width="6" x="-3" y="-3" /><text class="lab" transform="translate(0 11)">2</text></g><g class="a11 leaf node n4 p0 sample" transform="translate(7.33333 0.392107)"><path class="edge" d="M 0 0 V -0.392107 H -7.33333" /><rect class="sym" height="6" width="6" x="-3" y="-3" /><text class="lab" transform="translate(0 11)">4</text></g><path class="edge" d="M 0 0 V -4.9977 H 11" /><circle class="sym" cx="0" cy="0" r="3" /><text class="lab lft" transform="translate(-3 -7.0)">11</text></g><path class="edge" d="M 0 0 V -12.1911 H -20.1667" /><circle class="sym" cx="0" cy="0" r="3" /><text class="lab rgt" transform="translate(3 -7.0)">14</text></g><path class="edge" d="M 0 0 V -34.6734 H 0.0" /><circle class="sym" cx="0" cy="0" r="3" /><text class="lab lft" transform="translate(-3 -7.0)">16</text></g><path class="edge" d="M 0 0 V -28.5191 H 0.0" /><circle class="sym" cx="0" cy="0" r="3" /><text class="lab lft" transform="translate(-3 -7.0)">17</text></g><path class="edge" d="M 0 0 V -11.2243 H -24.75" /><circle class="sym" cx="0" cy="0" r="3" /><text class="lab rgt" transform="translate(3 -7.0)">19</text></g><path class="edge" d="M 0 0 V -2.60229 H 44.4583" /><circle class="sym" cx="0" cy="0" r="3" /><text class="lab lft" transform="translate(-3 -7.0)">23</text></g><circle class="sym" cx="0" cy="0" r="3" /><text class="lab" transform="translate(0 -11)">24</text></g></g></g><g class="tree t1" transform="translate(206.667 0)"><g class="plotbox"><g class="c2 node n24 p0 root" transform="translate(75.4583 26.8)"><g class="a24 c1 node n22 p0" transform="translate(40.7917 7.34503)"><g class="a22 c2 node n21 p0" transform="translate(0.0 0.10712)"><g class="a21 c2 node n15 p0" transform="translate(32.0833 71.4461)"><g class="a15 leaf node n8 p0 sample" transform="translate(11 15.7018)"><path class="edge" d="M 0 0 V -15.7018 H -11" /><rect class="sym" height="6" width="6" x="-3" y="-3" /><text class="lab" transform="translate(0 11)">8</text></g><g class="a15 c2 node n10 p0" transform="translate(-11 15.4671)"><g class="a10 leaf node n5 p0 sample" transform="translate(-7.33333 0.234659)"><path class="edge" d="M 0 0 V -0.234659 H 7.33333" /><rect class="sym" height="6" width="6" x="-3" y="-3" /><text class="lab" transform="translate(0 11)">5</text></g><g class="a10 leaf node n7 p0 sample" transform="translate(7.33333 0.234659)"><path class="edge" d="M 0 0 V -0.234659 H -7.33333" /><rect class="sym" height="6" width="6" x="-3" y="-3" /><text class="lab" transform="translate(0 11)">7</text></g><path class="edge" d="M 0 0 V -15.4671 H 11" /><circle class="sym" cx="0" cy="0" r="3" /><text class="lab lft" transform="translate(-3 -7.0)">10</text></g><path class="edge" d="M 0 0 V -71.4461 H -32.0833" /><circle class="sym" cx="0" cy="0" r="3" /><text class="lab rgt" transform="translate(3 -7.0)">15</text></g><g class="a21 c1 node n20 p0" transform="translate(-32.0833 6.37446)"><g class="a20 c1 node n17 p0" transform="translate(0.0 28.5191)"><g class="a17 c2 node n16 p0" transform="translate(0.0 34.6734)"><g class="a16 c2 node n13 p0" transform="translate(-20.1667 12.4076)"><g class="a13 leaf node n1 p0 sample" transform="translate(-7.33333 5.17334)"><path class="edge" d="M 0 0 V -5.17334 H 7.33333" /><rect class="sym" height="6" width="6" x="-3" y="-3" /><text class="lab" transform="translate(0 11)">1</text></g><g class="a13 leaf node n9 p0 sample" transform="translate(7.33333 5.17334)"><path class="edge" d="M 0 0 V -5.17334 H -7.33333" /><rect class="sym" height="6" width="6" x="-3" y="-3" /><text class="lab" transform="translate(0 11)">9</text></g><path class="edge" d="M 0 0 V -12.4076 H 20.1667" /><circle class="sym" cx="0" cy="0" r="3" /><text class="lab lft" transform="translate(-3 -7.0)">13</text></g><g class="a16 c2 node n14 p0" transform="translate(20.1667 12.1911)"><g class="a14 leaf node n6 p0 sample" transform="translate(11 5.38981)"><path class="edge" d="M 0 0 V -5.38981 H -11" /><rect class="sym" height="6" width="6" x="-3" y="-3" /><text class="lab" transform="translate(0 11)">6</text></g><g class="a14 c2 node n11 p0" transform="translate(-11 4.9977)"><g class="a11 leaf node n2 p0 sample" transform="translate(-7.33333 0.392107)"><path class="edge" d="M 0 0 V -0.392107 H 7.33333" /><rect class="sym" height="6" width="6" x="-3" y="-3" /><text class="lab" transform="translate(0 11)">2</text></g><g class="a11 leaf node n4 p0 sample" transform="translate(7.33333 0.392107)"><path class="edge" d="M 0 0 V -0.392107 H -7.33333" /><rect class="sym" height="6" width="6" x="-3" y="-3" /><text class="lab" transform="translate(0 11)">4</text></g><path class="edge" d="M 0 0 V -4.9977 H 11" /><circle class="sym" cx="0" cy="0" r="3" /><text class="lab lft" transform="translate(-3 -7.0)">11</text></g><path class="edge" d="M 0 0 V -12.1911 H -20.1667" /><circle class="sym" cx="0" cy="0" r="3" /><text class="lab rgt" transform="translate(3 -7.0)">14</text></g><path class="edge" d="M 0 0 V -34.6734 H 0.0" /><circle class="sym" cx="0" cy="0" r="3" /><text class="lab lft" transform="translate(-3 -7.0)">16</text></g><path class="edge" d="M 0 0 V -28.5191 H 0.0" /><circle class="sym" cx="0" cy="0" r="3" /><text class="lab lft" transform="translate(-3 -7.0)">17</text></g><path class="edge" d="M 0 0 V -6.37446 H 32.0833" /><circle class="sym" cx="0" cy="0" r="3" /><text class="lab lft" transform="translate(-3 -7.0)">20</text></g><path class="edge" d="M 0 0 V -0.10712 H 0.0" /><circle class="sym" cx="0" cy="0" r="3" /><text class="lab lft" transform="translate(-3 -7.0)">21</text></g><path class="edge" d="M 0 0 V -7.34503 H -40.7917" /><circle class="sym" cx="0" cy="0" r="3" /><text class="lab rgt" transform="translate(3 -7.0)">22</text></g><g class="a24 c1 node n23 p0" transform="translate(-40.7917 2.60229)"><g class="a23 c2 node n12 p0" transform="translate(0.0 88.0652)"><g class="a12 leaf node n0 p0 sample" transform="translate(-7.33333 3.93252)"><path class="edge" d="M 0 0 V -3.93252 H 7.33333" /><rect class="sym" height="6" width="6" x="-3" y="-3" /><text class="lab" transform="translate(0 11)">0</text></g><g class="a12 leaf node n3 p0 sample" transform="translate(7.33333 3.93252)"><path class="edge" d="M 0 0 V -3.93252 H -7.33333" /><rect class="sym" height="6" width="6" x="-3" y="-3" /><text class="lab" transform="translate(0 11)">3</text></g><path class="edge" d="M 0 0 V -88.0652 H 0.0" /><circle class="sym" cx="0" cy="0" r="3" /><text class="lab lft" transform="translate(-3 -7.0)">12</text></g><path class="edge" d="M 0 0 V -2.60229 H 40.7917" /><circle class="sym" cx="0" cy="0" r="3" /><text class="lab lft" transform="translate(-3 -7.0)">23</text></g><circle class="sym" cx="0" cy="0" r="3" /><text class="lab" transform="translate(0 -11)">24</text></g></g></g><g class="tree t2" transform="translate(393.333 0)"><g class="plotbox"><g class="c2 node n24 p0 root" transform="translate(75.4583 26.8)"><g class="a24 c2 node n22 p0" transform="translate(40.7917 7.34503)"><g class="a22 c1 node n21 p0" transform="translate(32.0833 0.10712)"><g class="a21 c2 node n15 p0" transform="translate(0.0 71.4461)"><g class="a15 leaf node n8 p0 sample" transform="translate(11 15.7018)"><path class="edge" d="M 0 0 V -15.7018 H -11" /><rect class="sym" height="6" width="6" x="-3" y="-3" /><text class="lab" transform="translate(0 11)">8</text></g><g class="a15 c2 node n10 p0" transform="translate(-11 15.4671)"><g class="a10 leaf node n5 p0 sample" transform="translate(-7.33333 0.234659)"><path class="edge" d="M 0 0 V -0.234659 H 7.33333" /><rect class="sym" height="6" width="6" x="-3" y="-3" /><text class="lab" transform="translate(0 11)">5</text></g><g class="a10 leaf node n7 p0 sample" transform="translate(7.33333 0.234659)"><path class="edge" d="M 0 0 V -0.234659 H -7.33333" /><rect class="sym" height="6" width="6" x="-3" y="-3" /><text class="lab" transform="translate(0 11)">7</text></g><path class="edge" d="M 0 0 V -15.4671 H 11" /><circle class="sym" cx="0" cy="0" r="3" /><text class="lab lft" transform="translate(-3 -7.0)">10</text></g><path class="edge" d="M 0 0 V -71.4461 H 0.0" /><circle class="sym" cx="0" cy="0" r="3" /><text class="lab lft" transform="translate(-3 -7.0)">15</text></g><path class="edge" d="M 0 0 V -0.10712 H -32.0833" /><circle class="sym" cx="0" cy="0" r="3" /><text class="lab rgt" transform="translate(3 -7.0)">21</text></g><g class="a22 c1 node n18 p0" transform="translate(-32.0833 35.0006)"><g class="a18 c2 node n16 p0" transform="translate(0.0 34.6734)"><g class="a16 c2 node n13 p0" transform="translate(-20.1667 12.4076)"><g class="a13 leaf node n1 p0 sample" transform="translate(-7.33333 5.17334)"><path class="edge" d="M 0 0 V -5.17334 H 7.33333" /><rect class="sym" height="6" width="6" x="-3" y="-3" /><text class="lab" transform="translate(0 11)">1</text></g><g class="a13 leaf node n9 p0 sample" transform="translate(7.33333 5.17334)"><path class="edge" d="M 0 0 V -5.17334 H -7.33333" /><rect class="sym" height="6" width="6" x="-3" y="-3" /><text class="lab" transform="translate(0 11)">9</text></g><path class="edge" d="M 0 0 V -12.4076 H 20.1667" /><circle class="sym" cx="0" cy="0" r="3" /><text class="lab lft" transform="translate(-3 -7.0)">13</text></g><g class="a16 c2 node n14 p0" transform="translate(20.1667 12.1911)"><g class="a14 leaf node n6 p0 sample" transform="translate(11 5.38981)"><path class="edge" d="M 0 0 V -5.38981 H -11" /><rect class="sym" height="6" width="6" x="-3" y="-3" /><text class="lab" transform="translate(0 11)">6</text></g><g class="a14 c2 node n11 p0" transform="translate(-11 4.9977)"><g class="a11 leaf node n2 p0 sample" transform="translate(-7.33333 0.392107)"><path class="edge" d="M 0 0 V -0.392107 H 7.33333" /><rect class="sym" height="6" width="6" x="-3" y="-3" /><text class="lab" transform="translate(0 11)">2</text></g><g class="a11 leaf node n4 p0 sample" transform="translate(7.33333 0.392107)"><path class="edge" d="M 0 0 V -0.392107 H -7.33333" /><rect class="sym" height="6" width="6" x="-3" y="-3" /><text class="lab" transform="translate(0 11)">4</text></g><path class="edge" d="M 0 0 V -4.9977 H 11" /><circle class="sym" cx="0" cy="0" r="3" /><text class="lab lft" transform="translate(-3 -7.0)">11</text></g><path class="edge" d="M 0 0 V -12.1911 H -20.1667" /><circle class="sym" cx="0" cy="0" r="3" /><text class="lab rgt" transform="translate(3 -7.0)">14</text></g><path class="edge" d="M 0 0 V -34.6734 H 0.0" /><circle class="sym" cx="0" cy="0" r="3" /><text class="lab lft" transform="translate(-3 -7.0)">16</text></g><path class="edge" d="M 0 0 V -35.0006 H 32.0833" /><circle class="sym" cx="0" cy="0" r="3" /><text class="lab lft" transform="translate(-3 -7.0)">18</text></g><path class="edge" d="M 0 0 V -7.34503 H -40.7917" /><circle class="sym" cx="0" cy="0" r="3" /><text class="lab rgt" transform="translate(3 -7.0)">22</text></g><g class="a24 c1 node n23 p0" transform="translate(-40.7917 2.60229)"><g class="a23 c2 node n12 p0" transform="translate(0.0 88.0652)"><g class="a12 leaf node n0 p0 sample" transform="translate(-7.33333 3.93252)"><path class="edge" d="M 0 0 V -3.93252 H 7.33333" /><rect class="sym" height="6" width="6" x="-3" y="-3" /><text class="lab" transform="translate(0 11)">0</text></g><g class="a12 leaf node n3 p0 sample" transform="translate(7.33333 3.93252)"><path class="edge" d="M 0 0 V -3.93252 H -7.33333" /><rect class="sym" height="6" width="6" x="-3" y="-3" /><text class="lab" transform="translate(0 11)">3</text></g><path class="edge" d="M 0 0 V -88.0652 H 0.0" /><circle class="sym" cx="0" cy="0" r="3" /><text class="lab lft" transform="translate(-3 -7.0)">12</text></g><path class="edge" d="M 0 0 V -2.60229 H 40.7917" /><circle class="sym" cx="0" cy="0" r="3" /><text class="lab lft" transform="translate(-3 -7.0)">23</text></g><circle class="sym" cx="0" cy="0" r="3" /><text class="lab" transform="translate(0 -11)">24</text></g></g></g></g></g></svg>
