<svg baseProfile="full" height="200" version="1.1" width="1000" xmlns="http://www.w3.org/2000/svg" xmlns:ev="http://www.w3.org/2001/xml-events" xmlns:xlink="http://www.w3.org/1999/xlink"><defs><style type="text/css"><![CDATA[.background path {fill: #808080; fill-opacity: 0}.background path:nth-child(odd) {fill-opacity: .1}.axes {font-size: 14px}.x-axis .tick .lab {font-weight: bold; dominant-baseline: hanging}.axes, .tree {font-size: 14px; text-anchor: middle}.axes line, .edge {stroke: black; fill: none}.y-axis .grid {stroke: #FAFAFA}.node > .sym {fill: black; stroke: none}.site > .sym {stroke: black}.mut text {fill: red; font-style: italic}.mut.extra text {fill: hotpink}.mut line {fill: none; stroke: none}.mut .sym {fill: none; stroke: red}.mut.extra .sym {stroke: hotpink}.node .mut .sym {stroke-width: 1.5px}.tree text, .tree-sequence text {dominant-baseline: central}.plotbox .lab.lft {text-anchor: end}.plotbox .lab.rgt {text-anchor: start}]]></style></defs><g class="tree-sequence"><g class="background"><path d="M20,0 l192,0 l0,138.2 l27.8015,25 l0,5 l-219.801,0 l0,-5 l0,-25 l0,-138.2z" /><path d="M212,0 l192,0 l0,138.2 l137.171,25 l0,5 l-301.37,0 l0,-5 l-27.8015,-25 l0,-138.2z" /><path d="M404,0 l192,0 l0,138.2 l-41.1589,25 l0,5 l-13.6701,0 l0,-5 l-137.171,-25 l0,-138.2z" /><path d="M596,0 l192,0 l0,138.2 l81.1305,25 l0,5 l-314.289,0 l0,-5 l41.1589,-25 l0,-138.2z" /><path d="M788,0 l192,0 l0,138.2 l0,25 l0,5 l-110.87,0 l0,-5 l-81.1305,-25 l0,-138.2z" /></g><g class="axes"><g class="x-axis"><g transform="translate(500 200)"><text class="lab" text-anchor="middle" transform="translate(0 -11)">Genome position</text></g><line x1="20" x2="980" y1="163.2" y2="163.2" /><g class="ticks"><g class="tick" transform="translate(20 163.2)"><line x1="0" x2="0" y1="0" y2="5" /><g transform="translate(0 6)"><text class="lab">0.00</text></g></g><g class="tick" transform="translate(239.801 163.2)"><line x1="0" x2="0" y1="0" y2="5" /><g transform="translate(0 6)"><text class="lab">228.96</text></g></g><g class="tick" transform="translate(541.171 163.2)"><line x1="0" x2="0" y1="0" y2="5" /><g transform="translate(0 6)"><text class="lab">542.89</text></g></g><g class="tick" transform="translate(554.841 163.2)"><line x1="0" x2="0" y1="0" y2="5" /><g transform="translate(0 6)"><text class="lab">557.13</text></g></g><g class="tick" transform="translate(869.13 163.2)"><line x1="0" x2="0" y1="0" y2="5" /><g transform="translate(0 6)"><text class="lab">884.51</text></g></g><g class="tick" transform="translate(980 163.2)"><line x1="0" x2="0" y1="0" y2="5" /><g transform="translate(0 6)"><text class="lab">1000.00</text></g></g></g></g></g><g class="plotbox trees"><g class="tree t0" transform="translate(20 0)"><g class="plotbox"><g class="c2 node n30 p0 root" transform="translate(100.75 26.8)"><g class="a30 c2 node n28 p0" transform="translate(-35.15 4.26756)"><g class="a28 c1 node n23 p0" transform="translate(19 30.1403)"><g class="a23 c2 node n11 p0" transform="translate(0.0 58.7889)"><g class="a11 leaf node n5 p0 sample" transform="translate(-11.4 1.40321)"><path class="edge" d="M 0 0 V -1.40321 H 11.4" /><rect class="sym" height="6" width="6" x="-3" y="-3" /><text class="lab" transform="translate(0 11)">5</text></g><g class="a11 c2 node n10 p0" transform="translate(11.4 0.17138)"><g class="a10 leaf node n8 p0 sample" transform="translate(-7.6 1.23183)"><path class="edge" d="M 0 0 V -1.23183 H 7.6" /><rect class="sym" height="6" width="6" x="-3" y="-3" /><text class="lab" transform="translate(0 11)">8</text></g><g class="a10 leaf node n9 p0 sample" transform="translate(7.6 1.23183)"><path class="edge" d="M 0 0 V -1.23183 H -7.6" /><rect class="sym" height="6" width="6" x="-3" y="-3" /><text class="lab" transform="translate(0 11)">9</text></g><path class="edge" d="M 0 0 V -0.17138 H -11.4" /><circle class="sym" cx="0" cy="0" r="3" /><text class="lab rgt" transform="translate(3 -7.0)">10</text></g><path class="edge" d="M 0 0 V -58.7889 H 0.0" /><circle class="sym" cx="0" cy="0" r="3" /><text class="lab lft" transform="translate(-3 -7.0)">11</text></g><path class="edge" d="M 0 0 V -30.1403 H -19" /><circle class="sym" cx="0" cy="0" r="3" /><text class="lab rgt" transform="translate(3 -7.0)">23</text></g><g class="a28 c1 node n27 p0" transform="translate(-19 8.2412)"><g class="a27 c1 node n25 p0" transform="translate(0.0 6.89705)"><g class="a25 c2 node n22 p0" transform="translate(0.0 16.0272)"><g class="a22 c1 node n14 p0" transform="translate(11.4 45.9546)"><g class="a14 leaf node n6 p0 sample" transform="translate(0.0 13.2125)"><path class="edge" d="M 0 0 V -13.2125 H 0.0" /><rect class="sym" height="6" width="6" x="-3" y="-3" /><text class="lab" transform="translate(0 11)">6</text></g><path class="edge" d="M 0 0 V -45.9546 H -11.4" /><circle class="sym" cx="0" cy="0" r="3" /><text class="lab rgt" transform="translate(3 -7.0)">14</text></g><g class="a22 c1 node n19 p0" transform="translate(-11.4 19.5084)"><g class="a19 c1 node n17 p0" transform="translate(0.0 17.2731)"><g class="a17 c2 node n16 p0" transform="translate(0.0 0.287047)"><g class="a16 leaf node n0 p0 sample" transform="translate(-7.6 22.0985)"><path class="edge" d="M 0 0 V -22.0985 H 7.6" /><rect class="sym" height="6" width="6" x="-3" y="-3" /><text class="lab" transform="translate(0 11)">0</text></g><g class="a16 leaf node n4 p0 sample" transform="translate(7.6 22.0985)"><path class="edge" d="M 0 0 V -22.0985 H -7.6" /><rect class="sym" height="6" width="6" x="-3" y="-3" /><text class="lab" transform="translate(0 11)">4</text></g><path class="edge" d="M 0 0 V -0.287047 H 0.0" /><circle class="sym" cx="0" cy="0" r="3" /><text class="lab lft" transform="translate(-3 -7.0)">16</text></g><path class="edge" d="M 0 0 V -17.2731 H 0.0" /><circle class="sym" cx="0" cy="0" r="3" /><text class="lab lft" transform="translate(-3 -7.0)">17</text></g><path class="edge" d="M 0 0 V -19.5084 H 11.4" /><circle class="sym" cx="0" cy="0" r="3" /><text class="lab lft" transform="translate(-3 -7.0)">19</text></g><path class="edge" d="M 0 0 V -16.0272 H 0.0" /><circle class="sym" cx="0" cy="0" r="3" /><text class="lab lft" transform="translate(-3 -7.0)">22</text></g><path class="edge" d="M 0 0 V -6.89705 H 0.0" /><circle class="sym" cx="0" cy="0" r="3" /><text class="lab lft" transform="translate(-3 -7.0)">25</text></g><path class="edge" d="M 0 0 V -8.2412 H 19" /><circle class="sym" cx="0" cy="0" r="3" /><text class="lab lft" transform="translate(-3 -7.0)">27</text></g><path class="edge" d="M 0 0 V -4.26756 H 35.15" /><circle class="sym" cx="0" cy="0" r="3" /><text class="lab lft" transform="translate(-3 -7.0)">28</text></g><g class="a30 c1 node n29 p0" transform="translate(35.15 0.029161)"><g class="a29 c1 node n21 p0" transform="translate(0.0 43.2241)"><g class="a21 c2 node n18 p0" transform="translate(0.0 24.2683)"><g class="a18 leaf node n1 p0 sample" transform="translate(-17.1 27.0785)"><path class="edge" d="M 0 0 V -27.0785 H 17.1" /><rect class="sym" height="6" width="6" x="-3" y="-3" /><text class="lab" transform="translate(0 11)">1</text></g><g class="a18 c2 node n13 p0" transform="translate(17.1 19.2126)"><g class="a13 leaf node n7 p0 sample" transform="translate(11.4 7.86596)"><path class="edge" d="M 0 0 V -7.86596 H -11.4" /><rect class="sym" height="6" width="6" x="-3" y="-3" /><text class="lab" transform="translate(0 11)">7</text></g><g class="a13 c2 node n12 p0" transform="translate(-11.4 3.52951)"><g class="a12 leaf node n2 p0 sample" transform="translate(-7.6 4.33645)"><path class="edge" d="M 0 0 V -4.33645 H 7.6" /><rect class="sym" height="6" width="6" x="-3" y="-3" /><text class="lab" transform="translate(0 11)">2</text></g><g class="a12 leaf node n3 p0 sample" transform="translate(7.6 4.33645)"><path class="edge" d="M 0 0 V -4.33645 H -7.6" /><rect class="sym" height="6" width="6" x="-3" y="-3" /><text class="lab" transform="translate(0 11)">3</text></g><path class="edge" d="M 0 0 V -3.52951 H 11.4" /><circle class="sym" cx="0" cy="0" r="3" /><text class="lab lft" transform="translate(-3 -7.0)">12</text></g><path class="edge" d="M 0 0 V -19.2126 H -17.1" /><circle class="sym" cx="0" cy="0" r="3" /><text class="lab rgt" transform="translate(3 -7.0)">13</text></g><path class="edge" d="M 0 0 V -24.2683 H 0.0" /><circle class="sym" cx="0" cy="0" r="3" /><text class="lab lft" transform="translate(-3 -7.0)">18</text></g><path class="edge" d="M 0 0 V -43.2241 H 0.0" /><circle class="sym" cx="0" cy="0" r="3" /><text class="lab lft" transform="translate(-3 -7.0)">21</text></g><path class="edge" d="M 0 0 V -0.029161 H -35.15" /><circle class="sym" cx="0" cy="0" r="3" /><text class="lab rgt" transform="translate(3 -7.0)">29</text></g><circle class="sym" cx="0" cy="0" r="3" /><text class="lab" transform="translate(0 -11)">30</text></g></g></g><g class="tree t1" transform="translate(212 0)"><g class="plotbox"><g class="c2 node n30 p0 root" transform="translate(106.925 26.8)"><g class="a30 c1 node n28 p0" transform="translate(38.475 4.26756)"><g class="a28 c1 node n23 p0" transform="translate(0.0 30.1403)"><g class="a23 c2 node n11 p0" transform="translate(0.0 58.7889)"><g class="a11 leaf node n5 p0 sample" transform="translate(-11.4 1.40321)"><path class="edge" d="M 0 0 V -1.40321 H 11.4" /><rect class="sym" height="6" width="6" x="-3" y="-3" /><text class="lab" transform="translate(0 11)">5</text></g><g class="a11 c2 node n10 p0" transform="translate(11.4 0.17138)"><g class="a10 leaf node n8 p0 sample" transform="translate(-7.6 1.23183)"><path class="edge" d="M 0 0 V -1.23183 H 7.6" /><rect class="sym" height="6" width="6" x="-3" y="-3" /><text class="lab" transform="translate(0 11)">8</text></g><g class="a10 leaf node n9 p0 sample" transform="translate(7.6 1.23183)"><path class="edge" d="M 0 0 V -1.23183 H -7.6" /><rect class="sym" height="6" width="6" x="-3" y="-3" /><text class="lab" transform="translate(0 11)">9</text></g><path class="edge" d="M 0 0 V -0.17138 H -11.4" /><circle class="sym" cx="0" cy="0" r="3" /><text class="lab rgt" transform="translate(3 -7.0)">10</text></g><path class="edge" d="M 0 0 V -58.7889 H 0.0" /><circle class="sym" cx="0" cy="0" r="3" /><text class="lab lft" transform="translate(-3 -7.0)">11</text></g><path class="edge" d="M 0 0 V -30.1403 H 0.0" /><circle class="sym" cx="0" cy="0" r="3" /><text class="lab lft" transform="translate(-3 -7.0)">23</text></g><path class="edge" d="M 0 0 V -4.26756 H -38.475" /><circle class="sym" cx="0" cy="0" r="3" /><text class="lab rgt" transform="translate(3 -7.0)">28</text></g><g class="a30 c2 node n29 p0" transform="translate(-38.475 0.029161)"><g class="a29 c1 node n21 p0" transform="translate(21.85 43.2241)"><g class="a21 c2 node n18 p0" transform="translate(0.0 24.2683)"><g class="a18 leaf node n1 p0 sample" transform="translate(-17.1 27.0785)"><path class="edge" d="M 0 0 V -27.0785 H 17.1" /><rect class="sym" height="6" width="6" x="-3" y="-3" /><text class="lab" transform="translate(0 11)">1</text></g><g class="a18 c2 node n13 p0" transform="translate(17.1 19.2126)"><g class="a13 leaf node n7 p0 sample" transform="translate(11.4 7.86596)"><path class="edge" d="M 0 0 V -7.86596 H -11.4" /><rect class="sym" height="6" width="6" x="-3" y="-3" /><text class="lab" transform="translate(0 11)">7</text></g><g class="a13 c2 node n12 p0" transform="translate(-11.4 3.52951)"><g class="a12 leaf node n2 p0 sample" transform="translate(-7.6 4.33645)"><path class="edge" d="M 0 0 V -4.33645 H 7.6" /><rect class="sym" height="6" width="6" x="-3" y="-3" /><text class="lab" transform="translate(0 11)">2</text></g><g class="a12 leaf node n3 p0 sample" transform="translate(7.6 4.33645)"><path class="edge" d="M 0 0 V -4.33645 H -7.6" /><rect class="sym" height="6" width="6" x="-3" y="-3" /><text class="lab" transform="translate(0 11)">3</text></g><path class="edge" d="M 0 0 V -3.52951 H 11.4" /><circle class="sym" cx="0" cy="0" r="3" /><text class="lab lft" transform="translate(-3 -7.0)">12</text></g><path class="edge" d="M 0 0 V -19.2126 H -17.1" /><circle class="sym" cx="0" cy="0" r="3" /><text class="lab rgt" transform="translate(3 -7.0)">13</text></g><path class="edge" d="M 0 0 V -24.2683 H 0.0" /><circle class="sym" cx="0" cy="0" r="3" /><text class="lab lft" transform="translate(-3 -7.0)">18</text></g><path class="edge" d="M 0 0 V -43.2241 H -21.85" /><circle class="sym" cx="0" cy="0" r="3" /><text class="lab rgt" transform="translate(3 -7.0)">21</text></g><g class="a29 c1 node n26 p0" transform="translate(-21.85 19.3766)"><g class="a26 c2 node n22 p0" transform="translate(0.0 16.0272)"><g class="a22 c1 node n14 p0" transform="translate(11.4 45.9546)"><g class="a14 leaf node n6 p0 sample" transform="translate(0.0 13.2125)"><path class="edge" d="M 0 0 V -13.2125 H 0.0" /><rect class="sym" height="6" width="6" x="-3" y="-3" /><text class="lab" transform="translate(0 11)">6</text></g><path class="edge" d="M 0 0 V -45.9546 H -11.4" /><circle class="sym" cx="0" cy="0" r="3" /><text class="lab rgt" transform="translate(3 -7.0)">14</text></g><g class="a22 c1 node n19 p0" transform="translate(-11.4 19.5084)"><g class="a19 c1 node n17 p0" transform="translate(0.0 17.2731)"><g class="a17 c2 node n16 p0" transform="translate(0.0 0.287047)"><g class="a16 leaf node n0 p0 sample" transform="translate(-7.6 22.0985)"><path class="edge" d="M 0 0 V -22.0985 H 7.6" /><rect class="sym" height="6" width="6" x="-3" y="-3" /><text class="lab" transform="translate(0 11)">0</text></g><g class="a16 leaf node n4 p0 sample" transform="translate(7.6 22.0985)"><path class="edge" d="M 0 0 V -22.0985 H -7.6" /><rect class="sym" height="6" width="6" x="-3" y="-3" /><text class="lab" transform="translate(0 11)">4</text></g><path class="edge" d="M 0 0 V -0.287047 H 0.0" /><circle class="sym" cx="0" cy="0" r="3" /><text class="lab lft" transform="translate(-3 -7.0)">16</text></g><path class="edge" d="M 0 0 V -17.2731 H 0.0" /><circle class="sym" cx="0" cy="0" r="3" /><text class="lab lft" transform="translate(-3 -7.0)">17</text></g><path class="edge" d="M 0 0 V -19.5084 H 11.4" /><circle class="sym" cx="0" cy="0" r="3" /><text class="lab lft" transform="translate(-3 -7.0)">19</text></g><path class="edge" d="M 0 0 V -16.0272 H 0.0" /><circle class="sym" cx="0" cy="0" r="3" /><text class="lab lft" transform="translate(-3 -7.0)">22</text></g><path class="edge" d="M 0 0 V -19.3766 H 21.85" /><circle class="sym" cx="0" cy="0" r="3" /><text class="lab lft" transform="translate(-3 -7.0)">26</text></g><path class="edge" d="M 0 0 V -0.029161 H 38.475" /><circle class="sym" cx="0" cy="0" r="3" /><text class="lab lft" transform="translate(-3 -7.0)">29</text></g><circle class="sym" cx="0" cy="0" r="3" /><text class="lab" transform="translate(0 -11)">30</text></g></g></g><g class="tree t2" transform="translate(404 0)"><g class="plotbox"><g class="c2 node n30 p0 root" transform="translate(116.188 26.8)"><g class="a30 c1 node n28 p0" transform="translate(29.2125 4.26756)"><g class="a28 c1 node n23 p0" transform="translate(0.0 30.1403)"><g class="a23 c2 node n11 p0" transform="translate(0.0 58.7889)"><g class="a11 leaf node n5 p0 sample" transform="translate(-11.4 1.40321)"><path class="edge" d="M 0 0 V -1.40321 H 11.4" /><rect class="sym" height="6" width="6" x="-3" y="-3" /><text class="lab" transform="translate(0 11)">5</text></g><g class="a11 c2 node n10 p0" transform="translate(11.4 0.17138)"><g class="a10 leaf node n8 p0 sample" transform="translate(-7.6 1.23183)"><path class="edge" d="M 0 0 V -1.23183 H 7.6" /><rect class="sym" height="6" width="6" x="-3" y="-3" /><text class="lab" transform="translate(0 11)">8</text></g><g class="a10 leaf node n9 p0 sample" transform="translate(7.6 1.23183)"><path class="edge" d="M 0 0 V -1.23183 H -7.6" /><rect class="sym" height="6" width="6" x="-3" y="-3" /><text class="lab" transform="translate(0 11)">9</text></g><path class="edge" d="M 0 0 V -0.17138 H -11.4" /><circle class="sym" cx="0" cy="0" r="3" /><text class="lab rgt" transform="translate(3 -7.0)">10</text></g><path class="edge" d="M 0 0 V -58.7889 H 0.0" /><circle class="sym" cx="0" cy="0" r="3" /><text class="lab lft" transform="translate(-3 -7.0)">11</text></g><path class="edge" d="M 0 0 V -30.1403 H 0.0" /><circle class="sym" cx="0" cy="0" r="3" /><text class="lab lft" transform="translate(-3 -7.0)">23</text></g><path class="edge" d="M 0 0 V -4.26756 H -29.2125" /><circle class="sym" cx="0" cy="0" r="3" /><text class="lab rgt" transform="translate(3 -7.0)">28</text></g><g class="a30 c2 node n29 p0" transform="translate(-29.2125 0.029161)"><g class="a29 c2 node n21 p0" transform="translate(-31.825 43.2241)"><g class="a21 c2 node n18 p0" transform="translate(19.95 24.2683)"><g class="a18 leaf node n1 p0 sample" transform="translate(-17.1 27.0785)"><path class="edge" d="M 0 0 V -27.0785 H 17.1" /><rect class="sym" height="6" width="6" x="-3" y="-3" /><text class="lab" transform="translate(0 11)">1</text></g><g class="a18 c2 node n13 p0" transform="translate(17.1 19.2126)"><g class="a13 leaf node n7 p0 sample" transform="translate(11.4 7.86596)"><path class="edge" d="M 0 0 V -7.86596 H -11.4" /><rect class="sym" height="6" width="6" x="-3" y="-3" /><text class="lab" transform="translate(0 11)">7</text></g><g class="a13 c2 node n12 p0" transform="translate(-11.4 3.52951)"><g class="a12 leaf node n2 p0 sample" transform="translate(-7.6 4.33645)"><path class="edge" d="M 0 0 V -4.33645 H 7.6" /><rect class="sym" height="6" width="6" x="-3" y="-3" /><text class="lab" transform="translate(0 11)">2</text></g><g class="a12 leaf node n3 p0 sample" transform="translate(7.6 4.33645)"><path class="edge" d="M 0 0 V -4.33645 H -7.6" /><rect class="sym" height="6" width="6" x="-3" y="-3" /><text class="lab" transform="translate(0 11)">3</text></g><path class="edge" d="M 0 0 V -3.52951 H 11.4" /><circle class="sym" cx="0" cy="0" r="3" /><text class="lab lft" transform="translate(-3 -7.0)">12</text></g><path class="edge" d="M 0 0 V -19.2126 H -17.1" /><circle class="sym" cx="0" cy="0" r="3" /><text class="lab rgt" transform="translate(3 -7.0)">13</text></g><path class="edge" d="M 0 0 V -24.2683 H -19.95" /><circle class="sym" cx="0" cy="0" r="3" /><text class="lab rgt" transform="translate(3 -7.0)">18</text></g><g class="a21 c1 node n20 p0" transform="translate(-19.95 11.6881)"><g class="a20 c1 node n17 p0" transform="translate(0.0 17.2731)"><g class="a17 c2 node n16 p0" transform="translate(0.0 0.287047)"><g class="a16 leaf node n0 p0 sample" transform="translate(-7.6 22.0985)"><path class="edge" d="M 0 0 V -22.0985 H 7.6" /><rect class="sym" height="6" width="6" x="-3" y="-3" /><text class="lab" transform="translate(0 11)">0</text></g><g class="a16 leaf node n4 p0 sample" transform="translate(7.6 22.0985)"><path class="edge" d="M 0 0 V -22.0985 H -7.6" /><rect class="sym" height="6" width="6" x="-3" y="-3" /><text class="lab" transform="translate(0 11)">4</text></g><path class="edge" d="M 0 0 V -0.287047 H 0.0" /><circle class="sym" cx="0" cy="0" r="3" /><text class="lab lft" transform="translate(-3 -7.0)">16</text></g><path class="edge" d="M 0 0 V -17.2731 H 0.0" /><circle class="sym" cx="0" cy="0" r="3" /><text class="lab lft" transform="translate(-3 -7.0)">17</text></g><path class="edge" d="M 0 0 V -11.6881 H 19.95" /><circle class="sym" cx="0" cy="0" r="3" /><text class="lab lft" transform="translate(-3 -7.0)">20</text></g><path class="edge" d="M 0 0 V -43.2241 H 31.825" /><circle class="sym" cx="0" cy="0" r="3" /><text class="lab lft" transform="translate(-3 -7.0)">21</text></g><g class="a29 c1 node n26 p0" transform="translate(31.825 19.3766)"><g class="a26 c1 node n22 p0" transform="translate(0.0 16.0272)"><g class="a22 c1 node n14 p0" transform="translate(0.0 45.9546)"><g class="a14 leaf node n6 p0 sample" transform="translate(0.0 13.2125)"><path class="edge" d="M 0 0 V -13.2125 H 0.0" /><rect class="sym" height="6" width="6" x="-3" y="-3" /><text class="lab" transform="translate(0 11)">6</text></g><path class="edge" d="M 0 0 V -45.9546 H 0.0" /><circle class="sym" cx="0" cy="0" r="3" /><text class="lab lft" transform="translate(-3 -7.0)">14</text></g><path class="edge" d="M 0 0 V -16.0272 H 0.0" /><circle class="sym" cx="0" cy="0" r="3" /><text class="lab lft" transform="translate(-3 -7.0)">22</text></g><path class="edge" d="M 0 0 V -19.3766 H -31.825" /><circle class="sym" cx="0" cy="0" r="3" /><text class="lab rgt" transform="translate(3 -7.0)">26</text></g><path class="edge" d="M 0 0 V -0.029161 H 29.2125" /><circle class="sym" cx="0" cy="0" r="3" /><text class="lab lft" transform="translate(-3 -7.0)">29</text></g><circle class="sym" cx="0" cy="0" r="3" /><text class="lab" transform="translate(0 -11)">30</text></g></g></g><g class="tree t3" transform="translate(596 0)"><g class="plotbox"><g class="c2 node n30 p0 root" transform="translate(106.925 26.8)"><g class="a30 c1 node n28 p0" transform="translate(38.475 4.26756)"><g class="a28 c1 node n23 p0" transform="translate(0.0 30.1403)"><g class="a23 c2 node n11 p0" transform="translate(0.0 58.7889)"><g class="a11 leaf node n5 p0 sample" transform="translate(-11.4 1.40321)"><path class="edge" d="M 0 0 V -1.40321 H 11.4" /><rect class="sym" height="6" width="6" x="-3" y="-3" /><text class="lab" transform="translate(0 11)">5</text></g><g class="a11 c2 node n10 p0" transform="translate(11.4 0.17138)"><g class="a10 leaf node n8 p0 sample" transform="translate(-7.6 1.23183)"><path class="edge" d="M 0 0 V -1.23183 H 7.6" /><rect class="sym" height="6" width="6" x="-3" y="-3" /><text class="lab" transform="translate(0 11)">8</text></g><g class="a10 leaf node n9 p0 sample" transform="translate(7.6 1.23183)"><path class="edge" d="M 0 0 V -1.23183 H -7.6" /><rect class="sym" height="6" width="6" x="-3" y="-3" /><text class="lab" transform="translate(0 11)">9</text></g><path class="edge" d="M 0 0 V -0.17138 H -11.4" /><circle class="sym" cx="0" cy="0" r="3" /><text class="lab rgt" transform="translate(3 -7.0)">10</text></g><path class="edge" d="M 0 0 V -58.7889 H 0.0" /><circle class="sym" cx="0" cy="0" r="3" /><text class="lab lft" transform="translate(-3 -7.0)">11</text></g><path class="edge" d="M 0 0 V -30.1403 H 0.0" /><circle class="sym" cx="0" cy="0" r="3" /><text class="lab lft" transform="translate(-3 -7.0)">23</text></g><path class="edge" d="M 0 0 V -4.26756 H -38.475" /><circle class="sym" cx="0" cy="0" r="3" /><text class="lab rgt" transform="translate(3 -7.0)">28</text></g><g class="a30 c1 node n29 p0" transform="translate(-38.475 0.029161)"><g class="a29 c2 node n21 p0" transform="translate(0.0 43.2241)"><g class="a21 c2 node n18 p0" transform="translate(21.85 24.2683)"><g class="a18 leaf node n1 p0 sample" transform="translate(-17.1 27.0785)"><path class="edge" d="M 0 0 V -27.0785 H 17.1" /><rect class="sym" height="6" width="6" x="-3" y="-3" /><text class="lab" transform="translate(0 11)">1</text></g><g class="a18 c2 node n13 p0" transform="translate(17.1 19.2126)"><g class="a13 leaf node n7 p0 sample" transform="translate(11.4 7.86596)"><path class="edge" d="M 0 0 V -7.86596 H -11.4" /><rect class="sym" height="6" width="6" x="-3" y="-3" /><text class="lab" transform="translate(0 11)">7</text></g><g class="a13 c2 node n12 p0" transform="translate(-11.4 3.52951)"><g class="a12 leaf node n2 p0 sample" transform="translate(-7.6 4.33645)"><path class="edge" d="M 0 0 V -4.33645 H 7.6" /><rect class="sym" height="6" width="6" x="-3" y="-3" /><text class="lab" transform="translate(0 11)">2</text></g><g class="a12 leaf node n3 p0 sample" transform="translate(7.6 4.33645)"><path class="edge" d="M 0 0 V -4.33645 H -7.6" /><rect class="sym" height="6" width="6" x="-3" y="-3" /><text class="lab" transform="translate(0 11)">3</text></g><path class="edge" d="M 0 0 V -3.52951 H 11.4" /><circle class="sym" cx="0" cy="0" r="3" /><text class="lab lft" transform="translate(-3 -7.0)">12</text></g><path class="edge" d="M 0 0 V -19.2126 H -17.1" /><circle class="sym" cx="0" cy="0" r="3" /><text class="lab rgt" transform="translate(3 -7.0)">13</text></g><path class="edge" d="M 0 0 V -24.2683 H -21.85" /><circle class="sym" cx="0" cy="0" r="3" /><text class="lab rgt" transform="translate(3 -7.0)">18</text></g><g class="a21 c1 node n20 p0" transform="translate(-21.85 11.6881)"><g class="a20 c2 node n17 p0" transform="translate(0.0 17.2731)"><g class="a17 c2 node n16 p0" transform="translate(-11.4 0.287047)"><g class="a16 leaf node n0 p0 sample" transform="translate(-7.6 22.0985)"><path class="edge" d="M 0 0 V -22.0985 H 7.6" /><rect class="sym" height="6" width="6" x="-3" y="-3" /><text class="lab" transform="translate(0 11)">0</text></g><g class="a16 leaf node n4 p0 sample" transform="translate(7.6 22.0985)"><path class="edge" d="M 0 0 V -22.0985 H -7.6" /><rect class="sym" height="6" width="6" x="-3" y="-3" /><text class="lab" transform="translate(0 11)">4</text></g><path class="edge" d="M 0 0 V -0.287047 H 11.4" /><circle class="sym" cx="0" cy="0" r="3" /><text class="lab lft" transform="translate(-3 -7.0)">16</text></g><g class="a17 c1 node n15 p0" transform="translate(11.4 9.17307)"><g class="a15 leaf node n6 p0 sample" transform="translate(0.0 13.2125)"><path class="edge" d="M 0 0 V -13.2125 H 0.0" /><rect class="sym" height="6" width="6" x="-3" y="-3" /><text class="lab" transform="translate(0 11)">6</text></g><path class="edge" d="M 0 0 V -9.17307 H -11.4" /><circle class="sym" cx="0" cy="0" r="3" /><text class="lab rgt" transform="translate(3 -7.0)">15</text></g><path class="edge" d="M 0 0 V -17.2731 H 0.0" /><circle class="sym" cx="0" cy="0" r="3" /><text class="lab lft" transform="translate(-3 -7.0)">17</text></g><path class="edge" d="M 0 0 V -11.6881 H 21.85" /><circle class="sym" cx="0" cy="0" r="3" /><text class="lab lft" transform="translate(-3 -7.0)">20</text></g><path class="edge" d="M 0 0 V -43.2241 H 0.0" /><circle class="sym" cx="0" cy="0" r="3" /><text class="lab lft" transform="translate(-3 -7.0)">21</text></g><path class="edge" d="M 0 0 V -0.029161 H 38.475" /><circle class="sym" cx="0" cy="0" r="3" /><text class="lab lft" transform="translate(-3 -7.0)">29</text></g><circle class="sym" cx="0" cy="0" r="3" /><text class="lab" transform="translate(0 -11)">30</text></g></g></g><g class="tree t4" transform="translate(788 0)"><g class="plotbox"><g class="c2 node n30 p0 root" transform="translate(106.925 26.8)"><g class="a30 c1 node n28 p0" transform="translate(38.475 4.26756)"><g class="a28 c1 node n27 p0" transform="translate(0.0 8.2412)"><g class="a27 c1 node n24 p0" transform="translate(0.0 21.8991)"><g class="a24 c2 node n11 p0" transform="translate(0.0 58.7889)"><g class="a11 leaf node n5 p0 sample" transform="translate(-11.4 1.40321)"><path class="edge" d="M 0 0 V -1.40321 H 11.4" /><rect class="sym" height="6" width="6" x="-3" y="-3" /><text class="lab" transform="translate(0 11)">5</text></g><g class="a11 c2 node n10 p0" transform="translate(11.4 0.17138)"><g class="a10 leaf node n8 p0 sample" transform="translate(-7.6 1.23183)"><path class="edge" d="M 0 0 V -1.23183 H 7.6" /><rect class="sym" height="6" width="6" x="-3" y="-3" /><text class="lab" transform="translate(0 11)">8</text></g><g class="a10 leaf node n9 p0 sample" transform="translate(7.6 1.23183)"><path class="edge" d="M 0 0 V -1.23183 H -7.6" /><rect class="sym" height="6" width="6" x="-3" y="-3" /><text class="lab" transform="translate(0 11)">9</text></g><path class="edge" d="M 0 0 V -0.17138 H -11.4" /><circle class="sym" cx="0" cy="0" r="3" /><text class="lab rgt" transform="translate(3 -7.0)">10</text></g><path class="edge" d="M 0 0 V -58.7889 H 0.0" /><circle class="sym" cx="0" cy="0" r="3" /><text class="lab lft" transform="translate(-3 -7.0)">11</text></g><path class="edge" d="M 0 0 V -21.8991 H 0.0" /><circle class="sym" cx="0" cy="0" r="3" /><text class="lab lft" transform="translate(-3 -7.0)">24</text></g><path class="edge" d="M 0 0 V -8.2412 H 0.0" /><circle class="sym" cx="0" cy="0" r="3" /><text class="lab lft" transform="translate(-3 -7.0)">27</text></g><path class="edge" d="M 0 0 V -4.26756 H -38.475" /><circle class="sym" cx="0" cy="0" r="3" /><text class="lab rgt" transform="translate(3 -7.0)">28</text></g><g class="a30 c1 node n29 p0" transform="translate(-38.475 0.029161)"><g class="a29 c2 node n21 p0" transform="translate(0.0 43.2241)"><g class="a21 c2 node n18 p0" transform="translate(21.85 24.2683)"><g class="a18 leaf node n1 p0 sample" transform="translate(-17.1 27.0785)"><path class="edge" d="M 0 0 V -27.0785 H 17.1" /><rect class="sym" height="6" width="6" x="-3" y="-3" /><text class="lab" transform="translate(0 11)">1</text></g><g class="a18 c2 node n13 p0" transform="translate(17.1 19.2126)"><g class="a13 leaf node n7 p0 sample" transform="translate(11.4 7.86596)"><path class="edge" d="M 0 0 V -7.86596 H -11.4" /><rect class="sym" height="6" width="6" x="-3" y="-3" /><text class="lab" transform="translate(0 11)">7</text></g><g class="a13 c2 node n12 p0" transform="translate(-11.4 3.52951)"><g class="a12 leaf node n2 p0 sample" transform="translate(-7.6 4.33645)"><path class="edge" d="M 0 0 V -4.33645 H 7.6" /><rect class="sym" height="6" width="6" x="-3" y="-3" /><text class="lab" transform="translate(0 11)">2</text></g><g class="a12 leaf node n3 p0 sample" transform="translate(7.6 4.33645)"><path class="edge" d="M 0 0 V -4.33645 H -7.6" /><rect class="sym" height="6" width="6" x="-3" y="-3" /><text class="lab" transform="translate(0 11)">3</text></g><path class="edge" d="M 0 0 V -3.52951 H 11.4" /><circle class="sym" cx="0" cy="0" r="3" /><text class="lab lft" transform="translate(-3 -7.0)">12</text></g><path class="edge" d="M 0 0 V -19.2126 H -17.1" /><circle class="sym" cx="0" cy="0" r="3" /><text class="lab rgt" transform="translate(3 -7.0)">13</text></g><path class="edge" d="M 0 0 V -24.2683 H -21.85" /><circle class="sym" cx="0" cy="0" r="3" /><text class="lab rgt" transform="translate(3 -7.0)">18</text></g><g class="a21 c1 node n20 p0" transform="translate(-21.85 11.6881)"><g class="a20 c2 node n17 p0" transform="translate(0.0 17.2731)"><g class="a17 c2 node n16 p0" transform="translate(-11.4 0.287047)"><g class="a16 leaf node n0 p0 sample" transform="translate(-7.6 22.0985)"><path class="edge" d="M 0 0 V -22.0985 H 7.6" /><rect class="sym" height="6" width="6" x="-3" y="-3" /><text class="lab" transform="translate(0 11)">0</text></g><g class="a16 leaf node n4 p0 sample" transform="translate(7.6 22.0985)"><path class="edge" d="M 0 0 V -22.0985 H -7.6" /><rect class="sym" height="6" width="6" x="-3" y="-3" /><text class="lab" transform="translate(0 11)">4</text></g><path class="edge" d="M 0 0 V -0.287047 H 11.4" /><circle class="sym" cx="0" cy="0" r="3" /><text class="lab lft" transform="translate(-3 -7.0)">16</text></g><g class="a17 c1 node n15 p0" transform="translate(11.4 9.17307)"><g class="a15 leaf node n6 p0 sample" transform="translate(0.0 13.2125)"><path class="edge" d="M 0 0 V -13.2125 H 0.0" /><rect class="sym" height="6" width="6" x="-3" y="-3" /><text class="lab" transform="translate(0 11)">6</text></g><path class="edge" d="M 0 0 V -9.17307 H -11.4" /><circle class="sym" cx="0" cy="0" r="3" /><text class="lab rgt" transform="translate(3 -7.0)">15</text></g><path class="edge" d="M 0 0 V -17.2731 H 0.0" /><circle class="sym" cx="0" cy="0" r="3" /><text class="lab lft" transform="translate(-3 -7.0)">17</text></g><path class="edge" d="M 0 0 V -11.6881 H 21.85" /><circle class="sym" cx="0" cy="0" r="3" /><text class="lab lft" transform="translate(-3 -7.0)">20</text></g><path class="edge" d="M 0 0 V -43.2241 H 0.0" /><circle class="sym" cx="0" cy="0" r="3" /><text class="lab lft" transform="translate(-3 -7.0)">21</text></g><path class="edge" d="M 0 0 V -0.029161 H 38.475" /><circle class="sym" cx="0" cy="0" r="3" /><text class="lab lft" transform="translate(-3 -7.0)">29</text></g><circle class="sym" cx="0" cy="0" r="3" /><text class="lab" transform="translate(0 -11)">30</text></g></g></g></g></g></svg>
