<svg baseProfile="full" height="200" version="1.1" width="600" xmlns="http://www.w3.org/2000/svg" xmlns:ev="http://www.w3.org/2001/xml-events" xmlns:xlink="http://www.w3.org/1999/xlink"><defs><style type="text/css"><![CDATA[.background path {fill: #808080; fill-opacity: 0}.background path:nth-child(odd) {fill-opacity: .1}.axes {font-size: 14px}.x-axis .tick .lab {font-weight: bold; dominant-baseline: hanging}.axes, .tree {font-size: 14px; text-anchor: middle}.axes line, .edge {stroke: black; fill: none}.y-axis .grid {stroke: #FAFAFA}.node > .sym {fill: black; stroke: none}.site > .sym {stroke: black}.mut text {fill: red; font-style: italic}.mut.extra text {fill: hotpink}.mut line {fill: none; stroke: none}.mut .sym {fill: none; stroke: red}.mut.extra .sym {stroke: hotpink}.node .mut .sym {stroke-width: 1.5px}.tree text, .tree-sequence text {dominant-baseline: central}.plotbox .lab.lft {text-anchor: end}.plotbox .lab.rgt {text-anchor: start}]]></style></defs><g class="tree-sequence"><g class="background"><path d="M20,0 l186.667,0 l0,138.2 l-113.385,25 l0,5 l-73.2819,0 l0,-5 l0,-25 l0,-138.2z" /><path d="M206.667,0 l186.667,0 l0,138.2 l168.572,25 l0,5 l-468.623,0 l0,-5 l113.385,-25 l0,-138.2z" /><path d="M393.333,0 l186.667,0 l0,138.2 l0,25 l0,5 l-18.0948,0 l0,-5 l-168.572,-25 l0,-138.2z" /></g><g class="axes"><g class="x-axis"><g transform="translate(300 200)"><text class="lab" text-anchor="middle" transform="translate(0 -11)">Genome position</text></g><line x1="20" x2="580" y1="163.2" y2="163.2" /><g class="ticks"><g class="tick" transform="translate(20 163.2)"><line x1="0" x2="0" y1="0" y2="5" /><g transform="translate(0 6)"><text class="lab">0.00</text></g></g><g class="tick" transform="translate(93.2819 163.2)"><line x1="0" x2="0" y1="0" y2="5" /><g transform="translate(0 6)"><text class="lab">130.86</text></g></g><g class="tick" transform="translate(561.905 163.2)"><line x1="0" x2="0" y1="0" y2="5" /><g transform="translate(0 6)"><text class="lab">967.69</text></g></g><g class="tick" transform="translate(580 163.2)"><line x1="0" x2="0" y1="0" y2="5" /><g transform="translate(0 6)"><text class="lab">1000.00</text></g></g></g></g></g><g class="plotbox trees"><g class="tree t0" transform="translate(20 0)"><g class="plotbox"><g class="c2 node n24 p0 root" transform="translate(113.958 26.8)"><g class="a24 c2 node n22 p0" transform="translate(-38.0417 63.4107)"><g class="a22 c2 node n12 p0" transform="translate(-30.25 27.5742)"><g class="a12 leaf node n2 p0 sample" transform="translate(11 3.6151)"><path class="edge" d="M 0 0 V -3.6151 H -11" /><rect class="sym" height="6" width="6" x="-3" y="-3" /><text class="lab" transform="translate(0 11)">2</text></g><g class="a12 c2 node n11 p0" transform="translate(-11 0.231912)"><g class="a11 leaf node n0 p0 sample" transform="translate(-7.33333 3.38319)"><path class="edge" d="M 0 0 V -3.38319 H 7.33333" /><rect class="sym" height="6" width="6" x="-3" y="-3" /><text class="lab" transform="translate(0 11)">0</text></g><g class="a11 leaf node n8 p0 sample" transform="translate(7.33333 3.38319)"><path class="edge" d="M 0 0 V -3.38319 H -7.33333" /><rect class="sym" height="6" width="6" x="-3" y="-3" /><text class="lab" transform="translate(0 11)">8</text></g><path class="edge" d="M 0 0 V -0.231912 H 11" /><circle class="sym" cx="0" cy="0" r="3" /><text class="lab lft" transform="translate(-3 -7.0)">11</text></g><path class="edge" d="M 0 0 V -27.5742 H 30.25" /><circle class="sym" cx="0" cy="0" r="3" /><text class="lab lft" transform="translate(-3 -7.0)">12</text></g><g class="a22 c2 node n21 p0" transform="translate(30.25 2.39955)"><g class="a21 c2 node n10 p0" transform="translate(16.5 27.4765)"><g class="a10 leaf node n4 p0 sample" transform="translate(-7.33333 1.31325)"><path class="edge" d="M 0 0 V -1.31325 H 7.33333" /><rect class="sym" height="6" width="6" x="-3" y="-3" /><text class="lab" transform="translate(0 11)">4</text></g><g class="a10 leaf node n7 p0 sample" transform="translate(7.33333 1.31325)"><path class="edge" d="M 0 0 V -1.31325 H -7.33333" /><rect class="sym" height="6" width="6" x="-3" y="-3" /><text class="lab" transform="translate(0 11)">7</text></g><path class="edge" d="M 0 0 V -27.4765 H -16.5" /><circle class="sym" cx="0" cy="0" r="3" /><text class="lab rgt" transform="translate(3 -7.0)">10</text></g><g class="a21 c1 node n19 p0" transform="translate(-16.5 3.2535)"><g class="a19 c1 node n17 p0" transform="translate(0.0 7.54231)"><g class="a17 c2 node n16 p0" transform="translate(0.0 1.13845)"><g class="a16 leaf node n6 p0 sample" transform="translate(11 16.8555)"><path class="edge" d="M 0 0 V -16.8555 H -11" /><rect class="sym" height="6" width="6" x="-3" y="-3" /><text class="lab" transform="translate(0 11)">6</text></g><g class="a16 c2 node n15 p0" transform="translate(-11 6.02904)"><g class="a15 leaf node n9 p0 sample" transform="translate(7.33333 10.8265)"><path class="edge" d="M 0 0 V -10.8265 H -7.33333" /><rect class="sym" height="6" width="6" x="-3" y="-3" /><text class="lab" transform="translate(0 11)">9</text></g><g class="a15 c1 node n13 p0" transform="translate(-7.33333 1.00082)"><g class="a13 leaf node n1 p0 sample" transform="translate(0.0 9.82565)"><path class="edge" d="M 0 0 V -9.82565 H 0.0" /><rect class="sym" height="6" width="6" x="-3" y="-3" /><text class="lab" transform="translate(0 11)">1</text></g><path class="edge" d="M 0 0 V -1.00082 H 7.33333" /><circle class="sym" cx="0" cy="0" r="3" /><text class="lab lft" transform="translate(-3 -7.0)">13</text></g><path class="edge" d="M 0 0 V -6.02904 H 11" /><circle class="sym" cx="0" cy="0" r="3" /><text class="lab lft" transform="translate(-3 -7.0)">15</text></g><path class="edge" d="M 0 0 V -1.13845 H 0.0" /><circle class="sym" cx="0" cy="0" r="3" /><text class="lab lft" transform="translate(-3 -7.0)">16</text></g><path class="edge" d="M 0 0 V -7.54231 H 0.0" /><circle class="sym" cx="0" cy="0" r="3" /><text class="lab lft" transform="translate(-3 -7.0)">17</text></g><path class="edge" d="M 0 0 V -3.2535 H 16.5" /><circle class="sym" cx="0" cy="0" r="3" /><text class="lab lft" transform="translate(-3 -7.0)">19</text></g><path class="edge" d="M 0 0 V -2.39955 H -30.25" /><circle class="sym" cx="0" cy="0" r="3" /><text class="lab rgt" transform="translate(3 -7.0)">21</text></g><path class="edge" d="M 0 0 V -63.4107 H 38.0417" /><circle class="sym" cx="0" cy="0" r="3" /><text class="lab lft" transform="translate(-3 -7.0)">22</text></g><g class="a24 c1 node n23 p0" transform="translate(38.0417 35.8142)"><g class="a23 c2 node n18 p0" transform="translate(0.0 35.2876)"><g class="a18 leaf node n3 p0 sample" transform="translate(-7.33333 23.4982)"><path class="edge" d="M 0 0 V -23.4982 H 7.33333" /><rect class="sym" height="6" width="6" x="-3" y="-3" /><text class="lab" transform="translate(0 11)">3</text></g><g class="a18 leaf node n5 p0 sample" transform="translate(7.33333 23.4982)"><path class="edge" d="M 0 0 V -23.4982 H -7.33333" /><rect class="sym" height="6" width="6" x="-3" y="-3" /><text class="lab" transform="translate(0 11)">5</text></g><path class="edge" d="M 0 0 V -35.2876 H 0.0" /><circle class="sym" cx="0" cy="0" r="3" /><text class="lab lft" transform="translate(-3 -7.0)">18</text></g><path class="edge" d="M 0 0 V -35.8142 H -38.0417" /><circle class="sym" cx="0" cy="0" r="3" /><text class="lab rgt" transform="translate(3 -7.0)">23</text></g><circle class="sym" cx="0" cy="0" r="3" /><text class="lab" transform="translate(0 -11)">24</text></g></g></g><g class="tree t1" transform="translate(206.667 0)"><g class="plotbox"><g class="c2 node n24 p0 root" transform="translate(113.042 26.8)"><g class="a24 c2 node n22 p0" transform="translate(-38.9583 63.4107)"><g class="a22 c2 node n12 p0" transform="translate(-28.4167 27.5742)"><g class="a12 leaf node n2 p0 sample" transform="translate(11 3.6151)"><path class="edge" d="M 0 0 V -3.6151 H -11" /><rect class="sym" height="6" width="6" x="-3" y="-3" /><text class="lab" transform="translate(0 11)">2</text></g><g class="a12 c2 node n11 p0" transform="translate(-11 0.231912)"><g class="a11 leaf node n0 p0 sample" transform="translate(-7.33333 3.38319)"><path class="edge" d="M 0 0 V -3.38319 H 7.33333" /><rect class="sym" height="6" width="6" x="-3" y="-3" /><text class="lab" transform="translate(0 11)">0</text></g><g class="a11 leaf node n8 p0 sample" transform="translate(7.33333 3.38319)"><path class="edge" d="M 0 0 V -3.38319 H -7.33333" /><rect class="sym" height="6" width="6" x="-3" y="-3" /><text class="lab" transform="translate(0 11)">8</text></g><path class="edge" d="M 0 0 V -0.231912 H 11" /><circle class="sym" cx="0" cy="0" r="3" /><text class="lab lft" transform="translate(-3 -7.0)">11</text></g><path class="edge" d="M 0 0 V -27.5742 H 28.4167" /><circle class="sym" cx="0" cy="0" r="3" /><text class="lab lft" transform="translate(-3 -7.0)">12</text></g><g class="a22 c2 node n21 p0" transform="translate(28.4167 2.39955)"><g class="a21 c2 node n10 p0" transform="translate(20.1667 27.4765)"><g class="a10 leaf node n4 p0 sample" transform="translate(-7.33333 1.31325)"><path class="edge" d="M 0 0 V -1.31325 H 7.33333" /><rect class="sym" height="6" width="6" x="-3" y="-3" /><text class="lab" transform="translate(0 11)">4</text></g><g class="a10 leaf node n7 p0 sample" transform="translate(7.33333 1.31325)"><path class="edge" d="M 0 0 V -1.31325 H -7.33333" /><rect class="sym" height="6" width="6" x="-3" y="-3" /><text class="lab" transform="translate(0 11)">7</text></g><path class="edge" d="M 0 0 V -27.4765 H -20.1667" /><circle class="sym" cx="0" cy="0" r="3" /><text class="lab rgt" transform="translate(3 -7.0)">10</text></g><g class="a21 c1 node n19 p0" transform="translate(-20.1667 3.2535)"><g class="a19 c2 node n17 p0" transform="translate(0.0 7.54231)"><g class="a17 c2 node n16 p0" transform="translate(11 1.13845)"><g class="a16 leaf node n6 p0 sample" transform="translate(-7.33333 16.8555)"><path class="edge" d="M 0 0 V -16.8555 H 7.33333" /><rect class="sym" height="6" width="6" x="-3" y="-3" /><text class="lab" transform="translate(0 11)">6</text></g><g class="a16 c1 node n15 p0" transform="translate(7.33333 6.02904)"><g class="a15 leaf node n9 p0 sample" transform="translate(0.0 10.8265)"><path class="edge" d="M 0 0 V -10.8265 H 0.0" /><rect class="sym" height="6" width="6" x="-3" y="-3" /><text class="lab" transform="translate(0 11)">9</text></g><path class="edge" d="M 0 0 V -6.02904 H -7.33333" /><circle class="sym" cx="0" cy="0" r="3" /><text class="lab rgt" transform="translate(3 -7.0)">15</text></g><path class="edge" d="M 0 0 V -1.13845 H -11" /><circle class="sym" cx="0" cy="0" r="3" /><text class="lab rgt" transform="translate(3 -7.0)">16</text></g><g class="a17 c1 node n14 p0" transform="translate(-11 8.16832)"><g class="a14 leaf node n1 p0 sample" transform="translate(0.0 9.82565)"><path class="edge" d="M 0 0 V -9.82565 H 0.0" /><rect class="sym" height="6" width="6" x="-3" y="-3" /><text class="lab" transform="translate(0 11)">1</text></g><path class="edge" d="M 0 0 V -8.16832 H 11" /><circle class="sym" cx="0" cy="0" r="3" /><text class="lab lft" transform="translate(-3 -7.0)">14</text></g><path class="edge" d="M 0 0 V -7.54231 H 0.0" /><circle class="sym" cx="0" cy="0" r="3" /><text class="lab lft" transform="translate(-3 -7.0)">17</text></g><path class="edge" d="M 0 0 V -3.2535 H 20.1667" /><circle class="sym" cx="0" cy="0" r="3" /><text class="lab lft" transform="translate(-3 -7.0)">19</text></g><path class="edge" d="M 0 0 V -2.39955 H -28.4167" /><circle class="sym" cx="0" cy="0" r="3" /><text class="lab rgt" transform="translate(3 -7.0)">21</text></g><path class="edge" d="M 0 0 V -63.4107 H 38.9583" /><circle class="sym" cx="0" cy="0" r="3" /><text class="lab lft" transform="translate(-3 -7.0)">22</text></g><g class="a24 c1 node n23 p0" transform="translate(38.9583 35.8142)"><g class="a23 c2 node n18 p0" transform="translate(0.0 35.2876)"><g class="a18 leaf node n3 p0 sample" transform="translate(-7.33333 23.4982)"><path class="edge" d="M 0 0 V -23.4982 H 7.33333" /><rect class="sym" height="6" width="6" x="-3" y="-3" /><text class="lab" transform="translate(0 11)">3</text></g><g class="a18 leaf node n5 p0 sample" transform="translate(7.33333 23.4982)"><path class="edge" d="M 0 0 V -23.4982 H -7.33333" /><rect class="sym" height="6" width="6" x="-3" y="-3" /><text class="lab" transform="translate(0 11)">5</text></g><path class="edge" d="M 0 0 V -35.2876 H 0.0" /><circle class="sym" cx="0" cy="0" r="3" /><text class="lab lft" transform="translate(-3 -7.0)">18</text></g><path class="edge" d="M 0 0 V -35.8142 H -38.9583" /><circle class="sym" cx="0" cy="0" r="3" /><text class="lab rgt" transform="translate(3 -7.0)">23</text></g><circle class="sym" cx="0" cy="0" r="3" /><text class="lab" transform="translate(0 -11)">24</text></g></g></g><g class="tree t2" transform="translate(393.333 0)"><g class="plotbox"><g class="c2 node n24 p0 root" transform="translate(97 26.8)"><g class="a24 c2 node n22 p0" transform="translate(-34.8333 63.4107)"><g class="a22 c2 node n12 p0" transform="translate(-16.5 27.5742)"><g class="a12 leaf node n2 p0 sample" transform="translate(11 3.6151)"><path class="edge" d="M 0 0 V -3.6151 H -11" /><rect class="sym" height="6" width="6" x="-3" y="-3" /><text class="lab" transform="translate(0 11)">2</text></g><g class="a12 c2 node n11 p0" transform="translate(-11 0.231912)"><g class="a11 leaf node n0 p0 sample" transform="translate(-7.33333 3.38319)"><path class="edge" d="M 0 0 V -3.38319 H 7.33333" /><rect class="sym" height="6" width="6" x="-3" y="-3" /><text class="lab" transform="translate(0 11)">0</text></g><g class="a11 leaf node n8 p0 sample" transform="translate(7.33333 3.38319)"><path class="edge" d="M 0 0 V -3.38319 H -7.33333" /><rect class="sym" height="6" width="6" x="-3" y="-3" /><text class="lab" transform="translate(0 11)">8</text></g><path class="edge" d="M 0 0 V -0.231912 H 11" /><circle class="sym" cx="0" cy="0" r="3" /><text class="lab lft" transform="translate(-3 -7.0)">11</text></g><path class="edge" d="M 0 0 V -27.5742 H 16.5" /><circle class="sym" cx="0" cy="0" r="3" /><text class="lab lft" transform="translate(-3 -7.0)">12</text></g><g class="a22 c1 node n21 p0" transform="translate(16.5 2.39955)"><g class="a21 c2 node n10 p0" transform="translate(0.0 27.4765)"><g class="a10 leaf node n4 p0 sample" transform="translate(-7.33333 1.31325)"><path class="edge" d="M 0 0 V -1.31325 H 7.33333" /><rect class="sym" height="6" width="6" x="-3" y="-3" /><text class="lab" transform="translate(0 11)">4</text></g><g class="a10 leaf node n7 p0 sample" transform="translate(7.33333 1.31325)"><path class="edge" d="M 0 0 V -1.31325 H -7.33333" /><rect class="sym" height="6" width="6" x="-3" y="-3" /><text class="lab" transform="translate(0 11)">7</text></g><path class="edge" d="M 0 0 V -27.4765 H 0.0" /><circle class="sym" cx="0" cy="0" r="3" /><text class="lab lft" transform="translate(-3 -7.0)">10</text></g><path class="edge" d="M 0 0 V -2.39955 H -16.5" /><circle class="sym" cx="0" cy="0" r="3" /><text class="lab rgt" transform="translate(3 -7.0)">21</text></g><path class="edge" d="M 0 0 V -63.4107 H 34.8333" /><circle class="sym" cx="0" cy="0" r="3" /><text class="lab lft" transform="translate(-3 -7.0)">22</text></g><g class="a24 c2 node n23 p0" transform="translate(34.8333 35.8142)"><g class="a23 c2 node n18 p0" transform="translate(20.1667 35.2876)"><g class="a18 leaf node n3 p0 sample" transform="translate(-7.33333 23.4982)"><path class="edge" d="M 0 0 V -23.4982 H 7.33333" /><rect class="sym" height="6" width="6" x="-3" y="-3" /><text class="lab" transform="translate(0 11)">3</text></g><g class="a18 leaf node n5 p0 sample" transform="translate(7.33333 23.4982)"><path class="edge" d="M 0 0 V -23.4982 H -7.33333" /><rect class="sym" height="6" width="6" x="-3" y="-3" /><text class="lab" transform="translate(0 11)">5</text></g><path class="edge" d="M 0 0 V -35.2876 H -20.1667" /><circle class="sym" cx="0" cy="0" r="3" /><text class="lab rgt" transform="translate(3 -7.0)">18</text></g><g class="a23 c1 node n20 p0" transform="translate(-20.1667 33.2495)"><g class="a20 c2 node n17 p0" transform="translate(0.0 7.54231)"><g class="a17 c2 node n16 p0" transform="translate(11 1.13845)"><g class="a16 leaf node n6 p0 sample" transform="translate(-7.33333 16.8555)"><path class="edge" d="M 0 0 V -16.8555 H 7.33333" /><rect class="sym" height="6" width="6" x="-3" y="-3" /><text class="lab" transform="translate(0 11)">6</text></g><g class="a16 c1 node n15 p0" transform="translate(7.33333 6.02904)"><g class="a15 leaf node n9 p0 sample" transform="translate(0.0 10.8265)"><path class="edge" d="M 0 0 V -10.8265 H 0.0" /><rect class="sym" height="6" width="6" x="-3" y="-3" /><text class="lab" transform="translate(0 11)">9</text></g><path class="edge" d="M 0 0 V -6.02904 H -7.33333" /><circle class="sym" cx="0" cy="0" r="3" /><text class="lab rgt" transform="translate(3 -7.0)">15</text></g><path class="edge" d="M 0 0 V -1.13845 H -11" /><circle class="sym" cx="0" cy="0" r="3" /><text class="lab rgt" transform="translate(3 -7.0)">16</text></g><g class="a17 c1 node n14 p0" transform="translate(-11 8.16832)"><g class="a14 leaf node n1 p0 sample" transform="translate(0.0 9.82565)"><path class="edge" d="M 0 0 V -9.82565 H 0.0" /><rect class="sym" height="6" width="6" x="-3" y="-3" /><text class="lab" transform="translate(0 11)">1</text></g><path class="edge" d="M 0 0 V -8.16832 H 11" /><circle class="sym" cx="0" cy="0" r="3" /><text class="lab lft" transform="translate(-3 -7.0)">14</text></g><path class="edge" d="M 0 0 V -7.54231 H 0.0" /><circle class="sym" cx="0" cy="0" r="3" /><text class="lab lft" transform="translate(-3 -7.0)">17</text></g><path class="edge" d="M 0 0 V -33.2495 H 20.1667" /><circle class="sym" cx="0" cy="0" r="3" /><text class="lab lft" transform="translate(-3 -7.0)">20</text></g><path class="edge" d="M 0 0 V -35.8142 H -34.8333" /><circle class="sym" cx="0" cy="0" r="3" /><text class="lab rgt" transform="translate(3 -7.0)">23</text></g><circle class="sym" cx="0" cy="0" r="3" /><text class="lab" transform="translate(0 -11)">24</text></g></g></g></g></g></svg>
