<svg baseProfile="full" height="200" version="1.1" width="800" xmlns="http://www.w3.org/2000/svg" xmlns:ev="http://www.w3.org/2001/xml-events" xmlns:xlink="http://www.w3.org/1999/xlink"><defs><style type="text/css"><![CDATA[.background path {fill: #808080; fill-opacity: 0}.background path:nth-child(odd) {fill-opacity: .1}.axes {font-size: 14px}.x-axis .tick .lab {font-weight: bold; dominant-baseline: hanging}.axes, .tree {font-size: 14px; text-anchor: middle}.axes line, .edge {stroke: black; fill: none}.y-axis .grid {stroke: #FAFAFA}.node > .sym {fill: black; stroke: none}.site > .sym {stroke: black}.mut text {fill: red; font-style: italic}.mut.extra text {fill: hotpink}.mut line {fill: none; stroke: none}.mut .sym {fill: none; stroke: red}.mut.extra .sym {stroke: hotpink}.node .mut .sym {stroke-width: 1.5px}.tree text, .tree-sequence text {dominant-baseline: central}.plotbox .lab.lft {text-anchor: end}.plotbox .lab.rgt {text-anchor: start}]]></style></defs><g class="tree-sequence"><g class="background"><path d="M20,0 l190,0 l0,138.2 l-123.481,25 l0,5 l-66.519,0 l0,-5 l0,-25 l0,-138.2z" /><path d="M210,0 l190,0 l0,138.2 l-298.385,25 l0,5 l-15.096,0 l0,-5 l123.481,-25 l0,-138.2z" /><path d="M400,0 l190,0 l0,138.2 l-308.984,25 l0,5 l-179.401,0 l0,-5 l298.385,-25 l0,-138.2z" /><path d="M590,0 l190,0 l0,138.2 l0,25 l0,5 l-498.984,0 l0,-5 l308.984,-25 l0,-138.2z" /></g><g class="axes"><g class="x-axis"><g transform="translate(400 200)"><text class="lab" text-anchor="middle" transform="translate(0 -11)">Genome position</text></g><line x1="20" x2="780" y1="163.2" y2="163.2" /><g class="ticks"><g class="tick" transform="translate(20 163.2)"><line x1="0" x2="0" y1="0" y2="5" /><g transform="translate(0 6)"><text class="lab">0.00</text></g></g><g class="tick" transform="translate(86.519 163.2)"><line x1="0" x2="0" y1="0" y2="5" /><g transform="translate(0 6)"><text class="lab">87.53</text></g></g><g class="tick" transform="translate(101.615 163.2)"><line x1="0" x2="0" y1="0" y2="5" /><g transform="translate(0 6)"><text class="lab">107.39</text></g></g><g class="tick" transform="translate(281.016 163.2)"><line x1="0" x2="0" y1="0" y2="5" /><g transform="translate(0 6)"><text class="lab">343.44</text></g></g><g class="tick" transform="translate(780 163.2)"><line x1="0" x2="0" y1="0" y2="5" /><g transform="translate(0 6)"><text class="lab">1000.00</text></g></g></g></g></g><g class="plotbox trees"><g class="tree t0" transform="translate(20 0)"><g class="plotbox"><g class="c2 node n27 p0 root" transform="translate(68.2812 26.8)"><g class="a27 leaf node n0 p0 sample" transform="translate(-40.7812 94.6)"><path class="edge" d="M 0 0 V -94.6 H 40.7812" /><rect class="sym" height="6" width="6" x="-3" y="-3" /><text class="lab" transform="translate(0 11)">0</text></g><g class="a27 c2 node n26 p0" transform="translate(40.7812 1.97223)"><g class="a26 c2 node n24 p0" transform="translate(-25.3125 43.3582)"><g class="a24 c2 node n19 p0" transform="translate(-18.75 27.7351)"><g class="a19 c2 node n11 p0" transform="translate(15 16.8793)"><g class="a11 leaf node n7 p0 sample" transform="translate(-7.5 4.65525)"><path class="edge" d="M 0 0 V -4.65525 H 7.5" /><rect class="sym" height="6" width="6" x="-3" y="-3" /><text class="lab" transform="translate(0 11)">7</text></g><g class="a11 leaf node n9 p0 sample" transform="translate(7.5 4.65525)"><path class="edge" d="M 0 0 V -4.65525 H -7.5" /><rect class="sym" height="6" width="6" x="-3" y="-3" /><text class="lab" transform="translate(0 11)">9</text></g><path class="edge" d="M 0 0 V -16.8793 H -15" /><circle class="sym" cx="0" cy="0" r="3" /><text class="lab rgt" transform="translate(3 -7.0)">11</text></g><g class="a19 c1 node n17 p0" transform="translate(-15 0.229063)"><g class="a17 c2 node n10 p0" transform="translate(0.0 18.6273)"><g class="a10 leaf node n1 p0 sample" transform="translate(-7.5 2.67814)"><path class="edge" d="M 0 0 V -2.67814 H 7.5" /><rect class="sym" height="6" width="6" x="-3" y="-3" /><text class="lab" transform="translate(0 11)">1</text></g><g class="a10 leaf node n8 p0 sample" transform="translate(7.5 2.67814)"><path class="edge" d="M 0 0 V -2.67814 H -7.5" /><rect class="sym" height="6" width="6" x="-3" y="-3" /><text class="lab" transform="translate(0 11)">8</text></g><path class="edge" d="M 0 0 V -18.6273 H 0.0" /><circle class="sym" cx="0" cy="0" r="3" /><text class="lab lft" transform="translate(-3 -7.0)">10</text></g><path class="edge" d="M 0 0 V -0.229063 H 15" /><circle class="sym" cx="0" cy="0" r="3" /><text class="lab lft" transform="translate(-3 -7.0)">17</text></g><path class="edge" d="M 0 0 V -27.7351 H 18.75" /><circle class="sym" cx="0" cy="0" r="3" /><text class="lab lft" transform="translate(-3 -7.0)">19</text></g><g class="a24 c1 node n22 p0" transform="translate(18.75 3.6452)"><g class="a22 leaf node n2 p0 sample" transform="translate(0.0 45.6244)"><path class="edge" d="M 0 0 V -45.6244 H 0.0" /><rect class="sym" height="6" width="6" x="-3" y="-3" /><text class="lab" transform="translate(0 11)">2</text></g><path class="edge" d="M 0 0 V -3.6452 H -18.75" /><circle class="sym" cx="0" cy="0" r="3" /><text class="lab rgt" transform="translate(3 -7.0)">22</text></g><path class="edge" d="M 0 0 V -43.3582 H 25.3125" /><circle class="sym" cx="0" cy="0" r="3" /><text class="lab lft" transform="translate(-3 -7.0)">24</text></g><g class="a26 c2 node n25 p0" transform="translate(25.3125 32.7103)"><g class="a25 c1 node n21 p0" transform="translate(-16.875 21.1764)"><g class="a21 c1 node n15 p0" transform="translate(0.0 28.8474)"><g class="a15 c1 node n14 p0" transform="translate(0.0 2.70529)"><g class="a14 leaf node n3 p0 sample" transform="translate(0.0 7.18837)"><path class="edge" d="M 0 0 V -7.18837 H 0.0" /><rect class="sym" height="6" width="6" x="-3" y="-3" /><text class="lab" transform="translate(0 11)">3</text></g><path class="edge" d="M 0 0 V -2.70529 H 0.0" /><circle class="sym" cx="0" cy="0" r="3" /><text class="lab lft" transform="translate(-3 -7.0)">14</text></g><path class="edge" d="M 0 0 V -28.8474 H 0.0" /><circle class="sym" cx="0" cy="0" r="3" /><text class="lab lft" transform="translate(-3 -7.0)">15</text></g><path class="edge" d="M 0 0 V -21.1764 H 16.875" /><circle class="sym" cx="0" cy="0" r="3" /><text class="lab lft" transform="translate(-3 -7.0)">21</text></g><g class="a25 c2 node n23 p0" transform="translate(16.875 13.926)"><g class="a23 c1 node n12 p0" transform="translate(11.25 41.3249)"><g class="a12 leaf node n6 p0 sample" transform="translate(0.0 4.66654)"><path class="edge" d="M 0 0 V -4.66654 H 0.0" /><rect class="sym" height="6" width="6" x="-3" y="-3" /><text class="lab" transform="translate(0 11)">6</text></g><path class="edge" d="M 0 0 V -41.3249 H -11.25" /><circle class="sym" cx="0" cy="0" r="3" /><text class="lab rgt" transform="translate(3 -7.0)">12</text></g><g class="a23 c2 node n20 p0" transform="translate(-11.25 8.70353)"><g class="a20 leaf node n4 p0 sample" transform="translate(-7.5 37.2879)"><path class="edge" d="M 0 0 V -37.2879 H 7.5" /><rect class="sym" height="6" width="6" x="-3" y="-3" /><text class="lab" transform="translate(0 11)">4</text></g><g class="a20 leaf node n5 p0 sample" transform="translate(7.5 37.2879)"><path class="edge" d="M 0 0 V -37.2879 H -7.5" /><rect class="sym" height="6" width="6" x="-3" y="-3" /><text class="lab" transform="translate(0 11)">5</text></g><path class="edge" d="M 0 0 V -8.70353 H 11.25" /><circle class="sym" cx="0" cy="0" r="3" /><text class="lab lft" transform="translate(-3 -7.0)">20</text></g><path class="edge" d="M 0 0 V -13.926 H -16.875" /><circle class="sym" cx="0" cy="0" r="3" /><text class="lab rgt" transform="translate(3 -7.0)">23</text></g><path class="edge" d="M 0 0 V -32.7103 H -25.3125" /><circle class="sym" cx="0" cy="0" r="3" /><text class="lab rgt" transform="translate(3 -7.0)">25</text></g><path class="edge" d="M 0 0 V -1.97223 H -40.7812" /><circle class="sym" cx="0" cy="0" r="3" /><text class="lab rgt" transform="translate(3 -7.0)">26</text></g><circle class="sym" cx="0" cy="0" r="3" /><text class="lab" transform="translate(0 -11)">27</text></g></g></g><g class="tree t1" transform="translate(210 0)"><g class="plotbox"><g class="c2 node n27 p0 root" transform="translate(70.625 26.8)"><g class="a27 leaf node n0 p0 sample" transform="translate(-43.125 94.6)"><path class="edge" d="M 0 0 V -94.6 H 43.125" /><rect class="sym" height="6" width="6" x="-3" y="-3" /><text class="lab" transform="translate(0 11)">0</text></g><g class="a27 c2 node n26 p0" transform="translate(43.125 1.97223)"><g class="a26 c2 node n24 p0" transform="translate(30 43.3582)"><g class="a24 c1 node n19 p0" transform="translate(11.25 27.7351)"><g class="a19 c2 node n11 p0" transform="translate(0.0 16.8793)"><g class="a11 leaf node n7 p0 sample" transform="translate(-7.5 4.65525)"><path class="edge" d="M 0 0 V -4.65525 H 7.5" /><rect class="sym" height="6" width="6" x="-3" y="-3" /><text class="lab" transform="translate(0 11)">7</text></g><g class="a11 leaf node n9 p0 sample" transform="translate(7.5 4.65525)"><path class="edge" d="M 0 0 V -4.65525 H -7.5" /><rect class="sym" height="6" width="6" x="-3" y="-3" /><text class="lab" transform="translate(0 11)">9</text></g><path class="edge" d="M 0 0 V -16.8793 H 0.0" /><circle class="sym" cx="0" cy="0" r="3" /><text class="lab lft" transform="translate(-3 -7.0)">11</text></g><path class="edge" d="M 0 0 V -27.7351 H -11.25" /><circle class="sym" cx="0" cy="0" r="3" /><text class="lab rgt" transform="translate(3 -7.0)">19</text></g><g class="a24 c1 node n22 p0" transform="translate(-11.25 3.6452)"><g class="a22 leaf node n2 p0 sample" transform="translate(0.0 45.6244)"><path class="edge" d="M 0 0 V -45.6244 H 0.0" /><rect class="sym" height="6" width="6" x="-3" y="-3" /><text class="lab" transform="translate(0 11)">2</text></g><path class="edge" d="M 0 0 V -3.6452 H 11.25" /><circle class="sym" cx="0" cy="0" r="3" /><text class="lab lft" transform="translate(-3 -7.0)">22</text></g><path class="edge" d="M 0 0 V -43.3582 H -30" /><circle class="sym" cx="0" cy="0" r="3" /><text class="lab rgt" transform="translate(3 -7.0)">24</text></g><g class="a26 c2 node n25 p0" transform="translate(-30 32.7103)"><g class="a25 c2 node n21 p0" transform="translate(-22.5 21.1764)"><g class="a21 c1 node n15 p0" transform="translate(11.25 28.8474)"><g class="a15 c1 node n14 p0" transform="translate(0.0 2.70529)"><g class="a14 leaf node n3 p0 sample" transform="translate(0.0 7.18837)"><path class="edge" d="M 0 0 V -7.18837 H 0.0" /><rect class="sym" height="6" width="6" x="-3" y="-3" /><text class="lab" transform="translate(0 11)">3</text></g><path class="edge" d="M 0 0 V -2.70529 H 0.0" /><circle class="sym" cx="0" cy="0" r="3" /><text class="lab lft" transform="translate(-3 -7.0)">14</text></g><path class="edge" d="M 0 0 V -28.8474 H -11.25" /><circle class="sym" cx="0" cy="0" r="3" /><text class="lab rgt" transform="translate(3 -7.0)">15</text></g><g class="a21 c1 node n18 p0" transform="translate(-11.25 17.4356)"><g class="a18 c2 node n10 p0" transform="translate(0.0 18.6273)"><g class="a10 leaf node n1 p0 sample" transform="translate(-7.5 2.67814)"><path class="edge" d="M 0 0 V -2.67814 H 7.5" /><rect class="sym" height="6" width="6" x="-3" y="-3" /><text class="lab" transform="translate(0 11)">1</text></g><g class="a10 leaf node n8 p0 sample" transform="translate(7.5 2.67814)"><path class="edge" d="M 0 0 V -2.67814 H -7.5" /><rect class="sym" height="6" width="6" x="-3" y="-3" /><text class="lab" transform="translate(0 11)">8</text></g><path class="edge" d="M 0 0 V -18.6273 H 0.0" /><circle class="sym" cx="0" cy="0" r="3" /><text class="lab lft" transform="translate(-3 -7.0)">10</text></g><path class="edge" d="M 0 0 V -17.4356 H 11.25" /><circle class="sym" cx="0" cy="0" r="3" /><text class="lab lft" transform="translate(-3 -7.0)">18</text></g><path class="edge" d="M 0 0 V -21.1764 H 22.5" /><circle class="sym" cx="0" cy="0" r="3" /><text class="lab lft" transform="translate(-3 -7.0)">21</text></g><g class="a25 c2 node n23 p0" transform="translate(22.5 13.926)"><g class="a23 c1 node n12 p0" transform="translate(11.25 41.3249)"><g class="a12 leaf node n6 p0 sample" transform="translate(0.0 4.66654)"><path class="edge" d="M 0 0 V -4.66654 H 0.0" /><rect class="sym" height="6" width="6" x="-3" y="-3" /><text class="lab" transform="translate(0 11)">6</text></g><path class="edge" d="M 0 0 V -41.3249 H -11.25" /><circle class="sym" cx="0" cy="0" r="3" /><text class="lab rgt" transform="translate(3 -7.0)">12</text></g><g class="a23 c2 node n20 p0" transform="translate(-11.25 8.70353)"><g class="a20 leaf node n4 p0 sample" transform="translate(-7.5 37.2879)"><path class="edge" d="M 0 0 V -37.2879 H 7.5" /><rect class="sym" height="6" width="6" x="-3" y="-3" /><text class="lab" transform="translate(0 11)">4</text></g><g class="a20 leaf node n5 p0 sample" transform="translate(7.5 37.2879)"><path class="edge" d="M 0 0 V -37.2879 H -7.5" /><rect class="sym" height="6" width="6" x="-3" y="-3" /><text class="lab" transform="translate(0 11)">5</text></g><path class="edge" d="M 0 0 V -8.70353 H 11.25" /><circle class="sym" cx="0" cy="0" r="3" /><text class="lab lft" transform="translate(-3 -7.0)">20</text></g><path class="edge" d="M 0 0 V -13.926 H -22.5" /><circle class="sym" cx="0" cy="0" r="3" /><text class="lab rgt" transform="translate(3 -7.0)">23</text></g><path class="edge" d="M 0 0 V -32.7103 H 30" /><circle class="sym" cx="0" cy="0" r="3" /><text class="lab lft" transform="translate(-3 -7.0)">25</text></g><path class="edge" d="M 0 0 V -1.97223 H -43.125" /><circle class="sym" cx="0" cy="0" r="3" /><text class="lab rgt" transform="translate(3 -7.0)">26</text></g><circle class="sym" cx="0" cy="0" r="3" /><text class="lab" transform="translate(0 -11)">27</text></g></g></g><g class="tree t2" transform="translate(400 0)"><g class="plotbox"><g class="c2 node n27 p0 root" transform="translate(71.5625 26.8)"><g class="a27 leaf node n0 p0 sample" transform="translate(-44.0625 94.6)"><path class="edge" d="M 0 0 V -94.6 H 44.0625" /><rect class="sym" height="6" width="6" x="-3" y="-3" /><text class="lab" transform="translate(0 11)">0</text></g><g class="a27 c2 node n26 p0" transform="translate(44.0625 1.97223)"><g class="a26 c2 node n24 p0" transform="translate(28.125 43.3582)"><g class="a24 c1 node n19 p0" transform="translate(11.25 27.7351)"><g class="a19 c2 node n11 p0" transform="translate(0.0 16.8793)"><g class="a11 leaf node n7 p0 sample" transform="translate(-7.5 4.65525)"><path class="edge" d="M 0 0 V -4.65525 H 7.5" /><rect class="sym" height="6" width="6" x="-3" y="-3" /><text class="lab" transform="translate(0 11)">7</text></g><g class="a11 leaf node n9 p0 sample" transform="translate(7.5 4.65525)"><path class="edge" d="M 0 0 V -4.65525 H -7.5" /><rect class="sym" height="6" width="6" x="-3" y="-3" /><text class="lab" transform="translate(0 11)">9</text></g><path class="edge" d="M 0 0 V -16.8793 H 0.0" /><circle class="sym" cx="0" cy="0" r="3" /><text class="lab lft" transform="translate(-3 -7.0)">11</text></g><path class="edge" d="M 0 0 V -27.7351 H -11.25" /><circle class="sym" cx="0" cy="0" r="3" /><text class="lab rgt" transform="translate(3 -7.0)">19</text></g><g class="a24 c1 node n22 p0" transform="translate(-11.25 3.6452)"><g class="a22 leaf node n2 p0 sample" transform="translate(0.0 45.6244)"><path class="edge" d="M 0 0 V -45.6244 H 0.0" /><rect class="sym" height="6" width="6" x="-3" y="-3" /><text class="lab" transform="translate(0 11)">2</text></g><path class="edge" d="M 0 0 V -3.6452 H 11.25" /><circle class="sym" cx="0" cy="0" r="3" /><text class="lab lft" transform="translate(-3 -7.0)">22</text></g><path class="edge" d="M 0 0 V -43.3582 H -28.125" /><circle class="sym" cx="0" cy="0" r="3" /><text class="lab rgt" transform="translate(3 -7.0)">24</text></g><g class="a26 c2 node n25 p0" transform="translate(-28.125 32.7103)"><g class="a25 c2 node n21 p0" transform="translate(-22.5 21.1764)"><g class="a21 c1 node n15 p0" transform="translate(15 28.8474)"><g class="a15 c2 node n14 p0" transform="translate(0.0 2.70529)"><g class="a14 leaf node n3 p0 sample" transform="translate(-7.5 7.18837)"><path class="edge" d="M 0 0 V -7.18837 H 7.5" /><rect class="sym" height="6" width="6" x="-3" y="-3" /><text class="lab" transform="translate(0 11)">3</text></g><g class="a14 c1 node n13 p0" transform="translate(7.5 2.52183)"><g class="a13 leaf node n6 p0 sample" transform="translate(0.0 4.66654)"><path class="edge" d="M 0 0 V -4.66654 H 0.0" /><rect class="sym" height="6" width="6" x="-3" y="-3" /><text class="lab" transform="translate(0 11)">6</text></g><path class="edge" d="M 0 0 V -2.52183 H -7.5" /><circle class="sym" cx="0" cy="0" r="3" /><text class="lab rgt" transform="translate(3 -7.0)">13</text></g><path class="edge" d="M 0 0 V -2.70529 H 0.0" /><circle class="sym" cx="0" cy="0" r="3" /><text class="lab lft" transform="translate(-3 -7.0)">14</text></g><path class="edge" d="M 0 0 V -28.8474 H -15" /><circle class="sym" cx="0" cy="0" r="3" /><text class="lab rgt" transform="translate(3 -7.0)">15</text></g><g class="a21 c1 node n18 p0" transform="translate(-15 17.4356)"><g class="a18 c2 node n10 p0" transform="translate(0.0 18.6273)"><g class="a10 leaf node n1 p0 sample" transform="translate(-7.5 2.67814)"><path class="edge" d="M 0 0 V -2.67814 H 7.5" /><rect class="sym" height="6" width="6" x="-3" y="-3" /><text class="lab" transform="translate(0 11)">1</text></g><g class="a10 leaf node n8 p0 sample" transform="translate(7.5 2.67814)"><path class="edge" d="M 0 0 V -2.67814 H -7.5" /><rect class="sym" height="6" width="6" x="-3" y="-3" /><text class="lab" transform="translate(0 11)">8</text></g><path class="edge" d="M 0 0 V -18.6273 H 0.0" /><circle class="sym" cx="0" cy="0" r="3" /><text class="lab lft" transform="translate(-3 -7.0)">10</text></g><path class="edge" d="M 0 0 V -17.4356 H 15" /><circle class="sym" cx="0" cy="0" r="3" /><text class="lab lft" transform="translate(-3 -7.0)">18</text></g><path class="edge" d="M 0 0 V -21.1764 H 22.5" /><circle class="sym" cx="0" cy="0" r="3" /><text class="lab lft" transform="translate(-3 -7.0)">21</text></g><g class="a25 c1 node n23 p0" transform="translate(22.5 13.926)"><g class="a23 c2 node n20 p0" transform="translate(0.0 8.70353)"><g class="a20 leaf node n4 p0 sample" transform="translate(-7.5 37.2879)"><path class="edge" d="M 0 0 V -37.2879 H 7.5" /><rect class="sym" height="6" width="6" x="-3" y="-3" /><text class="lab" transform="translate(0 11)">4</text></g><g class="a20 leaf node n5 p0 sample" transform="translate(7.5 37.2879)"><path class="edge" d="M 0 0 V -37.2879 H -7.5" /><rect class="sym" height="6" width="6" x="-3" y="-3" /><text class="lab" transform="translate(0 11)">5</text></g><path class="edge" d="M 0 0 V -8.70353 H 0.0" /><circle class="sym" cx="0" cy="0" r="3" /><text class="lab lft" transform="translate(-3 -7.0)">20</text></g><path class="edge" d="M 0 0 V -13.926 H -22.5" /><circle class="sym" cx="0" cy="0" r="3" /><text class="lab rgt" transform="translate(3 -7.0)">23</text></g><path class="edge" d="M 0 0 V -32.7103 H 28.125" /><circle class="sym" cx="0" cy="0" r="3" /><text class="lab lft" transform="translate(-3 -7.0)">25</text></g><path class="edge" d="M 0 0 V -1.97223 H -44.0625" /><circle class="sym" cx="0" cy="0" r="3" /><text class="lab rgt" transform="translate(3 -7.0)">26</text></g><circle class="sym" cx="0" cy="0" r="3" /><text class="lab" transform="translate(0 -11)">27</text></g></g></g><g class="tree t3" transform="translate(590 0)"><g class="plotbox"><g class="c2 node n27 p0 root" transform="translate(63.5938 26.8)"><g class="a27 leaf node n0 p0 sample" transform="translate(-36.0938 94.6)"><path class="edge" d="M 0 0 V -94.6 H 36.0938" /><rect class="sym" height="6" width="6" x="-3" y="-3" /><text class="lab" transform="translate(0 11)">0</text></g><g class="a27 c2 node n26 p0" transform="translate(36.0938 1.97223)"><g class="a26 c2 node n24 p0" transform="translate(34.6875 43.3582)"><g class="a24 c1 node n19 p0" transform="translate(20.625 27.7351)"><g class="a19 c2 node n11 p0" transform="translate(0.0 16.8793)"><g class="a11 leaf node n7 p0 sample" transform="translate(-7.5 4.65525)"><path class="edge" d="M 0 0 V -4.65525 H 7.5" /><rect class="sym" height="6" width="6" x="-3" y="-3" /><text class="lab" transform="translate(0 11)">7</text></g><g class="a11 leaf node n9 p0 sample" transform="translate(7.5 4.65525)"><path class="edge" d="M 0 0 V -4.65525 H -7.5" /><rect class="sym" height="6" width="6" x="-3" y="-3" /><text class="lab" transform="translate(0 11)">9</text></g><path class="edge" d="M 0 0 V -16.8793 H 0.0" /><circle class="sym" cx="0" cy="0" r="3" /><text class="lab lft" transform="translate(-3 -7.0)">11</text></g><path class="edge" d="M 0 0 V -27.7351 H -20.625" /><circle class="sym" cx="0" cy="0" r="3" /><text class="lab rgt" transform="translate(3 -7.0)">19</text></g><g class="a24 c2 node n22 p0" transform="translate(-20.625 3.6452)"><g class="a22 leaf node n2 p0 sample" transform="translate(-11.25 45.6244)"><path class="edge" d="M 0 0 V -45.6244 H 11.25" /><rect class="sym" height="6" width="6" x="-3" y="-3" /><text class="lab" transform="translate(0 11)">2</text></g><g class="a22 c1 node n16 p0" transform="translate(11.25 35.7307)"><g class="a16 c2 node n14 p0" transform="translate(0.0 2.70529)"><g class="a14 leaf node n3 p0 sample" transform="translate(-7.5 7.18837)"><path class="edge" d="M 0 0 V -7.18837 H 7.5" /><rect class="sym" height="6" width="6" x="-3" y="-3" /><text class="lab" transform="translate(0 11)">3</text></g><g class="a14 c1 node n13 p0" transform="translate(7.5 2.52183)"><g class="a13 leaf node n6 p0 sample" transform="translate(0.0 4.66654)"><path class="edge" d="M 0 0 V -4.66654 H 0.0" /><rect class="sym" height="6" width="6" x="-3" y="-3" /><text class="lab" transform="translate(0 11)">6</text></g><path class="edge" d="M 0 0 V -2.52183 H -7.5" /><circle class="sym" cx="0" cy="0" r="3" /><text class="lab rgt" transform="translate(3 -7.0)">13</text></g><path class="edge" d="M 0 0 V -2.70529 H 0.0" /><circle class="sym" cx="0" cy="0" r="3" /><text class="lab lft" transform="translate(-3 -7.0)">14</text></g><path class="edge" d="M 0 0 V -35.7307 H -11.25" /><circle class="sym" cx="0" cy="0" r="3" /><text class="lab rgt" transform="translate(3 -7.0)">16</text></g><path class="edge" d="M 0 0 V -3.6452 H 20.625" /><circle class="sym" cx="0" cy="0" r="3" /><text class="lab lft" transform="translate(-3 -7.0)">22</text></g><path class="edge" d="M 0 0 V -43.3582 H -34.6875" /><circle class="sym" cx="0" cy="0" r="3" /><text class="lab rgt" transform="translate(3 -7.0)">24</text></g><g class="a26 c2 node n25 p0" transform="translate(-34.6875 32.7103)"><g class="a25 c1 node n21 p0" transform="translate(-15 21.1764)"><g class="a21 c1 node n18 p0" transform="translate(0.0 17.4356)"><g class="a18 c2 node n10 p0" transform="translate(0.0 18.6273)"><g class="a10 leaf node n1 p0 sample" transform="translate(-7.5 2.67814)"><path class="edge" d="M 0 0 V -2.67814 H 7.5" /><rect class="sym" height="6" width="6" x="-3" y="-3" /><text class="lab" transform="translate(0 11)">1</text></g><g class="a10 leaf node n8 p0 sample" transform="translate(7.5 2.67814)"><path class="edge" d="M 0 0 V -2.67814 H -7.5" /><rect class="sym" height="6" width="6" x="-3" y="-3" /><text class="lab" transform="translate(0 11)">8</text></g><path class="edge" d="M 0 0 V -18.6273 H 0.0" /><circle class="sym" cx="0" cy="0" r="3" /><text class="lab lft" transform="translate(-3 -7.0)">10</text></g><path class="edge" d="M 0 0 V -17.4356 H 0.0" /><circle class="sym" cx="0" cy="0" r="3" /><text class="lab lft" transform="translate(-3 -7.0)">18</text></g><path class="edge" d="M 0 0 V -21.1764 H 15" /><circle class="sym" cx="0" cy="0" r="3" /><text class="lab lft" transform="translate(-3 -7.0)">21</text></g><g class="a25 c1 node n23 p0" transform="translate(15 13.926)"><g class="a23 c2 node n20 p0" transform="translate(0.0 8.70353)"><g class="a20 leaf node n4 p0 sample" transform="translate(-7.5 37.2879)"><path class="edge" d="M 0 0 V -37.2879 H 7.5" /><rect class="sym" height="6" width="6" x="-3" y="-3" /><text class="lab" transform="translate(0 11)">4</text></g><g class="a20 leaf node n5 p0 sample" transform="translate(7.5 37.2879)"><path class="edge" d="M 0 0 V -37.2879 H -7.5" /><rect class="sym" height="6" width="6" x="-3" y="-3" /><text class="lab" transform="translate(0 11)">5</text></g><path class="edge" d="M 0 0 V -8.70353 H 0.0" /><circle class="sym" cx="0" cy="0" r="3" /><text class="lab lft" transform="translate(-3 -7.0)">20</text></g><path class="edge" d="M 0 0 V -13.926 H -15" /><circle class="sym" cx="0" cy="0" r="3" /><text class="lab rgt" transform="translate(3 -7.0)">23</text></g><path class="edge" d="M 0 0 V -32.7103 H 34.6875" /><circle class="sym" cx="0" cy="0" r="3" /><text class="lab lft" transform="translate(-3 -7.0)">25</text></g><path class="edge" d="M 0 0 V -1.97223 H -36.0938" /><circle class="sym" cx="0" cy="0" r="3" /><text class="lab rgt" transform="translate(3 -7.0)">26</text></g><circle class="sym" cx="0" cy="0" r="3" /><text class="lab" transform="translate(0 -11)">27</text></g></g></g></g></g></svg>
