<svg baseProfile="full" height="200" version="1.1" width="600" xmlns="http://www.w3.org/2000/svg" xmlns:ev="http://www.w3.org/2001/xml-events" xmlns:xlink="http://www.w3.org/1999/xlink"><defs><style type="text/css"><![CDATA[.background path {fill: #808080; fill-opacity: 0}.background path:nth-child(odd) {fill-opacity: .1}.axes {font-size: 14px}.x-axis .tick .lab {font-weight: bold; dominant-baseline: hanging}.axes, .tree {font-size: 14px; text-anchor: middle}.axes line, .edge {stroke: black; fill: none}.y-axis .grid {stroke: #FAFAFA}.node > .sym {fill: black; stroke: none}.site > .sym {stroke: black}.mut text {fill: red; font-style: italic}.mut.extra text {fill: hotpink}.mut line {fill: none; stroke: none}.mut .sym {fill: none; stroke: red}.mut.extra .sym {stroke: hotpink}.node .mut .sym {stroke-width: 1.5px}.tree text, .tree-sequence text {dominant-baseline: central}.plotbox .lab.lft {text-anchor: end}.plotbox .lab.rgt {text-anchor: start}]]></style></defs><g class="tree-sequence"><g class="background"><path d="M20,0 l186.667,0 l0,138.2 l-146.187,25 l0,5 l-40.4797,0 l0,-5 l0,-25 l0,-138.2z" /><path d="M206.667,0 l186.667,0 l0,138.2 l151.185,25 l0,5 l-484.039,0 l0,-5 l146.187,-25 l0,-138.2z" /><path d="M393.333,0 l186.667,0 l0,138.2 l0,25 l0,5 l-35.4814,0 l0,-5 l-151.185,-25 l0,-138.2z" /></g><g class="axes"><g class="x-axis"><g transform="translate(300 200)"><text class="lab" text-anchor="middle" transform="translate(0 -11)">Genome position</text></g><line x1="20" x2="580" y1="163.2" y2="163.2" /><g class="ticks"><g class="tick" transform="translate(20 163.2)"><line x1="0" x2="0" y1="0" y2="5" /><g transform="translate(0 6)"><text class="lab">0.00</text></g></g><g class="tick" transform="translate(60.4797 163.2)"><line x1="0" x2="0" y1="0" y2="5" /><g transform="translate(0 6)"><text class="lab">72.29</text></g></g><g class="tick" transform="translate(544.519 163.2)"><line x1="0" x2="0" y1="0" y2="5" /><g transform="translate(0 6)"><text class="lab">936.64</text></g></g><g class="tick" transform="translate(580 163.2)"><line x1="0" x2="0" y1="0" y2="5" /><g transform="translate(0 6)"><text class="lab">1000.00</text></g></g></g></g></g><g class="plotbox trees"><g class="tree t0" transform="translate(20 0)"><g class="plotbox"><g class="c2 node n24 p0 root" transform="translate(133.781 26.8)"><g class="a24 c2 node n22 p0" transform="translate(-25.5521 7.14561)"><g class="a22 c1 node n19 p0" transform="translate(-25.4375 30.2593)"><g class="a19 c2 node n14 p0" transform="translate(0.0 44.2524)"><g class="a14 leaf node n4 p0 sample" transform="translate(17.875 12.9427)"><path class="edge" d="M 0 0 V -12.9427 H -17.875" /><rect class="sym" height="6" width="6" x="-3" y="-3" /><text class="lab" transform="translate(0 11)">4</text></g><g class="a14 c2 node n13 p0" transform="translate(-17.875 1.8739)"><g class="a13 leaf node n9 p0 sample" transform="translate(21.0833 11.0688)"><path class="edge" d="M 0 0 V -11.0688 H -21.0833" /><rect class="sym" height="6" width="6" x="-3" y="-3" /><text class="lab" transform="translate(0 11)">9</text></g><g class="a13 c2 node n12 p0" transform="translate(-21.0833 2.06943)"><g class="a12 leaf node n0 p0 sample" transform="translate(-16.5 8.99935)"><path class="edge" d="M 0 0 V -8.99935 H 16.5" /><rect class="sym" height="6" width="6" x="-3" y="-3" /><text class="lab" transform="translate(0 11)">0</text></g><g class="a12 c2 node n11 p0" transform="translate(16.5 0.247744)"><g class="a11 leaf node n5 p0 sample" transform="translate(11 8.75161)"><path class="edge" d="M 0 0 V -8.75161 H -11" /><rect class="sym" height="6" width="6" x="-3" y="-3" /><text class="lab" transform="translate(0 11)">5</text></g><g class="a11 c2 node n10 p0" transform="translate(-11 7.25328)"><g class="a10 leaf node n2 p0 sample" transform="translate(-7.33333 1.49833)"><path class="edge" d="M 0 0 V -1.49833 H 7.33333" /><rect class="sym" height="6" width="6" x="-3" y="-3" /><text class="lab" transform="translate(0 11)">2</text></g><g class="a10 leaf node n8 p0 sample" transform="translate(7.33333 1.49833)"><path class="edge" d="M 0 0 V -1.49833 H -7.33333" /><rect class="sym" height="6" width="6" x="-3" y="-3" /><text class="lab" transform="translate(0 11)">8</text></g><path class="edge" d="M 0 0 V -7.25328 H 11" /><circle class="sym" cx="0" cy="0" r="3" /><text class="lab lft" transform="translate(-3 -7.0)">10</text></g><path class="edge" d="M 0 0 V -0.247744 H -16.5" /><circle class="sym" cx="0" cy="0" r="3" /><text class="lab rgt" transform="translate(3 -7.0)">11</text></g><path class="edge" d="M 0 0 V -2.06943 H 21.0833" /><circle class="sym" cx="0" cy="0" r="3" /><text class="lab lft" transform="translate(-3 -7.0)">12</text></g><path class="edge" d="M 0 0 V -1.8739 H 17.875" /><circle class="sym" cx="0" cy="0" r="3" /><text class="lab lft" transform="translate(-3 -7.0)">13</text></g><path class="edge" d="M 0 0 V -44.2524 H 0.0" /><circle class="sym" cx="0" cy="0" r="3" /><text class="lab lft" transform="translate(-3 -7.0)">14</text></g><path class="edge" d="M 0 0 V -30.2593 H 25.4375" /><circle class="sym" cx="0" cy="0" r="3" /><text class="lab lft" transform="translate(-3 -7.0)">19</text></g><g class="a22 c1 node n20 p0" transform="translate(25.4375 11.3995)"><g class="a20 c2 node n18 p0" transform="translate(0.0 19.1977)"><g class="a18 leaf node n3 p0 sample" transform="translate(11 56.8572)"><path class="edge" d="M 0 0 V -56.8572 H -11" /><rect class="sym" height="6" width="6" x="-3" y="-3" /><text class="lab" transform="translate(0 11)">3</text></g><g class="a18 c1 node n16 p0" transform="translate(-11 22.9423)"><g class="a16 c2 node n15 p0" transform="translate(0.0 18.3943)"><g class="a15 leaf node n1 p0 sample" transform="translate(-7.33333 15.5205)"><path class="edge" d="M 0 0 V -15.5205 H 7.33333" /><rect class="sym" height="6" width="6" x="-3" y="-3" /><text class="lab" transform="translate(0 11)">1</text></g><g class="a15 leaf node n7 p0 sample" transform="translate(7.33333 15.5205)"><path class="edge" d="M 0 0 V -15.5205 H -7.33333" /><rect class="sym" height="6" width="6" x="-3" y="-3" /><text class="lab" transform="translate(0 11)">7</text></g><path class="edge" d="M 0 0 V -18.3943 H 0.0" /><circle class="sym" cx="0" cy="0" r="3" /><text class="lab lft" transform="translate(-3 -7.0)">15</text></g><path class="edge" d="M 0 0 V -22.9423 H 11" /><circle class="sym" cx="0" cy="0" r="3" /><text class="lab lft" transform="translate(-3 -7.0)">16</text></g><path class="edge" d="M 0 0 V -19.1977 H 0.0" /><circle class="sym" cx="0" cy="0" r="3" /><text class="lab lft" transform="translate(-3 -7.0)">18</text></g><path class="edge" d="M 0 0 V -11.3995 H -25.4375" /><circle class="sym" cx="0" cy="0" r="3" /><text class="lab rgt" transform="translate(3 -7.0)">20</text></g><path class="edge" d="M 0 0 V -7.14561 H 25.5521" /><circle class="sym" cx="0" cy="0" r="3" /><text class="lab lft" transform="translate(-3 -7.0)">22</text></g><g class="a24 c1 node n23 p0" transform="translate(25.5521 3.33244)"><g class="a23 leaf node n6 p0 sample" transform="translate(0.0 91.2676)"><path class="edge" d="M 0 0 V -91.2676 H 0.0" /><rect class="sym" height="6" width="6" x="-3" y="-3" /><text class="lab" transform="translate(0 11)">6</text></g><path class="edge" d="M 0 0 V -3.33244 H -25.5521" /><circle class="sym" cx="0" cy="0" r="3" /><text class="lab rgt" transform="translate(3 -7.0)">23</text></g><circle class="sym" cx="0" cy="0" r="3" /><text class="lab" transform="translate(0 -11)">24</text></g></g></g><g class="tree t1" transform="translate(206.667 0)"><g class="plotbox"><g class="c2 node n24 p0 root" transform="translate(141.516 26.8)"><g class="a24 c2 node n22 p0" transform="translate(-17.8177 7.14561)"><g class="a22 c2 node n19 p0" transform="translate(-20.9688 30.2593)"><g class="a19 c2 node n14 p0" transform="translate(-19.9375 44.2524)"><g class="a14 leaf node n4 p0 sample" transform="translate(17.875 12.9427)"><path class="edge" d="M 0 0 V -12.9427 H -17.875" /><rect class="sym" height="6" width="6" x="-3" y="-3" /><text class="lab" transform="translate(0 11)">4</text></g><g class="a14 c2 node n13 p0" transform="translate(-17.875 1.8739)"><g class="a13 leaf node n9 p0 sample" transform="translate(21.0833 11.0688)"><path class="edge" d="M 0 0 V -11.0688 H -21.0833" /><rect class="sym" height="6" width="6" x="-3" y="-3" /><text class="lab" transform="translate(0 11)">9</text></g><g class="a13 c2 node n12 p0" transform="translate(-21.0833 2.06943)"><g class="a12 leaf node n0 p0 sample" transform="translate(-16.5 8.99935)"><path class="edge" d="M 0 0 V -8.99935 H 16.5" /><rect class="sym" height="6" width="6" x="-3" y="-3" /><text class="lab" transform="translate(0 11)">0</text></g><g class="a12 c2 node n11 p0" transform="translate(16.5 0.247744)"><g class="a11 leaf node n5 p0 sample" transform="translate(11 8.75161)"><path class="edge" d="M 0 0 V -8.75161 H -11" /><rect class="sym" height="6" width="6" x="-3" y="-3" /><text class="lab" transform="translate(0 11)">5</text></g><g class="a11 c2 node n10 p0" transform="translate(-11 7.25328)"><g class="a10 leaf node n2 p0 sample" transform="translate(-7.33333 1.49833)"><path class="edge" d="M 0 0 V -1.49833 H 7.33333" /><rect class="sym" height="6" width="6" x="-3" y="-3" /><text class="lab" transform="translate(0 11)">2</text></g><g class="a10 leaf node n8 p0 sample" transform="translate(7.33333 1.49833)"><path class="edge" d="M 0 0 V -1.49833 H -7.33333" /><rect class="sym" height="6" width="6" x="-3" y="-3" /><text class="lab" transform="translate(0 11)">8</text></g><path class="edge" d="M 0 0 V -7.25328 H 11" /><circle class="sym" cx="0" cy="0" r="3" /><text class="lab lft" transform="translate(-3 -7.0)">10</text></g><path class="edge" d="M 0 0 V -0.247744 H -16.5" /><circle class="sym" cx="0" cy="0" r="3" /><text class="lab rgt" transform="translate(3 -7.0)">11</text></g><path class="edge" d="M 0 0 V -2.06943 H 21.0833" /><circle class="sym" cx="0" cy="0" r="3" /><text class="lab lft" transform="translate(-3 -7.0)">12</text></g><path class="edge" d="M 0 0 V -1.8739 H 17.875" /><circle class="sym" cx="0" cy="0" r="3" /><text class="lab lft" transform="translate(-3 -7.0)">13</text></g><path class="edge" d="M 0 0 V -44.2524 H 19.9375" /><circle class="sym" cx="0" cy="0" r="3" /><text class="lab lft" transform="translate(-3 -7.0)">14</text></g><g class="a19 c1 node n17 p0" transform="translate(19.9375 23.2802)"><g class="a17 c2 node n15 p0" transform="translate(0.0 18.3943)"><g class="a15 leaf node n1 p0 sample" transform="translate(-7.33333 15.5205)"><path class="edge" d="M 0 0 V -15.5205 H 7.33333" /><rect class="sym" height="6" width="6" x="-3" y="-3" /><text class="lab" transform="translate(0 11)">1</text></g><g class="a15 leaf node n7 p0 sample" transform="translate(7.33333 15.5205)"><path class="edge" d="M 0 0 V -15.5205 H -7.33333" /><rect class="sym" height="6" width="6" x="-3" y="-3" /><text class="lab" transform="translate(0 11)">7</text></g><path class="edge" d="M 0 0 V -18.3943 H 0.0" /><circle class="sym" cx="0" cy="0" r="3" /><text class="lab lft" transform="translate(-3 -7.0)">15</text></g><path class="edge" d="M 0 0 V -23.2802 H -19.9375" /><circle class="sym" cx="0" cy="0" r="3" /><text class="lab rgt" transform="translate(3 -7.0)">17</text></g><path class="edge" d="M 0 0 V -30.2593 H 20.9688" /><circle class="sym" cx="0" cy="0" r="3" /><text class="lab lft" transform="translate(-3 -7.0)">19</text></g><g class="a22 c1 node n20 p0" transform="translate(20.9688 11.3995)"><g class="a20 c1 node n18 p0" transform="translate(0.0 19.1977)"><g class="a18 leaf node n3 p0 sample" transform="translate(0.0 56.8572)"><path class="edge" d="M 0 0 V -56.8572 H 0.0" /><rect class="sym" height="6" width="6" x="-3" y="-3" /><text class="lab" transform="translate(0 11)">3</text></g><path class="edge" d="M 0 0 V -19.1977 H 0.0" /><circle class="sym" cx="0" cy="0" r="3" /><text class="lab lft" transform="translate(-3 -7.0)">18</text></g><path class="edge" d="M 0 0 V -11.3995 H -20.9688" /><circle class="sym" cx="0" cy="0" r="3" /><text class="lab rgt" transform="translate(3 -7.0)">20</text></g><path class="edge" d="M 0 0 V -7.14561 H 17.8177" /><circle class="sym" cx="0" cy="0" r="3" /><text class="lab lft" transform="translate(-3 -7.0)">22</text></g><g class="a24 c1 node n23 p0" transform="translate(17.8177 3.33244)"><g class="a23 leaf node n6 p0 sample" transform="translate(0.0 91.2676)"><path class="edge" d="M 0 0 V -91.2676 H 0.0" /><rect class="sym" height="6" width="6" x="-3" y="-3" /><text class="lab" transform="translate(0 11)">6</text></g><path class="edge" d="M 0 0 V -3.33244 H -17.8177" /><circle class="sym" cx="0" cy="0" r="3" /><text class="lab rgt" transform="translate(3 -7.0)">23</text></g><circle class="sym" cx="0" cy="0" r="3" /><text class="lab" transform="translate(0 -11)">24</text></g></g></g><g class="tree t2" transform="translate(393.333 0)"><g class="plotbox"><g class="c2 node n24 p0 root" transform="translate(127.365 26.8)"><g class="a24 c1 node n22 p0" transform="translate(-24.6354 7.14561)"><g class="a22 c2 node n19 p0" transform="translate(0.0 30.2593)"><g class="a19 c2 node n14 p0" transform="translate(-19.9375 44.2524)"><g class="a14 leaf node n4 p0 sample" transform="translate(17.875 12.9427)"><path class="edge" d="M 0 0 V -12.9427 H -17.875" /><rect class="sym" height="6" width="6" x="-3" y="-3" /><text class="lab" transform="translate(0 11)">4</text></g><g class="a14 c2 node n13 p0" transform="translate(-17.875 1.8739)"><g class="a13 leaf node n9 p0 sample" transform="translate(21.0833 11.0688)"><path class="edge" d="M 0 0 V -11.0688 H -21.0833" /><rect class="sym" height="6" width="6" x="-3" y="-3" /><text class="lab" transform="translate(0 11)">9</text></g><g class="a13 c2 node n12 p0" transform="translate(-21.0833 2.06943)"><g class="a12 leaf node n0 p0 sample" transform="translate(-16.5 8.99935)"><path class="edge" d="M 0 0 V -8.99935 H 16.5" /><rect class="sym" height="6" width="6" x="-3" y="-3" /><text class="lab" transform="translate(0 11)">0</text></g><g class="a12 c2 node n11 p0" transform="translate(16.5 0.247744)"><g class="a11 leaf node n5 p0 sample" transform="translate(11 8.75161)"><path class="edge" d="M 0 0 V -8.75161 H -11" /><rect class="sym" height="6" width="6" x="-3" y="-3" /><text class="lab" transform="translate(0 11)">5</text></g><g class="a11 c2 node n10 p0" transform="translate(-11 7.25328)"><g class="a10 leaf node n2 p0 sample" transform="translate(-7.33333 1.49833)"><path class="edge" d="M 0 0 V -1.49833 H 7.33333" /><rect class="sym" height="6" width="6" x="-3" y="-3" /><text class="lab" transform="translate(0 11)">2</text></g><g class="a10 leaf node n8 p0 sample" transform="translate(7.33333 1.49833)"><path class="edge" d="M 0 0 V -1.49833 H -7.33333" /><rect class="sym" height="6" width="6" x="-3" y="-3" /><text class="lab" transform="translate(0 11)">8</text></g><path class="edge" d="M 0 0 V -7.25328 H 11" /><circle class="sym" cx="0" cy="0" r="3" /><text class="lab lft" transform="translate(-3 -7.0)">10</text></g><path class="edge" d="M 0 0 V -0.247744 H -16.5" /><circle class="sym" cx="0" cy="0" r="3" /><text class="lab rgt" transform="translate(3 -7.0)">11</text></g><path class="edge" d="M 0 0 V -2.06943 H 21.0833" /><circle class="sym" cx="0" cy="0" r="3" /><text class="lab lft" transform="translate(-3 -7.0)">12</text></g><path class="edge" d="M 0 0 V -1.8739 H 17.875" /><circle class="sym" cx="0" cy="0" r="3" /><text class="lab lft" transform="translate(-3 -7.0)">13</text></g><path class="edge" d="M 0 0 V -44.2524 H 19.9375" /><circle class="sym" cx="0" cy="0" r="3" /><text class="lab lft" transform="translate(-3 -7.0)">14</text></g><g class="a19 c1 node n17 p0" transform="translate(19.9375 23.2802)"><g class="a17 c2 node n15 p0" transform="translate(0.0 18.3943)"><g class="a15 leaf node n1 p0 sample" transform="translate(-7.33333 15.5205)"><path class="edge" d="M 0 0 V -15.5205 H 7.33333" /><rect class="sym" height="6" width="6" x="-3" y="-3" /><text class="lab" transform="translate(0 11)">1</text></g><g class="a15 leaf node n7 p0 sample" transform="translate(7.33333 15.5205)"><path class="edge" d="M 0 0 V -15.5205 H -7.33333" /><rect class="sym" height="6" width="6" x="-3" y="-3" /><text class="lab" transform="translate(0 11)">7</text></g><path class="edge" d="M 0 0 V -18.3943 H 0.0" /><circle class="sym" cx="0" cy="0" r="3" /><text class="lab lft" transform="translate(-3 -7.0)">15</text></g><path class="edge" d="M 0 0 V -23.2802 H -19.9375" /><circle class="sym" cx="0" cy="0" r="3" /><text class="lab rgt" transform="translate(3 -7.0)">17</text></g><path class="edge" d="M 0 0 V -30.2593 H 0.0" /><circle class="sym" cx="0" cy="0" r="3" /><text class="lab lft" transform="translate(-3 -7.0)">19</text></g><path class="edge" d="M 0 0 V -7.14561 H 24.6354" /><circle class="sym" cx="0" cy="0" r="3" /><text class="lab lft" transform="translate(-3 -7.0)">22</text></g><g class="a24 c2 node n23 p0" transform="translate(24.6354 3.33244)"><g class="a23 leaf node n6 p0 sample" transform="translate(7.33333 91.2676)"><path class="edge" d="M 0 0 V -91.2676 H -7.33333" /><rect class="sym" height="6" width="6" x="-3" y="-3" /><text class="lab" transform="translate(0 11)">6</text></g><g class="a23 c1 node n21 p0" transform="translate(-7.33333 15.2127)"><g class="a21 c1 node n18 p0" transform="translate(0.0 19.1977)"><g class="a18 leaf node n3 p0 sample" transform="translate(0.0 56.8572)"><path class="edge" d="M 0 0 V -56.8572 H 0.0" /><rect class="sym" height="6" width="6" x="-3" y="-3" /><text class="lab" transform="translate(0 11)">3</text></g><path class="edge" d="M 0 0 V -19.1977 H 0.0" /><circle class="sym" cx="0" cy="0" r="3" /><text class="lab lft" transform="translate(-3 -7.0)">18</text></g><path class="edge" d="M 0 0 V -15.2127 H 7.33333" /><circle class="sym" cx="0" cy="0" r="3" /><text class="lab lft" transform="translate(-3 -7.0)">21</text></g><path class="edge" d="M 0 0 V -3.33244 H -24.6354" /><circle class="sym" cx="0" cy="0" r="3" /><text class="lab rgt" transform="translate(3 -7.0)">23</text></g><circle class="sym" cx="0" cy="0" r="3" /><text class="lab" transform="translate(0 -11)">24</text></g></g></g></g></g></svg>
