<svg baseProfile="full" height="200" version="1.1" width="1200" xmlns="http://www.w3.org/2000/svg" xmlns:ev="http://www.w3.org/2001/xml-events" xmlns:xlink="http://www.w3.org/1999/xlink"><defs><style type="text/css"><![CDATA[.background path {fill: #808080; fill-opacity: 0}.background path:nth-child(odd) {fill-opacity: .1}.axes {font-size: 14px}.x-axis .tick .lab {font-weight: bold; dominant-baseline: hanging}.axes, .tree {font-size: 14px; text-anchor: middle}.axes line, .edge {stroke: black; fill: none}.y-axis .grid {stroke: #FAFAFA}.node > .sym {fill: black; stroke: none}.site > .sym {stroke: black}.mut text {fill: red; font-style: italic}.mut.extra text {fill: hotpink}.mut line {fill: none; stroke: none}.mut .sym {fill: none; stroke: red}.mut.extra .sym {stroke: hotpink}.node .mut .sym {stroke-width: 1.5px}.tree text, .tree-sequence text {dominant-baseline: central}.plotbox .lab.lft {text-anchor: end}.plotbox .lab.rgt {text-anchor: start}]]></style></defs><g class="tree-sequence"><g class="background"><path d="M20,0 l193.333,0 l0,138.2 l532.052,25 l0,5 l-725.386,0 l0,-5 l0,-25 l0,-138.2z" /><path d="M213.333,0 l193.333,0 l0,138.2 l340.642,25 l0,5 l-1.92283,0 l0,-5 l-532.052,-25 l0,-138.2z" /><path d="M406.667,0 l193.333,0 l0,138.2 l148.853,25 l0,5 l-1.54483,0 l0,-5 l-340.642,-25 l0,-138.2z" /><path d="M600,0 l193.333,0 l0,138.2 l-10.6567,25 l0,5 l-33.8232,0 l0,-5 l-148.853,-25 l0,-138.2z" /><path d="M793.333,0 l193.333,0 l0,138.2 l171.314,25 l0,5 l-375.304,0 l0,-5 l10.6567,-25 l0,-138.2z" /><path d="M986.667,0 l193.333,0 l0,138.2 l0,25 l0,5 l-22.0198,0 l0,-5 l-171.314,-25 l0,-138.2z" /></g><g class="axes"><g class="x-axis"><g transform="translate(600 200)"><text class="lab" text-anchor="middle" transform="translate(0 -11)">Genome position</text></g><line x1="20" x2="1180" y1="163.2" y2="163.2" /><g class="ticks"><g class="tick" transform="translate(20 163.2)"><line x1="0" x2="0" y1="0" y2="5" /><g transform="translate(0 6)"><text class="lab">0.00</text></g></g><g class="tick" transform="translate(745.386 163.2)"><line x1="0" x2="0" y1="0" y2="5" /><g transform="translate(0 6)"><text class="lab">625.33</text></g></g><g class="tick" transform="translate(747.309 163.2)"><line x1="0" x2="0" y1="0" y2="5" /><g transform="translate(0 6)"><text class="lab">626.99</text></g></g><g class="tick" transform="translate(748.853 163.2)"><line x1="0" x2="0" y1="0" y2="5" /><g transform="translate(0 6)"><text class="lab">628.32</text></g></g><g class="tick" transform="translate(782.677 163.2)"><line x1="0" x2="0" y1="0" y2="5" /><g transform="translate(0 6)"><text class="lab">657.48</text></g></g><g class="tick" transform="translate(1157.98 163.2)"><line x1="0" x2="0" y1="0" y2="5" /><g transform="translate(0 6)"><text class="lab">981.02</text></g></g><g class="tick" transform="translate(1180 163.2)"><line x1="0" x2="0" y1="0" y2="5" /><g transform="translate(0 6)"><text class="lab">1000.00</text></g></g></g></g></g><g class="plotbox trees"><g class="tree t0" transform="translate(20 0)"><g class="plotbox"><g class="c2 node n33 p0 root" transform="translate(101.458 26.8)"><g class="a33 c1 node n30 p0" transform="translate(31.625 14.5186)"><g class="a30 c2 node n29 p0" transform="translate(0.0 12.0358)"><g class="a29 c1 node n23 p0" transform="translate(-13.4167 30.5323)"><g class="a23 c1 node n20 p0" transform="translate(0.0 7.61813)"><g class="a20 leaf node n5 p0 sample" transform="translate(0.0 29.8952)"><path class="edge" d="M 0 0 V -29.8952 H 0.0" /><rect class="sym" height="6" width="6" x="-3" y="-3" /><text class="lab" transform="translate(0 11)">5</text></g><path class="edge" d="M 0 0 V -7.61813 H 0.0" /><circle class="sym" cx="0" cy="0" r="3" /><text class="lab lft" transform="translate(-3 -7.0)">20</text></g><path class="edge" d="M 0 0 V -30.5323 H 13.4167" /><circle class="sym" cx="0" cy="0" r="3" /><text class="lab lft" transform="translate(-3 -7.0)">23</text></g><g class="a29 c2 node n27 p0" transform="translate(13.4167 15.3363)"><g class="a27 c1 node n15 p0" transform="translate(-11.5 36.6944)"><g class="a15 leaf node n7 p0 sample" transform="translate(0.0 16.015)"><path class="edge" d="M 0 0 V -16.015 H 0.0" /><rect class="sym" height="6" width="6" x="-3" y="-3" /><text class="lab" transform="translate(0 11)">7</text></g><path class="edge" d="M 0 0 V -36.6944 H 11.5" /><circle class="sym" cx="0" cy="0" r="3" /><text class="lab lft" transform="translate(-3 -7.0)">15</text></g><g class="a27 c2 node n25 p0" transform="translate(11.5 13.8294)"><g class="a25 leaf node n8 p0 sample" transform="translate(-7.66667 38.8799)"><path class="edge" d="M 0 0 V -38.8799 H 7.66667" /><rect class="sym" height="6" width="6" x="-3" y="-3" /><text class="lab" transform="translate(0 11)">8</text></g><g class="a25 leaf node n9 p0 sample" transform="translate(7.66667 38.8799)"><path class="edge" d="M 0 0 V -38.8799 H -7.66667" /><rect class="sym" height="6" width="6" x="-3" y="-3" /><text class="lab" transform="translate(0 11)">9</text></g><path class="edge" d="M 0 0 V -13.8294 H -11.5" /><circle class="sym" cx="0" cy="0" r="3" /><text class="lab rgt" transform="translate(3 -7.0)">25</text></g><path class="edge" d="M 0 0 V -15.3363 H -13.4167" /><circle class="sym" cx="0" cy="0" r="3" /><text class="lab rgt" transform="translate(3 -7.0)">27</text></g><path class="edge" d="M 0 0 V -12.0358 H 0.0" /><circle class="sym" cx="0" cy="0" r="3" /><text class="lab lft" transform="translate(-3 -7.0)">29</text></g><path class="edge" d="M 0 0 V -14.5186 H -31.625" /><circle class="sym" cx="0" cy="0" r="3" /><text class="lab rgt" transform="translate(3 -7.0)">30</text></g><g class="a33 c2 node n32 p0" transform="translate(-31.625 13.5633)"><g class="a32 c2 node n28 p0" transform="translate(-23 15.0914)"><g class="a28 leaf node n6 p0 sample" transform="translate(11.5 65.9453)"><path class="edge" d="M 0 0 V -65.9453 H -11.5" /><rect class="sym" height="6" width="6" x="-3" y="-3" /><text class="lab" transform="translate(0 11)">6</text></g><g class="a28 c2 node n10 p0" transform="translate(-11.5 63.3724)"><g class="a10 leaf node n0 p0 sample" transform="translate(-7.66667 2.57288)"><path class="edge" d="M 0 0 V -2.57288 H 7.66667" /><rect class="sym" height="6" width="6" x="-3" y="-3" /><text class="lab" transform="translate(0 11)">0</text></g><g class="a10 leaf node n3 p0 sample" transform="translate(7.66667 2.57288)"><path class="edge" d="M 0 0 V -2.57288 H -7.66667" /><rect class="sym" height="6" width="6" x="-3" y="-3" /><text class="lab" transform="translate(0 11)">3</text></g><path class="edge" d="M 0 0 V -63.3724 H 11.5" /><circle class="sym" cx="0" cy="0" r="3" /><text class="lab lft" transform="translate(-3 -7.0)">10</text></g><path class="edge" d="M 0 0 V -15.0914 H 23" /><circle class="sym" cx="0" cy="0" r="3" /><text class="lab lft" transform="translate(-3 -7.0)">28</text></g><g class="a32 c2 node n31 p0" transform="translate(23 0.299678)"><g class="a31 leaf node n2 p0 sample" transform="translate(11.5 80.737)"><path class="edge" d="M 0 0 V -80.737 H -11.5" /><rect class="sym" height="6" width="6" x="-3" y="-3" /><text class="lab" transform="translate(0 11)">2</text></g><g class="a31 c1 node n26 p0" transform="translate(-11.5 34.963)"><g class="a26 c2 node n24 p0" transform="translate(0.0 7.82173)"><g class="a24 leaf node n4 p0 sample" transform="translate(7.66667 37.9523)"><path class="edge" d="M 0 0 V -37.9523 H -7.66667" /><rect class="sym" height="6" width="6" x="-3" y="-3" /><text class="lab" transform="translate(0 11)">4</text></g><g class="a24 c1 node n22 p0" transform="translate(-7.66667 5.62785)"><g class="a22 c1 node n11 p0" transform="translate(0.0 19.1253)"><g class="a11 leaf node n1 p0 sample" transform="translate(0.0 13.1991)"><path class="edge" d="M 0 0 V -13.1991 H 0.0" /><rect class="sym" height="6" width="6" x="-3" y="-3" /><text class="lab" transform="translate(0 11)">1</text></g><path class="edge" d="M 0 0 V -19.1253 H 0.0" /><circle class="sym" cx="0" cy="0" r="3" /><text class="lab lft" transform="translate(-3 -7.0)">11</text></g><path class="edge" d="M 0 0 V -5.62785 H 7.66667" /><circle class="sym" cx="0" cy="0" r="3" /><text class="lab lft" transform="translate(-3 -7.0)">22</text></g><path class="edge" d="M 0 0 V -7.82173 H 0.0" /><circle class="sym" cx="0" cy="0" r="3" /><text class="lab lft" transform="translate(-3 -7.0)">24</text></g><path class="edge" d="M 0 0 V -34.963 H 11.5" /><circle class="sym" cx="0" cy="0" r="3" /><text class="lab lft" transform="translate(-3 -7.0)">26</text></g><path class="edge" d="M 0 0 V -0.299678 H -23" /><circle class="sym" cx="0" cy="0" r="3" /><text class="lab rgt" transform="translate(3 -7.0)">31</text></g><path class="edge" d="M 0 0 V -13.5633 H 31.625" /><circle class="sym" cx="0" cy="0" r="3" /><text class="lab lft" transform="translate(-3 -7.0)">32</text></g><circle class="sym" cx="0" cy="0" r="3" /><text class="lab" transform="translate(0 -11)">33</text></g></g></g><g class="tree t1" transform="translate(213.333 0)"><g class="plotbox"><g class="c2 node n33 p0 root" transform="translate(91.3958 26.8)"><g class="a33 c2 node n30 p0" transform="translate(27.3125 14.5186)"><g class="a30 c2 node n29 p0" transform="translate(14.375 12.0358)"><g class="a29 c1 node n23 p0" transform="translate(-13.4167 30.5323)"><g class="a23 c1 node n20 p0" transform="translate(0.0 7.61813)"><g class="a20 leaf node n5 p0 sample" transform="translate(0.0 29.8952)"><path class="edge" d="M 0 0 V -29.8952 H 0.0" /><rect class="sym" height="6" width="6" x="-3" y="-3" /><text class="lab" transform="translate(0 11)">5</text></g><path class="edge" d="M 0 0 V -7.61813 H 0.0" /><circle class="sym" cx="0" cy="0" r="3" /><text class="lab lft" transform="translate(-3 -7.0)">20</text></g><path class="edge" d="M 0 0 V -30.5323 H 13.4167" /><circle class="sym" cx="0" cy="0" r="3" /><text class="lab lft" transform="translate(-3 -7.0)">23</text></g><g class="a29 c2 node n27 p0" transform="translate(13.4167 15.3363)"><g class="a27 c1 node n15 p0" transform="translate(-11.5 36.6944)"><g class="a15 leaf node n7 p0 sample" transform="translate(0.0 16.015)"><path class="edge" d="M 0 0 V -16.015 H 0.0" /><rect class="sym" height="6" width="6" x="-3" y="-3" /><text class="lab" transform="translate(0 11)">7</text></g><path class="edge" d="M 0 0 V -36.6944 H 11.5" /><circle class="sym" cx="0" cy="0" r="3" /><text class="lab lft" transform="translate(-3 -7.0)">15</text></g><g class="a27 c2 node n25 p0" transform="translate(11.5 13.8294)"><g class="a25 leaf node n8 p0 sample" transform="translate(-7.66667 38.8799)"><path class="edge" d="M 0 0 V -38.8799 H 7.66667" /><rect class="sym" height="6" width="6" x="-3" y="-3" /><text class="lab" transform="translate(0 11)">8</text></g><g class="a25 leaf node n9 p0 sample" transform="translate(7.66667 38.8799)"><path class="edge" d="M 0 0 V -38.8799 H -7.66667" /><rect class="sym" height="6" width="6" x="-3" y="-3" /><text class="lab" transform="translate(0 11)">9</text></g><path class="edge" d="M 0 0 V -13.8294 H -11.5" /><circle class="sym" cx="0" cy="0" r="3" /><text class="lab rgt" transform="translate(3 -7.0)">25</text></g><path class="edge" d="M 0 0 V -15.3363 H -13.4167" /><circle class="sym" cx="0" cy="0" r="3" /><text class="lab rgt" transform="translate(3 -7.0)">27</text></g><path class="edge" d="M 0 0 V -12.0358 H -14.375" /><circle class="sym" cx="0" cy="0" r="3" /><text class="lab rgt" transform="translate(3 -7.0)">29</text></g><g class="a30 c1 node n17 p0" transform="translate(-14.375 60.2067)"><g class="a17 c1 node n13 p0" transform="translate(0.0 3.97215)"><g class="a13 c1 node n12 p0" transform="translate(0.0 2.70347)"><g class="a12 leaf node n1 p0 sample" transform="translate(0.0 13.1991)"><path class="edge" d="M 0 0 V -13.1991 H 0.0" /><rect class="sym" height="6" width="6" x="-3" y="-3" /><text class="lab" transform="translate(0 11)">1</text></g><path class="edge" d="M 0 0 V -2.70347 H 0.0" /><circle class="sym" cx="0" cy="0" r="3" /><text class="lab lft" transform="translate(-3 -7.0)">12</text></g><path class="edge" d="M 0 0 V -3.97215 H 0.0" /><circle class="sym" cx="0" cy="0" r="3" /><text class="lab lft" transform="translate(-3 -7.0)">13</text></g><path class="edge" d="M 0 0 V -60.2067 H 14.375" /><circle class="sym" cx="0" cy="0" r="3" /><text class="lab lft" transform="translate(-3 -7.0)">17</text></g><path class="edge" d="M 0 0 V -14.5186 H -27.3125" /><circle class="sym" cx="0" cy="0" r="3" /><text class="lab rgt" transform="translate(3 -7.0)">30</text></g><g class="a33 c2 node n32 p0" transform="translate(-27.3125 13.5633)"><g class="a32 c2 node n28 p0" transform="translate(-17.25 15.0914)"><g class="a28 leaf node n6 p0 sample" transform="translate(11.5 65.9453)"><path class="edge" d="M 0 0 V -65.9453 H -11.5" /><rect class="sym" height="6" width="6" x="-3" y="-3" /><text class="lab" transform="translate(0 11)">6</text></g><g class="a28 c2 node n10 p0" transform="translate(-11.5 63.3724)"><g class="a10 leaf node n0 p0 sample" transform="translate(-7.66667 2.57288)"><path class="edge" d="M 0 0 V -2.57288 H 7.66667" /><rect class="sym" height="6" width="6" x="-3" y="-3" /><text class="lab" transform="translate(0 11)">0</text></g><g class="a10 leaf node n3 p0 sample" transform="translate(7.66667 2.57288)"><path class="edge" d="M 0 0 V -2.57288 H -7.66667" /><rect class="sym" height="6" width="6" x="-3" y="-3" /><text class="lab" transform="translate(0 11)">3</text></g><path class="edge" d="M 0 0 V -63.3724 H 11.5" /><circle class="sym" cx="0" cy="0" r="3" /><text class="lab lft" transform="translate(-3 -7.0)">10</text></g><path class="edge" d="M 0 0 V -15.0914 H 17.25" /><circle class="sym" cx="0" cy="0" r="3" /><text class="lab lft" transform="translate(-3 -7.0)">28</text></g><g class="a32 c2 node n31 p0" transform="translate(17.25 0.299678)"><g class="a31 leaf node n2 p0 sample" transform="translate(-7.66667 80.737)"><path class="edge" d="M 0 0 V -80.737 H 7.66667" /><rect class="sym" height="6" width="6" x="-3" y="-3" /><text class="lab" transform="translate(0 11)">2</text></g><g class="a31 c1 node n26 p0" transform="translate(7.66667 34.963)"><g class="a26 c1 node n24 p0" transform="translate(0.0 7.82173)"><g class="a24 leaf node n4 p0 sample" transform="translate(0.0 37.9523)"><path class="edge" d="M 0 0 V -37.9523 H 0.0" /><rect class="sym" height="6" width="6" x="-3" y="-3" /><text class="lab" transform="translate(0 11)">4</text></g><path class="edge" d="M 0 0 V -7.82173 H 0.0" /><circle class="sym" cx="0" cy="0" r="3" /><text class="lab lft" transform="translate(-3 -7.0)">24</text></g><path class="edge" d="M 0 0 V -34.963 H -7.66667" /><circle class="sym" cx="0" cy="0" r="3" /><text class="lab rgt" transform="translate(3 -7.0)">26</text></g><path class="edge" d="M 0 0 V -0.299678 H -17.25" /><circle class="sym" cx="0" cy="0" r="3" /><text class="lab rgt" transform="translate(3 -7.0)">31</text></g><path class="edge" d="M 0 0 V -13.5633 H 27.3125" /><circle class="sym" cx="0" cy="0" r="3" /><text class="lab lft" transform="translate(-3 -7.0)">32</text></g><circle class="sym" cx="0" cy="0" r="3" /><text class="lab" transform="translate(0 -11)">33</text></g></g></g><g class="tree t2" transform="translate(406.667 0)"><g class="plotbox"><g class="c2 node n33 p0 root" transform="translate(93.7917 26.8)"><g class="a33 c2 node n30 p0" transform="translate(29.7083 14.5186)"><g class="a30 c2 node n29 p0" transform="translate(19.1667 12.0358)"><g class="a29 c2 node n23 p0" transform="translate(-15.3333 30.5323)"><g class="a23 c1 node n20 p0" transform="translate(-7.66667 7.61813)"><g class="a20 leaf node n5 p0 sample" transform="translate(0.0 29.8952)"><path class="edge" d="M 0 0 V -29.8952 H 0.0" /><rect class="sym" height="6" width="6" x="-3" y="-3" /><text class="lab" transform="translate(0 11)">5</text></g><path class="edge" d="M 0 0 V -7.61813 H 7.66667" /><circle class="sym" cx="0" cy="0" r="3" /><text class="lab lft" transform="translate(-3 -7.0)">20</text></g><g class="a23 c1 node n18 p0" transform="translate(7.66667 9.8232)"><g class="a18 c1 node n16 p0" transform="translate(0.0 11.6752)"><g class="a16 leaf node n7 p0 sample" transform="translate(0.0 16.015)"><path class="edge" d="M 0 0 V -16.015 H 0.0" /><rect class="sym" height="6" width="6" x="-3" y="-3" /><text class="lab" transform="translate(0 11)">7</text></g><path class="edge" d="M 0 0 V -11.6752 H 0.0" /><circle class="sym" cx="0" cy="0" r="3" /><text class="lab lft" transform="translate(-3 -7.0)">16</text></g><path class="edge" d="M 0 0 V -9.8232 H -7.66667" /><circle class="sym" cx="0" cy="0" r="3" /><text class="lab rgt" transform="translate(3 -7.0)">18</text></g><path class="edge" d="M 0 0 V -30.5323 H 15.3333" /><circle class="sym" cx="0" cy="0" r="3" /><text class="lab lft" transform="translate(-3 -7.0)">23</text></g><g class="a29 c1 node n27 p0" transform="translate(15.3333 15.3363)"><g class="a27 c2 node n25 p0" transform="translate(0.0 13.8294)"><g class="a25 leaf node n8 p0 sample" transform="translate(-7.66667 38.8799)"><path class="edge" d="M 0 0 V -38.8799 H 7.66667" /><rect class="sym" height="6" width="6" x="-3" y="-3" /><text class="lab" transform="translate(0 11)">8</text></g><g class="a25 leaf node n9 p0 sample" transform="translate(7.66667 38.8799)"><path class="edge" d="M 0 0 V -38.8799 H -7.66667" /><rect class="sym" height="6" width="6" x="-3" y="-3" /><text class="lab" transform="translate(0 11)">9</text></g><path class="edge" d="M 0 0 V -13.8294 H 0.0" /><circle class="sym" cx="0" cy="0" r="3" /><text class="lab lft" transform="translate(-3 -7.0)">25</text></g><path class="edge" d="M 0 0 V -15.3363 H -15.3333" /><circle class="sym" cx="0" cy="0" r="3" /><text class="lab rgt" transform="translate(3 -7.0)">27</text></g><path class="edge" d="M 0 0 V -12.0358 H -19.1667" /><circle class="sym" cx="0" cy="0" r="3" /><text class="lab rgt" transform="translate(3 -7.0)">29</text></g><g class="a30 c1 node n17 p0" transform="translate(-19.1667 60.2067)"><g class="a17 c1 node n13 p0" transform="translate(0.0 3.97215)"><g class="a13 c1 node n12 p0" transform="translate(0.0 2.70347)"><g class="a12 leaf node n1 p0 sample" transform="translate(0.0 13.1991)"><path class="edge" d="M 0 0 V -13.1991 H 0.0" /><rect class="sym" height="6" width="6" x="-3" y="-3" /><text class="lab" transform="translate(0 11)">1</text></g><path class="edge" d="M 0 0 V -2.70347 H 0.0" /><circle class="sym" cx="0" cy="0" r="3" /><text class="lab lft" transform="translate(-3 -7.0)">12</text></g><path class="edge" d="M 0 0 V -3.97215 H 0.0" /><circle class="sym" cx="0" cy="0" r="3" /><text class="lab lft" transform="translate(-3 -7.0)">13</text></g><path class="edge" d="M 0 0 V -60.2067 H 19.1667" /><circle class="sym" cx="0" cy="0" r="3" /><text class="lab lft" transform="translate(-3 -7.0)">17</text></g><path class="edge" d="M 0 0 V -14.5186 H -29.7083" /><circle class="sym" cx="0" cy="0" r="3" /><text class="lab rgt" transform="translate(3 -7.0)">30</text></g><g class="a33 c2 node n32 p0" transform="translate(-29.7083 13.5633)"><g class="a32 c2 node n28 p0" transform="translate(-17.25 15.0914)"><g class="a28 leaf node n6 p0 sample" transform="translate(11.5 65.9453)"><path class="edge" d="M 0 0 V -65.9453 H -11.5" /><rect class="sym" height="6" width="6" x="-3" y="-3" /><text class="lab" transform="translate(0 11)">6</text></g><g class="a28 c2 node n10 p0" transform="translate(-11.5 63.3724)"><g class="a10 leaf node n0 p0 sample" transform="translate(-7.66667 2.57288)"><path class="edge" d="M 0 0 V -2.57288 H 7.66667" /><rect class="sym" height="6" width="6" x="-3" y="-3" /><text class="lab" transform="translate(0 11)">0</text></g><g class="a10 leaf node n3 p0 sample" transform="translate(7.66667 2.57288)"><path class="edge" d="M 0 0 V -2.57288 H -7.66667" /><rect class="sym" height="6" width="6" x="-3" y="-3" /><text class="lab" transform="translate(0 11)">3</text></g><path class="edge" d="M 0 0 V -63.3724 H 11.5" /><circle class="sym" cx="0" cy="0" r="3" /><text class="lab lft" transform="translate(-3 -7.0)">10</text></g><path class="edge" d="M 0 0 V -15.0914 H 17.25" /><circle class="sym" cx="0" cy="0" r="3" /><text class="lab lft" transform="translate(-3 -7.0)">28</text></g><g class="a32 c2 node n31 p0" transform="translate(17.25 0.299678)"><g class="a31 leaf node n2 p0 sample" transform="translate(-7.66667 80.737)"><path class="edge" d="M 0 0 V -80.737 H 7.66667" /><rect class="sym" height="6" width="6" x="-3" y="-3" /><text class="lab" transform="translate(0 11)">2</text></g><g class="a31 c1 node n26 p0" transform="translate(7.66667 34.963)"><g class="a26 c1 node n24 p0" transform="translate(0.0 7.82173)"><g class="a24 leaf node n4 p0 sample" transform="translate(0.0 37.9523)"><path class="edge" d="M 0 0 V -37.9523 H 0.0" /><rect class="sym" height="6" width="6" x="-3" y="-3" /><text class="lab" transform="translate(0 11)">4</text></g><path class="edge" d="M 0 0 V -7.82173 H 0.0" /><circle class="sym" cx="0" cy="0" r="3" /><text class="lab lft" transform="translate(-3 -7.0)">24</text></g><path class="edge" d="M 0 0 V -34.963 H -7.66667" /><circle class="sym" cx="0" cy="0" r="3" /><text class="lab rgt" transform="translate(3 -7.0)">26</text></g><path class="edge" d="M 0 0 V -0.299678 H -17.25" /><circle class="sym" cx="0" cy="0" r="3" /><text class="lab rgt" transform="translate(3 -7.0)">31</text></g><path class="edge" d="M 0 0 V -13.5633 H 29.7083" /><circle class="sym" cx="0" cy="0" r="3" /><text class="lab lft" transform="translate(-3 -7.0)">32</text></g><circle class="sym" cx="0" cy="0" r="3" /><text class="lab" transform="translate(0 -11)">33</text></g></g></g><g class="tree t3" transform="translate(600 0)"><g class="plotbox"><g class="c2 node n33 p0 root" transform="translate(99.5417 26.8)"><g class="a33 c2 node n30 p0" transform="translate(33.5417 14.5186)"><g class="a30 c2 node n29 p0" transform="translate(13.4167 12.0358)"><g class="a29 c1 node n23 p0" transform="translate(-11.5 30.5323)"><g class="a23 c1 node n20 p0" transform="translate(0.0 7.61813)"><g class="a20 leaf node n5 p0 sample" transform="translate(0.0 29.8952)"><path class="edge" d="M 0 0 V -29.8952 H 0.0" /><rect class="sym" height="6" width="6" x="-3" y="-3" /><text class="lab" transform="translate(0 11)">5</text></g><path class="edge" d="M 0 0 V -7.61813 H 0.0" /><circle class="sym" cx="0" cy="0" r="3" /><text class="lab lft" transform="translate(-3 -7.0)">20</text></g><path class="edge" d="M 0 0 V -30.5323 H 11.5" /><circle class="sym" cx="0" cy="0" r="3" /><text class="lab lft" transform="translate(-3 -7.0)">23</text></g><g class="a29 c1 node n27 p0" transform="translate(11.5 15.3363)"><g class="a27 c2 node n25 p0" transform="translate(0.0 13.8294)"><g class="a25 leaf node n8 p0 sample" transform="translate(-7.66667 38.8799)"><path class="edge" d="M 0 0 V -38.8799 H 7.66667" /><rect class="sym" height="6" width="6" x="-3" y="-3" /><text class="lab" transform="translate(0 11)">8</text></g><g class="a25 leaf node n9 p0 sample" transform="translate(7.66667 38.8799)"><path class="edge" d="M 0 0 V -38.8799 H -7.66667" /><rect class="sym" height="6" width="6" x="-3" y="-3" /><text class="lab" transform="translate(0 11)">9</text></g><path class="edge" d="M 0 0 V -13.8294 H 0.0" /><circle class="sym" cx="0" cy="0" r="3" /><text class="lab lft" transform="translate(-3 -7.0)">25</text></g><path class="edge" d="M 0 0 V -15.3363 H -11.5" /><circle class="sym" cx="0" cy="0" r="3" /><text class="lab rgt" transform="translate(3 -7.0)">27</text></g><path class="edge" d="M 0 0 V -12.0358 H -13.4167" /><circle class="sym" cx="0" cy="0" r="3" /><text class="lab rgt" transform="translate(3 -7.0)">29</text></g><g class="a30 c1 node n17 p0" transform="translate(-13.4167 60.2067)"><g class="a17 c1 node n13 p0" transform="translate(0.0 3.97215)"><g class="a13 c1 node n12 p0" transform="translate(0.0 2.70347)"><g class="a12 leaf node n1 p0 sample" transform="translate(0.0 13.1991)"><path class="edge" d="M 0 0 V -13.1991 H 0.0" /><rect class="sym" height="6" width="6" x="-3" y="-3" /><text class="lab" transform="translate(0 11)">1</text></g><path class="edge" d="M 0 0 V -2.70347 H 0.0" /><circle class="sym" cx="0" cy="0" r="3" /><text class="lab lft" transform="translate(-3 -7.0)">12</text></g><path class="edge" d="M 0 0 V -3.97215 H 0.0" /><circle class="sym" cx="0" cy="0" r="3" /><text class="lab lft" transform="translate(-3 -7.0)">13</text></g><path class="edge" d="M 0 0 V -60.2067 H 13.4167" /><circle class="sym" cx="0" cy="0" r="3" /><text class="lab lft" transform="translate(-3 -7.0)">17</text></g><path class="edge" d="M 0 0 V -14.5186 H -33.5417" /><circle class="sym" cx="0" cy="0" r="3" /><text class="lab rgt" transform="translate(3 -7.0)">30</text></g><g class="a33 c2 node n32 p0" transform="translate(-33.5417 13.5633)"><g class="a32 c2 node n28 p0" transform="translate(-19.1667 15.0914)"><g class="a28 leaf node n6 p0 sample" transform="translate(11.5 65.9453)"><path class="edge" d="M 0 0 V -65.9453 H -11.5" /><rect class="sym" height="6" width="6" x="-3" y="-3" /><text class="lab" transform="translate(0 11)">6</text></g><g class="a28 c2 node n10 p0" transform="translate(-11.5 63.3724)"><g class="a10 leaf node n0 p0 sample" transform="translate(-7.66667 2.57288)"><path class="edge" d="M 0 0 V -2.57288 H 7.66667" /><rect class="sym" height="6" width="6" x="-3" y="-3" /><text class="lab" transform="translate(0 11)">0</text></g><g class="a10 leaf node n3 p0 sample" transform="translate(7.66667 2.57288)"><path class="edge" d="M 0 0 V -2.57288 H -7.66667" /><rect class="sym" height="6" width="6" x="-3" y="-3" /><text class="lab" transform="translate(0 11)">3</text></g><path class="edge" d="M 0 0 V -63.3724 H 11.5" /><circle class="sym" cx="0" cy="0" r="3" /><text class="lab lft" transform="translate(-3 -7.0)">10</text></g><path class="edge" d="M 0 0 V -15.0914 H 19.1667" /><circle class="sym" cx="0" cy="0" r="3" /><text class="lab lft" transform="translate(-3 -7.0)">28</text></g><g class="a32 c2 node n31 p0" transform="translate(19.1667 0.299678)"><g class="a31 leaf node n2 p0 sample" transform="translate(-11.5 80.737)"><path class="edge" d="M 0 0 V -80.737 H 11.5" /><rect class="sym" height="6" width="6" x="-3" y="-3" /><text class="lab" transform="translate(0 11)">2</text></g><g class="a31 c1 node n26 p0" transform="translate(11.5 34.963)"><g class="a26 c2 node n24 p0" transform="translate(0.0 7.82173)"><g class="a24 leaf node n4 p0 sample" transform="translate(-7.66667 37.9523)"><path class="edge" d="M 0 0 V -37.9523 H 7.66667" /><rect class="sym" height="6" width="6" x="-3" y="-3" /><text class="lab" transform="translate(0 11)">4</text></g><g class="a24 c1 node n22 p0" transform="translate(7.66667 5.62785)"><g class="a22 c1 node n19 p0" transform="translate(0.0 4.63428)"><g class="a19 c1 node n16 p0" transform="translate(0.0 11.6752)"><g class="a16 leaf node n7 p0 sample" transform="translate(0.0 16.015)"><path class="edge" d="M 0 0 V -16.015 H 0.0" /><rect class="sym" height="6" width="6" x="-3" y="-3" /><text class="lab" transform="translate(0 11)">7</text></g><path class="edge" d="M 0 0 V -11.6752 H 0.0" /><circle class="sym" cx="0" cy="0" r="3" /><text class="lab lft" transform="translate(-3 -7.0)">16</text></g><path class="edge" d="M 0 0 V -4.63428 H 0.0" /><circle class="sym" cx="0" cy="0" r="3" /><text class="lab lft" transform="translate(-3 -7.0)">19</text></g><path class="edge" d="M 0 0 V -5.62785 H -7.66667" /><circle class="sym" cx="0" cy="0" r="3" /><text class="lab rgt" transform="translate(3 -7.0)">22</text></g><path class="edge" d="M 0 0 V -7.82173 H 0.0" /><circle class="sym" cx="0" cy="0" r="3" /><text class="lab lft" transform="translate(-3 -7.0)">24</text></g><path class="edge" d="M 0 0 V -34.963 H -11.5" /><circle class="sym" cx="0" cy="0" r="3" /><text class="lab rgt" transform="translate(3 -7.0)">26</text></g><path class="edge" d="M 0 0 V -0.299678 H -19.1667" /><circle class="sym" cx="0" cy="0" r="3" /><text class="lab rgt" transform="translate(3 -7.0)">31</text></g><path class="edge" d="M 0 0 V -13.5633 H 33.5417" /><circle class="sym" cx="0" cy="0" r="3" /><text class="lab lft" transform="translate(-3 -7.0)">32</text></g><circle class="sym" cx="0" cy="0" r="3" /><text class="lab" transform="translate(0 -11)">33</text></g></g></g><g class="tree t4" transform="translate(793.333 0)"><g class="plotbox"><g class="c2 node n33 p0 root" transform="translate(107.688 26.8)"><g class="a33 c2 node n30 p0" transform="translate(38.8125 14.5186)"><g class="a30 c1 node n29 p0" transform="translate(11.5 12.0358)"><g class="a29 c1 node n27 p0" transform="translate(0.0 15.3363)"><g class="a27 c2 node n25 p0" transform="translate(0.0 13.8294)"><g class="a25 leaf node n8 p0 sample" transform="translate(-7.66667 38.8799)"><path class="edge" d="M 0 0 V -38.8799 H 7.66667" /><rect class="sym" height="6" width="6" x="-3" y="-3" /><text class="lab" transform="translate(0 11)">8</text></g><g class="a25 leaf node n9 p0 sample" transform="translate(7.66667 38.8799)"><path class="edge" d="M 0 0 V -38.8799 H -7.66667" /><rect class="sym" height="6" width="6" x="-3" y="-3" /><text class="lab" transform="translate(0 11)">9</text></g><path class="edge" d="M 0 0 V -13.8294 H 0.0" /><circle class="sym" cx="0" cy="0" r="3" /><text class="lab lft" transform="translate(-3 -7.0)">25</text></g><path class="edge" d="M 0 0 V -15.3363 H 0.0" /><circle class="sym" cx="0" cy="0" r="3" /><text class="lab lft" transform="translate(-3 -7.0)">27</text></g><path class="edge" d="M 0 0 V -12.0358 H -11.5" /><circle class="sym" cx="0" cy="0" r="3" /><text class="lab rgt" transform="translate(3 -7.0)">29</text></g><g class="a30 c1 node n17 p0" transform="translate(-11.5 60.2067)"><g class="a17 c1 node n13 p0" transform="translate(0.0 3.97215)"><g class="a13 c1 node n12 p0" transform="translate(0.0 2.70347)"><g class="a12 leaf node n1 p0 sample" transform="translate(0.0 13.1991)"><path class="edge" d="M 0 0 V -13.1991 H 0.0" /><rect class="sym" height="6" width="6" x="-3" y="-3" /><text class="lab" transform="translate(0 11)">1</text></g><path class="edge" d="M 0 0 V -2.70347 H 0.0" /><circle class="sym" cx="0" cy="0" r="3" /><text class="lab lft" transform="translate(-3 -7.0)">12</text></g><path class="edge" d="M 0 0 V -3.97215 H 0.0" /><circle class="sym" cx="0" cy="0" r="3" /><text class="lab lft" transform="translate(-3 -7.0)">13</text></g><path class="edge" d="M 0 0 V -60.2067 H 11.5" /><circle class="sym" cx="0" cy="0" r="3" /><text class="lab lft" transform="translate(-3 -7.0)">17</text></g><path class="edge" d="M 0 0 V -14.5186 H -38.8125" /><circle class="sym" cx="0" cy="0" r="3" /><text class="lab rgt" transform="translate(3 -7.0)">30</text></g><g class="a33 c2 node n32 p0" transform="translate(-38.8125 13.5633)"><g class="a32 c2 node n28 p0" transform="translate(-22.0417 15.0914)"><g class="a28 leaf node n6 p0 sample" transform="translate(11.5 65.9453)"><path class="edge" d="M 0 0 V -65.9453 H -11.5" /><rect class="sym" height="6" width="6" x="-3" y="-3" /><text class="lab" transform="translate(0 11)">6</text></g><g class="a28 c2 node n10 p0" transform="translate(-11.5 63.3724)"><g class="a10 leaf node n0 p0 sample" transform="translate(-7.66667 2.57288)"><path class="edge" d="M 0 0 V -2.57288 H 7.66667" /><rect class="sym" height="6" width="6" x="-3" y="-3" /><text class="lab" transform="translate(0 11)">0</text></g><g class="a10 leaf node n3 p0 sample" transform="translate(7.66667 2.57288)"><path class="edge" d="M 0 0 V -2.57288 H -7.66667" /><rect class="sym" height="6" width="6" x="-3" y="-3" /><text class="lab" transform="translate(0 11)">3</text></g><path class="edge" d="M 0 0 V -63.3724 H 11.5" /><circle class="sym" cx="0" cy="0" r="3" /><text class="lab lft" transform="translate(-3 -7.0)">10</text></g><path class="edge" d="M 0 0 V -15.0914 H 22.0417" /><circle class="sym" cx="0" cy="0" r="3" /><text class="lab lft" transform="translate(-3 -7.0)">28</text></g><g class="a32 c2 node n31 p0" transform="translate(22.0417 0.299678)"><g class="a31 leaf node n2 p0 sample" transform="translate(-17.25 80.737)"><path class="edge" d="M 0 0 V -80.737 H 17.25" /><rect class="sym" height="6" width="6" x="-3" y="-3" /><text class="lab" transform="translate(0 11)">2</text></g><g class="a31 c2 node n26 p0" transform="translate(17.25 34.963)"><g class="a26 c2 node n24 p0" transform="translate(-11.5 7.82173)"><g class="a24 leaf node n4 p0 sample" transform="translate(-7.66667 37.9523)"><path class="edge" d="M 0 0 V -37.9523 H 7.66667" /><rect class="sym" height="6" width="6" x="-3" y="-3" /><text class="lab" transform="translate(0 11)">4</text></g><g class="a24 c1 node n22 p0" transform="translate(7.66667 5.62785)"><g class="a22 c1 node n19 p0" transform="translate(0.0 4.63428)"><g class="a19 c1 node n16 p0" transform="translate(0.0 11.6752)"><g class="a16 leaf node n7 p0 sample" transform="translate(0.0 16.015)"><path class="edge" d="M 0 0 V -16.015 H 0.0" /><rect class="sym" height="6" width="6" x="-3" y="-3" /><text class="lab" transform="translate(0 11)">7</text></g><path class="edge" d="M 0 0 V -11.6752 H 0.0" /><circle class="sym" cx="0" cy="0" r="3" /><text class="lab lft" transform="translate(-3 -7.0)">16</text></g><path class="edge" d="M 0 0 V -4.63428 H 0.0" /><circle class="sym" cx="0" cy="0" r="3" /><text class="lab lft" transform="translate(-3 -7.0)">19</text></g><path class="edge" d="M 0 0 V -5.62785 H -7.66667" /><circle class="sym" cx="0" cy="0" r="3" /><text class="lab rgt" transform="translate(3 -7.0)">22</text></g><path class="edge" d="M 0 0 V -7.82173 H 11.5" /><circle class="sym" cx="0" cy="0" r="3" /><text class="lab lft" transform="translate(-3 -7.0)">24</text></g><g class="a26 c1 node n21 p0" transform="translate(11.5 15.8788)"><g class="a21 leaf node n5 p0 sample" transform="translate(0.0 29.8952)"><path class="edge" d="M 0 0 V -29.8952 H 0.0" /><rect class="sym" height="6" width="6" x="-3" y="-3" /><text class="lab" transform="translate(0 11)">5</text></g><path class="edge" d="M 0 0 V -15.8788 H -11.5" /><circle class="sym" cx="0" cy="0" r="3" /><text class="lab rgt" transform="translate(3 -7.0)">21</text></g><path class="edge" d="M 0 0 V -34.963 H -17.25" /><circle class="sym" cx="0" cy="0" r="3" /><text class="lab rgt" transform="translate(3 -7.0)">26</text></g><path class="edge" d="M 0 0 V -0.299678 H -22.0417" /><circle class="sym" cx="0" cy="0" r="3" /><text class="lab rgt" transform="translate(3 -7.0)">31</text></g><path class="edge" d="M 0 0 V -13.5633 H 38.8125" /><circle class="sym" cx="0" cy="0" r="3" /><text class="lab lft" transform="translate(-3 -7.0)">32</text></g><circle class="sym" cx="0" cy="0" r="3" /><text class="lab" transform="translate(0 -11)">33</text></g></g></g><g class="tree t5" transform="translate(986.667 0)"><g class="plotbox"><g class="c2 node n33 p0 root" transform="translate(107.688 26.8)"><g class="a33 c2 node n30 p0" transform="translate(38.8125 14.5186)"><g class="a30 c1 node n29 p0" transform="translate(11.5 12.0358)"><g class="a29 c1 node n27 p0" transform="translate(0.0 15.3363)"><g class="a27 c2 node n25 p0" transform="translate(0.0 13.8294)"><g class="a25 leaf node n8 p0 sample" transform="translate(-7.66667 38.8799)"><path class="edge" d="M 0 0 V -38.8799 H 7.66667" /><rect class="sym" height="6" width="6" x="-3" y="-3" /><text class="lab" transform="translate(0 11)">8</text></g><g class="a25 leaf node n9 p0 sample" transform="translate(7.66667 38.8799)"><path class="edge" d="M 0 0 V -38.8799 H -7.66667" /><rect class="sym" height="6" width="6" x="-3" y="-3" /><text class="lab" transform="translate(0 11)">9</text></g><path class="edge" d="M 0 0 V -13.8294 H 0.0" /><circle class="sym" cx="0" cy="0" r="3" /><text class="lab lft" transform="translate(-3 -7.0)">25</text></g><path class="edge" d="M 0 0 V -15.3363 H 0.0" /><circle class="sym" cx="0" cy="0" r="3" /><text class="lab lft" transform="translate(-3 -7.0)">27</text></g><path class="edge" d="M 0 0 V -12.0358 H -11.5" /><circle class="sym" cx="0" cy="0" r="3" /><text class="lab rgt" transform="translate(3 -7.0)">29</text></g><g class="a30 c1 node n17 p0" transform="translate(-11.5 60.2067)"><g class="a17 c1 node n14 p0" transform="translate(0.0 3.97215)"><g class="a14 c1 node n12 p0" transform="translate(0.0 2.70347)"><g class="a12 leaf node n1 p0 sample" transform="translate(0.0 13.1991)"><path class="edge" d="M 0 0 V -13.1991 H 0.0" /><rect class="sym" height="6" width="6" x="-3" y="-3" /><text class="lab" transform="translate(0 11)">1</text></g><path class="edge" d="M 0 0 V -2.70347 H 0.0" /><circle class="sym" cx="0" cy="0" r="3" /><text class="lab lft" transform="translate(-3 -7.0)">12</text></g><path class="edge" d="M 0 0 V -3.97215 H 0.0" /><circle class="sym" cx="0" cy="0" r="3" /><text class="lab lft" transform="translate(-3 -7.0)">14</text></g><path class="edge" d="M 0 0 V -60.2067 H 11.5" /><circle class="sym" cx="0" cy="0" r="3" /><text class="lab lft" transform="translate(-3 -7.0)">17</text></g><path class="edge" d="M 0 0 V -14.5186 H -38.8125" /><circle class="sym" cx="0" cy="0" r="3" /><text class="lab rgt" transform="translate(3 -7.0)">30</text></g><g class="a33 c2 node n32 p0" transform="translate(-38.8125 13.5633)"><g class="a32 c2 node n28 p0" transform="translate(-22.0417 15.0914)"><g class="a28 leaf node n6 p0 sample" transform="translate(11.5 65.9453)"><path class="edge" d="M 0 0 V -65.9453 H -11.5" /><rect class="sym" height="6" width="6" x="-3" y="-3" /><text class="lab" transform="translate(0 11)">6</text></g><g class="a28 c2 node n10 p0" transform="translate(-11.5 63.3724)"><g class="a10 leaf node n0 p0 sample" transform="translate(-7.66667 2.57288)"><path class="edge" d="M 0 0 V -2.57288 H 7.66667" /><rect class="sym" height="6" width="6" x="-3" y="-3" /><text class="lab" transform="translate(0 11)">0</text></g><g class="a10 leaf node n3 p0 sample" transform="translate(7.66667 2.57288)"><path class="edge" d="M 0 0 V -2.57288 H -7.66667" /><rect class="sym" height="6" width="6" x="-3" y="-3" /><text class="lab" transform="translate(0 11)">3</text></g><path class="edge" d="M 0 0 V -63.3724 H 11.5" /><circle class="sym" cx="0" cy="0" r="3" /><text class="lab lft" transform="translate(-3 -7.0)">10</text></g><path class="edge" d="M 0 0 V -15.0914 H 22.0417" /><circle class="sym" cx="0" cy="0" r="3" /><text class="lab lft" transform="translate(-3 -7.0)">28</text></g><g class="a32 c2 node n31 p0" transform="translate(22.0417 0.299678)"><g class="a31 leaf node n2 p0 sample" transform="translate(-17.25 80.737)"><path class="edge" d="M 0 0 V -80.737 H 17.25" /><rect class="sym" height="6" width="6" x="-3" y="-3" /><text class="lab" transform="translate(0 11)">2</text></g><g class="a31 c2 node n26 p0" transform="translate(17.25 34.963)"><g class="a26 c2 node n24 p0" transform="translate(-11.5 7.82173)"><g class="a24 leaf node n4 p0 sample" transform="translate(-7.66667 37.9523)"><path class="edge" d="M 0 0 V -37.9523 H 7.66667" /><rect class="sym" height="6" width="6" x="-3" y="-3" /><text class="lab" transform="translate(0 11)">4</text></g><g class="a24 c1 node n22 p0" transform="translate(7.66667 5.62785)"><g class="a22 c1 node n19 p0" transform="translate(0.0 4.63428)"><g class="a19 c1 node n16 p0" transform="translate(0.0 11.6752)"><g class="a16 leaf node n7 p0 sample" transform="translate(0.0 16.015)"><path class="edge" d="M 0 0 V -16.015 H 0.0" /><rect class="sym" height="6" width="6" x="-3" y="-3" /><text class="lab" transform="translate(0 11)">7</text></g><path class="edge" d="M 0 0 V -11.6752 H 0.0" /><circle class="sym" cx="0" cy="0" r="3" /><text class="lab lft" transform="translate(-3 -7.0)">16</text></g><path class="edge" d="M 0 0 V -4.63428 H 0.0" /><circle class="sym" cx="0" cy="0" r="3" /><text class="lab lft" transform="translate(-3 -7.0)">19</text></g><path class="edge" d="M 0 0 V -5.62785 H -7.66667" /><circle class="sym" cx="0" cy="0" r="3" /><text class="lab rgt" transform="translate(3 -7.0)">22</text></g><path class="edge" d="M 0 0 V -7.82173 H 11.5" /><circle class="sym" cx="0" cy="0" r="3" /><text class="lab lft" transform="translate(-3 -7.0)">24</text></g><g class="a26 c1 node n21 p0" transform="translate(11.5 15.8788)"><g class="a21 leaf node n5 p0 sample" transform="translate(0.0 29.8952)"><path class="edge" d="M 0 0 V -29.8952 H 0.0" /><rect class="sym" height="6" width="6" x="-3" y="-3" /><text class="lab" transform="translate(0 11)">5</text></g><path class="edge" d="M 0 0 V -15.8788 H -11.5" /><circle class="sym" cx="0" cy="0" r="3" /><text class="lab rgt" transform="translate(3 -7.0)">21</text></g><path class="edge" d="M 0 0 V -34.963 H -17.25" /><circle class="sym" cx="0" cy="0" r="3" /><text class="lab rgt" transform="translate(3 -7.0)">26</text></g><path class="edge" d="M 0 0 V -0.299678 H -22.0417" /><circle class="sym" cx="0" cy="0" r="3" /><text class="lab rgt" transform="translate(3 -7.0)">31</text></g><path class="edge" d="M 0 0 V -13.5633 H 38.8125" /><circle class="sym" cx="0" cy="0" r="3" /><text class="lab lft" transform="translate(-3 -7.0)">32</text></g><circle class="sym" cx="0" cy="0" r="3" /><text class="lab" transform="translate(0 -11)">33</text></g></g></g></g></g></svg>
