<svg baseProfile="full" height="200" version="1.1" width="1000" xmlns="http://www.w3.org/2000/svg" xmlns:ev="http://www.w3.org/2001/xml-events" xmlns:xlink="http://www.w3.org/1999/xlink"><defs><style type="text/css"><![CDATA[.background path {fill: #808080; fill-opacity: 0}.background path:nth-child(odd) {fill-opacity: .1}.axes {font-size: 14px}.x-axis .tick .lab {font-weight: bold; dominant-baseline: hanging}.axes, .tree {font-size: 14px; text-anchor: middle}.axes line, .edge {stroke: black; fill: none}.y-axis .grid {stroke: #FAFAFA}.node > .sym {fill: black; stroke: none}.site > .sym {stroke: black}.mut text {fill: red; font-style: italic}.mut.extra text {fill: hotpink}.mut line {fill: none; stroke: none}.mut .sym {fill: none; stroke: red}.mut.extra .sym {stroke: hotpink}.node .mut .sym {stroke-width: 1.5px}.tree text, .tree-sequence text {dominant-baseline: central}.plotbox .lab.lft {text-anchor: end}.plotbox .lab.rgt {text-anchor: start}]]></style></defs><g class="tree-sequence"><g class="background"><path d="M20,0 l192,0 l0,138.2 l108.395,25 l0,5 l-300.395,0 l0,-5 l0,-25 l0,-138.2z" /><path d="M212,0 l192,0 l0,138.2 l2.47402,25 l0,5 l-86.0789,0 l0,-5 l-108.395,-25 l0,-138.2z" /><path d="M404,0 l192,0 l0,138.2 l-65.5607,25 l0,5 l-123.965,0 l0,-5 l-2.47402,-25 l0,-138.2z" /><path d="M596,0 l192,0 l0,138.2 l-249.785,25 l0,5 l-7.77536,0 l0,-5 l65.5607,-25 l0,-138.2z" /><path d="M788,0 l192,0 l0,138.2 l0,25 l0,5 l-441.785,0 l0,-5 l249.785,-25 l0,-138.2z" /></g><g class="axes"><g class="x-axis"><g transform="translate(500 200)"><text class="lab" text-anchor="middle" transform="translate(0 -11)">Genome position</text></g><line x1="20" x2="980" y1="163.2" y2="163.2" /><g class="ticks"><g class="tick" transform="translate(20 163.2)"><line x1="0" x2="0" y1="0" y2="5" /><g transform="translate(0 6)"><text class="lab">0.00</text></g></g><g class="tick" transform="translate(320.395 163.2)"><line x1="0" x2="0" y1="0" y2="5" /><g transform="translate(0 6)"><text class="lab">312.91</text></g></g><g class="tick" transform="translate(406.474 163.2)"><line x1="0" x2="0" y1="0" y2="5" /><g transform="translate(0 6)"><text class="lab">402.58</text></g></g><g class="tick" transform="translate(530.439 163.2)"><line x1="0" x2="0" y1="0" y2="5" /><g transform="translate(0 6)"><text class="lab">531.71</text></g></g><g class="tick" transform="translate(538.215 163.2)"><line x1="0" x2="0" y1="0" y2="5" /><g transform="translate(0 6)"><text class="lab">539.81</text></g></g><g class="tick" transform="translate(980 163.2)"><line x1="0" x2="0" y1="0" y2="5" /><g transform="translate(0 6)"><text class="lab">1000.00</text></g></g></g></g></g><g class="plotbox trees"><g class="tree t0" transform="translate(20 0)"><g class="plotbox"><g class="c2 node n30 p0 root" transform="translate(114.525 26.8)"><g class="a30 c2 node n28 p0" transform="translate(42.275 42.1872)"><g class="a28 leaf node n9 p0 sample" transform="translate(7.6 52.4128)"><path class="edge" d="M 0 0 V -52.4128 H -7.6" /><rect class="sym" height="6" width="6" x="-3" y="-3" /><text class="lab" transform="translate(0 11)">9</text></g><g class="a28 c1 node n21 p0" transform="translate(-7.6 42.2616)"><g class="a21 leaf node n3 p0 sample" transform="translate(0.0 10.1511)"><path class="edge" d="M 0 0 V -10.1511 H 0.0" /><rect class="sym" height="6" width="6" x="-3" y="-3" /><text class="lab" transform="translate(0 11)">3</text></g><path class="edge" d="M 0 0 V -42.2616 H 7.6" /><circle class="sym" cx="0" cy="0" r="3" /><text class="lab lft" transform="translate(-3 -7.0)">21</text></g><path class="edge" d="M 0 0 V -42.1872 H -42.275" /><circle class="sym" cx="0" cy="0" r="3" /><text class="lab rgt" transform="translate(3 -7.0)">28</text></g><g class="a30 c2 node n29 p0" transform="translate(-42.275 3.39953)"><g class="a29 c1 node n24 p0" transform="translate(-33.25 63.1287)"><g class="a24 c1 node n23 p0" transform="translate(0.0 6.25794)"><g class="a23 c2 node n20 p0" transform="translate(0.0 13.0604)"><g class="a20 c2 node n14 p0" transform="translate(11.4 4.20147)"><g class="a14 leaf node n4 p0 sample" transform="translate(-7.6 4.55201)"><path class="edge" d="M 0 0 V -4.55201 H 7.6" /><rect class="sym" height="6" width="6" x="-3" y="-3" /><text class="lab" transform="translate(0 11)">4</text></g><g class="a14 c1 node n11 p0" transform="translate(7.6 2.2906)"><g class="a11 leaf node n8 p0 sample" transform="translate(0.0 2.26141)"><path class="edge" d="M 0 0 V -2.26141 H 0.0" /><rect class="sym" height="6" width="6" x="-3" y="-3" /><text class="lab" transform="translate(0 11)">8</text></g><path class="edge" d="M 0 0 V -2.2906 H -7.6" /><circle class="sym" cx="0" cy="0" r="3" /><text class="lab rgt" transform="translate(3 -7.0)">11</text></g><path class="edge" d="M 0 0 V -4.20147 H -11.4" /><circle class="sym" cx="0" cy="0" r="3" /><text class="lab rgt" transform="translate(3 -7.0)">14</text></g><g class="a20 c1 node n18 p0" transform="translate(-11.4 0.704396)"><g class="a18 leaf node n0 p0 sample" transform="translate(0.0 8.04909)"><path class="edge" d="M 0 0 V -8.04909 H 0.0" /><rect class="sym" height="6" width="6" x="-3" y="-3" /><text class="lab" transform="translate(0 11)">0</text></g><path class="edge" d="M 0 0 V -0.704396 H 11.4" /><circle class="sym" cx="0" cy="0" r="3" /><text class="lab lft" transform="translate(-3 -7.0)">18</text></g><path class="edge" d="M 0 0 V -13.0604 H 0.0" /><circle class="sym" cx="0" cy="0" r="3" /><text class="lab lft" transform="translate(-3 -7.0)">20</text></g><path class="edge" d="M 0 0 V -6.25794 H 0.0" /><circle class="sym" cx="0" cy="0" r="3" /><text class="lab lft" transform="translate(-3 -7.0)">23</text></g><path class="edge" d="M 0 0 V -63.1287 H 33.25" /><circle class="sym" cx="0" cy="0" r="3" /><text class="lab lft" transform="translate(-3 -7.0)">24</text></g><g class="a29 c2 node n27 p0" transform="translate(33.25 55.1352)"><g class="a27 c1 node n22 p0" transform="translate(20.9 18.2514)"><g class="a22 c1 node n16 p0" transform="translate(0.0 11.4262)"><g class="a16 c2 node n15 p0" transform="translate(0.0 0.686595)"><g class="a15 leaf node n2 p0 sample" transform="translate(-7.6 5.70111)"><path class="edge" d="M 0 0 V -5.70111 H 7.6" /><rect class="sym" height="6" width="6" x="-3" y="-3" /><text class="lab" transform="translate(0 11)">2</text></g><g class="a15 leaf node n7 p0 sample" transform="translate(7.6 5.70111)"><path class="edge" d="M 0 0 V -5.70111 H -7.6" /><rect class="sym" height="6" width="6" x="-3" y="-3" /><text class="lab" transform="translate(0 11)">7</text></g><path class="edge" d="M 0 0 V -0.686595 H 0.0" /><circle class="sym" cx="0" cy="0" r="3" /><text class="lab lft" transform="translate(-3 -7.0)">15</text></g><path class="edge" d="M 0 0 V -11.4262 H 0.0" /><circle class="sym" cx="0" cy="0" r="3" /><text class="lab lft" transform="translate(-3 -7.0)">16</text></g><path class="edge" d="M 0 0 V -18.2514 H -20.9" /><circle class="sym" cx="0" cy="0" r="3" /><text class="lab rgt" transform="translate(3 -7.0)">22</text></g><g class="a27 c1 node n26 p0" transform="translate(-20.9 4.14742)"><g class="a26 c2 node n13 p0" transform="translate(0.0 27.7816)"><g class="a13 leaf node n1 p0 sample" transform="translate(-11.4 4.13625)"><path class="edge" d="M 0 0 V -4.13625 H 11.4" /><rect class="sym" height="6" width="6" x="-3" y="-3" /><text class="lab" transform="translate(0 11)">1</text></g><g class="a13 c2 node n10 p0" transform="translate(11.4 3.40996)"><g class="a10 leaf node n5 p0 sample" transform="translate(-7.6 0.726291)"><path class="edge" d="M 0 0 V -0.726291 H 7.6" /><rect class="sym" height="6" width="6" x="-3" y="-3" /><text class="lab" transform="translate(0 11)">5</text></g><g class="a10 leaf node n6 p0 sample" transform="translate(7.6 0.726291)"><path class="edge" d="M 0 0 V -0.726291 H -7.6" /><rect class="sym" height="6" width="6" x="-3" y="-3" /><text class="lab" transform="translate(0 11)">6</text></g><path class="edge" d="M 0 0 V -3.40996 H -11.4" /><circle class="sym" cx="0" cy="0" r="3" /><text class="lab rgt" transform="translate(3 -7.0)">10</text></g><path class="edge" d="M 0 0 V -27.7816 H 0.0" /><circle class="sym" cx="0" cy="0" r="3" /><text class="lab lft" transform="translate(-3 -7.0)">13</text></g><path class="edge" d="M 0 0 V -4.14742 H 20.9" /><circle class="sym" cx="0" cy="0" r="3" /><text class="lab lft" transform="translate(-3 -7.0)">26</text></g><path class="edge" d="M 0 0 V -55.1352 H -33.25" /><circle class="sym" cx="0" cy="0" r="3" /><text class="lab rgt" transform="translate(3 -7.0)">27</text></g><path class="edge" d="M 0 0 V -3.39953 H 42.275" /><circle class="sym" cx="0" cy="0" r="3" /><text class="lab lft" transform="translate(-3 -7.0)">29</text></g><circle class="sym" cx="0" cy="0" r="3" /><text class="lab" transform="translate(0 -11)">30</text></g></g></g><g class="tree t1" transform="translate(212 0)"><g class="plotbox"><g class="c2 node n30 p0 root" transform="translate(125.45 26.8)"><g class="a30 c2 node n28 p0" transform="translate(31.35 42.1872)"><g class="a28 leaf node n9 p0 sample" transform="translate(7.6 52.4128)"><path class="edge" d="M 0 0 V -52.4128 H -7.6" /><rect class="sym" height="6" width="6" x="-3" y="-3" /><text class="lab" transform="translate(0 11)">9</text></g><g class="a28 c1 node n21 p0" transform="translate(-7.6 42.2616)"><g class="a21 leaf node n3 p0 sample" transform="translate(0.0 10.1511)"><path class="edge" d="M 0 0 V -10.1511 H 0.0" /><rect class="sym" height="6" width="6" x="-3" y="-3" /><text class="lab" transform="translate(0 11)">3</text></g><path class="edge" d="M 0 0 V -42.2616 H 7.6" /><circle class="sym" cx="0" cy="0" r="3" /><text class="lab lft" transform="translate(-3 -7.0)">21</text></g><path class="edge" d="M 0 0 V -42.1872 H -31.35" /><circle class="sym" cx="0" cy="0" r="3" /><text class="lab rgt" transform="translate(3 -7.0)">28</text></g><g class="a30 c1 node n29 p0" transform="translate(-31.35 3.39953)"><g class="a29 c2 node n27 p0" transform="translate(0.0 55.1352)"><g class="a27 c1 node n22 p0" transform="translate(32.3 18.2514)"><g class="a22 c1 node n16 p0" transform="translate(0.0 11.4262)"><g class="a16 c2 node n15 p0" transform="translate(0.0 0.686595)"><g class="a15 leaf node n2 p0 sample" transform="translate(-7.6 5.70111)"><path class="edge" d="M 0 0 V -5.70111 H 7.6" /><rect class="sym" height="6" width="6" x="-3" y="-3" /><text class="lab" transform="translate(0 11)">2</text></g><g class="a15 leaf node n7 p0 sample" transform="translate(7.6 5.70111)"><path class="edge" d="M 0 0 V -5.70111 H -7.6" /><rect class="sym" height="6" width="6" x="-3" y="-3" /><text class="lab" transform="translate(0 11)">7</text></g><path class="edge" d="M 0 0 V -0.686595 H 0.0" /><circle class="sym" cx="0" cy="0" r="3" /><text class="lab lft" transform="translate(-3 -7.0)">15</text></g><path class="edge" d="M 0 0 V -11.4262 H 0.0" /><circle class="sym" cx="0" cy="0" r="3" /><text class="lab lft" transform="translate(-3 -7.0)">16</text></g><path class="edge" d="M 0 0 V -18.2514 H -32.3" /><circle class="sym" cx="0" cy="0" r="3" /><text class="lab rgt" transform="translate(3 -7.0)">22</text></g><g class="a27 c2 node n26 p0" transform="translate(-32.3 4.14742)"><g class="a26 c2 node n13 p0" transform="translate(22.8 27.7816)"><g class="a13 leaf node n1 p0 sample" transform="translate(-11.4 4.13625)"><path class="edge" d="M 0 0 V -4.13625 H 11.4" /><rect class="sym" height="6" width="6" x="-3" y="-3" /><text class="lab" transform="translate(0 11)">1</text></g><g class="a13 c2 node n10 p0" transform="translate(11.4 3.40996)"><g class="a10 leaf node n5 p0 sample" transform="translate(-7.6 0.726291)"><path class="edge" d="M 0 0 V -0.726291 H 7.6" /><rect class="sym" height="6" width="6" x="-3" y="-3" /><text class="lab" transform="translate(0 11)">5</text></g><g class="a10 leaf node n6 p0 sample" transform="translate(7.6 0.726291)"><path class="edge" d="M 0 0 V -0.726291 H -7.6" /><rect class="sym" height="6" width="6" x="-3" y="-3" /><text class="lab" transform="translate(0 11)">6</text></g><path class="edge" d="M 0 0 V -3.40996 H -11.4" /><circle class="sym" cx="0" cy="0" r="3" /><text class="lab rgt" transform="translate(3 -7.0)">10</text></g><path class="edge" d="M 0 0 V -27.7816 H -22.8" /><circle class="sym" cx="0" cy="0" r="3" /><text class="lab rgt" transform="translate(3 -7.0)">13</text></g><g class="a26 c1 node n25 p0" transform="translate(-22.8 3.84609)"><g class="a25 c1 node n23 p0" transform="translate(0.0 6.25794)"><g class="a23 c2 node n20 p0" transform="translate(0.0 13.0604)"><g class="a20 c2 node n14 p0" transform="translate(11.4 4.20147)"><g class="a14 leaf node n4 p0 sample" transform="translate(-7.6 4.55201)"><path class="edge" d="M 0 0 V -4.55201 H 7.6" /><rect class="sym" height="6" width="6" x="-3" y="-3" /><text class="lab" transform="translate(0 11)">4</text></g><g class="a14 c1 node n11 p0" transform="translate(7.6 2.2906)"><g class="a11 leaf node n8 p0 sample" transform="translate(0.0 2.26141)"><path class="edge" d="M 0 0 V -2.26141 H 0.0" /><rect class="sym" height="6" width="6" x="-3" y="-3" /><text class="lab" transform="translate(0 11)">8</text></g><path class="edge" d="M 0 0 V -2.2906 H -7.6" /><circle class="sym" cx="0" cy="0" r="3" /><text class="lab rgt" transform="translate(3 -7.0)">11</text></g><path class="edge" d="M 0 0 V -4.20147 H -11.4" /><circle class="sym" cx="0" cy="0" r="3" /><text class="lab rgt" transform="translate(3 -7.0)">14</text></g><g class="a20 c1 node n18 p0" transform="translate(-11.4 0.704396)"><g class="a18 leaf node n0 p0 sample" transform="translate(0.0 8.04909)"><path class="edge" d="M 0 0 V -8.04909 H 0.0" /><rect class="sym" height="6" width="6" x="-3" y="-3" /><text class="lab" transform="translate(0 11)">0</text></g><path class="edge" d="M 0 0 V -0.704396 H 11.4" /><circle class="sym" cx="0" cy="0" r="3" /><text class="lab lft" transform="translate(-3 -7.0)">18</text></g><path class="edge" d="M 0 0 V -13.0604 H 0.0" /><circle class="sym" cx="0" cy="0" r="3" /><text class="lab lft" transform="translate(-3 -7.0)">20</text></g><path class="edge" d="M 0 0 V -6.25794 H 0.0" /><circle class="sym" cx="0" cy="0" r="3" /><text class="lab lft" transform="translate(-3 -7.0)">23</text></g><path class="edge" d="M 0 0 V -3.84609 H 22.8" /><circle class="sym" cx="0" cy="0" r="3" /><text class="lab lft" transform="translate(-3 -7.0)">25</text></g><path class="edge" d="M 0 0 V -4.14742 H 32.3" /><circle class="sym" cx="0" cy="0" r="3" /><text class="lab lft" transform="translate(-3 -7.0)">26</text></g><path class="edge" d="M 0 0 V -55.1352 H 0.0" /><circle class="sym" cx="0" cy="0" r="3" /><text class="lab lft" transform="translate(-3 -7.0)">27</text></g><path class="edge" d="M 0 0 V -3.39953 H 31.35" /><circle class="sym" cx="0" cy="0" r="3" /><text class="lab lft" transform="translate(-3 -7.0)">29</text></g><circle class="sym" cx="0" cy="0" r="3" /><text class="lab" transform="translate(0 -11)">30</text></g></g></g><g class="tree t2" transform="translate(404 0)"><g class="plotbox"><g class="c2 node n30 p0 root" transform="translate(122.125 26.8)"><g class="a30 c2 node n28 p0" transform="translate(34.675 42.1872)"><g class="a28 leaf node n9 p0 sample" transform="translate(7.6 52.4128)"><path class="edge" d="M 0 0 V -52.4128 H -7.6" /><rect class="sym" height="6" width="6" x="-3" y="-3" /><text class="lab" transform="translate(0 11)">9</text></g><g class="a28 c1 node n21 p0" transform="translate(-7.6 42.2616)"><g class="a21 leaf node n3 p0 sample" transform="translate(0.0 10.1511)"><path class="edge" d="M 0 0 V -10.1511 H 0.0" /><rect class="sym" height="6" width="6" x="-3" y="-3" /><text class="lab" transform="translate(0 11)">3</text></g><path class="edge" d="M 0 0 V -42.2616 H 7.6" /><circle class="sym" cx="0" cy="0" r="3" /><text class="lab lft" transform="translate(-3 -7.0)">21</text></g><path class="edge" d="M 0 0 V -42.1872 H -34.675" /><circle class="sym" cx="0" cy="0" r="3" /><text class="lab rgt" transform="translate(3 -7.0)">28</text></g><g class="a30 c1 node n29 p0" transform="translate(-34.675 3.39953)"><g class="a29 c2 node n27 p0" transform="translate(0.0 55.1352)"><g class="a27 c2 node n22 p0" transform="translate(35.15 18.2514)"><g class="a22 c1 node n16 p0" transform="translate(-11.4 11.4262)"><g class="a16 c2 node n15 p0" transform="translate(0.0 0.686595)"><g class="a15 leaf node n2 p0 sample" transform="translate(-7.6 5.70111)"><path class="edge" d="M 0 0 V -5.70111 H 7.6" /><rect class="sym" height="6" width="6" x="-3" y="-3" /><text class="lab" transform="translate(0 11)">2</text></g><g class="a15 leaf node n7 p0 sample" transform="translate(7.6 5.70111)"><path class="edge" d="M 0 0 V -5.70111 H -7.6" /><rect class="sym" height="6" width="6" x="-3" y="-3" /><text class="lab" transform="translate(0 11)">7</text></g><path class="edge" d="M 0 0 V -0.686595 H 0.0" /><circle class="sym" cx="0" cy="0" r="3" /><text class="lab lft" transform="translate(-3 -7.0)">15</text></g><path class="edge" d="M 0 0 V -11.4262 H 11.4" /><circle class="sym" cx="0" cy="0" r="3" /><text class="lab lft" transform="translate(-3 -7.0)">16</text></g><g class="a22 c1 node n12 p0" transform="translate(11.4 15.5525)"><g class="a12 leaf node n8 p0 sample" transform="translate(0.0 2.26141)"><path class="edge" d="M 0 0 V -2.26141 H 0.0" /><rect class="sym" height="6" width="6" x="-3" y="-3" /><text class="lab" transform="translate(0 11)">8</text></g><path class="edge" d="M 0 0 V -15.5525 H -11.4" /><circle class="sym" cx="0" cy="0" r="3" /><text class="lab rgt" transform="translate(3 -7.0)">12</text></g><path class="edge" d="M 0 0 V -18.2514 H -35.15" /><circle class="sym" cx="0" cy="0" r="3" /><text class="lab rgt" transform="translate(3 -7.0)">22</text></g><g class="a27 c2 node n26 p0" transform="translate(-35.15 4.14742)"><g class="a26 c2 node n13 p0" transform="translate(17.1 27.7816)"><g class="a13 leaf node n1 p0 sample" transform="translate(-11.4 4.13625)"><path class="edge" d="M 0 0 V -4.13625 H 11.4" /><rect class="sym" height="6" width="6" x="-3" y="-3" /><text class="lab" transform="translate(0 11)">1</text></g><g class="a13 c2 node n10 p0" transform="translate(11.4 3.40996)"><g class="a10 leaf node n5 p0 sample" transform="translate(-7.6 0.726291)"><path class="edge" d="M 0 0 V -0.726291 H 7.6" /><rect class="sym" height="6" width="6" x="-3" y="-3" /><text class="lab" transform="translate(0 11)">5</text></g><g class="a10 leaf node n6 p0 sample" transform="translate(7.6 0.726291)"><path class="edge" d="M 0 0 V -0.726291 H -7.6" /><rect class="sym" height="6" width="6" x="-3" y="-3" /><text class="lab" transform="translate(0 11)">6</text></g><path class="edge" d="M 0 0 V -3.40996 H -11.4" /><circle class="sym" cx="0" cy="0" r="3" /><text class="lab rgt" transform="translate(3 -7.0)">10</text></g><path class="edge" d="M 0 0 V -27.7816 H -17.1" /><circle class="sym" cx="0" cy="0" r="3" /><text class="lab rgt" transform="translate(3 -7.0)">13</text></g><g class="a26 c1 node n25 p0" transform="translate(-17.1 3.84609)"><g class="a25 c1 node n23 p0" transform="translate(0.0 6.25794)"><g class="a23 c2 node n20 p0" transform="translate(0.0 13.0604)"><g class="a20 c1 node n14 p0" transform="translate(7.6 4.20147)"><g class="a14 leaf node n4 p0 sample" transform="translate(0.0 4.55201)"><path class="edge" d="M 0 0 V -4.55201 H 0.0" /><rect class="sym" height="6" width="6" x="-3" y="-3" /><text class="lab" transform="translate(0 11)">4</text></g><path class="edge" d="M 0 0 V -4.20147 H -7.6" /><circle class="sym" cx="0" cy="0" r="3" /><text class="lab rgt" transform="translate(3 -7.0)">14</text></g><g class="a20 c1 node n18 p0" transform="translate(-7.6 0.704396)"><g class="a18 leaf node n0 p0 sample" transform="translate(0.0 8.04909)"><path class="edge" d="M 0 0 V -8.04909 H 0.0" /><rect class="sym" height="6" width="6" x="-3" y="-3" /><text class="lab" transform="translate(0 11)">0</text></g><path class="edge" d="M 0 0 V -0.704396 H 7.6" /><circle class="sym" cx="0" cy="0" r="3" /><text class="lab lft" transform="translate(-3 -7.0)">18</text></g><path class="edge" d="M 0 0 V -13.0604 H 0.0" /><circle class="sym" cx="0" cy="0" r="3" /><text class="lab lft" transform="translate(-3 -7.0)">20</text></g><path class="edge" d="M 0 0 V -6.25794 H 0.0" /><circle class="sym" cx="0" cy="0" r="3" /><text class="lab lft" transform="translate(-3 -7.0)">23</text></g><path class="edge" d="M 0 0 V -3.84609 H 17.1" /><circle class="sym" cx="0" cy="0" r="3" /><text class="lab lft" transform="translate(-3 -7.0)">25</text></g><path class="edge" d="M 0 0 V -4.14742 H 35.15" /><circle class="sym" cx="0" cy="0" r="3" /><text class="lab lft" transform="translate(-3 -7.0)">26</text></g><path class="edge" d="M 0 0 V -55.1352 H 0.0" /><circle class="sym" cx="0" cy="0" r="3" /><text class="lab lft" transform="translate(-3 -7.0)">27</text></g><path class="edge" d="M 0 0 V -3.39953 H 34.675" /><circle class="sym" cx="0" cy="0" r="3" /><text class="lab lft" transform="translate(-3 -7.0)">29</text></g><circle class="sym" cx="0" cy="0" r="3" /><text class="lab" transform="translate(0 -11)">30</text></g></g></g><g class="tree t3" transform="translate(596 0)"><g class="plotbox"><g class="c2 node n30 p0 root" transform="translate(122.125 26.8)"><g class="a30 c2 node n28 p0" transform="translate(34.675 42.1872)"><g class="a28 leaf node n9 p0 sample" transform="translate(7.6 52.4128)"><path class="edge" d="M 0 0 V -52.4128 H -7.6" /><rect class="sym" height="6" width="6" x="-3" y="-3" /><text class="lab" transform="translate(0 11)">9</text></g><g class="a28 c1 node n21 p0" transform="translate(-7.6 42.2616)"><g class="a21 leaf node n3 p0 sample" transform="translate(0.0 10.1511)"><path class="edge" d="M 0 0 V -10.1511 H 0.0" /><rect class="sym" height="6" width="6" x="-3" y="-3" /><text class="lab" transform="translate(0 11)">3</text></g><path class="edge" d="M 0 0 V -42.2616 H 7.6" /><circle class="sym" cx="0" cy="0" r="3" /><text class="lab lft" transform="translate(-3 -7.0)">21</text></g><path class="edge" d="M 0 0 V -42.1872 H -34.675" /><circle class="sym" cx="0" cy="0" r="3" /><text class="lab rgt" transform="translate(3 -7.0)">28</text></g><g class="a30 c1 node n29 p0" transform="translate(-34.675 3.39953)"><g class="a29 c2 node n27 p0" transform="translate(0.0 55.1352)"><g class="a27 c2 node n22 p0" transform="translate(35.15 18.2514)"><g class="a22 c1 node n16 p0" transform="translate(-11.4 11.4262)"><g class="a16 c2 node n15 p0" transform="translate(0.0 0.686595)"><g class="a15 leaf node n2 p0 sample" transform="translate(-7.6 5.70111)"><path class="edge" d="M 0 0 V -5.70111 H 7.6" /><rect class="sym" height="6" width="6" x="-3" y="-3" /><text class="lab" transform="translate(0 11)">2</text></g><g class="a15 leaf node n7 p0 sample" transform="translate(7.6 5.70111)"><path class="edge" d="M 0 0 V -5.70111 H -7.6" /><rect class="sym" height="6" width="6" x="-3" y="-3" /><text class="lab" transform="translate(0 11)">7</text></g><path class="edge" d="M 0 0 V -0.686595 H 0.0" /><circle class="sym" cx="0" cy="0" r="3" /><text class="lab lft" transform="translate(-3 -7.0)">15</text></g><path class="edge" d="M 0 0 V -11.4262 H 11.4" /><circle class="sym" cx="0" cy="0" r="3" /><text class="lab lft" transform="translate(-3 -7.0)">16</text></g><g class="a22 c1 node n12 p0" transform="translate(11.4 15.5525)"><g class="a12 leaf node n8 p0 sample" transform="translate(0.0 2.26141)"><path class="edge" d="M 0 0 V -2.26141 H 0.0" /><rect class="sym" height="6" width="6" x="-3" y="-3" /><text class="lab" transform="translate(0 11)">8</text></g><path class="edge" d="M 0 0 V -15.5525 H -11.4" /><circle class="sym" cx="0" cy="0" r="3" /><text class="lab rgt" transform="translate(3 -7.0)">12</text></g><path class="edge" d="M 0 0 V -18.2514 H -35.15" /><circle class="sym" cx="0" cy="0" r="3" /><text class="lab rgt" transform="translate(3 -7.0)">22</text></g><g class="a27 c2 node n26 p0" transform="translate(-35.15 4.14742)"><g class="a26 c2 node n13 p0" transform="translate(17.1 27.7816)"><g class="a13 leaf node n1 p0 sample" transform="translate(-11.4 4.13625)"><path class="edge" d="M 0 0 V -4.13625 H 11.4" /><rect class="sym" height="6" width="6" x="-3" y="-3" /><text class="lab" transform="translate(0 11)">1</text></g><g class="a13 c2 node n10 p0" transform="translate(11.4 3.40996)"><g class="a10 leaf node n5 p0 sample" transform="translate(-7.6 0.726291)"><path class="edge" d="M 0 0 V -0.726291 H 7.6" /><rect class="sym" height="6" width="6" x="-3" y="-3" /><text class="lab" transform="translate(0 11)">5</text></g><g class="a10 leaf node n6 p0 sample" transform="translate(7.6 0.726291)"><path class="edge" d="M 0 0 V -0.726291 H -7.6" /><rect class="sym" height="6" width="6" x="-3" y="-3" /><text class="lab" transform="translate(0 11)">6</text></g><path class="edge" d="M 0 0 V -3.40996 H -11.4" /><circle class="sym" cx="0" cy="0" r="3" /><text class="lab rgt" transform="translate(3 -7.0)">10</text></g><path class="edge" d="M 0 0 V -27.7816 H -17.1" /><circle class="sym" cx="0" cy="0" r="3" /><text class="lab rgt" transform="translate(3 -7.0)">13</text></g><g class="a26 c1 node n25 p0" transform="translate(-17.1 3.84609)"><g class="a25 c2 node n23 p0" transform="translate(0.0 6.25794)"><g class="a23 c1 node n20 p0" transform="translate(7.6 13.0604)"><g class="a20 c1 node n14 p0" transform="translate(0.0 4.20147)"><g class="a14 leaf node n4 p0 sample" transform="translate(0.0 4.55201)"><path class="edge" d="M 0 0 V -4.55201 H 0.0" /><rect class="sym" height="6" width="6" x="-3" y="-3" /><text class="lab" transform="translate(0 11)">4</text></g><path class="edge" d="M 0 0 V -4.20147 H 0.0" /><circle class="sym" cx="0" cy="0" r="3" /><text class="lab lft" transform="translate(-3 -7.0)">14</text></g><path class="edge" d="M 0 0 V -13.0604 H -7.6" /><circle class="sym" cx="0" cy="0" r="3" /><text class="lab rgt" transform="translate(3 -7.0)">20</text></g><g class="a23 c1 node n19 p0" transform="translate(-7.6 13.7648)"><g class="a19 leaf node n0 p0 sample" transform="translate(0.0 8.04909)"><path class="edge" d="M 0 0 V -8.04909 H 0.0" /><rect class="sym" height="6" width="6" x="-3" y="-3" /><text class="lab" transform="translate(0 11)">0</text></g><path class="edge" d="M 0 0 V -13.7648 H 7.6" /><circle class="sym" cx="0" cy="0" r="3" /><text class="lab lft" transform="translate(-3 -7.0)">19</text></g><path class="edge" d="M 0 0 V -6.25794 H 0.0" /><circle class="sym" cx="0" cy="0" r="3" /><text class="lab lft" transform="translate(-3 -7.0)">23</text></g><path class="edge" d="M 0 0 V -3.84609 H 17.1" /><circle class="sym" cx="0" cy="0" r="3" /><text class="lab lft" transform="translate(-3 -7.0)">25</text></g><path class="edge" d="M 0 0 V -4.14742 H 35.15" /><circle class="sym" cx="0" cy="0" r="3" /><text class="lab lft" transform="translate(-3 -7.0)">26</text></g><path class="edge" d="M 0 0 V -55.1352 H 0.0" /><circle class="sym" cx="0" cy="0" r="3" /><text class="lab lft" transform="translate(-3 -7.0)">27</text></g><path class="edge" d="M 0 0 V -3.39953 H 34.675" /><circle class="sym" cx="0" cy="0" r="3" /><text class="lab lft" transform="translate(-3 -7.0)">29</text></g><circle class="sym" cx="0" cy="0" r="3" /><text class="lab" transform="translate(0 -11)">30</text></g></g></g><g class="tree t4" transform="translate(788 0)"><g class="plotbox"><g class="c2 node n30 p0 root" transform="translate(114.525 26.8)"><g class="a30 c2 node n28 p0" transform="translate(36.575 42.1872)"><g class="a28 leaf node n9 p0 sample" transform="translate(13.3 52.4128)"><path class="edge" d="M 0 0 V -52.4128 H -13.3" /><rect class="sym" height="6" width="6" x="-3" y="-3" /><text class="lab" transform="translate(0 11)">9</text></g><g class="a28 c2 node n21 p0" transform="translate(-13.3 42.2616)"><g class="a21 leaf node n3 p0 sample" transform="translate(11.4 10.1511)"><path class="edge" d="M 0 0 V -10.1511 H -11.4" /><rect class="sym" height="6" width="6" x="-3" y="-3" /><text class="lab" transform="translate(0 11)">3</text></g><g class="a21 c1 node n17 p0" transform="translate(-11.4 3.76343)"><g class="a17 c2 node n15 p0" transform="translate(0.0 0.686595)"><g class="a15 leaf node n2 p0 sample" transform="translate(-7.6 5.70111)"><path class="edge" d="M 0 0 V -5.70111 H 7.6" /><rect class="sym" height="6" width="6" x="-3" y="-3" /><text class="lab" transform="translate(0 11)">2</text></g><g class="a15 leaf node n7 p0 sample" transform="translate(7.6 5.70111)"><path class="edge" d="M 0 0 V -5.70111 H -7.6" /><rect class="sym" height="6" width="6" x="-3" y="-3" /><text class="lab" transform="translate(0 11)">7</text></g><path class="edge" d="M 0 0 V -0.686595 H 0.0" /><circle class="sym" cx="0" cy="0" r="3" /><text class="lab lft" transform="translate(-3 -7.0)">15</text></g><path class="edge" d="M 0 0 V -3.76343 H 11.4" /><circle class="sym" cx="0" cy="0" r="3" /><text class="lab lft" transform="translate(-3 -7.0)">17</text></g><path class="edge" d="M 0 0 V -42.2616 H 13.3" /><circle class="sym" cx="0" cy="0" r="3" /><text class="lab lft" transform="translate(-3 -7.0)">21</text></g><path class="edge" d="M 0 0 V -42.1872 H -36.575" /><circle class="sym" cx="0" cy="0" r="3" /><text class="lab rgt" transform="translate(3 -7.0)">28</text></g><g class="a30 c1 node n29 p0" transform="translate(-36.575 3.39953)"><g class="a29 c2 node n27 p0" transform="translate(0.0 55.1352)"><g class="a27 c1 node n22 p0" transform="translate(25.65 18.2514)"><g class="a22 c1 node n12 p0" transform="translate(0.0 15.5525)"><g class="a12 leaf node n8 p0 sample" transform="translate(0.0 2.26141)"><path class="edge" d="M 0 0 V -2.26141 H 0.0" /><rect class="sym" height="6" width="6" x="-3" y="-3" /><text class="lab" transform="translate(0 11)">8</text></g><path class="edge" d="M 0 0 V -15.5525 H 0.0" /><circle class="sym" cx="0" cy="0" r="3" /><text class="lab lft" transform="translate(-3 -7.0)">12</text></g><path class="edge" d="M 0 0 V -18.2514 H -25.65" /><circle class="sym" cx="0" cy="0" r="3" /><text class="lab rgt" transform="translate(3 -7.0)">22</text></g><g class="a27 c2 node n26 p0" transform="translate(-25.65 4.14742)"><g class="a26 c2 node n13 p0" transform="translate(17.1 27.7816)"><g class="a13 leaf node n1 p0 sample" transform="translate(-11.4 4.13625)"><path class="edge" d="M 0 0 V -4.13625 H 11.4" /><rect class="sym" height="6" width="6" x="-3" y="-3" /><text class="lab" transform="translate(0 11)">1</text></g><g class="a13 c2 node n10 p0" transform="translate(11.4 3.40996)"><g class="a10 leaf node n5 p0 sample" transform="translate(-7.6 0.726291)"><path class="edge" d="M 0 0 V -0.726291 H 7.6" /><rect class="sym" height="6" width="6" x="-3" y="-3" /><text class="lab" transform="translate(0 11)">5</text></g><g class="a10 leaf node n6 p0 sample" transform="translate(7.6 0.726291)"><path class="edge" d="M 0 0 V -0.726291 H -7.6" /><rect class="sym" height="6" width="6" x="-3" y="-3" /><text class="lab" transform="translate(0 11)">6</text></g><path class="edge" d="M 0 0 V -3.40996 H -11.4" /><circle class="sym" cx="0" cy="0" r="3" /><text class="lab rgt" transform="translate(3 -7.0)">10</text></g><path class="edge" d="M 0 0 V -27.7816 H -17.1" /><circle class="sym" cx="0" cy="0" r="3" /><text class="lab rgt" transform="translate(3 -7.0)">13</text></g><g class="a26 c1 node n25 p0" transform="translate(-17.1 3.84609)"><g class="a25 c2 node n23 p0" transform="translate(0.0 6.25794)"><g class="a23 c1 node n20 p0" transform="translate(7.6 13.0604)"><g class="a20 c1 node n14 p0" transform="translate(0.0 4.20147)"><g class="a14 leaf node n4 p0 sample" transform="translate(0.0 4.55201)"><path class="edge" d="M 0 0 V -4.55201 H 0.0" /><rect class="sym" height="6" width="6" x="-3" y="-3" /><text class="lab" transform="translate(0 11)">4</text></g><path class="edge" d="M 0 0 V -4.20147 H 0.0" /><circle class="sym" cx="0" cy="0" r="3" /><text class="lab lft" transform="translate(-3 -7.0)">14</text></g><path class="edge" d="M 0 0 V -13.0604 H -7.6" /><circle class="sym" cx="0" cy="0" r="3" /><text class="lab rgt" transform="translate(3 -7.0)">20</text></g><g class="a23 c1 node n19 p0" transform="translate(-7.6 13.7648)"><g class="a19 leaf node n0 p0 sample" transform="translate(0.0 8.04909)"><path class="edge" d="M 0 0 V -8.04909 H 0.0" /><rect class="sym" height="6" width="6" x="-3" y="-3" /><text class="lab" transform="translate(0 11)">0</text></g><path class="edge" d="M 0 0 V -13.7648 H 7.6" /><circle class="sym" cx="0" cy="0" r="3" /><text class="lab lft" transform="translate(-3 -7.0)">19</text></g><path class="edge" d="M 0 0 V -6.25794 H 0.0" /><circle class="sym" cx="0" cy="0" r="3" /><text class="lab lft" transform="translate(-3 -7.0)">23</text></g><path class="edge" d="M 0 0 V -3.84609 H 17.1" /><circle class="sym" cx="0" cy="0" r="3" /><text class="lab lft" transform="translate(-3 -7.0)">25</text></g><path class="edge" d="M 0 0 V -4.14742 H 25.65" /><circle class="sym" cx="0" cy="0" r="3" /><text class="lab lft" transform="translate(-3 -7.0)">26</text></g><path class="edge" d="M 0 0 V -55.1352 H 0.0" /><circle class="sym" cx="0" cy="0" r="3" /><text class="lab lft" transform="translate(-3 -7.0)">27</text></g><path class="edge" d="M 0 0 V -3.39953 H 36.575" /><circle class="sym" cx="0" cy="0" r="3" /><text class="lab lft" transform="translate(-3 -7.0)">29</text></g><circle class="sym" cx="0" cy="0" r="3" /><text class="lab" transform="translate(0 -11)">30</text></g></g></g></g></g></svg>
