<svg baseProfile="full" height="200" version="1.1" width="400" xmlns="http://www.w3.org/2000/svg" xmlns:ev="http://www.w3.org/2001/xml-events" xmlns:xlink="http://www.w3.org/1999/xlink"><defs><style type="text/css"><![CDATA[.background path {fill: #808080; fill-opacity: 0}.background path:nth-child(odd) {fill-opacity: .1}.axes {font-size: 14px}.x-axis .tick .lab {font-weight: bold; dominant-baseline: hanging}.axes, .tree {font-size: 14px; text-anchor: middle}.axes line, .edge {stroke: black; fill: none}.y-axis .grid {stroke: #FAFAFA}.node > .sym {fill: black; stroke: none}.site > .sym {stroke: black}.mut text {fill: red; font-style: italic}.mut.extra text {fill: hotpink}.mut line {fill: none; stroke: none}.mut .sym {fill: none; stroke: red}.mut.extra .sym {stroke: hotpink}.node .mut .sym {stroke-width: 1.5px}.tree text, .tree-sequence text {dominant-baseline: central}.plotbox .lab.lft {text-anchor: end}.plotbox .lab.rgt {text-anchor: start}]]></style></defs><g class="tree-sequence"><g class="background"><path d="M20,0 l180,0 l0,138.2 l16.8859,25 l0,5 l-196.886,0 l0,-5 l0,-25 l0,-138.2z" /><path d="M200,0 l180,0 l0,138.2 l0,25 l0,5 l-163.114,0 l0,-5 l-16.8859,-25 l0,-138.2z" /></g><g class="axes"><g class="x-axis"><g transform="translate(200 200)"><text class="lab" text-anchor="middle" transform="translate(0 -11)">Genome position</text></g><line x1="20" x2="380" y1="163.2" y2="163.2" /><g class="ticks"><g class="tick" transform="translate(20 163.2)"><line x1="0" x2="0" y1="0" y2="5" /><g transform="translate(0 6)"><text class="lab">0.00</text></g></g><g class="tick" transform="translate(216.886 163.2)"><line x1="0" x2="0" y1="0" y2="5" /><g transform="translate(0 6)"><text class="lab">546.91</text></g></g><g class="tick" transform="translate(380 163.2)"><line x1="0" x2="0" y1="0" y2="5" /><g transform="translate(0 6)"><text class="lab">1000.00</text></g></g></g></g></g><g class="plotbox trees"><g class="tree t0" transform="translate(20 0)"><g class="plotbox"><g class="c2 node n21 p0 root" transform="translate(117.016 26.8)"><g class="a21 leaf node n1 p0 sample" transform="translate(35.9844 94.6)"><path class="edge" d="M 0 0 V -94.6 H -35.9844" /><rect class="sym" height="6" width="6" x="-3" y="-3" /><text class="lab" transform="translate(0 11)">1</text></g><g class="a21 c2 node n20 p0" transform="translate(-35.9844 60.2437)"><g class="a20 c2 node n15 p0" transform="translate(-43.5312 26.6238)"><g class="a15 c2 node n10 p0" transform="translate(10.5 7.73114)"><g class="a10 leaf node n7 p0 sample" transform="translate(-7 0.00140336)"><path class="edge" d="M 0 0 V -0.00140336 H 7" /><rect class="sym" height="6" width="6" x="-3" y="-3" /><text class="lab" transform="translate(0 11)">7</text></g><g class="a10 leaf node n9 p0 sample" transform="translate(7 0.00140336)"><path class="edge" d="M 0 0 V -0.00140336 H -7" /><rect class="sym" height="6" width="6" x="-3" y="-3" /><text class="lab" transform="translate(0 11)">9</text></g><path class="edge" d="M 0 0 V -7.73114 H -10.5" /><circle class="sym" cx="0" cy="0" r="3" /><text class="lab rgt" transform="translate(3 -7.0)">10</text></g><g class="a15 c1 node n13 p0" transform="translate(-10.5 4.37445)"><g class="a13 leaf node n0 p0 sample" transform="translate(0.0 3.35809)"><path class="edge" d="M 0 0 V -3.35809 H 0.0" /><rect class="sym" height="6" width="6" x="-3" y="-3" /><text class="lab" transform="translate(0 11)">0</text></g><path class="edge" d="M 0 0 V -4.37445 H 10.5" /><circle class="sym" cx="0" cy="0" r="3" /><text class="lab lft" transform="translate(-3 -7.0)">13</text></g><path class="edge" d="M 0 0 V -26.6238 H 43.5312" /><circle class="sym" cx="0" cy="0" r="3" /><text class="lab lft" transform="translate(-3 -7.0)">15</text></g><g class="a20 c2 node n19 p0" transform="translate(43.5312 15.8566)"><g class="a19 leaf node n4 p0 sample" transform="translate(14.4375 18.4997)"><path class="edge" d="M 0 0 V -18.4997 H -14.4375" /><rect class="sym" height="6" width="6" x="-3" y="-3" /><text class="lab" transform="translate(0 11)">4</text></g><g class="a19 c1 node n18 p0" transform="translate(-14.4375 6.07954)"><g class="a18 c2 node n17 p0" transform="translate(0.0 2.85729)"><g class="a17 leaf node n5 p0 sample" transform="translate(14.875 9.56283)"><path class="edge" d="M 0 0 V -9.56283 H -14.875" /><rect class="sym" height="6" width="6" x="-3" y="-3" /><text class="lab" transform="translate(0 11)">5</text></g><g class="a17 c2 node n16 p0" transform="translate(-14.875 0.846796)"><g class="a16 leaf node n6 p0 sample" transform="translate(15.75 8.71604)"><path class="edge" d="M 0 0 V -8.71604 H -15.75" /><rect class="sym" height="6" width="6" x="-3" y="-3" /><text class="lab" transform="translate(0 11)">6</text></g><g class="a16 c2 node n12 p0" transform="translate(-15.75 6.47962)"><g class="a12 leaf node n2 p0 sample" transform="translate(-10.5 2.23641)"><path class="edge" d="M 0 0 V -2.23641 H 10.5" /><rect class="sym" height="6" width="6" x="-3" y="-3" /><text class="lab" transform="translate(0 11)">2</text></g><g class="a12 c2 node n11 p0" transform="translate(10.5 1.97338)"><g class="a11 leaf node n3 p0 sample" transform="translate(-7 0.263033)"><path class="edge" d="M 0 0 V -0.263033 H 7" /><rect class="sym" height="6" width="6" x="-3" y="-3" /><text class="lab" transform="translate(0 11)">3</text></g><g class="a11 leaf node n8 p0 sample" transform="translate(7 0.263033)"><path class="edge" d="M 0 0 V -0.263033 H -7" /><rect class="sym" height="6" width="6" x="-3" y="-3" /><text class="lab" transform="translate(0 11)">8</text></g><path class="edge" d="M 0 0 V -1.97338 H -10.5" /><circle class="sym" cx="0" cy="0" r="3" /><text class="lab rgt" transform="translate(3 -7.0)">11</text></g><path class="edge" d="M 0 0 V -6.47962 H 15.75" /><circle class="sym" cx="0" cy="0" r="3" /><text class="lab lft" transform="translate(-3 -7.0)">12</text></g><path class="edge" d="M 0 0 V -0.846796 H 14.875" /><circle class="sym" cx="0" cy="0" r="3" /><text class="lab lft" transform="translate(-3 -7.0)">16</text></g><path class="edge" d="M 0 0 V -2.85729 H 0.0" /><circle class="sym" cx="0" cy="0" r="3" /><text class="lab lft" transform="translate(-3 -7.0)">17</text></g><path class="edge" d="M 0 0 V -6.07954 H 14.4375" /><circle class="sym" cx="0" cy="0" r="3" /><text class="lab lft" transform="translate(-3 -7.0)">18</text></g><path class="edge" d="M 0 0 V -15.8566 H -43.5312" /><circle class="sym" cx="0" cy="0" r="3" /><text class="lab rgt" transform="translate(3 -7.0)">19</text></g><path class="edge" d="M 0 0 V -60.2437 H 35.9844" /><circle class="sym" cx="0" cy="0" r="3" /><text class="lab lft" transform="translate(-3 -7.0)">20</text></g><circle class="sym" cx="0" cy="0" r="3" /><text class="lab" transform="translate(0 -11)">21</text></g></g></g><g class="tree t1" transform="translate(200 0)"><g class="plotbox"><g class="c2 node n21 p0 root" transform="translate(130.195 26.8)"><g class="a21 leaf node n1 p0 sample" transform="translate(22.8047 94.6)"><path class="edge" d="M 0 0 V -94.6 H -22.8047" /><rect class="sym" height="6" width="6" x="-3" y="-3" /><text class="lab" transform="translate(0 11)">1</text></g><g class="a21 c2 node n20 p0" transform="translate(-22.8047 60.2437)"><g class="a20 c1 node n15 p0" transform="translate(24.6094 26.6238)"><g class="a15 c2 node n10 p0" transform="translate(0.0 7.73114)"><g class="a10 leaf node n7 p0 sample" transform="translate(-7 0.00140336)"><path class="edge" d="M 0 0 V -0.00140336 H 7" /><rect class="sym" height="6" width="6" x="-3" y="-3" /><text class="lab" transform="translate(0 11)">7</text></g><g class="a10 leaf node n9 p0 sample" transform="translate(7 0.00140336)"><path class="edge" d="M 0 0 V -0.00140336 H -7" /><rect class="sym" height="6" width="6" x="-3" y="-3" /><text class="lab" transform="translate(0 11)">9</text></g><path class="edge" d="M 0 0 V -7.73114 H 0.0" /><circle class="sym" cx="0" cy="0" r="3" /><text class="lab lft" transform="translate(-3 -7.0)">10</text></g><path class="edge" d="M 0 0 V -26.6238 H -24.6094" /><circle class="sym" cx="0" cy="0" r="3" /><text class="lab rgt" transform="translate(3 -7.0)">15</text></g><g class="a20 c2 node n19 p0" transform="translate(-24.6094 15.8566)"><g class="a19 leaf node n4 p0 sample" transform="translate(28.2188 18.4997)"><path class="edge" d="M 0 0 V -18.4997 H -28.2188" /><rect class="sym" height="6" width="6" x="-3" y="-3" /><text class="lab" transform="translate(0 11)">4</text></g><g class="a19 c2 node n18 p0" transform="translate(-28.2188 6.07954)"><g class="a18 c2 node n17 p0" transform="translate(27.5625 2.85729)"><g class="a17 leaf node n5 p0 sample" transform="translate(14.875 9.56283)"><path class="edge" d="M 0 0 V -9.56283 H -14.875" /><rect class="sym" height="6" width="6" x="-3" y="-3" /><text class="lab" transform="translate(0 11)">5</text></g><g class="a17 c2 node n16 p0" transform="translate(-14.875 0.846796)"><g class="a16 leaf node n6 p0 sample" transform="translate(15.75 8.71604)"><path class="edge" d="M 0 0 V -8.71604 H -15.75" /><rect class="sym" height="6" width="6" x="-3" y="-3" /><text class="lab" transform="translate(0 11)">6</text></g><g class="a16 c2 node n12 p0" transform="translate(-15.75 6.47962)"><g class="a12 leaf node n2 p0 sample" transform="translate(-10.5 2.23641)"><path class="edge" d="M 0 0 V -2.23641 H 10.5" /><rect class="sym" height="6" width="6" x="-3" y="-3" /><text class="lab" transform="translate(0 11)">2</text></g><g class="a12 c2 node n11 p0" transform="translate(10.5 1.97338)"><g class="a11 leaf node n3 p0 sample" transform="translate(-7 0.263033)"><path class="edge" d="M 0 0 V -0.263033 H 7" /><rect class="sym" height="6" width="6" x="-3" y="-3" /><text class="lab" transform="translate(0 11)">3</text></g><g class="a11 leaf node n8 p0 sample" transform="translate(7 0.263033)"><path class="edge" d="M 0 0 V -0.263033 H -7" /><rect class="sym" height="6" width="6" x="-3" y="-3" /><text class="lab" transform="translate(0 11)">8</text></g><path class="edge" d="M 0 0 V -1.97338 H -10.5" /><circle class="sym" cx="0" cy="0" r="3" /><text class="lab rgt" transform="translate(3 -7.0)">11</text></g><path class="edge" d="M 0 0 V -6.47962 H 15.75" /><circle class="sym" cx="0" cy="0" r="3" /><text class="lab lft" transform="translate(-3 -7.0)">12</text></g><path class="edge" d="M 0 0 V -0.846796 H 14.875" /><circle class="sym" cx="0" cy="0" r="3" /><text class="lab lft" transform="translate(-3 -7.0)">16</text></g><path class="edge" d="M 0 0 V -2.85729 H -27.5625" /><circle class="sym" cx="0" cy="0" r="3" /><text class="lab rgt" transform="translate(3 -7.0)">17</text></g><g class="a18 c1 node n14 p0" transform="translate(-27.5625 9.06203)"><g class="a14 leaf node n0 p0 sample" transform="translate(0.0 3.35809)"><path class="edge" d="M 0 0 V -3.35809 H 0.0" /><rect class="sym" height="6" width="6" x="-3" y="-3" /><text class="lab" transform="translate(0 11)">0</text></g><path class="edge" d="M 0 0 V -9.06203 H 27.5625" /><circle class="sym" cx="0" cy="0" r="3" /><text class="lab lft" transform="translate(-3 -7.0)">14</text></g><path class="edge" d="M 0 0 V -6.07954 H 28.2188" /><circle class="sym" cx="0" cy="0" r="3" /><text class="lab lft" transform="translate(-3 -7.0)">18</text></g><path class="edge" d="M 0 0 V -15.8566 H 24.6094" /><circle class="sym" cx="0" cy="0" r="3" /><text class="lab lft" transform="translate(-3 -7.0)">19</text></g><path class="edge" d="M 0 0 V -60.2437 H 22.8047" /><circle class="sym" cx="0" cy="0" r="3" /><text class="lab lft" transform="translate(-3 -7.0)">20</text></g><circle class="sym" cx="0" cy="0" r="3" /><text class="lab" transform="translate(0 -11)">21</text></g></g></g></g></g></svg>
