<svg baseProfile="full" height="200" version="1.1" width="1200" xmlns="http://www.w3.org/2000/svg" xmlns:ev="http://www.w3.org/2001/xml-events" xmlns:xlink="http://www.w3.org/1999/xlink"><defs><style type="text/css"><![CDATA[.background path {fill: #808080; fill-opacity: 0}.background path:nth-child(odd) {fill-opacity: .1}.axes {font-size: 14px}.x-axis .tick .lab {font-weight: bold; dominant-baseline: hanging}.axes, .tree {font-size: 14px; text-anchor: middle}.axes line, .edge {stroke: black; fill: none}.y-axis .grid {stroke: #FAFAFA}.node > .sym {fill: black; stroke: none}.site > .sym {stroke: black}.mut text {fill: red; font-style: italic}.mut.extra text {fill: hotpink}.mut line {fill: none; stroke: none}.mut .sym {fill: none; stroke: red}.mut.extra .sym {stroke: hotpink}.node .mut .sym {stroke-width: 1.5px}.tree text, .tree-sequence text {dominant-baseline: central}.plotbox .lab.lft {text-anchor: end}.plotbox .lab.rgt {text-anchor: start}]]></style></defs><g class="tree-sequence"><g class="background"><path d="M20,0 l193.333,0 l0,138.2 l-137.359,25 l0,5 l-55.9742,0 l0,-5 l0,-25 l0,-138.2z" /><path d="M213.333,0 l193.333,0 l0,138.2 l187.843,25 l0,5 l-518.535,0 l0,-5 l137.359,-25 l0,-138.2z" /><path d="M406.667,0 l193.333,0 l0,138.2 l298.246,25 l0,5 l-303.737,0 l0,-5 l-187.843,-25 l0,-138.2z" /><path d="M600,0 l193.333,0 l0,138.2 l144.902,25 l0,5 l-39.9895,0 l0,-5 l-298.246,-25 l0,-138.2z" /><path d="M793.333,0 l193.333,0 l0,138.2 l13.9088,25 l0,5 l-62.3397,0 l0,-5 l-144.902,-25 l0,-138.2z" /><path d="M986.667,0 l193.333,0 l0,138.2 l0,25 l0,5 l-179.425,0 l0,-5 l-13.9088,-25 l0,-138.2z" /></g><g class="axes"><g class="x-axis"><g transform="translate(600 200)"><text class="lab" text-anchor="middle" transform="translate(0 -11)">Genome position</text></g><line x1="20" x2="1180" y1="163.2" y2="163.2" /><g class="ticks"><g class="tick" transform="translate(20 163.2)"><line x1="0" x2="0" y1="0" y2="5" /><g transform="translate(0 6)"><text class="lab">0.00</text></g></g><g class="tick" transform="translate(75.9742 163.2)"><line x1="0" x2="0" y1="0" y2="5" /><g transform="translate(0 6)"><text class="lab">48.25</text></g></g><g class="tick" transform="translate(594.509 163.2)"><line x1="0" x2="0" y1="0" y2="5" /><g transform="translate(0 6)"><text class="lab">495.27</text></g></g><g class="tick" transform="translate(898.246 163.2)"><line x1="0" x2="0" y1="0" y2="5" /><g transform="translate(0 6)"><text class="lab">757.11</text></g></g><g class="tick" transform="translate(938.236 163.2)"><line x1="0" x2="0" y1="0" y2="5" /><g transform="translate(0 6)"><text class="lab">791.58</text></g></g><g class="tick" transform="translate(1000.58 163.2)"><line x1="0" x2="0" y1="0" y2="5" /><g transform="translate(0 6)"><text class="lab">845.32</text></g></g><g class="tick" transform="translate(1180 163.2)"><line x1="0" x2="0" y1="0" y2="5" /><g transform="translate(0 6)"><text class="lab">1000.00</text></g></g></g></g></g><g class="plotbox trees"><g class="tree t0" transform="translate(20 0)"><g class="plotbox"><g class="c2 node n33 p0 root" transform="translate(84.2083 26.8)"><g class="a33 c2 node n26 p0" transform="translate(-33.5417 54.8602)"><g class="a26 c1 node n21 p0" transform="translate(15.3333 5.89503)"><g class="a21 c2 node n17 p0" transform="translate(0.0 12.1501)"><g class="a17 leaf node n4 p0 sample" transform="translate(-7.66667 21.6946)"><path class="edge" d="M 0 0 V -21.6946 H 7.66667" /><rect class="sym" height="6" width="6" x="-3" y="-3" /><text class="lab" transform="translate(0 11)">4</text></g><g class="a17 leaf node n5 p0 sample" transform="translate(7.66667 21.6946)"><path class="edge" d="M 0 0 V -21.6946 H -7.66667" /><rect class="sym" height="6" width="6" x="-3" y="-3" /><text class="lab" transform="translate(0 11)">5</text></g><path class="edge" d="M 0 0 V -12.1501 H 0.0" /><circle class="sym" cx="0" cy="0" r="3" /><text class="lab lft" transform="translate(-3 -7.0)">17</text></g><path class="edge" d="M 0 0 V -5.89503 H -15.3333" /><circle class="sym" cx="0" cy="0" r="3" /><text class="lab rgt" transform="translate(3 -7.0)">21</text></g><g class="a26 c2 node n23 p0" transform="translate(-15.3333 3.82606)"><g class="a23 leaf node n0 p0 sample" transform="translate(-7.66667 35.9137)"><path class="edge" d="M 0 0 V -35.9137 H 7.66667" /><rect class="sym" height="6" width="6" x="-3" y="-3" /><text class="lab" transform="translate(0 11)">0</text></g><g class="a23 c1 node n11 p0" transform="translate(7.66667 32.2465)"><g class="a11 leaf node n3 p0 sample" transform="translate(0.0 3.66716)"><path class="edge" d="M 0 0 V -3.66716 H 0.0" /><rect class="sym" height="6" width="6" x="-3" y="-3" /><text class="lab" transform="translate(0 11)">3</text></g><path class="edge" d="M 0 0 V -32.2465 H -7.66667" /><circle class="sym" cx="0" cy="0" r="3" /><text class="lab rgt" transform="translate(3 -7.0)">11</text></g><path class="edge" d="M 0 0 V -3.82606 H 15.3333" /><circle class="sym" cx="0" cy="0" r="3" /><text class="lab lft" transform="translate(-3 -7.0)">23</text></g><path class="edge" d="M 0 0 V -54.8602 H 33.5417" /><circle class="sym" cx="0" cy="0" r="3" /><text class="lab lft" transform="translate(-3 -7.0)">26</text></g><g class="a33 c2 node n32 p0" transform="translate(33.5417 23.4499)"><g class="a32 leaf node n1 p0 sample" transform="translate(-28.75 71.1501)"><path class="edge" d="M 0 0 V -71.1501 H 28.75" /><rect class="sym" height="6" width="6" x="-3" y="-3" /><text class="lab" transform="translate(0 11)">1</text></g><g class="a32 c2 node n31 p0" transform="translate(28.75 7.35161)"><g class="a31 c1 node n27 p0" transform="translate(-19.1667 23.4527)"><g class="a27 c2 node n22 p0" transform="translate(0.0 5.48783)"><g class="a22 c2 node n15 p0" transform="translate(-15.3333 26.0086)"><g class="a15 leaf node n2 p0 sample" transform="translate(-7.66667 8.84936)"><path class="edge" d="M 0 0 V -8.84936 H 7.66667" /><rect class="sym" height="6" width="6" x="-3" y="-3" /><text class="lab" transform="translate(0 11)">2</text></g><g class="a15 leaf node n8 p0 sample" transform="translate(7.66667 8.84936)"><path class="edge" d="M 0 0 V -8.84936 H -7.66667" /><rect class="sym" height="6" width="6" x="-3" y="-3" /><text class="lab" transform="translate(0 11)">8</text></g><path class="edge" d="M 0 0 V -26.0086 H 15.3333" /><circle class="sym" cx="0" cy="0" r="3" /><text class="lab lft" transform="translate(-3 -7.0)">15</text></g><g class="a22 c1 node n19 p0" transform="translate(15.3333 4.19609)"><g class="a19 c2 node n10 p0" transform="translate(0.0 29.3625)"><g class="a10 leaf node n6 p0 sample" transform="translate(-7.66667 1.29937)"><path class="edge" d="M 0 0 V -1.29937 H 7.66667" /><rect class="sym" height="6" width="6" x="-3" y="-3" /><text class="lab" transform="translate(0 11)">6</text></g><g class="a10 leaf node n7 p0 sample" transform="translate(7.66667 1.29937)"><path class="edge" d="M 0 0 V -1.29937 H -7.66667" /><rect class="sym" height="6" width="6" x="-3" y="-3" /><text class="lab" transform="translate(0 11)">7</text></g><path class="edge" d="M 0 0 V -29.3625 H 0.0" /><circle class="sym" cx="0" cy="0" r="3" /><text class="lab lft" transform="translate(-3 -7.0)">10</text></g><path class="edge" d="M 0 0 V -4.19609 H -15.3333" /><circle class="sym" cx="0" cy="0" r="3" /><text class="lab rgt" transform="translate(3 -7.0)">19</text></g><path class="edge" d="M 0 0 V -5.48783 H 0.0" /><circle class="sym" cx="0" cy="0" r="3" /><text class="lab lft" transform="translate(-3 -7.0)">22</text></g><path class="edge" d="M 0 0 V -23.4527 H 19.1667" /><circle class="sym" cx="0" cy="0" r="3" /><text class="lab lft" transform="translate(-3 -7.0)">27</text></g><g class="a31 c1 node n30 p0" transform="translate(19.1667 3.79354)"><g class="a30 c1 node n24 p0" transform="translate(0.0 22.2456)"><g class="a24 c1 node n18 p0" transform="translate(0.0 13.5587)"><g class="a18 c1 node n16 p0" transform="translate(0.0 2.82546)"><g class="a16 leaf node n9 p0 sample" transform="translate(0.0 21.3751)"><path class="edge" d="M 0 0 V -21.3751 H 0.0" /><rect class="sym" height="6" width="6" x="-3" y="-3" /><text class="lab" transform="translate(0 11)">9</text></g><path class="edge" d="M 0 0 V -2.82546 H 0.0" /><circle class="sym" cx="0" cy="0" r="3" /><text class="lab lft" transform="translate(-3 -7.0)">16</text></g><path class="edge" d="M 0 0 V -13.5587 H 0.0" /><circle class="sym" cx="0" cy="0" r="3" /><text class="lab lft" transform="translate(-3 -7.0)">18</text></g><path class="edge" d="M 0 0 V -22.2456 H 0.0" /><circle class="sym" cx="0" cy="0" r="3" /><text class="lab lft" transform="translate(-3 -7.0)">24</text></g><path class="edge" d="M 0 0 V -3.79354 H -19.1667" /><circle class="sym" cx="0" cy="0" r="3" /><text class="lab rgt" transform="translate(3 -7.0)">30</text></g><path class="edge" d="M 0 0 V -7.35161 H -28.75" /><circle class="sym" cx="0" cy="0" r="3" /><text class="lab rgt" transform="translate(3 -7.0)">31</text></g><path class="edge" d="M 0 0 V -23.4499 H -33.5417" /><circle class="sym" cx="0" cy="0" r="3" /><text class="lab rgt" transform="translate(3 -7.0)">32</text></g><circle class="sym" cx="0" cy="0" r="3" /><text class="lab" transform="translate(0 -11)">33</text></g></g></g><g class="tree t1" transform="translate(213.333 0)"><g class="plotbox"><g class="c2 node n33 p0 root" transform="translate(84.2083 26.8)"><g class="a33 c2 node n26 p0" transform="translate(-33.5417 54.8602)"><g class="a26 c1 node n21 p0" transform="translate(15.3333 5.89503)"><g class="a21 c2 node n17 p0" transform="translate(0.0 12.1501)"><g class="a17 leaf node n4 p0 sample" transform="translate(-7.66667 21.6946)"><path class="edge" d="M 0 0 V -21.6946 H 7.66667" /><rect class="sym" height="6" width="6" x="-3" y="-3" /><text class="lab" transform="translate(0 11)">4</text></g><g class="a17 leaf node n5 p0 sample" transform="translate(7.66667 21.6946)"><path class="edge" d="M 0 0 V -21.6946 H -7.66667" /><rect class="sym" height="6" width="6" x="-3" y="-3" /><text class="lab" transform="translate(0 11)">5</text></g><path class="edge" d="M 0 0 V -12.1501 H 0.0" /><circle class="sym" cx="0" cy="0" r="3" /><text class="lab lft" transform="translate(-3 -7.0)">17</text></g><path class="edge" d="M 0 0 V -5.89503 H -15.3333" /><circle class="sym" cx="0" cy="0" r="3" /><text class="lab rgt" transform="translate(3 -7.0)">21</text></g><g class="a26 c2 node n23 p0" transform="translate(-15.3333 3.82606)"><g class="a23 leaf node n0 p0 sample" transform="translate(-7.66667 35.9137)"><path class="edge" d="M 0 0 V -35.9137 H 7.66667" /><rect class="sym" height="6" width="6" x="-3" y="-3" /><text class="lab" transform="translate(0 11)">0</text></g><g class="a23 c1 node n11 p0" transform="translate(7.66667 32.2465)"><g class="a11 leaf node n3 p0 sample" transform="translate(0.0 3.66716)"><path class="edge" d="M 0 0 V -3.66716 H 0.0" /><rect class="sym" height="6" width="6" x="-3" y="-3" /><text class="lab" transform="translate(0 11)">3</text></g><path class="edge" d="M 0 0 V -32.2465 H -7.66667" /><circle class="sym" cx="0" cy="0" r="3" /><text class="lab rgt" transform="translate(3 -7.0)">11</text></g><path class="edge" d="M 0 0 V -3.82606 H 15.3333" /><circle class="sym" cx="0" cy="0" r="3" /><text class="lab lft" transform="translate(-3 -7.0)">23</text></g><path class="edge" d="M 0 0 V -54.8602 H 33.5417" /><circle class="sym" cx="0" cy="0" r="3" /><text class="lab lft" transform="translate(-3 -7.0)">26</text></g><g class="a33 c2 node n32 p0" transform="translate(33.5417 23.4499)"><g class="a32 leaf node n1 p0 sample" transform="translate(-28.75 71.1501)"><path class="edge" d="M 0 0 V -71.1501 H 28.75" /><rect class="sym" height="6" width="6" x="-3" y="-3" /><text class="lab" transform="translate(0 11)">1</text></g><g class="a32 c1 node n31 p0" transform="translate(28.75 7.35161)"><g class="a31 c2 node n30 p0" transform="translate(0.0 3.79354)"><g class="a30 c1 node n24 p0" transform="translate(19.1667 22.2456)"><g class="a24 c1 node n18 p0" transform="translate(0.0 13.5587)"><g class="a18 c1 node n16 p0" transform="translate(0.0 2.82546)"><g class="a16 leaf node n9 p0 sample" transform="translate(0.0 21.3751)"><path class="edge" d="M 0 0 V -21.3751 H 0.0" /><rect class="sym" height="6" width="6" x="-3" y="-3" /><text class="lab" transform="translate(0 11)">9</text></g><path class="edge" d="M 0 0 V -2.82546 H 0.0" /><circle class="sym" cx="0" cy="0" r="3" /><text class="lab lft" transform="translate(-3 -7.0)">16</text></g><path class="edge" d="M 0 0 V -13.5587 H 0.0" /><circle class="sym" cx="0" cy="0" r="3" /><text class="lab lft" transform="translate(-3 -7.0)">18</text></g><path class="edge" d="M 0 0 V -22.2456 H -19.1667" /><circle class="sym" cx="0" cy="0" r="3" /><text class="lab rgt" transform="translate(3 -7.0)">24</text></g><g class="a30 c1 node n29 p0" transform="translate(-19.1667 15.878)"><g class="a29 c1 node n28 p0" transform="translate(0.0 3.78111)"><g class="a28 c2 node n22 p0" transform="translate(0.0 5.48783)"><g class="a22 c2 node n15 p0" transform="translate(-15.3333 26.0086)"><g class="a15 leaf node n2 p0 sample" transform="translate(-7.66667 8.84936)"><path class="edge" d="M 0 0 V -8.84936 H 7.66667" /><rect class="sym" height="6" width="6" x="-3" y="-3" /><text class="lab" transform="translate(0 11)">2</text></g><g class="a15 leaf node n8 p0 sample" transform="translate(7.66667 8.84936)"><path class="edge" d="M 0 0 V -8.84936 H -7.66667" /><rect class="sym" height="6" width="6" x="-3" y="-3" /><text class="lab" transform="translate(0 11)">8</text></g><path class="edge" d="M 0 0 V -26.0086 H 15.3333" /><circle class="sym" cx="0" cy="0" r="3" /><text class="lab lft" transform="translate(-3 -7.0)">15</text></g><g class="a22 c1 node n19 p0" transform="translate(15.3333 4.19609)"><g class="a19 c2 node n10 p0" transform="translate(0.0 29.3625)"><g class="a10 leaf node n6 p0 sample" transform="translate(-7.66667 1.29937)"><path class="edge" d="M 0 0 V -1.29937 H 7.66667" /><rect class="sym" height="6" width="6" x="-3" y="-3" /><text class="lab" transform="translate(0 11)">6</text></g><g class="a10 leaf node n7 p0 sample" transform="translate(7.66667 1.29937)"><path class="edge" d="M 0 0 V -1.29937 H -7.66667" /><rect class="sym" height="6" width="6" x="-3" y="-3" /><text class="lab" transform="translate(0 11)">7</text></g><path class="edge" d="M 0 0 V -29.3625 H 0.0" /><circle class="sym" cx="0" cy="0" r="3" /><text class="lab lft" transform="translate(-3 -7.0)">10</text></g><path class="edge" d="M 0 0 V -4.19609 H -15.3333" /><circle class="sym" cx="0" cy="0" r="3" /><text class="lab rgt" transform="translate(3 -7.0)">19</text></g><path class="edge" d="M 0 0 V -5.48783 H 0.0" /><circle class="sym" cx="0" cy="0" r="3" /><text class="lab lft" transform="translate(-3 -7.0)">22</text></g><path class="edge" d="M 0 0 V -3.78111 H 0.0" /><circle class="sym" cx="0" cy="0" r="3" /><text class="lab lft" transform="translate(-3 -7.0)">28</text></g><path class="edge" d="M 0 0 V -15.878 H 19.1667" /><circle class="sym" cx="0" cy="0" r="3" /><text class="lab lft" transform="translate(-3 -7.0)">29</text></g><path class="edge" d="M 0 0 V -3.79354 H 0.0" /><circle class="sym" cx="0" cy="0" r="3" /><text class="lab lft" transform="translate(-3 -7.0)">30</text></g><path class="edge" d="M 0 0 V -7.35161 H -28.75" /><circle class="sym" cx="0" cy="0" r="3" /><text class="lab rgt" transform="translate(3 -7.0)">31</text></g><path class="edge" d="M 0 0 V -23.4499 H -33.5417" /><circle class="sym" cx="0" cy="0" r="3" /><text class="lab rgt" transform="translate(3 -7.0)">32</text></g><circle class="sym" cx="0" cy="0" r="3" /><text class="lab" transform="translate(0 -11)">33</text></g></g></g><g class="tree t2" transform="translate(406.667 0)"><g class="plotbox"><g class="c2 node n33 p0 root" transform="translate(97.625 26.8)"><g class="a33 c2 node n26 p0" transform="translate(-39.2917 54.8602)"><g class="a26 c2 node n21 p0" transform="translate(23 5.89503)"><g class="a21 c2 node n17 p0" transform="translate(-15.3333 12.1501)"><g class="a17 leaf node n4 p0 sample" transform="translate(-7.66667 21.6946)"><path class="edge" d="M 0 0 V -21.6946 H 7.66667" /><rect class="sym" height="6" width="6" x="-3" y="-3" /><text class="lab" transform="translate(0 11)">4</text></g><g class="a17 leaf node n5 p0 sample" transform="translate(7.66667 21.6946)"><path class="edge" d="M 0 0 V -21.6946 H -7.66667" /><rect class="sym" height="6" width="6" x="-3" y="-3" /><text class="lab" transform="translate(0 11)">5</text></g><path class="edge" d="M 0 0 V -12.1501 H 15.3333" /><circle class="sym" cx="0" cy="0" r="3" /><text class="lab lft" transform="translate(-3 -7.0)">17</text></g><g class="a21 c1 node n20 p0" transform="translate(15.3333 3.18287)"><g class="a20 c2 node n10 p0" transform="translate(0.0 29.3625)"><g class="a10 leaf node n6 p0 sample" transform="translate(-7.66667 1.29937)"><path class="edge" d="M 0 0 V -1.29937 H 7.66667" /><rect class="sym" height="6" width="6" x="-3" y="-3" /><text class="lab" transform="translate(0 11)">6</text></g><g class="a10 leaf node n7 p0 sample" transform="translate(7.66667 1.29937)"><path class="edge" d="M 0 0 V -1.29937 H -7.66667" /><rect class="sym" height="6" width="6" x="-3" y="-3" /><text class="lab" transform="translate(0 11)">7</text></g><path class="edge" d="M 0 0 V -29.3625 H 0.0" /><circle class="sym" cx="0" cy="0" r="3" /><text class="lab lft" transform="translate(-3 -7.0)">10</text></g><path class="edge" d="M 0 0 V -3.18287 H -15.3333" /><circle class="sym" cx="0" cy="0" r="3" /><text class="lab rgt" transform="translate(3 -7.0)">20</text></g><path class="edge" d="M 0 0 V -5.89503 H -23" /><circle class="sym" cx="0" cy="0" r="3" /><text class="lab rgt" transform="translate(3 -7.0)">21</text></g><g class="a26 c2 node n23 p0" transform="translate(-23 3.82606)"><g class="a23 leaf node n0 p0 sample" transform="translate(-7.66667 35.9137)"><path class="edge" d="M 0 0 V -35.9137 H 7.66667" /><rect class="sym" height="6" width="6" x="-3" y="-3" /><text class="lab" transform="translate(0 11)">0</text></g><g class="a23 c1 node n11 p0" transform="translate(7.66667 32.2465)"><g class="a11 leaf node n3 p0 sample" transform="translate(0.0 3.66716)"><path class="edge" d="M 0 0 V -3.66716 H 0.0" /><rect class="sym" height="6" width="6" x="-3" y="-3" /><text class="lab" transform="translate(0 11)">3</text></g><path class="edge" d="M 0 0 V -32.2465 H -7.66667" /><circle class="sym" cx="0" cy="0" r="3" /><text class="lab rgt" transform="translate(3 -7.0)">11</text></g><path class="edge" d="M 0 0 V -3.82606 H 23" /><circle class="sym" cx="0" cy="0" r="3" /><text class="lab lft" transform="translate(-3 -7.0)">23</text></g><path class="edge" d="M 0 0 V -54.8602 H 39.2917" /><circle class="sym" cx="0" cy="0" r="3" /><text class="lab lft" transform="translate(-3 -7.0)">26</text></g><g class="a33 c2 node n32 p0" transform="translate(39.2917 23.4499)"><g class="a32 leaf node n1 p0 sample" transform="translate(-17.25 71.1501)"><path class="edge" d="M 0 0 V -71.1501 H 17.25" /><rect class="sym" height="6" width="6" x="-3" y="-3" /><text class="lab" transform="translate(0 11)">1</text></g><g class="a32 c1 node n31 p0" transform="translate(17.25 7.35161)"><g class="a31 c2 node n30 p0" transform="translate(0.0 3.79354)"><g class="a30 c1 node n24 p0" transform="translate(11.5 22.2456)"><g class="a24 c1 node n18 p0" transform="translate(0.0 13.5587)"><g class="a18 c1 node n16 p0" transform="translate(0.0 2.82546)"><g class="a16 leaf node n9 p0 sample" transform="translate(0.0 21.3751)"><path class="edge" d="M 0 0 V -21.3751 H 0.0" /><rect class="sym" height="6" width="6" x="-3" y="-3" /><text class="lab" transform="translate(0 11)">9</text></g><path class="edge" d="M 0 0 V -2.82546 H 0.0" /><circle class="sym" cx="0" cy="0" r="3" /><text class="lab lft" transform="translate(-3 -7.0)">16</text></g><path class="edge" d="M 0 0 V -13.5587 H 0.0" /><circle class="sym" cx="0" cy="0" r="3" /><text class="lab lft" transform="translate(-3 -7.0)">18</text></g><path class="edge" d="M 0 0 V -22.2456 H -11.5" /><circle class="sym" cx="0" cy="0" r="3" /><text class="lab rgt" transform="translate(3 -7.0)">24</text></g><g class="a30 c1 node n29 p0" transform="translate(-11.5 15.878)"><g class="a29 c1 node n28 p0" transform="translate(0.0 3.78111)"><g class="a28 c1 node n22 p0" transform="translate(0.0 5.48783)"><g class="a22 c2 node n15 p0" transform="translate(0.0 26.0086)"><g class="a15 leaf node n2 p0 sample" transform="translate(-7.66667 8.84936)"><path class="edge" d="M 0 0 V -8.84936 H 7.66667" /><rect class="sym" height="6" width="6" x="-3" y="-3" /><text class="lab" transform="translate(0 11)">2</text></g><g class="a15 leaf node n8 p0 sample" transform="translate(7.66667 8.84936)"><path class="edge" d="M 0 0 V -8.84936 H -7.66667" /><rect class="sym" height="6" width="6" x="-3" y="-3" /><text class="lab" transform="translate(0 11)">8</text></g><path class="edge" d="M 0 0 V -26.0086 H 0.0" /><circle class="sym" cx="0" cy="0" r="3" /><text class="lab lft" transform="translate(-3 -7.0)">15</text></g><path class="edge" d="M 0 0 V -5.48783 H 0.0" /><circle class="sym" cx="0" cy="0" r="3" /><text class="lab lft" transform="translate(-3 -7.0)">22</text></g><path class="edge" d="M 0 0 V -3.78111 H 0.0" /><circle class="sym" cx="0" cy="0" r="3" /><text class="lab lft" transform="translate(-3 -7.0)">28</text></g><path class="edge" d="M 0 0 V -15.878 H 11.5" /><circle class="sym" cx="0" cy="0" r="3" /><text class="lab lft" transform="translate(-3 -7.0)">29</text></g><path class="edge" d="M 0 0 V -3.79354 H 0.0" /><circle class="sym" cx="0" cy="0" r="3" /><text class="lab lft" transform="translate(-3 -7.0)">30</text></g><path class="edge" d="M 0 0 V -7.35161 H -17.25" /><circle class="sym" cx="0" cy="0" r="3" /><text class="lab rgt" transform="translate(3 -7.0)">31</text></g><path class="edge" d="M 0 0 V -23.4499 H -39.2917" /><circle class="sym" cx="0" cy="0" r="3" /><text class="lab rgt" transform="translate(3 -7.0)">32</text></g><circle class="sym" cx="0" cy="0" r="3" /><text class="lab" transform="translate(0 -11)">33</text></g></g></g><g class="tree t3" transform="translate(600 0)"><g class="plotbox"><g class="c2 node n33 p0 root" transform="translate(97.625 26.8)"><g class="a33 c2 node n26 p0" transform="translate(-39.2917 54.8602)"><g class="a26 c2 node n21 p0" transform="translate(23 5.89503)"><g class="a21 c2 node n17 p0" transform="translate(-15.3333 12.1501)"><g class="a17 leaf node n4 p0 sample" transform="translate(-7.66667 21.6946)"><path class="edge" d="M 0 0 V -21.6946 H 7.66667" /><rect class="sym" height="6" width="6" x="-3" y="-3" /><text class="lab" transform="translate(0 11)">4</text></g><g class="a17 leaf node n5 p0 sample" transform="translate(7.66667 21.6946)"><path class="edge" d="M 0 0 V -21.6946 H -7.66667" /><rect class="sym" height="6" width="6" x="-3" y="-3" /><text class="lab" transform="translate(0 11)">5</text></g><path class="edge" d="M 0 0 V -12.1501 H 15.3333" /><circle class="sym" cx="0" cy="0" r="3" /><text class="lab lft" transform="translate(-3 -7.0)">17</text></g><g class="a21 c1 node n20 p0" transform="translate(15.3333 3.18287)"><g class="a20 c2 node n10 p0" transform="translate(0.0 29.3625)"><g class="a10 leaf node n6 p0 sample" transform="translate(-7.66667 1.29937)"><path class="edge" d="M 0 0 V -1.29937 H 7.66667" /><rect class="sym" height="6" width="6" x="-3" y="-3" /><text class="lab" transform="translate(0 11)">6</text></g><g class="a10 leaf node n7 p0 sample" transform="translate(7.66667 1.29937)"><path class="edge" d="M 0 0 V -1.29937 H -7.66667" /><rect class="sym" height="6" width="6" x="-3" y="-3" /><text class="lab" transform="translate(0 11)">7</text></g><path class="edge" d="M 0 0 V -29.3625 H 0.0" /><circle class="sym" cx="0" cy="0" r="3" /><text class="lab lft" transform="translate(-3 -7.0)">10</text></g><path class="edge" d="M 0 0 V -3.18287 H -15.3333" /><circle class="sym" cx="0" cy="0" r="3" /><text class="lab rgt" transform="translate(3 -7.0)">20</text></g><path class="edge" d="M 0 0 V -5.89503 H -23" /><circle class="sym" cx="0" cy="0" r="3" /><text class="lab rgt" transform="translate(3 -7.0)">21</text></g><g class="a26 c2 node n23 p0" transform="translate(-23 3.82606)"><g class="a23 leaf node n0 p0 sample" transform="translate(-7.66667 35.9137)"><path class="edge" d="M 0 0 V -35.9137 H 7.66667" /><rect class="sym" height="6" width="6" x="-3" y="-3" /><text class="lab" transform="translate(0 11)">0</text></g><g class="a23 c1 node n11 p0" transform="translate(7.66667 32.2465)"><g class="a11 leaf node n3 p0 sample" transform="translate(0.0 3.66716)"><path class="edge" d="M 0 0 V -3.66716 H 0.0" /><rect class="sym" height="6" width="6" x="-3" y="-3" /><text class="lab" transform="translate(0 11)">3</text></g><path class="edge" d="M 0 0 V -32.2465 H -7.66667" /><circle class="sym" cx="0" cy="0" r="3" /><text class="lab rgt" transform="translate(3 -7.0)">11</text></g><path class="edge" d="M 0 0 V -3.82606 H 23" /><circle class="sym" cx="0" cy="0" r="3" /><text class="lab lft" transform="translate(-3 -7.0)">23</text></g><path class="edge" d="M 0 0 V -54.8602 H 39.2917" /><circle class="sym" cx="0" cy="0" r="3" /><text class="lab lft" transform="translate(-3 -7.0)">26</text></g><g class="a33 c2 node n32 p0" transform="translate(39.2917 23.4499)"><g class="a32 leaf node n1 p0 sample" transform="translate(-17.25 71.1501)"><path class="edge" d="M 0 0 V -71.1501 H 17.25" /><rect class="sym" height="6" width="6" x="-3" y="-3" /><text class="lab" transform="translate(0 11)">1</text></g><g class="a32 c1 node n31 p0" transform="translate(17.25 7.35161)"><g class="a31 c1 node n30 p0" transform="translate(0.0 3.79354)"><g class="a30 c2 node n29 p0" transform="translate(0.0 15.878)"><g class="a29 c1 node n28 p0" transform="translate(-11.5 3.78111)"><g class="a28 c1 node n22 p0" transform="translate(0.0 5.48783)"><g class="a22 c2 node n15 p0" transform="translate(0.0 26.0086)"><g class="a15 leaf node n2 p0 sample" transform="translate(-7.66667 8.84936)"><path class="edge" d="M 0 0 V -8.84936 H 7.66667" /><rect class="sym" height="6" width="6" x="-3" y="-3" /><text class="lab" transform="translate(0 11)">2</text></g><g class="a15 leaf node n8 p0 sample" transform="translate(7.66667 8.84936)"><path class="edge" d="M 0 0 V -8.84936 H -7.66667" /><rect class="sym" height="6" width="6" x="-3" y="-3" /><text class="lab" transform="translate(0 11)">8</text></g><path class="edge" d="M 0 0 V -26.0086 H 0.0" /><circle class="sym" cx="0" cy="0" r="3" /><text class="lab lft" transform="translate(-3 -7.0)">15</text></g><path class="edge" d="M 0 0 V -5.48783 H 0.0" /><circle class="sym" cx="0" cy="0" r="3" /><text class="lab lft" transform="translate(-3 -7.0)">22</text></g><path class="edge" d="M 0 0 V -3.78111 H 11.5" /><circle class="sym" cx="0" cy="0" r="3" /><text class="lab lft" transform="translate(-3 -7.0)">28</text></g><g class="a29 c1 node n25 p0" transform="translate(11.5 6.36759)"><g class="a25 c1 node n18 p0" transform="translate(0.0 13.5587)"><g class="a18 c1 node n16 p0" transform="translate(0.0 2.82546)"><g class="a16 leaf node n9 p0 sample" transform="translate(0.0 21.3751)"><path class="edge" d="M 0 0 V -21.3751 H 0.0" /><rect class="sym" height="6" width="6" x="-3" y="-3" /><text class="lab" transform="translate(0 11)">9</text></g><path class="edge" d="M 0 0 V -2.82546 H 0.0" /><circle class="sym" cx="0" cy="0" r="3" /><text class="lab lft" transform="translate(-3 -7.0)">16</text></g><path class="edge" d="M 0 0 V -13.5587 H 0.0" /><circle class="sym" cx="0" cy="0" r="3" /><text class="lab lft" transform="translate(-3 -7.0)">18</text></g><path class="edge" d="M 0 0 V -6.36759 H -11.5" /><circle class="sym" cx="0" cy="0" r="3" /><text class="lab rgt" transform="translate(3 -7.0)">25</text></g><path class="edge" d="M 0 0 V -15.878 H 0.0" /><circle class="sym" cx="0" cy="0" r="3" /><text class="lab lft" transform="translate(-3 -7.0)">29</text></g><path class="edge" d="M 0 0 V -3.79354 H 0.0" /><circle class="sym" cx="0" cy="0" r="3" /><text class="lab lft" transform="translate(-3 -7.0)">30</text></g><path class="edge" d="M 0 0 V -7.35161 H -17.25" /><circle class="sym" cx="0" cy="0" r="3" /><text class="lab rgt" transform="translate(3 -7.0)">31</text></g><path class="edge" d="M 0 0 V -23.4499 H -39.2917" /><circle class="sym" cx="0" cy="0" r="3" /><text class="lab rgt" transform="translate(3 -7.0)">32</text></g><circle class="sym" cx="0" cy="0" r="3" /><text class="lab" transform="translate(0 -11)">33</text></g></g></g><g class="tree t4" transform="translate(793.333 0)"><g class="plotbox"><g class="c2 node n33 p0 root" transform="translate(85.1667 26.8)"><g class="a33 c2 node n26 p0" transform="translate(-38.3333 54.8602)"><g class="a26 c2 node n21 p0" transform="translate(19.1667 5.89503)"><g class="a21 c2 node n17 p0" transform="translate(-15.3333 12.1501)"><g class="a17 leaf node n4 p0 sample" transform="translate(-7.66667 21.6946)"><path class="edge" d="M 0 0 V -21.6946 H 7.66667" /><rect class="sym" height="6" width="6" x="-3" y="-3" /><text class="lab" transform="translate(0 11)">4</text></g><g class="a17 leaf node n5 p0 sample" transform="translate(7.66667 21.6946)"><path class="edge" d="M 0 0 V -21.6946 H -7.66667" /><rect class="sym" height="6" width="6" x="-3" y="-3" /><text class="lab" transform="translate(0 11)">5</text></g><path class="edge" d="M 0 0 V -12.1501 H 15.3333" /><circle class="sym" cx="0" cy="0" r="3" /><text class="lab lft" transform="translate(-3 -7.0)">17</text></g><g class="a21 c1 node n20 p0" transform="translate(15.3333 3.18287)"><g class="a20 c2 node n10 p0" transform="translate(0.0 29.3625)"><g class="a10 leaf node n6 p0 sample" transform="translate(-7.66667 1.29937)"><path class="edge" d="M 0 0 V -1.29937 H 7.66667" /><rect class="sym" height="6" width="6" x="-3" y="-3" /><text class="lab" transform="translate(0 11)">6</text></g><g class="a10 leaf node n7 p0 sample" transform="translate(7.66667 1.29937)"><path class="edge" d="M 0 0 V -1.29937 H -7.66667" /><rect class="sym" height="6" width="6" x="-3" y="-3" /><text class="lab" transform="translate(0 11)">7</text></g><path class="edge" d="M 0 0 V -29.3625 H 0.0" /><circle class="sym" cx="0" cy="0" r="3" /><text class="lab lft" transform="translate(-3 -7.0)">10</text></g><path class="edge" d="M 0 0 V -3.18287 H -15.3333" /><circle class="sym" cx="0" cy="0" r="3" /><text class="lab rgt" transform="translate(3 -7.0)">20</text></g><path class="edge" d="M 0 0 V -5.89503 H -19.1667" /><circle class="sym" cx="0" cy="0" r="3" /><text class="lab rgt" transform="translate(3 -7.0)">21</text></g><g class="a26 c1 node n23 p0" transform="translate(-19.1667 3.82606)"><g class="a23 leaf node n0 p0 sample" transform="translate(0.0 35.9137)"><path class="edge" d="M 0 0 V -35.9137 H 0.0" /><rect class="sym" height="6" width="6" x="-3" y="-3" /><text class="lab" transform="translate(0 11)">0</text></g><path class="edge" d="M 0 0 V -3.82606 H 19.1667" /><circle class="sym" cx="0" cy="0" r="3" /><text class="lab lft" transform="translate(-3 -7.0)">23</text></g><path class="edge" d="M 0 0 V -54.8602 H 38.3333" /><circle class="sym" cx="0" cy="0" r="3" /><text class="lab lft" transform="translate(-3 -7.0)">26</text></g><g class="a33 c2 node n32 p0" transform="translate(38.3333 23.4499)"><g class="a32 leaf node n1 p0 sample" transform="translate(-19.1667 71.1501)"><path class="edge" d="M 0 0 V -71.1501 H 19.1667" /><rect class="sym" height="6" width="6" x="-3" y="-3" /><text class="lab" transform="translate(0 11)">1</text></g><g class="a32 c1 node n31 p0" transform="translate(19.1667 7.35161)"><g class="a31 c1 node n30 p0" transform="translate(0.0 3.79354)"><g class="a30 c2 node n29 p0" transform="translate(0.0 15.878)"><g class="a29 c1 node n28 p0" transform="translate(-15.3333 3.78111)"><g class="a28 c1 node n22 p0" transform="translate(0.0 5.48783)"><g class="a22 c2 node n15 p0" transform="translate(0.0 26.0086)"><g class="a15 leaf node n2 p0 sample" transform="translate(-7.66667 8.84936)"><path class="edge" d="M 0 0 V -8.84936 H 7.66667" /><rect class="sym" height="6" width="6" x="-3" y="-3" /><text class="lab" transform="translate(0 11)">2</text></g><g class="a15 leaf node n8 p0 sample" transform="translate(7.66667 8.84936)"><path class="edge" d="M 0 0 V -8.84936 H -7.66667" /><rect class="sym" height="6" width="6" x="-3" y="-3" /><text class="lab" transform="translate(0 11)">8</text></g><path class="edge" d="M 0 0 V -26.0086 H 0.0" /><circle class="sym" cx="0" cy="0" r="3" /><text class="lab lft" transform="translate(-3 -7.0)">15</text></g><path class="edge" d="M 0 0 V -5.48783 H 0.0" /><circle class="sym" cx="0" cy="0" r="3" /><text class="lab lft" transform="translate(-3 -7.0)">22</text></g><path class="edge" d="M 0 0 V -3.78111 H 15.3333" /><circle class="sym" cx="0" cy="0" r="3" /><text class="lab lft" transform="translate(-3 -7.0)">28</text></g><g class="a29 c1 node n25 p0" transform="translate(15.3333 6.36759)"><g class="a25 c2 node n18 p0" transform="translate(0.0 13.5587)"><g class="a18 c1 node n16 p0" transform="translate(7.66667 2.82546)"><g class="a16 leaf node n9 p0 sample" transform="translate(0.0 21.3751)"><path class="edge" d="M 0 0 V -21.3751 H 0.0" /><rect class="sym" height="6" width="6" x="-3" y="-3" /><text class="lab" transform="translate(0 11)">9</text></g><path class="edge" d="M 0 0 V -2.82546 H -7.66667" /><circle class="sym" cx="0" cy="0" r="3" /><text class="lab rgt" transform="translate(3 -7.0)">16</text></g><g class="a18 c1 node n13 p0" transform="translate(-7.66667 18.3219)"><g class="a13 c1 node n12 p0" transform="translate(0.0 2.21154)"><g class="a12 leaf node n3 p0 sample" transform="translate(0.0 3.66716)"><path class="edge" d="M 0 0 V -3.66716 H 0.0" /><rect class="sym" height="6" width="6" x="-3" y="-3" /><text class="lab" transform="translate(0 11)">3</text></g><path class="edge" d="M 0 0 V -2.21154 H 0.0" /><circle class="sym" cx="0" cy="0" r="3" /><text class="lab lft" transform="translate(-3 -7.0)">12</text></g><path class="edge" d="M 0 0 V -18.3219 H 7.66667" /><circle class="sym" cx="0" cy="0" r="3" /><text class="lab lft" transform="translate(-3 -7.0)">13</text></g><path class="edge" d="M 0 0 V -13.5587 H 0.0" /><circle class="sym" cx="0" cy="0" r="3" /><text class="lab lft" transform="translate(-3 -7.0)">18</text></g><path class="edge" d="M 0 0 V -6.36759 H -15.3333" /><circle class="sym" cx="0" cy="0" r="3" /><text class="lab rgt" transform="translate(3 -7.0)">25</text></g><path class="edge" d="M 0 0 V -15.878 H 0.0" /><circle class="sym" cx="0" cy="0" r="3" /><text class="lab lft" transform="translate(-3 -7.0)">29</text></g><path class="edge" d="M 0 0 V -3.79354 H 0.0" /><circle class="sym" cx="0" cy="0" r="3" /><text class="lab lft" transform="translate(-3 -7.0)">30</text></g><path class="edge" d="M 0 0 V -7.35161 H -19.1667" /><circle class="sym" cx="0" cy="0" r="3" /><text class="lab rgt" transform="translate(3 -7.0)">31</text></g><path class="edge" d="M 0 0 V -23.4499 H -38.3333" /><circle class="sym" cx="0" cy="0" r="3" /><text class="lab rgt" transform="translate(3 -7.0)">32</text></g><circle class="sym" cx="0" cy="0" r="3" /><text class="lab" transform="translate(0 -11)">33</text></g></g></g><g class="tree t5" transform="translate(986.667 0)"><g class="plotbox"><g class="c2 node n33 p0 root" transform="translate(85.1667 26.8)"><g class="a33 c2 node n26 p0" transform="translate(-38.3333 54.8602)"><g class="a26 c2 node n21 p0" transform="translate(19.1667 5.89503)"><g class="a21 c2 node n17 p0" transform="translate(-15.3333 12.1501)"><g class="a17 leaf node n4 p0 sample" transform="translate(-7.66667 21.6946)"><path class="edge" d="M 0 0 V -21.6946 H 7.66667" /><rect class="sym" height="6" width="6" x="-3" y="-3" /><text class="lab" transform="translate(0 11)">4</text></g><g class="a17 leaf node n5 p0 sample" transform="translate(7.66667 21.6946)"><path class="edge" d="M 0 0 V -21.6946 H -7.66667" /><rect class="sym" height="6" width="6" x="-3" y="-3" /><text class="lab" transform="translate(0 11)">5</text></g><path class="edge" d="M 0 0 V -12.1501 H 15.3333" /><circle class="sym" cx="0" cy="0" r="3" /><text class="lab lft" transform="translate(-3 -7.0)">17</text></g><g class="a21 c1 node n20 p0" transform="translate(15.3333 3.18287)"><g class="a20 c2 node n10 p0" transform="translate(0.0 29.3625)"><g class="a10 leaf node n6 p0 sample" transform="translate(-7.66667 1.29937)"><path class="edge" d="M 0 0 V -1.29937 H 7.66667" /><rect class="sym" height="6" width="6" x="-3" y="-3" /><text class="lab" transform="translate(0 11)">6</text></g><g class="a10 leaf node n7 p0 sample" transform="translate(7.66667 1.29937)"><path class="edge" d="M 0 0 V -1.29937 H -7.66667" /><rect class="sym" height="6" width="6" x="-3" y="-3" /><text class="lab" transform="translate(0 11)">7</text></g><path class="edge" d="M 0 0 V -29.3625 H 0.0" /><circle class="sym" cx="0" cy="0" r="3" /><text class="lab lft" transform="translate(-3 -7.0)">10</text></g><path class="edge" d="M 0 0 V -3.18287 H -15.3333" /><circle class="sym" cx="0" cy="0" r="3" /><text class="lab rgt" transform="translate(3 -7.0)">20</text></g><path class="edge" d="M 0 0 V -5.89503 H -19.1667" /><circle class="sym" cx="0" cy="0" r="3" /><text class="lab rgt" transform="translate(3 -7.0)">21</text></g><g class="a26 c1 node n23 p0" transform="translate(-19.1667 3.82606)"><g class="a23 leaf node n0 p0 sample" transform="translate(0.0 35.9137)"><path class="edge" d="M 0 0 V -35.9137 H 0.0" /><rect class="sym" height="6" width="6" x="-3" y="-3" /><text class="lab" transform="translate(0 11)">0</text></g><path class="edge" d="M 0 0 V -3.82606 H 19.1667" /><circle class="sym" cx="0" cy="0" r="3" /><text class="lab lft" transform="translate(-3 -7.0)">23</text></g><path class="edge" d="M 0 0 V -54.8602 H 38.3333" /><circle class="sym" cx="0" cy="0" r="3" /><text class="lab lft" transform="translate(-3 -7.0)">26</text></g><g class="a33 c2 node n32 p0" transform="translate(38.3333 23.4499)"><g class="a32 leaf node n1 p0 sample" transform="translate(-19.1667 71.1501)"><path class="edge" d="M 0 0 V -71.1501 H 19.1667" /><rect class="sym" height="6" width="6" x="-3" y="-3" /><text class="lab" transform="translate(0 11)">1</text></g><g class="a32 c1 node n31 p0" transform="translate(19.1667 7.35161)"><g class="a31 c1 node n30 p0" transform="translate(0.0 3.79354)"><g class="a30 c2 node n29 p0" transform="translate(0.0 15.878)"><g class="a29 c1 node n28 p0" transform="translate(-15.3333 3.78111)"><g class="a28 c1 node n22 p0" transform="translate(0.0 5.48783)"><g class="a22 c2 node n15 p0" transform="translate(0.0 26.0086)"><g class="a15 leaf node n2 p0 sample" transform="translate(-7.66667 8.84936)"><path class="edge" d="M 0 0 V -8.84936 H 7.66667" /><rect class="sym" height="6" width="6" x="-3" y="-3" /><text class="lab" transform="translate(0 11)">2</text></g><g class="a15 leaf node n8 p0 sample" transform="translate(7.66667 8.84936)"><path class="edge" d="M 0 0 V -8.84936 H -7.66667" /><rect class="sym" height="6" width="6" x="-3" y="-3" /><text class="lab" transform="translate(0 11)">8</text></g><path class="edge" d="M 0 0 V -26.0086 H 0.0" /><circle class="sym" cx="0" cy="0" r="3" /><text class="lab lft" transform="translate(-3 -7.0)">15</text></g><path class="edge" d="M 0 0 V -5.48783 H 0.0" /><circle class="sym" cx="0" cy="0" r="3" /><text class="lab lft" transform="translate(-3 -7.0)">22</text></g><path class="edge" d="M 0 0 V -3.78111 H 15.3333" /><circle class="sym" cx="0" cy="0" r="3" /><text class="lab lft" transform="translate(-3 -7.0)">28</text></g><g class="a29 c1 node n25 p0" transform="translate(15.3333 6.36759)"><g class="a25 c1 node n18 p0" transform="translate(0.0 13.5587)"><g class="a18 c2 node n16 p0" transform="translate(0.0 2.82546)"><g class="a16 leaf node n9 p0 sample" transform="translate(7.66667 21.3751)"><path class="edge" d="M 0 0 V -21.3751 H -7.66667" /><rect class="sym" height="6" width="6" x="-3" y="-3" /><text class="lab" transform="translate(0 11)">9</text></g><g class="a16 c1 node n14 p0" transform="translate(-7.66667 15.4964)"><g class="a14 c1 node n12 p0" transform="translate(0.0 2.21154)"><g class="a12 leaf node n3 p0 sample" transform="translate(0.0 3.66716)"><path class="edge" d="M 0 0 V -3.66716 H 0.0" /><rect class="sym" height="6" width="6" x="-3" y="-3" /><text class="lab" transform="translate(0 11)">3</text></g><path class="edge" d="M 0 0 V -2.21154 H 0.0" /><circle class="sym" cx="0" cy="0" r="3" /><text class="lab lft" transform="translate(-3 -7.0)">12</text></g><path class="edge" d="M 0 0 V -15.4964 H 7.66667" /><circle class="sym" cx="0" cy="0" r="3" /><text class="lab lft" transform="translate(-3 -7.0)">14</text></g><path class="edge" d="M 0 0 V -2.82546 H 0.0" /><circle class="sym" cx="0" cy="0" r="3" /><text class="lab lft" transform="translate(-3 -7.0)">16</text></g><path class="edge" d="M 0 0 V -13.5587 H 0.0" /><circle class="sym" cx="0" cy="0" r="3" /><text class="lab lft" transform="translate(-3 -7.0)">18</text></g><path class="edge" d="M 0 0 V -6.36759 H -15.3333" /><circle class="sym" cx="0" cy="0" r="3" /><text class="lab rgt" transform="translate(3 -7.0)">25</text></g><path class="edge" d="M 0 0 V -15.878 H 0.0" /><circle class="sym" cx="0" cy="0" r="3" /><text class="lab lft" transform="translate(-3 -7.0)">29</text></g><path class="edge" d="M 0 0 V -3.79354 H 0.0" /><circle class="sym" cx="0" cy="0" r="3" /><text class="lab lft" transform="translate(-3 -7.0)">30</text></g><path class="edge" d="M 0 0 V -7.35161 H -19.1667" /><circle class="sym" cx="0" cy="0" r="3" /><text class="lab rgt" transform="translate(3 -7.0)">31</text></g><path class="edge" d="M 0 0 V -23.4499 H -38.3333" /><circle class="sym" cx="0" cy="0" r="3" /><text class="lab rgt" transform="translate(3 -7.0)">32</text></g><circle class="sym" cx="0" cy="0" r="3" /><text class="lab" transform="translate(0 -11)">33</text></g></g></g></g></g></svg>
