<svg baseProfile="full" height="200" version="1.1" width="1200" xmlns="http://www.w3.org/2000/svg" xmlns:ev="http://www.w3.org/2001/xml-events" xmlns:xlink="http://www.w3.org/1999/xlink"><defs><style type="text/css"><![CDATA[.background path {fill: #808080; fill-opacity: 0}.background path:nth-child(odd) {fill-opacity: .1}.axes {font-size: 14px}.x-axis .tick .lab {font-weight: bold; dominant-baseline: hanging}.axes, .tree {font-size: 14px; text-anchor: middle}.axes line, .edge {stroke: black; fill: none}.y-axis .grid {stroke: #FAFAFA}.node > .sym {fill: black; stroke: none}.site > .sym {stroke: black}.mut text {fill: red; font-style: italic}.mut.extra text {fill: hotpink}.mut line {fill: none; stroke: none}.mut .sym {fill: none; stroke: red}.mut.extra .sym {stroke: hotpink}.node .mut .sym {stroke-width: 1.5px}.tree text, .tree-sequence text {dominant-baseline: central}.plotbox .lab.lft {text-anchor: end}.plotbox .lab.rgt {text-anchor: start}]]></style></defs><g class="tree-sequence"><g class="background"><path d="M20,0 l193.333,0 l0,138.2 l-95.5688,25 l0,5 l-97.7646,0 l0,-5 l0,-25 l0,-138.2z" /><path d="M213.333,0 l193.333,0 l0,138.2 l-72.7034,25 l0,5 l-216.199,0 l0,-5 l95.5688,-25 l0,-138.2z" /><path d="M406.667,0 l193.333,0 l0,138.2 l43.8986,25 l0,5 l-309.935,0 l0,-5 l72.7034,-25 l0,-138.2z" /><path d="M600,0 l193.333,0 l0,138.2 l-145.261,25 l0,5 l-4.17398,0 l0,-5 l-43.8986,-25 l0,-138.2z" /><path d="M793.333,0 l193.333,0 l0,138.2 l12.2988,25 l0,5 l-350.893,0 l0,-5 l145.261,-25 l0,-138.2z" /><path d="M986.667,0 l193.333,0 l0,138.2 l0,25 l0,5 l-181.035,0 l0,-5 l-12.2988,-25 l0,-138.2z" /></g><g class="axes"><g class="x-axis"><g transform="translate(600 200)"><text class="lab" text-anchor="middle" transform="translate(0 -11)">Genome position</text></g><line x1="20" x2="1180" y1="163.2" y2="163.2" /><g class="ticks"><g class="tick" transform="translate(20 163.2)"><line x1="0" x2="0" y1="0" y2="5" /><g transform="translate(0 6)"><text class="lab">0.00</text></g></g><g class="tick" transform="translate(117.765 163.2)"><line x1="0" x2="0" y1="0" y2="5" /><g transform="translate(0 6)"><text class="lab">84.28</text></g></g><g class="tick" transform="translate(333.963 163.2)"><line x1="0" x2="0" y1="0" y2="5" /><g transform="translate(0 6)"><text class="lab">270.66</text></g></g><g class="tick" transform="translate(643.899 163.2)"><line x1="0" x2="0" y1="0" y2="5" /><g transform="translate(0 6)"><text class="lab">537.84</text></g></g><g class="tick" transform="translate(648.073 163.2)"><line x1="0" x2="0" y1="0" y2="5" /><g transform="translate(0 6)"><text class="lab">541.44</text></g></g><g class="tick" transform="translate(998.965 163.2)"><line x1="0" x2="0" y1="0" y2="5" /><g transform="translate(0 6)"><text class="lab">843.94</text></g></g><g class="tick" transform="translate(1180 163.2)"><line x1="0" x2="0" y1="0" y2="5" /><g transform="translate(0 6)"><text class="lab">1000.00</text></g></g></g></g></g><g class="plotbox trees"><g class="tree t0" transform="translate(20 0)"><g class="plotbox"><g class="c2 node n36 p0 root" transform="translate(130.448 26.8)"><g class="a36 c1 node n34 p0" transform="translate(27.5521 13.8205)"><g class="a34 c1 node n33 p0" transform="translate(0.0 8.28204)"><g class="a33 c1 node n27 p0" transform="translate(0.0 37.5677)"><g class="a27 c1 node n26 p0" transform="translate(0.0 14.6515)"><g class="a26 c1 node n24 p0" transform="translate(0.0 0.724084)"><g class="a24 c1 node n11 p0" transform="translate(0.0 17.1681)"><g class="a11 c2 node n10 p0" transform="translate(0.0 2.33035)"><g class="a10 leaf node n1 p0 sample" transform="translate(-7.66667 0.0558105)"><path class="edge" d="M 0 0 V -0.0558105 H 7.66667" /><rect class="sym" height="6" width="6" x="-3" y="-3" /><text class="lab" transform="translate(0 11)">1</text></g><g class="a10 leaf node n8 p0 sample" transform="translate(7.66667 0.0558105)"><path class="edge" d="M 0 0 V -0.0558105 H -7.66667" /><rect class="sym" height="6" width="6" x="-3" y="-3" /><text class="lab" transform="translate(0 11)">8</text></g><path class="edge" d="M 0 0 V -2.33035 H 0.0" /><circle class="sym" cx="0" cy="0" r="3" /><text class="lab lft" transform="translate(-3 -7.0)">10</text></g><path class="edge" d="M 0 0 V -17.1681 H 0.0" /><circle class="sym" cx="0" cy="0" r="3" /><text class="lab lft" transform="translate(-3 -7.0)">11</text></g><path class="edge" d="M 0 0 V -0.724084 H 0.0" /><circle class="sym" cx="0" cy="0" r="3" /><text class="lab lft" transform="translate(-3 -7.0)">24</text></g><path class="edge" d="M 0 0 V -14.6515 H 0.0" /><circle class="sym" cx="0" cy="0" r="3" /><text class="lab lft" transform="translate(-3 -7.0)">26</text></g><path class="edge" d="M 0 0 V -37.5677 H 0.0" /><circle class="sym" cx="0" cy="0" r="3" /><text class="lab lft" transform="translate(-3 -7.0)">27</text></g><path class="edge" d="M 0 0 V -8.28204 H 0.0" /><circle class="sym" cx="0" cy="0" r="3" /><text class="lab lft" transform="translate(-3 -7.0)">33</text></g><path class="edge" d="M 0 0 V -13.8205 H -27.5521" /><circle class="sym" cx="0" cy="0" r="3" /><text class="lab rgt" transform="translate(3 -7.0)">34</text></g><g class="a36 c2 node n35 p0" transform="translate(-27.5521 7.62686)"><g class="a35 c2 node n14 p0" transform="translate(24.4375 82.9098)"><g class="a14 leaf node n2 p0 sample" transform="translate(-7.66667 4.06335)"><path class="edge" d="M 0 0 V -4.06335 H 7.66667" /><rect class="sym" height="6" width="6" x="-3" y="-3" /><text class="lab" transform="translate(0 11)">2</text></g><g class="a14 leaf node n5 p0 sample" transform="translate(7.66667 4.06335)"><path class="edge" d="M 0 0 V -4.06335 H -7.66667" /><rect class="sym" height="6" width="6" x="-3" y="-3" /><text class="lab" transform="translate(0 11)">5</text></g><path class="edge" d="M 0 0 V -82.9098 H -24.4375" /><circle class="sym" cx="0" cy="0" r="3" /><text class="lab rgt" transform="translate(3 -7.0)">14</text></g><g class="a35 c1 node n31 p0" transform="translate(-24.4375 21.0602)"><g class="a31 c2 node n29 p0" transform="translate(0.0 25.945)"><g class="a29 c1 node n18 p0" transform="translate(18.2083 32.9984)"><g class="a18 c2 node n13 p0" transform="translate(0.0 4.47062)"><g class="a13 leaf node n7 p0 sample" transform="translate(-7.66667 2.49899)"><path class="edge" d="M 0 0 V -2.49899 H 7.66667" /><rect class="sym" height="6" width="6" x="-3" y="-3" /><text class="lab" transform="translate(0 11)">7</text></g><g class="a13 leaf node n9 p0 sample" transform="translate(7.66667 2.49899)"><path class="edge" d="M 0 0 V -2.49899 H -7.66667" /><rect class="sym" height="6" width="6" x="-3" y="-3" /><text class="lab" transform="translate(0 11)">9</text></g><path class="edge" d="M 0 0 V -4.47062 H 0.0" /><circle class="sym" cx="0" cy="0" r="3" /><text class="lab lft" transform="translate(-3 -7.0)">13</text></g><path class="edge" d="M 0 0 V -32.9984 H -18.2083" /><circle class="sym" cx="0" cy="0" r="3" /><text class="lab rgt" transform="translate(3 -7.0)">18</text></g><g class="a29 c2 node n23 p0" transform="translate(-18.2083 22.7991)"><g class="a23 c2 node n17 p0" transform="translate(-13.4167 10.544)"><g class="a17 c1 node n15 p0" transform="translate(11.5 1.9238)"><g class="a15 leaf node n3 p0 sample" transform="translate(0.0 4.7011)"><path class="edge" d="M 0 0 V -4.7011 H 0.0" /><rect class="sym" height="6" width="6" x="-3" y="-3" /><text class="lab" transform="translate(0 11)">3</text></g><path class="edge" d="M 0 0 V -1.9238 H -11.5" /><circle class="sym" cx="0" cy="0" r="3" /><text class="lab rgt" transform="translate(3 -7.0)">15</text></g><g class="a17 c2 node n16 p0" transform="translate(-11.5 0.370344)"><g class="a16 leaf node n0 p0 sample" transform="translate(-7.66667 6.25456)"><path class="edge" d="M 0 0 V -6.25456 H 7.66667" /><rect class="sym" height="6" width="6" x="-3" y="-3" /><text class="lab" transform="translate(0 11)">0</text></g><g class="a16 leaf node n6 p0 sample" transform="translate(7.66667 6.25456)"><path class="edge" d="M 0 0 V -6.25456 H -7.66667" /><rect class="sym" height="6" width="6" x="-3" y="-3" /><text class="lab" transform="translate(0 11)">6</text></g><path class="edge" d="M 0 0 V -0.370344 H 11.5" /><circle class="sym" cx="0" cy="0" r="3" /><text class="lab lft" transform="translate(-3 -7.0)">16</text></g><path class="edge" d="M 0 0 V -10.544 H 13.4167" /><circle class="sym" cx="0" cy="0" r="3" /><text class="lab lft" transform="translate(-3 -7.0)">17</text></g><g class="a23 c1 node n22 p0" transform="translate(13.4167 2.27221)"><g class="a22 leaf node n4 p0 sample" transform="translate(0.0 14.8967)"><path class="edge" d="M 0 0 V -14.8967 H 0.0" /><rect class="sym" height="6" width="6" x="-3" y="-3" /><text class="lab" transform="translate(0 11)">4</text></g><path class="edge" d="M 0 0 V -2.27221 H -13.4167" /><circle class="sym" cx="0" cy="0" r="3" /><text class="lab rgt" transform="translate(3 -7.0)">22</text></g><path class="edge" d="M 0 0 V -22.7991 H 18.2083" /><circle class="sym" cx="0" cy="0" r="3" /><text class="lab lft" transform="translate(-3 -7.0)">23</text></g><path class="edge" d="M 0 0 V -25.945 H 0.0" /><circle class="sym" cx="0" cy="0" r="3" /><text class="lab lft" transform="translate(-3 -7.0)">29</text></g><path class="edge" d="M 0 0 V -21.0602 H 24.4375" /><circle class="sym" cx="0" cy="0" r="3" /><text class="lab lft" transform="translate(-3 -7.0)">31</text></g><path class="edge" d="M 0 0 V -7.62686 H 27.5521" /><circle class="sym" cx="0" cy="0" r="3" /><text class="lab lft" transform="translate(-3 -7.0)">35</text></g><circle class="sym" cx="0" cy="0" r="3" /><text class="lab" transform="translate(0 -11)">36</text></g></g></g><g class="tree t1" transform="translate(213.333 0)"><g class="plotbox"><g class="c2 node n36 p0 root" transform="translate(130.448 26.8)"><g class="a36 c1 node n34 p0" transform="translate(27.5521 13.8205)"><g class="a34 c1 node n33 p0" transform="translate(0.0 8.28204)"><g class="a33 c1 node n30 p0" transform="translate(0.0 14.0333)"><g class="a30 c1 node n25 p0" transform="translate(0.0 38.9099)"><g class="a25 c1 node n11 p0" transform="translate(0.0 17.1681)"><g class="a11 c2 node n10 p0" transform="translate(0.0 2.33035)"><g class="a10 leaf node n1 p0 sample" transform="translate(-7.66667 0.0558105)"><path class="edge" d="M 0 0 V -0.0558105 H 7.66667" /><rect class="sym" height="6" width="6" x="-3" y="-3" /><text class="lab" transform="translate(0 11)">1</text></g><g class="a10 leaf node n8 p0 sample" transform="translate(7.66667 0.0558105)"><path class="edge" d="M 0 0 V -0.0558105 H -7.66667" /><rect class="sym" height="6" width="6" x="-3" y="-3" /><text class="lab" transform="translate(0 11)">8</text></g><path class="edge" d="M 0 0 V -2.33035 H 0.0" /><circle class="sym" cx="0" cy="0" r="3" /><text class="lab lft" transform="translate(-3 -7.0)">10</text></g><path class="edge" d="M 0 0 V -17.1681 H 0.0" /><circle class="sym" cx="0" cy="0" r="3" /><text class="lab lft" transform="translate(-3 -7.0)">11</text></g><path class="edge" d="M 0 0 V -38.9099 H 0.0" /><circle class="sym" cx="0" cy="0" r="3" /><text class="lab lft" transform="translate(-3 -7.0)">25</text></g><path class="edge" d="M 0 0 V -14.0333 H 0.0" /><circle class="sym" cx="0" cy="0" r="3" /><text class="lab lft" transform="translate(-3 -7.0)">30</text></g><path class="edge" d="M 0 0 V -8.28204 H 0.0" /><circle class="sym" cx="0" cy="0" r="3" /><text class="lab lft" transform="translate(-3 -7.0)">33</text></g><path class="edge" d="M 0 0 V -13.8205 H -27.5521" /><circle class="sym" cx="0" cy="0" r="3" /><text class="lab rgt" transform="translate(3 -7.0)">34</text></g><g class="a36 c2 node n35 p0" transform="translate(-27.5521 7.62686)"><g class="a35 c2 node n14 p0" transform="translate(24.4375 82.9098)"><g class="a14 leaf node n2 p0 sample" transform="translate(-7.66667 4.06335)"><path class="edge" d="M 0 0 V -4.06335 H 7.66667" /><rect class="sym" height="6" width="6" x="-3" y="-3" /><text class="lab" transform="translate(0 11)">2</text></g><g class="a14 leaf node n5 p0 sample" transform="translate(7.66667 4.06335)"><path class="edge" d="M 0 0 V -4.06335 H -7.66667" /><rect class="sym" height="6" width="6" x="-3" y="-3" /><text class="lab" transform="translate(0 11)">5</text></g><path class="edge" d="M 0 0 V -82.9098 H -24.4375" /><circle class="sym" cx="0" cy="0" r="3" /><text class="lab rgt" transform="translate(3 -7.0)">14</text></g><g class="a35 c1 node n31 p0" transform="translate(-24.4375 21.0602)"><g class="a31 c2 node n29 p0" transform="translate(0.0 25.945)"><g class="a29 c1 node n18 p0" transform="translate(18.2083 32.9984)"><g class="a18 c2 node n13 p0" transform="translate(0.0 4.47062)"><g class="a13 leaf node n7 p0 sample" transform="translate(-7.66667 2.49899)"><path class="edge" d="M 0 0 V -2.49899 H 7.66667" /><rect class="sym" height="6" width="6" x="-3" y="-3" /><text class="lab" transform="translate(0 11)">7</text></g><g class="a13 leaf node n9 p0 sample" transform="translate(7.66667 2.49899)"><path class="edge" d="M 0 0 V -2.49899 H -7.66667" /><rect class="sym" height="6" width="6" x="-3" y="-3" /><text class="lab" transform="translate(0 11)">9</text></g><path class="edge" d="M 0 0 V -4.47062 H 0.0" /><circle class="sym" cx="0" cy="0" r="3" /><text class="lab lft" transform="translate(-3 -7.0)">13</text></g><path class="edge" d="M 0 0 V -32.9984 H -18.2083" /><circle class="sym" cx="0" cy="0" r="3" /><text class="lab rgt" transform="translate(3 -7.0)">18</text></g><g class="a29 c2 node n23 p0" transform="translate(-18.2083 22.7991)"><g class="a23 c2 node n17 p0" transform="translate(-13.4167 10.544)"><g class="a17 c1 node n15 p0" transform="translate(11.5 1.9238)"><g class="a15 leaf node n3 p0 sample" transform="translate(0.0 4.7011)"><path class="edge" d="M 0 0 V -4.7011 H 0.0" /><rect class="sym" height="6" width="6" x="-3" y="-3" /><text class="lab" transform="translate(0 11)">3</text></g><path class="edge" d="M 0 0 V -1.9238 H -11.5" /><circle class="sym" cx="0" cy="0" r="3" /><text class="lab rgt" transform="translate(3 -7.0)">15</text></g><g class="a17 c2 node n16 p0" transform="translate(-11.5 0.370344)"><g class="a16 leaf node n0 p0 sample" transform="translate(-7.66667 6.25456)"><path class="edge" d="M 0 0 V -6.25456 H 7.66667" /><rect class="sym" height="6" width="6" x="-3" y="-3" /><text class="lab" transform="translate(0 11)">0</text></g><g class="a16 leaf node n6 p0 sample" transform="translate(7.66667 6.25456)"><path class="edge" d="M 0 0 V -6.25456 H -7.66667" /><rect class="sym" height="6" width="6" x="-3" y="-3" /><text class="lab" transform="translate(0 11)">6</text></g><path class="edge" d="M 0 0 V -0.370344 H 11.5" /><circle class="sym" cx="0" cy="0" r="3" /><text class="lab lft" transform="translate(-3 -7.0)">16</text></g><path class="edge" d="M 0 0 V -10.544 H 13.4167" /><circle class="sym" cx="0" cy="0" r="3" /><text class="lab lft" transform="translate(-3 -7.0)">17</text></g><g class="a23 c1 node n22 p0" transform="translate(13.4167 2.27221)"><g class="a22 leaf node n4 p0 sample" transform="translate(0.0 14.8967)"><path class="edge" d="M 0 0 V -14.8967 H 0.0" /><rect class="sym" height="6" width="6" x="-3" y="-3" /><text class="lab" transform="translate(0 11)">4</text></g><path class="edge" d="M 0 0 V -2.27221 H -13.4167" /><circle class="sym" cx="0" cy="0" r="3" /><text class="lab rgt" transform="translate(3 -7.0)">22</text></g><path class="edge" d="M 0 0 V -22.7991 H 18.2083" /><circle class="sym" cx="0" cy="0" r="3" /><text class="lab lft" transform="translate(-3 -7.0)">23</text></g><path class="edge" d="M 0 0 V -25.945 H 0.0" /><circle class="sym" cx="0" cy="0" r="3" /><text class="lab lft" transform="translate(-3 -7.0)">29</text></g><path class="edge" d="M 0 0 V -21.0602 H 24.4375" /><circle class="sym" cx="0" cy="0" r="3" /><text class="lab lft" transform="translate(-3 -7.0)">31</text></g><path class="edge" d="M 0 0 V -7.62686 H 27.5521" /><circle class="sym" cx="0" cy="0" r="3" /><text class="lab lft" transform="translate(-3 -7.0)">35</text></g><circle class="sym" cx="0" cy="0" r="3" /><text class="lab" transform="translate(0 -11)">36</text></g></g></g><g class="tree t2" transform="translate(406.667 0)"><g class="plotbox"><g class="c2 node n36 p0 root" transform="translate(130.448 26.8)"><g class="a36 c2 node n34 p0" transform="translate(-27.5521 13.8205)"><g class="a34 c1 node n33 p0" transform="translate(24.4375 8.28204)"><g class="a33 c1 node n30 p0" transform="translate(0.0 14.0333)"><g class="a30 c1 node n25 p0" transform="translate(0.0 38.9099)"><g class="a25 c1 node n11 p0" transform="translate(0.0 17.1681)"><g class="a11 c2 node n10 p0" transform="translate(0.0 2.33035)"><g class="a10 leaf node n1 p0 sample" transform="translate(-7.66667 0.0558105)"><path class="edge" d="M 0 0 V -0.0558105 H 7.66667" /><rect class="sym" height="6" width="6" x="-3" y="-3" /><text class="lab" transform="translate(0 11)">1</text></g><g class="a10 leaf node n8 p0 sample" transform="translate(7.66667 0.0558105)"><path class="edge" d="M 0 0 V -0.0558105 H -7.66667" /><rect class="sym" height="6" width="6" x="-3" y="-3" /><text class="lab" transform="translate(0 11)">8</text></g><path class="edge" d="M 0 0 V -2.33035 H 0.0" /><circle class="sym" cx="0" cy="0" r="3" /><text class="lab lft" transform="translate(-3 -7.0)">10</text></g><path class="edge" d="M 0 0 V -17.1681 H 0.0" /><circle class="sym" cx="0" cy="0" r="3" /><text class="lab lft" transform="translate(-3 -7.0)">11</text></g><path class="edge" d="M 0 0 V -38.9099 H 0.0" /><circle class="sym" cx="0" cy="0" r="3" /><text class="lab lft" transform="translate(-3 -7.0)">25</text></g><path class="edge" d="M 0 0 V -14.0333 H 0.0" /><circle class="sym" cx="0" cy="0" r="3" /><text class="lab lft" transform="translate(-3 -7.0)">30</text></g><path class="edge" d="M 0 0 V -8.28204 H -24.4375" /><circle class="sym" cx="0" cy="0" r="3" /><text class="lab rgt" transform="translate(3 -7.0)">33</text></g><g class="a34 c1 node n32 p0" transform="translate(-24.4375 14.8665)"><g class="a32 c2 node n29 p0" transform="translate(0.0 25.945)"><g class="a29 c1 node n18 p0" transform="translate(18.2083 32.9984)"><g class="a18 c2 node n13 p0" transform="translate(0.0 4.47062)"><g class="a13 leaf node n7 p0 sample" transform="translate(-7.66667 2.49899)"><path class="edge" d="M 0 0 V -2.49899 H 7.66667" /><rect class="sym" height="6" width="6" x="-3" y="-3" /><text class="lab" transform="translate(0 11)">7</text></g><g class="a13 leaf node n9 p0 sample" transform="translate(7.66667 2.49899)"><path class="edge" d="M 0 0 V -2.49899 H -7.66667" /><rect class="sym" height="6" width="6" x="-3" y="-3" /><text class="lab" transform="translate(0 11)">9</text></g><path class="edge" d="M 0 0 V -4.47062 H 0.0" /><circle class="sym" cx="0" cy="0" r="3" /><text class="lab lft" transform="translate(-3 -7.0)">13</text></g><path class="edge" d="M 0 0 V -32.9984 H -18.2083" /><circle class="sym" cx="0" cy="0" r="3" /><text class="lab rgt" transform="translate(3 -7.0)">18</text></g><g class="a29 c2 node n23 p0" transform="translate(-18.2083 22.7991)"><g class="a23 c2 node n17 p0" transform="translate(-13.4167 10.544)"><g class="a17 c1 node n15 p0" transform="translate(11.5 1.9238)"><g class="a15 leaf node n3 p0 sample" transform="translate(0.0 4.7011)"><path class="edge" d="M 0 0 V -4.7011 H 0.0" /><rect class="sym" height="6" width="6" x="-3" y="-3" /><text class="lab" transform="translate(0 11)">3</text></g><path class="edge" d="M 0 0 V -1.9238 H -11.5" /><circle class="sym" cx="0" cy="0" r="3" /><text class="lab rgt" transform="translate(3 -7.0)">15</text></g><g class="a17 c2 node n16 p0" transform="translate(-11.5 0.370344)"><g class="a16 leaf node n0 p0 sample" transform="translate(-7.66667 6.25456)"><path class="edge" d="M 0 0 V -6.25456 H 7.66667" /><rect class="sym" height="6" width="6" x="-3" y="-3" /><text class="lab" transform="translate(0 11)">0</text></g><g class="a16 leaf node n6 p0 sample" transform="translate(7.66667 6.25456)"><path class="edge" d="M 0 0 V -6.25456 H -7.66667" /><rect class="sym" height="6" width="6" x="-3" y="-3" /><text class="lab" transform="translate(0 11)">6</text></g><path class="edge" d="M 0 0 V -0.370344 H 11.5" /><circle class="sym" cx="0" cy="0" r="3" /><text class="lab lft" transform="translate(-3 -7.0)">16</text></g><path class="edge" d="M 0 0 V -10.544 H 13.4167" /><circle class="sym" cx="0" cy="0" r="3" /><text class="lab lft" transform="translate(-3 -7.0)">17</text></g><g class="a23 c1 node n22 p0" transform="translate(13.4167 2.27221)"><g class="a22 leaf node n4 p0 sample" transform="translate(0.0 14.8967)"><path class="edge" d="M 0 0 V -14.8967 H 0.0" /><rect class="sym" height="6" width="6" x="-3" y="-3" /><text class="lab" transform="translate(0 11)">4</text></g><path class="edge" d="M 0 0 V -2.27221 H -13.4167" /><circle class="sym" cx="0" cy="0" r="3" /><text class="lab rgt" transform="translate(3 -7.0)">22</text></g><path class="edge" d="M 0 0 V -22.7991 H 18.2083" /><circle class="sym" cx="0" cy="0" r="3" /><text class="lab lft" transform="translate(-3 -7.0)">23</text></g><path class="edge" d="M 0 0 V -25.945 H 0.0" /><circle class="sym" cx="0" cy="0" r="3" /><text class="lab lft" transform="translate(-3 -7.0)">29</text></g><path class="edge" d="M 0 0 V -14.8665 H 24.4375" /><circle class="sym" cx="0" cy="0" r="3" /><text class="lab lft" transform="translate(-3 -7.0)">32</text></g><path class="edge" d="M 0 0 V -13.8205 H 27.5521" /><circle class="sym" cx="0" cy="0" r="3" /><text class="lab lft" transform="translate(-3 -7.0)">34</text></g><g class="a36 c1 node n35 p0" transform="translate(27.5521 7.62686)"><g class="a35 c2 node n14 p0" transform="translate(0.0 82.9098)"><g class="a14 leaf node n2 p0 sample" transform="translate(-7.66667 4.06335)"><path class="edge" d="M 0 0 V -4.06335 H 7.66667" /><rect class="sym" height="6" width="6" x="-3" y="-3" /><text class="lab" transform="translate(0 11)">2</text></g><g class="a14 leaf node n5 p0 sample" transform="translate(7.66667 4.06335)"><path class="edge" d="M 0 0 V -4.06335 H -7.66667" /><rect class="sym" height="6" width="6" x="-3" y="-3" /><text class="lab" transform="translate(0 11)">5</text></g><path class="edge" d="M 0 0 V -82.9098 H 0.0" /><circle class="sym" cx="0" cy="0" r="3" /><text class="lab lft" transform="translate(-3 -7.0)">14</text></g><path class="edge" d="M 0 0 V -7.62686 H -27.5521" /><circle class="sym" cx="0" cy="0" r="3" /><text class="lab rgt" transform="translate(3 -7.0)">35</text></g><circle class="sym" cx="0" cy="0" r="3" /><text class="lab" transform="translate(0 -11)">36</text></g></g></g><g class="tree t3" transform="translate(600 0)"><g class="plotbox"><g class="c2 node n36 p0 root" transform="translate(130.927 26.8)"><g class="a36 c1 node n34 p0" transform="translate(-27.0729 13.8205)"><g class="a34 c1 node n32 p0" transform="translate(0.0 14.8665)"><g class="a32 c2 node n29 p0" transform="translate(0.0 25.945)"><g class="a29 c1 node n18 p0" transform="translate(23.4792 32.9984)"><g class="a18 c2 node n13 p0" transform="translate(0.0 4.47062)"><g class="a13 leaf node n7 p0 sample" transform="translate(-7.66667 2.49899)"><path class="edge" d="M 0 0 V -2.49899 H 7.66667" /><rect class="sym" height="6" width="6" x="-3" y="-3" /><text class="lab" transform="translate(0 11)">7</text></g><g class="a13 leaf node n9 p0 sample" transform="translate(7.66667 2.49899)"><path class="edge" d="M 0 0 V -2.49899 H -7.66667" /><rect class="sym" height="6" width="6" x="-3" y="-3" /><text class="lab" transform="translate(0 11)">9</text></g><path class="edge" d="M 0 0 V -4.47062 H 0.0" /><circle class="sym" cx="0" cy="0" r="3" /><text class="lab lft" transform="translate(-3 -7.0)">13</text></g><path class="edge" d="M 0 0 V -32.9984 H -23.4792" /><circle class="sym" cx="0" cy="0" r="3" /><text class="lab rgt" transform="translate(3 -7.0)">18</text></g><g class="a29 c2 node n23 p0" transform="translate(-23.4792 22.7991)"><g class="a23 c2 node n17 p0" transform="translate(-23.9583 10.544)"><g class="a17 c2 node n15 p0" transform="translate(21.0833 1.9238)"><g class="a15 leaf node n3 p0 sample" transform="translate(11.5 4.7011)"><path class="edge" d="M 0 0 V -4.7011 H -11.5" /><rect class="sym" height="6" width="6" x="-3" y="-3" /><text class="lab" transform="translate(0 11)">3</text></g><g class="a15 c1 node n12 p0" transform="translate(-11.5 2.31494)"><g class="a12 c2 node n10 p0" transform="translate(0.0 2.33035)"><g class="a10 leaf node n1 p0 sample" transform="translate(-7.66667 0.0558105)"><path class="edge" d="M 0 0 V -0.0558105 H 7.66667" /><rect class="sym" height="6" width="6" x="-3" y="-3" /><text class="lab" transform="translate(0 11)">1</text></g><g class="a10 leaf node n8 p0 sample" transform="translate(7.66667 0.0558105)"><path class="edge" d="M 0 0 V -0.0558105 H -7.66667" /><rect class="sym" height="6" width="6" x="-3" y="-3" /><text class="lab" transform="translate(0 11)">8</text></g><path class="edge" d="M 0 0 V -2.33035 H 0.0" /><circle class="sym" cx="0" cy="0" r="3" /><text class="lab lft" transform="translate(-3 -7.0)">10</text></g><path class="edge" d="M 0 0 V -2.31494 H 11.5" /><circle class="sym" cx="0" cy="0" r="3" /><text class="lab lft" transform="translate(-3 -7.0)">12</text></g><path class="edge" d="M 0 0 V -1.9238 H -21.0833" /><circle class="sym" cx="0" cy="0" r="3" /><text class="lab rgt" transform="translate(3 -7.0)">15</text></g><g class="a17 c2 node n16 p0" transform="translate(-21.0833 0.370344)"><g class="a16 leaf node n0 p0 sample" transform="translate(-7.66667 6.25456)"><path class="edge" d="M 0 0 V -6.25456 H 7.66667" /><rect class="sym" height="6" width="6" x="-3" y="-3" /><text class="lab" transform="translate(0 11)">0</text></g><g class="a16 leaf node n6 p0 sample" transform="translate(7.66667 6.25456)"><path class="edge" d="M 0 0 V -6.25456 H -7.66667" /><rect class="sym" height="6" width="6" x="-3" y="-3" /><text class="lab" transform="translate(0 11)">6</text></g><path class="edge" d="M 0 0 V -0.370344 H 21.0833" /><circle class="sym" cx="0" cy="0" r="3" /><text class="lab lft" transform="translate(-3 -7.0)">16</text></g><path class="edge" d="M 0 0 V -10.544 H 23.9583" /><circle class="sym" cx="0" cy="0" r="3" /><text class="lab lft" transform="translate(-3 -7.0)">17</text></g><g class="a23 c1 node n22 p0" transform="translate(23.9583 2.27221)"><g class="a22 leaf node n4 p0 sample" transform="translate(0.0 14.8967)"><path class="edge" d="M 0 0 V -14.8967 H 0.0" /><rect class="sym" height="6" width="6" x="-3" y="-3" /><text class="lab" transform="translate(0 11)">4</text></g><path class="edge" d="M 0 0 V -2.27221 H -23.9583" /><circle class="sym" cx="0" cy="0" r="3" /><text class="lab rgt" transform="translate(3 -7.0)">22</text></g><path class="edge" d="M 0 0 V -22.7991 H 23.4792" /><circle class="sym" cx="0" cy="0" r="3" /><text class="lab lft" transform="translate(-3 -7.0)">23</text></g><path class="edge" d="M 0 0 V -25.945 H 0.0" /><circle class="sym" cx="0" cy="0" r="3" /><text class="lab lft" transform="translate(-3 -7.0)">29</text></g><path class="edge" d="M 0 0 V -14.8665 H 0.0" /><circle class="sym" cx="0" cy="0" r="3" /><text class="lab lft" transform="translate(-3 -7.0)">32</text></g><path class="edge" d="M 0 0 V -13.8205 H 27.0729" /><circle class="sym" cx="0" cy="0" r="3" /><text class="lab lft" transform="translate(-3 -7.0)">34</text></g><g class="a36 c1 node n35 p0" transform="translate(27.0729 7.62686)"><g class="a35 c2 node n14 p0" transform="translate(0.0 82.9098)"><g class="a14 leaf node n2 p0 sample" transform="translate(-7.66667 4.06335)"><path class="edge" d="M 0 0 V -4.06335 H 7.66667" /><rect class="sym" height="6" width="6" x="-3" y="-3" /><text class="lab" transform="translate(0 11)">2</text></g><g class="a14 leaf node n5 p0 sample" transform="translate(7.66667 4.06335)"><path class="edge" d="M 0 0 V -4.06335 H -7.66667" /><rect class="sym" height="6" width="6" x="-3" y="-3" /><text class="lab" transform="translate(0 11)">5</text></g><path class="edge" d="M 0 0 V -82.9098 H 0.0" /><circle class="sym" cx="0" cy="0" r="3" /><text class="lab lft" transform="translate(-3 -7.0)">14</text></g><path class="edge" d="M 0 0 V -7.62686 H -27.0729" /><circle class="sym" cx="0" cy="0" r="3" /><text class="lab rgt" transform="translate(3 -7.0)">35</text></g><circle class="sym" cx="0" cy="0" r="3" /><text class="lab" transform="translate(0 -11)">36</text></g></g></g><g class="tree t4" transform="translate(793.333 0)"><g class="plotbox"><g class="c2 node n36 p0 root" transform="translate(122.062 26.8)"><g class="a36 c1 node n34 p0" transform="translate(-35.9375 13.8205)"><g class="a34 c1 node n32 p0" transform="translate(0.0 14.8665)"><g class="a32 c1 node n29 p0" transform="translate(0.0 25.945)"><g class="a29 c2 node n23 p0" transform="translate(0.0 22.7991)"><g class="a23 c2 node n17 p0" transform="translate(-29.7083 10.544)"><g class="a17 c2 node n15 p0" transform="translate(21.0833 1.9238)"><g class="a15 leaf node n3 p0 sample" transform="translate(11.5 4.7011)"><path class="edge" d="M 0 0 V -4.7011 H -11.5" /><rect class="sym" height="6" width="6" x="-3" y="-3" /><text class="lab" transform="translate(0 11)">3</text></g><g class="a15 c1 node n12 p0" transform="translate(-11.5 2.31494)"><g class="a12 c2 node n10 p0" transform="translate(0.0 2.33035)"><g class="a10 leaf node n1 p0 sample" transform="translate(-7.66667 0.0558105)"><path class="edge" d="M 0 0 V -0.0558105 H 7.66667" /><rect class="sym" height="6" width="6" x="-3" y="-3" /><text class="lab" transform="translate(0 11)">1</text></g><g class="a10 leaf node n8 p0 sample" transform="translate(7.66667 0.0558105)"><path class="edge" d="M 0 0 V -0.0558105 H -7.66667" /><rect class="sym" height="6" width="6" x="-3" y="-3" /><text class="lab" transform="translate(0 11)">8</text></g><path class="edge" d="M 0 0 V -2.33035 H 0.0" /><circle class="sym" cx="0" cy="0" r="3" /><text class="lab lft" transform="translate(-3 -7.0)">10</text></g><path class="edge" d="M 0 0 V -2.31494 H 11.5" /><circle class="sym" cx="0" cy="0" r="3" /><text class="lab lft" transform="translate(-3 -7.0)">12</text></g><path class="edge" d="M 0 0 V -1.9238 H -21.0833" /><circle class="sym" cx="0" cy="0" r="3" /><text class="lab rgt" transform="translate(3 -7.0)">15</text></g><g class="a17 c2 node n16 p0" transform="translate(-21.0833 0.370344)"><g class="a16 leaf node n0 p0 sample" transform="translate(-7.66667 6.25456)"><path class="edge" d="M 0 0 V -6.25456 H 7.66667" /><rect class="sym" height="6" width="6" x="-3" y="-3" /><text class="lab" transform="translate(0 11)">0</text></g><g class="a16 leaf node n6 p0 sample" transform="translate(7.66667 6.25456)"><path class="edge" d="M 0 0 V -6.25456 H -7.66667" /><rect class="sym" height="6" width="6" x="-3" y="-3" /><text class="lab" transform="translate(0 11)">6</text></g><path class="edge" d="M 0 0 V -0.370344 H 21.0833" /><circle class="sym" cx="0" cy="0" r="3" /><text class="lab lft" transform="translate(-3 -7.0)">16</text></g><path class="edge" d="M 0 0 V -10.544 H 29.7083" /><circle class="sym" cx="0" cy="0" r="3" /><text class="lab lft" transform="translate(-3 -7.0)">17</text></g><g class="a23 c2 node n22 p0" transform="translate(29.7083 2.27221)"><g class="a22 leaf node n4 p0 sample" transform="translate(-11.5 14.8967)"><path class="edge" d="M 0 0 V -14.8967 H 11.5" /><rect class="sym" height="6" width="6" x="-3" y="-3" /><text class="lab" transform="translate(0 11)">4</text></g><g class="a22 c1 node n20 p0" transform="translate(11.5 0.154652)"><g class="a20 c1 node n19 p0" transform="translate(0.0 7.77243)"><g class="a19 c2 node n13 p0" transform="translate(0.0 4.47062)"><g class="a13 leaf node n7 p0 sample" transform="translate(-7.66667 2.49899)"><path class="edge" d="M 0 0 V -2.49899 H 7.66667" /><rect class="sym" height="6" width="6" x="-3" y="-3" /><text class="lab" transform="translate(0 11)">7</text></g><g class="a13 leaf node n9 p0 sample" transform="translate(7.66667 2.49899)"><path class="edge" d="M 0 0 V -2.49899 H -7.66667" /><rect class="sym" height="6" width="6" x="-3" y="-3" /><text class="lab" transform="translate(0 11)">9</text></g><path class="edge" d="M 0 0 V -4.47062 H 0.0" /><circle class="sym" cx="0" cy="0" r="3" /><text class="lab lft" transform="translate(-3 -7.0)">13</text></g><path class="edge" d="M 0 0 V -7.77243 H 0.0" /><circle class="sym" cx="0" cy="0" r="3" /><text class="lab lft" transform="translate(-3 -7.0)">19</text></g><path class="edge" d="M 0 0 V -0.154652 H -11.5" /><circle class="sym" cx="0" cy="0" r="3" /><text class="lab rgt" transform="translate(3 -7.0)">20</text></g><path class="edge" d="M 0 0 V -2.27221 H -29.7083" /><circle class="sym" cx="0" cy="0" r="3" /><text class="lab rgt" transform="translate(3 -7.0)">22</text></g><path class="edge" d="M 0 0 V -22.7991 H 0.0" /><circle class="sym" cx="0" cy="0" r="3" /><text class="lab lft" transform="translate(-3 -7.0)">23</text></g><path class="edge" d="M 0 0 V -25.945 H 0.0" /><circle class="sym" cx="0" cy="0" r="3" /><text class="lab lft" transform="translate(-3 -7.0)">29</text></g><path class="edge" d="M 0 0 V -14.8665 H 0.0" /><circle class="sym" cx="0" cy="0" r="3" /><text class="lab lft" transform="translate(-3 -7.0)">32</text></g><path class="edge" d="M 0 0 V -13.8205 H 35.9375" /><circle class="sym" cx="0" cy="0" r="3" /><text class="lab lft" transform="translate(-3 -7.0)">34</text></g><g class="a36 c1 node n35 p0" transform="translate(35.9375 7.62686)"><g class="a35 c2 node n14 p0" transform="translate(0.0 82.9098)"><g class="a14 leaf node n2 p0 sample" transform="translate(-7.66667 4.06335)"><path class="edge" d="M 0 0 V -4.06335 H 7.66667" /><rect class="sym" height="6" width="6" x="-3" y="-3" /><text class="lab" transform="translate(0 11)">2</text></g><g class="a14 leaf node n5 p0 sample" transform="translate(7.66667 4.06335)"><path class="edge" d="M 0 0 V -4.06335 H -7.66667" /><rect class="sym" height="6" width="6" x="-3" y="-3" /><text class="lab" transform="translate(0 11)">5</text></g><path class="edge" d="M 0 0 V -82.9098 H 0.0" /><circle class="sym" cx="0" cy="0" r="3" /><text class="lab lft" transform="translate(-3 -7.0)">14</text></g><path class="edge" d="M 0 0 V -7.62686 H -35.9375" /><circle class="sym" cx="0" cy="0" r="3" /><text class="lab rgt" transform="translate(3 -7.0)">35</text></g><circle class="sym" cx="0" cy="0" r="3" /><text class="lab" transform="translate(0 -11)">36</text></g></g></g><g class="tree t5" transform="translate(986.667 0)"><g class="plotbox"><g class="c2 node n36 p0 root" transform="translate(130.927 26.8)"><g class="a36 c2 node n34 p0" transform="translate(-27.0729 13.8205)"><g class="a34 c1 node n32 p0" transform="translate(-23.4792 14.8665)"><g class="a32 c1 node n29 p0" transform="translate(0.0 25.945)"><g class="a29 c2 node n23 p0" transform="translate(0.0 22.7991)"><g class="a23 c2 node n17 p0" transform="translate(-23.9583 10.544)"><g class="a17 c2 node n15 p0" transform="translate(21.0833 1.9238)"><g class="a15 leaf node n3 p0 sample" transform="translate(11.5 4.7011)"><path class="edge" d="M 0 0 V -4.7011 H -11.5" /><rect class="sym" height="6" width="6" x="-3" y="-3" /><text class="lab" transform="translate(0 11)">3</text></g><g class="a15 c1 node n12 p0" transform="translate(-11.5 2.31494)"><g class="a12 c2 node n10 p0" transform="translate(0.0 2.33035)"><g class="a10 leaf node n1 p0 sample" transform="translate(-7.66667 0.0558105)"><path class="edge" d="M 0 0 V -0.0558105 H 7.66667" /><rect class="sym" height="6" width="6" x="-3" y="-3" /><text class="lab" transform="translate(0 11)">1</text></g><g class="a10 leaf node n8 p0 sample" transform="translate(7.66667 0.0558105)"><path class="edge" d="M 0 0 V -0.0558105 H -7.66667" /><rect class="sym" height="6" width="6" x="-3" y="-3" /><text class="lab" transform="translate(0 11)">8</text></g><path class="edge" d="M 0 0 V -2.33035 H 0.0" /><circle class="sym" cx="0" cy="0" r="3" /><text class="lab lft" transform="translate(-3 -7.0)">10</text></g><path class="edge" d="M 0 0 V -2.31494 H 11.5" /><circle class="sym" cx="0" cy="0" r="3" /><text class="lab lft" transform="translate(-3 -7.0)">12</text></g><path class="edge" d="M 0 0 V -1.9238 H -21.0833" /><circle class="sym" cx="0" cy="0" r="3" /><text class="lab rgt" transform="translate(3 -7.0)">15</text></g><g class="a17 c2 node n16 p0" transform="translate(-21.0833 0.370344)"><g class="a16 leaf node n0 p0 sample" transform="translate(-7.66667 6.25456)"><path class="edge" d="M 0 0 V -6.25456 H 7.66667" /><rect class="sym" height="6" width="6" x="-3" y="-3" /><text class="lab" transform="translate(0 11)">0</text></g><g class="a16 leaf node n6 p0 sample" transform="translate(7.66667 6.25456)"><path class="edge" d="M 0 0 V -6.25456 H -7.66667" /><rect class="sym" height="6" width="6" x="-3" y="-3" /><text class="lab" transform="translate(0 11)">6</text></g><path class="edge" d="M 0 0 V -0.370344 H 21.0833" /><circle class="sym" cx="0" cy="0" r="3" /><text class="lab lft" transform="translate(-3 -7.0)">16</text></g><path class="edge" d="M 0 0 V -10.544 H 23.9583" /><circle class="sym" cx="0" cy="0" r="3" /><text class="lab lft" transform="translate(-3 -7.0)">17</text></g><g class="a23 c1 node n22 p0" transform="translate(23.9583 2.27221)"><g class="a22 leaf node n4 p0 sample" transform="translate(0.0 14.8967)"><path class="edge" d="M 0 0 V -14.8967 H 0.0" /><rect class="sym" height="6" width="6" x="-3" y="-3" /><text class="lab" transform="translate(0 11)">4</text></g><path class="edge" d="M 0 0 V -2.27221 H -23.9583" /><circle class="sym" cx="0" cy="0" r="3" /><text class="lab rgt" transform="translate(3 -7.0)">22</text></g><path class="edge" d="M 0 0 V -22.7991 H 0.0" /><circle class="sym" cx="0" cy="0" r="3" /><text class="lab lft" transform="translate(-3 -7.0)">23</text></g><path class="edge" d="M 0 0 V -25.945 H 0.0" /><circle class="sym" cx="0" cy="0" r="3" /><text class="lab lft" transform="translate(-3 -7.0)">29</text></g><path class="edge" d="M 0 0 V -14.8665 H 23.4792" /><circle class="sym" cx="0" cy="0" r="3" /><text class="lab lft" transform="translate(-3 -7.0)">32</text></g><g class="a34 c1 node n33 p0" transform="translate(23.4792 8.28204)"><g class="a33 c1 node n30 p0" transform="translate(0.0 14.0333)"><g class="a30 c1 node n28 p0" transform="translate(0.0 23.5344)"><g class="a28 c1 node n26 p0" transform="translate(0.0 14.6515)"><g class="a26 c1 node n21 p0" transform="translate(0.0 5.53628)"><g class="a21 c1 node n19 p0" transform="translate(0.0 7.77243)"><g class="a19 c2 node n13 p0" transform="translate(0.0 4.47062)"><g class="a13 leaf node n7 p0 sample" transform="translate(-7.66667 2.49899)"><path class="edge" d="M 0 0 V -2.49899 H 7.66667" /><rect class="sym" height="6" width="6" x="-3" y="-3" /><text class="lab" transform="translate(0 11)">7</text></g><g class="a13 leaf node n9 p0 sample" transform="translate(7.66667 2.49899)"><path class="edge" d="M 0 0 V -2.49899 H -7.66667" /><rect class="sym" height="6" width="6" x="-3" y="-3" /><text class="lab" transform="translate(0 11)">9</text></g><path class="edge" d="M 0 0 V -4.47062 H 0.0" /><circle class="sym" cx="0" cy="0" r="3" /><text class="lab lft" transform="translate(-3 -7.0)">13</text></g><path class="edge" d="M 0 0 V -7.77243 H 0.0" /><circle class="sym" cx="0" cy="0" r="3" /><text class="lab lft" transform="translate(-3 -7.0)">19</text></g><path class="edge" d="M 0 0 V -5.53628 H 0.0" /><circle class="sym" cx="0" cy="0" r="3" /><text class="lab lft" transform="translate(-3 -7.0)">21</text></g><path class="edge" d="M 0 0 V -14.6515 H 0.0" /><circle class="sym" cx="0" cy="0" r="3" /><text class="lab lft" transform="translate(-3 -7.0)">26</text></g><path class="edge" d="M 0 0 V -23.5344 H 0.0" /><circle class="sym" cx="0" cy="0" r="3" /><text class="lab lft" transform="translate(-3 -7.0)">28</text></g><path class="edge" d="M 0 0 V -14.0333 H 0.0" /><circle class="sym" cx="0" cy="0" r="3" /><text class="lab lft" transform="translate(-3 -7.0)">30</text></g><path class="edge" d="M 0 0 V -8.28204 H -23.4792" /><circle class="sym" cx="0" cy="0" r="3" /><text class="lab rgt" transform="translate(3 -7.0)">33</text></g><path class="edge" d="M 0 0 V -13.8205 H 27.0729" /><circle class="sym" cx="0" cy="0" r="3" /><text class="lab lft" transform="translate(-3 -7.0)">34</text></g><g class="a36 c1 node n35 p0" transform="translate(27.0729 7.62686)"><g class="a35 c2 node n14 p0" transform="translate(0.0 82.9098)"><g class="a14 leaf node n2 p0 sample" transform="translate(-7.66667 4.06335)"><path class="edge" d="M 0 0 V -4.06335 H 7.66667" /><rect class="sym" height="6" width="6" x="-3" y="-3" /><text class="lab" transform="translate(0 11)">2</text></g><g class="a14 leaf node n5 p0 sample" transform="translate(7.66667 4.06335)"><path class="edge" d="M 0 0 V -4.06335 H -7.66667" /><rect class="sym" height="6" width="6" x="-3" y="-3" /><text class="lab" transform="translate(0 11)">5</text></g><path class="edge" d="M 0 0 V -82.9098 H 0.0" /><circle class="sym" cx="0" cy="0" r="3" /><text class="lab lft" transform="translate(-3 -7.0)">14</text></g><path class="edge" d="M 0 0 V -7.62686 H -27.0729" /><circle class="sym" cx="0" cy="0" r="3" /><text class="lab rgt" transform="translate(3 -7.0)">35</text></g><circle class="sym" cx="0" cy="0" r="3" /><text class="lab" transform="translate(0 -11)">36</text></g></g></g></g></g></svg>
