<svg baseProfile="full" height="200" version="1.1" width="800" xmlns="http://www.w3.org/2000/svg" xmlns:ev="http://www.w3.org/2001/xml-events" xmlns:xlink="http://www.w3.org/1999/xlink"><defs><style type="text/css"><![CDATA[.background path {fill: #808080; fill-opacity: 0}.background path:nth-child(odd) {fill-opacity: .1}.axes {font-size: 14px}.x-axis .tick .lab {font-weight: bold; dominant-baseline: hanging}.axes, .tree {font-size: 14px; text-anchor: middle}.axes line, .edge {stroke: black; fill: none}.y-axis .grid {stroke: #FAFAFA}.node > .sym {fill: black; stroke: none}.site > .sym {stroke: black}.mut text {fill: red; font-style: italic}.mut.extra text {fill: hotpink}.mut line {fill: none; stroke: none}.mut .sym {fill: none; stroke: red}.mut.extra .sym {stroke: hotpink}.node .mut .sym {stroke-width: 1.5px}.tree text, .tree-sequence text {dominant-baseline: central}.plotbox .lab.lft {text-anchor: end}.plotbox .lab.rgt {text-anchor: start}]]></style></defs><g class="tree-sequence"><g class="background"><path d="M20,0 l190,0 l0,138.2 l-94.3937,25 l0,5 l-95.6063,0 l0,-5 l0,-25 l0,-138.2z" /><path d="M210,0 l190,0 l0,138.2 l-228.403,25 l0,5 l-55.9909,0 l0,-5 l94.3937,-25 l0,-138.2z" /><path d="M400,0 l190,0 l0,138.2 l146.126,25 l0,5 l-564.529,0 l0,-5 l228.403,-25 l0,-138.2z" /><path d="M590,0 l190,0 l0,138.2 l0,25 l0,5 l-43.8736,0 l0,-5 l-146.126,-25 l0,-138.2z" /></g><g class="axes"><g class="x-axis"><g transform="translate(400 200)"><text class="lab" text-anchor="middle" transform="translate(0 -11)">Genome position</text></g><line x1="20" x2="780" y1="163.2" y2="163.2" /><g class="ticks"><g class="tick" transform="translate(20 163.2)"><line x1="0" x2="0" y1="0" y2="5" /><g transform="translate(0 6)"><text class="lab">0.00</text></g></g><g class="tick" transform="translate(115.606 163.2)"><line x1="0" x2="0" y1="0" y2="5" /><g transform="translate(0 6)"><text class="lab">125.80</text></g></g><g class="tick" transform="translate(171.597 163.2)"><line x1="0" x2="0" y1="0" y2="5" /><g transform="translate(0 6)"><text class="lab">199.47</text></g></g><g class="tick" transform="translate(736.126 163.2)"><line x1="0" x2="0" y1="0" y2="5" /><g transform="translate(0 6)"><text class="lab">942.27</text></g></g><g class="tick" transform="translate(780 163.2)"><line x1="0" x2="0" y1="0" y2="5" /><g transform="translate(0 6)"><text class="lab">1000.00</text></g></g></g></g></g><g class="plotbox trees"><g class="tree t0" transform="translate(20 0)"><g class="plotbox"><g class="c2 node n27 p0 root" transform="translate(101.094 26.8)"><g class="a27 c2 node n24 p0" transform="translate(-38.9062 62.235)"><g class="a24 c2 node n17 p0" transform="translate(-27.1875 25.0311)"><g class="a17 c1 node n11 p0" transform="translate(-7.5 5.76828)"><g class="a11 leaf node n0 p0 sample" transform="translate(0.0 1.56561)"><path class="edge" d="M 0 0 V -1.56561 H 0.0" /><rect class="sym" height="6" width="6" x="-3" y="-3" /><text class="lab" transform="translate(0 11)">0</text></g><path class="edge" d="M 0 0 V -5.76828 H 7.5" /><circle class="sym" cx="0" cy="0" r="3" /><text class="lab lft" transform="translate(-3 -7.0)">11</text></g><g class="a17 c1 node n13 p0" transform="translate(7.5 2.4344)"><g class="a13 leaf node n8 p0 sample" transform="translate(0.0 4.8995)"><path class="edge" d="M 0 0 V -4.8995 H 0.0" /><rect class="sym" height="6" width="6" x="-3" y="-3" /><text class="lab" transform="translate(0 11)">8</text></g><path class="edge" d="M 0 0 V -2.4344 H -7.5" /><circle class="sym" cx="0" cy="0" r="3" /><text class="lab rgt" transform="translate(3 -7.0)">13</text></g><path class="edge" d="M 0 0 V -25.0311 H 27.1875" /><circle class="sym" cx="0" cy="0" r="3" /><text class="lab lft" transform="translate(-3 -7.0)">17</text></g><g class="a24 c2 node n21 p0" transform="translate(27.1875 14.5218)"><g class="a21 c2 node n16 p0" transform="translate(-13.125 12.0456)"><g class="a16 leaf node n6 p0 sample" transform="translate(11.25 5.79752)"><path class="edge" d="M 0 0 V -5.79752 H -11.25" /><rect class="sym" height="6" width="6" x="-3" y="-3" /><text class="lab" transform="translate(0 11)">6</text></g><g class="a16 c2 node n10 p0" transform="translate(-11.25 4.41269)"><g class="a10 leaf node n1 p0 sample" transform="translate(-7.5 1.38483)"><path class="edge" d="M 0 0 V -1.38483 H 7.5" /><rect class="sym" height="6" width="6" x="-3" y="-3" /><text class="lab" transform="translate(0 11)">1</text></g><g class="a10 leaf node n3 p0 sample" transform="translate(7.5 1.38483)"><path class="edge" d="M 0 0 V -1.38483 H -7.5" /><rect class="sym" height="6" width="6" x="-3" y="-3" /><text class="lab" transform="translate(0 11)">3</text></g><path class="edge" d="M 0 0 V -4.41269 H 11.25" /><circle class="sym" cx="0" cy="0" r="3" /><text class="lab lft" transform="translate(-3 -7.0)">10</text></g><path class="edge" d="M 0 0 V -12.0456 H 13.125" /><circle class="sym" cx="0" cy="0" r="3" /><text class="lab lft" transform="translate(-3 -7.0)">16</text></g><g class="a21 c1 node n19 p0" transform="translate(13.125 4.35801)"><g class="a19 leaf node n9 p0 sample" transform="translate(0.0 13.4851)"><path class="edge" d="M 0 0 V -13.4851 H 0.0" /><rect class="sym" height="6" width="6" x="-3" y="-3" /><text class="lab" transform="translate(0 11)">9</text></g><path class="edge" d="M 0 0 V -4.35801 H -13.125" /><circle class="sym" cx="0" cy="0" r="3" /><text class="lab rgt" transform="translate(3 -7.0)">19</text></g><path class="edge" d="M 0 0 V -14.5218 H -27.1875" /><circle class="sym" cx="0" cy="0" r="3" /><text class="lab rgt" transform="translate(3 -7.0)">21</text></g><path class="edge" d="M 0 0 V -62.235 H 38.9062" /><circle class="sym" cx="0" cy="0" r="3" /><text class="lab lft" transform="translate(-3 -7.0)">24</text></g><g class="a27 c2 node n26 p0" transform="translate(38.9062 46.7316)"><g class="a26 c1 node n22 p0" transform="translate(15 23.4058)"><g class="a22 c2 node n15 p0" transform="translate(0.0 19.0383)"><g class="a15 leaf node n4 p0 sample" transform="translate(-7.5 5.42429)"><path class="edge" d="M 0 0 V -5.42429 H 7.5" /><rect class="sym" height="6" width="6" x="-3" y="-3" /><text class="lab" transform="translate(0 11)">4</text></g><g class="a15 leaf node n7 p0 sample" transform="translate(7.5 5.42429)"><path class="edge" d="M 0 0 V -5.42429 H -7.5" /><rect class="sym" height="6" width="6" x="-3" y="-3" /><text class="lab" transform="translate(0 11)">7</text></g><path class="edge" d="M 0 0 V -19.0383 H 0.0" /><circle class="sym" cx="0" cy="0" r="3" /><text class="lab lft" transform="translate(-3 -7.0)">15</text></g><path class="edge" d="M 0 0 V -23.4058 H -15" /><circle class="sym" cx="0" cy="0" r="3" /><text class="lab rgt" transform="translate(3 -7.0)">22</text></g><g class="a26 c1 node n25 p0" transform="translate(-15 0.416848)"><g class="a25 c1 node n20 p0" transform="translate(0.0 33.8999)"><g class="a20 c2 node n18 p0" transform="translate(0.0 4.72303)"><g class="a18 leaf node n2 p0 sample" transform="translate(-7.5 8.82862)"><path class="edge" d="M 0 0 V -8.82862 H 7.5" /><rect class="sym" height="6" width="6" x="-3" y="-3" /><text class="lab" transform="translate(0 11)">2</text></g><g class="a18 leaf node n5 p0 sample" transform="translate(7.5 8.82862)"><path class="edge" d="M 0 0 V -8.82862 H -7.5" /><rect class="sym" height="6" width="6" x="-3" y="-3" /><text class="lab" transform="translate(0 11)">5</text></g><path class="edge" d="M 0 0 V -4.72303 H 0.0" /><circle class="sym" cx="0" cy="0" r="3" /><text class="lab lft" transform="translate(-3 -7.0)">18</text></g><path class="edge" d="M 0 0 V -33.8999 H 0.0" /><circle class="sym" cx="0" cy="0" r="3" /><text class="lab lft" transform="translate(-3 -7.0)">20</text></g><path class="edge" d="M 0 0 V -0.416848 H 15" /><circle class="sym" cx="0" cy="0" r="3" /><text class="lab lft" transform="translate(-3 -7.0)">25</text></g><path class="edge" d="M 0 0 V -46.7316 H -38.9062" /><circle class="sym" cx="0" cy="0" r="3" /><text class="lab rgt" transform="translate(3 -7.0)">26</text></g><circle class="sym" cx="0" cy="0" r="3" /><text class="lab" transform="translate(0 -11)">27</text></g></g></g><g class="tree t1" transform="translate(210 0)"><g class="plotbox"><g class="c2 node n27 p0 root" transform="translate(96.4062 26.8)"><g class="a27 c2 node n24 p0" transform="translate(-43.5938 62.235)"><g class="a24 c1 node n17 p0" transform="translate(-25.3125 25.0311)"><g class="a17 c1 node n11 p0" transform="translate(0.0 5.76828)"><g class="a11 leaf node n0 p0 sample" transform="translate(0.0 1.56561)"><path class="edge" d="M 0 0 V -1.56561 H 0.0" /><rect class="sym" height="6" width="6" x="-3" y="-3" /><text class="lab" transform="translate(0 11)">0</text></g><path class="edge" d="M 0 0 V -5.76828 H 0.0" /><circle class="sym" cx="0" cy="0" r="3" /><text class="lab lft" transform="translate(-3 -7.0)">11</text></g><path class="edge" d="M 0 0 V -25.0311 H 25.3125" /><circle class="sym" cx="0" cy="0" r="3" /><text class="lab lft" transform="translate(-3 -7.0)">17</text></g><g class="a24 c2 node n21 p0" transform="translate(25.3125 14.5218)"><g class="a21 c2 node n16 p0" transform="translate(-16.875 12.0456)"><g class="a16 leaf node n6 p0 sample" transform="translate(11.25 5.79752)"><path class="edge" d="M 0 0 V -5.79752 H -11.25" /><rect class="sym" height="6" width="6" x="-3" y="-3" /><text class="lab" transform="translate(0 11)">6</text></g><g class="a16 c2 node n10 p0" transform="translate(-11.25 4.41269)"><g class="a10 leaf node n1 p0 sample" transform="translate(-7.5 1.38483)"><path class="edge" d="M 0 0 V -1.38483 H 7.5" /><rect class="sym" height="6" width="6" x="-3" y="-3" /><text class="lab" transform="translate(0 11)">1</text></g><g class="a10 leaf node n3 p0 sample" transform="translate(7.5 1.38483)"><path class="edge" d="M 0 0 V -1.38483 H -7.5" /><rect class="sym" height="6" width="6" x="-3" y="-3" /><text class="lab" transform="translate(0 11)">3</text></g><path class="edge" d="M 0 0 V -4.41269 H 11.25" /><circle class="sym" cx="0" cy="0" r="3" /><text class="lab lft" transform="translate(-3 -7.0)">10</text></g><path class="edge" d="M 0 0 V -12.0456 H 16.875" /><circle class="sym" cx="0" cy="0" r="3" /><text class="lab lft" transform="translate(-3 -7.0)">16</text></g><g class="a21 c2 node n19 p0" transform="translate(16.875 4.35801)"><g class="a19 leaf node n9 p0 sample" transform="translate(7.5 13.4851)"><path class="edge" d="M 0 0 V -13.4851 H -7.5" /><rect class="sym" height="6" width="6" x="-3" y="-3" /><text class="lab" transform="translate(0 11)">9</text></g><g class="a19 c1 node n14 p0" transform="translate(-7.5 8.58564)"><g class="a14 leaf node n8 p0 sample" transform="translate(0.0 4.8995)"><path class="edge" d="M 0 0 V -4.8995 H 0.0" /><rect class="sym" height="6" width="6" x="-3" y="-3" /><text class="lab" transform="translate(0 11)">8</text></g><path class="edge" d="M 0 0 V -8.58564 H 7.5" /><circle class="sym" cx="0" cy="0" r="3" /><text class="lab lft" transform="translate(-3 -7.0)">14</text></g><path class="edge" d="M 0 0 V -4.35801 H -16.875" /><circle class="sym" cx="0" cy="0" r="3" /><text class="lab rgt" transform="translate(3 -7.0)">19</text></g><path class="edge" d="M 0 0 V -14.5218 H -25.3125" /><circle class="sym" cx="0" cy="0" r="3" /><text class="lab rgt" transform="translate(3 -7.0)">21</text></g><path class="edge" d="M 0 0 V -62.235 H 43.5938" /><circle class="sym" cx="0" cy="0" r="3" /><text class="lab lft" transform="translate(-3 -7.0)">24</text></g><g class="a27 c2 node n26 p0" transform="translate(43.5938 46.7316)"><g class="a26 c1 node n22 p0" transform="translate(15 23.4058)"><g class="a22 c2 node n15 p0" transform="translate(0.0 19.0383)"><g class="a15 leaf node n4 p0 sample" transform="translate(-7.5 5.42429)"><path class="edge" d="M 0 0 V -5.42429 H 7.5" /><rect class="sym" height="6" width="6" x="-3" y="-3" /><text class="lab" transform="translate(0 11)">4</text></g><g class="a15 leaf node n7 p0 sample" transform="translate(7.5 5.42429)"><path class="edge" d="M 0 0 V -5.42429 H -7.5" /><rect class="sym" height="6" width="6" x="-3" y="-3" /><text class="lab" transform="translate(0 11)">7</text></g><path class="edge" d="M 0 0 V -19.0383 H 0.0" /><circle class="sym" cx="0" cy="0" r="3" /><text class="lab lft" transform="translate(-3 -7.0)">15</text></g><path class="edge" d="M 0 0 V -23.4058 H -15" /><circle class="sym" cx="0" cy="0" r="3" /><text class="lab rgt" transform="translate(3 -7.0)">22</text></g><g class="a26 c1 node n25 p0" transform="translate(-15 0.416848)"><g class="a25 c1 node n20 p0" transform="translate(0.0 33.8999)"><g class="a20 c2 node n18 p0" transform="translate(0.0 4.72303)"><g class="a18 leaf node n2 p0 sample" transform="translate(-7.5 8.82862)"><path class="edge" d="M 0 0 V -8.82862 H 7.5" /><rect class="sym" height="6" width="6" x="-3" y="-3" /><text class="lab" transform="translate(0 11)">2</text></g><g class="a18 leaf node n5 p0 sample" transform="translate(7.5 8.82862)"><path class="edge" d="M 0 0 V -8.82862 H -7.5" /><rect class="sym" height="6" width="6" x="-3" y="-3" /><text class="lab" transform="translate(0 11)">5</text></g><path class="edge" d="M 0 0 V -4.72303 H 0.0" /><circle class="sym" cx="0" cy="0" r="3" /><text class="lab lft" transform="translate(-3 -7.0)">18</text></g><path class="edge" d="M 0 0 V -33.8999 H 0.0" /><circle class="sym" cx="0" cy="0" r="3" /><text class="lab lft" transform="translate(-3 -7.0)">20</text></g><path class="edge" d="M 0 0 V -0.416848 H 15" /><circle class="sym" cx="0" cy="0" r="3" /><text class="lab lft" transform="translate(-3 -7.0)">25</text></g><path class="edge" d="M 0 0 V -46.7316 H -43.5938" /><circle class="sym" cx="0" cy="0" r="3" /><text class="lab rgt" transform="translate(3 -7.0)">26</text></g><circle class="sym" cx="0" cy="0" r="3" /><text class="lab" transform="translate(0 -11)">27</text></g></g></g><g class="tree t2" transform="translate(400 0)"><g class="plotbox"><g class="c2 node n27 p0 root" transform="translate(96.4062 26.8)"><g class="a27 c2 node n24 p0" transform="translate(-43.5938 62.235)"><g class="a24 c1 node n17 p0" transform="translate(-25.3125 25.0311)"><g class="a17 c1 node n11 p0" transform="translate(0.0 5.76828)"><g class="a11 leaf node n0 p0 sample" transform="translate(0.0 1.56561)"><path class="edge" d="M 0 0 V -1.56561 H 0.0" /><rect class="sym" height="6" width="6" x="-3" y="-3" /><text class="lab" transform="translate(0 11)">0</text></g><path class="edge" d="M 0 0 V -5.76828 H 0.0" /><circle class="sym" cx="0" cy="0" r="3" /><text class="lab lft" transform="translate(-3 -7.0)">11</text></g><path class="edge" d="M 0 0 V -25.0311 H 25.3125" /><circle class="sym" cx="0" cy="0" r="3" /><text class="lab lft" transform="translate(-3 -7.0)">17</text></g><g class="a24 c2 node n21 p0" transform="translate(25.3125 14.5218)"><g class="a21 c2 node n16 p0" transform="translate(-16.875 12.0456)"><g class="a16 leaf node n6 p0 sample" transform="translate(11.25 5.79752)"><path class="edge" d="M 0 0 V -5.79752 H -11.25" /><rect class="sym" height="6" width="6" x="-3" y="-3" /><text class="lab" transform="translate(0 11)">6</text></g><g class="a16 c2 node n10 p0" transform="translate(-11.25 4.41269)"><g class="a10 leaf node n1 p0 sample" transform="translate(-7.5 1.38483)"><path class="edge" d="M 0 0 V -1.38483 H 7.5" /><rect class="sym" height="6" width="6" x="-3" y="-3" /><text class="lab" transform="translate(0 11)">1</text></g><g class="a10 leaf node n3 p0 sample" transform="translate(7.5 1.38483)"><path class="edge" d="M 0 0 V -1.38483 H -7.5" /><rect class="sym" height="6" width="6" x="-3" y="-3" /><text class="lab" transform="translate(0 11)">3</text></g><path class="edge" d="M 0 0 V -4.41269 H 11.25" /><circle class="sym" cx="0" cy="0" r="3" /><text class="lab lft" transform="translate(-3 -7.0)">10</text></g><path class="edge" d="M 0 0 V -12.0456 H 16.875" /><circle class="sym" cx="0" cy="0" r="3" /><text class="lab lft" transform="translate(-3 -7.0)">16</text></g><g class="a21 c2 node n19 p0" transform="translate(16.875 4.35801)"><g class="a19 leaf node n9 p0 sample" transform="translate(7.5 13.4851)"><path class="edge" d="M 0 0 V -13.4851 H -7.5" /><rect class="sym" height="6" width="6" x="-3" y="-3" /><text class="lab" transform="translate(0 11)">9</text></g><g class="a19 c1 node n14 p0" transform="translate(-7.5 8.58564)"><g class="a14 leaf node n8 p0 sample" transform="translate(0.0 4.8995)"><path class="edge" d="M 0 0 V -4.8995 H 0.0" /><rect class="sym" height="6" width="6" x="-3" y="-3" /><text class="lab" transform="translate(0 11)">8</text></g><path class="edge" d="M 0 0 V -8.58564 H 7.5" /><circle class="sym" cx="0" cy="0" r="3" /><text class="lab lft" transform="translate(-3 -7.0)">14</text></g><path class="edge" d="M 0 0 V -4.35801 H -16.875" /><circle class="sym" cx="0" cy="0" r="3" /><text class="lab rgt" transform="translate(3 -7.0)">19</text></g><path class="edge" d="M 0 0 V -14.5218 H -25.3125" /><circle class="sym" cx="0" cy="0" r="3" /><text class="lab rgt" transform="translate(3 -7.0)">21</text></g><path class="edge" d="M 0 0 V -62.235 H 43.5938" /><circle class="sym" cx="0" cy="0" r="3" /><text class="lab lft" transform="translate(-3 -7.0)">24</text></g><g class="a27 c1 node n26 p0" transform="translate(43.5938 46.7316)"><g class="a26 c2 node n25 p0" transform="translate(0.0 0.416848)"><g class="a25 c1 node n20 p0" transform="translate(-15 33.8999)"><g class="a20 c2 node n18 p0" transform="translate(0.0 4.72303)"><g class="a18 leaf node n2 p0 sample" transform="translate(-7.5 8.82862)"><path class="edge" d="M 0 0 V -8.82862 H 7.5" /><rect class="sym" height="6" width="6" x="-3" y="-3" /><text class="lab" transform="translate(0 11)">2</text></g><g class="a18 leaf node n5 p0 sample" transform="translate(7.5 8.82862)"><path class="edge" d="M 0 0 V -8.82862 H -7.5" /><rect class="sym" height="6" width="6" x="-3" y="-3" /><text class="lab" transform="translate(0 11)">5</text></g><path class="edge" d="M 0 0 V -4.72303 H 0.0" /><circle class="sym" cx="0" cy="0" r="3" /><text class="lab lft" transform="translate(-3 -7.0)">18</text></g><path class="edge" d="M 0 0 V -33.8999 H 15" /><circle class="sym" cx="0" cy="0" r="3" /><text class="lab lft" transform="translate(-3 -7.0)">20</text></g><g class="a25 c1 node n23 p0" transform="translate(15 22.989)"><g class="a23 c2 node n15 p0" transform="translate(0.0 19.0383)"><g class="a15 leaf node n4 p0 sample" transform="translate(-7.5 5.42429)"><path class="edge" d="M 0 0 V -5.42429 H 7.5" /><rect class="sym" height="6" width="6" x="-3" y="-3" /><text class="lab" transform="translate(0 11)">4</text></g><g class="a15 leaf node n7 p0 sample" transform="translate(7.5 5.42429)"><path class="edge" d="M 0 0 V -5.42429 H -7.5" /><rect class="sym" height="6" width="6" x="-3" y="-3" /><text class="lab" transform="translate(0 11)">7</text></g><path class="edge" d="M 0 0 V -19.0383 H 0.0" /><circle class="sym" cx="0" cy="0" r="3" /><text class="lab lft" transform="translate(-3 -7.0)">15</text></g><path class="edge" d="M 0 0 V -22.989 H -15" /><circle class="sym" cx="0" cy="0" r="3" /><text class="lab rgt" transform="translate(3 -7.0)">23</text></g><path class="edge" d="M 0 0 V -0.416848 H 0.0" /><circle class="sym" cx="0" cy="0" r="3" /><text class="lab lft" transform="translate(-3 -7.0)">25</text></g><path class="edge" d="M 0 0 V -46.7316 H -43.5938" /><circle class="sym" cx="0" cy="0" r="3" /><text class="lab rgt" transform="translate(3 -7.0)">26</text></g><circle class="sym" cx="0" cy="0" r="3" /><text class="lab" transform="translate(0 -11)">27</text></g></g></g><g class="tree t3" transform="translate(590 0)"><g class="plotbox"><g class="c2 node n27 p0 root" transform="translate(98.75 26.8)"><g class="a27 c1 node n24 p0" transform="translate(39.375 62.235)"><g class="a24 c2 node n21 p0" transform="translate(0.0 14.5218)"><g class="a21 c2 node n16 p0" transform="translate(-16.875 12.0456)"><g class="a16 leaf node n6 p0 sample" transform="translate(11.25 5.79752)"><path class="edge" d="M 0 0 V -5.79752 H -11.25" /><rect class="sym" height="6" width="6" x="-3" y="-3" /><text class="lab" transform="translate(0 11)">6</text></g><g class="a16 c2 node n10 p0" transform="translate(-11.25 4.41269)"><g class="a10 leaf node n1 p0 sample" transform="translate(-7.5 1.38483)"><path class="edge" d="M 0 0 V -1.38483 H 7.5" /><rect class="sym" height="6" width="6" x="-3" y="-3" /><text class="lab" transform="translate(0 11)">1</text></g><g class="a10 leaf node n3 p0 sample" transform="translate(7.5 1.38483)"><path class="edge" d="M 0 0 V -1.38483 H -7.5" /><rect class="sym" height="6" width="6" x="-3" y="-3" /><text class="lab" transform="translate(0 11)">3</text></g><path class="edge" d="M 0 0 V -4.41269 H 11.25" /><circle class="sym" cx="0" cy="0" r="3" /><text class="lab lft" transform="translate(-3 -7.0)">10</text></g><path class="edge" d="M 0 0 V -12.0456 H 16.875" /><circle class="sym" cx="0" cy="0" r="3" /><text class="lab lft" transform="translate(-3 -7.0)">16</text></g><g class="a21 c2 node n19 p0" transform="translate(16.875 4.35801)"><g class="a19 leaf node n9 p0 sample" transform="translate(7.5 13.4851)"><path class="edge" d="M 0 0 V -13.4851 H -7.5" /><rect class="sym" height="6" width="6" x="-3" y="-3" /><text class="lab" transform="translate(0 11)">9</text></g><g class="a19 c1 node n14 p0" transform="translate(-7.5 8.58564)"><g class="a14 leaf node n8 p0 sample" transform="translate(0.0 4.8995)"><path class="edge" d="M 0 0 V -4.8995 H 0.0" /><rect class="sym" height="6" width="6" x="-3" y="-3" /><text class="lab" transform="translate(0 11)">8</text></g><path class="edge" d="M 0 0 V -8.58564 H 7.5" /><circle class="sym" cx="0" cy="0" r="3" /><text class="lab lft" transform="translate(-3 -7.0)">14</text></g><path class="edge" d="M 0 0 V -4.35801 H -16.875" /><circle class="sym" cx="0" cy="0" r="3" /><text class="lab rgt" transform="translate(3 -7.0)">19</text></g><path class="edge" d="M 0 0 V -14.5218 H 0.0" /><circle class="sym" cx="0" cy="0" r="3" /><text class="lab lft" transform="translate(-3 -7.0)">21</text></g><path class="edge" d="M 0 0 V -62.235 H -39.375" /><circle class="sym" cx="0" cy="0" r="3" /><text class="lab rgt" transform="translate(3 -7.0)">24</text></g><g class="a27 c1 node n26 p0" transform="translate(-39.375 46.7316)"><g class="a26 c2 node n25 p0" transform="translate(0.0 0.416848)"><g class="a25 c2 node n20 p0" transform="translate(-20.625 33.8999)"><g class="a20 c2 node n18 p0" transform="translate(11.25 4.72303)"><g class="a18 leaf node n2 p0 sample" transform="translate(-7.5 8.82862)"><path class="edge" d="M 0 0 V -8.82862 H 7.5" /><rect class="sym" height="6" width="6" x="-3" y="-3" /><text class="lab" transform="translate(0 11)">2</text></g><g class="a18 leaf node n5 p0 sample" transform="translate(7.5 8.82862)"><path class="edge" d="M 0 0 V -8.82862 H -7.5" /><rect class="sym" height="6" width="6" x="-3" y="-3" /><text class="lab" transform="translate(0 11)">5</text></g><path class="edge" d="M 0 0 V -4.72303 H -11.25" /><circle class="sym" cx="0" cy="0" r="3" /><text class="lab rgt" transform="translate(3 -7.0)">18</text></g><g class="a20 c1 node n12 p0" transform="translate(-11.25 11.986)"><g class="a12 leaf node n0 p0 sample" transform="translate(0.0 1.56561)"><path class="edge" d="M 0 0 V -1.56561 H 0.0" /><rect class="sym" height="6" width="6" x="-3" y="-3" /><text class="lab" transform="translate(0 11)">0</text></g><path class="edge" d="M 0 0 V -11.986 H 11.25" /><circle class="sym" cx="0" cy="0" r="3" /><text class="lab lft" transform="translate(-3 -7.0)">12</text></g><path class="edge" d="M 0 0 V -33.8999 H 20.625" /><circle class="sym" cx="0" cy="0" r="3" /><text class="lab lft" transform="translate(-3 -7.0)">20</text></g><g class="a25 c1 node n23 p0" transform="translate(20.625 22.989)"><g class="a23 c2 node n15 p0" transform="translate(0.0 19.0383)"><g class="a15 leaf node n4 p0 sample" transform="translate(-7.5 5.42429)"><path class="edge" d="M 0 0 V -5.42429 H 7.5" /><rect class="sym" height="6" width="6" x="-3" y="-3" /><text class="lab" transform="translate(0 11)">4</text></g><g class="a15 leaf node n7 p0 sample" transform="translate(7.5 5.42429)"><path class="edge" d="M 0 0 V -5.42429 H -7.5" /><rect class="sym" height="6" width="6" x="-3" y="-3" /><text class="lab" transform="translate(0 11)">7</text></g><path class="edge" d="M 0 0 V -19.0383 H 0.0" /><circle class="sym" cx="0" cy="0" r="3" /><text class="lab lft" transform="translate(-3 -7.0)">15</text></g><path class="edge" d="M 0 0 V -22.989 H -20.625" /><circle class="sym" cx="0" cy="0" r="3" /><text class="lab rgt" transform="translate(3 -7.0)">23</text></g><path class="edge" d="M 0 0 V -0.416848 H 0.0" /><circle class="sym" cx="0" cy="0" r="3" /><text class="lab lft" transform="translate(-3 -7.0)">25</text></g><path class="edge" d="M 0 0 V -46.7316 H 39.375" /><circle class="sym" cx="0" cy="0" r="3" /><text class="lab lft" transform="translate(-3 -7.0)">26</text></g><circle class="sym" cx="0" cy="0" r="3" /><text class="lab" transform="translate(0 -11)">27</text></g></g></g></g></g></svg>
