<svg baseProfile="full" height="200" version="1.1" width="800" xmlns="http://www.w3.org/2000/svg" xmlns:ev="http://www.w3.org/2001/xml-events" xmlns:xlink="http://www.w3.org/1999/xlink"><defs><style type="text/css"><![CDATA[.background path {fill: #808080; fill-opacity: 0}.background path:nth-child(odd) {fill-opacity: .1}.axes {font-size: 14px}.x-axis .tick .lab {font-weight: bold; dominant-baseline: hanging}.axes, .tree {font-size: 14px; text-anchor: middle}.axes line, .edge {stroke: black; fill: none}.y-axis .grid {stroke: #FAFAFA}.node > .sym {fill: black; stroke: none}.site > .sym {stroke: black}.mut text {fill: red; font-style: italic}.mut.extra text {fill: hotpink}.mut line {fill: none; stroke: none}.mut .sym {fill: none; stroke: red}.mut.extra .sym {stroke: hotpink}.node .mut .sym {stroke-width: 1.5px}.tree text, .tree-sequence text {dominant-baseline: central}.plotbox .lab.lft {text-anchor: end}.plotbox .lab.rgt {text-anchor: start}]]></style></defs><g class="tree-sequence"><g class="background"><path d="M20,0 l190,0 l0,138.2 l114.727,25 l0,5 l-304.727,0 l0,-5 l0,-25 l0,-138.2z" /><path d="M210,0 l190,0 l0,138.2 l162.648,25 l0,5 l-237.921,0 l0,-5 l-114.727,-25 l0,-138.2z" /><path d="M400,0 l190,0 l0,138.2 l-1.02249,25 l0,5 l-26.3293,0 l0,-5 l-162.648,-25 l0,-138.2z" /><path d="M590,0 l190,0 l0,138.2 l0,25 l0,5 l-191.022,0 l0,-5 l1.02249,-25 l0,-138.2z" /></g><g class="axes"><g class="x-axis"><g transform="translate(400 200)"><text class="lab" text-anchor="middle" transform="translate(0 -11)">Genome position</text></g><line x1="20" x2="780" y1="163.2" y2="163.2" /><g class="ticks"><g class="tick" transform="translate(20 163.2)"><line x1="0" x2="0" y1="0" y2="5" /><g transform="translate(0 6)"><text class="lab">0.00</text></g></g><g class="tick" transform="translate(324.727 163.2)"><line x1="0" x2="0" y1="0" y2="5" /><g transform="translate(0 6)"><text class="lab">400.96</text></g></g><g class="tick" transform="translate(562.648 163.2)"><line x1="0" x2="0" y1="0" y2="5" /><g transform="translate(0 6)"><text class="lab">714.01</text></g></g><g class="tick" transform="translate(588.978 163.2)"><line x1="0" x2="0" y1="0" y2="5" /><g transform="translate(0 6)"><text class="lab">748.65</text></g></g><g class="tick" transform="translate(780 163.2)"><line x1="0" x2="0" y1="0" y2="5" /><g transform="translate(0 6)"><text class="lab">1000.00</text></g></g></g></g></g><g class="plotbox trees"><g class="tree t0" transform="translate(20 0)"><g class="plotbox"><g class="c2 node n27 p0 root" transform="translate(140 26.8)"><g class="a27 c1 node n25 p0" transform="translate(22.5 66.9892)"><g class="a25 c1 node n24 p0" transform="translate(0.0 0.601985)"><g class="a24 leaf node n5 p0 sample" transform="translate(0.0 27.0088)"><path class="edge" d="M 0 0 V -27.0088 H 0.0" /><rect class="sym" height="6" width="6" x="-3" y="-3" /><text class="lab" transform="translate(0 11)">5</text></g><path class="edge" d="M 0 0 V -0.601985 H 0.0" /><circle class="sym" cx="0" cy="0" r="3" /><text class="lab lft" transform="translate(-3 -7.0)">24</text></g><path class="edge" d="M 0 0 V -66.9892 H -22.5" /><circle class="sym" cx="0" cy="0" r="3" /><text class="lab rgt" transform="translate(3 -7.0)">25</text></g><g class="a27 c2 node n26 p0" transform="translate(-22.5 65.0061)"><g class="a26 c2 node n21 p0" transform="translate(-30 2.74378)"><g class="a21 c2 node n16 p0" transform="translate(-31.875 16.8323)"><g class="a16 leaf node n8 p0 sample" transform="translate(16.875 10.0179)"><path class="edge" d="M 0 0 V -10.0179 H -16.875" /><rect class="sym" height="6" width="6" x="-3" y="-3" /><text class="lab" transform="translate(0 11)">8</text></g><g class="a16 c2 node n14 p0" transform="translate(-16.875 6.60717)"><g class="a14 leaf node n0 p0 sample" transform="translate(-11.25 3.41072)"><path class="edge" d="M 0 0 V -3.41072 H 11.25" /><rect class="sym" height="6" width="6" x="-3" y="-3" /><text class="lab" transform="translate(0 11)">0</text></g><g class="a14 c2 node n10 p0" transform="translate(11.25 2.48524)"><g class="a10 leaf node n3 p0 sample" transform="translate(-7.5 0.92548)"><path class="edge" d="M 0 0 V -0.92548 H 7.5" /><rect class="sym" height="6" width="6" x="-3" y="-3" /><text class="lab" transform="translate(0 11)">3</text></g><g class="a10 leaf node n4 p0 sample" transform="translate(7.5 0.92548)"><path class="edge" d="M 0 0 V -0.92548 H -7.5" /><rect class="sym" height="6" width="6" x="-3" y="-3" /><text class="lab" transform="translate(0 11)">4</text></g><path class="edge" d="M 0 0 V -2.48524 H -11.25" /><circle class="sym" cx="0" cy="0" r="3" /><text class="lab rgt" transform="translate(3 -7.0)">10</text></g><path class="edge" d="M 0 0 V -6.60717 H 16.875" /><circle class="sym" cx="0" cy="0" r="3" /><text class="lab lft" transform="translate(-3 -7.0)">14</text></g><path class="edge" d="M 0 0 V -16.8323 H 31.875" /><circle class="sym" cx="0" cy="0" r="3" /><text class="lab lft" transform="translate(-3 -7.0)">16</text></g><g class="a21 c2 node n20 p0" transform="translate(31.875 5.51692)"><g class="a20 c1 node n12 p0" transform="translate(13.125 18.2988)"><g class="a12 leaf node n7 p0 sample" transform="translate(0.0 3.03441)"><path class="edge" d="M 0 0 V -3.03441 H 0.0" /><rect class="sym" height="6" width="6" x="-3" y="-3" /><text class="lab" transform="translate(0 11)">7</text></g><path class="edge" d="M 0 0 V -18.2988 H -13.125" /><circle class="sym" cx="0" cy="0" r="3" /><text class="lab rgt" transform="translate(3 -7.0)">12</text></g><g class="a20 c1 node n17 p0" transform="translate(-13.125 10.3655)"><g class="a17 c2 node n15 p0" transform="translate(0.0 4.1235)"><g class="a15 leaf node n2 p0 sample" transform="translate(11.25 6.84426)"><path class="edge" d="M 0 0 V -6.84426 H -11.25" /><rect class="sym" height="6" width="6" x="-3" y="-3" /><text class="lab" transform="translate(0 11)">2</text></g><g class="a15 c2 node n11 p0" transform="translate(-11.25 5.77777)"><g class="a11 leaf node n1 p0 sample" transform="translate(-7.5 1.06649)"><path class="edge" d="M 0 0 V -1.06649 H 7.5" /><rect class="sym" height="6" width="6" x="-3" y="-3" /><text class="lab" transform="translate(0 11)">1</text></g><g class="a11 leaf node n9 p0 sample" transform="translate(7.5 1.06649)"><path class="edge" d="M 0 0 V -1.06649 H -7.5" /><rect class="sym" height="6" width="6" x="-3" y="-3" /><text class="lab" transform="translate(0 11)">9</text></g><path class="edge" d="M 0 0 V -5.77777 H 11.25" /><circle class="sym" cx="0" cy="0" r="3" /><text class="lab lft" transform="translate(-3 -7.0)">11</text></g><path class="edge" d="M 0 0 V -4.1235 H 0.0" /><circle class="sym" cx="0" cy="0" r="3" /><text class="lab lft" transform="translate(-3 -7.0)">15</text></g><path class="edge" d="M 0 0 V -10.3655 H 13.125" /><circle class="sym" cx="0" cy="0" r="3" /><text class="lab lft" transform="translate(-3 -7.0)">17</text></g><path class="edge" d="M 0 0 V -5.51692 H -31.875" /><circle class="sym" cx="0" cy="0" r="3" /><text class="lab rgt" transform="translate(3 -7.0)">20</text></g><path class="edge" d="M 0 0 V -2.74378 H 30" /><circle class="sym" cx="0" cy="0" r="3" /><text class="lab lft" transform="translate(-3 -7.0)">21</text></g><g class="a26 c1 node n22 p0" transform="translate(30 2.60272)"><g class="a22 c1 node n19 p0" transform="translate(0.0 11.7419)"><g class="a19 leaf node n6 p0 sample" transform="translate(0.0 15.2494)"><path class="edge" d="M 0 0 V -15.2494 H 0.0" /><rect class="sym" height="6" width="6" x="-3" y="-3" /><text class="lab" transform="translate(0 11)">6</text></g><path class="edge" d="M 0 0 V -11.7419 H 0.0" /><circle class="sym" cx="0" cy="0" r="3" /><text class="lab lft" transform="translate(-3 -7.0)">19</text></g><path class="edge" d="M 0 0 V -2.60272 H -30" /><circle class="sym" cx="0" cy="0" r="3" /><text class="lab rgt" transform="translate(3 -7.0)">22</text></g><path class="edge" d="M 0 0 V -65.0061 H 22.5" /><circle class="sym" cx="0" cy="0" r="3" /><text class="lab lft" transform="translate(-3 -7.0)">26</text></g><circle class="sym" cx="0" cy="0" r="3" /><text class="lab" transform="translate(0 -11)">27</text></g></g></g><g class="tree t1" transform="translate(210 0)"><g class="plotbox"><g class="c2 node n27 p0 root" transform="translate(121.25 26.8)"><g class="a27 c1 node n25 p0" transform="translate(33.75 66.9892)"><g class="a25 c2 node n24 p0" transform="translate(0.0 0.601985)"><g class="a24 leaf node n5 p0 sample" transform="translate(-7.5 27.0088)"><path class="edge" d="M 0 0 V -27.0088 H 7.5" /><rect class="sym" height="6" width="6" x="-3" y="-3" /><text class="lab" transform="translate(0 11)">5</text></g><g class="a24 c1 node n23 p0" transform="translate(7.5 0.0175512)"><g class="a23 c1 node n19 p0" transform="translate(0.0 11.7419)"><g class="a19 leaf node n6 p0 sample" transform="translate(0.0 15.2494)"><path class="edge" d="M 0 0 V -15.2494 H 0.0" /><rect class="sym" height="6" width="6" x="-3" y="-3" /><text class="lab" transform="translate(0 11)">6</text></g><path class="edge" d="M 0 0 V -11.7419 H 0.0" /><circle class="sym" cx="0" cy="0" r="3" /><text class="lab lft" transform="translate(-3 -7.0)">19</text></g><path class="edge" d="M 0 0 V -0.0175512 H -7.5" /><circle class="sym" cx="0" cy="0" r="3" /><text class="lab rgt" transform="translate(3 -7.0)">23</text></g><path class="edge" d="M 0 0 V -0.601985 H 0.0" /><circle class="sym" cx="0" cy="0" r="3" /><text class="lab lft" transform="translate(-3 -7.0)">24</text></g><path class="edge" d="M 0 0 V -66.9892 H -33.75" /><circle class="sym" cx="0" cy="0" r="3" /><text class="lab rgt" transform="translate(3 -7.0)">25</text></g><g class="a27 c1 node n26 p0" transform="translate(-33.75 65.0061)"><g class="a26 c2 node n21 p0" transform="translate(0.0 2.74378)"><g class="a21 c2 node n16 p0" transform="translate(-31.875 16.8323)"><g class="a16 leaf node n8 p0 sample" transform="translate(16.875 10.0179)"><path class="edge" d="M 0 0 V -10.0179 H -16.875" /><rect class="sym" height="6" width="6" x="-3" y="-3" /><text class="lab" transform="translate(0 11)">8</text></g><g class="a16 c2 node n14 p0" transform="translate(-16.875 6.60717)"><g class="a14 leaf node n0 p0 sample" transform="translate(-11.25 3.41072)"><path class="edge" d="M 0 0 V -3.41072 H 11.25" /><rect class="sym" height="6" width="6" x="-3" y="-3" /><text class="lab" transform="translate(0 11)">0</text></g><g class="a14 c2 node n10 p0" transform="translate(11.25 2.48524)"><g class="a10 leaf node n3 p0 sample" transform="translate(-7.5 0.92548)"><path class="edge" d="M 0 0 V -0.92548 H 7.5" /><rect class="sym" height="6" width="6" x="-3" y="-3" /><text class="lab" transform="translate(0 11)">3</text></g><g class="a10 leaf node n4 p0 sample" transform="translate(7.5 0.92548)"><path class="edge" d="M 0 0 V -0.92548 H -7.5" /><rect class="sym" height="6" width="6" x="-3" y="-3" /><text class="lab" transform="translate(0 11)">4</text></g><path class="edge" d="M 0 0 V -2.48524 H -11.25" /><circle class="sym" cx="0" cy="0" r="3" /><text class="lab rgt" transform="translate(3 -7.0)">10</text></g><path class="edge" d="M 0 0 V -6.60717 H 16.875" /><circle class="sym" cx="0" cy="0" r="3" /><text class="lab lft" transform="translate(-3 -7.0)">14</text></g><path class="edge" d="M 0 0 V -16.8323 H 31.875" /><circle class="sym" cx="0" cy="0" r="3" /><text class="lab lft" transform="translate(-3 -7.0)">16</text></g><g class="a21 c2 node n20 p0" transform="translate(31.875 5.51692)"><g class="a20 c1 node n12 p0" transform="translate(13.125 18.2988)"><g class="a12 leaf node n7 p0 sample" transform="translate(0.0 3.03441)"><path class="edge" d="M 0 0 V -3.03441 H 0.0" /><rect class="sym" height="6" width="6" x="-3" y="-3" /><text class="lab" transform="translate(0 11)">7</text></g><path class="edge" d="M 0 0 V -18.2988 H -13.125" /><circle class="sym" cx="0" cy="0" r="3" /><text class="lab rgt" transform="translate(3 -7.0)">12</text></g><g class="a20 c1 node n17 p0" transform="translate(-13.125 10.3655)"><g class="a17 c2 node n15 p0" transform="translate(0.0 4.1235)"><g class="a15 leaf node n2 p0 sample" transform="translate(11.25 6.84426)"><path class="edge" d="M 0 0 V -6.84426 H -11.25" /><rect class="sym" height="6" width="6" x="-3" y="-3" /><text class="lab" transform="translate(0 11)">2</text></g><g class="a15 c2 node n11 p0" transform="translate(-11.25 5.77777)"><g class="a11 leaf node n1 p0 sample" transform="translate(-7.5 1.06649)"><path class="edge" d="M 0 0 V -1.06649 H 7.5" /><rect class="sym" height="6" width="6" x="-3" y="-3" /><text class="lab" transform="translate(0 11)">1</text></g><g class="a11 leaf node n9 p0 sample" transform="translate(7.5 1.06649)"><path class="edge" d="M 0 0 V -1.06649 H -7.5" /><rect class="sym" height="6" width="6" x="-3" y="-3" /><text class="lab" transform="translate(0 11)">9</text></g><path class="edge" d="M 0 0 V -5.77777 H 11.25" /><circle class="sym" cx="0" cy="0" r="3" /><text class="lab lft" transform="translate(-3 -7.0)">11</text></g><path class="edge" d="M 0 0 V -4.1235 H 0.0" /><circle class="sym" cx="0" cy="0" r="3" /><text class="lab lft" transform="translate(-3 -7.0)">15</text></g><path class="edge" d="M 0 0 V -10.3655 H 13.125" /><circle class="sym" cx="0" cy="0" r="3" /><text class="lab lft" transform="translate(-3 -7.0)">17</text></g><path class="edge" d="M 0 0 V -5.51692 H -31.875" /><circle class="sym" cx="0" cy="0" r="3" /><text class="lab rgt" transform="translate(3 -7.0)">20</text></g><path class="edge" d="M 0 0 V -2.74378 H 0.0" /><circle class="sym" cx="0" cy="0" r="3" /><text class="lab lft" transform="translate(-3 -7.0)">21</text></g><path class="edge" d="M 0 0 V -65.0061 H 33.75" /><circle class="sym" cx="0" cy="0" r="3" /><text class="lab lft" transform="translate(-3 -7.0)">26</text></g><circle class="sym" cx="0" cy="0" r="3" /><text class="lab" transform="translate(0 -11)">27</text></g></g></g><g class="tree t2" transform="translate(400 0)"><g class="plotbox"><g class="c2 node n27 p0 root" transform="translate(116.094 26.8)"><g class="a27 c2 node n25 p0" transform="translate(35.1562 66.9892)"><g class="a25 c2 node n24 p0" transform="translate(-11.25 0.601985)"><g class="a24 leaf node n5 p0 sample" transform="translate(-7.5 27.0088)"><path class="edge" d="M 0 0 V -27.0088 H 7.5" /><rect class="sym" height="6" width="6" x="-3" y="-3" /><text class="lab" transform="translate(0 11)">5</text></g><g class="a24 c1 node n23 p0" transform="translate(7.5 0.0175512)"><g class="a23 c1 node n19 p0" transform="translate(0.0 11.7419)"><g class="a19 leaf node n6 p0 sample" transform="translate(0.0 15.2494)"><path class="edge" d="M 0 0 V -15.2494 H 0.0" /><rect class="sym" height="6" width="6" x="-3" y="-3" /><text class="lab" transform="translate(0 11)">6</text></g><path class="edge" d="M 0 0 V -11.7419 H 0.0" /><circle class="sym" cx="0" cy="0" r="3" /><text class="lab lft" transform="translate(-3 -7.0)">19</text></g><path class="edge" d="M 0 0 V -0.0175512 H -7.5" /><circle class="sym" cx="0" cy="0" r="3" /><text class="lab rgt" transform="translate(3 -7.0)">23</text></g><path class="edge" d="M 0 0 V -0.601985 H 11.25" /><circle class="sym" cx="0" cy="0" r="3" /><text class="lab lft" transform="translate(-3 -7.0)">24</text></g><g class="a25 c1 node n13 p0" transform="translate(11.25 24.5763)"><g class="a13 leaf node n7 p0 sample" transform="translate(0.0 3.03441)"><path class="edge" d="M 0 0 V -3.03441 H 0.0" /><rect class="sym" height="6" width="6" x="-3" y="-3" /><text class="lab" transform="translate(0 11)">7</text></g><path class="edge" d="M 0 0 V -24.5763 H -11.25" /><circle class="sym" cx="0" cy="0" r="3" /><text class="lab rgt" transform="translate(3 -7.0)">13</text></g><path class="edge" d="M 0 0 V -66.9892 H -35.1562" /><circle class="sym" cx="0" cy="0" r="3" /><text class="lab rgt" transform="translate(3 -7.0)">25</text></g><g class="a27 c1 node n26 p0" transform="translate(-35.1562 65.0061)"><g class="a26 c2 node n21 p0" transform="translate(0.0 2.74378)"><g class="a21 c2 node n16 p0" transform="translate(-25.3125 16.8323)"><g class="a16 leaf node n8 p0 sample" transform="translate(16.875 10.0179)"><path class="edge" d="M 0 0 V -10.0179 H -16.875" /><rect class="sym" height="6" width="6" x="-3" y="-3" /><text class="lab" transform="translate(0 11)">8</text></g><g class="a16 c2 node n14 p0" transform="translate(-16.875 6.60717)"><g class="a14 leaf node n0 p0 sample" transform="translate(-11.25 3.41072)"><path class="edge" d="M 0 0 V -3.41072 H 11.25" /><rect class="sym" height="6" width="6" x="-3" y="-3" /><text class="lab" transform="translate(0 11)">0</text></g><g class="a14 c2 node n10 p0" transform="translate(11.25 2.48524)"><g class="a10 leaf node n3 p0 sample" transform="translate(-7.5 0.92548)"><path class="edge" d="M 0 0 V -0.92548 H 7.5" /><rect class="sym" height="6" width="6" x="-3" y="-3" /><text class="lab" transform="translate(0 11)">3</text></g><g class="a10 leaf node n4 p0 sample" transform="translate(7.5 0.92548)"><path class="edge" d="M 0 0 V -0.92548 H -7.5" /><rect class="sym" height="6" width="6" x="-3" y="-3" /><text class="lab" transform="translate(0 11)">4</text></g><path class="edge" d="M 0 0 V -2.48524 H -11.25" /><circle class="sym" cx="0" cy="0" r="3" /><text class="lab rgt" transform="translate(3 -7.0)">10</text></g><path class="edge" d="M 0 0 V -6.60717 H 16.875" /><circle class="sym" cx="0" cy="0" r="3" /><text class="lab lft" transform="translate(-3 -7.0)">14</text></g><path class="edge" d="M 0 0 V -16.8323 H 25.3125" /><circle class="sym" cx="0" cy="0" r="3" /><text class="lab lft" transform="translate(-3 -7.0)">16</text></g><g class="a21 c1 node n20 p0" transform="translate(25.3125 5.51692)"><g class="a20 c1 node n17 p0" transform="translate(0.0 10.3655)"><g class="a17 c2 node n15 p0" transform="translate(0.0 4.1235)"><g class="a15 leaf node n2 p0 sample" transform="translate(11.25 6.84426)"><path class="edge" d="M 0 0 V -6.84426 H -11.25" /><rect class="sym" height="6" width="6" x="-3" y="-3" /><text class="lab" transform="translate(0 11)">2</text></g><g class="a15 c2 node n11 p0" transform="translate(-11.25 5.77777)"><g class="a11 leaf node n1 p0 sample" transform="translate(-7.5 1.06649)"><path class="edge" d="M 0 0 V -1.06649 H 7.5" /><rect class="sym" height="6" width="6" x="-3" y="-3" /><text class="lab" transform="translate(0 11)">1</text></g><g class="a11 leaf node n9 p0 sample" transform="translate(7.5 1.06649)"><path class="edge" d="M 0 0 V -1.06649 H -7.5" /><rect class="sym" height="6" width="6" x="-3" y="-3" /><text class="lab" transform="translate(0 11)">9</text></g><path class="edge" d="M 0 0 V -5.77777 H 11.25" /><circle class="sym" cx="0" cy="0" r="3" /><text class="lab lft" transform="translate(-3 -7.0)">11</text></g><path class="edge" d="M 0 0 V -4.1235 H 0.0" /><circle class="sym" cx="0" cy="0" r="3" /><text class="lab lft" transform="translate(-3 -7.0)">15</text></g><path class="edge" d="M 0 0 V -10.3655 H 0.0" /><circle class="sym" cx="0" cy="0" r="3" /><text class="lab lft" transform="translate(-3 -7.0)">17</text></g><path class="edge" d="M 0 0 V -5.51692 H -25.3125" /><circle class="sym" cx="0" cy="0" r="3" /><text class="lab rgt" transform="translate(3 -7.0)">20</text></g><path class="edge" d="M 0 0 V -2.74378 H 0.0" /><circle class="sym" cx="0" cy="0" r="3" /><text class="lab lft" transform="translate(-3 -7.0)">21</text></g><path class="edge" d="M 0 0 V -65.0061 H 35.1562" /><circle class="sym" cx="0" cy="0" r="3" /><text class="lab lft" transform="translate(-3 -7.0)">26</text></g><circle class="sym" cx="0" cy="0" r="3" /><text class="lab" transform="translate(0 -11)">27</text></g></g></g><g class="tree t3" transform="translate(590 0)"><g class="plotbox"><g class="c2 node n27 p0 root" transform="translate(101.797 26.8)"><g class="a27 c2 node n25 p0" transform="translate(46.1719 66.9892)"><g class="a25 c2 node n24 p0" transform="translate(-14.5312 0.601985)"><g class="a24 leaf node n5 p0 sample" transform="translate(14.0625 27.0088)"><path class="edge" d="M 0 0 V -27.0088 H -14.0625" /><rect class="sym" height="6" width="6" x="-3" y="-3" /><text class="lab" transform="translate(0 11)">5</text></g><g class="a24 c1 node n23 p0" transform="translate(-14.0625 0.0175512)"><g class="a23 c2 node n19 p0" transform="translate(0.0 11.7419)"><g class="a19 leaf node n6 p0 sample" transform="translate(13.125 15.2494)"><path class="edge" d="M 0 0 V -15.2494 H -13.125" /><rect class="sym" height="6" width="6" x="-3" y="-3" /><text class="lab" transform="translate(0 11)">6</text></g><g class="a19 c1 node n18 p0" transform="translate(-13.125 4.2816)"><g class="a18 c2 node n15 p0" transform="translate(0.0 4.1235)"><g class="a15 leaf node n2 p0 sample" transform="translate(11.25 6.84426)"><path class="edge" d="M 0 0 V -6.84426 H -11.25" /><rect class="sym" height="6" width="6" x="-3" y="-3" /><text class="lab" transform="translate(0 11)">2</text></g><g class="a15 c2 node n11 p0" transform="translate(-11.25 5.77777)"><g class="a11 leaf node n1 p0 sample" transform="translate(-7.5 1.06649)"><path class="edge" d="M 0 0 V -1.06649 H 7.5" /><rect class="sym" height="6" width="6" x="-3" y="-3" /><text class="lab" transform="translate(0 11)">1</text></g><g class="a11 leaf node n9 p0 sample" transform="translate(7.5 1.06649)"><path class="edge" d="M 0 0 V -1.06649 H -7.5" /><rect class="sym" height="6" width="6" x="-3" y="-3" /><text class="lab" transform="translate(0 11)">9</text></g><path class="edge" d="M 0 0 V -5.77777 H 11.25" /><circle class="sym" cx="0" cy="0" r="3" /><text class="lab lft" transform="translate(-3 -7.0)">11</text></g><path class="edge" d="M 0 0 V -4.1235 H 0.0" /><circle class="sym" cx="0" cy="0" r="3" /><text class="lab lft" transform="translate(-3 -7.0)">15</text></g><path class="edge" d="M 0 0 V -4.2816 H 13.125" /><circle class="sym" cx="0" cy="0" r="3" /><text class="lab lft" transform="translate(-3 -7.0)">18</text></g><path class="edge" d="M 0 0 V -11.7419 H 0.0" /><circle class="sym" cx="0" cy="0" r="3" /><text class="lab lft" transform="translate(-3 -7.0)">19</text></g><path class="edge" d="M 0 0 V -0.0175512 H 14.0625" /><circle class="sym" cx="0" cy="0" r="3" /><text class="lab lft" transform="translate(-3 -7.0)">23</text></g><path class="edge" d="M 0 0 V -0.601985 H 14.5312" /><circle class="sym" cx="0" cy="0" r="3" /><text class="lab lft" transform="translate(-3 -7.0)">24</text></g><g class="a25 c1 node n13 p0" transform="translate(14.5312 24.5763)"><g class="a13 leaf node n7 p0 sample" transform="translate(0.0 3.03441)"><path class="edge" d="M 0 0 V -3.03441 H 0.0" /><rect class="sym" height="6" width="6" x="-3" y="-3" /><text class="lab" transform="translate(0 11)">7</text></g><path class="edge" d="M 0 0 V -24.5763 H -14.5312" /><circle class="sym" cx="0" cy="0" r="3" /><text class="lab rgt" transform="translate(3 -7.0)">13</text></g><path class="edge" d="M 0 0 V -66.9892 H -46.1719" /><circle class="sym" cx="0" cy="0" r="3" /><text class="lab rgt" transform="translate(3 -7.0)">25</text></g><g class="a27 c1 node n26 p0" transform="translate(-46.1719 65.0061)"><g class="a26 c1 node n21 p0" transform="translate(0.0 2.74378)"><g class="a21 c2 node n16 p0" transform="translate(0.0 16.8323)"><g class="a16 leaf node n8 p0 sample" transform="translate(16.875 10.0179)"><path class="edge" d="M 0 0 V -10.0179 H -16.875" /><rect class="sym" height="6" width="6" x="-3" y="-3" /><text class="lab" transform="translate(0 11)">8</text></g><g class="a16 c2 node n14 p0" transform="translate(-16.875 6.60717)"><g class="a14 leaf node n0 p0 sample" transform="translate(-11.25 3.41072)"><path class="edge" d="M 0 0 V -3.41072 H 11.25" /><rect class="sym" height="6" width="6" x="-3" y="-3" /><text class="lab" transform="translate(0 11)">0</text></g><g class="a14 c2 node n10 p0" transform="translate(11.25 2.48524)"><g class="a10 leaf node n3 p0 sample" transform="translate(-7.5 0.92548)"><path class="edge" d="M 0 0 V -0.92548 H 7.5" /><rect class="sym" height="6" width="6" x="-3" y="-3" /><text class="lab" transform="translate(0 11)">3</text></g><g class="a10 leaf node n4 p0 sample" transform="translate(7.5 0.92548)"><path class="edge" d="M 0 0 V -0.92548 H -7.5" /><rect class="sym" height="6" width="6" x="-3" y="-3" /><text class="lab" transform="translate(0 11)">4</text></g><path class="edge" d="M 0 0 V -2.48524 H -11.25" /><circle class="sym" cx="0" cy="0" r="3" /><text class="lab rgt" transform="translate(3 -7.0)">10</text></g><path class="edge" d="M 0 0 V -6.60717 H 16.875" /><circle class="sym" cx="0" cy="0" r="3" /><text class="lab lft" transform="translate(-3 -7.0)">14</text></g><path class="edge" d="M 0 0 V -16.8323 H 0.0" /><circle class="sym" cx="0" cy="0" r="3" /><text class="lab lft" transform="translate(-3 -7.0)">16</text></g><path class="edge" d="M 0 0 V -2.74378 H 0.0" /><circle class="sym" cx="0" cy="0" r="3" /><text class="lab lft" transform="translate(-3 -7.0)">21</text></g><path class="edge" d="M 0 0 V -65.0061 H 46.1719" /><circle class="sym" cx="0" cy="0" r="3" /><text class="lab lft" transform="translate(-3 -7.0)">26</text></g><circle class="sym" cx="0" cy="0" r="3" /><text class="lab" transform="translate(0 -11)">27</text></g></g></g></g></g></svg>
