<svg baseProfile="full" height="200" version="1.1" width="1000" xmlns="http://www.w3.org/2000/svg" xmlns:ev="http://www.w3.org/2001/xml-events" xmlns:xlink="http://www.w3.org/1999/xlink"><defs><style type="text/css"><![CDATA[.background path {fill: #808080; fill-opacity: 0}.background path:nth-child(odd) {fill-opacity: .1}.axes {font-size: 14px}.x-axis .tick .lab {font-weight: bold; dominant-baseline: hanging}.axes, .tree {font-size: 14px; text-anchor: middle}.axes line, .edge {stroke: black; fill: none}.y-axis .grid {stroke: #FAFAFA}.node > .sym {fill: black; stroke: none}.site > .sym {stroke: black}.mut text {fill: red; font-style: italic}.mut.extra text {fill: hotpink}.mut line {fill: none; stroke: none}.mut .sym {fill: none; stroke: red}.mut.extra .sym {stroke: hotpink}.node .mut .sym {stroke-width: 1.5px}.tree text, .tree-sequence text {dominant-baseline: central}.plotbox .lab.lft {text-anchor: end}.plotbox .lab.rgt {text-anchor: start}]]></style></defs><g class="tree-sequence"><g class="background"><path d="M20,0 l192,0 l0,138.2 l-186.51,25 l0,5 l-5.48983,0 l0,-5 l0,-25 l0,-138.2z" /><path d="M212,0 l192,0 l0,138.2 l-242.072,25 l0,5 l-136.439,0 l0,-5 l186.51,-25 l0,-138.2z" /><path d="M404,0 l192,0 l0,138.2 l-428.832,25 l0,5 l-5.23949,0 l0,-5 l242.072,-25 l0,-138.2z" /><path d="M596,0 l192,0 l0,138.2 l-564.804,25 l0,5 l-56.028,0 l0,-5 l428.832,-25 l0,-138.2z" /><path d="M788,0 l192,0 l0,138.2 l0,25 l0,5 l-756.804,0 l0,-5 l564.804,-25 l0,-138.2z" /></g><g class="axes"><g class="x-axis"><g transform="translate(500 200)"><text class="lab" text-anchor="middle" transform="translate(0 -11)">Genome position</text></g><line x1="20" x2="980" y1="163.2" y2="163.2" /><g class="ticks"><g class="tick" transform="translate(20 163.2)"><line x1="0" x2="0" y1="0" y2="5" /><g transform="translate(0 6)"><text class="lab">0.00</text></g></g><g class="tick" transform="translate(25.4898 163.2)"><line x1="0" x2="0" y1="0" y2="5" /><g transform="translate(0 6)"><text class="lab">5.72</text></g></g><g class="tick" transform="translate(161.928 163.2)"><line x1="0" x2="0" y1="0" y2="5" /><g transform="translate(0 6)"><text class="lab">147.84</text></g></g><g class="tick" transform="translate(167.168 163.2)"><line x1="0" x2="0" y1="0" y2="5" /><g transform="translate(0 6)"><text class="lab">153.30</text></g></g><g class="tick" transform="translate(223.196 163.2)"><line x1="0" x2="0" y1="0" y2="5" /><g transform="translate(0 6)"><text class="lab">211.66</text></g></g><g class="tick" transform="translate(980 163.2)"><line x1="0" x2="0" y1="0" y2="5" /><g transform="translate(0 6)"><text class="lab">1000.00</text></g></g></g></g></g><g class="plotbox trees"><g class="tree t0" transform="translate(20 0)"><g class="plotbox"><g class="c2 node n30 p0 root" transform="translate(114.525 26.8)"><g class="a30 c2 node n28 p0" transform="translate(-30.875 33.5537)"><g class="a28 c1 node n26 p0" transform="translate(23.75 7.1019)"><g class="a26 c2 node n24 p0" transform="translate(0.0 6.92324)"><g class="a24 c1 node n15 p0" transform="translate(11.4 31.046)"><g class="a15 leaf node n4 p0 sample" transform="translate(0.0 15.9751)"><path class="edge" d="M 0 0 V -15.9751 H 0.0" /><rect class="sym" height="6" width="6" x="-3" y="-3" /><text class="lab" transform="translate(0 11)">4</text></g><path class="edge" d="M 0 0 V -31.046 H -11.4" /><circle class="sym" cx="0" cy="0" r="3" /><text class="lab rgt" transform="translate(3 -7.0)">15</text></g><g class="a24 c1 node n21 p0" transform="translate(-11.4 8.52065)"><g class="a21 c2 node n14 p0" transform="translate(0.0 28.8976)"><g class="a14 leaf node n1 p0 sample" transform="translate(-7.6 9.60295)"><path class="edge" d="M 0 0 V -9.60295 H 7.6" /><rect class="sym" height="6" width="6" x="-3" y="-3" /><text class="lab" transform="translate(0 11)">1</text></g><g class="a14 leaf node n9 p0 sample" transform="translate(7.6 9.60295)"><path class="edge" d="M 0 0 V -9.60295 H -7.6" /><rect class="sym" height="6" width="6" x="-3" y="-3" /><text class="lab" transform="translate(0 11)">9</text></g><path class="edge" d="M 0 0 V -28.8976 H 0.0" /><circle class="sym" cx="0" cy="0" r="3" /><text class="lab lft" transform="translate(-3 -7.0)">14</text></g><path class="edge" d="M 0 0 V -8.52065 H 11.4" /><circle class="sym" cx="0" cy="0" r="3" /><text class="lab lft" transform="translate(-3 -7.0)">21</text></g><path class="edge" d="M 0 0 V -6.92324 H 0.0" /><circle class="sym" cx="0" cy="0" r="3" /><text class="lab lft" transform="translate(-3 -7.0)">24</text></g><path class="edge" d="M 0 0 V -7.1019 H -23.75" /><circle class="sym" cx="0" cy="0" r="3" /><text class="lab rgt" transform="translate(3 -7.0)">26</text></g><g class="a28 c2 node n27 p0" transform="translate(-23.75 6.17741)"><g class="a27 leaf node n6 p0 sample" transform="translate(13.3 54.8689)"><path class="edge" d="M 0 0 V -54.8689 H -13.3" /><rect class="sym" height="6" width="6" x="-3" y="-3" /><text class="lab" transform="translate(0 11)">6</text></g><g class="a27 c2 node n23 p0" transform="translate(-13.3 12.2477)"><g class="a23 leaf node n8 p0 sample" transform="translate(11.4 42.6212)"><path class="edge" d="M 0 0 V -42.6212 H -11.4" /><rect class="sym" height="6" width="6" x="-3" y="-3" /><text class="lab" transform="translate(0 11)">8</text></g><g class="a23 c2 node n17 p0" transform="translate(-11.4 18.8897)"><g class="a17 leaf node n0 p0 sample" transform="translate(-7.6 23.7315)"><path class="edge" d="M 0 0 V -23.7315 H 7.6" /><rect class="sym" height="6" width="6" x="-3" y="-3" /><text class="lab" transform="translate(0 11)">0</text></g><g class="a17 c1 node n11 p0" transform="translate(7.6 17.9278)"><g class="a11 leaf node n7 p0 sample" transform="translate(0.0 5.80368)"><path class="edge" d="M 0 0 V -5.80368 H 0.0" /><rect class="sym" height="6" width="6" x="-3" y="-3" /><text class="lab" transform="translate(0 11)">7</text></g><path class="edge" d="M 0 0 V -17.9278 H -7.6" /><circle class="sym" cx="0" cy="0" r="3" /><text class="lab rgt" transform="translate(3 -7.0)">11</text></g><path class="edge" d="M 0 0 V -18.8897 H 11.4" /><circle class="sym" cx="0" cy="0" r="3" /><text class="lab lft" transform="translate(-3 -7.0)">17</text></g><path class="edge" d="M 0 0 V -12.2477 H 13.3" /><circle class="sym" cx="0" cy="0" r="3" /><text class="lab lft" transform="translate(-3 -7.0)">23</text></g><path class="edge" d="M 0 0 V -6.17741 H 23.75" /><circle class="sym" cx="0" cy="0" r="3" /><text class="lab lft" transform="translate(-3 -7.0)">27</text></g><path class="edge" d="M 0 0 V -33.5537 H 30.875" /><circle class="sym" cx="0" cy="0" r="3" /><text class="lab lft" transform="translate(-3 -7.0)">28</text></g><g class="a30 c1 node n29 p0" transform="translate(30.875 6.47825)"><g class="a29 c1 node n19 p0" transform="translate(0.0 54.3591)"><g class="a19 c2 node n13 p0" transform="translate(0.0 24.2831)"><g class="a13 leaf node n2 p0 sample" transform="translate(-11.4 9.47961)"><path class="edge" d="M 0 0 V -9.47961 H 11.4" /><rect class="sym" height="6" width="6" x="-3" y="-3" /><text class="lab" transform="translate(0 11)">2</text></g><g class="a13 c2 node n10 p0" transform="translate(11.4 8.77093)"><g class="a10 leaf node n3 p0 sample" transform="translate(-7.6 0.708687)"><path class="edge" d="M 0 0 V -0.708687 H 7.6" /><rect class="sym" height="6" width="6" x="-3" y="-3" /><text class="lab" transform="translate(0 11)">3</text></g><g class="a10 leaf node n5 p0 sample" transform="translate(7.6 0.708687)"><path class="edge" d="M 0 0 V -0.708687 H -7.6" /><rect class="sym" height="6" width="6" x="-3" y="-3" /><text class="lab" transform="translate(0 11)">5</text></g><path class="edge" d="M 0 0 V -8.77093 H -11.4" /><circle class="sym" cx="0" cy="0" r="3" /><text class="lab rgt" transform="translate(3 -7.0)">10</text></g><path class="edge" d="M 0 0 V -24.2831 H 0.0" /><circle class="sym" cx="0" cy="0" r="3" /><text class="lab lft" transform="translate(-3 -7.0)">13</text></g><path class="edge" d="M 0 0 V -54.3591 H 0.0" /><circle class="sym" cx="0" cy="0" r="3" /><text class="lab lft" transform="translate(-3 -7.0)">19</text></g><path class="edge" d="M 0 0 V -6.47825 H -30.875" /><circle class="sym" cx="0" cy="0" r="3" /><text class="lab rgt" transform="translate(3 -7.0)">29</text></g><circle class="sym" cx="0" cy="0" r="3" /><text class="lab" transform="translate(0 -11)">30</text></g></g></g><g class="tree t1" transform="translate(212 0)"><g class="plotbox"><g class="c2 node n30 p0 root" transform="translate(101.225 26.8)"><g class="a30 c2 node n28 p0" transform="translate(-27.075 33.5537)"><g class="a28 c1 node n26 p0" transform="translate(14.25 7.1019)"><g class="a26 c1 node n24 p0" transform="translate(0.0 6.92324)"><g class="a24 c1 node n15 p0" transform="translate(0.0 31.046)"><g class="a15 leaf node n4 p0 sample" transform="translate(0.0 15.9751)"><path class="edge" d="M 0 0 V -15.9751 H 0.0" /><rect class="sym" height="6" width="6" x="-3" y="-3" /><text class="lab" transform="translate(0 11)">4</text></g><path class="edge" d="M 0 0 V -31.046 H 0.0" /><circle class="sym" cx="0" cy="0" r="3" /><text class="lab lft" transform="translate(-3 -7.0)">15</text></g><path class="edge" d="M 0 0 V -6.92324 H 0.0" /><circle class="sym" cx="0" cy="0" r="3" /><text class="lab lft" transform="translate(-3 -7.0)">24</text></g><path class="edge" d="M 0 0 V -7.1019 H -14.25" /><circle class="sym" cx="0" cy="0" r="3" /><text class="lab rgt" transform="translate(3 -7.0)">26</text></g><g class="a28 c2 node n27 p0" transform="translate(-14.25 6.17741)"><g class="a27 leaf node n6 p0 sample" transform="translate(13.3 54.8689)"><path class="edge" d="M 0 0 V -54.8689 H -13.3" /><rect class="sym" height="6" width="6" x="-3" y="-3" /><text class="lab" transform="translate(0 11)">6</text></g><g class="a27 c2 node n23 p0" transform="translate(-13.3 12.2477)"><g class="a23 leaf node n8 p0 sample" transform="translate(11.4 42.6212)"><path class="edge" d="M 0 0 V -42.6212 H -11.4" /><rect class="sym" height="6" width="6" x="-3" y="-3" /><text class="lab" transform="translate(0 11)">8</text></g><g class="a23 c2 node n17 p0" transform="translate(-11.4 18.8897)"><g class="a17 leaf node n0 p0 sample" transform="translate(-7.6 23.7315)"><path class="edge" d="M 0 0 V -23.7315 H 7.6" /><rect class="sym" height="6" width="6" x="-3" y="-3" /><text class="lab" transform="translate(0 11)">0</text></g><g class="a17 c1 node n11 p0" transform="translate(7.6 17.9278)"><g class="a11 leaf node n7 p0 sample" transform="translate(0.0 5.80368)"><path class="edge" d="M 0 0 V -5.80368 H 0.0" /><rect class="sym" height="6" width="6" x="-3" y="-3" /><text class="lab" transform="translate(0 11)">7</text></g><path class="edge" d="M 0 0 V -17.9278 H -7.6" /><circle class="sym" cx="0" cy="0" r="3" /><text class="lab rgt" transform="translate(3 -7.0)">11</text></g><path class="edge" d="M 0 0 V -18.8897 H 11.4" /><circle class="sym" cx="0" cy="0" r="3" /><text class="lab lft" transform="translate(-3 -7.0)">17</text></g><path class="edge" d="M 0 0 V -12.2477 H 13.3" /><circle class="sym" cx="0" cy="0" r="3" /><text class="lab lft" transform="translate(-3 -7.0)">23</text></g><path class="edge" d="M 0 0 V -6.17741 H 14.25" /><circle class="sym" cx="0" cy="0" r="3" /><text class="lab lft" transform="translate(-3 -7.0)">27</text></g><path class="edge" d="M 0 0 V -33.5537 H 27.075" /><circle class="sym" cx="0" cy="0" r="3" /><text class="lab lft" transform="translate(-3 -7.0)">28</text></g><g class="a30 c2 node n29 p0" transform="translate(27.075 6.47825)"><g class="a29 c1 node n19 p0" transform="translate(17.1 54.3591)"><g class="a19 c2 node n13 p0" transform="translate(0.0 24.2831)"><g class="a13 leaf node n2 p0 sample" transform="translate(-11.4 9.47961)"><path class="edge" d="M 0 0 V -9.47961 H 11.4" /><rect class="sym" height="6" width="6" x="-3" y="-3" /><text class="lab" transform="translate(0 11)">2</text></g><g class="a13 c2 node n10 p0" transform="translate(11.4 8.77093)"><g class="a10 leaf node n3 p0 sample" transform="translate(-7.6 0.708687)"><path class="edge" d="M 0 0 V -0.708687 H 7.6" /><rect class="sym" height="6" width="6" x="-3" y="-3" /><text class="lab" transform="translate(0 11)">3</text></g><g class="a10 leaf node n5 p0 sample" transform="translate(7.6 0.708687)"><path class="edge" d="M 0 0 V -0.708687 H -7.6" /><rect class="sym" height="6" width="6" x="-3" y="-3" /><text class="lab" transform="translate(0 11)">5</text></g><path class="edge" d="M 0 0 V -8.77093 H -11.4" /><circle class="sym" cx="0" cy="0" r="3" /><text class="lab rgt" transform="translate(3 -7.0)">10</text></g><path class="edge" d="M 0 0 V -24.2831 H 0.0" /><circle class="sym" cx="0" cy="0" r="3" /><text class="lab lft" transform="translate(-3 -7.0)">13</text></g><path class="edge" d="M 0 0 V -54.3591 H -17.1" /><circle class="sym" cx="0" cy="0" r="3" /><text class="lab rgt" transform="translate(3 -7.0)">19</text></g><g class="a29 c1 node n25 p0" transform="translate(-17.1 36.6298)"><g class="a25 c1 node n22 p0" transform="translate(0.0 12.9914)"><g class="a22 c2 node n14 p0" transform="translate(0.0 28.8976)"><g class="a14 leaf node n1 p0 sample" transform="translate(-7.6 9.60295)"><path class="edge" d="M 0 0 V -9.60295 H 7.6" /><rect class="sym" height="6" width="6" x="-3" y="-3" /><text class="lab" transform="translate(0 11)">1</text></g><g class="a14 leaf node n9 p0 sample" transform="translate(7.6 9.60295)"><path class="edge" d="M 0 0 V -9.60295 H -7.6" /><rect class="sym" height="6" width="6" x="-3" y="-3" /><text class="lab" transform="translate(0 11)">9</text></g><path class="edge" d="M 0 0 V -28.8976 H 0.0" /><circle class="sym" cx="0" cy="0" r="3" /><text class="lab lft" transform="translate(-3 -7.0)">14</text></g><path class="edge" d="M 0 0 V -12.9914 H 0.0" /><circle class="sym" cx="0" cy="0" r="3" /><text class="lab lft" transform="translate(-3 -7.0)">22</text></g><path class="edge" d="M 0 0 V -36.6298 H 17.1" /><circle class="sym" cx="0" cy="0" r="3" /><text class="lab lft" transform="translate(-3 -7.0)">25</text></g><path class="edge" d="M 0 0 V -6.47825 H -27.075" /><circle class="sym" cx="0" cy="0" r="3" /><text class="lab rgt" transform="translate(3 -7.0)">29</text></g><circle class="sym" cx="0" cy="0" r="3" /><text class="lab" transform="translate(0 -11)">30</text></g></g></g><g class="tree t2" transform="translate(404 0)"><g class="plotbox"><g class="c2 node n30 p0 root" transform="translate(96 26.8)"><g class="a30 c2 node n28 p0" transform="translate(-32.3 33.5537)"><g class="a28 c2 node n26 p0" transform="translate(17.1 7.1019)"><g class="a26 c1 node n24 p0" transform="translate(-7.6 6.92324)"><g class="a24 c1 node n15 p0" transform="translate(0.0 31.046)"><g class="a15 leaf node n4 p0 sample" transform="translate(0.0 15.9751)"><path class="edge" d="M 0 0 V -15.9751 H 0.0" /><rect class="sym" height="6" width="6" x="-3" y="-3" /><text class="lab" transform="translate(0 11)">4</text></g><path class="edge" d="M 0 0 V -31.046 H 0.0" /><circle class="sym" cx="0" cy="0" r="3" /><text class="lab lft" transform="translate(-3 -7.0)">15</text></g><path class="edge" d="M 0 0 V -6.92324 H 7.6" /><circle class="sym" cx="0" cy="0" r="3" /><text class="lab lft" transform="translate(-3 -7.0)">24</text></g><g class="a26 c1 node n18 p0" transform="translate(7.6 26.3144)"><g class="a18 c1 node n12 p0" transform="translate(0.0 21.8263)"><g class="a12 leaf node n7 p0 sample" transform="translate(0.0 5.80368)"><path class="edge" d="M 0 0 V -5.80368 H 0.0" /><rect class="sym" height="6" width="6" x="-3" y="-3" /><text class="lab" transform="translate(0 11)">7</text></g><path class="edge" d="M 0 0 V -21.8263 H 0.0" /><circle class="sym" cx="0" cy="0" r="3" /><text class="lab lft" transform="translate(-3 -7.0)">12</text></g><path class="edge" d="M 0 0 V -26.3144 H -7.6" /><circle class="sym" cx="0" cy="0" r="3" /><text class="lab rgt" transform="translate(3 -7.0)">18</text></g><path class="edge" d="M 0 0 V -7.1019 H -17.1" /><circle class="sym" cx="0" cy="0" r="3" /><text class="lab rgt" transform="translate(3 -7.0)">26</text></g><g class="a28 c2 node n27 p0" transform="translate(-17.1 6.17741)"><g class="a27 leaf node n6 p0 sample" transform="translate(11.4 54.8689)"><path class="edge" d="M 0 0 V -54.8689 H -11.4" /><rect class="sym" height="6" width="6" x="-3" y="-3" /><text class="lab" transform="translate(0 11)">6</text></g><g class="a27 c2 node n23 p0" transform="translate(-11.4 12.2477)"><g class="a23 leaf node n8 p0 sample" transform="translate(7.6 42.6212)"><path class="edge" d="M 0 0 V -42.6212 H -7.6" /><rect class="sym" height="6" width="6" x="-3" y="-3" /><text class="lab" transform="translate(0 11)">8</text></g><g class="a23 c1 node n17 p0" transform="translate(-7.6 18.8897)"><g class="a17 leaf node n0 p0 sample" transform="translate(0.0 23.7315)"><path class="edge" d="M 0 0 V -23.7315 H 0.0" /><rect class="sym" height="6" width="6" x="-3" y="-3" /><text class="lab" transform="translate(0 11)">0</text></g><path class="edge" d="M 0 0 V -18.8897 H 7.6" /><circle class="sym" cx="0" cy="0" r="3" /><text class="lab lft" transform="translate(-3 -7.0)">17</text></g><path class="edge" d="M 0 0 V -12.2477 H 11.4" /><circle class="sym" cx="0" cy="0" r="3" /><text class="lab lft" transform="translate(-3 -7.0)">23</text></g><path class="edge" d="M 0 0 V -6.17741 H 17.1" /><circle class="sym" cx="0" cy="0" r="3" /><text class="lab lft" transform="translate(-3 -7.0)">27</text></g><path class="edge" d="M 0 0 V -33.5537 H 32.3" /><circle class="sym" cx="0" cy="0" r="3" /><text class="lab lft" transform="translate(-3 -7.0)">28</text></g><g class="a30 c2 node n29 p0" transform="translate(32.3 6.47825)"><g class="a29 c1 node n19 p0" transform="translate(17.1 54.3591)"><g class="a19 c2 node n13 p0" transform="translate(0.0 24.2831)"><g class="a13 leaf node n2 p0 sample" transform="translate(-11.4 9.47961)"><path class="edge" d="M 0 0 V -9.47961 H 11.4" /><rect class="sym" height="6" width="6" x="-3" y="-3" /><text class="lab" transform="translate(0 11)">2</text></g><g class="a13 c2 node n10 p0" transform="translate(11.4 8.77093)"><g class="a10 leaf node n3 p0 sample" transform="translate(-7.6 0.708687)"><path class="edge" d="M 0 0 V -0.708687 H 7.6" /><rect class="sym" height="6" width="6" x="-3" y="-3" /><text class="lab" transform="translate(0 11)">3</text></g><g class="a10 leaf node n5 p0 sample" transform="translate(7.6 0.708687)"><path class="edge" d="M 0 0 V -0.708687 H -7.6" /><rect class="sym" height="6" width="6" x="-3" y="-3" /><text class="lab" transform="translate(0 11)">5</text></g><path class="edge" d="M 0 0 V -8.77093 H -11.4" /><circle class="sym" cx="0" cy="0" r="3" /><text class="lab rgt" transform="translate(3 -7.0)">10</text></g><path class="edge" d="M 0 0 V -24.2831 H 0.0" /><circle class="sym" cx="0" cy="0" r="3" /><text class="lab lft" transform="translate(-3 -7.0)">13</text></g><path class="edge" d="M 0 0 V -54.3591 H -17.1" /><circle class="sym" cx="0" cy="0" r="3" /><text class="lab rgt" transform="translate(3 -7.0)">19</text></g><g class="a29 c1 node n25 p0" transform="translate(-17.1 36.6298)"><g class="a25 c1 node n22 p0" transform="translate(0.0 12.9914)"><g class="a22 c2 node n14 p0" transform="translate(0.0 28.8976)"><g class="a14 leaf node n1 p0 sample" transform="translate(-7.6 9.60295)"><path class="edge" d="M 0 0 V -9.60295 H 7.6" /><rect class="sym" height="6" width="6" x="-3" y="-3" /><text class="lab" transform="translate(0 11)">1</text></g><g class="a14 leaf node n9 p0 sample" transform="translate(7.6 9.60295)"><path class="edge" d="M 0 0 V -9.60295 H -7.6" /><rect class="sym" height="6" width="6" x="-3" y="-3" /><text class="lab" transform="translate(0 11)">9</text></g><path class="edge" d="M 0 0 V -28.8976 H 0.0" /><circle class="sym" cx="0" cy="0" r="3" /><text class="lab lft" transform="translate(-3 -7.0)">14</text></g><path class="edge" d="M 0 0 V -12.9914 H 0.0" /><circle class="sym" cx="0" cy="0" r="3" /><text class="lab lft" transform="translate(-3 -7.0)">22</text></g><path class="edge" d="M 0 0 V -36.6298 H 17.1" /><circle class="sym" cx="0" cy="0" r="3" /><text class="lab lft" transform="translate(-3 -7.0)">25</text></g><path class="edge" d="M 0 0 V -6.47825 H -32.3" /><circle class="sym" cx="0" cy="0" r="3" /><text class="lab rgt" transform="translate(3 -7.0)">29</text></g><circle class="sym" cx="0" cy="0" r="3" /><text class="lab" transform="translate(0 -11)">30</text></g></g></g><g class="tree t3" transform="translate(596 0)"><g class="plotbox"><g class="c2 node n30 p0 root" transform="translate(96 26.8)"><g class="a30 c2 node n28 p0" transform="translate(-32.3 33.5537)"><g class="a28 c2 node n26 p0" transform="translate(17.1 7.1019)"><g class="a26 c1 node n24 p0" transform="translate(-7.6 6.92324)"><g class="a24 c1 node n15 p0" transform="translate(0.0 31.046)"><g class="a15 leaf node n4 p0 sample" transform="translate(0.0 15.9751)"><path class="edge" d="M 0 0 V -15.9751 H 0.0" /><rect class="sym" height="6" width="6" x="-3" y="-3" /><text class="lab" transform="translate(0 11)">4</text></g><path class="edge" d="M 0 0 V -31.046 H 0.0" /><circle class="sym" cx="0" cy="0" r="3" /><text class="lab lft" transform="translate(-3 -7.0)">15</text></g><path class="edge" d="M 0 0 V -6.92324 H 7.6" /><circle class="sym" cx="0" cy="0" r="3" /><text class="lab lft" transform="translate(-3 -7.0)">24</text></g><g class="a26 c1 node n18 p0" transform="translate(7.6 26.3144)"><g class="a18 c1 node n12 p0" transform="translate(0.0 21.8263)"><g class="a12 leaf node n7 p0 sample" transform="translate(0.0 5.80368)"><path class="edge" d="M 0 0 V -5.80368 H 0.0" /><rect class="sym" height="6" width="6" x="-3" y="-3" /><text class="lab" transform="translate(0 11)">7</text></g><path class="edge" d="M 0 0 V -21.8263 H 0.0" /><circle class="sym" cx="0" cy="0" r="3" /><text class="lab lft" transform="translate(-3 -7.0)">12</text></g><path class="edge" d="M 0 0 V -26.3144 H -7.6" /><circle class="sym" cx="0" cy="0" r="3" /><text class="lab rgt" transform="translate(3 -7.0)">18</text></g><path class="edge" d="M 0 0 V -7.1019 H -17.1" /><circle class="sym" cx="0" cy="0" r="3" /><text class="lab rgt" transform="translate(3 -7.0)">26</text></g><g class="a28 c2 node n27 p0" transform="translate(-17.1 6.17741)"><g class="a27 leaf node n6 p0 sample" transform="translate(11.4 54.8689)"><path class="edge" d="M 0 0 V -54.8689 H -11.4" /><rect class="sym" height="6" width="6" x="-3" y="-3" /><text class="lab" transform="translate(0 11)">6</text></g><g class="a27 c2 node n23 p0" transform="translate(-11.4 12.2477)"><g class="a23 leaf node n8 p0 sample" transform="translate(7.6 42.6212)"><path class="edge" d="M 0 0 V -42.6212 H -7.6" /><rect class="sym" height="6" width="6" x="-3" y="-3" /><text class="lab" transform="translate(0 11)">8</text></g><g class="a23 c1 node n17 p0" transform="translate(-7.6 18.8897)"><g class="a17 leaf node n0 p0 sample" transform="translate(0.0 23.7315)"><path class="edge" d="M 0 0 V -23.7315 H 0.0" /><rect class="sym" height="6" width="6" x="-3" y="-3" /><text class="lab" transform="translate(0 11)">0</text></g><path class="edge" d="M 0 0 V -18.8897 H 7.6" /><circle class="sym" cx="0" cy="0" r="3" /><text class="lab lft" transform="translate(-3 -7.0)">17</text></g><path class="edge" d="M 0 0 V -12.2477 H 11.4" /><circle class="sym" cx="0" cy="0" r="3" /><text class="lab lft" transform="translate(-3 -7.0)">23</text></g><path class="edge" d="M 0 0 V -6.17741 H 17.1" /><circle class="sym" cx="0" cy="0" r="3" /><text class="lab lft" transform="translate(-3 -7.0)">27</text></g><path class="edge" d="M 0 0 V -33.5537 H 32.3" /><circle class="sym" cx="0" cy="0" r="3" /><text class="lab lft" transform="translate(-3 -7.0)">28</text></g><g class="a30 c1 node n29 p0" transform="translate(32.3 6.47825)"><g class="a29 c2 node n25 p0" transform="translate(0.0 36.6298)"><g class="a25 c1 node n22 p0" transform="translate(-17.1 12.9914)"><g class="a22 c2 node n14 p0" transform="translate(0.0 28.8976)"><g class="a14 leaf node n1 p0 sample" transform="translate(-7.6 9.60295)"><path class="edge" d="M 0 0 V -9.60295 H 7.6" /><rect class="sym" height="6" width="6" x="-3" y="-3" /><text class="lab" transform="translate(0 11)">1</text></g><g class="a14 leaf node n9 p0 sample" transform="translate(7.6 9.60295)"><path class="edge" d="M 0 0 V -9.60295 H -7.6" /><rect class="sym" height="6" width="6" x="-3" y="-3" /><text class="lab" transform="translate(0 11)">9</text></g><path class="edge" d="M 0 0 V -28.8976 H 0.0" /><circle class="sym" cx="0" cy="0" r="3" /><text class="lab lft" transform="translate(-3 -7.0)">14</text></g><path class="edge" d="M 0 0 V -12.9914 H 17.1" /><circle class="sym" cx="0" cy="0" r="3" /><text class="lab lft" transform="translate(-3 -7.0)">22</text></g><g class="a25 c1 node n20 p0" transform="translate(17.1 17.7292)"><g class="a20 c2 node n13 p0" transform="translate(0.0 24.2831)"><g class="a13 leaf node n2 p0 sample" transform="translate(-11.4 9.47961)"><path class="edge" d="M 0 0 V -9.47961 H 11.4" /><rect class="sym" height="6" width="6" x="-3" y="-3" /><text class="lab" transform="translate(0 11)">2</text></g><g class="a13 c2 node n10 p0" transform="translate(11.4 8.77093)"><g class="a10 leaf node n3 p0 sample" transform="translate(-7.6 0.708687)"><path class="edge" d="M 0 0 V -0.708687 H 7.6" /><rect class="sym" height="6" width="6" x="-3" y="-3" /><text class="lab" transform="translate(0 11)">3</text></g><g class="a10 leaf node n5 p0 sample" transform="translate(7.6 0.708687)"><path class="edge" d="M 0 0 V -0.708687 H -7.6" /><rect class="sym" height="6" width="6" x="-3" y="-3" /><text class="lab" transform="translate(0 11)">5</text></g><path class="edge" d="M 0 0 V -8.77093 H -11.4" /><circle class="sym" cx="0" cy="0" r="3" /><text class="lab rgt" transform="translate(3 -7.0)">10</text></g><path class="edge" d="M 0 0 V -24.2831 H 0.0" /><circle class="sym" cx="0" cy="0" r="3" /><text class="lab lft" transform="translate(-3 -7.0)">13</text></g><path class="edge" d="M 0 0 V -17.7292 H -17.1" /><circle class="sym" cx="0" cy="0" r="3" /><text class="lab rgt" transform="translate(3 -7.0)">20</text></g><path class="edge" d="M 0 0 V -36.6298 H 0.0" /><circle class="sym" cx="0" cy="0" r="3" /><text class="lab lft" transform="translate(-3 -7.0)">25</text></g><path class="edge" d="M 0 0 V -6.47825 H -32.3" /><circle class="sym" cx="0" cy="0" r="3" /><text class="lab rgt" transform="translate(3 -7.0)">29</text></g><circle class="sym" cx="0" cy="0" r="3" /><text class="lab" transform="translate(0 -11)">30</text></g></g></g><g class="tree t4" transform="translate(788 0)"><g class="plotbox"><g class="c2 node n30 p0 root" transform="translate(96 26.8)"><g class="a30 c2 node n28 p0" transform="translate(-32.3 33.5537)"><g class="a28 c1 node n26 p0" transform="translate(17.1 7.1019)"><g class="a26 c2 node n18 p0" transform="translate(0.0 26.3144)"><g class="a18 c1 node n12 p0" transform="translate(7.6 21.8263)"><g class="a12 leaf node n7 p0 sample" transform="translate(0.0 5.80368)"><path class="edge" d="M 0 0 V -5.80368 H 0.0" /><rect class="sym" height="6" width="6" x="-3" y="-3" /><text class="lab" transform="translate(0 11)">7</text></g><path class="edge" d="M 0 0 V -21.8263 H -7.6" /><circle class="sym" cx="0" cy="0" r="3" /><text class="lab rgt" transform="translate(3 -7.0)">12</text></g><g class="a18 c1 node n16 p0" transform="translate(-7.6 11.6548)"><g class="a16 leaf node n4 p0 sample" transform="translate(0.0 15.9751)"><path class="edge" d="M 0 0 V -15.9751 H 0.0" /><rect class="sym" height="6" width="6" x="-3" y="-3" /><text class="lab" transform="translate(0 11)">4</text></g><path class="edge" d="M 0 0 V -11.6548 H 7.6" /><circle class="sym" cx="0" cy="0" r="3" /><text class="lab lft" transform="translate(-3 -7.0)">16</text></g><path class="edge" d="M 0 0 V -26.3144 H 0.0" /><circle class="sym" cx="0" cy="0" r="3" /><text class="lab lft" transform="translate(-3 -7.0)">18</text></g><path class="edge" d="M 0 0 V -7.1019 H -17.1" /><circle class="sym" cx="0" cy="0" r="3" /><text class="lab rgt" transform="translate(3 -7.0)">26</text></g><g class="a28 c2 node n27 p0" transform="translate(-17.1 6.17741)"><g class="a27 leaf node n6 p0 sample" transform="translate(11.4 54.8689)"><path class="edge" d="M 0 0 V -54.8689 H -11.4" /><rect class="sym" height="6" width="6" x="-3" y="-3" /><text class="lab" transform="translate(0 11)">6</text></g><g class="a27 c2 node n23 p0" transform="translate(-11.4 12.2477)"><g class="a23 leaf node n8 p0 sample" transform="translate(7.6 42.6212)"><path class="edge" d="M 0 0 V -42.6212 H -7.6" /><rect class="sym" height="6" width="6" x="-3" y="-3" /><text class="lab" transform="translate(0 11)">8</text></g><g class="a23 c1 node n17 p0" transform="translate(-7.6 18.8897)"><g class="a17 leaf node n0 p0 sample" transform="translate(0.0 23.7315)"><path class="edge" d="M 0 0 V -23.7315 H 0.0" /><rect class="sym" height="6" width="6" x="-3" y="-3" /><text class="lab" transform="translate(0 11)">0</text></g><path class="edge" d="M 0 0 V -18.8897 H 7.6" /><circle class="sym" cx="0" cy="0" r="3" /><text class="lab lft" transform="translate(-3 -7.0)">17</text></g><path class="edge" d="M 0 0 V -12.2477 H 11.4" /><circle class="sym" cx="0" cy="0" r="3" /><text class="lab lft" transform="translate(-3 -7.0)">23</text></g><path class="edge" d="M 0 0 V -6.17741 H 17.1" /><circle class="sym" cx="0" cy="0" r="3" /><text class="lab lft" transform="translate(-3 -7.0)">27</text></g><path class="edge" d="M 0 0 V -33.5537 H 32.3" /><circle class="sym" cx="0" cy="0" r="3" /><text class="lab lft" transform="translate(-3 -7.0)">28</text></g><g class="a30 c1 node n29 p0" transform="translate(32.3 6.47825)"><g class="a29 c2 node n25 p0" transform="translate(0.0 36.6298)"><g class="a25 c1 node n22 p0" transform="translate(-17.1 12.9914)"><g class="a22 c2 node n14 p0" transform="translate(0.0 28.8976)"><g class="a14 leaf node n1 p0 sample" transform="translate(-7.6 9.60295)"><path class="edge" d="M 0 0 V -9.60295 H 7.6" /><rect class="sym" height="6" width="6" x="-3" y="-3" /><text class="lab" transform="translate(0 11)">1</text></g><g class="a14 leaf node n9 p0 sample" transform="translate(7.6 9.60295)"><path class="edge" d="M 0 0 V -9.60295 H -7.6" /><rect class="sym" height="6" width="6" x="-3" y="-3" /><text class="lab" transform="translate(0 11)">9</text></g><path class="edge" d="M 0 0 V -28.8976 H 0.0" /><circle class="sym" cx="0" cy="0" r="3" /><text class="lab lft" transform="translate(-3 -7.0)">14</text></g><path class="edge" d="M 0 0 V -12.9914 H 17.1" /><circle class="sym" cx="0" cy="0" r="3" /><text class="lab lft" transform="translate(-3 -7.0)">22</text></g><g class="a25 c1 node n20 p0" transform="translate(17.1 17.7292)"><g class="a20 c2 node n13 p0" transform="translate(0.0 24.2831)"><g class="a13 leaf node n2 p0 sample" transform="translate(-11.4 9.47961)"><path class="edge" d="M 0 0 V -9.47961 H 11.4" /><rect class="sym" height="6" width="6" x="-3" y="-3" /><text class="lab" transform="translate(0 11)">2</text></g><g class="a13 c2 node n10 p0" transform="translate(11.4 8.77093)"><g class="a10 leaf node n3 p0 sample" transform="translate(-7.6 0.708687)"><path class="edge" d="M 0 0 V -0.708687 H 7.6" /><rect class="sym" height="6" width="6" x="-3" y="-3" /><text class="lab" transform="translate(0 11)">3</text></g><g class="a10 leaf node n5 p0 sample" transform="translate(7.6 0.708687)"><path class="edge" d="M 0 0 V -0.708687 H -7.6" /><rect class="sym" height="6" width="6" x="-3" y="-3" /><text class="lab" transform="translate(0 11)">5</text></g><path class="edge" d="M 0 0 V -8.77093 H -11.4" /><circle class="sym" cx="0" cy="0" r="3" /><text class="lab rgt" transform="translate(3 -7.0)">10</text></g><path class="edge" d="M 0 0 V -24.2831 H 0.0" /><circle class="sym" cx="0" cy="0" r="3" /><text class="lab lft" transform="translate(-3 -7.0)">13</text></g><path class="edge" d="M 0 0 V -17.7292 H -17.1" /><circle class="sym" cx="0" cy="0" r="3" /><text class="lab rgt" transform="translate(3 -7.0)">20</text></g><path class="edge" d="M 0 0 V -36.6298 H 0.0" /><circle class="sym" cx="0" cy="0" r="3" /><text class="lab lft" transform="translate(-3 -7.0)">25</text></g><path class="edge" d="M 0 0 V -6.47825 H -32.3" /><circle class="sym" cx="0" cy="0" r="3" /><text class="lab rgt" transform="translate(3 -7.0)">29</text></g><circle class="sym" cx="0" cy="0" r="3" /><text class="lab" transform="translate(0 -11)">30</text></g></g></g></g></g></svg>
