<svg baseProfile="full" height="200" version="1.1" width="1000" xmlns="http://www.w3.org/2000/svg" xmlns:ev="http://www.w3.org/2001/xml-events" xmlns:xlink="http://www.w3.org/1999/xlink"><defs><style type="text/css"><![CDATA[.background path {fill: #808080; fill-opacity: 0}.background path:nth-child(odd) {fill-opacity: .1}.axes {font-size: 14px}.x-axis .tick .lab {font-weight: bold; dominant-baseline: hanging}.axes, .tree {font-size: 14px; text-anchor: middle}.axes line, .edge {stroke: black; fill: none}.y-axis .grid {stroke: #FAFAFA}.node > .sym {fill: black; stroke: none}.site > .sym {stroke: black}.mut text {fill: red; font-style: italic}.mut.extra text {fill: hotpink}.mut line {fill: none; stroke: none}.mut .sym {fill: none; stroke: red}.mut.extra .sym {stroke: hotpink}.node .mut .sym {stroke-width: 1.5px}.tree text, .tree-sequence text {dominant-baseline: central}.plotbox .lab.lft {text-anchor: end}.plotbox .lab.rgt {text-anchor: start}]]></style></defs><g class="tree-sequence"><g class="background"><path d="M20,0 l192,0 l0,138.2 l-162.646,25 l0,5 l-29.3538,0 l0,-5 l0,-25 l0,-138.2z" /><path d="M212,0 l192,0 l0,138.2 l16.6935,25 l0,5 l-371.34,0 l0,-5 l162.646,-25 l0,-138.2z" /><path d="M404,0 l192,0 l0,138.2 l-37.5909,25 l0,5 l-137.716,0 l0,-5 l-16.6935,-25 l0,-138.2z" /><path d="M596,0 l192,0 l0,138.2 l34.8129,25 l0,5 l-264.404,0 l0,-5 l37.5909,-25 l0,-138.2z" /><path d="M788,0 l192,0 l0,138.2 l0,25 l0,5 l-157.187,0 l0,-5 l-34.8129,-25 l0,-138.2z" /></g><g class="axes"><g class="x-axis"><g transform="translate(500 200)"><text class="lab" text-anchor="middle" transform="translate(0 -11)">Genome position</text></g><line x1="20" x2="980" y1="163.2" y2="163.2" /><g class="ticks"><g class="tick" transform="translate(20 163.2)"><line x1="0" x2="0" y1="0" y2="5" /><g transform="translate(0 6)"><text class="lab">0.00</text></g></g><g class="tick" transform="translate(49.3538 163.2)"><line x1="0" x2="0" y1="0" y2="5" /><g transform="translate(0 6)"><text class="lab">30.58</text></g></g><g class="tick" transform="translate(420.694 163.2)"><line x1="0" x2="0" y1="0" y2="5" /><g transform="translate(0 6)"><text class="lab">417.39</text></g></g><g class="tick" transform="translate(558.409 163.2)"><line x1="0" x2="0" y1="0" y2="5" /><g transform="translate(0 6)"><text class="lab">560.84</text></g></g><g class="tick" transform="translate(822.813 163.2)"><line x1="0" x2="0" y1="0" y2="5" /><g transform="translate(0 6)"><text class="lab">836.26</text></g></g><g class="tick" transform="translate(980 163.2)"><line x1="0" x2="0" y1="0" y2="5" /><g transform="translate(0 6)"><text class="lab">1000.00</text></g></g></g></g></g><g class="plotbox trees"><g class="tree t0" transform="translate(20 0)"><g class="plotbox"><g class="c2 node n30 p0 root" transform="translate(105.975 26.8)"><g class="a30 c2 node n24 p0" transform="translate(33.725 59.3057)"><g class="a24 c2 node n21 p0" transform="translate(-17.1 8.98117)"><g class="a21 c2 node n13 p0" transform="translate(-11.4 20.377)"><g class="a13 leaf node n3 p0 sample" transform="translate(-7.6 5.93608)"><path class="edge" d="M 0 0 V -5.93608 H 7.6" /><rect class="sym" height="6" width="6" x="-3" y="-3" /><text class="lab" transform="translate(0 11)">3</text></g><g class="a13 leaf node n5 p0 sample" transform="translate(7.6 5.93608)"><path class="edge" d="M 0 0 V -5.93608 H -7.6" /><rect class="sym" height="6" width="6" x="-3" y="-3" /><text class="lab" transform="translate(0 11)">5</text></g><path class="edge" d="M 0 0 V -20.377 H 11.4" /><circle class="sym" cx="0" cy="0" r="3" /><text class="lab lft" transform="translate(-3 -7.0)">13</text></g><g class="a21 c1 node n16 p0" transform="translate(11.4 8.52097)"><g class="a16 leaf node n8 p0 sample" transform="translate(0.0 17.7921)"><path class="edge" d="M 0 0 V -17.7921 H 0.0" /><rect class="sym" height="6" width="6" x="-3" y="-3" /><text class="lab" transform="translate(0 11)">8</text></g><path class="edge" d="M 0 0 V -8.52097 H -11.4" /><circle class="sym" cx="0" cy="0" r="3" /><text class="lab rgt" transform="translate(3 -7.0)">16</text></g><path class="edge" d="M 0 0 V -8.98117 H 17.1" /><circle class="sym" cx="0" cy="0" r="3" /><text class="lab lft" transform="translate(-3 -7.0)">21</text></g><g class="a24 c2 node n23 p0" transform="translate(17.1 2.11522)"><g class="a23 c1 node n14 p0" transform="translate(-7.6 24.7672)"><g class="a14 leaf node n6 p0 sample" transform="translate(0.0 8.41183)"><path class="edge" d="M 0 0 V -8.41183 H 0.0" /><rect class="sym" height="6" width="6" x="-3" y="-3" /><text class="lab" transform="translate(0 11)">6</text></g><path class="edge" d="M 0 0 V -24.7672 H 7.6" /><circle class="sym" cx="0" cy="0" r="3" /><text class="lab lft" transform="translate(-3 -7.0)">14</text></g><g class="a23 c1 node n19 p0" transform="translate(7.6 8.45699)"><g class="a19 c1 node n18 p0" transform="translate(0.0 6.3818)"><g class="a18 leaf node n9 p0 sample" transform="translate(0.0 18.3403)"><path class="edge" d="M 0 0 V -18.3403 H 0.0" /><rect class="sym" height="6" width="6" x="-3" y="-3" /><text class="lab" transform="translate(0 11)">9</text></g><path class="edge" d="M 0 0 V -6.3818 H 0.0" /><circle class="sym" cx="0" cy="0" r="3" /><text class="lab lft" transform="translate(-3 -7.0)">18</text></g><path class="edge" d="M 0 0 V -8.45699 H -7.6" /><circle class="sym" cx="0" cy="0" r="3" /><text class="lab rgt" transform="translate(3 -7.0)">19</text></g><path class="edge" d="M 0 0 V -2.11522 H -17.1" /><circle class="sym" cx="0" cy="0" r="3" /><text class="lab rgt" transform="translate(3 -7.0)">23</text></g><path class="edge" d="M 0 0 V -59.3057 H -33.725" /><circle class="sym" cx="0" cy="0" r="3" /><text class="lab rgt" transform="translate(3 -7.0)">24</text></g><g class="a30 c1 node n29 p0" transform="translate(-33.725 15.3049)"><g class="a29 c2 node n28 p0" transform="translate(0.0 42.0902)"><g class="a28 c1 node n25 p0" transform="translate(16.15 1.63096)"><g class="a25 leaf node n4 p0 sample" transform="translate(0.0 35.5739)"><path class="edge" d="M 0 0 V -35.5739 H 0.0" /><rect class="sym" height="6" width="6" x="-3" y="-3" /><text class="lab" transform="translate(0 11)">4</text></g><path class="edge" d="M 0 0 V -1.63096 H -16.15" /><circle class="sym" cx="0" cy="0" r="3" /><text class="lab rgt" transform="translate(3 -7.0)">25</text></g><g class="a28 c1 node n27 p0" transform="translate(-16.15 0.297641)"><g class="a27 c1 node n22 p0" transform="translate(0.0 5.00255)"><g class="a22 c2 node n12 p0" transform="translate(0.0 27.2889)"><g class="a12 leaf node n7 p0 sample" transform="translate(17.1 4.61576)"><path class="edge" d="M 0 0 V -4.61576 H -17.1" /><rect class="sym" height="6" width="6" x="-3" y="-3" /><text class="lab" transform="translate(0 11)">7</text></g><g class="a12 c2 node n11 p0" transform="translate(-17.1 0.701608)"><g class="a11 leaf node n0 p0 sample" transform="translate(-11.4 3.91415)"><path class="edge" d="M 0 0 V -3.91415 H 11.4" /><rect class="sym" height="6" width="6" x="-3" y="-3" /><text class="lab" transform="translate(0 11)">0</text></g><g class="a11 c2 node n10 p0" transform="translate(11.4 2.18702)"><g class="a10 leaf node n1 p0 sample" transform="translate(-7.6 1.72713)"><path class="edge" d="M 0 0 V -1.72713 H 7.6" /><rect class="sym" height="6" width="6" x="-3" y="-3" /><text class="lab" transform="translate(0 11)">1</text></g><g class="a10 leaf node n2 p0 sample" transform="translate(7.6 1.72713)"><path class="edge" d="M 0 0 V -1.72713 H -7.6" /><rect class="sym" height="6" width="6" x="-3" y="-3" /><text class="lab" transform="translate(0 11)">2</text></g><path class="edge" d="M 0 0 V -2.18702 H -11.4" /><circle class="sym" cx="0" cy="0" r="3" /><text class="lab rgt" transform="translate(3 -7.0)">10</text></g><path class="edge" d="M 0 0 V -0.701608 H 17.1" /><circle class="sym" cx="0" cy="0" r="3" /><text class="lab lft" transform="translate(-3 -7.0)">11</text></g><path class="edge" d="M 0 0 V -27.2889 H 0.0" /><circle class="sym" cx="0" cy="0" r="3" /><text class="lab lft" transform="translate(-3 -7.0)">12</text></g><path class="edge" d="M 0 0 V -5.00255 H 0.0" /><circle class="sym" cx="0" cy="0" r="3" /><text class="lab lft" transform="translate(-3 -7.0)">22</text></g><path class="edge" d="M 0 0 V -0.297641 H 16.15" /><circle class="sym" cx="0" cy="0" r="3" /><text class="lab lft" transform="translate(-3 -7.0)">27</text></g><path class="edge" d="M 0 0 V -42.0902 H 0.0" /><circle class="sym" cx="0" cy="0" r="3" /><text class="lab lft" transform="translate(-3 -7.0)">28</text></g><path class="edge" d="M 0 0 V -15.3049 H 33.725" /><circle class="sym" cx="0" cy="0" r="3" /><text class="lab lft" transform="translate(-3 -7.0)">29</text></g><circle class="sym" cx="0" cy="0" r="3" /><text class="lab" transform="translate(0 -11)">30</text></g></g></g><g class="tree t1" transform="translate(212 0)"><g class="plotbox"><g class="c2 node n30 p0 root" transform="translate(105.975 26.8)"><g class="a30 c2 node n24 p0" transform="translate(33.725 59.3057)"><g class="a24 c2 node n21 p0" transform="translate(-17.1 8.98117)"><g class="a21 c2 node n13 p0" transform="translate(-11.4 20.377)"><g class="a13 leaf node n3 p0 sample" transform="translate(-7.6 5.93608)"><path class="edge" d="M 0 0 V -5.93608 H 7.6" /><rect class="sym" height="6" width="6" x="-3" y="-3" /><text class="lab" transform="translate(0 11)">3</text></g><g class="a13 leaf node n5 p0 sample" transform="translate(7.6 5.93608)"><path class="edge" d="M 0 0 V -5.93608 H -7.6" /><rect class="sym" height="6" width="6" x="-3" y="-3" /><text class="lab" transform="translate(0 11)">5</text></g><path class="edge" d="M 0 0 V -20.377 H 11.4" /><circle class="sym" cx="0" cy="0" r="3" /><text class="lab lft" transform="translate(-3 -7.0)">13</text></g><g class="a21 c1 node n16 p0" transform="translate(11.4 8.52097)"><g class="a16 leaf node n8 p0 sample" transform="translate(0.0 17.7921)"><path class="edge" d="M 0 0 V -17.7921 H 0.0" /><rect class="sym" height="6" width="6" x="-3" y="-3" /><text class="lab" transform="translate(0 11)">8</text></g><path class="edge" d="M 0 0 V -8.52097 H -11.4" /><circle class="sym" cx="0" cy="0" r="3" /><text class="lab rgt" transform="translate(3 -7.0)">16</text></g><path class="edge" d="M 0 0 V -8.98117 H 17.1" /><circle class="sym" cx="0" cy="0" r="3" /><text class="lab lft" transform="translate(-3 -7.0)">21</text></g><g class="a24 c1 node n23 p0" transform="translate(17.1 2.11522)"><g class="a23 c1 node n19 p0" transform="translate(0.0 8.45699)"><g class="a19 c2 node n18 p0" transform="translate(0.0 6.3818)"><g class="a18 leaf node n9 p0 sample" transform="translate(7.6 18.3403)"><path class="edge" d="M 0 0 V -18.3403 H -7.6" /><rect class="sym" height="6" width="6" x="-3" y="-3" /><text class="lab" transform="translate(0 11)">9</text></g><g class="a18 c1 node n15 p0" transform="translate(-7.6 9.92845)"><g class="a15 leaf node n6 p0 sample" transform="translate(0.0 8.41183)"><path class="edge" d="M 0 0 V -8.41183 H 0.0" /><rect class="sym" height="6" width="6" x="-3" y="-3" /><text class="lab" transform="translate(0 11)">6</text></g><path class="edge" d="M 0 0 V -9.92845 H 7.6" /><circle class="sym" cx="0" cy="0" r="3" /><text class="lab lft" transform="translate(-3 -7.0)">15</text></g><path class="edge" d="M 0 0 V -6.3818 H 0.0" /><circle class="sym" cx="0" cy="0" r="3" /><text class="lab lft" transform="translate(-3 -7.0)">18</text></g><path class="edge" d="M 0 0 V -8.45699 H 0.0" /><circle class="sym" cx="0" cy="0" r="3" /><text class="lab lft" transform="translate(-3 -7.0)">19</text></g><path class="edge" d="M 0 0 V -2.11522 H -17.1" /><circle class="sym" cx="0" cy="0" r="3" /><text class="lab rgt" transform="translate(3 -7.0)">23</text></g><path class="edge" d="M 0 0 V -59.3057 H -33.725" /><circle class="sym" cx="0" cy="0" r="3" /><text class="lab rgt" transform="translate(3 -7.0)">24</text></g><g class="a30 c1 node n29 p0" transform="translate(-33.725 15.3049)"><g class="a29 c2 node n28 p0" transform="translate(0.0 42.0902)"><g class="a28 c1 node n25 p0" transform="translate(16.15 1.63096)"><g class="a25 leaf node n4 p0 sample" transform="translate(0.0 35.5739)"><path class="edge" d="M 0 0 V -35.5739 H 0.0" /><rect class="sym" height="6" width="6" x="-3" y="-3" /><text class="lab" transform="translate(0 11)">4</text></g><path class="edge" d="M 0 0 V -1.63096 H -16.15" /><circle class="sym" cx="0" cy="0" r="3" /><text class="lab rgt" transform="translate(3 -7.0)">25</text></g><g class="a28 c1 node n27 p0" transform="translate(-16.15 0.297641)"><g class="a27 c1 node n22 p0" transform="translate(0.0 5.00255)"><g class="a22 c2 node n12 p0" transform="translate(0.0 27.2889)"><g class="a12 leaf node n7 p0 sample" transform="translate(17.1 4.61576)"><path class="edge" d="M 0 0 V -4.61576 H -17.1" /><rect class="sym" height="6" width="6" x="-3" y="-3" /><text class="lab" transform="translate(0 11)">7</text></g><g class="a12 c2 node n11 p0" transform="translate(-17.1 0.701608)"><g class="a11 leaf node n0 p0 sample" transform="translate(-11.4 3.91415)"><path class="edge" d="M 0 0 V -3.91415 H 11.4" /><rect class="sym" height="6" width="6" x="-3" y="-3" /><text class="lab" transform="translate(0 11)">0</text></g><g class="a11 c2 node n10 p0" transform="translate(11.4 2.18702)"><g class="a10 leaf node n1 p0 sample" transform="translate(-7.6 1.72713)"><path class="edge" d="M 0 0 V -1.72713 H 7.6" /><rect class="sym" height="6" width="6" x="-3" y="-3" /><text class="lab" transform="translate(0 11)">1</text></g><g class="a10 leaf node n2 p0 sample" transform="translate(7.6 1.72713)"><path class="edge" d="M 0 0 V -1.72713 H -7.6" /><rect class="sym" height="6" width="6" x="-3" y="-3" /><text class="lab" transform="translate(0 11)">2</text></g><path class="edge" d="M 0 0 V -2.18702 H -11.4" /><circle class="sym" cx="0" cy="0" r="3" /><text class="lab rgt" transform="translate(3 -7.0)">10</text></g><path class="edge" d="M 0 0 V -0.701608 H 17.1" /><circle class="sym" cx="0" cy="0" r="3" /><text class="lab lft" transform="translate(-3 -7.0)">11</text></g><path class="edge" d="M 0 0 V -27.2889 H 0.0" /><circle class="sym" cx="0" cy="0" r="3" /><text class="lab lft" transform="translate(-3 -7.0)">12</text></g><path class="edge" d="M 0 0 V -5.00255 H 0.0" /><circle class="sym" cx="0" cy="0" r="3" /><text class="lab lft" transform="translate(-3 -7.0)">22</text></g><path class="edge" d="M 0 0 V -0.297641 H 16.15" /><circle class="sym" cx="0" cy="0" r="3" /><text class="lab lft" transform="translate(-3 -7.0)">27</text></g><path class="edge" d="M 0 0 V -42.0902 H 0.0" /><circle class="sym" cx="0" cy="0" r="3" /><text class="lab lft" transform="translate(-3 -7.0)">28</text></g><path class="edge" d="M 0 0 V -15.3049 H 33.725" /><circle class="sym" cx="0" cy="0" r="3" /><text class="lab lft" transform="translate(-3 -7.0)">29</text></g><circle class="sym" cx="0" cy="0" r="3" /><text class="lab" transform="translate(0 -11)">30</text></g></g></g><g class="tree t2" transform="translate(404 0)"><g class="plotbox"><g class="c2 node n30 p0 root" transform="translate(125.213 26.8)"><g class="a30 c1 node n24 p0" transform="translate(27.7875 59.3057)"><g class="a24 c2 node n21 p0" transform="translate(0.0 8.98117)"><g class="a21 c2 node n13 p0" transform="translate(-11.4 20.377)"><g class="a13 leaf node n3 p0 sample" transform="translate(-7.6 5.93608)"><path class="edge" d="M 0 0 V -5.93608 H 7.6" /><rect class="sym" height="6" width="6" x="-3" y="-3" /><text class="lab" transform="translate(0 11)">3</text></g><g class="a13 leaf node n5 p0 sample" transform="translate(7.6 5.93608)"><path class="edge" d="M 0 0 V -5.93608 H -7.6" /><rect class="sym" height="6" width="6" x="-3" y="-3" /><text class="lab" transform="translate(0 11)">5</text></g><path class="edge" d="M 0 0 V -20.377 H 11.4" /><circle class="sym" cx="0" cy="0" r="3" /><text class="lab lft" transform="translate(-3 -7.0)">13</text></g><g class="a21 c1 node n16 p0" transform="translate(11.4 8.52097)"><g class="a16 leaf node n8 p0 sample" transform="translate(0.0 17.7921)"><path class="edge" d="M 0 0 V -17.7921 H 0.0" /><rect class="sym" height="6" width="6" x="-3" y="-3" /><text class="lab" transform="translate(0 11)">8</text></g><path class="edge" d="M 0 0 V -8.52097 H -11.4" /><circle class="sym" cx="0" cy="0" r="3" /><text class="lab rgt" transform="translate(3 -7.0)">16</text></g><path class="edge" d="M 0 0 V -8.98117 H 0.0" /><circle class="sym" cx="0" cy="0" r="3" /><text class="lab lft" transform="translate(-3 -7.0)">21</text></g><path class="edge" d="M 0 0 V -59.3057 H -27.7875" /><circle class="sym" cx="0" cy="0" r="3" /><text class="lab rgt" transform="translate(3 -7.0)">24</text></g><g class="a30 c1 node n29 p0" transform="translate(-27.7875 15.3049)"><g class="a29 c2 node n28 p0" transform="translate(0.0 42.0902)"><g class="a28 c1 node n25 p0" transform="translate(21.375 1.63096)"><g class="a25 leaf node n4 p0 sample" transform="translate(0.0 35.5739)"><path class="edge" d="M 0 0 V -35.5739 H 0.0" /><rect class="sym" height="6" width="6" x="-3" y="-3" /><text class="lab" transform="translate(0 11)">4</text></g><path class="edge" d="M 0 0 V -1.63096 H -21.375" /><circle class="sym" cx="0" cy="0" r="3" /><text class="lab rgt" transform="translate(3 -7.0)">25</text></g><g class="a28 c1 node n27 p0" transform="translate(-21.375 0.297641)"><g class="a27 c2 node n22 p0" transform="translate(0.0 5.00255)"><g class="a22 c2 node n12 p0" transform="translate(-19.95 27.2889)"><g class="a12 leaf node n7 p0 sample" transform="translate(17.1 4.61576)"><path class="edge" d="M 0 0 V -4.61576 H -17.1" /><rect class="sym" height="6" width="6" x="-3" y="-3" /><text class="lab" transform="translate(0 11)">7</text></g><g class="a12 c2 node n11 p0" transform="translate(-17.1 0.701608)"><g class="a11 leaf node n0 p0 sample" transform="translate(-11.4 3.91415)"><path class="edge" d="M 0 0 V -3.91415 H 11.4" /><rect class="sym" height="6" width="6" x="-3" y="-3" /><text class="lab" transform="translate(0 11)">0</text></g><g class="a11 c2 node n10 p0" transform="translate(11.4 2.18702)"><g class="a10 leaf node n1 p0 sample" transform="translate(-7.6 1.72713)"><path class="edge" d="M 0 0 V -1.72713 H 7.6" /><rect class="sym" height="6" width="6" x="-3" y="-3" /><text class="lab" transform="translate(0 11)">1</text></g><g class="a10 leaf node n2 p0 sample" transform="translate(7.6 1.72713)"><path class="edge" d="M 0 0 V -1.72713 H -7.6" /><rect class="sym" height="6" width="6" x="-3" y="-3" /><text class="lab" transform="translate(0 11)">2</text></g><path class="edge" d="M 0 0 V -2.18702 H -11.4" /><circle class="sym" cx="0" cy="0" r="3" /><text class="lab rgt" transform="translate(3 -7.0)">10</text></g><path class="edge" d="M 0 0 V -0.701608 H 17.1" /><circle class="sym" cx="0" cy="0" r="3" /><text class="lab lft" transform="translate(-3 -7.0)">11</text></g><path class="edge" d="M 0 0 V -27.2889 H 19.95" /><circle class="sym" cx="0" cy="0" r="3" /><text class="lab lft" transform="translate(-3 -7.0)">12</text></g><g class="a22 c1 node n20 p0" transform="translate(19.95 7.18261)"><g class="a20 c2 node n18 p0" transform="translate(0.0 6.3818)"><g class="a18 leaf node n9 p0 sample" transform="translate(7.6 18.3403)"><path class="edge" d="M 0 0 V -18.3403 H -7.6" /><rect class="sym" height="6" width="6" x="-3" y="-3" /><text class="lab" transform="translate(0 11)">9</text></g><g class="a18 c1 node n15 p0" transform="translate(-7.6 9.92845)"><g class="a15 leaf node n6 p0 sample" transform="translate(0.0 8.41183)"><path class="edge" d="M 0 0 V -8.41183 H 0.0" /><rect class="sym" height="6" width="6" x="-3" y="-3" /><text class="lab" transform="translate(0 11)">6</text></g><path class="edge" d="M 0 0 V -9.92845 H 7.6" /><circle class="sym" cx="0" cy="0" r="3" /><text class="lab lft" transform="translate(-3 -7.0)">15</text></g><path class="edge" d="M 0 0 V -6.3818 H 0.0" /><circle class="sym" cx="0" cy="0" r="3" /><text class="lab lft" transform="translate(-3 -7.0)">18</text></g><path class="edge" d="M 0 0 V -7.18261 H -19.95" /><circle class="sym" cx="0" cy="0" r="3" /><text class="lab rgt" transform="translate(3 -7.0)">20</text></g><path class="edge" d="M 0 0 V -5.00255 H 0.0" /><circle class="sym" cx="0" cy="0" r="3" /><text class="lab lft" transform="translate(-3 -7.0)">22</text></g><path class="edge" d="M 0 0 V -0.297641 H 21.375" /><circle class="sym" cx="0" cy="0" r="3" /><text class="lab lft" transform="translate(-3 -7.0)">27</text></g><path class="edge" d="M 0 0 V -42.0902 H 0.0" /><circle class="sym" cx="0" cy="0" r="3" /><text class="lab lft" transform="translate(-3 -7.0)">28</text></g><path class="edge" d="M 0 0 V -15.3049 H 27.7875" /><circle class="sym" cx="0" cy="0" r="3" /><text class="lab lft" transform="translate(-3 -7.0)">29</text></g><circle class="sym" cx="0" cy="0" r="3" /><text class="lab" transform="translate(0 -11)">30</text></g></g></g><g class="tree t3" transform="translate(596 0)"><g class="plotbox"><g class="c2 node n30 p0 root" transform="translate(136.256 26.8)"><g class="a30 c1 node n24 p0" transform="translate(20.5437 59.3057)"><g class="a24 c1 node n21 p0" transform="translate(0.0 8.98117)"><g class="a21 c2 node n13 p0" transform="translate(0.0 20.377)"><g class="a13 leaf node n3 p0 sample" transform="translate(-7.6 5.93608)"><path class="edge" d="M 0 0 V -5.93608 H 7.6" /><rect class="sym" height="6" width="6" x="-3" y="-3" /><text class="lab" transform="translate(0 11)">3</text></g><g class="a13 leaf node n5 p0 sample" transform="translate(7.6 5.93608)"><path class="edge" d="M 0 0 V -5.93608 H -7.6" /><rect class="sym" height="6" width="6" x="-3" y="-3" /><text class="lab" transform="translate(0 11)">5</text></g><path class="edge" d="M 0 0 V -20.377 H 0.0" /><circle class="sym" cx="0" cy="0" r="3" /><text class="lab lft" transform="translate(-3 -7.0)">13</text></g><path class="edge" d="M 0 0 V -8.98117 H 0.0" /><circle class="sym" cx="0" cy="0" r="3" /><text class="lab lft" transform="translate(-3 -7.0)">21</text></g><path class="edge" d="M 0 0 V -59.3057 H -20.5437" /><circle class="sym" cx="0" cy="0" r="3" /><text class="lab rgt" transform="translate(3 -7.0)">24</text></g><g class="a30 c1 node n29 p0" transform="translate(-20.5437 15.3049)"><g class="a29 c2 node n28 p0" transform="translate(0.0 42.0902)"><g class="a28 c1 node n25 p0" transform="translate(18.2875 1.63096)"><g class="a25 leaf node n4 p0 sample" transform="translate(0.0 35.5739)"><path class="edge" d="M 0 0 V -35.5739 H 0.0" /><rect class="sym" height="6" width="6" x="-3" y="-3" /><text class="lab" transform="translate(0 11)">4</text></g><path class="edge" d="M 0 0 V -1.63096 H -18.2875" /><circle class="sym" cx="0" cy="0" r="3" /><text class="lab rgt" transform="translate(3 -7.0)">25</text></g><g class="a28 c2 node n27 p0" transform="translate(-18.2875 0.297641)"><g class="a27 c2 node n22 p0" transform="translate(-21.375 5.00255)"><g class="a22 c2 node n12 p0" transform="translate(-19.95 27.2889)"><g class="a12 leaf node n7 p0 sample" transform="translate(17.1 4.61576)"><path class="edge" d="M 0 0 V -4.61576 H -17.1" /><rect class="sym" height="6" width="6" x="-3" y="-3" /><text class="lab" transform="translate(0 11)">7</text></g><g class="a12 c2 node n11 p0" transform="translate(-17.1 0.701608)"><g class="a11 leaf node n0 p0 sample" transform="translate(-11.4 3.91415)"><path class="edge" d="M 0 0 V -3.91415 H 11.4" /><rect class="sym" height="6" width="6" x="-3" y="-3" /><text class="lab" transform="translate(0 11)">0</text></g><g class="a11 c2 node n10 p0" transform="translate(11.4 2.18702)"><g class="a10 leaf node n1 p0 sample" transform="translate(-7.6 1.72713)"><path class="edge" d="M 0 0 V -1.72713 H 7.6" /><rect class="sym" height="6" width="6" x="-3" y="-3" /><text class="lab" transform="translate(0 11)">1</text></g><g class="a10 leaf node n2 p0 sample" transform="translate(7.6 1.72713)"><path class="edge" d="M 0 0 V -1.72713 H -7.6" /><rect class="sym" height="6" width="6" x="-3" y="-3" /><text class="lab" transform="translate(0 11)">2</text></g><path class="edge" d="M 0 0 V -2.18702 H -11.4" /><circle class="sym" cx="0" cy="0" r="3" /><text class="lab rgt" transform="translate(3 -7.0)">10</text></g><path class="edge" d="M 0 0 V -0.701608 H 17.1" /><circle class="sym" cx="0" cy="0" r="3" /><text class="lab lft" transform="translate(-3 -7.0)">11</text></g><path class="edge" d="M 0 0 V -27.2889 H 19.95" /><circle class="sym" cx="0" cy="0" r="3" /><text class="lab lft" transform="translate(-3 -7.0)">12</text></g><g class="a22 c1 node n20 p0" transform="translate(19.95 7.18261)"><g class="a20 c2 node n18 p0" transform="translate(0.0 6.3818)"><g class="a18 leaf node n9 p0 sample" transform="translate(7.6 18.3403)"><path class="edge" d="M 0 0 V -18.3403 H -7.6" /><rect class="sym" height="6" width="6" x="-3" y="-3" /><text class="lab" transform="translate(0 11)">9</text></g><g class="a18 c1 node n15 p0" transform="translate(-7.6 9.92845)"><g class="a15 leaf node n6 p0 sample" transform="translate(0.0 8.41183)"><path class="edge" d="M 0 0 V -8.41183 H 0.0" /><rect class="sym" height="6" width="6" x="-3" y="-3" /><text class="lab" transform="translate(0 11)">6</text></g><path class="edge" d="M 0 0 V -9.92845 H 7.6" /><circle class="sym" cx="0" cy="0" r="3" /><text class="lab lft" transform="translate(-3 -7.0)">15</text></g><path class="edge" d="M 0 0 V -6.3818 H 0.0" /><circle class="sym" cx="0" cy="0" r="3" /><text class="lab lft" transform="translate(-3 -7.0)">18</text></g><path class="edge" d="M 0 0 V -7.18261 H -19.95" /><circle class="sym" cx="0" cy="0" r="3" /><text class="lab rgt" transform="translate(3 -7.0)">20</text></g><path class="edge" d="M 0 0 V -5.00255 H 21.375" /><circle class="sym" cx="0" cy="0" r="3" /><text class="lab lft" transform="translate(-3 -7.0)">22</text></g><g class="a27 c1 node n17 p0" transform="translate(21.375 19.1151)"><g class="a17 leaf node n8 p0 sample" transform="translate(0.0 17.7921)"><path class="edge" d="M 0 0 V -17.7921 H 0.0" /><rect class="sym" height="6" width="6" x="-3" y="-3" /><text class="lab" transform="translate(0 11)">8</text></g><path class="edge" d="M 0 0 V -19.1151 H -21.375" /><circle class="sym" cx="0" cy="0" r="3" /><text class="lab rgt" transform="translate(3 -7.0)">17</text></g><path class="edge" d="M 0 0 V -0.297641 H 18.2875" /><circle class="sym" cx="0" cy="0" r="3" /><text class="lab lft" transform="translate(-3 -7.0)">27</text></g><path class="edge" d="M 0 0 V -42.0902 H 0.0" /><circle class="sym" cx="0" cy="0" r="3" /><text class="lab lft" transform="translate(-3 -7.0)">28</text></g><path class="edge" d="M 0 0 V -15.3049 H 20.5437" /><circle class="sym" cx="0" cy="0" r="3" /><text class="lab lft" transform="translate(-3 -7.0)">29</text></g><circle class="sym" cx="0" cy="0" r="3" /><text class="lab" transform="translate(0 -11)">30</text></g></g></g><g class="tree t4" transform="translate(788 0)"><g class="plotbox"><g class="c2 node n30 p0 root" transform="translate(136.256 26.8)"><g class="a30 c1 node n24 p0" transform="translate(20.5437 59.3057)"><g class="a24 c1 node n21 p0" transform="translate(0.0 8.98117)"><g class="a21 c2 node n13 p0" transform="translate(0.0 20.377)"><g class="a13 leaf node n3 p0 sample" transform="translate(-7.6 5.93608)"><path class="edge" d="M 0 0 V -5.93608 H 7.6" /><rect class="sym" height="6" width="6" x="-3" y="-3" /><text class="lab" transform="translate(0 11)">3</text></g><g class="a13 leaf node n5 p0 sample" transform="translate(7.6 5.93608)"><path class="edge" d="M 0 0 V -5.93608 H -7.6" /><rect class="sym" height="6" width="6" x="-3" y="-3" /><text class="lab" transform="translate(0 11)">5</text></g><path class="edge" d="M 0 0 V -20.377 H 0.0" /><circle class="sym" cx="0" cy="0" r="3" /><text class="lab lft" transform="translate(-3 -7.0)">13</text></g><path class="edge" d="M 0 0 V -8.98117 H 0.0" /><circle class="sym" cx="0" cy="0" r="3" /><text class="lab lft" transform="translate(-3 -7.0)">21</text></g><path class="edge" d="M 0 0 V -59.3057 H -20.5437" /><circle class="sym" cx="0" cy="0" r="3" /><text class="lab rgt" transform="translate(3 -7.0)">24</text></g><g class="a30 c2 node n29 p0" transform="translate(-20.5437 15.3049)"><g class="a29 c1 node n28 p0" transform="translate(-18.2875 42.0902)"><g class="a28 c2 node n27 p0" transform="translate(0.0 0.297641)"><g class="a27 c2 node n22 p0" transform="translate(-21.375 5.00255)"><g class="a22 c2 node n12 p0" transform="translate(-19.95 27.2889)"><g class="a12 leaf node n7 p0 sample" transform="translate(17.1 4.61576)"><path class="edge" d="M 0 0 V -4.61576 H -17.1" /><rect class="sym" height="6" width="6" x="-3" y="-3" /><text class="lab" transform="translate(0 11)">7</text></g><g class="a12 c2 node n11 p0" transform="translate(-17.1 0.701608)"><g class="a11 leaf node n0 p0 sample" transform="translate(-11.4 3.91415)"><path class="edge" d="M 0 0 V -3.91415 H 11.4" /><rect class="sym" height="6" width="6" x="-3" y="-3" /><text class="lab" transform="translate(0 11)">0</text></g><g class="a11 c2 node n10 p0" transform="translate(11.4 2.18702)"><g class="a10 leaf node n1 p0 sample" transform="translate(-7.6 1.72713)"><path class="edge" d="M 0 0 V -1.72713 H 7.6" /><rect class="sym" height="6" width="6" x="-3" y="-3" /><text class="lab" transform="translate(0 11)">1</text></g><g class="a10 leaf node n2 p0 sample" transform="translate(7.6 1.72713)"><path class="edge" d="M 0 0 V -1.72713 H -7.6" /><rect class="sym" height="6" width="6" x="-3" y="-3" /><text class="lab" transform="translate(0 11)">2</text></g><path class="edge" d="M 0 0 V -2.18702 H -11.4" /><circle class="sym" cx="0" cy="0" r="3" /><text class="lab rgt" transform="translate(3 -7.0)">10</text></g><path class="edge" d="M 0 0 V -0.701608 H 17.1" /><circle class="sym" cx="0" cy="0" r="3" /><text class="lab lft" transform="translate(-3 -7.0)">11</text></g><path class="edge" d="M 0 0 V -27.2889 H 19.95" /><circle class="sym" cx="0" cy="0" r="3" /><text class="lab lft" transform="translate(-3 -7.0)">12</text></g><g class="a22 c1 node n20 p0" transform="translate(19.95 7.18261)"><g class="a20 c2 node n18 p0" transform="translate(0.0 6.3818)"><g class="a18 leaf node n9 p0 sample" transform="translate(7.6 18.3403)"><path class="edge" d="M 0 0 V -18.3403 H -7.6" /><rect class="sym" height="6" width="6" x="-3" y="-3" /><text class="lab" transform="translate(0 11)">9</text></g><g class="a18 c1 node n15 p0" transform="translate(-7.6 9.92845)"><g class="a15 leaf node n6 p0 sample" transform="translate(0.0 8.41183)"><path class="edge" d="M 0 0 V -8.41183 H 0.0" /><rect class="sym" height="6" width="6" x="-3" y="-3" /><text class="lab" transform="translate(0 11)">6</text></g><path class="edge" d="M 0 0 V -9.92845 H 7.6" /><circle class="sym" cx="0" cy="0" r="3" /><text class="lab lft" transform="translate(-3 -7.0)">15</text></g><path class="edge" d="M 0 0 V -6.3818 H 0.0" /><circle class="sym" cx="0" cy="0" r="3" /><text class="lab lft" transform="translate(-3 -7.0)">18</text></g><path class="edge" d="M 0 0 V -7.18261 H -19.95" /><circle class="sym" cx="0" cy="0" r="3" /><text class="lab rgt" transform="translate(3 -7.0)">20</text></g><path class="edge" d="M 0 0 V -5.00255 H 21.375" /><circle class="sym" cx="0" cy="0" r="3" /><text class="lab lft" transform="translate(-3 -7.0)">22</text></g><g class="a27 c1 node n17 p0" transform="translate(21.375 19.1151)"><g class="a17 leaf node n8 p0 sample" transform="translate(0.0 17.7921)"><path class="edge" d="M 0 0 V -17.7921 H 0.0" /><rect class="sym" height="6" width="6" x="-3" y="-3" /><text class="lab" transform="translate(0 11)">8</text></g><path class="edge" d="M 0 0 V -19.1151 H -21.375" /><circle class="sym" cx="0" cy="0" r="3" /><text class="lab rgt" transform="translate(3 -7.0)">17</text></g><path class="edge" d="M 0 0 V -0.297641 H 0.0" /><circle class="sym" cx="0" cy="0" r="3" /><text class="lab lft" transform="translate(-3 -7.0)">27</text></g><path class="edge" d="M 0 0 V -42.0902 H 18.2875" /><circle class="sym" cx="0" cy="0" r="3" /><text class="lab lft" transform="translate(-3 -7.0)">28</text></g><g class="a29 c1 node n26 p0" transform="translate(18.2875 43.7211)"><g class="a26 leaf node n4 p0 sample" transform="translate(0.0 35.5739)"><path class="edge" d="M 0 0 V -35.5739 H 0.0" /><rect class="sym" height="6" width="6" x="-3" y="-3" /><text class="lab" transform="translate(0 11)">4</text></g><path class="edge" d="M 0 0 V -43.7211 H -18.2875" /><circle class="sym" cx="0" cy="0" r="3" /><text class="lab rgt" transform="translate(3 -7.0)">26</text></g><path class="edge" d="M 0 0 V -15.3049 H 20.5437" /><circle class="sym" cx="0" cy="0" r="3" /><text class="lab lft" transform="translate(-3 -7.0)">29</text></g><circle class="sym" cx="0" cy="0" r="3" /><text class="lab" transform="translate(0 -11)">30</text></g></g></g></g></g></svg>
