<svg baseProfile="full" height="200" version="1.1" width="1200" xmlns="http://www.w3.org/2000/svg" xmlns:ev="http://www.w3.org/2001/xml-events" xmlns:xlink="http://www.w3.org/1999/xlink"><defs><style type="text/css"><![CDATA[.background path {fill: #808080; fill-opacity: 0}.background path:nth-child(odd) {fill-opacity: .1}.axes {font-size: 14px}.x-axis .tick .lab {font-weight: bold; dominant-baseline: hanging}.axes, .tree {font-size: 14px; text-anchor: middle}.axes line, .edge {stroke: black; fill: none}.y-axis .grid {stroke: #FAFAFA}.node > .sym {fill: black; stroke: none}.site > .sym {stroke: black}.mut text {fill: red; font-style: italic}.mut.extra text {fill: hotpink}.mut line {fill: none; stroke: none}.mut .sym {fill: none; stroke: red}.mut.extra .sym {stroke: hotpink}.node .mut .sym {stroke-width: 1.5px}.tree text, .tree-sequence text {dominant-baseline: central}.plotbox .lab.lft {text-anchor: end}.plotbox .lab.rgt {text-anchor: start}]]></style></defs><g class="tree-sequence"><g class="background"><path d="M20,0 l193.333,0 l0,138.2 l113.109,25 l0,5 l-306.442,0 l0,-5 l0,-25 l0,-138.2z" /><path d="M213.333,0 l193.333,0 l0,138.2 l139.283,25 l0,5 l-219.508,0 l0,-5 l-113.109,-25 l0,-138.2z" /><path d="M406.667,0 l193.333,0 l0,138.2 l112.834,25 l0,5 l-166.884,0 l0,-5 l-139.283,-25 l0,-138.2z" /><path d="M600,0 l193.333,0 l0,138.2 l12.8223,25 l0,5 l-93.3212,0 l0,-5 l-112.834,-25 l0,-138.2z" /><path d="M793.333,0 l193.333,0 l0,138.2 l121.14,25 l0,5 l-301.651,0 l0,-5 l-12.8223,-25 l0,-138.2z" /><path d="M986.667,0 l193.333,0 l0,138.2 l0,25 l0,5 l-72.1932,0 l0,-5 l-121.14,-25 l0,-138.2z" /></g><g class="axes"><g class="x-axis"><g transform="translate(600 200)"><text class="lab" text-anchor="middle" transform="translate(0 -11)">Genome position</text></g><line x1="20" x2="1180" y1="163.2" y2="163.2" /><g class="ticks"><g class="tick" transform="translate(20 163.2)"><line x1="0" x2="0" y1="0" y2="5" /><g transform="translate(0 6)"><text class="lab">0.00</text></g></g><g class="tick" transform="translate(326.442 163.2)"><line x1="0" x2="0" y1="0" y2="5" /><g transform="translate(0 6)"><text class="lab">264.17</text></g></g><g class="tick" transform="translate(545.95 163.2)"><line x1="0" x2="0" y1="0" y2="5" /><g transform="translate(0 6)"><text class="lab">453.41</text></g></g><g class="tick" transform="translate(712.834 163.2)"><line x1="0" x2="0" y1="0" y2="5" /><g transform="translate(0 6)"><text class="lab">597.27</text></g></g><g class="tick" transform="translate(806.156 163.2)"><line x1="0" x2="0" y1="0" y2="5" /><g transform="translate(0 6)"><text class="lab">677.72</text></g></g><g class="tick" transform="translate(1107.81 163.2)"><line x1="0" x2="0" y1="0" y2="5" /><g transform="translate(0 6)"><text class="lab">937.76</text></g></g><g class="tick" transform="translate(1180 163.2)"><line x1="0" x2="0" y1="0" y2="5" /><g transform="translate(0 6)"><text class="lab">1000.00</text></g></g></g></g></g><g class="plotbox trees"><g class="tree t0" transform="translate(20 0)"><g class="plotbox"><g class="c2 node n33 p0 root" transform="translate(136.318 26.8)"><g class="a33 c2 node n30 p0" transform="translate(-21.6823 41.1362)"><g class="a30 c1 node n11 p0" transform="translate(20.3646 48.7921)"><g class="a11 leaf node n6 p0 sample" transform="translate(0.0 4.67174)"><path class="edge" d="M 0 0 V -4.67174 H 0.0" /><rect class="sym" height="6" width="6" x="-3" y="-3" /><text class="lab" transform="translate(0 11)">6</text></g><path class="edge" d="M 0 0 V -48.7921 H -20.3646" /><circle class="sym" cx="0" cy="0" r="3" /><text class="lab rgt" transform="translate(3 -7.0)">11</text></g><g class="a30 c2 node n28 p0" transform="translate(-20.3646 12.9794)"><g class="a28 leaf node n8 p0 sample" transform="translate(25.3958 40.4844)"><path class="edge" d="M 0 0 V -40.4844 H -25.3958" /><rect class="sym" height="6" width="6" x="-3" y="-3" /><text class="lab" transform="translate(0 11)">8</text></g><g class="a28 c1 node n27 p0" transform="translate(-25.3958 0.990549)"><g class="a27 c2 node n26 p0" transform="translate(0.0 14.1478)"><g class="a26 c2 node n24 p0" transform="translate(27.7917 2.15743)"><g class="a24 leaf node n3 p0 sample" transform="translate(-7.66667 23.1887)"><path class="edge" d="M 0 0 V -23.1887 H 7.66667" /><rect class="sym" height="6" width="6" x="-3" y="-3" /><text class="lab" transform="translate(0 11)">3</text></g><g class="a24 c1 node n19 p0" transform="translate(7.66667 1.30307)"><g class="a19 leaf node n5 p0 sample" transform="translate(0.0 21.8856)"><path class="edge" d="M 0 0 V -21.8856 H 0.0" /><rect class="sym" height="6" width="6" x="-3" y="-3" /><text class="lab" transform="translate(0 11)">5</text></g><path class="edge" d="M 0 0 V -1.30307 H -7.66667" /><circle class="sym" cx="0" cy="0" r="3" /><text class="lab rgt" transform="translate(3 -7.0)">19</text></g><path class="edge" d="M 0 0 V -2.15743 H -27.7917" /><circle class="sym" cx="0" cy="0" r="3" /><text class="lab rgt" transform="translate(3 -7.0)">24</text></g><g class="a26 c2 node n25 p0" transform="translate(-27.7917 0.108224)"><g class="a25 c2 node n21 p0" transform="translate(13.4167 2.99189)"><g class="a21 c2 node n16 p0" transform="translate(11.5 6.75061)"><g class="a16 leaf node n2 p0 sample" transform="translate(-7.66667 15.4954)"><path class="edge" d="M 0 0 V -15.4954 H 7.66667" /><rect class="sym" height="6" width="6" x="-3" y="-3" /><text class="lab" transform="translate(0 11)">2</text></g><g class="a16 leaf node n9 p0 sample" transform="translate(7.66667 15.4954)"><path class="edge" d="M 0 0 V -15.4954 H -7.66667" /><rect class="sym" height="6" width="6" x="-3" y="-3" /><text class="lab" transform="translate(0 11)">9</text></g><path class="edge" d="M 0 0 V -6.75061 H -11.5" /><circle class="sym" cx="0" cy="0" r="3" /><text class="lab rgt" transform="translate(3 -7.0)">16</text></g><g class="a21 c1 node n17 p0" transform="translate(-11.5 5.3917)"><g class="a17 c1 node n13 p0" transform="translate(0.0 9.18857)"><g class="a13 leaf node n1 p0 sample" transform="translate(0.0 7.66572)"><path class="edge" d="M 0 0 V -7.66572 H 0.0" /><rect class="sym" height="6" width="6" x="-3" y="-3" /><text class="lab" transform="translate(0 11)">1</text></g><path class="edge" d="M 0 0 V -9.18857 H 0.0" /><circle class="sym" cx="0" cy="0" r="3" /><text class="lab lft" transform="translate(-3 -7.0)">13</text></g><path class="edge" d="M 0 0 V -5.3917 H 11.5" /><circle class="sym" cx="0" cy="0" r="3" /><text class="lab lft" transform="translate(-3 -7.0)">17</text></g><path class="edge" d="M 0 0 V -2.99189 H -13.4167" /><circle class="sym" cx="0" cy="0" r="3" /><text class="lab rgt" transform="translate(3 -7.0)">21</text></g><g class="a25 c1 node n22 p0" transform="translate(-13.4167 2.64355)"><g class="a22 c1 node n15 p0" transform="translate(0.0 8.74408)"><g class="a15 leaf node n0 p0 sample" transform="translate(0.0 13.8503)"><path class="edge" d="M 0 0 V -13.8503 H 0.0" /><rect class="sym" height="6" width="6" x="-3" y="-3" /><text class="lab" transform="translate(0 11)">0</text></g><path class="edge" d="M 0 0 V -8.74408 H 0.0" /><circle class="sym" cx="0" cy="0" r="3" /><text class="lab lft" transform="translate(-3 -7.0)">15</text></g><path class="edge" d="M 0 0 V -2.64355 H 13.4167" /><circle class="sym" cx="0" cy="0" r="3" /><text class="lab lft" transform="translate(-3 -7.0)">22</text></g><path class="edge" d="M 0 0 V -0.108224 H 27.7917" /><circle class="sym" cx="0" cy="0" r="3" /><text class="lab lft" transform="translate(-3 -7.0)">25</text></g><path class="edge" d="M 0 0 V -14.1478 H 0.0" /><circle class="sym" cx="0" cy="0" r="3" /><text class="lab lft" transform="translate(-3 -7.0)">26</text></g><path class="edge" d="M 0 0 V -0.990549 H 25.3958" /><circle class="sym" cx="0" cy="0" r="3" /><text class="lab lft" transform="translate(-3 -7.0)">27</text></g><path class="edge" d="M 0 0 V -12.9794 H 20.3646" /><circle class="sym" cx="0" cy="0" r="3" /><text class="lab lft" transform="translate(-3 -7.0)">28</text></g><path class="edge" d="M 0 0 V -41.1362 H 21.6823" /><circle class="sym" cx="0" cy="0" r="3" /><text class="lab lft" transform="translate(-3 -7.0)">30</text></g><g class="a33 c1 node n32 p0" transform="translate(21.6823 25.9054)"><g class="a32 c1 node n31 p0" transform="translate(0.0 7.32273)"><g class="a31 c2 node n10 p0" transform="translate(0.0 61.1965)"><g class="a10 leaf node n4 p0 sample" transform="translate(-7.66667 0.175322)"><path class="edge" d="M 0 0 V -0.175322 H 7.66667" /><rect class="sym" height="6" width="6" x="-3" y="-3" /><text class="lab" transform="translate(0 11)">4</text></g><g class="a10 leaf node n7 p0 sample" transform="translate(7.66667 0.175322)"><path class="edge" d="M 0 0 V -0.175322 H -7.66667" /><rect class="sym" height="6" width="6" x="-3" y="-3" /><text class="lab" transform="translate(0 11)">7</text></g><path class="edge" d="M 0 0 V -61.1965 H 0.0" /><circle class="sym" cx="0" cy="0" r="3" /><text class="lab lft" transform="translate(-3 -7.0)">10</text></g><path class="edge" d="M 0 0 V -7.32273 H 0.0" /><circle class="sym" cx="0" cy="0" r="3" /><text class="lab lft" transform="translate(-3 -7.0)">31</text></g><path class="edge" d="M 0 0 V -25.9054 H -21.6823" /><circle class="sym" cx="0" cy="0" r="3" /><text class="lab rgt" transform="translate(3 -7.0)">32</text></g><circle class="sym" cx="0" cy="0" r="3" /><text class="lab" transform="translate(0 -11)">33</text></g></g></g><g class="tree t1" transform="translate(213.333 0)"><g class="plotbox"><g class="c2 node n33 p0 root" transform="translate(137.995 26.8)"><g class="a33 c2 node n30 p0" transform="translate(-20.0052 41.1362)"><g class="a30 c1 node n11 p0" transform="translate(17.0104 48.7921)"><g class="a11 leaf node n6 p0 sample" transform="translate(0.0 4.67174)"><path class="edge" d="M 0 0 V -4.67174 H 0.0" /><rect class="sym" height="6" width="6" x="-3" y="-3" /><text class="lab" transform="translate(0 11)">6</text></g><path class="edge" d="M 0 0 V -48.7921 H -17.0104" /><circle class="sym" cx="0" cy="0" r="3" /><text class="lab rgt" transform="translate(3 -7.0)">11</text></g><g class="a30 c2 node n28 p0" transform="translate(-17.0104 12.9794)"><g class="a28 leaf node n8 p0 sample" transform="translate(18.6875 40.4844)"><path class="edge" d="M 0 0 V -40.4844 H -18.6875" /><rect class="sym" height="6" width="6" x="-3" y="-3" /><text class="lab" transform="translate(0 11)">8</text></g><g class="a28 c2 node n27 p0" transform="translate(-18.6875 0.990549)"><g class="a27 c2 node n26 p0" transform="translate(-22.0417 14.1478)"><g class="a26 c2 node n24 p0" transform="translate(21.0833 2.15743)"><g class="a24 leaf node n3 p0 sample" transform="translate(-7.66667 23.1887)"><path class="edge" d="M 0 0 V -23.1887 H 7.66667" /><rect class="sym" height="6" width="6" x="-3" y="-3" /><text class="lab" transform="translate(0 11)">3</text></g><g class="a24 c1 node n19 p0" transform="translate(7.66667 1.30307)"><g class="a19 leaf node n5 p0 sample" transform="translate(0.0 21.8856)"><path class="edge" d="M 0 0 V -21.8856 H 0.0" /><rect class="sym" height="6" width="6" x="-3" y="-3" /><text class="lab" transform="translate(0 11)">5</text></g><path class="edge" d="M 0 0 V -1.30307 H -7.66667" /><circle class="sym" cx="0" cy="0" r="3" /><text class="lab rgt" transform="translate(3 -7.0)">19</text></g><path class="edge" d="M 0 0 V -2.15743 H -21.0833" /><circle class="sym" cx="0" cy="0" r="3" /><text class="lab rgt" transform="translate(3 -7.0)">24</text></g><g class="a26 c2 node n25 p0" transform="translate(-21.0833 0.108224)"><g class="a25 c1 node n21 p0" transform="translate(11.5 2.99189)"><g class="a21 c2 node n16 p0" transform="translate(0.0 6.75061)"><g class="a16 leaf node n2 p0 sample" transform="translate(-7.66667 15.4954)"><path class="edge" d="M 0 0 V -15.4954 H 7.66667" /><rect class="sym" height="6" width="6" x="-3" y="-3" /><text class="lab" transform="translate(0 11)">2</text></g><g class="a16 leaf node n9 p0 sample" transform="translate(7.66667 15.4954)"><path class="edge" d="M 0 0 V -15.4954 H -7.66667" /><rect class="sym" height="6" width="6" x="-3" y="-3" /><text class="lab" transform="translate(0 11)">9</text></g><path class="edge" d="M 0 0 V -6.75061 H 0.0" /><circle class="sym" cx="0" cy="0" r="3" /><text class="lab lft" transform="translate(-3 -7.0)">16</text></g><path class="edge" d="M 0 0 V -2.99189 H -11.5" /><circle class="sym" cx="0" cy="0" r="3" /><text class="lab rgt" transform="translate(3 -7.0)">21</text></g><g class="a25 c1 node n22 p0" transform="translate(-11.5 2.64355)"><g class="a22 c1 node n15 p0" transform="translate(0.0 8.74408)"><g class="a15 leaf node n0 p0 sample" transform="translate(0.0 13.8503)"><path class="edge" d="M 0 0 V -13.8503 H 0.0" /><rect class="sym" height="6" width="6" x="-3" y="-3" /><text class="lab" transform="translate(0 11)">0</text></g><path class="edge" d="M 0 0 V -8.74408 H 0.0" /><circle class="sym" cx="0" cy="0" r="3" /><text class="lab lft" transform="translate(-3 -7.0)">15</text></g><path class="edge" d="M 0 0 V -2.64355 H 11.5" /><circle class="sym" cx="0" cy="0" r="3" /><text class="lab lft" transform="translate(-3 -7.0)">22</text></g><path class="edge" d="M 0 0 V -0.108224 H 21.0833" /><circle class="sym" cx="0" cy="0" r="3" /><text class="lab lft" transform="translate(-3 -7.0)">25</text></g><path class="edge" d="M 0 0 V -14.1478 H 22.0417" /><circle class="sym" cx="0" cy="0" r="3" /><text class="lab lft" transform="translate(-3 -7.0)">26</text></g><g class="a27 c1 node n18 p0" transform="translate(22.0417 22.6396)"><g class="a18 c1 node n13 p0" transform="translate(0.0 9.18857)"><g class="a13 leaf node n1 p0 sample" transform="translate(0.0 7.66572)"><path class="edge" d="M 0 0 V -7.66572 H 0.0" /><rect class="sym" height="6" width="6" x="-3" y="-3" /><text class="lab" transform="translate(0 11)">1</text></g><path class="edge" d="M 0 0 V -9.18857 H 0.0" /><circle class="sym" cx="0" cy="0" r="3" /><text class="lab lft" transform="translate(-3 -7.0)">13</text></g><path class="edge" d="M 0 0 V -22.6396 H -22.0417" /><circle class="sym" cx="0" cy="0" r="3" /><text class="lab rgt" transform="translate(3 -7.0)">18</text></g><path class="edge" d="M 0 0 V -0.990549 H 18.6875" /><circle class="sym" cx="0" cy="0" r="3" /><text class="lab lft" transform="translate(-3 -7.0)">27</text></g><path class="edge" d="M 0 0 V -12.9794 H 17.0104" /><circle class="sym" cx="0" cy="0" r="3" /><text class="lab lft" transform="translate(-3 -7.0)">28</text></g><path class="edge" d="M 0 0 V -41.1362 H 20.0052" /><circle class="sym" cx="0" cy="0" r="3" /><text class="lab lft" transform="translate(-3 -7.0)">30</text></g><g class="a33 c1 node n32 p0" transform="translate(20.0052 25.9054)"><g class="a32 c1 node n31 p0" transform="translate(0.0 7.32273)"><g class="a31 c2 node n10 p0" transform="translate(0.0 61.1965)"><g class="a10 leaf node n4 p0 sample" transform="translate(-7.66667 0.175322)"><path class="edge" d="M 0 0 V -0.175322 H 7.66667" /><rect class="sym" height="6" width="6" x="-3" y="-3" /><text class="lab" transform="translate(0 11)">4</text></g><g class="a10 leaf node n7 p0 sample" transform="translate(7.66667 0.175322)"><path class="edge" d="M 0 0 V -0.175322 H -7.66667" /><rect class="sym" height="6" width="6" x="-3" y="-3" /><text class="lab" transform="translate(0 11)">7</text></g><path class="edge" d="M 0 0 V -61.1965 H 0.0" /><circle class="sym" cx="0" cy="0" r="3" /><text class="lab lft" transform="translate(-3 -7.0)">10</text></g><path class="edge" d="M 0 0 V -7.32273 H 0.0" /><circle class="sym" cx="0" cy="0" r="3" /><text class="lab lft" transform="translate(-3 -7.0)">31</text></g><path class="edge" d="M 0 0 V -25.9054 H -20.0052" /><circle class="sym" cx="0" cy="0" r="3" /><text class="lab rgt" transform="translate(3 -7.0)">32</text></g><circle class="sym" cx="0" cy="0" r="3" /><text class="lab" transform="translate(0 -11)">33</text></g></g></g><g class="tree t2" transform="translate(406.667 0)"><g class="plotbox"><g class="c2 node n33 p0 root" transform="translate(136.917 26.8)"><g class="a33 c1 node n30 p0" transform="translate(-21.0833 41.1362)"><g class="a30 c2 node n28 p0" transform="translate(0.0 12.9794)"><g class="a28 leaf node n8 p0 sample" transform="translate(19.1667 40.4844)"><path class="edge" d="M 0 0 V -40.4844 H -19.1667" /><rect class="sym" height="6" width="6" x="-3" y="-3" /><text class="lab" transform="translate(0 11)">8</text></g><g class="a28 c2 node n27 p0" transform="translate(-19.1667 0.990549)"><g class="a27 c2 node n26 p0" transform="translate(-23 14.1478)"><g class="a26 c2 node n24 p0" transform="translate(23 2.15743)"><g class="a24 leaf node n3 p0 sample" transform="translate(-7.66667 23.1887)"><path class="edge" d="M 0 0 V -23.1887 H 7.66667" /><rect class="sym" height="6" width="6" x="-3" y="-3" /><text class="lab" transform="translate(0 11)">3</text></g><g class="a24 c1 node n19 p0" transform="translate(7.66667 1.30307)"><g class="a19 leaf node n5 p0 sample" transform="translate(0.0 21.8856)"><path class="edge" d="M 0 0 V -21.8856 H 0.0" /><rect class="sym" height="6" width="6" x="-3" y="-3" /><text class="lab" transform="translate(0 11)">5</text></g><path class="edge" d="M 0 0 V -1.30307 H -7.66667" /><circle class="sym" cx="0" cy="0" r="3" /><text class="lab rgt" transform="translate(3 -7.0)">19</text></g><path class="edge" d="M 0 0 V -2.15743 H -23" /><circle class="sym" cx="0" cy="0" r="3" /><text class="lab rgt" transform="translate(3 -7.0)">24</text></g><g class="a26 c2 node n25 p0" transform="translate(-23 0.108224)"><g class="a25 c1 node n21 p0" transform="translate(15.3333 2.99189)"><g class="a21 c2 node n16 p0" transform="translate(0.0 6.75061)"><g class="a16 leaf node n2 p0 sample" transform="translate(-7.66667 15.4954)"><path class="edge" d="M 0 0 V -15.4954 H 7.66667" /><rect class="sym" height="6" width="6" x="-3" y="-3" /><text class="lab" transform="translate(0 11)">2</text></g><g class="a16 leaf node n9 p0 sample" transform="translate(7.66667 15.4954)"><path class="edge" d="M 0 0 V -15.4954 H -7.66667" /><rect class="sym" height="6" width="6" x="-3" y="-3" /><text class="lab" transform="translate(0 11)">9</text></g><path class="edge" d="M 0 0 V -6.75061 H 0.0" /><circle class="sym" cx="0" cy="0" r="3" /><text class="lab lft" transform="translate(-3 -7.0)">16</text></g><path class="edge" d="M 0 0 V -2.99189 H -15.3333" /><circle class="sym" cx="0" cy="0" r="3" /><text class="lab rgt" transform="translate(3 -7.0)">21</text></g><g class="a25 c1 node n22 p0" transform="translate(-15.3333 2.64355)"><g class="a22 c2 node n15 p0" transform="translate(0.0 8.74408)"><g class="a15 leaf node n0 p0 sample" transform="translate(-7.66667 13.8503)"><path class="edge" d="M 0 0 V -13.8503 H 7.66667" /><rect class="sym" height="6" width="6" x="-3" y="-3" /><text class="lab" transform="translate(0 11)">0</text></g><g class="a15 c1 node n12 p0" transform="translate(7.66667 9.17851)"><g class="a12 leaf node n6 p0 sample" transform="translate(0.0 4.67174)"><path class="edge" d="M 0 0 V -4.67174 H 0.0" /><rect class="sym" height="6" width="6" x="-3" y="-3" /><text class="lab" transform="translate(0 11)">6</text></g><path class="edge" d="M 0 0 V -9.17851 H -7.66667" /><circle class="sym" cx="0" cy="0" r="3" /><text class="lab rgt" transform="translate(3 -7.0)">12</text></g><path class="edge" d="M 0 0 V -8.74408 H 0.0" /><circle class="sym" cx="0" cy="0" r="3" /><text class="lab lft" transform="translate(-3 -7.0)">15</text></g><path class="edge" d="M 0 0 V -2.64355 H 15.3333" /><circle class="sym" cx="0" cy="0" r="3" /><text class="lab lft" transform="translate(-3 -7.0)">22</text></g><path class="edge" d="M 0 0 V -0.108224 H 23" /><circle class="sym" cx="0" cy="0" r="3" /><text class="lab lft" transform="translate(-3 -7.0)">25</text></g><path class="edge" d="M 0 0 V -14.1478 H 23" /><circle class="sym" cx="0" cy="0" r="3" /><text class="lab lft" transform="translate(-3 -7.0)">26</text></g><g class="a27 c1 node n18 p0" transform="translate(23 22.6396)"><g class="a18 c1 node n13 p0" transform="translate(0.0 9.18857)"><g class="a13 leaf node n1 p0 sample" transform="translate(0.0 7.66572)"><path class="edge" d="M 0 0 V -7.66572 H 0.0" /><rect class="sym" height="6" width="6" x="-3" y="-3" /><text class="lab" transform="translate(0 11)">1</text></g><path class="edge" d="M 0 0 V -9.18857 H 0.0" /><circle class="sym" cx="0" cy="0" r="3" /><text class="lab lft" transform="translate(-3 -7.0)">13</text></g><path class="edge" d="M 0 0 V -22.6396 H -23" /><circle class="sym" cx="0" cy="0" r="3" /><text class="lab rgt" transform="translate(3 -7.0)">18</text></g><path class="edge" d="M 0 0 V -0.990549 H 19.1667" /><circle class="sym" cx="0" cy="0" r="3" /><text class="lab lft" transform="translate(-3 -7.0)">27</text></g><path class="edge" d="M 0 0 V -12.9794 H 0.0" /><circle class="sym" cx="0" cy="0" r="3" /><text class="lab lft" transform="translate(-3 -7.0)">28</text></g><path class="edge" d="M 0 0 V -41.1362 H 21.0833" /><circle class="sym" cx="0" cy="0" r="3" /><text class="lab lft" transform="translate(-3 -7.0)">30</text></g><g class="a33 c1 node n32 p0" transform="translate(21.0833 25.9054)"><g class="a32 c1 node n31 p0" transform="translate(0.0 7.32273)"><g class="a31 c2 node n10 p0" transform="translate(0.0 61.1965)"><g class="a10 leaf node n4 p0 sample" transform="translate(-7.66667 0.175322)"><path class="edge" d="M 0 0 V -0.175322 H 7.66667" /><rect class="sym" height="6" width="6" x="-3" y="-3" /><text class="lab" transform="translate(0 11)">4</text></g><g class="a10 leaf node n7 p0 sample" transform="translate(7.66667 0.175322)"><path class="edge" d="M 0 0 V -0.175322 H -7.66667" /><rect class="sym" height="6" width="6" x="-3" y="-3" /><text class="lab" transform="translate(0 11)">7</text></g><path class="edge" d="M 0 0 V -61.1965 H 0.0" /><circle class="sym" cx="0" cy="0" r="3" /><text class="lab lft" transform="translate(-3 -7.0)">10</text></g><path class="edge" d="M 0 0 V -7.32273 H 0.0" /><circle class="sym" cx="0" cy="0" r="3" /><text class="lab lft" transform="translate(-3 -7.0)">31</text></g><path class="edge" d="M 0 0 V -25.9054 H -21.0833" /><circle class="sym" cx="0" cy="0" r="3" /><text class="lab rgt" transform="translate(3 -7.0)">32</text></g><circle class="sym" cx="0" cy="0" r="3" /><text class="lab" transform="translate(0 -11)">33</text></g></g></g><g class="tree t3" transform="translate(600 0)"><g class="plotbox"><g class="c2 node n33 p0 root" transform="translate(128.771 26.8)"><g class="a33 c1 node n30 p0" transform="translate(-25.3958 41.1362)"><g class="a30 c2 node n28 p0" transform="translate(0.0 12.9794)"><g class="a28 leaf node n8 p0 sample" transform="translate(16.2917 40.4844)"><path class="edge" d="M 0 0 V -40.4844 H -16.2917" /><rect class="sym" height="6" width="6" x="-3" y="-3" /><text class="lab" transform="translate(0 11)">8</text></g><g class="a28 c2 node n27 p0" transform="translate(-16.2917 0.990549)"><g class="a27 c2 node n26 p0" transform="translate(-17.25 14.1478)"><g class="a26 c1 node n24 p0" transform="translate(19.1667 2.15743)"><g class="a24 leaf node n3 p0 sample" transform="translate(0.0 23.1887)"><path class="edge" d="M 0 0 V -23.1887 H 0.0" /><rect class="sym" height="6" width="6" x="-3" y="-3" /><text class="lab" transform="translate(0 11)">3</text></g><path class="edge" d="M 0 0 V -2.15743 H -19.1667" /><circle class="sym" cx="0" cy="0" r="3" /><text class="lab rgt" transform="translate(3 -7.0)">24</text></g><g class="a26 c2 node n25 p0" transform="translate(-19.1667 0.108224)"><g class="a25 c1 node n21 p0" transform="translate(15.3333 2.99189)"><g class="a21 c2 node n16 p0" transform="translate(0.0 6.75061)"><g class="a16 leaf node n2 p0 sample" transform="translate(-7.66667 15.4954)"><path class="edge" d="M 0 0 V -15.4954 H 7.66667" /><rect class="sym" height="6" width="6" x="-3" y="-3" /><text class="lab" transform="translate(0 11)">2</text></g><g class="a16 leaf node n9 p0 sample" transform="translate(7.66667 15.4954)"><path class="edge" d="M 0 0 V -15.4954 H -7.66667" /><rect class="sym" height="6" width="6" x="-3" y="-3" /><text class="lab" transform="translate(0 11)">9</text></g><path class="edge" d="M 0 0 V -6.75061 H 0.0" /><circle class="sym" cx="0" cy="0" r="3" /><text class="lab lft" transform="translate(-3 -7.0)">16</text></g><path class="edge" d="M 0 0 V -2.99189 H -15.3333" /><circle class="sym" cx="0" cy="0" r="3" /><text class="lab rgt" transform="translate(3 -7.0)">21</text></g><g class="a25 c1 node n22 p0" transform="translate(-15.3333 2.64355)"><g class="a22 c2 node n15 p0" transform="translate(0.0 8.74408)"><g class="a15 leaf node n0 p0 sample" transform="translate(-7.66667 13.8503)"><path class="edge" d="M 0 0 V -13.8503 H 7.66667" /><rect class="sym" height="6" width="6" x="-3" y="-3" /><text class="lab" transform="translate(0 11)">0</text></g><g class="a15 c1 node n12 p0" transform="translate(7.66667 9.17851)"><g class="a12 leaf node n6 p0 sample" transform="translate(0.0 4.67174)"><path class="edge" d="M 0 0 V -4.67174 H 0.0" /><rect class="sym" height="6" width="6" x="-3" y="-3" /><text class="lab" transform="translate(0 11)">6</text></g><path class="edge" d="M 0 0 V -9.17851 H -7.66667" /><circle class="sym" cx="0" cy="0" r="3" /><text class="lab rgt" transform="translate(3 -7.0)">12</text></g><path class="edge" d="M 0 0 V -8.74408 H 0.0" /><circle class="sym" cx="0" cy="0" r="3" /><text class="lab lft" transform="translate(-3 -7.0)">15</text></g><path class="edge" d="M 0 0 V -2.64355 H 15.3333" /><circle class="sym" cx="0" cy="0" r="3" /><text class="lab lft" transform="translate(-3 -7.0)">22</text></g><path class="edge" d="M 0 0 V -0.108224 H 19.1667" /><circle class="sym" cx="0" cy="0" r="3" /><text class="lab lft" transform="translate(-3 -7.0)">25</text></g><path class="edge" d="M 0 0 V -14.1478 H 17.25" /><circle class="sym" cx="0" cy="0" r="3" /><text class="lab lft" transform="translate(-3 -7.0)">26</text></g><g class="a27 c1 node n18 p0" transform="translate(17.25 22.6396)"><g class="a18 c1 node n13 p0" transform="translate(0.0 9.18857)"><g class="a13 leaf node n1 p0 sample" transform="translate(0.0 7.66572)"><path class="edge" d="M 0 0 V -7.66572 H 0.0" /><rect class="sym" height="6" width="6" x="-3" y="-3" /><text class="lab" transform="translate(0 11)">1</text></g><path class="edge" d="M 0 0 V -9.18857 H 0.0" /><circle class="sym" cx="0" cy="0" r="3" /><text class="lab lft" transform="translate(-3 -7.0)">13</text></g><path class="edge" d="M 0 0 V -22.6396 H -17.25" /><circle class="sym" cx="0" cy="0" r="3" /><text class="lab rgt" transform="translate(3 -7.0)">18</text></g><path class="edge" d="M 0 0 V -0.990549 H 16.2917" /><circle class="sym" cx="0" cy="0" r="3" /><text class="lab lft" transform="translate(-3 -7.0)">27</text></g><path class="edge" d="M 0 0 V -12.9794 H 0.0" /><circle class="sym" cx="0" cy="0" r="3" /><text class="lab lft" transform="translate(-3 -7.0)">28</text></g><path class="edge" d="M 0 0 V -41.1362 H 25.3958" /><circle class="sym" cx="0" cy="0" r="3" /><text class="lab lft" transform="translate(-3 -7.0)">30</text></g><g class="a33 c1 node n32 p0" transform="translate(25.3958 25.9054)"><g class="a32 c2 node n31 p0" transform="translate(0.0 7.32273)"><g class="a31 c2 node n10 p0" transform="translate(-11.5 61.1965)"><g class="a10 leaf node n4 p0 sample" transform="translate(-7.66667 0.175322)"><path class="edge" d="M 0 0 V -0.175322 H 7.66667" /><rect class="sym" height="6" width="6" x="-3" y="-3" /><text class="lab" transform="translate(0 11)">4</text></g><g class="a10 leaf node n7 p0 sample" transform="translate(7.66667 0.175322)"><path class="edge" d="M 0 0 V -0.175322 H -7.66667" /><rect class="sym" height="6" width="6" x="-3" y="-3" /><text class="lab" transform="translate(0 11)">7</text></g><path class="edge" d="M 0 0 V -61.1965 H 11.5" /><circle class="sym" cx="0" cy="0" r="3" /><text class="lab lft" transform="translate(-3 -7.0)">10</text></g><g class="a31 c1 node n29 p0" transform="translate(11.5 9.57261)"><g class="a29 c1 node n20 p0" transform="translate(0.0 29.9137)"><g class="a20 leaf node n5 p0 sample" transform="translate(0.0 21.8856)"><path class="edge" d="M 0 0 V -21.8856 H 0.0" /><rect class="sym" height="6" width="6" x="-3" y="-3" /><text class="lab" transform="translate(0 11)">5</text></g><path class="edge" d="M 0 0 V -29.9137 H 0.0" /><circle class="sym" cx="0" cy="0" r="3" /><text class="lab lft" transform="translate(-3 -7.0)">20</text></g><path class="edge" d="M 0 0 V -9.57261 H -11.5" /><circle class="sym" cx="0" cy="0" r="3" /><text class="lab rgt" transform="translate(3 -7.0)">29</text></g><path class="edge" d="M 0 0 V -7.32273 H 0.0" /><circle class="sym" cx="0" cy="0" r="3" /><text class="lab lft" transform="translate(-3 -7.0)">31</text></g><path class="edge" d="M 0 0 V -25.9054 H -25.3958" /><circle class="sym" cx="0" cy="0" r="3" /><text class="lab rgt" transform="translate(3 -7.0)">32</text></g><circle class="sym" cx="0" cy="0" r="3" /><text class="lab" transform="translate(0 -11)">33</text></g></g></g><g class="tree t4" transform="translate(793.333 0)"><g class="plotbox"><g class="c2 node n33 p0 root" transform="translate(114.875 26.8)"><g class="a33 c1 node n30 p0" transform="translate(-27.7917 41.1362)"><g class="a30 c2 node n28 p0" transform="translate(0.0 12.9794)"><g class="a28 leaf node n8 p0 sample" transform="translate(17.25 40.4844)"><path class="edge" d="M 0 0 V -40.4844 H -17.25" /><rect class="sym" height="6" width="6" x="-3" y="-3" /><text class="lab" transform="translate(0 11)">8</text></g><g class="a28 c1 node n27 p0" transform="translate(-17.25 0.990549)"><g class="a27 c2 node n26 p0" transform="translate(0.0 14.1478)"><g class="a26 c1 node n24 p0" transform="translate(19.1667 2.15743)"><g class="a24 leaf node n3 p0 sample" transform="translate(0.0 23.1887)"><path class="edge" d="M 0 0 V -23.1887 H 0.0" /><rect class="sym" height="6" width="6" x="-3" y="-3" /><text class="lab" transform="translate(0 11)">3</text></g><path class="edge" d="M 0 0 V -2.15743 H -19.1667" /><circle class="sym" cx="0" cy="0" r="3" /><text class="lab rgt" transform="translate(3 -7.0)">24</text></g><g class="a26 c2 node n25 p0" transform="translate(-19.1667 0.108224)"><g class="a25 c1 node n21 p0" transform="translate(15.3333 2.99189)"><g class="a21 c2 node n16 p0" transform="translate(0.0 6.75061)"><g class="a16 leaf node n2 p0 sample" transform="translate(-7.66667 15.4954)"><path class="edge" d="M 0 0 V -15.4954 H 7.66667" /><rect class="sym" height="6" width="6" x="-3" y="-3" /><text class="lab" transform="translate(0 11)">2</text></g><g class="a16 leaf node n9 p0 sample" transform="translate(7.66667 15.4954)"><path class="edge" d="M 0 0 V -15.4954 H -7.66667" /><rect class="sym" height="6" width="6" x="-3" y="-3" /><text class="lab" transform="translate(0 11)">9</text></g><path class="edge" d="M 0 0 V -6.75061 H 0.0" /><circle class="sym" cx="0" cy="0" r="3" /><text class="lab lft" transform="translate(-3 -7.0)">16</text></g><path class="edge" d="M 0 0 V -2.99189 H -15.3333" /><circle class="sym" cx="0" cy="0" r="3" /><text class="lab rgt" transform="translate(3 -7.0)">21</text></g><g class="a25 c1 node n22 p0" transform="translate(-15.3333 2.64355)"><g class="a22 c2 node n15 p0" transform="translate(0.0 8.74408)"><g class="a15 leaf node n0 p0 sample" transform="translate(-7.66667 13.8503)"><path class="edge" d="M 0 0 V -13.8503 H 7.66667" /><rect class="sym" height="6" width="6" x="-3" y="-3" /><text class="lab" transform="translate(0 11)">0</text></g><g class="a15 c1 node n12 p0" transform="translate(7.66667 9.17851)"><g class="a12 leaf node n6 p0 sample" transform="translate(0.0 4.67174)"><path class="edge" d="M 0 0 V -4.67174 H 0.0" /><rect class="sym" height="6" width="6" x="-3" y="-3" /><text class="lab" transform="translate(0 11)">6</text></g><path class="edge" d="M 0 0 V -9.17851 H -7.66667" /><circle class="sym" cx="0" cy="0" r="3" /><text class="lab rgt" transform="translate(3 -7.0)">12</text></g><path class="edge" d="M 0 0 V -8.74408 H 0.0" /><circle class="sym" cx="0" cy="0" r="3" /><text class="lab lft" transform="translate(-3 -7.0)">15</text></g><path class="edge" d="M 0 0 V -2.64355 H 15.3333" /><circle class="sym" cx="0" cy="0" r="3" /><text class="lab lft" transform="translate(-3 -7.0)">22</text></g><path class="edge" d="M 0 0 V -0.108224 H 19.1667" /><circle class="sym" cx="0" cy="0" r="3" /><text class="lab lft" transform="translate(-3 -7.0)">25</text></g><path class="edge" d="M 0 0 V -14.1478 H 0.0" /><circle class="sym" cx="0" cy="0" r="3" /><text class="lab lft" transform="translate(-3 -7.0)">26</text></g><path class="edge" d="M 0 0 V -0.990549 H 17.25" /><circle class="sym" cx="0" cy="0" r="3" /><text class="lab lft" transform="translate(-3 -7.0)">27</text></g><path class="edge" d="M 0 0 V -12.9794 H 0.0" /><circle class="sym" cx="0" cy="0" r="3" /><text class="lab lft" transform="translate(-3 -7.0)">28</text></g><path class="edge" d="M 0 0 V -41.1362 H 27.7917" /><circle class="sym" cx="0" cy="0" r="3" /><text class="lab lft" transform="translate(-3 -7.0)">30</text></g><g class="a33 c1 node n32 p0" transform="translate(27.7917 25.9054)"><g class="a32 c2 node n31 p0" transform="translate(0.0 7.32273)"><g class="a31 c2 node n10 p0" transform="translate(15.3333 61.1965)"><g class="a10 leaf node n4 p0 sample" transform="translate(-7.66667 0.175322)"><path class="edge" d="M 0 0 V -0.175322 H 7.66667" /><rect class="sym" height="6" width="6" x="-3" y="-3" /><text class="lab" transform="translate(0 11)">4</text></g><g class="a10 leaf node n7 p0 sample" transform="translate(7.66667 0.175322)"><path class="edge" d="M 0 0 V -0.175322 H -7.66667" /><rect class="sym" height="6" width="6" x="-3" y="-3" /><text class="lab" transform="translate(0 11)">7</text></g><path class="edge" d="M 0 0 V -61.1965 H -15.3333" /><circle class="sym" cx="0" cy="0" r="3" /><text class="lab rgt" transform="translate(3 -7.0)">10</text></g><g class="a31 c2 node n29 p0" transform="translate(-15.3333 9.57261)"><g class="a29 c1 node n20 p0" transform="translate(7.66667 29.9137)"><g class="a20 leaf node n5 p0 sample" transform="translate(0.0 21.8856)"><path class="edge" d="M 0 0 V -21.8856 H 0.0" /><rect class="sym" height="6" width="6" x="-3" y="-3" /><text class="lab" transform="translate(0 11)">5</text></g><path class="edge" d="M 0 0 V -29.9137 H -7.66667" /><circle class="sym" cx="0" cy="0" r="3" /><text class="lab rgt" transform="translate(3 -7.0)">20</text></g><g class="a29 c1 node n14 p0" transform="translate(-7.66667 44.1335)"><g class="a14 leaf node n1 p0 sample" transform="translate(0.0 7.66572)"><path class="edge" d="M 0 0 V -7.66572 H 0.0" /><rect class="sym" height="6" width="6" x="-3" y="-3" /><text class="lab" transform="translate(0 11)">1</text></g><path class="edge" d="M 0 0 V -44.1335 H 7.66667" /><circle class="sym" cx="0" cy="0" r="3" /><text class="lab lft" transform="translate(-3 -7.0)">14</text></g><path class="edge" d="M 0 0 V -9.57261 H 15.3333" /><circle class="sym" cx="0" cy="0" r="3" /><text class="lab lft" transform="translate(-3 -7.0)">29</text></g><path class="edge" d="M 0 0 V -7.32273 H 0.0" /><circle class="sym" cx="0" cy="0" r="3" /><text class="lab lft" transform="translate(-3 -7.0)">31</text></g><path class="edge" d="M 0 0 V -25.9054 H -27.7917" /><circle class="sym" cx="0" cy="0" r="3" /><text class="lab rgt" transform="translate(3 -7.0)">32</text></g><circle class="sym" cx="0" cy="0" r="3" /><text class="lab" transform="translate(0 -11)">33</text></g></g></g><g class="tree t5" transform="translate(986.667 0)"><g class="plotbox"><g class="c2 node n33 p0 root" transform="translate(105.292 26.8)"><g class="a33 c1 node n30 p0" transform="translate(46.9583 41.1362)"><g class="a30 c2 node n28 p0" transform="translate(0.0 12.9794)"><g class="a28 leaf node n8 p0 sample" transform="translate(13.4167 40.4844)"><path class="edge" d="M 0 0 V -40.4844 H -13.4167" /><rect class="sym" height="6" width="6" x="-3" y="-3" /><text class="lab" transform="translate(0 11)">8</text></g><g class="a28 c1 node n27 p0" transform="translate(-13.4167 0.990549)"><g class="a27 c2 node n26 p0" transform="translate(0.0 14.1478)"><g class="a26 c1 node n24 p0" transform="translate(11.5 2.15743)"><g class="a24 leaf node n3 p0 sample" transform="translate(0.0 23.1887)"><path class="edge" d="M 0 0 V -23.1887 H 0.0" /><rect class="sym" height="6" width="6" x="-3" y="-3" /><text class="lab" transform="translate(0 11)">3</text></g><path class="edge" d="M 0 0 V -2.15743 H -11.5" /><circle class="sym" cx="0" cy="0" r="3" /><text class="lab rgt" transform="translate(3 -7.0)">24</text></g><g class="a26 c1 node n25 p0" transform="translate(-11.5 0.108224)"><g class="a25 c1 node n21 p0" transform="translate(0.0 2.99189)"><g class="a21 c2 node n16 p0" transform="translate(0.0 6.75061)"><g class="a16 leaf node n2 p0 sample" transform="translate(-7.66667 15.4954)"><path class="edge" d="M 0 0 V -15.4954 H 7.66667" /><rect class="sym" height="6" width="6" x="-3" y="-3" /><text class="lab" transform="translate(0 11)">2</text></g><g class="a16 leaf node n9 p0 sample" transform="translate(7.66667 15.4954)"><path class="edge" d="M 0 0 V -15.4954 H -7.66667" /><rect class="sym" height="6" width="6" x="-3" y="-3" /><text class="lab" transform="translate(0 11)">9</text></g><path class="edge" d="M 0 0 V -6.75061 H 0.0" /><circle class="sym" cx="0" cy="0" r="3" /><text class="lab lft" transform="translate(-3 -7.0)">16</text></g><path class="edge" d="M 0 0 V -2.99189 H 0.0" /><circle class="sym" cx="0" cy="0" r="3" /><text class="lab lft" transform="translate(-3 -7.0)">21</text></g><path class="edge" d="M 0 0 V -0.108224 H 11.5" /><circle class="sym" cx="0" cy="0" r="3" /><text class="lab lft" transform="translate(-3 -7.0)">25</text></g><path class="edge" d="M 0 0 V -14.1478 H 0.0" /><circle class="sym" cx="0" cy="0" r="3" /><text class="lab lft" transform="translate(-3 -7.0)">26</text></g><path class="edge" d="M 0 0 V -0.990549 H 13.4167" /><circle class="sym" cx="0" cy="0" r="3" /><text class="lab lft" transform="translate(-3 -7.0)">27</text></g><path class="edge" d="M 0 0 V -12.9794 H 0.0" /><circle class="sym" cx="0" cy="0" r="3" /><text class="lab lft" transform="translate(-3 -7.0)">28</text></g><path class="edge" d="M 0 0 V -41.1362 H -46.9583" /><circle class="sym" cx="0" cy="0" r="3" /><text class="lab rgt" transform="translate(3 -7.0)">30</text></g><g class="a33 c2 node n32 p0" transform="translate(-46.9583 25.9054)"><g class="a32 c2 node n31 p0" transform="translate(23 7.32273)"><g class="a31 c2 node n10 p0" transform="translate(15.3333 61.1965)"><g class="a10 leaf node n4 p0 sample" transform="translate(-7.66667 0.175322)"><path class="edge" d="M 0 0 V -0.175322 H 7.66667" /><rect class="sym" height="6" width="6" x="-3" y="-3" /><text class="lab" transform="translate(0 11)">4</text></g><g class="a10 leaf node n7 p0 sample" transform="translate(7.66667 0.175322)"><path class="edge" d="M 0 0 V -0.175322 H -7.66667" /><rect class="sym" height="6" width="6" x="-3" y="-3" /><text class="lab" transform="translate(0 11)">7</text></g><path class="edge" d="M 0 0 V -61.1965 H -15.3333" /><circle class="sym" cx="0" cy="0" r="3" /><text class="lab rgt" transform="translate(3 -7.0)">10</text></g><g class="a31 c2 node n29 p0" transform="translate(-15.3333 9.57261)"><g class="a29 c1 node n20 p0" transform="translate(7.66667 29.9137)"><g class="a20 leaf node n5 p0 sample" transform="translate(0.0 21.8856)"><path class="edge" d="M 0 0 V -21.8856 H 0.0" /><rect class="sym" height="6" width="6" x="-3" y="-3" /><text class="lab" transform="translate(0 11)">5</text></g><path class="edge" d="M 0 0 V -29.9137 H -7.66667" /><circle class="sym" cx="0" cy="0" r="3" /><text class="lab rgt" transform="translate(3 -7.0)">20</text></g><g class="a29 c1 node n14 p0" transform="translate(-7.66667 44.1335)"><g class="a14 leaf node n1 p0 sample" transform="translate(0.0 7.66572)"><path class="edge" d="M 0 0 V -7.66572 H 0.0" /><rect class="sym" height="6" width="6" x="-3" y="-3" /><text class="lab" transform="translate(0 11)">1</text></g><path class="edge" d="M 0 0 V -44.1335 H 7.66667" /><circle class="sym" cx="0" cy="0" r="3" /><text class="lab lft" transform="translate(-3 -7.0)">14</text></g><path class="edge" d="M 0 0 V -9.57261 H 15.3333" /><circle class="sym" cx="0" cy="0" r="3" /><text class="lab lft" transform="translate(-3 -7.0)">29</text></g><path class="edge" d="M 0 0 V -7.32273 H -23" /><circle class="sym" cx="0" cy="0" r="3" /><text class="lab rgt" transform="translate(3 -7.0)">31</text></g><g class="a32 c1 node n23 p0" transform="translate(-23 46.1003)"><g class="a23 c2 node n15 p0" transform="translate(0.0 8.74408)"><g class="a15 leaf node n0 p0 sample" transform="translate(-7.66667 13.8503)"><path class="edge" d="M 0 0 V -13.8503 H 7.66667" /><rect class="sym" height="6" width="6" x="-3" y="-3" /><text class="lab" transform="translate(0 11)">0</text></g><g class="a15 c1 node n12 p0" transform="translate(7.66667 9.17851)"><g class="a12 leaf node n6 p0 sample" transform="translate(0.0 4.67174)"><path class="edge" d="M 0 0 V -4.67174 H 0.0" /><rect class="sym" height="6" width="6" x="-3" y="-3" /><text class="lab" transform="translate(0 11)">6</text></g><path class="edge" d="M 0 0 V -9.17851 H -7.66667" /><circle class="sym" cx="0" cy="0" r="3" /><text class="lab rgt" transform="translate(3 -7.0)">12</text></g><path class="edge" d="M 0 0 V -8.74408 H 0.0" /><circle class="sym" cx="0" cy="0" r="3" /><text class="lab lft" transform="translate(-3 -7.0)">15</text></g><path class="edge" d="M 0 0 V -46.1003 H 23" /><circle class="sym" cx="0" cy="0" r="3" /><text class="lab lft" transform="translate(-3 -7.0)">23</text></g><path class="edge" d="M 0 0 V -25.9054 H 46.9583" /><circle class="sym" cx="0" cy="0" r="3" /><text class="lab lft" transform="translate(-3 -7.0)">32</text></g><circle class="sym" cx="0" cy="0" r="3" /><text class="lab" transform="translate(0 -11)">33</text></g></g></g></g></g></svg>
