<svg baseProfile="full" height="200" version="1.1" width="600" xmlns="http://www.w3.org/2000/svg" xmlns:ev="http://www.w3.org/2001/xml-events" xmlns:xlink="http://www.w3.org/1999/xlink"><defs><style type="text/css"><![CDATA[.background path {fill: #808080; fill-opacity: 0}.background path:nth-child(odd) {fill-opacity: .1}.axes {font-size: 14px}.x-axis .tick .lab {font-weight: bold; dominant-baseline: hanging}.axes, .tree {font-size: 14px; text-anchor: middle}.axes line, .edge {stroke: black; fill: none}.y-axis .grid {stroke: #FAFAFA}.node > .sym {fill: black; stroke: none}.site > .sym {stroke: black}.mut text {fill: red; font-style: italic}.mut.extra text {fill: hotpink}.mut line {fill: none; stroke: none}.mut .sym {fill: none; stroke: red}.mut.extra .sym {stroke: hotpink}.node .mut .sym {stroke-width: 1.5px}.tree text, .tree-sequence text {dominant-baseline: central}.plotbox .lab.lft {text-anchor: end}.plotbox .lab.rgt {text-anchor: start}]]></style></defs><g class="tree-sequence"><g class="background"><path d="M20,0 l186.667,0 l0,138.2 l-169.147,25 l0,5 l-17.5196,0 l0,-5 l0,-25 l0,-138.2z" /><path d="M206.667,0 l186.667,0 l0,138.2 l135.094,25 l0,5 l-490.908,0 l0,-5 l169.147,-25 l0,-138.2z" /><path d="M393.333,0 l186.667,0 l0,138.2 l0,25 l0,5 l-51.5727,0 l0,-5 l-135.094,-25 l0,-138.2z" /></g><g class="axes"><g class="x-axis"><g transform="translate(300 200)"><text class="lab" text-anchor="middle" transform="translate(0 -11)">Genome position</text></g><line x1="20" x2="580" y1="163.2" y2="163.2" /><g class="ticks"><g class="tick" transform="translate(20 163.2)"><line x1="0" x2="0" y1="0" y2="5" /><g transform="translate(0 6)"><text class="lab">0.00</text></g></g><g class="tick" transform="translate(37.5196 163.2)"><line x1="0" x2="0" y1="0" y2="5" /><g transform="translate(0 6)"><text class="lab">31.28</text></g></g><g class="tick" transform="translate(528.427 163.2)"><line x1="0" x2="0" y1="0" y2="5" /><g transform="translate(0 6)"><text class="lab">907.91</text></g></g><g class="tick" transform="translate(580 163.2)"><line x1="0" x2="0" y1="0" y2="5" /><g transform="translate(0 6)"><text class="lab">1000.00</text></g></g></g></g></g><g class="plotbox trees"><g class="tree t0" transform="translate(20 0)"><g class="plotbox"><g class="c2 node n24 p0 root" transform="translate(91.5 26.8)"><g class="a24 c2 node n19 p0" transform="translate(-40.3333 82.3879)"><g class="a19 c2 node n15 p0" transform="translate(-16.5 5.93829)"><g class="a15 leaf node n1 p0 sample" transform="translate(7.33333 6.27384)"><path class="edge" d="M 0 0 V -6.27384 H -7.33333" /><rect class="sym" height="6" width="6" x="-3" y="-3" /><text class="lab" transform="translate(0 11)">1</text></g><g class="a15 c1 node n12 p0" transform="translate(-7.33333 3.65684)"><g class="a12 leaf node n0 p0 sample" transform="translate(0.0 2.617)"><path class="edge" d="M 0 0 V -2.617 H 0.0" /><rect class="sym" height="6" width="6" x="-3" y="-3" /><text class="lab" transform="translate(0 11)">0</text></g><path class="edge" d="M 0 0 V -3.65684 H 7.33333" /><circle class="sym" cx="0" cy="0" r="3" /><text class="lab lft" transform="translate(-3 -7.0)">12</text></g><path class="edge" d="M 0 0 V -5.93829 H 16.5" /><circle class="sym" cx="0" cy="0" r="3" /><text class="lab lft" transform="translate(-3 -7.0)">15</text></g><g class="a19 c1 node n16 p0" transform="translate(16.5 5.43037)"><g class="a16 c2 node n14 p0" transform="translate(0.0 3.54264)"><g class="a14 leaf node n4 p0 sample" transform="translate(-11 3.23912)"><path class="edge" d="M 0 0 V -3.23912 H 11" /><rect class="sym" height="6" width="6" x="-3" y="-3" /><text class="lab" transform="translate(0 11)">4</text></g><g class="a14 c2 node n11 p0" transform="translate(11 0.807959)"><g class="a11 leaf node n6 p0 sample" transform="translate(-7.33333 2.43116)"><path class="edge" d="M 0 0 V -2.43116 H 7.33333" /><rect class="sym" height="6" width="6" x="-3" y="-3" /><text class="lab" transform="translate(0 11)">6</text></g><g class="a11 leaf node n8 p0 sample" transform="translate(7.33333 2.43116)"><path class="edge" d="M 0 0 V -2.43116 H -7.33333" /><rect class="sym" height="6" width="6" x="-3" y="-3" /><text class="lab" transform="translate(0 11)">8</text></g><path class="edge" d="M 0 0 V -0.807959 H -11" /><circle class="sym" cx="0" cy="0" r="3" /><text class="lab rgt" transform="translate(3 -7.0)">11</text></g><path class="edge" d="M 0 0 V -3.54264 H 0.0" /><circle class="sym" cx="0" cy="0" r="3" /><text class="lab lft" transform="translate(-3 -7.0)">14</text></g><path class="edge" d="M 0 0 V -5.43037 H -16.5" /><circle class="sym" cx="0" cy="0" r="3" /><text class="lab rgt" transform="translate(3 -7.0)">16</text></g><path class="edge" d="M 0 0 V -82.3879 H 40.3333" /><circle class="sym" cx="0" cy="0" r="3" /><text class="lab lft" transform="translate(-3 -7.0)">19</text></g><g class="a24 c2 node n23 p0" transform="translate(40.3333 60.899)"><g class="a23 c1 node n21 p0" transform="translate(20.1667 3.63771)"><g class="a21 c2 node n10 p0" transform="translate(0.0 29.7339)"><g class="a10 leaf node n5 p0 sample" transform="translate(-7.33333 0.329471)"><path class="edge" d="M 0 0 V -0.329471 H 7.33333" /><rect class="sym" height="6" width="6" x="-3" y="-3" /><text class="lab" transform="translate(0 11)">5</text></g><g class="a10 leaf node n7 p0 sample" transform="translate(7.33333 0.329471)"><path class="edge" d="M 0 0 V -0.329471 H -7.33333" /><rect class="sym" height="6" width="6" x="-3" y="-3" /><text class="lab" transform="translate(0 11)">7</text></g><path class="edge" d="M 0 0 V -29.7339 H 0.0" /><circle class="sym" cx="0" cy="0" r="3" /><text class="lab lft" transform="translate(-3 -7.0)">10</text></g><path class="edge" d="M 0 0 V -3.63771 H -20.1667" /><circle class="sym" cx="0" cy="0" r="3" /><text class="lab rgt" transform="translate(3 -7.0)">21</text></g><g class="a23 c2 node n22 p0" transform="translate(-20.1667 3.30645)"><g class="a22 leaf node n2 p0 sample" transform="translate(-11 30.3946)"><path class="edge" d="M 0 0 V -30.3946 H 11" /><rect class="sym" height="6" width="6" x="-3" y="-3" /><text class="lab" transform="translate(0 11)">2</text></g><g class="a22 c2 node n20 p0" transform="translate(11 17.435)"><g class="a20 leaf node n9 p0 sample" transform="translate(7.33333 12.9596)"><path class="edge" d="M 0 0 V -12.9596 H -7.33333" /><rect class="sym" height="6" width="6" x="-3" y="-3" /><text class="lab" transform="translate(0 11)">9</text></g><g class="a20 c1 node n17 p0" transform="translate(-7.33333 4.9278)"><g class="a17 leaf node n3 p0 sample" transform="translate(0.0 8.03176)"><path class="edge" d="M 0 0 V -8.03176 H 0.0" /><rect class="sym" height="6" width="6" x="-3" y="-3" /><text class="lab" transform="translate(0 11)">3</text></g><path class="edge" d="M 0 0 V -4.9278 H 7.33333" /><circle class="sym" cx="0" cy="0" r="3" /><text class="lab lft" transform="translate(-3 -7.0)">17</text></g><path class="edge" d="M 0 0 V -17.435 H -11" /><circle class="sym" cx="0" cy="0" r="3" /><text class="lab rgt" transform="translate(3 -7.0)">20</text></g><path class="edge" d="M 0 0 V -3.30645 H 20.1667" /><circle class="sym" cx="0" cy="0" r="3" /><text class="lab lft" transform="translate(-3 -7.0)">22</text></g><path class="edge" d="M 0 0 V -60.899 H -40.3333" /><circle class="sym" cx="0" cy="0" r="3" /><text class="lab rgt" transform="translate(3 -7.0)">23</text></g><circle class="sym" cx="0" cy="0" r="3" /><text class="lab" transform="translate(0 -11)">24</text></g></g></g><g class="tree t1" transform="translate(206.667 0)"><g class="plotbox"><g class="c2 node n24 p0 root" transform="translate(97.4583 26.8)"><g class="a24 c2 node n19 p0" transform="translate(-34.375 82.3879)"><g class="a19 c1 node n15 p0" transform="translate(22.9167 5.93829)"><g class="a15 leaf node n1 p0 sample" transform="translate(0.0 6.27384)"><path class="edge" d="M 0 0 V -6.27384 H 0.0" /><rect class="sym" height="6" width="6" x="-3" y="-3" /><text class="lab" transform="translate(0 11)">1</text></g><path class="edge" d="M 0 0 V -5.93829 H -22.9167" /><circle class="sym" cx="0" cy="0" r="3" /><text class="lab rgt" transform="translate(3 -7.0)">15</text></g><g class="a19 c2 node n16 p0" transform="translate(-22.9167 5.43037)"><g class="a16 c2 node n14 p0" transform="translate(12.8333 3.54264)"><g class="a14 leaf node n4 p0 sample" transform="translate(-11 3.23912)"><path class="edge" d="M 0 0 V -3.23912 H 11" /><rect class="sym" height="6" width="6" x="-3" y="-3" /><text class="lab" transform="translate(0 11)">4</text></g><g class="a14 c2 node n11 p0" transform="translate(11 0.807959)"><g class="a11 leaf node n6 p0 sample" transform="translate(-7.33333 2.43116)"><path class="edge" d="M 0 0 V -2.43116 H 7.33333" /><rect class="sym" height="6" width="6" x="-3" y="-3" /><text class="lab" transform="translate(0 11)">6</text></g><g class="a11 leaf node n8 p0 sample" transform="translate(7.33333 2.43116)"><path class="edge" d="M 0 0 V -2.43116 H -7.33333" /><rect class="sym" height="6" width="6" x="-3" y="-3" /><text class="lab" transform="translate(0 11)">8</text></g><path class="edge" d="M 0 0 V -0.807959 H -11" /><circle class="sym" cx="0" cy="0" r="3" /><text class="lab rgt" transform="translate(3 -7.0)">11</text></g><path class="edge" d="M 0 0 V -3.54264 H -12.8333" /><circle class="sym" cx="0" cy="0" r="3" /><text class="lab rgt" transform="translate(3 -7.0)">14</text></g><g class="a16 c1 node n13 p0" transform="translate(-12.8333 4.16476)"><g class="a13 leaf node n0 p0 sample" transform="translate(0.0 2.617)"><path class="edge" d="M 0 0 V -2.617 H 0.0" /><rect class="sym" height="6" width="6" x="-3" y="-3" /><text class="lab" transform="translate(0 11)">0</text></g><path class="edge" d="M 0 0 V -4.16476 H 12.8333" /><circle class="sym" cx="0" cy="0" r="3" /><text class="lab lft" transform="translate(-3 -7.0)">13</text></g><path class="edge" d="M 0 0 V -5.43037 H 22.9167" /><circle class="sym" cx="0" cy="0" r="3" /><text class="lab lft" transform="translate(-3 -7.0)">16</text></g><path class="edge" d="M 0 0 V -82.3879 H 34.375" /><circle class="sym" cx="0" cy="0" r="3" /><text class="lab lft" transform="translate(-3 -7.0)">19</text></g><g class="a24 c2 node n23 p0" transform="translate(34.375 60.899)"><g class="a23 c1 node n21 p0" transform="translate(20.1667 3.63771)"><g class="a21 c2 node n10 p0" transform="translate(0.0 29.7339)"><g class="a10 leaf node n5 p0 sample" transform="translate(-7.33333 0.329471)"><path class="edge" d="M 0 0 V -0.329471 H 7.33333" /><rect class="sym" height="6" width="6" x="-3" y="-3" /><text class="lab" transform="translate(0 11)">5</text></g><g class="a10 leaf node n7 p0 sample" transform="translate(7.33333 0.329471)"><path class="edge" d="M 0 0 V -0.329471 H -7.33333" /><rect class="sym" height="6" width="6" x="-3" y="-3" /><text class="lab" transform="translate(0 11)">7</text></g><path class="edge" d="M 0 0 V -29.7339 H 0.0" /><circle class="sym" cx="0" cy="0" r="3" /><text class="lab lft" transform="translate(-3 -7.0)">10</text></g><path class="edge" d="M 0 0 V -3.63771 H -20.1667" /><circle class="sym" cx="0" cy="0" r="3" /><text class="lab rgt" transform="translate(3 -7.0)">21</text></g><g class="a23 c2 node n22 p0" transform="translate(-20.1667 3.30645)"><g class="a22 leaf node n2 p0 sample" transform="translate(-11 30.3946)"><path class="edge" d="M 0 0 V -30.3946 H 11" /><rect class="sym" height="6" width="6" x="-3" y="-3" /><text class="lab" transform="translate(0 11)">2</text></g><g class="a22 c2 node n20 p0" transform="translate(11 17.435)"><g class="a20 leaf node n9 p0 sample" transform="translate(7.33333 12.9596)"><path class="edge" d="M 0 0 V -12.9596 H -7.33333" /><rect class="sym" height="6" width="6" x="-3" y="-3" /><text class="lab" transform="translate(0 11)">9</text></g><g class="a20 c1 node n17 p0" transform="translate(-7.33333 4.9278)"><g class="a17 leaf node n3 p0 sample" transform="translate(0.0 8.03176)"><path class="edge" d="M 0 0 V -8.03176 H 0.0" /><rect class="sym" height="6" width="6" x="-3" y="-3" /><text class="lab" transform="translate(0 11)">3</text></g><path class="edge" d="M 0 0 V -4.9278 H 7.33333" /><circle class="sym" cx="0" cy="0" r="3" /><text class="lab lft" transform="translate(-3 -7.0)">17</text></g><path class="edge" d="M 0 0 V -17.435 H -11" /><circle class="sym" cx="0" cy="0" r="3" /><text class="lab rgt" transform="translate(3 -7.0)">20</text></g><path class="edge" d="M 0 0 V -3.30645 H 20.1667" /><circle class="sym" cx="0" cy="0" r="3" /><text class="lab lft" transform="translate(-3 -7.0)">22</text></g><path class="edge" d="M 0 0 V -60.899 H -34.375" /><circle class="sym" cx="0" cy="0" r="3" /><text class="lab rgt" transform="translate(3 -7.0)">23</text></g><circle class="sym" cx="0" cy="0" r="3" /><text class="lab" transform="translate(0 -11)">24</text></g></g></g><g class="tree t2" transform="translate(393.333 0)"><g class="plotbox"><g class="c2 node n24 p0 root" transform="translate(93.7917 26.8)"><g class="a24 c2 node n19 p0" transform="translate(-30.7083 82.3879)"><g class="a19 c1 node n15 p0" transform="translate(22.9167 5.93829)"><g class="a15 leaf node n1 p0 sample" transform="translate(0.0 6.27384)"><path class="edge" d="M 0 0 V -6.27384 H 0.0" /><rect class="sym" height="6" width="6" x="-3" y="-3" /><text class="lab" transform="translate(0 11)">1</text></g><path class="edge" d="M 0 0 V -5.93829 H -22.9167" /><circle class="sym" cx="0" cy="0" r="3" /><text class="lab rgt" transform="translate(3 -7.0)">15</text></g><g class="a19 c2 node n16 p0" transform="translate(-22.9167 5.43037)"><g class="a16 c2 node n14 p0" transform="translate(12.8333 3.54264)"><g class="a14 leaf node n4 p0 sample" transform="translate(-11 3.23912)"><path class="edge" d="M 0 0 V -3.23912 H 11" /><rect class="sym" height="6" width="6" x="-3" y="-3" /><text class="lab" transform="translate(0 11)">4</text></g><g class="a14 c2 node n11 p0" transform="translate(11 0.807959)"><g class="a11 leaf node n6 p0 sample" transform="translate(-7.33333 2.43116)"><path class="edge" d="M 0 0 V -2.43116 H 7.33333" /><rect class="sym" height="6" width="6" x="-3" y="-3" /><text class="lab" transform="translate(0 11)">6</text></g><g class="a11 leaf node n8 p0 sample" transform="translate(7.33333 2.43116)"><path class="edge" d="M 0 0 V -2.43116 H -7.33333" /><rect class="sym" height="6" width="6" x="-3" y="-3" /><text class="lab" transform="translate(0 11)">8</text></g><path class="edge" d="M 0 0 V -0.807959 H -11" /><circle class="sym" cx="0" cy="0" r="3" /><text class="lab rgt" transform="translate(3 -7.0)">11</text></g><path class="edge" d="M 0 0 V -3.54264 H -12.8333" /><circle class="sym" cx="0" cy="0" r="3" /><text class="lab rgt" transform="translate(3 -7.0)">14</text></g><g class="a16 c1 node n13 p0" transform="translate(-12.8333 4.16476)"><g class="a13 leaf node n0 p0 sample" transform="translate(0.0 2.617)"><path class="edge" d="M 0 0 V -2.617 H 0.0" /><rect class="sym" height="6" width="6" x="-3" y="-3" /><text class="lab" transform="translate(0 11)">0</text></g><path class="edge" d="M 0 0 V -4.16476 H 12.8333" /><circle class="sym" cx="0" cy="0" r="3" /><text class="lab lft" transform="translate(-3 -7.0)">13</text></g><path class="edge" d="M 0 0 V -5.43037 H 22.9167" /><circle class="sym" cx="0" cy="0" r="3" /><text class="lab lft" transform="translate(-3 -7.0)">16</text></g><path class="edge" d="M 0 0 V -82.3879 H 30.7083" /><circle class="sym" cx="0" cy="0" r="3" /><text class="lab lft" transform="translate(-3 -7.0)">19</text></g><g class="a24 c2 node n23 p0" transform="translate(30.7083 60.899)"><g class="a23 c2 node n21 p0" transform="translate(16.5 3.63771)"><g class="a21 c2 node n10 p0" transform="translate(11 29.7339)"><g class="a10 leaf node n5 p0 sample" transform="translate(-7.33333 0.329471)"><path class="edge" d="M 0 0 V -0.329471 H 7.33333" /><rect class="sym" height="6" width="6" x="-3" y="-3" /><text class="lab" transform="translate(0 11)">5</text></g><g class="a10 leaf node n7 p0 sample" transform="translate(7.33333 0.329471)"><path class="edge" d="M 0 0 V -0.329471 H -7.33333" /><rect class="sym" height="6" width="6" x="-3" y="-3" /><text class="lab" transform="translate(0 11)">7</text></g><path class="edge" d="M 0 0 V -29.7339 H -11" /><circle class="sym" cx="0" cy="0" r="3" /><text class="lab rgt" transform="translate(3 -7.0)">10</text></g><g class="a21 c1 node n18 p0" transform="translate(-11 22.0316)"><g class="a18 leaf node n3 p0 sample" transform="translate(0.0 8.03176)"><path class="edge" d="M 0 0 V -8.03176 H 0.0" /><rect class="sym" height="6" width="6" x="-3" y="-3" /><text class="lab" transform="translate(0 11)">3</text></g><path class="edge" d="M 0 0 V -22.0316 H 11" /><circle class="sym" cx="0" cy="0" r="3" /><text class="lab lft" transform="translate(-3 -7.0)">18</text></g><path class="edge" d="M 0 0 V -3.63771 H -16.5" /><circle class="sym" cx="0" cy="0" r="3" /><text class="lab rgt" transform="translate(3 -7.0)">21</text></g><g class="a23 c2 node n22 p0" transform="translate(-16.5 3.30645)"><g class="a22 leaf node n2 p0 sample" transform="translate(-7.33333 30.3946)"><path class="edge" d="M 0 0 V -30.3946 H 7.33333" /><rect class="sym" height="6" width="6" x="-3" y="-3" /><text class="lab" transform="translate(0 11)">2</text></g><g class="a22 c1 node n20 p0" transform="translate(7.33333 17.435)"><g class="a20 leaf node n9 p0 sample" transform="translate(0.0 12.9596)"><path class="edge" d="M 0 0 V -12.9596 H 0.0" /><rect class="sym" height="6" width="6" x="-3" y="-3" /><text class="lab" transform="translate(0 11)">9</text></g><path class="edge" d="M 0 0 V -17.435 H -7.33333" /><circle class="sym" cx="0" cy="0" r="3" /><text class="lab rgt" transform="translate(3 -7.0)">20</text></g><path class="edge" d="M 0 0 V -3.30645 H 16.5" /><circle class="sym" cx="0" cy="0" r="3" /><text class="lab lft" transform="translate(-3 -7.0)">22</text></g><path class="edge" d="M 0 0 V -60.899 H -30.7083" /><circle class="sym" cx="0" cy="0" r="3" /><text class="lab rgt" transform="translate(3 -7.0)">23</text></g><circle class="sym" cx="0" cy="0" r="3" /><text class="lab" transform="translate(0 -11)">24</text></g></g></g></g></g></svg>
