<svg baseProfile="full" height="200" version="1.1" width="1200" xmlns="http://www.w3.org/2000/svg" xmlns:ev="http://www.w3.org/2001/xml-events" xmlns:xlink="http://www.w3.org/1999/xlink"><defs><style type="text/css"><![CDATA[.background path {fill: #808080; fill-opacity: 0}.background path:nth-child(odd) {fill-opacity: .1}.axes {font-size: 14px}.x-axis .tick .lab {font-weight: bold; dominant-baseline: hanging}.axes, .tree {font-size: 14px; text-anchor: middle}.axes line, .edge {stroke: black; fill: none}.y-axis .grid {stroke: #FAFAFA}.node > .sym {fill: black; stroke: none}.site > .sym {stroke: black}.mut text {fill: red; font-style: italic}.mut.extra text {fill: hotpink}.mut line {fill: none; stroke: none}.mut .sym {fill: none; stroke: red}.mut.extra .sym {stroke: hotpink}.node .mut .sym {stroke-width: 1.5px}.tree text, .tree-sequence text {dominant-baseline: central}.plotbox .lab.lft {text-anchor: end}.plotbox .lab.rgt {text-anchor: start}]]></style></defs><g class="tree-sequence"><g class="background"><path d="M20,0 l193.333,0 l0,138.2 l72.6837,25 l0,5 l-266.017,0 l0,-5 l0,-25 l0,-138.2z" /><path d="M213.333,0 l193.333,0 l0,138.2 l548.945,25 l0,5 l-669.594,0 l0,-5 l-72.6837,-25 l0,-138.2z" /><path d="M406.667,0 l193.333,0 l0,138.2 l408.543,25 l0,5 l-52.9323,0 l0,-5 l-548.945,-25 l0,-138.2z" /><path d="M600,0 l193.333,0 l0,138.2 l346.869,25 l0,5 l-131.659,0 l0,-5 l-408.543,-25 l0,-138.2z" /><path d="M793.333,0 l193.333,0 l0,138.2 l183.324,25 l0,5 l-29.7879,0 l0,-5 l-346.869,-25 l0,-138.2z" /><path d="M986.667,0 l193.333,0 l0,138.2 l0,25 l0,5 l-10.0095,0 l0,-5 l-183.324,-25 l0,-138.2z" /></g><g class="axes"><g class="x-axis"><g transform="translate(600 200)"><text class="lab" text-anchor="middle" transform="translate(0 -11)">Genome position</text></g><line x1="20" x2="1180" y1="163.2" y2="163.2" /><g class="ticks"><g class="tick" transform="translate(20 163.2)"><line x1="0" x2="0" y1="0" y2="5" /><g transform="translate(0 6)"><text class="lab">0.00</text></g></g><g class="tick" transform="translate(286.017 163.2)"><line x1="0" x2="0" y1="0" y2="5" /><g transform="translate(0 6)"><text class="lab">229.33</text></g></g><g class="tick" transform="translate(955.611 163.2)"><line x1="0" x2="0" y1="0" y2="5" /><g transform="translate(0 6)"><text class="lab">806.56</text></g></g><g class="tick" transform="translate(1008.54 163.2)"><line x1="0" x2="0" y1="0" y2="5" /><g transform="translate(0 6)"><text class="lab">852.19</text></g></g><g class="tick" transform="translate(1140.2 163.2)"><line x1="0" x2="0" y1="0" y2="5" /><g transform="translate(0 6)"><text class="lab">965.69</text></g></g><g class="tick" transform="translate(1169.99 163.2)"><line x1="0" x2="0" y1="0" y2="5" /><g transform="translate(0 6)"><text class="lab">991.37</text></g></g><g class="tick" transform="translate(1180 163.2)"><line x1="0" x2="0" y1="0" y2="5" /><g transform="translate(0 6)"><text class="lab">1000.00</text></g></g></g></g></g><g class="plotbox trees"><g class="tree t0" transform="translate(20 0)"><g class="plotbox"><g class="c2 node n33 p0 root" transform="translate(131.646 26.8)"><g class="a33 c1 node n31 p0" transform="translate(34.0208 31.1735)"><g class="a31 c1 node n30 p0" transform="translate(0.0 15.761)"><g class="a30 c1 node n29 p0" transform="translate(0.0 1.55382)"><g class="a29 c1 node n25 p0" transform="translate(0.0 10.5503)"><g class="a25 c1 node n24 p0" transform="translate(0.0 1.55661)"><g class="a24 c1 node n14 p0" transform="translate(0.0 22.517)"><g class="a14 leaf node n3 p0 sample" transform="translate(0.0 11.4878)"><path class="edge" d="M 0 0 V -11.4878 H 0.0" /><rect class="sym" height="6" width="6" x="-3" y="-3" /><text class="lab" transform="translate(0 11)">3</text></g><path class="edge" d="M 0 0 V -22.517 H 0.0" /><circle class="sym" cx="0" cy="0" r="3" /><text class="lab lft" transform="translate(-3 -7.0)">14</text></g><path class="edge" d="M 0 0 V -1.55661 H 0.0" /><circle class="sym" cx="0" cy="0" r="3" /><text class="lab lft" transform="translate(-3 -7.0)">24</text></g><path class="edge" d="M 0 0 V -10.5503 H 0.0" /><circle class="sym" cx="0" cy="0" r="3" /><text class="lab lft" transform="translate(-3 -7.0)">25</text></g><path class="edge" d="M 0 0 V -1.55382 H 0.0" /><circle class="sym" cx="0" cy="0" r="3" /><text class="lab lft" transform="translate(-3 -7.0)">29</text></g><path class="edge" d="M 0 0 V -15.761 H 0.0" /><circle class="sym" cx="0" cy="0" r="3" /><text class="lab lft" transform="translate(-3 -7.0)">30</text></g><path class="edge" d="M 0 0 V -31.1735 H -34.0208" /><circle class="sym" cx="0" cy="0" r="3" /><text class="lab rgt" transform="translate(3 -7.0)">31</text></g><g class="a33 c2 node n32 p0" transform="translate(-34.0208 14.2177)"><g class="a32 c1 node n22 p0" transform="translate(41.2083 49.2278)"><g class="a22 c2 node n21 p0" transform="translate(0.0 2.64594)"><g class="a21 leaf node n5 p0 sample" transform="translate(11.5 28.5085)"><path class="edge" d="M 0 0 V -28.5085 H -11.5" /><rect class="sym" height="6" width="6" x="-3" y="-3" /><text class="lab" transform="translate(0 11)">5</text></g><g class="a21 c1 node n19 p0" transform="translate(-11.5 0.756697)"><g class="a19 c2 node n18 p0" transform="translate(0.0 7.34507)"><g class="a18 leaf node n6 p0 sample" transform="translate(7.66667 20.4067)"><path class="edge" d="M 0 0 V -20.4067 H -7.66667" /><rect class="sym" height="6" width="6" x="-3" y="-3" /><text class="lab" transform="translate(0 11)">6</text></g><g class="a18 c1 node n10 p0" transform="translate(-7.66667 18.8197)"><g class="a10 leaf node n2 p0 sample" transform="translate(0.0 1.587)"><path class="edge" d="M 0 0 V -1.587 H 0.0" /><rect class="sym" height="6" width="6" x="-3" y="-3" /><text class="lab" transform="translate(0 11)">2</text></g><path class="edge" d="M 0 0 V -18.8197 H 7.66667" /><circle class="sym" cx="0" cy="0" r="3" /><text class="lab lft" transform="translate(-3 -7.0)">10</text></g><path class="edge" d="M 0 0 V -7.34507 H 0.0" /><circle class="sym" cx="0" cy="0" r="3" /><text class="lab lft" transform="translate(-3 -7.0)">18</text></g><path class="edge" d="M 0 0 V -0.756697 H 11.5" /><circle class="sym" cx="0" cy="0" r="3" /><text class="lab lft" transform="translate(-3 -7.0)">19</text></g><path class="edge" d="M 0 0 V -2.64594 H 0.0" /><circle class="sym" cx="0" cy="0" r="3" /><text class="lab lft" transform="translate(-3 -7.0)">21</text></g><path class="edge" d="M 0 0 V -49.2278 H -41.2083" /><circle class="sym" cx="0" cy="0" r="3" /><text class="lab rgt" transform="translate(3 -7.0)">22</text></g><g class="a32 c1 node n28 p0" transform="translate(-41.2083 40.481)"><g class="a28 c2 node n27 p0" transform="translate(0.0 2.39944)"><g class="a27 leaf node n0 p0 sample" transform="translate(-28.75 37.5018)"><path class="edge" d="M 0 0 V -37.5018 H 28.75" /><rect class="sym" height="6" width="6" x="-3" y="-3" /><text class="lab" transform="translate(0 11)">0</text></g><g class="a27 c2 node n17 p0" transform="translate(28.75 21.0751)"><g class="a17 leaf node n4 p0 sample" transform="translate(19.1667 16.4267)"><path class="edge" d="M 0 0 V -16.4267 H -19.1667" /><rect class="sym" height="6" width="6" x="-3" y="-3" /><text class="lab" transform="translate(0 11)">4</text></g><g class="a17 c2 node n16 p0" transform="translate(-19.1667 1.27906)"><g class="a16 c2 node n12 p0" transform="translate(-15.3333 10.8483)"><g class="a12 leaf node n1 p0 sample" transform="translate(-7.66667 4.29932)"><path class="edge" d="M 0 0 V -4.29932 H 7.66667" /><rect class="sym" height="6" width="6" x="-3" y="-3" /><text class="lab" transform="translate(0 11)">1</text></g><g class="a12 leaf node n9 p0 sample" transform="translate(7.66667 4.29932)"><path class="edge" d="M 0 0 V -4.29932 H -7.66667" /><rect class="sym" height="6" width="6" x="-3" y="-3" /><text class="lab" transform="translate(0 11)">9</text></g><path class="edge" d="M 0 0 V -10.8483 H 15.3333" /><circle class="sym" cx="0" cy="0" r="3" /><text class="lab lft" transform="translate(-3 -7.0)">12</text></g><g class="a16 c2 node n13 p0" transform="translate(15.3333 7.44013)"><g class="a13 leaf node n7 p0 sample" transform="translate(-7.66667 7.70748)"><path class="edge" d="M 0 0 V -7.70748 H 7.66667" /><rect class="sym" height="6" width="6" x="-3" y="-3" /><text class="lab" transform="translate(0 11)">7</text></g><g class="a13 leaf node n8 p0 sample" transform="translate(7.66667 7.70748)"><path class="edge" d="M 0 0 V -7.70748 H -7.66667" /><rect class="sym" height="6" width="6" x="-3" y="-3" /><text class="lab" transform="translate(0 11)">8</text></g><path class="edge" d="M 0 0 V -7.44013 H -15.3333" /><circle class="sym" cx="0" cy="0" r="3" /><text class="lab rgt" transform="translate(3 -7.0)">13</text></g><path class="edge" d="M 0 0 V -1.27906 H 19.1667" /><circle class="sym" cx="0" cy="0" r="3" /><text class="lab lft" transform="translate(-3 -7.0)">16</text></g><path class="edge" d="M 0 0 V -21.0751 H -28.75" /><circle class="sym" cx="0" cy="0" r="3" /><text class="lab rgt" transform="translate(3 -7.0)">17</text></g><path class="edge" d="M 0 0 V -2.39944 H 0.0" /><circle class="sym" cx="0" cy="0" r="3" /><text class="lab lft" transform="translate(-3 -7.0)">27</text></g><path class="edge" d="M 0 0 V -40.481 H 41.2083" /><circle class="sym" cx="0" cy="0" r="3" /><text class="lab lft" transform="translate(-3 -7.0)">28</text></g><path class="edge" d="M 0 0 V -14.2177 H 34.0208" /><circle class="sym" cx="0" cy="0" r="3" /><text class="lab lft" transform="translate(-3 -7.0)">32</text></g><circle class="sym" cx="0" cy="0" r="3" /><text class="lab" transform="translate(0 -11)">33</text></g></g></g><g class="tree t1" transform="translate(213.333 0)"><g class="plotbox"><g class="c2 node n33 p0 root" transform="translate(131.646 26.8)"><g class="a33 c1 node n31 p0" transform="translate(34.0208 31.1735)"><g class="a31 c1 node n30 p0" transform="translate(0.0 15.761)"><g class="a30 c1 node n26 p0" transform="translate(0.0 12.1041)"><g class="a26 c1 node n24 p0" transform="translate(0.0 1.55661)"><g class="a24 c1 node n14 p0" transform="translate(0.0 22.517)"><g class="a14 leaf node n3 p0 sample" transform="translate(0.0 11.4878)"><path class="edge" d="M 0 0 V -11.4878 H 0.0" /><rect class="sym" height="6" width="6" x="-3" y="-3" /><text class="lab" transform="translate(0 11)">3</text></g><path class="edge" d="M 0 0 V -22.517 H 0.0" /><circle class="sym" cx="0" cy="0" r="3" /><text class="lab lft" transform="translate(-3 -7.0)">14</text></g><path class="edge" d="M 0 0 V -1.55661 H 0.0" /><circle class="sym" cx="0" cy="0" r="3" /><text class="lab lft" transform="translate(-3 -7.0)">24</text></g><path class="edge" d="M 0 0 V -12.1041 H 0.0" /><circle class="sym" cx="0" cy="0" r="3" /><text class="lab lft" transform="translate(-3 -7.0)">26</text></g><path class="edge" d="M 0 0 V -15.761 H 0.0" /><circle class="sym" cx="0" cy="0" r="3" /><text class="lab lft" transform="translate(-3 -7.0)">30</text></g><path class="edge" d="M 0 0 V -31.1735 H -34.0208" /><circle class="sym" cx="0" cy="0" r="3" /><text class="lab rgt" transform="translate(3 -7.0)">31</text></g><g class="a33 c2 node n32 p0" transform="translate(-34.0208 14.2177)"><g class="a32 c1 node n22 p0" transform="translate(41.2083 49.2278)"><g class="a22 c2 node n21 p0" transform="translate(0.0 2.64594)"><g class="a21 leaf node n5 p0 sample" transform="translate(11.5 28.5085)"><path class="edge" d="M 0 0 V -28.5085 H -11.5" /><rect class="sym" height="6" width="6" x="-3" y="-3" /><text class="lab" transform="translate(0 11)">5</text></g><g class="a21 c1 node n19 p0" transform="translate(-11.5 0.756697)"><g class="a19 c2 node n18 p0" transform="translate(0.0 7.34507)"><g class="a18 leaf node n6 p0 sample" transform="translate(7.66667 20.4067)"><path class="edge" d="M 0 0 V -20.4067 H -7.66667" /><rect class="sym" height="6" width="6" x="-3" y="-3" /><text class="lab" transform="translate(0 11)">6</text></g><g class="a18 c1 node n10 p0" transform="translate(-7.66667 18.8197)"><g class="a10 leaf node n2 p0 sample" transform="translate(0.0 1.587)"><path class="edge" d="M 0 0 V -1.587 H 0.0" /><rect class="sym" height="6" width="6" x="-3" y="-3" /><text class="lab" transform="translate(0 11)">2</text></g><path class="edge" d="M 0 0 V -18.8197 H 7.66667" /><circle class="sym" cx="0" cy="0" r="3" /><text class="lab lft" transform="translate(-3 -7.0)">10</text></g><path class="edge" d="M 0 0 V -7.34507 H 0.0" /><circle class="sym" cx="0" cy="0" r="3" /><text class="lab lft" transform="translate(-3 -7.0)">18</text></g><path class="edge" d="M 0 0 V -0.756697 H 11.5" /><circle class="sym" cx="0" cy="0" r="3" /><text class="lab lft" transform="translate(-3 -7.0)">19</text></g><path class="edge" d="M 0 0 V -2.64594 H 0.0" /><circle class="sym" cx="0" cy="0" r="3" /><text class="lab lft" transform="translate(-3 -7.0)">21</text></g><path class="edge" d="M 0 0 V -49.2278 H -41.2083" /><circle class="sym" cx="0" cy="0" r="3" /><text class="lab rgt" transform="translate(3 -7.0)">22</text></g><g class="a32 c1 node n28 p0" transform="translate(-41.2083 40.481)"><g class="a28 c2 node n27 p0" transform="translate(0.0 2.39944)"><g class="a27 leaf node n0 p0 sample" transform="translate(-28.75 37.5018)"><path class="edge" d="M 0 0 V -37.5018 H 28.75" /><rect class="sym" height="6" width="6" x="-3" y="-3" /><text class="lab" transform="translate(0 11)">0</text></g><g class="a27 c2 node n17 p0" transform="translate(28.75 21.0751)"><g class="a17 leaf node n4 p0 sample" transform="translate(19.1667 16.4267)"><path class="edge" d="M 0 0 V -16.4267 H -19.1667" /><rect class="sym" height="6" width="6" x="-3" y="-3" /><text class="lab" transform="translate(0 11)">4</text></g><g class="a17 c2 node n16 p0" transform="translate(-19.1667 1.27906)"><g class="a16 c2 node n12 p0" transform="translate(-15.3333 10.8483)"><g class="a12 leaf node n1 p0 sample" transform="translate(-7.66667 4.29932)"><path class="edge" d="M 0 0 V -4.29932 H 7.66667" /><rect class="sym" height="6" width="6" x="-3" y="-3" /><text class="lab" transform="translate(0 11)">1</text></g><g class="a12 leaf node n9 p0 sample" transform="translate(7.66667 4.29932)"><path class="edge" d="M 0 0 V -4.29932 H -7.66667" /><rect class="sym" height="6" width="6" x="-3" y="-3" /><text class="lab" transform="translate(0 11)">9</text></g><path class="edge" d="M 0 0 V -10.8483 H 15.3333" /><circle class="sym" cx="0" cy="0" r="3" /><text class="lab lft" transform="translate(-3 -7.0)">12</text></g><g class="a16 c2 node n13 p0" transform="translate(15.3333 7.44013)"><g class="a13 leaf node n7 p0 sample" transform="translate(-7.66667 7.70748)"><path class="edge" d="M 0 0 V -7.70748 H 7.66667" /><rect class="sym" height="6" width="6" x="-3" y="-3" /><text class="lab" transform="translate(0 11)">7</text></g><g class="a13 leaf node n8 p0 sample" transform="translate(7.66667 7.70748)"><path class="edge" d="M 0 0 V -7.70748 H -7.66667" /><rect class="sym" height="6" width="6" x="-3" y="-3" /><text class="lab" transform="translate(0 11)">8</text></g><path class="edge" d="M 0 0 V -7.44013 H -15.3333" /><circle class="sym" cx="0" cy="0" r="3" /><text class="lab rgt" transform="translate(3 -7.0)">13</text></g><path class="edge" d="M 0 0 V -1.27906 H 19.1667" /><circle class="sym" cx="0" cy="0" r="3" /><text class="lab lft" transform="translate(-3 -7.0)">16</text></g><path class="edge" d="M 0 0 V -21.0751 H -28.75" /><circle class="sym" cx="0" cy="0" r="3" /><text class="lab rgt" transform="translate(3 -7.0)">17</text></g><path class="edge" d="M 0 0 V -2.39944 H 0.0" /><circle class="sym" cx="0" cy="0" r="3" /><text class="lab lft" transform="translate(-3 -7.0)">27</text></g><path class="edge" d="M 0 0 V -40.481 H 41.2083" /><circle class="sym" cx="0" cy="0" r="3" /><text class="lab lft" transform="translate(-3 -7.0)">28</text></g><path class="edge" d="M 0 0 V -14.2177 H 34.0208" /><circle class="sym" cx="0" cy="0" r="3" /><text class="lab lft" transform="translate(-3 -7.0)">32</text></g><circle class="sym" cx="0" cy="0" r="3" /><text class="lab" transform="translate(0 -11)">33</text></g></g></g><g class="tree t2" transform="translate(406.667 0)"><g class="plotbox"><g class="c2 node n33 p0 root" transform="translate(131.646 26.8)"><g class="a33 c1 node n31 p0" transform="translate(34.0208 31.1735)"><g class="a31 c1 node n15 p0" transform="translate(0.0 51.9387)"><g class="a15 leaf node n3 p0 sample" transform="translate(0.0 11.4878)"><path class="edge" d="M 0 0 V -11.4878 H 0.0" /><rect class="sym" height="6" width="6" x="-3" y="-3" /><text class="lab" transform="translate(0 11)">3</text></g><path class="edge" d="M 0 0 V -51.9387 H 0.0" /><circle class="sym" cx="0" cy="0" r="3" /><text class="lab lft" transform="translate(-3 -7.0)">15</text></g><path class="edge" d="M 0 0 V -31.1735 H -34.0208" /><circle class="sym" cx="0" cy="0" r="3" /><text class="lab rgt" transform="translate(3 -7.0)">31</text></g><g class="a33 c2 node n32 p0" transform="translate(-34.0208 14.2177)"><g class="a32 c1 node n22 p0" transform="translate(41.2083 49.2278)"><g class="a22 c2 node n21 p0" transform="translate(0.0 2.64594)"><g class="a21 leaf node n5 p0 sample" transform="translate(11.5 28.5085)"><path class="edge" d="M 0 0 V -28.5085 H -11.5" /><rect class="sym" height="6" width="6" x="-3" y="-3" /><text class="lab" transform="translate(0 11)">5</text></g><g class="a21 c1 node n19 p0" transform="translate(-11.5 0.756697)"><g class="a19 c2 node n18 p0" transform="translate(0.0 7.34507)"><g class="a18 leaf node n6 p0 sample" transform="translate(7.66667 20.4067)"><path class="edge" d="M 0 0 V -20.4067 H -7.66667" /><rect class="sym" height="6" width="6" x="-3" y="-3" /><text class="lab" transform="translate(0 11)">6</text></g><g class="a18 c1 node n10 p0" transform="translate(-7.66667 18.8197)"><g class="a10 leaf node n2 p0 sample" transform="translate(0.0 1.587)"><path class="edge" d="M 0 0 V -1.587 H 0.0" /><rect class="sym" height="6" width="6" x="-3" y="-3" /><text class="lab" transform="translate(0 11)">2</text></g><path class="edge" d="M 0 0 V -18.8197 H 7.66667" /><circle class="sym" cx="0" cy="0" r="3" /><text class="lab lft" transform="translate(-3 -7.0)">10</text></g><path class="edge" d="M 0 0 V -7.34507 H 0.0" /><circle class="sym" cx="0" cy="0" r="3" /><text class="lab lft" transform="translate(-3 -7.0)">18</text></g><path class="edge" d="M 0 0 V -0.756697 H 11.5" /><circle class="sym" cx="0" cy="0" r="3" /><text class="lab lft" transform="translate(-3 -7.0)">19</text></g><path class="edge" d="M 0 0 V -2.64594 H 0.0" /><circle class="sym" cx="0" cy="0" r="3" /><text class="lab lft" transform="translate(-3 -7.0)">21</text></g><path class="edge" d="M 0 0 V -49.2278 H -41.2083" /><circle class="sym" cx="0" cy="0" r="3" /><text class="lab rgt" transform="translate(3 -7.0)">22</text></g><g class="a32 c1 node n28 p0" transform="translate(-41.2083 40.481)"><g class="a28 c2 node n27 p0" transform="translate(0.0 2.39944)"><g class="a27 leaf node n0 p0 sample" transform="translate(-28.75 37.5018)"><path class="edge" d="M 0 0 V -37.5018 H 28.75" /><rect class="sym" height="6" width="6" x="-3" y="-3" /><text class="lab" transform="translate(0 11)">0</text></g><g class="a27 c2 node n17 p0" transform="translate(28.75 21.0751)"><g class="a17 leaf node n4 p0 sample" transform="translate(19.1667 16.4267)"><path class="edge" d="M 0 0 V -16.4267 H -19.1667" /><rect class="sym" height="6" width="6" x="-3" y="-3" /><text class="lab" transform="translate(0 11)">4</text></g><g class="a17 c2 node n16 p0" transform="translate(-19.1667 1.27906)"><g class="a16 c2 node n12 p0" transform="translate(-15.3333 10.8483)"><g class="a12 leaf node n1 p0 sample" transform="translate(-7.66667 4.29932)"><path class="edge" d="M 0 0 V -4.29932 H 7.66667" /><rect class="sym" height="6" width="6" x="-3" y="-3" /><text class="lab" transform="translate(0 11)">1</text></g><g class="a12 leaf node n9 p0 sample" transform="translate(7.66667 4.29932)"><path class="edge" d="M 0 0 V -4.29932 H -7.66667" /><rect class="sym" height="6" width="6" x="-3" y="-3" /><text class="lab" transform="translate(0 11)">9</text></g><path class="edge" d="M 0 0 V -10.8483 H 15.3333" /><circle class="sym" cx="0" cy="0" r="3" /><text class="lab lft" transform="translate(-3 -7.0)">12</text></g><g class="a16 c2 node n13 p0" transform="translate(15.3333 7.44013)"><g class="a13 leaf node n7 p0 sample" transform="translate(-7.66667 7.70748)"><path class="edge" d="M 0 0 V -7.70748 H 7.66667" /><rect class="sym" height="6" width="6" x="-3" y="-3" /><text class="lab" transform="translate(0 11)">7</text></g><g class="a13 leaf node n8 p0 sample" transform="translate(7.66667 7.70748)"><path class="edge" d="M 0 0 V -7.70748 H -7.66667" /><rect class="sym" height="6" width="6" x="-3" y="-3" /><text class="lab" transform="translate(0 11)">8</text></g><path class="edge" d="M 0 0 V -7.44013 H -15.3333" /><circle class="sym" cx="0" cy="0" r="3" /><text class="lab rgt" transform="translate(3 -7.0)">13</text></g><path class="edge" d="M 0 0 V -1.27906 H 19.1667" /><circle class="sym" cx="0" cy="0" r="3" /><text class="lab lft" transform="translate(-3 -7.0)">16</text></g><path class="edge" d="M 0 0 V -21.0751 H -28.75" /><circle class="sym" cx="0" cy="0" r="3" /><text class="lab rgt" transform="translate(3 -7.0)">17</text></g><path class="edge" d="M 0 0 V -2.39944 H 0.0" /><circle class="sym" cx="0" cy="0" r="3" /><text class="lab lft" transform="translate(-3 -7.0)">27</text></g><path class="edge" d="M 0 0 V -40.481 H 41.2083" /><circle class="sym" cx="0" cy="0" r="3" /><text class="lab lft" transform="translate(-3 -7.0)">28</text></g><path class="edge" d="M 0 0 V -14.2177 H 34.0208" /><circle class="sym" cx="0" cy="0" r="3" /><text class="lab lft" transform="translate(-3 -7.0)">32</text></g><circle class="sym" cx="0" cy="0" r="3" /><text class="lab" transform="translate(0 -11)">33</text></g></g></g><g class="tree t3" transform="translate(600 0)"><g class="plotbox"><g class="c2 node n33 p0 root" transform="translate(104.333 26.8)"><g class="a33 c2 node n31 p0" transform="translate(47.9167 31.1735)"><g class="a31 c1 node n15 p0" transform="translate(13.4167 51.9387)"><g class="a15 leaf node n3 p0 sample" transform="translate(0.0 11.4878)"><path class="edge" d="M 0 0 V -11.4878 H 0.0" /><rect class="sym" height="6" width="6" x="-3" y="-3" /><text class="lab" transform="translate(0 11)">3</text></g><path class="edge" d="M 0 0 V -51.9387 H -13.4167" /><circle class="sym" cx="0" cy="0" r="3" /><text class="lab rgt" transform="translate(3 -7.0)">15</text></g><g class="a31 c1 node n30 p0" transform="translate(-13.4167 15.761)"><g class="a30 c1 node n29 p0" transform="translate(0.0 1.55382)"><g class="a29 c1 node n23 p0" transform="translate(0.0 14.9572)"><g class="a23 c2 node n21 p0" transform="translate(0.0 2.64594)"><g class="a21 leaf node n5 p0 sample" transform="translate(11.5 28.5085)"><path class="edge" d="M 0 0 V -28.5085 H -11.5" /><rect class="sym" height="6" width="6" x="-3" y="-3" /><text class="lab" transform="translate(0 11)">5</text></g><g class="a21 c1 node n19 p0" transform="translate(-11.5 0.756697)"><g class="a19 c2 node n18 p0" transform="translate(0.0 7.34507)"><g class="a18 leaf node n6 p0 sample" transform="translate(7.66667 20.4067)"><path class="edge" d="M 0 0 V -20.4067 H -7.66667" /><rect class="sym" height="6" width="6" x="-3" y="-3" /><text class="lab" transform="translate(0 11)">6</text></g><g class="a18 c1 node n10 p0" transform="translate(-7.66667 18.8197)"><g class="a10 leaf node n2 p0 sample" transform="translate(0.0 1.587)"><path class="edge" d="M 0 0 V -1.587 H 0.0" /><rect class="sym" height="6" width="6" x="-3" y="-3" /><text class="lab" transform="translate(0 11)">2</text></g><path class="edge" d="M 0 0 V -18.8197 H 7.66667" /><circle class="sym" cx="0" cy="0" r="3" /><text class="lab lft" transform="translate(-3 -7.0)">10</text></g><path class="edge" d="M 0 0 V -7.34507 H 0.0" /><circle class="sym" cx="0" cy="0" r="3" /><text class="lab lft" transform="translate(-3 -7.0)">18</text></g><path class="edge" d="M 0 0 V -0.756697 H 11.5" /><circle class="sym" cx="0" cy="0" r="3" /><text class="lab lft" transform="translate(-3 -7.0)">19</text></g><path class="edge" d="M 0 0 V -2.64594 H 0.0" /><circle class="sym" cx="0" cy="0" r="3" /><text class="lab lft" transform="translate(-3 -7.0)">21</text></g><path class="edge" d="M 0 0 V -14.9572 H 0.0" /><circle class="sym" cx="0" cy="0" r="3" /><text class="lab lft" transform="translate(-3 -7.0)">23</text></g><path class="edge" d="M 0 0 V -1.55382 H 0.0" /><circle class="sym" cx="0" cy="0" r="3" /><text class="lab lft" transform="translate(-3 -7.0)">29</text></g><path class="edge" d="M 0 0 V -15.761 H 13.4167" /><circle class="sym" cx="0" cy="0" r="3" /><text class="lab lft" transform="translate(-3 -7.0)">30</text></g><path class="edge" d="M 0 0 V -31.1735 H -47.9167" /><circle class="sym" cx="0" cy="0" r="3" /><text class="lab rgt" transform="translate(3 -7.0)">31</text></g><g class="a33 c1 node n32 p0" transform="translate(-47.9167 14.2177)"><g class="a32 c1 node n28 p0" transform="translate(0.0 40.481)"><g class="a28 c2 node n27 p0" transform="translate(0.0 2.39944)"><g class="a27 leaf node n0 p0 sample" transform="translate(-28.75 37.5018)"><path class="edge" d="M 0 0 V -37.5018 H 28.75" /><rect class="sym" height="6" width="6" x="-3" y="-3" /><text class="lab" transform="translate(0 11)">0</text></g><g class="a27 c2 node n17 p0" transform="translate(28.75 21.0751)"><g class="a17 leaf node n4 p0 sample" transform="translate(19.1667 16.4267)"><path class="edge" d="M 0 0 V -16.4267 H -19.1667" /><rect class="sym" height="6" width="6" x="-3" y="-3" /><text class="lab" transform="translate(0 11)">4</text></g><g class="a17 c2 node n16 p0" transform="translate(-19.1667 1.27906)"><g class="a16 c2 node n12 p0" transform="translate(-15.3333 10.8483)"><g class="a12 leaf node n1 p0 sample" transform="translate(-7.66667 4.29932)"><path class="edge" d="M 0 0 V -4.29932 H 7.66667" /><rect class="sym" height="6" width="6" x="-3" y="-3" /><text class="lab" transform="translate(0 11)">1</text></g><g class="a12 leaf node n9 p0 sample" transform="translate(7.66667 4.29932)"><path class="edge" d="M 0 0 V -4.29932 H -7.66667" /><rect class="sym" height="6" width="6" x="-3" y="-3" /><text class="lab" transform="translate(0 11)">9</text></g><path class="edge" d="M 0 0 V -10.8483 H 15.3333" /><circle class="sym" cx="0" cy="0" r="3" /><text class="lab lft" transform="translate(-3 -7.0)">12</text></g><g class="a16 c2 node n13 p0" transform="translate(15.3333 7.44013)"><g class="a13 leaf node n7 p0 sample" transform="translate(-7.66667 7.70748)"><path class="edge" d="M 0 0 V -7.70748 H 7.66667" /><rect class="sym" height="6" width="6" x="-3" y="-3" /><text class="lab" transform="translate(0 11)">7</text></g><g class="a13 leaf node n8 p0 sample" transform="translate(7.66667 7.70748)"><path class="edge" d="M 0 0 V -7.70748 H -7.66667" /><rect class="sym" height="6" width="6" x="-3" y="-3" /><text class="lab" transform="translate(0 11)">8</text></g><path class="edge" d="M 0 0 V -7.44013 H -15.3333" /><circle class="sym" cx="0" cy="0" r="3" /><text class="lab rgt" transform="translate(3 -7.0)">13</text></g><path class="edge" d="M 0 0 V -1.27906 H 19.1667" /><circle class="sym" cx="0" cy="0" r="3" /><text class="lab lft" transform="translate(-3 -7.0)">16</text></g><path class="edge" d="M 0 0 V -21.0751 H -28.75" /><circle class="sym" cx="0" cy="0" r="3" /><text class="lab rgt" transform="translate(3 -7.0)">17</text></g><path class="edge" d="M 0 0 V -2.39944 H 0.0" /><circle class="sym" cx="0" cy="0" r="3" /><text class="lab lft" transform="translate(-3 -7.0)">27</text></g><path class="edge" d="M 0 0 V -40.481 H 0.0" /><circle class="sym" cx="0" cy="0" r="3" /><text class="lab lft" transform="translate(-3 -7.0)">28</text></g><path class="edge" d="M 0 0 V -14.2177 H 47.9167" /><circle class="sym" cx="0" cy="0" r="3" /><text class="lab lft" transform="translate(-3 -7.0)">32</text></g><circle class="sym" cx="0" cy="0" r="3" /><text class="lab" transform="translate(0 -11)">33</text></g></g></g><g class="tree t4" transform="translate(793.333 0)"><g class="plotbox"><g class="c2 node n33 p0 root" transform="translate(117.271 26.8)"><g class="a33 c2 node n31 p0" transform="translate(29.2292 31.1735)"><g class="a31 c1 node n15 p0" transform="translate(-11.5 51.9387)"><g class="a15 leaf node n3 p0 sample" transform="translate(0.0 11.4878)"><path class="edge" d="M 0 0 V -11.4878 H 0.0" /><rect class="sym" height="6" width="6" x="-3" y="-3" /><text class="lab" transform="translate(0 11)">3</text></g><path class="edge" d="M 0 0 V -51.9387 H 11.5" /><circle class="sym" cx="0" cy="0" r="3" /><text class="lab lft" transform="translate(-3 -7.0)">15</text></g><g class="a31 c1 node n30 p0" transform="translate(11.5 15.761)"><g class="a30 c1 node n29 p0" transform="translate(0.0 1.55382)"><g class="a29 c1 node n23 p0" transform="translate(0.0 14.9572)"><g class="a23 c2 node n21 p0" transform="translate(0.0 2.64594)"><g class="a21 leaf node n5 p0 sample" transform="translate(-7.66667 28.5085)"><path class="edge" d="M 0 0 V -28.5085 H 7.66667" /><rect class="sym" height="6" width="6" x="-3" y="-3" /><text class="lab" transform="translate(0 11)">5</text></g><g class="a21 c1 node n19 p0" transform="translate(7.66667 0.756697)"><g class="a19 c1 node n18 p0" transform="translate(0.0 7.34507)"><g class="a18 leaf node n6 p0 sample" transform="translate(0.0 20.4067)"><path class="edge" d="M 0 0 V -20.4067 H 0.0" /><rect class="sym" height="6" width="6" x="-3" y="-3" /><text class="lab" transform="translate(0 11)">6</text></g><path class="edge" d="M 0 0 V -7.34507 H 0.0" /><circle class="sym" cx="0" cy="0" r="3" /><text class="lab lft" transform="translate(-3 -7.0)">18</text></g><path class="edge" d="M 0 0 V -0.756697 H -7.66667" /><circle class="sym" cx="0" cy="0" r="3" /><text class="lab rgt" transform="translate(3 -7.0)">19</text></g><path class="edge" d="M 0 0 V -2.64594 H 0.0" /><circle class="sym" cx="0" cy="0" r="3" /><text class="lab lft" transform="translate(-3 -7.0)">21</text></g><path class="edge" d="M 0 0 V -14.9572 H 0.0" /><circle class="sym" cx="0" cy="0" r="3" /><text class="lab lft" transform="translate(-3 -7.0)">23</text></g><path class="edge" d="M 0 0 V -1.55382 H 0.0" /><circle class="sym" cx="0" cy="0" r="3" /><text class="lab lft" transform="translate(-3 -7.0)">29</text></g><path class="edge" d="M 0 0 V -15.761 H -11.5" /><circle class="sym" cx="0" cy="0" r="3" /><text class="lab rgt" transform="translate(3 -7.0)">30</text></g><path class="edge" d="M 0 0 V -31.1735 H -29.2292" /><circle class="sym" cx="0" cy="0" r="3" /><text class="lab rgt" transform="translate(3 -7.0)">31</text></g><g class="a33 c1 node n32 p0" transform="translate(-29.2292 14.2177)"><g class="a32 c2 node n28 p0" transform="translate(0.0 40.481)"><g class="a28 c2 node n27 p0" transform="translate(-31.625 2.39944)"><g class="a27 leaf node n0 p0 sample" transform="translate(-28.75 37.5018)"><path class="edge" d="M 0 0 V -37.5018 H 28.75" /><rect class="sym" height="6" width="6" x="-3" y="-3" /><text class="lab" transform="translate(0 11)">0</text></g><g class="a27 c2 node n17 p0" transform="translate(28.75 21.0751)"><g class="a17 leaf node n4 p0 sample" transform="translate(19.1667 16.4267)"><path class="edge" d="M 0 0 V -16.4267 H -19.1667" /><rect class="sym" height="6" width="6" x="-3" y="-3" /><text class="lab" transform="translate(0 11)">4</text></g><g class="a17 c2 node n16 p0" transform="translate(-19.1667 1.27906)"><g class="a16 c2 node n12 p0" transform="translate(-15.3333 10.8483)"><g class="a12 leaf node n1 p0 sample" transform="translate(-7.66667 4.29932)"><path class="edge" d="M 0 0 V -4.29932 H 7.66667" /><rect class="sym" height="6" width="6" x="-3" y="-3" /><text class="lab" transform="translate(0 11)">1</text></g><g class="a12 leaf node n9 p0 sample" transform="translate(7.66667 4.29932)"><path class="edge" d="M 0 0 V -4.29932 H -7.66667" /><rect class="sym" height="6" width="6" x="-3" y="-3" /><text class="lab" transform="translate(0 11)">9</text></g><path class="edge" d="M 0 0 V -10.8483 H 15.3333" /><circle class="sym" cx="0" cy="0" r="3" /><text class="lab lft" transform="translate(-3 -7.0)">12</text></g><g class="a16 c2 node n13 p0" transform="translate(15.3333 7.44013)"><g class="a13 leaf node n7 p0 sample" transform="translate(-7.66667 7.70748)"><path class="edge" d="M 0 0 V -7.70748 H 7.66667" /><rect class="sym" height="6" width="6" x="-3" y="-3" /><text class="lab" transform="translate(0 11)">7</text></g><g class="a13 leaf node n8 p0 sample" transform="translate(7.66667 7.70748)"><path class="edge" d="M 0 0 V -7.70748 H -7.66667" /><rect class="sym" height="6" width="6" x="-3" y="-3" /><text class="lab" transform="translate(0 11)">8</text></g><path class="edge" d="M 0 0 V -7.44013 H -15.3333" /><circle class="sym" cx="0" cy="0" r="3" /><text class="lab rgt" transform="translate(3 -7.0)">13</text></g><path class="edge" d="M 0 0 V -1.27906 H 19.1667" /><circle class="sym" cx="0" cy="0" r="3" /><text class="lab lft" transform="translate(-3 -7.0)">16</text></g><path class="edge" d="M 0 0 V -21.0751 H -28.75" /><circle class="sym" cx="0" cy="0" r="3" /><text class="lab rgt" transform="translate(3 -7.0)">17</text></g><path class="edge" d="M 0 0 V -2.39944 H 31.625" /><circle class="sym" cx="0" cy="0" r="3" /><text class="lab lft" transform="translate(-3 -7.0)">27</text></g><g class="a28 c1 node n11 p0" transform="translate(31.625 38.3143)"><g class="a11 leaf node n2 p0 sample" transform="translate(0.0 1.587)"><path class="edge" d="M 0 0 V -1.587 H 0.0" /><rect class="sym" height="6" width="6" x="-3" y="-3" /><text class="lab" transform="translate(0 11)">2</text></g><path class="edge" d="M 0 0 V -38.3143 H -31.625" /><circle class="sym" cx="0" cy="0" r="3" /><text class="lab rgt" transform="translate(3 -7.0)">11</text></g><path class="edge" d="M 0 0 V -40.481 H 0.0" /><circle class="sym" cx="0" cy="0" r="3" /><text class="lab lft" transform="translate(-3 -7.0)">28</text></g><path class="edge" d="M 0 0 V -14.2177 H 29.2292" /><circle class="sym" cx="0" cy="0" r="3" /><text class="lab lft" transform="translate(-3 -7.0)">32</text></g><circle class="sym" cx="0" cy="0" r="3" /><text class="lab" transform="translate(0 -11)">33</text></g></g></g><g class="tree t5" transform="translate(986.667 0)"><g class="plotbox"><g class="c2 node n33 p0 root" transform="translate(117.271 26.8)"><g class="a33 c2 node n31 p0" transform="translate(29.2292 31.1735)"><g class="a31 c1 node n15 p0" transform="translate(-11.5 51.9387)"><g class="a15 leaf node n3 p0 sample" transform="translate(0.0 11.4878)"><path class="edge" d="M 0 0 V -11.4878 H 0.0" /><rect class="sym" height="6" width="6" x="-3" y="-3" /><text class="lab" transform="translate(0 11)">3</text></g><path class="edge" d="M 0 0 V -51.9387 H 11.5" /><circle class="sym" cx="0" cy="0" r="3" /><text class="lab lft" transform="translate(-3 -7.0)">15</text></g><g class="a31 c2 node n30 p0" transform="translate(11.5 15.761)"><g class="a30 c1 node n29 p0" transform="translate(-7.66667 1.55382)"><g class="a29 c1 node n23 p0" transform="translate(0.0 14.9572)"><g class="a23 c1 node n21 p0" transform="translate(0.0 2.64594)"><g class="a21 leaf node n5 p0 sample" transform="translate(0.0 28.5085)"><path class="edge" d="M 0 0 V -28.5085 H 0.0" /><rect class="sym" height="6" width="6" x="-3" y="-3" /><text class="lab" transform="translate(0 11)">5</text></g><path class="edge" d="M 0 0 V -2.64594 H 0.0" /><circle class="sym" cx="0" cy="0" r="3" /><text class="lab lft" transform="translate(-3 -7.0)">21</text></g><path class="edge" d="M 0 0 V -14.9572 H 0.0" /><circle class="sym" cx="0" cy="0" r="3" /><text class="lab lft" transform="translate(-3 -7.0)">23</text></g><path class="edge" d="M 0 0 V -1.55382 H 7.66667" /><circle class="sym" cx="0" cy="0" r="3" /><text class="lab lft" transform="translate(-3 -7.0)">29</text></g><g class="a30 c1 node n26 p0" transform="translate(7.66667 12.1041)"><g class="a26 c1 node n24 p0" transform="translate(0.0 1.55661)"><g class="a24 c1 node n20 p0" transform="translate(0.0 6.25298)"><g class="a20 c1 node n18 p0" transform="translate(0.0 7.34507)"><g class="a18 leaf node n6 p0 sample" transform="translate(0.0 20.4067)"><path class="edge" d="M 0 0 V -20.4067 H 0.0" /><rect class="sym" height="6" width="6" x="-3" y="-3" /><text class="lab" transform="translate(0 11)">6</text></g><path class="edge" d="M 0 0 V -7.34507 H 0.0" /><circle class="sym" cx="0" cy="0" r="3" /><text class="lab lft" transform="translate(-3 -7.0)">18</text></g><path class="edge" d="M 0 0 V -6.25298 H 0.0" /><circle class="sym" cx="0" cy="0" r="3" /><text class="lab lft" transform="translate(-3 -7.0)">20</text></g><path class="edge" d="M 0 0 V -1.55661 H 0.0" /><circle class="sym" cx="0" cy="0" r="3" /><text class="lab lft" transform="translate(-3 -7.0)">24</text></g><path class="edge" d="M 0 0 V -12.1041 H -7.66667" /><circle class="sym" cx="0" cy="0" r="3" /><text class="lab rgt" transform="translate(3 -7.0)">26</text></g><path class="edge" d="M 0 0 V -15.761 H -11.5" /><circle class="sym" cx="0" cy="0" r="3" /><text class="lab rgt" transform="translate(3 -7.0)">30</text></g><path class="edge" d="M 0 0 V -31.1735 H -29.2292" /><circle class="sym" cx="0" cy="0" r="3" /><text class="lab rgt" transform="translate(3 -7.0)">31</text></g><g class="a33 c1 node n32 p0" transform="translate(-29.2292 14.2177)"><g class="a32 c2 node n28 p0" transform="translate(0.0 40.481)"><g class="a28 c2 node n27 p0" transform="translate(-31.625 2.39944)"><g class="a27 leaf node n0 p0 sample" transform="translate(-28.75 37.5018)"><path class="edge" d="M 0 0 V -37.5018 H 28.75" /><rect class="sym" height="6" width="6" x="-3" y="-3" /><text class="lab" transform="translate(0 11)">0</text></g><g class="a27 c2 node n17 p0" transform="translate(28.75 21.0751)"><g class="a17 leaf node n4 p0 sample" transform="translate(19.1667 16.4267)"><path class="edge" d="M 0 0 V -16.4267 H -19.1667" /><rect class="sym" height="6" width="6" x="-3" y="-3" /><text class="lab" transform="translate(0 11)">4</text></g><g class="a17 c2 node n16 p0" transform="translate(-19.1667 1.27906)"><g class="a16 c2 node n12 p0" transform="translate(-15.3333 10.8483)"><g class="a12 leaf node n1 p0 sample" transform="translate(-7.66667 4.29932)"><path class="edge" d="M 0 0 V -4.29932 H 7.66667" /><rect class="sym" height="6" width="6" x="-3" y="-3" /><text class="lab" transform="translate(0 11)">1</text></g><g class="a12 leaf node n9 p0 sample" transform="translate(7.66667 4.29932)"><path class="edge" d="M 0 0 V -4.29932 H -7.66667" /><rect class="sym" height="6" width="6" x="-3" y="-3" /><text class="lab" transform="translate(0 11)">9</text></g><path class="edge" d="M 0 0 V -10.8483 H 15.3333" /><circle class="sym" cx="0" cy="0" r="3" /><text class="lab lft" transform="translate(-3 -7.0)">12</text></g><g class="a16 c2 node n13 p0" transform="translate(15.3333 7.44013)"><g class="a13 leaf node n7 p0 sample" transform="translate(-7.66667 7.70748)"><path class="edge" d="M 0 0 V -7.70748 H 7.66667" /><rect class="sym" height="6" width="6" x="-3" y="-3" /><text class="lab" transform="translate(0 11)">7</text></g><g class="a13 leaf node n8 p0 sample" transform="translate(7.66667 7.70748)"><path class="edge" d="M 0 0 V -7.70748 H -7.66667" /><rect class="sym" height="6" width="6" x="-3" y="-3" /><text class="lab" transform="translate(0 11)">8</text></g><path class="edge" d="M 0 0 V -7.44013 H -15.3333" /><circle class="sym" cx="0" cy="0" r="3" /><text class="lab rgt" transform="translate(3 -7.0)">13</text></g><path class="edge" d="M 0 0 V -1.27906 H 19.1667" /><circle class="sym" cx="0" cy="0" r="3" /><text class="lab lft" transform="translate(-3 -7.0)">16</text></g><path class="edge" d="M 0 0 V -21.0751 H -28.75" /><circle class="sym" cx="0" cy="0" r="3" /><text class="lab rgt" transform="translate(3 -7.0)">17</text></g><path class="edge" d="M 0 0 V -2.39944 H 31.625" /><circle class="sym" cx="0" cy="0" r="3" /><text class="lab lft" transform="translate(-3 -7.0)">27</text></g><g class="a28 c1 node n11 p0" transform="translate(31.625 38.3143)"><g class="a11 leaf node n2 p0 sample" transform="translate(0.0 1.587)"><path class="edge" d="M 0 0 V -1.587 H 0.0" /><rect class="sym" height="6" width="6" x="-3" y="-3" /><text class="lab" transform="translate(0 11)">2</text></g><path class="edge" d="M 0 0 V -38.3143 H -31.625" /><circle class="sym" cx="0" cy="0" r="3" /><text class="lab rgt" transform="translate(3 -7.0)">11</text></g><path class="edge" d="M 0 0 V -40.481 H 0.0" /><circle class="sym" cx="0" cy="0" r="3" /><text class="lab lft" transform="translate(-3 -7.0)">28</text></g><path class="edge" d="M 0 0 V -14.2177 H 29.2292" /><circle class="sym" cx="0" cy="0" r="3" /><text class="lab lft" transform="translate(-3 -7.0)">32</text></g><circle class="sym" cx="0" cy="0" r="3" /><text class="lab" transform="translate(0 -11)">33</text></g></g></g></g></g></svg>
