<svg baseProfile="full" height="200" version="1.1" width="1000" xmlns="http://www.w3.org/2000/svg" xmlns:ev="http://www.w3.org/2001/xml-events" xmlns:xlink="http://www.w3.org/1999/xlink"><defs><style type="text/css"><![CDATA[.background path {fill: #808080; fill-opacity: 0}.background path:nth-child(odd) {fill-opacity: .1}.axes {font-size: 14px}.x-axis .tick .lab {font-weight: bold; dominant-baseline: hanging}.axes, .tree {font-size: 14px; text-anchor: middle}.axes line, .edge {stroke: black; fill: none}.y-axis .grid {stroke: #FAFAFA}.node > .sym {fill: black; stroke: none}.site > .sym {stroke: black}.mut text {fill: red; font-style: italic}.mut.extra text {fill: hotpink}.mut line {fill: none; stroke: none}.mut .sym {fill: none; stroke: red}.mut.extra .sym {stroke: hotpink}.node .mut .sym {stroke-width: 1.5px}.tree text, .tree-sequence text {dominant-baseline: central}.plotbox .lab.lft {text-anchor: end}.plotbox .lab.rgt {text-anchor: start}]]></style></defs><g class="tree-sequence"><g class="background"><path d="M20,0 l192,0 l0,138.2 l-8.24726,25 l0,5 l-183.753,0 l0,-5 l0,-25 l0,-138.2z" /><path d="M212,0 l192,0 l0,138.2 l-76.847,25 l0,5 l-123.4,0 l0,-5 l8.24726,-25 l0,-138.2z" /><path d="M404,0 l192,0 l0,138.2 l214.424,25 l0,5 l-483.271,0 l0,-5 l76.847,-25 l0,-138.2z" /><path d="M596,0 l192,0 l0,138.2 l33.0373,25 l0,5 l-10.6132,0 l0,-5 l-214.424,-25 l0,-138.2z" /><path d="M788,0 l192,0 l0,138.2 l0,25 l0,5 l-158.963,0 l0,-5 l-33.0373,-25 l0,-138.2z" /></g><g class="axes"><g class="x-axis"><g transform="translate(500 200)"><text class="lab" text-anchor="middle" transform="translate(0 -11)">Genome position</text></g><line x1="20" x2="980" y1="163.2" y2="163.2" /><g class="ticks"><g class="tick" transform="translate(20 163.2)"><line x1="0" x2="0" y1="0" y2="5" /><g transform="translate(0 6)"><text class="lab">0.00</text></g></g><g class="tick" transform="translate(203.753 163.2)"><line x1="0" x2="0" y1="0" y2="5" /><g transform="translate(0 6)"><text class="lab">191.41</text></g></g><g class="tick" transform="translate(327.153 163.2)"><line x1="0" x2="0" y1="0" y2="5" /><g transform="translate(0 6)"><text class="lab">319.95</text></g></g><g class="tick" transform="translate(810.424 163.2)"><line x1="0" x2="0" y1="0" y2="5" /><g transform="translate(0 6)"><text class="lab">823.36</text></g></g><g class="tick" transform="translate(821.037 163.2)"><line x1="0" x2="0" y1="0" y2="5" /><g transform="translate(0 6)"><text class="lab">834.41</text></g></g><g class="tick" transform="translate(980 163.2)"><line x1="0" x2="0" y1="0" y2="5" /><g transform="translate(0 6)"><text class="lab">1000.00</text></g></g></g></g></g><g class="plotbox trees"><g class="tree t0" transform="translate(20 0)"><g class="plotbox"><g class="c2 node n30 p0 root" transform="translate(98.85 26.8)"><g class="a30 c2 node n23 p0" transform="translate(-48.45 59.903)"><g class="a23 c2 node n18 p0" transform="translate(15.2 18.8033)"><g class="a18 leaf node n8 p0 sample" transform="translate(-7.6 15.8937)"><path class="edge" d="M 0 0 V -15.8937 H 7.6" /><rect class="sym" height="6" width="6" x="-3" y="-3" /><text class="lab" transform="translate(0 11)">8</text></g><g class="a18 c1 node n14 p0" transform="translate(7.6 8.96357)"><g class="a14 leaf node n9 p0 sample" transform="translate(0.0 6.93018)"><path class="edge" d="M 0 0 V -6.93018 H 0.0" /><rect class="sym" height="6" width="6" x="-3" y="-3" /><text class="lab" transform="translate(0 11)">9</text></g><path class="edge" d="M 0 0 V -8.96357 H -7.6" /><circle class="sym" cx="0" cy="0" r="3" /><text class="lab rgt" transform="translate(3 -7.0)">14</text></g><path class="edge" d="M 0 0 V -18.8033 H -15.2" /><circle class="sym" cx="0" cy="0" r="3" /><text class="lab rgt" transform="translate(3 -7.0)">18</text></g><g class="a23 c1 node n19 p0" transform="translate(-15.2 17.9681)"><g class="a19 c2 node n16 p0" transform="translate(0.0 8.96696)"><g class="a16 leaf node n0 p0 sample" transform="translate(-7.6 7.76193)"><path class="edge" d="M 0 0 V -7.76193 H 7.6" /><rect class="sym" height="6" width="6" x="-3" y="-3" /><text class="lab" transform="translate(0 11)">0</text></g><g class="a16 leaf node n2 p0 sample" transform="translate(7.6 7.76193)"><path class="edge" d="M 0 0 V -7.76193 H -7.6" /><rect class="sym" height="6" width="6" x="-3" y="-3" /><text class="lab" transform="translate(0 11)">2</text></g><path class="edge" d="M 0 0 V -8.96696 H 0.0" /><circle class="sym" cx="0" cy="0" r="3" /><text class="lab lft" transform="translate(-3 -7.0)">16</text></g><path class="edge" d="M 0 0 V -17.9681 H 15.2" /><circle class="sym" cx="0" cy="0" r="3" /><text class="lab lft" transform="translate(-3 -7.0)">19</text></g><path class="edge" d="M 0 0 V -59.903 H 48.45" /><circle class="sym" cx="0" cy="0" r="3" /><text class="lab lft" transform="translate(-3 -7.0)">23</text></g><g class="a30 c1 node n29 p0" transform="translate(48.45 32.1271)"><g class="a29 c2 node n28 p0" transform="translate(0.0 2.34953)"><g class="a28 c1 node n24 p0" transform="translate(17.1 23.4112)"><g class="a24 c1 node n17 p0" transform="translate(0.0 25.3237)"><g class="a17 leaf node n5 p0 sample" transform="translate(0.0 11.3885)"><path class="edge" d="M 0 0 V -11.3885 H 0.0" /><rect class="sym" height="6" width="6" x="-3" y="-3" /><text class="lab" transform="translate(0 11)">5</text></g><path class="edge" d="M 0 0 V -25.3237 H 0.0" /><circle class="sym" cx="0" cy="0" r="3" /><text class="lab lft" transform="translate(-3 -7.0)">17</text></g><path class="edge" d="M 0 0 V -23.4112 H -17.1" /><circle class="sym" cx="0" cy="0" r="3" /><text class="lab rgt" transform="translate(3 -7.0)">24</text></g><g class="a28 c2 node n27 p0" transform="translate(-17.1 11.2598)"><g class="a27 c1 node n10 p0" transform="translate(19 44.9508)"><g class="a10 leaf node n4 p0 sample" transform="translate(0.0 3.9128)"><path class="edge" d="M 0 0 V -3.9128 H 0.0" /><rect class="sym" height="6" width="6" x="-3" y="-3" /><text class="lab" transform="translate(0 11)">4</text></g><path class="edge" d="M 0 0 V -44.9508 H -19" /><circle class="sym" cx="0" cy="0" r="3" /><text class="lab rgt" transform="translate(3 -7.0)">10</text></g><g class="a27 c1 node n26 p0" transform="translate(-19 10.7436)"><g class="a26 c2 node n22 p0" transform="translate(0.0 20.3369)"><g class="a22 c2 node n12 p0" transform="translate(-15.2 12.5055)"><g class="a12 leaf node n1 p0 sample" transform="translate(-7.6 5.27767)"><path class="edge" d="M 0 0 V -5.27767 H 7.6" /><rect class="sym" height="6" width="6" x="-3" y="-3" /><text class="lab" transform="translate(0 11)">1</text></g><g class="a12 leaf node n6 p0 sample" transform="translate(7.6 5.27767)"><path class="edge" d="M 0 0 V -5.27767 H -7.6" /><rect class="sym" height="6" width="6" x="-3" y="-3" /><text class="lab" transform="translate(0 11)">6</text></g><path class="edge" d="M 0 0 V -12.5055 H 15.2" /><circle class="sym" cx="0" cy="0" r="3" /><text class="lab lft" transform="translate(-3 -7.0)">12</text></g><g class="a22 c1 node n21 p0" transform="translate(15.2 0.596176)"><g class="a21 c2 node n13 p0" transform="translate(0.0 11.4669)"><g class="a13 leaf node n3 p0 sample" transform="translate(-7.6 5.72012)"><path class="edge" d="M 0 0 V -5.72012 H 7.6" /><rect class="sym" height="6" width="6" x="-3" y="-3" /><text class="lab" transform="translate(0 11)">3</text></g><g class="a13 leaf node n7 p0 sample" transform="translate(7.6 5.72012)"><path class="edge" d="M 0 0 V -5.72012 H -7.6" /><rect class="sym" height="6" width="6" x="-3" y="-3" /><text class="lab" transform="translate(0 11)">7</text></g><path class="edge" d="M 0 0 V -11.4669 H 0.0" /><circle class="sym" cx="0" cy="0" r="3" /><text class="lab lft" transform="translate(-3 -7.0)">13</text></g><path class="edge" d="M 0 0 V -0.596176 H -15.2" /><circle class="sym" cx="0" cy="0" r="3" /><text class="lab rgt" transform="translate(3 -7.0)">21</text></g><path class="edge" d="M 0 0 V -20.3369 H 0.0" /><circle class="sym" cx="0" cy="0" r="3" /><text class="lab lft" transform="translate(-3 -7.0)">22</text></g><path class="edge" d="M 0 0 V -10.7436 H 19" /><circle class="sym" cx="0" cy="0" r="3" /><text class="lab lft" transform="translate(-3 -7.0)">26</text></g><path class="edge" d="M 0 0 V -11.2598 H 17.1" /><circle class="sym" cx="0" cy="0" r="3" /><text class="lab lft" transform="translate(-3 -7.0)">27</text></g><path class="edge" d="M 0 0 V -2.34953 H 0.0" /><circle class="sym" cx="0" cy="0" r="3" /><text class="lab lft" transform="translate(-3 -7.0)">28</text></g><path class="edge" d="M 0 0 V -32.1271 H -48.45" /><circle class="sym" cx="0" cy="0" r="3" /><text class="lab rgt" transform="translate(3 -7.0)">29</text></g><circle class="sym" cx="0" cy="0" r="3" /><text class="lab" transform="translate(0 -11)">30</text></g></g></g><g class="tree t1" transform="translate(212 0)"><g class="plotbox"><g class="c2 node n30 p0 root" transform="translate(95.525 26.8)"><g class="a30 c2 node n23 p0" transform="translate(-45.125 59.903)"><g class="a23 c2 node n18 p0" transform="translate(15.2 18.8033)"><g class="a18 leaf node n8 p0 sample" transform="translate(-7.6 15.8937)"><path class="edge" d="M 0 0 V -15.8937 H 7.6" /><rect class="sym" height="6" width="6" x="-3" y="-3" /><text class="lab" transform="translate(0 11)">8</text></g><g class="a18 c1 node n14 p0" transform="translate(7.6 8.96357)"><g class="a14 leaf node n9 p0 sample" transform="translate(0.0 6.93018)"><path class="edge" d="M 0 0 V -6.93018 H 0.0" /><rect class="sym" height="6" width="6" x="-3" y="-3" /><text class="lab" transform="translate(0 11)">9</text></g><path class="edge" d="M 0 0 V -8.96357 H -7.6" /><circle class="sym" cx="0" cy="0" r="3" /><text class="lab rgt" transform="translate(3 -7.0)">14</text></g><path class="edge" d="M 0 0 V -18.8033 H -15.2" /><circle class="sym" cx="0" cy="0" r="3" /><text class="lab rgt" transform="translate(3 -7.0)">18</text></g><g class="a23 c1 node n19 p0" transform="translate(-15.2 17.9681)"><g class="a19 c2 node n16 p0" transform="translate(0.0 8.96696)"><g class="a16 leaf node n0 p0 sample" transform="translate(-7.6 7.76193)"><path class="edge" d="M 0 0 V -7.76193 H 7.6" /><rect class="sym" height="6" width="6" x="-3" y="-3" /><text class="lab" transform="translate(0 11)">0</text></g><g class="a16 leaf node n2 p0 sample" transform="translate(7.6 7.76193)"><path class="edge" d="M 0 0 V -7.76193 H -7.6" /><rect class="sym" height="6" width="6" x="-3" y="-3" /><text class="lab" transform="translate(0 11)">2</text></g><path class="edge" d="M 0 0 V -8.96696 H 0.0" /><circle class="sym" cx="0" cy="0" r="3" /><text class="lab lft" transform="translate(-3 -7.0)">16</text></g><path class="edge" d="M 0 0 V -17.9681 H 15.2" /><circle class="sym" cx="0" cy="0" r="3" /><text class="lab lft" transform="translate(-3 -7.0)">19</text></g><path class="edge" d="M 0 0 V -59.903 H 45.125" /><circle class="sym" cx="0" cy="0" r="3" /><text class="lab lft" transform="translate(-3 -7.0)">23</text></g><g class="a30 c1 node n29 p0" transform="translate(45.125 32.1271)"><g class="a29 c2 node n28 p0" transform="translate(0.0 2.34953)"><g class="a28 c1 node n24 p0" transform="translate(23.75 23.4112)"><g class="a24 c1 node n17 p0" transform="translate(0.0 25.3237)"><g class="a17 leaf node n5 p0 sample" transform="translate(0.0 11.3885)"><path class="edge" d="M 0 0 V -11.3885 H 0.0" /><rect class="sym" height="6" width="6" x="-3" y="-3" /><text class="lab" transform="translate(0 11)">5</text></g><path class="edge" d="M 0 0 V -25.3237 H 0.0" /><circle class="sym" cx="0" cy="0" r="3" /><text class="lab lft" transform="translate(-3 -7.0)">17</text></g><path class="edge" d="M 0 0 V -23.4112 H -23.75" /><circle class="sym" cx="0" cy="0" r="3" /><text class="lab rgt" transform="translate(3 -7.0)">24</text></g><g class="a28 c1 node n27 p0" transform="translate(-23.75 11.2598)"><g class="a27 c1 node n26 p0" transform="translate(0.0 10.7436)"><g class="a26 c2 node n22 p0" transform="translate(0.0 20.3369)"><g class="a22 c2 node n12 p0" transform="translate(-20.9 12.5055)"><g class="a12 leaf node n1 p0 sample" transform="translate(-7.6 5.27767)"><path class="edge" d="M 0 0 V -5.27767 H 7.6" /><rect class="sym" height="6" width="6" x="-3" y="-3" /><text class="lab" transform="translate(0 11)">1</text></g><g class="a12 leaf node n6 p0 sample" transform="translate(7.6 5.27767)"><path class="edge" d="M 0 0 V -5.27767 H -7.6" /><rect class="sym" height="6" width="6" x="-3" y="-3" /><text class="lab" transform="translate(0 11)">6</text></g><path class="edge" d="M 0 0 V -12.5055 H 20.9" /><circle class="sym" cx="0" cy="0" r="3" /><text class="lab lft" transform="translate(-3 -7.0)">12</text></g><g class="a22 c2 node n21 p0" transform="translate(20.9 0.596176)"><g class="a21 c2 node n13 p0" transform="translate(-11.4 11.4669)"><g class="a13 leaf node n3 p0 sample" transform="translate(-7.6 5.72012)"><path class="edge" d="M 0 0 V -5.72012 H 7.6" /><rect class="sym" height="6" width="6" x="-3" y="-3" /><text class="lab" transform="translate(0 11)">3</text></g><g class="a13 leaf node n7 p0 sample" transform="translate(7.6 5.72012)"><path class="edge" d="M 0 0 V -5.72012 H -7.6" /><rect class="sym" height="6" width="6" x="-3" y="-3" /><text class="lab" transform="translate(0 11)">7</text></g><path class="edge" d="M 0 0 V -11.4669 H 11.4" /><circle class="sym" cx="0" cy="0" r="3" /><text class="lab lft" transform="translate(-3 -7.0)">13</text></g><g class="a21 c1 node n11 p0" transform="translate(11.4 13.2742)"><g class="a11 leaf node n4 p0 sample" transform="translate(0.0 3.9128)"><path class="edge" d="M 0 0 V -3.9128 H 0.0" /><rect class="sym" height="6" width="6" x="-3" y="-3" /><text class="lab" transform="translate(0 11)">4</text></g><path class="edge" d="M 0 0 V -13.2742 H -11.4" /><circle class="sym" cx="0" cy="0" r="3" /><text class="lab rgt" transform="translate(3 -7.0)">11</text></g><path class="edge" d="M 0 0 V -0.596176 H -20.9" /><circle class="sym" cx="0" cy="0" r="3" /><text class="lab rgt" transform="translate(3 -7.0)">21</text></g><path class="edge" d="M 0 0 V -20.3369 H 0.0" /><circle class="sym" cx="0" cy="0" r="3" /><text class="lab lft" transform="translate(-3 -7.0)">22</text></g><path class="edge" d="M 0 0 V -10.7436 H 0.0" /><circle class="sym" cx="0" cy="0" r="3" /><text class="lab lft" transform="translate(-3 -7.0)">26</text></g><path class="edge" d="M 0 0 V -11.2598 H 23.75" /><circle class="sym" cx="0" cy="0" r="3" /><text class="lab lft" transform="translate(-3 -7.0)">27</text></g><path class="edge" d="M 0 0 V -2.34953 H 0.0" /><circle class="sym" cx="0" cy="0" r="3" /><text class="lab lft" transform="translate(-3 -7.0)">28</text></g><path class="edge" d="M 0 0 V -32.1271 H -45.125" /><circle class="sym" cx="0" cy="0" r="3" /><text class="lab rgt" transform="translate(3 -7.0)">29</text></g><circle class="sym" cx="0" cy="0" r="3" /><text class="lab" transform="translate(0 -11)">30</text></g></g></g><g class="tree t2" transform="translate(404 0)"><g class="plotbox"><g class="c2 node n30 p0 root" transform="translate(114.762 26.8)"><g class="a30 c1 node n23 p0" transform="translate(42.0375 59.903)"><g class="a23 c2 node n18 p0" transform="translate(0.0 18.8033)"><g class="a18 leaf node n8 p0 sample" transform="translate(-7.6 15.8937)"><path class="edge" d="M 0 0 V -15.8937 H 7.6" /><rect class="sym" height="6" width="6" x="-3" y="-3" /><text class="lab" transform="translate(0 11)">8</text></g><g class="a18 c1 node n14 p0" transform="translate(7.6 8.96357)"><g class="a14 leaf node n9 p0 sample" transform="translate(0.0 6.93018)"><path class="edge" d="M 0 0 V -6.93018 H 0.0" /><rect class="sym" height="6" width="6" x="-3" y="-3" /><text class="lab" transform="translate(0 11)">9</text></g><path class="edge" d="M 0 0 V -8.96357 H -7.6" /><circle class="sym" cx="0" cy="0" r="3" /><text class="lab rgt" transform="translate(3 -7.0)">14</text></g><path class="edge" d="M 0 0 V -18.8033 H 0.0" /><circle class="sym" cx="0" cy="0" r="3" /><text class="lab lft" transform="translate(-3 -7.0)">18</text></g><path class="edge" d="M 0 0 V -59.903 H -42.0375" /><circle class="sym" cx="0" cy="0" r="3" /><text class="lab rgt" transform="translate(3 -7.0)">23</text></g><g class="a30 c2 node n29 p0" transform="translate(-42.0375 32.1271)"><g class="a29 c2 node n28 p0" transform="translate(37.525 2.34953)"><g class="a28 c1 node n24 p0" transform="translate(23.75 23.4112)"><g class="a24 c1 node n17 p0" transform="translate(0.0 25.3237)"><g class="a17 leaf node n5 p0 sample" transform="translate(0.0 11.3885)"><path class="edge" d="M 0 0 V -11.3885 H 0.0" /><rect class="sym" height="6" width="6" x="-3" y="-3" /><text class="lab" transform="translate(0 11)">5</text></g><path class="edge" d="M 0 0 V -25.3237 H 0.0" /><circle class="sym" cx="0" cy="0" r="3" /><text class="lab lft" transform="translate(-3 -7.0)">17</text></g><path class="edge" d="M 0 0 V -23.4112 H -23.75" /><circle class="sym" cx="0" cy="0" r="3" /><text class="lab rgt" transform="translate(3 -7.0)">24</text></g><g class="a28 c1 node n27 p0" transform="translate(-23.75 11.2598)"><g class="a27 c1 node n26 p0" transform="translate(0.0 10.7436)"><g class="a26 c2 node n22 p0" transform="translate(0.0 20.3369)"><g class="a22 c2 node n12 p0" transform="translate(-20.9 12.5055)"><g class="a12 leaf node n1 p0 sample" transform="translate(-7.6 5.27767)"><path class="edge" d="M 0 0 V -5.27767 H 7.6" /><rect class="sym" height="6" width="6" x="-3" y="-3" /><text class="lab" transform="translate(0 11)">1</text></g><g class="a12 leaf node n6 p0 sample" transform="translate(7.6 5.27767)"><path class="edge" d="M 0 0 V -5.27767 H -7.6" /><rect class="sym" height="6" width="6" x="-3" y="-3" /><text class="lab" transform="translate(0 11)">6</text></g><path class="edge" d="M 0 0 V -12.5055 H 20.9" /><circle class="sym" cx="0" cy="0" r="3" /><text class="lab lft" transform="translate(-3 -7.0)">12</text></g><g class="a22 c2 node n21 p0" transform="translate(20.9 0.596176)"><g class="a21 c2 node n13 p0" transform="translate(-11.4 11.4669)"><g class="a13 leaf node n3 p0 sample" transform="translate(-7.6 5.72012)"><path class="edge" d="M 0 0 V -5.72012 H 7.6" /><rect class="sym" height="6" width="6" x="-3" y="-3" /><text class="lab" transform="translate(0 11)">3</text></g><g class="a13 leaf node n7 p0 sample" transform="translate(7.6 5.72012)"><path class="edge" d="M 0 0 V -5.72012 H -7.6" /><rect class="sym" height="6" width="6" x="-3" y="-3" /><text class="lab" transform="translate(0 11)">7</text></g><path class="edge" d="M 0 0 V -11.4669 H 11.4" /><circle class="sym" cx="0" cy="0" r="3" /><text class="lab lft" transform="translate(-3 -7.0)">13</text></g><g class="a21 c1 node n11 p0" transform="translate(11.4 13.2742)"><g class="a11 leaf node n4 p0 sample" transform="translate(0.0 3.9128)"><path class="edge" d="M 0 0 V -3.9128 H 0.0" /><rect class="sym" height="6" width="6" x="-3" y="-3" /><text class="lab" transform="translate(0 11)">4</text></g><path class="edge" d="M 0 0 V -13.2742 H -11.4" /><circle class="sym" cx="0" cy="0" r="3" /><text class="lab rgt" transform="translate(3 -7.0)">11</text></g><path class="edge" d="M 0 0 V -0.596176 H -20.9" /><circle class="sym" cx="0" cy="0" r="3" /><text class="lab rgt" transform="translate(3 -7.0)">21</text></g><path class="edge" d="M 0 0 V -20.3369 H 0.0" /><circle class="sym" cx="0" cy="0" r="3" /><text class="lab lft" transform="translate(-3 -7.0)">22</text></g><path class="edge" d="M 0 0 V -10.7436 H 0.0" /><circle class="sym" cx="0" cy="0" r="3" /><text class="lab lft" transform="translate(-3 -7.0)">26</text></g><path class="edge" d="M 0 0 V -11.2598 H 23.75" /><circle class="sym" cx="0" cy="0" r="3" /><text class="lab lft" transform="translate(-3 -7.0)">27</text></g><path class="edge" d="M 0 0 V -2.34953 H -37.525" /><circle class="sym" cx="0" cy="0" r="3" /><text class="lab rgt" transform="translate(3 -7.0)">28</text></g><g class="a29 c1 node n20 p0" transform="translate(-37.525 45.744)"><g class="a20 c2 node n16 p0" transform="translate(0.0 8.96696)"><g class="a16 leaf node n0 p0 sample" transform="translate(-7.6 7.76193)"><path class="edge" d="M 0 0 V -7.76193 H 7.6" /><rect class="sym" height="6" width="6" x="-3" y="-3" /><text class="lab" transform="translate(0 11)">0</text></g><g class="a16 leaf node n2 p0 sample" transform="translate(7.6 7.76193)"><path class="edge" d="M 0 0 V -7.76193 H -7.6" /><rect class="sym" height="6" width="6" x="-3" y="-3" /><text class="lab" transform="translate(0 11)">2</text></g><path class="edge" d="M 0 0 V -8.96696 H 0.0" /><circle class="sym" cx="0" cy="0" r="3" /><text class="lab lft" transform="translate(-3 -7.0)">16</text></g><path class="edge" d="M 0 0 V -45.744 H 37.525" /><circle class="sym" cx="0" cy="0" r="3" /><text class="lab lft" transform="translate(-3 -7.0)">20</text></g><path class="edge" d="M 0 0 V -32.1271 H 42.0375" /><circle class="sym" cx="0" cy="0" r="3" /><text class="lab lft" transform="translate(-3 -7.0)">29</text></g><circle class="sym" cx="0" cy="0" r="3" /><text class="lab" transform="translate(0 -11)">30</text></g></g></g><g class="tree t3" transform="translate(596 0)"><g class="plotbox"><g class="c2 node n30 p0 root" transform="translate(114.762 26.8)"><g class="a30 c1 node n23 p0" transform="translate(42.0375 59.903)"><g class="a23 c2 node n18 p0" transform="translate(0.0 18.8033)"><g class="a18 leaf node n8 p0 sample" transform="translate(-7.6 15.8937)"><path class="edge" d="M 0 0 V -15.8937 H 7.6" /><rect class="sym" height="6" width="6" x="-3" y="-3" /><text class="lab" transform="translate(0 11)">8</text></g><g class="a18 c1 node n14 p0" transform="translate(7.6 8.96357)"><g class="a14 leaf node n9 p0 sample" transform="translate(0.0 6.93018)"><path class="edge" d="M 0 0 V -6.93018 H 0.0" /><rect class="sym" height="6" width="6" x="-3" y="-3" /><text class="lab" transform="translate(0 11)">9</text></g><path class="edge" d="M 0 0 V -8.96357 H -7.6" /><circle class="sym" cx="0" cy="0" r="3" /><text class="lab rgt" transform="translate(3 -7.0)">14</text></g><path class="edge" d="M 0 0 V -18.8033 H 0.0" /><circle class="sym" cx="0" cy="0" r="3" /><text class="lab lft" transform="translate(-3 -7.0)">18</text></g><path class="edge" d="M 0 0 V -59.903 H -42.0375" /><circle class="sym" cx="0" cy="0" r="3" /><text class="lab rgt" transform="translate(3 -7.0)">23</text></g><g class="a30 c2 node n29 p0" transform="translate(-42.0375 32.1271)"><g class="a29 c1 node n28 p0" transform="translate(37.525 2.34953)"><g class="a28 c1 node n27 p0" transform="translate(0.0 11.2598)"><g class="a27 c2 node n26 p0" transform="translate(0.0 10.7436)"><g class="a26 c2 node n22 p0" transform="translate(-23.75 20.3369)"><g class="a22 c2 node n12 p0" transform="translate(-20.9 12.5055)"><g class="a12 leaf node n1 p0 sample" transform="translate(-7.6 5.27767)"><path class="edge" d="M 0 0 V -5.27767 H 7.6" /><rect class="sym" height="6" width="6" x="-3" y="-3" /><text class="lab" transform="translate(0 11)">1</text></g><g class="a12 leaf node n6 p0 sample" transform="translate(7.6 5.27767)"><path class="edge" d="M 0 0 V -5.27767 H -7.6" /><rect class="sym" height="6" width="6" x="-3" y="-3" /><text class="lab" transform="translate(0 11)">6</text></g><path class="edge" d="M 0 0 V -12.5055 H 20.9" /><circle class="sym" cx="0" cy="0" r="3" /><text class="lab lft" transform="translate(-3 -7.0)">12</text></g><g class="a22 c2 node n21 p0" transform="translate(20.9 0.596176)"><g class="a21 c2 node n13 p0" transform="translate(-11.4 11.4669)"><g class="a13 leaf node n3 p0 sample" transform="translate(-7.6 5.72012)"><path class="edge" d="M 0 0 V -5.72012 H 7.6" /><rect class="sym" height="6" width="6" x="-3" y="-3" /><text class="lab" transform="translate(0 11)">3</text></g><g class="a13 leaf node n7 p0 sample" transform="translate(7.6 5.72012)"><path class="edge" d="M 0 0 V -5.72012 H -7.6" /><rect class="sym" height="6" width="6" x="-3" y="-3" /><text class="lab" transform="translate(0 11)">7</text></g><path class="edge" d="M 0 0 V -11.4669 H 11.4" /><circle class="sym" cx="0" cy="0" r="3" /><text class="lab lft" transform="translate(-3 -7.0)">13</text></g><g class="a21 c1 node n11 p0" transform="translate(11.4 13.2742)"><g class="a11 leaf node n4 p0 sample" transform="translate(0.0 3.9128)"><path class="edge" d="M 0 0 V -3.9128 H 0.0" /><rect class="sym" height="6" width="6" x="-3" y="-3" /><text class="lab" transform="translate(0 11)">4</text></g><path class="edge" d="M 0 0 V -13.2742 H -11.4" /><circle class="sym" cx="0" cy="0" r="3" /><text class="lab rgt" transform="translate(3 -7.0)">11</text></g><path class="edge" d="M 0 0 V -0.596176 H -20.9" /><circle class="sym" cx="0" cy="0" r="3" /><text class="lab rgt" transform="translate(3 -7.0)">21</text></g><path class="edge" d="M 0 0 V -20.3369 H 23.75" /><circle class="sym" cx="0" cy="0" r="3" /><text class="lab lft" transform="translate(-3 -7.0)">22</text></g><g class="a26 c1 node n25 p0" transform="translate(23.75 1.40789)"><g class="a25 c1 node n17 p0" transform="translate(0.0 25.3237)"><g class="a17 leaf node n5 p0 sample" transform="translate(0.0 11.3885)"><path class="edge" d="M 0 0 V -11.3885 H 0.0" /><rect class="sym" height="6" width="6" x="-3" y="-3" /><text class="lab" transform="translate(0 11)">5</text></g><path class="edge" d="M 0 0 V -25.3237 H 0.0" /><circle class="sym" cx="0" cy="0" r="3" /><text class="lab lft" transform="translate(-3 -7.0)">17</text></g><path class="edge" d="M 0 0 V -1.40789 H -23.75" /><circle class="sym" cx="0" cy="0" r="3" /><text class="lab rgt" transform="translate(3 -7.0)">25</text></g><path class="edge" d="M 0 0 V -10.7436 H 0.0" /><circle class="sym" cx="0" cy="0" r="3" /><text class="lab lft" transform="translate(-3 -7.0)">26</text></g><path class="edge" d="M 0 0 V -11.2598 H 0.0" /><circle class="sym" cx="0" cy="0" r="3" /><text class="lab lft" transform="translate(-3 -7.0)">27</text></g><path class="edge" d="M 0 0 V -2.34953 H -37.525" /><circle class="sym" cx="0" cy="0" r="3" /><text class="lab rgt" transform="translate(3 -7.0)">28</text></g><g class="a29 c1 node n20 p0" transform="translate(-37.525 45.744)"><g class="a20 c2 node n16 p0" transform="translate(0.0 8.96696)"><g class="a16 leaf node n0 p0 sample" transform="translate(-7.6 7.76193)"><path class="edge" d="M 0 0 V -7.76193 H 7.6" /><rect class="sym" height="6" width="6" x="-3" y="-3" /><text class="lab" transform="translate(0 11)">0</text></g><g class="a16 leaf node n2 p0 sample" transform="translate(7.6 7.76193)"><path class="edge" d="M 0 0 V -7.76193 H -7.6" /><rect class="sym" height="6" width="6" x="-3" y="-3" /><text class="lab" transform="translate(0 11)">2</text></g><path class="edge" d="M 0 0 V -8.96696 H 0.0" /><circle class="sym" cx="0" cy="0" r="3" /><text class="lab lft" transform="translate(-3 -7.0)">16</text></g><path class="edge" d="M 0 0 V -45.744 H 37.525" /><circle class="sym" cx="0" cy="0" r="3" /><text class="lab lft" transform="translate(-3 -7.0)">20</text></g><path class="edge" d="M 0 0 V -32.1271 H 42.0375" /><circle class="sym" cx="0" cy="0" r="3" /><text class="lab lft" transform="translate(-3 -7.0)">29</text></g><circle class="sym" cx="0" cy="0" r="3" /><text class="lab" transform="translate(0 -11)">30</text></g></g></g><g class="tree t4" transform="translate(788 0)"><g class="plotbox"><g class="c2 node n30 p0 root" transform="translate(119.512 26.8)"><g class="a30 c1 node n23 p0" transform="translate(44.8875 59.903)"><g class="a23 c1 node n18 p0" transform="translate(0.0 18.8033)"><g class="a18 leaf node n8 p0 sample" transform="translate(0.0 15.8937)"><path class="edge" d="M 0 0 V -15.8937 H 0.0" /><rect class="sym" height="6" width="6" x="-3" y="-3" /><text class="lab" transform="translate(0 11)">8</text></g><path class="edge" d="M 0 0 V -18.8033 H 0.0" /><circle class="sym" cx="0" cy="0" r="3" /><text class="lab lft" transform="translate(-3 -7.0)">18</text></g><path class="edge" d="M 0 0 V -59.903 H -44.8875" /><circle class="sym" cx="0" cy="0" r="3" /><text class="lab rgt" transform="translate(3 -7.0)">23</text></g><g class="a30 c2 node n29 p0" transform="translate(-44.8875 32.1271)"><g class="a29 c1 node n28 p0" transform="translate(39.425 2.34953)"><g class="a28 c1 node n27 p0" transform="translate(0.0 11.2598)"><g class="a27 c2 node n26 p0" transform="translate(0.0 10.7436)"><g class="a26 c2 node n22 p0" transform="translate(-27.55 20.3369)"><g class="a22 c2 node n12 p0" transform="translate(-20.9 12.5055)"><g class="a12 leaf node n1 p0 sample" transform="translate(-7.6 5.27767)"><path class="edge" d="M 0 0 V -5.27767 H 7.6" /><rect class="sym" height="6" width="6" x="-3" y="-3" /><text class="lab" transform="translate(0 11)">1</text></g><g class="a12 leaf node n6 p0 sample" transform="translate(7.6 5.27767)"><path class="edge" d="M 0 0 V -5.27767 H -7.6" /><rect class="sym" height="6" width="6" x="-3" y="-3" /><text class="lab" transform="translate(0 11)">6</text></g><path class="edge" d="M 0 0 V -12.5055 H 20.9" /><circle class="sym" cx="0" cy="0" r="3" /><text class="lab lft" transform="translate(-3 -7.0)">12</text></g><g class="a22 c2 node n21 p0" transform="translate(20.9 0.596176)"><g class="a21 c2 node n13 p0" transform="translate(-11.4 11.4669)"><g class="a13 leaf node n3 p0 sample" transform="translate(-7.6 5.72012)"><path class="edge" d="M 0 0 V -5.72012 H 7.6" /><rect class="sym" height="6" width="6" x="-3" y="-3" /><text class="lab" transform="translate(0 11)">3</text></g><g class="a13 leaf node n7 p0 sample" transform="translate(7.6 5.72012)"><path class="edge" d="M 0 0 V -5.72012 H -7.6" /><rect class="sym" height="6" width="6" x="-3" y="-3" /><text class="lab" transform="translate(0 11)">7</text></g><path class="edge" d="M 0 0 V -11.4669 H 11.4" /><circle class="sym" cx="0" cy="0" r="3" /><text class="lab lft" transform="translate(-3 -7.0)">13</text></g><g class="a21 c1 node n11 p0" transform="translate(11.4 13.2742)"><g class="a11 leaf node n4 p0 sample" transform="translate(0.0 3.9128)"><path class="edge" d="M 0 0 V -3.9128 H 0.0" /><rect class="sym" height="6" width="6" x="-3" y="-3" /><text class="lab" transform="translate(0 11)">4</text></g><path class="edge" d="M 0 0 V -13.2742 H -11.4" /><circle class="sym" cx="0" cy="0" r="3" /><text class="lab rgt" transform="translate(3 -7.0)">11</text></g><path class="edge" d="M 0 0 V -0.596176 H -20.9" /><circle class="sym" cx="0" cy="0" r="3" /><text class="lab rgt" transform="translate(3 -7.0)">21</text></g><path class="edge" d="M 0 0 V -20.3369 H 27.55" /><circle class="sym" cx="0" cy="0" r="3" /><text class="lab lft" transform="translate(-3 -7.0)">22</text></g><g class="a26 c1 node n25 p0" transform="translate(27.55 1.40789)"><g class="a25 c2 node n17 p0" transform="translate(0.0 25.3237)"><g class="a17 leaf node n5 p0 sample" transform="translate(-7.6 11.3885)"><path class="edge" d="M 0 0 V -11.3885 H 7.6" /><rect class="sym" height="6" width="6" x="-3" y="-3" /><text class="lab" transform="translate(0 11)">5</text></g><g class="a17 c1 node n15 p0" transform="translate(7.6 4.4583)"><g class="a15 leaf node n9 p0 sample" transform="translate(0.0 6.93018)"><path class="edge" d="M 0 0 V -6.93018 H 0.0" /><rect class="sym" height="6" width="6" x="-3" y="-3" /><text class="lab" transform="translate(0 11)">9</text></g><path class="edge" d="M 0 0 V -4.4583 H -7.6" /><circle class="sym" cx="0" cy="0" r="3" /><text class="lab rgt" transform="translate(3 -7.0)">15</text></g><path class="edge" d="M 0 0 V -25.3237 H 0.0" /><circle class="sym" cx="0" cy="0" r="3" /><text class="lab lft" transform="translate(-3 -7.0)">17</text></g><path class="edge" d="M 0 0 V -1.40789 H -27.55" /><circle class="sym" cx="0" cy="0" r="3" /><text class="lab rgt" transform="translate(3 -7.0)">25</text></g><path class="edge" d="M 0 0 V -10.7436 H 0.0" /><circle class="sym" cx="0" cy="0" r="3" /><text class="lab lft" transform="translate(-3 -7.0)">26</text></g><path class="edge" d="M 0 0 V -11.2598 H 0.0" /><circle class="sym" cx="0" cy="0" r="3" /><text class="lab lft" transform="translate(-3 -7.0)">27</text></g><path class="edge" d="M 0 0 V -2.34953 H -39.425" /><circle class="sym" cx="0" cy="0" r="3" /><text class="lab rgt" transform="translate(3 -7.0)">28</text></g><g class="a29 c1 node n20 p0" transform="translate(-39.425 45.744)"><g class="a20 c2 node n16 p0" transform="translate(0.0 8.96696)"><g class="a16 leaf node n0 p0 sample" transform="translate(-7.6 7.76193)"><path class="edge" d="M 0 0 V -7.76193 H 7.6" /><rect class="sym" height="6" width="6" x="-3" y="-3" /><text class="lab" transform="translate(0 11)">0</text></g><g class="a16 leaf node n2 p0 sample" transform="translate(7.6 7.76193)"><path class="edge" d="M 0 0 V -7.76193 H -7.6" /><rect class="sym" height="6" width="6" x="-3" y="-3" /><text class="lab" transform="translate(0 11)">2</text></g><path class="edge" d="M 0 0 V -8.96696 H 0.0" /><circle class="sym" cx="0" cy="0" r="3" /><text class="lab lft" transform="translate(-3 -7.0)">16</text></g><path class="edge" d="M 0 0 V -45.744 H 39.425" /><circle class="sym" cx="0" cy="0" r="3" /><text class="lab lft" transform="translate(-3 -7.0)">20</text></g><path class="edge" d="M 0 0 V -32.1271 H 44.8875" /><circle class="sym" cx="0" cy="0" r="3" /><text class="lab lft" transform="translate(-3 -7.0)">29</text></g><circle class="sym" cx="0" cy="0" r="3" /><text class="lab" transform="translate(0 -11)">30</text></g></g></g></g></g></svg>
