<svg baseProfile="full" height="200" version="1.1" width="800" xmlns="http://www.w3.org/2000/svg" xmlns:ev="http://www.w3.org/2001/xml-events" xmlns:xlink="http://www.w3.org/1999/xlink"><defs><style type="text/css"><![CDATA[.background path {fill: #808080; fill-opacity: 0}.background path:nth-child(odd) {fill-opacity: .1}.axes {font-size: 14px}.x-axis .tick .lab {font-weight: bold; dominant-baseline: hanging}.axes, .tree {font-size: 14px; text-anchor: middle}.axes line, .edge {stroke: black; fill: none}.y-axis .grid {stroke: #FAFAFA}.node > .sym {fill: black; stroke: none}.site > .sym {stroke: black}.mut text {fill: red; font-style: italic}.mut.extra text {fill: hotpink}.mut line {fill: none; stroke: none}.mut .sym {fill: none; stroke: red}.mut.extra .sym {stroke: hotpink}.node .mut .sym {stroke-width: 1.5px}.tree text, .tree-sequence text {dominant-baseline: central}.plotbox .lab.lft {text-anchor: end}.plotbox .lab.rgt {text-anchor: start}]]></style></defs><g class="tree-sequence"><g class="background"><path d="M20,0 l190,0 l0,138.2 l-43.0626,25 l0,5 l-146.937,0 l0,-5 l0,-25 l0,-138.2z" /><path d="M210,0 l190,0 l0,138.2 l290.641,25 l0,5 l-523.703,0 l0,-5 l43.0626,-25 l0,-138.2z" /><path d="M400,0 l190,0 l0,138.2 l156.031,25 l0,5 l-55.3904,0 l0,-5 l-290.641,-25 l0,-138.2z" /><path d="M590,0 l190,0 l0,138.2 l0,25 l0,5 l-33.969,0 l0,-5 l-156.031,-25 l0,-138.2z" /></g><g class="axes"><g class="x-axis"><g transform="translate(400 200)"><text class="lab" text-anchor="middle" transform="translate(0 -11)">Genome position</text></g><line x1="20" x2="780" y1="163.2" y2="163.2" /><g class="ticks"><g class="tick" transform="translate(20 163.2)"><line x1="0" x2="0" y1="0" y2="5" /><g transform="translate(0 6)"><text class="lab">0.00</text></g></g><g class="tick" transform="translate(166.937 163.2)"><line x1="0" x2="0" y1="0" y2="5" /><g transform="translate(0 6)"><text class="lab">193.34</text></g></g><g class="tick" transform="translate(690.641 163.2)"><line x1="0" x2="0" y1="0" y2="5" /><g transform="translate(0 6)"><text class="lab">882.42</text></g></g><g class="tick" transform="translate(746.031 163.2)"><line x1="0" x2="0" y1="0" y2="5" /><g transform="translate(0 6)"><text class="lab">955.30</text></g></g><g class="tick" transform="translate(780 163.2)"><line x1="0" x2="0" y1="0" y2="5" /><g transform="translate(0 6)"><text class="lab">1000.00</text></g></g></g></g></g><g class="plotbox trees"><g class="tree t0" transform="translate(20 0)"><g class="plotbox"><g class="c2 node n27 p0 root" transform="translate(123.125 26.8)"><g class="a27 c2 node n25 p0" transform="translate(-28.125 5.74839)"><g class="a25 c1 node n10 p0" transform="translate(22.5 84.6223)"><g class="a10 leaf node n9 p0 sample" transform="translate(0.0 4.22927)"><path class="edge" d="M 0 0 V -4.22927 H 0.0" /><rect class="sym" height="6" width="6" x="-3" y="-3" /><text class="lab" transform="translate(0 11)">9</text></g><path class="edge" d="M 0 0 V -84.6223 H -22.5" /><circle class="sym" cx="0" cy="0" r="3" /><text class="lab rgt" transform="translate(3 -7.0)">10</text></g><g class="a25 c2 node n23 p0" transform="translate(-22.5 29.4359)"><g class="a23 c2 node n19 p0" transform="translate(-22.5 20.3534)"><g class="a19 c2 node n14 p0" transform="translate(15 19.0499)"><g class="a14 leaf node n1 p0 sample" transform="translate(-7.5 20.0125)"><path class="edge" d="M 0 0 V -20.0125 H 7.5" /><rect class="sym" height="6" width="6" x="-3" y="-3" /><text class="lab" transform="translate(0 11)">1</text></g><g class="a14 leaf node n8 p0 sample" transform="translate(7.5 20.0125)"><path class="edge" d="M 0 0 V -20.0125 H -7.5" /><rect class="sym" height="6" width="6" x="-3" y="-3" /><text class="lab" transform="translate(0 11)">8</text></g><path class="edge" d="M 0 0 V -19.0499 H -15" /><circle class="sym" cx="0" cy="0" r="3" /><text class="lab rgt" transform="translate(3 -7.0)">14</text></g><g class="a19 c2 node n15 p0" transform="translate(-15 15.9995)"><g class="a15 leaf node n0 p0 sample" transform="translate(-7.5 23.0628)"><path class="edge" d="M 0 0 V -23.0628 H 7.5" /><rect class="sym" height="6" width="6" x="-3" y="-3" /><text class="lab" transform="translate(0 11)">0</text></g><g class="a15 leaf node n2 p0 sample" transform="translate(7.5 23.0628)"><path class="edge" d="M 0 0 V -23.0628 H -7.5" /><rect class="sym" height="6" width="6" x="-3" y="-3" /><text class="lab" transform="translate(0 11)">2</text></g><path class="edge" d="M 0 0 V -15.9995 H 15" /><circle class="sym" cx="0" cy="0" r="3" /><text class="lab lft" transform="translate(-3 -7.0)">15</text></g><path class="edge" d="M 0 0 V -20.3534 H 22.5" /><circle class="sym" cx="0" cy="0" r="3" /><text class="lab lft" transform="translate(-3 -7.0)">19</text></g><g class="a23 c1 node n22 p0" transform="translate(22.5 10.7648)"><g class="a22 c2 node n12 p0" transform="translate(0.0 40.2962)"><g class="a12 leaf node n3 p0 sample" transform="translate(-7.5 8.35481)"><path class="edge" d="M 0 0 V -8.35481 H 7.5" /><rect class="sym" height="6" width="6" x="-3" y="-3" /><text class="lab" transform="translate(0 11)">3</text></g><g class="a12 leaf node n7 p0 sample" transform="translate(7.5 8.35481)"><path class="edge" d="M 0 0 V -8.35481 H -7.5" /><rect class="sym" height="6" width="6" x="-3" y="-3" /><text class="lab" transform="translate(0 11)">7</text></g><path class="edge" d="M 0 0 V -40.2962 H 0.0" /><circle class="sym" cx="0" cy="0" r="3" /><text class="lab lft" transform="translate(-3 -7.0)">12</text></g><path class="edge" d="M 0 0 V -10.7648 H -22.5" /><circle class="sym" cx="0" cy="0" r="3" /><text class="lab rgt" transform="translate(3 -7.0)">22</text></g><path class="edge" d="M 0 0 V -29.4359 H 22.5" /><circle class="sym" cx="0" cy="0" r="3" /><text class="lab lft" transform="translate(-3 -7.0)">23</text></g><path class="edge" d="M 0 0 V -5.74839 H 28.125" /><circle class="sym" cx="0" cy="0" r="3" /><text class="lab lft" transform="translate(-3 -7.0)">25</text></g><g class="a27 c2 node n26 p0" transform="translate(28.125 1.38506)"><g class="a26 c1 node n16 p0" transform="translate(-11.25 64.3402)"><g class="a16 c2 node n13 p0" transform="translate(0.0 20.1685)"><g class="a13 leaf node n4 p0 sample" transform="translate(-7.5 8.70622)"><path class="edge" d="M 0 0 V -8.70622 H 7.5" /><rect class="sym" height="6" width="6" x="-3" y="-3" /><text class="lab" transform="translate(0 11)">4</text></g><g class="a13 leaf node n6 p0 sample" transform="translate(7.5 8.70622)"><path class="edge" d="M 0 0 V -8.70622 H -7.5" /><rect class="sym" height="6" width="6" x="-3" y="-3" /><text class="lab" transform="translate(0 11)">6</text></g><path class="edge" d="M 0 0 V -20.1685 H 0.0" /><circle class="sym" cx="0" cy="0" r="3" /><text class="lab lft" transform="translate(-3 -7.0)">13</text></g><path class="edge" d="M 0 0 V -64.3402 H 11.25" /><circle class="sym" cx="0" cy="0" r="3" /><text class="lab lft" transform="translate(-3 -7.0)">16</text></g><g class="a26 c1 node n24 p0" transform="translate(11.25 20.9999)"><g class="a24 c1 node n20 p0" transform="translate(0.0 31.9029)"><g class="a20 c1 node n17 p0" transform="translate(0.0 4.64286)"><g class="a17 leaf node n5 p0 sample" transform="translate(0.0 35.6693)"><path class="edge" d="M 0 0 V -35.6693 H 0.0" /><rect class="sym" height="6" width="6" x="-3" y="-3" /><text class="lab" transform="translate(0 11)">5</text></g><path class="edge" d="M 0 0 V -4.64286 H 0.0" /><circle class="sym" cx="0" cy="0" r="3" /><text class="lab lft" transform="translate(-3 -7.0)">17</text></g><path class="edge" d="M 0 0 V -31.9029 H 0.0" /><circle class="sym" cx="0" cy="0" r="3" /><text class="lab lft" transform="translate(-3 -7.0)">20</text></g><path class="edge" d="M 0 0 V -20.9999 H -11.25" /><circle class="sym" cx="0" cy="0" r="3" /><text class="lab rgt" transform="translate(3 -7.0)">24</text></g><path class="edge" d="M 0 0 V -1.38506 H -28.125" /><circle class="sym" cx="0" cy="0" r="3" /><text class="lab rgt" transform="translate(3 -7.0)">26</text></g><circle class="sym" cx="0" cy="0" r="3" /><text class="lab" transform="translate(0 -11)">27</text></g></g></g><g class="tree t1" transform="translate(210 0)"><g class="plotbox"><g class="c2 node n27 p0 root" transform="translate(110.938 26.8)"><g class="a27 c1 node n25 p0" transform="translate(-38.4375 5.74839)"><g class="a25 c2 node n23 p0" transform="translate(0.0 29.4359)"><g class="a23 c2 node n19 p0" transform="translate(-22.5 20.3534)"><g class="a19 c2 node n14 p0" transform="translate(15 19.0499)"><g class="a14 leaf node n1 p0 sample" transform="translate(-7.5 20.0125)"><path class="edge" d="M 0 0 V -20.0125 H 7.5" /><rect class="sym" height="6" width="6" x="-3" y="-3" /><text class="lab" transform="translate(0 11)">1</text></g><g class="a14 leaf node n8 p0 sample" transform="translate(7.5 20.0125)"><path class="edge" d="M 0 0 V -20.0125 H -7.5" /><rect class="sym" height="6" width="6" x="-3" y="-3" /><text class="lab" transform="translate(0 11)">8</text></g><path class="edge" d="M 0 0 V -19.0499 H -15" /><circle class="sym" cx="0" cy="0" r="3" /><text class="lab rgt" transform="translate(3 -7.0)">14</text></g><g class="a19 c2 node n15 p0" transform="translate(-15 15.9995)"><g class="a15 leaf node n0 p0 sample" transform="translate(-7.5 23.0628)"><path class="edge" d="M 0 0 V -23.0628 H 7.5" /><rect class="sym" height="6" width="6" x="-3" y="-3" /><text class="lab" transform="translate(0 11)">0</text></g><g class="a15 leaf node n2 p0 sample" transform="translate(7.5 23.0628)"><path class="edge" d="M 0 0 V -23.0628 H -7.5" /><rect class="sym" height="6" width="6" x="-3" y="-3" /><text class="lab" transform="translate(0 11)">2</text></g><path class="edge" d="M 0 0 V -15.9995 H 15" /><circle class="sym" cx="0" cy="0" r="3" /><text class="lab lft" transform="translate(-3 -7.0)">15</text></g><path class="edge" d="M 0 0 V -20.3534 H 22.5" /><circle class="sym" cx="0" cy="0" r="3" /><text class="lab lft" transform="translate(-3 -7.0)">19</text></g><g class="a23 c1 node n22 p0" transform="translate(22.5 10.7648)"><g class="a22 c2 node n12 p0" transform="translate(0.0 40.2962)"><g class="a12 leaf node n3 p0 sample" transform="translate(-7.5 8.35481)"><path class="edge" d="M 0 0 V -8.35481 H 7.5" /><rect class="sym" height="6" width="6" x="-3" y="-3" /><text class="lab" transform="translate(0 11)">3</text></g><g class="a12 leaf node n7 p0 sample" transform="translate(7.5 8.35481)"><path class="edge" d="M 0 0 V -8.35481 H -7.5" /><rect class="sym" height="6" width="6" x="-3" y="-3" /><text class="lab" transform="translate(0 11)">7</text></g><path class="edge" d="M 0 0 V -40.2962 H 0.0" /><circle class="sym" cx="0" cy="0" r="3" /><text class="lab lft" transform="translate(-3 -7.0)">12</text></g><path class="edge" d="M 0 0 V -10.7648 H -22.5" /><circle class="sym" cx="0" cy="0" r="3" /><text class="lab rgt" transform="translate(3 -7.0)">22</text></g><path class="edge" d="M 0 0 V -29.4359 H 0.0" /><circle class="sym" cx="0" cy="0" r="3" /><text class="lab lft" transform="translate(-3 -7.0)">23</text></g><path class="edge" d="M 0 0 V -5.74839 H 38.4375" /><circle class="sym" cx="0" cy="0" r="3" /><text class="lab lft" transform="translate(-3 -7.0)">25</text></g><g class="a27 c2 node n26 p0" transform="translate(38.4375 1.38506)"><g class="a26 c2 node n16 p0" transform="translate(-13.125 64.3402)"><g class="a16 c2 node n13 p0" transform="translate(-11.25 20.1685)"><g class="a13 leaf node n4 p0 sample" transform="translate(-7.5 8.70622)"><path class="edge" d="M 0 0 V -8.70622 H 7.5" /><rect class="sym" height="6" width="6" x="-3" y="-3" /><text class="lab" transform="translate(0 11)">4</text></g><g class="a13 leaf node n6 p0 sample" transform="translate(7.5 8.70622)"><path class="edge" d="M 0 0 V -8.70622 H -7.5" /><rect class="sym" height="6" width="6" x="-3" y="-3" /><text class="lab" transform="translate(0 11)">6</text></g><path class="edge" d="M 0 0 V -20.1685 H 11.25" /><circle class="sym" cx="0" cy="0" r="3" /><text class="lab lft" transform="translate(-3 -7.0)">13</text></g><g class="a16 c1 node n11 p0" transform="translate(11.25 24.6455)"><g class="a11 leaf node n9 p0 sample" transform="translate(0.0 4.22927)"><path class="edge" d="M 0 0 V -4.22927 H 0.0" /><rect class="sym" height="6" width="6" x="-3" y="-3" /><text class="lab" transform="translate(0 11)">9</text></g><path class="edge" d="M 0 0 V -24.6455 H -11.25" /><circle class="sym" cx="0" cy="0" r="3" /><text class="lab rgt" transform="translate(3 -7.0)">11</text></g><path class="edge" d="M 0 0 V -64.3402 H 13.125" /><circle class="sym" cx="0" cy="0" r="3" /><text class="lab lft" transform="translate(-3 -7.0)">16</text></g><g class="a26 c1 node n24 p0" transform="translate(13.125 20.9999)"><g class="a24 c1 node n20 p0" transform="translate(0.0 31.9029)"><g class="a20 c1 node n17 p0" transform="translate(0.0 4.64286)"><g class="a17 leaf node n5 p0 sample" transform="translate(0.0 35.6693)"><path class="edge" d="M 0 0 V -35.6693 H 0.0" /><rect class="sym" height="6" width="6" x="-3" y="-3" /><text class="lab" transform="translate(0 11)">5</text></g><path class="edge" d="M 0 0 V -4.64286 H 0.0" /><circle class="sym" cx="0" cy="0" r="3" /><text class="lab lft" transform="translate(-3 -7.0)">17</text></g><path class="edge" d="M 0 0 V -31.9029 H 0.0" /><circle class="sym" cx="0" cy="0" r="3" /><text class="lab lft" transform="translate(-3 -7.0)">20</text></g><path class="edge" d="M 0 0 V -20.9999 H -13.125" /><circle class="sym" cx="0" cy="0" r="3" /><text class="lab rgt" transform="translate(3 -7.0)">24</text></g><path class="edge" d="M 0 0 V -1.38506 H -38.4375" /><circle class="sym" cx="0" cy="0" r="3" /><text class="lab rgt" transform="translate(3 -7.0)">26</text></g><circle class="sym" cx="0" cy="0" r="3" /><text class="lab" transform="translate(0 -11)">27</text></g></g></g><g class="tree t2" transform="translate(400 0)"><g class="plotbox"><g class="c2 node n27 p0 root" transform="translate(114.688 26.8)"><g class="a27 c1 node n25 p0" transform="translate(-36.5625 5.74839)"><g class="a25 c2 node n23 p0" transform="translate(0.0 29.4359)"><g class="a23 c2 node n19 p0" transform="translate(-28.125 20.3534)"><g class="a19 c2 node n14 p0" transform="translate(15 19.0499)"><g class="a14 leaf node n1 p0 sample" transform="translate(-7.5 20.0125)"><path class="edge" d="M 0 0 V -20.0125 H 7.5" /><rect class="sym" height="6" width="6" x="-3" y="-3" /><text class="lab" transform="translate(0 11)">1</text></g><g class="a14 leaf node n8 p0 sample" transform="translate(7.5 20.0125)"><path class="edge" d="M 0 0 V -20.0125 H -7.5" /><rect class="sym" height="6" width="6" x="-3" y="-3" /><text class="lab" transform="translate(0 11)">8</text></g><path class="edge" d="M 0 0 V -19.0499 H -15" /><circle class="sym" cx="0" cy="0" r="3" /><text class="lab rgt" transform="translate(3 -7.0)">14</text></g><g class="a19 c2 node n15 p0" transform="translate(-15 15.9995)"><g class="a15 leaf node n0 p0 sample" transform="translate(-7.5 23.0628)"><path class="edge" d="M 0 0 V -23.0628 H 7.5" /><rect class="sym" height="6" width="6" x="-3" y="-3" /><text class="lab" transform="translate(0 11)">0</text></g><g class="a15 leaf node n2 p0 sample" transform="translate(7.5 23.0628)"><path class="edge" d="M 0 0 V -23.0628 H -7.5" /><rect class="sym" height="6" width="6" x="-3" y="-3" /><text class="lab" transform="translate(0 11)">2</text></g><path class="edge" d="M 0 0 V -15.9995 H 15" /><circle class="sym" cx="0" cy="0" r="3" /><text class="lab lft" transform="translate(-3 -7.0)">15</text></g><path class="edge" d="M 0 0 V -20.3534 H 28.125" /><circle class="sym" cx="0" cy="0" r="3" /><text class="lab lft" transform="translate(-3 -7.0)">19</text></g><g class="a23 c2 node n22 p0" transform="translate(28.125 10.7648)"><g class="a22 c2 node n12 p0" transform="translate(-11.25 40.2962)"><g class="a12 leaf node n3 p0 sample" transform="translate(-7.5 8.35481)"><path class="edge" d="M 0 0 V -8.35481 H 7.5" /><rect class="sym" height="6" width="6" x="-3" y="-3" /><text class="lab" transform="translate(0 11)">3</text></g><g class="a12 leaf node n7 p0 sample" transform="translate(7.5 8.35481)"><path class="edge" d="M 0 0 V -8.35481 H -7.5" /><rect class="sym" height="6" width="6" x="-3" y="-3" /><text class="lab" transform="translate(0 11)">7</text></g><path class="edge" d="M 0 0 V -40.2962 H 11.25" /><circle class="sym" cx="0" cy="0" r="3" /><text class="lab lft" transform="translate(-3 -7.0)">12</text></g><g class="a22 c1 node n21 p0" transform="translate(11.25 8.33877)"><g class="a21 c1 node n17 p0" transform="translate(0.0 4.64286)"><g class="a17 leaf node n5 p0 sample" transform="translate(0.0 35.6693)"><path class="edge" d="M 0 0 V -35.6693 H 0.0" /><rect class="sym" height="6" width="6" x="-3" y="-3" /><text class="lab" transform="translate(0 11)">5</text></g><path class="edge" d="M 0 0 V -4.64286 H 0.0" /><circle class="sym" cx="0" cy="0" r="3" /><text class="lab lft" transform="translate(-3 -7.0)">17</text></g><path class="edge" d="M 0 0 V -8.33877 H -11.25" /><circle class="sym" cx="0" cy="0" r="3" /><text class="lab rgt" transform="translate(3 -7.0)">21</text></g><path class="edge" d="M 0 0 V -10.7648 H -28.125" /><circle class="sym" cx="0" cy="0" r="3" /><text class="lab rgt" transform="translate(3 -7.0)">22</text></g><path class="edge" d="M 0 0 V -29.4359 H 0.0" /><circle class="sym" cx="0" cy="0" r="3" /><text class="lab lft" transform="translate(-3 -7.0)">23</text></g><path class="edge" d="M 0 0 V -5.74839 H 36.5625" /><circle class="sym" cx="0" cy="0" r="3" /><text class="lab lft" transform="translate(-3 -7.0)">25</text></g><g class="a27 c1 node n26 p0" transform="translate(36.5625 1.38506)"><g class="a26 c2 node n16 p0" transform="translate(0.0 64.3402)"><g class="a16 c2 node n13 p0" transform="translate(-11.25 20.1685)"><g class="a13 leaf node n4 p0 sample" transform="translate(-7.5 8.70622)"><path class="edge" d="M 0 0 V -8.70622 H 7.5" /><rect class="sym" height="6" width="6" x="-3" y="-3" /><text class="lab" transform="translate(0 11)">4</text></g><g class="a13 leaf node n6 p0 sample" transform="translate(7.5 8.70622)"><path class="edge" d="M 0 0 V -8.70622 H -7.5" /><rect class="sym" height="6" width="6" x="-3" y="-3" /><text class="lab" transform="translate(0 11)">6</text></g><path class="edge" d="M 0 0 V -20.1685 H 11.25" /><circle class="sym" cx="0" cy="0" r="3" /><text class="lab lft" transform="translate(-3 -7.0)">13</text></g><g class="a16 c1 node n11 p0" transform="translate(11.25 24.6455)"><g class="a11 leaf node n9 p0 sample" transform="translate(0.0 4.22927)"><path class="edge" d="M 0 0 V -4.22927 H 0.0" /><rect class="sym" height="6" width="6" x="-3" y="-3" /><text class="lab" transform="translate(0 11)">9</text></g><path class="edge" d="M 0 0 V -24.6455 H -11.25" /><circle class="sym" cx="0" cy="0" r="3" /><text class="lab rgt" transform="translate(3 -7.0)">11</text></g><path class="edge" d="M 0 0 V -64.3402 H 0.0" /><circle class="sym" cx="0" cy="0" r="3" /><text class="lab lft" transform="translate(-3 -7.0)">16</text></g><path class="edge" d="M 0 0 V -1.38506 H -36.5625" /><circle class="sym" cx="0" cy="0" r="3" /><text class="lab rgt" transform="translate(3 -7.0)">26</text></g><circle class="sym" cx="0" cy="0" r="3" /><text class="lab" transform="translate(0 -11)">27</text></g></g></g><g class="tree t3" transform="translate(590 0)"><g class="plotbox"><g class="c2 node n27 p0 root" transform="translate(110.938 26.8)"><g class="a27 c1 node n25 p0" transform="translate(-38.4375 5.74839)"><g class="a25 c2 node n23 p0" transform="translate(0.0 29.4359)"><g class="a23 c2 node n19 p0" transform="translate(-22.5 20.3534)"><g class="a19 c2 node n14 p0" transform="translate(15 19.0499)"><g class="a14 leaf node n1 p0 sample" transform="translate(-7.5 20.0125)"><path class="edge" d="M 0 0 V -20.0125 H 7.5" /><rect class="sym" height="6" width="6" x="-3" y="-3" /><text class="lab" transform="translate(0 11)">1</text></g><g class="a14 leaf node n8 p0 sample" transform="translate(7.5 20.0125)"><path class="edge" d="M 0 0 V -20.0125 H -7.5" /><rect class="sym" height="6" width="6" x="-3" y="-3" /><text class="lab" transform="translate(0 11)">8</text></g><path class="edge" d="M 0 0 V -19.0499 H -15" /><circle class="sym" cx="0" cy="0" r="3" /><text class="lab rgt" transform="translate(3 -7.0)">14</text></g><g class="a19 c2 node n15 p0" transform="translate(-15 15.9995)"><g class="a15 leaf node n0 p0 sample" transform="translate(-7.5 23.0628)"><path class="edge" d="M 0 0 V -23.0628 H 7.5" /><rect class="sym" height="6" width="6" x="-3" y="-3" /><text class="lab" transform="translate(0 11)">0</text></g><g class="a15 leaf node n2 p0 sample" transform="translate(7.5 23.0628)"><path class="edge" d="M 0 0 V -23.0628 H -7.5" /><rect class="sym" height="6" width="6" x="-3" y="-3" /><text class="lab" transform="translate(0 11)">2</text></g><path class="edge" d="M 0 0 V -15.9995 H 15" /><circle class="sym" cx="0" cy="0" r="3" /><text class="lab lft" transform="translate(-3 -7.0)">15</text></g><path class="edge" d="M 0 0 V -20.3534 H 22.5" /><circle class="sym" cx="0" cy="0" r="3" /><text class="lab lft" transform="translate(-3 -7.0)">19</text></g><g class="a23 c1 node n22 p0" transform="translate(22.5 10.7648)"><g class="a22 c2 node n12 p0" transform="translate(0.0 40.2962)"><g class="a12 leaf node n3 p0 sample" transform="translate(-7.5 8.35481)"><path class="edge" d="M 0 0 V -8.35481 H 7.5" /><rect class="sym" height="6" width="6" x="-3" y="-3" /><text class="lab" transform="translate(0 11)">3</text></g><g class="a12 leaf node n7 p0 sample" transform="translate(7.5 8.35481)"><path class="edge" d="M 0 0 V -8.35481 H -7.5" /><rect class="sym" height="6" width="6" x="-3" y="-3" /><text class="lab" transform="translate(0 11)">7</text></g><path class="edge" d="M 0 0 V -40.2962 H 0.0" /><circle class="sym" cx="0" cy="0" r="3" /><text class="lab lft" transform="translate(-3 -7.0)">12</text></g><path class="edge" d="M 0 0 V -10.7648 H -22.5" /><circle class="sym" cx="0" cy="0" r="3" /><text class="lab rgt" transform="translate(3 -7.0)">22</text></g><path class="edge" d="M 0 0 V -29.4359 H 0.0" /><circle class="sym" cx="0" cy="0" r="3" /><text class="lab lft" transform="translate(-3 -7.0)">23</text></g><path class="edge" d="M 0 0 V -5.74839 H 38.4375" /><circle class="sym" cx="0" cy="0" r="3" /><text class="lab lft" transform="translate(-3 -7.0)">25</text></g><g class="a27 c2 node n26 p0" transform="translate(38.4375 1.38506)"><g class="a26 c2 node n16 p0" transform="translate(-13.125 64.3402)"><g class="a16 c2 node n13 p0" transform="translate(-11.25 20.1685)"><g class="a13 leaf node n4 p0 sample" transform="translate(-7.5 8.70622)"><path class="edge" d="M 0 0 V -8.70622 H 7.5" /><rect class="sym" height="6" width="6" x="-3" y="-3" /><text class="lab" transform="translate(0 11)">4</text></g><g class="a13 leaf node n6 p0 sample" transform="translate(7.5 8.70622)"><path class="edge" d="M 0 0 V -8.70622 H -7.5" /><rect class="sym" height="6" width="6" x="-3" y="-3" /><text class="lab" transform="translate(0 11)">6</text></g><path class="edge" d="M 0 0 V -20.1685 H 11.25" /><circle class="sym" cx="0" cy="0" r="3" /><text class="lab lft" transform="translate(-3 -7.0)">13</text></g><g class="a16 c1 node n11 p0" transform="translate(11.25 24.6455)"><g class="a11 leaf node n9 p0 sample" transform="translate(0.0 4.22927)"><path class="edge" d="M 0 0 V -4.22927 H 0.0" /><rect class="sym" height="6" width="6" x="-3" y="-3" /><text class="lab" transform="translate(0 11)">9</text></g><path class="edge" d="M 0 0 V -24.6455 H -11.25" /><circle class="sym" cx="0" cy="0" r="3" /><text class="lab rgt" transform="translate(3 -7.0)">11</text></g><path class="edge" d="M 0 0 V -64.3402 H 13.125" /><circle class="sym" cx="0" cy="0" r="3" /><text class="lab lft" transform="translate(-3 -7.0)">16</text></g><g class="a26 c1 node n24 p0" transform="translate(13.125 20.9999)"><g class="a24 c1 node n18 p0" transform="translate(0.0 36.5457)"><g class="a18 leaf node n5 p0 sample" transform="translate(0.0 35.6693)"><path class="edge" d="M 0 0 V -35.6693 H 0.0" /><rect class="sym" height="6" width="6" x="-3" y="-3" /><text class="lab" transform="translate(0 11)">5</text></g><path class="edge" d="M 0 0 V -36.5457 H 0.0" /><circle class="sym" cx="0" cy="0" r="3" /><text class="lab lft" transform="translate(-3 -7.0)">18</text></g><path class="edge" d="M 0 0 V -20.9999 H -13.125" /><circle class="sym" cx="0" cy="0" r="3" /><text class="lab rgt" transform="translate(3 -7.0)">24</text></g><path class="edge" d="M 0 0 V -1.38506 H -38.4375" /><circle class="sym" cx="0" cy="0" r="3" /><text class="lab rgt" transform="translate(3 -7.0)">26</text></g><circle class="sym" cx="0" cy="0" r="3" /><text class="lab" transform="translate(0 -11)">27</text></g></g></g></g></g></svg>
