<svg baseProfile="full" height="200" version="1.1" width="600" xmlns="http://www.w3.org/2000/svg" xmlns:ev="http://www.w3.org/2001/xml-events" xmlns:xlink="http://www.w3.org/1999/xlink"><defs><style type="text/css"><![CDATA[.background path {fill: #808080; fill-opacity: 0}.background path:nth-child(odd) {fill-opacity: .1}.axes {font-size: 14px}.x-axis .tick .lab {font-weight: bold; dominant-baseline: hanging}.axes, .tree {font-size: 14px; text-anchor: middle}.axes line, .edge {stroke: black; fill: none}.y-axis .grid {stroke: #FAFAFA}.node > .sym {fill: black; stroke: none}.site > .sym {stroke: black}.mut text {fill: red; font-style: italic}.mut.extra text {fill: hotpink}.mut line {fill: none; stroke: none}.mut .sym {fill: none; stroke: red}.mut.extra .sym {stroke: hotpink}.node .mut .sym {stroke-width: 1.5px}.tree text, .tree-sequence text {dominant-baseline: central}.plotbox .lab.lft {text-anchor: end}.plotbox .lab.rgt {text-anchor: start}]]></style></defs><g class="tree-sequence"><g class="background"><path d="M20,0 l186.667,0 l0,138.2 l186.558,25 l0,5 l-373.224,0 l0,-5 l0,-25 l0,-138.2z" /><path d="M206.667,0 l186.667,0 l0,138.2 l72.6387,25 l0,5 l-72.7476,0 l0,-5 l-186.558,-25 l0,-138.2z" /><path d="M393.333,0 l186.667,0 l0,138.2 l0,25 l0,5 l-114.028,0 l0,-5 l-72.6387,-25 l0,-138.2z" /></g><g class="axes"><g class="x-axis"><g transform="translate(300 200)"><text class="lab" text-anchor="middle" transform="translate(0 -11)">Genome position</text></g><line x1="20" x2="580" y1="163.2" y2="163.2" /><g class="ticks"><g class="tick" transform="translate(20 163.2)"><line x1="0" x2="0" y1="0" y2="5" /><g transform="translate(0 6)"><text class="lab">0.00</text></g></g><g class="tick" transform="translate(393.224 163.2)"><line x1="0" x2="0" y1="0" y2="5" /><g transform="translate(0 6)"><text class="lab">666.47</text></g></g><g class="tick" transform="translate(465.972 163.2)"><line x1="0" x2="0" y1="0" y2="5" /><g transform="translate(0 6)"><text class="lab">796.38</text></g></g><g class="tick" transform="translate(580 163.2)"><line x1="0" x2="0" y1="0" y2="5" /><g transform="translate(0 6)"><text class="lab">1000.00</text></g></g></g></g></g><g class="plotbox trees"><g class="tree t0" transform="translate(20 0)"><g class="plotbox"><g class="c2 node n24 p0 root" transform="translate(142.031 26.8)"><g class="a24 c2 node n22 p0" transform="translate(-17.3021 51.2604)"><g class="a22 c1 node n18 p0" transform="translate(19.9375 23.2561)"><g class="a18 leaf node n4 p0 sample" transform="translate(0.0 20.0835)"><path class="edge" d="M 0 0 V -20.0835 H 0.0" /><rect class="sym" height="6" width="6" x="-3" y="-3" /><text class="lab" transform="translate(0 11)">4</text></g><path class="edge" d="M 0 0 V -23.2561 H -19.9375" /><circle class="sym" cx="0" cy="0" r="3" /><text class="lab rgt" transform="translate(3 -7.0)">18</text></g><g class="a22 c1 node n20 p0" transform="translate(-19.9375 1.30814)"><g class="a20 c2 node n19 p0" transform="translate(0.0 19.7475)"><g class="a19 leaf node n3 p0 sample" transform="translate(25.2083 22.2839)"><path class="edge" d="M 0 0 V -22.2839 H -25.2083" /><rect class="sym" height="6" width="6" x="-3" y="-3" /><text class="lab" transform="translate(0 11)">3</text></g><g class="a19 c2 node n17 p0" transform="translate(-25.2083 2.22439)"><g class="a17 c2 node n15 p0" transform="translate(24.75 1.74896)"><g class="a15 leaf node n8 p0 sample" transform="translate(11 18.3106)"><path class="edge" d="M 0 0 V -18.3106 H -11" /><rect class="sym" height="6" width="6" x="-3" y="-3" /><text class="lab" transform="translate(0 11)">8</text></g><g class="a15 c2 node n11 p0" transform="translate(-11 8.13393)"><g class="a11 leaf node n2 p0 sample" transform="translate(-7.33333 10.1766)"><path class="edge" d="M 0 0 V -10.1766 H 7.33333" /><rect class="sym" height="6" width="6" x="-3" y="-3" /><text class="lab" transform="translate(0 11)">2</text></g><g class="a11 leaf node n5 p0 sample" transform="translate(7.33333 10.1766)"><path class="edge" d="M 0 0 V -10.1766 H -7.33333" /><rect class="sym" height="6" width="6" x="-3" y="-3" /><text class="lab" transform="translate(0 11)">5</text></g><path class="edge" d="M 0 0 V -8.13393 H 11" /><circle class="sym" cx="0" cy="0" r="3" /><text class="lab lft" transform="translate(-3 -7.0)">11</text></g><path class="edge" d="M 0 0 V -1.74896 H -24.75" /><circle class="sym" cx="0" cy="0" r="3" /><text class="lab rgt" transform="translate(3 -7.0)">15</text></g><g class="a17 c2 node n16 p0" transform="translate(-24.75 0.61295)"><g class="a16 leaf node n6 p0 sample" transform="translate(16.5 19.4466)"><path class="edge" d="M 0 0 V -19.4466 H -16.5" /><rect class="sym" height="6" width="6" x="-3" y="-3" /><text class="lab" transform="translate(0 11)">6</text></g><g class="a16 c1 node n13 p0" transform="translate(-16.5 1.60908)"><g class="a13 c2 node n12 p0" transform="translate(0.0 4.21368)"><g class="a12 leaf node n0 p0 sample" transform="translate(-11 13.6238)"><path class="edge" d="M 0 0 V -13.6238 H 11" /><rect class="sym" height="6" width="6" x="-3" y="-3" /><text class="lab" transform="translate(0 11)">0</text></g><g class="a12 c2 node n10 p0" transform="translate(11 10.9115)"><g class="a10 leaf node n1 p0 sample" transform="translate(-7.33333 2.71229)"><path class="edge" d="M 0 0 V -2.71229 H 7.33333" /><rect class="sym" height="6" width="6" x="-3" y="-3" /><text class="lab" transform="translate(0 11)">1</text></g><g class="a10 leaf node n9 p0 sample" transform="translate(7.33333 2.71229)"><path class="edge" d="M 0 0 V -2.71229 H -7.33333" /><rect class="sym" height="6" width="6" x="-3" y="-3" /><text class="lab" transform="translate(0 11)">9</text></g><path class="edge" d="M 0 0 V -10.9115 H -11" /><circle class="sym" cx="0" cy="0" r="3" /><text class="lab rgt" transform="translate(3 -7.0)">10</text></g><path class="edge" d="M 0 0 V -4.21368 H 0.0" /><circle class="sym" cx="0" cy="0" r="3" /><text class="lab lft" transform="translate(-3 -7.0)">12</text></g><path class="edge" d="M 0 0 V -1.60908 H 16.5" /><circle class="sym" cx="0" cy="0" r="3" /><text class="lab lft" transform="translate(-3 -7.0)">13</text></g><path class="edge" d="M 0 0 V -0.61295 H 24.75" /><circle class="sym" cx="0" cy="0" r="3" /><text class="lab lft" transform="translate(-3 -7.0)">16</text></g><path class="edge" d="M 0 0 V -2.22439 H 25.2083" /><circle class="sym" cx="0" cy="0" r="3" /><text class="lab lft" transform="translate(-3 -7.0)">17</text></g><path class="edge" d="M 0 0 V -19.7475 H 0.0" /><circle class="sym" cx="0" cy="0" r="3" /><text class="lab lft" transform="translate(-3 -7.0)">19</text></g><path class="edge" d="M 0 0 V -1.30814 H 19.9375" /><circle class="sym" cx="0" cy="0" r="3" /><text class="lab lft" transform="translate(-3 -7.0)">20</text></g><path class="edge" d="M 0 0 V -51.2604 H 17.3021" /><circle class="sym" cx="0" cy="0" r="3" /><text class="lab lft" transform="translate(-3 -7.0)">22</text></g><g class="a24 c1 node n23 p0" transform="translate(17.3021 45.958)"><g class="a23 leaf node n7 p0 sample" transform="translate(0.0 48.642)"><path class="edge" d="M 0 0 V -48.642 H 0.0" /><rect class="sym" height="6" width="6" x="-3" y="-3" /><text class="lab" transform="translate(0 11)">7</text></g><path class="edge" d="M 0 0 V -45.958 H -17.3021" /><circle class="sym" cx="0" cy="0" r="3" /><text class="lab rgt" transform="translate(3 -7.0)">23</text></g><circle class="sym" cx="0" cy="0" r="3" /><text class="lab" transform="translate(0 -11)">24</text></g></g></g><g class="tree t1" transform="translate(206.667 0)"><g class="plotbox"><g class="c2 node n24 p0 root" transform="translate(126.104 26.8)"><g class="a24 c2 node n22 p0" transform="translate(-33.2292 51.2604)"><g class="a22 c2 node n18 p0" transform="translate(-38.0417 23.2561)"><g class="a18 leaf node n4 p0 sample" transform="translate(16.5 20.0835)"><path class="edge" d="M 0 0 V -20.0835 H -16.5" /><rect class="sym" height="6" width="6" x="-3" y="-3" /><text class="lab" transform="translate(0 11)">4</text></g><g class="a18 c1 node n14 p0" transform="translate(-16.5 2.246)"><g class="a14 c2 node n12 p0" transform="translate(0.0 4.21368)"><g class="a12 leaf node n0 p0 sample" transform="translate(-11 13.6238)"><path class="edge" d="M 0 0 V -13.6238 H 11" /><rect class="sym" height="6" width="6" x="-3" y="-3" /><text class="lab" transform="translate(0 11)">0</text></g><g class="a12 c2 node n10 p0" transform="translate(11 10.9115)"><g class="a10 leaf node n1 p0 sample" transform="translate(-7.33333 2.71229)"><path class="edge" d="M 0 0 V -2.71229 H 7.33333" /><rect class="sym" height="6" width="6" x="-3" y="-3" /><text class="lab" transform="translate(0 11)">1</text></g><g class="a10 leaf node n9 p0 sample" transform="translate(7.33333 2.71229)"><path class="edge" d="M 0 0 V -2.71229 H -7.33333" /><rect class="sym" height="6" width="6" x="-3" y="-3" /><text class="lab" transform="translate(0 11)">9</text></g><path class="edge" d="M 0 0 V -10.9115 H -11" /><circle class="sym" cx="0" cy="0" r="3" /><text class="lab rgt" transform="translate(3 -7.0)">10</text></g><path class="edge" d="M 0 0 V -4.21368 H 0.0" /><circle class="sym" cx="0" cy="0" r="3" /><text class="lab lft" transform="translate(-3 -7.0)">12</text></g><path class="edge" d="M 0 0 V -2.246 H 16.5" /><circle class="sym" cx="0" cy="0" r="3" /><text class="lab lft" transform="translate(-3 -7.0)">14</text></g><path class="edge" d="M 0 0 V -23.2561 H 38.0417" /><circle class="sym" cx="0" cy="0" r="3" /><text class="lab lft" transform="translate(-3 -7.0)">18</text></g><g class="a22 c1 node n20 p0" transform="translate(38.0417 1.30814)"><g class="a20 c2 node n19 p0" transform="translate(0.0 19.7475)"><g class="a19 leaf node n3 p0 sample" transform="translate(13.75 22.2839)"><path class="edge" d="M 0 0 V -22.2839 H -13.75" /><rect class="sym" height="6" width="6" x="-3" y="-3" /><text class="lab" transform="translate(0 11)">3</text></g><g class="a19 c2 node n17 p0" transform="translate(-13.75 2.22439)"><g class="a17 c2 node n15 p0" transform="translate(-12.8333 1.74896)"><g class="a15 leaf node n8 p0 sample" transform="translate(11 18.3106)"><path class="edge" d="M 0 0 V -18.3106 H -11" /><rect class="sym" height="6" width="6" x="-3" y="-3" /><text class="lab" transform="translate(0 11)">8</text></g><g class="a15 c2 node n11 p0" transform="translate(-11 8.13393)"><g class="a11 leaf node n2 p0 sample" transform="translate(-7.33333 10.1766)"><path class="edge" d="M 0 0 V -10.1766 H 7.33333" /><rect class="sym" height="6" width="6" x="-3" y="-3" /><text class="lab" transform="translate(0 11)">2</text></g><g class="a11 leaf node n5 p0 sample" transform="translate(7.33333 10.1766)"><path class="edge" d="M 0 0 V -10.1766 H -7.33333" /><rect class="sym" height="6" width="6" x="-3" y="-3" /><text class="lab" transform="translate(0 11)">5</text></g><path class="edge" d="M 0 0 V -8.13393 H 11" /><circle class="sym" cx="0" cy="0" r="3" /><text class="lab lft" transform="translate(-3 -7.0)">11</text></g><path class="edge" d="M 0 0 V -1.74896 H 12.8333" /><circle class="sym" cx="0" cy="0" r="3" /><text class="lab lft" transform="translate(-3 -7.0)">15</text></g><g class="a17 c1 node n16 p0" transform="translate(12.8333 0.61295)"><g class="a16 leaf node n6 p0 sample" transform="translate(0.0 19.4466)"><path class="edge" d="M 0 0 V -19.4466 H 0.0" /><rect class="sym" height="6" width="6" x="-3" y="-3" /><text class="lab" transform="translate(0 11)">6</text></g><path class="edge" d="M 0 0 V -0.61295 H -12.8333" /><circle class="sym" cx="0" cy="0" r="3" /><text class="lab rgt" transform="translate(3 -7.0)">16</text></g><path class="edge" d="M 0 0 V -2.22439 H 13.75" /><circle class="sym" cx="0" cy="0" r="3" /><text class="lab lft" transform="translate(-3 -7.0)">17</text></g><path class="edge" d="M 0 0 V -19.7475 H 0.0" /><circle class="sym" cx="0" cy="0" r="3" /><text class="lab lft" transform="translate(-3 -7.0)">19</text></g><path class="edge" d="M 0 0 V -1.30814 H -38.0417" /><circle class="sym" cx="0" cy="0" r="3" /><text class="lab rgt" transform="translate(3 -7.0)">20</text></g><path class="edge" d="M 0 0 V -51.2604 H 33.2292" /><circle class="sym" cx="0" cy="0" r="3" /><text class="lab lft" transform="translate(-3 -7.0)">22</text></g><g class="a24 c1 node n23 p0" transform="translate(33.2292 45.958)"><g class="a23 leaf node n7 p0 sample" transform="translate(0.0 48.642)"><path class="edge" d="M 0 0 V -48.642 H 0.0" /><rect class="sym" height="6" width="6" x="-3" y="-3" /><text class="lab" transform="translate(0 11)">7</text></g><path class="edge" d="M 0 0 V -45.958 H -33.2292" /><circle class="sym" cx="0" cy="0" r="3" /><text class="lab rgt" transform="translate(3 -7.0)">23</text></g><circle class="sym" cx="0" cy="0" r="3" /><text class="lab" transform="translate(0 -11)">24</text></g></g></g><g class="tree t2" transform="translate(393.333 0)"><g class="plotbox"><g class="c2 node n24 p0 root" transform="translate(99.9792 26.8)"><g class="a24 c1 node n22 p0" transform="translate(-45.1458 51.2604)"><g class="a22 c2 node n18 p0" transform="translate(0.0 23.2561)"><g class="a18 leaf node n4 p0 sample" transform="translate(16.5 20.0835)"><path class="edge" d="M 0 0 V -20.0835 H -16.5" /><rect class="sym" height="6" width="6" x="-3" y="-3" /><text class="lab" transform="translate(0 11)">4</text></g><g class="a18 c1 node n14 p0" transform="translate(-16.5 2.246)"><g class="a14 c2 node n12 p0" transform="translate(0.0 4.21368)"><g class="a12 leaf node n0 p0 sample" transform="translate(-11 13.6238)"><path class="edge" d="M 0 0 V -13.6238 H 11" /><rect class="sym" height="6" width="6" x="-3" y="-3" /><text class="lab" transform="translate(0 11)">0</text></g><g class="a12 c2 node n10 p0" transform="translate(11 10.9115)"><g class="a10 leaf node n1 p0 sample" transform="translate(-7.33333 2.71229)"><path class="edge" d="M 0 0 V -2.71229 H 7.33333" /><rect class="sym" height="6" width="6" x="-3" y="-3" /><text class="lab" transform="translate(0 11)">1</text></g><g class="a10 leaf node n9 p0 sample" transform="translate(7.33333 2.71229)"><path class="edge" d="M 0 0 V -2.71229 H -7.33333" /><rect class="sym" height="6" width="6" x="-3" y="-3" /><text class="lab" transform="translate(0 11)">9</text></g><path class="edge" d="M 0 0 V -10.9115 H -11" /><circle class="sym" cx="0" cy="0" r="3" /><text class="lab rgt" transform="translate(3 -7.0)">10</text></g><path class="edge" d="M 0 0 V -4.21368 H 0.0" /><circle class="sym" cx="0" cy="0" r="3" /><text class="lab lft" transform="translate(-3 -7.0)">12</text></g><path class="edge" d="M 0 0 V -2.246 H 16.5" /><circle class="sym" cx="0" cy="0" r="3" /><text class="lab lft" transform="translate(-3 -7.0)">14</text></g><path class="edge" d="M 0 0 V -23.2561 H 0.0" /><circle class="sym" cx="0" cy="0" r="3" /><text class="lab lft" transform="translate(-3 -7.0)">18</text></g><path class="edge" d="M 0 0 V -51.2604 H 45.1458" /><circle class="sym" cx="0" cy="0" r="3" /><text class="lab lft" transform="translate(-3 -7.0)">22</text></g><g class="a24 c2 node n23 p0" transform="translate(45.1458 45.958)"><g class="a23 leaf node n7 p0 sample" transform="translate(14.2083 48.642)"><path class="edge" d="M 0 0 V -48.642 H -14.2083" /><rect class="sym" height="6" width="6" x="-3" y="-3" /><text class="lab" transform="translate(0 11)">7</text></g><g class="a23 c1 node n21 p0" transform="translate(-14.2083 6.61055)"><g class="a21 c2 node n19 p0" transform="translate(0.0 19.7475)"><g class="a19 leaf node n3 p0 sample" transform="translate(13.75 22.2839)"><path class="edge" d="M 0 0 V -22.2839 H -13.75" /><rect class="sym" height="6" width="6" x="-3" y="-3" /><text class="lab" transform="translate(0 11)">3</text></g><g class="a19 c2 node n17 p0" transform="translate(-13.75 2.22439)"><g class="a17 c2 node n15 p0" transform="translate(-12.8333 1.74896)"><g class="a15 leaf node n8 p0 sample" transform="translate(11 18.3106)"><path class="edge" d="M 0 0 V -18.3106 H -11" /><rect class="sym" height="6" width="6" x="-3" y="-3" /><text class="lab" transform="translate(0 11)">8</text></g><g class="a15 c2 node n11 p0" transform="translate(-11 8.13393)"><g class="a11 leaf node n2 p0 sample" transform="translate(-7.33333 10.1766)"><path class="edge" d="M 0 0 V -10.1766 H 7.33333" /><rect class="sym" height="6" width="6" x="-3" y="-3" /><text class="lab" transform="translate(0 11)">2</text></g><g class="a11 leaf node n5 p0 sample" transform="translate(7.33333 10.1766)"><path class="edge" d="M 0 0 V -10.1766 H -7.33333" /><rect class="sym" height="6" width="6" x="-3" y="-3" /><text class="lab" transform="translate(0 11)">5</text></g><path class="edge" d="M 0 0 V -8.13393 H 11" /><circle class="sym" cx="0" cy="0" r="3" /><text class="lab lft" transform="translate(-3 -7.0)">11</text></g><path class="edge" d="M 0 0 V -1.74896 H 12.8333" /><circle class="sym" cx="0" cy="0" r="3" /><text class="lab lft" transform="translate(-3 -7.0)">15</text></g><g class="a17 c1 node n16 p0" transform="translate(12.8333 0.61295)"><g class="a16 leaf node n6 p0 sample" transform="translate(0.0 19.4466)"><path class="edge" d="M 0 0 V -19.4466 H 0.0" /><rect class="sym" height="6" width="6" x="-3" y="-3" /><text class="lab" transform="translate(0 11)">6</text></g><path class="edge" d="M 0 0 V -0.61295 H -12.8333" /><circle class="sym" cx="0" cy="0" r="3" /><text class="lab rgt" transform="translate(3 -7.0)">16</text></g><path class="edge" d="M 0 0 V -2.22439 H 13.75" /><circle class="sym" cx="0" cy="0" r="3" /><text class="lab lft" transform="translate(-3 -7.0)">17</text></g><path class="edge" d="M 0 0 V -19.7475 H 0.0" /><circle class="sym" cx="0" cy="0" r="3" /><text class="lab lft" transform="translate(-3 -7.0)">19</text></g><path class="edge" d="M 0 0 V -6.61055 H 14.2083" /><circle class="sym" cx="0" cy="0" r="3" /><text class="lab lft" transform="translate(-3 -7.0)">21</text></g><path class="edge" d="M 0 0 V -45.958 H -45.1458" /><circle class="sym" cx="0" cy="0" r="3" /><text class="lab rgt" transform="translate(3 -7.0)">23</text></g><circle class="sym" cx="0" cy="0" r="3" /><text class="lab" transform="translate(0 -11)">24</text></g></g></g></g></g></svg>
