<svg baseProfile="full" height="200" version="1.1" width="1200" xmlns="http://www.w3.org/2000/svg" xmlns:ev="http://www.w3.org/2001/xml-events" xmlns:xlink="http://www.w3.org/1999/xlink"><defs><style type="text/css"><![CDATA[.background path {fill: #808080; fill-opacity: 0}.background path:nth-child(odd) {fill-opacity: .1}.axes {font-size: 14px}.x-axis .tick .lab {font-weight: bold; dominant-baseline: hanging}.axes, .tree {font-size: 14px; text-anchor: middle}.axes line, .edge {stroke: black; fill: none}.y-axis .grid {stroke: #FAFAFA}.node > .sym {fill: black; stroke: none}.site > .sym {stroke: black}.mut text {fill: red; font-style: italic}.mut.extra text {fill: hotpink}.mut line {fill: none; stroke: none}.mut .sym {fill: none; stroke: red}.mut.extra .sym {stroke: hotpink}.node .mut .sym {stroke-width: 1.5px}.tree text, .tree-sequence text {dominant-baseline: central}.plotbox .lab.lft {text-anchor: end}.plotbox .lab.rgt {text-anchor: start}]]></style></defs><g class="tree-sequence"><g class="background"><path d="M20,0 l193.333,0 l0,138.2 l98.3519,25 l0,5 l-291.685,0 l0,-5 l0,-25 l0,-138.2z" /><path d="M213.333,0 l193.333,0 l0,138.2 l67.0518,25 l0,5 l-162.033,0 l0,-5 l-98.3519,-25 l0,-138.2z" /><path d="M406.667,0 l193.333,0 l0,138.2 l57.6162,25 l0,5 l-183.898,0 l0,-5 l-67.0518,-25 l0,-138.2z" /><path d="M600,0 l193.333,0 l0,138.2 l221.789,25 l0,5 l-357.507,0 l0,-5 l-57.6162,-25 l0,-138.2z" /><path d="M793.333,0 l193.333,0 l0,138.2 l126.77,25 l0,5 l-98.3136,0 l0,-5 l-221.789,-25 l0,-138.2z" /><path d="M986.667,0 l193.333,0 l0,138.2 l0,25 l0,5 l-66.5637,0 l0,-5 l-126.77,-25 l0,-138.2z" /></g><g class="axes"><g class="x-axis"><g transform="translate(600 200)"><text class="lab" text-anchor="middle" transform="translate(0 -11)">Genome position</text></g><line x1="20" x2="1180" y1="163.2" y2="163.2" /><g class="ticks"><g class="tick" transform="translate(20 163.2)"><line x1="0" x2="0" y1="0" y2="5" /><g transform="translate(0 6)"><text class="lab">0.00</text></g></g><g class="tick" transform="translate(311.685 163.2)"><line x1="0" x2="0" y1="0" y2="5" /><g transform="translate(0 6)"><text class="lab">251.45</text></g></g><g class="tick" transform="translate(473.718 163.2)"><line x1="0" x2="0" y1="0" y2="5" /><g transform="translate(0 6)"><text class="lab">391.14</text></g></g><g class="tick" transform="translate(657.616 163.2)"><line x1="0" x2="0" y1="0" y2="5" /><g transform="translate(0 6)"><text class="lab">549.67</text></g></g><g class="tick" transform="translate(1015.12 163.2)"><line x1="0" x2="0" y1="0" y2="5" /><g transform="translate(0 6)"><text class="lab">857.86</text></g></g><g class="tick" transform="translate(1113.44 163.2)"><line x1="0" x2="0" y1="0" y2="5" /><g transform="translate(0 6)"><text class="lab">942.62</text></g></g><g class="tick" transform="translate(1180 163.2)"><line x1="0" x2="0" y1="0" y2="5" /><g transform="translate(0 6)"><text class="lab">1000.00</text></g></g></g></g></g><g class="plotbox trees"><g class="tree t0" transform="translate(20 0)"><g class="plotbox"><g class="c2 node n33 p0 root" transform="translate(95.7083 26.8)"><g class="a33 c2 node n31 p0" transform="translate(35.4583 48.2297)"><g class="a31 c2 node n21 p0" transform="translate(23 31.8788)"><g class="a21 leaf node n6 p0 sample" transform="translate(11.5 14.4915)"><path class="edge" d="M 0 0 V -14.4915 H -11.5" /><rect class="sym" height="6" width="6" x="-3" y="-3" /><text class="lab" transform="translate(0 11)">6</text></g><g class="a21 c1 node n13 p0" transform="translate(-11.5 11.2575)"><g class="a13 c2 node n10 p0" transform="translate(0.0 2.38356)"><g class="a10 leaf node n3 p0 sample" transform="translate(-7.66667 0.850476)"><path class="edge" d="M 0 0 V -0.850476 H 7.66667" /><rect class="sym" height="6" width="6" x="-3" y="-3" /><text class="lab" transform="translate(0 11)">3</text></g><g class="a10 leaf node n4 p0 sample" transform="translate(7.66667 0.850476)"><path class="edge" d="M 0 0 V -0.850476 H -7.66667" /><rect class="sym" height="6" width="6" x="-3" y="-3" /><text class="lab" transform="translate(0 11)">4</text></g><path class="edge" d="M 0 0 V -2.38356 H 0.0" /><circle class="sym" cx="0" cy="0" r="3" /><text class="lab lft" transform="translate(-3 -7.0)">10</text></g><path class="edge" d="M 0 0 V -11.2575 H 11.5" /><circle class="sym" cx="0" cy="0" r="3" /><text class="lab lft" transform="translate(-3 -7.0)">13</text></g><path class="edge" d="M 0 0 V -31.8788 H -23" /><circle class="sym" cx="0" cy="0" r="3" /><text class="lab rgt" transform="translate(3 -7.0)">21</text></g><g class="a31 c2 node n25 p0" transform="translate(-23 21.344)"><g class="a25 c1 node n18 p0" transform="translate(11.5 11.8455)"><g class="a18 leaf node n5 p0 sample" transform="translate(0.0 13.1808)"><path class="edge" d="M 0 0 V -13.1808 H 0.0" /><rect class="sym" height="6" width="6" x="-3" y="-3" /><text class="lab" transform="translate(0 11)">5</text></g><path class="edge" d="M 0 0 V -11.8455 H -11.5" /><circle class="sym" cx="0" cy="0" r="3" /><text class="lab rgt" transform="translate(3 -7.0)">18</text></g><g class="a25 c1 node n23 p0" transform="translate(-11.5 9.6526)"><g class="a23 c2 node n17 p0" transform="translate(0.0 6.69565)"><g class="a17 leaf node n2 p0 sample" transform="translate(-7.66667 8.67802)"><path class="edge" d="M 0 0 V -8.67802 H 7.66667" /><rect class="sym" height="6" width="6" x="-3" y="-3" /><text class="lab" transform="translate(0 11)">2</text></g><g class="a17 c1 node n11 p0" transform="translate(7.66667 6.06057)"><g class="a11 leaf node n8 p0 sample" transform="translate(0.0 2.61745)"><path class="edge" d="M 0 0 V -2.61745 H 0.0" /><rect class="sym" height="6" width="6" x="-3" y="-3" /><text class="lab" transform="translate(0 11)">8</text></g><path class="edge" d="M 0 0 V -6.06057 H -7.66667" /><circle class="sym" cx="0" cy="0" r="3" /><text class="lab rgt" transform="translate(3 -7.0)">11</text></g><path class="edge" d="M 0 0 V -6.69565 H 0.0" /><circle class="sym" cx="0" cy="0" r="3" /><text class="lab lft" transform="translate(-3 -7.0)">17</text></g><path class="edge" d="M 0 0 V -9.6526 H 11.5" /><circle class="sym" cx="0" cy="0" r="3" /><text class="lab lft" transform="translate(-3 -7.0)">23</text></g><path class="edge" d="M 0 0 V -21.344 H 23" /><circle class="sym" cx="0" cy="0" r="3" /><text class="lab lft" transform="translate(-3 -7.0)">25</text></g><path class="edge" d="M 0 0 V -48.2297 H -35.4583" /><circle class="sym" cx="0" cy="0" r="3" /><text class="lab rgt" transform="translate(3 -7.0)">31</text></g><g class="a33 c1 node n32 p0" transform="translate(-35.4583 38.2707)"><g class="a32 c2 node n30 p0" transform="translate(0.0 17.8407)"><g class="a30 c1 node n26 p0" transform="translate(-13.4167 11.14)"><g class="a26 c2 node n22 p0" transform="translate(0.0 12.0749)"><g class="a22 leaf node n7 p0 sample" transform="translate(11.5 15.2737)"><path class="edge" d="M 0 0 V -15.2737 H -11.5" /><rect class="sym" height="6" width="6" x="-3" y="-3" /><text class="lab" transform="translate(0 11)">7</text></g><g class="a22 c2 node n20 p0" transform="translate(-11.5 1.50868)"><g class="a20 leaf node n9 p0 sample" transform="translate(7.66667 13.765)"><path class="edge" d="M 0 0 V -13.765 H -7.66667" /><rect class="sym" height="6" width="6" x="-3" y="-3" /><text class="lab" transform="translate(0 11)">9</text></g><g class="a20 c1 node n15 p0" transform="translate(-7.66667 10.0574)"><g class="a15 leaf node n0 p0 sample" transform="translate(0.0 3.70763)"><path class="edge" d="M 0 0 V -3.70763 H 0.0" /><rect class="sym" height="6" width="6" x="-3" y="-3" /><text class="lab" transform="translate(0 11)">0</text></g><path class="edge" d="M 0 0 V -10.0574 H 7.66667" /><circle class="sym" cx="0" cy="0" r="3" /><text class="lab lft" transform="translate(-3 -7.0)">15</text></g><path class="edge" d="M 0 0 V -1.50868 H 11.5" /><circle class="sym" cx="0" cy="0" r="3" /><text class="lab lft" transform="translate(-3 -7.0)">20</text></g><path class="edge" d="M 0 0 V -12.0749 H 0.0" /><circle class="sym" cx="0" cy="0" r="3" /><text class="lab lft" transform="translate(-3 -7.0)">22</text></g><path class="edge" d="M 0 0 V -11.14 H 13.4167" /><circle class="sym" cx="0" cy="0" r="3" /><text class="lab lft" transform="translate(-3 -7.0)">26</text></g><g class="a30 c1 node n29 p0" transform="translate(13.4167 5.75189)"><g class="a29 c1 node n28 p0" transform="translate(0.0 0.86768)"><g class="a28 c1 node n16 p0" transform="translate(0.0 25.0294)"><g class="a16 leaf node n1 p0 sample" transform="translate(0.0 6.83967)"><path class="edge" d="M 0 0 V -6.83967 H 0.0" /><rect class="sym" height="6" width="6" x="-3" y="-3" /><text class="lab" transform="translate(0 11)">1</text></g><path class="edge" d="M 0 0 V -25.0294 H 0.0" /><circle class="sym" cx="0" cy="0" r="3" /><text class="lab lft" transform="translate(-3 -7.0)">16</text></g><path class="edge" d="M 0 0 V -0.86768 H 0.0" /><circle class="sym" cx="0" cy="0" r="3" /><text class="lab lft" transform="translate(-3 -7.0)">28</text></g><path class="edge" d="M 0 0 V -5.75189 H -13.4167" /><circle class="sym" cx="0" cy="0" r="3" /><text class="lab rgt" transform="translate(3 -7.0)">29</text></g><path class="edge" d="M 0 0 V -17.8407 H 0.0" /><circle class="sym" cx="0" cy="0" r="3" /><text class="lab lft" transform="translate(-3 -7.0)">30</text></g><path class="edge" d="M 0 0 V -38.2707 H 35.4583" /><circle class="sym" cx="0" cy="0" r="3" /><text class="lab lft" transform="translate(-3 -7.0)">32</text></g><circle class="sym" cx="0" cy="0" r="3" /><text class="lab" transform="translate(0 -11)">33</text></g></g></g><g class="tree t1" transform="translate(213.333 0)"><g class="plotbox"><g class="c2 node n33 p0 root" transform="translate(120.385 26.8)"><g class="a33 c2 node n31 p0" transform="translate(31.8646 48.2297)"><g class="a31 c1 node n21 p0" transform="translate(13.4167 31.8788)"><g class="a21 leaf node n6 p0 sample" transform="translate(0.0 14.4915)"><path class="edge" d="M 0 0 V -14.4915 H 0.0" /><rect class="sym" height="6" width="6" x="-3" y="-3" /><text class="lab" transform="translate(0 11)">6</text></g><path class="edge" d="M 0 0 V -31.8788 H -13.4167" /><circle class="sym" cx="0" cy="0" r="3" /><text class="lab rgt" transform="translate(3 -7.0)">21</text></g><g class="a31 c2 node n25 p0" transform="translate(-13.4167 21.344)"><g class="a25 c1 node n18 p0" transform="translate(11.5 11.8455)"><g class="a18 leaf node n5 p0 sample" transform="translate(0.0 13.1808)"><path class="edge" d="M 0 0 V -13.1808 H 0.0" /><rect class="sym" height="6" width="6" x="-3" y="-3" /><text class="lab" transform="translate(0 11)">5</text></g><path class="edge" d="M 0 0 V -11.8455 H -11.5" /><circle class="sym" cx="0" cy="0" r="3" /><text class="lab rgt" transform="translate(3 -7.0)">18</text></g><g class="a25 c1 node n23 p0" transform="translate(-11.5 9.6526)"><g class="a23 c2 node n17 p0" transform="translate(0.0 6.69565)"><g class="a17 leaf node n2 p0 sample" transform="translate(-7.66667 8.67802)"><path class="edge" d="M 0 0 V -8.67802 H 7.66667" /><rect class="sym" height="6" width="6" x="-3" y="-3" /><text class="lab" transform="translate(0 11)">2</text></g><g class="a17 c1 node n11 p0" transform="translate(7.66667 6.06057)"><g class="a11 leaf node n8 p0 sample" transform="translate(0.0 2.61745)"><path class="edge" d="M 0 0 V -2.61745 H 0.0" /><rect class="sym" height="6" width="6" x="-3" y="-3" /><text class="lab" transform="translate(0 11)">8</text></g><path class="edge" d="M 0 0 V -6.06057 H -7.66667" /><circle class="sym" cx="0" cy="0" r="3" /><text class="lab rgt" transform="translate(3 -7.0)">11</text></g><path class="edge" d="M 0 0 V -6.69565 H 0.0" /><circle class="sym" cx="0" cy="0" r="3" /><text class="lab lft" transform="translate(-3 -7.0)">17</text></g><path class="edge" d="M 0 0 V -9.6526 H 11.5" /><circle class="sym" cx="0" cy="0" r="3" /><text class="lab lft" transform="translate(-3 -7.0)">23</text></g><path class="edge" d="M 0 0 V -21.344 H 13.4167" /><circle class="sym" cx="0" cy="0" r="3" /><text class="lab lft" transform="translate(-3 -7.0)">25</text></g><path class="edge" d="M 0 0 V -48.2297 H -31.8646" /><circle class="sym" cx="0" cy="0" r="3" /><text class="lab rgt" transform="translate(3 -7.0)">31</text></g><g class="a33 c1 node n32 p0" transform="translate(-31.8646 38.2707)"><g class="a32 c2 node n30 p0" transform="translate(0.0 17.8407)"><g class="a30 c1 node n26 p0" transform="translate(-15.8125 11.14)"><g class="a26 c2 node n22 p0" transform="translate(0.0 12.0749)"><g class="a22 leaf node n7 p0 sample" transform="translate(16.2917 15.2737)"><path class="edge" d="M 0 0 V -15.2737 H -16.2917" /><rect class="sym" height="6" width="6" x="-3" y="-3" /><text class="lab" transform="translate(0 11)">7</text></g><g class="a22 c2 node n20 p0" transform="translate(-16.2917 1.50868)"><g class="a20 leaf node n9 p0 sample" transform="translate(17.25 13.765)"><path class="edge" d="M 0 0 V -13.765 H -17.25" /><rect class="sym" height="6" width="6" x="-3" y="-3" /><text class="lab" transform="translate(0 11)">9</text></g><g class="a20 c2 node n15 p0" transform="translate(-17.25 10.0574)"><g class="a15 leaf node n0 p0 sample" transform="translate(-11.5 3.70763)"><path class="edge" d="M 0 0 V -3.70763 H 11.5" /><rect class="sym" height="6" width="6" x="-3" y="-3" /><text class="lab" transform="translate(0 11)">0</text></g><g class="a15 c1 node n14 p0" transform="translate(11.5 0.473586)"><g class="a14 c2 node n10 p0" transform="translate(0.0 2.38356)"><g class="a10 leaf node n3 p0 sample" transform="translate(-7.66667 0.850476)"><path class="edge" d="M 0 0 V -0.850476 H 7.66667" /><rect class="sym" height="6" width="6" x="-3" y="-3" /><text class="lab" transform="translate(0 11)">3</text></g><g class="a10 leaf node n4 p0 sample" transform="translate(7.66667 0.850476)"><path class="edge" d="M 0 0 V -0.850476 H -7.66667" /><rect class="sym" height="6" width="6" x="-3" y="-3" /><text class="lab" transform="translate(0 11)">4</text></g><path class="edge" d="M 0 0 V -2.38356 H 0.0" /><circle class="sym" cx="0" cy="0" r="3" /><text class="lab lft" transform="translate(-3 -7.0)">10</text></g><path class="edge" d="M 0 0 V -0.473586 H -11.5" /><circle class="sym" cx="0" cy="0" r="3" /><text class="lab rgt" transform="translate(3 -7.0)">14</text></g><path class="edge" d="M 0 0 V -10.0574 H 17.25" /><circle class="sym" cx="0" cy="0" r="3" /><text class="lab lft" transform="translate(-3 -7.0)">15</text></g><path class="edge" d="M 0 0 V -1.50868 H 16.2917" /><circle class="sym" cx="0" cy="0" r="3" /><text class="lab lft" transform="translate(-3 -7.0)">20</text></g><path class="edge" d="M 0 0 V -12.0749 H 0.0" /><circle class="sym" cx="0" cy="0" r="3" /><text class="lab lft" transform="translate(-3 -7.0)">22</text></g><path class="edge" d="M 0 0 V -11.14 H 15.8125" /><circle class="sym" cx="0" cy="0" r="3" /><text class="lab lft" transform="translate(-3 -7.0)">26</text></g><g class="a30 c1 node n29 p0" transform="translate(15.8125 5.75189)"><g class="a29 c1 node n28 p0" transform="translate(0.0 0.86768)"><g class="a28 c1 node n16 p0" transform="translate(0.0 25.0294)"><g class="a16 leaf node n1 p0 sample" transform="translate(0.0 6.83967)"><path class="edge" d="M 0 0 V -6.83967 H 0.0" /><rect class="sym" height="6" width="6" x="-3" y="-3" /><text class="lab" transform="translate(0 11)">1</text></g><path class="edge" d="M 0 0 V -25.0294 H 0.0" /><circle class="sym" cx="0" cy="0" r="3" /><text class="lab lft" transform="translate(-3 -7.0)">16</text></g><path class="edge" d="M 0 0 V -0.86768 H 0.0" /><circle class="sym" cx="0" cy="0" r="3" /><text class="lab lft" transform="translate(-3 -7.0)">28</text></g><path class="edge" d="M 0 0 V -5.75189 H -15.8125" /><circle class="sym" cx="0" cy="0" r="3" /><text class="lab rgt" transform="translate(3 -7.0)">29</text></g><path class="edge" d="M 0 0 V -17.8407 H 0.0" /><circle class="sym" cx="0" cy="0" r="3" /><text class="lab lft" transform="translate(-3 -7.0)">30</text></g><path class="edge" d="M 0 0 V -38.2707 H 31.8646" /><circle class="sym" cx="0" cy="0" r="3" /><text class="lab lft" transform="translate(-3 -7.0)">32</text></g><circle class="sym" cx="0" cy="0" r="3" /><text class="lab" transform="translate(0 -11)">33</text></g></g></g><g class="tree t2" transform="translate(406.667 0)"><g class="plotbox"><g class="c2 node n33 p0 root" transform="translate(123.26 26.8)"><g class="a33 c2 node n31 p0" transform="translate(30.9062 48.2297)"><g class="a31 c1 node n21 p0" transform="translate(11.5 31.8788)"><g class="a21 leaf node n6 p0 sample" transform="translate(0.0 14.4915)"><path class="edge" d="M 0 0 V -14.4915 H 0.0" /><rect class="sym" height="6" width="6" x="-3" y="-3" /><text class="lab" transform="translate(0 11)">6</text></g><path class="edge" d="M 0 0 V -31.8788 H -11.5" /><circle class="sym" cx="0" cy="0" r="3" /><text class="lab rgt" transform="translate(3 -7.0)">21</text></g><g class="a31 c2 node n25 p0" transform="translate(-11.5 21.344)"><g class="a25 c1 node n18 p0" transform="translate(7.66667 11.8455)"><g class="a18 leaf node n5 p0 sample" transform="translate(0.0 13.1808)"><path class="edge" d="M 0 0 V -13.1808 H 0.0" /><rect class="sym" height="6" width="6" x="-3" y="-3" /><text class="lab" transform="translate(0 11)">5</text></g><path class="edge" d="M 0 0 V -11.8455 H -7.66667" /><circle class="sym" cx="0" cy="0" r="3" /><text class="lab rgt" transform="translate(3 -7.0)">18</text></g><g class="a25 c1 node n23 p0" transform="translate(-7.66667 9.6526)"><g class="a23 c1 node n17 p0" transform="translate(0.0 6.69565)"><g class="a17 leaf node n2 p0 sample" transform="translate(0.0 8.67802)"><path class="edge" d="M 0 0 V -8.67802 H 0.0" /><rect class="sym" height="6" width="6" x="-3" y="-3" /><text class="lab" transform="translate(0 11)">2</text></g><path class="edge" d="M 0 0 V -6.69565 H 0.0" /><circle class="sym" cx="0" cy="0" r="3" /><text class="lab lft" transform="translate(-3 -7.0)">17</text></g><path class="edge" d="M 0 0 V -9.6526 H 7.66667" /><circle class="sym" cx="0" cy="0" r="3" /><text class="lab lft" transform="translate(-3 -7.0)">23</text></g><path class="edge" d="M 0 0 V -21.344 H 11.5" /><circle class="sym" cx="0" cy="0" r="3" /><text class="lab lft" transform="translate(-3 -7.0)">25</text></g><path class="edge" d="M 0 0 V -48.2297 H -30.9062" /><circle class="sym" cx="0" cy="0" r="3" /><text class="lab rgt" transform="translate(3 -7.0)">31</text></g><g class="a33 c1 node n32 p0" transform="translate(-30.9063 38.2707)"><g class="a32 c2 node n30 p0" transform="translate(0.0 17.8407)"><g class="a30 c1 node n26 p0" transform="translate(-19.6458 11.14)"><g class="a26 c2 node n22 p0" transform="translate(0.0 12.0749)"><g class="a22 leaf node n7 p0 sample" transform="translate(16.2917 15.2737)"><path class="edge" d="M 0 0 V -15.2737 H -16.2917" /><rect class="sym" height="6" width="6" x="-3" y="-3" /><text class="lab" transform="translate(0 11)">7</text></g><g class="a22 c2 node n20 p0" transform="translate(-16.2917 1.50868)"><g class="a20 leaf node n9 p0 sample" transform="translate(17.25 13.765)"><path class="edge" d="M 0 0 V -13.765 H -17.25" /><rect class="sym" height="6" width="6" x="-3" y="-3" /><text class="lab" transform="translate(0 11)">9</text></g><g class="a20 c2 node n15 p0" transform="translate(-17.25 10.0574)"><g class="a15 leaf node n0 p0 sample" transform="translate(-11.5 3.70763)"><path class="edge" d="M 0 0 V -3.70763 H 11.5" /><rect class="sym" height="6" width="6" x="-3" y="-3" /><text class="lab" transform="translate(0 11)">0</text></g><g class="a15 c1 node n14 p0" transform="translate(11.5 0.473586)"><g class="a14 c2 node n10 p0" transform="translate(0.0 2.38356)"><g class="a10 leaf node n3 p0 sample" transform="translate(-7.66667 0.850476)"><path class="edge" d="M 0 0 V -0.850476 H 7.66667" /><rect class="sym" height="6" width="6" x="-3" y="-3" /><text class="lab" transform="translate(0 11)">3</text></g><g class="a10 leaf node n4 p0 sample" transform="translate(7.66667 0.850476)"><path class="edge" d="M 0 0 V -0.850476 H -7.66667" /><rect class="sym" height="6" width="6" x="-3" y="-3" /><text class="lab" transform="translate(0 11)">4</text></g><path class="edge" d="M 0 0 V -2.38356 H 0.0" /><circle class="sym" cx="0" cy="0" r="3" /><text class="lab lft" transform="translate(-3 -7.0)">10</text></g><path class="edge" d="M 0 0 V -0.473586 H -11.5" /><circle class="sym" cx="0" cy="0" r="3" /><text class="lab rgt" transform="translate(3 -7.0)">14</text></g><path class="edge" d="M 0 0 V -10.0574 H 17.25" /><circle class="sym" cx="0" cy="0" r="3" /><text class="lab lft" transform="translate(-3 -7.0)">15</text></g><path class="edge" d="M 0 0 V -1.50868 H 16.2917" /><circle class="sym" cx="0" cy="0" r="3" /><text class="lab lft" transform="translate(-3 -7.0)">20</text></g><path class="edge" d="M 0 0 V -12.0749 H 0.0" /><circle class="sym" cx="0" cy="0" r="3" /><text class="lab lft" transform="translate(-3 -7.0)">22</text></g><path class="edge" d="M 0 0 V -11.14 H 19.6458" /><circle class="sym" cx="0" cy="0" r="3" /><text class="lab lft" transform="translate(-3 -7.0)">26</text></g><g class="a30 c1 node n29 p0" transform="translate(19.6458 5.75189)"><g class="a29 c1 node n28 p0" transform="translate(0.0 0.86768)"><g class="a28 c2 node n16 p0" transform="translate(0.0 25.0294)"><g class="a16 leaf node n1 p0 sample" transform="translate(-7.66667 6.83967)"><path class="edge" d="M 0 0 V -6.83967 H 7.66667" /><rect class="sym" height="6" width="6" x="-3" y="-3" /><text class="lab" transform="translate(0 11)">1</text></g><g class="a16 c1 node n12 p0" transform="translate(7.66667 4.22223)"><g class="a12 leaf node n8 p0 sample" transform="translate(0.0 2.61745)"><path class="edge" d="M 0 0 V -2.61745 H 0.0" /><rect class="sym" height="6" width="6" x="-3" y="-3" /><text class="lab" transform="translate(0 11)">8</text></g><path class="edge" d="M 0 0 V -4.22223 H -7.66667" /><circle class="sym" cx="0" cy="0" r="3" /><text class="lab rgt" transform="translate(3 -7.0)">12</text></g><path class="edge" d="M 0 0 V -25.0294 H 0.0" /><circle class="sym" cx="0" cy="0" r="3" /><text class="lab lft" transform="translate(-3 -7.0)">16</text></g><path class="edge" d="M 0 0 V -0.86768 H 0.0" /><circle class="sym" cx="0" cy="0" r="3" /><text class="lab lft" transform="translate(-3 -7.0)">28</text></g><path class="edge" d="M 0 0 V -5.75189 H -19.6458" /><circle class="sym" cx="0" cy="0" r="3" /><text class="lab rgt" transform="translate(3 -7.0)">29</text></g><path class="edge" d="M 0 0 V -17.8407 H 0.0" /><circle class="sym" cx="0" cy="0" r="3" /><text class="lab lft" transform="translate(-3 -7.0)">30</text></g><path class="edge" d="M 0 0 V -38.2707 H 30.9063" /><circle class="sym" cx="0" cy="0" r="3" /><text class="lab lft" transform="translate(-3 -7.0)">32</text></g><circle class="sym" cx="0" cy="0" r="3" /><text class="lab" transform="translate(0 -11)">33</text></g></g></g><g class="tree t3" transform="translate(600 0)"><g class="plotbox"><g class="c2 node n33 p0 root" transform="translate(128.052 26.8)"><g class="a33 c2 node n31 p0" transform="translate(29.9479 48.2297)"><g class="a31 c1 node n21 p0" transform="translate(7.66667 31.8788)"><g class="a21 leaf node n6 p0 sample" transform="translate(0.0 14.4915)"><path class="edge" d="M 0 0 V -14.4915 H 0.0" /><rect class="sym" height="6" width="6" x="-3" y="-3" /><text class="lab" transform="translate(0 11)">6</text></g><path class="edge" d="M 0 0 V -31.8788 H -7.66667" /><circle class="sym" cx="0" cy="0" r="3" /><text class="lab rgt" transform="translate(3 -7.0)">21</text></g><g class="a31 c1 node n25 p0" transform="translate(-7.66667 21.344)"><g class="a25 c1 node n18 p0" transform="translate(0.0 11.8455)"><g class="a18 leaf node n5 p0 sample" transform="translate(0.0 13.1808)"><path class="edge" d="M 0 0 V -13.1808 H 0.0" /><rect class="sym" height="6" width="6" x="-3" y="-3" /><text class="lab" transform="translate(0 11)">5</text></g><path class="edge" d="M 0 0 V -11.8455 H 0.0" /><circle class="sym" cx="0" cy="0" r="3" /><text class="lab lft" transform="translate(-3 -7.0)">18</text></g><path class="edge" d="M 0 0 V -21.344 H 7.66667" /><circle class="sym" cx="0" cy="0" r="3" /><text class="lab lft" transform="translate(-3 -7.0)">25</text></g><path class="edge" d="M 0 0 V -48.2297 H -29.9479" /><circle class="sym" cx="0" cy="0" r="3" /><text class="lab rgt" transform="translate(3 -7.0)">31</text></g><g class="a33 c1 node n32 p0" transform="translate(-29.9479 38.2707)"><g class="a32 c2 node n30 p0" transform="translate(0.0 17.8407)"><g class="a30 c1 node n26 p0" transform="translate(-25.3958 11.14)"><g class="a26 c2 node n22 p0" transform="translate(0.0 12.0749)"><g class="a22 leaf node n7 p0 sample" transform="translate(16.2917 15.2737)"><path class="edge" d="M 0 0 V -15.2737 H -16.2917" /><rect class="sym" height="6" width="6" x="-3" y="-3" /><text class="lab" transform="translate(0 11)">7</text></g><g class="a22 c2 node n20 p0" transform="translate(-16.2917 1.50868)"><g class="a20 leaf node n9 p0 sample" transform="translate(17.25 13.765)"><path class="edge" d="M 0 0 V -13.765 H -17.25" /><rect class="sym" height="6" width="6" x="-3" y="-3" /><text class="lab" transform="translate(0 11)">9</text></g><g class="a20 c2 node n15 p0" transform="translate(-17.25 10.0574)"><g class="a15 leaf node n0 p0 sample" transform="translate(-11.5 3.70763)"><path class="edge" d="M 0 0 V -3.70763 H 11.5" /><rect class="sym" height="6" width="6" x="-3" y="-3" /><text class="lab" transform="translate(0 11)">0</text></g><g class="a15 c1 node n14 p0" transform="translate(11.5 0.473586)"><g class="a14 c2 node n10 p0" transform="translate(0.0 2.38356)"><g class="a10 leaf node n3 p0 sample" transform="translate(-7.66667 0.850476)"><path class="edge" d="M 0 0 V -0.850476 H 7.66667" /><rect class="sym" height="6" width="6" x="-3" y="-3" /><text class="lab" transform="translate(0 11)">3</text></g><g class="a10 leaf node n4 p0 sample" transform="translate(7.66667 0.850476)"><path class="edge" d="M 0 0 V -0.850476 H -7.66667" /><rect class="sym" height="6" width="6" x="-3" y="-3" /><text class="lab" transform="translate(0 11)">4</text></g><path class="edge" d="M 0 0 V -2.38356 H 0.0" /><circle class="sym" cx="0" cy="0" r="3" /><text class="lab lft" transform="translate(-3 -7.0)">10</text></g><path class="edge" d="M 0 0 V -0.473586 H -11.5" /><circle class="sym" cx="0" cy="0" r="3" /><text class="lab rgt" transform="translate(3 -7.0)">14</text></g><path class="edge" d="M 0 0 V -10.0574 H 17.25" /><circle class="sym" cx="0" cy="0" r="3" /><text class="lab lft" transform="translate(-3 -7.0)">15</text></g><path class="edge" d="M 0 0 V -1.50868 H 16.2917" /><circle class="sym" cx="0" cy="0" r="3" /><text class="lab lft" transform="translate(-3 -7.0)">20</text></g><path class="edge" d="M 0 0 V -12.0749 H 0.0" /><circle class="sym" cx="0" cy="0" r="3" /><text class="lab lft" transform="translate(-3 -7.0)">22</text></g><path class="edge" d="M 0 0 V -11.14 H 25.3958" /><circle class="sym" cx="0" cy="0" r="3" /><text class="lab lft" transform="translate(-3 -7.0)">26</text></g><g class="a30 c1 node n29 p0" transform="translate(25.3958 5.75189)"><g class="a29 c2 node n28 p0" transform="translate(0.0 0.86768)"><g class="a28 c2 node n16 p0" transform="translate(-11.5 25.0294)"><g class="a16 leaf node n1 p0 sample" transform="translate(-7.66667 6.83967)"><path class="edge" d="M 0 0 V -6.83967 H 7.66667" /><rect class="sym" height="6" width="6" x="-3" y="-3" /><text class="lab" transform="translate(0 11)">1</text></g><g class="a16 c1 node n12 p0" transform="translate(7.66667 4.22223)"><g class="a12 leaf node n8 p0 sample" transform="translate(0.0 2.61745)"><path class="edge" d="M 0 0 V -2.61745 H 0.0" /><rect class="sym" height="6" width="6" x="-3" y="-3" /><text class="lab" transform="translate(0 11)">8</text></g><path class="edge" d="M 0 0 V -4.22223 H -7.66667" /><circle class="sym" cx="0" cy="0" r="3" /><text class="lab rgt" transform="translate(3 -7.0)">12</text></g><path class="edge" d="M 0 0 V -25.0294 H 11.5" /><circle class="sym" cx="0" cy="0" r="3" /><text class="lab lft" transform="translate(-3 -7.0)">16</text></g><g class="a28 c1 node n24 p0" transform="translate(11.5 16.4954)"><g class="a24 c1 node n17 p0" transform="translate(0.0 6.69565)"><g class="a17 leaf node n2 p0 sample" transform="translate(0.0 8.67802)"><path class="edge" d="M 0 0 V -8.67802 H 0.0" /><rect class="sym" height="6" width="6" x="-3" y="-3" /><text class="lab" transform="translate(0 11)">2</text></g><path class="edge" d="M 0 0 V -6.69565 H 0.0" /><circle class="sym" cx="0" cy="0" r="3" /><text class="lab lft" transform="translate(-3 -7.0)">17</text></g><path class="edge" d="M 0 0 V -16.4954 H -11.5" /><circle class="sym" cx="0" cy="0" r="3" /><text class="lab rgt" transform="translate(3 -7.0)">24</text></g><path class="edge" d="M 0 0 V -0.86768 H 0.0" /><circle class="sym" cx="0" cy="0" r="3" /><text class="lab lft" transform="translate(-3 -7.0)">28</text></g><path class="edge" d="M 0 0 V -5.75189 H -25.3958" /><circle class="sym" cx="0" cy="0" r="3" /><text class="lab rgt" transform="translate(3 -7.0)">29</text></g><path class="edge" d="M 0 0 V -17.8407 H 0.0" /><circle class="sym" cx="0" cy="0" r="3" /><text class="lab lft" transform="translate(-3 -7.0)">30</text></g><path class="edge" d="M 0 0 V -38.2707 H 29.9479" /><circle class="sym" cx="0" cy="0" r="3" /><text class="lab lft" transform="translate(-3 -7.0)">32</text></g><circle class="sym" cx="0" cy="0" r="3" /><text class="lab" transform="translate(0 -11)">33</text></g></g></g><g class="tree t4" transform="translate(793.333 0)"><g class="plotbox"><g class="c2 node n33 p0 root" transform="translate(135.24 26.8)"><g class="a33 c1 node n31 p0" transform="translate(30.4271 48.2297)"><g class="a31 c1 node n21 p0" transform="translate(0.0 31.8788)"><g class="a21 leaf node n6 p0 sample" transform="translate(0.0 14.4915)"><path class="edge" d="M 0 0 V -14.4915 H 0.0" /><rect class="sym" height="6" width="6" x="-3" y="-3" /><text class="lab" transform="translate(0 11)">6</text></g><path class="edge" d="M 0 0 V -31.8788 H 0.0" /><circle class="sym" cx="0" cy="0" r="3" /><text class="lab lft" transform="translate(-3 -7.0)">21</text></g><path class="edge" d="M 0 0 V -48.2297 H -30.4271" /><circle class="sym" cx="0" cy="0" r="3" /><text class="lab rgt" transform="translate(3 -7.0)">31</text></g><g class="a33 c1 node n32 p0" transform="translate(-30.4271 38.2707)"><g class="a32 c2 node n30 p0" transform="translate(0.0 17.8407)"><g class="a30 c1 node n26 p0" transform="translate(-32.1042 11.14)"><g class="a26 c2 node n22 p0" transform="translate(0.0 12.0749)"><g class="a22 leaf node n7 p0 sample" transform="translate(16.2917 15.2737)"><path class="edge" d="M 0 0 V -15.2737 H -16.2917" /><rect class="sym" height="6" width="6" x="-3" y="-3" /><text class="lab" transform="translate(0 11)">7</text></g><g class="a22 c2 node n20 p0" transform="translate(-16.2917 1.50868)"><g class="a20 leaf node n9 p0 sample" transform="translate(17.25 13.765)"><path class="edge" d="M 0 0 V -13.765 H -17.25" /><rect class="sym" height="6" width="6" x="-3" y="-3" /><text class="lab" transform="translate(0 11)">9</text></g><g class="a20 c2 node n15 p0" transform="translate(-17.25 10.0574)"><g class="a15 leaf node n0 p0 sample" transform="translate(-11.5 3.70763)"><path class="edge" d="M 0 0 V -3.70763 H 11.5" /><rect class="sym" height="6" width="6" x="-3" y="-3" /><text class="lab" transform="translate(0 11)">0</text></g><g class="a15 c1 node n14 p0" transform="translate(11.5 0.473586)"><g class="a14 c2 node n10 p0" transform="translate(0.0 2.38356)"><g class="a10 leaf node n3 p0 sample" transform="translate(-7.66667 0.850476)"><path class="edge" d="M 0 0 V -0.850476 H 7.66667" /><rect class="sym" height="6" width="6" x="-3" y="-3" /><text class="lab" transform="translate(0 11)">3</text></g><g class="a10 leaf node n4 p0 sample" transform="translate(7.66667 0.850476)"><path class="edge" d="M 0 0 V -0.850476 H -7.66667" /><rect class="sym" height="6" width="6" x="-3" y="-3" /><text class="lab" transform="translate(0 11)">4</text></g><path class="edge" d="M 0 0 V -2.38356 H 0.0" /><circle class="sym" cx="0" cy="0" r="3" /><text class="lab lft" transform="translate(-3 -7.0)">10</text></g><path class="edge" d="M 0 0 V -0.473586 H -11.5" /><circle class="sym" cx="0" cy="0" r="3" /><text class="lab rgt" transform="translate(3 -7.0)">14</text></g><path class="edge" d="M 0 0 V -10.0574 H 17.25" /><circle class="sym" cx="0" cy="0" r="3" /><text class="lab lft" transform="translate(-3 -7.0)">15</text></g><path class="edge" d="M 0 0 V -1.50868 H 16.2917" /><circle class="sym" cx="0" cy="0" r="3" /><text class="lab lft" transform="translate(-3 -7.0)">20</text></g><path class="edge" d="M 0 0 V -12.0749 H 0.0" /><circle class="sym" cx="0" cy="0" r="3" /><text class="lab lft" transform="translate(-3 -7.0)">22</text></g><path class="edge" d="M 0 0 V -11.14 H 32.1042" /><circle class="sym" cx="0" cy="0" r="3" /><text class="lab lft" transform="translate(-3 -7.0)">26</text></g><g class="a30 c2 node n29 p0" transform="translate(32.1042 5.75189)"><g class="a29 c2 node n28 p0" transform="translate(-13.4167 0.86768)"><g class="a28 c2 node n16 p0" transform="translate(-11.5 25.0294)"><g class="a16 leaf node n1 p0 sample" transform="translate(-7.66667 6.83967)"><path class="edge" d="M 0 0 V -6.83967 H 7.66667" /><rect class="sym" height="6" width="6" x="-3" y="-3" /><text class="lab" transform="translate(0 11)">1</text></g><g class="a16 c1 node n12 p0" transform="translate(7.66667 4.22223)"><g class="a12 leaf node n8 p0 sample" transform="translate(0.0 2.61745)"><path class="edge" d="M 0 0 V -2.61745 H 0.0" /><rect class="sym" height="6" width="6" x="-3" y="-3" /><text class="lab" transform="translate(0 11)">8</text></g><path class="edge" d="M 0 0 V -4.22223 H -7.66667" /><circle class="sym" cx="0" cy="0" r="3" /><text class="lab rgt" transform="translate(3 -7.0)">12</text></g><path class="edge" d="M 0 0 V -25.0294 H 11.5" /><circle class="sym" cx="0" cy="0" r="3" /><text class="lab lft" transform="translate(-3 -7.0)">16</text></g><g class="a28 c1 node n24 p0" transform="translate(11.5 16.4954)"><g class="a24 c1 node n17 p0" transform="translate(0.0 6.69565)"><g class="a17 leaf node n2 p0 sample" transform="translate(0.0 8.67802)"><path class="edge" d="M 0 0 V -8.67802 H 0.0" /><rect class="sym" height="6" width="6" x="-3" y="-3" /><text class="lab" transform="translate(0 11)">2</text></g><path class="edge" d="M 0 0 V -6.69565 H 0.0" /><circle class="sym" cx="0" cy="0" r="3" /><text class="lab lft" transform="translate(-3 -7.0)">17</text></g><path class="edge" d="M 0 0 V -16.4954 H -11.5" /><circle class="sym" cx="0" cy="0" r="3" /><text class="lab rgt" transform="translate(3 -7.0)">24</text></g><path class="edge" d="M 0 0 V -0.86768 H 13.4167" /><circle class="sym" cx="0" cy="0" r="3" /><text class="lab lft" transform="translate(-3 -7.0)">28</text></g><g class="a29 c1 node n19 p0" transform="translate(13.4167 19.5559)"><g class="a19 leaf node n5 p0 sample" transform="translate(0.0 13.1808)"><path class="edge" d="M 0 0 V -13.1808 H 0.0" /><rect class="sym" height="6" width="6" x="-3" y="-3" /><text class="lab" transform="translate(0 11)">5</text></g><path class="edge" d="M 0 0 V -19.5559 H -13.4167" /><circle class="sym" cx="0" cy="0" r="3" /><text class="lab rgt" transform="translate(3 -7.0)">19</text></g><path class="edge" d="M 0 0 V -5.75189 H -32.1042" /><circle class="sym" cx="0" cy="0" r="3" /><text class="lab rgt" transform="translate(3 -7.0)">29</text></g><path class="edge" d="M 0 0 V -17.8407 H 0.0" /><circle class="sym" cx="0" cy="0" r="3" /><text class="lab lft" transform="translate(-3 -7.0)">30</text></g><path class="edge" d="M 0 0 V -38.2707 H 30.4271" /><circle class="sym" cx="0" cy="0" r="3" /><text class="lab lft" transform="translate(-3 -7.0)">32</text></g><circle class="sym" cx="0" cy="0" r="3" /><text class="lab" transform="translate(0 -11)">33</text></g></g></g><g class="tree t5" transform="translate(986.667 0)"><g class="plotbox"><g class="c2 node n33 p0 root" transform="translate(135.24 26.8)"><g class="a33 c1 node n31 p0" transform="translate(30.4271 48.2297)"><g class="a31 c1 node n21 p0" transform="translate(0.0 31.8788)"><g class="a21 leaf node n6 p0 sample" transform="translate(0.0 14.4915)"><path class="edge" d="M 0 0 V -14.4915 H 0.0" /><rect class="sym" height="6" width="6" x="-3" y="-3" /><text class="lab" transform="translate(0 11)">6</text></g><path class="edge" d="M 0 0 V -31.8788 H 0.0" /><circle class="sym" cx="0" cy="0" r="3" /><text class="lab lft" transform="translate(-3 -7.0)">21</text></g><path class="edge" d="M 0 0 V -48.2297 H -30.4271" /><circle class="sym" cx="0" cy="0" r="3" /><text class="lab rgt" transform="translate(3 -7.0)">31</text></g><g class="a33 c2 node n32 p0" transform="translate(-30.4271 38.2707)"><g class="a32 c1 node n30 p0" transform="translate(32.1042 17.8407)"><g class="a30 c2 node n29 p0" transform="translate(0.0 5.75189)"><g class="a29 c2 node n28 p0" transform="translate(-13.4167 0.86768)"><g class="a28 c2 node n16 p0" transform="translate(-11.5 25.0294)"><g class="a16 leaf node n1 p0 sample" transform="translate(-7.66667 6.83967)"><path class="edge" d="M 0 0 V -6.83967 H 7.66667" /><rect class="sym" height="6" width="6" x="-3" y="-3" /><text class="lab" transform="translate(0 11)">1</text></g><g class="a16 c1 node n12 p0" transform="translate(7.66667 4.22223)"><g class="a12 leaf node n8 p0 sample" transform="translate(0.0 2.61745)"><path class="edge" d="M 0 0 V -2.61745 H 0.0" /><rect class="sym" height="6" width="6" x="-3" y="-3" /><text class="lab" transform="translate(0 11)">8</text></g><path class="edge" d="M 0 0 V -4.22223 H -7.66667" /><circle class="sym" cx="0" cy="0" r="3" /><text class="lab rgt" transform="translate(3 -7.0)">12</text></g><path class="edge" d="M 0 0 V -25.0294 H 11.5" /><circle class="sym" cx="0" cy="0" r="3" /><text class="lab lft" transform="translate(-3 -7.0)">16</text></g><g class="a28 c1 node n24 p0" transform="translate(11.5 16.4954)"><g class="a24 c1 node n17 p0" transform="translate(0.0 6.69565)"><g class="a17 leaf node n2 p0 sample" transform="translate(0.0 8.67802)"><path class="edge" d="M 0 0 V -8.67802 H 0.0" /><rect class="sym" height="6" width="6" x="-3" y="-3" /><text class="lab" transform="translate(0 11)">2</text></g><path class="edge" d="M 0 0 V -6.69565 H 0.0" /><circle class="sym" cx="0" cy="0" r="3" /><text class="lab lft" transform="translate(-3 -7.0)">17</text></g><path class="edge" d="M 0 0 V -16.4954 H -11.5" /><circle class="sym" cx="0" cy="0" r="3" /><text class="lab rgt" transform="translate(3 -7.0)">24</text></g><path class="edge" d="M 0 0 V -0.86768 H 13.4167" /><circle class="sym" cx="0" cy="0" r="3" /><text class="lab lft" transform="translate(-3 -7.0)">28</text></g><g class="a29 c1 node n19 p0" transform="translate(13.4167 19.5559)"><g class="a19 leaf node n5 p0 sample" transform="translate(0.0 13.1808)"><path class="edge" d="M 0 0 V -13.1808 H 0.0" /><rect class="sym" height="6" width="6" x="-3" y="-3" /><text class="lab" transform="translate(0 11)">5</text></g><path class="edge" d="M 0 0 V -19.5559 H -13.4167" /><circle class="sym" cx="0" cy="0" r="3" /><text class="lab rgt" transform="translate(3 -7.0)">19</text></g><path class="edge" d="M 0 0 V -5.75189 H 0.0" /><circle class="sym" cx="0" cy="0" r="3" /><text class="lab lft" transform="translate(-3 -7.0)">29</text></g><path class="edge" d="M 0 0 V -17.8407 H -32.1042" /><circle class="sym" cx="0" cy="0" r="3" /><text class="lab rgt" transform="translate(3 -7.0)">30</text></g><g class="a32 c1 node n27 p0" transform="translate(-32.1042 28.9807)"><g class="a27 c2 node n22 p0" transform="translate(0.0 12.0749)"><g class="a22 leaf node n7 p0 sample" transform="translate(16.2917 15.2737)"><path class="edge" d="M 0 0 V -15.2737 H -16.2917" /><rect class="sym" height="6" width="6" x="-3" y="-3" /><text class="lab" transform="translate(0 11)">7</text></g><g class="a22 c2 node n20 p0" transform="translate(-16.2917 1.50868)"><g class="a20 leaf node n9 p0 sample" transform="translate(17.25 13.765)"><path class="edge" d="M 0 0 V -13.765 H -17.25" /><rect class="sym" height="6" width="6" x="-3" y="-3" /><text class="lab" transform="translate(0 11)">9</text></g><g class="a20 c2 node n15 p0" transform="translate(-17.25 10.0574)"><g class="a15 leaf node n0 p0 sample" transform="translate(-11.5 3.70763)"><path class="edge" d="M 0 0 V -3.70763 H 11.5" /><rect class="sym" height="6" width="6" x="-3" y="-3" /><text class="lab" transform="translate(0 11)">0</text></g><g class="a15 c1 node n14 p0" transform="translate(11.5 0.473586)"><g class="a14 c2 node n10 p0" transform="translate(0.0 2.38356)"><g class="a10 leaf node n3 p0 sample" transform="translate(-7.66667 0.850476)"><path class="edge" d="M 0 0 V -0.850476 H 7.66667" /><rect class="sym" height="6" width="6" x="-3" y="-3" /><text class="lab" transform="translate(0 11)">3</text></g><g class="a10 leaf node n4 p0 sample" transform="translate(7.66667 0.850476)"><path class="edge" d="M 0 0 V -0.850476 H -7.66667" /><rect class="sym" height="6" width="6" x="-3" y="-3" /><text class="lab" transform="translate(0 11)">4</text></g><path class="edge" d="M 0 0 V -2.38356 H 0.0" /><circle class="sym" cx="0" cy="0" r="3" /><text class="lab lft" transform="translate(-3 -7.0)">10</text></g><path class="edge" d="M 0 0 V -0.473586 H -11.5" /><circle class="sym" cx="0" cy="0" r="3" /><text class="lab rgt" transform="translate(3 -7.0)">14</text></g><path class="edge" d="M 0 0 V -10.0574 H 17.25" /><circle class="sym" cx="0" cy="0" r="3" /><text class="lab lft" transform="translate(-3 -7.0)">15</text></g><path class="edge" d="M 0 0 V -1.50868 H 16.2917" /><circle class="sym" cx="0" cy="0" r="3" /><text class="lab lft" transform="translate(-3 -7.0)">20</text></g><path class="edge" d="M 0 0 V -12.0749 H 0.0" /><circle class="sym" cx="0" cy="0" r="3" /><text class="lab lft" transform="translate(-3 -7.0)">22</text></g><path class="edge" d="M 0 0 V -28.9807 H 32.1042" /><circle class="sym" cx="0" cy="0" r="3" /><text class="lab lft" transform="translate(-3 -7.0)">27</text></g><path class="edge" d="M 0 0 V -38.2707 H 30.4271" /><circle class="sym" cx="0" cy="0" r="3" /><text class="lab lft" transform="translate(-3 -7.0)">32</text></g><circle class="sym" cx="0" cy="0" r="3" /><text class="lab" transform="translate(0 -11)">33</text></g></g></g></g></g></svg>
