<svg baseProfile="full" height="200" version="1.1" width="1200" xmlns="http://www.w3.org/2000/svg" xmlns:ev="http://www.w3.org/2001/xml-events" xmlns:xlink="http://www.w3.org/1999/xlink"><defs><style type="text/css"><![CDATA[.background path {fill: #808080; fill-opacity: 0}.background path:nth-child(odd) {fill-opacity: .1}.axes {font-size: 14px}.x-axis .tick .lab {font-weight: bold; dominant-baseline: hanging}.axes, .tree {font-size: 14px; text-anchor: middle}.axes line, .edge {stroke: black; fill: none}.y-axis .grid {stroke: #FAFAFA}.node > .sym {fill: black; stroke: none}.site > .sym {stroke: black}.mut text {fill: red; font-style: italic}.mut.extra text {fill: hotpink}.mut line {fill: none; stroke: none}.mut .sym {fill: none; stroke: red}.mut.extra .sym {stroke: hotpink}.node .mut .sym {stroke-width: 1.5px}.tree text, .tree-sequence text {dominant-baseline: central}.plotbox .lab.lft {text-anchor: end}.plotbox .lab.rgt {text-anchor: start}]]></style></defs><g class="tree-sequence"><g class="background"><path d="M20,0 l193.333,0 l0,138.2 l-54.5287,25 l0,5 l-138.805,0 l0,-5 l0,-25 l0,-138.2z" /><path d="M213.333,0 l193.333,0 l0,138.2 l237.753,25 l0,5 l-485.615,0 l0,-5 l54.5287,-25 l0,-138.2z" /><path d="M406.667,0 l193.333,0 l0,138.2 l91.9995,25 l0,5 l-47.5799,0 l0,-5 l-237.753,-25 l0,-138.2z" /><path d="M600,0 l193.333,0 l0,138.2 l72.3713,25 l0,5 l-173.705,0 l0,-5 l-91.9995,-25 l0,-138.2z" /><path d="M793.333,0 l193.333,0 l0,138.2 l49.6187,25 l0,5 l-170.581,0 l0,-5 l-72.3713,-25 l0,-138.2z" /><path d="M986.667,0 l193.333,0 l0,138.2 l0,25 l0,5 l-143.715,0 l0,-5 l-49.6187,-25 l0,-138.2z" /></g><g class="axes"><g class="x-axis"><g transform="translate(600 200)"><text class="lab" text-anchor="middle" transform="translate(0 -11)">Genome position</text></g><line x1="20" x2="1180" y1="163.2" y2="163.2" /><g class="ticks"><g class="tick" transform="translate(20 163.2)"><line x1="0" x2="0" y1="0" y2="5" /><g transform="translate(0 6)"><text class="lab">0.00</text></g></g><g class="tick" transform="translate(158.805 163.2)"><line x1="0" x2="0" y1="0" y2="5" /><g transform="translate(0 6)"><text class="lab">119.66</text></g></g><g class="tick" transform="translate(644.42 163.2)"><line x1="0" x2="0" y1="0" y2="5" /><g transform="translate(0 6)"><text class="lab">538.29</text></g></g><g class="tick" transform="translate(692 163.2)"><line x1="0" x2="0" y1="0" y2="5" /><g transform="translate(0 6)"><text class="lab">579.31</text></g></g><g class="tick" transform="translate(865.705 163.2)"><line x1="0" x2="0" y1="0" y2="5" /><g transform="translate(0 6)"><text class="lab">729.06</text></g></g><g class="tick" transform="translate(1036.29 163.2)"><line x1="0" x2="0" y1="0" y2="5" /><g transform="translate(0 6)"><text class="lab">876.11</text></g></g><g class="tick" transform="translate(1180 163.2)"><line x1="0" x2="0" y1="0" y2="5" /><g transform="translate(0 6)"><text class="lab">1000.00</text></g></g></g></g></g><g class="plotbox trees"><g class="tree t0" transform="translate(20 0)"><g class="plotbox"><g class="c2 node n33 p0 root" transform="translate(105.771 26.8)"><g class="a33 c1 node n31 p0" transform="translate(45.5208 17.6012)"><g class="a31 c1 node n26 p0" transform="translate(0.0 32.4351)"><g class="a26 c2 node n25 p0" transform="translate(0.0 13.2862)"><g class="a25 c1 node n22 p0" transform="translate(-14.375 3.85046)"><g class="a22 c1 node n19 p0" transform="translate(0.0 6.18064)"><g class="a19 c2 node n18 p0" transform="translate(0.0 0.918994)"><g class="a18 leaf node n3 p0 sample" transform="translate(13.4167 20.3274)"><path class="edge" d="M 0 0 V -20.3274 H -13.4167" /><rect class="sym" height="6" width="6" x="-3" y="-3" /><text class="lab" transform="translate(0 11)">3</text></g><g class="a18 c2 node n15 p0" transform="translate(-13.4167 16.5153)"><g class="a15 leaf node n2 p0 sample" transform="translate(11.5 3.81207)"><path class="edge" d="M 0 0 V -3.81207 H -11.5" /><rect class="sym" height="6" width="6" x="-3" y="-3" /><text class="lab" transform="translate(0 11)">2</text></g><g class="a15 c2 node n14 p0" transform="translate(-11.5 0.871073)"><g class="a14 leaf node n1 p0 sample" transform="translate(-7.66667 2.94099)"><path class="edge" d="M 0 0 V -2.94099 H 7.66667" /><rect class="sym" height="6" width="6" x="-3" y="-3" /><text class="lab" transform="translate(0 11)">1</text></g><g class="a14 c1 node n11 p0" transform="translate(7.66667 2.54772)"><g class="a11 leaf node n4 p0 sample" transform="translate(0.0 0.39328)"><path class="edge" d="M 0 0 V -0.39328 H 0.0" /><rect class="sym" height="6" width="6" x="-3" y="-3" /><text class="lab" transform="translate(0 11)">4</text></g><path class="edge" d="M 0 0 V -2.54772 H -7.66667" /><circle class="sym" cx="0" cy="0" r="3" /><text class="lab rgt" transform="translate(3 -7.0)">11</text></g><path class="edge" d="M 0 0 V -0.871073 H 11.5" /><circle class="sym" cx="0" cy="0" r="3" /><text class="lab lft" transform="translate(-3 -7.0)">14</text></g><path class="edge" d="M 0 0 V -16.5153 H 13.4167" /><circle class="sym" cx="0" cy="0" r="3" /><text class="lab lft" transform="translate(-3 -7.0)">15</text></g><path class="edge" d="M 0 0 V -0.918994 H 0.0" /><circle class="sym" cx="0" cy="0" r="3" /><text class="lab lft" transform="translate(-3 -7.0)">18</text></g><path class="edge" d="M 0 0 V -6.18064 H 0.0" /><circle class="sym" cx="0" cy="0" r="3" /><text class="lab lft" transform="translate(-3 -7.0)">19</text></g><path class="edge" d="M 0 0 V -3.85046 H 14.375" /><circle class="sym" cx="0" cy="0" r="3" /><text class="lab lft" transform="translate(-3 -7.0)">22</text></g><g class="a25 c1 node n24 p0" transform="translate(14.375 1.02334)"><g class="a24 leaf node n7 p0 sample" transform="translate(0.0 30.2542)"><path class="edge" d="M 0 0 V -30.2542 H 0.0" /><rect class="sym" height="6" width="6" x="-3" y="-3" /><text class="lab" transform="translate(0 11)">7</text></g><path class="edge" d="M 0 0 V -1.02334 H -14.375" /><circle class="sym" cx="0" cy="0" r="3" /><text class="lab rgt" transform="translate(3 -7.0)">24</text></g><path class="edge" d="M 0 0 V -13.2862 H 0.0" /><circle class="sym" cx="0" cy="0" r="3" /><text class="lab lft" transform="translate(-3 -7.0)">25</text></g><path class="edge" d="M 0 0 V -32.4351 H 0.0" /><circle class="sym" cx="0" cy="0" r="3" /><text class="lab lft" transform="translate(-3 -7.0)">26</text></g><path class="edge" d="M 0 0 V -17.6012 H -45.5208" /><circle class="sym" cx="0" cy="0" r="3" /><text class="lab rgt" transform="translate(3 -7.0)">31</text></g><g class="a33 c2 node n32 p0" transform="translate(-45.5208 14.5204)"><g class="a32 c1 node n21 p0" transform="translate(21.0833 56.7335)"><g class="a21 c2 node n10 p0" transform="translate(0.0 23.1961)"><g class="a10 leaf node n5 p0 sample" transform="translate(-7.66667 0.150102)"><path class="edge" d="M 0 0 V -0.150102 H 7.66667" /><rect class="sym" height="6" width="6" x="-3" y="-3" /><text class="lab" transform="translate(0 11)">5</text></g><g class="a10 leaf node n8 p0 sample" transform="translate(7.66667 0.150102)"><path class="edge" d="M 0 0 V -0.150102 H -7.66667" /><rect class="sym" height="6" width="6" x="-3" y="-3" /><text class="lab" transform="translate(0 11)">8</text></g><path class="edge" d="M 0 0 V -23.1961 H 0.0" /><circle class="sym" cx="0" cy="0" r="3" /><text class="lab lft" transform="translate(-3 -7.0)">10</text></g><path class="edge" d="M 0 0 V -56.7335 H -21.0833" /><circle class="sym" cx="0" cy="0" r="3" /><text class="lab rgt" transform="translate(3 -7.0)">21</text></g><g class="a32 c1 node n29 p0" transform="translate(-21.0833 12.6888)"><g class="a29 c1 node n28 p0" transform="translate(0.0 20.4017)"><g class="a28 c2 node n17 p0" transform="translate(0.0 33.4311)"><g class="a17 c1 node n13 p0" transform="translate(-11.5 11.9697)"><g class="a13 leaf node n0 p0 sample" transform="translate(0.0 1.58831)"><path class="edge" d="M 0 0 V -1.58831 H 0.0" /><rect class="sym" height="6" width="6" x="-3" y="-3" /><text class="lab" transform="translate(0 11)">0</text></g><path class="edge" d="M 0 0 V -11.9697 H 11.5" /><circle class="sym" cx="0" cy="0" r="3" /><text class="lab lft" transform="translate(-3 -7.0)">13</text></g><g class="a17 c2 node n16 p0" transform="translate(11.5 0.274759)"><g class="a16 leaf node n6 p0 sample" transform="translate(-7.66667 13.2833)"><path class="edge" d="M 0 0 V -13.2833 H 7.66667" /><rect class="sym" height="6" width="6" x="-3" y="-3" /><text class="lab" transform="translate(0 11)">6</text></g><g class="a16 leaf node n9 p0 sample" transform="translate(7.66667 13.2833)"><path class="edge" d="M 0 0 V -13.2833 H -7.66667" /><rect class="sym" height="6" width="6" x="-3" y="-3" /><text class="lab" transform="translate(0 11)">9</text></g><path class="edge" d="M 0 0 V -0.274759 H -11.5" /><circle class="sym" cx="0" cy="0" r="3" /><text class="lab rgt" transform="translate(3 -7.0)">16</text></g><path class="edge" d="M 0 0 V -33.4311 H 0.0" /><circle class="sym" cx="0" cy="0" r="3" /><text class="lab lft" transform="translate(-3 -7.0)">17</text></g><path class="edge" d="M 0 0 V -20.4017 H 0.0" /><circle class="sym" cx="0" cy="0" r="3" /><text class="lab lft" transform="translate(-3 -7.0)">28</text></g><path class="edge" d="M 0 0 V -12.6888 H 21.0833" /><circle class="sym" cx="0" cy="0" r="3" /><text class="lab lft" transform="translate(-3 -7.0)">29</text></g><path class="edge" d="M 0 0 V -14.5204 H 45.5208" /><circle class="sym" cx="0" cy="0" r="3" /><text class="lab lft" transform="translate(-3 -7.0)">32</text></g><circle class="sym" cx="0" cy="0" r="3" /><text class="lab" transform="translate(0 -11)">33</text></g></g></g><g class="tree t1" transform="translate(213.333 0)"><g class="plotbox"><g class="c2 node n33 p0 root" transform="translate(112.958 26.8)"><g class="a33 c1 node n31 p0" transform="translate(39.2917 17.6012)"><g class="a31 c1 node n26 p0" transform="translate(0.0 32.4351)"><g class="a26 c2 node n25 p0" transform="translate(0.0 13.2862)"><g class="a25 c1 node n22 p0" transform="translate(-13.4167 3.85046)"><g class="a22 c1 node n19 p0" transform="translate(0.0 6.18064)"><g class="a19 c2 node n18 p0" transform="translate(0.0 0.918994)"><g class="a18 leaf node n3 p0 sample" transform="translate(11.5 20.3274)"><path class="edge" d="M 0 0 V -20.3274 H -11.5" /><rect class="sym" height="6" width="6" x="-3" y="-3" /><text class="lab" transform="translate(0 11)">3</text></g><g class="a18 c2 node n15 p0" transform="translate(-11.5 16.5153)"><g class="a15 leaf node n2 p0 sample" transform="translate(7.66667 3.81207)"><path class="edge" d="M 0 0 V -3.81207 H -7.66667" /><rect class="sym" height="6" width="6" x="-3" y="-3" /><text class="lab" transform="translate(0 11)">2</text></g><g class="a15 c1 node n14 p0" transform="translate(-7.66667 0.871073)"><g class="a14 leaf node n1 p0 sample" transform="translate(0.0 2.94099)"><path class="edge" d="M 0 0 V -2.94099 H 0.0" /><rect class="sym" height="6" width="6" x="-3" y="-3" /><text class="lab" transform="translate(0 11)">1</text></g><path class="edge" d="M 0 0 V -0.871073 H 7.66667" /><circle class="sym" cx="0" cy="0" r="3" /><text class="lab lft" transform="translate(-3 -7.0)">14</text></g><path class="edge" d="M 0 0 V -16.5153 H 11.5" /><circle class="sym" cx="0" cy="0" r="3" /><text class="lab lft" transform="translate(-3 -7.0)">15</text></g><path class="edge" d="M 0 0 V -0.918994 H 0.0" /><circle class="sym" cx="0" cy="0" r="3" /><text class="lab lft" transform="translate(-3 -7.0)">18</text></g><path class="edge" d="M 0 0 V -6.18064 H 0.0" /><circle class="sym" cx="0" cy="0" r="3" /><text class="lab lft" transform="translate(-3 -7.0)">19</text></g><path class="edge" d="M 0 0 V -3.85046 H 13.4167" /><circle class="sym" cx="0" cy="0" r="3" /><text class="lab lft" transform="translate(-3 -7.0)">22</text></g><g class="a25 c1 node n24 p0" transform="translate(13.4167 1.02334)"><g class="a24 leaf node n7 p0 sample" transform="translate(0.0 30.2542)"><path class="edge" d="M 0 0 V -30.2542 H 0.0" /><rect class="sym" height="6" width="6" x="-3" y="-3" /><text class="lab" transform="translate(0 11)">7</text></g><path class="edge" d="M 0 0 V -1.02334 H -13.4167" /><circle class="sym" cx="0" cy="0" r="3" /><text class="lab rgt" transform="translate(3 -7.0)">24</text></g><path class="edge" d="M 0 0 V -13.2862 H 0.0" /><circle class="sym" cx="0" cy="0" r="3" /><text class="lab lft" transform="translate(-3 -7.0)">25</text></g><path class="edge" d="M 0 0 V -32.4351 H 0.0" /><circle class="sym" cx="0" cy="0" r="3" /><text class="lab lft" transform="translate(-3 -7.0)">26</text></g><path class="edge" d="M 0 0 V -17.6012 H -39.2917" /><circle class="sym" cx="0" cy="0" r="3" /><text class="lab rgt" transform="translate(3 -7.0)">31</text></g><g class="a33 c2 node n32 p0" transform="translate(-39.2917 14.5204)"><g class="a32 c1 node n21 p0" transform="translate(23 56.7335)"><g class="a21 c2 node n10 p0" transform="translate(0.0 23.1961)"><g class="a10 leaf node n5 p0 sample" transform="translate(-7.66667 0.150102)"><path class="edge" d="M 0 0 V -0.150102 H 7.66667" /><rect class="sym" height="6" width="6" x="-3" y="-3" /><text class="lab" transform="translate(0 11)">5</text></g><g class="a10 leaf node n8 p0 sample" transform="translate(7.66667 0.150102)"><path class="edge" d="M 0 0 V -0.150102 H -7.66667" /><rect class="sym" height="6" width="6" x="-3" y="-3" /><text class="lab" transform="translate(0 11)">8</text></g><path class="edge" d="M 0 0 V -23.1961 H 0.0" /><circle class="sym" cx="0" cy="0" r="3" /><text class="lab lft" transform="translate(-3 -7.0)">10</text></g><path class="edge" d="M 0 0 V -56.7335 H -23" /><circle class="sym" cx="0" cy="0" r="3" /><text class="lab rgt" transform="translate(3 -7.0)">21</text></g><g class="a32 c1 node n29 p0" transform="translate(-23 12.6888)"><g class="a29 c1 node n28 p0" transform="translate(0.0 20.4017)"><g class="a28 c2 node n17 p0" transform="translate(0.0 33.4311)"><g class="a17 c2 node n13 p0" transform="translate(-15.3333 11.9697)"><g class="a13 leaf node n0 p0 sample" transform="translate(-7.66667 1.58831)"><path class="edge" d="M 0 0 V -1.58831 H 7.66667" /><rect class="sym" height="6" width="6" x="-3" y="-3" /><text class="lab" transform="translate(0 11)">0</text></g><g class="a13 c1 node n12 p0" transform="translate(7.66667 1.19503)"><g class="a12 leaf node n4 p0 sample" transform="translate(0.0 0.39328)"><path class="edge" d="M 0 0 V -0.39328 H 0.0" /><rect class="sym" height="6" width="6" x="-3" y="-3" /><text class="lab" transform="translate(0 11)">4</text></g><path class="edge" d="M 0 0 V -1.19503 H -7.66667" /><circle class="sym" cx="0" cy="0" r="3" /><text class="lab rgt" transform="translate(3 -7.0)">12</text></g><path class="edge" d="M 0 0 V -11.9697 H 15.3333" /><circle class="sym" cx="0" cy="0" r="3" /><text class="lab lft" transform="translate(-3 -7.0)">13</text></g><g class="a17 c2 node n16 p0" transform="translate(15.3333 0.274759)"><g class="a16 leaf node n6 p0 sample" transform="translate(-7.66667 13.2833)"><path class="edge" d="M 0 0 V -13.2833 H 7.66667" /><rect class="sym" height="6" width="6" x="-3" y="-3" /><text class="lab" transform="translate(0 11)">6</text></g><g class="a16 leaf node n9 p0 sample" transform="translate(7.66667 13.2833)"><path class="edge" d="M 0 0 V -13.2833 H -7.66667" /><rect class="sym" height="6" width="6" x="-3" y="-3" /><text class="lab" transform="translate(0 11)">9</text></g><path class="edge" d="M 0 0 V -0.274759 H -15.3333" /><circle class="sym" cx="0" cy="0" r="3" /><text class="lab rgt" transform="translate(3 -7.0)">16</text></g><path class="edge" d="M 0 0 V -33.4311 H 0.0" /><circle class="sym" cx="0" cy="0" r="3" /><text class="lab lft" transform="translate(-3 -7.0)">17</text></g><path class="edge" d="M 0 0 V -20.4017 H 0.0" /><circle class="sym" cx="0" cy="0" r="3" /><text class="lab lft" transform="translate(-3 -7.0)">28</text></g><path class="edge" d="M 0 0 V -12.6888 H 23" /><circle class="sym" cx="0" cy="0" r="3" /><text class="lab lft" transform="translate(-3 -7.0)">29</text></g><path class="edge" d="M 0 0 V -14.5204 H 39.2917" /><circle class="sym" cx="0" cy="0" r="3" /><text class="lab lft" transform="translate(-3 -7.0)">32</text></g><circle class="sym" cx="0" cy="0" r="3" /><text class="lab" transform="translate(0 -11)">33</text></g></g></g><g class="tree t2" transform="translate(406.667 0)"><g class="plotbox"><g class="c2 node n33 p0 root" transform="translate(122.062 26.8)"><g class="a33 c2 node n31 p0" transform="translate(-35.9375 17.6012)"><g class="a31 c1 node n26 p0" transform="translate(35.4583 32.4351)"><g class="a26 c2 node n25 p0" transform="translate(0.0 13.2862)"><g class="a25 c1 node n22 p0" transform="translate(-13.4167 3.85046)"><g class="a22 c1 node n19 p0" transform="translate(0.0 6.18064)"><g class="a19 c2 node n18 p0" transform="translate(0.0 0.918994)"><g class="a18 leaf node n3 p0 sample" transform="translate(11.5 20.3274)"><path class="edge" d="M 0 0 V -20.3274 H -11.5" /><rect class="sym" height="6" width="6" x="-3" y="-3" /><text class="lab" transform="translate(0 11)">3</text></g><g class="a18 c2 node n15 p0" transform="translate(-11.5 16.5153)"><g class="a15 leaf node n2 p0 sample" transform="translate(7.66667 3.81207)"><path class="edge" d="M 0 0 V -3.81207 H -7.66667" /><rect class="sym" height="6" width="6" x="-3" y="-3" /><text class="lab" transform="translate(0 11)">2</text></g><g class="a15 c1 node n14 p0" transform="translate(-7.66667 0.871073)"><g class="a14 leaf node n1 p0 sample" transform="translate(0.0 2.94099)"><path class="edge" d="M 0 0 V -2.94099 H 0.0" /><rect class="sym" height="6" width="6" x="-3" y="-3" /><text class="lab" transform="translate(0 11)">1</text></g><path class="edge" d="M 0 0 V -0.871073 H 7.66667" /><circle class="sym" cx="0" cy="0" r="3" /><text class="lab lft" transform="translate(-3 -7.0)">14</text></g><path class="edge" d="M 0 0 V -16.5153 H 11.5" /><circle class="sym" cx="0" cy="0" r="3" /><text class="lab lft" transform="translate(-3 -7.0)">15</text></g><path class="edge" d="M 0 0 V -0.918994 H 0.0" /><circle class="sym" cx="0" cy="0" r="3" /><text class="lab lft" transform="translate(-3 -7.0)">18</text></g><path class="edge" d="M 0 0 V -6.18064 H 0.0" /><circle class="sym" cx="0" cy="0" r="3" /><text class="lab lft" transform="translate(-3 -7.0)">19</text></g><path class="edge" d="M 0 0 V -3.85046 H 13.4167" /><circle class="sym" cx="0" cy="0" r="3" /><text class="lab lft" transform="translate(-3 -7.0)">22</text></g><g class="a25 c1 node n24 p0" transform="translate(13.4167 1.02334)"><g class="a24 leaf node n7 p0 sample" transform="translate(0.0 30.2542)"><path class="edge" d="M 0 0 V -30.2542 H 0.0" /><rect class="sym" height="6" width="6" x="-3" y="-3" /><text class="lab" transform="translate(0 11)">7</text></g><path class="edge" d="M 0 0 V -1.02334 H -13.4167" /><circle class="sym" cx="0" cy="0" r="3" /><text class="lab rgt" transform="translate(3 -7.0)">24</text></g><path class="edge" d="M 0 0 V -13.2862 H 0.0" /><circle class="sym" cx="0" cy="0" r="3" /><text class="lab lft" transform="translate(-3 -7.0)">25</text></g><path class="edge" d="M 0 0 V -32.4351 H -35.4583" /><circle class="sym" cx="0" cy="0" r="3" /><text class="lab rgt" transform="translate(3 -7.0)">26</text></g><g class="a31 c1 node n30 p0" transform="translate(-35.4583 9.60795)"><g class="a30 c1 node n28 p0" transform="translate(0.0 20.4017)"><g class="a28 c2 node n17 p0" transform="translate(0.0 33.4311)"><g class="a17 c2 node n13 p0" transform="translate(-15.3333 11.9697)"><g class="a13 leaf node n0 p0 sample" transform="translate(-7.66667 1.58831)"><path class="edge" d="M 0 0 V -1.58831 H 7.66667" /><rect class="sym" height="6" width="6" x="-3" y="-3" /><text class="lab" transform="translate(0 11)">0</text></g><g class="a13 c1 node n12 p0" transform="translate(7.66667 1.19503)"><g class="a12 leaf node n4 p0 sample" transform="translate(0.0 0.39328)"><path class="edge" d="M 0 0 V -0.39328 H 0.0" /><rect class="sym" height="6" width="6" x="-3" y="-3" /><text class="lab" transform="translate(0 11)">4</text></g><path class="edge" d="M 0 0 V -1.19503 H -7.66667" /><circle class="sym" cx="0" cy="0" r="3" /><text class="lab rgt" transform="translate(3 -7.0)">12</text></g><path class="edge" d="M 0 0 V -11.9697 H 15.3333" /><circle class="sym" cx="0" cy="0" r="3" /><text class="lab lft" transform="translate(-3 -7.0)">13</text></g><g class="a17 c2 node n16 p0" transform="translate(15.3333 0.274759)"><g class="a16 leaf node n6 p0 sample" transform="translate(-7.66667 13.2833)"><path class="edge" d="M 0 0 V -13.2833 H 7.66667" /><rect class="sym" height="6" width="6" x="-3" y="-3" /><text class="lab" transform="translate(0 11)">6</text></g><g class="a16 leaf node n9 p0 sample" transform="translate(7.66667 13.2833)"><path class="edge" d="M 0 0 V -13.2833 H -7.66667" /><rect class="sym" height="6" width="6" x="-3" y="-3" /><text class="lab" transform="translate(0 11)">9</text></g><path class="edge" d="M 0 0 V -0.274759 H -15.3333" /><circle class="sym" cx="0" cy="0" r="3" /><text class="lab rgt" transform="translate(3 -7.0)">16</text></g><path class="edge" d="M 0 0 V -33.4311 H 0.0" /><circle class="sym" cx="0" cy="0" r="3" /><text class="lab lft" transform="translate(-3 -7.0)">17</text></g><path class="edge" d="M 0 0 V -20.4017 H 0.0" /><circle class="sym" cx="0" cy="0" r="3" /><text class="lab lft" transform="translate(-3 -7.0)">28</text></g><path class="edge" d="M 0 0 V -9.60795 H 35.4583" /><circle class="sym" cx="0" cy="0" r="3" /><text class="lab lft" transform="translate(-3 -7.0)">30</text></g><path class="edge" d="M 0 0 V -17.6012 H 35.9375" /><circle class="sym" cx="0" cy="0" r="3" /><text class="lab lft" transform="translate(-3 -7.0)">31</text></g><g class="a33 c1 node n32 p0" transform="translate(35.9375 14.5204)"><g class="a32 c1 node n21 p0" transform="translate(0.0 56.7335)"><g class="a21 c2 node n10 p0" transform="translate(0.0 23.1961)"><g class="a10 leaf node n5 p0 sample" transform="translate(-7.66667 0.150102)"><path class="edge" d="M 0 0 V -0.150102 H 7.66667" /><rect class="sym" height="6" width="6" x="-3" y="-3" /><text class="lab" transform="translate(0 11)">5</text></g><g class="a10 leaf node n8 p0 sample" transform="translate(7.66667 0.150102)"><path class="edge" d="M 0 0 V -0.150102 H -7.66667" /><rect class="sym" height="6" width="6" x="-3" y="-3" /><text class="lab" transform="translate(0 11)">8</text></g><path class="edge" d="M 0 0 V -23.1961 H 0.0" /><circle class="sym" cx="0" cy="0" r="3" /><text class="lab lft" transform="translate(-3 -7.0)">10</text></g><path class="edge" d="M 0 0 V -56.7335 H 0.0" /><circle class="sym" cx="0" cy="0" r="3" /><text class="lab lft" transform="translate(-3 -7.0)">21</text></g><path class="edge" d="M 0 0 V -14.5204 H -35.9375" /><circle class="sym" cx="0" cy="0" r="3" /><text class="lab rgt" transform="translate(3 -7.0)">32</text></g><circle class="sym" cx="0" cy="0" r="3" /><text class="lab" transform="translate(0 -11)">33</text></g></g></g><g class="tree t3" transform="translate(600 0)"><g class="plotbox"><g class="c2 node n33 p0 root" transform="translate(122.062 26.8)"><g class="a33 c2 node n31 p0" transform="translate(-35.9375 17.6012)"><g class="a31 c1 node n26 p0" transform="translate(35.4583 32.4351)"><g class="a26 c1 node n25 p0" transform="translate(0.0 13.2862)"><g class="a25 c2 node n24 p0" transform="translate(0.0 1.02334)"><g class="a24 leaf node n7 p0 sample" transform="translate(13.4167 30.2542)"><path class="edge" d="M 0 0 V -30.2542 H -13.4167" /><rect class="sym" height="6" width="6" x="-3" y="-3" /><text class="lab" transform="translate(0 11)">7</text></g><g class="a24 c1 node n23 p0" transform="translate(-13.4167 2.82712)"><g class="a23 c1 node n19 p0" transform="translate(0.0 6.18064)"><g class="a19 c2 node n18 p0" transform="translate(0.0 0.918994)"><g class="a18 leaf node n3 p0 sample" transform="translate(11.5 20.3274)"><path class="edge" d="M 0 0 V -20.3274 H -11.5" /><rect class="sym" height="6" width="6" x="-3" y="-3" /><text class="lab" transform="translate(0 11)">3</text></g><g class="a18 c2 node n15 p0" transform="translate(-11.5 16.5153)"><g class="a15 leaf node n2 p0 sample" transform="translate(7.66667 3.81207)"><path class="edge" d="M 0 0 V -3.81207 H -7.66667" /><rect class="sym" height="6" width="6" x="-3" y="-3" /><text class="lab" transform="translate(0 11)">2</text></g><g class="a15 c1 node n14 p0" transform="translate(-7.66667 0.871073)"><g class="a14 leaf node n1 p0 sample" transform="translate(0.0 2.94099)"><path class="edge" d="M 0 0 V -2.94099 H 0.0" /><rect class="sym" height="6" width="6" x="-3" y="-3" /><text class="lab" transform="translate(0 11)">1</text></g><path class="edge" d="M 0 0 V -0.871073 H 7.66667" /><circle class="sym" cx="0" cy="0" r="3" /><text class="lab lft" transform="translate(-3 -7.0)">14</text></g><path class="edge" d="M 0 0 V -16.5153 H 11.5" /><circle class="sym" cx="0" cy="0" r="3" /><text class="lab lft" transform="translate(-3 -7.0)">15</text></g><path class="edge" d="M 0 0 V -0.918994 H 0.0" /><circle class="sym" cx="0" cy="0" r="3" /><text class="lab lft" transform="translate(-3 -7.0)">18</text></g><path class="edge" d="M 0 0 V -6.18064 H 0.0" /><circle class="sym" cx="0" cy="0" r="3" /><text class="lab lft" transform="translate(-3 -7.0)">19</text></g><path class="edge" d="M 0 0 V -2.82712 H 13.4167" /><circle class="sym" cx="0" cy="0" r="3" /><text class="lab lft" transform="translate(-3 -7.0)">23</text></g><path class="edge" d="M 0 0 V -1.02334 H 0.0" /><circle class="sym" cx="0" cy="0" r="3" /><text class="lab lft" transform="translate(-3 -7.0)">24</text></g><path class="edge" d="M 0 0 V -13.2862 H 0.0" /><circle class="sym" cx="0" cy="0" r="3" /><text class="lab lft" transform="translate(-3 -7.0)">25</text></g><path class="edge" d="M 0 0 V -32.4351 H -35.4583" /><circle class="sym" cx="0" cy="0" r="3" /><text class="lab rgt" transform="translate(3 -7.0)">26</text></g><g class="a31 c1 node n30 p0" transform="translate(-35.4583 9.60795)"><g class="a30 c1 node n28 p0" transform="translate(0.0 20.4017)"><g class="a28 c2 node n17 p0" transform="translate(0.0 33.4311)"><g class="a17 c2 node n13 p0" transform="translate(-15.3333 11.9697)"><g class="a13 leaf node n0 p0 sample" transform="translate(-7.66667 1.58831)"><path class="edge" d="M 0 0 V -1.58831 H 7.66667" /><rect class="sym" height="6" width="6" x="-3" y="-3" /><text class="lab" transform="translate(0 11)">0</text></g><g class="a13 c1 node n12 p0" transform="translate(7.66667 1.19503)"><g class="a12 leaf node n4 p0 sample" transform="translate(0.0 0.39328)"><path class="edge" d="M 0 0 V -0.39328 H 0.0" /><rect class="sym" height="6" width="6" x="-3" y="-3" /><text class="lab" transform="translate(0 11)">4</text></g><path class="edge" d="M 0 0 V -1.19503 H -7.66667" /><circle class="sym" cx="0" cy="0" r="3" /><text class="lab rgt" transform="translate(3 -7.0)">12</text></g><path class="edge" d="M 0 0 V -11.9697 H 15.3333" /><circle class="sym" cx="0" cy="0" r="3" /><text class="lab lft" transform="translate(-3 -7.0)">13</text></g><g class="a17 c2 node n16 p0" transform="translate(15.3333 0.274759)"><g class="a16 leaf node n6 p0 sample" transform="translate(-7.66667 13.2833)"><path class="edge" d="M 0 0 V -13.2833 H 7.66667" /><rect class="sym" height="6" width="6" x="-3" y="-3" /><text class="lab" transform="translate(0 11)">6</text></g><g class="a16 leaf node n9 p0 sample" transform="translate(7.66667 13.2833)"><path class="edge" d="M 0 0 V -13.2833 H -7.66667" /><rect class="sym" height="6" width="6" x="-3" y="-3" /><text class="lab" transform="translate(0 11)">9</text></g><path class="edge" d="M 0 0 V -0.274759 H -15.3333" /><circle class="sym" cx="0" cy="0" r="3" /><text class="lab rgt" transform="translate(3 -7.0)">16</text></g><path class="edge" d="M 0 0 V -33.4311 H 0.0" /><circle class="sym" cx="0" cy="0" r="3" /><text class="lab lft" transform="translate(-3 -7.0)">17</text></g><path class="edge" d="M 0 0 V -20.4017 H 0.0" /><circle class="sym" cx="0" cy="0" r="3" /><text class="lab lft" transform="translate(-3 -7.0)">28</text></g><path class="edge" d="M 0 0 V -9.60795 H 35.4583" /><circle class="sym" cx="0" cy="0" r="3" /><text class="lab lft" transform="translate(-3 -7.0)">30</text></g><path class="edge" d="M 0 0 V -17.6012 H 35.9375" /><circle class="sym" cx="0" cy="0" r="3" /><text class="lab lft" transform="translate(-3 -7.0)">31</text></g><g class="a33 c1 node n32 p0" transform="translate(35.9375 14.5204)"><g class="a32 c1 node n21 p0" transform="translate(0.0 56.7335)"><g class="a21 c2 node n10 p0" transform="translate(0.0 23.1961)"><g class="a10 leaf node n5 p0 sample" transform="translate(-7.66667 0.150102)"><path class="edge" d="M 0 0 V -0.150102 H 7.66667" /><rect class="sym" height="6" width="6" x="-3" y="-3" /><text class="lab" transform="translate(0 11)">5</text></g><g class="a10 leaf node n8 p0 sample" transform="translate(7.66667 0.150102)"><path class="edge" d="M 0 0 V -0.150102 H -7.66667" /><rect class="sym" height="6" width="6" x="-3" y="-3" /><text class="lab" transform="translate(0 11)">8</text></g><path class="edge" d="M 0 0 V -23.1961 H 0.0" /><circle class="sym" cx="0" cy="0" r="3" /><text class="lab lft" transform="translate(-3 -7.0)">10</text></g><path class="edge" d="M 0 0 V -56.7335 H 0.0" /><circle class="sym" cx="0" cy="0" r="3" /><text class="lab lft" transform="translate(-3 -7.0)">21</text></g><path class="edge" d="M 0 0 V -14.5204 H -35.9375" /><circle class="sym" cx="0" cy="0" r="3" /><text class="lab rgt" transform="translate(3 -7.0)">32</text></g><circle class="sym" cx="0" cy="0" r="3" /><text class="lab" transform="translate(0 -11)">33</text></g></g></g><g class="tree t4" transform="translate(793.333 0)"><g class="plotbox"><g class="c2 node n33 p0 root" transform="translate(122.062 26.8)"><g class="a33 c1 node n31 p0" transform="translate(-35.9375 17.6012)"><g class="a31 c1 node n30 p0" transform="translate(0.0 9.60795)"><g class="a30 c2 node n28 p0" transform="translate(0.0 20.4017)"><g class="a28 c2 node n17 p0" transform="translate(-35.4583 33.4311)"><g class="a17 c2 node n13 p0" transform="translate(-15.3333 11.9697)"><g class="a13 leaf node n0 p0 sample" transform="translate(-7.66667 1.58831)"><path class="edge" d="M 0 0 V -1.58831 H 7.66667" /><rect class="sym" height="6" width="6" x="-3" y="-3" /><text class="lab" transform="translate(0 11)">0</text></g><g class="a13 c1 node n12 p0" transform="translate(7.66667 1.19503)"><g class="a12 leaf node n4 p0 sample" transform="translate(0.0 0.39328)"><path class="edge" d="M 0 0 V -0.39328 H 0.0" /><rect class="sym" height="6" width="6" x="-3" y="-3" /><text class="lab" transform="translate(0 11)">4</text></g><path class="edge" d="M 0 0 V -1.19503 H -7.66667" /><circle class="sym" cx="0" cy="0" r="3" /><text class="lab rgt" transform="translate(3 -7.0)">12</text></g><path class="edge" d="M 0 0 V -11.9697 H 15.3333" /><circle class="sym" cx="0" cy="0" r="3" /><text class="lab lft" transform="translate(-3 -7.0)">13</text></g><g class="a17 c2 node n16 p0" transform="translate(15.3333 0.274759)"><g class="a16 leaf node n6 p0 sample" transform="translate(-7.66667 13.2833)"><path class="edge" d="M 0 0 V -13.2833 H 7.66667" /><rect class="sym" height="6" width="6" x="-3" y="-3" /><text class="lab" transform="translate(0 11)">6</text></g><g class="a16 leaf node n9 p0 sample" transform="translate(7.66667 13.2833)"><path class="edge" d="M 0 0 V -13.2833 H -7.66667" /><rect class="sym" height="6" width="6" x="-3" y="-3" /><text class="lab" transform="translate(0 11)">9</text></g><path class="edge" d="M 0 0 V -0.274759 H -15.3333" /><circle class="sym" cx="0" cy="0" r="3" /><text class="lab rgt" transform="translate(3 -7.0)">16</text></g><path class="edge" d="M 0 0 V -33.4311 H 35.4583" /><circle class="sym" cx="0" cy="0" r="3" /><text class="lab lft" transform="translate(-3 -7.0)">17</text></g><g class="a28 c1 node n27 p0" transform="translate(35.4583 2.42542)"><g class="a27 c1 node n25 p0" transform="translate(0.0 13.2862)"><g class="a25 c2 node n24 p0" transform="translate(0.0 1.02334)"><g class="a24 leaf node n7 p0 sample" transform="translate(13.4167 30.2542)"><path class="edge" d="M 0 0 V -30.2542 H -13.4167" /><rect class="sym" height="6" width="6" x="-3" y="-3" /><text class="lab" transform="translate(0 11)">7</text></g><g class="a24 c1 node n23 p0" transform="translate(-13.4167 2.82712)"><g class="a23 c1 node n19 p0" transform="translate(0.0 6.18064)"><g class="a19 c2 node n18 p0" transform="translate(0.0 0.918994)"><g class="a18 leaf node n3 p0 sample" transform="translate(11.5 20.3274)"><path class="edge" d="M 0 0 V -20.3274 H -11.5" /><rect class="sym" height="6" width="6" x="-3" y="-3" /><text class="lab" transform="translate(0 11)">3</text></g><g class="a18 c2 node n15 p0" transform="translate(-11.5 16.5153)"><g class="a15 leaf node n2 p0 sample" transform="translate(7.66667 3.81207)"><path class="edge" d="M 0 0 V -3.81207 H -7.66667" /><rect class="sym" height="6" width="6" x="-3" y="-3" /><text class="lab" transform="translate(0 11)">2</text></g><g class="a15 c1 node n14 p0" transform="translate(-7.66667 0.871073)"><g class="a14 leaf node n1 p0 sample" transform="translate(0.0 2.94099)"><path class="edge" d="M 0 0 V -2.94099 H 0.0" /><rect class="sym" height="6" width="6" x="-3" y="-3" /><text class="lab" transform="translate(0 11)">1</text></g><path class="edge" d="M 0 0 V -0.871073 H 7.66667" /><circle class="sym" cx="0" cy="0" r="3" /><text class="lab lft" transform="translate(-3 -7.0)">14</text></g><path class="edge" d="M 0 0 V -16.5153 H 11.5" /><circle class="sym" cx="0" cy="0" r="3" /><text class="lab lft" transform="translate(-3 -7.0)">15</text></g><path class="edge" d="M 0 0 V -0.918994 H 0.0" /><circle class="sym" cx="0" cy="0" r="3" /><text class="lab lft" transform="translate(-3 -7.0)">18</text></g><path class="edge" d="M 0 0 V -6.18064 H 0.0" /><circle class="sym" cx="0" cy="0" r="3" /><text class="lab lft" transform="translate(-3 -7.0)">19</text></g><path class="edge" d="M 0 0 V -2.82712 H 13.4167" /><circle class="sym" cx="0" cy="0" r="3" /><text class="lab lft" transform="translate(-3 -7.0)">23</text></g><path class="edge" d="M 0 0 V -1.02334 H 0.0" /><circle class="sym" cx="0" cy="0" r="3" /><text class="lab lft" transform="translate(-3 -7.0)">24</text></g><path class="edge" d="M 0 0 V -13.2862 H 0.0" /><circle class="sym" cx="0" cy="0" r="3" /><text class="lab lft" transform="translate(-3 -7.0)">25</text></g><path class="edge" d="M 0 0 V -2.42542 H -35.4583" /><circle class="sym" cx="0" cy="0" r="3" /><text class="lab rgt" transform="translate(3 -7.0)">27</text></g><path class="edge" d="M 0 0 V -20.4017 H 0.0" /><circle class="sym" cx="0" cy="0" r="3" /><text class="lab lft" transform="translate(-3 -7.0)">28</text></g><path class="edge" d="M 0 0 V -9.60795 H 0.0" /><circle class="sym" cx="0" cy="0" r="3" /><text class="lab lft" transform="translate(-3 -7.0)">30</text></g><path class="edge" d="M 0 0 V -17.6012 H 35.9375" /><circle class="sym" cx="0" cy="0" r="3" /><text class="lab lft" transform="translate(-3 -7.0)">31</text></g><g class="a33 c1 node n32 p0" transform="translate(35.9375 14.5204)"><g class="a32 c1 node n21 p0" transform="translate(0.0 56.7335)"><g class="a21 c2 node n10 p0" transform="translate(0.0 23.1961)"><g class="a10 leaf node n5 p0 sample" transform="translate(-7.66667 0.150102)"><path class="edge" d="M 0 0 V -0.150102 H 7.66667" /><rect class="sym" height="6" width="6" x="-3" y="-3" /><text class="lab" transform="translate(0 11)">5</text></g><g class="a10 leaf node n8 p0 sample" transform="translate(7.66667 0.150102)"><path class="edge" d="M 0 0 V -0.150102 H -7.66667" /><rect class="sym" height="6" width="6" x="-3" y="-3" /><text class="lab" transform="translate(0 11)">8</text></g><path class="edge" d="M 0 0 V -23.1961 H 0.0" /><circle class="sym" cx="0" cy="0" r="3" /><text class="lab lft" transform="translate(-3 -7.0)">10</text></g><path class="edge" d="M 0 0 V -56.7335 H 0.0" /><circle class="sym" cx="0" cy="0" r="3" /><text class="lab lft" transform="translate(-3 -7.0)">21</text></g><path class="edge" d="M 0 0 V -14.5204 H -35.9375" /><circle class="sym" cx="0" cy="0" r="3" /><text class="lab rgt" transform="translate(3 -7.0)">32</text></g><circle class="sym" cx="0" cy="0" r="3" /><text class="lab" transform="translate(0 -11)">33</text></g></g></g><g class="tree t5" transform="translate(986.667 0)"><g class="plotbox"><g class="c2 node n33 p0 root" transform="translate(105.292 26.8)"><g class="a33 c1 node n31 p0" transform="translate(-35.4583 17.6012)"><g class="a31 c1 node n30 p0" transform="translate(0.0 9.60795)"><g class="a30 c2 node n28 p0" transform="translate(0.0 20.4017)"><g class="a28 c2 node n17 p0" transform="translate(-19.1667 33.4311)"><g class="a17 c2 node n13 p0" transform="translate(-15.3333 11.9697)"><g class="a13 leaf node n0 p0 sample" transform="translate(-7.66667 1.58831)"><path class="edge" d="M 0 0 V -1.58831 H 7.66667" /><rect class="sym" height="6" width="6" x="-3" y="-3" /><text class="lab" transform="translate(0 11)">0</text></g><g class="a13 c1 node n12 p0" transform="translate(7.66667 1.19503)"><g class="a12 leaf node n4 p0 sample" transform="translate(0.0 0.39328)"><path class="edge" d="M 0 0 V -0.39328 H 0.0" /><rect class="sym" height="6" width="6" x="-3" y="-3" /><text class="lab" transform="translate(0 11)">4</text></g><path class="edge" d="M 0 0 V -1.19503 H -7.66667" /><circle class="sym" cx="0" cy="0" r="3" /><text class="lab rgt" transform="translate(3 -7.0)">12</text></g><path class="edge" d="M 0 0 V -11.9697 H 15.3333" /><circle class="sym" cx="0" cy="0" r="3" /><text class="lab lft" transform="translate(-3 -7.0)">13</text></g><g class="a17 c2 node n16 p0" transform="translate(15.3333 0.274759)"><g class="a16 leaf node n6 p0 sample" transform="translate(-7.66667 13.2833)"><path class="edge" d="M 0 0 V -13.2833 H 7.66667" /><rect class="sym" height="6" width="6" x="-3" y="-3" /><text class="lab" transform="translate(0 11)">6</text></g><g class="a16 leaf node n9 p0 sample" transform="translate(7.66667 13.2833)"><path class="edge" d="M 0 0 V -13.2833 H -7.66667" /><rect class="sym" height="6" width="6" x="-3" y="-3" /><text class="lab" transform="translate(0 11)">9</text></g><path class="edge" d="M 0 0 V -0.274759 H -15.3333" /><circle class="sym" cx="0" cy="0" r="3" /><text class="lab rgt" transform="translate(3 -7.0)">16</text></g><path class="edge" d="M 0 0 V -33.4311 H 19.1667" /><circle class="sym" cx="0" cy="0" r="3" /><text class="lab lft" transform="translate(-3 -7.0)">17</text></g><g class="a28 c1 node n27 p0" transform="translate(19.1667 2.42542)"><g class="a27 c1 node n25 p0" transform="translate(0.0 13.2862)"><g class="a25 c1 node n24 p0" transform="translate(0.0 1.02334)"><g class="a24 leaf node n7 p0 sample" transform="translate(0.0 30.2542)"><path class="edge" d="M 0 0 V -30.2542 H 0.0" /><rect class="sym" height="6" width="6" x="-3" y="-3" /><text class="lab" transform="translate(0 11)">7</text></g><path class="edge" d="M 0 0 V -1.02334 H 0.0" /><circle class="sym" cx="0" cy="0" r="3" /><text class="lab lft" transform="translate(-3 -7.0)">24</text></g><path class="edge" d="M 0 0 V -13.2862 H 0.0" /><circle class="sym" cx="0" cy="0" r="3" /><text class="lab lft" transform="translate(-3 -7.0)">25</text></g><path class="edge" d="M 0 0 V -2.42542 H -19.1667" /><circle class="sym" cx="0" cy="0" r="3" /><text class="lab rgt" transform="translate(3 -7.0)">27</text></g><path class="edge" d="M 0 0 V -20.4017 H 0.0" /><circle class="sym" cx="0" cy="0" r="3" /><text class="lab lft" transform="translate(-3 -7.0)">28</text></g><path class="edge" d="M 0 0 V -9.60795 H 0.0" /><circle class="sym" cx="0" cy="0" r="3" /><text class="lab lft" transform="translate(-3 -7.0)">30</text></g><path class="edge" d="M 0 0 V -17.6012 H 35.4583" /><circle class="sym" cx="0" cy="0" r="3" /><text class="lab lft" transform="translate(-3 -7.0)">31</text></g><g class="a33 c1 node n32 p0" transform="translate(35.4583 14.5204)"><g class="a32 c2 node n21 p0" transform="translate(0.0 56.7335)"><g class="a21 c2 node n10 p0" transform="translate(17.25 23.1961)"><g class="a10 leaf node n5 p0 sample" transform="translate(-7.66667 0.150102)"><path class="edge" d="M 0 0 V -0.150102 H 7.66667" /><rect class="sym" height="6" width="6" x="-3" y="-3" /><text class="lab" transform="translate(0 11)">5</text></g><g class="a10 leaf node n8 p0 sample" transform="translate(7.66667 0.150102)"><path class="edge" d="M 0 0 V -0.150102 H -7.66667" /><rect class="sym" height="6" width="6" x="-3" y="-3" /><text class="lab" transform="translate(0 11)">8</text></g><path class="edge" d="M 0 0 V -23.1961 H -17.25" /><circle class="sym" cx="0" cy="0" r="3" /><text class="lab rgt" transform="translate(3 -7.0)">10</text></g><g class="a21 c1 node n20 p0" transform="translate(-17.25 2.09976)"><g class="a20 c2 node n18 p0" transform="translate(0.0 0.918994)"><g class="a18 leaf node n3 p0 sample" transform="translate(11.5 20.3274)"><path class="edge" d="M 0 0 V -20.3274 H -11.5" /><rect class="sym" height="6" width="6" x="-3" y="-3" /><text class="lab" transform="translate(0 11)">3</text></g><g class="a18 c2 node n15 p0" transform="translate(-11.5 16.5153)"><g class="a15 leaf node n2 p0 sample" transform="translate(7.66667 3.81207)"><path class="edge" d="M 0 0 V -3.81207 H -7.66667" /><rect class="sym" height="6" width="6" x="-3" y="-3" /><text class="lab" transform="translate(0 11)">2</text></g><g class="a15 c1 node n14 p0" transform="translate(-7.66667 0.871073)"><g class="a14 leaf node n1 p0 sample" transform="translate(0.0 2.94099)"><path class="edge" d="M 0 0 V -2.94099 H 0.0" /><rect class="sym" height="6" width="6" x="-3" y="-3" /><text class="lab" transform="translate(0 11)">1</text></g><path class="edge" d="M 0 0 V -0.871073 H 7.66667" /><circle class="sym" cx="0" cy="0" r="3" /><text class="lab lft" transform="translate(-3 -7.0)">14</text></g><path class="edge" d="M 0 0 V -16.5153 H 11.5" /><circle class="sym" cx="0" cy="0" r="3" /><text class="lab lft" transform="translate(-3 -7.0)">15</text></g><path class="edge" d="M 0 0 V -0.918994 H 0.0" /><circle class="sym" cx="0" cy="0" r="3" /><text class="lab lft" transform="translate(-3 -7.0)">18</text></g><path class="edge" d="M 0 0 V -2.09976 H 17.25" /><circle class="sym" cx="0" cy="0" r="3" /><text class="lab lft" transform="translate(-3 -7.0)">20</text></g><path class="edge" d="M 0 0 V -56.7335 H 0.0" /><circle class="sym" cx="0" cy="0" r="3" /><text class="lab lft" transform="translate(-3 -7.0)">21</text></g><path class="edge" d="M 0 0 V -14.5204 H -35.4583" /><circle class="sym" cx="0" cy="0" r="3" /><text class="lab rgt" transform="translate(3 -7.0)">32</text></g><circle class="sym" cx="0" cy="0" r="3" /><text class="lab" transform="translate(0 -11)">33</text></g></g></g></g></g></svg>
