<svg baseProfile="full" height="200" version="1.1" width="1000" xmlns="http://www.w3.org/2000/svg" xmlns:ev="http://www.w3.org/2001/xml-events" xmlns:xlink="http://www.w3.org/1999/xlink"><defs><style type="text/css"><![CDATA[.background path {fill: #808080; fill-opacity: 0}.background path:nth-child(odd) {fill-opacity: .1}.axes {font-size: 14px}.x-axis .tick .lab {font-weight: bold; dominant-baseline: hanging}.axes, .tree {font-size: 14px; text-anchor: middle}.axes line, .edge {stroke: black; fill: none}.y-axis .grid {stroke: #FAFAFA}.node > .sym {fill: black; stroke: none}.site > .sym {stroke: black}.mut text {fill: red; font-style: italic}.mut.extra text {fill: hotpink}.mut line {fill: none; stroke: none}.mut .sym {fill: none; stroke: red}.mut.extra .sym {stroke: hotpink}.node .mut .sym {stroke-width: 1.5px}.tree text, .tree-sequence text {dominant-baseline: central}.plotbox .lab.lft {text-anchor: end}.plotbox .lab.rgt {text-anchor: start}]]></style></defs><g class="tree-sequence"><g class="background"><path d="M20,0 l192,0 l0,138.2 l-128.647,25 l0,5 l-63.3531,0 l0,-5 l0,-25 l0,-138.2z" /><path d="M212,0 l192,0 l0,138.2 l-2.34456,25 l0,5 l-318.302,0 l0,-5 l128.647,-25 l0,-138.2z" /><path d="M404,0 l192,0 l0,138.2 l46.3781,25 l0,5 l-240.723,0 l0,-5 l2.34456,-25 l0,-138.2z" /><path d="M596,0 l192,0 l0,138.2 l-65.5876,25 l0,5 l-80.0343,0 l0,-5 l-46.3781,-25 l0,-138.2z" /><path d="M788,0 l192,0 l0,138.2 l0,25 l0,5 l-257.588,0 l0,-5 l65.5876,-25 l0,-138.2z" /></g><g class="axes"><g class="x-axis"><g transform="translate(500 200)"><text class="lab" text-anchor="middle" transform="translate(0 -11)">Genome position</text></g><line x1="20" x2="980" y1="163.2" y2="163.2" /><g class="ticks"><g class="tick" transform="translate(20 163.2)"><line x1="0" x2="0" y1="0" y2="5" /><g transform="translate(0 6)"><text class="lab">0.00</text></g></g><g class="tick" transform="translate(83.3531 163.2)"><line x1="0" x2="0" y1="0" y2="5" /><g transform="translate(0 6)"><text class="lab">65.99</text></g></g><g class="tick" transform="translate(401.655 163.2)"><line x1="0" x2="0" y1="0" y2="5" /><g transform="translate(0 6)"><text class="lab">397.56</text></g></g><g class="tick" transform="translate(642.378 163.2)"><line x1="0" x2="0" y1="0" y2="5" /><g transform="translate(0 6)"><text class="lab">648.31</text></g></g><g class="tick" transform="translate(722.412 163.2)"><line x1="0" x2="0" y1="0" y2="5" /><g transform="translate(0 6)"><text class="lab">731.68</text></g></g><g class="tick" transform="translate(980 163.2)"><line x1="0" x2="0" y1="0" y2="5" /><g transform="translate(0 6)"><text class="lab">1000.00</text></g></g></g></g></g><g class="plotbox trees"><g class="tree t0" transform="translate(20 0)"><g class="plotbox"><g class="c2 node n30 p0 root" transform="translate(96.475 26.8)"><g class="a30 c2 node n28 p0" transform="translate(40.375 14.7105)"><g class="a28 c2 node n24 p0" transform="translate(-19.95 37.5495)"><g class="a24 c2 node n20 p0" transform="translate(-17.1 24.057)"><g class="a20 c1 node n12 p0" transform="translate(-11.4 17.0649)"><g class="a12 leaf node n1 p0 sample" transform="translate(0.0 1.21813)"><path class="edge" d="M 0 0 V -1.21813 H 0.0" /><rect class="sym" height="6" width="6" x="-3" y="-3" /><text class="lab" transform="translate(0 11)">1</text></g><path class="edge" d="M 0 0 V -17.0649 H 11.4" /><circle class="sym" cx="0" cy="0" r="3" /><text class="lab lft" transform="translate(-3 -7.0)">12</text></g><g class="a20 c2 node n18 p0" transform="translate(11.4 3.86279)"><g class="a18 leaf node n7 p0 sample" transform="translate(-7.6 14.4203)"><path class="edge" d="M 0 0 V -14.4203 H 7.6" /><rect class="sym" height="6" width="6" x="-3" y="-3" /><text class="lab" transform="translate(0 11)">7</text></g><g class="a18 leaf node n8 p0 sample" transform="translate(7.6 14.4203)"><path class="edge" d="M 0 0 V -14.4203 H -7.6" /><rect class="sym" height="6" width="6" x="-3" y="-3" /><text class="lab" transform="translate(0 11)">8</text></g><path class="edge" d="M 0 0 V -3.86279 H -11.4" /><circle class="sym" cx="0" cy="0" r="3" /><text class="lab rgt" transform="translate(3 -7.0)">18</text></g><path class="edge" d="M 0 0 V -24.057 H 17.1" /><circle class="sym" cx="0" cy="0" r="3" /><text class="lab lft" transform="translate(-3 -7.0)">20</text></g><g class="a24 c1 node n21 p0" transform="translate(17.1 5.32404)"><g class="a21 leaf node n6 p0 sample" transform="translate(0.0 37.016)"><path class="edge" d="M 0 0 V -37.016 H 0.0" /><rect class="sym" height="6" width="6" x="-3" y="-3" /><text class="lab" transform="translate(0 11)">6</text></g><path class="edge" d="M 0 0 V -5.32404 H -17.1" /><circle class="sym" cx="0" cy="0" r="3" /><text class="lab rgt" transform="translate(3 -7.0)">21</text></g><path class="edge" d="M 0 0 V -37.5495 H 19.95" /><circle class="sym" cx="0" cy="0" r="3" /><text class="lab lft" transform="translate(-3 -7.0)">24</text></g><g class="a28 c2 node n25 p0" transform="translate(19.95 33.4303)"><g class="a25 leaf node n3 p0 sample" transform="translate(-7.6 46.4592)"><path class="edge" d="M 0 0 V -46.4592 H 7.6" /><rect class="sym" height="6" width="6" x="-3" y="-3" /><text class="lab" transform="translate(0 11)">3</text></g><g class="a25 c1 node n23 p0" transform="translate(7.6 6.59236)"><g class="a23 c1 node n14 p0" transform="translate(0.0 29.6463)"><g class="a14 leaf node n5 p0 sample" transform="translate(0.0 10.2206)"><path class="edge" d="M 0 0 V -10.2206 H 0.0" /><rect class="sym" height="6" width="6" x="-3" y="-3" /><text class="lab" transform="translate(0 11)">5</text></g><path class="edge" d="M 0 0 V -29.6463 H 0.0" /><circle class="sym" cx="0" cy="0" r="3" /><text class="lab lft" transform="translate(-3 -7.0)">14</text></g><path class="edge" d="M 0 0 V -6.59236 H -7.6" /><circle class="sym" cx="0" cy="0" r="3" /><text class="lab rgt" transform="translate(3 -7.0)">23</text></g><path class="edge" d="M 0 0 V -33.4303 H -19.95" /><circle class="sym" cx="0" cy="0" r="3" /><text class="lab rgt" transform="translate(3 -7.0)">25</text></g><path class="edge" d="M 0 0 V -14.7105 H -40.375" /><circle class="sym" cx="0" cy="0" r="3" /><text class="lab rgt" transform="translate(3 -7.0)">28</text></g><g class="a30 c2 node n29 p0" transform="translate(-40.375 11.6624)"><g class="a29 c2 node n26 p0" transform="translate(-17.1 29.0355)"><g class="a26 leaf node n0 p0 sample" transform="translate(-11.4 53.9021)"><path class="edge" d="M 0 0 V -53.9021 H 11.4" /><rect class="sym" height="6" width="6" x="-3" y="-3" /><text class="lab" transform="translate(0 11)">0</text></g><g class="a26 c2 node n17 p0" transform="translate(11.4 39.5981)"><g class="a17 leaf node n2 p0 sample" transform="translate(-7.6 14.304)"><path class="edge" d="M 0 0 V -14.304 H 7.6" /><rect class="sym" height="6" width="6" x="-3" y="-3" /><text class="lab" transform="translate(0 11)">2</text></g><g class="a17 c1 node n16 p0" transform="translate(7.6 0.907348)"><g class="a16 c1 node n10 p0" transform="translate(0.0 13.1739)"><g class="a10 leaf node n4 p0 sample" transform="translate(0.0 0.222743)"><path class="edge" d="M 0 0 V -0.222743 H 0.0" /><rect class="sym" height="6" width="6" x="-3" y="-3" /><text class="lab" transform="translate(0 11)">4</text></g><path class="edge" d="M 0 0 V -13.1739 H 0.0" /><circle class="sym" cx="0" cy="0" r="3" /><text class="lab lft" transform="translate(-3 -7.0)">10</text></g><path class="edge" d="M 0 0 V -0.907348 H -7.6" /><circle class="sym" cx="0" cy="0" r="3" /><text class="lab rgt" transform="translate(3 -7.0)">16</text></g><path class="edge" d="M 0 0 V -39.5981 H -11.4" /><circle class="sym" cx="0" cy="0" r="3" /><text class="lab rgt" transform="translate(3 -7.0)">17</text></g><path class="edge" d="M 0 0 V -29.0355 H 17.1" /><circle class="sym" cx="0" cy="0" r="3" /><text class="lab lft" transform="translate(-3 -7.0)">26</text></g><g class="a29 c1 node n27 p0" transform="translate(17.1 18.5631)"><g class="a27 c1 node n19 p0" transform="translate(0.0 47.9202)"><g class="a19 leaf node n9 p0 sample" transform="translate(0.0 16.4543)"><path class="edge" d="M 0 0 V -16.4543 H 0.0" /><rect class="sym" height="6" width="6" x="-3" y="-3" /><text class="lab" transform="translate(0 11)">9</text></g><path class="edge" d="M 0 0 V -47.9202 H 0.0" /><circle class="sym" cx="0" cy="0" r="3" /><text class="lab lft" transform="translate(-3 -7.0)">19</text></g><path class="edge" d="M 0 0 V -18.5631 H -17.1" /><circle class="sym" cx="0" cy="0" r="3" /><text class="lab rgt" transform="translate(3 -7.0)">27</text></g><path class="edge" d="M 0 0 V -11.6624 H 40.375" /><circle class="sym" cx="0" cy="0" r="3" /><text class="lab lft" transform="translate(-3 -7.0)">29</text></g><circle class="sym" cx="0" cy="0" r="3" /><text class="lab" transform="translate(0 -11)">30</text></g></g></g><g class="tree t1" transform="translate(212 0)"><g class="plotbox"><g class="c2 node n30 p0 root" transform="translate(89.35 26.8)"><g class="a30 c2 node n28 p0" transform="translate(33.25 14.7105)"><g class="a28 c1 node n24 p0" transform="translate(-22.8 37.5495)"><g class="a24 c2 node n20 p0" transform="translate(0.0 24.057)"><g class="a20 c1 node n12 p0" transform="translate(-11.4 17.0649)"><g class="a12 leaf node n1 p0 sample" transform="translate(0.0 1.21813)"><path class="edge" d="M 0 0 V -1.21813 H 0.0" /><rect class="sym" height="6" width="6" x="-3" y="-3" /><text class="lab" transform="translate(0 11)">1</text></g><path class="edge" d="M 0 0 V -17.0649 H 11.4" /><circle class="sym" cx="0" cy="0" r="3" /><text class="lab lft" transform="translate(-3 -7.0)">12</text></g><g class="a20 c2 node n18 p0" transform="translate(11.4 3.86279)"><g class="a18 leaf node n7 p0 sample" transform="translate(-7.6 14.4203)"><path class="edge" d="M 0 0 V -14.4203 H 7.6" /><rect class="sym" height="6" width="6" x="-3" y="-3" /><text class="lab" transform="translate(0 11)">7</text></g><g class="a18 leaf node n8 p0 sample" transform="translate(7.6 14.4203)"><path class="edge" d="M 0 0 V -14.4203 H -7.6" /><rect class="sym" height="6" width="6" x="-3" y="-3" /><text class="lab" transform="translate(0 11)">8</text></g><path class="edge" d="M 0 0 V -3.86279 H -11.4" /><circle class="sym" cx="0" cy="0" r="3" /><text class="lab rgt" transform="translate(3 -7.0)">18</text></g><path class="edge" d="M 0 0 V -24.057 H 0.0" /><circle class="sym" cx="0" cy="0" r="3" /><text class="lab lft" transform="translate(-3 -7.0)">20</text></g><path class="edge" d="M 0 0 V -37.5495 H 22.8" /><circle class="sym" cx="0" cy="0" r="3" /><text class="lab lft" transform="translate(-3 -7.0)">24</text></g><g class="a28 c2 node n25 p0" transform="translate(22.8 33.4303)"><g class="a25 leaf node n3 p0 sample" transform="translate(-11.4 46.4592)"><path class="edge" d="M 0 0 V -46.4592 H 11.4" /><rect class="sym" height="6" width="6" x="-3" y="-3" /><text class="lab" transform="translate(0 11)">3</text></g><g class="a25 c2 node n23 p0" transform="translate(11.4 6.59236)"><g class="a23 c1 node n14 p0" transform="translate(-7.6 29.6463)"><g class="a14 leaf node n5 p0 sample" transform="translate(0.0 10.2206)"><path class="edge" d="M 0 0 V -10.2206 H 0.0" /><rect class="sym" height="6" width="6" x="-3" y="-3" /><text class="lab" transform="translate(0 11)">5</text></g><path class="edge" d="M 0 0 V -29.6463 H 7.6" /><circle class="sym" cx="0" cy="0" r="3" /><text class="lab lft" transform="translate(-3 -7.0)">14</text></g><g class="a23 c1 node n22 p0" transform="translate(7.6 2.85085)"><g class="a22 leaf node n6 p0 sample" transform="translate(0.0 37.016)"><path class="edge" d="M 0 0 V -37.016 H 0.0" /><rect class="sym" height="6" width="6" x="-3" y="-3" /><text class="lab" transform="translate(0 11)">6</text></g><path class="edge" d="M 0 0 V -2.85085 H -7.6" /><circle class="sym" cx="0" cy="0" r="3" /><text class="lab rgt" transform="translate(3 -7.0)">22</text></g><path class="edge" d="M 0 0 V -6.59236 H -11.4" /><circle class="sym" cx="0" cy="0" r="3" /><text class="lab rgt" transform="translate(3 -7.0)">23</text></g><path class="edge" d="M 0 0 V -33.4303 H -22.8" /><circle class="sym" cx="0" cy="0" r="3" /><text class="lab rgt" transform="translate(3 -7.0)">25</text></g><path class="edge" d="M 0 0 V -14.7105 H -33.25" /><circle class="sym" cx="0" cy="0" r="3" /><text class="lab rgt" transform="translate(3 -7.0)">28</text></g><g class="a30 c2 node n29 p0" transform="translate(-33.25 11.6624)"><g class="a29 c2 node n26 p0" transform="translate(-17.1 29.0355)"><g class="a26 leaf node n0 p0 sample" transform="translate(-11.4 53.9021)"><path class="edge" d="M 0 0 V -53.9021 H 11.4" /><rect class="sym" height="6" width="6" x="-3" y="-3" /><text class="lab" transform="translate(0 11)">0</text></g><g class="a26 c2 node n17 p0" transform="translate(11.4 39.5981)"><g class="a17 leaf node n2 p0 sample" transform="translate(-7.6 14.304)"><path class="edge" d="M 0 0 V -14.304 H 7.6" /><rect class="sym" height="6" width="6" x="-3" y="-3" /><text class="lab" transform="translate(0 11)">2</text></g><g class="a17 c1 node n16 p0" transform="translate(7.6 0.907348)"><g class="a16 c1 node n10 p0" transform="translate(0.0 13.1739)"><g class="a10 leaf node n4 p0 sample" transform="translate(0.0 0.222743)"><path class="edge" d="M 0 0 V -0.222743 H 0.0" /><rect class="sym" height="6" width="6" x="-3" y="-3" /><text class="lab" transform="translate(0 11)">4</text></g><path class="edge" d="M 0 0 V -13.1739 H 0.0" /><circle class="sym" cx="0" cy="0" r="3" /><text class="lab lft" transform="translate(-3 -7.0)">10</text></g><path class="edge" d="M 0 0 V -0.907348 H -7.6" /><circle class="sym" cx="0" cy="0" r="3" /><text class="lab rgt" transform="translate(3 -7.0)">16</text></g><path class="edge" d="M 0 0 V -39.5981 H -11.4" /><circle class="sym" cx="0" cy="0" r="3" /><text class="lab rgt" transform="translate(3 -7.0)">17</text></g><path class="edge" d="M 0 0 V -29.0355 H 17.1" /><circle class="sym" cx="0" cy="0" r="3" /><text class="lab lft" transform="translate(-3 -7.0)">26</text></g><g class="a29 c1 node n27 p0" transform="translate(17.1 18.5631)"><g class="a27 c1 node n19 p0" transform="translate(0.0 47.9202)"><g class="a19 leaf node n9 p0 sample" transform="translate(0.0 16.4543)"><path class="edge" d="M 0 0 V -16.4543 H 0.0" /><rect class="sym" height="6" width="6" x="-3" y="-3" /><text class="lab" transform="translate(0 11)">9</text></g><path class="edge" d="M 0 0 V -47.9202 H 0.0" /><circle class="sym" cx="0" cy="0" r="3" /><text class="lab lft" transform="translate(-3 -7.0)">19</text></g><path class="edge" d="M 0 0 V -18.5631 H -17.1" /><circle class="sym" cx="0" cy="0" r="3" /><text class="lab rgt" transform="translate(3 -7.0)">27</text></g><path class="edge" d="M 0 0 V -11.6624 H 33.25" /><circle class="sym" cx="0" cy="0" r="3" /><text class="lab lft" transform="translate(-3 -7.0)">29</text></g><circle class="sym" cx="0" cy="0" r="3" /><text class="lab" transform="translate(0 -11)">30</text></g></g></g><g class="tree t2" transform="translate(404 0)"><g class="plotbox"><g class="c2 node n30 p0 root" transform="translate(97.9 26.8)"><g class="a30 c2 node n28 p0" transform="translate(38 14.7105)"><g class="a28 c1 node n24 p0" transform="translate(20.9 37.5495)"><g class="a24 c1 node n20 p0" transform="translate(0.0 24.057)"><g class="a20 c2 node n18 p0" transform="translate(0.0 3.86279)"><g class="a18 leaf node n7 p0 sample" transform="translate(-7.6 14.4203)"><path class="edge" d="M 0 0 V -14.4203 H 7.6" /><rect class="sym" height="6" width="6" x="-3" y="-3" /><text class="lab" transform="translate(0 11)">7</text></g><g class="a18 leaf node n8 p0 sample" transform="translate(7.6 14.4203)"><path class="edge" d="M 0 0 V -14.4203 H -7.6" /><rect class="sym" height="6" width="6" x="-3" y="-3" /><text class="lab" transform="translate(0 11)">8</text></g><path class="edge" d="M 0 0 V -3.86279 H 0.0" /><circle class="sym" cx="0" cy="0" r="3" /><text class="lab lft" transform="translate(-3 -7.0)">18</text></g><path class="edge" d="M 0 0 V -24.057 H 0.0" /><circle class="sym" cx="0" cy="0" r="3" /><text class="lab lft" transform="translate(-3 -7.0)">20</text></g><path class="edge" d="M 0 0 V -37.5495 H -20.9" /><circle class="sym" cx="0" cy="0" r="3" /><text class="lab rgt" transform="translate(3 -7.0)">24</text></g><g class="a28 c2 node n25 p0" transform="translate(-20.9 33.4303)"><g class="a25 leaf node n3 p0 sample" transform="translate(-11.4 46.4592)"><path class="edge" d="M 0 0 V -46.4592 H 11.4" /><rect class="sym" height="6" width="6" x="-3" y="-3" /><text class="lab" transform="translate(0 11)">3</text></g><g class="a25 c2 node n23 p0" transform="translate(11.4 6.59236)"><g class="a23 c1 node n14 p0" transform="translate(-7.6 29.6463)"><g class="a14 leaf node n5 p0 sample" transform="translate(0.0 10.2206)"><path class="edge" d="M 0 0 V -10.2206 H 0.0" /><rect class="sym" height="6" width="6" x="-3" y="-3" /><text class="lab" transform="translate(0 11)">5</text></g><path class="edge" d="M 0 0 V -29.6463 H 7.6" /><circle class="sym" cx="0" cy="0" r="3" /><text class="lab lft" transform="translate(-3 -7.0)">14</text></g><g class="a23 c1 node n22 p0" transform="translate(7.6 2.85085)"><g class="a22 leaf node n6 p0 sample" transform="translate(0.0 37.016)"><path class="edge" d="M 0 0 V -37.016 H 0.0" /><rect class="sym" height="6" width="6" x="-3" y="-3" /><text class="lab" transform="translate(0 11)">6</text></g><path class="edge" d="M 0 0 V -2.85085 H -7.6" /><circle class="sym" cx="0" cy="0" r="3" /><text class="lab rgt" transform="translate(3 -7.0)">22</text></g><path class="edge" d="M 0 0 V -6.59236 H -11.4" /><circle class="sym" cx="0" cy="0" r="3" /><text class="lab rgt" transform="translate(3 -7.0)">23</text></g><path class="edge" d="M 0 0 V -33.4303 H 20.9" /><circle class="sym" cx="0" cy="0" r="3" /><text class="lab lft" transform="translate(-3 -7.0)">25</text></g><path class="edge" d="M 0 0 V -14.7105 H -38" /><circle class="sym" cx="0" cy="0" r="3" /><text class="lab rgt" transform="translate(3 -7.0)">28</text></g><g class="a30 c2 node n29 p0" transform="translate(-38 11.6624)"><g class="a29 c2 node n26 p0" transform="translate(-20.9 29.0355)"><g class="a26 leaf node n0 p0 sample" transform="translate(-11.4 53.9021)"><path class="edge" d="M 0 0 V -53.9021 H 11.4" /><rect class="sym" height="6" width="6" x="-3" y="-3" /><text class="lab" transform="translate(0 11)">0</text></g><g class="a26 c2 node n17 p0" transform="translate(11.4 39.5981)"><g class="a17 leaf node n2 p0 sample" transform="translate(-7.6 14.304)"><path class="edge" d="M 0 0 V -14.304 H 7.6" /><rect class="sym" height="6" width="6" x="-3" y="-3" /><text class="lab" transform="translate(0 11)">2</text></g><g class="a17 c1 node n16 p0" transform="translate(7.6 0.907348)"><g class="a16 c1 node n10 p0" transform="translate(0.0 13.1739)"><g class="a10 leaf node n4 p0 sample" transform="translate(0.0 0.222743)"><path class="edge" d="M 0 0 V -0.222743 H 0.0" /><rect class="sym" height="6" width="6" x="-3" y="-3" /><text class="lab" transform="translate(0 11)">4</text></g><path class="edge" d="M 0 0 V -13.1739 H 0.0" /><circle class="sym" cx="0" cy="0" r="3" /><text class="lab lft" transform="translate(-3 -7.0)">10</text></g><path class="edge" d="M 0 0 V -0.907348 H -7.6" /><circle class="sym" cx="0" cy="0" r="3" /><text class="lab rgt" transform="translate(3 -7.0)">16</text></g><path class="edge" d="M 0 0 V -39.5981 H -11.4" /><circle class="sym" cx="0" cy="0" r="3" /><text class="lab rgt" transform="translate(3 -7.0)">17</text></g><path class="edge" d="M 0 0 V -29.0355 H 20.9" /><circle class="sym" cx="0" cy="0" r="3" /><text class="lab lft" transform="translate(-3 -7.0)">26</text></g><g class="a29 c2 node n27 p0" transform="translate(20.9 18.5631)"><g class="a27 c1 node n19 p0" transform="translate(7.6 47.9202)"><g class="a19 leaf node n9 p0 sample" transform="translate(0.0 16.4543)"><path class="edge" d="M 0 0 V -16.4543 H 0.0" /><rect class="sym" height="6" width="6" x="-3" y="-3" /><text class="lab" transform="translate(0 11)">9</text></g><path class="edge" d="M 0 0 V -47.9202 H -7.6" /><circle class="sym" cx="0" cy="0" r="3" /><text class="lab rgt" transform="translate(3 -7.0)">19</text></g><g class="a27 c1 node n13 p0" transform="translate(-7.6 63.1564)"><g class="a13 leaf node n1 p0 sample" transform="translate(0.0 1.21813)"><path class="edge" d="M 0 0 V -1.21813 H 0.0" /><rect class="sym" height="6" width="6" x="-3" y="-3" /><text class="lab" transform="translate(0 11)">1</text></g><path class="edge" d="M 0 0 V -63.1564 H 7.6" /><circle class="sym" cx="0" cy="0" r="3" /><text class="lab lft" transform="translate(-3 -7.0)">13</text></g><path class="edge" d="M 0 0 V -18.5631 H -20.9" /><circle class="sym" cx="0" cy="0" r="3" /><text class="lab rgt" transform="translate(3 -7.0)">27</text></g><path class="edge" d="M 0 0 V -11.6624 H 38" /><circle class="sym" cx="0" cy="0" r="3" /><text class="lab lft" transform="translate(-3 -7.0)">29</text></g><circle class="sym" cx="0" cy="0" r="3" /><text class="lab" transform="translate(0 -11)">30</text></g></g></g><g class="tree t3" transform="translate(596 0)"><g class="plotbox"><g class="c2 node n30 p0 root" transform="translate(94.1 26.8)"><g class="a30 c2 node n28 p0" transform="translate(41.8 14.7105)"><g class="a28 c1 node n24 p0" transform="translate(20.9 37.5495)"><g class="a24 c1 node n20 p0" transform="translate(0.0 24.057)"><g class="a20 c2 node n18 p0" transform="translate(0.0 3.86279)"><g class="a18 leaf node n7 p0 sample" transform="translate(-7.6 14.4203)"><path class="edge" d="M 0 0 V -14.4203 H 7.6" /><rect class="sym" height="6" width="6" x="-3" y="-3" /><text class="lab" transform="translate(0 11)">7</text></g><g class="a18 leaf node n8 p0 sample" transform="translate(7.6 14.4203)"><path class="edge" d="M 0 0 V -14.4203 H -7.6" /><rect class="sym" height="6" width="6" x="-3" y="-3" /><text class="lab" transform="translate(0 11)">8</text></g><path class="edge" d="M 0 0 V -3.86279 H 0.0" /><circle class="sym" cx="0" cy="0" r="3" /><text class="lab lft" transform="translate(-3 -7.0)">18</text></g><path class="edge" d="M 0 0 V -24.057 H 0.0" /><circle class="sym" cx="0" cy="0" r="3" /><text class="lab lft" transform="translate(-3 -7.0)">20</text></g><path class="edge" d="M 0 0 V -37.5495 H -20.9" /><circle class="sym" cx="0" cy="0" r="3" /><text class="lab rgt" transform="translate(3 -7.0)">24</text></g><g class="a28 c2 node n25 p0" transform="translate(-20.9 33.4303)"><g class="a25 leaf node n3 p0 sample" transform="translate(-11.4 46.4592)"><path class="edge" d="M 0 0 V -46.4592 H 11.4" /><rect class="sym" height="6" width="6" x="-3" y="-3" /><text class="lab" transform="translate(0 11)">3</text></g><g class="a25 c2 node n23 p0" transform="translate(11.4 6.59236)"><g class="a23 c1 node n14 p0" transform="translate(-7.6 29.6463)"><g class="a14 leaf node n5 p0 sample" transform="translate(0.0 10.2206)"><path class="edge" d="M 0 0 V -10.2206 H 0.0" /><rect class="sym" height="6" width="6" x="-3" y="-3" /><text class="lab" transform="translate(0 11)">5</text></g><path class="edge" d="M 0 0 V -29.6463 H 7.6" /><circle class="sym" cx="0" cy="0" r="3" /><text class="lab lft" transform="translate(-3 -7.0)">14</text></g><g class="a23 c1 node n22 p0" transform="translate(7.6 2.85085)"><g class="a22 leaf node n6 p0 sample" transform="translate(0.0 37.016)"><path class="edge" d="M 0 0 V -37.016 H 0.0" /><rect class="sym" height="6" width="6" x="-3" y="-3" /><text class="lab" transform="translate(0 11)">6</text></g><path class="edge" d="M 0 0 V -2.85085 H -7.6" /><circle class="sym" cx="0" cy="0" r="3" /><text class="lab rgt" transform="translate(3 -7.0)">22</text></g><path class="edge" d="M 0 0 V -6.59236 H -11.4" /><circle class="sym" cx="0" cy="0" r="3" /><text class="lab rgt" transform="translate(3 -7.0)">23</text></g><path class="edge" d="M 0 0 V -33.4303 H 20.9" /><circle class="sym" cx="0" cy="0" r="3" /><text class="lab lft" transform="translate(-3 -7.0)">25</text></g><path class="edge" d="M 0 0 V -14.7105 H -41.8" /><circle class="sym" cx="0" cy="0" r="3" /><text class="lab rgt" transform="translate(3 -7.0)">28</text></g><g class="a30 c2 node n29 p0" transform="translate(-41.8 11.6624)"><g class="a29 c2 node n26 p0" transform="translate(-17.1 29.0355)"><g class="a26 leaf node n0 p0 sample" transform="translate(-7.6 53.9021)"><path class="edge" d="M 0 0 V -53.9021 H 7.6" /><rect class="sym" height="6" width="6" x="-3" y="-3" /><text class="lab" transform="translate(0 11)">0</text></g><g class="a26 c1 node n17 p0" transform="translate(7.6 39.5981)"><g class="a17 leaf node n2 p0 sample" transform="translate(0.0 14.304)"><path class="edge" d="M 0 0 V -14.304 H 0.0" /><rect class="sym" height="6" width="6" x="-3" y="-3" /><text class="lab" transform="translate(0 11)">2</text></g><path class="edge" d="M 0 0 V -39.5981 H -7.6" /><circle class="sym" cx="0" cy="0" r="3" /><text class="lab rgt" transform="translate(3 -7.0)">17</text></g><path class="edge" d="M 0 0 V -29.0355 H 17.1" /><circle class="sym" cx="0" cy="0" r="3" /><text class="lab lft" transform="translate(-3 -7.0)">26</text></g><g class="a29 c2 node n27 p0" transform="translate(17.1 18.5631)"><g class="a27 c2 node n19 p0" transform="translate(11.4 47.9202)"><g class="a19 leaf node n9 p0 sample" transform="translate(7.6 16.4543)"><path class="edge" d="M 0 0 V -16.4543 H -7.6" /><rect class="sym" height="6" width="6" x="-3" y="-3" /><text class="lab" transform="translate(0 11)">9</text></g><g class="a19 c1 node n11 p0" transform="translate(-7.6 16.2316)"><g class="a11 leaf node n4 p0 sample" transform="translate(0.0 0.222743)"><path class="edge" d="M 0 0 V -0.222743 H 0.0" /><rect class="sym" height="6" width="6" x="-3" y="-3" /><text class="lab" transform="translate(0 11)">4</text></g><path class="edge" d="M 0 0 V -16.2316 H 7.6" /><circle class="sym" cx="0" cy="0" r="3" /><text class="lab lft" transform="translate(-3 -7.0)">11</text></g><path class="edge" d="M 0 0 V -47.9202 H -11.4" /><circle class="sym" cx="0" cy="0" r="3" /><text class="lab rgt" transform="translate(3 -7.0)">19</text></g><g class="a27 c1 node n13 p0" transform="translate(-11.4 63.1564)"><g class="a13 leaf node n1 p0 sample" transform="translate(0.0 1.21813)"><path class="edge" d="M 0 0 V -1.21813 H 0.0" /><rect class="sym" height="6" width="6" x="-3" y="-3" /><text class="lab" transform="translate(0 11)">1</text></g><path class="edge" d="M 0 0 V -63.1564 H 11.4" /><circle class="sym" cx="0" cy="0" r="3" /><text class="lab lft" transform="translate(-3 -7.0)">13</text></g><path class="edge" d="M 0 0 V -18.5631 H -17.1" /><circle class="sym" cx="0" cy="0" r="3" /><text class="lab rgt" transform="translate(3 -7.0)">27</text></g><path class="edge" d="M 0 0 V -11.6624 H 41.8" /><circle class="sym" cx="0" cy="0" r="3" /><text class="lab lft" transform="translate(-3 -7.0)">29</text></g><circle class="sym" cx="0" cy="0" r="3" /><text class="lab" transform="translate(0 -11)">30</text></g></g></g><g class="tree t4" transform="translate(788 0)"><g class="plotbox"><g class="c2 node n30 p0 root" transform="translate(101.7 26.8)"><g class="a30 c2 node n28 p0" transform="translate(39.9 14.7105)"><g class="a28 c1 node n24 p0" transform="translate(15.2 37.5495)"><g class="a24 c1 node n20 p0" transform="translate(0.0 24.057)"><g class="a20 c2 node n18 p0" transform="translate(0.0 3.86279)"><g class="a18 leaf node n7 p0 sample" transform="translate(-7.6 14.4203)"><path class="edge" d="M 0 0 V -14.4203 H 7.6" /><rect class="sym" height="6" width="6" x="-3" y="-3" /><text class="lab" transform="translate(0 11)">7</text></g><g class="a18 leaf node n8 p0 sample" transform="translate(7.6 14.4203)"><path class="edge" d="M 0 0 V -14.4203 H -7.6" /><rect class="sym" height="6" width="6" x="-3" y="-3" /><text class="lab" transform="translate(0 11)">8</text></g><path class="edge" d="M 0 0 V -3.86279 H 0.0" /><circle class="sym" cx="0" cy="0" r="3" /><text class="lab lft" transform="translate(-3 -7.0)">18</text></g><path class="edge" d="M 0 0 V -24.057 H 0.0" /><circle class="sym" cx="0" cy="0" r="3" /><text class="lab lft" transform="translate(-3 -7.0)">20</text></g><path class="edge" d="M 0 0 V -37.5495 H -15.2" /><circle class="sym" cx="0" cy="0" r="3" /><text class="lab rgt" transform="translate(3 -7.0)">24</text></g><g class="a28 c2 node n25 p0" transform="translate(-15.2 33.4303)"><g class="a25 leaf node n3 p0 sample" transform="translate(-7.6 46.4592)"><path class="edge" d="M 0 0 V -46.4592 H 7.6" /><rect class="sym" height="6" width="6" x="-3" y="-3" /><text class="lab" transform="translate(0 11)">3</text></g><g class="a25 c1 node n23 p0" transform="translate(7.6 6.59236)"><g class="a23 c1 node n22 p0" transform="translate(0.0 2.85085)"><g class="a22 leaf node n6 p0 sample" transform="translate(0.0 37.016)"><path class="edge" d="M 0 0 V -37.016 H 0.0" /><rect class="sym" height="6" width="6" x="-3" y="-3" /><text class="lab" transform="translate(0 11)">6</text></g><path class="edge" d="M 0 0 V -2.85085 H 0.0" /><circle class="sym" cx="0" cy="0" r="3" /><text class="lab lft" transform="translate(-3 -7.0)">22</text></g><path class="edge" d="M 0 0 V -6.59236 H -7.6" /><circle class="sym" cx="0" cy="0" r="3" /><text class="lab rgt" transform="translate(3 -7.0)">23</text></g><path class="edge" d="M 0 0 V -33.4303 H 15.2" /><circle class="sym" cx="0" cy="0" r="3" /><text class="lab lft" transform="translate(-3 -7.0)">25</text></g><path class="edge" d="M 0 0 V -14.7105 H -39.9" /><circle class="sym" cx="0" cy="0" r="3" /><text class="lab rgt" transform="translate(3 -7.0)">28</text></g><g class="a30 c2 node n29 p0" transform="translate(-39.9 11.6624)"><g class="a29 c2 node n26 p0" transform="translate(-22.8 29.0355)"><g class="a26 leaf node n0 p0 sample" transform="translate(-11.4 53.9021)"><path class="edge" d="M 0 0 V -53.9021 H 11.4" /><rect class="sym" height="6" width="6" x="-3" y="-3" /><text class="lab" transform="translate(0 11)">0</text></g><g class="a26 c2 node n17 p0" transform="translate(11.4 39.5981)"><g class="a17 leaf node n2 p0 sample" transform="translate(-7.6 14.304)"><path class="edge" d="M 0 0 V -14.304 H 7.6" /><rect class="sym" height="6" width="6" x="-3" y="-3" /><text class="lab" transform="translate(0 11)">2</text></g><g class="a17 c1 node n16 p0" transform="translate(7.6 0.907348)"><g class="a16 c1 node n15 p0" transform="translate(0.0 3.17608)"><g class="a15 leaf node n5 p0 sample" transform="translate(0.0 10.2206)"><path class="edge" d="M 0 0 V -10.2206 H 0.0" /><rect class="sym" height="6" width="6" x="-3" y="-3" /><text class="lab" transform="translate(0 11)">5</text></g><path class="edge" d="M 0 0 V -3.17608 H 0.0" /><circle class="sym" cx="0" cy="0" r="3" /><text class="lab lft" transform="translate(-3 -7.0)">15</text></g><path class="edge" d="M 0 0 V -0.907348 H -7.6" /><circle class="sym" cx="0" cy="0" r="3" /><text class="lab rgt" transform="translate(3 -7.0)">16</text></g><path class="edge" d="M 0 0 V -39.5981 H -11.4" /><circle class="sym" cx="0" cy="0" r="3" /><text class="lab rgt" transform="translate(3 -7.0)">17</text></g><path class="edge" d="M 0 0 V -29.0355 H 22.8" /><circle class="sym" cx="0" cy="0" r="3" /><text class="lab lft" transform="translate(-3 -7.0)">26</text></g><g class="a29 c2 node n27 p0" transform="translate(22.8 18.5631)"><g class="a27 c2 node n19 p0" transform="translate(11.4 47.9202)"><g class="a19 leaf node n9 p0 sample" transform="translate(7.6 16.4543)"><path class="edge" d="M 0 0 V -16.4543 H -7.6" /><rect class="sym" height="6" width="6" x="-3" y="-3" /><text class="lab" transform="translate(0 11)">9</text></g><g class="a19 c1 node n11 p0" transform="translate(-7.6 16.2316)"><g class="a11 leaf node n4 p0 sample" transform="translate(0.0 0.222743)"><path class="edge" d="M 0 0 V -0.222743 H 0.0" /><rect class="sym" height="6" width="6" x="-3" y="-3" /><text class="lab" transform="translate(0 11)">4</text></g><path class="edge" d="M 0 0 V -16.2316 H 7.6" /><circle class="sym" cx="0" cy="0" r="3" /><text class="lab lft" transform="translate(-3 -7.0)">11</text></g><path class="edge" d="M 0 0 V -47.9202 H -11.4" /><circle class="sym" cx="0" cy="0" r="3" /><text class="lab rgt" transform="translate(3 -7.0)">19</text></g><g class="a27 c1 node n13 p0" transform="translate(-11.4 63.1564)"><g class="a13 leaf node n1 p0 sample" transform="translate(0.0 1.21813)"><path class="edge" d="M 0 0 V -1.21813 H 0.0" /><rect class="sym" height="6" width="6" x="-3" y="-3" /><text class="lab" transform="translate(0 11)">1</text></g><path class="edge" d="M 0 0 V -63.1564 H 11.4" /><circle class="sym" cx="0" cy="0" r="3" /><text class="lab lft" transform="translate(-3 -7.0)">13</text></g><path class="edge" d="M 0 0 V -18.5631 H -22.8" /><circle class="sym" cx="0" cy="0" r="3" /><text class="lab rgt" transform="translate(3 -7.0)">27</text></g><path class="edge" d="M 0 0 V -11.6624 H 39.9" /><circle class="sym" cx="0" cy="0" r="3" /><text class="lab lft" transform="translate(-3 -7.0)">29</text></g><circle class="sym" cx="0" cy="0" r="3" /><text class="lab" transform="translate(0 -11)">30</text></g></g></g></g></g></svg>
