<svg baseProfile="full" height="200" version="1.1" width="800" xmlns="http://www.w3.org/2000/svg" xmlns:ev="http://www.w3.org/2001/xml-events" xmlns:xlink="http://www.w3.org/1999/xlink"><defs><style type="text/css"><![CDATA[.background path {fill: #808080; fill-opacity: 0}.background path:nth-child(odd) {fill-opacity: .1}.axes {font-size: 14px}.x-axis .tick .lab {font-weight: bold; dominant-baseline: hanging}.axes, .tree {font-size: 14px; text-anchor: middle}.axes line, .edge {stroke: black; fill: none}.y-axis .grid {stroke: #FAFAFA}.node > .sym {fill: black; stroke: none}.site > .sym {stroke: black}.mut text {fill: red; font-style: italic}.mut.extra text {fill: hotpink}.mut line {fill: none; stroke: none}.mut .sym {fill: none; stroke: red}.mut.extra .sym {stroke: hotpink}.node .mut .sym {stroke-width: 1.5px}.tree text, .tree-sequence text {dominant-baseline: central}.plotbox .lab.lft {text-anchor: end}.plotbox .lab.rgt {text-anchor: start}]]></style></defs><g class="tree-sequence"><g class="background"><path d="M20,0 l190,0 l0,138.2 l-139.229,25 l0,5 l-50.7706,0 l0,-5 l0,-25 l0,-138.2z" /><path d="M210,0 l190,0 l0,138.2 l126.691,25 l0,5 l-455.92,0 l0,-5 l139.229,-25 l0,-138.2z" /><path d="M400,0 l190,0 l0,138.2 l110.731,25 l0,5 l-174.04,0 l0,-5 l-126.691,-25 l0,-138.2z" /><path d="M590,0 l190,0 l0,138.2 l0,25 l0,5 l-79.2685,0 l0,-5 l-110.731,-25 l0,-138.2z" /></g><g class="axes"><g class="x-axis"><g transform="translate(400 200)"><text class="lab" text-anchor="middle" transform="translate(0 -11)">Genome position</text></g><line x1="20" x2="780" y1="163.2" y2="163.2" /><g class="ticks"><g class="tick" transform="translate(20 163.2)"><line x1="0" x2="0" y1="0" y2="5" /><g transform="translate(0 6)"><text class="lab">0.00</text></g></g><g class="tick" transform="translate(70.7706 163.2)"><line x1="0" x2="0" y1="0" y2="5" /><g transform="translate(0 6)"><text class="lab">66.80</text></g></g><g class="tick" transform="translate(526.691 163.2)"><line x1="0" x2="0" y1="0" y2="5" /><g transform="translate(0 6)"><text class="lab">666.70</text></g></g><g class="tick" transform="translate(700.731 163.2)"><line x1="0" x2="0" y1="0" y2="5" /><g transform="translate(0 6)"><text class="lab">895.70</text></g></g><g class="tick" transform="translate(780 163.2)"><line x1="0" x2="0" y1="0" y2="5" /><g transform="translate(0 6)"><text class="lab">1000.00</text></g></g></g></g></g><g class="plotbox trees"><g class="tree t0" transform="translate(20 0)"><g class="plotbox"><g class="c2 node n27 p0 root" transform="translate(116.797 26.8)"><g class="a27 c1 node n23 p0" transform="translate(38.2031 44.8061)"><g class="a23 c2 node n16 p0" transform="translate(0.0 28.7548)"><g class="a16 leaf node n6 p0 sample" transform="translate(-7.5 21.0391)"><path class="edge" d="M 0 0 V -21.0391 H 7.5" /><rect class="sym" height="6" width="6" x="-3" y="-3" /><text class="lab" transform="translate(0 11)">6</text></g><g class="a16 leaf node n9 p0 sample" transform="translate(7.5 21.0391)"><path class="edge" d="M 0 0 V -21.0391 H -7.5" /><rect class="sym" height="6" width="6" x="-3" y="-3" /><text class="lab" transform="translate(0 11)">9</text></g><path class="edge" d="M 0 0 V -28.7548 H 0.0" /><circle class="sym" cx="0" cy="0" r="3" /><text class="lab lft" transform="translate(-3 -7.0)">16</text></g><path class="edge" d="M 0 0 V -44.8061 H -38.2031" /><circle class="sym" cx="0" cy="0" r="3" /><text class="lab rgt" transform="translate(3 -7.0)">23</text></g><g class="a27 c2 node n26 p0" transform="translate(-38.2031 15.9218)"><g class="a26 c2 node n24 p0" transform="translate(32.3438 20.5121)"><g class="a24 leaf node n2 p0 sample" transform="translate(21.5625 58.1661)"><path class="edge" d="M 0 0 V -58.1661 H -21.5625" /><rect class="sym" height="6" width="6" x="-3" y="-3" /><text class="lab" transform="translate(0 11)">2</text></g><g class="a24 c2 node n22 p0" transform="translate(-21.5625 16.3713)"><g class="a22 c2 node n15 p0" transform="translate(16.875 25.9719)"><g class="a15 c1 node n12 p0" transform="translate(11.25 10.0203)"><g class="a12 leaf node n7 p0 sample" transform="translate(0.0 5.80252)"><path class="edge" d="M 0 0 V -5.80252 H 0.0" /><rect class="sym" height="6" width="6" x="-3" y="-3" /><text class="lab" transform="translate(0 11)">7</text></g><path class="edge" d="M 0 0 V -10.0203 H -11.25" /><circle class="sym" cx="0" cy="0" r="3" /><text class="lab rgt" transform="translate(3 -7.0)">12</text></g><g class="a15 c2 node n14 p0" transform="translate(-11.25 6.58948)"><g class="a14 leaf node n5 p0 sample" transform="translate(-7.5 9.23337)"><path class="edge" d="M 0 0 V -9.23337 H 7.5" /><rect class="sym" height="6" width="6" x="-3" y="-3" /><text class="lab" transform="translate(0 11)">5</text></g><g class="a14 leaf node n8 p0 sample" transform="translate(7.5 9.23337)"><path class="edge" d="M 0 0 V -9.23337 H -7.5" /><rect class="sym" height="6" width="6" x="-3" y="-3" /><text class="lab" transform="translate(0 11)">8</text></g><path class="edge" d="M 0 0 V -6.58948 H 11.25" /><circle class="sym" cx="0" cy="0" r="3" /><text class="lab lft" transform="translate(-3 -7.0)">14</text></g><path class="edge" d="M 0 0 V -25.9719 H -16.875" /><circle class="sym" cx="0" cy="0" r="3" /><text class="lab rgt" transform="translate(3 -7.0)">15</text></g><g class="a22 c1 node n20 p0" transform="translate(-16.875 4.38383)"><g class="a20 leaf node n1 p0 sample" transform="translate(0.0 37.4109)"><path class="edge" d="M 0 0 V -37.4109 H 0.0" /><rect class="sym" height="6" width="6" x="-3" y="-3" /><text class="lab" transform="translate(0 11)">1</text></g><path class="edge" d="M 0 0 V -4.38383 H 16.875" /><circle class="sym" cx="0" cy="0" r="3" /><text class="lab lft" transform="translate(-3 -7.0)">20</text></g><path class="edge" d="M 0 0 V -16.3713 H 21.5625" /><circle class="sym" cx="0" cy="0" r="3" /><text class="lab lft" transform="translate(-3 -7.0)">22</text></g><path class="edge" d="M 0 0 V -20.5121 H -32.3438" /><circle class="sym" cx="0" cy="0" r="3" /><text class="lab rgt" transform="translate(3 -7.0)">24</text></g><g class="a26 c2 node n25 p0" transform="translate(-32.3438 17.3717)"><g class="a25 leaf node n3 p0 sample" transform="translate(11.25 61.3065)"><path class="edge" d="M 0 0 V -61.3065 H -11.25" /><rect class="sym" height="6" width="6" x="-3" y="-3" /><text class="lab" transform="translate(0 11)">3</text></g><g class="a25 c2 node n21 p0" transform="translate(-11.25 21.7304)"><g class="a21 c1 node n17 p0" transform="translate(-7.5 17.0362)"><g class="a17 leaf node n0 p0 sample" transform="translate(0.0 22.5399)"><path class="edge" d="M 0 0 V -22.5399 H 0.0" /><rect class="sym" height="6" width="6" x="-3" y="-3" /><text class="lab" transform="translate(0 11)">0</text></g><path class="edge" d="M 0 0 V -17.0362 H 7.5" /><circle class="sym" cx="0" cy="0" r="3" /><text class="lab lft" transform="translate(-3 -7.0)">17</text></g><g class="a21 c1 node n18 p0" transform="translate(7.5 2.94654)"><g class="a18 c1 node n10 p0" transform="translate(0.0 31.7641)"><g class="a10 leaf node n4 p0 sample" transform="translate(0.0 4.86542)"><path class="edge" d="M 0 0 V -4.86542 H 0.0" /><rect class="sym" height="6" width="6" x="-3" y="-3" /><text class="lab" transform="translate(0 11)">4</text></g><path class="edge" d="M 0 0 V -31.7641 H 0.0" /><circle class="sym" cx="0" cy="0" r="3" /><text class="lab lft" transform="translate(-3 -7.0)">10</text></g><path class="edge" d="M 0 0 V -2.94654 H -7.5" /><circle class="sym" cx="0" cy="0" r="3" /><text class="lab rgt" transform="translate(3 -7.0)">18</text></g><path class="edge" d="M 0 0 V -21.7304 H 11.25" /><circle class="sym" cx="0" cy="0" r="3" /><text class="lab lft" transform="translate(-3 -7.0)">21</text></g><path class="edge" d="M 0 0 V -17.3717 H 32.3438" /><circle class="sym" cx="0" cy="0" r="3" /><text class="lab lft" transform="translate(-3 -7.0)">25</text></g><path class="edge" d="M 0 0 V -15.9218 H 38.2031" /><circle class="sym" cx="0" cy="0" r="3" /><text class="lab lft" transform="translate(-3 -7.0)">26</text></g><circle class="sym" cx="0" cy="0" r="3" /><text class="lab" transform="translate(0 -11)">27</text></g></g></g><g class="tree t1" transform="translate(210 0)"><g class="plotbox"><g class="c2 node n27 p0 root" transform="translate(113.516 26.8)"><g class="a27 c1 node n23 p0" transform="translate(41.4844 44.8061)"><g class="a23 c2 node n16 p0" transform="translate(0.0 28.7548)"><g class="a16 leaf node n6 p0 sample" transform="translate(-7.5 21.0391)"><path class="edge" d="M 0 0 V -21.0391 H 7.5" /><rect class="sym" height="6" width="6" x="-3" y="-3" /><text class="lab" transform="translate(0 11)">6</text></g><g class="a16 leaf node n9 p0 sample" transform="translate(7.5 21.0391)"><path class="edge" d="M 0 0 V -21.0391 H -7.5" /><rect class="sym" height="6" width="6" x="-3" y="-3" /><text class="lab" transform="translate(0 11)">9</text></g><path class="edge" d="M 0 0 V -28.7548 H 0.0" /><circle class="sym" cx="0" cy="0" r="3" /><text class="lab lft" transform="translate(-3 -7.0)">16</text></g><path class="edge" d="M 0 0 V -44.8061 H -41.4844" /><circle class="sym" cx="0" cy="0" r="3" /><text class="lab rgt" transform="translate(3 -7.0)">23</text></g><g class="a27 c2 node n26 p0" transform="translate(-41.4844 15.9218)"><g class="a26 c2 node n24 p0" transform="translate(37.0312 20.5121)"><g class="a24 leaf node n2 p0 sample" transform="translate(23.4375 58.1661)"><path class="edge" d="M 0 0 V -58.1661 H -23.4375" /><rect class="sym" height="6" width="6" x="-3" y="-3" /><text class="lab" transform="translate(0 11)">2</text></g><g class="a24 c2 node n22 p0" transform="translate(-23.4375 16.3713)"><g class="a22 c2 node n15 p0" transform="translate(20.625 25.9719)"><g class="a15 c1 node n12 p0" transform="translate(11.25 10.0203)"><g class="a12 leaf node n7 p0 sample" transform="translate(0.0 5.80252)"><path class="edge" d="M 0 0 V -5.80252 H 0.0" /><rect class="sym" height="6" width="6" x="-3" y="-3" /><text class="lab" transform="translate(0 11)">7</text></g><path class="edge" d="M 0 0 V -10.0203 H -11.25" /><circle class="sym" cx="0" cy="0" r="3" /><text class="lab rgt" transform="translate(3 -7.0)">12</text></g><g class="a15 c2 node n14 p0" transform="translate(-11.25 6.58948)"><g class="a14 leaf node n5 p0 sample" transform="translate(-7.5 9.23337)"><path class="edge" d="M 0 0 V -9.23337 H 7.5" /><rect class="sym" height="6" width="6" x="-3" y="-3" /><text class="lab" transform="translate(0 11)">5</text></g><g class="a14 leaf node n8 p0 sample" transform="translate(7.5 9.23337)"><path class="edge" d="M 0 0 V -9.23337 H -7.5" /><rect class="sym" height="6" width="6" x="-3" y="-3" /><text class="lab" transform="translate(0 11)">8</text></g><path class="edge" d="M 0 0 V -6.58948 H 11.25" /><circle class="sym" cx="0" cy="0" r="3" /><text class="lab lft" transform="translate(-3 -7.0)">14</text></g><path class="edge" d="M 0 0 V -25.9719 H -20.625" /><circle class="sym" cx="0" cy="0" r="3" /><text class="lab rgt" transform="translate(3 -7.0)">15</text></g><g class="a22 c2 node n20 p0" transform="translate(-20.625 4.38383)"><g class="a20 leaf node n1 p0 sample" transform="translate(-7.5 37.4109)"><path class="edge" d="M 0 0 V -37.4109 H 7.5" /><rect class="sym" height="6" width="6" x="-3" y="-3" /><text class="lab" transform="translate(0 11)">1</text></g><g class="a20 c1 node n19 p0" transform="translate(7.5 0.781369)"><g class="a19 c1 node n10 p0" transform="translate(0.0 31.7641)"><g class="a10 leaf node n4 p0 sample" transform="translate(0.0 4.86542)"><path class="edge" d="M 0 0 V -4.86542 H 0.0" /><rect class="sym" height="6" width="6" x="-3" y="-3" /><text class="lab" transform="translate(0 11)">4</text></g><path class="edge" d="M 0 0 V -31.7641 H 0.0" /><circle class="sym" cx="0" cy="0" r="3" /><text class="lab lft" transform="translate(-3 -7.0)">10</text></g><path class="edge" d="M 0 0 V -0.781369 H -7.5" /><circle class="sym" cx="0" cy="0" r="3" /><text class="lab rgt" transform="translate(3 -7.0)">19</text></g><path class="edge" d="M 0 0 V -4.38383 H 20.625" /><circle class="sym" cx="0" cy="0" r="3" /><text class="lab lft" transform="translate(-3 -7.0)">20</text></g><path class="edge" d="M 0 0 V -16.3713 H 23.4375" /><circle class="sym" cx="0" cy="0" r="3" /><text class="lab lft" transform="translate(-3 -7.0)">22</text></g><path class="edge" d="M 0 0 V -20.5121 H -37.0312" /><circle class="sym" cx="0" cy="0" r="3" /><text class="lab rgt" transform="translate(3 -7.0)">24</text></g><g class="a26 c2 node n25 p0" transform="translate(-37.0312 17.3717)"><g class="a25 leaf node n3 p0 sample" transform="translate(7.5 61.3065)"><path class="edge" d="M 0 0 V -61.3065 H -7.5" /><rect class="sym" height="6" width="6" x="-3" y="-3" /><text class="lab" transform="translate(0 11)">3</text></g><g class="a25 c1 node n21 p0" transform="translate(-7.5 21.7304)"><g class="a21 c1 node n17 p0" transform="translate(0.0 17.0362)"><g class="a17 leaf node n0 p0 sample" transform="translate(0.0 22.5399)"><path class="edge" d="M 0 0 V -22.5399 H 0.0" /><rect class="sym" height="6" width="6" x="-3" y="-3" /><text class="lab" transform="translate(0 11)">0</text></g><path class="edge" d="M 0 0 V -17.0362 H 0.0" /><circle class="sym" cx="0" cy="0" r="3" /><text class="lab lft" transform="translate(-3 -7.0)">17</text></g><path class="edge" d="M 0 0 V -21.7304 H 7.5" /><circle class="sym" cx="0" cy="0" r="3" /><text class="lab lft" transform="translate(-3 -7.0)">21</text></g><path class="edge" d="M 0 0 V -17.3717 H 37.0312" /><circle class="sym" cx="0" cy="0" r="3" /><text class="lab lft" transform="translate(-3 -7.0)">25</text></g><path class="edge" d="M 0 0 V -15.9218 H 41.4844" /><circle class="sym" cx="0" cy="0" r="3" /><text class="lab lft" transform="translate(-3 -7.0)">26</text></g><circle class="sym" cx="0" cy="0" r="3" /><text class="lab" transform="translate(0 -11)">27</text></g></g></g><g class="tree t2" transform="translate(400 0)"><g class="plotbox"><g class="c2 node n27 p0 root" transform="translate(109.062 26.8)"><g class="a27 c2 node n23 p0" transform="translate(42.1875 44.8061)"><g class="a23 c2 node n16 p0" transform="translate(-11.25 28.7548)"><g class="a16 leaf node n6 p0 sample" transform="translate(-7.5 21.0391)"><path class="edge" d="M 0 0 V -21.0391 H 7.5" /><rect class="sym" height="6" width="6" x="-3" y="-3" /><text class="lab" transform="translate(0 11)">6</text></g><g class="a16 leaf node n9 p0 sample" transform="translate(7.5 21.0391)"><path class="edge" d="M 0 0 V -21.0391 H -7.5" /><rect class="sym" height="6" width="6" x="-3" y="-3" /><text class="lab" transform="translate(0 11)">9</text></g><path class="edge" d="M 0 0 V -28.7548 H 11.25" /><circle class="sym" cx="0" cy="0" r="3" /><text class="lab lft" transform="translate(-3 -7.0)">16</text></g><g class="a23 c1 node n13 p0" transform="translate(11.25 43.9914)"><g class="a13 leaf node n7 p0 sample" transform="translate(0.0 5.80252)"><path class="edge" d="M 0 0 V -5.80252 H 0.0" /><rect class="sym" height="6" width="6" x="-3" y="-3" /><text class="lab" transform="translate(0 11)">7</text></g><path class="edge" d="M 0 0 V -43.9914 H -11.25" /><circle class="sym" cx="0" cy="0" r="3" /><text class="lab rgt" transform="translate(3 -7.0)">13</text></g><path class="edge" d="M 0 0 V -44.8061 H -42.1875" /><circle class="sym" cx="0" cy="0" r="3" /><text class="lab rgt" transform="translate(3 -7.0)">23</text></g><g class="a27 c2 node n26 p0" transform="translate(-42.1875 15.9218)"><g class="a26 c2 node n24 p0" transform="translate(31.875 20.5121)"><g class="a24 leaf node n2 p0 sample" transform="translate(18.75 58.1661)"><path class="edge" d="M 0 0 V -58.1661 H -18.75" /><rect class="sym" height="6" width="6" x="-3" y="-3" /><text class="lab" transform="translate(0 11)">2</text></g><g class="a24 c2 node n22 p0" transform="translate(-18.75 16.3713)"><g class="a22 c1 node n15 p0" transform="translate(15 25.9719)"><g class="a15 c2 node n14 p0" transform="translate(0.0 6.58948)"><g class="a14 leaf node n5 p0 sample" transform="translate(-7.5 9.23337)"><path class="edge" d="M 0 0 V -9.23337 H 7.5" /><rect class="sym" height="6" width="6" x="-3" y="-3" /><text class="lab" transform="translate(0 11)">5</text></g><g class="a14 leaf node n8 p0 sample" transform="translate(7.5 9.23337)"><path class="edge" d="M 0 0 V -9.23337 H -7.5" /><rect class="sym" height="6" width="6" x="-3" y="-3" /><text class="lab" transform="translate(0 11)">8</text></g><path class="edge" d="M 0 0 V -6.58948 H 0.0" /><circle class="sym" cx="0" cy="0" r="3" /><text class="lab lft" transform="translate(-3 -7.0)">14</text></g><path class="edge" d="M 0 0 V -25.9719 H -15" /><circle class="sym" cx="0" cy="0" r="3" /><text class="lab rgt" transform="translate(3 -7.0)">15</text></g><g class="a22 c2 node n20 p0" transform="translate(-15 4.38383)"><g class="a20 leaf node n1 p0 sample" transform="translate(-7.5 37.4109)"><path class="edge" d="M 0 0 V -37.4109 H 7.5" /><rect class="sym" height="6" width="6" x="-3" y="-3" /><text class="lab" transform="translate(0 11)">1</text></g><g class="a20 c1 node n19 p0" transform="translate(7.5 0.781369)"><g class="a19 c1 node n10 p0" transform="translate(0.0 31.7641)"><g class="a10 leaf node n4 p0 sample" transform="translate(0.0 4.86542)"><path class="edge" d="M 0 0 V -4.86542 H 0.0" /><rect class="sym" height="6" width="6" x="-3" y="-3" /><text class="lab" transform="translate(0 11)">4</text></g><path class="edge" d="M 0 0 V -31.7641 H 0.0" /><circle class="sym" cx="0" cy="0" r="3" /><text class="lab lft" transform="translate(-3 -7.0)">10</text></g><path class="edge" d="M 0 0 V -0.781369 H -7.5" /><circle class="sym" cx="0" cy="0" r="3" /><text class="lab rgt" transform="translate(3 -7.0)">19</text></g><path class="edge" d="M 0 0 V -4.38383 H 15" /><circle class="sym" cx="0" cy="0" r="3" /><text class="lab lft" transform="translate(-3 -7.0)">20</text></g><path class="edge" d="M 0 0 V -16.3713 H 18.75" /><circle class="sym" cx="0" cy="0" r="3" /><text class="lab lft" transform="translate(-3 -7.0)">22</text></g><path class="edge" d="M 0 0 V -20.5121 H -31.875" /><circle class="sym" cx="0" cy="0" r="3" /><text class="lab rgt" transform="translate(3 -7.0)">24</text></g><g class="a26 c2 node n25 p0" transform="translate(-31.875 17.3717)"><g class="a25 leaf node n3 p0 sample" transform="translate(7.5 61.3065)"><path class="edge" d="M 0 0 V -61.3065 H -7.5" /><rect class="sym" height="6" width="6" x="-3" y="-3" /><text class="lab" transform="translate(0 11)">3</text></g><g class="a25 c1 node n21 p0" transform="translate(-7.5 21.7304)"><g class="a21 c1 node n17 p0" transform="translate(0.0 17.0362)"><g class="a17 leaf node n0 p0 sample" transform="translate(0.0 22.5399)"><path class="edge" d="M 0 0 V -22.5399 H 0.0" /><rect class="sym" height="6" width="6" x="-3" y="-3" /><text class="lab" transform="translate(0 11)">0</text></g><path class="edge" d="M 0 0 V -17.0362 H 0.0" /><circle class="sym" cx="0" cy="0" r="3" /><text class="lab lft" transform="translate(-3 -7.0)">17</text></g><path class="edge" d="M 0 0 V -21.7304 H 7.5" /><circle class="sym" cx="0" cy="0" r="3" /><text class="lab lft" transform="translate(-3 -7.0)">21</text></g><path class="edge" d="M 0 0 V -17.3717 H 31.875" /><circle class="sym" cx="0" cy="0" r="3" /><text class="lab lft" transform="translate(-3 -7.0)">25</text></g><path class="edge" d="M 0 0 V -15.9218 H 42.1875" /><circle class="sym" cx="0" cy="0" r="3" /><text class="lab lft" transform="translate(-3 -7.0)">26</text></g><circle class="sym" cx="0" cy="0" r="3" /><text class="lab" transform="translate(0 -11)">27</text></g></g></g><g class="tree t3" transform="translate(590 0)"><g class="plotbox"><g class="c2 node n27 p0 root" transform="translate(112.344 26.8)"><g class="a27 c2 node n23 p0" transform="translate(38.9062 44.8061)"><g class="a23 c2 node n16 p0" transform="translate(-11.25 28.7548)"><g class="a16 leaf node n6 p0 sample" transform="translate(-7.5 21.0391)"><path class="edge" d="M 0 0 V -21.0391 H 7.5" /><rect class="sym" height="6" width="6" x="-3" y="-3" /><text class="lab" transform="translate(0 11)">6</text></g><g class="a16 leaf node n9 p0 sample" transform="translate(7.5 21.0391)"><path class="edge" d="M 0 0 V -21.0391 H -7.5" /><rect class="sym" height="6" width="6" x="-3" y="-3" /><text class="lab" transform="translate(0 11)">9</text></g><path class="edge" d="M 0 0 V -28.7548 H 11.25" /><circle class="sym" cx="0" cy="0" r="3" /><text class="lab lft" transform="translate(-3 -7.0)">16</text></g><g class="a23 c1 node n13 p0" transform="translate(11.25 43.9914)"><g class="a13 leaf node n7 p0 sample" transform="translate(0.0 5.80252)"><path class="edge" d="M 0 0 V -5.80252 H 0.0" /><rect class="sym" height="6" width="6" x="-3" y="-3" /><text class="lab" transform="translate(0 11)">7</text></g><path class="edge" d="M 0 0 V -43.9914 H -11.25" /><circle class="sym" cx="0" cy="0" r="3" /><text class="lab rgt" transform="translate(3 -7.0)">13</text></g><path class="edge" d="M 0 0 V -44.8061 H -38.9062" /><circle class="sym" cx="0" cy="0" r="3" /><text class="lab rgt" transform="translate(3 -7.0)">23</text></g><g class="a27 c2 node n26 p0" transform="translate(-38.9062 15.9218)"><g class="a26 c2 node n24 p0" transform="translate(27.1875 20.5121)"><g class="a24 leaf node n2 p0 sample" transform="translate(16.875 58.1661)"><path class="edge" d="M 0 0 V -58.1661 H -16.875" /><rect class="sym" height="6" width="6" x="-3" y="-3" /><text class="lab" transform="translate(0 11)">2</text></g><g class="a24 c2 node n22 p0" transform="translate(-16.875 16.3713)"><g class="a22 c1 node n15 p0" transform="translate(11.25 25.9719)"><g class="a15 c2 node n14 p0" transform="translate(0.0 6.58948)"><g class="a14 leaf node n5 p0 sample" transform="translate(-7.5 9.23337)"><path class="edge" d="M 0 0 V -9.23337 H 7.5" /><rect class="sym" height="6" width="6" x="-3" y="-3" /><text class="lab" transform="translate(0 11)">5</text></g><g class="a14 leaf node n8 p0 sample" transform="translate(7.5 9.23337)"><path class="edge" d="M 0 0 V -9.23337 H -7.5" /><rect class="sym" height="6" width="6" x="-3" y="-3" /><text class="lab" transform="translate(0 11)">8</text></g><path class="edge" d="M 0 0 V -6.58948 H 0.0" /><circle class="sym" cx="0" cy="0" r="3" /><text class="lab lft" transform="translate(-3 -7.0)">14</text></g><path class="edge" d="M 0 0 V -25.9719 H -11.25" /><circle class="sym" cx="0" cy="0" r="3" /><text class="lab rgt" transform="translate(3 -7.0)">15</text></g><g class="a22 c1 node n20 p0" transform="translate(-11.25 4.38383)"><g class="a20 leaf node n1 p0 sample" transform="translate(0.0 37.4109)"><path class="edge" d="M 0 0 V -37.4109 H 0.0" /><rect class="sym" height="6" width="6" x="-3" y="-3" /><text class="lab" transform="translate(0 11)">1</text></g><path class="edge" d="M 0 0 V -4.38383 H 11.25" /><circle class="sym" cx="0" cy="0" r="3" /><text class="lab lft" transform="translate(-3 -7.0)">20</text></g><path class="edge" d="M 0 0 V -16.3713 H 16.875" /><circle class="sym" cx="0" cy="0" r="3" /><text class="lab lft" transform="translate(-3 -7.0)">22</text></g><path class="edge" d="M 0 0 V -20.5121 H -27.1875" /><circle class="sym" cx="0" cy="0" r="3" /><text class="lab rgt" transform="translate(3 -7.0)">24</text></g><g class="a26 c2 node n25 p0" transform="translate(-27.1875 17.3717)"><g class="a25 leaf node n3 p0 sample" transform="translate(11.25 61.3065)"><path class="edge" d="M 0 0 V -61.3065 H -11.25" /><rect class="sym" height="6" width="6" x="-3" y="-3" /><text class="lab" transform="translate(0 11)">3</text></g><g class="a25 c1 node n21 p0" transform="translate(-11.25 21.7304)"><g class="a21 c2 node n17 p0" transform="translate(0.0 17.0362)"><g class="a17 leaf node n0 p0 sample" transform="translate(-7.5 22.5399)"><path class="edge" d="M 0 0 V -22.5399 H 7.5" /><rect class="sym" height="6" width="6" x="-3" y="-3" /><text class="lab" transform="translate(0 11)">0</text></g><g class="a17 c1 node n11 p0" transform="translate(7.5 17.6745)"><g class="a11 leaf node n4 p0 sample" transform="translate(0.0 4.86542)"><path class="edge" d="M 0 0 V -4.86542 H 0.0" /><rect class="sym" height="6" width="6" x="-3" y="-3" /><text class="lab" transform="translate(0 11)">4</text></g><path class="edge" d="M 0 0 V -17.6745 H -7.5" /><circle class="sym" cx="0" cy="0" r="3" /><text class="lab rgt" transform="translate(3 -7.0)">11</text></g><path class="edge" d="M 0 0 V -17.0362 H 0.0" /><circle class="sym" cx="0" cy="0" r="3" /><text class="lab lft" transform="translate(-3 -7.0)">17</text></g><path class="edge" d="M 0 0 V -21.7304 H 11.25" /><circle class="sym" cx="0" cy="0" r="3" /><text class="lab lft" transform="translate(-3 -7.0)">21</text></g><path class="edge" d="M 0 0 V -17.3717 H 27.1875" /><circle class="sym" cx="0" cy="0" r="3" /><text class="lab lft" transform="translate(-3 -7.0)">25</text></g><path class="edge" d="M 0 0 V -15.9218 H 38.9062" /><circle class="sym" cx="0" cy="0" r="3" /><text class="lab lft" transform="translate(-3 -7.0)">26</text></g><circle class="sym" cx="0" cy="0" r="3" /><text class="lab" transform="translate(0 -11)">27</text></g></g></g></g></g></svg>
