<svg baseProfile="full" height="200" version="1.1" width="1200" xmlns="http://www.w3.org/2000/svg" xmlns:ev="http://www.w3.org/2001/xml-events" xmlns:xlink="http://www.w3.org/1999/xlink"><defs><style type="text/css"><![CDATA[.background path {fill: #808080; fill-opacity: 0}.background path:nth-child(odd) {fill-opacity: .1}.axes {font-size: 14px}.x-axis .tick .lab {font-weight: bold; dominant-baseline: hanging}.axes, .tree {font-size: 14px; text-anchor: middle}.axes line, .edge {stroke: black; fill: none}.y-axis .grid {stroke: #FAFAFA}.node > .sym {fill: black; stroke: none}.site > .sym {stroke: black}.mut text {fill: red; font-style: italic}.mut.extra text {fill: hotpink}.mut line {fill: none; stroke: none}.mut .sym {fill: none; stroke: red}.mut.extra .sym {stroke: hotpink}.node .mut .sym {stroke-width: 1.5px}.tree text, .tree-sequence text {dominant-baseline: central}.plotbox .lab.lft {text-anchor: end}.plotbox .lab.rgt {text-anchor: start}]]></style></defs><g class="tree-sequence"><g class="background"><path d="M20,0 l193.333,0 l0,138.2 l109.809,25 l0,5 l-303.143,0 l0,-5 l0,-25 l0,-138.2z" /><path d="M213.333,0 l193.333,0 l0,138.2 l181.816,25 l0,5 l-265.34,0 l0,-5 l-109.809,-25 l0,-138.2z" /><path d="M406.667,0 l193.333,0 l0,138.2 l136.785,25 l0,5 l-148.302,0 l0,-5 l-181.816,-25 l0,-138.2z" /><path d="M600,0 l193.333,0 l0,138.2 l-49.6851,25 l0,5 l-6.86371,0 l0,-5 l-136.785,-25 l0,-138.2z" /><path d="M793.333,0 l193.333,0 l0,138.2 l-175.042,25 l0,5 l-67.9769,0 l0,-5 l49.6851,-25 l0,-138.2z" /><path d="M986.667,0 l193.333,0 l0,138.2 l0,25 l0,5 l-368.375,0 l0,-5 l175.042,-25 l0,-138.2z" /></g><g class="axes"><g class="x-axis"><g transform="translate(600 200)"><text class="lab" text-anchor="middle" transform="translate(0 -11)">Genome position</text></g><line x1="20" x2="1180" y1="163.2" y2="163.2" /><g class="ticks"><g class="tick" transform="translate(20 163.2)"><line x1="0" x2="0" y1="0" y2="5" /><g transform="translate(0 6)"><text class="lab">0.00</text></g></g><g class="tick" transform="translate(323.143 163.2)"><line x1="0" x2="0" y1="0" y2="5" /><g transform="translate(0 6)"><text class="lab">261.33</text></g></g><g class="tick" transform="translate(588.483 163.2)"><line x1="0" x2="0" y1="0" y2="5" /><g transform="translate(0 6)"><text class="lab">490.07</text></g></g><g class="tick" transform="translate(736.785 163.2)"><line x1="0" x2="0" y1="0" y2="5" /><g transform="translate(0 6)"><text class="lab">617.92</text></g></g><g class="tick" transform="translate(743.648 163.2)"><line x1="0" x2="0" y1="0" y2="5" /><g transform="translate(0 6)"><text class="lab">623.83</text></g></g><g class="tick" transform="translate(811.625 163.2)"><line x1="0" x2="0" y1="0" y2="5" /><g transform="translate(0 6)"><text class="lab">682.44</text></g></g><g class="tick" transform="translate(1180 163.2)"><line x1="0" x2="0" y1="0" y2="5" /><g transform="translate(0 6)"><text class="lab">1000.00</text></g></g></g></g></g><g class="plotbox trees"><g class="tree t0" transform="translate(20 0)"><g class="plotbox"><g class="c2 node n33 p0 root" transform="translate(123.26 26.8)"><g class="a33 leaf node n6 p0 sample" transform="translate(42.4062 94.6)"><path class="edge" d="M 0 0 V -94.6 H -42.4062" /><rect class="sym" height="6" width="6" x="-3" y="-3" /><text class="lab" transform="translate(0 11)">6</text></g><g class="a33 c2 node n32 p0" transform="translate(-42.4062 6.51989)"><g class="a32 c2 node n23 p0" transform="translate(-34.0208 55.5906)"><g class="a23 c1 node n10 p0" transform="translate(11.5 31.2094)"><g class="a10 leaf node n2 p0 sample" transform="translate(0.0 1.28007)"><path class="edge" d="M 0 0 V -1.28007 H 0.0" /><rect class="sym" height="6" width="6" x="-3" y="-3" /><text class="lab" transform="translate(0 11)">2</text></g><path class="edge" d="M 0 0 V -31.2094 H -11.5" /><circle class="sym" cx="0" cy="0" r="3" /><text class="lab rgt" transform="translate(3 -7.0)">10</text></g><g class="a23 c1 node n20 p0" transform="translate(-11.5 3.78645)"><g class="a20 c2 node n16 p0" transform="translate(0.0 16.3548)"><g class="a16 leaf node n0 p0 sample" transform="translate(-7.66667 12.3482)"><path class="edge" d="M 0 0 V -12.3482 H 7.66667" /><rect class="sym" height="6" width="6" x="-3" y="-3" /><text class="lab" transform="translate(0 11)">0</text></g><g class="a16 leaf node n8 p0 sample" transform="translate(7.66667 12.3482)"><path class="edge" d="M 0 0 V -12.3482 H -7.66667" /><rect class="sym" height="6" width="6" x="-3" y="-3" /><text class="lab" transform="translate(0 11)">8</text></g><path class="edge" d="M 0 0 V -16.3548 H 0.0" /><circle class="sym" cx="0" cy="0" r="3" /><text class="lab lft" transform="translate(-3 -7.0)">16</text></g><path class="edge" d="M 0 0 V -3.78645 H 11.5" /><circle class="sym" cx="0" cy="0" r="3" /><text class="lab lft" transform="translate(-3 -7.0)">20</text></g><path class="edge" d="M 0 0 V -55.5906 H 34.0208" /><circle class="sym" cx="0" cy="0" r="3" /><text class="lab lft" transform="translate(-3 -7.0)">23</text></g><g class="a32 c2 node n31 p0" transform="translate(34.0208 1.26325)"><g class="a31 c1 node n28 p0" transform="translate(27.7917 29.3228)"><g class="a28 c1 node n27 p0" transform="translate(0.0 6.88544)"><g class="a27 c1 node n26 p0" transform="translate(0.0 4.23107)"><g class="a26 c1 node n24 p0" transform="translate(0.0 8.72366)"><g class="a24 c1 node n18 p0" transform="translate(0.0 19.241)"><g class="a18 c2 node n17 p0" transform="translate(0.0 3.14703)"><g class="a17 leaf node n5 p0 sample" transform="translate(-7.66667 15.2659)"><path class="edge" d="M 0 0 V -15.2659 H 7.66667" /><rect class="sym" height="6" width="6" x="-3" y="-3" /><text class="lab" transform="translate(0 11)">5</text></g><g class="a17 leaf node n9 p0 sample" transform="translate(7.66667 15.2659)"><path class="edge" d="M 0 0 V -15.2659 H -7.66667" /><rect class="sym" height="6" width="6" x="-3" y="-3" /><text class="lab" transform="translate(0 11)">9</text></g><path class="edge" d="M 0 0 V -3.14703 H 0.0" /><circle class="sym" cx="0" cy="0" r="3" /><text class="lab lft" transform="translate(-3 -7.0)">17</text></g><path class="edge" d="M 0 0 V -19.241 H 0.0" /><circle class="sym" cx="0" cy="0" r="3" /><text class="lab lft" transform="translate(-3 -7.0)">18</text></g><path class="edge" d="M 0 0 V -8.72366 H 0.0" /><circle class="sym" cx="0" cy="0" r="3" /><text class="lab lft" transform="translate(-3 -7.0)">24</text></g><path class="edge" d="M 0 0 V -4.23107 H 0.0" /><circle class="sym" cx="0" cy="0" r="3" /><text class="lab lft" transform="translate(-3 -7.0)">26</text></g><path class="edge" d="M 0 0 V -6.88544 H 0.0" /><circle class="sym" cx="0" cy="0" r="3" /><text class="lab lft" transform="translate(-3 -7.0)">27</text></g><path class="edge" d="M 0 0 V -29.3228 H -27.7917" /><circle class="sym" cx="0" cy="0" r="3" /><text class="lab rgt" transform="translate(3 -7.0)">28</text></g><g class="a31 c1 node n30 p0" transform="translate(-27.7917 21.6627)"><g class="a30 c1 node n22 p0" transform="translate(0.0 34.7819)"><g class="a22 c2 node n15 p0" transform="translate(0.0 18.0273)"><g class="a15 c1 node n12 p0" transform="translate(-13.4167 10.8576)"><g class="a12 leaf node n1 p0 sample" transform="translate(0.0 1.48734)"><path class="edge" d="M 0 0 V -1.48734 H 0.0" /><rect class="sym" height="6" width="6" x="-3" y="-3" /><text class="lab" transform="translate(0 11)">1</text></g><path class="edge" d="M 0 0 V -10.8576 H 13.4167" /><circle class="sym" cx="0" cy="0" r="3" /><text class="lab lft" transform="translate(-3 -7.0)">12</text></g><g class="a15 c2 node n14 p0" transform="translate(13.4167 4.90419)"><g class="a14 leaf node n3 p0 sample" transform="translate(-11.5 7.44075)"><path class="edge" d="M 0 0 V -7.44075 H 11.5" /><rect class="sym" height="6" width="6" x="-3" y="-3" /><text class="lab" transform="translate(0 11)">3</text></g><g class="a14 c2 node n13 p0" transform="translate(11.5 0.79981)"><g class="a13 leaf node n4 p0 sample" transform="translate(-7.66667 6.64094)"><path class="edge" d="M 0 0 V -6.64094 H 7.66667" /><rect class="sym" height="6" width="6" x="-3" y="-3" /><text class="lab" transform="translate(0 11)">4</text></g><g class="a13 leaf node n7 p0 sample" transform="translate(7.66667 6.64094)"><path class="edge" d="M 0 0 V -6.64094 H -7.66667" /><rect class="sym" height="6" width="6" x="-3" y="-3" /><text class="lab" transform="translate(0 11)">7</text></g><path class="edge" d="M 0 0 V -0.79981 H -11.5" /><circle class="sym" cx="0" cy="0" r="3" /><text class="lab rgt" transform="translate(3 -7.0)">13</text></g><path class="edge" d="M 0 0 V -4.90419 H -13.4167" /><circle class="sym" cx="0" cy="0" r="3" /><text class="lab rgt" transform="translate(3 -7.0)">14</text></g><path class="edge" d="M 0 0 V -18.0273 H 0.0" /><circle class="sym" cx="0" cy="0" r="3" /><text class="lab lft" transform="translate(-3 -7.0)">15</text></g><path class="edge" d="M 0 0 V -34.7819 H 0.0" /><circle class="sym" cx="0" cy="0" r="3" /><text class="lab lft" transform="translate(-3 -7.0)">22</text></g><path class="edge" d="M 0 0 V -21.6627 H 27.7917" /><circle class="sym" cx="0" cy="0" r="3" /><text class="lab lft" transform="translate(-3 -7.0)">30</text></g><path class="edge" d="M 0 0 V -1.26325 H -34.0208" /><circle class="sym" cx="0" cy="0" r="3" /><text class="lab rgt" transform="translate(3 -7.0)">31</text></g><path class="edge" d="M 0 0 V -6.51989 H 42.4062" /><circle class="sym" cx="0" cy="0" r="3" /><text class="lab lft" transform="translate(-3 -7.0)">32</text></g><circle class="sym" cx="0" cy="0" r="3" /><text class="lab" transform="translate(0 -11)">33</text></g></g></g><g class="tree t1" transform="translate(213.333 0)"><g class="plotbox"><g class="c2 node n33 p0 root" transform="translate(123.26 26.8)"><g class="a33 leaf node n6 p0 sample" transform="translate(42.4062 94.6)"><path class="edge" d="M 0 0 V -94.6 H -42.4062" /><rect class="sym" height="6" width="6" x="-3" y="-3" /><text class="lab" transform="translate(0 11)">6</text></g><g class="a33 c2 node n32 p0" transform="translate(-42.4062 6.51989)"><g class="a32 c2 node n23 p0" transform="translate(-34.0208 55.5906)"><g class="a23 c1 node n10 p0" transform="translate(11.5 31.2094)"><g class="a10 leaf node n2 p0 sample" transform="translate(0.0 1.28007)"><path class="edge" d="M 0 0 V -1.28007 H 0.0" /><rect class="sym" height="6" width="6" x="-3" y="-3" /><text class="lab" transform="translate(0 11)">2</text></g><path class="edge" d="M 0 0 V -31.2094 H -11.5" /><circle class="sym" cx="0" cy="0" r="3" /><text class="lab rgt" transform="translate(3 -7.0)">10</text></g><g class="a23 c1 node n20 p0" transform="translate(-11.5 3.78645)"><g class="a20 c2 node n16 p0" transform="translate(0.0 16.3548)"><g class="a16 leaf node n0 p0 sample" transform="translate(-7.66667 12.3482)"><path class="edge" d="M 0 0 V -12.3482 H 7.66667" /><rect class="sym" height="6" width="6" x="-3" y="-3" /><text class="lab" transform="translate(0 11)">0</text></g><g class="a16 leaf node n8 p0 sample" transform="translate(7.66667 12.3482)"><path class="edge" d="M 0 0 V -12.3482 H -7.66667" /><rect class="sym" height="6" width="6" x="-3" y="-3" /><text class="lab" transform="translate(0 11)">8</text></g><path class="edge" d="M 0 0 V -16.3548 H 0.0" /><circle class="sym" cx="0" cy="0" r="3" /><text class="lab lft" transform="translate(-3 -7.0)">16</text></g><path class="edge" d="M 0 0 V -3.78645 H 11.5" /><circle class="sym" cx="0" cy="0" r="3" /><text class="lab lft" transform="translate(-3 -7.0)">20</text></g><path class="edge" d="M 0 0 V -55.5906 H 34.0208" /><circle class="sym" cx="0" cy="0" r="3" /><text class="lab lft" transform="translate(-3 -7.0)">23</text></g><g class="a32 c2 node n31 p0" transform="translate(34.0208 1.26325)"><g class="a31 c1 node n28 p0" transform="translate(27.7917 29.3228)"><g class="a28 c1 node n27 p0" transform="translate(0.0 6.88544)"><g class="a27 c1 node n25 p0" transform="translate(0.0 12.9547)"><g class="a25 c1 node n18 p0" transform="translate(0.0 19.241)"><g class="a18 c2 node n17 p0" transform="translate(0.0 3.14703)"><g class="a17 leaf node n5 p0 sample" transform="translate(-7.66667 15.2659)"><path class="edge" d="M 0 0 V -15.2659 H 7.66667" /><rect class="sym" height="6" width="6" x="-3" y="-3" /><text class="lab" transform="translate(0 11)">5</text></g><g class="a17 leaf node n9 p0 sample" transform="translate(7.66667 15.2659)"><path class="edge" d="M 0 0 V -15.2659 H -7.66667" /><rect class="sym" height="6" width="6" x="-3" y="-3" /><text class="lab" transform="translate(0 11)">9</text></g><path class="edge" d="M 0 0 V -3.14703 H 0.0" /><circle class="sym" cx="0" cy="0" r="3" /><text class="lab lft" transform="translate(-3 -7.0)">17</text></g><path class="edge" d="M 0 0 V -19.241 H 0.0" /><circle class="sym" cx="0" cy="0" r="3" /><text class="lab lft" transform="translate(-3 -7.0)">18</text></g><path class="edge" d="M 0 0 V -12.9547 H 0.0" /><circle class="sym" cx="0" cy="0" r="3" /><text class="lab lft" transform="translate(-3 -7.0)">25</text></g><path class="edge" d="M 0 0 V -6.88544 H 0.0" /><circle class="sym" cx="0" cy="0" r="3" /><text class="lab lft" transform="translate(-3 -7.0)">27</text></g><path class="edge" d="M 0 0 V -29.3228 H -27.7917" /><circle class="sym" cx="0" cy="0" r="3" /><text class="lab rgt" transform="translate(3 -7.0)">28</text></g><g class="a31 c1 node n30 p0" transform="translate(-27.7917 21.6627)"><g class="a30 c1 node n22 p0" transform="translate(0.0 34.7819)"><g class="a22 c2 node n15 p0" transform="translate(0.0 18.0273)"><g class="a15 c1 node n12 p0" transform="translate(-13.4167 10.8576)"><g class="a12 leaf node n1 p0 sample" transform="translate(0.0 1.48734)"><path class="edge" d="M 0 0 V -1.48734 H 0.0" /><rect class="sym" height="6" width="6" x="-3" y="-3" /><text class="lab" transform="translate(0 11)">1</text></g><path class="edge" d="M 0 0 V -10.8576 H 13.4167" /><circle class="sym" cx="0" cy="0" r="3" /><text class="lab lft" transform="translate(-3 -7.0)">12</text></g><g class="a15 c2 node n14 p0" transform="translate(13.4167 4.90419)"><g class="a14 leaf node n3 p0 sample" transform="translate(-11.5 7.44075)"><path class="edge" d="M 0 0 V -7.44075 H 11.5" /><rect class="sym" height="6" width="6" x="-3" y="-3" /><text class="lab" transform="translate(0 11)">3</text></g><g class="a14 c2 node n13 p0" transform="translate(11.5 0.79981)"><g class="a13 leaf node n4 p0 sample" transform="translate(-7.66667 6.64094)"><path class="edge" d="M 0 0 V -6.64094 H 7.66667" /><rect class="sym" height="6" width="6" x="-3" y="-3" /><text class="lab" transform="translate(0 11)">4</text></g><g class="a13 leaf node n7 p0 sample" transform="translate(7.66667 6.64094)"><path class="edge" d="M 0 0 V -6.64094 H -7.66667" /><rect class="sym" height="6" width="6" x="-3" y="-3" /><text class="lab" transform="translate(0 11)">7</text></g><path class="edge" d="M 0 0 V -0.79981 H -11.5" /><circle class="sym" cx="0" cy="0" r="3" /><text class="lab rgt" transform="translate(3 -7.0)">13</text></g><path class="edge" d="M 0 0 V -4.90419 H -13.4167" /><circle class="sym" cx="0" cy="0" r="3" /><text class="lab rgt" transform="translate(3 -7.0)">14</text></g><path class="edge" d="M 0 0 V -18.0273 H 0.0" /><circle class="sym" cx="0" cy="0" r="3" /><text class="lab lft" transform="translate(-3 -7.0)">15</text></g><path class="edge" d="M 0 0 V -34.7819 H 0.0" /><circle class="sym" cx="0" cy="0" r="3" /><text class="lab lft" transform="translate(-3 -7.0)">22</text></g><path class="edge" d="M 0 0 V -21.6627 H 27.7917" /><circle class="sym" cx="0" cy="0" r="3" /><text class="lab lft" transform="translate(-3 -7.0)">30</text></g><path class="edge" d="M 0 0 V -1.26325 H -34.0208" /><circle class="sym" cx="0" cy="0" r="3" /><text class="lab rgt" transform="translate(3 -7.0)">31</text></g><path class="edge" d="M 0 0 V -6.51989 H 42.4062" /><circle class="sym" cx="0" cy="0" r="3" /><text class="lab lft" transform="translate(-3 -7.0)">32</text></g><circle class="sym" cx="0" cy="0" r="3" /><text class="lab" transform="translate(0 -11)">33</text></g></g></g><g class="tree t2" transform="translate(406.667 0)"><g class="plotbox"><g class="c2 node n33 p0 root" transform="translate(123.26 26.8)"><g class="a33 leaf node n6 p0 sample" transform="translate(42.4062 94.6)"><path class="edge" d="M 0 0 V -94.6 H -42.4062" /><rect class="sym" height="6" width="6" x="-3" y="-3" /><text class="lab" transform="translate(0 11)">6</text></g><g class="a33 c2 node n32 p0" transform="translate(-42.4062 6.51989)"><g class="a32 c2 node n23 p0" transform="translate(-34.0208 55.5906)"><g class="a23 c1 node n10 p0" transform="translate(11.5 31.2094)"><g class="a10 leaf node n2 p0 sample" transform="translate(0.0 1.28007)"><path class="edge" d="M 0 0 V -1.28007 H 0.0" /><rect class="sym" height="6" width="6" x="-3" y="-3" /><text class="lab" transform="translate(0 11)">2</text></g><path class="edge" d="M 0 0 V -31.2094 H -11.5" /><circle class="sym" cx="0" cy="0" r="3" /><text class="lab rgt" transform="translate(3 -7.0)">10</text></g><g class="a23 c1 node n20 p0" transform="translate(-11.5 3.78645)"><g class="a20 c2 node n16 p0" transform="translate(0.0 16.3548)"><g class="a16 leaf node n0 p0 sample" transform="translate(-7.66667 12.3482)"><path class="edge" d="M 0 0 V -12.3482 H 7.66667" /><rect class="sym" height="6" width="6" x="-3" y="-3" /><text class="lab" transform="translate(0 11)">0</text></g><g class="a16 leaf node n8 p0 sample" transform="translate(7.66667 12.3482)"><path class="edge" d="M 0 0 V -12.3482 H -7.66667" /><rect class="sym" height="6" width="6" x="-3" y="-3" /><text class="lab" transform="translate(0 11)">8</text></g><path class="edge" d="M 0 0 V -16.3548 H 0.0" /><circle class="sym" cx="0" cy="0" r="3" /><text class="lab lft" transform="translate(-3 -7.0)">16</text></g><path class="edge" d="M 0 0 V -3.78645 H 11.5" /><circle class="sym" cx="0" cy="0" r="3" /><text class="lab lft" transform="translate(-3 -7.0)">20</text></g><path class="edge" d="M 0 0 V -55.5906 H 34.0208" /><circle class="sym" cx="0" cy="0" r="3" /><text class="lab lft" transform="translate(-3 -7.0)">23</text></g><g class="a32 c1 node n31 p0" transform="translate(34.0208 1.26325)"><g class="a31 c2 node n30 p0" transform="translate(0.0 21.6627)"><g class="a30 c1 node n22 p0" transform="translate(-27.7917 34.7819)"><g class="a22 c2 node n15 p0" transform="translate(0.0 18.0273)"><g class="a15 c1 node n12 p0" transform="translate(-13.4167 10.8576)"><g class="a12 leaf node n1 p0 sample" transform="translate(0.0 1.48734)"><path class="edge" d="M 0 0 V -1.48734 H 0.0" /><rect class="sym" height="6" width="6" x="-3" y="-3" /><text class="lab" transform="translate(0 11)">1</text></g><path class="edge" d="M 0 0 V -10.8576 H 13.4167" /><circle class="sym" cx="0" cy="0" r="3" /><text class="lab lft" transform="translate(-3 -7.0)">12</text></g><g class="a15 c2 node n14 p0" transform="translate(13.4167 4.90419)"><g class="a14 leaf node n3 p0 sample" transform="translate(-11.5 7.44075)"><path class="edge" d="M 0 0 V -7.44075 H 11.5" /><rect class="sym" height="6" width="6" x="-3" y="-3" /><text class="lab" transform="translate(0 11)">3</text></g><g class="a14 c2 node n13 p0" transform="translate(11.5 0.79981)"><g class="a13 leaf node n4 p0 sample" transform="translate(-7.66667 6.64094)"><path class="edge" d="M 0 0 V -6.64094 H 7.66667" /><rect class="sym" height="6" width="6" x="-3" y="-3" /><text class="lab" transform="translate(0 11)">4</text></g><g class="a13 leaf node n7 p0 sample" transform="translate(7.66667 6.64094)"><path class="edge" d="M 0 0 V -6.64094 H -7.66667" /><rect class="sym" height="6" width="6" x="-3" y="-3" /><text class="lab" transform="translate(0 11)">7</text></g><path class="edge" d="M 0 0 V -0.79981 H -11.5" /><circle class="sym" cx="0" cy="0" r="3" /><text class="lab rgt" transform="translate(3 -7.0)">13</text></g><path class="edge" d="M 0 0 V -4.90419 H -13.4167" /><circle class="sym" cx="0" cy="0" r="3" /><text class="lab rgt" transform="translate(3 -7.0)">14</text></g><path class="edge" d="M 0 0 V -18.0273 H 0.0" /><circle class="sym" cx="0" cy="0" r="3" /><text class="lab lft" transform="translate(-3 -7.0)">15</text></g><path class="edge" d="M 0 0 V -34.7819 H 27.7917" /><circle class="sym" cx="0" cy="0" r="3" /><text class="lab lft" transform="translate(-3 -7.0)">22</text></g><g class="a30 c1 node n29 p0" transform="translate(27.7917 7.66003)"><g class="a29 c1 node n27 p0" transform="translate(0.0 6.88544)"><g class="a27 c1 node n25 p0" transform="translate(0.0 12.9547)"><g class="a25 c1 node n18 p0" transform="translate(0.0 19.241)"><g class="a18 c2 node n17 p0" transform="translate(0.0 3.14703)"><g class="a17 leaf node n5 p0 sample" transform="translate(-7.66667 15.2659)"><path class="edge" d="M 0 0 V -15.2659 H 7.66667" /><rect class="sym" height="6" width="6" x="-3" y="-3" /><text class="lab" transform="translate(0 11)">5</text></g><g class="a17 leaf node n9 p0 sample" transform="translate(7.66667 15.2659)"><path class="edge" d="M 0 0 V -15.2659 H -7.66667" /><rect class="sym" height="6" width="6" x="-3" y="-3" /><text class="lab" transform="translate(0 11)">9</text></g><path class="edge" d="M 0 0 V -3.14703 H 0.0" /><circle class="sym" cx="0" cy="0" r="3" /><text class="lab lft" transform="translate(-3 -7.0)">17</text></g><path class="edge" d="M 0 0 V -19.241 H 0.0" /><circle class="sym" cx="0" cy="0" r="3" /><text class="lab lft" transform="translate(-3 -7.0)">18</text></g><path class="edge" d="M 0 0 V -12.9547 H 0.0" /><circle class="sym" cx="0" cy="0" r="3" /><text class="lab lft" transform="translate(-3 -7.0)">25</text></g><path class="edge" d="M 0 0 V -6.88544 H 0.0" /><circle class="sym" cx="0" cy="0" r="3" /><text class="lab lft" transform="translate(-3 -7.0)">27</text></g><path class="edge" d="M 0 0 V -7.66003 H -27.7917" /><circle class="sym" cx="0" cy="0" r="3" /><text class="lab rgt" transform="translate(3 -7.0)">29</text></g><path class="edge" d="M 0 0 V -21.6627 H 0.0" /><circle class="sym" cx="0" cy="0" r="3" /><text class="lab lft" transform="translate(-3 -7.0)">30</text></g><path class="edge" d="M 0 0 V -1.26325 H -34.0208" /><circle class="sym" cx="0" cy="0" r="3" /><text class="lab rgt" transform="translate(3 -7.0)">31</text></g><path class="edge" d="M 0 0 V -6.51989 H 42.4062" /><circle class="sym" cx="0" cy="0" r="3" /><text class="lab lft" transform="translate(-3 -7.0)">32</text></g><circle class="sym" cx="0" cy="0" r="3" /><text class="lab" transform="translate(0 -11)">33</text></g></g></g><g class="tree t3" transform="translate(600 0)"><g class="plotbox"><g class="c2 node n33 p0 root" transform="translate(123.26 26.8)"><g class="a33 leaf node n6 p0 sample" transform="translate(42.4062 94.6)"><path class="edge" d="M 0 0 V -94.6 H -42.4062" /><rect class="sym" height="6" width="6" x="-3" y="-3" /><text class="lab" transform="translate(0 11)">6</text></g><g class="a33 c2 node n32 p0" transform="translate(-42.4062 6.51989)"><g class="a32 c2 node n23 p0" transform="translate(-34.0208 55.5906)"><g class="a23 c1 node n10 p0" transform="translate(11.5 31.2094)"><g class="a10 leaf node n2 p0 sample" transform="translate(0.0 1.28007)"><path class="edge" d="M 0 0 V -1.28007 H 0.0" /><rect class="sym" height="6" width="6" x="-3" y="-3" /><text class="lab" transform="translate(0 11)">2</text></g><path class="edge" d="M 0 0 V -31.2094 H -11.5" /><circle class="sym" cx="0" cy="0" r="3" /><text class="lab rgt" transform="translate(3 -7.0)">10</text></g><g class="a23 c1 node n20 p0" transform="translate(-11.5 3.78645)"><g class="a20 c2 node n16 p0" transform="translate(0.0 16.3548)"><g class="a16 leaf node n0 p0 sample" transform="translate(-7.66667 12.3482)"><path class="edge" d="M 0 0 V -12.3482 H 7.66667" /><rect class="sym" height="6" width="6" x="-3" y="-3" /><text class="lab" transform="translate(0 11)">0</text></g><g class="a16 leaf node n8 p0 sample" transform="translate(7.66667 12.3482)"><path class="edge" d="M 0 0 V -12.3482 H -7.66667" /><rect class="sym" height="6" width="6" x="-3" y="-3" /><text class="lab" transform="translate(0 11)">8</text></g><path class="edge" d="M 0 0 V -16.3548 H 0.0" /><circle class="sym" cx="0" cy="0" r="3" /><text class="lab lft" transform="translate(-3 -7.0)">16</text></g><path class="edge" d="M 0 0 V -3.78645 H 11.5" /><circle class="sym" cx="0" cy="0" r="3" /><text class="lab lft" transform="translate(-3 -7.0)">20</text></g><path class="edge" d="M 0 0 V -55.5906 H 34.0208" /><circle class="sym" cx="0" cy="0" r="3" /><text class="lab lft" transform="translate(-3 -7.0)">23</text></g><g class="a32 c1 node n31 p0" transform="translate(34.0208 1.26325)"><g class="a31 c2 node n30 p0" transform="translate(0.0 21.6627)"><g class="a30 c1 node n22 p0" transform="translate(-27.7917 34.7819)"><g class="a22 c2 node n15 p0" transform="translate(0.0 18.0273)"><g class="a15 c1 node n12 p0" transform="translate(-13.4167 10.8576)"><g class="a12 leaf node n1 p0 sample" transform="translate(0.0 1.48734)"><path class="edge" d="M 0 0 V -1.48734 H 0.0" /><rect class="sym" height="6" width="6" x="-3" y="-3" /><text class="lab" transform="translate(0 11)">1</text></g><path class="edge" d="M 0 0 V -10.8576 H 13.4167" /><circle class="sym" cx="0" cy="0" r="3" /><text class="lab lft" transform="translate(-3 -7.0)">12</text></g><g class="a15 c2 node n14 p0" transform="translate(13.4167 4.90419)"><g class="a14 leaf node n3 p0 sample" transform="translate(-11.5 7.44075)"><path class="edge" d="M 0 0 V -7.44075 H 11.5" /><rect class="sym" height="6" width="6" x="-3" y="-3" /><text class="lab" transform="translate(0 11)">3</text></g><g class="a14 c2 node n13 p0" transform="translate(11.5 0.79981)"><g class="a13 leaf node n4 p0 sample" transform="translate(-7.66667 6.64094)"><path class="edge" d="M 0 0 V -6.64094 H 7.66667" /><rect class="sym" height="6" width="6" x="-3" y="-3" /><text class="lab" transform="translate(0 11)">4</text></g><g class="a13 leaf node n7 p0 sample" transform="translate(7.66667 6.64094)"><path class="edge" d="M 0 0 V -6.64094 H -7.66667" /><rect class="sym" height="6" width="6" x="-3" y="-3" /><text class="lab" transform="translate(0 11)">7</text></g><path class="edge" d="M 0 0 V -0.79981 H -11.5" /><circle class="sym" cx="0" cy="0" r="3" /><text class="lab rgt" transform="translate(3 -7.0)">13</text></g><path class="edge" d="M 0 0 V -4.90419 H -13.4167" /><circle class="sym" cx="0" cy="0" r="3" /><text class="lab rgt" transform="translate(3 -7.0)">14</text></g><path class="edge" d="M 0 0 V -18.0273 H 0.0" /><circle class="sym" cx="0" cy="0" r="3" /><text class="lab lft" transform="translate(-3 -7.0)">15</text></g><path class="edge" d="M 0 0 V -34.7819 H 27.7917" /><circle class="sym" cx="0" cy="0" r="3" /><text class="lab lft" transform="translate(-3 -7.0)">22</text></g><g class="a30 c1 node n29 p0" transform="translate(27.7917 7.66003)"><g class="a29 c1 node n27 p0" transform="translate(0.0 6.88544)"><g class="a27 c1 node n26 p0" transform="translate(0.0 4.23107)"><g class="a26 c1 node n19 p0" transform="translate(0.0 27.9647)"><g class="a19 c2 node n17 p0" transform="translate(0.0 3.14703)"><g class="a17 leaf node n5 p0 sample" transform="translate(-7.66667 15.2659)"><path class="edge" d="M 0 0 V -15.2659 H 7.66667" /><rect class="sym" height="6" width="6" x="-3" y="-3" /><text class="lab" transform="translate(0 11)">5</text></g><g class="a17 leaf node n9 p0 sample" transform="translate(7.66667 15.2659)"><path class="edge" d="M 0 0 V -15.2659 H -7.66667" /><rect class="sym" height="6" width="6" x="-3" y="-3" /><text class="lab" transform="translate(0 11)">9</text></g><path class="edge" d="M 0 0 V -3.14703 H 0.0" /><circle class="sym" cx="0" cy="0" r="3" /><text class="lab lft" transform="translate(-3 -7.0)">17</text></g><path class="edge" d="M 0 0 V -27.9647 H 0.0" /><circle class="sym" cx="0" cy="0" r="3" /><text class="lab lft" transform="translate(-3 -7.0)">19</text></g><path class="edge" d="M 0 0 V -4.23107 H 0.0" /><circle class="sym" cx="0" cy="0" r="3" /><text class="lab lft" transform="translate(-3 -7.0)">26</text></g><path class="edge" d="M 0 0 V -6.88544 H 0.0" /><circle class="sym" cx="0" cy="0" r="3" /><text class="lab lft" transform="translate(-3 -7.0)">27</text></g><path class="edge" d="M 0 0 V -7.66003 H -27.7917" /><circle class="sym" cx="0" cy="0" r="3" /><text class="lab rgt" transform="translate(3 -7.0)">29</text></g><path class="edge" d="M 0 0 V -21.6627 H 0.0" /><circle class="sym" cx="0" cy="0" r="3" /><text class="lab lft" transform="translate(-3 -7.0)">30</text></g><path class="edge" d="M 0 0 V -1.26325 H -34.0208" /><circle class="sym" cx="0" cy="0" r="3" /><text class="lab rgt" transform="translate(3 -7.0)">31</text></g><path class="edge" d="M 0 0 V -6.51989 H 42.4062" /><circle class="sym" cx="0" cy="0" r="3" /><text class="lab lft" transform="translate(-3 -7.0)">32</text></g><circle class="sym" cx="0" cy="0" r="3" /><text class="lab" transform="translate(0 -11)">33</text></g></g></g><g class="tree t4" transform="translate(793.333 0)"><g class="plotbox"><g class="c2 node n33 p0 root" transform="translate(143.026 26.8)"><g class="a33 leaf node n6 p0 sample" transform="translate(22.6406 94.6)"><path class="edge" d="M 0 0 V -94.6 H -22.6406" /><rect class="sym" height="6" width="6" x="-3" y="-3" /><text class="lab" transform="translate(0 11)">6</text></g><g class="a33 c2 node n32 p0" transform="translate(-22.6406 6.51989)"><g class="a32 c1 node n23 p0" transform="translate(29.9479 55.5906)"><g class="a23 c1 node n10 p0" transform="translate(0.0 31.2094)"><g class="a10 leaf node n2 p0 sample" transform="translate(0.0 1.28007)"><path class="edge" d="M 0 0 V -1.28007 H 0.0" /><rect class="sym" height="6" width="6" x="-3" y="-3" /><text class="lab" transform="translate(0 11)">2</text></g><path class="edge" d="M 0 0 V -31.2094 H 0.0" /><circle class="sym" cx="0" cy="0" r="3" /><text class="lab lft" transform="translate(-3 -7.0)">10</text></g><path class="edge" d="M 0 0 V -55.5906 H -29.9479" /><circle class="sym" cx="0" cy="0" r="3" /><text class="lab rgt" transform="translate(3 -7.0)">23</text></g><g class="a32 c1 node n31 p0" transform="translate(-29.9479 1.26325)"><g class="a31 c2 node n30 p0" transform="translate(0.0 21.6627)"><g class="a30 c2 node n22 p0" transform="translate(-36.8958 34.7819)"><g class="a22 c2 node n15 p0" transform="translate(18.2083 18.0273)"><g class="a15 c1 node n12 p0" transform="translate(-13.4167 10.8576)"><g class="a12 leaf node n1 p0 sample" transform="translate(0.0 1.48734)"><path class="edge" d="M 0 0 V -1.48734 H 0.0" /><rect class="sym" height="6" width="6" x="-3" y="-3" /><text class="lab" transform="translate(0 11)">1</text></g><path class="edge" d="M 0 0 V -10.8576 H 13.4167" /><circle class="sym" cx="0" cy="0" r="3" /><text class="lab lft" transform="translate(-3 -7.0)">12</text></g><g class="a15 c2 node n14 p0" transform="translate(13.4167 4.90419)"><g class="a14 leaf node n3 p0 sample" transform="translate(-11.5 7.44075)"><path class="edge" d="M 0 0 V -7.44075 H 11.5" /><rect class="sym" height="6" width="6" x="-3" y="-3" /><text class="lab" transform="translate(0 11)">3</text></g><g class="a14 c2 node n13 p0" transform="translate(11.5 0.79981)"><g class="a13 leaf node n4 p0 sample" transform="translate(-7.66667 6.64094)"><path class="edge" d="M 0 0 V -6.64094 H 7.66667" /><rect class="sym" height="6" width="6" x="-3" y="-3" /><text class="lab" transform="translate(0 11)">4</text></g><g class="a13 leaf node n7 p0 sample" transform="translate(7.66667 6.64094)"><path class="edge" d="M 0 0 V -6.64094 H -7.66667" /><rect class="sym" height="6" width="6" x="-3" y="-3" /><text class="lab" transform="translate(0 11)">7</text></g><path class="edge" d="M 0 0 V -0.79981 H -11.5" /><circle class="sym" cx="0" cy="0" r="3" /><text class="lab rgt" transform="translate(3 -7.0)">13</text></g><path class="edge" d="M 0 0 V -4.90419 H -13.4167" /><circle class="sym" cx="0" cy="0" r="3" /><text class="lab rgt" transform="translate(3 -7.0)">14</text></g><path class="edge" d="M 0 0 V -18.0273 H -18.2083" /><circle class="sym" cx="0" cy="0" r="3" /><text class="lab rgt" transform="translate(3 -7.0)">15</text></g><g class="a22 c1 node n21 p0" transform="translate(-18.2083 1.6692)"><g class="a21 c2 node n16 p0" transform="translate(0.0 16.3548)"><g class="a16 leaf node n0 p0 sample" transform="translate(-7.66667 12.3482)"><path class="edge" d="M 0 0 V -12.3482 H 7.66667" /><rect class="sym" height="6" width="6" x="-3" y="-3" /><text class="lab" transform="translate(0 11)">0</text></g><g class="a16 leaf node n8 p0 sample" transform="translate(7.66667 12.3482)"><path class="edge" d="M 0 0 V -12.3482 H -7.66667" /><rect class="sym" height="6" width="6" x="-3" y="-3" /><text class="lab" transform="translate(0 11)">8</text></g><path class="edge" d="M 0 0 V -16.3548 H 0.0" /><circle class="sym" cx="0" cy="0" r="3" /><text class="lab lft" transform="translate(-3 -7.0)">16</text></g><path class="edge" d="M 0 0 V -1.6692 H 18.2083" /><circle class="sym" cx="0" cy="0" r="3" /><text class="lab lft" transform="translate(-3 -7.0)">21</text></g><path class="edge" d="M 0 0 V -34.7819 H 36.8958" /><circle class="sym" cx="0" cy="0" r="3" /><text class="lab lft" transform="translate(-3 -7.0)">22</text></g><g class="a30 c1 node n29 p0" transform="translate(36.8958 7.66003)"><g class="a29 c1 node n27 p0" transform="translate(0.0 6.88544)"><g class="a27 c1 node n26 p0" transform="translate(0.0 4.23107)"><g class="a26 c1 node n19 p0" transform="translate(0.0 27.9647)"><g class="a19 c2 node n17 p0" transform="translate(0.0 3.14703)"><g class="a17 leaf node n5 p0 sample" transform="translate(-7.66667 15.2659)"><path class="edge" d="M 0 0 V -15.2659 H 7.66667" /><rect class="sym" height="6" width="6" x="-3" y="-3" /><text class="lab" transform="translate(0 11)">5</text></g><g class="a17 leaf node n9 p0 sample" transform="translate(7.66667 15.2659)"><path class="edge" d="M 0 0 V -15.2659 H -7.66667" /><rect class="sym" height="6" width="6" x="-3" y="-3" /><text class="lab" transform="translate(0 11)">9</text></g><path class="edge" d="M 0 0 V -3.14703 H 0.0" /><circle class="sym" cx="0" cy="0" r="3" /><text class="lab lft" transform="translate(-3 -7.0)">17</text></g><path class="edge" d="M 0 0 V -27.9647 H 0.0" /><circle class="sym" cx="0" cy="0" r="3" /><text class="lab lft" transform="translate(-3 -7.0)">19</text></g><path class="edge" d="M 0 0 V -4.23107 H 0.0" /><circle class="sym" cx="0" cy="0" r="3" /><text class="lab lft" transform="translate(-3 -7.0)">26</text></g><path class="edge" d="M 0 0 V -6.88544 H 0.0" /><circle class="sym" cx="0" cy="0" r="3" /><text class="lab lft" transform="translate(-3 -7.0)">27</text></g><path class="edge" d="M 0 0 V -7.66003 H -36.8958" /><circle class="sym" cx="0" cy="0" r="3" /><text class="lab rgt" transform="translate(3 -7.0)">29</text></g><path class="edge" d="M 0 0 V -21.6627 H 0.0" /><circle class="sym" cx="0" cy="0" r="3" /><text class="lab lft" transform="translate(-3 -7.0)">30</text></g><path class="edge" d="M 0 0 V -1.26325 H 29.9479" /><circle class="sym" cx="0" cy="0" r="3" /><text class="lab lft" transform="translate(-3 -7.0)">31</text></g><path class="edge" d="M 0 0 V -6.51989 H 22.6406" /><circle class="sym" cx="0" cy="0" r="3" /><text class="lab lft" transform="translate(-3 -7.0)">32</text></g><circle class="sym" cx="0" cy="0" r="3" /><text class="lab" transform="translate(0 -11)">33</text></g></g></g><g class="tree t5" transform="translate(986.667 0)"><g class="plotbox"><g class="c2 node n33 p0 root" transform="translate(133.323 26.8)"><g class="a33 leaf node n6 p0 sample" transform="translate(32.3438 94.6)"><path class="edge" d="M 0 0 V -94.6 H -32.3438" /><rect class="sym" height="6" width="6" x="-3" y="-3" /><text class="lab" transform="translate(0 11)">6</text></g><g class="a33 c1 node n32 p0" transform="translate(-32.3438 6.51989)"><g class="a32 c1 node n31 p0" transform="translate(0.0 1.26325)"><g class="a31 c2 node n30 p0" transform="translate(0.0 21.6627)"><g class="a30 c2 node n22 p0" transform="translate(-41.6875 34.7819)"><g class="a22 c2 node n15 p0" transform="translate(23.9583 18.0273)"><g class="a15 c2 node n12 p0" transform="translate(-17.25 10.8576)"><g class="a12 leaf node n1 p0 sample" transform="translate(-7.66667 1.48734)"><path class="edge" d="M 0 0 V -1.48734 H 7.66667" /><rect class="sym" height="6" width="6" x="-3" y="-3" /><text class="lab" transform="translate(0 11)">1</text></g><g class="a12 c1 node n11 p0" transform="translate(7.66667 0.207269)"><g class="a11 leaf node n2 p0 sample" transform="translate(0.0 1.28007)"><path class="edge" d="M 0 0 V -1.28007 H 0.0" /><rect class="sym" height="6" width="6" x="-3" y="-3" /><text class="lab" transform="translate(0 11)">2</text></g><path class="edge" d="M 0 0 V -0.207269 H -7.66667" /><circle class="sym" cx="0" cy="0" r="3" /><text class="lab rgt" transform="translate(3 -7.0)">11</text></g><path class="edge" d="M 0 0 V -10.8576 H 17.25" /><circle class="sym" cx="0" cy="0" r="3" /><text class="lab lft" transform="translate(-3 -7.0)">12</text></g><g class="a15 c2 node n14 p0" transform="translate(17.25 4.90419)"><g class="a14 leaf node n3 p0 sample" transform="translate(-11.5 7.44075)"><path class="edge" d="M 0 0 V -7.44075 H 11.5" /><rect class="sym" height="6" width="6" x="-3" y="-3" /><text class="lab" transform="translate(0 11)">3</text></g><g class="a14 c2 node n13 p0" transform="translate(11.5 0.79981)"><g class="a13 leaf node n4 p0 sample" transform="translate(-7.66667 6.64094)"><path class="edge" d="M 0 0 V -6.64094 H 7.66667" /><rect class="sym" height="6" width="6" x="-3" y="-3" /><text class="lab" transform="translate(0 11)">4</text></g><g class="a13 leaf node n7 p0 sample" transform="translate(7.66667 6.64094)"><path class="edge" d="M 0 0 V -6.64094 H -7.66667" /><rect class="sym" height="6" width="6" x="-3" y="-3" /><text class="lab" transform="translate(0 11)">7</text></g><path class="edge" d="M 0 0 V -0.79981 H -11.5" /><circle class="sym" cx="0" cy="0" r="3" /><text class="lab rgt" transform="translate(3 -7.0)">13</text></g><path class="edge" d="M 0 0 V -4.90419 H -17.25" /><circle class="sym" cx="0" cy="0" r="3" /><text class="lab rgt" transform="translate(3 -7.0)">14</text></g><path class="edge" d="M 0 0 V -18.0273 H -23.9583" /><circle class="sym" cx="0" cy="0" r="3" /><text class="lab rgt" transform="translate(3 -7.0)">15</text></g><g class="a22 c1 node n21 p0" transform="translate(-23.9583 1.6692)"><g class="a21 c2 node n16 p0" transform="translate(0.0 16.3548)"><g class="a16 leaf node n0 p0 sample" transform="translate(-7.66667 12.3482)"><path class="edge" d="M 0 0 V -12.3482 H 7.66667" /><rect class="sym" height="6" width="6" x="-3" y="-3" /><text class="lab" transform="translate(0 11)">0</text></g><g class="a16 leaf node n8 p0 sample" transform="translate(7.66667 12.3482)"><path class="edge" d="M 0 0 V -12.3482 H -7.66667" /><rect class="sym" height="6" width="6" x="-3" y="-3" /><text class="lab" transform="translate(0 11)">8</text></g><path class="edge" d="M 0 0 V -16.3548 H 0.0" /><circle class="sym" cx="0" cy="0" r="3" /><text class="lab lft" transform="translate(-3 -7.0)">16</text></g><path class="edge" d="M 0 0 V -1.6692 H 23.9583" /><circle class="sym" cx="0" cy="0" r="3" /><text class="lab lft" transform="translate(-3 -7.0)">21</text></g><path class="edge" d="M 0 0 V -34.7819 H 41.6875" /><circle class="sym" cx="0" cy="0" r="3" /><text class="lab lft" transform="translate(-3 -7.0)">22</text></g><g class="a30 c1 node n29 p0" transform="translate(41.6875 7.66003)"><g class="a29 c1 node n27 p0" transform="translate(0.0 6.88544)"><g class="a27 c1 node n26 p0" transform="translate(0.0 4.23107)"><g class="a26 c1 node n19 p0" transform="translate(0.0 27.9647)"><g class="a19 c2 node n17 p0" transform="translate(0.0 3.14703)"><g class="a17 leaf node n5 p0 sample" transform="translate(-7.66667 15.2659)"><path class="edge" d="M 0 0 V -15.2659 H 7.66667" /><rect class="sym" height="6" width="6" x="-3" y="-3" /><text class="lab" transform="translate(0 11)">5</text></g><g class="a17 leaf node n9 p0 sample" transform="translate(7.66667 15.2659)"><path class="edge" d="M 0 0 V -15.2659 H -7.66667" /><rect class="sym" height="6" width="6" x="-3" y="-3" /><text class="lab" transform="translate(0 11)">9</text></g><path class="edge" d="M 0 0 V -3.14703 H 0.0" /><circle class="sym" cx="0" cy="0" r="3" /><text class="lab lft" transform="translate(-3 -7.0)">17</text></g><path class="edge" d="M 0 0 V -27.9647 H 0.0" /><circle class="sym" cx="0" cy="0" r="3" /><text class="lab lft" transform="translate(-3 -7.0)">19</text></g><path class="edge" d="M 0 0 V -4.23107 H 0.0" /><circle class="sym" cx="0" cy="0" r="3" /><text class="lab lft" transform="translate(-3 -7.0)">26</text></g><path class="edge" d="M 0 0 V -6.88544 H 0.0" /><circle class="sym" cx="0" cy="0" r="3" /><text class="lab lft" transform="translate(-3 -7.0)">27</text></g><path class="edge" d="M 0 0 V -7.66003 H -41.6875" /><circle class="sym" cx="0" cy="0" r="3" /><text class="lab rgt" transform="translate(3 -7.0)">29</text></g><path class="edge" d="M 0 0 V -21.6627 H 0.0" /><circle class="sym" cx="0" cy="0" r="3" /><text class="lab lft" transform="translate(-3 -7.0)">30</text></g><path class="edge" d="M 0 0 V -1.26325 H 0.0" /><circle class="sym" cx="0" cy="0" r="3" /><text class="lab lft" transform="translate(-3 -7.0)">31</text></g><path class="edge" d="M 0 0 V -6.51989 H 32.3438" /><circle class="sym" cx="0" cy="0" r="3" /><text class="lab lft" transform="translate(-3 -7.0)">32</text></g><circle class="sym" cx="0" cy="0" r="3" /><text class="lab" transform="translate(0 -11)">33</text></g></g></g></g></g></svg>
