<svg baseProfile="full" height="200" version="1.1" width="800" xmlns="http://www.w3.org/2000/svg" xmlns:ev="http://www.w3.org/2001/xml-events" xmlns:xlink="http://www.w3.org/1999/xlink"><defs><style type="text/css"><![CDATA[.background path {fill: #808080; fill-opacity: 0}.background path:nth-child(odd) {fill-opacity: .1}.axes {font-size: 14px}.x-axis .tick .lab {font-weight: bold; dominant-baseline: hanging}.axes, .tree {font-size: 14px; text-anchor: middle}.axes line, .edge {stroke: black; fill: none}.y-axis .grid {stroke: #FAFAFA}.node > .sym {fill: black; stroke: none}.site > .sym {stroke: black}.mut text {fill: red; font-style: italic}.mut.extra text {fill: hotpink}.mut line {fill: none; stroke: none}.mut .sym {fill: none; stroke: red}.mut.extra .sym {stroke: hotpink}.node .mut .sym {stroke-width: 1.5px}.tree text, .tree-sequence text {dominant-baseline: central}.plotbox .lab.lft {text-anchor: end}.plotbox .lab.rgt {text-anchor: start}]]></style></defs><g class="tree-sequence"><g class="background"><path d="M20,0 l190,0 l0,138.2 l-157.339,25 l0,5 l-32.6615,0 l0,-5 l0,-25 l0,-138.2z" /><path d="M210,0 l190,0 l0,138.2 l-319.91,25 l0,5 l-27.4289,0 l0,-5 l157.339,-25 l0,-138.2z" /><path d="M400,0 l190,0 l0,138.2 l50.7707,25 l0,5 l-560.68,0 l0,-5 l319.91,-25 l0,-138.2z" /><path d="M590,0 l190,0 l0,138.2 l0,25 l0,5 l-139.229,0 l0,-5 l-50.7707,-25 l0,-138.2z" /></g><g class="axes"><g class="x-axis"><g transform="translate(400 200)"><text class="lab" text-anchor="middle" transform="translate(0 -11)">Genome position</text></g><line x1="20" x2="780" y1="163.2" y2="163.2" /><g class="ticks"><g class="tick" transform="translate(20 163.2)"><line x1="0" x2="0" y1="0" y2="5" /><g transform="translate(0 6)"><text class="lab">0.00</text></g></g><g class="tick" transform="translate(52.6615 163.2)"><line x1="0" x2="0" y1="0" y2="5" /><g transform="translate(0 6)"><text class="lab">42.98</text></g></g><g class="tick" transform="translate(80.0903 163.2)"><line x1="0" x2="0" y1="0" y2="5" /><g transform="translate(0 6)"><text class="lab">79.07</text></g></g><g class="tick" transform="translate(640.771 163.2)"><line x1="0" x2="0" y1="0" y2="5" /><g transform="translate(0 6)"><text class="lab">816.80</text></g></g><g class="tick" transform="translate(780 163.2)"><line x1="0" x2="0" y1="0" y2="5" /><g transform="translate(0 6)"><text class="lab">1000.00</text></g></g></g></g></g><g class="plotbox trees"><g class="tree t0" transform="translate(20 0)"><g class="plotbox"><g class="c2 node n27 p0 root" transform="translate(101.094 26.8)"><g class="a27 c2 node n25 p0" transform="translate(-41.7188 24.1522)"><g class="a25 c2 node n12 p0" transform="translate(-13.125 64.9134)"><g class="a12 leaf node n6 p0 sample" transform="translate(11.25 5.53441)"><path class="edge" d="M 0 0 V -5.53441 H -11.25" /><rect class="sym" height="6" width="6" x="-3" y="-3" /><text class="lab" transform="translate(0 11)">6</text></g><g class="a12 c2 node n10 p0" transform="translate(-11.25 5.23125)"><g class="a10 leaf node n0 p0 sample" transform="translate(-7.5 0.303158)"><path class="edge" d="M 0 0 V -0.303158 H 7.5" /><rect class="sym" height="6" width="6" x="-3" y="-3" /><text class="lab" transform="translate(0 11)">0</text></g><g class="a10 leaf node n2 p0 sample" transform="translate(7.5 0.303158)"><path class="edge" d="M 0 0 V -0.303158 H -7.5" /><rect class="sym" height="6" width="6" x="-3" y="-3" /><text class="lab" transform="translate(0 11)">2</text></g><path class="edge" d="M 0 0 V -5.23125 H 11.25" /><circle class="sym" cx="0" cy="0" r="3" /><text class="lab lft" transform="translate(-3 -7.0)">10</text></g><path class="edge" d="M 0 0 V -64.9134 H 13.125" /><circle class="sym" cx="0" cy="0" r="3" /><text class="lab lft" transform="translate(-3 -7.0)">12</text></g><g class="a25 c1 node n24 p0" transform="translate(13.125 4.72215)"><g class="a24 c1 node n22 p0" transform="translate(0.0 12.1615)"><g class="a22 c1 node n18 p0" transform="translate(0.0 12.888)"><g class="a18 c1 node n16 p0" transform="translate(0.0 5.55927)"><g class="a16 leaf node n4 p0 sample" transform="translate(0.0 35.1169)"><path class="edge" d="M 0 0 V -35.1169 H 0.0" /><rect class="sym" height="6" width="6" x="-3" y="-3" /><text class="lab" transform="translate(0 11)">4</text></g><path class="edge" d="M 0 0 V -5.55927 H 0.0" /><circle class="sym" cx="0" cy="0" r="3" /><text class="lab lft" transform="translate(-3 -7.0)">16</text></g><path class="edge" d="M 0 0 V -12.888 H 0.0" /><circle class="sym" cx="0" cy="0" r="3" /><text class="lab lft" transform="translate(-3 -7.0)">18</text></g><path class="edge" d="M 0 0 V -12.1615 H 0.0" /><circle class="sym" cx="0" cy="0" r="3" /><text class="lab lft" transform="translate(-3 -7.0)">22</text></g><path class="edge" d="M 0 0 V -4.72215 H -13.125" /><circle class="sym" cx="0" cy="0" r="3" /><text class="lab rgt" transform="translate(3 -7.0)">24</text></g><path class="edge" d="M 0 0 V -24.1522 H 41.7188" /><circle class="sym" cx="0" cy="0" r="3" /><text class="lab lft" transform="translate(-3 -7.0)">25</text></g><g class="a27 c1 node n26 p0" transform="translate(41.7188 16.4445)"><g class="a26 c2 node n23 p0" transform="translate(0.0 12.7314)"><g class="a23 c2 node n15 p0" transform="translate(-19.6875 30.4143)"><g class="a15 c2 node n13 p0" transform="translate(-16.875 27.0733)"><g class="a13 leaf node n7 p0 sample" transform="translate(11.25 7.93646)"><path class="edge" d="M 0 0 V -7.93646 H -11.25" /><rect class="sym" height="6" width="6" x="-3" y="-3" /><text class="lab" transform="translate(0 11)">7</text></g><g class="a13 c2 node n11 p0" transform="translate(-11.25 5.20983)"><g class="a11 leaf node n1 p0 sample" transform="translate(-7.5 2.72663)"><path class="edge" d="M 0 0 V -2.72663 H 7.5" /><rect class="sym" height="6" width="6" x="-3" y="-3" /><text class="lab" transform="translate(0 11)">1</text></g><g class="a11 leaf node n9 p0 sample" transform="translate(7.5 2.72663)"><path class="edge" d="M 0 0 V -2.72663 H -7.5" /><rect class="sym" height="6" width="6" x="-3" y="-3" /><text class="lab" transform="translate(0 11)">9</text></g><path class="edge" d="M 0 0 V -5.20983 H 11.25" /><circle class="sym" cx="0" cy="0" r="3" /><text class="lab lft" transform="translate(-3 -7.0)">11</text></g><path class="edge" d="M 0 0 V -27.0733 H 16.875" /><circle class="sym" cx="0" cy="0" r="3" /><text class="lab lft" transform="translate(-3 -7.0)">13</text></g><g class="a15 c2 node n14 p0" transform="translate(16.875 4.76732)"><g class="a14 leaf node n3 p0 sample" transform="translate(-7.5 30.2425)"><path class="edge" d="M 0 0 V -30.2425 H 7.5" /><rect class="sym" height="6" width="6" x="-3" y="-3" /><text class="lab" transform="translate(0 11)">3</text></g><g class="a14 leaf node n5 p0 sample" transform="translate(7.5 30.2425)"><path class="edge" d="M 0 0 V -30.2425 H -7.5" /><rect class="sym" height="6" width="6" x="-3" y="-3" /><text class="lab" transform="translate(0 11)">5</text></g><path class="edge" d="M 0 0 V -4.76732 H -16.875" /><circle class="sym" cx="0" cy="0" r="3" /><text class="lab rgt" transform="translate(3 -7.0)">14</text></g><path class="edge" d="M 0 0 V -30.4143 H 19.6875" /><circle class="sym" cx="0" cy="0" r="3" /><text class="lab lft" transform="translate(-3 -7.0)">15</text></g><g class="a23 c1 node n20 p0" transform="translate(19.6875 15.4951)"><g class="a20 leaf node n8 p0 sample" transform="translate(0.0 49.9291)"><path class="edge" d="M 0 0 V -49.9291 H 0.0" /><rect class="sym" height="6" width="6" x="-3" y="-3" /><text class="lab" transform="translate(0 11)">8</text></g><path class="edge" d="M 0 0 V -15.4951 H -19.6875" /><circle class="sym" cx="0" cy="0" r="3" /><text class="lab rgt" transform="translate(3 -7.0)">20</text></g><path class="edge" d="M 0 0 V -12.7314 H 0.0" /><circle class="sym" cx="0" cy="0" r="3" /><text class="lab lft" transform="translate(-3 -7.0)">23</text></g><path class="edge" d="M 0 0 V -16.4445 H -41.7188" /><circle class="sym" cx="0" cy="0" r="3" /><text class="lab rgt" transform="translate(3 -7.0)">26</text></g><circle class="sym" cx="0" cy="0" r="3" /><text class="lab" transform="translate(0 -11)">27</text></g></g></g><g class="tree t1" transform="translate(210 0)"><g class="plotbox"><g class="c2 node n27 p0 root" transform="translate(100.625 26.8)"><g class="a27 c2 node n25 p0" transform="translate(-37.5 24.1522)"><g class="a25 c2 node n12 p0" transform="translate(-16.875 64.9134)"><g class="a12 leaf node n6 p0 sample" transform="translate(11.25 5.53441)"><path class="edge" d="M 0 0 V -5.53441 H -11.25" /><rect class="sym" height="6" width="6" x="-3" y="-3" /><text class="lab" transform="translate(0 11)">6</text></g><g class="a12 c2 node n10 p0" transform="translate(-11.25 5.23125)"><g class="a10 leaf node n0 p0 sample" transform="translate(-7.5 0.303158)"><path class="edge" d="M 0 0 V -0.303158 H 7.5" /><rect class="sym" height="6" width="6" x="-3" y="-3" /><text class="lab" transform="translate(0 11)">0</text></g><g class="a10 leaf node n2 p0 sample" transform="translate(7.5 0.303158)"><path class="edge" d="M 0 0 V -0.303158 H -7.5" /><rect class="sym" height="6" width="6" x="-3" y="-3" /><text class="lab" transform="translate(0 11)">2</text></g><path class="edge" d="M 0 0 V -5.23125 H 11.25" /><circle class="sym" cx="0" cy="0" r="3" /><text class="lab lft" transform="translate(-3 -7.0)">10</text></g><path class="edge" d="M 0 0 V -64.9134 H 16.875" /><circle class="sym" cx="0" cy="0" r="3" /><text class="lab lft" transform="translate(-3 -7.0)">12</text></g><g class="a25 c1 node n24 p0" transform="translate(16.875 4.72215)"><g class="a24 c2 node n22 p0" transform="translate(0.0 12.1615)"><g class="a22 c1 node n18 p0" transform="translate(-7.5 12.888)"><g class="a18 c1 node n16 p0" transform="translate(0.0 5.55927)"><g class="a16 leaf node n4 p0 sample" transform="translate(0.0 35.1169)"><path class="edge" d="M 0 0 V -35.1169 H 0.0" /><rect class="sym" height="6" width="6" x="-3" y="-3" /><text class="lab" transform="translate(0 11)">4</text></g><path class="edge" d="M 0 0 V -5.55927 H 0.0" /><circle class="sym" cx="0" cy="0" r="3" /><text class="lab lft" transform="translate(-3 -7.0)">16</text></g><path class="edge" d="M 0 0 V -12.888 H 7.5" /><circle class="sym" cx="0" cy="0" r="3" /><text class="lab lft" transform="translate(-3 -7.0)">18</text></g><g class="a22 c1 node n21 p0" transform="translate(7.5 3.6351)"><g class="a21 leaf node n8 p0 sample" transform="translate(0.0 49.9291)"><path class="edge" d="M 0 0 V -49.9291 H 0.0" /><rect class="sym" height="6" width="6" x="-3" y="-3" /><text class="lab" transform="translate(0 11)">8</text></g><path class="edge" d="M 0 0 V -3.6351 H -7.5" /><circle class="sym" cx="0" cy="0" r="3" /><text class="lab rgt" transform="translate(3 -7.0)">21</text></g><path class="edge" d="M 0 0 V -12.1615 H 0.0" /><circle class="sym" cx="0" cy="0" r="3" /><text class="lab lft" transform="translate(-3 -7.0)">22</text></g><path class="edge" d="M 0 0 V -4.72215 H -16.875" /><circle class="sym" cx="0" cy="0" r="3" /><text class="lab rgt" transform="translate(3 -7.0)">24</text></g><path class="edge" d="M 0 0 V -24.1522 H 37.5" /><circle class="sym" cx="0" cy="0" r="3" /><text class="lab lft" transform="translate(-3 -7.0)">25</text></g><g class="a27 c1 node n26 p0" transform="translate(37.5 16.4445)"><g class="a26 c1 node n23 p0" transform="translate(0.0 12.7314)"><g class="a23 c2 node n15 p0" transform="translate(0.0 30.4143)"><g class="a15 c2 node n13 p0" transform="translate(-16.875 27.0733)"><g class="a13 leaf node n7 p0 sample" transform="translate(11.25 7.93646)"><path class="edge" d="M 0 0 V -7.93646 H -11.25" /><rect class="sym" height="6" width="6" x="-3" y="-3" /><text class="lab" transform="translate(0 11)">7</text></g><g class="a13 c2 node n11 p0" transform="translate(-11.25 5.20983)"><g class="a11 leaf node n1 p0 sample" transform="translate(-7.5 2.72663)"><path class="edge" d="M 0 0 V -2.72663 H 7.5" /><rect class="sym" height="6" width="6" x="-3" y="-3" /><text class="lab" transform="translate(0 11)">1</text></g><g class="a11 leaf node n9 p0 sample" transform="translate(7.5 2.72663)"><path class="edge" d="M 0 0 V -2.72663 H -7.5" /><rect class="sym" height="6" width="6" x="-3" y="-3" /><text class="lab" transform="translate(0 11)">9</text></g><path class="edge" d="M 0 0 V -5.20983 H 11.25" /><circle class="sym" cx="0" cy="0" r="3" /><text class="lab lft" transform="translate(-3 -7.0)">11</text></g><path class="edge" d="M 0 0 V -27.0733 H 16.875" /><circle class="sym" cx="0" cy="0" r="3" /><text class="lab lft" transform="translate(-3 -7.0)">13</text></g><g class="a15 c2 node n14 p0" transform="translate(16.875 4.76732)"><g class="a14 leaf node n3 p0 sample" transform="translate(-7.5 30.2425)"><path class="edge" d="M 0 0 V -30.2425 H 7.5" /><rect class="sym" height="6" width="6" x="-3" y="-3" /><text class="lab" transform="translate(0 11)">3</text></g><g class="a14 leaf node n5 p0 sample" transform="translate(7.5 30.2425)"><path class="edge" d="M 0 0 V -30.2425 H -7.5" /><rect class="sym" height="6" width="6" x="-3" y="-3" /><text class="lab" transform="translate(0 11)">5</text></g><path class="edge" d="M 0 0 V -4.76732 H -16.875" /><circle class="sym" cx="0" cy="0" r="3" /><text class="lab rgt" transform="translate(3 -7.0)">14</text></g><path class="edge" d="M 0 0 V -30.4143 H 0.0" /><circle class="sym" cx="0" cy="0" r="3" /><text class="lab lft" transform="translate(-3 -7.0)">15</text></g><path class="edge" d="M 0 0 V -12.7314 H 0.0" /><circle class="sym" cx="0" cy="0" r="3" /><text class="lab lft" transform="translate(-3 -7.0)">23</text></g><path class="edge" d="M 0 0 V -16.4445 H -37.5" /><circle class="sym" cx="0" cy="0" r="3" /><text class="lab rgt" transform="translate(3 -7.0)">26</text></g><circle class="sym" cx="0" cy="0" r="3" /><text class="lab" transform="translate(0 -11)">27</text></g></g></g><g class="tree t2" transform="translate(400 0)"><g class="plotbox"><g class="c2 node n27 p0 root" transform="translate(100.625 26.8)"><g class="a27 c2 node n25 p0" transform="translate(-37.5 24.1522)"><g class="a25 c2 node n12 p0" transform="translate(-16.875 64.9134)"><g class="a12 leaf node n6 p0 sample" transform="translate(11.25 5.53441)"><path class="edge" d="M 0 0 V -5.53441 H -11.25" /><rect class="sym" height="6" width="6" x="-3" y="-3" /><text class="lab" transform="translate(0 11)">6</text></g><g class="a12 c2 node n10 p0" transform="translate(-11.25 5.23125)"><g class="a10 leaf node n0 p0 sample" transform="translate(-7.5 0.303158)"><path class="edge" d="M 0 0 V -0.303158 H 7.5" /><rect class="sym" height="6" width="6" x="-3" y="-3" /><text class="lab" transform="translate(0 11)">0</text></g><g class="a10 leaf node n2 p0 sample" transform="translate(7.5 0.303158)"><path class="edge" d="M 0 0 V -0.303158 H -7.5" /><rect class="sym" height="6" width="6" x="-3" y="-3" /><text class="lab" transform="translate(0 11)">2</text></g><path class="edge" d="M 0 0 V -5.23125 H 11.25" /><circle class="sym" cx="0" cy="0" r="3" /><text class="lab lft" transform="translate(-3 -7.0)">10</text></g><path class="edge" d="M 0 0 V -64.9134 H 16.875" /><circle class="sym" cx="0" cy="0" r="3" /><text class="lab lft" transform="translate(-3 -7.0)">12</text></g><g class="a25 c2 node n24 p0" transform="translate(16.875 4.72215)"><g class="a24 c1 node n22 p0" transform="translate(7.5 12.1615)"><g class="a22 c1 node n21 p0" transform="translate(0.0 3.6351)"><g class="a21 leaf node n8 p0 sample" transform="translate(0.0 49.9291)"><path class="edge" d="M 0 0 V -49.9291 H 0.0" /><rect class="sym" height="6" width="6" x="-3" y="-3" /><text class="lab" transform="translate(0 11)">8</text></g><path class="edge" d="M 0 0 V -3.6351 H 0.0" /><circle class="sym" cx="0" cy="0" r="3" /><text class="lab lft" transform="translate(-3 -7.0)">21</text></g><path class="edge" d="M 0 0 V -12.1615 H -7.5" /><circle class="sym" cx="0" cy="0" r="3" /><text class="lab rgt" transform="translate(3 -7.0)">22</text></g><g class="a24 c1 node n19 p0" transform="translate(-7.5 25.0496)"><g class="a19 c1 node n16 p0" transform="translate(0.0 5.55927)"><g class="a16 leaf node n4 p0 sample" transform="translate(0.0 35.1169)"><path class="edge" d="M 0 0 V -35.1169 H 0.0" /><rect class="sym" height="6" width="6" x="-3" y="-3" /><text class="lab" transform="translate(0 11)">4</text></g><path class="edge" d="M 0 0 V -5.55927 H 0.0" /><circle class="sym" cx="0" cy="0" r="3" /><text class="lab lft" transform="translate(-3 -7.0)">16</text></g><path class="edge" d="M 0 0 V -25.0496 H 7.5" /><circle class="sym" cx="0" cy="0" r="3" /><text class="lab lft" transform="translate(-3 -7.0)">19</text></g><path class="edge" d="M 0 0 V -4.72215 H -16.875" /><circle class="sym" cx="0" cy="0" r="3" /><text class="lab rgt" transform="translate(3 -7.0)">24</text></g><path class="edge" d="M 0 0 V -24.1522 H 37.5" /><circle class="sym" cx="0" cy="0" r="3" /><text class="lab lft" transform="translate(-3 -7.0)">25</text></g><g class="a27 c1 node n26 p0" transform="translate(37.5 16.4445)"><g class="a26 c1 node n23 p0" transform="translate(0.0 12.7314)"><g class="a23 c2 node n15 p0" transform="translate(0.0 30.4143)"><g class="a15 c2 node n13 p0" transform="translate(-16.875 27.0733)"><g class="a13 leaf node n7 p0 sample" transform="translate(11.25 7.93646)"><path class="edge" d="M 0 0 V -7.93646 H -11.25" /><rect class="sym" height="6" width="6" x="-3" y="-3" /><text class="lab" transform="translate(0 11)">7</text></g><g class="a13 c2 node n11 p0" transform="translate(-11.25 5.20983)"><g class="a11 leaf node n1 p0 sample" transform="translate(-7.5 2.72663)"><path class="edge" d="M 0 0 V -2.72663 H 7.5" /><rect class="sym" height="6" width="6" x="-3" y="-3" /><text class="lab" transform="translate(0 11)">1</text></g><g class="a11 leaf node n9 p0 sample" transform="translate(7.5 2.72663)"><path class="edge" d="M 0 0 V -2.72663 H -7.5" /><rect class="sym" height="6" width="6" x="-3" y="-3" /><text class="lab" transform="translate(0 11)">9</text></g><path class="edge" d="M 0 0 V -5.20983 H 11.25" /><circle class="sym" cx="0" cy="0" r="3" /><text class="lab lft" transform="translate(-3 -7.0)">11</text></g><path class="edge" d="M 0 0 V -27.0733 H 16.875" /><circle class="sym" cx="0" cy="0" r="3" /><text class="lab lft" transform="translate(-3 -7.0)">13</text></g><g class="a15 c2 node n14 p0" transform="translate(16.875 4.76732)"><g class="a14 leaf node n3 p0 sample" transform="translate(-7.5 30.2425)"><path class="edge" d="M 0 0 V -30.2425 H 7.5" /><rect class="sym" height="6" width="6" x="-3" y="-3" /><text class="lab" transform="translate(0 11)">3</text></g><g class="a14 leaf node n5 p0 sample" transform="translate(7.5 30.2425)"><path class="edge" d="M 0 0 V -30.2425 H -7.5" /><rect class="sym" height="6" width="6" x="-3" y="-3" /><text class="lab" transform="translate(0 11)">5</text></g><path class="edge" d="M 0 0 V -4.76732 H -16.875" /><circle class="sym" cx="0" cy="0" r="3" /><text class="lab rgt" transform="translate(3 -7.0)">14</text></g><path class="edge" d="M 0 0 V -30.4143 H 0.0" /><circle class="sym" cx="0" cy="0" r="3" /><text class="lab lft" transform="translate(-3 -7.0)">15</text></g><path class="edge" d="M 0 0 V -12.7314 H 0.0" /><circle class="sym" cx="0" cy="0" r="3" /><text class="lab lft" transform="translate(-3 -7.0)">23</text></g><path class="edge" d="M 0 0 V -16.4445 H -37.5" /><circle class="sym" cx="0" cy="0" r="3" /><text class="lab rgt" transform="translate(3 -7.0)">26</text></g><circle class="sym" cx="0" cy="0" r="3" /><text class="lab" transform="translate(0 -11)">27</text></g></g></g><g class="tree t3" transform="translate(590 0)"><g class="plotbox"><g class="c2 node n27 p0 root" transform="translate(101.094 26.8)"><g class="a27 c2 node n25 p0" transform="translate(-41.7188 24.1522)"><g class="a25 c2 node n12 p0" transform="translate(-13.125 64.9134)"><g class="a12 leaf node n6 p0 sample" transform="translate(11.25 5.53441)"><path class="edge" d="M 0 0 V -5.53441 H -11.25" /><rect class="sym" height="6" width="6" x="-3" y="-3" /><text class="lab" transform="translate(0 11)">6</text></g><g class="a12 c2 node n10 p0" transform="translate(-11.25 5.23125)"><g class="a10 leaf node n0 p0 sample" transform="translate(-7.5 0.303158)"><path class="edge" d="M 0 0 V -0.303158 H 7.5" /><rect class="sym" height="6" width="6" x="-3" y="-3" /><text class="lab" transform="translate(0 11)">0</text></g><g class="a10 leaf node n2 p0 sample" transform="translate(7.5 0.303158)"><path class="edge" d="M 0 0 V -0.303158 H -7.5" /><rect class="sym" height="6" width="6" x="-3" y="-3" /><text class="lab" transform="translate(0 11)">2</text></g><path class="edge" d="M 0 0 V -5.23125 H 11.25" /><circle class="sym" cx="0" cy="0" r="3" /><text class="lab lft" transform="translate(-3 -7.0)">10</text></g><path class="edge" d="M 0 0 V -64.9134 H 13.125" /><circle class="sym" cx="0" cy="0" r="3" /><text class="lab lft" transform="translate(-3 -7.0)">12</text></g><g class="a25 c1 node n24 p0" transform="translate(13.125 4.72215)"><g class="a24 c1 node n22 p0" transform="translate(0.0 12.1615)"><g class="a22 c1 node n21 p0" transform="translate(0.0 3.6351)"><g class="a21 leaf node n8 p0 sample" transform="translate(0.0 49.9291)"><path class="edge" d="M 0 0 V -49.9291 H 0.0" /><rect class="sym" height="6" width="6" x="-3" y="-3" /><text class="lab" transform="translate(0 11)">8</text></g><path class="edge" d="M 0 0 V -3.6351 H 0.0" /><circle class="sym" cx="0" cy="0" r="3" /><text class="lab lft" transform="translate(-3 -7.0)">21</text></g><path class="edge" d="M 0 0 V -12.1615 H 0.0" /><circle class="sym" cx="0" cy="0" r="3" /><text class="lab lft" transform="translate(-3 -7.0)">22</text></g><path class="edge" d="M 0 0 V -4.72215 H -13.125" /><circle class="sym" cx="0" cy="0" r="3" /><text class="lab rgt" transform="translate(3 -7.0)">24</text></g><path class="edge" d="M 0 0 V -24.1522 H 41.7188" /><circle class="sym" cx="0" cy="0" r="3" /><text class="lab lft" transform="translate(-3 -7.0)">25</text></g><g class="a27 c2 node n26 p0" transform="translate(41.7188 16.4445)"><g class="a26 c1 node n23 p0" transform="translate(-19.6875 12.7314)"><g class="a23 c2 node n15 p0" transform="translate(0.0 30.4143)"><g class="a15 c2 node n13 p0" transform="translate(-16.875 27.0733)"><g class="a13 leaf node n7 p0 sample" transform="translate(11.25 7.93646)"><path class="edge" d="M 0 0 V -7.93646 H -11.25" /><rect class="sym" height="6" width="6" x="-3" y="-3" /><text class="lab" transform="translate(0 11)">7</text></g><g class="a13 c2 node n11 p0" transform="translate(-11.25 5.20983)"><g class="a11 leaf node n1 p0 sample" transform="translate(-7.5 2.72663)"><path class="edge" d="M 0 0 V -2.72663 H 7.5" /><rect class="sym" height="6" width="6" x="-3" y="-3" /><text class="lab" transform="translate(0 11)">1</text></g><g class="a11 leaf node n9 p0 sample" transform="translate(7.5 2.72663)"><path class="edge" d="M 0 0 V -2.72663 H -7.5" /><rect class="sym" height="6" width="6" x="-3" y="-3" /><text class="lab" transform="translate(0 11)">9</text></g><path class="edge" d="M 0 0 V -5.20983 H 11.25" /><circle class="sym" cx="0" cy="0" r="3" /><text class="lab lft" transform="translate(-3 -7.0)">11</text></g><path class="edge" d="M 0 0 V -27.0733 H 16.875" /><circle class="sym" cx="0" cy="0" r="3" /><text class="lab lft" transform="translate(-3 -7.0)">13</text></g><g class="a15 c2 node n14 p0" transform="translate(16.875 4.76732)"><g class="a14 leaf node n3 p0 sample" transform="translate(-7.5 30.2425)"><path class="edge" d="M 0 0 V -30.2425 H 7.5" /><rect class="sym" height="6" width="6" x="-3" y="-3" /><text class="lab" transform="translate(0 11)">3</text></g><g class="a14 leaf node n5 p0 sample" transform="translate(7.5 30.2425)"><path class="edge" d="M 0 0 V -30.2425 H -7.5" /><rect class="sym" height="6" width="6" x="-3" y="-3" /><text class="lab" transform="translate(0 11)">5</text></g><path class="edge" d="M 0 0 V -4.76732 H -16.875" /><circle class="sym" cx="0" cy="0" r="3" /><text class="lab rgt" transform="translate(3 -7.0)">14</text></g><path class="edge" d="M 0 0 V -30.4143 H 0.0" /><circle class="sym" cx="0" cy="0" r="3" /><text class="lab lft" transform="translate(-3 -7.0)">15</text></g><path class="edge" d="M 0 0 V -12.7314 H 19.6875" /><circle class="sym" cx="0" cy="0" r="3" /><text class="lab lft" transform="translate(-3 -7.0)">23</text></g><g class="a26 c1 node n17 p0" transform="translate(19.6875 43.0386)"><g class="a17 leaf node n4 p0 sample" transform="translate(0.0 35.1169)"><path class="edge" d="M 0 0 V -35.1169 H 0.0" /><rect class="sym" height="6" width="6" x="-3" y="-3" /><text class="lab" transform="translate(0 11)">4</text></g><path class="edge" d="M 0 0 V -43.0386 H -19.6875" /><circle class="sym" cx="0" cy="0" r="3" /><text class="lab rgt" transform="translate(3 -7.0)">17</text></g><path class="edge" d="M 0 0 V -16.4445 H -41.7188" /><circle class="sym" cx="0" cy="0" r="3" /><text class="lab rgt" transform="translate(3 -7.0)">26</text></g><circle class="sym" cx="0" cy="0" r="3" /><text class="lab" transform="translate(0 -11)">27</text></g></g></g></g></g></svg>
