<svg baseProfile="full" height="200" version="1.1" width="1200" xmlns="http://www.w3.org/2000/svg" xmlns:ev="http://www.w3.org/2001/xml-events" xmlns:xlink="http://www.w3.org/1999/xlink"><defs><style type="text/css"><![CDATA[.background path {fill: #808080; fill-opacity: 0}.background path:nth-child(odd) {fill-opacity: .1}.axes {font-size: 14px}.x-axis .tick .lab {font-weight: bold; dominant-baseline: hanging}.axes, .tree {font-size: 14px; text-anchor: middle}.axes line, .edge {stroke: black; fill: none}.y-axis .grid {stroke: #FAFAFA}.node > .sym {fill: black; stroke: none}.site > .sym {stroke: black}.mut text {fill: red; font-style: italic}.mut.extra text {fill: hotpink}.mut line {fill: none; stroke: none}.mut .sym {fill: none; stroke: red}.mut.extra .sym {stroke: hotpink}.node .mut .sym {stroke-width: 1.5px}.tree text, .tree-sequence text {dominant-baseline: central}.plotbox .lab.lft {text-anchor: end}.plotbox .lab.rgt {text-anchor: start}]]></style></defs><g class="tree-sequence"><g class="background"><path d="M20,0 l193.333,0 l0,138.2 l37.4613,25 l0,5 l-230.795,0 l0,-5 l0,-25 l0,-138.2z" /><path d="M213.333,0 l193.333,0 l0,138.2 l240.116,25 l0,5 l-395.988,0 l0,-5 l-37.4613,-25 l0,-138.2z" /><path d="M406.667,0 l193.333,0 l0,138.2 l294.901,25 l0,5 l-248.118,0 l0,-5 l-240.116,-25 l0,-138.2z" /><path d="M600,0 l193.333,0 l0,138.2 l323.458,25 l0,5 l-221.891,0 l0,-5 l-294.901,-25 l0,-138.2z" /><path d="M793.333,0 l193.333,0 l0,138.2 l133.697,25 l0,5 l-3.5719,0 l0,-5 l-323.458,-25 l0,-138.2z" /><path d="M986.667,0 l193.333,0 l0,138.2 l0,25 l0,5 l-59.6366,0 l0,-5 l-133.697,-25 l0,-138.2z" /></g><g class="axes"><g class="x-axis"><g transform="translate(600 200)"><text class="lab" text-anchor="middle" transform="translate(0 -11)">Genome position</text></g><line x1="20" x2="1180" y1="163.2" y2="163.2" /><g class="ticks"><g class="tick" transform="translate(20 163.2)"><line x1="0" x2="0" y1="0" y2="5" /><g transform="translate(0 6)"><text class="lab">0.00</text></g></g><g class="tick" transform="translate(250.795 163.2)"><line x1="0" x2="0" y1="0" y2="5" /><g transform="translate(0 6)"><text class="lab">198.96</text></g></g><g class="tick" transform="translate(646.783 163.2)"><line x1="0" x2="0" y1="0" y2="5" /><g transform="translate(0 6)"><text class="lab">540.33</text></g></g><g class="tick" transform="translate(894.901 163.2)"><line x1="0" x2="0" y1="0" y2="5" /><g transform="translate(0 6)"><text class="lab">754.22</text></g></g><g class="tick" transform="translate(1116.79 163.2)"><line x1="0" x2="0" y1="0" y2="5" /><g transform="translate(0 6)"><text class="lab">945.51</text></g></g><g class="tick" transform="translate(1120.36 163.2)"><line x1="0" x2="0" y1="0" y2="5" /><g transform="translate(0 6)"><text class="lab">948.59</text></g></g><g class="tick" transform="translate(1180 163.2)"><line x1="0" x2="0" y1="0" y2="5" /><g transform="translate(0 6)"><text class="lab">1000.00</text></g></g></g></g></g><g class="plotbox trees"><g class="tree t0" transform="translate(20 0)"><g class="plotbox"><g class="c2 node n33 p0 root" transform="translate(79.2969 26.8)"><g class="a33 c2 node n31 p0" transform="translate(32.4635 17.1519)"><g class="a31 c1 node n24 p0" transform="translate(-38.0938 35.0256)"><g class="a24 c1 node n19 p0" transform="translate(0.0 16.0686)"><g class="a19 c1 node n17 p0" transform="translate(0.0 16.1245)"><g class="a17 leaf node n1 p0 sample" transform="translate(0.0 10.2294)"><path class="edge" d="M 0 0 V -10.2294 H 0.0" /><rect class="sym" height="6" width="6" x="-3" y="-3" /><text class="lab" transform="translate(0 11)">1</text></g><path class="edge" d="M 0 0 V -16.1245 H 0.0" /><circle class="sym" cx="0" cy="0" r="3" /><text class="lab lft" transform="translate(-3 -7.0)">17</text></g><path class="edge" d="M 0 0 V -16.0686 H 0.0" /><circle class="sym" cx="0" cy="0" r="3" /><text class="lab lft" transform="translate(-3 -7.0)">19</text></g><path class="edge" d="M 0 0 V -35.0256 H 38.0938" /><circle class="sym" cx="0" cy="0" r="3" /><text class="lab lft" transform="translate(-3 -7.0)">24</text></g><g class="a31 c2 node n27 p0" transform="translate(38.0938 29.3127)"><g class="a27 c2 node n18 p0" transform="translate(-15.8125 36.1754)"><g class="a18 leaf node n5 p0 sample" transform="translate(16.2917 11.9599)"><path class="edge" d="M 0 0 V -11.9599 H -16.2917" /><rect class="sym" height="6" width="6" x="-3" y="-3" /><text class="lab" transform="translate(0 11)">5</text></g><g class="a18 c2 node n13 p0" transform="translate(-16.2917 7.12871)"><g class="a13 leaf node n7 p0 sample" transform="translate(17.25 4.83122)"><path class="edge" d="M 0 0 V -4.83122 H -17.25" /><rect class="sym" height="6" width="6" x="-3" y="-3" /><text class="lab" transform="translate(0 11)">7</text></g><g class="a13 c2 node n11 p0" transform="translate(-17.25 1.72371)"><g class="a11 leaf node n2 p0 sample" transform="translate(-11.5 3.10751)"><path class="edge" d="M 0 0 V -3.10751 H 11.5" /><rect class="sym" height="6" width="6" x="-3" y="-3" /><text class="lab" transform="translate(0 11)">2</text></g><g class="a11 c2 node n10 p0" transform="translate(11.5 1.59851)"><g class="a10 leaf node n4 p0 sample" transform="translate(-7.66667 1.509)"><path class="edge" d="M 0 0 V -1.509 H 7.66667" /><rect class="sym" height="6" width="6" x="-3" y="-3" /><text class="lab" transform="translate(0 11)">4</text></g><g class="a10 leaf node n8 p0 sample" transform="translate(7.66667 1.509)"><path class="edge" d="M 0 0 V -1.509 H -7.66667" /><rect class="sym" height="6" width="6" x="-3" y="-3" /><text class="lab" transform="translate(0 11)">8</text></g><path class="edge" d="M 0 0 V -1.59851 H -11.5" /><circle class="sym" cx="0" cy="0" r="3" /><text class="lab rgt" transform="translate(3 -7.0)">10</text></g><path class="edge" d="M 0 0 V -1.72371 H 17.25" /><circle class="sym" cx="0" cy="0" r="3" /><text class="lab lft" transform="translate(-3 -7.0)">11</text></g><path class="edge" d="M 0 0 V -7.12871 H 16.2917" /><circle class="sym" cx="0" cy="0" r="3" /><text class="lab lft" transform="translate(-3 -7.0)">13</text></g><path class="edge" d="M 0 0 V -36.1754 H 15.8125" /><circle class="sym" cx="0" cy="0" r="3" /><text class="lab lft" transform="translate(-3 -7.0)">18</text></g><g class="a27 c1 node n26 p0" transform="translate(15.8125 0.392108)"><g class="a26 c1 node n14 p0" transform="translate(0.0 41.0537)"><g class="a14 leaf node n3 p0 sample" transform="translate(0.0 6.68953)"><path class="edge" d="M 0 0 V -6.68953 H 0.0" /><rect class="sym" height="6" width="6" x="-3" y="-3" /><text class="lab" transform="translate(0 11)">3</text></g><path class="edge" d="M 0 0 V -41.0537 H 0.0" /><circle class="sym" cx="0" cy="0" r="3" /><text class="lab lft" transform="translate(-3 -7.0)">14</text></g><path class="edge" d="M 0 0 V -0.392108 H -15.8125" /><circle class="sym" cx="0" cy="0" r="3" /><text class="lab rgt" transform="translate(3 -7.0)">26</text></g><path class="edge" d="M 0 0 V -29.3127 H -38.0938" /><circle class="sym" cx="0" cy="0" r="3" /><text class="lab rgt" transform="translate(3 -7.0)">27</text></g><path class="edge" d="M 0 0 V -17.1519 H -32.4635" /><circle class="sym" cx="0" cy="0" r="3" /><text class="lab rgt" transform="translate(3 -7.0)">31</text></g><g class="a33 c1 node n32 p0" transform="translate(-32.4635 15.2802)"><g class="a32 c1 node n30 p0" transform="translate(0.0 11.0105)"><g class="a30 c1 node n28 p0" transform="translate(0.0 1.69993)"><g class="a28 c1 node n23 p0" transform="translate(0.0 25.5924)"><g class="a23 c2 node n16 p0" transform="translate(0.0 31.0307)"><g class="a16 leaf node n6 p0 sample" transform="translate(11.5 9.98632)"><path class="edge" d="M 0 0 V -9.98632 H -11.5" /><rect class="sym" height="6" width="6" x="-3" y="-3" /><text class="lab" transform="translate(0 11)">6</text></g><g class="a16 c2 node n12 p0" transform="translate(-11.5 5.51687)"><g class="a12 leaf node n0 p0 sample" transform="translate(-7.66667 4.46945)"><path class="edge" d="M 0 0 V -4.46945 H 7.66667" /><rect class="sym" height="6" width="6" x="-3" y="-3" /><text class="lab" transform="translate(0 11)">0</text></g><g class="a12 leaf node n9 p0 sample" transform="translate(7.66667 4.46945)"><path class="edge" d="M 0 0 V -4.46945 H -7.66667" /><rect class="sym" height="6" width="6" x="-3" y="-3" /><text class="lab" transform="translate(0 11)">9</text></g><path class="edge" d="M 0 0 V -5.51687 H 11.5" /><circle class="sym" cx="0" cy="0" r="3" /><text class="lab lft" transform="translate(-3 -7.0)">12</text></g><path class="edge" d="M 0 0 V -31.0307 H 0.0" /><circle class="sym" cx="0" cy="0" r="3" /><text class="lab lft" transform="translate(-3 -7.0)">16</text></g><path class="edge" d="M 0 0 V -25.5924 H 0.0" /><circle class="sym" cx="0" cy="0" r="3" /><text class="lab lft" transform="translate(-3 -7.0)">23</text></g><path class="edge" d="M 0 0 V -1.69993 H 0.0" /><circle class="sym" cx="0" cy="0" r="3" /><text class="lab lft" transform="translate(-3 -7.0)">28</text></g><path class="edge" d="M 0 0 V -11.0105 H 0.0" /><circle class="sym" cx="0" cy="0" r="3" /><text class="lab lft" transform="translate(-3 -7.0)">30</text></g><path class="edge" d="M 0 0 V -15.2802 H 32.4635" /><circle class="sym" cx="0" cy="0" r="3" /><text class="lab lft" transform="translate(-3 -7.0)">32</text></g><circle class="sym" cx="0" cy="0" r="3" /><text class="lab" transform="translate(0 -11)">33</text></g></g></g><g class="tree t1" transform="translate(213.333 0)"><g class="plotbox"><g class="c2 node n33 p0 root" transform="translate(81.0938 26.8)"><g class="a33 c1 node n31 p0" transform="translate(34.2604 17.1519)"><g class="a31 c2 node n27 p0" transform="translate(0.0 29.3127)"><g class="a27 c2 node n18 p0" transform="translate(34.0208 36.1754)"><g class="a18 leaf node n5 p0 sample" transform="translate(16.2917 11.9599)"><path class="edge" d="M 0 0 V -11.9599 H -16.2917" /><rect class="sym" height="6" width="6" x="-3" y="-3" /><text class="lab" transform="translate(0 11)">5</text></g><g class="a18 c2 node n13 p0" transform="translate(-16.2917 7.12871)"><g class="a13 leaf node n7 p0 sample" transform="translate(17.25 4.83122)"><path class="edge" d="M 0 0 V -4.83122 H -17.25" /><rect class="sym" height="6" width="6" x="-3" y="-3" /><text class="lab" transform="translate(0 11)">7</text></g><g class="a13 c2 node n11 p0" transform="translate(-17.25 1.72371)"><g class="a11 leaf node n2 p0 sample" transform="translate(-11.5 3.10751)"><path class="edge" d="M 0 0 V -3.10751 H 11.5" /><rect class="sym" height="6" width="6" x="-3" y="-3" /><text class="lab" transform="translate(0 11)">2</text></g><g class="a11 c2 node n10 p0" transform="translate(11.5 1.59851)"><g class="a10 leaf node n4 p0 sample" transform="translate(-7.66667 1.509)"><path class="edge" d="M 0 0 V -1.509 H 7.66667" /><rect class="sym" height="6" width="6" x="-3" y="-3" /><text class="lab" transform="translate(0 11)">4</text></g><g class="a10 leaf node n8 p0 sample" transform="translate(7.66667 1.509)"><path class="edge" d="M 0 0 V -1.509 H -7.66667" /><rect class="sym" height="6" width="6" x="-3" y="-3" /><text class="lab" transform="translate(0 11)">8</text></g><path class="edge" d="M 0 0 V -1.59851 H -11.5" /><circle class="sym" cx="0" cy="0" r="3" /><text class="lab rgt" transform="translate(3 -7.0)">10</text></g><path class="edge" d="M 0 0 V -1.72371 H 17.25" /><circle class="sym" cx="0" cy="0" r="3" /><text class="lab lft" transform="translate(-3 -7.0)">11</text></g><path class="edge" d="M 0 0 V -7.12871 H 16.2917" /><circle class="sym" cx="0" cy="0" r="3" /><text class="lab lft" transform="translate(-3 -7.0)">13</text></g><path class="edge" d="M 0 0 V -36.1754 H -34.0208" /><circle class="sym" cx="0" cy="0" r="3" /><text class="lab rgt" transform="translate(3 -7.0)">18</text></g><g class="a27 c2 node n26 p0" transform="translate(-34.0208 0.392108)"><g class="a26 c1 node n14 p0" transform="translate(7.66667 41.0537)"><g class="a14 leaf node n3 p0 sample" transform="translate(0.0 6.68953)"><path class="edge" d="M 0 0 V -6.68953 H 0.0" /><rect class="sym" height="6" width="6" x="-3" y="-3" /><text class="lab" transform="translate(0 11)">3</text></g><path class="edge" d="M 0 0 V -41.0537 H -7.66667" /><circle class="sym" cx="0" cy="0" r="3" /><text class="lab rgt" transform="translate(3 -7.0)">14</text></g><g class="a26 c1 node n25 p0" transform="translate(-7.66667 5.3208)"><g class="a25 c1 node n19 p0" transform="translate(0.0 16.0686)"><g class="a19 c1 node n17 p0" transform="translate(0.0 16.1245)"><g class="a17 leaf node n1 p0 sample" transform="translate(0.0 10.2294)"><path class="edge" d="M 0 0 V -10.2294 H 0.0" /><rect class="sym" height="6" width="6" x="-3" y="-3" /><text class="lab" transform="translate(0 11)">1</text></g><path class="edge" d="M 0 0 V -16.1245 H 0.0" /><circle class="sym" cx="0" cy="0" r="3" /><text class="lab lft" transform="translate(-3 -7.0)">17</text></g><path class="edge" d="M 0 0 V -16.0686 H 0.0" /><circle class="sym" cx="0" cy="0" r="3" /><text class="lab lft" transform="translate(-3 -7.0)">19</text></g><path class="edge" d="M 0 0 V -5.3208 H 7.66667" /><circle class="sym" cx="0" cy="0" r="3" /><text class="lab lft" transform="translate(-3 -7.0)">25</text></g><path class="edge" d="M 0 0 V -0.392108 H 34.0208" /><circle class="sym" cx="0" cy="0" r="3" /><text class="lab lft" transform="translate(-3 -7.0)">26</text></g><path class="edge" d="M 0 0 V -29.3127 H 0.0" /><circle class="sym" cx="0" cy="0" r="3" /><text class="lab lft" transform="translate(-3 -7.0)">27</text></g><path class="edge" d="M 0 0 V -17.1519 H -34.2604" /><circle class="sym" cx="0" cy="0" r="3" /><text class="lab rgt" transform="translate(3 -7.0)">31</text></g><g class="a33 c1 node n32 p0" transform="translate(-34.2604 15.2802)"><g class="a32 c1 node n30 p0" transform="translate(0.0 11.0105)"><g class="a30 c1 node n28 p0" transform="translate(0.0 1.69993)"><g class="a28 c1 node n23 p0" transform="translate(0.0 25.5924)"><g class="a23 c2 node n16 p0" transform="translate(0.0 31.0307)"><g class="a16 leaf node n6 p0 sample" transform="translate(11.5 9.98632)"><path class="edge" d="M 0 0 V -9.98632 H -11.5" /><rect class="sym" height="6" width="6" x="-3" y="-3" /><text class="lab" transform="translate(0 11)">6</text></g><g class="a16 c2 node n12 p0" transform="translate(-11.5 5.51687)"><g class="a12 leaf node n0 p0 sample" transform="translate(-7.66667 4.46945)"><path class="edge" d="M 0 0 V -4.46945 H 7.66667" /><rect class="sym" height="6" width="6" x="-3" y="-3" /><text class="lab" transform="translate(0 11)">0</text></g><g class="a12 leaf node n9 p0 sample" transform="translate(7.66667 4.46945)"><path class="edge" d="M 0 0 V -4.46945 H -7.66667" /><rect class="sym" height="6" width="6" x="-3" y="-3" /><text class="lab" transform="translate(0 11)">9</text></g><path class="edge" d="M 0 0 V -5.51687 H 11.5" /><circle class="sym" cx="0" cy="0" r="3" /><text class="lab lft" transform="translate(-3 -7.0)">12</text></g><path class="edge" d="M 0 0 V -31.0307 H 0.0" /><circle class="sym" cx="0" cy="0" r="3" /><text class="lab lft" transform="translate(-3 -7.0)">16</text></g><path class="edge" d="M 0 0 V -25.5924 H 0.0" /><circle class="sym" cx="0" cy="0" r="3" /><text class="lab lft" transform="translate(-3 -7.0)">23</text></g><path class="edge" d="M 0 0 V -1.69993 H 0.0" /><circle class="sym" cx="0" cy="0" r="3" /><text class="lab lft" transform="translate(-3 -7.0)">28</text></g><path class="edge" d="M 0 0 V -11.0105 H 0.0" /><circle class="sym" cx="0" cy="0" r="3" /><text class="lab lft" transform="translate(-3 -7.0)">30</text></g><path class="edge" d="M 0 0 V -15.2802 H 34.2604" /><circle class="sym" cx="0" cy="0" r="3" /><text class="lab lft" transform="translate(-3 -7.0)">32</text></g><circle class="sym" cx="0" cy="0" r="3" /><text class="lab" transform="translate(0 -11)">33</text></g></g></g><g class="tree t2" transform="translate(406.667 0)"><g class="plotbox"><g class="c2 node n33 p0 root" transform="translate(81.0938 26.8)"><g class="a33 c1 node n31 p0" transform="translate(34.2604 17.1519)"><g class="a31 c2 node n27 p0" transform="translate(0.0 29.3127)"><g class="a27 c2 node n18 p0" transform="translate(34.0208 36.1754)"><g class="a18 leaf node n5 p0 sample" transform="translate(16.2917 11.9599)"><path class="edge" d="M 0 0 V -11.9599 H -16.2917" /><rect class="sym" height="6" width="6" x="-3" y="-3" /><text class="lab" transform="translate(0 11)">5</text></g><g class="a18 c2 node n13 p0" transform="translate(-16.2917 7.12871)"><g class="a13 leaf node n7 p0 sample" transform="translate(17.25 4.83122)"><path class="edge" d="M 0 0 V -4.83122 H -17.25" /><rect class="sym" height="6" width="6" x="-3" y="-3" /><text class="lab" transform="translate(0 11)">7</text></g><g class="a13 c2 node n11 p0" transform="translate(-17.25 1.72371)"><g class="a11 leaf node n2 p0 sample" transform="translate(-11.5 3.10751)"><path class="edge" d="M 0 0 V -3.10751 H 11.5" /><rect class="sym" height="6" width="6" x="-3" y="-3" /><text class="lab" transform="translate(0 11)">2</text></g><g class="a11 c2 node n10 p0" transform="translate(11.5 1.59851)"><g class="a10 leaf node n4 p0 sample" transform="translate(-7.66667 1.509)"><path class="edge" d="M 0 0 V -1.509 H 7.66667" /><rect class="sym" height="6" width="6" x="-3" y="-3" /><text class="lab" transform="translate(0 11)">4</text></g><g class="a10 leaf node n8 p0 sample" transform="translate(7.66667 1.509)"><path class="edge" d="M 0 0 V -1.509 H -7.66667" /><rect class="sym" height="6" width="6" x="-3" y="-3" /><text class="lab" transform="translate(0 11)">8</text></g><path class="edge" d="M 0 0 V -1.59851 H -11.5" /><circle class="sym" cx="0" cy="0" r="3" /><text class="lab rgt" transform="translate(3 -7.0)">10</text></g><path class="edge" d="M 0 0 V -1.72371 H 17.25" /><circle class="sym" cx="0" cy="0" r="3" /><text class="lab lft" transform="translate(-3 -7.0)">11</text></g><path class="edge" d="M 0 0 V -7.12871 H 16.2917" /><circle class="sym" cx="0" cy="0" r="3" /><text class="lab lft" transform="translate(-3 -7.0)">13</text></g><path class="edge" d="M 0 0 V -36.1754 H -34.0208" /><circle class="sym" cx="0" cy="0" r="3" /><text class="lab rgt" transform="translate(3 -7.0)">18</text></g><g class="a27 c1 node n26 p0" transform="translate(-34.0208 0.392108)"><g class="a26 c1 node n25 p0" transform="translate(0.0 5.3208)"><g class="a25 c1 node n19 p0" transform="translate(0.0 16.0686)"><g class="a19 c2 node n17 p0" transform="translate(0.0 16.1245)"><g class="a17 leaf node n1 p0 sample" transform="translate(-7.66667 10.2294)"><path class="edge" d="M 0 0 V -10.2294 H 7.66667" /><rect class="sym" height="6" width="6" x="-3" y="-3" /><text class="lab" transform="translate(0 11)">1</text></g><g class="a17 c1 node n15 p0" transform="translate(7.66667 3.53986)"><g class="a15 leaf node n3 p0 sample" transform="translate(0.0 6.68953)"><path class="edge" d="M 0 0 V -6.68953 H 0.0" /><rect class="sym" height="6" width="6" x="-3" y="-3" /><text class="lab" transform="translate(0 11)">3</text></g><path class="edge" d="M 0 0 V -3.53986 H -7.66667" /><circle class="sym" cx="0" cy="0" r="3" /><text class="lab rgt" transform="translate(3 -7.0)">15</text></g><path class="edge" d="M 0 0 V -16.1245 H 0.0" /><circle class="sym" cx="0" cy="0" r="3" /><text class="lab lft" transform="translate(-3 -7.0)">17</text></g><path class="edge" d="M 0 0 V -16.0686 H 0.0" /><circle class="sym" cx="0" cy="0" r="3" /><text class="lab lft" transform="translate(-3 -7.0)">19</text></g><path class="edge" d="M 0 0 V -5.3208 H 0.0" /><circle class="sym" cx="0" cy="0" r="3" /><text class="lab lft" transform="translate(-3 -7.0)">25</text></g><path class="edge" d="M 0 0 V -0.392108 H 34.0208" /><circle class="sym" cx="0" cy="0" r="3" /><text class="lab lft" transform="translate(-3 -7.0)">26</text></g><path class="edge" d="M 0 0 V -29.3127 H 0.0" /><circle class="sym" cx="0" cy="0" r="3" /><text class="lab lft" transform="translate(-3 -7.0)">27</text></g><path class="edge" d="M 0 0 V -17.1519 H -34.2604" /><circle class="sym" cx="0" cy="0" r="3" /><text class="lab rgt" transform="translate(3 -7.0)">31</text></g><g class="a33 c1 node n32 p0" transform="translate(-34.2604 15.2802)"><g class="a32 c1 node n30 p0" transform="translate(0.0 11.0105)"><g class="a30 c1 node n28 p0" transform="translate(0.0 1.69993)"><g class="a28 c1 node n23 p0" transform="translate(0.0 25.5924)"><g class="a23 c2 node n16 p0" transform="translate(0.0 31.0307)"><g class="a16 leaf node n6 p0 sample" transform="translate(11.5 9.98632)"><path class="edge" d="M 0 0 V -9.98632 H -11.5" /><rect class="sym" height="6" width="6" x="-3" y="-3" /><text class="lab" transform="translate(0 11)">6</text></g><g class="a16 c2 node n12 p0" transform="translate(-11.5 5.51687)"><g class="a12 leaf node n0 p0 sample" transform="translate(-7.66667 4.46945)"><path class="edge" d="M 0 0 V -4.46945 H 7.66667" /><rect class="sym" height="6" width="6" x="-3" y="-3" /><text class="lab" transform="translate(0 11)">0</text></g><g class="a12 leaf node n9 p0 sample" transform="translate(7.66667 4.46945)"><path class="edge" d="M 0 0 V -4.46945 H -7.66667" /><rect class="sym" height="6" width="6" x="-3" y="-3" /><text class="lab" transform="translate(0 11)">9</text></g><path class="edge" d="M 0 0 V -5.51687 H 11.5" /><circle class="sym" cx="0" cy="0" r="3" /><text class="lab lft" transform="translate(-3 -7.0)">12</text></g><path class="edge" d="M 0 0 V -31.0307 H 0.0" /><circle class="sym" cx="0" cy="0" r="3" /><text class="lab lft" transform="translate(-3 -7.0)">16</text></g><path class="edge" d="M 0 0 V -25.5924 H 0.0" /><circle class="sym" cx="0" cy="0" r="3" /><text class="lab lft" transform="translate(-3 -7.0)">23</text></g><path class="edge" d="M 0 0 V -1.69993 H 0.0" /><circle class="sym" cx="0" cy="0" r="3" /><text class="lab lft" transform="translate(-3 -7.0)">28</text></g><path class="edge" d="M 0 0 V -11.0105 H 0.0" /><circle class="sym" cx="0" cy="0" r="3" /><text class="lab lft" transform="translate(-3 -7.0)">30</text></g><path class="edge" d="M 0 0 V -15.2802 H 34.2604" /><circle class="sym" cx="0" cy="0" r="3" /><text class="lab lft" transform="translate(-3 -7.0)">32</text></g><circle class="sym" cx="0" cy="0" r="3" /><text class="lab" transform="translate(0 -11)">33</text></g></g></g><g class="tree t3" transform="translate(600 0)"><g class="plotbox"><g class="c2 node n33 p0 root" transform="translate(106.729 26.8)"><g class="a33 c1 node n31 p0" transform="translate(42.6458 17.1519)"><g class="a31 c1 node n27 p0" transform="translate(0.0 29.3127)"><g class="a27 c2 node n18 p0" transform="translate(0.0 36.1754)"><g class="a18 leaf node n5 p0 sample" transform="translate(16.2917 11.9599)"><path class="edge" d="M 0 0 V -11.9599 H -16.2917" /><rect class="sym" height="6" width="6" x="-3" y="-3" /><text class="lab" transform="translate(0 11)">5</text></g><g class="a18 c2 node n13 p0" transform="translate(-16.2917 7.12871)"><g class="a13 leaf node n7 p0 sample" transform="translate(17.25 4.83122)"><path class="edge" d="M 0 0 V -4.83122 H -17.25" /><rect class="sym" height="6" width="6" x="-3" y="-3" /><text class="lab" transform="translate(0 11)">7</text></g><g class="a13 c2 node n11 p0" transform="translate(-17.25 1.72371)"><g class="a11 leaf node n2 p0 sample" transform="translate(-11.5 3.10751)"><path class="edge" d="M 0 0 V -3.10751 H 11.5" /><rect class="sym" height="6" width="6" x="-3" y="-3" /><text class="lab" transform="translate(0 11)">2</text></g><g class="a11 c2 node n10 p0" transform="translate(11.5 1.59851)"><g class="a10 leaf node n4 p0 sample" transform="translate(-7.66667 1.509)"><path class="edge" d="M 0 0 V -1.509 H 7.66667" /><rect class="sym" height="6" width="6" x="-3" y="-3" /><text class="lab" transform="translate(0 11)">4</text></g><g class="a10 leaf node n8 p0 sample" transform="translate(7.66667 1.509)"><path class="edge" d="M 0 0 V -1.509 H -7.66667" /><rect class="sym" height="6" width="6" x="-3" y="-3" /><text class="lab" transform="translate(0 11)">8</text></g><path class="edge" d="M 0 0 V -1.59851 H -11.5" /><circle class="sym" cx="0" cy="0" r="3" /><text class="lab rgt" transform="translate(3 -7.0)">10</text></g><path class="edge" d="M 0 0 V -1.72371 H 17.25" /><circle class="sym" cx="0" cy="0" r="3" /><text class="lab lft" transform="translate(-3 -7.0)">11</text></g><path class="edge" d="M 0 0 V -7.12871 H 16.2917" /><circle class="sym" cx="0" cy="0" r="3" /><text class="lab lft" transform="translate(-3 -7.0)">13</text></g><path class="edge" d="M 0 0 V -36.1754 H 0.0" /><circle class="sym" cx="0" cy="0" r="3" /><text class="lab lft" transform="translate(-3 -7.0)">18</text></g><path class="edge" d="M 0 0 V -29.3127 H 0.0" /><circle class="sym" cx="0" cy="0" r="3" /><text class="lab lft" transform="translate(-3 -7.0)">27</text></g><path class="edge" d="M 0 0 V -17.1519 H -42.6458" /><circle class="sym" cx="0" cy="0" r="3" /><text class="lab rgt" transform="translate(3 -7.0)">31</text></g><g class="a33 c1 node n32 p0" transform="translate(-42.6458 15.2802)"><g class="a32 c2 node n30 p0" transform="translate(0.0 11.0105)"><g class="a30 c1 node n28 p0" transform="translate(-17.25 1.69993)"><g class="a28 c1 node n23 p0" transform="translate(0.0 25.5924)"><g class="a23 c2 node n16 p0" transform="translate(0.0 31.0307)"><g class="a16 leaf node n6 p0 sample" transform="translate(11.5 9.98632)"><path class="edge" d="M 0 0 V -9.98632 H -11.5" /><rect class="sym" height="6" width="6" x="-3" y="-3" /><text class="lab" transform="translate(0 11)">6</text></g><g class="a16 c2 node n12 p0" transform="translate(-11.5 5.51687)"><g class="a12 leaf node n0 p0 sample" transform="translate(-7.66667 4.46945)"><path class="edge" d="M 0 0 V -4.46945 H 7.66667" /><rect class="sym" height="6" width="6" x="-3" y="-3" /><text class="lab" transform="translate(0 11)">0</text></g><g class="a12 leaf node n9 p0 sample" transform="translate(7.66667 4.46945)"><path class="edge" d="M 0 0 V -4.46945 H -7.66667" /><rect class="sym" height="6" width="6" x="-3" y="-3" /><text class="lab" transform="translate(0 11)">9</text></g><path class="edge" d="M 0 0 V -5.51687 H 11.5" /><circle class="sym" cx="0" cy="0" r="3" /><text class="lab lft" transform="translate(-3 -7.0)">12</text></g><path class="edge" d="M 0 0 V -31.0307 H 0.0" /><circle class="sym" cx="0" cy="0" r="3" /><text class="lab lft" transform="translate(-3 -7.0)">16</text></g><path class="edge" d="M 0 0 V -25.5924 H 0.0" /><circle class="sym" cx="0" cy="0" r="3" /><text class="lab lft" transform="translate(-3 -7.0)">23</text></g><path class="edge" d="M 0 0 V -1.69993 H 17.25" /><circle class="sym" cx="0" cy="0" r="3" /><text class="lab lft" transform="translate(-3 -7.0)">28</text></g><g class="a30 c1 node n21 p0" transform="translate(17.25 28.6619)"><g class="a21 c1 node n20 p0" transform="translate(0.0 13.2936)"><g class="a20 c2 node n17 p0" transform="translate(0.0 16.1245)"><g class="a17 leaf node n1 p0 sample" transform="translate(-7.66667 10.2294)"><path class="edge" d="M 0 0 V -10.2294 H 7.66667" /><rect class="sym" height="6" width="6" x="-3" y="-3" /><text class="lab" transform="translate(0 11)">1</text></g><g class="a17 c1 node n15 p0" transform="translate(7.66667 3.53986)"><g class="a15 leaf node n3 p0 sample" transform="translate(0.0 6.68953)"><path class="edge" d="M 0 0 V -6.68953 H 0.0" /><rect class="sym" height="6" width="6" x="-3" y="-3" /><text class="lab" transform="translate(0 11)">3</text></g><path class="edge" d="M 0 0 V -3.53986 H -7.66667" /><circle class="sym" cx="0" cy="0" r="3" /><text class="lab rgt" transform="translate(3 -7.0)">15</text></g><path class="edge" d="M 0 0 V -16.1245 H 0.0" /><circle class="sym" cx="0" cy="0" r="3" /><text class="lab lft" transform="translate(-3 -7.0)">17</text></g><path class="edge" d="M 0 0 V -13.2936 H 0.0" /><circle class="sym" cx="0" cy="0" r="3" /><text class="lab lft" transform="translate(-3 -7.0)">20</text></g><path class="edge" d="M 0 0 V -28.6619 H -17.25" /><circle class="sym" cx="0" cy="0" r="3" /><text class="lab rgt" transform="translate(3 -7.0)">21</text></g><path class="edge" d="M 0 0 V -11.0105 H 0.0" /><circle class="sym" cx="0" cy="0" r="3" /><text class="lab lft" transform="translate(-3 -7.0)">30</text></g><path class="edge" d="M 0 0 V -15.2802 H 42.6458" /><circle class="sym" cx="0" cy="0" r="3" /><text class="lab lft" transform="translate(-3 -7.0)">32</text></g><circle class="sym" cx="0" cy="0" r="3" /><text class="lab" transform="translate(0 -11)">33</text></g></g></g><g class="tree t4" transform="translate(793.333 0)"><g class="plotbox"><g class="c2 node n33 p0 root" transform="translate(106.729 26.8)"><g class="a33 c1 node n31 p0" transform="translate(42.6458 17.1519)"><g class="a31 c1 node n27 p0" transform="translate(0.0 29.3127)"><g class="a27 c2 node n18 p0" transform="translate(0.0 36.1754)"><g class="a18 leaf node n5 p0 sample" transform="translate(16.2917 11.9599)"><path class="edge" d="M 0 0 V -11.9599 H -16.2917" /><rect class="sym" height="6" width="6" x="-3" y="-3" /><text class="lab" transform="translate(0 11)">5</text></g><g class="a18 c2 node n13 p0" transform="translate(-16.2917 7.12871)"><g class="a13 leaf node n7 p0 sample" transform="translate(17.25 4.83122)"><path class="edge" d="M 0 0 V -4.83122 H -17.25" /><rect class="sym" height="6" width="6" x="-3" y="-3" /><text class="lab" transform="translate(0 11)">7</text></g><g class="a13 c2 node n11 p0" transform="translate(-17.25 1.72371)"><g class="a11 leaf node n2 p0 sample" transform="translate(-11.5 3.10751)"><path class="edge" d="M 0 0 V -3.10751 H 11.5" /><rect class="sym" height="6" width="6" x="-3" y="-3" /><text class="lab" transform="translate(0 11)">2</text></g><g class="a11 c2 node n10 p0" transform="translate(11.5 1.59851)"><g class="a10 leaf node n4 p0 sample" transform="translate(-7.66667 1.509)"><path class="edge" d="M 0 0 V -1.509 H 7.66667" /><rect class="sym" height="6" width="6" x="-3" y="-3" /><text class="lab" transform="translate(0 11)">4</text></g><g class="a10 leaf node n8 p0 sample" transform="translate(7.66667 1.509)"><path class="edge" d="M 0 0 V -1.509 H -7.66667" /><rect class="sym" height="6" width="6" x="-3" y="-3" /><text class="lab" transform="translate(0 11)">8</text></g><path class="edge" d="M 0 0 V -1.59851 H -11.5" /><circle class="sym" cx="0" cy="0" r="3" /><text class="lab rgt" transform="translate(3 -7.0)">10</text></g><path class="edge" d="M 0 0 V -1.72371 H 17.25" /><circle class="sym" cx="0" cy="0" r="3" /><text class="lab lft" transform="translate(-3 -7.0)">11</text></g><path class="edge" d="M 0 0 V -7.12871 H 16.2917" /><circle class="sym" cx="0" cy="0" r="3" /><text class="lab lft" transform="translate(-3 -7.0)">13</text></g><path class="edge" d="M 0 0 V -36.1754 H 0.0" /><circle class="sym" cx="0" cy="0" r="3" /><text class="lab lft" transform="translate(-3 -7.0)">18</text></g><path class="edge" d="M 0 0 V -29.3127 H 0.0" /><circle class="sym" cx="0" cy="0" r="3" /><text class="lab lft" transform="translate(-3 -7.0)">27</text></g><path class="edge" d="M 0 0 V -17.1519 H -42.6458" /><circle class="sym" cx="0" cy="0" r="3" /><text class="lab rgt" transform="translate(3 -7.0)">31</text></g><g class="a33 c2 node n32 p0" transform="translate(-42.6458 15.2802)"><g class="a32 c1 node n30 p0" transform="translate(17.25 11.0105)"><g class="a30 c1 node n21 p0" transform="translate(0.0 28.6619)"><g class="a21 c1 node n20 p0" transform="translate(0.0 13.2936)"><g class="a20 c2 node n17 p0" transform="translate(0.0 16.1245)"><g class="a17 leaf node n1 p0 sample" transform="translate(-7.66667 10.2294)"><path class="edge" d="M 0 0 V -10.2294 H 7.66667" /><rect class="sym" height="6" width="6" x="-3" y="-3" /><text class="lab" transform="translate(0 11)">1</text></g><g class="a17 c1 node n15 p0" transform="translate(7.66667 3.53986)"><g class="a15 leaf node n3 p0 sample" transform="translate(0.0 6.68953)"><path class="edge" d="M 0 0 V -6.68953 H 0.0" /><rect class="sym" height="6" width="6" x="-3" y="-3" /><text class="lab" transform="translate(0 11)">3</text></g><path class="edge" d="M 0 0 V -3.53986 H -7.66667" /><circle class="sym" cx="0" cy="0" r="3" /><text class="lab rgt" transform="translate(3 -7.0)">15</text></g><path class="edge" d="M 0 0 V -16.1245 H 0.0" /><circle class="sym" cx="0" cy="0" r="3" /><text class="lab lft" transform="translate(-3 -7.0)">17</text></g><path class="edge" d="M 0 0 V -13.2936 H 0.0" /><circle class="sym" cx="0" cy="0" r="3" /><text class="lab lft" transform="translate(-3 -7.0)">20</text></g><path class="edge" d="M 0 0 V -28.6619 H 0.0" /><circle class="sym" cx="0" cy="0" r="3" /><text class="lab lft" transform="translate(-3 -7.0)">21</text></g><path class="edge" d="M 0 0 V -11.0105 H -17.25" /><circle class="sym" cx="0" cy="0" r="3" /><text class="lab rgt" transform="translate(3 -7.0)">30</text></g><g class="a32 c1 node n29 p0" transform="translate(-17.25 12.7104)"><g class="a29 c1 node n23 p0" transform="translate(0.0 25.5924)"><g class="a23 c2 node n16 p0" transform="translate(0.0 31.0307)"><g class="a16 leaf node n6 p0 sample" transform="translate(11.5 9.98632)"><path class="edge" d="M 0 0 V -9.98632 H -11.5" /><rect class="sym" height="6" width="6" x="-3" y="-3" /><text class="lab" transform="translate(0 11)">6</text></g><g class="a16 c2 node n12 p0" transform="translate(-11.5 5.51687)"><g class="a12 leaf node n0 p0 sample" transform="translate(-7.66667 4.46945)"><path class="edge" d="M 0 0 V -4.46945 H 7.66667" /><rect class="sym" height="6" width="6" x="-3" y="-3" /><text class="lab" transform="translate(0 11)">0</text></g><g class="a12 leaf node n9 p0 sample" transform="translate(7.66667 4.46945)"><path class="edge" d="M 0 0 V -4.46945 H -7.66667" /><rect class="sym" height="6" width="6" x="-3" y="-3" /><text class="lab" transform="translate(0 11)">9</text></g><path class="edge" d="M 0 0 V -5.51687 H 11.5" /><circle class="sym" cx="0" cy="0" r="3" /><text class="lab lft" transform="translate(-3 -7.0)">12</text></g><path class="edge" d="M 0 0 V -31.0307 H 0.0" /><circle class="sym" cx="0" cy="0" r="3" /><text class="lab lft" transform="translate(-3 -7.0)">16</text></g><path class="edge" d="M 0 0 V -25.5924 H 0.0" /><circle class="sym" cx="0" cy="0" r="3" /><text class="lab lft" transform="translate(-3 -7.0)">23</text></g><path class="edge" d="M 0 0 V -12.7104 H 17.25" /><circle class="sym" cx="0" cy="0" r="3" /><text class="lab lft" transform="translate(-3 -7.0)">29</text></g><path class="edge" d="M 0 0 V -15.2802 H 42.6458" /><circle class="sym" cx="0" cy="0" r="3" /><text class="lab lft" transform="translate(-3 -7.0)">32</text></g><circle class="sym" cx="0" cy="0" r="3" /><text class="lab" transform="translate(0 -11)">33</text></g></g></g><g class="tree t5" transform="translate(986.667 0)"><g class="plotbox"><g class="c2 node n33 p0 root" transform="translate(106.729 26.8)"><g class="a33 c1 node n31 p0" transform="translate(42.6458 17.1519)"><g class="a31 c1 node n27 p0" transform="translate(0.0 29.3127)"><g class="a27 c2 node n18 p0" transform="translate(0.0 36.1754)"><g class="a18 leaf node n5 p0 sample" transform="translate(16.2917 11.9599)"><path class="edge" d="M 0 0 V -11.9599 H -16.2917" /><rect class="sym" height="6" width="6" x="-3" y="-3" /><text class="lab" transform="translate(0 11)">5</text></g><g class="a18 c2 node n13 p0" transform="translate(-16.2917 7.12871)"><g class="a13 leaf node n7 p0 sample" transform="translate(17.25 4.83122)"><path class="edge" d="M 0 0 V -4.83122 H -17.25" /><rect class="sym" height="6" width="6" x="-3" y="-3" /><text class="lab" transform="translate(0 11)">7</text></g><g class="a13 c2 node n11 p0" transform="translate(-17.25 1.72371)"><g class="a11 leaf node n2 p0 sample" transform="translate(-11.5 3.10751)"><path class="edge" d="M 0 0 V -3.10751 H 11.5" /><rect class="sym" height="6" width="6" x="-3" y="-3" /><text class="lab" transform="translate(0 11)">2</text></g><g class="a11 c2 node n10 p0" transform="translate(11.5 1.59851)"><g class="a10 leaf node n4 p0 sample" transform="translate(-7.66667 1.509)"><path class="edge" d="M 0 0 V -1.509 H 7.66667" /><rect class="sym" height="6" width="6" x="-3" y="-3" /><text class="lab" transform="translate(0 11)">4</text></g><g class="a10 leaf node n8 p0 sample" transform="translate(7.66667 1.509)"><path class="edge" d="M 0 0 V -1.509 H -7.66667" /><rect class="sym" height="6" width="6" x="-3" y="-3" /><text class="lab" transform="translate(0 11)">8</text></g><path class="edge" d="M 0 0 V -1.59851 H -11.5" /><circle class="sym" cx="0" cy="0" r="3" /><text class="lab rgt" transform="translate(3 -7.0)">10</text></g><path class="edge" d="M 0 0 V -1.72371 H 17.25" /><circle class="sym" cx="0" cy="0" r="3" /><text class="lab lft" transform="translate(-3 -7.0)">11</text></g><path class="edge" d="M 0 0 V -7.12871 H 16.2917" /><circle class="sym" cx="0" cy="0" r="3" /><text class="lab lft" transform="translate(-3 -7.0)">13</text></g><path class="edge" d="M 0 0 V -36.1754 H 0.0" /><circle class="sym" cx="0" cy="0" r="3" /><text class="lab lft" transform="translate(-3 -7.0)">18</text></g><path class="edge" d="M 0 0 V -29.3127 H 0.0" /><circle class="sym" cx="0" cy="0" r="3" /><text class="lab lft" transform="translate(-3 -7.0)">27</text></g><path class="edge" d="M 0 0 V -17.1519 H -42.6458" /><circle class="sym" cx="0" cy="0" r="3" /><text class="lab rgt" transform="translate(3 -7.0)">31</text></g><g class="a33 c1 node n32 p0" transform="translate(-42.6458 15.2802)"><g class="a32 c1 node n29 p0" transform="translate(0.0 12.7104)"><g class="a29 c2 node n23 p0" transform="translate(0.0 25.5924)"><g class="a23 c2 node n16 p0" transform="translate(-17.25 31.0307)"><g class="a16 leaf node n6 p0 sample" transform="translate(11.5 9.98632)"><path class="edge" d="M 0 0 V -9.98632 H -11.5" /><rect class="sym" height="6" width="6" x="-3" y="-3" /><text class="lab" transform="translate(0 11)">6</text></g><g class="a16 c2 node n12 p0" transform="translate(-11.5 5.51687)"><g class="a12 leaf node n0 p0 sample" transform="translate(-7.66667 4.46945)"><path class="edge" d="M 0 0 V -4.46945 H 7.66667" /><rect class="sym" height="6" width="6" x="-3" y="-3" /><text class="lab" transform="translate(0 11)">0</text></g><g class="a12 leaf node n9 p0 sample" transform="translate(7.66667 4.46945)"><path class="edge" d="M 0 0 V -4.46945 H -7.66667" /><rect class="sym" height="6" width="6" x="-3" y="-3" /><text class="lab" transform="translate(0 11)">9</text></g><path class="edge" d="M 0 0 V -5.51687 H 11.5" /><circle class="sym" cx="0" cy="0" r="3" /><text class="lab lft" transform="translate(-3 -7.0)">12</text></g><path class="edge" d="M 0 0 V -31.0307 H 17.25" /><circle class="sym" cx="0" cy="0" r="3" /><text class="lab lft" transform="translate(-3 -7.0)">16</text></g><g class="a23 c1 node n22 p0" transform="translate(17.25 1.36957)"><g class="a22 c1 node n20 p0" transform="translate(0.0 13.2936)"><g class="a20 c2 node n17 p0" transform="translate(0.0 16.1245)"><g class="a17 leaf node n1 p0 sample" transform="translate(-7.66667 10.2294)"><path class="edge" d="M 0 0 V -10.2294 H 7.66667" /><rect class="sym" height="6" width="6" x="-3" y="-3" /><text class="lab" transform="translate(0 11)">1</text></g><g class="a17 c1 node n15 p0" transform="translate(7.66667 3.53986)"><g class="a15 leaf node n3 p0 sample" transform="translate(0.0 6.68953)"><path class="edge" d="M 0 0 V -6.68953 H 0.0" /><rect class="sym" height="6" width="6" x="-3" y="-3" /><text class="lab" transform="translate(0 11)">3</text></g><path class="edge" d="M 0 0 V -3.53986 H -7.66667" /><circle class="sym" cx="0" cy="0" r="3" /><text class="lab rgt" transform="translate(3 -7.0)">15</text></g><path class="edge" d="M 0 0 V -16.1245 H 0.0" /><circle class="sym" cx="0" cy="0" r="3" /><text class="lab lft" transform="translate(-3 -7.0)">17</text></g><path class="edge" d="M 0 0 V -13.2936 H 0.0" /><circle class="sym" cx="0" cy="0" r="3" /><text class="lab lft" transform="translate(-3 -7.0)">20</text></g><path class="edge" d="M 0 0 V -1.36957 H -17.25" /><circle class="sym" cx="0" cy="0" r="3" /><text class="lab rgt" transform="translate(3 -7.0)">22</text></g><path class="edge" d="M 0 0 V -25.5924 H 0.0" /><circle class="sym" cx="0" cy="0" r="3" /><text class="lab lft" transform="translate(-3 -7.0)">23</text></g><path class="edge" d="M 0 0 V -12.7104 H 0.0" /><circle class="sym" cx="0" cy="0" r="3" /><text class="lab lft" transform="translate(-3 -7.0)">29</text></g><path class="edge" d="M 0 0 V -15.2802 H 42.6458" /><circle class="sym" cx="0" cy="0" r="3" /><text class="lab lft" transform="translate(-3 -7.0)">32</text></g><circle class="sym" cx="0" cy="0" r="3" /><text class="lab" transform="translate(0 -11)">33</text></g></g></g></g></g></svg>
