<svg baseProfile="full" height="200" version="1.1" width="400" xmlns="http://www.w3.org/2000/svg" xmlns:ev="http://www.w3.org/2001/xml-events" xmlns:xlink="http://www.w3.org/1999/xlink"><defs><style type="text/css"><![CDATA[.background path {fill: #808080; fill-opacity: 0}.background path:nth-child(odd) {fill-opacity: .1}.axes {font-size: 14px}.x-axis .tick .lab {font-weight: bold; dominant-baseline: hanging}.axes, .tree {font-size: 14px; text-anchor: middle}.axes line, .edge {stroke: black; fill: none}.y-axis .grid {stroke: #FAFAFA}.node > .sym {fill: black; stroke: none}.site > .sym {stroke: black}.mut text {fill: red; font-style: italic}.mut.extra text {fill: hotpink}.mut line {fill: none; stroke: none}.mut .sym {fill: none; stroke: red}.mut.extra .sym {stroke: hotpink}.node .mut .sym {stroke-width: 1.5px}.tree text, .tree-sequence text {dominant-baseline: central}.plotbox .lab.lft {text-anchor: end}.plotbox .lab.rgt {text-anchor: start}]]></style></defs><g class="tree-sequence"><g class="background"><path d="M20,0 l180,0 l0,138.2 l13.3614,25 l0,5 l-193.361,0 l0,-5 l0,-25 l0,-138.2z" /><path d="M200,0 l180,0 l0,138.2 l0,25 l0,5 l-166.639,0 l0,-5 l-13.3614,-25 l0,-138.2z" /></g><g class="axes"><g class="x-axis"><g transform="translate(200 200)"><text class="lab" text-anchor="middle" transform="translate(0 -11)">Genome position</text></g><line x1="20" x2="380" y1="163.2" y2="163.2" /><g class="ticks"><g class="tick" transform="translate(20 163.2)"><line x1="0" x2="0" y1="0" y2="5" /><g transform="translate(0 6)"><text class="lab">0.00</text></g></g><g class="tick" transform="translate(213.361 163.2)"><line x1="0" x2="0" y1="0" y2="5" /><g transform="translate(0 6)"><text class="lab">537.12</text></g></g><g class="tick" transform="translate(380 163.2)"><line x1="0" x2="0" y1="0" y2="5" /><g transform="translate(0 6)"><text class="lab">1000.00</text></g></g></g></g></g><g class="plotbox trees"><g class="tree t0" transform="translate(20 0)"><g class="plotbox"><g class="c2 node n21 p0 root" transform="translate(105.312 26.8)"><g class="a21 c2 node n19 p0" transform="translate(31.9375 21.9472)"><g class="a19 leaf node n2 p0 sample" transform="translate(15.75 72.6528)"><path class="edge" d="M 0 0 V -72.6528 H -15.75" /><rect class="sym" height="6" width="6" x="-3" y="-3" /><text class="lab" transform="translate(0 11)">2</text></g><g class="a19 c2 node n14 p0" transform="translate(-15.75 63.8434)"><g class="a14 leaf node n1 p0 sample" transform="translate(-10.5 8.80935)"><path class="edge" d="M 0 0 V -8.80935 H 10.5" /><rect class="sym" height="6" width="6" x="-3" y="-3" /><text class="lab" transform="translate(0 11)">1</text></g><g class="a14 c2 node n13 p0" transform="translate(10.5 1.82668)"><g class="a13 leaf node n8 p0 sample" transform="translate(-7 6.98266)"><path class="edge" d="M 0 0 V -6.98266 H 7" /><rect class="sym" height="6" width="6" x="-3" y="-3" /><text class="lab" transform="translate(0 11)">8</text></g><g class="a13 leaf node n9 p0 sample" transform="translate(7 6.98266)"><path class="edge" d="M 0 0 V -6.98266 H -7" /><rect class="sym" height="6" width="6" x="-3" y="-3" /><text class="lab" transform="translate(0 11)">9</text></g><path class="edge" d="M 0 0 V -1.82668 H -10.5" /><circle class="sym" cx="0" cy="0" r="3" /><text class="lab rgt" transform="translate(3 -7.0)">13</text></g><path class="edge" d="M 0 0 V -63.8434 H 15.75" /><circle class="sym" cx="0" cy="0" r="3" /><text class="lab lft" transform="translate(-3 -7.0)">14</text></g><path class="edge" d="M 0 0 V -21.9472 H -31.9375" /><circle class="sym" cx="0" cy="0" r="3" /><text class="lab rgt" transform="translate(3 -7.0)">19</text></g><g class="a21 c2 node n20 p0" transform="translate(-31.9375 6.57098)"><g class="a20 c2 node n17 p0" transform="translate(16.625 72.4976)"><g class="a17 leaf node n3 p0 sample" transform="translate(-7 15.5314)"><path class="edge" d="M 0 0 V -15.5314 H 7" /><rect class="sym" height="6" width="6" x="-3" y="-3" /><text class="lab" transform="translate(0 11)">3</text></g><g class="a17 c1 node n15 p0" transform="translate(7 4.85695)"><g class="a15 leaf node n7 p0 sample" transform="translate(0.0 10.6744)"><path class="edge" d="M 0 0 V -10.6744 H 0.0" /><rect class="sym" height="6" width="6" x="-3" y="-3" /><text class="lab" transform="translate(0 11)">7</text></g><path class="edge" d="M 0 0 V -4.85695 H -7" /><circle class="sym" cx="0" cy="0" r="3" /><text class="lab rgt" transform="translate(3 -7.0)">15</text></g><path class="edge" d="M 0 0 V -72.4976 H -16.625" /><circle class="sym" cx="0" cy="0" r="3" /><text class="lab rgt" transform="translate(3 -7.0)">17</text></g><g class="a20 c1 node n18 p0" transform="translate(-16.625 28.8194)"><g class="a18 c2 node n12 p0" transform="translate(0.0 57.1191)"><g class="a12 leaf node n5 p0 sample" transform="translate(12.25 2.09059)"><path class="edge" d="M 0 0 V -2.09059 H -12.25" /><rect class="sym" height="6" width="6" x="-3" y="-3" /><text class="lab" transform="translate(0 11)">5</text></g><g class="a12 c2 node n11 p0" transform="translate(-12.25 1.04482)"><g class="a11 leaf node n6 p0 sample" transform="translate(10.5 1.04576)"><path class="edge" d="M 0 0 V -1.04576 H -10.5" /><rect class="sym" height="6" width="6" x="-3" y="-3" /><text class="lab" transform="translate(0 11)">6</text></g><g class="a11 c2 node n10 p0" transform="translate(-10.5 0.182978)"><g class="a10 leaf node n0 p0 sample" transform="translate(-7 0.862784)"><path class="edge" d="M 0 0 V -0.862784 H 7" /><rect class="sym" height="6" width="6" x="-3" y="-3" /><text class="lab" transform="translate(0 11)">0</text></g><g class="a10 leaf node n4 p0 sample" transform="translate(7 0.862784)"><path class="edge" d="M 0 0 V -0.862784 H -7" /><rect class="sym" height="6" width="6" x="-3" y="-3" /><text class="lab" transform="translate(0 11)">4</text></g><path class="edge" d="M 0 0 V -0.182978 H 10.5" /><circle class="sym" cx="0" cy="0" r="3" /><text class="lab lft" transform="translate(-3 -7.0)">10</text></g><path class="edge" d="M 0 0 V -1.04482 H 12.25" /><circle class="sym" cx="0" cy="0" r="3" /><text class="lab lft" transform="translate(-3 -7.0)">11</text></g><path class="edge" d="M 0 0 V -57.1191 H 0.0" /><circle class="sym" cx="0" cy="0" r="3" /><text class="lab lft" transform="translate(-3 -7.0)">12</text></g><path class="edge" d="M 0 0 V -28.8194 H 16.625" /><circle class="sym" cx="0" cy="0" r="3" /><text class="lab lft" transform="translate(-3 -7.0)">18</text></g><path class="edge" d="M 0 0 V -6.57098 H 31.9375" /><circle class="sym" cx="0" cy="0" r="3" /><text class="lab lft" transform="translate(-3 -7.0)">20</text></g><circle class="sym" cx="0" cy="0" r="3" /><text class="lab" transform="translate(0 -11)">21</text></g></g></g><g class="tree t1" transform="translate(200 0)"><g class="plotbox"><g class="c2 node n21 p0 root" transform="translate(110.344 26.8)"><g class="a21 c2 node n19 p0" transform="translate(26.9062 21.9472)"><g class="a19 leaf node n2 p0 sample" transform="translate(15.75 72.6528)"><path class="edge" d="M 0 0 V -72.6528 H -15.75" /><rect class="sym" height="6" width="6" x="-3" y="-3" /><text class="lab" transform="translate(0 11)">2</text></g><g class="a19 c2 node n14 p0" transform="translate(-15.75 63.8434)"><g class="a14 leaf node n1 p0 sample" transform="translate(-10.5 8.80935)"><path class="edge" d="M 0 0 V -8.80935 H 10.5" /><rect class="sym" height="6" width="6" x="-3" y="-3" /><text class="lab" transform="translate(0 11)">1</text></g><g class="a14 c2 node n13 p0" transform="translate(10.5 1.82668)"><g class="a13 leaf node n8 p0 sample" transform="translate(-7 6.98266)"><path class="edge" d="M 0 0 V -6.98266 H 7" /><rect class="sym" height="6" width="6" x="-3" y="-3" /><text class="lab" transform="translate(0 11)">8</text></g><g class="a13 leaf node n9 p0 sample" transform="translate(7 6.98266)"><path class="edge" d="M 0 0 V -6.98266 H -7" /><rect class="sym" height="6" width="6" x="-3" y="-3" /><text class="lab" transform="translate(0 11)">9</text></g><path class="edge" d="M 0 0 V -1.82668 H -10.5" /><circle class="sym" cx="0" cy="0" r="3" /><text class="lab rgt" transform="translate(3 -7.0)">13</text></g><path class="edge" d="M 0 0 V -63.8434 H 15.75" /><circle class="sym" cx="0" cy="0" r="3" /><text class="lab lft" transform="translate(-3 -7.0)">14</text></g><path class="edge" d="M 0 0 V -21.9472 H -26.9062" /><circle class="sym" cx="0" cy="0" r="3" /><text class="lab rgt" transform="translate(3 -7.0)">19</text></g><g class="a21 c2 node n20 p0" transform="translate(-26.9062 6.57098)"><g class="a20 c1 node n17 p0" transform="translate(13.5625 72.4976)"><g class="a17 leaf node n3 p0 sample" transform="translate(0.0 15.5314)"><path class="edge" d="M 0 0 V -15.5314 H 0.0" /><rect class="sym" height="6" width="6" x="-3" y="-3" /><text class="lab" transform="translate(0 11)">3</text></g><path class="edge" d="M 0 0 V -72.4976 H -13.5625" /><circle class="sym" cx="0" cy="0" r="3" /><text class="lab rgt" transform="translate(3 -7.0)">17</text></g><g class="a20 c2 node n18 p0" transform="translate(-13.5625 28.8194)"><g class="a18 c2 node n12 p0" transform="translate(-13.125 57.1191)"><g class="a12 leaf node n5 p0 sample" transform="translate(12.25 2.09059)"><path class="edge" d="M 0 0 V -2.09059 H -12.25" /><rect class="sym" height="6" width="6" x="-3" y="-3" /><text class="lab" transform="translate(0 11)">5</text></g><g class="a12 c2 node n11 p0" transform="translate(-12.25 1.04482)"><g class="a11 leaf node n6 p0 sample" transform="translate(10.5 1.04576)"><path class="edge" d="M 0 0 V -1.04576 H -10.5" /><rect class="sym" height="6" width="6" x="-3" y="-3" /><text class="lab" transform="translate(0 11)">6</text></g><g class="a11 c2 node n10 p0" transform="translate(-10.5 0.182978)"><g class="a10 leaf node n0 p0 sample" transform="translate(-7 0.862784)"><path class="edge" d="M 0 0 V -0.862784 H 7" /><rect class="sym" height="6" width="6" x="-3" y="-3" /><text class="lab" transform="translate(0 11)">0</text></g><g class="a10 leaf node n4 p0 sample" transform="translate(7 0.862784)"><path class="edge" d="M 0 0 V -0.862784 H -7" /><rect class="sym" height="6" width="6" x="-3" y="-3" /><text class="lab" transform="translate(0 11)">4</text></g><path class="edge" d="M 0 0 V -0.182978 H 10.5" /><circle class="sym" cx="0" cy="0" r="3" /><text class="lab lft" transform="translate(-3 -7.0)">10</text></g><path class="edge" d="M 0 0 V -1.04482 H 12.25" /><circle class="sym" cx="0" cy="0" r="3" /><text class="lab lft" transform="translate(-3 -7.0)">11</text></g><path class="edge" d="M 0 0 V -57.1191 H 13.125" /><circle class="sym" cx="0" cy="0" r="3" /><text class="lab lft" transform="translate(-3 -7.0)">12</text></g><g class="a18 c1 node n16 p0" transform="translate(13.125 48.5352)"><g class="a16 leaf node n7 p0 sample" transform="translate(0.0 10.6744)"><path class="edge" d="M 0 0 V -10.6744 H 0.0" /><rect class="sym" height="6" width="6" x="-3" y="-3" /><text class="lab" transform="translate(0 11)">7</text></g><path class="edge" d="M 0 0 V -48.5352 H -13.125" /><circle class="sym" cx="0" cy="0" r="3" /><text class="lab rgt" transform="translate(3 -7.0)">16</text></g><path class="edge" d="M 0 0 V -28.8194 H 13.5625" /><circle class="sym" cx="0" cy="0" r="3" /><text class="lab lft" transform="translate(-3 -7.0)">18</text></g><path class="edge" d="M 0 0 V -6.57098 H 26.9062" /><circle class="sym" cx="0" cy="0" r="3" /><text class="lab lft" transform="translate(-3 -7.0)">20</text></g><circle class="sym" cx="0" cy="0" r="3" /><text class="lab" transform="translate(0 -11)">21</text></g></g></g></g></g></svg>
