<svg baseProfile="full" height="200" version="1.1" width="800" xmlns="http://www.w3.org/2000/svg" xmlns:ev="http://www.w3.org/2001/xml-events" xmlns:xlink="http://www.w3.org/1999/xlink"><defs><style type="text/css"><![CDATA[.background path {fill: #808080; fill-opacity: 0}.background path:nth-child(odd) {fill-opacity: .1}.axes {font-size: 14px}.x-axis .tick .lab {font-weight: bold; dominant-baseline: hanging}.axes, .tree {font-size: 14px; text-anchor: middle}.axes line, .edge {stroke: black; fill: none}.y-axis .grid {stroke: #FAFAFA}.node > .sym {fill: black; stroke: none}.site > .sym {stroke: black}.mut text {fill: red; font-style: italic}.mut.extra text {fill: hotpink}.mut line {fill: none; stroke: none}.mut .sym {fill: none; stroke: red}.mut.extra .sym {stroke: hotpink}.node .mut .sym {stroke-width: 1.5px}.tree text, .tree-sequence text {dominant-baseline: central}.plotbox .lab.lft {text-anchor: end}.plotbox .lab.rgt {text-anchor: start}]]></style></defs><g class="tree-sequence"><g class="background"><path d="M20,0 l190,0 l0,138.2 l-122.556,25 l0,5 l-67.4436,0 l0,-5 l0,-25 l0,-138.2z" /><path d="M210,0 l190,0 l0,138.2 l28.5522,25 l0,5 l-341.109,0 l0,-5 l122.556,-25 l0,-138.2z" /><path d="M400,0 l190,0 l0,138.2 l-137.179,25 l0,5 l-24.2687,0 l0,-5 l-28.5522,-25 l0,-138.2z" /><path d="M590,0 l190,0 l0,138.2 l0,25 l0,5 l-327.179,0 l0,-5 l137.179,-25 l0,-138.2z" /></g><g class="axes"><g class="x-axis"><g transform="translate(400 200)"><text class="lab" text-anchor="middle" transform="translate(0 -11)">Genome position</text></g><line x1="20" x2="780" y1="163.2" y2="163.2" /><g class="ticks"><g class="tick" transform="translate(20 163.2)"><line x1="0" x2="0" y1="0" y2="5" /><g transform="translate(0 6)"><text class="lab">0.00</text></g></g><g class="tick" transform="translate(87.4436 163.2)"><line x1="0" x2="0" y1="0" y2="5" /><g transform="translate(0 6)"><text class="lab">88.74</text></g></g><g class="tick" transform="translate(428.552 163.2)"><line x1="0" x2="0" y1="0" y2="5" /><g transform="translate(0 6)"><text class="lab">537.57</text></g></g><g class="tick" transform="translate(452.821 163.2)"><line x1="0" x2="0" y1="0" y2="5" /><g transform="translate(0 6)"><text class="lab">569.50</text></g></g><g class="tick" transform="translate(780 163.2)"><line x1="0" x2="0" y1="0" y2="5" /><g transform="translate(0 6)"><text class="lab">1000.00</text></g></g></g></g></g><g class="plotbox trees"><g class="tree t0" transform="translate(20 0)"><g class="plotbox"><g class="c2 node n27 p0 root" transform="translate(93.5938 26.8)"><g class="a27 c1 node n25 p0" transform="translate(-43.5938 25.8951)"><g class="a25 c2 node n23 p0" transform="translate(0.0 31.5177)"><g class="a23 c2 node n17 p0" transform="translate(15 12.9875)"><g class="a17 leaf node n4 p0 sample" transform="translate(7.5 24.1997)"><path class="edge" d="M 0 0 V -24.1997 H -7.5" /><rect class="sym" height="6" width="6" x="-3" y="-3" /><text class="lab" transform="translate(0 11)">4</text></g><g class="a17 c1 node n11 p0" transform="translate(-7.5 18.2442)"><g class="a11 leaf node n3 p0 sample" transform="translate(0.0 5.95548)"><path class="edge" d="M 0 0 V -5.95548 H 0.0" /><rect class="sym" height="6" width="6" x="-3" y="-3" /><text class="lab" transform="translate(0 11)">3</text></g><path class="edge" d="M 0 0 V -18.2442 H 7.5" /><circle class="sym" cx="0" cy="0" r="3" /><text class="lab lft" transform="translate(-3 -7.0)">11</text></g><path class="edge" d="M 0 0 V -12.9875 H -15" /><circle class="sym" cx="0" cy="0" r="3" /><text class="lab rgt" transform="translate(3 -7.0)">17</text></g><g class="a23 c1 node n19 p0" transform="translate(-15 7.0783)"><g class="a19 c2 node n16 p0" transform="translate(0.0 10.1273)"><g class="a16 leaf node n6 p0 sample" transform="translate(7.5 19.9816)"><path class="edge" d="M 0 0 V -19.9816 H -7.5" /><rect class="sym" height="6" width="6" x="-3" y="-3" /><text class="lab" transform="translate(0 11)">6</text></g><g class="a16 c1 node n13 p0" transform="translate(-7.5 12.5664)"><g class="a13 leaf node n0 p0 sample" transform="translate(0.0 7.41516)"><path class="edge" d="M 0 0 V -7.41516 H 0.0" /><rect class="sym" height="6" width="6" x="-3" y="-3" /><text class="lab" transform="translate(0 11)">0</text></g><path class="edge" d="M 0 0 V -12.5664 H 7.5" /><circle class="sym" cx="0" cy="0" r="3" /><text class="lab lft" transform="translate(-3 -7.0)">13</text></g><path class="edge" d="M 0 0 V -10.1273 H 0.0" /><circle class="sym" cx="0" cy="0" r="3" /><text class="lab lft" transform="translate(-3 -7.0)">16</text></g><path class="edge" d="M 0 0 V -7.0783 H 15" /><circle class="sym" cx="0" cy="0" r="3" /><text class="lab lft" transform="translate(-3 -7.0)">19</text></g><path class="edge" d="M 0 0 V -31.5177 H 0.0" /><circle class="sym" cx="0" cy="0" r="3" /><text class="lab lft" transform="translate(-3 -7.0)">23</text></g><path class="edge" d="M 0 0 V -25.8951 H 43.5938" /><circle class="sym" cx="0" cy="0" r="3" /><text class="lab lft" transform="translate(-3 -7.0)">25</text></g><g class="a27 c1 node n26 p0" transform="translate(43.5938 7.03019)"><g class="a26 c2 node n24 p0" transform="translate(0.0 36.5318)"><g class="a24 leaf node n7 p0 sample" transform="translate(25.3125 51.038)"><path class="edge" d="M 0 0 V -51.038 H -25.3125" /><rect class="sym" height="6" width="6" x="-3" y="-3" /><text class="lab" transform="translate(0 11)">7</text></g><g class="a24 c2 node n18 p0" transform="translate(-25.3125 25.3817)"><g class="a18 c2 node n10 p0" transform="translate(-16.875 21.8259)"><g class="a10 leaf node n1 p0 sample" transform="translate(-7.5 3.83039)"><path class="edge" d="M 0 0 V -3.83039 H 7.5" /><rect class="sym" height="6" width="6" x="-3" y="-3" /><text class="lab" transform="translate(0 11)">1</text></g><g class="a10 leaf node n5 p0 sample" transform="translate(7.5 3.83039)"><path class="edge" d="M 0 0 V -3.83039 H -7.5" /><rect class="sym" height="6" width="6" x="-3" y="-3" /><text class="lab" transform="translate(0 11)">5</text></g><path class="edge" d="M 0 0 V -21.8259 H 16.875" /><circle class="sym" cx="0" cy="0" r="3" /><text class="lab lft" transform="translate(-3 -7.0)">10</text></g><g class="a18 c2 node n15 p0" transform="translate(16.875 12.7445)"><g class="a15 leaf node n2 p0 sample" transform="translate(-11.25 12.9118)"><path class="edge" d="M 0 0 V -12.9118 H 11.25" /><rect class="sym" height="6" width="6" x="-3" y="-3" /><text class="lab" transform="translate(0 11)">2</text></g><g class="a15 c2 node n14 p0" transform="translate(11.25 5.0529)"><g class="a14 leaf node n8 p0 sample" transform="translate(-7.5 7.85891)"><path class="edge" d="M 0 0 V -7.85891 H 7.5" /><rect class="sym" height="6" width="6" x="-3" y="-3" /><text class="lab" transform="translate(0 11)">8</text></g><g class="a14 leaf node n9 p0 sample" transform="translate(7.5 7.85891)"><path class="edge" d="M 0 0 V -7.85891 H -7.5" /><rect class="sym" height="6" width="6" x="-3" y="-3" /><text class="lab" transform="translate(0 11)">9</text></g><path class="edge" d="M 0 0 V -5.0529 H -11.25" /><circle class="sym" cx="0" cy="0" r="3" /><text class="lab rgt" transform="translate(3 -7.0)">14</text></g><path class="edge" d="M 0 0 V -12.7445 H -16.875" /><circle class="sym" cx="0" cy="0" r="3" /><text class="lab rgt" transform="translate(3 -7.0)">15</text></g><path class="edge" d="M 0 0 V -25.3817 H 25.3125" /><circle class="sym" cx="0" cy="0" r="3" /><text class="lab lft" transform="translate(-3 -7.0)">18</text></g><path class="edge" d="M 0 0 V -36.5318 H 0.0" /><circle class="sym" cx="0" cy="0" r="3" /><text class="lab lft" transform="translate(-3 -7.0)">24</text></g><path class="edge" d="M 0 0 V -7.03019 H -43.5938" /><circle class="sym" cx="0" cy="0" r="3" /><text class="lab rgt" transform="translate(3 -7.0)">26</text></g><circle class="sym" cx="0" cy="0" r="3" /><text class="lab" transform="translate(0 -11)">27</text></g></g></g><g class="tree t1" transform="translate(210 0)"><g class="plotbox"><g class="c2 node n27 p0 root" transform="translate(113.047 26.8)"><g class="a27 c1 node n25 p0" transform="translate(41.9531 25.8951)"><g class="a25 c1 node n23 p0" transform="translate(0.0 31.5177)"><g class="a23 c2 node n17 p0" transform="translate(0.0 12.9875)"><g class="a17 leaf node n4 p0 sample" transform="translate(7.5 24.1997)"><path class="edge" d="M 0 0 V -24.1997 H -7.5" /><rect class="sym" height="6" width="6" x="-3" y="-3" /><text class="lab" transform="translate(0 11)">4</text></g><g class="a17 c1 node n11 p0" transform="translate(-7.5 18.2442)"><g class="a11 leaf node n3 p0 sample" transform="translate(0.0 5.95548)"><path class="edge" d="M 0 0 V -5.95548 H 0.0" /><rect class="sym" height="6" width="6" x="-3" y="-3" /><text class="lab" transform="translate(0 11)">3</text></g><path class="edge" d="M 0 0 V -18.2442 H 7.5" /><circle class="sym" cx="0" cy="0" r="3" /><text class="lab lft" transform="translate(-3 -7.0)">11</text></g><path class="edge" d="M 0 0 V -12.9875 H 0.0" /><circle class="sym" cx="0" cy="0" r="3" /><text class="lab lft" transform="translate(-3 -7.0)">17</text></g><path class="edge" d="M 0 0 V -31.5177 H 0.0" /><circle class="sym" cx="0" cy="0" r="3" /><text class="lab lft" transform="translate(-3 -7.0)">23</text></g><path class="edge" d="M 0 0 V -25.8951 H -41.9531" /><circle class="sym" cx="0" cy="0" r="3" /><text class="lab rgt" transform="translate(3 -7.0)">25</text></g><g class="a27 c2 node n26 p0" transform="translate(-41.9531 7.03019)"><g class="a26 c2 node n24 p0" transform="translate(36.0938 36.5318)"><g class="a24 leaf node n7 p0 sample" transform="translate(25.3125 51.038)"><path class="edge" d="M 0 0 V -51.038 H -25.3125" /><rect class="sym" height="6" width="6" x="-3" y="-3" /><text class="lab" transform="translate(0 11)">7</text></g><g class="a24 c2 node n18 p0" transform="translate(-25.3125 25.3817)"><g class="a18 c2 node n10 p0" transform="translate(-16.875 21.8259)"><g class="a10 leaf node n1 p0 sample" transform="translate(-7.5 3.83039)"><path class="edge" d="M 0 0 V -3.83039 H 7.5" /><rect class="sym" height="6" width="6" x="-3" y="-3" /><text class="lab" transform="translate(0 11)">1</text></g><g class="a10 leaf node n5 p0 sample" transform="translate(7.5 3.83039)"><path class="edge" d="M 0 0 V -3.83039 H -7.5" /><rect class="sym" height="6" width="6" x="-3" y="-3" /><text class="lab" transform="translate(0 11)">5</text></g><path class="edge" d="M 0 0 V -21.8259 H 16.875" /><circle class="sym" cx="0" cy="0" r="3" /><text class="lab lft" transform="translate(-3 -7.0)">10</text></g><g class="a18 c2 node n15 p0" transform="translate(16.875 12.7445)"><g class="a15 leaf node n2 p0 sample" transform="translate(-11.25 12.9118)"><path class="edge" d="M 0 0 V -12.9118 H 11.25" /><rect class="sym" height="6" width="6" x="-3" y="-3" /><text class="lab" transform="translate(0 11)">2</text></g><g class="a15 c2 node n14 p0" transform="translate(11.25 5.0529)"><g class="a14 leaf node n8 p0 sample" transform="translate(-7.5 7.85891)"><path class="edge" d="M 0 0 V -7.85891 H 7.5" /><rect class="sym" height="6" width="6" x="-3" y="-3" /><text class="lab" transform="translate(0 11)">8</text></g><g class="a14 leaf node n9 p0 sample" transform="translate(7.5 7.85891)"><path class="edge" d="M 0 0 V -7.85891 H -7.5" /><rect class="sym" height="6" width="6" x="-3" y="-3" /><text class="lab" transform="translate(0 11)">9</text></g><path class="edge" d="M 0 0 V -5.0529 H -11.25" /><circle class="sym" cx="0" cy="0" r="3" /><text class="lab rgt" transform="translate(3 -7.0)">14</text></g><path class="edge" d="M 0 0 V -12.7445 H -16.875" /><circle class="sym" cx="0" cy="0" r="3" /><text class="lab rgt" transform="translate(3 -7.0)">15</text></g><path class="edge" d="M 0 0 V -25.3817 H 25.3125" /><circle class="sym" cx="0" cy="0" r="3" /><text class="lab lft" transform="translate(-3 -7.0)">18</text></g><path class="edge" d="M 0 0 V -36.5318 H -36.0938" /><circle class="sym" cx="0" cy="0" r="3" /><text class="lab rgt" transform="translate(3 -7.0)">24</text></g><g class="a26 c1 node n21 p0" transform="translate(-36.0938 51.9602)"><g class="a21 c1 node n20 p0" transform="translate(0.0 5.50069)"><g class="a20 c2 node n16 p0" transform="translate(0.0 10.1273)"><g class="a16 leaf node n6 p0 sample" transform="translate(7.5 19.9816)"><path class="edge" d="M 0 0 V -19.9816 H -7.5" /><rect class="sym" height="6" width="6" x="-3" y="-3" /><text class="lab" transform="translate(0 11)">6</text></g><g class="a16 c1 node n13 p0" transform="translate(-7.5 12.5664)"><g class="a13 leaf node n0 p0 sample" transform="translate(0.0 7.41516)"><path class="edge" d="M 0 0 V -7.41516 H 0.0" /><rect class="sym" height="6" width="6" x="-3" y="-3" /><text class="lab" transform="translate(0 11)">0</text></g><path class="edge" d="M 0 0 V -12.5664 H 7.5" /><circle class="sym" cx="0" cy="0" r="3" /><text class="lab lft" transform="translate(-3 -7.0)">13</text></g><path class="edge" d="M 0 0 V -10.1273 H 0.0" /><circle class="sym" cx="0" cy="0" r="3" /><text class="lab lft" transform="translate(-3 -7.0)">16</text></g><path class="edge" d="M 0 0 V -5.50069 H 0.0" /><circle class="sym" cx="0" cy="0" r="3" /><text class="lab lft" transform="translate(-3 -7.0)">20</text></g><path class="edge" d="M 0 0 V -51.9602 H 36.0938" /><circle class="sym" cx="0" cy="0" r="3" /><text class="lab lft" transform="translate(-3 -7.0)">21</text></g><path class="edge" d="M 0 0 V -7.03019 H 41.9531" /><circle class="sym" cx="0" cy="0" r="3" /><text class="lab lft" transform="translate(-3 -7.0)">26</text></g><circle class="sym" cx="0" cy="0" r="3" /><text class="lab" transform="translate(0 -11)">27</text></g></g></g><g class="tree t2" transform="translate(400 0)"><g class="plotbox"><g class="c2 node n27 p0 root" transform="translate(123.359 26.8)"><g class="a27 c1 node n25 p0" transform="translate(39.1406 25.8951)"><g class="a25 c1 node n23 p0" transform="translate(0.0 31.5177)"><g class="a23 c1 node n17 p0" transform="translate(0.0 12.9875)"><g class="a17 leaf node n4 p0 sample" transform="translate(0.0 24.1997)"><path class="edge" d="M 0 0 V -24.1997 H 0.0" /><rect class="sym" height="6" width="6" x="-3" y="-3" /><text class="lab" transform="translate(0 11)">4</text></g><path class="edge" d="M 0 0 V -12.9875 H 0.0" /><circle class="sym" cx="0" cy="0" r="3" /><text class="lab lft" transform="translate(-3 -7.0)">17</text></g><path class="edge" d="M 0 0 V -31.5177 H 0.0" /><circle class="sym" cx="0" cy="0" r="3" /><text class="lab lft" transform="translate(-3 -7.0)">23</text></g><path class="edge" d="M 0 0 V -25.8951 H -39.1406" /><circle class="sym" cx="0" cy="0" r="3" /><text class="lab rgt" transform="translate(3 -7.0)">25</text></g><g class="a27 c2 node n26 p0" transform="translate(-39.1406 7.03019)"><g class="a26 c2 node n24 p0" transform="translate(37.9688 36.5318)"><g class="a24 leaf node n7 p0 sample" transform="translate(25.3125 51.038)"><path class="edge" d="M 0 0 V -51.038 H -25.3125" /><rect class="sym" height="6" width="6" x="-3" y="-3" /><text class="lab" transform="translate(0 11)">7</text></g><g class="a24 c2 node n18 p0" transform="translate(-25.3125 25.3817)"><g class="a18 c2 node n10 p0" transform="translate(-16.875 21.8259)"><g class="a10 leaf node n1 p0 sample" transform="translate(-7.5 3.83039)"><path class="edge" d="M 0 0 V -3.83039 H 7.5" /><rect class="sym" height="6" width="6" x="-3" y="-3" /><text class="lab" transform="translate(0 11)">1</text></g><g class="a10 leaf node n5 p0 sample" transform="translate(7.5 3.83039)"><path class="edge" d="M 0 0 V -3.83039 H -7.5" /><rect class="sym" height="6" width="6" x="-3" y="-3" /><text class="lab" transform="translate(0 11)">5</text></g><path class="edge" d="M 0 0 V -21.8259 H 16.875" /><circle class="sym" cx="0" cy="0" r="3" /><text class="lab lft" transform="translate(-3 -7.0)">10</text></g><g class="a18 c2 node n15 p0" transform="translate(16.875 12.7445)"><g class="a15 leaf node n2 p0 sample" transform="translate(-11.25 12.9118)"><path class="edge" d="M 0 0 V -12.9118 H 11.25" /><rect class="sym" height="6" width="6" x="-3" y="-3" /><text class="lab" transform="translate(0 11)">2</text></g><g class="a15 c2 node n14 p0" transform="translate(11.25 5.0529)"><g class="a14 leaf node n8 p0 sample" transform="translate(-7.5 7.85891)"><path class="edge" d="M 0 0 V -7.85891 H 7.5" /><rect class="sym" height="6" width="6" x="-3" y="-3" /><text class="lab" transform="translate(0 11)">8</text></g><g class="a14 leaf node n9 p0 sample" transform="translate(7.5 7.85891)"><path class="edge" d="M 0 0 V -7.85891 H -7.5" /><rect class="sym" height="6" width="6" x="-3" y="-3" /><text class="lab" transform="translate(0 11)">9</text></g><path class="edge" d="M 0 0 V -5.0529 H -11.25" /><circle class="sym" cx="0" cy="0" r="3" /><text class="lab rgt" transform="translate(3 -7.0)">14</text></g><path class="edge" d="M 0 0 V -12.7445 H -16.875" /><circle class="sym" cx="0" cy="0" r="3" /><text class="lab rgt" transform="translate(3 -7.0)">15</text></g><path class="edge" d="M 0 0 V -25.3817 H 25.3125" /><circle class="sym" cx="0" cy="0" r="3" /><text class="lab lft" transform="translate(-3 -7.0)">18</text></g><path class="edge" d="M 0 0 V -36.5318 H -37.9688" /><circle class="sym" cx="0" cy="0" r="3" /><text class="lab rgt" transform="translate(3 -7.0)">24</text></g><g class="a26 c1 node n21 p0" transform="translate(-37.9688 51.9602)"><g class="a21 c1 node n20 p0" transform="translate(0.0 5.50069)"><g class="a20 c2 node n16 p0" transform="translate(0.0 10.1273)"><g class="a16 leaf node n6 p0 sample" transform="translate(11.25 19.9816)"><path class="edge" d="M 0 0 V -19.9816 H -11.25" /><rect class="sym" height="6" width="6" x="-3" y="-3" /><text class="lab" transform="translate(0 11)">6</text></g><g class="a16 c2 node n13 p0" transform="translate(-11.25 12.5664)"><g class="a13 leaf node n0 p0 sample" transform="translate(-7.5 7.41516)"><path class="edge" d="M 0 0 V -7.41516 H 7.5" /><rect class="sym" height="6" width="6" x="-3" y="-3" /><text class="lab" transform="translate(0 11)">0</text></g><g class="a13 c1 node n12 p0" transform="translate(7.5 1.45967)"><g class="a12 leaf node n3 p0 sample" transform="translate(0.0 5.95548)"><path class="edge" d="M 0 0 V -5.95548 H 0.0" /><rect class="sym" height="6" width="6" x="-3" y="-3" /><text class="lab" transform="translate(0 11)">3</text></g><path class="edge" d="M 0 0 V -1.45967 H -7.5" /><circle class="sym" cx="0" cy="0" r="3" /><text class="lab rgt" transform="translate(3 -7.0)">12</text></g><path class="edge" d="M 0 0 V -12.5664 H 11.25" /><circle class="sym" cx="0" cy="0" r="3" /><text class="lab lft" transform="translate(-3 -7.0)">13</text></g><path class="edge" d="M 0 0 V -10.1273 H 0.0" /><circle class="sym" cx="0" cy="0" r="3" /><text class="lab lft" transform="translate(-3 -7.0)">16</text></g><path class="edge" d="M 0 0 V -5.50069 H 0.0" /><circle class="sym" cx="0" cy="0" r="3" /><text class="lab lft" transform="translate(-3 -7.0)">20</text></g><path class="edge" d="M 0 0 V -51.9602 H 37.9688" /><circle class="sym" cx="0" cy="0" r="3" /><text class="lab lft" transform="translate(-3 -7.0)">21</text></g><path class="edge" d="M 0 0 V -7.03019 H 39.1406" /><circle class="sym" cx="0" cy="0" r="3" /><text class="lab lft" transform="translate(-3 -7.0)">26</text></g><circle class="sym" cx="0" cy="0" r="3" /><text class="lab" transform="translate(0 -11)">27</text></g></g></g><g class="tree t3" transform="translate(590 0)"><g class="plotbox"><g class="c2 node n27 p0 root" transform="translate(98.2812 26.8)"><g class="a27 c2 node n25 p0" transform="translate(-38.9062 25.8951)"><g class="a25 c1 node n23 p0" transform="translate(13.125 31.5177)"><g class="a23 c1 node n17 p0" transform="translate(0.0 12.9875)"><g class="a17 leaf node n4 p0 sample" transform="translate(0.0 24.1997)"><path class="edge" d="M 0 0 V -24.1997 H 0.0" /><rect class="sym" height="6" width="6" x="-3" y="-3" /><text class="lab" transform="translate(0 11)">4</text></g><path class="edge" d="M 0 0 V -12.9875 H 0.0" /><circle class="sym" cx="0" cy="0" r="3" /><text class="lab lft" transform="translate(-3 -7.0)">17</text></g><path class="edge" d="M 0 0 V -31.5177 H -13.125" /><circle class="sym" cx="0" cy="0" r="3" /><text class="lab rgt" transform="translate(3 -7.0)">23</text></g><g class="a25 c1 node n22 p0" transform="translate(-13.125 33.0954)"><g class="a22 c1 node n20 p0" transform="translate(0.0 5.50069)"><g class="a20 c2 node n16 p0" transform="translate(0.0 10.1273)"><g class="a16 leaf node n6 p0 sample" transform="translate(11.25 19.9816)"><path class="edge" d="M 0 0 V -19.9816 H -11.25" /><rect class="sym" height="6" width="6" x="-3" y="-3" /><text class="lab" transform="translate(0 11)">6</text></g><g class="a16 c2 node n13 p0" transform="translate(-11.25 12.5664)"><g class="a13 leaf node n0 p0 sample" transform="translate(-7.5 7.41516)"><path class="edge" d="M 0 0 V -7.41516 H 7.5" /><rect class="sym" height="6" width="6" x="-3" y="-3" /><text class="lab" transform="translate(0 11)">0</text></g><g class="a13 c1 node n12 p0" transform="translate(7.5 1.45967)"><g class="a12 leaf node n3 p0 sample" transform="translate(0.0 5.95548)"><path class="edge" d="M 0 0 V -5.95548 H 0.0" /><rect class="sym" height="6" width="6" x="-3" y="-3" /><text class="lab" transform="translate(0 11)">3</text></g><path class="edge" d="M 0 0 V -1.45967 H -7.5" /><circle class="sym" cx="0" cy="0" r="3" /><text class="lab rgt" transform="translate(3 -7.0)">12</text></g><path class="edge" d="M 0 0 V -12.5664 H 11.25" /><circle class="sym" cx="0" cy="0" r="3" /><text class="lab lft" transform="translate(-3 -7.0)">13</text></g><path class="edge" d="M 0 0 V -10.1273 H 0.0" /><circle class="sym" cx="0" cy="0" r="3" /><text class="lab lft" transform="translate(-3 -7.0)">16</text></g><path class="edge" d="M 0 0 V -5.50069 H 0.0" /><circle class="sym" cx="0" cy="0" r="3" /><text class="lab lft" transform="translate(-3 -7.0)">20</text></g><path class="edge" d="M 0 0 V -33.0954 H 13.125" /><circle class="sym" cx="0" cy="0" r="3" /><text class="lab lft" transform="translate(-3 -7.0)">22</text></g><path class="edge" d="M 0 0 V -25.8951 H 38.9062" /><circle class="sym" cx="0" cy="0" r="3" /><text class="lab lft" transform="translate(-3 -7.0)">25</text></g><g class="a27 c1 node n26 p0" transform="translate(38.9062 7.03019)"><g class="a26 c2 node n24 p0" transform="translate(0.0 36.5318)"><g class="a24 leaf node n7 p0 sample" transform="translate(25.3125 51.038)"><path class="edge" d="M 0 0 V -51.038 H -25.3125" /><rect class="sym" height="6" width="6" x="-3" y="-3" /><text class="lab" transform="translate(0 11)">7</text></g><g class="a24 c2 node n18 p0" transform="translate(-25.3125 25.3817)"><g class="a18 c2 node n10 p0" transform="translate(-16.875 21.8259)"><g class="a10 leaf node n1 p0 sample" transform="translate(-7.5 3.83039)"><path class="edge" d="M 0 0 V -3.83039 H 7.5" /><rect class="sym" height="6" width="6" x="-3" y="-3" /><text class="lab" transform="translate(0 11)">1</text></g><g class="a10 leaf node n5 p0 sample" transform="translate(7.5 3.83039)"><path class="edge" d="M 0 0 V -3.83039 H -7.5" /><rect class="sym" height="6" width="6" x="-3" y="-3" /><text class="lab" transform="translate(0 11)">5</text></g><path class="edge" d="M 0 0 V -21.8259 H 16.875" /><circle class="sym" cx="0" cy="0" r="3" /><text class="lab lft" transform="translate(-3 -7.0)">10</text></g><g class="a18 c2 node n15 p0" transform="translate(16.875 12.7445)"><g class="a15 leaf node n2 p0 sample" transform="translate(-11.25 12.9118)"><path class="edge" d="M 0 0 V -12.9118 H 11.25" /><rect class="sym" height="6" width="6" x="-3" y="-3" /><text class="lab" transform="translate(0 11)">2</text></g><g class="a15 c2 node n14 p0" transform="translate(11.25 5.0529)"><g class="a14 leaf node n8 p0 sample" transform="translate(-7.5 7.85891)"><path class="edge" d="M 0 0 V -7.85891 H 7.5" /><rect class="sym" height="6" width="6" x="-3" y="-3" /><text class="lab" transform="translate(0 11)">8</text></g><g class="a14 leaf node n9 p0 sample" transform="translate(7.5 7.85891)"><path class="edge" d="M 0 0 V -7.85891 H -7.5" /><rect class="sym" height="6" width="6" x="-3" y="-3" /><text class="lab" transform="translate(0 11)">9</text></g><path class="edge" d="M 0 0 V -5.0529 H -11.25" /><circle class="sym" cx="0" cy="0" r="3" /><text class="lab rgt" transform="translate(3 -7.0)">14</text></g><path class="edge" d="M 0 0 V -12.7445 H -16.875" /><circle class="sym" cx="0" cy="0" r="3" /><text class="lab rgt" transform="translate(3 -7.0)">15</text></g><path class="edge" d="M 0 0 V -25.3817 H 25.3125" /><circle class="sym" cx="0" cy="0" r="3" /><text class="lab lft" transform="translate(-3 -7.0)">18</text></g><path class="edge" d="M 0 0 V -36.5318 H 0.0" /><circle class="sym" cx="0" cy="0" r="3" /><text class="lab lft" transform="translate(-3 -7.0)">24</text></g><path class="edge" d="M 0 0 V -7.03019 H -38.9062" /><circle class="sym" cx="0" cy="0" r="3" /><text class="lab rgt" transform="translate(3 -7.0)">26</text></g><circle class="sym" cx="0" cy="0" r="3" /><text class="lab" transform="translate(0 -11)">27</text></g></g></g></g></g></svg>
