<svg baseProfile="full" height="200" version="1.1" width="800" xmlns="http://www.w3.org/2000/svg" xmlns:ev="http://www.w3.org/2001/xml-events" xmlns:xlink="http://www.w3.org/1999/xlink"><defs><style type="text/css"><![CDATA[.background path {fill: #808080; fill-opacity: 0}.background path:nth-child(odd) {fill-opacity: .1}.axes {font-size: 14px}.x-axis .tick .lab {font-weight: bold; dominant-baseline: hanging}.axes, .tree {font-size: 14px; text-anchor: middle}.axes line, .edge {stroke: black; fill: none}.y-axis .grid {stroke: #FAFAFA}.node > .sym {fill: black; stroke: none}.site > .sym {stroke: black}.mut text {fill: red; font-style: italic}.mut.extra text {fill: hotpink}.mut line {fill: none; stroke: none}.mut .sym {fill: none; stroke: red}.mut.extra .sym {stroke: hotpink}.node .mut .sym {stroke-width: 1.5px}.tree text, .tree-sequence text {dominant-baseline: central}.plotbox .lab.lft {text-anchor: end}.plotbox .lab.rgt {text-anchor: start}]]></style></defs><g class="tree-sequence"><g class="background"><path d="M20,0 l190,0 l0,138.2 l94.5701,25 l0,5 l-284.57,0 l0,-5 l0,-25 l0,-138.2z" /><path d="M210,0 l190,0 l0,138.2 l-30.0888,25 l0,5 l-65.3411,0 l0,-5 l-94.5701,-25 l0,-138.2z" /><path d="M400,0 l190,0 l0,138.2 l154.937,25 l0,5 l-375.025,0 l0,-5 l30.0888,-25 l0,-138.2z" /><path d="M590,0 l190,0 l0,138.2 l0,25 l0,5 l-35.0633,0 l0,-5 l-154.937,-25 l0,-138.2z" /></g><g class="axes"><g class="x-axis"><g transform="translate(400 200)"><text class="lab" text-anchor="middle" transform="translate(0 -11)">Genome position</text></g><line x1="20" x2="780" y1="163.2" y2="163.2" /><g class="ticks"><g class="tick" transform="translate(20 163.2)"><line x1="0" x2="0" y1="0" y2="5" /><g transform="translate(0 6)"><text class="lab">0.00</text></g></g><g class="tick" transform="translate(304.57 163.2)"><line x1="0" x2="0" y1="0" y2="5" /><g transform="translate(0 6)"><text class="lab">374.43</text></g></g><g class="tick" transform="translate(369.911 163.2)"><line x1="0" x2="0" y1="0" y2="5" /><g transform="translate(0 6)"><text class="lab">460.41</text></g></g><g class="tick" transform="translate(744.937 163.2)"><line x1="0" x2="0" y1="0" y2="5" /><g transform="translate(0 6)"><text class="lab">953.86</text></g></g><g class="tick" transform="translate(780 163.2)"><line x1="0" x2="0" y1="0" y2="5" /><g transform="translate(0 6)"><text class="lab">1000.00</text></g></g></g></g></g><g class="plotbox trees"><g class="tree t0" transform="translate(20 0)"><g class="plotbox"><g class="c2 node n27 p0 root" transform="translate(139.297 26.8)"><g class="a27 leaf node n8 p0 sample" transform="translate(23.2031 94.6)"><path class="edge" d="M 0 0 V -94.6 H -23.2031" /><rect class="sym" height="6" width="6" x="-3" y="-3" /><text class="lab" transform="translate(0 11)">8</text></g><g class="a27 c2 node n26 p0" transform="translate(-23.2031 19.1591)"><g class="a26 c1 node n22 p0" transform="translate(31.4062 41.989)"><g class="a22 c1 node n19 p0" transform="translate(0.0 8.03234)"><g class="a19 c1 node n12 p0" transform="translate(0.0 18.0707)"><g class="a12 leaf node n7 p0 sample" transform="translate(0.0 7.34886)"><path class="edge" d="M 0 0 V -7.34886 H 0.0" /><rect class="sym" height="6" width="6" x="-3" y="-3" /><text class="lab" transform="translate(0 11)">7</text></g><path class="edge" d="M 0 0 V -18.0707 H 0.0" /><circle class="sym" cx="0" cy="0" r="3" /><text class="lab lft" transform="translate(-3 -7.0)">12</text></g><path class="edge" d="M 0 0 V -8.03234 H 0.0" /><circle class="sym" cx="0" cy="0" r="3" /><text class="lab lft" transform="translate(-3 -7.0)">19</text></g><path class="edge" d="M 0 0 V -41.989 H -31.4062" /><circle class="sym" cx="0" cy="0" r="3" /><text class="lab rgt" transform="translate(3 -7.0)">22</text></g><g class="a26 c2 node n25 p0" transform="translate(-31.4062 16.0484)"><g class="a25 c2 node n23 p0" transform="translate(-29.0625 15.3346)"><g class="a23 c1 node n16 p0" transform="translate(-20.625 34.3972)"><g class="a16 c2 node n10 p0" transform="translate(0.0 8.72552)"><g class="a10 leaf node n0 p0 sample" transform="translate(-7.5 0.935181)"><path class="edge" d="M 0 0 V -0.935181 H 7.5" /><rect class="sym" height="6" width="6" x="-3" y="-3" /><text class="lab" transform="translate(0 11)">0</text></g><g class="a10 leaf node n6 p0 sample" transform="translate(7.5 0.935181)"><path class="edge" d="M 0 0 V -0.935181 H -7.5" /><rect class="sym" height="6" width="6" x="-3" y="-3" /><text class="lab" transform="translate(0 11)">6</text></g><path class="edge" d="M 0 0 V -8.72552 H 0.0" /><circle class="sym" cx="0" cy="0" r="3" /><text class="lab lft" transform="translate(-3 -7.0)">10</text></g><path class="edge" d="M 0 0 V -34.3972 H 20.625" /><circle class="sym" cx="0" cy="0" r="3" /><text class="lab lft" transform="translate(-3 -7.0)">16</text></g><g class="a23 c1 node n21 p0" transform="translate(20.625 17.0718)"><g class="a21 c2 node n18 p0" transform="translate(0.0 2.71252)"><g class="a18 leaf node n5 p0 sample" transform="translate(11.25 24.2736)"><path class="edge" d="M 0 0 V -24.2736 H -11.25" /><rect class="sym" height="6" width="6" x="-3" y="-3" /><text class="lab" transform="translate(0 11)">5</text></g><g class="a18 c2 node n17 p0" transform="translate(-11.25 13.9649)"><g class="a17 leaf node n9 p0 sample" transform="translate(7.5 10.3087)"><path class="edge" d="M 0 0 V -10.3087 H -7.5" /><rect class="sym" height="6" width="6" x="-3" y="-3" /><text class="lab" transform="translate(0 11)">9</text></g><g class="a17 c1 node n14 p0" transform="translate(-7.5 1.65768)"><g class="a14 leaf node n4 p0 sample" transform="translate(0.0 8.651)"><path class="edge" d="M 0 0 V -8.651 H 0.0" /><rect class="sym" height="6" width="6" x="-3" y="-3" /><text class="lab" transform="translate(0 11)">4</text></g><path class="edge" d="M 0 0 V -1.65768 H 7.5" /><circle class="sym" cx="0" cy="0" r="3" /><text class="lab lft" transform="translate(-3 -7.0)">14</text></g><path class="edge" d="M 0 0 V -13.9649 H 11.25" /><circle class="sym" cx="0" cy="0" r="3" /><text class="lab lft" transform="translate(-3 -7.0)">17</text></g><path class="edge" d="M 0 0 V -2.71252 H 0.0" /><circle class="sym" cx="0" cy="0" r="3" /><text class="lab lft" transform="translate(-3 -7.0)">18</text></g><path class="edge" d="M 0 0 V -17.0718 H -20.625" /><circle class="sym" cx="0" cy="0" r="3" /><text class="lab rgt" transform="translate(3 -7.0)">21</text></g><path class="edge" d="M 0 0 V -15.3346 H 29.0625" /><circle class="sym" cx="0" cy="0" r="3" /><text class="lab lft" transform="translate(-3 -7.0)">23</text></g><g class="a25 c2 node n24 p0" transform="translate(29.0625 3.89207)"><g class="a24 leaf node n1 p0 sample" transform="translate(-11.25 55.5004)"><path class="edge" d="M 0 0 V -55.5004 H 11.25" /><rect class="sym" height="6" width="6" x="-3" y="-3" /><text class="lab" transform="translate(0 11)">1</text></g><g class="a24 c2 node n11 p0" transform="translate(11.25 49.5951)"><g class="a11 leaf node n2 p0 sample" transform="translate(-7.5 5.90537)"><path class="edge" d="M 0 0 V -5.90537 H 7.5" /><rect class="sym" height="6" width="6" x="-3" y="-3" /><text class="lab" transform="translate(0 11)">2</text></g><g class="a11 leaf node n3 p0 sample" transform="translate(7.5 5.90537)"><path class="edge" d="M 0 0 V -5.90537 H -7.5" /><rect class="sym" height="6" width="6" x="-3" y="-3" /><text class="lab" transform="translate(0 11)">3</text></g><path class="edge" d="M 0 0 V -49.5951 H -11.25" /><circle class="sym" cx="0" cy="0" r="3" /><text class="lab rgt" transform="translate(3 -7.0)">11</text></g><path class="edge" d="M 0 0 V -3.89207 H -29.0625" /><circle class="sym" cx="0" cy="0" r="3" /><text class="lab rgt" transform="translate(3 -7.0)">24</text></g><path class="edge" d="M 0 0 V -16.0484 H 31.4062" /><circle class="sym" cx="0" cy="0" r="3" /><text class="lab lft" transform="translate(-3 -7.0)">25</text></g><path class="edge" d="M 0 0 V -19.1591 H 23.2031" /><circle class="sym" cx="0" cy="0" r="3" /><text class="lab lft" transform="translate(-3 -7.0)">26</text></g><circle class="sym" cx="0" cy="0" r="3" /><text class="lab" transform="translate(0 -11)">27</text></g></g></g><g class="tree t1" transform="translate(210 0)"><g class="plotbox"><g class="c2 node n27 p0 root" transform="translate(128.984 26.8)"><g class="a27 leaf node n8 p0 sample" transform="translate(33.5156 94.6)"><path class="edge" d="M 0 0 V -94.6 H -33.5156" /><rect class="sym" height="6" width="6" x="-3" y="-3" /><text class="lab" transform="translate(0 11)">8</text></g><g class="a27 c1 node n26 p0" transform="translate(-33.5156 19.1591)"><g class="a26 c2 node n25 p0" transform="translate(0.0 16.0484)"><g class="a25 c2 node n23 p0" transform="translate(-33.2812 15.3346)"><g class="a23 c1 node n16 p0" transform="translate(-27.1875 34.3972)"><g class="a16 c2 node n10 p0" transform="translate(0.0 8.72552)"><g class="a10 leaf node n0 p0 sample" transform="translate(-7.5 0.935181)"><path class="edge" d="M 0 0 V -0.935181 H 7.5" /><rect class="sym" height="6" width="6" x="-3" y="-3" /><text class="lab" transform="translate(0 11)">0</text></g><g class="a10 leaf node n6 p0 sample" transform="translate(7.5 0.935181)"><path class="edge" d="M 0 0 V -0.935181 H -7.5" /><rect class="sym" height="6" width="6" x="-3" y="-3" /><text class="lab" transform="translate(0 11)">6</text></g><path class="edge" d="M 0 0 V -8.72552 H 0.0" /><circle class="sym" cx="0" cy="0" r="3" /><text class="lab lft" transform="translate(-3 -7.0)">10</text></g><path class="edge" d="M 0 0 V -34.3972 H 27.1875" /><circle class="sym" cx="0" cy="0" r="3" /><text class="lab lft" transform="translate(-3 -7.0)">16</text></g><g class="a23 c2 node n21 p0" transform="translate(27.1875 17.0718)"><g class="a21 c2 node n18 p0" transform="translate(-13.125 2.71252)"><g class="a18 leaf node n5 p0 sample" transform="translate(11.25 24.2736)"><path class="edge" d="M 0 0 V -24.2736 H -11.25" /><rect class="sym" height="6" width="6" x="-3" y="-3" /><text class="lab" transform="translate(0 11)">5</text></g><g class="a18 c2 node n17 p0" transform="translate(-11.25 13.9649)"><g class="a17 leaf node n9 p0 sample" transform="translate(7.5 10.3087)"><path class="edge" d="M 0 0 V -10.3087 H -7.5" /><rect class="sym" height="6" width="6" x="-3" y="-3" /><text class="lab" transform="translate(0 11)">9</text></g><g class="a17 c1 node n14 p0" transform="translate(-7.5 1.65768)"><g class="a14 leaf node n4 p0 sample" transform="translate(0.0 8.651)"><path class="edge" d="M 0 0 V -8.651 H 0.0" /><rect class="sym" height="6" width="6" x="-3" y="-3" /><text class="lab" transform="translate(0 11)">4</text></g><path class="edge" d="M 0 0 V -1.65768 H 7.5" /><circle class="sym" cx="0" cy="0" r="3" /><text class="lab lft" transform="translate(-3 -7.0)">14</text></g><path class="edge" d="M 0 0 V -13.9649 H 11.25" /><circle class="sym" cx="0" cy="0" r="3" /><text class="lab lft" transform="translate(-3 -7.0)">17</text></g><path class="edge" d="M 0 0 V -2.71252 H 13.125" /><circle class="sym" cx="0" cy="0" r="3" /><text class="lab lft" transform="translate(-3 -7.0)">18</text></g><g class="a21 c1 node n20 p0" transform="translate(13.125 1.5665)"><g class="a20 c1 node n12 p0" transform="translate(0.0 18.0707)"><g class="a12 leaf node n7 p0 sample" transform="translate(0.0 7.34886)"><path class="edge" d="M 0 0 V -7.34886 H 0.0" /><rect class="sym" height="6" width="6" x="-3" y="-3" /><text class="lab" transform="translate(0 11)">7</text></g><path class="edge" d="M 0 0 V -18.0707 H 0.0" /><circle class="sym" cx="0" cy="0" r="3" /><text class="lab lft" transform="translate(-3 -7.0)">12</text></g><path class="edge" d="M 0 0 V -1.5665 H -13.125" /><circle class="sym" cx="0" cy="0" r="3" /><text class="lab rgt" transform="translate(3 -7.0)">20</text></g><path class="edge" d="M 0 0 V -17.0718 H -27.1875" /><circle class="sym" cx="0" cy="0" r="3" /><text class="lab rgt" transform="translate(3 -7.0)">21</text></g><path class="edge" d="M 0 0 V -15.3346 H 33.2812" /><circle class="sym" cx="0" cy="0" r="3" /><text class="lab lft" transform="translate(-3 -7.0)">23</text></g><g class="a25 c2 node n24 p0" transform="translate(33.2812 3.89207)"><g class="a24 leaf node n1 p0 sample" transform="translate(-11.25 55.5004)"><path class="edge" d="M 0 0 V -55.5004 H 11.25" /><rect class="sym" height="6" width="6" x="-3" y="-3" /><text class="lab" transform="translate(0 11)">1</text></g><g class="a24 c2 node n11 p0" transform="translate(11.25 49.5951)"><g class="a11 leaf node n2 p0 sample" transform="translate(-7.5 5.90537)"><path class="edge" d="M 0 0 V -5.90537 H 7.5" /><rect class="sym" height="6" width="6" x="-3" y="-3" /><text class="lab" transform="translate(0 11)">2</text></g><g class="a11 leaf node n3 p0 sample" transform="translate(7.5 5.90537)"><path class="edge" d="M 0 0 V -5.90537 H -7.5" /><rect class="sym" height="6" width="6" x="-3" y="-3" /><text class="lab" transform="translate(0 11)">3</text></g><path class="edge" d="M 0 0 V -49.5951 H -11.25" /><circle class="sym" cx="0" cy="0" r="3" /><text class="lab rgt" transform="translate(3 -7.0)">11</text></g><path class="edge" d="M 0 0 V -3.89207 H -33.2812" /><circle class="sym" cx="0" cy="0" r="3" /><text class="lab rgt" transform="translate(3 -7.0)">24</text></g><path class="edge" d="M 0 0 V -16.0484 H 0.0" /><circle class="sym" cx="0" cy="0" r="3" /><text class="lab lft" transform="translate(-3 -7.0)">25</text></g><path class="edge" d="M 0 0 V -19.1591 H 33.5156" /><circle class="sym" cx="0" cy="0" r="3" /><text class="lab lft" transform="translate(-3 -7.0)">26</text></g><circle class="sym" cx="0" cy="0" r="3" /><text class="lab" transform="translate(0 -11)">27</text></g></g></g><g class="tree t2" transform="translate(400 0)"><g class="plotbox"><g class="c2 node n27 p0 root" transform="translate(130.625 26.8)"><g class="a27 leaf node n8 p0 sample" transform="translate(31.875 94.6)"><path class="edge" d="M 0 0 V -94.6 H -31.875" /><rect class="sym" height="6" width="6" x="-3" y="-3" /><text class="lab" transform="translate(0 11)">8</text></g><g class="a27 c1 node n26 p0" transform="translate(-31.875 19.1591)"><g class="a26 c2 node n25 p0" transform="translate(0.0 16.0484)"><g class="a25 c2 node n23 p0" transform="translate(-30 15.3346)"><g class="a23 c2 node n16 p0" transform="translate(-22.5 34.3972)"><g class="a16 c2 node n10 p0" transform="translate(-11.25 8.72552)"><g class="a10 leaf node n0 p0 sample" transform="translate(-7.5 0.935181)"><path class="edge" d="M 0 0 V -0.935181 H 7.5" /><rect class="sym" height="6" width="6" x="-3" y="-3" /><text class="lab" transform="translate(0 11)">0</text></g><g class="a10 leaf node n6 p0 sample" transform="translate(7.5 0.935181)"><path class="edge" d="M 0 0 V -0.935181 H -7.5" /><rect class="sym" height="6" width="6" x="-3" y="-3" /><text class="lab" transform="translate(0 11)">6</text></g><path class="edge" d="M 0 0 V -8.72552 H 11.25" /><circle class="sym" cx="0" cy="0" r="3" /><text class="lab lft" transform="translate(-3 -7.0)">10</text></g><g class="a16 c1 node n13 p0" transform="translate(11.25 2.31184)"><g class="a13 leaf node n7 p0 sample" transform="translate(0.0 7.34886)"><path class="edge" d="M 0 0 V -7.34886 H 0.0" /><rect class="sym" height="6" width="6" x="-3" y="-3" /><text class="lab" transform="translate(0 11)">7</text></g><path class="edge" d="M 0 0 V -2.31184 H -11.25" /><circle class="sym" cx="0" cy="0" r="3" /><text class="lab rgt" transform="translate(3 -7.0)">13</text></g><path class="edge" d="M 0 0 V -34.3972 H 22.5" /><circle class="sym" cx="0" cy="0" r="3" /><text class="lab lft" transform="translate(-3 -7.0)">16</text></g><g class="a23 c1 node n21 p0" transform="translate(22.5 17.0718)"><g class="a21 c2 node n18 p0" transform="translate(0.0 2.71252)"><g class="a18 leaf node n5 p0 sample" transform="translate(11.25 24.2736)"><path class="edge" d="M 0 0 V -24.2736 H -11.25" /><rect class="sym" height="6" width="6" x="-3" y="-3" /><text class="lab" transform="translate(0 11)">5</text></g><g class="a18 c2 node n17 p0" transform="translate(-11.25 13.9649)"><g class="a17 leaf node n9 p0 sample" transform="translate(7.5 10.3087)"><path class="edge" d="M 0 0 V -10.3087 H -7.5" /><rect class="sym" height="6" width="6" x="-3" y="-3" /><text class="lab" transform="translate(0 11)">9</text></g><g class="a17 c1 node n14 p0" transform="translate(-7.5 1.65768)"><g class="a14 leaf node n4 p0 sample" transform="translate(0.0 8.651)"><path class="edge" d="M 0 0 V -8.651 H 0.0" /><rect class="sym" height="6" width="6" x="-3" y="-3" /><text class="lab" transform="translate(0 11)">4</text></g><path class="edge" d="M 0 0 V -1.65768 H 7.5" /><circle class="sym" cx="0" cy="0" r="3" /><text class="lab lft" transform="translate(-3 -7.0)">14</text></g><path class="edge" d="M 0 0 V -13.9649 H 11.25" /><circle class="sym" cx="0" cy="0" r="3" /><text class="lab lft" transform="translate(-3 -7.0)">17</text></g><path class="edge" d="M 0 0 V -2.71252 H 0.0" /><circle class="sym" cx="0" cy="0" r="3" /><text class="lab lft" transform="translate(-3 -7.0)">18</text></g><path class="edge" d="M 0 0 V -17.0718 H -22.5" /><circle class="sym" cx="0" cy="0" r="3" /><text class="lab rgt" transform="translate(3 -7.0)">21</text></g><path class="edge" d="M 0 0 V -15.3346 H 30" /><circle class="sym" cx="0" cy="0" r="3" /><text class="lab lft" transform="translate(-3 -7.0)">23</text></g><g class="a25 c2 node n24 p0" transform="translate(30 3.89207)"><g class="a24 leaf node n1 p0 sample" transform="translate(-11.25 55.5004)"><path class="edge" d="M 0 0 V -55.5004 H 11.25" /><rect class="sym" height="6" width="6" x="-3" y="-3" /><text class="lab" transform="translate(0 11)">1</text></g><g class="a24 c2 node n11 p0" transform="translate(11.25 49.5951)"><g class="a11 leaf node n2 p0 sample" transform="translate(-7.5 5.90537)"><path class="edge" d="M 0 0 V -5.90537 H 7.5" /><rect class="sym" height="6" width="6" x="-3" y="-3" /><text class="lab" transform="translate(0 11)">2</text></g><g class="a11 leaf node n3 p0 sample" transform="translate(7.5 5.90537)"><path class="edge" d="M 0 0 V -5.90537 H -7.5" /><rect class="sym" height="6" width="6" x="-3" y="-3" /><text class="lab" transform="translate(0 11)">3</text></g><path class="edge" d="M 0 0 V -49.5951 H -11.25" /><circle class="sym" cx="0" cy="0" r="3" /><text class="lab rgt" transform="translate(3 -7.0)">11</text></g><path class="edge" d="M 0 0 V -3.89207 H -30" /><circle class="sym" cx="0" cy="0" r="3" /><text class="lab rgt" transform="translate(3 -7.0)">24</text></g><path class="edge" d="M 0 0 V -16.0484 H 0.0" /><circle class="sym" cx="0" cy="0" r="3" /><text class="lab lft" transform="translate(-3 -7.0)">25</text></g><path class="edge" d="M 0 0 V -19.1591 H 31.875" /><circle class="sym" cx="0" cy="0" r="3" /><text class="lab lft" transform="translate(-3 -7.0)">26</text></g><circle class="sym" cx="0" cy="0" r="3" /><text class="lab" transform="translate(0 -11)">27</text></g></g></g><g class="tree t3" transform="translate(590 0)"><g class="plotbox"><g class="c2 node n27 p0 root" transform="translate(140.234 26.8)"><g class="a27 leaf node n8 p0 sample" transform="translate(22.2656 94.6)"><path class="edge" d="M 0 0 V -94.6 H -22.2656" /><rect class="sym" height="6" width="6" x="-3" y="-3" /><text class="lab" transform="translate(0 11)">8</text></g><g class="a27 c2 node n26 p0" transform="translate(-22.2656 19.1591)"><g class="a26 c2 node n25 p0" transform="translate(-29.5312 16.0484)"><g class="a25 c2 node n23 p0" transform="translate(-25.3125 15.3346)"><g class="a23 c2 node n16 p0" transform="translate(-16.875 34.3972)"><g class="a16 c2 node n10 p0" transform="translate(-11.25 8.72552)"><g class="a10 leaf node n0 p0 sample" transform="translate(-7.5 0.935181)"><path class="edge" d="M 0 0 V -0.935181 H 7.5" /><rect class="sym" height="6" width="6" x="-3" y="-3" /><text class="lab" transform="translate(0 11)">0</text></g><g class="a10 leaf node n6 p0 sample" transform="translate(7.5 0.935181)"><path class="edge" d="M 0 0 V -0.935181 H -7.5" /><rect class="sym" height="6" width="6" x="-3" y="-3" /><text class="lab" transform="translate(0 11)">6</text></g><path class="edge" d="M 0 0 V -8.72552 H 11.25" /><circle class="sym" cx="0" cy="0" r="3" /><text class="lab lft" transform="translate(-3 -7.0)">10</text></g><g class="a16 c1 node n13 p0" transform="translate(11.25 2.31184)"><g class="a13 leaf node n7 p0 sample" transform="translate(0.0 7.34886)"><path class="edge" d="M 0 0 V -7.34886 H 0.0" /><rect class="sym" height="6" width="6" x="-3" y="-3" /><text class="lab" transform="translate(0 11)">7</text></g><path class="edge" d="M 0 0 V -2.31184 H -11.25" /><circle class="sym" cx="0" cy="0" r="3" /><text class="lab rgt" transform="translate(3 -7.0)">13</text></g><path class="edge" d="M 0 0 V -34.3972 H 16.875" /><circle class="sym" cx="0" cy="0" r="3" /><text class="lab lft" transform="translate(-3 -7.0)">16</text></g><g class="a23 c1 node n21 p0" transform="translate(16.875 17.0718)"><g class="a21 c2 node n18 p0" transform="translate(0.0 2.71252)"><g class="a18 leaf node n5 p0 sample" transform="translate(-7.5 24.2736)"><path class="edge" d="M 0 0 V -24.2736 H 7.5" /><rect class="sym" height="6" width="6" x="-3" y="-3" /><text class="lab" transform="translate(0 11)">5</text></g><g class="a18 c1 node n17 p0" transform="translate(7.5 13.9649)"><g class="a17 leaf node n9 p0 sample" transform="translate(0.0 10.3087)"><path class="edge" d="M 0 0 V -10.3087 H 0.0" /><rect class="sym" height="6" width="6" x="-3" y="-3" /><text class="lab" transform="translate(0 11)">9</text></g><path class="edge" d="M 0 0 V -13.9649 H -7.5" /><circle class="sym" cx="0" cy="0" r="3" /><text class="lab rgt" transform="translate(3 -7.0)">17</text></g><path class="edge" d="M 0 0 V -2.71252 H 0.0" /><circle class="sym" cx="0" cy="0" r="3" /><text class="lab lft" transform="translate(-3 -7.0)">18</text></g><path class="edge" d="M 0 0 V -17.0718 H -16.875" /><circle class="sym" cx="0" cy="0" r="3" /><text class="lab rgt" transform="translate(3 -7.0)">21</text></g><path class="edge" d="M 0 0 V -15.3346 H 25.3125" /><circle class="sym" cx="0" cy="0" r="3" /><text class="lab lft" transform="translate(-3 -7.0)">23</text></g><g class="a25 c2 node n24 p0" transform="translate(25.3125 3.89207)"><g class="a24 leaf node n1 p0 sample" transform="translate(-11.25 55.5004)"><path class="edge" d="M 0 0 V -55.5004 H 11.25" /><rect class="sym" height="6" width="6" x="-3" y="-3" /><text class="lab" transform="translate(0 11)">1</text></g><g class="a24 c2 node n11 p0" transform="translate(11.25 49.5951)"><g class="a11 leaf node n2 p0 sample" transform="translate(-7.5 5.90537)"><path class="edge" d="M 0 0 V -5.90537 H 7.5" /><rect class="sym" height="6" width="6" x="-3" y="-3" /><text class="lab" transform="translate(0 11)">2</text></g><g class="a11 leaf node n3 p0 sample" transform="translate(7.5 5.90537)"><path class="edge" d="M 0 0 V -5.90537 H -7.5" /><rect class="sym" height="6" width="6" x="-3" y="-3" /><text class="lab" transform="translate(0 11)">3</text></g><path class="edge" d="M 0 0 V -49.5951 H -11.25" /><circle class="sym" cx="0" cy="0" r="3" /><text class="lab rgt" transform="translate(3 -7.0)">11</text></g><path class="edge" d="M 0 0 V -3.89207 H -25.3125" /><circle class="sym" cx="0" cy="0" r="3" /><text class="lab rgt" transform="translate(3 -7.0)">24</text></g><path class="edge" d="M 0 0 V -16.0484 H 29.5312" /><circle class="sym" cx="0" cy="0" r="3" /><text class="lab lft" transform="translate(-3 -7.0)">25</text></g><g class="a26 c1 node n22 p0" transform="translate(29.5312 41.989)"><g class="a22 c1 node n15 p0" transform="translate(0.0 24.8009)"><g class="a15 leaf node n4 p0 sample" transform="translate(0.0 8.651)"><path class="edge" d="M 0 0 V -8.651 H 0.0" /><rect class="sym" height="6" width="6" x="-3" y="-3" /><text class="lab" transform="translate(0 11)">4</text></g><path class="edge" d="M 0 0 V -24.8009 H 0.0" /><circle class="sym" cx="0" cy="0" r="3" /><text class="lab lft" transform="translate(-3 -7.0)">15</text></g><path class="edge" d="M 0 0 V -41.989 H -29.5312" /><circle class="sym" cx="0" cy="0" r="3" /><text class="lab rgt" transform="translate(3 -7.0)">22</text></g><path class="edge" d="M 0 0 V -19.1591 H 22.2656" /><circle class="sym" cx="0" cy="0" r="3" /><text class="lab lft" transform="translate(-3 -7.0)">26</text></g><circle class="sym" cx="0" cy="0" r="3" /><text class="lab" transform="translate(0 -11)">27</text></g></g></g></g></g></svg>
