<svg baseProfile="full" height="200" version="1.1" width="800" xmlns="http://www.w3.org/2000/svg" xmlns:ev="http://www.w3.org/2001/xml-events" xmlns:xlink="http://www.w3.org/1999/xlink"><defs><style type="text/css"><![CDATA[.background path {fill: #808080; fill-opacity: 0}.background path:nth-child(odd) {fill-opacity: .1}.axes {font-size: 14px}.x-axis .tick .lab {font-weight: bold; dominant-baseline: hanging}.axes, .tree {font-size: 14px; text-anchor: middle}.axes line, .edge {stroke: black; fill: none}.y-axis .grid {stroke: #FAFAFA}.node > .sym {fill: black; stroke: none}.site > .sym {stroke: black}.mut text {fill: red; font-style: italic}.mut.extra text {fill: hotpink}.mut line {fill: none; stroke: none}.mut .sym {fill: none; stroke: red}.mut.extra .sym {stroke: hotpink}.node .mut .sym {stroke-width: 1.5px}.tree text, .tree-sequence text {dominant-baseline: central}.plotbox .lab.lft {text-anchor: end}.plotbox .lab.rgt {text-anchor: start}]]></style></defs><g class="tree-sequence"><g class="background"><path d="M20,0 l190,0 l0,138.2 l21.9736,25 l0,5 l-211.974,0 l0,-5 l0,-25 l0,-138.2z" /><path d="M210,0 l190,0 l0,138.2 l-108.452,25 l0,5 l-59.5747,0 l0,-5 l-21.9736,-25 l0,-138.2z" /><path d="M400,0 l190,0 l0,138.2 l144.5,25 l0,5 l-442.952,0 l0,-5 l108.452,-25 l0,-138.2z" /><path d="M590,0 l190,0 l0,138.2 l0,25 l0,5 l-45.4998,0 l0,-5 l-144.5,-25 l0,-138.2z" /></g><g class="axes"><g class="x-axis"><g transform="translate(400 200)"><text class="lab" text-anchor="middle" transform="translate(0 -11)">Genome position</text></g><line x1="20" x2="780" y1="163.2" y2="163.2" /><g class="ticks"><g class="tick" transform="translate(20 163.2)"><line x1="0" x2="0" y1="0" y2="5" /><g transform="translate(0 6)"><text class="lab">0.00</text></g></g><g class="tick" transform="translate(231.974 163.2)"><line x1="0" x2="0" y1="0" y2="5" /><g transform="translate(0 6)"><text class="lab">278.91</text></g></g><g class="tick" transform="translate(291.548 163.2)"><line x1="0" x2="0" y1="0" y2="5" /><g transform="translate(0 6)"><text class="lab">357.30</text></g></g><g class="tick" transform="translate(734.5 163.2)"><line x1="0" x2="0" y1="0" y2="5" /><g transform="translate(0 6)"><text class="lab">940.13</text></g></g><g class="tick" transform="translate(780 163.2)"><line x1="0" x2="0" y1="0" y2="5" /><g transform="translate(0 6)"><text class="lab">1000.00</text></g></g></g></g></g><g class="plotbox trees"><g class="tree t0" transform="translate(20 0)"><g class="plotbox"><g class="c2 node n27 p0 root" transform="translate(111.875 26.8)"><g class="a27 c2 node n21 p0" transform="translate(43.125 74.2667)"><g class="a21 leaf node n8 p0 sample" transform="translate(-7.5 20.3333)"><path class="edge" d="M 0 0 V -20.3333 H 7.5" /><rect class="sym" height="6" width="6" x="-3" y="-3" /><text class="lab" transform="translate(0 11)">8</text></g><g class="a21 leaf node n9 p0 sample" transform="translate(7.5 20.3333)"><path class="edge" d="M 0 0 V -20.3333 H -7.5" /><rect class="sym" height="6" width="6" x="-3" y="-3" /><text class="lab" transform="translate(0 11)">9</text></g><path class="edge" d="M 0 0 V -74.2667 H -43.125" /><circle class="sym" cx="0" cy="0" r="3" /><text class="lab rgt" transform="translate(3 -7.0)">21</text></g><g class="a27 c1 node n26 p0" transform="translate(-43.125 3.03721)"><g class="a26 c2 node n25 p0" transform="translate(0.0 8.5252)"><g class="a25 c2 node n23 p0" transform="translate(22.5 60.0116)"><g class="a23 leaf node n2 p0 sample" transform="translate(-18.75 23.026)"><path class="edge" d="M 0 0 V -23.026 H 18.75" /><rect class="sym" height="6" width="6" x="-3" y="-3" /><text class="lab" transform="translate(0 11)">2</text></g><g class="a23 c1 node n19 p0" transform="translate(18.75 4.28227)"><g class="a19 c2 node n17 p0" transform="translate(0.0 7.24374)"><g class="a17 c1 node n11 p0" transform="translate(-15 7.70438)"><g class="a11 c2 node n10 p0" transform="translate(0.0 3.77733)"><g class="a10 leaf node n3 p0 sample" transform="translate(-7.5 0.0183129)"><path class="edge" d="M 0 0 V -0.0183129 H 7.5" /><rect class="sym" height="6" width="6" x="-3" y="-3" /><text class="lab" transform="translate(0 11)">3</text></g><g class="a10 leaf node n5 p0 sample" transform="translate(7.5 0.0183129)"><path class="edge" d="M 0 0 V -0.0183129 H -7.5" /><rect class="sym" height="6" width="6" x="-3" y="-3" /><text class="lab" transform="translate(0 11)">5</text></g><path class="edge" d="M 0 0 V -3.77733 H 0.0" /><circle class="sym" cx="0" cy="0" r="3" /><text class="lab lft" transform="translate(-3 -7.0)">10</text></g><path class="edge" d="M 0 0 V -7.70438 H 15" /><circle class="sym" cx="0" cy="0" r="3" /><text class="lab lft" transform="translate(-3 -7.0)">11</text></g><g class="a17 c2 node n14 p0" transform="translate(15 5.10877)"><g class="a14 leaf node n4 p0 sample" transform="translate(-7.5 6.39125)"><path class="edge" d="M 0 0 V -6.39125 H 7.5" /><rect class="sym" height="6" width="6" x="-3" y="-3" /><text class="lab" transform="translate(0 11)">4</text></g><g class="a14 leaf node n7 p0 sample" transform="translate(7.5 6.39125)"><path class="edge" d="M 0 0 V -6.39125 H -7.5" /><rect class="sym" height="6" width="6" x="-3" y="-3" /><text class="lab" transform="translate(0 11)">7</text></g><path class="edge" d="M 0 0 V -5.10877 H -15" /><circle class="sym" cx="0" cy="0" r="3" /><text class="lab rgt" transform="translate(3 -7.0)">14</text></g><path class="edge" d="M 0 0 V -7.24374 H 0.0" /><circle class="sym" cx="0" cy="0" r="3" /><text class="lab lft" transform="translate(-3 -7.0)">17</text></g><path class="edge" d="M 0 0 V -4.28227 H -18.75" /><circle class="sym" cx="0" cy="0" r="3" /><text class="lab rgt" transform="translate(3 -7.0)">19</text></g><path class="edge" d="M 0 0 V -60.0116 H -22.5" /><circle class="sym" cx="0" cy="0" r="3" /><text class="lab rgt" transform="translate(3 -7.0)">23</text></g><g class="a25 c2 node n24 p0" transform="translate(-22.5 27.5922)"><g class="a24 c1 node n15 p0" transform="translate(11.25 48.9018)"><g class="a15 leaf node n6 p0 sample" transform="translate(0.0 6.54363)"><path class="edge" d="M 0 0 V -6.54363 H 0.0" /><rect class="sym" height="6" width="6" x="-3" y="-3" /><text class="lab" transform="translate(0 11)">6</text></g><path class="edge" d="M 0 0 V -48.9018 H -11.25" /><circle class="sym" cx="0" cy="0" r="3" /><text class="lab rgt" transform="translate(3 -7.0)">15</text></g><g class="a24 c1 node n22 p0" transform="translate(-11.25 34.4494)"><g class="a22 c1 node n18 p0" transform="translate(0.0 3.89971)"><g class="a18 c2 node n13 p0" transform="translate(0.0 11.9028)"><g class="a13 leaf node n0 p0 sample" transform="translate(-7.5 5.19348)"><path class="edge" d="M 0 0 V -5.19348 H 7.5" /><rect class="sym" height="6" width="6" x="-3" y="-3" /><text class="lab" transform="translate(0 11)">0</text></g><g class="a13 leaf node n1 p0 sample" transform="translate(7.5 5.19348)"><path class="edge" d="M 0 0 V -5.19348 H -7.5" /><rect class="sym" height="6" width="6" x="-3" y="-3" /><text class="lab" transform="translate(0 11)">1</text></g><path class="edge" d="M 0 0 V -11.9028 H 0.0" /><circle class="sym" cx="0" cy="0" r="3" /><text class="lab lft" transform="translate(-3 -7.0)">13</text></g><path class="edge" d="M 0 0 V -3.89971 H 0.0" /><circle class="sym" cx="0" cy="0" r="3" /><text class="lab lft" transform="translate(-3 -7.0)">18</text></g><path class="edge" d="M 0 0 V -34.4494 H 11.25" /><circle class="sym" cx="0" cy="0" r="3" /><text class="lab lft" transform="translate(-3 -7.0)">22</text></g><path class="edge" d="M 0 0 V -27.5922 H 22.5" /><circle class="sym" cx="0" cy="0" r="3" /><text class="lab lft" transform="translate(-3 -7.0)">24</text></g><path class="edge" d="M 0 0 V -8.5252 H 0.0" /><circle class="sym" cx="0" cy="0" r="3" /><text class="lab lft" transform="translate(-3 -7.0)">25</text></g><path class="edge" d="M 0 0 V -3.03721 H 43.125" /><circle class="sym" cx="0" cy="0" r="3" /><text class="lab lft" transform="translate(-3 -7.0)">26</text></g><circle class="sym" cx="0" cy="0" r="3" /><text class="lab" transform="translate(0 -11)">27</text></g></g></g><g class="tree t1" transform="translate(210 0)"><g class="plotbox"><g class="c2 node n27 p0 root" transform="translate(119.844 26.8)"><g class="a27 c2 node n21 p0" transform="translate(35.1562 74.2667)"><g class="a21 leaf node n8 p0 sample" transform="translate(-7.5 20.3333)"><path class="edge" d="M 0 0 V -20.3333 H 7.5" /><rect class="sym" height="6" width="6" x="-3" y="-3" /><text class="lab" transform="translate(0 11)">8</text></g><g class="a21 leaf node n9 p0 sample" transform="translate(7.5 20.3333)"><path class="edge" d="M 0 0 V -20.3333 H -7.5" /><rect class="sym" height="6" width="6" x="-3" y="-3" /><text class="lab" transform="translate(0 11)">9</text></g><path class="edge" d="M 0 0 V -74.2667 H -35.1562" /><circle class="sym" cx="0" cy="0" r="3" /><text class="lab rgt" transform="translate(3 -7.0)">21</text></g><g class="a27 c2 node n26 p0" transform="translate(-35.1562 3.03721)"><g class="a26 c2 node n25 p0" transform="translate(-25.3125 8.5252)"><g class="a25 c1 node n23 p0" transform="translate(13.125 60.0116)"><g class="a23 leaf node n2 p0 sample" transform="translate(0.0 23.026)"><path class="edge" d="M 0 0 V -23.026 H 0.0" /><rect class="sym" height="6" width="6" x="-3" y="-3" /><text class="lab" transform="translate(0 11)">2</text></g><path class="edge" d="M 0 0 V -60.0116 H -13.125" /><circle class="sym" cx="0" cy="0" r="3" /><text class="lab rgt" transform="translate(3 -7.0)">23</text></g><g class="a25 c2 node n24 p0" transform="translate(-13.125 27.5922)"><g class="a24 c1 node n15 p0" transform="translate(11.25 48.9018)"><g class="a15 leaf node n6 p0 sample" transform="translate(0.0 6.54363)"><path class="edge" d="M 0 0 V -6.54363 H 0.0" /><rect class="sym" height="6" width="6" x="-3" y="-3" /><text class="lab" transform="translate(0 11)">6</text></g><path class="edge" d="M 0 0 V -48.9018 H -11.25" /><circle class="sym" cx="0" cy="0" r="3" /><text class="lab rgt" transform="translate(3 -7.0)">15</text></g><g class="a24 c1 node n22 p0" transform="translate(-11.25 34.4494)"><g class="a22 c1 node n18 p0" transform="translate(0.0 3.89971)"><g class="a18 c2 node n13 p0" transform="translate(0.0 11.9028)"><g class="a13 leaf node n0 p0 sample" transform="translate(-7.5 5.19348)"><path class="edge" d="M 0 0 V -5.19348 H 7.5" /><rect class="sym" height="6" width="6" x="-3" y="-3" /><text class="lab" transform="translate(0 11)">0</text></g><g class="a13 leaf node n1 p0 sample" transform="translate(7.5 5.19348)"><path class="edge" d="M 0 0 V -5.19348 H -7.5" /><rect class="sym" height="6" width="6" x="-3" y="-3" /><text class="lab" transform="translate(0 11)">1</text></g><path class="edge" d="M 0 0 V -11.9028 H 0.0" /><circle class="sym" cx="0" cy="0" r="3" /><text class="lab lft" transform="translate(-3 -7.0)">13</text></g><path class="edge" d="M 0 0 V -3.89971 H 0.0" /><circle class="sym" cx="0" cy="0" r="3" /><text class="lab lft" transform="translate(-3 -7.0)">18</text></g><path class="edge" d="M 0 0 V -34.4494 H 11.25" /><circle class="sym" cx="0" cy="0" r="3" /><text class="lab lft" transform="translate(-3 -7.0)">22</text></g><path class="edge" d="M 0 0 V -27.5922 H 13.125" /><circle class="sym" cx="0" cy="0" r="3" /><text class="lab lft" transform="translate(-3 -7.0)">24</text></g><path class="edge" d="M 0 0 V -8.5252 H 25.3125" /><circle class="sym" cx="0" cy="0" r="3" /><text class="lab lft" transform="translate(-3 -7.0)">25</text></g><g class="a26 c1 node n20 p0" transform="translate(25.3125 72.819)"><g class="a20 c2 node n17 p0" transform="translate(0.0 7.24374)"><g class="a17 c1 node n11 p0" transform="translate(-15 7.70438)"><g class="a11 c2 node n10 p0" transform="translate(0.0 3.77733)"><g class="a10 leaf node n3 p0 sample" transform="translate(-7.5 0.0183129)"><path class="edge" d="M 0 0 V -0.0183129 H 7.5" /><rect class="sym" height="6" width="6" x="-3" y="-3" /><text class="lab" transform="translate(0 11)">3</text></g><g class="a10 leaf node n5 p0 sample" transform="translate(7.5 0.0183129)"><path class="edge" d="M 0 0 V -0.0183129 H -7.5" /><rect class="sym" height="6" width="6" x="-3" y="-3" /><text class="lab" transform="translate(0 11)">5</text></g><path class="edge" d="M 0 0 V -3.77733 H 0.0" /><circle class="sym" cx="0" cy="0" r="3" /><text class="lab lft" transform="translate(-3 -7.0)">10</text></g><path class="edge" d="M 0 0 V -7.70438 H 15" /><circle class="sym" cx="0" cy="0" r="3" /><text class="lab lft" transform="translate(-3 -7.0)">11</text></g><g class="a17 c2 node n14 p0" transform="translate(15 5.10877)"><g class="a14 leaf node n4 p0 sample" transform="translate(-7.5 6.39125)"><path class="edge" d="M 0 0 V -6.39125 H 7.5" /><rect class="sym" height="6" width="6" x="-3" y="-3" /><text class="lab" transform="translate(0 11)">4</text></g><g class="a14 leaf node n7 p0 sample" transform="translate(7.5 6.39125)"><path class="edge" d="M 0 0 V -6.39125 H -7.5" /><rect class="sym" height="6" width="6" x="-3" y="-3" /><text class="lab" transform="translate(0 11)">7</text></g><path class="edge" d="M 0 0 V -5.10877 H -15" /><circle class="sym" cx="0" cy="0" r="3" /><text class="lab rgt" transform="translate(3 -7.0)">14</text></g><path class="edge" d="M 0 0 V -7.24374 H 0.0" /><circle class="sym" cx="0" cy="0" r="3" /><text class="lab lft" transform="translate(-3 -7.0)">17</text></g><path class="edge" d="M 0 0 V -72.819 H -25.3125" /><circle class="sym" cx="0" cy="0" r="3" /><text class="lab rgt" transform="translate(3 -7.0)">20</text></g><path class="edge" d="M 0 0 V -3.03721 H 35.1562" /><circle class="sym" cx="0" cy="0" r="3" /><text class="lab lft" transform="translate(-3 -7.0)">26</text></g><circle class="sym" cx="0" cy="0" r="3" /><text class="lab" transform="translate(0 -11)">27</text></g></g></g><g class="tree t2" transform="translate(400 0)"><g class="plotbox"><g class="c2 node n27 p0 root" transform="translate(119.844 26.8)"><g class="a27 c2 node n21 p0" transform="translate(35.1562 74.2667)"><g class="a21 leaf node n8 p0 sample" transform="translate(-7.5 20.3333)"><path class="edge" d="M 0 0 V -20.3333 H 7.5" /><rect class="sym" height="6" width="6" x="-3" y="-3" /><text class="lab" transform="translate(0 11)">8</text></g><g class="a21 leaf node n9 p0 sample" transform="translate(7.5 20.3333)"><path class="edge" d="M 0 0 V -20.3333 H -7.5" /><rect class="sym" height="6" width="6" x="-3" y="-3" /><text class="lab" transform="translate(0 11)">9</text></g><path class="edge" d="M 0 0 V -74.2667 H -35.1562" /><circle class="sym" cx="0" cy="0" r="3" /><text class="lab rgt" transform="translate(3 -7.0)">21</text></g><g class="a27 c2 node n26 p0" transform="translate(-35.1562 3.03721)"><g class="a26 c2 node n25 p0" transform="translate(-25.3125 8.5252)"><g class="a25 c1 node n23 p0" transform="translate(13.125 60.0116)"><g class="a23 leaf node n2 p0 sample" transform="translate(0.0 23.026)"><path class="edge" d="M 0 0 V -23.026 H 0.0" /><rect class="sym" height="6" width="6" x="-3" y="-3" /><text class="lab" transform="translate(0 11)">2</text></g><path class="edge" d="M 0 0 V -60.0116 H -13.125" /><circle class="sym" cx="0" cy="0" r="3" /><text class="lab rgt" transform="translate(3 -7.0)">23</text></g><g class="a25 c1 node n24 p0" transform="translate(-13.125 27.5922)"><g class="a24 c2 node n22 p0" transform="translate(0.0 34.4494)"><g class="a22 c1 node n18 p0" transform="translate(-11.25 3.89971)"><g class="a18 c2 node n13 p0" transform="translate(0.0 11.9028)"><g class="a13 leaf node n0 p0 sample" transform="translate(-7.5 5.19348)"><path class="edge" d="M 0 0 V -5.19348 H 7.5" /><rect class="sym" height="6" width="6" x="-3" y="-3" /><text class="lab" transform="translate(0 11)">0</text></g><g class="a13 leaf node n1 p0 sample" transform="translate(7.5 5.19348)"><path class="edge" d="M 0 0 V -5.19348 H -7.5" /><rect class="sym" height="6" width="6" x="-3" y="-3" /><text class="lab" transform="translate(0 11)">1</text></g><path class="edge" d="M 0 0 V -11.9028 H 0.0" /><circle class="sym" cx="0" cy="0" r="3" /><text class="lab lft" transform="translate(-3 -7.0)">13</text></g><path class="edge" d="M 0 0 V -3.89971 H 11.25" /><circle class="sym" cx="0" cy="0" r="3" /><text class="lab lft" transform="translate(-3 -7.0)">18</text></g><g class="a22 c1 node n16 p0" transform="translate(11.25 14.4524)"><g class="a16 leaf node n6 p0 sample" transform="translate(0.0 6.54363)"><path class="edge" d="M 0 0 V -6.54363 H 0.0" /><rect class="sym" height="6" width="6" x="-3" y="-3" /><text class="lab" transform="translate(0 11)">6</text></g><path class="edge" d="M 0 0 V -14.4524 H -11.25" /><circle class="sym" cx="0" cy="0" r="3" /><text class="lab rgt" transform="translate(3 -7.0)">16</text></g><path class="edge" d="M 0 0 V -34.4494 H 0.0" /><circle class="sym" cx="0" cy="0" r="3" /><text class="lab lft" transform="translate(-3 -7.0)">22</text></g><path class="edge" d="M 0 0 V -27.5922 H 13.125" /><circle class="sym" cx="0" cy="0" r="3" /><text class="lab lft" transform="translate(-3 -7.0)">24</text></g><path class="edge" d="M 0 0 V -8.5252 H 25.3125" /><circle class="sym" cx="0" cy="0" r="3" /><text class="lab lft" transform="translate(-3 -7.0)">25</text></g><g class="a26 c1 node n20 p0" transform="translate(25.3125 72.819)"><g class="a20 c2 node n17 p0" transform="translate(0.0 7.24374)"><g class="a17 c1 node n11 p0" transform="translate(-15 7.70438)"><g class="a11 c2 node n10 p0" transform="translate(0.0 3.77733)"><g class="a10 leaf node n3 p0 sample" transform="translate(-7.5 0.0183129)"><path class="edge" d="M 0 0 V -0.0183129 H 7.5" /><rect class="sym" height="6" width="6" x="-3" y="-3" /><text class="lab" transform="translate(0 11)">3</text></g><g class="a10 leaf node n5 p0 sample" transform="translate(7.5 0.0183129)"><path class="edge" d="M 0 0 V -0.0183129 H -7.5" /><rect class="sym" height="6" width="6" x="-3" y="-3" /><text class="lab" transform="translate(0 11)">5</text></g><path class="edge" d="M 0 0 V -3.77733 H 0.0" /><circle class="sym" cx="0" cy="0" r="3" /><text class="lab lft" transform="translate(-3 -7.0)">10</text></g><path class="edge" d="M 0 0 V -7.70438 H 15" /><circle class="sym" cx="0" cy="0" r="3" /><text class="lab lft" transform="translate(-3 -7.0)">11</text></g><g class="a17 c2 node n14 p0" transform="translate(15 5.10877)"><g class="a14 leaf node n4 p0 sample" transform="translate(-7.5 6.39125)"><path class="edge" d="M 0 0 V -6.39125 H 7.5" /><rect class="sym" height="6" width="6" x="-3" y="-3" /><text class="lab" transform="translate(0 11)">4</text></g><g class="a14 leaf node n7 p0 sample" transform="translate(7.5 6.39125)"><path class="edge" d="M 0 0 V -6.39125 H -7.5" /><rect class="sym" height="6" width="6" x="-3" y="-3" /><text class="lab" transform="translate(0 11)">7</text></g><path class="edge" d="M 0 0 V -5.10877 H -15" /><circle class="sym" cx="0" cy="0" r="3" /><text class="lab rgt" transform="translate(3 -7.0)">14</text></g><path class="edge" d="M 0 0 V -7.24374 H 0.0" /><circle class="sym" cx="0" cy="0" r="3" /><text class="lab lft" transform="translate(-3 -7.0)">17</text></g><path class="edge" d="M 0 0 V -72.819 H -25.3125" /><circle class="sym" cx="0" cy="0" r="3" /><text class="lab rgt" transform="translate(3 -7.0)">20</text></g><path class="edge" d="M 0 0 V -3.03721 H 35.1562" /><circle class="sym" cx="0" cy="0" r="3" /><text class="lab lft" transform="translate(-3 -7.0)">26</text></g><circle class="sym" cx="0" cy="0" r="3" /><text class="lab" transform="translate(0 -11)">27</text></g></g></g><g class="tree t3" transform="translate(590 0)"><g class="plotbox"><g class="c2 node n27 p0 root" transform="translate(130.156 26.8)"><g class="a27 c2 node n21 p0" transform="translate(24.8438 74.2667)"><g class="a21 leaf node n8 p0 sample" transform="translate(-7.5 20.3333)"><path class="edge" d="M 0 0 V -20.3333 H 7.5" /><rect class="sym" height="6" width="6" x="-3" y="-3" /><text class="lab" transform="translate(0 11)">8</text></g><g class="a21 leaf node n9 p0 sample" transform="translate(7.5 20.3333)"><path class="edge" d="M 0 0 V -20.3333 H -7.5" /><rect class="sym" height="6" width="6" x="-3" y="-3" /><text class="lab" transform="translate(0 11)">9</text></g><path class="edge" d="M 0 0 V -74.2667 H -24.8438" /><circle class="sym" cx="0" cy="0" r="3" /><text class="lab rgt" transform="translate(3 -7.0)">21</text></g><g class="a27 c2 node n26 p0" transform="translate(-24.8438 3.03721)"><g class="a26 c2 node n25 p0" transform="translate(-19.6875 8.5252)"><g class="a25 c1 node n23 p0" transform="translate(16.875 60.0116)"><g class="a23 leaf node n2 p0 sample" transform="translate(0.0 23.026)"><path class="edge" d="M 0 0 V -23.026 H 0.0" /><rect class="sym" height="6" width="6" x="-3" y="-3" /><text class="lab" transform="translate(0 11)">2</text></g><path class="edge" d="M 0 0 V -60.0116 H -16.875" /><circle class="sym" cx="0" cy="0" r="3" /><text class="lab rgt" transform="translate(3 -7.0)">23</text></g><g class="a25 c1 node n24 p0" transform="translate(-16.875 27.5922)"><g class="a24 c2 node n22 p0" transform="translate(0.0 34.4494)"><g class="a22 c2 node n18 p0" transform="translate(-18.75 3.89971)"><g class="a18 c2 node n13 p0" transform="translate(-15 11.9028)"><g class="a13 leaf node n0 p0 sample" transform="translate(-7.5 5.19348)"><path class="edge" d="M 0 0 V -5.19348 H 7.5" /><rect class="sym" height="6" width="6" x="-3" y="-3" /><text class="lab" transform="translate(0 11)">0</text></g><g class="a13 leaf node n1 p0 sample" transform="translate(7.5 5.19348)"><path class="edge" d="M 0 0 V -5.19348 H -7.5" /><rect class="sym" height="6" width="6" x="-3" y="-3" /><text class="lab" transform="translate(0 11)">1</text></g><path class="edge" d="M 0 0 V -11.9028 H 15" /><circle class="sym" cx="0" cy="0" r="3" /><text class="lab lft" transform="translate(-3 -7.0)">13</text></g><g class="a18 c1 node n12 p0" transform="translate(15 13.3007)"><g class="a12 c2 node n10 p0" transform="translate(0.0 3.77733)"><g class="a10 leaf node n3 p0 sample" transform="translate(-7.5 0.0183129)"><path class="edge" d="M 0 0 V -0.0183129 H 7.5" /><rect class="sym" height="6" width="6" x="-3" y="-3" /><text class="lab" transform="translate(0 11)">3</text></g><g class="a10 leaf node n5 p0 sample" transform="translate(7.5 0.0183129)"><path class="edge" d="M 0 0 V -0.0183129 H -7.5" /><rect class="sym" height="6" width="6" x="-3" y="-3" /><text class="lab" transform="translate(0 11)">5</text></g><path class="edge" d="M 0 0 V -3.77733 H 0.0" /><circle class="sym" cx="0" cy="0" r="3" /><text class="lab lft" transform="translate(-3 -7.0)">10</text></g><path class="edge" d="M 0 0 V -13.3007 H -15" /><circle class="sym" cx="0" cy="0" r="3" /><text class="lab rgt" transform="translate(3 -7.0)">12</text></g><path class="edge" d="M 0 0 V -3.89971 H 18.75" /><circle class="sym" cx="0" cy="0" r="3" /><text class="lab lft" transform="translate(-3 -7.0)">18</text></g><g class="a22 c1 node n16 p0" transform="translate(18.75 14.4524)"><g class="a16 leaf node n6 p0 sample" transform="translate(0.0 6.54363)"><path class="edge" d="M 0 0 V -6.54363 H 0.0" /><rect class="sym" height="6" width="6" x="-3" y="-3" /><text class="lab" transform="translate(0 11)">6</text></g><path class="edge" d="M 0 0 V -14.4524 H -18.75" /><circle class="sym" cx="0" cy="0" r="3" /><text class="lab rgt" transform="translate(3 -7.0)">16</text></g><path class="edge" d="M 0 0 V -34.4494 H 0.0" /><circle class="sym" cx="0" cy="0" r="3" /><text class="lab lft" transform="translate(-3 -7.0)">22</text></g><path class="edge" d="M 0 0 V -27.5922 H 16.875" /><circle class="sym" cx="0" cy="0" r="3" /><text class="lab lft" transform="translate(-3 -7.0)">24</text></g><path class="edge" d="M 0 0 V -8.5252 H 19.6875" /><circle class="sym" cx="0" cy="0" r="3" /><text class="lab lft" transform="translate(-3 -7.0)">25</text></g><g class="a26 c1 node n20 p0" transform="translate(19.6875 72.819)"><g class="a20 c1 node n17 p0" transform="translate(0.0 7.24374)"><g class="a17 c2 node n14 p0" transform="translate(0.0 5.10877)"><g class="a14 leaf node n4 p0 sample" transform="translate(-7.5 6.39125)"><path class="edge" d="M 0 0 V -6.39125 H 7.5" /><rect class="sym" height="6" width="6" x="-3" y="-3" /><text class="lab" transform="translate(0 11)">4</text></g><g class="a14 leaf node n7 p0 sample" transform="translate(7.5 6.39125)"><path class="edge" d="M 0 0 V -6.39125 H -7.5" /><rect class="sym" height="6" width="6" x="-3" y="-3" /><text class="lab" transform="translate(0 11)">7</text></g><path class="edge" d="M 0 0 V -5.10877 H 0.0" /><circle class="sym" cx="0" cy="0" r="3" /><text class="lab lft" transform="translate(-3 -7.0)">14</text></g><path class="edge" d="M 0 0 V -7.24374 H 0.0" /><circle class="sym" cx="0" cy="0" r="3" /><text class="lab lft" transform="translate(-3 -7.0)">17</text></g><path class="edge" d="M 0 0 V -72.819 H -19.6875" /><circle class="sym" cx="0" cy="0" r="3" /><text class="lab rgt" transform="translate(3 -7.0)">20</text></g><path class="edge" d="M 0 0 V -3.03721 H 24.8438" /><circle class="sym" cx="0" cy="0" r="3" /><text class="lab lft" transform="translate(-3 -7.0)">26</text></g><circle class="sym" cx="0" cy="0" r="3" /><text class="lab" transform="translate(0 -11)">27</text></g></g></g></g></g></svg>
