<svg baseProfile="full" height="200" version="1.1" width="600" xmlns="http://www.w3.org/2000/svg" xmlns:ev="http://www.w3.org/2001/xml-events" xmlns:xlink="http://www.w3.org/1999/xlink"><defs><style type="text/css"><![CDATA[.background path {fill: #808080; fill-opacity: 0}.background path:nth-child(odd) {fill-opacity: .1}.axes {font-size: 14px}.x-axis .tick .lab {font-weight: bold; dominant-baseline: hanging}.axes, .tree {font-size: 14px; text-anchor: middle}.axes line, .edge {stroke: black; fill: none}.y-axis .grid {stroke: #FAFAFA}.node > .sym {fill: black; stroke: none}.site > .sym {stroke: black}.mut text {fill: red; font-style: italic}.mut.extra text {fill: hotpink}.mut line {fill: none; stroke: none}.mut .sym {fill: none; stroke: red}.mut.extra .sym {stroke: hotpink}.node .mut .sym {stroke-width: 1.5px}.tree text, .tree-sequence text {dominant-baseline: central}.plotbox .lab.lft {text-anchor: end}.plotbox .lab.rgt {text-anchor: start}]]></style></defs><g class="tree-sequence"><g class="background"><path d="M20,0 l186.667,0 l0,138.2 l27.7787,25 l0,5 l-214.445,0 l0,-5 l0,-25 l0,-138.2z" /><path d="M206.667,0 l186.667,0 l0,138.2 l-133.798,25 l0,5 l-25.09,0 l0,-5 l-27.7787,-25 l0,-138.2z" /><path d="M393.333,0 l186.667,0 l0,138.2 l0,25 l0,5 l-320.465,0 l0,-5 l133.798,-25 l0,-138.2z" /></g><g class="axes"><g class="x-axis"><g transform="translate(300 200)"><text class="lab" text-anchor="middle" transform="translate(0 -11)">Genome position</text></g><line x1="20" x2="580" y1="163.2" y2="163.2" /><g class="ticks"><g class="tick" transform="translate(20 163.2)"><line x1="0" x2="0" y1="0" y2="5" /><g transform="translate(0 6)"><text class="lab">0.00</text></g></g><g class="tick" transform="translate(234.445 163.2)"><line x1="0" x2="0" y1="0" y2="5" /><g transform="translate(0 6)"><text class="lab">382.94</text></g></g><g class="tick" transform="translate(259.535 163.2)"><line x1="0" x2="0" y1="0" y2="5" /><g transform="translate(0 6)"><text class="lab">427.74</text></g></g><g class="tick" transform="translate(580 163.2)"><line x1="0" x2="0" y1="0" y2="5" /><g transform="translate(0 6)"><text class="lab">1000.00</text></g></g></g></g></g><g class="plotbox trees"><g class="tree t0" transform="translate(20 0)"><g class="plotbox"><g class="c2 node n24 p0 root" transform="translate(102.042 26.8)"><g class="a24 c2 node n22 p0" transform="translate(-38.9583 19.2973)"><g class="a22 c1 node n19 p0" transform="translate(22.9167 30.8821)"><g class="a19 c1 node n11 p0" transform="translate(0.0 30.1452)"><g class="a11 leaf node n5 p0 sample" transform="translate(0.0 14.2754)"><path class="edge" d="M 0 0 V -14.2754 H 0.0" /><rect class="sym" height="6" width="6" x="-3" y="-3" /><text class="lab" transform="translate(0 11)">5</text></g><path class="edge" d="M 0 0 V -30.1452 H 0.0" /><circle class="sym" cx="0" cy="0" r="3" /><text class="lab lft" transform="translate(-3 -7.0)">11</text></g><path class="edge" d="M 0 0 V -30.8821 H -22.9167" /><circle class="sym" cx="0" cy="0" r="3" /><text class="lab rgt" transform="translate(3 -7.0)">19</text></g><g class="a22 c1 node n21 p0" transform="translate(-22.9167 25.7394)"><g class="a21 c2 node n18 p0" transform="translate(0.0 10.6121)"><g class="a18 leaf node n0 p0 sample" transform="translate(-12.8333 38.9512)"><path class="edge" d="M 0 0 V -38.9512 H 12.8333" /><rect class="sym" height="6" width="6" x="-3" y="-3" /><text class="lab" transform="translate(0 11)">0</text></g><g class="a18 c2 node n16 p0" transform="translate(12.8333 11.829)"><g class="a16 leaf node n7 p0 sample" transform="translate(-11 27.1222)"><path class="edge" d="M 0 0 V -27.1222 H 11" /><rect class="sym" height="6" width="6" x="-3" y="-3" /><text class="lab" transform="translate(0 11)">7</text></g><g class="a16 c2 node n15 p0" transform="translate(11 1.95627)"><g class="a15 leaf node n8 p0 sample" transform="translate(-7.33333 25.1659)"><path class="edge" d="M 0 0 V -25.1659 H 7.33333" /><rect class="sym" height="6" width="6" x="-3" y="-3" /><text class="lab" transform="translate(0 11)">8</text></g><g class="a15 c1 node n13 p0" transform="translate(7.33333 10.6914)"><g class="a13 leaf node n9 p0 sample" transform="translate(0.0 14.4745)"><path class="edge" d="M 0 0 V -14.4745 H 0.0" /><rect class="sym" height="6" width="6" x="-3" y="-3" /><text class="lab" transform="translate(0 11)">9</text></g><path class="edge" d="M 0 0 V -10.6914 H -7.33333" /><circle class="sym" cx="0" cy="0" r="3" /><text class="lab rgt" transform="translate(3 -7.0)">13</text></g><path class="edge" d="M 0 0 V -1.95627 H -11" /><circle class="sym" cx="0" cy="0" r="3" /><text class="lab rgt" transform="translate(3 -7.0)">15</text></g><path class="edge" d="M 0 0 V -11.829 H -12.8333" /><circle class="sym" cx="0" cy="0" r="3" /><text class="lab rgt" transform="translate(3 -7.0)">16</text></g><path class="edge" d="M 0 0 V -10.6121 H 0.0" /><circle class="sym" cx="0" cy="0" r="3" /><text class="lab lft" transform="translate(-3 -7.0)">18</text></g><path class="edge" d="M 0 0 V -25.7394 H 22.9167" /><circle class="sym" cx="0" cy="0" r="3" /><text class="lab lft" transform="translate(-3 -7.0)">21</text></g><path class="edge" d="M 0 0 V -19.2973 H 38.9583" /><circle class="sym" cx="0" cy="0" r="3" /><text class="lab lft" transform="translate(-3 -7.0)">22</text></g><g class="a24 c2 node n23 p0" transform="translate(38.9583 14.6307)"><g class="a23 leaf node n2 p0 sample" transform="translate(18.3333 79.9693)"><path class="edge" d="M 0 0 V -79.9693 H -18.3333" /><rect class="sym" height="6" width="6" x="-3" y="-3" /><text class="lab" transform="translate(0 11)">2</text></g><g class="a23 c2 node n17 p0" transform="translate(-18.3333 45.5437)"><g class="a17 c2 node n10 p0" transform="translate(14.6667 27.2962)"><g class="a10 leaf node n3 p0 sample" transform="translate(-7.33333 7.12945)"><path class="edge" d="M 0 0 V -7.12945 H 7.33333" /><rect class="sym" height="6" width="6" x="-3" y="-3" /><text class="lab" transform="translate(0 11)">3</text></g><g class="a10 leaf node n4 p0 sample" transform="translate(7.33333 7.12945)"><path class="edge" d="M 0 0 V -7.12945 H -7.33333" /><rect class="sym" height="6" width="6" x="-3" y="-3" /><text class="lab" transform="translate(0 11)">4</text></g><path class="edge" d="M 0 0 V -27.2962 H -14.6667" /><circle class="sym" cx="0" cy="0" r="3" /><text class="lab rgt" transform="translate(3 -7.0)">10</text></g><g class="a17 c2 node n14 p0" transform="translate(-14.6667 16.2051)"><g class="a14 leaf node n1 p0 sample" transform="translate(-7.33333 18.2206)"><path class="edge" d="M 0 0 V -18.2206 H 7.33333" /><rect class="sym" height="6" width="6" x="-3" y="-3" /><text class="lab" transform="translate(0 11)">1</text></g><g class="a14 leaf node n6 p0 sample" transform="translate(7.33333 18.2206)"><path class="edge" d="M 0 0 V -18.2206 H -7.33333" /><rect class="sym" height="6" width="6" x="-3" y="-3" /><text class="lab" transform="translate(0 11)">6</text></g><path class="edge" d="M 0 0 V -16.2051 H 14.6667" /><circle class="sym" cx="0" cy="0" r="3" /><text class="lab lft" transform="translate(-3 -7.0)">14</text></g><path class="edge" d="M 0 0 V -45.5437 H 18.3333" /><circle class="sym" cx="0" cy="0" r="3" /><text class="lab lft" transform="translate(-3 -7.0)">17</text></g><path class="edge" d="M 0 0 V -14.6307 H -38.9583" /><circle class="sym" cx="0" cy="0" r="3" /><text class="lab rgt" transform="translate(3 -7.0)">23</text></g><circle class="sym" cx="0" cy="0" r="3" /><text class="lab" transform="translate(0 -11)">24</text></g></g></g><g class="tree t1" transform="translate(206.667 0)"><g class="plotbox"><g class="c2 node n24 p0 root" transform="translate(102.042 26.8)"><g class="a24 c1 node n22 p0" transform="translate(-38.9583 19.2973)"><g class="a22 c2 node n21 p0" transform="translate(0.0 25.7394)"><g class="a21 c2 node n18 p0" transform="translate(-22.9167 10.6121)"><g class="a18 leaf node n0 p0 sample" transform="translate(-12.8333 38.9512)"><path class="edge" d="M 0 0 V -38.9512 H 12.8333" /><rect class="sym" height="6" width="6" x="-3" y="-3" /><text class="lab" transform="translate(0 11)">0</text></g><g class="a18 c2 node n16 p0" transform="translate(12.8333 11.829)"><g class="a16 leaf node n7 p0 sample" transform="translate(-11 27.1222)"><path class="edge" d="M 0 0 V -27.1222 H 11" /><rect class="sym" height="6" width="6" x="-3" y="-3" /><text class="lab" transform="translate(0 11)">7</text></g><g class="a16 c2 node n15 p0" transform="translate(11 1.95627)"><g class="a15 leaf node n8 p0 sample" transform="translate(-7.33333 25.1659)"><path class="edge" d="M 0 0 V -25.1659 H 7.33333" /><rect class="sym" height="6" width="6" x="-3" y="-3" /><text class="lab" transform="translate(0 11)">8</text></g><g class="a15 c1 node n13 p0" transform="translate(7.33333 10.6914)"><g class="a13 leaf node n9 p0 sample" transform="translate(0.0 14.4745)"><path class="edge" d="M 0 0 V -14.4745 H 0.0" /><rect class="sym" height="6" width="6" x="-3" y="-3" /><text class="lab" transform="translate(0 11)">9</text></g><path class="edge" d="M 0 0 V -10.6914 H -7.33333" /><circle class="sym" cx="0" cy="0" r="3" /><text class="lab rgt" transform="translate(3 -7.0)">13</text></g><path class="edge" d="M 0 0 V -1.95627 H -11" /><circle class="sym" cx="0" cy="0" r="3" /><text class="lab rgt" transform="translate(3 -7.0)">15</text></g><path class="edge" d="M 0 0 V -11.829 H -12.8333" /><circle class="sym" cx="0" cy="0" r="3" /><text class="lab rgt" transform="translate(3 -7.0)">16</text></g><path class="edge" d="M 0 0 V -10.6121 H 22.9167" /><circle class="sym" cx="0" cy="0" r="3" /><text class="lab lft" transform="translate(-3 -7.0)">18</text></g><g class="a21 c1 node n20 p0" transform="translate(22.9167 5.14268)"><g class="a20 c1 node n11 p0" transform="translate(0.0 30.1452)"><g class="a11 leaf node n5 p0 sample" transform="translate(0.0 14.2754)"><path class="edge" d="M 0 0 V -14.2754 H 0.0" /><rect class="sym" height="6" width="6" x="-3" y="-3" /><text class="lab" transform="translate(0 11)">5</text></g><path class="edge" d="M 0 0 V -30.1452 H 0.0" /><circle class="sym" cx="0" cy="0" r="3" /><text class="lab lft" transform="translate(-3 -7.0)">11</text></g><path class="edge" d="M 0 0 V -5.14268 H -22.9167" /><circle class="sym" cx="0" cy="0" r="3" /><text class="lab rgt" transform="translate(3 -7.0)">20</text></g><path class="edge" d="M 0 0 V -25.7394 H 0.0" /><circle class="sym" cx="0" cy="0" r="3" /><text class="lab lft" transform="translate(-3 -7.0)">21</text></g><path class="edge" d="M 0 0 V -19.2973 H 38.9583" /><circle class="sym" cx="0" cy="0" r="3" /><text class="lab lft" transform="translate(-3 -7.0)">22</text></g><g class="a24 c2 node n23 p0" transform="translate(38.9583 14.6307)"><g class="a23 leaf node n2 p0 sample" transform="translate(18.3333 79.9693)"><path class="edge" d="M 0 0 V -79.9693 H -18.3333" /><rect class="sym" height="6" width="6" x="-3" y="-3" /><text class="lab" transform="translate(0 11)">2</text></g><g class="a23 c2 node n17 p0" transform="translate(-18.3333 45.5437)"><g class="a17 c2 node n10 p0" transform="translate(14.6667 27.2962)"><g class="a10 leaf node n3 p0 sample" transform="translate(-7.33333 7.12945)"><path class="edge" d="M 0 0 V -7.12945 H 7.33333" /><rect class="sym" height="6" width="6" x="-3" y="-3" /><text class="lab" transform="translate(0 11)">3</text></g><g class="a10 leaf node n4 p0 sample" transform="translate(7.33333 7.12945)"><path class="edge" d="M 0 0 V -7.12945 H -7.33333" /><rect class="sym" height="6" width="6" x="-3" y="-3" /><text class="lab" transform="translate(0 11)">4</text></g><path class="edge" d="M 0 0 V -27.2962 H -14.6667" /><circle class="sym" cx="0" cy="0" r="3" /><text class="lab rgt" transform="translate(3 -7.0)">10</text></g><g class="a17 c2 node n14 p0" transform="translate(-14.6667 16.2051)"><g class="a14 leaf node n1 p0 sample" transform="translate(-7.33333 18.2206)"><path class="edge" d="M 0 0 V -18.2206 H 7.33333" /><rect class="sym" height="6" width="6" x="-3" y="-3" /><text class="lab" transform="translate(0 11)">1</text></g><g class="a14 leaf node n6 p0 sample" transform="translate(7.33333 18.2206)"><path class="edge" d="M 0 0 V -18.2206 H -7.33333" /><rect class="sym" height="6" width="6" x="-3" y="-3" /><text class="lab" transform="translate(0 11)">6</text></g><path class="edge" d="M 0 0 V -16.2051 H 14.6667" /><circle class="sym" cx="0" cy="0" r="3" /><text class="lab lft" transform="translate(-3 -7.0)">14</text></g><path class="edge" d="M 0 0 V -45.5437 H 18.3333" /><circle class="sym" cx="0" cy="0" r="3" /><text class="lab lft" transform="translate(-3 -7.0)">17</text></g><path class="edge" d="M 0 0 V -14.6307 H -38.9583" /><circle class="sym" cx="0" cy="0" r="3" /><text class="lab rgt" transform="translate(3 -7.0)">23</text></g><circle class="sym" cx="0" cy="0" r="3" /><text class="lab" transform="translate(0 -11)">24</text></g></g></g><g class="tree t2" transform="translate(393.333 0)"><g class="plotbox"><g class="c2 node n24 p0 root" transform="translate(95.625 26.8)"><g class="a24 c1 node n22 p0" transform="translate(-45.375 19.2973)"><g class="a22 c1 node n21 p0" transform="translate(0.0 25.7394)"><g class="a21 c2 node n18 p0" transform="translate(0.0 10.6121)"><g class="a18 leaf node n0 p0 sample" transform="translate(-22.9167 38.9512)"><path class="edge" d="M 0 0 V -38.9512 H 22.9167" /><rect class="sym" height="6" width="6" x="-3" y="-3" /><text class="lab" transform="translate(0 11)">0</text></g><g class="a18 c2 node n16 p0" transform="translate(22.9167 11.829)"><g class="a16 leaf node n7 p0 sample" transform="translate(12.8333 27.1222)"><path class="edge" d="M 0 0 V -27.1222 H -12.8333" /><rect class="sym" height="6" width="6" x="-3" y="-3" /><text class="lab" transform="translate(0 11)">7</text></g><g class="a16 c2 node n15 p0" transform="translate(-12.8333 1.95627)"><g class="a15 leaf node n8 p0 sample" transform="translate(11 25.1659)"><path class="edge" d="M 0 0 V -25.1659 H -11" /><rect class="sym" height="6" width="6" x="-3" y="-3" /><text class="lab" transform="translate(0 11)">8</text></g><g class="a15 c2 node n13 p0" transform="translate(-11 10.6914)"><g class="a13 leaf node n9 p0 sample" transform="translate(7.33333 14.4745)"><path class="edge" d="M 0 0 V -14.4745 H -7.33333" /><rect class="sym" height="6" width="6" x="-3" y="-3" /><text class="lab" transform="translate(0 11)">9</text></g><g class="a13 c1 node n12 p0" transform="translate(-7.33333 0.199133)"><g class="a12 leaf node n5 p0 sample" transform="translate(0.0 14.2754)"><path class="edge" d="M 0 0 V -14.2754 H 0.0" /><rect class="sym" height="6" width="6" x="-3" y="-3" /><text class="lab" transform="translate(0 11)">5</text></g><path class="edge" d="M 0 0 V -0.199133 H 7.33333" /><circle class="sym" cx="0" cy="0" r="3" /><text class="lab lft" transform="translate(-3 -7.0)">12</text></g><path class="edge" d="M 0 0 V -10.6914 H 11" /><circle class="sym" cx="0" cy="0" r="3" /><text class="lab lft" transform="translate(-3 -7.0)">13</text></g><path class="edge" d="M 0 0 V -1.95627 H 12.8333" /><circle class="sym" cx="0" cy="0" r="3" /><text class="lab lft" transform="translate(-3 -7.0)">15</text></g><path class="edge" d="M 0 0 V -11.829 H -22.9167" /><circle class="sym" cx="0" cy="0" r="3" /><text class="lab rgt" transform="translate(3 -7.0)">16</text></g><path class="edge" d="M 0 0 V -10.6121 H 0.0" /><circle class="sym" cx="0" cy="0" r="3" /><text class="lab lft" transform="translate(-3 -7.0)">18</text></g><path class="edge" d="M 0 0 V -25.7394 H 0.0" /><circle class="sym" cx="0" cy="0" r="3" /><text class="lab lft" transform="translate(-3 -7.0)">21</text></g><path class="edge" d="M 0 0 V -19.2973 H 45.375" /><circle class="sym" cx="0" cy="0" r="3" /><text class="lab lft" transform="translate(-3 -7.0)">22</text></g><g class="a24 c2 node n23 p0" transform="translate(45.375 14.6307)"><g class="a23 leaf node n2 p0 sample" transform="translate(18.3333 79.9693)"><path class="edge" d="M 0 0 V -79.9693 H -18.3333" /><rect class="sym" height="6" width="6" x="-3" y="-3" /><text class="lab" transform="translate(0 11)">2</text></g><g class="a23 c2 node n17 p0" transform="translate(-18.3333 45.5437)"><g class="a17 c2 node n10 p0" transform="translate(14.6667 27.2962)"><g class="a10 leaf node n3 p0 sample" transform="translate(-7.33333 7.12945)"><path class="edge" d="M 0 0 V -7.12945 H 7.33333" /><rect class="sym" height="6" width="6" x="-3" y="-3" /><text class="lab" transform="translate(0 11)">3</text></g><g class="a10 leaf node n4 p0 sample" transform="translate(7.33333 7.12945)"><path class="edge" d="M 0 0 V -7.12945 H -7.33333" /><rect class="sym" height="6" width="6" x="-3" y="-3" /><text class="lab" transform="translate(0 11)">4</text></g><path class="edge" d="M 0 0 V -27.2962 H -14.6667" /><circle class="sym" cx="0" cy="0" r="3" /><text class="lab rgt" transform="translate(3 -7.0)">10</text></g><g class="a17 c2 node n14 p0" transform="translate(-14.6667 16.2051)"><g class="a14 leaf node n1 p0 sample" transform="translate(-7.33333 18.2206)"><path class="edge" d="M 0 0 V -18.2206 H 7.33333" /><rect class="sym" height="6" width="6" x="-3" y="-3" /><text class="lab" transform="translate(0 11)">1</text></g><g class="a14 leaf node n6 p0 sample" transform="translate(7.33333 18.2206)"><path class="edge" d="M 0 0 V -18.2206 H -7.33333" /><rect class="sym" height="6" width="6" x="-3" y="-3" /><text class="lab" transform="translate(0 11)">6</text></g><path class="edge" d="M 0 0 V -16.2051 H 14.6667" /><circle class="sym" cx="0" cy="0" r="3" /><text class="lab lft" transform="translate(-3 -7.0)">14</text></g><path class="edge" d="M 0 0 V -45.5437 H 18.3333" /><circle class="sym" cx="0" cy="0" r="3" /><text class="lab lft" transform="translate(-3 -7.0)">17</text></g><path class="edge" d="M 0 0 V -14.6307 H -45.375" /><circle class="sym" cx="0" cy="0" r="3" /><text class="lab rgt" transform="translate(3 -7.0)">23</text></g><circle class="sym" cx="0" cy="0" r="3" /><text class="lab" transform="translate(0 -11)">24</text></g></g></g></g></g></svg>
