<svg baseProfile="full" height="200" version="1.1" width="1400" xmlns="http://www.w3.org/2000/svg" xmlns:ev="http://www.w3.org/2001/xml-events" xmlns:xlink="http://www.w3.org/1999/xlink"><defs><style type="text/css"><![CDATA[.background path {fill: #808080; fill-opacity: 0}.background path:nth-child(odd) {fill-opacity: .1}.axes {font-size: 14px}.x-axis .tick .lab {font-weight: bold; dominant-baseline: hanging}.axes, .tree {font-size: 14px; text-anchor: middle}.axes line, .edge {stroke: black; fill: none}.y-axis .grid {stroke: #FAFAFA}.node > .sym {fill: black; stroke: none}.site > .sym {stroke: black}.mut text {fill: red; font-style: italic}.mut.extra text {fill: hotpink}.mut line {fill: none; stroke: none}.mut .sym {fill: none; stroke: red}.mut.extra .sym {stroke: hotpink}.node .mut .sym {stroke-width: 1.5px}.tree text, .tree-sequence text {dominant-baseline: central}.plotbox .lab.lft {text-anchor: end}.plotbox .lab.rgt {text-anchor: start}]]></style></defs><g class="tree-sequence"><g class="background"><path d="M20,0 l194.286,0 l0,138.2 l-90.2655,25 l0,5 l-104.02,0 l0,-5 l0,-25 l0,-138.2z" /><path d="M214.286,0 l194.286,0 l0,138.2 l-262.787,25 l0,5 l-21.7639,0 l0,-5 l90.2655,-25 l0,-138.2z" /><path d="M408.571,0 l194.286,0 l0,138.2 l-190.237,25 l0,5 l-266.836,0 l0,-5 l262.787,-25 l0,-138.2z" /><path d="M602.857,0 l194.286,0 l0,138.2 l-228.334,25 l0,5 l-156.188,0 l0,-5 l190.237,-25 l0,-138.2z" /><path d="M797.143,0 l194.286,0 l0,138.2 l-97.8139,25 l0,5 l-324.806,0 l0,-5 l228.334,-25 l0,-138.2z" /><path d="M991.429,0 l194.286,0 l0,138.2 l-71.8981,25 l0,5 l-220.201,0 l0,-5 l97.8139,-25 l0,-138.2z" /><path d="M1185.71,0 l194.286,0 l0,138.2 l0,25 l0,5 l-266.184,0 l0,-5 l71.8981,-25 l0,-138.2z" /></g><g class="axes"><g class="x-axis"><g transform="translate(700 200)"><text class="lab" text-anchor="middle" transform="translate(0 -11)">Genome position</text></g><line x1="20" x2="1380" y1="163.2" y2="163.2" /><g class="ticks"><g class="tick" transform="translate(20 163.2)"><line x1="0" x2="0" y1="0" y2="5" /><g transform="translate(0 6)"><text class="lab">0.00</text></g></g><g class="tick" transform="translate(124.02 163.2)"><line x1="0" x2="0" y1="0" y2="5" /><g transform="translate(0 6)"><text class="lab">76.49</text></g></g><g class="tick" transform="translate(145.784 163.2)"><line x1="0" x2="0" y1="0" y2="5" /><g transform="translate(0 6)"><text class="lab">92.49</text></g></g><g class="tick" transform="translate(412.62 163.2)"><line x1="0" x2="0" y1="0" y2="5" /><g transform="translate(0 6)"><text class="lab">288.69</text></g></g><g class="tick" transform="translate(568.808 163.2)"><line x1="0" x2="0" y1="0" y2="5" /><g transform="translate(0 6)"><text class="lab">403.54</text></g></g><g class="tick" transform="translate(893.615 163.2)"><line x1="0" x2="0" y1="0" y2="5" /><g transform="translate(0 6)"><text class="lab">642.36</text></g></g><g class="tick" transform="translate(1113.82 163.2)"><line x1="0" x2="0" y1="0" y2="5" /><g transform="translate(0 6)"><text class="lab">804.28</text></g></g><g class="tick" transform="translate(1380 163.2)"><line x1="0" x2="0" y1="0" y2="5" /><g transform="translate(0 6)"><text class="lab">1000.00</text></g></g></g></g></g><g class="plotbox trees"><g class="tree t0" transform="translate(20 0)"><g class="plotbox"><g class="c2 node n36 p0 root" transform="translate(91.1161 26.8)"><g class="a36 c2 node n34 p0" transform="translate(-44.1161 17.7508)"><g class="a34 c1 node n32 p0" transform="translate(-11.5714 4.17598)"><g class="a32 c1 node n22 p0" transform="translate(0.0 32.7146)"><g class="a22 c1 node n14 p0" transform="translate(0.0 20.3264)"><g class="a14 c2 node n11 p0" transform="translate(0.0 15.6104)"><g class="a11 leaf node n0 p0 sample" transform="translate(-7.71429 4.02172)"><path class="edge" d="M 0 0 V -4.02172 H 7.71429" /><rect class="sym" height="6" width="6" x="-3" y="-3" /><text class="lab" transform="translate(0 11)">0</text></g><g class="a11 leaf node n4 p0 sample" transform="translate(7.71429 4.02172)"><path class="edge" d="M 0 0 V -4.02172 H -7.71429" /><rect class="sym" height="6" width="6" x="-3" y="-3" /><text class="lab" transform="translate(0 11)">4</text></g><path class="edge" d="M 0 0 V -15.6104 H 0.0" /><circle class="sym" cx="0" cy="0" r="3" /><text class="lab lft" transform="translate(-3 -7.0)">11</text></g><path class="edge" d="M 0 0 V -20.3264 H 0.0" /><circle class="sym" cx="0" cy="0" r="3" /><text class="lab lft" transform="translate(-3 -7.0)">14</text></g><path class="edge" d="M 0 0 V -32.7146 H 0.0" /><circle class="sym" cx="0" cy="0" r="3" /><text class="lab lft" transform="translate(-3 -7.0)">22</text></g><path class="edge" d="M 0 0 V -4.17598 H 11.5714" /><circle class="sym" cx="0" cy="0" r="3" /><text class="lab lft" transform="translate(-3 -7.0)">32</text></g><g class="a34 c1 node n33 p0" transform="translate(11.5714 3.81504)"><g class="a33 c1 node n28 p0" transform="translate(0.0 13.5591)"><g class="a28 c1 node n24 p0" transform="translate(0.0 18.4209)"><g class="a24 c1 node n18 p0" transform="translate(0.0 8.44078)"><g class="a18 leaf node n5 p0 sample" transform="translate(0.0 32.6134)"><path class="edge" d="M 0 0 V -32.6134 H 0.0" /><rect class="sym" height="6" width="6" x="-3" y="-3" /><text class="lab" transform="translate(0 11)">5</text></g><path class="edge" d="M 0 0 V -8.44078 H 0.0" /><circle class="sym" cx="0" cy="0" r="3" /><text class="lab lft" transform="translate(-3 -7.0)">18</text></g><path class="edge" d="M 0 0 V -18.4209 H 0.0" /><circle class="sym" cx="0" cy="0" r="3" /><text class="lab lft" transform="translate(-3 -7.0)">24</text></g><path class="edge" d="M 0 0 V -13.5591 H 0.0" /><circle class="sym" cx="0" cy="0" r="3" /><text class="lab lft" transform="translate(-3 -7.0)">28</text></g><path class="edge" d="M 0 0 V -3.81504 H -11.5714" /><circle class="sym" cx="0" cy="0" r="3" /><text class="lab rgt" transform="translate(3 -7.0)">33</text></g><path class="edge" d="M 0 0 V -17.7508 H 44.1161" /><circle class="sym" cx="0" cy="0" r="3" /><text class="lab lft" transform="translate(-3 -7.0)">34</text></g><g class="a36 c2 node n35 p0" transform="translate(44.1161 7.0916)"><g class="a35 c1 node n27 p0" transform="translate(23.625 36.67)"><g class="a27 c2 node n23 p0" transform="translate(0.0 10.2678)"><g class="a23 leaf node n2 p0 sample" transform="translate(-7.71429 40.5707)"><path class="edge" d="M 0 0 V -40.5707 H 7.71429" /><rect class="sym" height="6" width="6" x="-3" y="-3" /><text class="lab" transform="translate(0 11)">2</text></g><g class="a23 c1 node n20 p0" transform="translate(7.71429 5.61321)"><g class="a20 leaf node n6 p0 sample" transform="translate(0.0 34.9575)"><path class="edge" d="M 0 0 V -34.9575 H 0.0" /><rect class="sym" height="6" width="6" x="-3" y="-3" /><text class="lab" transform="translate(0 11)">6</text></g><path class="edge" d="M 0 0 V -5.61321 H -7.71429" /><circle class="sym" cx="0" cy="0" r="3" /><text class="lab rgt" transform="translate(3 -7.0)">20</text></g><path class="edge" d="M 0 0 V -10.2678 H 0.0" /><circle class="sym" cx="0" cy="0" r="3" /><text class="lab lft" transform="translate(-3 -7.0)">23</text></g><path class="edge" d="M 0 0 V -36.67 H -23.625" /><circle class="sym" cx="0" cy="0" r="3" /><text class="lab rgt" transform="translate(3 -7.0)">27</text></g><g class="a35 c1 node n30 p0" transform="translate(-23.625 15.6471)"><g class="a30 c2 node n19 p0" transform="translate(0.0 38.4301)"><g class="a19 leaf node n8 p0 sample" transform="translate(24.1071 33.4311)"><path class="edge" d="M 0 0 V -33.4311 H -24.1071" /><rect class="sym" height="6" width="6" x="-3" y="-3" /><text class="lab" transform="translate(0 11)">8</text></g><g class="a19 c1 node n16 p0" transform="translate(-24.1071 6.63034)"><g class="a16 c2 node n13 p0" transform="translate(0.0 11.0825)"><g class="a13 leaf node n1 p0 sample" transform="translate(-13.5 15.7183)"><path class="edge" d="M 0 0 V -15.7183 H 13.5" /><rect class="sym" height="6" width="6" x="-3" y="-3" /><text class="lab" transform="translate(0 11)">1</text></g><g class="a13 c2 node n12 p0" transform="translate(13.5 9.82153)"><g class="a12 leaf node n3 p0 sample" transform="translate(-11.5714 5.8968)"><path class="edge" d="M 0 0 V -5.8968 H 11.5714" /><rect class="sym" height="6" width="6" x="-3" y="-3" /><text class="lab" transform="translate(0 11)">3</text></g><g class="a12 c2 node n10 p0" transform="translate(11.5714 4.9697)"><g class="a10 leaf node n7 p0 sample" transform="translate(-7.71429 0.927096)"><path class="edge" d="M 0 0 V -0.927096 H 7.71429" /><rect class="sym" height="6" width="6" x="-3" y="-3" /><text class="lab" transform="translate(0 11)">7</text></g><g class="a10 leaf node n9 p0 sample" transform="translate(7.71429 0.927096)"><path class="edge" d="M 0 0 V -0.927096 H -7.71429" /><rect class="sym" height="6" width="6" x="-3" y="-3" /><text class="lab" transform="translate(0 11)">9</text></g><path class="edge" d="M 0 0 V -4.9697 H -11.5714" /><circle class="sym" cx="0" cy="0" r="3" /><text class="lab rgt" transform="translate(3 -7.0)">10</text></g><path class="edge" d="M 0 0 V -9.82153 H -13.5" /><circle class="sym" cx="0" cy="0" r="3" /><text class="lab rgt" transform="translate(3 -7.0)">12</text></g><path class="edge" d="M 0 0 V -11.0825 H 0.0" /><circle class="sym" cx="0" cy="0" r="3" /><text class="lab lft" transform="translate(-3 -7.0)">13</text></g><path class="edge" d="M 0 0 V -6.63034 H 24.1071" /><circle class="sym" cx="0" cy="0" r="3" /><text class="lab lft" transform="translate(-3 -7.0)">16</text></g><path class="edge" d="M 0 0 V -38.4301 H 0.0" /><circle class="sym" cx="0" cy="0" r="3" /><text class="lab lft" transform="translate(-3 -7.0)">19</text></g><path class="edge" d="M 0 0 V -15.6471 H 23.625" /><circle class="sym" cx="0" cy="0" r="3" /><text class="lab lft" transform="translate(-3 -7.0)">30</text></g><path class="edge" d="M 0 0 V -7.0916 H -44.1161" /><circle class="sym" cx="0" cy="0" r="3" /><text class="lab rgt" transform="translate(3 -7.0)">35</text></g><circle class="sym" cx="0" cy="0" r="3" /><text class="lab" transform="translate(0 -11)">36</text></g></g></g><g class="tree t1" transform="translate(214.286 0)"><g class="plotbox"><g class="c2 node n36 p0 root" transform="translate(91.1161 26.8)"><g class="a36 c1 node n34 p0" transform="translate(-44.1161 17.7508)"><g class="a34 c1 node n33 p0" transform="translate(0.0 3.81504)"><g class="a33 c1 node n28 p0" transform="translate(0.0 13.5591)"><g class="a28 c1 node n24 p0" transform="translate(0.0 18.4209)"><g class="a24 c2 node n18 p0" transform="translate(0.0 8.44078)"><g class="a18 leaf node n5 p0 sample" transform="translate(11.5714 32.6134)"><path class="edge" d="M 0 0 V -32.6134 H -11.5714" /><rect class="sym" height="6" width="6" x="-3" y="-3" /><text class="lab" transform="translate(0 11)">5</text></g><g class="a18 c1 node n15 p0" transform="translate(-11.5714 12.9812)"><g class="a15 c2 node n11 p0" transform="translate(0.0 15.6104)"><g class="a11 leaf node n0 p0 sample" transform="translate(-7.71429 4.02172)"><path class="edge" d="M 0 0 V -4.02172 H 7.71429" /><rect class="sym" height="6" width="6" x="-3" y="-3" /><text class="lab" transform="translate(0 11)">0</text></g><g class="a11 leaf node n4 p0 sample" transform="translate(7.71429 4.02172)"><path class="edge" d="M 0 0 V -4.02172 H -7.71429" /><rect class="sym" height="6" width="6" x="-3" y="-3" /><text class="lab" transform="translate(0 11)">4</text></g><path class="edge" d="M 0 0 V -15.6104 H 0.0" /><circle class="sym" cx="0" cy="0" r="3" /><text class="lab lft" transform="translate(-3 -7.0)">11</text></g><path class="edge" d="M 0 0 V -12.9812 H 11.5714" /><circle class="sym" cx="0" cy="0" r="3" /><text class="lab lft" transform="translate(-3 -7.0)">15</text></g><path class="edge" d="M 0 0 V -8.44078 H 0.0" /><circle class="sym" cx="0" cy="0" r="3" /><text class="lab lft" transform="translate(-3 -7.0)">18</text></g><path class="edge" d="M 0 0 V -18.4209 H 0.0" /><circle class="sym" cx="0" cy="0" r="3" /><text class="lab lft" transform="translate(-3 -7.0)">24</text></g><path class="edge" d="M 0 0 V -13.5591 H 0.0" /><circle class="sym" cx="0" cy="0" r="3" /><text class="lab lft" transform="translate(-3 -7.0)">28</text></g><path class="edge" d="M 0 0 V -3.81504 H 0.0" /><circle class="sym" cx="0" cy="0" r="3" /><text class="lab lft" transform="translate(-3 -7.0)">33</text></g><path class="edge" d="M 0 0 V -17.7508 H 44.1161" /><circle class="sym" cx="0" cy="0" r="3" /><text class="lab lft" transform="translate(-3 -7.0)">34</text></g><g class="a36 c2 node n35 p0" transform="translate(44.1161 7.0916)"><g class="a35 c1 node n27 p0" transform="translate(23.625 36.67)"><g class="a27 c2 node n23 p0" transform="translate(0.0 10.2678)"><g class="a23 leaf node n2 p0 sample" transform="translate(-7.71429 40.5707)"><path class="edge" d="M 0 0 V -40.5707 H 7.71429" /><rect class="sym" height="6" width="6" x="-3" y="-3" /><text class="lab" transform="translate(0 11)">2</text></g><g class="a23 c1 node n20 p0" transform="translate(7.71429 5.61321)"><g class="a20 leaf node n6 p0 sample" transform="translate(0.0 34.9575)"><path class="edge" d="M 0 0 V -34.9575 H 0.0" /><rect class="sym" height="6" width="6" x="-3" y="-3" /><text class="lab" transform="translate(0 11)">6</text></g><path class="edge" d="M 0 0 V -5.61321 H -7.71429" /><circle class="sym" cx="0" cy="0" r="3" /><text class="lab rgt" transform="translate(3 -7.0)">20</text></g><path class="edge" d="M 0 0 V -10.2678 H 0.0" /><circle class="sym" cx="0" cy="0" r="3" /><text class="lab lft" transform="translate(-3 -7.0)">23</text></g><path class="edge" d="M 0 0 V -36.67 H -23.625" /><circle class="sym" cx="0" cy="0" r="3" /><text class="lab rgt" transform="translate(3 -7.0)">27</text></g><g class="a35 c1 node n30 p0" transform="translate(-23.625 15.6471)"><g class="a30 c2 node n19 p0" transform="translate(0.0 38.4301)"><g class="a19 leaf node n8 p0 sample" transform="translate(24.1071 33.4311)"><path class="edge" d="M 0 0 V -33.4311 H -24.1071" /><rect class="sym" height="6" width="6" x="-3" y="-3" /><text class="lab" transform="translate(0 11)">8</text></g><g class="a19 c1 node n16 p0" transform="translate(-24.1071 6.63034)"><g class="a16 c2 node n13 p0" transform="translate(0.0 11.0825)"><g class="a13 leaf node n1 p0 sample" transform="translate(-13.5 15.7183)"><path class="edge" d="M 0 0 V -15.7183 H 13.5" /><rect class="sym" height="6" width="6" x="-3" y="-3" /><text class="lab" transform="translate(0 11)">1</text></g><g class="a13 c2 node n12 p0" transform="translate(13.5 9.82153)"><g class="a12 leaf node n3 p0 sample" transform="translate(-11.5714 5.8968)"><path class="edge" d="M 0 0 V -5.8968 H 11.5714" /><rect class="sym" height="6" width="6" x="-3" y="-3" /><text class="lab" transform="translate(0 11)">3</text></g><g class="a12 c2 node n10 p0" transform="translate(11.5714 4.9697)"><g class="a10 leaf node n7 p0 sample" transform="translate(-7.71429 0.927096)"><path class="edge" d="M 0 0 V -0.927096 H 7.71429" /><rect class="sym" height="6" width="6" x="-3" y="-3" /><text class="lab" transform="translate(0 11)">7</text></g><g class="a10 leaf node n9 p0 sample" transform="translate(7.71429 0.927096)"><path class="edge" d="M 0 0 V -0.927096 H -7.71429" /><rect class="sym" height="6" width="6" x="-3" y="-3" /><text class="lab" transform="translate(0 11)">9</text></g><path class="edge" d="M 0 0 V -4.9697 H -11.5714" /><circle class="sym" cx="0" cy="0" r="3" /><text class="lab rgt" transform="translate(3 -7.0)">10</text></g><path class="edge" d="M 0 0 V -9.82153 H -13.5" /><circle class="sym" cx="0" cy="0" r="3" /><text class="lab rgt" transform="translate(3 -7.0)">12</text></g><path class="edge" d="M 0 0 V -11.0825 H 0.0" /><circle class="sym" cx="0" cy="0" r="3" /><text class="lab lft" transform="translate(-3 -7.0)">13</text></g><path class="edge" d="M 0 0 V -6.63034 H 24.1071" /><circle class="sym" cx="0" cy="0" r="3" /><text class="lab lft" transform="translate(-3 -7.0)">16</text></g><path class="edge" d="M 0 0 V -38.4301 H 0.0" /><circle class="sym" cx="0" cy="0" r="3" /><text class="lab lft" transform="translate(-3 -7.0)">19</text></g><path class="edge" d="M 0 0 V -15.6471 H 23.625" /><circle class="sym" cx="0" cy="0" r="3" /><text class="lab lft" transform="translate(-3 -7.0)">30</text></g><path class="edge" d="M 0 0 V -7.0916 H -44.1161" /><circle class="sym" cx="0" cy="0" r="3" /><text class="lab rgt" transform="translate(3 -7.0)">35</text></g><circle class="sym" cx="0" cy="0" r="3" /><text class="lab" transform="translate(0 -11)">36</text></g></g></g><g class="tree t2" transform="translate(408.571 0)"><g class="plotbox"><g class="c2 node n36 p0 root" transform="translate(91.1161 26.8)"><g class="a36 c1 node n34 p0" transform="translate(-44.1161 17.7508)"><g class="a34 c1 node n33 p0" transform="translate(0.0 3.81504)"><g class="a33 c1 node n29 p0" transform="translate(0.0 13.5591)"><g class="a29 c1 node n24 p0" transform="translate(0.0 18.4209)"><g class="a24 c2 node n18 p0" transform="translate(0.0 8.44078)"><g class="a18 leaf node n5 p0 sample" transform="translate(11.5714 32.6134)"><path class="edge" d="M 0 0 V -32.6134 H -11.5714" /><rect class="sym" height="6" width="6" x="-3" y="-3" /><text class="lab" transform="translate(0 11)">5</text></g><g class="a18 c1 node n15 p0" transform="translate(-11.5714 12.9812)"><g class="a15 c2 node n11 p0" transform="translate(0.0 15.6104)"><g class="a11 leaf node n0 p0 sample" transform="translate(-7.71429 4.02172)"><path class="edge" d="M 0 0 V -4.02172 H 7.71429" /><rect class="sym" height="6" width="6" x="-3" y="-3" /><text class="lab" transform="translate(0 11)">0</text></g><g class="a11 leaf node n4 p0 sample" transform="translate(7.71429 4.02172)"><path class="edge" d="M 0 0 V -4.02172 H -7.71429" /><rect class="sym" height="6" width="6" x="-3" y="-3" /><text class="lab" transform="translate(0 11)">4</text></g><path class="edge" d="M 0 0 V -15.6104 H 0.0" /><circle class="sym" cx="0" cy="0" r="3" /><text class="lab lft" transform="translate(-3 -7.0)">11</text></g><path class="edge" d="M 0 0 V -12.9812 H 11.5714" /><circle class="sym" cx="0" cy="0" r="3" /><text class="lab lft" transform="translate(-3 -7.0)">15</text></g><path class="edge" d="M 0 0 V -8.44078 H 0.0" /><circle class="sym" cx="0" cy="0" r="3" /><text class="lab lft" transform="translate(-3 -7.0)">18</text></g><path class="edge" d="M 0 0 V -18.4209 H 0.0" /><circle class="sym" cx="0" cy="0" r="3" /><text class="lab lft" transform="translate(-3 -7.0)">24</text></g><path class="edge" d="M 0 0 V -13.5591 H 0.0" /><circle class="sym" cx="0" cy="0" r="3" /><text class="lab lft" transform="translate(-3 -7.0)">29</text></g><path class="edge" d="M 0 0 V -3.81504 H 0.0" /><circle class="sym" cx="0" cy="0" r="3" /><text class="lab lft" transform="translate(-3 -7.0)">33</text></g><path class="edge" d="M 0 0 V -17.7508 H 44.1161" /><circle class="sym" cx="0" cy="0" r="3" /><text class="lab lft" transform="translate(-3 -7.0)">34</text></g><g class="a36 c2 node n35 p0" transform="translate(44.1161 7.0916)"><g class="a35 c1 node n27 p0" transform="translate(23.625 36.67)"><g class="a27 c2 node n23 p0" transform="translate(0.0 10.2678)"><g class="a23 leaf node n2 p0 sample" transform="translate(-7.71429 40.5707)"><path class="edge" d="M 0 0 V -40.5707 H 7.71429" /><rect class="sym" height="6" width="6" x="-3" y="-3" /><text class="lab" transform="translate(0 11)">2</text></g><g class="a23 c1 node n20 p0" transform="translate(7.71429 5.61321)"><g class="a20 leaf node n6 p0 sample" transform="translate(0.0 34.9575)"><path class="edge" d="M 0 0 V -34.9575 H 0.0" /><rect class="sym" height="6" width="6" x="-3" y="-3" /><text class="lab" transform="translate(0 11)">6</text></g><path class="edge" d="M 0 0 V -5.61321 H -7.71429" /><circle class="sym" cx="0" cy="0" r="3" /><text class="lab rgt" transform="translate(3 -7.0)">20</text></g><path class="edge" d="M 0 0 V -10.2678 H 0.0" /><circle class="sym" cx="0" cy="0" r="3" /><text class="lab lft" transform="translate(-3 -7.0)">23</text></g><path class="edge" d="M 0 0 V -36.67 H -23.625" /><circle class="sym" cx="0" cy="0" r="3" /><text class="lab rgt" transform="translate(3 -7.0)">27</text></g><g class="a35 c1 node n30 p0" transform="translate(-23.625 15.6471)"><g class="a30 c2 node n19 p0" transform="translate(0.0 38.4301)"><g class="a19 leaf node n8 p0 sample" transform="translate(24.1071 33.4311)"><path class="edge" d="M 0 0 V -33.4311 H -24.1071" /><rect class="sym" height="6" width="6" x="-3" y="-3" /><text class="lab" transform="translate(0 11)">8</text></g><g class="a19 c1 node n16 p0" transform="translate(-24.1071 6.63034)"><g class="a16 c2 node n13 p0" transform="translate(0.0 11.0825)"><g class="a13 leaf node n1 p0 sample" transform="translate(-13.5 15.7183)"><path class="edge" d="M 0 0 V -15.7183 H 13.5" /><rect class="sym" height="6" width="6" x="-3" y="-3" /><text class="lab" transform="translate(0 11)">1</text></g><g class="a13 c2 node n12 p0" transform="translate(13.5 9.82153)"><g class="a12 leaf node n3 p0 sample" transform="translate(-11.5714 5.8968)"><path class="edge" d="M 0 0 V -5.8968 H 11.5714" /><rect class="sym" height="6" width="6" x="-3" y="-3" /><text class="lab" transform="translate(0 11)">3</text></g><g class="a12 c2 node n10 p0" transform="translate(11.5714 4.9697)"><g class="a10 leaf node n7 p0 sample" transform="translate(-7.71429 0.927096)"><path class="edge" d="M 0 0 V -0.927096 H 7.71429" /><rect class="sym" height="6" width="6" x="-3" y="-3" /><text class="lab" transform="translate(0 11)">7</text></g><g class="a10 leaf node n9 p0 sample" transform="translate(7.71429 0.927096)"><path class="edge" d="M 0 0 V -0.927096 H -7.71429" /><rect class="sym" height="6" width="6" x="-3" y="-3" /><text class="lab" transform="translate(0 11)">9</text></g><path class="edge" d="M 0 0 V -4.9697 H -11.5714" /><circle class="sym" cx="0" cy="0" r="3" /><text class="lab rgt" transform="translate(3 -7.0)">10</text></g><path class="edge" d="M 0 0 V -9.82153 H -13.5" /><circle class="sym" cx="0" cy="0" r="3" /><text class="lab rgt" transform="translate(3 -7.0)">12</text></g><path class="edge" d="M 0 0 V -11.0825 H 0.0" /><circle class="sym" cx="0" cy="0" r="3" /><text class="lab lft" transform="translate(-3 -7.0)">13</text></g><path class="edge" d="M 0 0 V -6.63034 H 24.1071" /><circle class="sym" cx="0" cy="0" r="3" /><text class="lab lft" transform="translate(-3 -7.0)">16</text></g><path class="edge" d="M 0 0 V -38.4301 H 0.0" /><circle class="sym" cx="0" cy="0" r="3" /><text class="lab lft" transform="translate(-3 -7.0)">19</text></g><path class="edge" d="M 0 0 V -15.6471 H 23.625" /><circle class="sym" cx="0" cy="0" r="3" /><text class="lab lft" transform="translate(-3 -7.0)">30</text></g><path class="edge" d="M 0 0 V -7.0916 H -44.1161" /><circle class="sym" cx="0" cy="0" r="3" /><text class="lab rgt" transform="translate(3 -7.0)">35</text></g><circle class="sym" cx="0" cy="0" r="3" /><text class="lab" transform="translate(0 -11)">36</text></g></g></g><g class="tree t3" transform="translate(602.857 0)"><g class="plotbox"><g class="c2 node n36 p0 root" transform="translate(91.1161 26.8)"><g class="a36 c1 node n34 p0" transform="translate(-44.1161 17.7508)"><g class="a34 c1 node n33 p0" transform="translate(0.0 3.81504)"><g class="a33 c1 node n29 p0" transform="translate(0.0 13.5591)"><g class="a29 c1 node n24 p0" transform="translate(0.0 18.4209)"><g class="a24 c2 node n18 p0" transform="translate(0.0 8.44078)"><g class="a18 leaf node n5 p0 sample" transform="translate(11.5714 32.6134)"><path class="edge" d="M 0 0 V -32.6134 H -11.5714" /><rect class="sym" height="6" width="6" x="-3" y="-3" /><text class="lab" transform="translate(0 11)">5</text></g><g class="a18 c1 node n15 p0" transform="translate(-11.5714 12.9812)"><g class="a15 c2 node n11 p0" transform="translate(0.0 15.6104)"><g class="a11 leaf node n0 p0 sample" transform="translate(-7.71429 4.02172)"><path class="edge" d="M 0 0 V -4.02172 H 7.71429" /><rect class="sym" height="6" width="6" x="-3" y="-3" /><text class="lab" transform="translate(0 11)">0</text></g><g class="a11 leaf node n4 p0 sample" transform="translate(7.71429 4.02172)"><path class="edge" d="M 0 0 V -4.02172 H -7.71429" /><rect class="sym" height="6" width="6" x="-3" y="-3" /><text class="lab" transform="translate(0 11)">4</text></g><path class="edge" d="M 0 0 V -15.6104 H 0.0" /><circle class="sym" cx="0" cy="0" r="3" /><text class="lab lft" transform="translate(-3 -7.0)">11</text></g><path class="edge" d="M 0 0 V -12.9812 H 11.5714" /><circle class="sym" cx="0" cy="0" r="3" /><text class="lab lft" transform="translate(-3 -7.0)">15</text></g><path class="edge" d="M 0 0 V -8.44078 H 0.0" /><circle class="sym" cx="0" cy="0" r="3" /><text class="lab lft" transform="translate(-3 -7.0)">18</text></g><path class="edge" d="M 0 0 V -18.4209 H 0.0" /><circle class="sym" cx="0" cy="0" r="3" /><text class="lab lft" transform="translate(-3 -7.0)">24</text></g><path class="edge" d="M 0 0 V -13.5591 H 0.0" /><circle class="sym" cx="0" cy="0" r="3" /><text class="lab lft" transform="translate(-3 -7.0)">29</text></g><path class="edge" d="M 0 0 V -3.81504 H 0.0" /><circle class="sym" cx="0" cy="0" r="3" /><text class="lab lft" transform="translate(-3 -7.0)">33</text></g><path class="edge" d="M 0 0 V -17.7508 H 44.1161" /><circle class="sym" cx="0" cy="0" r="3" /><text class="lab lft" transform="translate(-3 -7.0)">34</text></g><g class="a36 c2 node n35 p0" transform="translate(44.1161 7.0916)"><g class="a35 c2 node n27 p0" transform="translate(23.625 36.67)"><g class="a27 c1 node n23 p0" transform="translate(-7.71429 10.2678)"><g class="a23 leaf node n2 p0 sample" transform="translate(0.0 40.5707)"><path class="edge" d="M 0 0 V -40.5707 H 0.0" /><rect class="sym" height="6" width="6" x="-3" y="-3" /><text class="lab" transform="translate(0 11)">2</text></g><path class="edge" d="M 0 0 V -10.2678 H 7.71429" /><circle class="sym" cx="0" cy="0" r="3" /><text class="lab lft" transform="translate(-3 -7.0)">23</text></g><g class="a27 c1 node n26 p0" transform="translate(7.71429 4.80157)"><g class="a26 c1 node n21 p0" transform="translate(0.0 11.0794)"><g class="a21 leaf node n6 p0 sample" transform="translate(0.0 34.9575)"><path class="edge" d="M 0 0 V -34.9575 H 0.0" /><rect class="sym" height="6" width="6" x="-3" y="-3" /><text class="lab" transform="translate(0 11)">6</text></g><path class="edge" d="M 0 0 V -11.0794 H 0.0" /><circle class="sym" cx="0" cy="0" r="3" /><text class="lab lft" transform="translate(-3 -7.0)">21</text></g><path class="edge" d="M 0 0 V -4.80157 H -7.71429" /><circle class="sym" cx="0" cy="0" r="3" /><text class="lab rgt" transform="translate(3 -7.0)">26</text></g><path class="edge" d="M 0 0 V -36.67 H -23.625" /><circle class="sym" cx="0" cy="0" r="3" /><text class="lab rgt" transform="translate(3 -7.0)">27</text></g><g class="a35 c1 node n30 p0" transform="translate(-23.625 15.6471)"><g class="a30 c2 node n19 p0" transform="translate(0.0 38.4301)"><g class="a19 leaf node n8 p0 sample" transform="translate(24.1071 33.4311)"><path class="edge" d="M 0 0 V -33.4311 H -24.1071" /><rect class="sym" height="6" width="6" x="-3" y="-3" /><text class="lab" transform="translate(0 11)">8</text></g><g class="a19 c1 node n16 p0" transform="translate(-24.1071 6.63034)"><g class="a16 c2 node n13 p0" transform="translate(0.0 11.0825)"><g class="a13 leaf node n1 p0 sample" transform="translate(-13.5 15.7183)"><path class="edge" d="M 0 0 V -15.7183 H 13.5" /><rect class="sym" height="6" width="6" x="-3" y="-3" /><text class="lab" transform="translate(0 11)">1</text></g><g class="a13 c2 node n12 p0" transform="translate(13.5 9.82153)"><g class="a12 leaf node n3 p0 sample" transform="translate(-11.5714 5.8968)"><path class="edge" d="M 0 0 V -5.8968 H 11.5714" /><rect class="sym" height="6" width="6" x="-3" y="-3" /><text class="lab" transform="translate(0 11)">3</text></g><g class="a12 c2 node n10 p0" transform="translate(11.5714 4.9697)"><g class="a10 leaf node n7 p0 sample" transform="translate(-7.71429 0.927096)"><path class="edge" d="M 0 0 V -0.927096 H 7.71429" /><rect class="sym" height="6" width="6" x="-3" y="-3" /><text class="lab" transform="translate(0 11)">7</text></g><g class="a10 leaf node n9 p0 sample" transform="translate(7.71429 0.927096)"><path class="edge" d="M 0 0 V -0.927096 H -7.71429" /><rect class="sym" height="6" width="6" x="-3" y="-3" /><text class="lab" transform="translate(0 11)">9</text></g><path class="edge" d="M 0 0 V -4.9697 H -11.5714" /><circle class="sym" cx="0" cy="0" r="3" /><text class="lab rgt" transform="translate(3 -7.0)">10</text></g><path class="edge" d="M 0 0 V -9.82153 H -13.5" /><circle class="sym" cx="0" cy="0" r="3" /><text class="lab rgt" transform="translate(3 -7.0)">12</text></g><path class="edge" d="M 0 0 V -11.0825 H 0.0" /><circle class="sym" cx="0" cy="0" r="3" /><text class="lab lft" transform="translate(-3 -7.0)">13</text></g><path class="edge" d="M 0 0 V -6.63034 H 24.1071" /><circle class="sym" cx="0" cy="0" r="3" /><text class="lab lft" transform="translate(-3 -7.0)">16</text></g><path class="edge" d="M 0 0 V -38.4301 H 0.0" /><circle class="sym" cx="0" cy="0" r="3" /><text class="lab lft" transform="translate(-3 -7.0)">19</text></g><path class="edge" d="M 0 0 V -15.6471 H 23.625" /><circle class="sym" cx="0" cy="0" r="3" /><text class="lab lft" transform="translate(-3 -7.0)">30</text></g><path class="edge" d="M 0 0 V -7.0916 H -44.1161" /><circle class="sym" cx="0" cy="0" r="3" /><text class="lab rgt" transform="translate(3 -7.0)">35</text></g><circle class="sym" cx="0" cy="0" r="3" /><text class="lab" transform="translate(0 -11)">36</text></g></g></g><g class="tree t4" transform="translate(797.143 0)"><g class="plotbox"><g class="c2 node n36 p0 root" transform="translate(119.08 26.8)"><g class="a36 c2 node n34 p0" transform="translate(-39.7768 17.7508)"><g class="a34 c1 node n33 p0" transform="translate(-32.3036 3.81504)"><g class="a33 c1 node n29 p0" transform="translate(0.0 13.5591)"><g class="a29 c1 node n24 p0" transform="translate(0.0 18.4209)"><g class="a24 c2 node n18 p0" transform="translate(0.0 8.44078)"><g class="a18 leaf node n5 p0 sample" transform="translate(11.5714 32.6134)"><path class="edge" d="M 0 0 V -32.6134 H -11.5714" /><rect class="sym" height="6" width="6" x="-3" y="-3" /><text class="lab" transform="translate(0 11)">5</text></g><g class="a18 c1 node n15 p0" transform="translate(-11.5714 12.9812)"><g class="a15 c2 node n11 p0" transform="translate(0.0 15.6104)"><g class="a11 leaf node n0 p0 sample" transform="translate(-7.71429 4.02172)"><path class="edge" d="M 0 0 V -4.02172 H 7.71429" /><rect class="sym" height="6" width="6" x="-3" y="-3" /><text class="lab" transform="translate(0 11)">0</text></g><g class="a11 leaf node n4 p0 sample" transform="translate(7.71429 4.02172)"><path class="edge" d="M 0 0 V -4.02172 H -7.71429" /><rect class="sym" height="6" width="6" x="-3" y="-3" /><text class="lab" transform="translate(0 11)">4</text></g><path class="edge" d="M 0 0 V -15.6104 H 0.0" /><circle class="sym" cx="0" cy="0" r="3" /><text class="lab lft" transform="translate(-3 -7.0)">11</text></g><path class="edge" d="M 0 0 V -12.9812 H 11.5714" /><circle class="sym" cx="0" cy="0" r="3" /><text class="lab lft" transform="translate(-3 -7.0)">15</text></g><path class="edge" d="M 0 0 V -8.44078 H 0.0" /><circle class="sym" cx="0" cy="0" r="3" /><text class="lab lft" transform="translate(-3 -7.0)">18</text></g><path class="edge" d="M 0 0 V -18.4209 H 0.0" /><circle class="sym" cx="0" cy="0" r="3" /><text class="lab lft" transform="translate(-3 -7.0)">24</text></g><path class="edge" d="M 0 0 V -13.5591 H 0.0" /><circle class="sym" cx="0" cy="0" r="3" /><text class="lab lft" transform="translate(-3 -7.0)">29</text></g><path class="edge" d="M 0 0 V -3.81504 H 32.3036" /><circle class="sym" cx="0" cy="0" r="3" /><text class="lab lft" transform="translate(-3 -7.0)">33</text></g><g class="a34 c1 node n32 p0" transform="translate(32.3036 4.17598)"><g class="a32 c1 node n31 p0" transform="translate(0.0 0.811915)"><g class="a31 c2 node n19 p0" transform="translate(0.0 38.4301)"><g class="a19 leaf node n8 p0 sample" transform="translate(24.1071 33.4311)"><path class="edge" d="M 0 0 V -33.4311 H -24.1071" /><rect class="sym" height="6" width="6" x="-3" y="-3" /><text class="lab" transform="translate(0 11)">8</text></g><g class="a19 c1 node n16 p0" transform="translate(-24.1071 6.63034)"><g class="a16 c2 node n13 p0" transform="translate(0.0 11.0825)"><g class="a13 leaf node n1 p0 sample" transform="translate(-13.5 15.7183)"><path class="edge" d="M 0 0 V -15.7183 H 13.5" /><rect class="sym" height="6" width="6" x="-3" y="-3" /><text class="lab" transform="translate(0 11)">1</text></g><g class="a13 c2 node n12 p0" transform="translate(13.5 9.82153)"><g class="a12 leaf node n3 p0 sample" transform="translate(-11.5714 5.8968)"><path class="edge" d="M 0 0 V -5.8968 H 11.5714" /><rect class="sym" height="6" width="6" x="-3" y="-3" /><text class="lab" transform="translate(0 11)">3</text></g><g class="a12 c2 node n10 p0" transform="translate(11.5714 4.9697)"><g class="a10 leaf node n7 p0 sample" transform="translate(-7.71429 0.927096)"><path class="edge" d="M 0 0 V -0.927096 H 7.71429" /><rect class="sym" height="6" width="6" x="-3" y="-3" /><text class="lab" transform="translate(0 11)">7</text></g><g class="a10 leaf node n9 p0 sample" transform="translate(7.71429 0.927096)"><path class="edge" d="M 0 0 V -0.927096 H -7.71429" /><rect class="sym" height="6" width="6" x="-3" y="-3" /><text class="lab" transform="translate(0 11)">9</text></g><path class="edge" d="M 0 0 V -4.9697 H -11.5714" /><circle class="sym" cx="0" cy="0" r="3" /><text class="lab rgt" transform="translate(3 -7.0)">10</text></g><path class="edge" d="M 0 0 V -9.82153 H -13.5" /><circle class="sym" cx="0" cy="0" r="3" /><text class="lab rgt" transform="translate(3 -7.0)">12</text></g><path class="edge" d="M 0 0 V -11.0825 H 0.0" /><circle class="sym" cx="0" cy="0" r="3" /><text class="lab lft" transform="translate(-3 -7.0)">13</text></g><path class="edge" d="M 0 0 V -6.63034 H 24.1071" /><circle class="sym" cx="0" cy="0" r="3" /><text class="lab lft" transform="translate(-3 -7.0)">16</text></g><path class="edge" d="M 0 0 V -38.4301 H 0.0" /><circle class="sym" cx="0" cy="0" r="3" /><text class="lab lft" transform="translate(-3 -7.0)">19</text></g><path class="edge" d="M 0 0 V -0.811915 H 0.0" /><circle class="sym" cx="0" cy="0" r="3" /><text class="lab lft" transform="translate(-3 -7.0)">31</text></g><path class="edge" d="M 0 0 V -4.17598 H -32.3036" /><circle class="sym" cx="0" cy="0" r="3" /><text class="lab rgt" transform="translate(3 -7.0)">32</text></g><path class="edge" d="M 0 0 V -17.7508 H 39.7768" /><circle class="sym" cx="0" cy="0" r="3" /><text class="lab lft" transform="translate(-3 -7.0)">34</text></g><g class="a36 c1 node n35 p0" transform="translate(39.7768 7.0916)"><g class="a35 c2 node n27 p0" transform="translate(0.0 36.67)"><g class="a27 c1 node n23 p0" transform="translate(-7.71429 10.2678)"><g class="a23 leaf node n2 p0 sample" transform="translate(0.0 40.5707)"><path class="edge" d="M 0 0 V -40.5707 H 0.0" /><rect class="sym" height="6" width="6" x="-3" y="-3" /><text class="lab" transform="translate(0 11)">2</text></g><path class="edge" d="M 0 0 V -10.2678 H 7.71429" /><circle class="sym" cx="0" cy="0" r="3" /><text class="lab lft" transform="translate(-3 -7.0)">23</text></g><g class="a27 c1 node n26 p0" transform="translate(7.71429 4.80157)"><g class="a26 c1 node n21 p0" transform="translate(0.0 11.0794)"><g class="a21 leaf node n6 p0 sample" transform="translate(0.0 34.9575)"><path class="edge" d="M 0 0 V -34.9575 H 0.0" /><rect class="sym" height="6" width="6" x="-3" y="-3" /><text class="lab" transform="translate(0 11)">6</text></g><path class="edge" d="M 0 0 V -11.0794 H 0.0" /><circle class="sym" cx="0" cy="0" r="3" /><text class="lab lft" transform="translate(-3 -7.0)">21</text></g><path class="edge" d="M 0 0 V -4.80157 H -7.71429" /><circle class="sym" cx="0" cy="0" r="3" /><text class="lab rgt" transform="translate(3 -7.0)">26</text></g><path class="edge" d="M 0 0 V -36.67 H 0.0" /><circle class="sym" cx="0" cy="0" r="3" /><text class="lab lft" transform="translate(-3 -7.0)">27</text></g><path class="edge" d="M 0 0 V -7.0916 H -39.7768" /><circle class="sym" cx="0" cy="0" r="3" /><text class="lab rgt" transform="translate(3 -7.0)">35</text></g><circle class="sym" cx="0" cy="0" r="3" /><text class="lab" transform="translate(0 -11)">36</text></g></g></g><g class="tree t5" transform="translate(991.429 0)"><g class="plotbox"><g class="c2 node n36 p0 root" transform="translate(108.714 26.8)"><g class="a36 c1 node n34 p0" transform="translate(33.75 17.7508)"><g class="a34 c1 node n32 p0" transform="translate(0.0 4.17598)"><g class="a32 c1 node n31 p0" transform="translate(0.0 0.811915)"><g class="a31 c2 node n19 p0" transform="translate(0.0 38.4301)"><g class="a19 leaf node n8 p0 sample" transform="translate(24.1071 33.4311)"><path class="edge" d="M 0 0 V -33.4311 H -24.1071" /><rect class="sym" height="6" width="6" x="-3" y="-3" /><text class="lab" transform="translate(0 11)">8</text></g><g class="a19 c1 node n16 p0" transform="translate(-24.1071 6.63034)"><g class="a16 c2 node n13 p0" transform="translate(0.0 11.0825)"><g class="a13 leaf node n1 p0 sample" transform="translate(-13.5 15.7183)"><path class="edge" d="M 0 0 V -15.7183 H 13.5" /><rect class="sym" height="6" width="6" x="-3" y="-3" /><text class="lab" transform="translate(0 11)">1</text></g><g class="a13 c2 node n12 p0" transform="translate(13.5 9.82153)"><g class="a12 leaf node n3 p0 sample" transform="translate(-11.5714 5.8968)"><path class="edge" d="M 0 0 V -5.8968 H 11.5714" /><rect class="sym" height="6" width="6" x="-3" y="-3" /><text class="lab" transform="translate(0 11)">3</text></g><g class="a12 c2 node n10 p0" transform="translate(11.5714 4.9697)"><g class="a10 leaf node n7 p0 sample" transform="translate(-7.71429 0.927096)"><path class="edge" d="M 0 0 V -0.927096 H 7.71429" /><rect class="sym" height="6" width="6" x="-3" y="-3" /><text class="lab" transform="translate(0 11)">7</text></g><g class="a10 leaf node n9 p0 sample" transform="translate(7.71429 0.927096)"><path class="edge" d="M 0 0 V -0.927096 H -7.71429" /><rect class="sym" height="6" width="6" x="-3" y="-3" /><text class="lab" transform="translate(0 11)">9</text></g><path class="edge" d="M 0 0 V -4.9697 H -11.5714" /><circle class="sym" cx="0" cy="0" r="3" /><text class="lab rgt" transform="translate(3 -7.0)">10</text></g><path class="edge" d="M 0 0 V -9.82153 H -13.5" /><circle class="sym" cx="0" cy="0" r="3" /><text class="lab rgt" transform="translate(3 -7.0)">12</text></g><path class="edge" d="M 0 0 V -11.0825 H 0.0" /><circle class="sym" cx="0" cy="0" r="3" /><text class="lab lft" transform="translate(-3 -7.0)">13</text></g><path class="edge" d="M 0 0 V -6.63034 H 24.1071" /><circle class="sym" cx="0" cy="0" r="3" /><text class="lab lft" transform="translate(-3 -7.0)">16</text></g><path class="edge" d="M 0 0 V -38.4301 H 0.0" /><circle class="sym" cx="0" cy="0" r="3" /><text class="lab lft" transform="translate(-3 -7.0)">19</text></g><path class="edge" d="M 0 0 V -0.811915 H 0.0" /><circle class="sym" cx="0" cy="0" r="3" /><text class="lab lft" transform="translate(-3 -7.0)">31</text></g><path class="edge" d="M 0 0 V -4.17598 H 0.0" /><circle class="sym" cx="0" cy="0" r="3" /><text class="lab lft" transform="translate(-3 -7.0)">32</text></g><path class="edge" d="M 0 0 V -17.7508 H -33.75" /><circle class="sym" cx="0" cy="0" r="3" /><text class="lab rgt" transform="translate(3 -7.0)">34</text></g><g class="a36 c1 node n35 p0" transform="translate(-33.75 7.0916)"><g class="a35 c2 node n27 p0" transform="translate(0.0 36.67)"><g class="a27 c1 node n23 p0" transform="translate(14.4643 10.2678)"><g class="a23 leaf node n2 p0 sample" transform="translate(0.0 40.5707)"><path class="edge" d="M 0 0 V -40.5707 H 0.0" /><rect class="sym" height="6" width="6" x="-3" y="-3" /><text class="lab" transform="translate(0 11)">2</text></g><path class="edge" d="M 0 0 V -10.2678 H -14.4643" /><circle class="sym" cx="0" cy="0" r="3" /><text class="lab rgt" transform="translate(3 -7.0)">23</text></g><g class="a27 c2 node n26 p0" transform="translate(-14.4643 4.80157)"><g class="a26 c1 node n21 p0" transform="translate(13.5 11.0794)"><g class="a21 leaf node n6 p0 sample" transform="translate(0.0 34.9575)"><path class="edge" d="M 0 0 V -34.9575 H 0.0" /><rect class="sym" height="6" width="6" x="-3" y="-3" /><text class="lab" transform="translate(0 11)">6</text></g><path class="edge" d="M 0 0 V -11.0794 H -13.5" /><circle class="sym" cx="0" cy="0" r="3" /><text class="lab rgt" transform="translate(3 -7.0)">21</text></g><g class="a26 c1 node n25 p0" transform="translate(-13.5 4.98272)"><g class="a25 c2 node n18 p0" transform="translate(0.0 8.44078)"><g class="a18 leaf node n5 p0 sample" transform="translate(11.5714 32.6134)"><path class="edge" d="M 0 0 V -32.6134 H -11.5714" /><rect class="sym" height="6" width="6" x="-3" y="-3" /><text class="lab" transform="translate(0 11)">5</text></g><g class="a18 c1 node n15 p0" transform="translate(-11.5714 12.9812)"><g class="a15 c2 node n11 p0" transform="translate(0.0 15.6104)"><g class="a11 leaf node n0 p0 sample" transform="translate(-7.71429 4.02172)"><path class="edge" d="M 0 0 V -4.02172 H 7.71429" /><rect class="sym" height="6" width="6" x="-3" y="-3" /><text class="lab" transform="translate(0 11)">0</text></g><g class="a11 leaf node n4 p0 sample" transform="translate(7.71429 4.02172)"><path class="edge" d="M 0 0 V -4.02172 H -7.71429" /><rect class="sym" height="6" width="6" x="-3" y="-3" /><text class="lab" transform="translate(0 11)">4</text></g><path class="edge" d="M 0 0 V -15.6104 H 0.0" /><circle class="sym" cx="0" cy="0" r="3" /><text class="lab lft" transform="translate(-3 -7.0)">11</text></g><path class="edge" d="M 0 0 V -12.9812 H 11.5714" /><circle class="sym" cx="0" cy="0" r="3" /><text class="lab lft" transform="translate(-3 -7.0)">15</text></g><path class="edge" d="M 0 0 V -8.44078 H 0.0" /><circle class="sym" cx="0" cy="0" r="3" /><text class="lab lft" transform="translate(-3 -7.0)">18</text></g><path class="edge" d="M 0 0 V -4.98272 H 13.5" /><circle class="sym" cx="0" cy="0" r="3" /><text class="lab lft" transform="translate(-3 -7.0)">25</text></g><path class="edge" d="M 0 0 V -4.80157 H 14.4643" /><circle class="sym" cx="0" cy="0" r="3" /><text class="lab lft" transform="translate(-3 -7.0)">26</text></g><path class="edge" d="M 0 0 V -36.67 H 0.0" /><circle class="sym" cx="0" cy="0" r="3" /><text class="lab lft" transform="translate(-3 -7.0)">27</text></g><path class="edge" d="M 0 0 V -7.0916 H 33.75" /><circle class="sym" cx="0" cy="0" r="3" /><text class="lab lft" transform="translate(-3 -7.0)">35</text></g><circle class="sym" cx="0" cy="0" r="3" /><text class="lab" transform="translate(0 -11)">36</text></g></g></g><g class="tree t6" transform="translate(1185.71 0)"><g class="plotbox"><g class="c2 node n36 p0 root" transform="translate(108.714 26.8)"><g class="a36 c1 node n34 p0" transform="translate(33.75 17.7508)"><g class="a34 c2 node n32 p0" transform="translate(0.0 4.17598)"><g class="a32 c1 node n31 p0" transform="translate(24.1071 0.811915)"><g class="a31 c1 node n19 p0" transform="translate(0.0 38.4301)"><g class="a19 leaf node n8 p0 sample" transform="translate(0.0 33.4311)"><path class="edge" d="M 0 0 V -33.4311 H 0.0" /><rect class="sym" height="6" width="6" x="-3" y="-3" /><text class="lab" transform="translate(0 11)">8</text></g><path class="edge" d="M 0 0 V -38.4301 H 0.0" /><circle class="sym" cx="0" cy="0" r="3" /><text class="lab lft" transform="translate(-3 -7.0)">19</text></g><path class="edge" d="M 0 0 V -0.811915 H -24.1071" /><circle class="sym" cx="0" cy="0" r="3" /><text class="lab rgt" transform="translate(3 -7.0)">31</text></g><g class="a32 c1 node n22 p0" transform="translate(-24.1071 32.7146)"><g class="a22 c1 node n17 p0" transform="translate(0.0 13.1577)"><g class="a17 c2 node n13 p0" transform="translate(0.0 11.0825)"><g class="a13 leaf node n1 p0 sample" transform="translate(-13.5 15.7183)"><path class="edge" d="M 0 0 V -15.7183 H 13.5" /><rect class="sym" height="6" width="6" x="-3" y="-3" /><text class="lab" transform="translate(0 11)">1</text></g><g class="a13 c2 node n12 p0" transform="translate(13.5 9.82153)"><g class="a12 leaf node n3 p0 sample" transform="translate(-11.5714 5.8968)"><path class="edge" d="M 0 0 V -5.8968 H 11.5714" /><rect class="sym" height="6" width="6" x="-3" y="-3" /><text class="lab" transform="translate(0 11)">3</text></g><g class="a12 c2 node n10 p0" transform="translate(11.5714 4.9697)"><g class="a10 leaf node n7 p0 sample" transform="translate(-7.71429 0.927096)"><path class="edge" d="M 0 0 V -0.927096 H 7.71429" /><rect class="sym" height="6" width="6" x="-3" y="-3" /><text class="lab" transform="translate(0 11)">7</text></g><g class="a10 leaf node n9 p0 sample" transform="translate(7.71429 0.927096)"><path class="edge" d="M 0 0 V -0.927096 H -7.71429" /><rect class="sym" height="6" width="6" x="-3" y="-3" /><text class="lab" transform="translate(0 11)">9</text></g><path class="edge" d="M 0 0 V -4.9697 H -11.5714" /><circle class="sym" cx="0" cy="0" r="3" /><text class="lab rgt" transform="translate(3 -7.0)">10</text></g><path class="edge" d="M 0 0 V -9.82153 H -13.5" /><circle class="sym" cx="0" cy="0" r="3" /><text class="lab rgt" transform="translate(3 -7.0)">12</text></g><path class="edge" d="M 0 0 V -11.0825 H 0.0" /><circle class="sym" cx="0" cy="0" r="3" /><text class="lab lft" transform="translate(-3 -7.0)">13</text></g><path class="edge" d="M 0 0 V -13.1577 H 0.0" /><circle class="sym" cx="0" cy="0" r="3" /><text class="lab lft" transform="translate(-3 -7.0)">17</text></g><path class="edge" d="M 0 0 V -32.7146 H 24.1071" /><circle class="sym" cx="0" cy="0" r="3" /><text class="lab lft" transform="translate(-3 -7.0)">22</text></g><path class="edge" d="M 0 0 V -4.17598 H 0.0" /><circle class="sym" cx="0" cy="0" r="3" /><text class="lab lft" transform="translate(-3 -7.0)">32</text></g><path class="edge" d="M 0 0 V -17.7508 H -33.75" /><circle class="sym" cx="0" cy="0" r="3" /><text class="lab rgt" transform="translate(3 -7.0)">34</text></g><g class="a36 c1 node n35 p0" transform="translate(-33.75 7.0916)"><g class="a35 c2 node n27 p0" transform="translate(0.0 36.67)"><g class="a27 c1 node n23 p0" transform="translate(14.4643 10.2678)"><g class="a23 leaf node n2 p0 sample" transform="translate(0.0 40.5707)"><path class="edge" d="M 0 0 V -40.5707 H 0.0" /><rect class="sym" height="6" width="6" x="-3" y="-3" /><text class="lab" transform="translate(0 11)">2</text></g><path class="edge" d="M 0 0 V -10.2678 H -14.4643" /><circle class="sym" cx="0" cy="0" r="3" /><text class="lab rgt" transform="translate(3 -7.0)">23</text></g><g class="a27 c2 node n26 p0" transform="translate(-14.4643 4.80157)"><g class="a26 c1 node n21 p0" transform="translate(13.5 11.0794)"><g class="a21 leaf node n6 p0 sample" transform="translate(0.0 34.9575)"><path class="edge" d="M 0 0 V -34.9575 H 0.0" /><rect class="sym" height="6" width="6" x="-3" y="-3" /><text class="lab" transform="translate(0 11)">6</text></g><path class="edge" d="M 0 0 V -11.0794 H -13.5" /><circle class="sym" cx="0" cy="0" r="3" /><text class="lab rgt" transform="translate(3 -7.0)">21</text></g><g class="a26 c1 node n25 p0" transform="translate(-13.5 4.98272)"><g class="a25 c2 node n18 p0" transform="translate(0.0 8.44078)"><g class="a18 leaf node n5 p0 sample" transform="translate(11.5714 32.6134)"><path class="edge" d="M 0 0 V -32.6134 H -11.5714" /><rect class="sym" height="6" width="6" x="-3" y="-3" /><text class="lab" transform="translate(0 11)">5</text></g><g class="a18 c1 node n15 p0" transform="translate(-11.5714 12.9812)"><g class="a15 c2 node n11 p0" transform="translate(0.0 15.6104)"><g class="a11 leaf node n0 p0 sample" transform="translate(-7.71429 4.02172)"><path class="edge" d="M 0 0 V -4.02172 H 7.71429" /><rect class="sym" height="6" width="6" x="-3" y="-3" /><text class="lab" transform="translate(0 11)">0</text></g><g class="a11 leaf node n4 p0 sample" transform="translate(7.71429 4.02172)"><path class="edge" d="M 0 0 V -4.02172 H -7.71429" /><rect class="sym" height="6" width="6" x="-3" y="-3" /><text class="lab" transform="translate(0 11)">4</text></g><path class="edge" d="M 0 0 V -15.6104 H 0.0" /><circle class="sym" cx="0" cy="0" r="3" /><text class="lab lft" transform="translate(-3 -7.0)">11</text></g><path class="edge" d="M 0 0 V -12.9812 H 11.5714" /><circle class="sym" cx="0" cy="0" r="3" /><text class="lab lft" transform="translate(-3 -7.0)">15</text></g><path class="edge" d="M 0 0 V -8.44078 H 0.0" /><circle class="sym" cx="0" cy="0" r="3" /><text class="lab lft" transform="translate(-3 -7.0)">18</text></g><path class="edge" d="M 0 0 V -4.98272 H 13.5" /><circle class="sym" cx="0" cy="0" r="3" /><text class="lab lft" transform="translate(-3 -7.0)">25</text></g><path class="edge" d="M 0 0 V -4.80157 H 14.4643" /><circle class="sym" cx="0" cy="0" r="3" /><text class="lab lft" transform="translate(-3 -7.0)">26</text></g><path class="edge" d="M 0 0 V -36.67 H 0.0" /><circle class="sym" cx="0" cy="0" r="3" /><text class="lab lft" transform="translate(-3 -7.0)">27</text></g><path class="edge" d="M 0 0 V -7.0916 H 33.75" /><circle class="sym" cx="0" cy="0" r="3" /><text class="lab lft" transform="translate(-3 -7.0)">35</text></g><circle class="sym" cx="0" cy="0" r="3" /><text class="lab" transform="translate(0 -11)">36</text></g></g></g></g></g></svg>
