<svg baseProfile="full" height="200" version="1.1" width="1000" xmlns="http://www.w3.org/2000/svg" xmlns:ev="http://www.w3.org/2001/xml-events" xmlns:xlink="http://www.w3.org/1999/xlink"><defs><style type="text/css"><![CDATA[.background path {fill: #808080; fill-opacity: 0}.background path:nth-child(odd) {fill-opacity: .1}.axes {font-size: 14px}.x-axis .tick .lab {font-weight: bold; dominant-baseline: hanging}.axes, .tree {font-size: 14px; text-anchor: middle}.axes line, .edge {stroke: black; fill: none}.y-axis .grid {stroke: #FAFAFA}.node > .sym {fill: black; stroke: none}.site > .sym {stroke: black}.mut text {fill: red; font-style: italic}.mut.extra text {fill: hotpink}.mut line {fill: none; stroke: none}.mut .sym {fill: none; stroke: red}.mut.extra .sym {stroke: hotpink}.node .mut .sym {stroke-width: 1.5px}.tree text, .tree-sequence text {dominant-baseline: central}.plotbox .lab.lft {text-anchor: end}.plotbox .lab.rgt {text-anchor: start}]]></style></defs><g class="tree-sequence"><g class="background"><path d="M20,0 l192,0 l0,138.2 l-140.019,25 l0,5 l-51.9815,0 l0,-5 l0,-25 l0,-138.2z" /><path d="M212,0 l192,0 l0,138.2 l-163.863,25 l0,5 l-168.155,0 l0,-5 l140.019,-25 l0,-138.2z" /><path d="M404,0 l192,0 l0,138.2 l0.185022,25 l0,5 l-356.048,0 l0,-5 l163.863,-25 l0,-138.2z" /><path d="M596,0 l192,0 l0,138.2 l26.3404,25 l0,5 l-218.155,0 l0,-5 l-0.185022,-25 l0,-138.2z" /><path d="M788,0 l192,0 l0,138.2 l0,25 l0,5 l-165.66,0 l0,-5 l-26.3404,-25 l0,-138.2z" /></g><g class="axes"><g class="x-axis"><g transform="translate(500 200)"><text class="lab" text-anchor="middle" transform="translate(0 -11)">Genome position</text></g><line x1="20" x2="980" y1="163.2" y2="163.2" /><g class="ticks"><g class="tick" transform="translate(20 163.2)"><line x1="0" x2="0" y1="0" y2="5" /><g transform="translate(0 6)"><text class="lab">0.00</text></g></g><g class="tick" transform="translate(71.9815 163.2)"><line x1="0" x2="0" y1="0" y2="5" /><g transform="translate(0 6)"><text class="lab">54.15</text></g></g><g class="tick" transform="translate(240.137 163.2)"><line x1="0" x2="0" y1="0" y2="5" /><g transform="translate(0 6)"><text class="lab">229.31</text></g></g><g class="tick" transform="translate(596.185 163.2)"><line x1="0" x2="0" y1="0" y2="5" /><g transform="translate(0 6)"><text class="lab">600.19</text></g></g><g class="tick" transform="translate(814.34 163.2)"><line x1="0" x2="0" y1="0" y2="5" /><g transform="translate(0 6)"><text class="lab">827.44</text></g></g><g class="tick" transform="translate(980 163.2)"><line x1="0" x2="0" y1="0" y2="5" /><g transform="translate(0 6)"><text class="lab">1000.00</text></g></g></g></g></g><g class="plotbox trees"><g class="tree t0" transform="translate(20 0)"><g class="plotbox"><g class="c2 node n30 p0 root" transform="translate(115.475 26.8)"><g class="a30 c2 node n27 p0" transform="translate(-29.925 49.6812)"><g class="a27 c2 node n24 p0" transform="translate(-25.65 21.8442)"><g class="a24 c2 node n18 p0" transform="translate(20.9 7.66795)"><g class="a18 leaf node n5 p0 sample" transform="translate(7.6 15.4067)"><path class="edge" d="M 0 0 V -15.4067 H -7.6" /><rect class="sym" height="6" width="6" x="-3" y="-3" /><text class="lab" transform="translate(0 11)">5</text></g><g class="a18 c1 node n16 p0" transform="translate(-7.6 0.40579)"><g class="a16 leaf node n1 p0 sample" transform="translate(0.0 15.0009)"><path class="edge" d="M 0 0 V -15.0009 H 0.0" /><rect class="sym" height="6" width="6" x="-3" y="-3" /><text class="lab" transform="translate(0 11)">1</text></g><path class="edge" d="M 0 0 V -0.40579 H 7.6" /><circle class="sym" cx="0" cy="0" r="3" /><text class="lab lft" transform="translate(-3 -7.0)">16</text></g><path class="edge" d="M 0 0 V -7.66795 H -20.9" /><circle class="sym" cx="0" cy="0" r="3" /><text class="lab rgt" transform="translate(3 -7.0)">18</text></g><g class="a24 c2 node n23 p0" transform="translate(-20.9 4.00298)"><g class="a23 leaf node n0 p0 sample" transform="translate(-11.4 19.0716)"><path class="edge" d="M 0 0 V -19.0716 H 11.4" /><rect class="sym" height="6" width="6" x="-3" y="-3" /><text class="lab" transform="translate(0 11)">0</text></g><g class="a23 c1 node n20 p0" transform="translate(11.4 1.02668)"><g class="a20 c1 node n15 p0" transform="translate(0.0 5.58323)"><g class="a15 c2 node n12 p0" transform="translate(0.0 8.11073)"><g class="a12 leaf node n7 p0 sample" transform="translate(-7.6 4.35101)"><path class="edge" d="M 0 0 V -4.35101 H 7.6" /><rect class="sym" height="6" width="6" x="-3" y="-3" /><text class="lab" transform="translate(0 11)">7</text></g><g class="a12 leaf node n8 p0 sample" transform="translate(7.6 4.35101)"><path class="edge" d="M 0 0 V -4.35101 H -7.6" /><rect class="sym" height="6" width="6" x="-3" y="-3" /><text class="lab" transform="translate(0 11)">8</text></g><path class="edge" d="M 0 0 V -8.11073 H 0.0" /><circle class="sym" cx="0" cy="0" r="3" /><text class="lab lft" transform="translate(-3 -7.0)">12</text></g><path class="edge" d="M 0 0 V -5.58323 H 0.0" /><circle class="sym" cx="0" cy="0" r="3" /><text class="lab lft" transform="translate(-3 -7.0)">15</text></g><path class="edge" d="M 0 0 V -1.02668 H -11.4" /><circle class="sym" cx="0" cy="0" r="3" /><text class="lab rgt" transform="translate(3 -7.0)">20</text></g><path class="edge" d="M 0 0 V -4.00298 H 20.9" /><circle class="sym" cx="0" cy="0" r="3" /><text class="lab lft" transform="translate(-3 -7.0)">23</text></g><path class="edge" d="M 0 0 V -21.8442 H 25.65" /><circle class="sym" cx="0" cy="0" r="3" /><text class="lab lft" transform="translate(-3 -7.0)">24</text></g><g class="a27 c1 node n25 p0" transform="translate(25.65 0.992419)"><g class="a25 c1 node n19 p0" transform="translate(0.0 27.4509)"><g class="a19 c2 node n14 p0" transform="translate(0.0 6.6928)"><g class="a14 leaf node n4 p0 sample" transform="translate(7.6 9.78269)"><path class="edge" d="M 0 0 V -9.78269 H -7.6" /><rect class="sym" height="6" width="6" x="-3" y="-3" /><text class="lab" transform="translate(0 11)">4</text></g><g class="a14 c1 node n10 p0" transform="translate(-7.6 5.9554)"><g class="a10 leaf node n3 p0 sample" transform="translate(0.0 3.82729)"><path class="edge" d="M 0 0 V -3.82729 H 0.0" /><rect class="sym" height="6" width="6" x="-3" y="-3" /><text class="lab" transform="translate(0 11)">3</text></g><path class="edge" d="M 0 0 V -5.9554 H 7.6" /><circle class="sym" cx="0" cy="0" r="3" /><text class="lab lft" transform="translate(-3 -7.0)">10</text></g><path class="edge" d="M 0 0 V -6.6928 H 0.0" /><circle class="sym" cx="0" cy="0" r="3" /><text class="lab lft" transform="translate(-3 -7.0)">14</text></g><path class="edge" d="M 0 0 V -27.4509 H 0.0" /><circle class="sym" cx="0" cy="0" r="3" /><text class="lab lft" transform="translate(-3 -7.0)">19</text></g><path class="edge" d="M 0 0 V -0.992419 H -25.65" /><circle class="sym" cx="0" cy="0" r="3" /><text class="lab rgt" transform="translate(3 -7.0)">25</text></g><path class="edge" d="M 0 0 V -49.6812 H 29.925" /><circle class="sym" cx="0" cy="0" r="3" /><text class="lab lft" transform="translate(-3 -7.0)">27</text></g><g class="a30 c2 node n29 p0" transform="translate(29.925 48.7761)"><g class="a29 c1 node n22 p0" transform="translate(-11.4 27.6529)"><g class="a22 leaf node n2 p0 sample" transform="translate(0.0 18.171)"><path class="edge" d="M 0 0 V -18.171 H 0.0" /><rect class="sym" height="6" width="6" x="-3" y="-3" /><text class="lab" transform="translate(0 11)">2</text></g><path class="edge" d="M 0 0 V -27.6529 H 11.4" /><circle class="sym" cx="0" cy="0" r="3" /><text class="lab lft" transform="translate(-3 -7.0)">22</text></g><g class="a29 c1 node n28 p0" transform="translate(11.4 0.616147)"><g class="a28 c2 node n13 p0" transform="translate(0.0 36.5552)"><g class="a13 leaf node n6 p0 sample" transform="translate(-7.6 8.65256)"><path class="edge" d="M 0 0 V -8.65256 H 7.6" /><rect class="sym" height="6" width="6" x="-3" y="-3" /><text class="lab" transform="translate(0 11)">6</text></g><g class="a13 leaf node n9 p0 sample" transform="translate(7.6 8.65256)"><path class="edge" d="M 0 0 V -8.65256 H -7.6" /><rect class="sym" height="6" width="6" x="-3" y="-3" /><text class="lab" transform="translate(0 11)">9</text></g><path class="edge" d="M 0 0 V -36.5552 H 0.0" /><circle class="sym" cx="0" cy="0" r="3" /><text class="lab lft" transform="translate(-3 -7.0)">13</text></g><path class="edge" d="M 0 0 V -0.616147 H -11.4" /><circle class="sym" cx="0" cy="0" r="3" /><text class="lab rgt" transform="translate(3 -7.0)">28</text></g><path class="edge" d="M 0 0 V -48.7761 H -29.925" /><circle class="sym" cx="0" cy="0" r="3" /><text class="lab rgt" transform="translate(3 -7.0)">29</text></g><circle class="sym" cx="0" cy="0" r="3" /><text class="lab" transform="translate(0 -11)">30</text></g></g></g><g class="tree t1" transform="translate(212 0)"><g class="plotbox"><g class="c2 node n30 p0 root" transform="translate(97.9 26.8)"><g class="a30 c2 node n27 p0" transform="translate(-38 49.6812)"><g class="a27 c2 node n24 p0" transform="translate(-20.9 21.8442)"><g class="a24 c2 node n18 p0" transform="translate(11.4 7.66795)"><g class="a18 leaf node n5 p0 sample" transform="translate(7.6 15.4067)"><path class="edge" d="M 0 0 V -15.4067 H -7.6" /><rect class="sym" height="6" width="6" x="-3" y="-3" /><text class="lab" transform="translate(0 11)">5</text></g><g class="a18 c1 node n16 p0" transform="translate(-7.6 0.40579)"><g class="a16 leaf node n1 p0 sample" transform="translate(0.0 15.0009)"><path class="edge" d="M 0 0 V -15.0009 H 0.0" /><rect class="sym" height="6" width="6" x="-3" y="-3" /><text class="lab" transform="translate(0 11)">1</text></g><path class="edge" d="M 0 0 V -0.40579 H 7.6" /><circle class="sym" cx="0" cy="0" r="3" /><text class="lab lft" transform="translate(-3 -7.0)">16</text></g><path class="edge" d="M 0 0 V -7.66795 H -11.4" /><circle class="sym" cx="0" cy="0" r="3" /><text class="lab rgt" transform="translate(3 -7.0)">18</text></g><g class="a24 c1 node n23 p0" transform="translate(-11.4 4.00298)"><g class="a23 leaf node n0 p0 sample" transform="translate(0.0 19.0716)"><path class="edge" d="M 0 0 V -19.0716 H 0.0" /><rect class="sym" height="6" width="6" x="-3" y="-3" /><text class="lab" transform="translate(0 11)">0</text></g><path class="edge" d="M 0 0 V -4.00298 H 11.4" /><circle class="sym" cx="0" cy="0" r="3" /><text class="lab lft" transform="translate(-3 -7.0)">23</text></g><path class="edge" d="M 0 0 V -21.8442 H 20.9" /><circle class="sym" cx="0" cy="0" r="3" /><text class="lab lft" transform="translate(-3 -7.0)">24</text></g><g class="a27 c1 node n25 p0" transform="translate(20.9 0.992419)"><g class="a25 c1 node n19 p0" transform="translate(0.0 27.4509)"><g class="a19 c2 node n14 p0" transform="translate(0.0 6.6928)"><g class="a14 leaf node n4 p0 sample" transform="translate(7.6 9.78269)"><path class="edge" d="M 0 0 V -9.78269 H -7.6" /><rect class="sym" height="6" width="6" x="-3" y="-3" /><text class="lab" transform="translate(0 11)">4</text></g><g class="a14 c1 node n10 p0" transform="translate(-7.6 5.9554)"><g class="a10 leaf node n3 p0 sample" transform="translate(0.0 3.82729)"><path class="edge" d="M 0 0 V -3.82729 H 0.0" /><rect class="sym" height="6" width="6" x="-3" y="-3" /><text class="lab" transform="translate(0 11)">3</text></g><path class="edge" d="M 0 0 V -5.9554 H 7.6" /><circle class="sym" cx="0" cy="0" r="3" /><text class="lab lft" transform="translate(-3 -7.0)">10</text></g><path class="edge" d="M 0 0 V -6.6928 H 0.0" /><circle class="sym" cx="0" cy="0" r="3" /><text class="lab lft" transform="translate(-3 -7.0)">14</text></g><path class="edge" d="M 0 0 V -27.4509 H 0.0" /><circle class="sym" cx="0" cy="0" r="3" /><text class="lab lft" transform="translate(-3 -7.0)">19</text></g><path class="edge" d="M 0 0 V -0.992419 H -20.9" /><circle class="sym" cx="0" cy="0" r="3" /><text class="lab rgt" transform="translate(3 -7.0)">25</text></g><path class="edge" d="M 0 0 V -49.6812 H 38" /><circle class="sym" cx="0" cy="0" r="3" /><text class="lab lft" transform="translate(-3 -7.0)">27</text></g><g class="a30 c2 node n29 p0" transform="translate(38 48.7761)"><g class="a29 c2 node n22 p0" transform="translate(-20.9 27.6529)"><g class="a22 leaf node n2 p0 sample" transform="translate(-11.4 18.171)"><path class="edge" d="M 0 0 V -18.171 H 11.4" /><rect class="sym" height="6" width="6" x="-3" y="-3" /><text class="lab" transform="translate(0 11)">2</text></g><g class="a22 c1 node n21 p0" transform="translate(11.4 0.125994)"><g class="a21 c1 node n15 p0" transform="translate(0.0 5.58323)"><g class="a15 c2 node n12 p0" transform="translate(0.0 8.11073)"><g class="a12 leaf node n7 p0 sample" transform="translate(-7.6 4.35101)"><path class="edge" d="M 0 0 V -4.35101 H 7.6" /><rect class="sym" height="6" width="6" x="-3" y="-3" /><text class="lab" transform="translate(0 11)">7</text></g><g class="a12 leaf node n8 p0 sample" transform="translate(7.6 4.35101)"><path class="edge" d="M 0 0 V -4.35101 H -7.6" /><rect class="sym" height="6" width="6" x="-3" y="-3" /><text class="lab" transform="translate(0 11)">8</text></g><path class="edge" d="M 0 0 V -8.11073 H 0.0" /><circle class="sym" cx="0" cy="0" r="3" /><text class="lab lft" transform="translate(-3 -7.0)">12</text></g><path class="edge" d="M 0 0 V -5.58323 H 0.0" /><circle class="sym" cx="0" cy="0" r="3" /><text class="lab lft" transform="translate(-3 -7.0)">15</text></g><path class="edge" d="M 0 0 V -0.125994 H -11.4" /><circle class="sym" cx="0" cy="0" r="3" /><text class="lab rgt" transform="translate(3 -7.0)">21</text></g><path class="edge" d="M 0 0 V -27.6529 H 20.9" /><circle class="sym" cx="0" cy="0" r="3" /><text class="lab lft" transform="translate(-3 -7.0)">22</text></g><g class="a29 c1 node n28 p0" transform="translate(20.9 0.616147)"><g class="a28 c2 node n13 p0" transform="translate(0.0 36.5552)"><g class="a13 leaf node n6 p0 sample" transform="translate(-7.6 8.65256)"><path class="edge" d="M 0 0 V -8.65256 H 7.6" /><rect class="sym" height="6" width="6" x="-3" y="-3" /><text class="lab" transform="translate(0 11)">6</text></g><g class="a13 leaf node n9 p0 sample" transform="translate(7.6 8.65256)"><path class="edge" d="M 0 0 V -8.65256 H -7.6" /><rect class="sym" height="6" width="6" x="-3" y="-3" /><text class="lab" transform="translate(0 11)">9</text></g><path class="edge" d="M 0 0 V -36.5552 H 0.0" /><circle class="sym" cx="0" cy="0" r="3" /><text class="lab lft" transform="translate(-3 -7.0)">13</text></g><path class="edge" d="M 0 0 V -0.616147 H -20.9" /><circle class="sym" cx="0" cy="0" r="3" /><text class="lab rgt" transform="translate(3 -7.0)">28</text></g><path class="edge" d="M 0 0 V -48.7761 H -38" /><circle class="sym" cx="0" cy="0" r="3" /><text class="lab rgt" transform="translate(3 -7.0)">29</text></g><circle class="sym" cx="0" cy="0" r="3" /><text class="lab" transform="translate(0 -11)">30</text></g></g></g><g class="tree t2" transform="translate(404 0)"><g class="plotbox"><g class="c2 node n30 p0 root" transform="translate(76.05 26.8)"><g class="a30 c1 node n27 p0" transform="translate(-37.05 49.6812)"><g class="a27 c2 node n24 p0" transform="translate(0.0 21.8442)"><g class="a24 c2 node n18 p0" transform="translate(11.4 7.66795)"><g class="a18 leaf node n5 p0 sample" transform="translate(7.6 15.4067)"><path class="edge" d="M 0 0 V -15.4067 H -7.6" /><rect class="sym" height="6" width="6" x="-3" y="-3" /><text class="lab" transform="translate(0 11)">5</text></g><g class="a18 c1 node n16 p0" transform="translate(-7.6 0.40579)"><g class="a16 leaf node n1 p0 sample" transform="translate(0.0 15.0009)"><path class="edge" d="M 0 0 V -15.0009 H 0.0" /><rect class="sym" height="6" width="6" x="-3" y="-3" /><text class="lab" transform="translate(0 11)">1</text></g><path class="edge" d="M 0 0 V -0.40579 H 7.6" /><circle class="sym" cx="0" cy="0" r="3" /><text class="lab lft" transform="translate(-3 -7.0)">16</text></g><path class="edge" d="M 0 0 V -7.66795 H -11.4" /><circle class="sym" cx="0" cy="0" r="3" /><text class="lab rgt" transform="translate(3 -7.0)">18</text></g><g class="a24 c1 node n23 p0" transform="translate(-11.4 4.00298)"><g class="a23 leaf node n0 p0 sample" transform="translate(0.0 19.0716)"><path class="edge" d="M 0 0 V -19.0716 H 0.0" /><rect class="sym" height="6" width="6" x="-3" y="-3" /><text class="lab" transform="translate(0 11)">0</text></g><path class="edge" d="M 0 0 V -4.00298 H 11.4" /><circle class="sym" cx="0" cy="0" r="3" /><text class="lab lft" transform="translate(-3 -7.0)">23</text></g><path class="edge" d="M 0 0 V -21.8442 H 0.0" /><circle class="sym" cx="0" cy="0" r="3" /><text class="lab lft" transform="translate(-3 -7.0)">24</text></g><path class="edge" d="M 0 0 V -49.6812 H 37.05" /><circle class="sym" cx="0" cy="0" r="3" /><text class="lab lft" transform="translate(-3 -7.0)">27</text></g><g class="a30 c2 node n29 p0" transform="translate(37.05 48.7761)"><g class="a29 c2 node n22 p0" transform="translate(-28.5 27.6529)"><g class="a22 leaf node n2 p0 sample" transform="translate(-11.4 18.171)"><path class="edge" d="M 0 0 V -18.171 H 11.4" /><rect class="sym" height="6" width="6" x="-3" y="-3" /><text class="lab" transform="translate(0 11)">2</text></g><g class="a22 c1 node n21 p0" transform="translate(11.4 0.125994)"><g class="a21 c1 node n15 p0" transform="translate(0.0 5.58323)"><g class="a15 c2 node n12 p0" transform="translate(0.0 8.11073)"><g class="a12 leaf node n7 p0 sample" transform="translate(-7.6 4.35101)"><path class="edge" d="M 0 0 V -4.35101 H 7.6" /><rect class="sym" height="6" width="6" x="-3" y="-3" /><text class="lab" transform="translate(0 11)">7</text></g><g class="a12 leaf node n8 p0 sample" transform="translate(7.6 4.35101)"><path class="edge" d="M 0 0 V -4.35101 H -7.6" /><rect class="sym" height="6" width="6" x="-3" y="-3" /><text class="lab" transform="translate(0 11)">8</text></g><path class="edge" d="M 0 0 V -8.11073 H 0.0" /><circle class="sym" cx="0" cy="0" r="3" /><text class="lab lft" transform="translate(-3 -7.0)">12</text></g><path class="edge" d="M 0 0 V -5.58323 H 0.0" /><circle class="sym" cx="0" cy="0" r="3" /><text class="lab lft" transform="translate(-3 -7.0)">15</text></g><path class="edge" d="M 0 0 V -0.125994 H -11.4" /><circle class="sym" cx="0" cy="0" r="3" /><text class="lab rgt" transform="translate(3 -7.0)">21</text></g><path class="edge" d="M 0 0 V -27.6529 H 28.5" /><circle class="sym" cx="0" cy="0" r="3" /><text class="lab lft" transform="translate(-3 -7.0)">22</text></g><g class="a29 c2 node n28 p0" transform="translate(28.5 0.616147)"><g class="a28 c2 node n13 p0" transform="translate(15.2 36.5552)"><g class="a13 leaf node n6 p0 sample" transform="translate(-7.6 8.65256)"><path class="edge" d="M 0 0 V -8.65256 H 7.6" /><rect class="sym" height="6" width="6" x="-3" y="-3" /><text class="lab" transform="translate(0 11)">6</text></g><g class="a13 leaf node n9 p0 sample" transform="translate(7.6 8.65256)"><path class="edge" d="M 0 0 V -8.65256 H -7.6" /><rect class="sym" height="6" width="6" x="-3" y="-3" /><text class="lab" transform="translate(0 11)">9</text></g><path class="edge" d="M 0 0 V -36.5552 H -15.2" /><circle class="sym" cx="0" cy="0" r="3" /><text class="lab rgt" transform="translate(3 -7.0)">13</text></g><g class="a28 c1 node n26 p0" transform="translate(-15.2 1.28135)"><g class="a26 c1 node n19 p0" transform="translate(0.0 27.4509)"><g class="a19 c2 node n14 p0" transform="translate(0.0 6.6928)"><g class="a14 leaf node n4 p0 sample" transform="translate(7.6 9.78269)"><path class="edge" d="M 0 0 V -9.78269 H -7.6" /><rect class="sym" height="6" width="6" x="-3" y="-3" /><text class="lab" transform="translate(0 11)">4</text></g><g class="a14 c1 node n10 p0" transform="translate(-7.6 5.9554)"><g class="a10 leaf node n3 p0 sample" transform="translate(0.0 3.82729)"><path class="edge" d="M 0 0 V -3.82729 H 0.0" /><rect class="sym" height="6" width="6" x="-3" y="-3" /><text class="lab" transform="translate(0 11)">3</text></g><path class="edge" d="M 0 0 V -5.9554 H 7.6" /><circle class="sym" cx="0" cy="0" r="3" /><text class="lab lft" transform="translate(-3 -7.0)">10</text></g><path class="edge" d="M 0 0 V -6.6928 H 0.0" /><circle class="sym" cx="0" cy="0" r="3" /><text class="lab lft" transform="translate(-3 -7.0)">14</text></g><path class="edge" d="M 0 0 V -27.4509 H 0.0" /><circle class="sym" cx="0" cy="0" r="3" /><text class="lab lft" transform="translate(-3 -7.0)">19</text></g><path class="edge" d="M 0 0 V -1.28135 H 15.2" /><circle class="sym" cx="0" cy="0" r="3" /><text class="lab lft" transform="translate(-3 -7.0)">26</text></g><path class="edge" d="M 0 0 V -0.616147 H -28.5" /><circle class="sym" cx="0" cy="0" r="3" /><text class="lab rgt" transform="translate(3 -7.0)">28</text></g><path class="edge" d="M 0 0 V -48.7761 H -37.05" /><circle class="sym" cx="0" cy="0" r="3" /><text class="lab rgt" transform="translate(3 -7.0)">29</text></g><circle class="sym" cx="0" cy="0" r="3" /><text class="lab" transform="translate(0 -11)">30</text></g></g></g><g class="tree t3" transform="translate(596 0)"><g class="plotbox"><g class="c2 node n30 p0 root" transform="translate(77.475 26.8)"><g class="a30 c1 node n27 p0" transform="translate(-38.475 49.6812)"><g class="a27 c2 node n24 p0" transform="translate(0.0 21.8442)"><g class="a24 c2 node n18 p0" transform="translate(11.4 7.66795)"><g class="a18 leaf node n5 p0 sample" transform="translate(7.6 15.4067)"><path class="edge" d="M 0 0 V -15.4067 H -7.6" /><rect class="sym" height="6" width="6" x="-3" y="-3" /><text class="lab" transform="translate(0 11)">5</text></g><g class="a18 c1 node n16 p0" transform="translate(-7.6 0.40579)"><g class="a16 leaf node n1 p0 sample" transform="translate(0.0 15.0009)"><path class="edge" d="M 0 0 V -15.0009 H 0.0" /><rect class="sym" height="6" width="6" x="-3" y="-3" /><text class="lab" transform="translate(0 11)">1</text></g><path class="edge" d="M 0 0 V -0.40579 H 7.6" /><circle class="sym" cx="0" cy="0" r="3" /><text class="lab lft" transform="translate(-3 -7.0)">16</text></g><path class="edge" d="M 0 0 V -7.66795 H -11.4" /><circle class="sym" cx="0" cy="0" r="3" /><text class="lab rgt" transform="translate(3 -7.0)">18</text></g><g class="a24 c1 node n23 p0" transform="translate(-11.4 4.00298)"><g class="a23 leaf node n0 p0 sample" transform="translate(0.0 19.0716)"><path class="edge" d="M 0 0 V -19.0716 H 0.0" /><rect class="sym" height="6" width="6" x="-3" y="-3" /><text class="lab" transform="translate(0 11)">0</text></g><path class="edge" d="M 0 0 V -4.00298 H 11.4" /><circle class="sym" cx="0" cy="0" r="3" /><text class="lab lft" transform="translate(-3 -7.0)">23</text></g><path class="edge" d="M 0 0 V -21.8442 H 0.0" /><circle class="sym" cx="0" cy="0" r="3" /><text class="lab lft" transform="translate(-3 -7.0)">24</text></g><path class="edge" d="M 0 0 V -49.6812 H 38.475" /><circle class="sym" cx="0" cy="0" r="3" /><text class="lab lft" transform="translate(-3 -7.0)">27</text></g><g class="a30 c2 node n29 p0" transform="translate(38.475 48.7761)"><g class="a29 c2 node n22 p0" transform="translate(-29.45 27.6529)"><g class="a22 leaf node n2 p0 sample" transform="translate(-13.3 18.171)"><path class="edge" d="M 0 0 V -18.171 H 13.3" /><rect class="sym" height="6" width="6" x="-3" y="-3" /><text class="lab" transform="translate(0 11)">2</text></g><g class="a22 c1 node n21 p0" transform="translate(13.3 0.125994)"><g class="a21 c2 node n15 p0" transform="translate(0.0 5.58323)"><g class="a15 c2 node n12 p0" transform="translate(11.4 8.11073)"><g class="a12 leaf node n7 p0 sample" transform="translate(-7.6 4.35101)"><path class="edge" d="M 0 0 V -4.35101 H 7.6" /><rect class="sym" height="6" width="6" x="-3" y="-3" /><text class="lab" transform="translate(0 11)">7</text></g><g class="a12 leaf node n8 p0 sample" transform="translate(7.6 4.35101)"><path class="edge" d="M 0 0 V -4.35101 H -7.6" /><rect class="sym" height="6" width="6" x="-3" y="-3" /><text class="lab" transform="translate(0 11)">8</text></g><path class="edge" d="M 0 0 V -8.11073 H -11.4" /><circle class="sym" cx="0" cy="0" r="3" /><text class="lab rgt" transform="translate(3 -7.0)">12</text></g><g class="a15 c1 node n11 p0" transform="translate(-11.4 8.63444)"><g class="a11 leaf node n3 p0 sample" transform="translate(0.0 3.82729)"><path class="edge" d="M 0 0 V -3.82729 H 0.0" /><rect class="sym" height="6" width="6" x="-3" y="-3" /><text class="lab" transform="translate(0 11)">3</text></g><path class="edge" d="M 0 0 V -8.63444 H 11.4" /><circle class="sym" cx="0" cy="0" r="3" /><text class="lab lft" transform="translate(-3 -7.0)">11</text></g><path class="edge" d="M 0 0 V -5.58323 H 0.0" /><circle class="sym" cx="0" cy="0" r="3" /><text class="lab lft" transform="translate(-3 -7.0)">15</text></g><path class="edge" d="M 0 0 V -0.125994 H -13.3" /><circle class="sym" cx="0" cy="0" r="3" /><text class="lab rgt" transform="translate(3 -7.0)">21</text></g><path class="edge" d="M 0 0 V -27.6529 H 29.45" /><circle class="sym" cx="0" cy="0" r="3" /><text class="lab lft" transform="translate(-3 -7.0)">22</text></g><g class="a29 c2 node n28 p0" transform="translate(29.45 0.616147)"><g class="a28 c2 node n13 p0" transform="translate(11.4 36.5552)"><g class="a13 leaf node n6 p0 sample" transform="translate(-7.6 8.65256)"><path class="edge" d="M 0 0 V -8.65256 H 7.6" /><rect class="sym" height="6" width="6" x="-3" y="-3" /><text class="lab" transform="translate(0 11)">6</text></g><g class="a13 leaf node n9 p0 sample" transform="translate(7.6 8.65256)"><path class="edge" d="M 0 0 V -8.65256 H -7.6" /><rect class="sym" height="6" width="6" x="-3" y="-3" /><text class="lab" transform="translate(0 11)">9</text></g><path class="edge" d="M 0 0 V -36.5552 H -11.4" /><circle class="sym" cx="0" cy="0" r="3" /><text class="lab rgt" transform="translate(3 -7.0)">13</text></g><g class="a28 c1 node n26 p0" transform="translate(-11.4 1.28135)"><g class="a26 c1 node n19 p0" transform="translate(0.0 27.4509)"><g class="a19 c1 node n14 p0" transform="translate(0.0 6.6928)"><g class="a14 leaf node n4 p0 sample" transform="translate(0.0 9.78269)"><path class="edge" d="M 0 0 V -9.78269 H 0.0" /><rect class="sym" height="6" width="6" x="-3" y="-3" /><text class="lab" transform="translate(0 11)">4</text></g><path class="edge" d="M 0 0 V -6.6928 H 0.0" /><circle class="sym" cx="0" cy="0" r="3" /><text class="lab lft" transform="translate(-3 -7.0)">14</text></g><path class="edge" d="M 0 0 V -27.4509 H 0.0" /><circle class="sym" cx="0" cy="0" r="3" /><text class="lab lft" transform="translate(-3 -7.0)">19</text></g><path class="edge" d="M 0 0 V -1.28135 H 11.4" /><circle class="sym" cx="0" cy="0" r="3" /><text class="lab lft" transform="translate(-3 -7.0)">26</text></g><path class="edge" d="M 0 0 V -0.616147 H -29.45" /><circle class="sym" cx="0" cy="0" r="3" /><text class="lab rgt" transform="translate(3 -7.0)">28</text></g><path class="edge" d="M 0 0 V -48.7761 H -38.475" /><circle class="sym" cx="0" cy="0" r="3" /><text class="lab rgt" transform="translate(3 -7.0)">29</text></g><circle class="sym" cx="0" cy="0" r="3" /><text class="lab" transform="translate(0 -11)">30</text></g></g></g><g class="tree t4" transform="translate(788 0)"><g class="plotbox"><g class="c2 node n30 p0 root" transform="translate(70.825 26.8)"><g class="a30 c1 node n27 p0" transform="translate(-35.625 49.6812)"><g class="a27 c2 node n24 p0" transform="translate(0.0 21.8442)"><g class="a24 c1 node n18 p0" transform="translate(7.6 7.66795)"><g class="a18 leaf node n5 p0 sample" transform="translate(0.0 15.4067)"><path class="edge" d="M 0 0 V -15.4067 H 0.0" /><rect class="sym" height="6" width="6" x="-3" y="-3" /><text class="lab" transform="translate(0 11)">5</text></g><path class="edge" d="M 0 0 V -7.66795 H -7.6" /><circle class="sym" cx="0" cy="0" r="3" /><text class="lab rgt" transform="translate(3 -7.0)">18</text></g><g class="a24 c1 node n23 p0" transform="translate(-7.6 4.00298)"><g class="a23 leaf node n0 p0 sample" transform="translate(0.0 19.0716)"><path class="edge" d="M 0 0 V -19.0716 H 0.0" /><rect class="sym" height="6" width="6" x="-3" y="-3" /><text class="lab" transform="translate(0 11)">0</text></g><path class="edge" d="M 0 0 V -4.00298 H 7.6" /><circle class="sym" cx="0" cy="0" r="3" /><text class="lab lft" transform="translate(-3 -7.0)">23</text></g><path class="edge" d="M 0 0 V -21.8442 H 0.0" /><circle class="sym" cx="0" cy="0" r="3" /><text class="lab lft" transform="translate(-3 -7.0)">24</text></g><path class="edge" d="M 0 0 V -49.6812 H 35.625" /><circle class="sym" cx="0" cy="0" r="3" /><text class="lab lft" transform="translate(-3 -7.0)">27</text></g><g class="a30 c2 node n29 p0" transform="translate(35.625 48.7761)"><g class="a29 c2 node n22 p0" transform="translate(25.65 27.6529)"><g class="a22 leaf node n2 p0 sample" transform="translate(-13.3 18.171)"><path class="edge" d="M 0 0 V -18.171 H 13.3" /><rect class="sym" height="6" width="6" x="-3" y="-3" /><text class="lab" transform="translate(0 11)">2</text></g><g class="a22 c1 node n21 p0" transform="translate(13.3 0.125994)"><g class="a21 c2 node n15 p0" transform="translate(0.0 5.58323)"><g class="a15 c2 node n12 p0" transform="translate(11.4 8.11073)"><g class="a12 leaf node n7 p0 sample" transform="translate(-7.6 4.35101)"><path class="edge" d="M 0 0 V -4.35101 H 7.6" /><rect class="sym" height="6" width="6" x="-3" y="-3" /><text class="lab" transform="translate(0 11)">7</text></g><g class="a12 leaf node n8 p0 sample" transform="translate(7.6 4.35101)"><path class="edge" d="M 0 0 V -4.35101 H -7.6" /><rect class="sym" height="6" width="6" x="-3" y="-3" /><text class="lab" transform="translate(0 11)">8</text></g><path class="edge" d="M 0 0 V -8.11073 H -11.4" /><circle class="sym" cx="0" cy="0" r="3" /><text class="lab rgt" transform="translate(3 -7.0)">12</text></g><g class="a15 c1 node n11 p0" transform="translate(-11.4 8.63444)"><g class="a11 leaf node n3 p0 sample" transform="translate(0.0 3.82729)"><path class="edge" d="M 0 0 V -3.82729 H 0.0" /><rect class="sym" height="6" width="6" x="-3" y="-3" /><text class="lab" transform="translate(0 11)">3</text></g><path class="edge" d="M 0 0 V -8.63444 H 11.4" /><circle class="sym" cx="0" cy="0" r="3" /><text class="lab lft" transform="translate(-3 -7.0)">11</text></g><path class="edge" d="M 0 0 V -5.58323 H 0.0" /><circle class="sym" cx="0" cy="0" r="3" /><text class="lab lft" transform="translate(-3 -7.0)">15</text></g><path class="edge" d="M 0 0 V -0.125994 H -13.3" /><circle class="sym" cx="0" cy="0" r="3" /><text class="lab rgt" transform="translate(3 -7.0)">21</text></g><path class="edge" d="M 0 0 V -27.6529 H -25.65" /><circle class="sym" cx="0" cy="0" r="3" /><text class="lab rgt" transform="translate(3 -7.0)">22</text></g><g class="a29 c2 node n28 p0" transform="translate(-25.65 0.616147)"><g class="a28 c2 node n13 p0" transform="translate(15.2 36.5552)"><g class="a13 leaf node n6 p0 sample" transform="translate(-7.6 8.65256)"><path class="edge" d="M 0 0 V -8.65256 H 7.6" /><rect class="sym" height="6" width="6" x="-3" y="-3" /><text class="lab" transform="translate(0 11)">6</text></g><g class="a13 leaf node n9 p0 sample" transform="translate(7.6 8.65256)"><path class="edge" d="M 0 0 V -8.65256 H -7.6" /><rect class="sym" height="6" width="6" x="-3" y="-3" /><text class="lab" transform="translate(0 11)">9</text></g><path class="edge" d="M 0 0 V -36.5552 H -15.2" /><circle class="sym" cx="0" cy="0" r="3" /><text class="lab rgt" transform="translate(3 -7.0)">13</text></g><g class="a28 c1 node n26 p0" transform="translate(-15.2 1.28135)"><g class="a26 c2 node n19 p0" transform="translate(0.0 27.4509)"><g class="a19 c1 node n14 p0" transform="translate(7.6 6.6928)"><g class="a14 leaf node n4 p0 sample" transform="translate(0.0 9.78269)"><path class="edge" d="M 0 0 V -9.78269 H 0.0" /><rect class="sym" height="6" width="6" x="-3" y="-3" /><text class="lab" transform="translate(0 11)">4</text></g><path class="edge" d="M 0 0 V -6.6928 H -7.6" /><circle class="sym" cx="0" cy="0" r="3" /><text class="lab rgt" transform="translate(3 -7.0)">14</text></g><g class="a19 c1 node n17 p0" transform="translate(-7.6 1.4746)"><g class="a17 leaf node n1 p0 sample" transform="translate(0.0 15.0009)"><path class="edge" d="M 0 0 V -15.0009 H 0.0" /><rect class="sym" height="6" width="6" x="-3" y="-3" /><text class="lab" transform="translate(0 11)">1</text></g><path class="edge" d="M 0 0 V -1.4746 H 7.6" /><circle class="sym" cx="0" cy="0" r="3" /><text class="lab lft" transform="translate(-3 -7.0)">17</text></g><path class="edge" d="M 0 0 V -27.4509 H 0.0" /><circle class="sym" cx="0" cy="0" r="3" /><text class="lab lft" transform="translate(-3 -7.0)">19</text></g><path class="edge" d="M 0 0 V -1.28135 H 15.2" /><circle class="sym" cx="0" cy="0" r="3" /><text class="lab lft" transform="translate(-3 -7.0)">26</text></g><path class="edge" d="M 0 0 V -0.616147 H 25.65" /><circle class="sym" cx="0" cy="0" r="3" /><text class="lab lft" transform="translate(-3 -7.0)">28</text></g><path class="edge" d="M 0 0 V -48.7761 H -35.625" /><circle class="sym" cx="0" cy="0" r="3" /><text class="lab rgt" transform="translate(3 -7.0)">29</text></g><circle class="sym" cx="0" cy="0" r="3" /><text class="lab" transform="translate(0 -11)">30</text></g></g></g></g></g></svg>
