<svg baseProfile="full" height="200" version="1.1" width="800" xmlns="http://www.w3.org/2000/svg" xmlns:ev="http://www.w3.org/2001/xml-events" xmlns:xlink="http://www.w3.org/1999/xlink"><defs><style type="text/css"><![CDATA[.background path {fill: #808080; fill-opacity: 0}.background path:nth-child(odd) {fill-opacity: .1}.axes {font-size: 14px}.x-axis .tick .lab {font-weight: bold; dominant-baseline: hanging}.axes, .tree {font-size: 14px; text-anchor: middle}.axes line, .edge {stroke: black; fill: none}.y-axis .grid {stroke: #FAFAFA}.node > .sym {fill: black; stroke: none}.site > .sym {stroke: black}.mut text {fill: red; font-style: italic}.mut.extra text {fill: hotpink}.mut line {fill: none; stroke: none}.mut .sym {fill: none; stroke: red}.mut.extra .sym {stroke: hotpink}.node .mut .sym {stroke-width: 1.5px}.tree text, .tree-sequence text {dominant-baseline: central}.plotbox .lab.lft {text-anchor: end}.plotbox .lab.rgt {text-anchor: start}]]></style></defs><g class="tree-sequence"><g class="background"><path d="M20,0 l190,0 l0,138.2 l84.2478,25 l0,5 l-274.248,0 l0,-5 l0,-25 l0,-138.2z" /><path d="M210,0 l190,0 l0,138.2 l-17.2514,25 l0,5 l-88.5007,0 l0,-5 l-84.2478,-25 l0,-138.2z" /><path d="M400,0 l190,0 l0,138.2 l75.3697,25 l0,5 l-282.621,0 l0,-5 l17.2514,-25 l0,-138.2z" /><path d="M590,0 l190,0 l0,138.2 l0,25 l0,5 l-114.63,0 l0,-5 l-75.3697,-25 l0,-138.2z" /></g><g class="axes"><g class="x-axis"><g transform="translate(400 200)"><text class="lab" text-anchor="middle" transform="translate(0 -11)">Genome position</text></g><line x1="20" x2="780" y1="163.2" y2="163.2" /><g class="ticks"><g class="tick" transform="translate(20 163.2)"><line x1="0" x2="0" y1="0" y2="5" /><g transform="translate(0 6)"><text class="lab">0.00</text></g></g><g class="tick" transform="translate(294.248 163.2)"><line x1="0" x2="0" y1="0" y2="5" /><g transform="translate(0 6)"><text class="lab">360.85</text></g></g><g class="tick" transform="translate(382.749 163.2)"><line x1="0" x2="0" y1="0" y2="5" /><g transform="translate(0 6)"><text class="lab">477.30</text></g></g><g class="tick" transform="translate(665.37 163.2)"><line x1="0" x2="0" y1="0" y2="5" /><g transform="translate(0 6)"><text class="lab">849.17</text></g></g><g class="tick" transform="translate(780 163.2)"><line x1="0" x2="0" y1="0" y2="5" /><g transform="translate(0 6)"><text class="lab">1000.00</text></g></g></g></g></g><g class="plotbox trees"><g class="tree t0" transform="translate(20 0)"><g class="plotbox"><g class="c2 node n27 p0 root" transform="translate(96.4062 26.8)"><g class="a27 c1 node n25 p0" transform="translate(46.4062 22.6177)"><g class="a25 c1 node n24 p0" transform="translate(0.0 18.2685)"><g class="a24 c2 node n23 p0" transform="translate(0.0 5.5119)"><g class="a23 c1 node n14 p0" transform="translate(19.6875 40.3784)"><g class="a14 leaf node n4 p0 sample" transform="translate(0.0 7.8234)"><path class="edge" d="M 0 0 V -7.8234 H 0.0" /><rect class="sym" height="6" width="6" x="-3" y="-3" /><text class="lab" transform="translate(0 11)">4</text></g><path class="edge" d="M 0 0 V -40.3784 H -19.6875" /><circle class="sym" cx="0" cy="0" r="3" /><text class="lab rgt" transform="translate(3 -7.0)">14</text></g><g class="a23 c2 node n19 p0" transform="translate(-19.6875 26.4864)"><g class="a19 c2 node n17 p0" transform="translate(16.875 7.8976)"><g class="a17 leaf node n8 p0 sample" transform="translate(-7.5 13.8178)"><path class="edge" d="M 0 0 V -13.8178 H 7.5" /><rect class="sym" height="6" width="6" x="-3" y="-3" /><text class="lab" transform="translate(0 11)">8</text></g><g class="a17 leaf node n9 p0 sample" transform="translate(7.5 13.8178)"><path class="edge" d="M 0 0 V -13.8178 H -7.5" /><rect class="sym" height="6" width="6" x="-3" y="-3" /><text class="lab" transform="translate(0 11)">9</text></g><path class="edge" d="M 0 0 V -7.8976 H -16.875" /><circle class="sym" cx="0" cy="0" r="3" /><text class="lab rgt" transform="translate(3 -7.0)">17</text></g><g class="a19 c2 node n18 p0" transform="translate(-16.875 2.38279)"><g class="a18 c2 node n10 p0" transform="translate(-11.25 19.3168)"><g class="a10 leaf node n1 p0 sample" transform="translate(-7.5 0.0158664)"><path class="edge" d="M 0 0 V -0.0158664 H 7.5" /><rect class="sym" height="6" width="6" x="-3" y="-3" /><text class="lab" transform="translate(0 11)">1</text></g><g class="a10 leaf node n7 p0 sample" transform="translate(7.5 0.0158664)"><path class="edge" d="M 0 0 V -0.0158664 H -7.5" /><rect class="sym" height="6" width="6" x="-3" y="-3" /><text class="lab" transform="translate(0 11)">7</text></g><path class="edge" d="M 0 0 V -19.3168 H 11.25" /><circle class="sym" cx="0" cy="0" r="3" /><text class="lab lft" transform="translate(-3 -7.0)">10</text></g><g class="a18 c1 node n11 p0" transform="translate(11.25 18.8117)"><g class="a11 leaf node n2 p0 sample" transform="translate(0.0 0.520922)"><path class="edge" d="M 0 0 V -0.520922 H 0.0" /><rect class="sym" height="6" width="6" x="-3" y="-3" /><text class="lab" transform="translate(0 11)">2</text></g><path class="edge" d="M 0 0 V -18.8117 H -11.25" /><circle class="sym" cx="0" cy="0" r="3" /><text class="lab rgt" transform="translate(3 -7.0)">11</text></g><path class="edge" d="M 0 0 V -2.38279 H 16.875" /><circle class="sym" cx="0" cy="0" r="3" /><text class="lab lft" transform="translate(-3 -7.0)">18</text></g><path class="edge" d="M 0 0 V -26.4864 H 19.6875" /><circle class="sym" cx="0" cy="0" r="3" /><text class="lab lft" transform="translate(-3 -7.0)">19</text></g><path class="edge" d="M 0 0 V -5.5119 H 0.0" /><circle class="sym" cx="0" cy="0" r="3" /><text class="lab lft" transform="translate(-3 -7.0)">23</text></g><path class="edge" d="M 0 0 V -18.2685 H 0.0" /><circle class="sym" cx="0" cy="0" r="3" /><text class="lab lft" transform="translate(-3 -7.0)">24</text></g><path class="edge" d="M 0 0 V -22.6177 H -46.4062" /><circle class="sym" cx="0" cy="0" r="3" /><text class="lab rgt" transform="translate(3 -7.0)">25</text></g><g class="a27 c2 node n26 p0" transform="translate(-46.4062 20.9242)"><g class="a26 c2 node n20 p0" transform="translate(-15 46.6042)"><g class="a20 leaf node n5 p0 sample" transform="translate(7.5 27.0716)"><path class="edge" d="M 0 0 V -27.0716 H -7.5" /><rect class="sym" height="6" width="6" x="-3" y="-3" /><text class="lab" transform="translate(0 11)">5</text></g><g class="a20 c1 node n16 p0" transform="translate(-7.5 17.7693)"><g class="a16 leaf node n0 p0 sample" transform="translate(0.0 9.30227)"><path class="edge" d="M 0 0 V -9.30227 H 0.0" /><rect class="sym" height="6" width="6" x="-3" y="-3" /><text class="lab" transform="translate(0 11)">0</text></g><path class="edge" d="M 0 0 V -17.7693 H 7.5" /><circle class="sym" cx="0" cy="0" r="3" /><text class="lab lft" transform="translate(-3 -7.0)">16</text></g><path class="edge" d="M 0 0 V -46.6042 H 15" /><circle class="sym" cx="0" cy="0" r="3" /><text class="lab lft" transform="translate(-3 -7.0)">20</text></g><g class="a26 c1 node n21 p0" transform="translate(15 42.1193)"><g class="a21 c2 node n13 p0" transform="translate(0.0 27.2914)"><g class="a13 leaf node n3 p0 sample" transform="translate(-7.5 4.26515)"><path class="edge" d="M 0 0 V -4.26515 H 7.5" /><rect class="sym" height="6" width="6" x="-3" y="-3" /><text class="lab" transform="translate(0 11)">3</text></g><g class="a13 leaf node n6 p0 sample" transform="translate(7.5 4.26515)"><path class="edge" d="M 0 0 V -4.26515 H -7.5" /><rect class="sym" height="6" width="6" x="-3" y="-3" /><text class="lab" transform="translate(0 11)">6</text></g><path class="edge" d="M 0 0 V -27.2914 H 0.0" /><circle class="sym" cx="0" cy="0" r="3" /><text class="lab lft" transform="translate(-3 -7.0)">13</text></g><path class="edge" d="M 0 0 V -42.1193 H -15" /><circle class="sym" cx="0" cy="0" r="3" /><text class="lab rgt" transform="translate(3 -7.0)">21</text></g><path class="edge" d="M 0 0 V -20.9242 H 46.4062" /><circle class="sym" cx="0" cy="0" r="3" /><text class="lab lft" transform="translate(-3 -7.0)">26</text></g><circle class="sym" cx="0" cy="0" r="3" /><text class="lab" transform="translate(0 -11)">27</text></g></g></g><g class="tree t1" transform="translate(210 0)"><g class="plotbox"><g class="c2 node n27 p0 root" transform="translate(84.4531 26.8)"><g class="a27 c2 node n25 p0" transform="translate(49.4531 22.6177)"><g class="a25 c1 node n24 p0" transform="translate(-21.0938 18.2685)"><g class="a24 c2 node n23 p0" transform="translate(0.0 5.5119)"><g class="a23 c1 node n14 p0" transform="translate(19.6875 40.3784)"><g class="a14 leaf node n4 p0 sample" transform="translate(0.0 7.8234)"><path class="edge" d="M 0 0 V -7.8234 H 0.0" /><rect class="sym" height="6" width="6" x="-3" y="-3" /><text class="lab" transform="translate(0 11)">4</text></g><path class="edge" d="M 0 0 V -40.3784 H -19.6875" /><circle class="sym" cx="0" cy="0" r="3" /><text class="lab rgt" transform="translate(3 -7.0)">14</text></g><g class="a23 c2 node n19 p0" transform="translate(-19.6875 26.4864)"><g class="a19 c2 node n17 p0" transform="translate(16.875 7.8976)"><g class="a17 leaf node n8 p0 sample" transform="translate(-7.5 13.8178)"><path class="edge" d="M 0 0 V -13.8178 H 7.5" /><rect class="sym" height="6" width="6" x="-3" y="-3" /><text class="lab" transform="translate(0 11)">8</text></g><g class="a17 leaf node n9 p0 sample" transform="translate(7.5 13.8178)"><path class="edge" d="M 0 0 V -13.8178 H -7.5" /><rect class="sym" height="6" width="6" x="-3" y="-3" /><text class="lab" transform="translate(0 11)">9</text></g><path class="edge" d="M 0 0 V -7.8976 H -16.875" /><circle class="sym" cx="0" cy="0" r="3" /><text class="lab rgt" transform="translate(3 -7.0)">17</text></g><g class="a19 c2 node n18 p0" transform="translate(-16.875 2.38279)"><g class="a18 c2 node n10 p0" transform="translate(-11.25 19.3168)"><g class="a10 leaf node n1 p0 sample" transform="translate(-7.5 0.0158664)"><path class="edge" d="M 0 0 V -0.0158664 H 7.5" /><rect class="sym" height="6" width="6" x="-3" y="-3" /><text class="lab" transform="translate(0 11)">1</text></g><g class="a10 leaf node n7 p0 sample" transform="translate(7.5 0.0158664)"><path class="edge" d="M 0 0 V -0.0158664 H -7.5" /><rect class="sym" height="6" width="6" x="-3" y="-3" /><text class="lab" transform="translate(0 11)">7</text></g><path class="edge" d="M 0 0 V -19.3168 H 11.25" /><circle class="sym" cx="0" cy="0" r="3" /><text class="lab lft" transform="translate(-3 -7.0)">10</text></g><g class="a18 c1 node n11 p0" transform="translate(11.25 18.8117)"><g class="a11 leaf node n2 p0 sample" transform="translate(0.0 0.520922)"><path class="edge" d="M 0 0 V -0.520922 H 0.0" /><rect class="sym" height="6" width="6" x="-3" y="-3" /><text class="lab" transform="translate(0 11)">2</text></g><path class="edge" d="M 0 0 V -18.8117 H -11.25" /><circle class="sym" cx="0" cy="0" r="3" /><text class="lab rgt" transform="translate(3 -7.0)">11</text></g><path class="edge" d="M 0 0 V -2.38279 H 16.875" /><circle class="sym" cx="0" cy="0" r="3" /><text class="lab lft" transform="translate(-3 -7.0)">18</text></g><path class="edge" d="M 0 0 V -26.4864 H 19.6875" /><circle class="sym" cx="0" cy="0" r="3" /><text class="lab lft" transform="translate(-3 -7.0)">19</text></g><path class="edge" d="M 0 0 V -5.5119 H 0.0" /><circle class="sym" cx="0" cy="0" r="3" /><text class="lab lft" transform="translate(-3 -7.0)">23</text></g><path class="edge" d="M 0 0 V -18.2685 H 21.0938" /><circle class="sym" cx="0" cy="0" r="3" /><text class="lab lft" transform="translate(-3 -7.0)">24</text></g><g class="a25 c1 node n22 p0" transform="translate(21.0938 40.4257)"><g class="a22 c2 node n13 p0" transform="translate(0.0 27.2914)"><g class="a13 leaf node n3 p0 sample" transform="translate(-7.5 4.26515)"><path class="edge" d="M 0 0 V -4.26515 H 7.5" /><rect class="sym" height="6" width="6" x="-3" y="-3" /><text class="lab" transform="translate(0 11)">3</text></g><g class="a13 leaf node n6 p0 sample" transform="translate(7.5 4.26515)"><path class="edge" d="M 0 0 V -4.26515 H -7.5" /><rect class="sym" height="6" width="6" x="-3" y="-3" /><text class="lab" transform="translate(0 11)">6</text></g><path class="edge" d="M 0 0 V -27.2914 H 0.0" /><circle class="sym" cx="0" cy="0" r="3" /><text class="lab lft" transform="translate(-3 -7.0)">13</text></g><path class="edge" d="M 0 0 V -40.4257 H -21.0938" /><circle class="sym" cx="0" cy="0" r="3" /><text class="lab rgt" transform="translate(3 -7.0)">22</text></g><path class="edge" d="M 0 0 V -22.6177 H -49.4531" /><circle class="sym" cx="0" cy="0" r="3" /><text class="lab rgt" transform="translate(3 -7.0)">25</text></g><g class="a27 c1 node n26 p0" transform="translate(-49.4531 20.9242)"><g class="a26 c2 node n20 p0" transform="translate(0.0 46.6042)"><g class="a20 leaf node n5 p0 sample" transform="translate(7.5 27.0716)"><path class="edge" d="M 0 0 V -27.0716 H -7.5" /><rect class="sym" height="6" width="6" x="-3" y="-3" /><text class="lab" transform="translate(0 11)">5</text></g><g class="a20 c1 node n16 p0" transform="translate(-7.5 17.7693)"><g class="a16 leaf node n0 p0 sample" transform="translate(0.0 9.30227)"><path class="edge" d="M 0 0 V -9.30227 H 0.0" /><rect class="sym" height="6" width="6" x="-3" y="-3" /><text class="lab" transform="translate(0 11)">0</text></g><path class="edge" d="M 0 0 V -17.7693 H 7.5" /><circle class="sym" cx="0" cy="0" r="3" /><text class="lab lft" transform="translate(-3 -7.0)">16</text></g><path class="edge" d="M 0 0 V -46.6042 H 0.0" /><circle class="sym" cx="0" cy="0" r="3" /><text class="lab lft" transform="translate(-3 -7.0)">20</text></g><path class="edge" d="M 0 0 V -20.9242 H 49.4531" /><circle class="sym" cx="0" cy="0" r="3" /><text class="lab lft" transform="translate(-3 -7.0)">26</text></g><circle class="sym" cx="0" cy="0" r="3" /><text class="lab" transform="translate(0 -11)">27</text></g></g></g><g class="tree t2" transform="translate(400 0)"><g class="plotbox"><g class="c2 node n27 p0 root" transform="translate(85.1562 26.8)"><g class="a27 c2 node n25 p0" transform="translate(50.1562 22.6177)"><g class="a25 c2 node n24 p0" transform="translate(-19.6875 18.2685)"><g class="a24 c2 node n23 p0" transform="translate(-16.875 5.5119)"><g class="a23 c1 node n14 p0" transform="translate(18.75 40.3784)"><g class="a14 leaf node n4 p0 sample" transform="translate(0.0 7.8234)"><path class="edge" d="M 0 0 V -7.8234 H 0.0" /><rect class="sym" height="6" width="6" x="-3" y="-3" /><text class="lab" transform="translate(0 11)">4</text></g><path class="edge" d="M 0 0 V -40.3784 H -18.75" /><circle class="sym" cx="0" cy="0" r="3" /><text class="lab rgt" transform="translate(3 -7.0)">14</text></g><g class="a23 c2 node n19 p0" transform="translate(-18.75 26.4864)"><g class="a19 c2 node n17 p0" transform="translate(15 7.8976)"><g class="a17 leaf node n8 p0 sample" transform="translate(-7.5 13.8178)"><path class="edge" d="M 0 0 V -13.8178 H 7.5" /><rect class="sym" height="6" width="6" x="-3" y="-3" /><text class="lab" transform="translate(0 11)">8</text></g><g class="a17 leaf node n9 p0 sample" transform="translate(7.5 13.8178)"><path class="edge" d="M 0 0 V -13.8178 H -7.5" /><rect class="sym" height="6" width="6" x="-3" y="-3" /><text class="lab" transform="translate(0 11)">9</text></g><path class="edge" d="M 0 0 V -7.8976 H -15" /><circle class="sym" cx="0" cy="0" r="3" /><text class="lab rgt" transform="translate(3 -7.0)">17</text></g><g class="a19 c1 node n18 p0" transform="translate(-15 2.38279)"><g class="a18 c2 node n10 p0" transform="translate(0.0 19.3168)"><g class="a10 leaf node n1 p0 sample" transform="translate(-7.5 0.0158664)"><path class="edge" d="M 0 0 V -0.0158664 H 7.5" /><rect class="sym" height="6" width="6" x="-3" y="-3" /><text class="lab" transform="translate(0 11)">1</text></g><g class="a10 leaf node n7 p0 sample" transform="translate(7.5 0.0158664)"><path class="edge" d="M 0 0 V -0.0158664 H -7.5" /><rect class="sym" height="6" width="6" x="-3" y="-3" /><text class="lab" transform="translate(0 11)">7</text></g><path class="edge" d="M 0 0 V -19.3168 H 0.0" /><circle class="sym" cx="0" cy="0" r="3" /><text class="lab lft" transform="translate(-3 -7.0)">10</text></g><path class="edge" d="M 0 0 V -2.38279 H 15" /><circle class="sym" cx="0" cy="0" r="3" /><text class="lab lft" transform="translate(-3 -7.0)">18</text></g><path class="edge" d="M 0 0 V -26.4864 H 18.75" /><circle class="sym" cx="0" cy="0" r="3" /><text class="lab lft" transform="translate(-3 -7.0)">19</text></g><path class="edge" d="M 0 0 V -5.5119 H 16.875" /><circle class="sym" cx="0" cy="0" r="3" /><text class="lab lft" transform="translate(-3 -7.0)">23</text></g><g class="a24 c1 node n12 p0" transform="translate(16.875 53.1928)"><g class="a12 leaf node n2 p0 sample" transform="translate(0.0 0.520922)"><path class="edge" d="M 0 0 V -0.520922 H 0.0" /><rect class="sym" height="6" width="6" x="-3" y="-3" /><text class="lab" transform="translate(0 11)">2</text></g><path class="edge" d="M 0 0 V -53.1928 H -16.875" /><circle class="sym" cx="0" cy="0" r="3" /><text class="lab rgt" transform="translate(3 -7.0)">12</text></g><path class="edge" d="M 0 0 V -18.2685 H 19.6875" /><circle class="sym" cx="0" cy="0" r="3" /><text class="lab lft" transform="translate(-3 -7.0)">24</text></g><g class="a25 c1 node n22 p0" transform="translate(19.6875 40.4257)"><g class="a22 c2 node n13 p0" transform="translate(0.0 27.2914)"><g class="a13 leaf node n3 p0 sample" transform="translate(-7.5 4.26515)"><path class="edge" d="M 0 0 V -4.26515 H 7.5" /><rect class="sym" height="6" width="6" x="-3" y="-3" /><text class="lab" transform="translate(0 11)">3</text></g><g class="a13 leaf node n6 p0 sample" transform="translate(7.5 4.26515)"><path class="edge" d="M 0 0 V -4.26515 H -7.5" /><rect class="sym" height="6" width="6" x="-3" y="-3" /><text class="lab" transform="translate(0 11)">6</text></g><path class="edge" d="M 0 0 V -27.2914 H 0.0" /><circle class="sym" cx="0" cy="0" r="3" /><text class="lab lft" transform="translate(-3 -7.0)">13</text></g><path class="edge" d="M 0 0 V -40.4257 H -19.6875" /><circle class="sym" cx="0" cy="0" r="3" /><text class="lab rgt" transform="translate(3 -7.0)">22</text></g><path class="edge" d="M 0 0 V -22.6177 H -50.1562" /><circle class="sym" cx="0" cy="0" r="3" /><text class="lab rgt" transform="translate(3 -7.0)">25</text></g><g class="a27 c1 node n26 p0" transform="translate(-50.1562 20.9242)"><g class="a26 c2 node n20 p0" transform="translate(0.0 46.6042)"><g class="a20 leaf node n5 p0 sample" transform="translate(7.5 27.0716)"><path class="edge" d="M 0 0 V -27.0716 H -7.5" /><rect class="sym" height="6" width="6" x="-3" y="-3" /><text class="lab" transform="translate(0 11)">5</text></g><g class="a20 c1 node n16 p0" transform="translate(-7.5 17.7693)"><g class="a16 leaf node n0 p0 sample" transform="translate(0.0 9.30227)"><path class="edge" d="M 0 0 V -9.30227 H 0.0" /><rect class="sym" height="6" width="6" x="-3" y="-3" /><text class="lab" transform="translate(0 11)">0</text></g><path class="edge" d="M 0 0 V -17.7693 H 7.5" /><circle class="sym" cx="0" cy="0" r="3" /><text class="lab lft" transform="translate(-3 -7.0)">16</text></g><path class="edge" d="M 0 0 V -46.6042 H 0.0" /><circle class="sym" cx="0" cy="0" r="3" /><text class="lab lft" transform="translate(-3 -7.0)">20</text></g><path class="edge" d="M 0 0 V -20.9242 H 50.1562" /><circle class="sym" cx="0" cy="0" r="3" /><text class="lab lft" transform="translate(-3 -7.0)">26</text></g><circle class="sym" cx="0" cy="0" r="3" /><text class="lab" transform="translate(0 -11)">27</text></g></g></g><g class="tree t3" transform="translate(590 0)"><g class="plotbox"><g class="c2 node n27 p0 root" transform="translate(90.3125 26.8)"><g class="a27 c2 node n25 p0" transform="translate(44.0625 22.6177)"><g class="a25 c2 node n24 p0" transform="translate(-20.625 18.2685)"><g class="a24 c1 node n23 p0" transform="translate(-18.75 5.5119)"><g class="a23 c2 node n19 p0" transform="translate(0.0 26.4864)"><g class="a19 c2 node n17 p0" transform="translate(15 7.8976)"><g class="a17 leaf node n8 p0 sample" transform="translate(-7.5 13.8178)"><path class="edge" d="M 0 0 V -13.8178 H 7.5" /><rect class="sym" height="6" width="6" x="-3" y="-3" /><text class="lab" transform="translate(0 11)">8</text></g><g class="a17 leaf node n9 p0 sample" transform="translate(7.5 13.8178)"><path class="edge" d="M 0 0 V -13.8178 H -7.5" /><rect class="sym" height="6" width="6" x="-3" y="-3" /><text class="lab" transform="translate(0 11)">9</text></g><path class="edge" d="M 0 0 V -7.8976 H -15" /><circle class="sym" cx="0" cy="0" r="3" /><text class="lab rgt" transform="translate(3 -7.0)">17</text></g><g class="a19 c1 node n18 p0" transform="translate(-15 2.38279)"><g class="a18 c2 node n10 p0" transform="translate(0.0 19.3168)"><g class="a10 leaf node n1 p0 sample" transform="translate(-7.5 0.0158664)"><path class="edge" d="M 0 0 V -0.0158664 H 7.5" /><rect class="sym" height="6" width="6" x="-3" y="-3" /><text class="lab" transform="translate(0 11)">1</text></g><g class="a10 leaf node n7 p0 sample" transform="translate(7.5 0.0158664)"><path class="edge" d="M 0 0 V -0.0158664 H -7.5" /><rect class="sym" height="6" width="6" x="-3" y="-3" /><text class="lab" transform="translate(0 11)">7</text></g><path class="edge" d="M 0 0 V -19.3168 H 0.0" /><circle class="sym" cx="0" cy="0" r="3" /><text class="lab lft" transform="translate(-3 -7.0)">10</text></g><path class="edge" d="M 0 0 V -2.38279 H 15" /><circle class="sym" cx="0" cy="0" r="3" /><text class="lab lft" transform="translate(-3 -7.0)">18</text></g><path class="edge" d="M 0 0 V -26.4864 H 0.0" /><circle class="sym" cx="0" cy="0" r="3" /><text class="lab lft" transform="translate(-3 -7.0)">19</text></g><path class="edge" d="M 0 0 V -5.5119 H 18.75" /><circle class="sym" cx="0" cy="0" r="3" /><text class="lab lft" transform="translate(-3 -7.0)">23</text></g><g class="a24 c1 node n12 p0" transform="translate(18.75 53.1928)"><g class="a12 leaf node n2 p0 sample" transform="translate(0.0 0.520922)"><path class="edge" d="M 0 0 V -0.520922 H 0.0" /><rect class="sym" height="6" width="6" x="-3" y="-3" /><text class="lab" transform="translate(0 11)">2</text></g><path class="edge" d="M 0 0 V -53.1928 H -18.75" /><circle class="sym" cx="0" cy="0" r="3" /><text class="lab rgt" transform="translate(3 -7.0)">12</text></g><path class="edge" d="M 0 0 V -18.2685 H 20.625" /><circle class="sym" cx="0" cy="0" r="3" /><text class="lab lft" transform="translate(-3 -7.0)">24</text></g><g class="a25 c1 node n22 p0" transform="translate(20.625 40.4257)"><g class="a22 c2 node n13 p0" transform="translate(0.0 27.2914)"><g class="a13 leaf node n3 p0 sample" transform="translate(-7.5 4.26515)"><path class="edge" d="M 0 0 V -4.26515 H 7.5" /><rect class="sym" height="6" width="6" x="-3" y="-3" /><text class="lab" transform="translate(0 11)">3</text></g><g class="a13 leaf node n6 p0 sample" transform="translate(7.5 4.26515)"><path class="edge" d="M 0 0 V -4.26515 H -7.5" /><rect class="sym" height="6" width="6" x="-3" y="-3" /><text class="lab" transform="translate(0 11)">6</text></g><path class="edge" d="M 0 0 V -27.2914 H 0.0" /><circle class="sym" cx="0" cy="0" r="3" /><text class="lab lft" transform="translate(-3 -7.0)">13</text></g><path class="edge" d="M 0 0 V -40.4257 H -20.625" /><circle class="sym" cx="0" cy="0" r="3" /><text class="lab rgt" transform="translate(3 -7.0)">22</text></g><path class="edge" d="M 0 0 V -22.6177 H -44.0625" /><circle class="sym" cx="0" cy="0" r="3" /><text class="lab rgt" transform="translate(3 -7.0)">25</text></g><g class="a27 c1 node n26 p0" transform="translate(-44.0625 20.9242)"><g class="a26 c2 node n20 p0" transform="translate(0.0 46.6042)"><g class="a20 leaf node n5 p0 sample" transform="translate(11.25 27.0716)"><path class="edge" d="M 0 0 V -27.0716 H -11.25" /><rect class="sym" height="6" width="6" x="-3" y="-3" /><text class="lab" transform="translate(0 11)">5</text></g><g class="a20 c2 node n16 p0" transform="translate(-11.25 17.7693)"><g class="a16 leaf node n0 p0 sample" transform="translate(-7.5 9.30227)"><path class="edge" d="M 0 0 V -9.30227 H 7.5" /><rect class="sym" height="6" width="6" x="-3" y="-3" /><text class="lab" transform="translate(0 11)">0</text></g><g class="a16 c1 node n15 p0" transform="translate(7.5 1.47887)"><g class="a15 leaf node n4 p0 sample" transform="translate(0.0 7.8234)"><path class="edge" d="M 0 0 V -7.8234 H 0.0" /><rect class="sym" height="6" width="6" x="-3" y="-3" /><text class="lab" transform="translate(0 11)">4</text></g><path class="edge" d="M 0 0 V -1.47887 H -7.5" /><circle class="sym" cx="0" cy="0" r="3" /><text class="lab rgt" transform="translate(3 -7.0)">15</text></g><path class="edge" d="M 0 0 V -17.7693 H 11.25" /><circle class="sym" cx="0" cy="0" r="3" /><text class="lab lft" transform="translate(-3 -7.0)">16</text></g><path class="edge" d="M 0 0 V -46.6042 H 0.0" /><circle class="sym" cx="0" cy="0" r="3" /><text class="lab lft" transform="translate(-3 -7.0)">20</text></g><path class="edge" d="M 0 0 V -20.9242 H 44.0625" /><circle class="sym" cx="0" cy="0" r="3" /><text class="lab lft" transform="translate(-3 -7.0)">26</text></g><circle class="sym" cx="0" cy="0" r="3" /><text class="lab" transform="translate(0 -11)">27</text></g></g></g></g></g></svg>
